<?xml version="1.0" encoding="utf-8" standalone="no"?>
<!DOCTYPE svg PUBLIC "-//W3C//DTD SVG 1.1//EN"
  "http://www.w3.org/Graphics/SVG/1.1/DTD/svg11.dtd">
<svg xmlns:xlink="http://www.w3.org/1999/xlink" width="1440pt" height="720pt" viewBox="0 0 1440 720" xmlns="http://www.w3.org/2000/svg" version="1.1">
 <metadata>
  <rdf:RDF xmlns:dc="http://purl.org/dc/elements/1.1/" xmlns:cc="http://creativecommons.org/ns#" xmlns:rdf="http://www.w3.org/1999/02/22-rdf-syntax-ns#">
   <cc:Work>
    <dc:type rdf:resource="http://purl.org/dc/dcmitype/StillImage"/>
    <dc:date>2023-11-21T13:02:25.665669</dc:date>
    <dc:format>image/svg+xml</dc:format>
    <dc:creator>
     <cc:Agent>
      <dc:title>Matplotlib v3.6.3, https://matplotlib.org/</dc:title>
     </cc:Agent>
    </dc:creator>
   </cc:Work>
  </rdf:RDF>
 </metadata>
 <defs>
  <style type="text/css">*{stroke-linejoin: round; stroke-linecap: butt}</style>
 </defs>
 <g id="figure_1">
  <g id="patch_1">
   <path d="M 0 720 
L 1440 720 
L 1440 0 
L 0 0 
z
" style="fill: #ffffff"/>
  </g>
  <g id="axes_1">
   <g id="patch_2">
    <path d="M 61.986549 612.426839 
L 1436.99976 612.426839 
L 1436.99976 25.604645 
L 61.986549 25.604645 
z
" style="fill: #ffffff"/>
   </g>
   <g id="matplotlib.axis_1">
    <g id="xtick_1">
     <g id="line2d_1">
      <path d="M 124.487149 612.426839 
L 124.487149 25.604645 
" clip-path="url(#p2f842e470b)" style="fill: none; stroke: #cccccc; stroke-opacity: 0.5; stroke-width: 0.8; stroke-linecap: round"/>
     </g>
     <g id="text_1">
      <!-- $\mathdefault{2015}$ -->
      <g transform="translate(106.210958 629.763836) scale(0.2 -0.2)">
       <defs>
        <path id="CMR17-32" d="M 2669 989 
L 2554 989 
C 2490 536 2438 459 2413 420 
C 2381 369 1920 369 1830 369 
L 602 369 
C 832 619 1280 1072 1824 1597 
C 2214 1967 2669 2402 2669 3035 
C 2669 3790 2067 4224 1395 4224 
C 691 4224 262 3604 262 3030 
C 262 2780 448 2748 525 2748 
C 589 2748 781 2787 781 3010 
C 781 3207 614 3264 525 3264 
C 486 3264 448 3258 422 3245 
C 544 3790 915 4058 1306 4058 
C 1862 4058 2227 3617 2227 3035 
C 2227 2479 1901 2000 1536 1584 
L 262 146 
L 262 0 
L 2515 0 
L 2669 989 
z
" transform="scale(0.015625)"/>
        <path id="CMR17-30" d="M 2688 2025 
C 2688 2416 2682 3080 2413 3591 
C 2176 4039 1798 4198 1466 4198 
C 1158 4198 768 4058 525 3597 
C 269 3118 243 2524 243 2025 
C 243 1661 250 1106 448 619 
C 723 -39 1216 -128 1466 -128 
C 1760 -128 2208 -7 2470 600 
C 2662 1042 2688 1559 2688 2025 
z
M 1466 -26 
C 1056 -26 813 325 723 812 
C 653 1188 653 1738 653 2096 
C 653 2588 653 2997 736 3387 
C 858 3929 1216 4096 1466 4096 
C 1728 4096 2067 3923 2189 3400 
C 2272 3036 2278 2607 2278 2096 
C 2278 1680 2278 1169 2202 792 
C 2067 95 1690 -26 1466 -26 
z
" transform="scale(0.015625)"/>
        <path id="CMR17-31" d="M 1702 4058 
C 1702 4192 1696 4192 1606 4192 
C 1357 3916 979 3827 621 3827 
C 602 3827 570 3827 563 3808 
C 557 3795 557 3782 557 3648 
C 755 3648 1088 3686 1344 3839 
L 1344 461 
C 1344 236 1331 160 781 160 
L 589 160 
L 589 0 
C 896 0 1216 0 1523 0 
C 1830 0 2150 0 2458 0 
L 2458 160 
L 2266 160 
C 1715 160 1702 230 1702 458 
L 1702 4058 
z
" transform="scale(0.015625)"/>
        <path id="CMR17-35" d="M 730 3692 
C 794 3666 1056 3584 1325 3584 
C 1920 3584 2246 3911 2432 4100 
C 2432 4157 2432 4192 2394 4192 
C 2387 4192 2374 4192 2323 4163 
C 2099 4058 1837 3973 1517 3973 
C 1325 3973 1037 3999 723 4139 
C 653 4171 640 4171 634 4171 
C 602 4171 595 4164 595 4037 
L 595 2203 
C 595 2089 595 2057 659 2057 
C 691 2057 704 2070 736 2114 
C 941 2401 1222 2522 1542 2522 
C 1766 2522 2246 2382 2246 1289 
C 2246 1085 2246 715 2054 421 
C 1894 159 1645 25 1370 25 
C 947 25 518 320 403 814 
C 429 807 480 795 506 795 
C 589 795 749 840 749 1038 
C 749 1210 627 1280 506 1280 
C 358 1280 262 1190 262 1011 
C 262 454 704 -128 1382 -128 
C 2042 -128 2669 440 2669 1264 
C 2669 2030 2170 2624 1549 2624 
C 1222 2624 947 2503 730 2274 
L 730 3692 
z
" transform="scale(0.015625)"/>
       </defs>
       <use xlink:href="#CMR17-32" transform="scale(0.996264)"/>
       <use xlink:href="#CMR17-30" transform="translate(45.690477 0) scale(0.996264)"/>
       <use xlink:href="#CMR17-31" transform="translate(91.380954 0) scale(0.996264)"/>
       <use xlink:href="#CMR17-35" transform="translate(137.071431 0) scale(0.996264)"/>
      </g>
     </g>
    </g>
    <g id="xtick_2">
     <g id="line2d_2">
      <path d="M 265.917522 612.426839 
L 265.917522 25.604645 
" clip-path="url(#p2f842e470b)" style="fill: none; stroke: #cccccc; stroke-opacity: 0.5; stroke-width: 0.8; stroke-linecap: round"/>
     </g>
     <g id="text_2">
      <!-- $\mathdefault{2016}$ -->
      <g transform="translate(247.641331 629.763836) scale(0.2 -0.2)">
       <defs>
        <path id="CMR17-36" d="M 678 2176 
C 678 3690 1395 4032 1811 4032 
C 1946 4032 2272 4009 2400 3776 
C 2298 3776 2106 3776 2106 3553 
C 2106 3381 2246 3323 2336 3323 
C 2394 3323 2566 3348 2566 3560 
C 2566 3954 2246 4179 1805 4179 
C 1043 4179 243 3390 243 1984 
C 243 253 966 -128 1478 -128 
C 2099 -128 2688 427 2688 1283 
C 2688 2081 2170 2662 1517 2662 
C 1126 2662 838 2407 678 1960 
L 678 2176 
z
M 1478 25 
C 691 25 691 1200 691 1436 
C 691 1896 909 2560 1504 2560 
C 1613 2560 1926 2560 2138 2120 
C 2253 1870 2253 1609 2253 1289 
C 2253 944 2253 690 2118 434 
C 1978 171 1773 25 1478 25 
z
" transform="scale(0.015625)"/>
       </defs>
       <use xlink:href="#CMR17-32" transform="scale(0.996264)"/>
       <use xlink:href="#CMR17-30" transform="translate(45.690477 0) scale(0.996264)"/>
       <use xlink:href="#CMR17-31" transform="translate(91.380954 0) scale(0.996264)"/>
       <use xlink:href="#CMR17-36" transform="translate(137.071431 0) scale(0.996264)"/>
      </g>
     </g>
    </g>
    <g id="xtick_3">
     <g id="line2d_3">
      <path d="M 407.735376 612.426839 
L 407.735376 25.604645 
" clip-path="url(#p2f842e470b)" style="fill: none; stroke: #cccccc; stroke-opacity: 0.5; stroke-width: 0.8; stroke-linecap: round"/>
     </g>
     <g id="text_3">
      <!-- $\mathdefault{2017}$ -->
      <g transform="translate(389.459185 629.763836) scale(0.2 -0.2)">
       <defs>
        <path id="CMR17-37" d="M 2886 3941 
L 2886 4081 
L 1382 4081 
C 634 4081 621 4165 595 4288 
L 480 4288 
L 294 3094 
L 410 3094 
C 429 3215 474 3540 550 3661 
C 589 3712 1062 3712 1171 3712 
L 2579 3712 
L 1869 2661 
C 1395 1954 1069 999 1069 165 
C 1069 89 1069 -128 1299 -128 
C 1530 -128 1530 89 1530 171 
L 1530 465 
C 1530 1508 1709 2196 2003 2636 
L 2886 3941 
z
" transform="scale(0.015625)"/>
       </defs>
       <use xlink:href="#CMR17-32" transform="scale(0.996264)"/>
       <use xlink:href="#CMR17-30" transform="translate(45.690477 0) scale(0.996264)"/>
       <use xlink:href="#CMR17-31" transform="translate(91.380954 0) scale(0.996264)"/>
       <use xlink:href="#CMR17-37" transform="translate(137.071431 0) scale(0.996264)"/>
      </g>
     </g>
    </g>
    <g id="xtick_4">
     <g id="line2d_4">
      <path d="M 549.165749 612.426839 
L 549.165749 25.604645 
" clip-path="url(#p2f842e470b)" style="fill: none; stroke: #cccccc; stroke-opacity: 0.5; stroke-width: 0.8; stroke-linecap: round"/>
     </g>
     <g id="text_4">
      <!-- $\mathdefault{2018}$ -->
      <g transform="translate(530.889558 629.763836) scale(0.2 -0.2)">
       <defs>
        <path id="CMR17-38" d="M 1741 2264 
C 2144 2467 2554 2773 2554 3263 
C 2554 3841 1990 4179 1472 4179 
C 890 4179 378 3759 378 3180 
C 378 3021 416 2747 666 2505 
C 730 2442 998 2251 1171 2130 
C 883 1983 211 1634 211 934 
C 211 279 838 -128 1459 -128 
C 2144 -128 2720 362 2720 1010 
C 2720 1590 2330 1857 2074 2029 
L 1741 2264 
z
M 902 2822 
C 851 2854 595 3051 595 3351 
C 595 3739 998 4032 1459 4032 
C 1965 4032 2336 3676 2336 3262 
C 2336 2669 1670 2331 1638 2331 
C 1632 2331 1626 2331 1574 2370 
L 902 2822 
z
M 2080 1519 
C 2176 1449 2483 1240 2483 851 
C 2483 381 2010 25 1472 25 
C 890 25 448 438 448 940 
C 448 1443 838 1862 1280 2060 
L 2080 1519 
z
" transform="scale(0.015625)"/>
       </defs>
       <use xlink:href="#CMR17-32" transform="scale(0.996264)"/>
       <use xlink:href="#CMR17-30" transform="translate(45.690477 0) scale(0.996264)"/>
       <use xlink:href="#CMR17-31" transform="translate(91.380954 0) scale(0.996264)"/>
       <use xlink:href="#CMR17-38" transform="translate(137.071431 0) scale(0.996264)"/>
      </g>
     </g>
    </g>
    <g id="xtick_5">
     <g id="line2d_5">
      <path d="M 690.596122 612.426839 
L 690.596122 25.604645 
" clip-path="url(#p2f842e470b)" style="fill: none; stroke: #cccccc; stroke-opacity: 0.5; stroke-width: 0.8; stroke-linecap: round"/>
     </g>
     <g id="text_5">
      <!-- $\mathdefault{2019}$ -->
      <g transform="translate(672.319931 629.763836) scale(0.2 -0.2)">
       <defs>
        <path id="CMR17-39" d="M 2253 1864 
C 2253 464 1670 31 1190 31 
C 1043 31 685 31 538 294 
C 704 268 826 357 826 518 
C 826 692 685 749 595 749 
C 538 749 365 723 365 506 
C 365 71 742 -128 1203 -128 
C 1939 -128 2688 674 2688 2073 
C 2688 3817 1971 4179 1485 4179 
C 851 4179 243 3628 243 2778 
C 243 1991 762 1408 1414 1408 
C 1952 1408 2189 1903 2253 2112 
L 2253 1864 
z
M 1427 1510 
C 1254 1510 1011 1542 813 1922 
C 678 2169 678 2461 678 2771 
C 678 3146 678 3405 858 3684 
C 947 3817 1114 4032 1485 4032 
C 2240 4032 2240 2885 2240 2632 
C 2240 2182 2035 1510 1427 1510 
z
" transform="scale(0.015625)"/>
       </defs>
       <use xlink:href="#CMR17-32" transform="scale(0.996264)"/>
       <use xlink:href="#CMR17-30" transform="translate(45.690477 0) scale(0.996264)"/>
       <use xlink:href="#CMR17-31" transform="translate(91.380954 0) scale(0.996264)"/>
       <use xlink:href="#CMR17-39" transform="translate(137.071431 0) scale(0.996264)"/>
      </g>
     </g>
    </g>
    <g id="xtick_6">
     <g id="line2d_6">
      <path d="M 832.026495 612.426839 
L 832.026495 25.604645 
" clip-path="url(#p2f842e470b)" style="fill: none; stroke: #cccccc; stroke-opacity: 0.5; stroke-width: 0.8; stroke-linecap: round"/>
     </g>
     <g id="text_6">
      <!-- $\mathdefault{2020}$ -->
      <g transform="translate(813.750305 629.763836) scale(0.2 -0.2)">
       <use xlink:href="#CMR17-32" transform="scale(0.996264)"/>
       <use xlink:href="#CMR17-30" transform="translate(45.690477 0) scale(0.996264)"/>
       <use xlink:href="#CMR17-32" transform="translate(91.380954 0) scale(0.996264)"/>
       <use xlink:href="#CMR17-30" transform="translate(137.071431 0) scale(0.996264)"/>
      </g>
     </g>
    </g>
    <g id="xtick_7">
     <g id="line2d_7">
      <path d="M 973.844349 612.426839 
L 973.844349 25.604645 
" clip-path="url(#p2f842e470b)" style="fill: none; stroke: #cccccc; stroke-opacity: 0.5; stroke-width: 0.8; stroke-linecap: round"/>
     </g>
     <g id="text_7">
      <!-- $\mathdefault{2021}$ -->
      <g transform="translate(955.568158 629.763836) scale(0.2 -0.2)">
       <use xlink:href="#CMR17-32" transform="scale(0.996264)"/>
       <use xlink:href="#CMR17-30" transform="translate(45.690477 0) scale(0.996264)"/>
       <use xlink:href="#CMR17-32" transform="translate(91.380954 0) scale(0.996264)"/>
       <use xlink:href="#CMR17-31" transform="translate(137.071431 0) scale(0.996264)"/>
      </g>
     </g>
    </g>
    <g id="xtick_8">
     <g id="line2d_8">
      <path d="M 1115.274722 612.426839 
L 1115.274722 25.604645 
" clip-path="url(#p2f842e470b)" style="fill: none; stroke: #cccccc; stroke-opacity: 0.5; stroke-width: 0.8; stroke-linecap: round"/>
     </g>
     <g id="text_8">
      <!-- $\mathdefault{2022}$ -->
      <g transform="translate(1096.998531 629.763836) scale(0.2 -0.2)">
       <use xlink:href="#CMR17-32" transform="scale(0.996264)"/>
       <use xlink:href="#CMR17-30" transform="translate(45.690477 0) scale(0.996264)"/>
       <use xlink:href="#CMR17-32" transform="translate(91.380954 0) scale(0.996264)"/>
       <use xlink:href="#CMR17-32" transform="translate(137.071431 0) scale(0.996264)"/>
      </g>
     </g>
    </g>
    <g id="xtick_9">
     <g id="line2d_9">
      <path d="M 1256.705095 612.426839 
L 1256.705095 25.604645 
" clip-path="url(#p2f842e470b)" style="fill: none; stroke: #cccccc; stroke-opacity: 0.5; stroke-width: 0.8; stroke-linecap: round"/>
     </g>
     <g id="text_9">
      <!-- $\mathdefault{2023}$ -->
      <g transform="translate(1238.428904 629.763836) scale(0.2 -0.2)">
       <defs>
        <path id="CMR17-33" d="M 1414 2157 
C 1984 2157 2234 1662 2234 1090 
C 2234 320 1824 25 1453 25 
C 1114 25 563 194 390 693 
C 422 680 454 680 486 680 
C 640 680 755 782 755 948 
C 755 1133 614 1216 486 1216 
C 378 1216 211 1165 211 926 
C 211 335 787 -128 1466 -128 
C 2176 -128 2720 430 2720 1085 
C 2720 1707 2208 2157 1600 2227 
C 2086 2328 2554 2756 2554 3329 
C 2554 3820 2048 4179 1472 4179 
C 890 4179 378 3829 378 3329 
C 378 3110 544 3072 627 3072 
C 762 3072 877 3155 877 3321 
C 877 3486 762 3569 627 3569 
C 602 3569 570 3569 544 3557 
C 730 3959 1235 4032 1459 4032 
C 1683 4032 2106 3925 2106 3320 
C 2106 3143 2080 2828 1862 2550 
C 1670 2304 1453 2304 1242 2284 
C 1210 2284 1062 2269 1037 2269 
C 992 2263 966 2257 966 2208 
C 966 2163 973 2157 1101 2157 
L 1414 2157 
z
" transform="scale(0.015625)"/>
       </defs>
       <use xlink:href="#CMR17-32" transform="scale(0.996264)"/>
       <use xlink:href="#CMR17-30" transform="translate(45.690477 0) scale(0.996264)"/>
       <use xlink:href="#CMR17-32" transform="translate(91.380954 0) scale(0.996264)"/>
       <use xlink:href="#CMR17-33" transform="translate(137.071431 0) scale(0.996264)"/>
      </g>
     </g>
    </g>
    <g id="xtick_10">
     <g id="line2d_10">
      <path d="M 1398.135468 612.426839 
L 1398.135468 25.604645 
" clip-path="url(#p2f842e470b)" style="fill: none; stroke: #cccccc; stroke-opacity: 0.5; stroke-width: 0.8; stroke-linecap: round"/>
     </g>
     <g id="text_10">
      <!-- $\mathdefault{2024}$ -->
      <g transform="translate(1379.859278 629.763836) scale(0.2 -0.2)">
       <defs>
        <path id="CMR17-34" d="M 2150 4122 
C 2150 4256 2144 4256 2029 4256 
L 128 1254 
L 128 1088 
L 1779 1088 
L 1779 457 
C 1779 224 1766 160 1318 160 
L 1197 160 
L 1197 0 
C 1402 0 1747 0 1965 0 
C 2182 0 2528 0 2733 0 
L 2733 160 
L 2611 160 
C 2163 160 2150 224 2150 457 
L 2150 1088 
L 2803 1088 
L 2803 1254 
L 2150 1254 
L 2150 4122 
z
M 1798 3703 
L 1798 1254 
L 256 1254 
L 1798 3703 
z
" transform="scale(0.015625)"/>
       </defs>
       <use xlink:href="#CMR17-32" transform="scale(0.996264)"/>
       <use xlink:href="#CMR17-30" transform="translate(45.690477 0) scale(0.996264)"/>
       <use xlink:href="#CMR17-32" transform="translate(91.380954 0) scale(0.996264)"/>
       <use xlink:href="#CMR17-34" transform="translate(137.071431 0) scale(0.996264)"/>
      </g>
     </g>
    </g>
    <g id="text_11">
     <!-- Date -->
     <g style="fill: #696969" transform="translate(730.308117 651.476466) scale(0.2 -0.2)">
      <defs>
       <path id="CMR17-44" d="M 333 4352 
L 333 4186 
C 774 4186 845 4186 845 3900 
L 845 452 
C 845 166 774 166 333 166 
L 333 0 
L 2368 0 
C 3398 0 4224 943 4224 2141 
C 4224 3346 3411 4352 2368 4352 
L 333 4352 
z
M 1523 166 
C 1267 166 1254 197 1254 414 
L 1254 3938 
C 1254 4155 1267 4186 1523 4186 
L 2240 4186 
C 2771 4186 3750 3874 3750 2141 
C 3750 1242 3488 879 3366 707 
C 3213 510 2848 166 2240 166 
L 1523 166 
z
" transform="scale(0.015625)"/>
       <path id="CMR17-61" d="M 2304 1653 
C 2304 2072 2304 2294 2035 2543 
C 1798 2752 1523 2816 1306 2816 
C 800 2816 435 2407 435 1971 
C 435 1728 627 1728 666 1728 
C 749 1728 896 1778 896 1954 
C 896 2112 774 2181 666 2181 
C 640 2181 608 2174 589 2168 
C 723 2592 1069 2714 1293 2714 
C 1613 2714 1965 2429 1965 1885 
L 1965 1600 
C 1587 1600 1133 1549 774 1357 
C 371 1133 256 813 256 570 
C 256 77 832 -64 1171 -64 
C 1523 -64 1850 139 1990 511 
C 2003 233 2182 -18 2464 -18 
C 2598 -18 2938 70 2938 567 
L 2938 920 
L 2822 920 
L 2822 562 
C 2822 178 2650 128 2566 128 
C 2304 128 2304 458 2304 738 
L 2304 1653 
z
M 1965 870 
C 1965 317 1568 38 1216 38 
C 896 38 646 275 646 570 
C 646 761 730 1100 1101 1305 
C 1408 1478 1760 1504 1965 1504 
L 1965 870 
z
" transform="scale(0.015625)"/>
       <path id="CMR17-74" d="M 966 2560 
L 1862 2560 
L 1862 2725 
L 966 2725 
L 966 3904 
L 851 3904 
C 838 3245 614 2668 70 2668 
L 70 2560 
L 627 2560 
L 627 771 
C 627 650 627 -64 1370 -64 
C 1747 -64 1965 306 1965 777 
L 1965 1140 
L 1850 1140 
L 1850 783 
C 1850 344 1677 51 1408 51 
C 1222 51 966 178 966 758 
L 966 2560 
z
" transform="scale(0.015625)"/>
       <path id="CMR17-65" d="M 2438 1472 
C 2464 1498 2464 1511 2464 1576 
C 2464 2238 2118 2816 1389 2816 
C 710 2816 173 2169 173 1383 
C 173 551 781 -64 1459 -64 
C 2176 -64 2458 607 2458 740 
C 2458 784 2419 784 2406 784 
C 2362 784 2355 771 2330 696 
C 2189 265 1837 51 1504 51 
C 1229 51 954 203 781 480 
C 582 803 582 1176 582 1472 
L 2438 1472 
z
M 589 1568 
C 634 2505 1126 2714 1382 2714 
C 1818 2714 2112 2297 2118 1568 
L 589 1568 
z
" transform="scale(0.015625)"/>
      </defs>
      <use xlink:href="#CMR17-44" transform="scale(0.996264)"/>
      <use xlink:href="#CMR17-61" transform="translate(70.393556 0) scale(0.996264)"/>
      <use xlink:href="#CMR17-74" transform="translate(116.084033 0) scale(0.996264)"/>
      <use xlink:href="#CMR17-65" transform="translate(151.364801 0) scale(0.996264)"/>
     </g>
    </g>
   </g>
   <g id="matplotlib.axis_2">
    <g id="ytick_1">
     <g id="line2d_11">
      <path d="M 61.986549 612.426839 
L 1436.99976 612.426839 
" clip-path="url(#p2f842e470b)" style="fill: none; stroke: #cccccc; stroke-opacity: 0.5; stroke-width: 0.8; stroke-linecap: round"/>
     </g>
     <g id="text_12">
      <!-- $\mathdefault{−20}$ -->
      <g transform="translate(24.71287 619.345338) scale(0.2 -0.2)">
       <defs>
        <path id="CMSY10-0" d="M 4218 1472 
C 4326 1472 4442 1472 4442 1600 
C 4442 1728 4326 1728 4218 1728 
L 755 1728 
C 646 1728 531 1728 531 1600 
C 531 1472 646 1472 755 1472 
L 4218 1472 
z
" transform="scale(0.015625)"/>
       </defs>
       <use xlink:href="#CMSY10-0" transform="scale(0.996264)"/>
       <use xlink:href="#CMR17-32" transform="translate(77.487468 0) scale(0.996264)"/>
       <use xlink:href="#CMR17-30" transform="translate(123.177945 0) scale(0.996264)"/>
      </g>
     </g>
    </g>
    <g id="ytick_2">
     <g id="line2d_12">
      <path d="M 61.986549 514.62314 
L 1436.99976 514.62314 
" clip-path="url(#p2f842e470b)" style="fill: none; stroke: #cccccc; stroke-opacity: 0.5; stroke-width: 0.8; stroke-linecap: round"/>
     </g>
     <g id="text_13">
      <!-- $\mathdefault{0}$ -->
      <g transform="translate(49.348453 521.541639) scale(0.2 -0.2)">
       <use xlink:href="#CMR17-30" transform="scale(0.996264)"/>
      </g>
     </g>
    </g>
    <g id="ytick_3">
     <g id="line2d_13">
      <path d="M 61.986549 416.819441 
L 1436.99976 416.819441 
" clip-path="url(#p2f842e470b)" style="fill: none; stroke: #cccccc; stroke-opacity: 0.5; stroke-width: 0.8; stroke-linecap: round"/>
     </g>
     <g id="text_14">
      <!-- $\mathdefault{20}$ -->
      <g transform="translate(40.210358 423.73794) scale(0.2 -0.2)">
       <use xlink:href="#CMR17-32" transform="scale(0.996264)"/>
       <use xlink:href="#CMR17-30" transform="translate(45.690477 0) scale(0.996264)"/>
      </g>
     </g>
    </g>
    <g id="ytick_4">
     <g id="line2d_14">
      <path d="M 61.986549 319.015742 
L 1436.99976 319.015742 
" clip-path="url(#p2f842e470b)" style="fill: none; stroke: #cccccc; stroke-opacity: 0.5; stroke-width: 0.8; stroke-linecap: round"/>
     </g>
     <g id="text_15">
      <!-- $\mathdefault{40}$ -->
      <g transform="translate(40.210358 325.934241) scale(0.2 -0.2)">
       <use xlink:href="#CMR17-34" transform="scale(0.996264)"/>
       <use xlink:href="#CMR17-30" transform="translate(45.690477 0) scale(0.996264)"/>
      </g>
     </g>
    </g>
    <g id="ytick_5">
     <g id="line2d_15">
      <path d="M 61.986549 221.212043 
L 1436.99976 221.212043 
" clip-path="url(#p2f842e470b)" style="fill: none; stroke: #cccccc; stroke-opacity: 0.5; stroke-width: 0.8; stroke-linecap: round"/>
     </g>
     <g id="text_16">
      <!-- $\mathdefault{60}$ -->
      <g transform="translate(40.210358 228.130542) scale(0.2 -0.2)">
       <use xlink:href="#CMR17-36" transform="scale(0.996264)"/>
       <use xlink:href="#CMR17-30" transform="translate(45.690477 0) scale(0.996264)"/>
      </g>
     </g>
    </g>
    <g id="ytick_6">
     <g id="line2d_16">
      <path d="M 61.986549 123.408344 
L 1436.99976 123.408344 
" clip-path="url(#p2f842e470b)" style="fill: none; stroke: #cccccc; stroke-opacity: 0.5; stroke-width: 0.8; stroke-linecap: round"/>
     </g>
     <g id="text_17">
      <!-- $\mathdefault{80}$ -->
      <g transform="translate(40.210358 130.326843) scale(0.2 -0.2)">
       <use xlink:href="#CMR17-38" transform="scale(0.996264)"/>
       <use xlink:href="#CMR17-30" transform="translate(45.690477 0) scale(0.996264)"/>
      </g>
     </g>
    </g>
    <g id="ytick_7">
     <g id="line2d_17">
      <path d="M 61.986549 25.604645 
L 1436.99976 25.604645 
" clip-path="url(#p2f842e470b)" style="fill: none; stroke: #cccccc; stroke-opacity: 0.5; stroke-width: 0.8; stroke-linecap: round"/>
     </g>
     <g id="text_18">
      <!-- $\mathdefault{100}$ -->
      <g transform="translate(31.072262 32.523144) scale(0.2 -0.2)">
       <use xlink:href="#CMR17-31" transform="scale(0.996264)"/>
       <use xlink:href="#CMR17-30" transform="translate(45.690477 0) scale(0.996264)"/>
       <use xlink:href="#CMR17-30" transform="translate(91.380954 0) scale(0.996264)"/>
      </g>
     </g>
    </g>
    <g id="text_19">
     <!-- Total Contribution -->
     <g style="fill: #696969" transform="translate(16.837237 394.492272) rotate(-90) scale(0.2 -0.2)">
      <defs>
       <path id="CMR17-54" d="M 3981 4326 
L 288 4326 
L 179 2918 
L 294 2918 
C 378 3976 467 4160 1453 4160 
C 1568 4160 1754 4160 1805 4154 
C 1926 4135 1926 4058 1926 3912 
L 1926 459 
C 1926 230 1907 160 1376 160 
L 1197 160 
L 1197 0 
C 1504 0 1824 0 2138 0 
C 2451 0 2771 0 3078 0 
L 3078 160 
L 2899 160 
C 2368 160 2349 230 2349 459 
L 2349 3912 
C 2349 4052 2349 4129 2464 4154 
C 2515 4160 2701 4160 2816 4160 
C 3795 4160 3891 3976 3974 2918 
L 4090 2918 
L 3981 4326 
z
" transform="scale(0.015625)"/>
       <path id="CMR17-6f" d="M 2758 1356 
C 2758 2176 2163 2816 1466 2816 
C 768 2816 173 2176 173 1356 
C 173 551 768 -64 1466 -64 
C 2163 -64 2758 551 2758 1356 
z
M 1466 51 
C 1165 51 909 230 762 480 
C 602 767 582 1126 582 1408 
C 582 1677 595 2010 762 2298 
C 890 2509 1139 2714 1466 2714 
C 1754 2714 1997 2554 2150 2330 
C 2349 2029 2349 1607 2349 1408 
C 2349 1158 2336 775 2163 467 
C 1984 173 1709 51 1466 51 
z
" transform="scale(0.015625)"/>
       <path id="CMR17-6c" d="M 979 4396 
L 218 4326 
L 218 4160 
C 595 4160 653 4122 653 3817 
L 653 426 
C 653 184 627 153 218 153 
L 218 -13 
C 371 0 653 0 813 0 
C 979 0 1261 0 1414 -13 
L 1414 153 
C 1005 153 979 178 979 426 
L 979 4396 
z
" transform="scale(0.015625)"/>
       <path id="CMR17-43" d="M 3974 4289 
C 3974 4403 3968 4410 3930 4410 
C 3904 4410 3898 4403 3853 4327 
L 3571 3792 
C 3258 4187 2874 4416 2381 4416 
C 1286 4416 294 3456 294 2148 
C 294 826 1286 -128 2387 -128 
C 3366 -128 3974 730 3974 1461 
C 3974 1524 3974 1550 3917 1550 
C 3866 1550 3866 1531 3859 1474 
C 3808 585 3168 38 2477 38 
C 1824 38 781 495 781 2147 
C 781 3805 1843 4250 2464 4250 
C 3187 4250 3712 3628 3834 2745 
C 3846 2668 3846 2655 3904 2655 
C 3974 2655 3974 2668 3974 2783 
L 3974 4289 
z
" transform="scale(0.015625)"/>
       <path id="CMR17-6e" d="M 2656 1933 
C 2656 2259 2592 2790 1837 2790 
C 1331 2790 1069 2400 973 2144 
L 966 2144 
L 966 2790 
L 211 2720 
L 211 2554 
C 589 2554 646 2515 646 2208 
L 646 428 
C 646 184 621 153 211 153 
L 211 -13 
C 365 0 646 0 813 0 
C 979 0 1267 0 1421 -13 
L 1421 153 
C 1011 153 986 178 986 428 
L 986 1658 
C 986 2247 1344 2688 1792 2688 
C 2266 2688 2317 2266 2317 1958 
L 2317 428 
C 2317 184 2291 153 1882 153 
L 1882 -13 
C 2035 0 2317 0 2483 0 
C 2650 0 2938 0 3091 -13 
L 3091 153 
C 2682 153 2656 178 2656 428 
L 2656 1933 
z
" transform="scale(0.015625)"/>
       <path id="CMR17-72" d="M 960 1497 
C 960 2112 1222 2688 1702 2688 
C 1747 2688 1792 2682 1837 2662 
C 1837 2662 1696 2617 1696 2452 
C 1696 2298 1818 2234 1914 2234 
C 1990 2234 2131 2279 2131 2458 
C 2131 2663 1926 2790 1709 2790 
C 1222 2790 1011 2317 947 2093 
L 941 2093 
L 941 2790 
L 198 2720 
L 198 2554 
C 576 2554 634 2515 634 2208 
L 634 428 
C 634 184 608 153 198 153 
L 198 -13 
C 352 0 646 0 813 0 
C 998 0 1325 0 1498 -13 
L 1498 153 
C 1037 153 960 153 960 440 
L 960 1497 
z
" transform="scale(0.015625)"/>
       <path id="CMR17-69" d="M 992 3909 
C 992 4049 877 4170 730 4170 
C 589 4170 467 4056 467 3909 
C 467 3769 582 3648 730 3648 
C 870 3648 992 3763 992 3909 
z
M 243 2706 
L 243 2541 
C 602 2541 653 2502 653 2197 
L 653 427 
C 653 184 627 153 218 153 
L 218 -13 
C 371 0 646 0 806 0 
C 960 0 1222 0 1370 -13 
L 1370 153 
C 992 153 979 191 979 420 
L 979 2776 
L 243 2706 
z
" transform="scale(0.015625)"/>
       <path id="CMR17-62" d="M 960 4396 
L 198 4326 
L 198 4160 
C 576 4160 634 4122 634 3817 
L 634 -13 
L 749 -13 
L 934 441 
C 1120 141 1395 -64 1766 -64 
C 2406 -64 3053 500 3053 1370 
C 3053 2188 2477 2790 1830 2790 
C 1434 2790 1152 2579 960 2330 
L 960 4396 
z
M 973 2004 
C 973 2118 973 2138 1062 2272 
C 1312 2657 1670 2688 1792 2688 
C 1984 2688 2643 2585 2643 1376 
C 2643 108 1888 38 1734 38 
C 1536 38 1248 114 1043 486 
C 973 608 973 621 973 735 
L 973 2004 
z
" transform="scale(0.015625)"/>
       <path id="CMR17-75" d="M 1882 2693 
L 1882 2528 
C 2259 2528 2317 2489 2317 2186 
L 2317 1032 
C 2317 500 2029 38 1555 38 
C 1030 38 986 348 986 678 
L 986 2763 
L 211 2693 
L 211 2528 
C 467 2528 640 2528 646 2274 
L 646 1058 
C 646 633 646 361 813 183 
C 896 101 1056 -64 1517 -64 
C 2061 -64 2272 377 2323 506 
L 2330 506 
L 2330 -63 
L 3091 -63 
L 3091 128 
C 2714 128 2656 166 2656 473 
L 2656 2763 
L 1882 2693 
z
" transform="scale(0.015625)"/>
      </defs>
      <use xlink:href="#CMR17-54" transform="scale(0.996264)"/>
      <use xlink:href="#CMR17-6f" transform="translate(58.702625 0) scale(0.996264)"/>
      <use xlink:href="#CMR17-74" transform="translate(104.393102 0) scale(0.996264)"/>
      <use xlink:href="#CMR17-61" transform="translate(139.67387 0) scale(0.996264)"/>
      <use xlink:href="#CMR17-6c" transform="translate(185.364347 0) scale(0.996264)"/>
      <use xlink:href="#CMR17-43" transform="translate(240.311372 0) scale(0.996264)"/>
      <use xlink:href="#CMR17-6f" transform="translate(306.821253 0) scale(0.996264)"/>
      <use xlink:href="#CMR17-6e" transform="translate(352.51173 0) scale(0.996264)"/>
      <use xlink:href="#CMR17-74" transform="translate(400.804646 0) scale(0.996264)"/>
      <use xlink:href="#CMR17-72" transform="translate(436.085413 0) scale(0.996264)"/>
      <use xlink:href="#CMR17-69" transform="translate(471.366181 0) scale(0.996264)"/>
      <use xlink:href="#CMR17-62" transform="translate(496.23724 0) scale(0.996264)"/>
      <use xlink:href="#CMR17-75" transform="translate(547.132609 0) scale(0.996264)"/>
      <use xlink:href="#CMR17-74" transform="translate(598.027979 0) scale(0.996264)"/>
      <use xlink:href="#CMR17-69" transform="translate(633.308747 0) scale(0.996264)"/>
      <use xlink:href="#CMR17-6f" transform="translate(658.179805 0) scale(0.996264)"/>
      <use xlink:href="#CMR17-6e" transform="translate(703.870283 0) scale(0.996264)"/>
     </g>
    </g>
   </g>
   <g id="line2d_18">
    <path d="M 124.487149 483.057422 
L 136.499044 472.35669 
L 136.499044 472.35669 
L 147.348497 465.796752 
L 147.348497 465.796752 
L 159.360392 462.82467 
L 159.360392 462.82467 
L 170.984806 460.668117 
L 170.984806 460.668117 
L 182.996701 456.128211 
L 182.996701 456.128211 
L 194.621115 456.121427 
L 194.621115 456.121427 
L 206.63301 444.988517 
L 206.63301 444.988517 
L 218.644904 434.233313 
L 218.644904 434.233313 
L 230.269319 421.265192 
L 230.269319 421.265192 
L 242.281213 425.738951 
L 242.281213 425.738951 
L 253.905628 401.014223 
L 253.905628 401.014223 
L 265.917522 389.781379 
L 265.917522 389.781379 
L 277.929417 383.458952 
L 277.929417 383.458952 
L 289.166351 372.551329 
L 289.166351 372.551329 
L 301.178245 377.766794 
L 301.178245 377.766794 
L 312.80266 343.17715 
L 312.80266 343.17715 
L 324.814554 366.466286 
L 324.814554 366.466286 
L 336.438969 363.868551 
L 336.438969 363.868551 
L 348.450863 362.058694 
L 348.450863 362.058694 
L 360.462758 357.677777 
L 360.462758 357.677777 
L 372.087172 342.189768 
L 372.087172 342.189768 
L 384.099067 338.573749 
L 384.099067 338.573749 
L 395.723481 349.232393 
L 395.723481 349.232393 
L 407.735376 361.645733 
L 407.735376 361.645733 
L 419.747271 355.201144 
L 419.747271 355.201144 
L 430.596724 357.128644 
L 430.596724 357.128644 
L 442.608619 363.617925 
L 442.608619 363.617925 
L 454.233033 348.799123 
L 454.233033 348.799123 
L 466.244928 330.838091 
L 466.244928 330.838091 
L 477.869342 358.806001 
L 477.869342 358.806001 
L 489.881237 336.974445 
L 489.881237 336.974445 
L 501.893131 354.209961 
L 501.893131 354.209961 
L 513.517545 345.774912 
L 513.517545 345.774912 
L 525.52944 355.818947 
L 525.52944 355.818947 
L 537.153854 357.963016 
L 537.153854 357.963016 
L 549.165749 379.708178 
L 549.165749 379.708178 
L 561.177644 381.083945 
L 561.177644 381.083945 
L 572.027097 374.823597 
L 572.027097 374.823597 
L 584.038992 401.041398 
L 584.038992 401.041398 
L 595.663406 392.628566 
L 595.663406 392.628566 
L 607.675301 388.950439 
L 607.675301 388.950439 
L 619.299715 399.548815 
L 619.299715 399.548815 
L 631.31161 408.440356 
L 631.31161 408.440356 
L 643.323504 401.721289 
L 643.323504 401.721289 
L 654.947919 398.205124 
L 654.947919 398.205124 
L 666.959813 386.849224 
L 666.959813 386.849224 
L 678.584228 399.996211 
L 678.584228 399.996211 
L 690.596122 398.579924 
L 690.596122 398.579924 
L 702.608017 392.863917 
L 702.608017 392.863917 
L 713.45747 404.147613 
L 713.45747 404.147613 
L 737.093779 393.225549 
L 737.093779 393.225549 
L 749.105674 402.691542 
L 749.105674 402.691542 
L 760.730088 412.216393 
L 760.730088 412.216393 
L 772.741983 418.134919 
L 772.741983 418.134919 
L 784.753878 414.400451 
L 784.753878 414.400451 
L 796.378292 406.650634 
L 796.378292 406.650634 
L 820.014601 417.554572 
L 820.014601 417.554572 
L 832.026495 423.875381 
L 832.026495 423.875381 
L 844.03839 426.048275 
L 844.03839 426.048275 
L 855.275324 421.23474 
L 855.275324 421.23474 
L 867.287219 432.464783 
L 867.287219 432.464783 
L 878.911633 432.692481 
L 878.911633 432.692481 
L 890.923527 437.797218 
L 890.923527 437.797218 
L 902.547942 427.869022 
L 902.547942 427.869022 
L 914.559836 427.395528 
L 914.559836 427.395528 
L 926.571731 422.131259 
L 926.571731 422.131259 
L 938.196145 419.760901 
L 938.196145 419.760901 
L 950.20804 418.81089 
L 950.20804 418.81089 
L 961.832454 419.495448 
L 961.832454 419.495448 
L 973.844349 435.364439 
L 973.844349 435.364439 
L 985.856244 435.704628 
L 985.856244 435.704628 
L 996.705697 448.556355 
L 996.705697 448.556355 
L 1008.717592 410.836403 
L 1008.717592 410.836403 
L 1020.342006 410.767078 
L 1020.342006 410.767078 
L 1032.353901 404.470531 
L 1032.353901 404.470531 
L 1043.978315 404.679341 
L 1043.978315 404.679341 
L 1055.99021 414.804696 
L 1055.99021 414.804696 
L 1068.002104 414.91332 
L 1068.002104 414.91332 
L 1079.626518 421.628422 
L 1079.626518 421.628422 
L 1091.638413 419.827647 
L 1091.638413 419.827647 
L 1103.262827 417.113841 
L 1103.262827 417.113841 
L 1115.274722 426.086168 
L 1115.274722 426.086168 
L 1127.286617 434.607946 
L 1127.286617 434.607946 
L 1138.13607 421.572838 
L 1138.13607 421.572838 
L 1150.147965 421.559661 
L 1150.147965 421.559661 
L 1161.772379 426.23612 
L 1161.772379 426.23612 
L 1173.784274 433.625576 
L 1173.784274 433.625576 
L 1185.408688 443.65407 
L 1185.408688 443.65407 
L 1197.420583 446.088758 
L 1197.420583 446.088758 
L 1209.432477 448.176694 
L 1209.432477 448.176694 
L 1221.056892 449.453431 
L 1221.056892 449.453431 
L 1233.068786 459.148451 
L 1233.068786 459.148451 
L 1244.693201 454.959093 
L 1244.693201 454.959093 
L 1256.705095 465.960129 
L 1256.705095 465.960129 
L 1268.71699 473.836787 
L 1268.71699 473.836787 
L 1279.566443 478.423654 
L 1279.566443 478.423654 
L 1291.578338 475.790039 
L 1291.578338 475.790039 
L 1303.202752 478.156802 
L 1303.202752 478.156802 
L 1315.214647 485.956434 
L 1315.214647 485.956434 
L 1326.839061 494.95618 
L 1326.839061 494.95618 
L 1338.850956 501.242904 
L 1338.850956 501.242904 
L 1350.862851 505.74185 
L 1350.862851 505.74185 
L 1362.487265 506.197663 
L 1362.487265 506.197663 
L 1374.499159 510.973151 
L 1374.499159 510.973151 
" clip-path="url(#p2f842e470b)" style="fill: none; stroke-dasharray: 5.55,2.4; stroke-dashoffset: 0; stroke: #006e64; stroke-width: 1.5"/>
   </g>
   <g id="line2d_19">
    <path d="M 124.487149 450.828039 
L 136.499044 426.216674 
L 136.499044 426.216674 
L 147.348497 410.804314 
L 147.348497 410.804314 
L 170.984806 395.056783 
L 170.984806 395.056783 
L 182.996701 367.22098 
L 182.996701 367.22098 
L 194.621115 370.063995 
L 194.621115 370.063995 
L 218.644904 301.981776 
L 218.644904 301.981776 
L 230.269319 279.433139 
L 230.269319 279.433139 
L 242.281213 316.485365 
L 242.281213 316.485365 
L 253.905628 236.08561 
L 253.905628 236.08561 
L 265.917522 265.191388 
L 265.917522 265.191388 
L 277.929417 242.059398 
L 277.929417 242.059398 
L 289.166351 283.80182 
L 289.166351 283.80182 
L 301.178245 295.284929 
L 301.178245 295.284929 
L 312.80266 222.653417 
L 312.80266 222.653417 
L 324.814554 267.08593 
L 324.814554 267.08593 
L 336.438969 249.988051 
L 336.438969 249.988051 
L 348.450863 268.687913 
L 348.450863 268.687913 
L 360.462758 278.6276 
L 360.462758 278.6276 
L 372.087172 252.096308 
L 372.087172 252.096308 
L 384.099067 282.340559 
L 384.099067 282.340559 
L 395.723481 347.972123 
L 395.723481 347.972123 
L 407.735376 268.209889 
L 407.735376 268.209889 
L 419.747271 330.940561 
L 419.747271 330.940561 
L 430.596724 293.425064 
L 430.596724 293.425064 
L 442.608619 259.579528 
L 442.608619 259.579528 
L 454.233033 292.597982 
L 454.233033 292.597982 
L 466.244928 259.55069 
L 466.244928 259.55069 
L 477.869342 305.828033 
L 477.869342 305.828033 
L 489.881237 280.701119 
L 489.881237 280.701119 
L 501.893131 288.479086 
L 501.893131 288.479086 
L 513.517545 349.425304 
L 513.517545 349.425304 
L 525.52944 240.48493 
L 525.52944 240.48493 
L 537.153854 276.80711 
L 537.153854 276.80711 
L 549.165749 276.279162 
L 549.165749 276.279162 
L 561.177644 290.668724 
L 561.177644 290.668724 
L 572.027097 342.885579 
L 572.027097 342.885579 
L 584.038992 354.978491 
L 584.038992 354.978491 
L 595.663406 374.761071 
L 595.663406 374.761071 
L 607.675301 343.171277 
L 607.675301 343.171277 
L 619.299715 341.414832 
L 619.299715 341.414832 
L 631.31161 318.291508 
L 631.31161 318.291508 
L 643.323504 335.3803 
L 643.323504 335.3803 
L 654.947919 421.309856 
L 654.947919 421.309856 
L 666.959813 308.007283 
L 666.959813 308.007283 
L 678.584228 381.587867 
L 678.584228 381.587867 
L 690.596122 393.490435 
L 690.596122 393.490435 
L 702.608017 381.280437 
L 702.608017 381.280437 
L 713.45747 364.685452 
L 713.45747 364.685452 
L 725.469365 328.176305 
L 725.469365 328.176305 
L 737.093779 312.375515 
L 737.093779 312.375515 
L 749.105674 335.628583 
L 749.105674 335.628583 
L 760.730088 389.088833 
L 760.730088 389.088833 
L 772.741983 386.070238 
L 772.741983 386.070238 
L 784.753878 399.151183 
L 784.753878 399.151183 
L 796.378292 414.674446 
L 796.378292 414.674446 
L 808.390186 400.944106 
L 808.390186 400.944106 
L 820.014601 428.067357 
L 820.014601 428.067357 
L 832.026495 439.693783 
L 832.026495 439.693783 
L 844.03839 442.220815 
L 844.03839 442.220815 
L 855.275324 466.946915 
L 855.275324 466.946915 
L 867.287219 515.85193 
L 867.287219 515.85193 
L 878.911633 444.492597 
L 878.911633 444.492597 
L 890.923527 448.50737 
L 890.923527 448.50737 
L 902.547942 440.700721 
L 902.547942 440.700721 
L 914.559836 416.687191 
L 914.559836 416.687191 
L 926.571731 424.935949 
L 926.571731 424.935949 
L 938.196145 405.449627 
L 938.196145 405.449627 
L 950.20804 411.70944 
L 950.20804 411.70944 
L 961.832454 421.080269 
L 961.832454 421.080269 
L 973.844349 387.965704 
L 973.844349 387.965704 
L 985.856244 391.205353 
L 985.856244 391.205353 
L 996.705697 410.190123 
L 996.705697 410.190123 
L 1008.717592 347.985043 
L 1008.717592 347.985043 
L 1020.342006 370.265822 
L 1020.342006 370.265822 
L 1032.353901 338.90958 
L 1032.353901 338.90958 
L 1043.978315 317.978443 
L 1043.978315 317.978443 
L 1055.99021 342.100642 
L 1055.99021 342.100642 
L 1068.002104 349.423146 
L 1068.002104 349.423146 
L 1079.626518 350.485919 
L 1079.626518 350.485919 
L 1091.638413 362.320413 
L 1091.638413 362.320413 
L 1103.262827 382.438264 
L 1103.262827 382.438264 
L 1115.274722 444.711103 
L 1115.274722 444.711103 
L 1127.286617 420.443826 
L 1127.286617 420.443826 
L 1138.13607 415.421681 
L 1138.13607 415.421681 
L 1150.147965 399.038559 
L 1150.147965 399.038559 
L 1161.772379 437.92574 
L 1161.772379 437.92574 
L 1173.784274 424.089542 
L 1173.784274 424.089542 
L 1185.408688 432.488904 
L 1185.408688 432.488904 
L 1197.420583 434.820123 
L 1197.420583 434.820123 
L 1209.432477 453.283867 
L 1209.432477 453.283867 
L 1221.056892 459.096218 
L 1221.056892 459.096218 
L 1233.068786 459.437928 
L 1233.068786 459.437928 
L 1244.693201 470.059803 
L 1244.693201 470.059803 
L 1256.705095 470.348182 
L 1256.705095 470.348182 
L 1268.71699 466.597504 
L 1268.71699 466.597504 
L 1279.566443 465.69831 
L 1279.566443 465.69831 
L 1291.578338 468.707465 
L 1291.578338 468.707465 
L 1303.202752 468.256956 
L 1303.202752 468.256956 
L 1315.214647 490.943635 
L 1315.214647 490.943635 
L 1326.839061 507.54108 
L 1326.839061 507.54108 
L 1338.850956 509.866357 
L 1338.850956 509.866357 
L 1350.862851 500.730443 
L 1350.862851 500.730443 
L 1362.487265 506.373656 
L 1362.487265 506.373656 
L 1374.499159 509.966452 
L 1374.499159 509.966452 
" clip-path="url(#p2f842e470b)" style="fill: none; stroke: #734848; stroke-width: 1.5; stroke-linecap: round"/>
   </g>
   <g id="line2d_20">
    <path d="M 124.487149 446.663967 
L 136.499044 415.129307 
L 136.499044 415.129307 
L 147.348497 394.616988 
L 147.348497 394.616988 
L 159.360392 383.564466 
L 159.360392 383.564466 
L 170.984806 371.295891 
L 170.984806 371.295891 
L 182.996701 354.553678 
L 182.996701 354.553678 
L 194.621115 354.26566 
L 194.621115 354.26566 
L 206.63301 321.463452 
L 206.63301 321.463452 
L 218.644904 293.419911 
L 218.644904 293.419911 
L 230.269319 270.890071 
L 230.269319 270.890071 
L 242.281213 318.844208 
L 242.281213 318.844208 
L 253.905628 239.612285 
L 253.905628 239.612285 
L 265.917522 246.636985 
L 265.917522 246.636985 
L 277.929417 249.653357 
L 277.929417 249.653357 
L 289.166351 272.034694 
L 289.166351 272.034694 
L 301.178245 272.089905 
L 301.178245 272.089905 
L 312.80266 206.740692 
L 312.80266 206.740692 
L 324.814554 262.264545 
L 324.814554 262.264545 
L 336.438969 244.099085 
L 336.438969 244.099085 
L 348.450863 239.01956 
L 348.450863 239.01956 
L 360.462758 249.82014 
L 360.462758 249.82014 
L 372.087172 215.74171 
L 372.087172 215.74171 
L 384.099067 233.610688 
L 384.099067 233.610688 
L 395.723481 275.002387 
L 395.723481 275.002387 
L 407.735376 256.963779 
L 407.735376 256.963779 
L 419.747271 294.694084 
L 419.747271 294.694084 
L 430.596724 274.307434 
L 430.596724 274.307434 
L 442.608619 264.688982 
L 442.608619 264.688982 
L 454.233033 264.710165 
L 454.233033 264.710165 
L 466.244928 248.542756 
L 466.244928 248.542756 
L 477.869342 282.480849 
L 477.869342 282.480849 
L 489.881237 256.142059 
L 489.881237 256.142059 
L 501.893131 265.071475 
L 501.893131 265.071475 
L 513.517545 323.638371 
L 513.517545 323.638371 
L 525.52944 215.905224 
L 525.52944 215.905224 
L 537.153854 254.734227 
L 537.153854 254.734227 
L 549.165749 267.624764 
L 549.165749 267.624764 
L 561.177644 251.709449 
L 561.177644 251.709449 
L 572.027097 266.701159 
L 572.027097 266.701159 
L 584.038992 349.277666 
L 584.038992 349.277666 
L 595.663406 357.842284 
L 595.663406 357.842284 
L 607.675301 323.815959 
L 607.675301 323.815959 
L 619.299715 344.986984 
L 619.299715 344.986984 
L 631.31161 325.207281 
L 631.31161 325.207281 
L 643.323504 322.590772 
L 643.323504 322.590772 
L 654.947919 373.165784 
L 654.947919 373.165784 
L 666.959813 299.983213 
L 666.959813 299.983213 
L 678.584228 353.102745 
L 678.584228 353.102745 
L 690.596122 404.517958 
L 690.596122 404.517958 
L 702.608017 393.333755 
L 702.608017 393.333755 
L 713.45747 379.534127 
L 713.45747 379.534127 
L 725.469365 357.492456 
L 725.469365 357.492456 
L 737.093779 346.777432 
L 737.093779 346.777432 
L 749.105674 350.825741 
L 749.105674 350.825741 
L 760.730088 387.624116 
L 760.730088 387.624116 
L 772.741983 411.68282 
L 772.741983 411.68282 
L 784.753878 412.748918 
L 784.753878 412.748918 
L 796.378292 424.966061 
L 796.378292 424.966061 
L 808.390186 429.156081 
L 808.390186 429.156081 
L 820.014601 443.285844 
L 820.014601 443.285844 
L 832.026495 459.059067 
L 832.026495 459.059067 
L 844.03839 455.858406 
L 844.03839 455.858406 
L 855.275324 484.997769 
L 855.275324 484.997769 
L 867.287219 490.739383 
L 867.287219 490.739383 
L 878.911633 455.707537 
L 878.911633 455.707537 
L 890.923527 454.393368 
L 890.923527 454.393368 
L 902.547942 450.478286 
L 902.547942 450.478286 
L 914.559836 426.930114 
L 914.559836 426.930114 
L 926.571731 438.389134 
L 926.571731 438.389134 
L 938.196145 417.85355 
L 938.196145 417.85355 
L 950.20804 416.23546 
L 950.20804 416.23546 
L 961.832454 423.053296 
L 961.832454 423.053296 
L 973.844349 393.504603 
L 973.844349 393.504603 
L 985.856244 385.985817 
L 985.856244 385.985817 
L 996.705697 435.882446 
L 996.705697 435.882446 
L 1008.717592 400.376232 
L 1008.717592 400.376232 
L 1020.342006 401.972297 
L 1020.342006 401.972297 
L 1032.353901 399.18847 
L 1032.353901 399.18847 
L 1043.978315 382.113712 
L 1043.978315 382.113712 
L 1055.99021 391.793919 
L 1055.99021 391.793919 
L 1068.002104 395.065989 
L 1068.002104 395.065989 
L 1079.626518 409.151477 
L 1079.626518 409.151477 
L 1091.638413 396.998305 
L 1091.638413 396.998305 
L 1103.262827 414.927019 
L 1103.262827 414.927019 
L 1115.274722 482.321641 
L 1115.274722 482.321641 
L 1127.286617 458.097418 
L 1127.286617 458.097418 
L 1138.13607 446.953915 
L 1138.13607 446.953915 
L 1150.147965 418.472226 
L 1150.147965 418.472226 
L 1161.772379 455.268784 
L 1161.772379 455.268784 
L 1173.784274 448.040677 
L 1173.784274 448.040677 
L 1185.408688 464.379677 
L 1185.408688 464.379677 
L 1197.420583 432.249637 
L 1197.420583 432.249637 
L 1209.432477 461.200654 
L 1209.432477 461.200654 
L 1221.056892 468.418276 
L 1221.056892 468.418276 
L 1233.068786 466.309918 
L 1233.068786 466.309918 
L 1244.693201 486.822002 
L 1244.693201 486.822002 
L 1256.705095 481.983478 
L 1256.705095 481.983478 
L 1268.71699 476.41909 
L 1268.71699 476.41909 
L 1279.566443 473.023722 
L 1279.566443 473.023722 
L 1291.578338 472.398414 
L 1291.578338 472.398414 
L 1303.202752 489.98016 
L 1303.202752 489.98016 
L 1315.214647 515.456984 
L 1315.214647 515.456984 
L 1326.839061 512.726747 
L 1326.839061 512.726747 
L 1338.850956 518.765152 
L 1338.850956 518.765152 
L 1350.862851 521.944984 
L 1350.862851 521.944984 
L 1362.487265 512.744698 
L 1362.487265 512.744698 
L 1374.499159 520.746674 
L 1374.499159 520.746674 
" clip-path="url(#p2f842e470b)" style="fill: none; stroke: #004e4a; stroke-width: 1.5; stroke-linecap: round"/>
   </g>
   <g id="line2d_21">
    <path d="M 124.487149 446.936856 
L 136.499044 416.056136 
L 136.499044 416.056136 
L 147.348497 394.806672 
L 147.348497 394.806672 
L 159.360392 383.774963 
L 159.360392 383.774963 
L 170.984806 371.84065 
L 170.984806 371.84065 
L 182.996701 354.997785 
L 182.996701 354.997785 
L 194.621115 355.208691 
L 194.621115 355.208691 
L 206.63301 321.572023 
L 206.63301 321.572023 
L 218.644904 293.184924 
L 218.644904 293.184924 
L 230.269319 271.320396 
L 230.269319 271.320396 
L 242.281213 320.415067 
L 242.281213 320.415067 
L 253.905628 240.592421 
L 253.905628 240.592421 
L 265.917522 247.413147 
L 265.917522 247.413147 
L 277.929417 251.452143 
L 277.929417 251.452143 
L 289.166351 275.082175 
L 289.166351 275.082175 
L 301.178245 273.74981 
L 301.178245 273.74981 
L 312.80266 207.204884 
L 312.80266 207.204884 
L 324.814554 261.902654 
L 324.814554 261.902654 
L 336.438969 243.823024 
L 336.438969 243.823024 
L 348.450863 237.347868 
L 348.450863 237.347868 
L 360.462758 247.787915 
L 360.462758 247.787915 
L 372.087172 216.115144 
L 372.087172 216.115144 
L 384.099067 232.422861 
L 384.099067 232.422861 
L 395.723481 275.260305 
L 395.723481 275.260305 
L 407.735376 255.703598 
L 407.735376 255.703598 
L 419.747271 294.856483 
L 419.747271 294.856483 
L 430.596724 273.004553 
L 430.596724 273.004553 
L 442.608619 262.581631 
L 442.608619 262.581631 
L 454.233033 264.355255 
L 454.233033 264.355255 
L 466.244928 248.099373 
L 466.244928 248.099373 
L 477.869342 282.877659 
L 477.869342 282.877659 
L 489.881237 256.329982 
L 489.881237 256.329982 
L 501.893131 265.682705 
L 501.893131 265.682705 
L 513.517545 325.433709 
L 513.517545 325.433709 
L 525.52944 215.97425 
L 525.52944 215.97425 
L 537.153854 256.014253 
L 537.153854 256.014253 
L 549.165749 267.319947 
L 549.165749 267.319947 
L 561.177644 251.061376 
L 561.177644 251.061376 
L 572.027097 267.279383 
L 572.027097 267.279383 
L 584.038992 346.332317 
L 584.038992 346.332317 
L 595.663406 357.760108 
L 595.663406 357.760108 
L 607.675301 323.799152 
L 607.675301 323.799152 
L 619.299715 344.48949 
L 619.299715 344.48949 
L 631.31161 322.900814 
L 631.31161 322.900814 
L 643.323504 320.946183 
L 643.323504 320.946183 
L 654.947919 373.471847 
L 654.947919 373.471847 
L 666.959813 296.944288 
L 666.959813 296.944288 
L 678.584228 350.493264 
L 678.584228 350.493264 
L 690.596122 412.352707 
L 690.596122 412.352707 
L 702.608017 399.651148 
L 702.608017 399.651148 
L 713.45747 384.628672 
L 713.45747 384.628672 
L 725.469365 362.505643 
L 725.469365 362.505643 
L 737.093779 350.73789 
L 737.093779 350.73789 
L 749.105674 355.268583 
L 749.105674 355.268583 
L 760.730088 387.212294 
L 760.730088 387.212294 
L 772.741983 414.51548 
L 772.741983 414.51548 
L 784.753878 413.874544 
L 784.753878 413.874544 
L 796.378292 425.539862 
L 796.378292 425.539862 
L 808.390186 429.097559 
L 808.390186 429.097559 
L 820.014601 443.095359 
L 820.014601 443.095359 
L 832.026495 459.231926 
L 832.026495 459.231926 
L 844.03839 455.729603 
L 844.03839 455.729603 
L 855.275324 485.212682 
L 855.275324 485.212682 
L 867.287219 489.702779 
L 867.287219 489.702779 
L 878.911633 455.271203 
L 878.911633 455.271203 
L 890.923527 455.251179 
L 890.923527 455.251179 
L 902.547942 450.54593 
L 902.547942 450.54593 
L 914.559836 425.899595 
L 914.559836 425.899595 
L 926.571731 436.019207 
L 926.571731 436.019207 
L 938.196145 415.798884 
L 938.196145 415.798884 
L 950.20804 416.021937 
L 950.20804 416.021937 
L 961.832454 422.292638 
L 961.832454 422.292638 
L 973.844349 391.392375 
L 973.844349 391.392375 
L 985.856244 383.802042 
L 985.856244 383.802042 
L 996.705697 434.209201 
L 996.705697 434.209201 
L 1008.717592 392.680424 
L 1008.717592 392.680424 
L 1020.342006 394.514712 
L 1020.342006 394.514712 
L 1032.353901 392.65906 
L 1032.353901 392.65906 
L 1043.978315 376.399536 
L 1043.978315 376.399536 
L 1055.99021 386.545306 
L 1055.99021 386.545306 
L 1068.002104 390.918786 
L 1068.002104 390.918786 
L 1079.626518 404.770468 
L 1079.626518 404.770468 
L 1091.638413 393.679403 
L 1091.638413 393.679403 
L 1103.262827 411.499816 
L 1103.262827 411.499816 
L 1115.274722 495.947557 
L 1115.274722 495.947557 
L 1127.286617 470.989976 
L 1127.286617 470.989976 
L 1138.13607 456.039028 
L 1138.13607 456.039028 
L 1150.147965 429.551153 
L 1150.147965 429.551153 
L 1161.772379 465.844019 
L 1161.772379 465.844019 
L 1173.784274 442.890263 
L 1173.784274 442.890263 
L 1185.408688 457.208552 
L 1185.408688 457.208552 
L 1197.420583 429.362444 
L 1197.420583 429.362444 
L 1209.432477 471.738255 
L 1209.432477 471.738255 
L 1221.056892 478.685063 
L 1221.056892 478.685063 
L 1233.068786 482.699405 
L 1233.068786 482.699405 
L 1244.693201 496.501309 
L 1244.693201 496.501309 
L 1256.705095 497.256128 
L 1256.705095 497.256128 
L 1268.71699 489.24841 
L 1268.71699 489.24841 
L 1279.566443 481.701453 
L 1279.566443 481.701453 
L 1291.578338 485.323879 
L 1291.578338 485.323879 
L 1303.202752 502.312053 
L 1303.202752 502.312053 
L 1315.214647 527.232234 
L 1315.214647 527.232234 
L 1326.839061 512.933414 
L 1326.839061 512.933414 
L 1338.850956 518.830132 
L 1338.850956 518.830132 
L 1350.862851 532.021811 
L 1350.862851 532.021811 
L 1362.487265 513.085691 
L 1362.487265 513.085691 
L 1374.499159 520.590716 
L 1374.499159 520.590716 
" clip-path="url(#p2f842e470b)" style="fill: none; stroke: #c17150; stroke-width: 1.5; stroke-linecap: round"/>
   </g>
   <g id="line2d_22">
    <path d="M 124.487149 447.097868 
L 136.499044 406.951453 
L 136.499044 406.951453 
L 147.348497 390.944833 
L 147.348497 390.944833 
L 159.360392 377.415673 
L 159.360392 377.415673 
L 170.984806 361.031603 
L 170.984806 361.031603 
L 182.996701 345.825023 
L 182.996701 345.825023 
L 194.621115 338.706426 
L 194.621115 338.706426 
L 206.63301 314.267508 
L 206.63301 314.267508 
L 218.644904 291.27995 
L 218.644904 291.27995 
L 230.269319 258.415778 
L 230.269319 258.415778 
L 242.281213 306.137135 
L 242.281213 306.137135 
L 253.905628 227.48766 
L 253.905628 227.48766 
L 265.917522 238.38589 
L 265.917522 238.38589 
L 277.929417 223.73432 
L 277.929417 223.73432 
L 289.166351 246.021524 
L 289.166351 246.021524 
L 301.178245 268.281427 
L 301.178245 268.281427 
L 312.80266 213.704553 
L 312.80266 213.704553 
L 324.814554 221.062937 
L 324.814554 221.062937 
L 336.438969 201.124964 
L 336.438969 201.124964 
L 348.450863 238.822993 
L 348.450863 238.822993 
L 360.462758 270.319214 
L 360.462758 270.319214 
L 372.087172 209.493123 
L 372.087172 209.493123 
L 384.099067 242.722488 
L 384.099067 242.722488 
L 395.723481 280.365524 
L 395.723481 280.365524 
L 407.735376 272.61255 
L 407.735376 272.61255 
L 419.747271 305.276193 
L 419.747271 305.276193 
L 430.596724 292.273849 
L 430.596724 292.273849 
L 442.608619 289.784754 
L 442.608619 289.784754 
L 454.233033 284.998515 
L 454.233033 284.998515 
L 466.244928 265.381431 
L 466.244928 265.381431 
L 477.869342 294.724174 
L 477.869342 294.724174 
L 489.881237 275.054074 
L 489.881237 275.054074 
L 501.893131 260.235898 
L 501.893131 260.235898 
L 513.517545 309.601894 
L 513.517545 309.601894 
L 525.52944 221.780964 
L 525.52944 221.780964 
L 537.153854 238.49852 
L 537.153854 238.49852 
L 549.165749 263.712737 
L 549.165749 263.712737 
L 561.177644 295.462282 
L 561.177644 295.462282 
L 572.027097 290.145844 
L 572.027097 290.145844 
L 584.038992 333.267909 
L 584.038992 333.267909 
L 595.663406 341.379451 
L 595.663406 341.379451 
L 607.675301 304.461798 
L 607.675301 304.461798 
L 619.299715 311.612562 
L 619.299715 311.612562 
L 631.31161 329.150441 
L 631.31161 329.150441 
L 643.323504 335.982266 
L 643.323504 335.982266 
L 654.947919 376.364688 
L 654.947919 376.364688 
L 666.959813 300.105134 
L 666.959813 300.105134 
L 678.584228 349.191037 
L 678.584228 349.191037 
L 690.596122 382.393116 
L 690.596122 382.393116 
L 702.608017 374.851533 
L 702.608017 374.851533 
L 713.45747 371.326698 
L 713.45747 371.326698 
L 725.469365 345.70045 
L 725.469365 345.70045 
L 737.093779 333.5263 
L 737.093779 333.5263 
L 749.105674 346.686336 
L 749.105674 346.686336 
L 760.730088 380.287715 
L 760.730088 380.287715 
L 772.741983 419.093058 
L 772.741983 419.093058 
L 784.753878 410.467887 
L 784.753878 410.467887 
L 796.378292 429.579391 
L 796.378292 429.579391 
L 808.390186 442.003904 
L 808.390186 442.003904 
L 820.014601 447.278942 
L 820.014601 447.278942 
L 832.026495 477.519668 
L 832.026495 477.519668 
L 844.03839 476.556007 
L 844.03839 476.556007 
L 855.275324 492.332456 
L 855.275324 492.332456 
L 867.287219 467.925959 
L 867.287219 467.925959 
L 878.911633 446.082985 
L 878.911633 446.082985 
L 890.923527 450.025166 
L 890.923527 450.025166 
L 902.547942 453.231532 
L 902.547942 453.231532 
L 914.559836 440.522289 
L 914.559836 440.522289 
L 926.571731 432.919954 
L 926.571731 432.919954 
L 938.196145 423.70536 
L 938.196145 423.70536 
L 950.20804 409.690947 
L 950.20804 409.690947 
L 961.832454 427.073264 
L 961.832454 427.073264 
L 973.844349 414.02001 
L 973.844349 414.02001 
L 985.856244 416.886704 
L 985.856244 416.886704 
L 996.705697 443.501777 
L 996.705697 443.501777 
L 1008.717592 428.607486 
L 1008.717592 428.607486 
L 1020.342006 420.294743 
L 1020.342006 420.294743 
L 1032.353901 410.894054 
L 1032.353901 410.894054 
L 1043.978315 407.209436 
L 1043.978315 407.209436 
L 1055.99021 423.472388 
L 1055.99021 423.472388 
L 1068.002104 441.407598 
L 1068.002104 441.407598 
L 1079.626518 432.869239 
L 1079.626518 432.869239 
L 1103.262827 441.921094 
L 1103.262827 441.921094 
L 1115.274722 505.945553 
L 1115.274722 505.945553 
L 1127.286617 486.565381 
L 1127.286617 486.565381 
L 1138.13607 503.076358 
L 1138.13607 503.076358 
L 1150.147965 460.77434 
L 1150.147965 460.77434 
L 1161.772379 494.692406 
L 1161.772379 494.692406 
L 1173.784274 471.049629 
L 1173.784274 471.049629 
L 1185.408688 496.43674 
L 1185.408688 496.43674 
L 1197.420583 450.108875 
L 1197.420583 450.108875 
L 1209.432477 479.422242 
L 1209.432477 479.422242 
L 1221.056892 509.643278 
L 1221.056892 509.643278 
L 1233.068786 485.227292 
L 1233.068786 485.227292 
L 1244.693201 522.958767 
L 1244.693201 522.958767 
L 1256.705095 509.78114 
L 1256.705095 509.78114 
L 1268.71699 505.043233 
L 1268.71699 505.043233 
L 1279.566443 508.814942 
L 1279.566443 508.814942 
L 1291.578338 506.376663 
L 1291.578338 506.376663 
L 1303.202752 506.856992 
L 1303.202752 506.856992 
L 1315.214647 535.168422 
L 1315.214647 535.168422 
L 1326.839061 511.825132 
L 1326.839061 511.825132 
L 1338.850956 512.52634 
L 1338.850956 512.52634 
L 1350.862851 533.360664 
L 1350.862851 533.360664 
L 1362.487265 515.204608 
L 1362.487265 515.204608 
L 1374.499159 530.455085 
L 1374.499159 530.455085 
" clip-path="url(#p2f842e470b)" style="fill: none; stroke: #c8f0e6; stroke-width: 1.5; stroke-linecap: round"/>
   </g>
   <g id="patch_3">
    <path d="M 61.986549 612.426839 
L 61.986549 25.604645 
" style="fill: none; stroke: #808080; stroke-width: 0.8; stroke-linejoin: miter; stroke-linecap: square"/>
   </g>
   <g id="patch_4">
    <path d="M 61.986549 612.426839 
L 1436.99976 612.426839 
" style="fill: none; stroke: #808080; stroke-width: 0.8; stroke-linejoin: miter; stroke-linecap: square"/>
   </g>
   <g id="text_20">
    <!-- Full Sample -->
    <g style="fill: #262626" transform="translate(692.775449 19.604645) scale(0.24 -0.24)">
     <defs>
      <path id="CMR17-46" d="M 3482 4325 
L 326 4325 
L 326 4160 
C 768 4160 838 4160 838 3874 
L 838 446 
C 838 160 768 160 326 160 
L 326 0 
C 512 0 870 0 1069 0 
C 1331 0 1638 0 1901 0 
L 1901 160 
L 1760 160 
C 1274 160 1261 223 1261 452 
L 1261 2075 
L 1837 2075 
C 2432 2075 2490 1865 2490 1332 
L 2605 1332 
L 2605 2987 
L 2490 2987 
C 2490 2450 2432 2240 1837 2240 
L 1261 2240 
L 1261 3911 
C 1261 4128 1274 4160 1530 4160 
L 2355 4160 
C 3322 4160 3430 3765 3520 2916 
L 3635 2916 
L 3482 4325 
z
" transform="scale(0.015625)"/>
      <path id="CMR17-53" d="M 2803 4290 
C 2803 4404 2797 4411 2758 4411 
C 2720 4411 2707 4385 2682 4328 
L 2490 3907 
C 2246 4257 1875 4416 1472 4416 
C 819 4416 294 3901 294 3253 
C 294 3056 339 2776 557 2510 
C 794 2218 1018 2167 1530 2033 
C 1722 1982 2042 1899 2106 1874 
C 2470 1722 2662 1341 2662 985 
C 2662 527 2336 38 1779 38 
C 1094 38 454 419 410 1311 
C 403 1413 397 1419 352 1419 
C 301 1419 294 1413 294 1285 
L 294 -1 
C 294 -115 301 -122 339 -122 
C 384 -122 397 -90 486 108 
C 493 127 493 140 614 381 
C 934 -39 1472 -128 1779 -128 
C 2477 -128 2970 451 2970 1124 
C 2970 1454 2848 1708 2778 1823 
C 2509 2230 2221 2306 1914 2382 
C 1869 2402 1856 2402 1498 2490 
C 1152 2579 1005 2624 845 2796 
C 666 2992 602 3196 602 3399 
C 602 3812 934 4263 1478 4263 
C 2157 4263 2579 3786 2675 2993 
C 2694 2878 2701 2872 2746 2872 
C 2803 2872 2803 2891 2803 2999 
L 2803 4290 
z
" transform="scale(0.015625)"/>
      <path id="CMR17-6d" d="M 4326 1933 
C 4326 2252 4269 2790 3507 2790 
C 3072 2790 2771 2496 2656 2151 
L 2650 2151 
C 2573 2676 2195 2790 1837 2790 
C 1331 2790 1069 2400 973 2144 
L 966 2144 
L 966 2790 
L 211 2720 
L 211 2554 
C 589 2554 646 2515 646 2208 
L 646 428 
C 646 184 621 153 211 153 
L 211 -13 
C 365 0 646 0 813 0 
C 979 0 1267 0 1421 -13 
L 1421 153 
C 1011 153 986 178 986 428 
L 986 1658 
C 986 2247 1344 2688 1792 2688 
C 2266 2688 2317 2266 2317 1958 
L 2317 428 
C 2317 184 2291 153 1882 153 
L 1882 -13 
C 2035 0 2317 0 2483 0 
C 2650 0 2938 0 3091 -13 
L 3091 153 
C 2682 153 2656 178 2656 428 
L 2656 1658 
C 2656 2247 3014 2688 3462 2688 
C 3936 2688 3987 2266 3987 1958 
L 3987 428 
C 3987 184 3962 153 3552 153 
L 3552 -13 
C 3706 0 3987 0 4154 0 
C 4320 0 4608 0 4762 -13 
L 4762 153 
C 4352 153 4326 178 4326 428 
L 4326 1933 
z
" transform="scale(0.015625)"/>
      <path id="CMR17-70" d="M 1408 -1063 
C 998 -1063 973 -1037 973 -789 
L 973 402 
C 1158 134 1427 -38 1766 -38 
C 2406 -38 3053 523 3053 1388 
C 3053 2191 2496 2802 1837 2802 
C 1453 2802 1139 2592 960 2338 
L 960 2802 
L 198 2732 
L 198 2567 
C 576 2567 634 2528 634 2223 
L 634 -789 
C 634 -1031 608 -1063 198 -1063 
L 198 -1228 
C 352 -1216 634 -1216 800 -1216 
C 966 -1216 1254 -1216 1408 -1228 
L 1408 -1063 
z
M 973 2012 
C 973 2102 973 2235 1222 2471 
C 1254 2497 1472 2688 1792 2688 
C 2259 2688 2643 2108 2643 1382 
C 2643 656 2234 64 1728 64 
C 1498 64 1248 172 1056 472 
C 973 612 973 650 973 752 
L 973 2012 
z
" transform="scale(0.015625)"/>
     </defs>
     <use xlink:href="#CMR17-46" transform="scale(0.996264)"/>
     <use xlink:href="#CMR17-75" transform="translate(52.176591 0) scale(0.996264)"/>
     <use xlink:href="#CMR17-6c" transform="translate(103.071961 0) scale(0.996264)"/>
     <use xlink:href="#CMR17-6c" transform="translate(127.943019 0) scale(0.996264)"/>
     <use xlink:href="#CMR17-53" transform="translate(182.890044 0) scale(0.996264)"/>
     <use xlink:href="#CMR17-61" transform="translate(233.785414 0) scale(0.996264)"/>
     <use xlink:href="#CMR17-6d" transform="translate(279.475891 0) scale(0.996264)"/>
     <use xlink:href="#CMR17-70" transform="translate(356.395481 0) scale(0.996264)"/>
     <use xlink:href="#CMR17-6c" transform="translate(407.290851 0) scale(0.996264)"/>
     <use xlink:href="#CMR17-65" transform="translate(432.161909 0) scale(0.996264)"/>
    </g>
   </g>
   <g id="legend_1">
    <g id="patch_5">
     <path d="M 156.234784 716.999724 
L 1342.751525 716.999724 
Q 1346.751525 716.999724 1346.751525 712.999724 
L 1346.751525 685.109059 
Q 1346.751525 681.109059 1342.751525 681.109059 
L 156.234784 681.109059 
Q 152.234784 681.109059 152.234784 685.109059 
L 152.234784 712.999724 
Q 152.234784 716.999724 156.234784 716.999724 
z
" style="fill: #ffffff; opacity: 0.8"/>
    </g>
    <g id="line2d_23">
     <path d="M 160.234784 697.035081 
L 180.234784 697.035081 
L 200.234784 697.035081 
" style="fill: none; stroke-dasharray: 5.55,2.4; stroke-dashoffset: 0; stroke: #006e64; stroke-width: 1.5"/>
    </g>
    <g id="text_21">
     <!-- Actual -->
     <g style="fill: #262626" transform="translate(216.234784 704.035081) scale(0.2 -0.2)">
      <defs>
       <path id="CMR17-41" d="M 2323 4378 
C 2291 4461 2278 4480 2214 4480 
C 2150 4480 2138 4461 2106 4378 
L 749 566 
C 627 223 371 153 147 153 
L 147 -13 
C 262 0 518 0 640 0 
C 800 0 1056 0 1210 -13 
L 1210 153 
C 909 153 864 361 864 439 
C 864 497 877 530 890 569 
L 1229 1536 
L 2906 1536 
L 3290 442 
C 3322 365 3322 352 3322 327 
C 3322 153 3046 153 2925 153 
L 2925 0 
C 3110 0 3443 0 3642 0 
C 3808 0 4128 0 4282 -13 
L 4282 153 
C 3942 153 3827 153 3744 387 
L 2323 4378 
z
M 2067 3893 
L 2848 1702 
L 1286 1702 
L 2067 3893 
z
" transform="scale(0.015625)"/>
       <path id="CMR17-63" d="M 2234 2240 
C 2112 2240 1933 2240 1933 2017 
C 1933 1838 2080 1787 2163 1787 
C 2208 1787 2394 1807 2394 2024 
C 2394 2467 1958 2803 1466 2803 
C 787 2803 211 2178 211 1363 
C 211 516 813 -64 1466 -64 
C 2259 -64 2458 677 2458 748 
C 2458 774 2451 793 2406 793 
C 2362 793 2355 787 2330 703 
C 2163 180 1798 51 1523 51 
C 1114 51 621 427 621 1369 
C 621 2338 1094 2688 1472 2688 
C 1722 2688 2093 2573 2234 2240 
z
" transform="scale(0.015625)"/>
      </defs>
      <use xlink:href="#CMR17-41" transform="scale(0.996264)"/>
      <use xlink:href="#CMR17-63" transform="translate(69.07243 0) scale(0.996264)"/>
      <use xlink:href="#CMR17-74" transform="translate(109.55809 0) scale(0.996264)"/>
      <use xlink:href="#CMR17-75" transform="translate(144.838858 0) scale(0.996264)"/>
      <use xlink:href="#CMR17-61" transform="translate(195.734228 0) scale(0.996264)"/>
      <use xlink:href="#CMR17-6c" transform="translate(241.424705 0) scale(0.996264)"/>
     </g>
    </g>
    <g id="line2d_24">
     <path d="M 309.493909 697.035081 
L 329.493909 697.035081 
L 349.493909 697.035081 
" style="fill: none; stroke: #734848; stroke-width: 1.5; stroke-linecap: round"/>
    </g>
    <g id="text_22">
     <!-- Predicted (2 clusters) -->
     <g style="fill: #262626" transform="translate(365.493909 704.035081) scale(0.2 -0.2)">
      <defs>
       <path id="CMR17-50" d="M 1267 2042 
L 2291 2042 
C 3117 2042 3718 2578 3718 3184 
C 3718 3791 3130 4352 2291 4352 
L 333 4352 
L 333 4186 
C 774 4186 845 4186 845 3899 
L 845 446 
C 845 160 774 160 333 160 
L 333 0 
C 518 0 858 0 1056 0 
C 1254 0 1594 0 1779 0 
L 1779 160 
C 1338 160 1267 160 1267 446 
L 1267 2042 
z
M 1254 2176 
L 1254 3938 
C 1254 4155 1267 4186 1523 4186 
L 2170 4186 
C 2995 4186 3232 3714 3232 3184 
C 3232 2604 2950 2176 2170 2176 
L 1254 2176 
z
" transform="scale(0.015625)"/>
       <path id="CMR17-64" d="M 1869 4326 
L 1869 4160 
C 2246 4160 2304 4122 2304 3820 
L 2304 2345 
C 2278 2377 2016 2790 1498 2790 
C 845 2790 211 2208 211 1364 
C 211 525 806 -64 1434 -64 
C 1978 -64 2259 337 2291 380 
L 2291 -63 
L 3066 -63 
L 3066 128 
C 2688 128 2630 166 2630 473 
L 2630 4396 
L 1869 4326 
z
M 2291 755 
C 2291 563 2176 390 2029 262 
C 1811 70 1594 38 1472 38 
C 1286 38 621 134 621 1356 
C 621 2612 1363 2688 1530 2688 
C 1824 2688 2061 2522 2208 2291 
C 2291 2157 2291 2138 2291 2023 
L 2291 755 
z
" transform="scale(0.015625)"/>
       <path id="CMR17-28" d="M 1958 -1561 
C 1958 -1555 1958 -1542 1939 -1523 
C 1645 -1224 858 -407 858 1581 
C 858 3569 1632 4379 1946 4697 
C 1946 4704 1958 4717 1958 4736 
C 1958 4755 1939 4768 1914 4768 
C 1843 4768 1299 4296 986 3594 
C 666 2887 576 2199 576 1588 
C 576 1128 621 351 1005 -471 
C 1312 -1135 1837 -1600 1914 -1600 
C 1946 -1600 1958 -1587 1958 -1561 
z
" transform="scale(0.015625)"/>
       <path id="CMR17-73" d="M 1978 2697 
C 1978 2813 1971 2819 1933 2819 
C 1907 2819 1901 2813 1824 2717 
C 1805 2691 1747 2626 1728 2601 
C 1523 2819 1235 2819 1126 2819 
C 416 2819 160 2447 160 2076 
C 160 1498 813 1365 998 1325 
C 1402 1243 1542 1217 1677 1101 
C 1760 1025 1901 884 1901 654 
C 1901 384 1747 38 1158 38 
C 602 38 403 460 288 1021 
C 269 1110 269 1117 218 1117 
C 166 1117 160 1110 160 983 
L 160 63 
C 160 -51 166 -58 205 -58 
C 237 -58 243 -51 275 0 
C 314 57 410 211 448 276 
C 576 103 800 -64 1158 -64 
C 1792 -64 2131 283 2131 784 
C 2131 1112 1958 1285 1875 1362 
C 1683 1561 1459 1606 1190 1657 
C 838 1735 390 1825 390 2217 
C 390 2383 480 2737 1126 2737 
C 1811 2737 1850 2094 1862 1888 
C 1869 1856 1901 1849 1920 1849 
C 1978 1849 1978 1869 1978 1978 
L 1978 2697 
z
" transform="scale(0.015625)"/>
       <path id="CMR17-29" d="M 1683 1581 
C 1683 2040 1638 2817 1254 3639 
C 947 4303 422 4768 346 4768 
C 326 4768 301 4761 301 4729 
C 301 4717 307 4710 314 4697 
C 621 4378 1402 3568 1402 1584 
C 1402 -407 627 -1217 314 -1537 
C 307 -1549 301 -1556 301 -1568 
C 301 -1600 326 -1600 346 -1600 
C 416 -1600 960 -1128 1274 -426 
C 1594 281 1683 969 1683 1581 
z
" transform="scale(0.015625)"/>
      </defs>
      <use xlink:href="#CMR17-50" transform="scale(0.996264)"/>
      <use xlink:href="#CMR17-72" transform="translate(62.586301 0) scale(0.996264)"/>
      <use xlink:href="#CMR17-65" transform="translate(97.867068 0) scale(0.996264)"/>
      <use xlink:href="#CMR17-64" transform="translate(138.352729 0) scale(0.996264)"/>
      <use xlink:href="#CMR17-69" transform="translate(189.248099 0) scale(0.996264)"/>
      <use xlink:href="#CMR17-63" transform="translate(214.119157 0) scale(0.996264)"/>
      <use xlink:href="#CMR17-74" transform="translate(254.604818 0) scale(0.996264)"/>
      <use xlink:href="#CMR17-65" transform="translate(289.885585 0) scale(0.996264)"/>
      <use xlink:href="#CMR17-64" transform="translate(330.371246 0) scale(0.996264)"/>
      <use xlink:href="#CMR17-28" transform="translate(411.342582 0) scale(0.996264)"/>
      <use xlink:href="#CMR17-32" transform="translate(446.62335 0) scale(0.996264)"/>
      <use xlink:href="#CMR17-63" transform="translate(522.389793 0) scale(0.996264)"/>
      <use xlink:href="#CMR17-6c" transform="translate(562.875454 0) scale(0.996264)"/>
      <use xlink:href="#CMR17-75" transform="translate(587.746512 0) scale(0.996264)"/>
      <use xlink:href="#CMR17-73" transform="translate(638.641882 0) scale(0.996264)"/>
      <use xlink:href="#CMR17-74" transform="translate(674.44322 0) scale(0.996264)"/>
      <use xlink:href="#CMR17-65" transform="translate(709.723987 0) scale(0.996264)"/>
      <use xlink:href="#CMR17-72" transform="translate(750.209648 0) scale(0.996264)"/>
      <use xlink:href="#CMR17-73" transform="translate(785.490416 0) scale(0.996264)"/>
      <use xlink:href="#CMR17-29" transform="translate(821.291753 0) scale(0.996264)"/>
     </g>
    </g>
    <g id="line2d_25">
     <path d="M 576.808313 697.035081 
L 596.808313 697.035081 
L 616.808313 697.035081 
" style="fill: none; stroke: #004e4a; stroke-width: 1.5; stroke-linecap: round"/>
    </g>
    <g id="text_23">
     <!-- Predicted (3 clusters) -->
     <g style="fill: #262626" transform="translate(632.808313 704.035081) scale(0.2 -0.2)">
      <use xlink:href="#CMR17-50" transform="scale(0.996264)"/>
      <use xlink:href="#CMR17-72" transform="translate(62.586301 0) scale(0.996264)"/>
      <use xlink:href="#CMR17-65" transform="translate(97.867068 0) scale(0.996264)"/>
      <use xlink:href="#CMR17-64" transform="translate(138.352729 0) scale(0.996264)"/>
      <use xlink:href="#CMR17-69" transform="translate(189.248099 0) scale(0.996264)"/>
      <use xlink:href="#CMR17-63" transform="translate(214.119157 0) scale(0.996264)"/>
      <use xlink:href="#CMR17-74" transform="translate(254.604818 0) scale(0.996264)"/>
      <use xlink:href="#CMR17-65" transform="translate(289.885585 0) scale(0.996264)"/>
      <use xlink:href="#CMR17-64" transform="translate(330.371246 0) scale(0.996264)"/>
      <use xlink:href="#CMR17-28" transform="translate(411.342582 0) scale(0.996264)"/>
      <use xlink:href="#CMR17-33" transform="translate(446.62335 0) scale(0.996264)"/>
      <use xlink:href="#CMR17-63" transform="translate(522.389793 0) scale(0.996264)"/>
      <use xlink:href="#CMR17-6c" transform="translate(562.875454 0) scale(0.996264)"/>
      <use xlink:href="#CMR17-75" transform="translate(587.746512 0) scale(0.996264)"/>
      <use xlink:href="#CMR17-73" transform="translate(638.641882 0) scale(0.996264)"/>
      <use xlink:href="#CMR17-74" transform="translate(674.44322 0) scale(0.996264)"/>
      <use xlink:href="#CMR17-65" transform="translate(709.723987 0) scale(0.996264)"/>
      <use xlink:href="#CMR17-72" transform="translate(750.209648 0) scale(0.996264)"/>
      <use xlink:href="#CMR17-73" transform="translate(785.490416 0) scale(0.996264)"/>
      <use xlink:href="#CMR17-29" transform="translate(821.291753 0) scale(0.996264)"/>
     </g>
    </g>
    <g id="line2d_26">
     <path d="M 844.122717 697.035081 
L 864.122717 697.035081 
L 884.122717 697.035081 
" style="fill: none; stroke: #c17150; stroke-width: 1.5; stroke-linecap: round"/>
    </g>
    <g id="text_24">
     <!-- Predicted (4 clusters) -->
     <g style="fill: #262626" transform="translate(900.122717 704.035081) scale(0.2 -0.2)">
      <use xlink:href="#CMR17-50" transform="scale(0.996264)"/>
      <use xlink:href="#CMR17-72" transform="translate(62.586301 0) scale(0.996264)"/>
      <use xlink:href="#CMR17-65" transform="translate(97.867068 0) scale(0.996264)"/>
      <use xlink:href="#CMR17-64" transform="translate(138.352729 0) scale(0.996264)"/>
      <use xlink:href="#CMR17-69" transform="translate(189.248099 0) scale(0.996264)"/>
      <use xlink:href="#CMR17-63" transform="translate(214.119157 0) scale(0.996264)"/>
      <use xlink:href="#CMR17-74" transform="translate(254.604818 0) scale(0.996264)"/>
      <use xlink:href="#CMR17-65" transform="translate(289.885585 0) scale(0.996264)"/>
      <use xlink:href="#CMR17-64" transform="translate(330.371246 0) scale(0.996264)"/>
      <use xlink:href="#CMR17-28" transform="translate(411.342582 0) scale(0.996264)"/>
      <use xlink:href="#CMR17-34" transform="translate(446.62335 0) scale(0.996264)"/>
      <use xlink:href="#CMR17-63" transform="translate(522.389793 0) scale(0.996264)"/>
      <use xlink:href="#CMR17-6c" transform="translate(562.875454 0) scale(0.996264)"/>
      <use xlink:href="#CMR17-75" transform="translate(587.746512 0) scale(0.996264)"/>
      <use xlink:href="#CMR17-73" transform="translate(638.641882 0) scale(0.996264)"/>
      <use xlink:href="#CMR17-74" transform="translate(674.44322 0) scale(0.996264)"/>
      <use xlink:href="#CMR17-65" transform="translate(709.723987 0) scale(0.996264)"/>
      <use xlink:href="#CMR17-72" transform="translate(750.209648 0) scale(0.996264)"/>
      <use xlink:href="#CMR17-73" transform="translate(785.490416 0) scale(0.996264)"/>
      <use xlink:href="#CMR17-29" transform="translate(821.291753 0) scale(0.996264)"/>
     </g>
    </g>
    <g id="line2d_27">
     <path d="M 1111.437121 697.035081 
L 1131.437121 697.035081 
L 1151.437121 697.035081 
" style="fill: none; stroke: #c8f0e6; stroke-width: 1.5; stroke-linecap: round"/>
    </g>
    <g id="text_25">
     <!-- Predicted (5 clusters) -->
     <g style="fill: #262626" transform="translate(1167.437121 704.035081) scale(0.2 -0.2)">
      <use xlink:href="#CMR17-50" transform="scale(0.996264)"/>
      <use xlink:href="#CMR17-72" transform="translate(62.586301 0) scale(0.996264)"/>
      <use xlink:href="#CMR17-65" transform="translate(97.867068 0) scale(0.996264)"/>
      <use xlink:href="#CMR17-64" transform="translate(138.352729 0) scale(0.996264)"/>
      <use xlink:href="#CMR17-69" transform="translate(189.248099 0) scale(0.996264)"/>
      <use xlink:href="#CMR17-63" transform="translate(214.119157 0) scale(0.996264)"/>
      <use xlink:href="#CMR17-74" transform="translate(254.604818 0) scale(0.996264)"/>
      <use xlink:href="#CMR17-65" transform="translate(289.885585 0) scale(0.996264)"/>
      <use xlink:href="#CMR17-64" transform="translate(330.371246 0) scale(0.996264)"/>
      <use xlink:href="#CMR17-28" transform="translate(411.342582 0) scale(0.996264)"/>
      <use xlink:href="#CMR17-35" transform="translate(446.62335 0) scale(0.996264)"/>
      <use xlink:href="#CMR17-63" transform="translate(522.389793 0) scale(0.996264)"/>
      <use xlink:href="#CMR17-6c" transform="translate(562.875454 0) scale(0.996264)"/>
      <use xlink:href="#CMR17-75" transform="translate(587.746512 0) scale(0.996264)"/>
      <use xlink:href="#CMR17-73" transform="translate(638.641882 0) scale(0.996264)"/>
      <use xlink:href="#CMR17-74" transform="translate(674.44322 0) scale(0.996264)"/>
      <use xlink:href="#CMR17-65" transform="translate(709.723987 0) scale(0.996264)"/>
      <use xlink:href="#CMR17-72" transform="translate(750.209648 0) scale(0.996264)"/>
      <use xlink:href="#CMR17-73" transform="translate(785.490416 0) scale(0.996264)"/>
      <use xlink:href="#CMR17-29" transform="translate(821.291753 0) scale(0.996264)"/>
     </g>
    </g>
   </g>
  </g>
 </g>
 <defs>
  <clipPath id="p2f842e470b">
   <rect x="61.986549" y="25.604645" width="1375.013211" height="586.822194"/>
  </clipPath>
 </defs>
</svg>
