<?xml version="1.0" encoding="utf-8" standalone="no"?>
<!DOCTYPE svg PUBLIC "-//W3C//DTD SVG 1.1//EN"
  "http://www.w3.org/Graphics/SVG/1.1/DTD/svg11.dtd">
<svg xmlns:xlink="http://www.w3.org/1999/xlink" width="1440pt" height="720pt" viewBox="0 0 1440 720" xmlns="http://www.w3.org/2000/svg" version="1.1">
 <metadata>
  <rdf:RDF xmlns:dc="http://purl.org/dc/elements/1.1/" xmlns:cc="http://creativecommons.org/ns#" xmlns:rdf="http://www.w3.org/1999/02/22-rdf-syntax-ns#">
   <cc:Work>
    <dc:type rdf:resource="http://purl.org/dc/dcmitype/StillImage"/>
    <dc:date>2023-11-21T19:28:20.230170</dc:date>
    <dc:format>image/svg+xml</dc:format>
    <dc:creator>
     <cc:Agent>
      <dc:title>Matplotlib v3.8.0, https://matplotlib.org/</dc:title>
     </cc:Agent>
    </dc:creator>
   </cc:Work>
  </rdf:RDF>
 </metadata>
 <defs>
  <style type="text/css">*{stroke-linejoin: round; stroke-linecap: butt}</style>
 </defs>
 <g id="figure_1">
  <g id="patch_1">
   <path d="M 0 720 
L 1440 720 
L 1440 0 
L 0 0 
z
" style="fill: #ffffff"/>
  </g>
  <g id="axes_1">
   <g id="patch_2">
    <path d="M 61.986549 612.426839 
L 1436.99976 612.426839 
L 1436.99976 25.604645 
L 61.986549 25.604645 
z
" style="fill: #ffffff"/>
   </g>
   <g id="matplotlib.axis_1">
    <g id="xtick_1">
     <g id="line2d_1">
      <path d="M 124.487149 612.426839 
L 124.487149 25.604645 
" clip-path="url(#pfacc93742e)" style="fill: none; stroke: #cccccc; stroke-opacity: 0.5; stroke-width: 0.8; stroke-linecap: round"/>
     </g>
     <g id="text_1">
      <!-- $\mathdefault{2015}$ -->
      <g transform="translate(106.210958 629.763836) scale(0.2 -0.2)">
       <defs>
        <path id="CMR17-32" d="M 2669 989 
L 2554 989 
C 2490 536 2438 459 2413 420 
C 2381 369 1920 369 1830 369 
L 602 369 
C 832 619 1280 1072 1824 1597 
C 2214 1967 2669 2402 2669 3035 
C 2669 3790 2067 4224 1395 4224 
C 691 4224 262 3604 262 3030 
C 262 2780 448 2748 525 2748 
C 589 2748 781 2787 781 3010 
C 781 3207 614 3264 525 3264 
C 486 3264 448 3258 422 3245 
C 544 3790 915 4058 1306 4058 
C 1862 4058 2227 3617 2227 3035 
C 2227 2479 1901 2000 1536 1584 
L 262 146 
L 262 0 
L 2515 0 
L 2669 989 
z
" transform="scale(0.015625)"/>
        <path id="CMR17-30" d="M 2688 2025 
C 2688 2416 2682 3080 2413 3591 
C 2176 4039 1798 4198 1466 4198 
C 1158 4198 768 4058 525 3597 
C 269 3118 243 2524 243 2025 
C 243 1661 250 1106 448 619 
C 723 -39 1216 -128 1466 -128 
C 1760 -128 2208 -7 2470 600 
C 2662 1042 2688 1559 2688 2025 
z
M 1466 -26 
C 1056 -26 813 325 723 812 
C 653 1188 653 1738 653 2096 
C 653 2588 653 2997 736 3387 
C 858 3929 1216 4096 1466 4096 
C 1728 4096 2067 3923 2189 3400 
C 2272 3036 2278 2607 2278 2096 
C 2278 1680 2278 1169 2202 792 
C 2067 95 1690 -26 1466 -26 
z
" transform="scale(0.015625)"/>
        <path id="CMR17-31" d="M 1702 4058 
C 1702 4192 1696 4192 1606 4192 
C 1357 3916 979 3827 621 3827 
C 602 3827 570 3827 563 3808 
C 557 3795 557 3782 557 3648 
C 755 3648 1088 3686 1344 3839 
L 1344 461 
C 1344 236 1331 160 781 160 
L 589 160 
L 589 0 
C 896 0 1216 0 1523 0 
C 1830 0 2150 0 2458 0 
L 2458 160 
L 2266 160 
C 1715 160 1702 230 1702 458 
L 1702 4058 
z
" transform="scale(0.015625)"/>
        <path id="CMR17-35" d="M 730 3692 
C 794 3666 1056 3584 1325 3584 
C 1920 3584 2246 3911 2432 4100 
C 2432 4157 2432 4192 2394 4192 
C 2387 4192 2374 4192 2323 4163 
C 2099 4058 1837 3973 1517 3973 
C 1325 3973 1037 3999 723 4139 
C 653 4171 640 4171 634 4171 
C 602 4171 595 4164 595 4037 
L 595 2203 
C 595 2089 595 2057 659 2057 
C 691 2057 704 2070 736 2114 
C 941 2401 1222 2522 1542 2522 
C 1766 2522 2246 2382 2246 1289 
C 2246 1085 2246 715 2054 421 
C 1894 159 1645 25 1370 25 
C 947 25 518 320 403 814 
C 429 807 480 795 506 795 
C 589 795 749 840 749 1038 
C 749 1210 627 1280 506 1280 
C 358 1280 262 1190 262 1011 
C 262 454 704 -128 1382 -128 
C 2042 -128 2669 440 2669 1264 
C 2669 2030 2170 2624 1549 2624 
C 1222 2624 947 2503 730 2274 
L 730 3692 
z
" transform="scale(0.015625)"/>
       </defs>
       <use xlink:href="#CMR17-32" transform="scale(0.996264)"/>
       <use xlink:href="#CMR17-30" transform="translate(45.690477 0) scale(0.996264)"/>
       <use xlink:href="#CMR17-31" transform="translate(91.380954 0) scale(0.996264)"/>
       <use xlink:href="#CMR17-35" transform="translate(137.071431 0) scale(0.996264)"/>
      </g>
     </g>
    </g>
    <g id="xtick_2">
     <g id="line2d_2">
      <path d="M 265.917522 612.426839 
L 265.917522 25.604645 
" clip-path="url(#pfacc93742e)" style="fill: none; stroke: #cccccc; stroke-opacity: 0.5; stroke-width: 0.8; stroke-linecap: round"/>
     </g>
     <g id="text_2">
      <!-- $\mathdefault{2016}$ -->
      <g transform="translate(247.641331 629.763836) scale(0.2 -0.2)">
       <defs>
        <path id="CMR17-36" d="M 678 2176 
C 678 3690 1395 4032 1811 4032 
C 1946 4032 2272 4009 2400 3776 
C 2298 3776 2106 3776 2106 3553 
C 2106 3381 2246 3323 2336 3323 
C 2394 3323 2566 3348 2566 3560 
C 2566 3954 2246 4179 1805 4179 
C 1043 4179 243 3390 243 1984 
C 243 253 966 -128 1478 -128 
C 2099 -128 2688 427 2688 1283 
C 2688 2081 2170 2662 1517 2662 
C 1126 2662 838 2407 678 1960 
L 678 2176 
z
M 1478 25 
C 691 25 691 1200 691 1436 
C 691 1896 909 2560 1504 2560 
C 1613 2560 1926 2560 2138 2120 
C 2253 1870 2253 1609 2253 1289 
C 2253 944 2253 690 2118 434 
C 1978 171 1773 25 1478 25 
z
" transform="scale(0.015625)"/>
       </defs>
       <use xlink:href="#CMR17-32" transform="scale(0.996264)"/>
       <use xlink:href="#CMR17-30" transform="translate(45.690477 0) scale(0.996264)"/>
       <use xlink:href="#CMR17-31" transform="translate(91.380954 0) scale(0.996264)"/>
       <use xlink:href="#CMR17-36" transform="translate(137.071431 0) scale(0.996264)"/>
      </g>
     </g>
    </g>
    <g id="xtick_3">
     <g id="line2d_3">
      <path d="M 407.735376 612.426839 
L 407.735376 25.604645 
" clip-path="url(#pfacc93742e)" style="fill: none; stroke: #cccccc; stroke-opacity: 0.5; stroke-width: 0.8; stroke-linecap: round"/>
     </g>
     <g id="text_3">
      <!-- $\mathdefault{2017}$ -->
      <g transform="translate(389.459185 629.763836) scale(0.2 -0.2)">
       <defs>
        <path id="CMR17-37" d="M 2886 3941 
L 2886 4081 
L 1382 4081 
C 634 4081 621 4165 595 4288 
L 480 4288 
L 294 3094 
L 410 3094 
C 429 3215 474 3540 550 3661 
C 589 3712 1062 3712 1171 3712 
L 2579 3712 
L 1869 2661 
C 1395 1954 1069 999 1069 165 
C 1069 89 1069 -128 1299 -128 
C 1530 -128 1530 89 1530 171 
L 1530 465 
C 1530 1508 1709 2196 2003 2636 
L 2886 3941 
z
" transform="scale(0.015625)"/>
       </defs>
       <use xlink:href="#CMR17-32" transform="scale(0.996264)"/>
       <use xlink:href="#CMR17-30" transform="translate(45.690477 0) scale(0.996264)"/>
       <use xlink:href="#CMR17-31" transform="translate(91.380954 0) scale(0.996264)"/>
       <use xlink:href="#CMR17-37" transform="translate(137.071431 0) scale(0.996264)"/>
      </g>
     </g>
    </g>
    <g id="xtick_4">
     <g id="line2d_4">
      <path d="M 549.165749 612.426839 
L 549.165749 25.604645 
" clip-path="url(#pfacc93742e)" style="fill: none; stroke: #cccccc; stroke-opacity: 0.5; stroke-width: 0.8; stroke-linecap: round"/>
     </g>
     <g id="text_4">
      <!-- $\mathdefault{2018}$ -->
      <g transform="translate(530.889558 629.763836) scale(0.2 -0.2)">
       <defs>
        <path id="CMR17-38" d="M 1741 2264 
C 2144 2467 2554 2773 2554 3263 
C 2554 3841 1990 4179 1472 4179 
C 890 4179 378 3759 378 3180 
C 378 3021 416 2747 666 2505 
C 730 2442 998 2251 1171 2130 
C 883 1983 211 1634 211 934 
C 211 279 838 -128 1459 -128 
C 2144 -128 2720 362 2720 1010 
C 2720 1590 2330 1857 2074 2029 
L 1741 2264 
z
M 902 2822 
C 851 2854 595 3051 595 3351 
C 595 3739 998 4032 1459 4032 
C 1965 4032 2336 3676 2336 3262 
C 2336 2669 1670 2331 1638 2331 
C 1632 2331 1626 2331 1574 2370 
L 902 2822 
z
M 2080 1519 
C 2176 1449 2483 1240 2483 851 
C 2483 381 2010 25 1472 25 
C 890 25 448 438 448 940 
C 448 1443 838 1862 1280 2060 
L 2080 1519 
z
" transform="scale(0.015625)"/>
       </defs>
       <use xlink:href="#CMR17-32" transform="scale(0.996264)"/>
       <use xlink:href="#CMR17-30" transform="translate(45.690477 0) scale(0.996264)"/>
       <use xlink:href="#CMR17-31" transform="translate(91.380954 0) scale(0.996264)"/>
       <use xlink:href="#CMR17-38" transform="translate(137.071431 0) scale(0.996264)"/>
      </g>
     </g>
    </g>
    <g id="xtick_5">
     <g id="line2d_5">
      <path d="M 690.596122 612.426839 
L 690.596122 25.604645 
" clip-path="url(#pfacc93742e)" style="fill: none; stroke: #cccccc; stroke-opacity: 0.5; stroke-width: 0.8; stroke-linecap: round"/>
     </g>
     <g id="text_5">
      <!-- $\mathdefault{2019}$ -->
      <g transform="translate(672.319931 629.763836) scale(0.2 -0.2)">
       <defs>
        <path id="CMR17-39" d="M 2253 1864 
C 2253 464 1670 31 1190 31 
C 1043 31 685 31 538 294 
C 704 268 826 357 826 518 
C 826 692 685 749 595 749 
C 538 749 365 723 365 506 
C 365 71 742 -128 1203 -128 
C 1939 -128 2688 674 2688 2073 
C 2688 3817 1971 4179 1485 4179 
C 851 4179 243 3628 243 2778 
C 243 1991 762 1408 1414 1408 
C 1952 1408 2189 1903 2253 2112 
L 2253 1864 
z
M 1427 1510 
C 1254 1510 1011 1542 813 1922 
C 678 2169 678 2461 678 2771 
C 678 3146 678 3405 858 3684 
C 947 3817 1114 4032 1485 4032 
C 2240 4032 2240 2885 2240 2632 
C 2240 2182 2035 1510 1427 1510 
z
" transform="scale(0.015625)"/>
       </defs>
       <use xlink:href="#CMR17-32" transform="scale(0.996264)"/>
       <use xlink:href="#CMR17-30" transform="translate(45.690477 0) scale(0.996264)"/>
       <use xlink:href="#CMR17-31" transform="translate(91.380954 0) scale(0.996264)"/>
       <use xlink:href="#CMR17-39" transform="translate(137.071431 0) scale(0.996264)"/>
      </g>
     </g>
    </g>
    <g id="xtick_6">
     <g id="line2d_6">
      <path d="M 832.026495 612.426839 
L 832.026495 25.604645 
" clip-path="url(#pfacc93742e)" style="fill: none; stroke: #cccccc; stroke-opacity: 0.5; stroke-width: 0.8; stroke-linecap: round"/>
     </g>
     <g id="text_6">
      <!-- $\mathdefault{2020}$ -->
      <g transform="translate(813.750305 629.763836) scale(0.2 -0.2)">
       <use xlink:href="#CMR17-32" transform="scale(0.996264)"/>
       <use xlink:href="#CMR17-30" transform="translate(45.690477 0) scale(0.996264)"/>
       <use xlink:href="#CMR17-32" transform="translate(91.380954 0) scale(0.996264)"/>
       <use xlink:href="#CMR17-30" transform="translate(137.071431 0) scale(0.996264)"/>
      </g>
     </g>
    </g>
    <g id="xtick_7">
     <g id="line2d_7">
      <path d="M 973.844349 612.426839 
L 973.844349 25.604645 
" clip-path="url(#pfacc93742e)" style="fill: none; stroke: #cccccc; stroke-opacity: 0.5; stroke-width: 0.8; stroke-linecap: round"/>
     </g>
     <g id="text_7">
      <!-- $\mathdefault{2021}$ -->
      <g transform="translate(955.568158 629.763836) scale(0.2 -0.2)">
       <use xlink:href="#CMR17-32" transform="scale(0.996264)"/>
       <use xlink:href="#CMR17-30" transform="translate(45.690477 0) scale(0.996264)"/>
       <use xlink:href="#CMR17-32" transform="translate(91.380954 0) scale(0.996264)"/>
       <use xlink:href="#CMR17-31" transform="translate(137.071431 0) scale(0.996264)"/>
      </g>
     </g>
    </g>
    <g id="xtick_8">
     <g id="line2d_8">
      <path d="M 1115.274722 612.426839 
L 1115.274722 25.604645 
" clip-path="url(#pfacc93742e)" style="fill: none; stroke: #cccccc; stroke-opacity: 0.5; stroke-width: 0.8; stroke-linecap: round"/>
     </g>
     <g id="text_8">
      <!-- $\mathdefault{2022}$ -->
      <g transform="translate(1096.998531 629.763836) scale(0.2 -0.2)">
       <use xlink:href="#CMR17-32" transform="scale(0.996264)"/>
       <use xlink:href="#CMR17-30" transform="translate(45.690477 0) scale(0.996264)"/>
       <use xlink:href="#CMR17-32" transform="translate(91.380954 0) scale(0.996264)"/>
       <use xlink:href="#CMR17-32" transform="translate(137.071431 0) scale(0.996264)"/>
      </g>
     </g>
    </g>
    <g id="xtick_9">
     <g id="line2d_9">
      <path d="M 1256.705095 612.426839 
L 1256.705095 25.604645 
" clip-path="url(#pfacc93742e)" style="fill: none; stroke: #cccccc; stroke-opacity: 0.5; stroke-width: 0.8; stroke-linecap: round"/>
     </g>
     <g id="text_9">
      <!-- $\mathdefault{2023}$ -->
      <g transform="translate(1238.428904 629.763836) scale(0.2 -0.2)">
       <defs>
        <path id="CMR17-33" d="M 1414 2157 
C 1984 2157 2234 1662 2234 1090 
C 2234 320 1824 25 1453 25 
C 1114 25 563 194 390 693 
C 422 680 454 680 486 680 
C 640 680 755 782 755 948 
C 755 1133 614 1216 486 1216 
C 378 1216 211 1165 211 926 
C 211 335 787 -128 1466 -128 
C 2176 -128 2720 430 2720 1085 
C 2720 1707 2208 2157 1600 2227 
C 2086 2328 2554 2756 2554 3329 
C 2554 3820 2048 4179 1472 4179 
C 890 4179 378 3829 378 3329 
C 378 3110 544 3072 627 3072 
C 762 3072 877 3155 877 3321 
C 877 3486 762 3569 627 3569 
C 602 3569 570 3569 544 3557 
C 730 3959 1235 4032 1459 4032 
C 1683 4032 2106 3925 2106 3320 
C 2106 3143 2080 2828 1862 2550 
C 1670 2304 1453 2304 1242 2284 
C 1210 2284 1062 2269 1037 2269 
C 992 2263 966 2257 966 2208 
C 966 2163 973 2157 1101 2157 
L 1414 2157 
z
" transform="scale(0.015625)"/>
       </defs>
       <use xlink:href="#CMR17-32" transform="scale(0.996264)"/>
       <use xlink:href="#CMR17-30" transform="translate(45.690477 0) scale(0.996264)"/>
       <use xlink:href="#CMR17-32" transform="translate(91.380954 0) scale(0.996264)"/>
       <use xlink:href="#CMR17-33" transform="translate(137.071431 0) scale(0.996264)"/>
      </g>
     </g>
    </g>
    <g id="xtick_10">
     <g id="line2d_10">
      <path d="M 1398.135468 612.426839 
L 1398.135468 25.604645 
" clip-path="url(#pfacc93742e)" style="fill: none; stroke: #cccccc; stroke-opacity: 0.5; stroke-width: 0.8; stroke-linecap: round"/>
     </g>
     <g id="text_10">
      <!-- $\mathdefault{2024}$ -->
      <g transform="translate(1379.859278 629.763836) scale(0.2 -0.2)">
       <defs>
        <path id="CMR17-34" d="M 2150 4122 
C 2150 4256 2144 4256 2029 4256 
L 128 1254 
L 128 1088 
L 1779 1088 
L 1779 457 
C 1779 224 1766 160 1318 160 
L 1197 160 
L 1197 0 
C 1402 0 1747 0 1965 0 
C 2182 0 2528 0 2733 0 
L 2733 160 
L 2611 160 
C 2163 160 2150 224 2150 457 
L 2150 1088 
L 2803 1088 
L 2803 1254 
L 2150 1254 
L 2150 4122 
z
M 1798 3703 
L 1798 1254 
L 256 1254 
L 1798 3703 
z
" transform="scale(0.015625)"/>
       </defs>
       <use xlink:href="#CMR17-32" transform="scale(0.996264)"/>
       <use xlink:href="#CMR17-30" transform="translate(45.690477 0) scale(0.996264)"/>
       <use xlink:href="#CMR17-32" transform="translate(91.380954 0) scale(0.996264)"/>
       <use xlink:href="#CMR17-34" transform="translate(137.071431 0) scale(0.996264)"/>
      </g>
     </g>
    </g>
    <g id="text_11">
     <!-- Date -->
     <g style="fill: #696969" transform="translate(730.308117 651.476466) scale(0.2 -0.2)">
      <defs>
       <path id="CMR17-44" d="M 333 4352 
L 333 4186 
C 774 4186 845 4186 845 3900 
L 845 452 
C 845 166 774 166 333 166 
L 333 0 
L 2368 0 
C 3398 0 4224 943 4224 2141 
C 4224 3346 3411 4352 2368 4352 
L 333 4352 
z
M 1523 166 
C 1267 166 1254 197 1254 414 
L 1254 3938 
C 1254 4155 1267 4186 1523 4186 
L 2240 4186 
C 2771 4186 3750 3874 3750 2141 
C 3750 1242 3488 879 3366 707 
C 3213 510 2848 166 2240 166 
L 1523 166 
z
" transform="scale(0.015625)"/>
       <path id="CMR17-61" d="M 2304 1653 
C 2304 2072 2304 2294 2035 2543 
C 1798 2752 1523 2816 1306 2816 
C 800 2816 435 2407 435 1971 
C 435 1728 627 1728 666 1728 
C 749 1728 896 1778 896 1954 
C 896 2112 774 2181 666 2181 
C 640 2181 608 2174 589 2168 
C 723 2592 1069 2714 1293 2714 
C 1613 2714 1965 2429 1965 1885 
L 1965 1600 
C 1587 1600 1133 1549 774 1357 
C 371 1133 256 813 256 570 
C 256 77 832 -64 1171 -64 
C 1523 -64 1850 139 1990 511 
C 2003 233 2182 -18 2464 -18 
C 2598 -18 2938 70 2938 567 
L 2938 920 
L 2822 920 
L 2822 562 
C 2822 178 2650 128 2566 128 
C 2304 128 2304 458 2304 738 
L 2304 1653 
z
M 1965 870 
C 1965 317 1568 38 1216 38 
C 896 38 646 275 646 570 
C 646 761 730 1100 1101 1305 
C 1408 1478 1760 1504 1965 1504 
L 1965 870 
z
" transform="scale(0.015625)"/>
       <path id="CMR17-74" d="M 966 2560 
L 1862 2560 
L 1862 2725 
L 966 2725 
L 966 3904 
L 851 3904 
C 838 3245 614 2668 70 2668 
L 70 2560 
L 627 2560 
L 627 771 
C 627 650 627 -64 1370 -64 
C 1747 -64 1965 306 1965 777 
L 1965 1140 
L 1850 1140 
L 1850 783 
C 1850 344 1677 51 1408 51 
C 1222 51 966 178 966 758 
L 966 2560 
z
" transform="scale(0.015625)"/>
       <path id="CMR17-65" d="M 2438 1472 
C 2464 1498 2464 1511 2464 1576 
C 2464 2238 2118 2816 1389 2816 
C 710 2816 173 2169 173 1383 
C 173 551 781 -64 1459 -64 
C 2176 -64 2458 607 2458 740 
C 2458 784 2419 784 2406 784 
C 2362 784 2355 771 2330 696 
C 2189 265 1837 51 1504 51 
C 1229 51 954 203 781 480 
C 582 803 582 1176 582 1472 
L 2438 1472 
z
M 589 1568 
C 634 2505 1126 2714 1382 2714 
C 1818 2714 2112 2297 2118 1568 
L 589 1568 
z
" transform="scale(0.015625)"/>
      </defs>
      <use xlink:href="#CMR17-44" transform="scale(0.996264)"/>
      <use xlink:href="#CMR17-61" transform="translate(70.393556 0) scale(0.996264)"/>
      <use xlink:href="#CMR17-74" transform="translate(116.084033 0) scale(0.996264)"/>
      <use xlink:href="#CMR17-65" transform="translate(151.364801 0) scale(0.996264)"/>
     </g>
    </g>
   </g>
   <g id="matplotlib.axis_2">
    <g id="ytick_1">
     <g id="line2d_11">
      <path d="M 61.986549 612.426839 
L 1436.99976 612.426839 
" clip-path="url(#pfacc93742e)" style="fill: none; stroke: #cccccc; stroke-opacity: 0.5; stroke-width: 0.8; stroke-linecap: round"/>
     </g>
     <g id="text_12">
      <!-- $\mathdefault{−20}$ -->
      <g transform="translate(24.71287 619.345338) scale(0.2 -0.2)">
       <defs>
        <path id="CMSY10-0" d="M 4218 1472 
C 4326 1472 4442 1472 4442 1600 
C 4442 1728 4326 1728 4218 1728 
L 755 1728 
C 646 1728 531 1728 531 1600 
C 531 1472 646 1472 755 1472 
L 4218 1472 
z
" transform="scale(0.015625)"/>
       </defs>
       <use xlink:href="#CMSY10-0" transform="scale(0.996264)"/>
       <use xlink:href="#CMR17-32" transform="translate(77.487468 0) scale(0.996264)"/>
       <use xlink:href="#CMR17-30" transform="translate(123.177945 0) scale(0.996264)"/>
      </g>
     </g>
    </g>
    <g id="ytick_2">
     <g id="line2d_12">
      <path d="M 61.986549 514.62314 
L 1436.99976 514.62314 
" clip-path="url(#pfacc93742e)" style="fill: none; stroke: #cccccc; stroke-opacity: 0.5; stroke-width: 0.8; stroke-linecap: round"/>
     </g>
     <g id="text_13">
      <!-- $\mathdefault{0}$ -->
      <g transform="translate(49.348453 521.541639) scale(0.2 -0.2)">
       <use xlink:href="#CMR17-30" transform="scale(0.996264)"/>
      </g>
     </g>
    </g>
    <g id="ytick_3">
     <g id="line2d_13">
      <path d="M 61.986549 416.819441 
L 1436.99976 416.819441 
" clip-path="url(#pfacc93742e)" style="fill: none; stroke: #cccccc; stroke-opacity: 0.5; stroke-width: 0.8; stroke-linecap: round"/>
     </g>
     <g id="text_14">
      <!-- $\mathdefault{20}$ -->
      <g transform="translate(40.210358 423.73794) scale(0.2 -0.2)">
       <use xlink:href="#CMR17-32" transform="scale(0.996264)"/>
       <use xlink:href="#CMR17-30" transform="translate(45.690477 0) scale(0.996264)"/>
      </g>
     </g>
    </g>
    <g id="ytick_4">
     <g id="line2d_14">
      <path d="M 61.986549 319.015742 
L 1436.99976 319.015742 
" clip-path="url(#pfacc93742e)" style="fill: none; stroke: #cccccc; stroke-opacity: 0.5; stroke-width: 0.8; stroke-linecap: round"/>
     </g>
     <g id="text_15">
      <!-- $\mathdefault{40}$ -->
      <g transform="translate(40.210358 325.934241) scale(0.2 -0.2)">
       <use xlink:href="#CMR17-34" transform="scale(0.996264)"/>
       <use xlink:href="#CMR17-30" transform="translate(45.690477 0) scale(0.996264)"/>
      </g>
     </g>
    </g>
    <g id="ytick_5">
     <g id="line2d_15">
      <path d="M 61.986549 221.212043 
L 1436.99976 221.212043 
" clip-path="url(#pfacc93742e)" style="fill: none; stroke: #cccccc; stroke-opacity: 0.5; stroke-width: 0.8; stroke-linecap: round"/>
     </g>
     <g id="text_16">
      <!-- $\mathdefault{60}$ -->
      <g transform="translate(40.210358 228.130542) scale(0.2 -0.2)">
       <use xlink:href="#CMR17-36" transform="scale(0.996264)"/>
       <use xlink:href="#CMR17-30" transform="translate(45.690477 0) scale(0.996264)"/>
      </g>
     </g>
    </g>
    <g id="ytick_6">
     <g id="line2d_16">
      <path d="M 61.986549 123.408344 
L 1436.99976 123.408344 
" clip-path="url(#pfacc93742e)" style="fill: none; stroke: #cccccc; stroke-opacity: 0.5; stroke-width: 0.8; stroke-linecap: round"/>
     </g>
     <g id="text_17">
      <!-- $\mathdefault{80}$ -->
      <g transform="translate(40.210358 130.326843) scale(0.2 -0.2)">
       <use xlink:href="#CMR17-38" transform="scale(0.996264)"/>
       <use xlink:href="#CMR17-30" transform="translate(45.690477 0) scale(0.996264)"/>
      </g>
     </g>
    </g>
    <g id="ytick_7">
     <g id="line2d_17">
      <path d="M 61.986549 25.604645 
L 1436.99976 25.604645 
" clip-path="url(#pfacc93742e)" style="fill: none; stroke: #cccccc; stroke-opacity: 0.5; stroke-width: 0.8; stroke-linecap: round"/>
     </g>
     <g id="text_18">
      <!-- $\mathdefault{100}$ -->
      <g transform="translate(31.072262 32.523144) scale(0.2 -0.2)">
       <use xlink:href="#CMR17-31" transform="scale(0.996264)"/>
       <use xlink:href="#CMR17-30" transform="translate(45.690477 0) scale(0.996264)"/>
       <use xlink:href="#CMR17-30" transform="translate(91.380954 0) scale(0.996264)"/>
      </g>
     </g>
    </g>
    <g id="text_19">
     <!-- Total Contribution -->
     <g style="fill: #696969" transform="translate(16.837237 394.492272) rotate(-90) scale(0.2 -0.2)">
      <defs>
       <path id="CMR17-54" d="M 3981 4326 
L 288 4326 
L 179 2918 
L 294 2918 
C 378 3976 467 4160 1453 4160 
C 1568 4160 1754 4160 1805 4154 
C 1926 4135 1926 4058 1926 3912 
L 1926 459 
C 1926 230 1907 160 1376 160 
L 1197 160 
L 1197 0 
C 1504 0 1824 0 2138 0 
C 2451 0 2771 0 3078 0 
L 3078 160 
L 2899 160 
C 2368 160 2349 230 2349 459 
L 2349 3912 
C 2349 4052 2349 4129 2464 4154 
C 2515 4160 2701 4160 2816 4160 
C 3795 4160 3891 3976 3974 2918 
L 4090 2918 
L 3981 4326 
z
" transform="scale(0.015625)"/>
       <path id="CMR17-6f" d="M 2758 1356 
C 2758 2176 2163 2816 1466 2816 
C 768 2816 173 2176 173 1356 
C 173 551 768 -64 1466 -64 
C 2163 -64 2758 551 2758 1356 
z
M 1466 51 
C 1165 51 909 230 762 480 
C 602 767 582 1126 582 1408 
C 582 1677 595 2010 762 2298 
C 890 2509 1139 2714 1466 2714 
C 1754 2714 1997 2554 2150 2330 
C 2349 2029 2349 1607 2349 1408 
C 2349 1158 2336 775 2163 467 
C 1984 173 1709 51 1466 51 
z
" transform="scale(0.015625)"/>
       <path id="CMR17-6c" d="M 979 4396 
L 218 4326 
L 218 4160 
C 595 4160 653 4122 653 3817 
L 653 426 
C 653 184 627 153 218 153 
L 218 -13 
C 371 0 653 0 813 0 
C 979 0 1261 0 1414 -13 
L 1414 153 
C 1005 153 979 178 979 426 
L 979 4396 
z
" transform="scale(0.015625)"/>
       <path id="CMR17-43" d="M 3974 4289 
C 3974 4403 3968 4410 3930 4410 
C 3904 4410 3898 4403 3853 4327 
L 3571 3792 
C 3258 4187 2874 4416 2381 4416 
C 1286 4416 294 3456 294 2148 
C 294 826 1286 -128 2387 -128 
C 3366 -128 3974 730 3974 1461 
C 3974 1524 3974 1550 3917 1550 
C 3866 1550 3866 1531 3859 1474 
C 3808 585 3168 38 2477 38 
C 1824 38 781 495 781 2147 
C 781 3805 1843 4250 2464 4250 
C 3187 4250 3712 3628 3834 2745 
C 3846 2668 3846 2655 3904 2655 
C 3974 2655 3974 2668 3974 2783 
L 3974 4289 
z
" transform="scale(0.015625)"/>
       <path id="CMR17-6e" d="M 2656 1933 
C 2656 2259 2592 2790 1837 2790 
C 1331 2790 1069 2400 973 2144 
L 966 2144 
L 966 2790 
L 211 2720 
L 211 2554 
C 589 2554 646 2515 646 2208 
L 646 428 
C 646 184 621 153 211 153 
L 211 -13 
C 365 0 646 0 813 0 
C 979 0 1267 0 1421 -13 
L 1421 153 
C 1011 153 986 178 986 428 
L 986 1658 
C 986 2247 1344 2688 1792 2688 
C 2266 2688 2317 2266 2317 1958 
L 2317 428 
C 2317 184 2291 153 1882 153 
L 1882 -13 
C 2035 0 2317 0 2483 0 
C 2650 0 2938 0 3091 -13 
L 3091 153 
C 2682 153 2656 178 2656 428 
L 2656 1933 
z
" transform="scale(0.015625)"/>
       <path id="CMR17-72" d="M 960 1497 
C 960 2112 1222 2688 1702 2688 
C 1747 2688 1792 2682 1837 2662 
C 1837 2662 1696 2617 1696 2452 
C 1696 2298 1818 2234 1914 2234 
C 1990 2234 2131 2279 2131 2458 
C 2131 2663 1926 2790 1709 2790 
C 1222 2790 1011 2317 947 2093 
L 941 2093 
L 941 2790 
L 198 2720 
L 198 2554 
C 576 2554 634 2515 634 2208 
L 634 428 
C 634 184 608 153 198 153 
L 198 -13 
C 352 0 646 0 813 0 
C 998 0 1325 0 1498 -13 
L 1498 153 
C 1037 153 960 153 960 440 
L 960 1497 
z
" transform="scale(0.015625)"/>
       <path id="CMR17-69" d="M 992 3909 
C 992 4049 877 4170 730 4170 
C 589 4170 467 4056 467 3909 
C 467 3769 582 3648 730 3648 
C 870 3648 992 3763 992 3909 
z
M 243 2706 
L 243 2541 
C 602 2541 653 2502 653 2197 
L 653 427 
C 653 184 627 153 218 153 
L 218 -13 
C 371 0 646 0 806 0 
C 960 0 1222 0 1370 -13 
L 1370 153 
C 992 153 979 191 979 420 
L 979 2776 
L 243 2706 
z
" transform="scale(0.015625)"/>
       <path id="CMR17-62" d="M 960 4396 
L 198 4326 
L 198 4160 
C 576 4160 634 4122 634 3817 
L 634 -13 
L 749 -13 
L 934 441 
C 1120 141 1395 -64 1766 -64 
C 2406 -64 3053 500 3053 1370 
C 3053 2188 2477 2790 1830 2790 
C 1434 2790 1152 2579 960 2330 
L 960 4396 
z
M 973 2004 
C 973 2118 973 2138 1062 2272 
C 1312 2657 1670 2688 1792 2688 
C 1984 2688 2643 2585 2643 1376 
C 2643 108 1888 38 1734 38 
C 1536 38 1248 114 1043 486 
C 973 608 973 621 973 735 
L 973 2004 
z
" transform="scale(0.015625)"/>
       <path id="CMR17-75" d="M 1882 2693 
L 1882 2528 
C 2259 2528 2317 2489 2317 2186 
L 2317 1032 
C 2317 500 2029 38 1555 38 
C 1030 38 986 348 986 678 
L 986 2763 
L 211 2693 
L 211 2528 
C 467 2528 640 2528 646 2274 
L 646 1058 
C 646 633 646 361 813 183 
C 896 101 1056 -64 1517 -64 
C 2061 -64 2272 377 2323 506 
L 2330 506 
L 2330 -63 
L 3091 -63 
L 3091 128 
C 2714 128 2656 166 2656 473 
L 2656 2763 
L 1882 2693 
z
" transform="scale(0.015625)"/>
      </defs>
      <use xlink:href="#CMR17-54" transform="scale(0.996264)"/>
      <use xlink:href="#CMR17-6f" transform="translate(58.702625 0) scale(0.996264)"/>
      <use xlink:href="#CMR17-74" transform="translate(104.393102 0) scale(0.996264)"/>
      <use xlink:href="#CMR17-61" transform="translate(139.67387 0) scale(0.996264)"/>
      <use xlink:href="#CMR17-6c" transform="translate(185.364347 0) scale(0.996264)"/>
      <use xlink:href="#CMR17-43" transform="translate(240.311372 0) scale(0.996264)"/>
      <use xlink:href="#CMR17-6f" transform="translate(306.821253 0) scale(0.996264)"/>
      <use xlink:href="#CMR17-6e" transform="translate(352.51173 0) scale(0.996264)"/>
      <use xlink:href="#CMR17-74" transform="translate(400.804646 0) scale(0.996264)"/>
      <use xlink:href="#CMR17-72" transform="translate(436.085413 0) scale(0.996264)"/>
      <use xlink:href="#CMR17-69" transform="translate(471.366181 0) scale(0.996264)"/>
      <use xlink:href="#CMR17-62" transform="translate(496.23724 0) scale(0.996264)"/>
      <use xlink:href="#CMR17-75" transform="translate(547.132609 0) scale(0.996264)"/>
      <use xlink:href="#CMR17-74" transform="translate(598.027979 0) scale(0.996264)"/>
      <use xlink:href="#CMR17-69" transform="translate(633.308747 0) scale(0.996264)"/>
      <use xlink:href="#CMR17-6f" transform="translate(658.179805 0) scale(0.996264)"/>
      <use xlink:href="#CMR17-6e" transform="translate(703.870283 0) scale(0.996264)"/>
     </g>
    </g>
   </g>
   <g id="line2d_18">
    <path d="M 124.487149 395.371362 
L 136.499044 363.522837 
L 136.499044 363.522837 
L 147.348497 361.338155 
L 147.348497 361.338155 
L 159.360392 348.979754 
L 159.360392 348.979754 
L 170.984806 348.697122 
L 170.984806 348.697122 
L 182.996701 344.773566 
L 182.996701 344.773566 
L 194.621115 344.673112 
L 194.621115 344.673112 
L 206.63301 338.075247 
L 206.63301 338.075247 
L 218.644904 337.070183 
L 218.644904 337.070183 
L 230.269319 334.947876 
L 230.269319 334.947876 
L 242.281213 337.891975 
L 242.281213 337.891975 
L 253.905628 319.936555 
L 253.905628 319.936555 
L 265.917522 311.858936 
L 265.917522 311.858936 
L 277.929417 313.191133 
L 277.929417 313.191133 
L 289.166351 309.929163 
L 289.166351 309.929163 
L 301.178245 292.205874 
L 301.178245 292.205874 
L 312.80266 254.778098 
L 312.80266 254.778098 
L 324.814554 251.476323 
L 324.814554 251.476323 
L 336.438969 244.660988 
L 336.438969 244.660988 
L 348.450863 249.511979 
L 348.450863 249.511979 
L 360.462758 247.942601 
L 360.462758 247.942601 
L 372.087172 240.157676 
L 372.087172 240.157676 
L 384.099067 218.264338 
L 384.099067 218.264338 
L 395.723481 217.839614 
L 395.723481 217.839614 
L 407.735376 243.397143 
L 407.735376 243.397143 
L 419.747271 242.920461 
L 419.747271 242.920461 
L 430.596724 239.811445 
L 430.596724 239.811445 
L 442.608619 240.949907 
L 442.608619 240.949907 
L 454.233033 243.074091 
L 454.233033 243.074091 
L 466.244928 230.320464 
L 466.244928 230.320464 
L 477.869342 232.998504 
L 477.869342 232.998504 
L 489.881237 226.233036 
L 489.881237 226.233036 
L 501.893131 228.243743 
L 501.893131 228.243743 
L 513.517545 261.593829 
L 513.517545 261.593829 
L 525.52944 252.068431 
L 525.52944 252.068431 
L 537.153854 252.166215 
L 537.153854 252.166215 
L 549.165749 289.302452 
L 549.165749 289.302452 
L 561.177644 278.023772 
L 561.177644 278.023772 
L 572.027097 280.2752 
L 572.027097 280.2752 
L 584.038992 351.988965 
L 584.038992 351.988965 
L 595.663406 322.367971 
L 595.663406 322.367971 
L 607.675301 331.205004 
L 607.675301 331.205004 
L 619.299715 329.887887 
L 619.299715 329.887887 
L 631.31161 366.597251 
L 631.31161 366.597251 
L 643.323504 362.056288 
L 643.323504 362.056288 
L 654.947919 341.641511 
L 654.947919 341.641511 
L 666.959813 331.741775 
L 666.959813 331.741775 
L 678.584228 336.512597 
L 678.584228 336.512597 
L 690.596122 347.191278 
L 690.596122 347.191278 
L 702.608017 325.852885 
L 702.608017 325.852885 
L 713.45747 334.683475 
L 713.45747 334.683475 
L 725.469365 346.789021 
L 725.469365 346.789021 
L 737.093779 331.207668 
L 737.093779 331.207668 
L 749.105674 344.77306 
L 749.105674 344.77306 
L 760.730088 390.860008 
L 760.730088 390.860008 
L 772.741983 415.197161 
L 772.741983 415.197161 
L 784.753878 391.549921 
L 784.753878 391.549921 
L 796.378292 403.396398 
L 796.378292 403.396398 
L 808.390186 422.760221 
L 808.390186 422.760221 
L 820.014601 438.253835 
L 820.014601 438.253835 
L 832.026495 436.897672 
L 832.026495 436.897672 
L 844.03839 437.422276 
L 844.03839 437.422276 
L 855.275324 429.447029 
L 855.275324 429.447029 
L 867.287219 437.48316 
L 867.287219 437.48316 
L 878.911633 440.854746 
L 878.911633 440.854746 
L 890.923527 453.141907 
L 890.923527 453.141907 
L 902.547942 432.732543 
L 902.547942 432.732543 
L 914.559836 457.371417 
L 914.559836 457.371417 
L 926.571731 442.722021 
L 926.571731 442.722021 
L 938.196145 439.273516 
L 938.196145 439.273516 
L 950.20804 425.206455 
L 950.20804 425.206455 
L 961.832454 435.342881 
L 961.832454 435.342881 
L 973.844349 417.119105 
L 973.844349 417.119105 
L 985.856244 422.156374 
L 985.856244 422.156374 
L 996.705697 485.855235 
L 996.705697 485.855235 
L 1008.717592 465.376194 
L 1008.717592 465.376194 
L 1020.342006 464.349688 
L 1020.342006 464.349688 
L 1032.353901 466.065092 
L 1032.353901 466.065092 
L 1043.978315 469.157002 
L 1043.978315 469.157002 
L 1055.99021 460.835734 
L 1055.99021 460.835734 
L 1068.002104 462.444157 
L 1068.002104 462.444157 
L 1079.626518 466.926397 
L 1079.626518 466.926397 
L 1091.638413 471.911858 
L 1091.638413 471.911858 
L 1103.262827 463.377839 
L 1103.262827 463.377839 
L 1115.274722 469.633386 
L 1115.274722 469.633386 
L 1127.286617 469.217546 
L 1127.286617 469.217546 
L 1138.13607 466.103355 
L 1138.13607 466.103355 
L 1150.147965 465.908235 
L 1150.147965 465.908235 
L 1161.772379 471.85377 
L 1161.772379 471.85377 
L 1173.784274 486.32135 
L 1173.784274 486.32135 
L 1185.408688 508.215856 
L 1185.408688 508.215856 
L 1197.420583 480.966901 
L 1197.420583 480.966901 
L 1209.432477 480.2335 
L 1209.432477 480.2335 
L 1221.056892 499.138477 
L 1221.056892 499.138477 
L 1233.068786 484.445123 
L 1233.068786 484.445123 
L 1244.693201 485.712224 
L 1244.693201 485.712224 
L 1256.705095 522.007424 
L 1256.705095 522.007424 
L 1268.71699 512.039112 
L 1268.71699 512.039112 
L 1279.566443 516.658038 
L 1279.566443 516.658038 
L 1291.578338 509.311414 
L 1291.578338 509.311414 
L 1303.202752 512.706695 
L 1303.202752 512.706695 
L 1315.214647 533.247855 
L 1315.214647 533.247855 
L 1326.839061 508.259391 
L 1326.839061 508.259391 
L 1338.850956 506.398537 
L 1338.850956 506.398537 
L 1350.862851 541.365617 
L 1350.862851 541.365617 
L 1362.487265 516.464937 
L 1362.487265 516.464937 
L 1374.499159 523.876814 
L 1374.499159 523.876814 
" clip-path="url(#pfacc93742e)" style="fill: none; stroke-dasharray: 5.55,2.4; stroke-dashoffset: 0; stroke: #006e64; stroke-width: 1.5"/>
   </g>
   <g id="line2d_19">
    <path d="M 124.487149 437.399632 
L 136.499044 390.841742 
L 136.499044 390.841742 
L 147.348497 407.086578 
L 147.348497 407.086578 
L 159.360392 394.244882 
L 159.360392 394.244882 
L 170.984806 376.248207 
L 170.984806 376.248207 
L 182.996701 355.185755 
L 182.996701 355.185755 
L 194.621115 355.16268 
L 194.621115 355.16268 
L 206.63301 316.314012 
L 206.63301 316.314012 
L 218.644904 278.705706 
L 218.644904 278.705706 
L 230.269319 257.902235 
L 230.269319 257.902235 
L 242.281213 316.250631 
L 242.281213 316.250631 
L 253.905628 197.85881 
L 253.905628 197.85881 
L 265.917522 267.826963 
L 265.917522 267.826963 
L 277.929417 227.600347 
L 277.929417 227.600347 
L 289.166351 288.714623 
L 289.166351 288.714623 
L 301.178245 291.890769 
L 301.178245 291.890769 
L 312.80266 233.358299 
L 312.80266 233.358299 
L 324.814554 295.277808 
L 324.814554 295.277808 
L 336.438969 271.933421 
L 336.438969 271.933421 
L 348.450863 270.689053 
L 348.450863 270.689053 
L 360.462758 285.123179 
L 360.462758 285.123179 
L 372.087172 255.317782 
L 372.087172 255.317782 
L 384.099067 284.938583 
L 384.099067 284.938583 
L 395.723481 345.013425 
L 395.723481 345.013425 
L 407.735376 286.170864 
L 407.735376 286.170864 
L 419.747271 341.059127 
L 419.747271 341.059127 
L 430.596724 320.855962 
L 430.596724 320.855962 
L 442.608619 292.82093 
L 442.608619 292.82093 
L 454.233033 302.872022 
L 454.233033 302.872022 
L 466.244928 280.614309 
L 466.244928 280.614309 
L 477.869342 319.982765 
L 477.869342 319.982765 
L 489.881237 294.214822 
L 489.881237 294.214822 
L 501.893131 299.601495 
L 501.893131 299.601495 
L 513.517545 369.781403 
L 513.517545 369.781403 
L 525.52944 243.833788 
L 525.52944 243.833788 
L 537.153854 279.352351 
L 537.153854 279.352351 
L 549.165749 233.763026 
L 549.165749 233.763026 
L 561.177644 261.60817 
L 561.177644 261.60817 
L 572.027097 308.391598 
L 572.027097 308.391598 
L 584.038992 325.204119 
L 584.038992 325.204119 
L 595.663406 356.65522 
L 595.663406 356.65522 
L 607.675301 335.806169 
L 607.675301 335.806169 
L 619.299715 323.447829 
L 619.299715 323.447829 
L 631.31161 309.283927 
L 631.31161 309.283927 
L 643.323504 349.890791 
L 643.323504 349.890791 
L 654.947919 408.916264 
L 654.947919 408.916264 
L 666.959813 329.102563 
L 666.959813 329.102563 
L 678.584228 372.952125 
L 678.584228 372.952125 
L 690.596122 388.147153 
L 690.596122 388.147153 
L 702.608017 375.564423 
L 702.608017 375.564423 
L 713.45747 354.37286 
L 713.45747 354.37286 
L 725.469365 347.71358 
L 725.469365 347.71358 
L 737.093779 301.419219 
L 737.093779 301.419219 
L 749.105674 328.639322 
L 749.105674 328.639322 
L 760.730088 367.917809 
L 760.730088 367.917809 
L 772.741983 398.692191 
L 772.741983 398.692191 
L 784.753878 411.91804 
L 784.753878 411.91804 
L 796.378292 393.24965 
L 796.378292 393.24965 
L 808.390186 401.655507 
L 808.390186 401.655507 
L 820.014601 434.601231 
L 820.014601 434.601231 
L 832.026495 421.668934 
L 832.026495 421.668934 
L 844.03839 431.194533 
L 844.03839 431.194533 
L 855.275324 480.930049 
L 855.275324 480.930049 
L 867.287219 506.479424 
L 867.287219 506.479424 
L 878.911633 466.418944 
L 878.911633 466.418944 
L 890.923527 464.922254 
L 890.923527 464.922254 
L 902.547942 457.72467 
L 902.547942 457.72467 
L 914.559836 421.736472 
L 914.559836 421.736472 
L 926.571731 427.159758 
L 926.571731 427.159758 
L 938.196145 418.327174 
L 938.196145 418.327174 
L 950.20804 417.797739 
L 950.20804 417.797739 
L 961.832454 410.276989 
L 961.832454 410.276989 
L 973.844349 402.951199 
L 973.844349 402.951199 
L 985.856244 394.195565 
L 985.856244 394.195565 
L 996.705697 426.074649 
L 996.705697 426.074649 
L 1008.717592 402.99497 
L 1008.717592 402.99497 
L 1020.342006 371.684945 
L 1020.342006 371.684945 
L 1032.353901 356.957175 
L 1032.353901 356.957175 
L 1043.978315 349.015447 
L 1043.978315 349.015447 
L 1055.99021 358.801503 
L 1055.99021 358.801503 
L 1068.002104 378.791359 
L 1068.002104 378.791359 
L 1079.626518 393.155244 
L 1079.626518 393.155244 
L 1091.638413 438.690064 
L 1091.638413 438.690064 
L 1103.262827 433.410773 
L 1103.262827 433.410773 
L 1115.274722 481.445754 
L 1115.274722 481.445754 
L 1127.286617 505.743983 
L 1127.286617 505.743983 
L 1138.13607 481.708701 
L 1138.13607 481.708701 
L 1150.147965 491.008335 
L 1150.147965 491.008335 
L 1161.772379 501.582183 
L 1161.772379 501.582183 
L 1173.784274 521.309019 
L 1173.784274 521.309019 
L 1185.408688 492.52244 
L 1185.408688 492.52244 
L 1197.420583 476.628346 
L 1197.420583 476.628346 
L 1209.432477 490.164527 
L 1209.432477 490.164527 
L 1221.056892 527.678139 
L 1221.056892 527.678139 
L 1233.068786 490.135334 
L 1233.068786 490.135334 
L 1244.693201 480.334592 
L 1244.693201 480.334592 
L 1256.705095 493.983087 
L 1256.705095 493.983087 
L 1268.71699 487.478019 
L 1268.71699 487.478019 
L 1279.566443 485.903022 
L 1279.566443 485.903022 
L 1291.578338 479.769593 
L 1291.578338 479.769593 
L 1303.202752 486.112279 
L 1303.202752 486.112279 
L 1315.214647 504.276207 
L 1315.214647 504.276207 
L 1326.839061 506.265341 
L 1326.839061 506.265341 
L 1338.850956 503.468816 
L 1338.850956 503.468816 
L 1350.862851 509.377207 
L 1350.862851 509.377207 
L 1362.487265 501.937761 
L 1362.487265 501.937761 
L 1374.499159 521.377807 
L 1374.499159 521.377807 
" clip-path="url(#pfacc93742e)" style="fill: none; stroke: #734848; stroke-width: 1.5; stroke-linecap: round"/>
   </g>
   <g id="line2d_20">
    <path d="M 124.487149 437.399632 
L 136.499044 390.841742 
L 136.499044 390.841742 
L 147.348497 407.086578 
L 147.348497 407.086578 
L 159.360392 394.244882 
L 159.360392 394.244882 
L 170.984806 376.248207 
L 170.984806 376.248207 
L 182.996701 355.185755 
L 182.996701 355.185755 
L 194.621115 355.16268 
L 194.621115 355.16268 
L 206.63301 316.314012 
L 206.63301 316.314012 
L 218.644904 278.705706 
L 218.644904 278.705706 
L 230.269319 257.902235 
L 230.269319 257.902235 
L 242.281213 316.250631 
L 242.281213 316.250631 
L 253.905628 197.85881 
L 253.905628 197.85881 
L 265.917522 267.826963 
L 265.917522 267.826963 
L 277.929417 226.559254 
L 277.929417 226.559254 
L 289.166351 288.012014 
L 289.166351 288.012014 
L 301.178245 291.870242 
L 301.178245 291.870242 
L 312.80266 236.823124 
L 312.80266 236.823124 
L 324.814554 294.765524 
L 324.814554 294.765524 
L 336.438969 271.057927 
L 336.438969 271.057927 
L 348.450863 269.798378 
L 348.450863 269.798378 
L 360.462758 289.155554 
L 360.462758 289.155554 
L 372.087172 260.294097 
L 372.087172 260.294097 
L 384.099067 289.607218 
L 384.099067 289.607218 
L 395.723481 345.377106 
L 395.723481 345.377106 
L 407.735376 291.396245 
L 407.735376 291.396245 
L 419.747271 346.429178 
L 419.747271 346.429178 
L 430.596724 320.108603 
L 430.596724 320.108603 
L 442.608619 291.773213 
L 442.608619 291.773213 
L 454.233033 302.071334 
L 454.233033 302.071334 
L 466.244928 279.691738 
L 466.244928 279.691738 
L 477.869342 319.520728 
L 477.869342 319.520728 
L 489.881237 293.413762 
L 489.881237 293.413762 
L 501.893131 298.757862 
L 501.893131 298.757862 
L 513.517545 369.312474 
L 513.517545 369.312474 
L 525.52944 242.91385 
L 525.52944 242.91385 
L 537.153854 278.559059 
L 537.153854 278.559059 
L 549.165749 232.786355 
L 549.165749 232.786355 
L 561.177644 259.91149 
L 561.177644 259.91149 
L 572.027097 307.173459 
L 572.027097 307.173459 
L 584.038992 323.64213 
L 584.038992 323.64213 
L 595.663406 364.145919 
L 595.663406 364.145919 
L 607.675301 343.793296 
L 607.675301 343.793296 
L 619.299715 330.943744 
L 619.299715 330.943744 
L 631.31161 306.637725 
L 631.31161 306.637725 
L 643.323504 357.33299 
L 643.323504 357.33299 
L 654.947919 408.871572 
L 654.947919 408.871572 
L 666.959813 327.026298 
L 666.959813 327.026298 
L 678.584228 371.87025 
L 678.584228 371.87025 
L 690.596122 386.334194 
L 690.596122 386.334194 
L 702.608017 374.355792 
L 702.608017 374.355792 
L 713.45747 352.829413 
L 713.45747 352.829413 
L 725.469365 345.389044 
L 725.469365 345.389044 
L 737.093779 298.290818 
L 737.093779 298.290818 
L 749.105674 326.085283 
L 749.105674 326.085283 
L 760.730088 366.244572 
L 760.730088 366.244572 
L 772.741983 396.808165 
L 772.741983 396.808165 
L 784.753878 410.836632 
L 784.753878 410.836632 
L 796.378292 392.092133 
L 796.378292 392.092133 
L 808.390186 400.357246 
L 808.390186 400.357246 
L 820.014601 433.681239 
L 820.014601 433.681239 
L 832.026495 420.621584 
L 832.026495 420.621584 
L 844.03839 429.764712 
L 844.03839 429.764712 
L 855.275324 480.225449 
L 855.275324 480.225449 
L 867.287219 507.305726 
L 867.287219 507.305726 
L 878.911633 465.869525 
L 878.911633 465.869525 
L 890.923527 463.917953 
L 890.923527 463.917953 
L 902.547942 456.545124 
L 902.547942 456.545124 
L 914.559836 419.849351 
L 914.559836 419.849351 
L 926.571731 425.190677 
L 926.571731 425.190677 
L 938.196145 416.033 
L 938.196145 416.033 
L 950.20804 415.889485 
L 950.20804 415.889485 
L 961.832454 408.574086 
L 961.832454 408.574086 
L 973.844349 401.303419 
L 973.844349 401.303419 
L 985.856244 393.190752 
L 985.856244 393.190752 
L 996.705697 424.520973 
L 996.705697 424.520973 
L 1008.717592 401.05819 
L 1008.717592 401.05819 
L 1020.342006 370.332144 
L 1020.342006 370.332144 
L 1032.353901 355.258435 
L 1032.353901 355.258435 
L 1043.978315 347.233902 
L 1043.978315 347.233902 
L 1055.99021 357.147315 
L 1055.99021 357.147315 
L 1068.002104 377.12631 
L 1068.002104 377.12631 
L 1079.626518 391.362326 
L 1079.626518 391.362326 
L 1091.638413 436.827027 
L 1091.638413 436.827027 
L 1103.262827 431.661888 
L 1103.262827 431.661888 
L 1115.274722 480.881024 
L 1115.274722 480.881024 
L 1127.286617 505.025698 
L 1127.286617 505.025698 
L 1138.13607 481.601632 
L 1138.13607 481.601632 
L 1150.147965 490.54046 
L 1150.147965 490.54046 
L 1161.772379 502.325613 
L 1161.772379 502.325613 
L 1173.784274 521.934023 
L 1173.784274 521.934023 
L 1185.408688 492.409449 
L 1185.408688 492.409449 
L 1197.420583 476.13614 
L 1197.420583 476.13614 
L 1209.432477 490.92566 
L 1209.432477 490.92566 
L 1221.056892 529.022854 
L 1221.056892 529.022854 
L 1233.068786 490.829158 
L 1233.068786 490.829158 
L 1244.693201 481.582712 
L 1244.693201 481.582712 
L 1256.705095 494.037852 
L 1256.705095 494.037852 
L 1268.71699 487.273814 
L 1268.71699 487.273814 
L 1279.566443 485.573772 
L 1279.566443 485.573772 
L 1291.578338 479.531857 
L 1291.578338 479.531857 
L 1303.202752 485.522692 
L 1303.202752 485.522692 
L 1315.214647 504.097781 
L 1315.214647 504.097781 
L 1326.839061 506.232449 
L 1326.839061 506.232449 
L 1338.850956 503.606597 
L 1338.850956 503.606597 
L 1350.862851 509.689919 
L 1350.862851 509.689919 
L 1362.487265 501.805556 
L 1362.487265 501.805556 
L 1374.499159 521.785501 
L 1374.499159 521.785501 
" clip-path="url(#pfacc93742e)" style="fill: none; stroke: #004e4a; stroke-width: 1.5; stroke-linecap: round"/>
   </g>
   <g id="line2d_21">
    <path d="M 124.487149 437.399632 
L 136.499044 390.841742 
L 136.499044 390.841742 
L 147.348497 407.086578 
L 147.348497 407.086578 
L 159.360392 394.244882 
L 159.360392 394.244882 
L 170.984806 376.248207 
L 170.984806 376.248207 
L 182.996701 355.185755 
L 182.996701 355.185755 
L 194.621115 355.16268 
L 194.621115 355.16268 
L 206.63301 316.314012 
L 206.63301 316.314012 
L 218.644904 278.705706 
L 218.644904 278.705706 
L 230.269319 257.902235 
L 230.269319 257.902235 
L 242.281213 316.250631 
L 242.281213 316.250631 
L 253.905628 197.85881 
L 253.905628 197.85881 
L 265.917522 267.826963 
L 265.917522 267.826963 
L 277.929417 236.894502 
L 277.929417 236.894502 
L 289.166351 301.515567 
L 289.166351 301.515567 
L 301.178245 296.305857 
L 301.178245 296.305857 
L 312.80266 235.614405 
L 312.80266 235.614405 
L 324.814554 294.510637 
L 324.814554 294.510637 
L 336.438969 273.615417 
L 336.438969 273.615417 
L 348.450863 267.652437 
L 348.450863 267.652437 
L 360.462758 293.045793 
L 360.462758 293.045793 
L 372.087172 258.266826 
L 372.087172 258.266826 
L 384.099067 289.877857 
L 384.099067 289.877857 
L 395.723481 347.931184 
L 395.723481 347.931184 
L 407.735376 281.468158 
L 407.735376 281.468158 
L 419.747271 335.824593 
L 419.747271 335.824593 
L 430.596724 309.754603 
L 430.596724 309.754603 
L 442.608619 277.596743 
L 442.608619 277.596743 
L 454.233033 292.499465 
L 454.233033 292.499465 
L 466.244928 268.260955 
L 466.244928 268.260955 
L 477.869342 312.789716 
L 477.869342 312.789716 
L 489.881237 281.166276 
L 489.881237 281.166276 
L 501.893131 288.121112 
L 501.893131 288.121112 
L 513.517545 354.059359 
L 513.517545 354.059359 
L 525.52944 239.684088 
L 525.52944 239.684088 
L 537.153854 276.027262 
L 537.153854 276.027262 
L 549.165749 223.912722 
L 549.165749 223.912722 
L 561.177644 256.533701 
L 561.177644 256.533701 
L 572.027097 308.012762 
L 572.027097 308.012762 
L 584.038992 309.012369 
L 584.038992 309.012369 
L 595.663406 344.181131 
L 595.663406 344.181131 
L 607.675301 339.820672 
L 607.675301 339.820672 
L 619.299715 310.444721 
L 619.299715 310.444721 
L 631.31161 290.402877 
L 631.31161 290.402877 
L 643.323504 340.144925 
L 643.323504 340.144925 
L 654.947919 402.416611 
L 654.947919 402.416611 
L 666.959813 311.910319 
L 666.959813 311.910319 
L 678.584228 355.892424 
L 678.584228 355.892424 
L 690.596122 373.534356 
L 690.596122 373.534356 
L 702.608017 375.768018 
L 702.608017 375.768018 
L 713.45747 346.832107 
L 713.45747 346.832107 
L 725.469365 348.306662 
L 725.469365 348.306662 
L 737.093779 289.306751 
L 737.093779 289.306751 
L 749.105674 313.989917 
L 749.105674 313.989917 
L 760.730088 359.983893 
L 760.730088 359.983893 
L 772.741983 390.318515 
L 772.741983 390.318515 
L 784.753878 407.280611 
L 784.753878 407.280611 
L 796.378292 392.495247 
L 796.378292 392.495247 
L 808.390186 404.049262 
L 808.390186 404.049262 
L 820.014601 434.238393 
L 820.014601 434.238393 
L 832.026495 418.027628 
L 832.026495 418.027628 
L 844.03839 433.825019 
L 844.03839 433.825019 
L 855.275324 480.552742 
L 855.275324 480.552742 
L 867.287219 506.631603 
L 867.287219 506.631603 
L 878.911633 467.077799 
L 878.911633 467.077799 
L 890.923527 470.332601 
L 890.923527 470.332601 
L 902.547942 459.442601 
L 902.547942 459.442601 
L 914.559836 424.694613 
L 914.559836 424.694613 
L 926.571731 425.892235 
L 926.571731 425.892235 
L 938.196145 415.212536 
L 938.196145 415.212536 
L 950.20804 416.204655 
L 950.20804 416.204655 
L 961.832454 411.027222 
L 961.832454 411.027222 
L 973.844349 395.87884 
L 973.844349 395.87884 
L 985.856244 393.958511 
L 985.856244 393.958511 
L 996.705697 426.921622 
L 996.705697 426.921622 
L 1008.717592 414.362575 
L 1008.717592 414.362575 
L 1032.353901 365.552181 
L 1032.353901 365.552181 
L 1043.978315 357.41757 
L 1043.978315 357.41757 
L 1055.99021 362.295082 
L 1055.99021 362.295082 
L 1068.002104 378.195187 
L 1068.002104 378.195187 
L 1079.626518 385.772476 
L 1079.626518 385.772476 
L 1091.638413 432.862832 
L 1091.638413 432.862832 
L 1103.262827 424.175423 
L 1103.262827 424.175423 
L 1115.274722 469.499133 
L 1115.274722 469.499133 
L 1127.286617 491.333719 
L 1127.286617 491.333719 
L 1138.13607 483.674591 
L 1138.13607 483.674591 
L 1150.147965 485.051273 
L 1150.147965 485.051273 
L 1161.772379 500.81216 
L 1161.772379 500.81216 
L 1173.784274 517.848263 
L 1173.784274 517.848263 
L 1185.408688 484.718436 
L 1185.408688 484.718436 
L 1197.420583 462.619869 
L 1197.420583 462.619869 
L 1209.432477 486.590961 
L 1209.432477 486.590961 
L 1221.056892 524.837182 
L 1221.056892 524.837182 
L 1233.068786 482.348703 
L 1233.068786 482.348703 
L 1244.693201 489.87966 
L 1244.693201 489.87966 
L 1256.705095 488.536747 
L 1256.705095 488.536747 
L 1268.71699 482.401428 
L 1268.71699 482.401428 
L 1279.566443 481.190962 
L 1279.566443 481.190962 
L 1291.578338 467.089069 
L 1291.578338 467.089069 
L 1303.202752 484.529831 
L 1303.202752 484.529831 
L 1315.214647 506.140518 
L 1315.214647 506.140518 
L 1326.839061 500.190573 
L 1326.839061 500.190573 
L 1338.850956 498.71282 
L 1338.850956 498.71282 
L 1350.862851 509.032307 
L 1350.862851 509.032307 
L 1362.487265 501.314212 
L 1362.487265 501.314212 
L 1374.499159 522.857684 
L 1374.499159 522.857684 
" clip-path="url(#pfacc93742e)" style="fill: none; stroke: #c17150; stroke-width: 1.5; stroke-linecap: round"/>
   </g>
   <g id="line2d_22">
    <path d="M 124.487149 437.399632 
L 136.499044 390.841742 
L 136.499044 390.841742 
L 147.348497 407.086578 
L 147.348497 407.086578 
L 159.360392 394.244882 
L 159.360392 394.244882 
L 170.984806 376.248207 
L 170.984806 376.248207 
L 182.996701 355.185755 
L 182.996701 355.185755 
L 194.621115 355.16268 
L 194.621115 355.16268 
L 206.63301 316.314012 
L 206.63301 316.314012 
L 218.644904 278.705706 
L 218.644904 278.705706 
L 230.269319 257.902235 
L 230.269319 257.902235 
L 242.281213 316.250631 
L 242.281213 316.250631 
L 253.905628 197.85881 
L 253.905628 197.85881 
L 265.917522 267.826963 
L 265.917522 267.826963 
L 277.929417 235.002809 
L 277.929417 235.002809 
L 289.166351 301.847354 
L 289.166351 301.847354 
L 301.178245 290.926683 
L 301.178245 290.926683 
L 312.80266 230.528525 
L 312.80266 230.528525 
L 324.814554 289.212743 
L 324.814554 289.212743 
L 336.438969 269.964717 
L 336.438969 269.964717 
L 348.450863 271.666337 
L 348.450863 271.666337 
L 360.462758 299.193485 
L 360.462758 299.193485 
L 372.087172 258.147161 
L 372.087172 258.147161 
L 384.099067 287.067961 
L 384.099067 287.067961 
L 395.723481 348.997527 
L 395.723481 348.997527 
L 407.735376 279.609188 
L 407.735376 279.609188 
L 419.747271 330.928088 
L 419.747271 330.928088 
L 430.596724 307.305834 
L 430.596724 307.305834 
L 442.608619 270.039316 
L 442.608619 270.039316 
L 454.233033 297.979261 
L 454.233033 297.979261 
L 466.244928 263.634755 
L 466.244928 263.634755 
L 477.869342 306.799483 
L 477.869342 306.799483 
L 489.881237 281.595931 
L 489.881237 281.595931 
L 501.893131 281.756355 
L 501.893131 281.756355 
L 513.517545 349.746141 
L 513.517545 349.746141 
L 525.52944 236.500173 
L 525.52944 236.500173 
L 537.153854 272.950237 
L 537.153854 272.950237 
L 549.165749 218.103643 
L 549.165749 218.103643 
L 561.177644 262.48156 
L 561.177644 262.48156 
L 572.027097 304.901436 
L 572.027097 304.901436 
L 584.038992 304.514598 
L 584.038992 304.514598 
L 595.663406 338.654251 
L 595.663406 338.654251 
L 607.675301 341.622884 
L 607.675301 341.622884 
L 619.299715 311.317218 
L 619.299715 311.317218 
L 631.31161 290.163099 
L 631.31161 290.163099 
L 643.323504 338.23118 
L 643.323504 338.23118 
L 654.947919 408.76524 
L 654.947919 408.76524 
L 666.959813 314.603831 
L 666.959813 314.603831 
L 678.584228 358.527059 
L 678.584228 358.527059 
L 690.596122 374.189527 
L 690.596122 374.189527 
L 702.608017 378.04262 
L 702.608017 378.04262 
L 713.45747 348.375363 
L 713.45747 348.375363 
L 725.469365 349.944988 
L 725.469365 349.944988 
L 737.093779 288.34823 
L 737.093779 288.34823 
L 749.105674 316.603143 
L 749.105674 316.603143 
L 760.730088 358.69969 
L 760.730088 358.69969 
L 772.741983 387.686648 
L 772.741983 387.686648 
L 784.753878 409.448566 
L 784.753878 409.448566 
L 796.378292 395.030807 
L 796.378292 395.030807 
L 808.390186 403.472471 
L 808.390186 403.472471 
L 820.014601 435.058984 
L 820.014601 435.058984 
L 832.026495 416.870567 
L 832.026495 416.870567 
L 844.03839 432.49495 
L 844.03839 432.49495 
L 855.275324 477.640458 
L 855.275324 477.640458 
L 867.287219 504.328086 
L 867.287219 504.328086 
L 878.911633 464.927454 
L 878.911633 464.927454 
L 890.923527 473.765936 
L 890.923527 473.765936 
L 902.547942 463.675708 
L 902.547942 463.675708 
L 914.559836 425.374089 
L 914.559836 425.374089 
L 926.571731 427.682236 
L 926.571731 427.682236 
L 938.196145 418.531174 
L 938.196145 418.531174 
L 950.20804 422.178633 
L 950.20804 422.178633 
L 961.832454 414.765326 
L 961.832454 414.765326 
L 973.844349 396.376705 
L 973.844349 396.376705 
L 985.856244 394.943492 
L 985.856244 394.943492 
L 996.705697 426.254284 
L 996.705697 426.254284 
L 1008.717592 418.328032 
L 1008.717592 418.328032 
L 1020.342006 390.84696 
L 1020.342006 390.84696 
L 1032.353901 369.784499 
L 1032.353901 369.784499 
L 1043.978315 362.132956 
L 1043.978315 362.132956 
L 1055.99021 362.025899 
L 1055.99021 362.025899 
L 1068.002104 380.389757 
L 1068.002104 380.389757 
L 1079.626518 389.016282 
L 1079.626518 389.016282 
L 1091.638413 431.547507 
L 1091.638413 431.547507 
L 1103.262827 424.070585 
L 1103.262827 424.070585 
L 1115.274722 468.971101 
L 1115.274722 468.971101 
L 1127.286617 484.673046 
L 1127.286617 484.673046 
L 1138.13607 471.434111 
L 1138.13607 471.434111 
L 1150.147965 482.234959 
L 1150.147965 482.234959 
L 1161.772379 493.200817 
L 1161.772379 493.200817 
L 1173.784274 515.128494 
L 1173.784274 515.128494 
L 1185.408688 472.356015 
L 1185.408688 472.356015 
L 1197.420583 451.489757 
L 1197.420583 451.489757 
L 1209.432477 483.977402 
L 1209.432477 483.977402 
L 1221.056892 527.382546 
L 1221.056892 527.382546 
L 1233.068786 486.9455 
L 1233.068786 486.9455 
L 1244.693201 488.989312 
L 1244.693201 488.989312 
L 1256.705095 491.538342 
L 1256.705095 491.538342 
L 1268.71699 485.824948 
L 1268.71699 485.824948 
L 1279.566443 484.245484 
L 1279.566443 484.245484 
L 1291.578338 472.257342 
L 1291.578338 472.257342 
L 1303.202752 491.875287 
L 1303.202752 491.875287 
L 1315.214647 510.754687 
L 1315.214647 510.754687 
L 1326.839061 503.701824 
L 1326.839061 503.701824 
L 1338.850956 501.037957 
L 1338.850956 501.037957 
L 1350.862851 515.465273 
L 1350.862851 515.465273 
L 1362.487265 503.752174 
L 1362.487265 503.752174 
L 1374.499159 525.363491 
L 1374.499159 525.363491 
" clip-path="url(#pfacc93742e)" style="fill: none; stroke: #c8f0e6; stroke-width: 1.5; stroke-linecap: round"/>
   </g>
   <g id="patch_3">
    <path d="M 61.986549 612.426839 
L 61.986549 25.604645 
" style="fill: none; stroke: #808080; stroke-width: 0.8; stroke-linejoin: miter; stroke-linecap: square"/>
   </g>
   <g id="patch_4">
    <path d="M 61.986549 612.426839 
L 1436.99976 612.426839 
" style="fill: none; stroke: #808080; stroke-width: 0.8; stroke-linejoin: miter; stroke-linecap: square"/>
   </g>
   <g id="text_20">
    <!-- Full Sample -->
    <g style="fill: #262626" transform="translate(692.775449 19.604645) scale(0.24 -0.24)">
     <defs>
      <path id="CMR17-46" d="M 3482 4325 
L 326 4325 
L 326 4160 
C 768 4160 838 4160 838 3874 
L 838 446 
C 838 160 768 160 326 160 
L 326 0 
C 512 0 870 0 1069 0 
C 1331 0 1638 0 1901 0 
L 1901 160 
L 1760 160 
C 1274 160 1261 223 1261 452 
L 1261 2075 
L 1837 2075 
C 2432 2075 2490 1865 2490 1332 
L 2605 1332 
L 2605 2987 
L 2490 2987 
C 2490 2450 2432 2240 1837 2240 
L 1261 2240 
L 1261 3911 
C 1261 4128 1274 4160 1530 4160 
L 2355 4160 
C 3322 4160 3430 3765 3520 2916 
L 3635 2916 
L 3482 4325 
z
" transform="scale(0.015625)"/>
      <path id="CMR17-53" d="M 2803 4290 
C 2803 4404 2797 4411 2758 4411 
C 2720 4411 2707 4385 2682 4328 
L 2490 3907 
C 2246 4257 1875 4416 1472 4416 
C 819 4416 294 3901 294 3253 
C 294 3056 339 2776 557 2510 
C 794 2218 1018 2167 1530 2033 
C 1722 1982 2042 1899 2106 1874 
C 2470 1722 2662 1341 2662 985 
C 2662 527 2336 38 1779 38 
C 1094 38 454 419 410 1311 
C 403 1413 397 1419 352 1419 
C 301 1419 294 1413 294 1285 
L 294 -1 
C 294 -115 301 -122 339 -122 
C 384 -122 397 -90 486 108 
C 493 127 493 140 614 381 
C 934 -39 1472 -128 1779 -128 
C 2477 -128 2970 451 2970 1124 
C 2970 1454 2848 1708 2778 1823 
C 2509 2230 2221 2306 1914 2382 
C 1869 2402 1856 2402 1498 2490 
C 1152 2579 1005 2624 845 2796 
C 666 2992 602 3196 602 3399 
C 602 3812 934 4263 1478 4263 
C 2157 4263 2579 3786 2675 2993 
C 2694 2878 2701 2872 2746 2872 
C 2803 2872 2803 2891 2803 2999 
L 2803 4290 
z
" transform="scale(0.015625)"/>
      <path id="CMR17-6d" d="M 4326 1933 
C 4326 2252 4269 2790 3507 2790 
C 3072 2790 2771 2496 2656 2151 
L 2650 2151 
C 2573 2676 2195 2790 1837 2790 
C 1331 2790 1069 2400 973 2144 
L 966 2144 
L 966 2790 
L 211 2720 
L 211 2554 
C 589 2554 646 2515 646 2208 
L 646 428 
C 646 184 621 153 211 153 
L 211 -13 
C 365 0 646 0 813 0 
C 979 0 1267 0 1421 -13 
L 1421 153 
C 1011 153 986 178 986 428 
L 986 1658 
C 986 2247 1344 2688 1792 2688 
C 2266 2688 2317 2266 2317 1958 
L 2317 428 
C 2317 184 2291 153 1882 153 
L 1882 -13 
C 2035 0 2317 0 2483 0 
C 2650 0 2938 0 3091 -13 
L 3091 153 
C 2682 153 2656 178 2656 428 
L 2656 1658 
C 2656 2247 3014 2688 3462 2688 
C 3936 2688 3987 2266 3987 1958 
L 3987 428 
C 3987 184 3962 153 3552 153 
L 3552 -13 
C 3706 0 3987 0 4154 0 
C 4320 0 4608 0 4762 -13 
L 4762 153 
C 4352 153 4326 178 4326 428 
L 4326 1933 
z
" transform="scale(0.015625)"/>
      <path id="CMR17-70" d="M 1408 -1063 
C 998 -1063 973 -1037 973 -789 
L 973 402 
C 1158 134 1427 -38 1766 -38 
C 2406 -38 3053 523 3053 1388 
C 3053 2191 2496 2802 1837 2802 
C 1453 2802 1139 2592 960 2338 
L 960 2802 
L 198 2732 
L 198 2567 
C 576 2567 634 2528 634 2223 
L 634 -789 
C 634 -1031 608 -1063 198 -1063 
L 198 -1228 
C 352 -1216 634 -1216 800 -1216 
C 966 -1216 1254 -1216 1408 -1228 
L 1408 -1063 
z
M 973 2012 
C 973 2102 973 2235 1222 2471 
C 1254 2497 1472 2688 1792 2688 
C 2259 2688 2643 2108 2643 1382 
C 2643 656 2234 64 1728 64 
C 1498 64 1248 172 1056 472 
C 973 612 973 650 973 752 
L 973 2012 
z
" transform="scale(0.015625)"/>
     </defs>
     <use xlink:href="#CMR17-46" transform="scale(0.996264)"/>
     <use xlink:href="#CMR17-75" transform="translate(52.176591 0) scale(0.996264)"/>
     <use xlink:href="#CMR17-6c" transform="translate(103.071961 0) scale(0.996264)"/>
     <use xlink:href="#CMR17-6c" transform="translate(127.943019 0) scale(0.996264)"/>
     <use xlink:href="#CMR17-53" transform="translate(182.890044 0) scale(0.996264)"/>
     <use xlink:href="#CMR17-61" transform="translate(233.785414 0) scale(0.996264)"/>
     <use xlink:href="#CMR17-6d" transform="translate(279.475891 0) scale(0.996264)"/>
     <use xlink:href="#CMR17-70" transform="translate(356.395481 0) scale(0.996264)"/>
     <use xlink:href="#CMR17-6c" transform="translate(407.290851 0) scale(0.996264)"/>
     <use xlink:href="#CMR17-65" transform="translate(432.161909 0) scale(0.996264)"/>
    </g>
   </g>
   <g id="legend_1">
    <g id="patch_5">
     <path d="M 156.234784 716.999724 
L 1342.751525 716.999724 
Q 1346.751525 716.999724 1346.751525 712.999724 
L 1346.751525 685.109059 
Q 1346.751525 681.109059 1342.751525 681.109059 
L 156.234784 681.109059 
Q 152.234784 681.109059 152.234784 685.109059 
L 152.234784 712.999724 
Q 152.234784 716.999724 156.234784 716.999724 
z
" style="fill: #ffffff; opacity: 0.8"/>
    </g>
    <g id="line2d_23">
     <path d="M 160.234784 697.035081 
L 180.234784 697.035081 
L 200.234784 697.035081 
" style="fill: none; stroke-dasharray: 5.55,2.4; stroke-dashoffset: 0; stroke: #006e64; stroke-width: 1.5"/>
    </g>
    <g id="text_21">
     <!-- Actual -->
     <g style="fill: #262626" transform="translate(216.234784 704.035081) scale(0.2 -0.2)">
      <defs>
       <path id="CMR17-41" d="M 2323 4378 
C 2291 4461 2278 4480 2214 4480 
C 2150 4480 2138 4461 2106 4378 
L 749 566 
C 627 223 371 153 147 153 
L 147 -13 
C 262 0 518 0 640 0 
C 800 0 1056 0 1210 -13 
L 1210 153 
C 909 153 864 361 864 439 
C 864 497 877 530 890 569 
L 1229 1536 
L 2906 1536 
L 3290 442 
C 3322 365 3322 352 3322 327 
C 3322 153 3046 153 2925 153 
L 2925 0 
C 3110 0 3443 0 3642 0 
C 3808 0 4128 0 4282 -13 
L 4282 153 
C 3942 153 3827 153 3744 387 
L 2323 4378 
z
M 2067 3893 
L 2848 1702 
L 1286 1702 
L 2067 3893 
z
" transform="scale(0.015625)"/>
       <path id="CMR17-63" d="M 2234 2240 
C 2112 2240 1933 2240 1933 2017 
C 1933 1838 2080 1787 2163 1787 
C 2208 1787 2394 1807 2394 2024 
C 2394 2467 1958 2803 1466 2803 
C 787 2803 211 2178 211 1363 
C 211 516 813 -64 1466 -64 
C 2259 -64 2458 677 2458 748 
C 2458 774 2451 793 2406 793 
C 2362 793 2355 787 2330 703 
C 2163 180 1798 51 1523 51 
C 1114 51 621 427 621 1369 
C 621 2338 1094 2688 1472 2688 
C 1722 2688 2093 2573 2234 2240 
z
" transform="scale(0.015625)"/>
      </defs>
      <use xlink:href="#CMR17-41" transform="scale(0.996264)"/>
      <use xlink:href="#CMR17-63" transform="translate(69.07243 0) scale(0.996264)"/>
      <use xlink:href="#CMR17-74" transform="translate(109.55809 0) scale(0.996264)"/>
      <use xlink:href="#CMR17-75" transform="translate(144.838858 0) scale(0.996264)"/>
      <use xlink:href="#CMR17-61" transform="translate(195.734228 0) scale(0.996264)"/>
      <use xlink:href="#CMR17-6c" transform="translate(241.424705 0) scale(0.996264)"/>
     </g>
    </g>
    <g id="line2d_24">
     <path d="M 309.493909 697.035081 
L 329.493909 697.035081 
L 349.493909 697.035081 
" style="fill: none; stroke: #734848; stroke-width: 1.5; stroke-linecap: round"/>
    </g>
    <g id="text_22">
     <!-- Predicted (2 clusters) -->
     <g style="fill: #262626" transform="translate(365.493909 704.035081) scale(0.2 -0.2)">
      <defs>
       <path id="CMR17-50" d="M 1267 2042 
L 2291 2042 
C 3117 2042 3718 2578 3718 3184 
C 3718 3791 3130 4352 2291 4352 
L 333 4352 
L 333 4186 
C 774 4186 845 4186 845 3899 
L 845 446 
C 845 160 774 160 333 160 
L 333 0 
C 518 0 858 0 1056 0 
C 1254 0 1594 0 1779 0 
L 1779 160 
C 1338 160 1267 160 1267 446 
L 1267 2042 
z
M 1254 2176 
L 1254 3938 
C 1254 4155 1267 4186 1523 4186 
L 2170 4186 
C 2995 4186 3232 3714 3232 3184 
C 3232 2604 2950 2176 2170 2176 
L 1254 2176 
z
" transform="scale(0.015625)"/>
       <path id="CMR17-64" d="M 1869 4326 
L 1869 4160 
C 2246 4160 2304 4122 2304 3820 
L 2304 2345 
C 2278 2377 2016 2790 1498 2790 
C 845 2790 211 2208 211 1364 
C 211 525 806 -64 1434 -64 
C 1978 -64 2259 337 2291 380 
L 2291 -63 
L 3066 -63 
L 3066 128 
C 2688 128 2630 166 2630 473 
L 2630 4396 
L 1869 4326 
z
M 2291 755 
C 2291 563 2176 390 2029 262 
C 1811 70 1594 38 1472 38 
C 1286 38 621 134 621 1356 
C 621 2612 1363 2688 1530 2688 
C 1824 2688 2061 2522 2208 2291 
C 2291 2157 2291 2138 2291 2023 
L 2291 755 
z
" transform="scale(0.015625)"/>
       <path id="CMR17-28" d="M 1958 -1561 
C 1958 -1555 1958 -1542 1939 -1523 
C 1645 -1224 858 -407 858 1581 
C 858 3569 1632 4379 1946 4697 
C 1946 4704 1958 4717 1958 4736 
C 1958 4755 1939 4768 1914 4768 
C 1843 4768 1299 4296 986 3594 
C 666 2887 576 2199 576 1588 
C 576 1128 621 351 1005 -471 
C 1312 -1135 1837 -1600 1914 -1600 
C 1946 -1600 1958 -1587 1958 -1561 
z
" transform="scale(0.015625)"/>
       <path id="CMR17-73" d="M 1978 2697 
C 1978 2813 1971 2819 1933 2819 
C 1907 2819 1901 2813 1824 2717 
C 1805 2691 1747 2626 1728 2601 
C 1523 2819 1235 2819 1126 2819 
C 416 2819 160 2447 160 2076 
C 160 1498 813 1365 998 1325 
C 1402 1243 1542 1217 1677 1101 
C 1760 1025 1901 884 1901 654 
C 1901 384 1747 38 1158 38 
C 602 38 403 460 288 1021 
C 269 1110 269 1117 218 1117 
C 166 1117 160 1110 160 983 
L 160 63 
C 160 -51 166 -58 205 -58 
C 237 -58 243 -51 275 0 
C 314 57 410 211 448 276 
C 576 103 800 -64 1158 -64 
C 1792 -64 2131 283 2131 784 
C 2131 1112 1958 1285 1875 1362 
C 1683 1561 1459 1606 1190 1657 
C 838 1735 390 1825 390 2217 
C 390 2383 480 2737 1126 2737 
C 1811 2737 1850 2094 1862 1888 
C 1869 1856 1901 1849 1920 1849 
C 1978 1849 1978 1869 1978 1978 
L 1978 2697 
z
" transform="scale(0.015625)"/>
       <path id="CMR17-29" d="M 1683 1581 
C 1683 2040 1638 2817 1254 3639 
C 947 4303 422 4768 346 4768 
C 326 4768 301 4761 301 4729 
C 301 4717 307 4710 314 4697 
C 621 4378 1402 3568 1402 1584 
C 1402 -407 627 -1217 314 -1537 
C 307 -1549 301 -1556 301 -1568 
C 301 -1600 326 -1600 346 -1600 
C 416 -1600 960 -1128 1274 -426 
C 1594 281 1683 969 1683 1581 
z
" transform="scale(0.015625)"/>
      </defs>
      <use xlink:href="#CMR17-50" transform="scale(0.996264)"/>
      <use xlink:href="#CMR17-72" transform="translate(62.586301 0) scale(0.996264)"/>
      <use xlink:href="#CMR17-65" transform="translate(97.867068 0) scale(0.996264)"/>
      <use xlink:href="#CMR17-64" transform="translate(138.352729 0) scale(0.996264)"/>
      <use xlink:href="#CMR17-69" transform="translate(189.248099 0) scale(0.996264)"/>
      <use xlink:href="#CMR17-63" transform="translate(214.119157 0) scale(0.996264)"/>
      <use xlink:href="#CMR17-74" transform="translate(254.604818 0) scale(0.996264)"/>
      <use xlink:href="#CMR17-65" transform="translate(289.885585 0) scale(0.996264)"/>
      <use xlink:href="#CMR17-64" transform="translate(330.371246 0) scale(0.996264)"/>
      <use xlink:href="#CMR17-28" transform="translate(411.342582 0) scale(0.996264)"/>
      <use xlink:href="#CMR17-32" transform="translate(446.62335 0) scale(0.996264)"/>
      <use xlink:href="#CMR17-63" transform="translate(522.389793 0) scale(0.996264)"/>
      <use xlink:href="#CMR17-6c" transform="translate(562.875454 0) scale(0.996264)"/>
      <use xlink:href="#CMR17-75" transform="translate(587.746512 0) scale(0.996264)"/>
      <use xlink:href="#CMR17-73" transform="translate(638.641882 0) scale(0.996264)"/>
      <use xlink:href="#CMR17-74" transform="translate(674.44322 0) scale(0.996264)"/>
      <use xlink:href="#CMR17-65" transform="translate(709.723987 0) scale(0.996264)"/>
      <use xlink:href="#CMR17-72" transform="translate(750.209648 0) scale(0.996264)"/>
      <use xlink:href="#CMR17-73" transform="translate(785.490416 0) scale(0.996264)"/>
      <use xlink:href="#CMR17-29" transform="translate(821.291753 0) scale(0.996264)"/>
     </g>
    </g>
    <g id="line2d_25">
     <path d="M 576.808313 697.035081 
L 596.808313 697.035081 
L 616.808313 697.035081 
" style="fill: none; stroke: #004e4a; stroke-width: 1.5; stroke-linecap: round"/>
    </g>
    <g id="text_23">
     <!-- Predicted (3 clusters) -->
     <g style="fill: #262626" transform="translate(632.808313 704.035081) scale(0.2 -0.2)">
      <use xlink:href="#CMR17-50" transform="scale(0.996264)"/>
      <use xlink:href="#CMR17-72" transform="translate(62.586301 0) scale(0.996264)"/>
      <use xlink:href="#CMR17-65" transform="translate(97.867068 0) scale(0.996264)"/>
      <use xlink:href="#CMR17-64" transform="translate(138.352729 0) scale(0.996264)"/>
      <use xlink:href="#CMR17-69" transform="translate(189.248099 0) scale(0.996264)"/>
      <use xlink:href="#CMR17-63" transform="translate(214.119157 0) scale(0.996264)"/>
      <use xlink:href="#CMR17-74" transform="translate(254.604818 0) scale(0.996264)"/>
      <use xlink:href="#CMR17-65" transform="translate(289.885585 0) scale(0.996264)"/>
      <use xlink:href="#CMR17-64" transform="translate(330.371246 0) scale(0.996264)"/>
      <use xlink:href="#CMR17-28" transform="translate(411.342582 0) scale(0.996264)"/>
      <use xlink:href="#CMR17-33" transform="translate(446.62335 0) scale(0.996264)"/>
      <use xlink:href="#CMR17-63" transform="translate(522.389793 0) scale(0.996264)"/>
      <use xlink:href="#CMR17-6c" transform="translate(562.875454 0) scale(0.996264)"/>
      <use xlink:href="#CMR17-75" transform="translate(587.746512 0) scale(0.996264)"/>
      <use xlink:href="#CMR17-73" transform="translate(638.641882 0) scale(0.996264)"/>
      <use xlink:href="#CMR17-74" transform="translate(674.44322 0) scale(0.996264)"/>
      <use xlink:href="#CMR17-65" transform="translate(709.723987 0) scale(0.996264)"/>
      <use xlink:href="#CMR17-72" transform="translate(750.209648 0) scale(0.996264)"/>
      <use xlink:href="#CMR17-73" transform="translate(785.490416 0) scale(0.996264)"/>
      <use xlink:href="#CMR17-29" transform="translate(821.291753 0) scale(0.996264)"/>
     </g>
    </g>
    <g id="line2d_26">
     <path d="M 844.122717 697.035081 
L 864.122717 697.035081 
L 884.122717 697.035081 
" style="fill: none; stroke: #c17150; stroke-width: 1.5; stroke-linecap: round"/>
    </g>
    <g id="text_24">
     <!-- Predicted (4 clusters) -->
     <g style="fill: #262626" transform="translate(900.122717 704.035081) scale(0.2 -0.2)">
      <use xlink:href="#CMR17-50" transform="scale(0.996264)"/>
      <use xlink:href="#CMR17-72" transform="translate(62.586301 0) scale(0.996264)"/>
      <use xlink:href="#CMR17-65" transform="translate(97.867068 0) scale(0.996264)"/>
      <use xlink:href="#CMR17-64" transform="translate(138.352729 0) scale(0.996264)"/>
      <use xlink:href="#CMR17-69" transform="translate(189.248099 0) scale(0.996264)"/>
      <use xlink:href="#CMR17-63" transform="translate(214.119157 0) scale(0.996264)"/>
      <use xlink:href="#CMR17-74" transform="translate(254.604818 0) scale(0.996264)"/>
      <use xlink:href="#CMR17-65" transform="translate(289.885585 0) scale(0.996264)"/>
      <use xlink:href="#CMR17-64" transform="translate(330.371246 0) scale(0.996264)"/>
      <use xlink:href="#CMR17-28" transform="translate(411.342582 0) scale(0.996264)"/>
      <use xlink:href="#CMR17-34" transform="translate(446.62335 0) scale(0.996264)"/>
      <use xlink:href="#CMR17-63" transform="translate(522.389793 0) scale(0.996264)"/>
      <use xlink:href="#CMR17-6c" transform="translate(562.875454 0) scale(0.996264)"/>
      <use xlink:href="#CMR17-75" transform="translate(587.746512 0) scale(0.996264)"/>
      <use xlink:href="#CMR17-73" transform="translate(638.641882 0) scale(0.996264)"/>
      <use xlink:href="#CMR17-74" transform="translate(674.44322 0) scale(0.996264)"/>
      <use xlink:href="#CMR17-65" transform="translate(709.723987 0) scale(0.996264)"/>
      <use xlink:href="#CMR17-72" transform="translate(750.209648 0) scale(0.996264)"/>
      <use xlink:href="#CMR17-73" transform="translate(785.490416 0) scale(0.996264)"/>
      <use xlink:href="#CMR17-29" transform="translate(821.291753 0) scale(0.996264)"/>
     </g>
    </g>
    <g id="line2d_27">
     <path d="M 1111.437121 697.035081 
L 1131.437121 697.035081 
L 1151.437121 697.035081 
" style="fill: none; stroke: #c8f0e6; stroke-width: 1.5; stroke-linecap: round"/>
    </g>
    <g id="text_25">
     <!-- Predicted (5 clusters) -->
     <g style="fill: #262626" transform="translate(1167.437121 704.035081) scale(0.2 -0.2)">
      <use xlink:href="#CMR17-50" transform="scale(0.996264)"/>
      <use xlink:href="#CMR17-72" transform="translate(62.586301 0) scale(0.996264)"/>
      <use xlink:href="#CMR17-65" transform="translate(97.867068 0) scale(0.996264)"/>
      <use xlink:href="#CMR17-64" transform="translate(138.352729 0) scale(0.996264)"/>
      <use xlink:href="#CMR17-69" transform="translate(189.248099 0) scale(0.996264)"/>
      <use xlink:href="#CMR17-63" transform="translate(214.119157 0) scale(0.996264)"/>
      <use xlink:href="#CMR17-74" transform="translate(254.604818 0) scale(0.996264)"/>
      <use xlink:href="#CMR17-65" transform="translate(289.885585 0) scale(0.996264)"/>
      <use xlink:href="#CMR17-64" transform="translate(330.371246 0) scale(0.996264)"/>
      <use xlink:href="#CMR17-28" transform="translate(411.342582 0) scale(0.996264)"/>
      <use xlink:href="#CMR17-35" transform="translate(446.62335 0) scale(0.996264)"/>
      <use xlink:href="#CMR17-63" transform="translate(522.389793 0) scale(0.996264)"/>
      <use xlink:href="#CMR17-6c" transform="translate(562.875454 0) scale(0.996264)"/>
      <use xlink:href="#CMR17-75" transform="translate(587.746512 0) scale(0.996264)"/>
      <use xlink:href="#CMR17-73" transform="translate(638.641882 0) scale(0.996264)"/>
      <use xlink:href="#CMR17-74" transform="translate(674.44322 0) scale(0.996264)"/>
      <use xlink:href="#CMR17-65" transform="translate(709.723987 0) scale(0.996264)"/>
      <use xlink:href="#CMR17-72" transform="translate(750.209648 0) scale(0.996264)"/>
      <use xlink:href="#CMR17-73" transform="translate(785.490416 0) scale(0.996264)"/>
      <use xlink:href="#CMR17-29" transform="translate(821.291753 0) scale(0.996264)"/>
     </g>
    </g>
   </g>
  </g>
 </g>
 <defs>
  <clipPath id="pfacc93742e">
   <rect x="61.986549" y="25.604645" width="1375.013211" height="586.822194"/>
  </clipPath>
 </defs>
</svg>
