<?xml version="1.0" encoding="utf-8" standalone="no"?>
<!DOCTYPE svg PUBLIC "-//W3C//DTD SVG 1.1//EN"
  "http://www.w3.org/Graphics/SVG/1.1/DTD/svg11.dtd">
<svg xmlns:xlink="http://www.w3.org/1999/xlink" width="1440pt" height="720pt" viewBox="0 0 1440 720" xmlns="http://www.w3.org/2000/svg" version="1.1">
 <metadata>
  <rdf:RDF xmlns:dc="http://purl.org/dc/elements/1.1/" xmlns:cc="http://creativecommons.org/ns#" xmlns:rdf="http://www.w3.org/1999/02/22-rdf-syntax-ns#">
   <cc:Work>
    <dc:type rdf:resource="http://purl.org/dc/dcmitype/StillImage"/>
    <dc:date>2023-11-28T09:09:08.165994</dc:date>
    <dc:format>image/svg+xml</dc:format>
    <dc:creator>
     <cc:Agent>
      <dc:title>Matplotlib v3.8.0, https://matplotlib.org/</dc:title>
     </cc:Agent>
    </dc:creator>
   </cc:Work>
  </rdf:RDF>
 </metadata>
 <defs>
  <style type="text/css">*{stroke-linejoin: round; stroke-linecap: butt}</style>
 </defs>
 <g id="figure_1">
  <g id="patch_1">
   <path d="M 0 720 
L 1440 720 
L 1440 0 
L 0 0 
z
" style="fill: #ffffff"/>
  </g>
  <g id="axes_1">
   <g id="patch_2">
    <path d="M 64.164584 612.832679 
L 1436.99976 612.832679 
L 1436.99976 9.918738 
L 64.164584 9.918738 
z
" style="fill: #ffffff"/>
   </g>
   <g id="matplotlib.axis_1">
    <g id="xtick_1">
     <g id="line2d_1">
      <path d="M 126.566183 612.832679 
L 126.566183 9.918738 
" clip-path="url(#p62bbc5da0a)" style="fill: none; stroke: #cccccc; stroke-opacity: 0.5; stroke-width: 0.8; stroke-linecap: round"/>
     </g>
     <g id="text_1">
      <!-- $\mathdefault{2015}$ -->
      <g transform="translate(108.289992 630.169676) scale(0.2 -0.2)">
       <defs>
        <path id="CMR17-32" d="M 2669 989 
L 2554 989 
C 2490 536 2438 459 2413 420 
C 2381 369 1920 369 1830 369 
L 602 369 
C 832 619 1280 1072 1824 1597 
C 2214 1967 2669 2402 2669 3035 
C 2669 3790 2067 4224 1395 4224 
C 691 4224 262 3604 262 3030 
C 262 2780 448 2748 525 2748 
C 589 2748 781 2787 781 3010 
C 781 3207 614 3264 525 3264 
C 486 3264 448 3258 422 3245 
C 544 3790 915 4058 1306 4058 
C 1862 4058 2227 3617 2227 3035 
C 2227 2479 1901 2000 1536 1584 
L 262 146 
L 262 0 
L 2515 0 
L 2669 989 
z
" transform="scale(0.015625)"/>
        <path id="CMR17-30" d="M 2688 2025 
C 2688 2416 2682 3080 2413 3591 
C 2176 4039 1798 4198 1466 4198 
C 1158 4198 768 4058 525 3597 
C 269 3118 243 2524 243 2025 
C 243 1661 250 1106 448 619 
C 723 -39 1216 -128 1466 -128 
C 1760 -128 2208 -7 2470 600 
C 2662 1042 2688 1559 2688 2025 
z
M 1466 -26 
C 1056 -26 813 325 723 812 
C 653 1188 653 1738 653 2096 
C 653 2588 653 2997 736 3387 
C 858 3929 1216 4096 1466 4096 
C 1728 4096 2067 3923 2189 3400 
C 2272 3036 2278 2607 2278 2096 
C 2278 1680 2278 1169 2202 792 
C 2067 95 1690 -26 1466 -26 
z
" transform="scale(0.015625)"/>
        <path id="CMR17-31" d="M 1702 4058 
C 1702 4192 1696 4192 1606 4192 
C 1357 3916 979 3827 621 3827 
C 602 3827 570 3827 563 3808 
C 557 3795 557 3782 557 3648 
C 755 3648 1088 3686 1344 3839 
L 1344 461 
C 1344 236 1331 160 781 160 
L 589 160 
L 589 0 
C 896 0 1216 0 1523 0 
C 1830 0 2150 0 2458 0 
L 2458 160 
L 2266 160 
C 1715 160 1702 230 1702 458 
L 1702 4058 
z
" transform="scale(0.015625)"/>
        <path id="CMR17-35" d="M 730 3692 
C 794 3666 1056 3584 1325 3584 
C 1920 3584 2246 3911 2432 4100 
C 2432 4157 2432 4192 2394 4192 
C 2387 4192 2374 4192 2323 4163 
C 2099 4058 1837 3973 1517 3973 
C 1325 3973 1037 3999 723 4139 
C 653 4171 640 4171 634 4171 
C 602 4171 595 4164 595 4037 
L 595 2203 
C 595 2089 595 2057 659 2057 
C 691 2057 704 2070 736 2114 
C 941 2401 1222 2522 1542 2522 
C 1766 2522 2246 2382 2246 1289 
C 2246 1085 2246 715 2054 421 
C 1894 159 1645 25 1370 25 
C 947 25 518 320 403 814 
C 429 807 480 795 506 795 
C 589 795 749 840 749 1038 
C 749 1210 627 1280 506 1280 
C 358 1280 262 1190 262 1011 
C 262 454 704 -128 1382 -128 
C 2042 -128 2669 440 2669 1264 
C 2669 2030 2170 2624 1549 2624 
C 1222 2624 947 2503 730 2274 
L 730 3692 
z
" transform="scale(0.015625)"/>
       </defs>
       <use xlink:href="#CMR17-32" transform="scale(0.996264)"/>
       <use xlink:href="#CMR17-30" transform="translate(45.690477 0) scale(0.996264)"/>
       <use xlink:href="#CMR17-31" transform="translate(91.380954 0) scale(0.996264)"/>
       <use xlink:href="#CMR17-35" transform="translate(137.071431 0) scale(0.996264)"/>
      </g>
     </g>
    </g>
    <g id="xtick_2">
     <g id="line2d_2">
      <path d="M 267.772529 612.832679 
L 267.772529 9.918738 
" clip-path="url(#p62bbc5da0a)" style="fill: none; stroke: #cccccc; stroke-opacity: 0.5; stroke-width: 0.8; stroke-linecap: round"/>
     </g>
     <g id="text_2">
      <!-- $\mathdefault{2016}$ -->
      <g transform="translate(249.496338 630.169676) scale(0.2 -0.2)">
       <defs>
        <path id="CMR17-36" d="M 678 2176 
C 678 3690 1395 4032 1811 4032 
C 1946 4032 2272 4009 2400 3776 
C 2298 3776 2106 3776 2106 3553 
C 2106 3381 2246 3323 2336 3323 
C 2394 3323 2566 3348 2566 3560 
C 2566 3954 2246 4179 1805 4179 
C 1043 4179 243 3390 243 1984 
C 243 253 966 -128 1478 -128 
C 2099 -128 2688 427 2688 1283 
C 2688 2081 2170 2662 1517 2662 
C 1126 2662 838 2407 678 1960 
L 678 2176 
z
M 1478 25 
C 691 25 691 1200 691 1436 
C 691 1896 909 2560 1504 2560 
C 1613 2560 1926 2560 2138 2120 
C 2253 1870 2253 1609 2253 1289 
C 2253 944 2253 690 2118 434 
C 1978 171 1773 25 1478 25 
z
" transform="scale(0.015625)"/>
       </defs>
       <use xlink:href="#CMR17-32" transform="scale(0.996264)"/>
       <use xlink:href="#CMR17-30" transform="translate(45.690477 0) scale(0.996264)"/>
       <use xlink:href="#CMR17-31" transform="translate(91.380954 0) scale(0.996264)"/>
       <use xlink:href="#CMR17-36" transform="translate(137.071431 0) scale(0.996264)"/>
      </g>
     </g>
    </g>
    <g id="xtick_3">
     <g id="line2d_3">
      <path d="M 409.365742 612.832679 
L 409.365742 9.918738 
" clip-path="url(#p62bbc5da0a)" style="fill: none; stroke: #cccccc; stroke-opacity: 0.5; stroke-width: 0.8; stroke-linecap: round"/>
     </g>
     <g id="text_3">
      <!-- $\mathdefault{2017}$ -->
      <g transform="translate(391.089551 630.169676) scale(0.2 -0.2)">
       <defs>
        <path id="CMR17-37" d="M 2886 3941 
L 2886 4081 
L 1382 4081 
C 634 4081 621 4165 595 4288 
L 480 4288 
L 294 3094 
L 410 3094 
C 429 3215 474 3540 550 3661 
C 589 3712 1062 3712 1171 3712 
L 2579 3712 
L 1869 2661 
C 1395 1954 1069 999 1069 165 
C 1069 89 1069 -128 1299 -128 
C 1530 -128 1530 89 1530 171 
L 1530 465 
C 1530 1508 1709 2196 2003 2636 
L 2886 3941 
z
" transform="scale(0.015625)"/>
       </defs>
       <use xlink:href="#CMR17-32" transform="scale(0.996264)"/>
       <use xlink:href="#CMR17-30" transform="translate(45.690477 0) scale(0.996264)"/>
       <use xlink:href="#CMR17-31" transform="translate(91.380954 0) scale(0.996264)"/>
       <use xlink:href="#CMR17-37" transform="translate(137.071431 0) scale(0.996264)"/>
      </g>
     </g>
    </g>
    <g id="xtick_4">
     <g id="line2d_4">
      <path d="M 550.572087 612.832679 
L 550.572087 9.918738 
" clip-path="url(#p62bbc5da0a)" style="fill: none; stroke: #cccccc; stroke-opacity: 0.5; stroke-width: 0.8; stroke-linecap: round"/>
     </g>
     <g id="text_4">
      <!-- $\mathdefault{2018}$ -->
      <g transform="translate(532.295897 630.169676) scale(0.2 -0.2)">
       <defs>
        <path id="CMR17-38" d="M 1741 2264 
C 2144 2467 2554 2773 2554 3263 
C 2554 3841 1990 4179 1472 4179 
C 890 4179 378 3759 378 3180 
C 378 3021 416 2747 666 2505 
C 730 2442 998 2251 1171 2130 
C 883 1983 211 1634 211 934 
C 211 279 838 -128 1459 -128 
C 2144 -128 2720 362 2720 1010 
C 2720 1590 2330 1857 2074 2029 
L 1741 2264 
z
M 902 2822 
C 851 2854 595 3051 595 3351 
C 595 3739 998 4032 1459 4032 
C 1965 4032 2336 3676 2336 3262 
C 2336 2669 1670 2331 1638 2331 
C 1632 2331 1626 2331 1574 2370 
L 902 2822 
z
M 2080 1519 
C 2176 1449 2483 1240 2483 851 
C 2483 381 2010 25 1472 25 
C 890 25 448 438 448 940 
C 448 1443 838 1862 1280 2060 
L 2080 1519 
z
" transform="scale(0.015625)"/>
       </defs>
       <use xlink:href="#CMR17-32" transform="scale(0.996264)"/>
       <use xlink:href="#CMR17-30" transform="translate(45.690477 0) scale(0.996264)"/>
       <use xlink:href="#CMR17-31" transform="translate(91.380954 0) scale(0.996264)"/>
       <use xlink:href="#CMR17-38" transform="translate(137.071431 0) scale(0.996264)"/>
      </g>
     </g>
    </g>
    <g id="xtick_5">
     <g id="line2d_5">
      <path d="M 691.778433 612.832679 
L 691.778433 9.918738 
" clip-path="url(#p62bbc5da0a)" style="fill: none; stroke: #cccccc; stroke-opacity: 0.5; stroke-width: 0.8; stroke-linecap: round"/>
     </g>
     <g id="text_5">
      <!-- $\mathdefault{2019}$ -->
      <g transform="translate(673.502243 630.169676) scale(0.2 -0.2)">
       <defs>
        <path id="CMR17-39" d="M 2253 1864 
C 2253 464 1670 31 1190 31 
C 1043 31 685 31 538 294 
C 704 268 826 357 826 518 
C 826 692 685 749 595 749 
C 538 749 365 723 365 506 
C 365 71 742 -128 1203 -128 
C 1939 -128 2688 674 2688 2073 
C 2688 3817 1971 4179 1485 4179 
C 851 4179 243 3628 243 2778 
C 243 1991 762 1408 1414 1408 
C 1952 1408 2189 1903 2253 2112 
L 2253 1864 
z
M 1427 1510 
C 1254 1510 1011 1542 813 1922 
C 678 2169 678 2461 678 2771 
C 678 3146 678 3405 858 3684 
C 947 3817 1114 4032 1485 4032 
C 2240 4032 2240 2885 2240 2632 
C 2240 2182 2035 1510 1427 1510 
z
" transform="scale(0.015625)"/>
       </defs>
       <use xlink:href="#CMR17-32" transform="scale(0.996264)"/>
       <use xlink:href="#CMR17-30" transform="translate(45.690477 0) scale(0.996264)"/>
       <use xlink:href="#CMR17-31" transform="translate(91.380954 0) scale(0.996264)"/>
       <use xlink:href="#CMR17-39" transform="translate(137.071431 0) scale(0.996264)"/>
      </g>
     </g>
    </g>
    <g id="xtick_6">
     <g id="line2d_6">
      <path d="M 832.984779 612.832679 
L 832.984779 9.918738 
" clip-path="url(#p62bbc5da0a)" style="fill: none; stroke: #cccccc; stroke-opacity: 0.5; stroke-width: 0.8; stroke-linecap: round"/>
     </g>
     <g id="text_6">
      <!-- $\mathdefault{2020}$ -->
      <g transform="translate(814.708589 630.169676) scale(0.2 -0.2)">
       <use xlink:href="#CMR17-32" transform="scale(0.996264)"/>
       <use xlink:href="#CMR17-30" transform="translate(45.690477 0) scale(0.996264)"/>
       <use xlink:href="#CMR17-32" transform="translate(91.380954 0) scale(0.996264)"/>
       <use xlink:href="#CMR17-30" transform="translate(137.071431 0) scale(0.996264)"/>
      </g>
     </g>
    </g>
    <g id="xtick_7">
     <g id="line2d_7">
      <path d="M 974.577992 612.832679 
L 974.577992 9.918738 
" clip-path="url(#p62bbc5da0a)" style="fill: none; stroke: #cccccc; stroke-opacity: 0.5; stroke-width: 0.8; stroke-linecap: round"/>
     </g>
     <g id="text_7">
      <!-- $\mathdefault{2021}$ -->
      <g transform="translate(956.301801 630.169676) scale(0.2 -0.2)">
       <use xlink:href="#CMR17-32" transform="scale(0.996264)"/>
       <use xlink:href="#CMR17-30" transform="translate(45.690477 0) scale(0.996264)"/>
       <use xlink:href="#CMR17-32" transform="translate(91.380954 0) scale(0.996264)"/>
       <use xlink:href="#CMR17-31" transform="translate(137.071431 0) scale(0.996264)"/>
      </g>
     </g>
    </g>
    <g id="xtick_8">
     <g id="line2d_8">
      <path d="M 1115.784338 612.832679 
L 1115.784338 9.918738 
" clip-path="url(#p62bbc5da0a)" style="fill: none; stroke: #cccccc; stroke-opacity: 0.5; stroke-width: 0.8; stroke-linecap: round"/>
     </g>
     <g id="text_8">
      <!-- $\mathdefault{2022}$ -->
      <g transform="translate(1097.508147 630.169676) scale(0.2 -0.2)">
       <use xlink:href="#CMR17-32" transform="scale(0.996264)"/>
       <use xlink:href="#CMR17-30" transform="translate(45.690477 0) scale(0.996264)"/>
       <use xlink:href="#CMR17-32" transform="translate(91.380954 0) scale(0.996264)"/>
       <use xlink:href="#CMR17-32" transform="translate(137.071431 0) scale(0.996264)"/>
      </g>
     </g>
    </g>
    <g id="xtick_9">
     <g id="line2d_9">
      <path d="M 1256.990684 612.832679 
L 1256.990684 9.918738 
" clip-path="url(#p62bbc5da0a)" style="fill: none; stroke: #cccccc; stroke-opacity: 0.5; stroke-width: 0.8; stroke-linecap: round"/>
     </g>
     <g id="text_9">
      <!-- $\mathdefault{2023}$ -->
      <g transform="translate(1238.714493 630.169676) scale(0.2 -0.2)">
       <defs>
        <path id="CMR17-33" d="M 1414 2157 
C 1984 2157 2234 1662 2234 1090 
C 2234 320 1824 25 1453 25 
C 1114 25 563 194 390 693 
C 422 680 454 680 486 680 
C 640 680 755 782 755 948 
C 755 1133 614 1216 486 1216 
C 378 1216 211 1165 211 926 
C 211 335 787 -128 1466 -128 
C 2176 -128 2720 430 2720 1085 
C 2720 1707 2208 2157 1600 2227 
C 2086 2328 2554 2756 2554 3329 
C 2554 3820 2048 4179 1472 4179 
C 890 4179 378 3829 378 3329 
C 378 3110 544 3072 627 3072 
C 762 3072 877 3155 877 3321 
C 877 3486 762 3569 627 3569 
C 602 3569 570 3569 544 3557 
C 730 3959 1235 4032 1459 4032 
C 1683 4032 2106 3925 2106 3320 
C 2106 3143 2080 2828 1862 2550 
C 1670 2304 1453 2304 1242 2284 
C 1210 2284 1062 2269 1037 2269 
C 992 2263 966 2257 966 2208 
C 966 2163 973 2157 1101 2157 
L 1414 2157 
z
" transform="scale(0.015625)"/>
       </defs>
       <use xlink:href="#CMR17-32" transform="scale(0.996264)"/>
       <use xlink:href="#CMR17-30" transform="translate(45.690477 0) scale(0.996264)"/>
       <use xlink:href="#CMR17-32" transform="translate(91.380954 0) scale(0.996264)"/>
       <use xlink:href="#CMR17-33" transform="translate(137.071431 0) scale(0.996264)"/>
      </g>
     </g>
    </g>
    <g id="xtick_10">
     <g id="line2d_10">
      <path d="M 1398.19703 612.832679 
L 1398.19703 9.918738 
" clip-path="url(#p62bbc5da0a)" style="fill: none; stroke: #cccccc; stroke-opacity: 0.5; stroke-width: 0.8; stroke-linecap: round"/>
     </g>
     <g id="text_10">
      <!-- $\mathdefault{2024}$ -->
      <g transform="translate(1379.920839 630.169676) scale(0.2 -0.2)">
       <defs>
        <path id="CMR17-34" d="M 2150 4122 
C 2150 4256 2144 4256 2029 4256 
L 128 1254 
L 128 1088 
L 1779 1088 
L 1779 457 
C 1779 224 1766 160 1318 160 
L 1197 160 
L 1197 0 
C 1402 0 1747 0 1965 0 
C 2182 0 2528 0 2733 0 
L 2733 160 
L 2611 160 
C 2163 160 2150 224 2150 457 
L 2150 1088 
L 2803 1088 
L 2803 1254 
L 2150 1254 
L 2150 4122 
z
M 1798 3703 
L 1798 1254 
L 256 1254 
L 1798 3703 
z
" transform="scale(0.015625)"/>
       </defs>
       <use xlink:href="#CMR17-32" transform="scale(0.996264)"/>
       <use xlink:href="#CMR17-30" transform="translate(45.690477 0) scale(0.996264)"/>
       <use xlink:href="#CMR17-32" transform="translate(91.380954 0) scale(0.996264)"/>
       <use xlink:href="#CMR17-34" transform="translate(137.071431 0) scale(0.996264)"/>
      </g>
     </g>
    </g>
    <g id="text_11">
     <!-- Date -->
     <g style="fill: #696969" transform="translate(731.397135 651.882306) scale(0.2 -0.2)">
      <defs>
       <path id="CMR17-44" d="M 333 4352 
L 333 4186 
C 774 4186 845 4186 845 3900 
L 845 452 
C 845 166 774 166 333 166 
L 333 0 
L 2368 0 
C 3398 0 4224 943 4224 2141 
C 4224 3346 3411 4352 2368 4352 
L 333 4352 
z
M 1523 166 
C 1267 166 1254 197 1254 414 
L 1254 3938 
C 1254 4155 1267 4186 1523 4186 
L 2240 4186 
C 2771 4186 3750 3874 3750 2141 
C 3750 1242 3488 879 3366 707 
C 3213 510 2848 166 2240 166 
L 1523 166 
z
" transform="scale(0.015625)"/>
       <path id="CMR17-61" d="M 2304 1653 
C 2304 2072 2304 2294 2035 2543 
C 1798 2752 1523 2816 1306 2816 
C 800 2816 435 2407 435 1971 
C 435 1728 627 1728 666 1728 
C 749 1728 896 1778 896 1954 
C 896 2112 774 2181 666 2181 
C 640 2181 608 2174 589 2168 
C 723 2592 1069 2714 1293 2714 
C 1613 2714 1965 2429 1965 1885 
L 1965 1600 
C 1587 1600 1133 1549 774 1357 
C 371 1133 256 813 256 570 
C 256 77 832 -64 1171 -64 
C 1523 -64 1850 139 1990 511 
C 2003 233 2182 -18 2464 -18 
C 2598 -18 2938 70 2938 567 
L 2938 920 
L 2822 920 
L 2822 562 
C 2822 178 2650 128 2566 128 
C 2304 128 2304 458 2304 738 
L 2304 1653 
z
M 1965 870 
C 1965 317 1568 38 1216 38 
C 896 38 646 275 646 570 
C 646 761 730 1100 1101 1305 
C 1408 1478 1760 1504 1965 1504 
L 1965 870 
z
" transform="scale(0.015625)"/>
       <path id="CMR17-74" d="M 966 2560 
L 1862 2560 
L 1862 2725 
L 966 2725 
L 966 3904 
L 851 3904 
C 838 3245 614 2668 70 2668 
L 70 2560 
L 627 2560 
L 627 771 
C 627 650 627 -64 1370 -64 
C 1747 -64 1965 306 1965 777 
L 1965 1140 
L 1850 1140 
L 1850 783 
C 1850 344 1677 51 1408 51 
C 1222 51 966 178 966 758 
L 966 2560 
z
" transform="scale(0.015625)"/>
       <path id="CMR17-65" d="M 2438 1472 
C 2464 1498 2464 1511 2464 1576 
C 2464 2238 2118 2816 1389 2816 
C 710 2816 173 2169 173 1383 
C 173 551 781 -64 1459 -64 
C 2176 -64 2458 607 2458 740 
C 2458 784 2419 784 2406 784 
C 2362 784 2355 771 2330 696 
C 2189 265 1837 51 1504 51 
C 1229 51 954 203 781 480 
C 582 803 582 1176 582 1472 
L 2438 1472 
z
M 589 1568 
C 634 2505 1126 2714 1382 2714 
C 1818 2714 2112 2297 2118 1568 
L 589 1568 
z
" transform="scale(0.015625)"/>
      </defs>
      <use xlink:href="#CMR17-44" transform="scale(0.996264)"/>
      <use xlink:href="#CMR17-61" transform="translate(70.393556 0) scale(0.996264)"/>
      <use xlink:href="#CMR17-74" transform="translate(116.084033 0) scale(0.996264)"/>
      <use xlink:href="#CMR17-65" transform="translate(151.364801 0) scale(0.996264)"/>
     </g>
    </g>
   </g>
   <g id="matplotlib.axis_2">
    <g id="ytick_1">
     <g id="line2d_11">
      <path d="M 64.164584 612.832679 
L 1436.99976 612.832679 
" clip-path="url(#p62bbc5da0a)" style="fill: none; stroke: #cccccc; stroke-opacity: 0.5; stroke-width: 0.8; stroke-linecap: round"/>
     </g>
     <g id="text_12">
      <!-- $\mathdefault{−20}$ -->
      <g transform="translate(26.890906 619.751177) scale(0.2 -0.2)">
       <defs>
        <path id="CMSY10-0" d="M 4218 1472 
C 4326 1472 4442 1472 4442 1600 
C 4442 1728 4326 1728 4218 1728 
L 755 1728 
C 646 1728 531 1728 531 1600 
C 531 1472 646 1472 755 1472 
L 4218 1472 
z
" transform="scale(0.015625)"/>
       </defs>
       <use xlink:href="#CMSY10-0" transform="scale(0.996264)"/>
       <use xlink:href="#CMR17-32" transform="translate(77.487468 0) scale(0.996264)"/>
       <use xlink:href="#CMR17-30" transform="translate(123.177945 0) scale(0.996264)"/>
      </g>
     </g>
    </g>
    <g id="ytick_2">
     <g id="line2d_12">
      <path d="M 64.164584 512.347022 
L 1436.99976 512.347022 
" clip-path="url(#p62bbc5da0a)" style="fill: none; stroke: #cccccc; stroke-opacity: 0.5; stroke-width: 0.8; stroke-linecap: round"/>
     </g>
     <g id="text_13">
      <!-- $\mathdefault{0}$ -->
      <g transform="translate(51.526489 519.265521) scale(0.2 -0.2)">
       <use xlink:href="#CMR17-30" transform="scale(0.996264)"/>
      </g>
     </g>
    </g>
    <g id="ytick_3">
     <g id="line2d_13">
      <path d="M 64.164584 411.861365 
L 1436.99976 411.861365 
" clip-path="url(#p62bbc5da0a)" style="fill: none; stroke: #cccccc; stroke-opacity: 0.5; stroke-width: 0.8; stroke-linecap: round"/>
     </g>
     <g id="text_14">
      <!-- $\mathdefault{20}$ -->
      <g transform="translate(42.388393 418.779864) scale(0.2 -0.2)">
       <use xlink:href="#CMR17-32" transform="scale(0.996264)"/>
       <use xlink:href="#CMR17-30" transform="translate(45.690477 0) scale(0.996264)"/>
      </g>
     </g>
    </g>
    <g id="ytick_4">
     <g id="line2d_14">
      <path d="M 64.164584 311.375709 
L 1436.99976 311.375709 
" clip-path="url(#p62bbc5da0a)" style="fill: none; stroke: #cccccc; stroke-opacity: 0.5; stroke-width: 0.8; stroke-linecap: round"/>
     </g>
     <g id="text_15">
      <!-- $\mathdefault{40}$ -->
      <g transform="translate(42.388393 318.294207) scale(0.2 -0.2)">
       <use xlink:href="#CMR17-34" transform="scale(0.996264)"/>
       <use xlink:href="#CMR17-30" transform="translate(45.690477 0) scale(0.996264)"/>
      </g>
     </g>
    </g>
    <g id="ytick_5">
     <g id="line2d_15">
      <path d="M 64.164584 210.890052 
L 1436.99976 210.890052 
" clip-path="url(#p62bbc5da0a)" style="fill: none; stroke: #cccccc; stroke-opacity: 0.5; stroke-width: 0.8; stroke-linecap: round"/>
     </g>
     <g id="text_16">
      <!-- $\mathdefault{60}$ -->
      <g transform="translate(42.388393 217.80855) scale(0.2 -0.2)">
       <use xlink:href="#CMR17-36" transform="scale(0.996264)"/>
       <use xlink:href="#CMR17-30" transform="translate(45.690477 0) scale(0.996264)"/>
      </g>
     </g>
    </g>
    <g id="ytick_6">
     <g id="line2d_16">
      <path d="M 64.164584 110.404395 
L 1436.99976 110.404395 
" clip-path="url(#p62bbc5da0a)" style="fill: none; stroke: #cccccc; stroke-opacity: 0.5; stroke-width: 0.8; stroke-linecap: round"/>
     </g>
     <g id="text_17">
      <!-- $\mathdefault{80}$ -->
      <g transform="translate(42.388393 117.322894) scale(0.2 -0.2)">
       <use xlink:href="#CMR17-38" transform="scale(0.996264)"/>
       <use xlink:href="#CMR17-30" transform="translate(45.690477 0) scale(0.996264)"/>
      </g>
     </g>
    </g>
    <g id="ytick_7">
     <g id="line2d_17">
      <path d="M 64.164584 9.918738 
L 1436.99976 9.918738 
" clip-path="url(#p62bbc5da0a)" style="fill: none; stroke: #cccccc; stroke-opacity: 0.5; stroke-width: 0.8; stroke-linecap: round"/>
     </g>
     <g id="text_18">
      <!-- $\mathdefault{100}$ -->
      <g transform="translate(33.250298 16.837237) scale(0.2 -0.2)">
       <use xlink:href="#CMR17-31" transform="scale(0.996264)"/>
       <use xlink:href="#CMR17-30" transform="translate(45.690477 0) scale(0.996264)"/>
       <use xlink:href="#CMR17-30" transform="translate(91.380954 0) scale(0.996264)"/>
      </g>
     </g>
    </g>
    <g id="text_19">
     <!-- Total Contribution (mDKK) -->
     <g style="fill: #696969" transform="translate(17.926262 425.982242) rotate(-90) scale(0.2 -0.2)">
      <defs>
       <path id="CMR17-54" d="M 3981 4326 
L 288 4326 
L 179 2918 
L 294 2918 
C 378 3976 467 4160 1453 4160 
C 1568 4160 1754 4160 1805 4154 
C 1926 4135 1926 4058 1926 3912 
L 1926 459 
C 1926 230 1907 160 1376 160 
L 1197 160 
L 1197 0 
C 1504 0 1824 0 2138 0 
C 2451 0 2771 0 3078 0 
L 3078 160 
L 2899 160 
C 2368 160 2349 230 2349 459 
L 2349 3912 
C 2349 4052 2349 4129 2464 4154 
C 2515 4160 2701 4160 2816 4160 
C 3795 4160 3891 3976 3974 2918 
L 4090 2918 
L 3981 4326 
z
" transform="scale(0.015625)"/>
       <path id="CMR17-6f" d="M 2758 1356 
C 2758 2176 2163 2816 1466 2816 
C 768 2816 173 2176 173 1356 
C 173 551 768 -64 1466 -64 
C 2163 -64 2758 551 2758 1356 
z
M 1466 51 
C 1165 51 909 230 762 480 
C 602 767 582 1126 582 1408 
C 582 1677 595 2010 762 2298 
C 890 2509 1139 2714 1466 2714 
C 1754 2714 1997 2554 2150 2330 
C 2349 2029 2349 1607 2349 1408 
C 2349 1158 2336 775 2163 467 
C 1984 173 1709 51 1466 51 
z
" transform="scale(0.015625)"/>
       <path id="CMR17-6c" d="M 979 4396 
L 218 4326 
L 218 4160 
C 595 4160 653 4122 653 3817 
L 653 426 
C 653 184 627 153 218 153 
L 218 -13 
C 371 0 653 0 813 0 
C 979 0 1261 0 1414 -13 
L 1414 153 
C 1005 153 979 178 979 426 
L 979 4396 
z
" transform="scale(0.015625)"/>
       <path id="CMR17-43" d="M 3974 4289 
C 3974 4403 3968 4410 3930 4410 
C 3904 4410 3898 4403 3853 4327 
L 3571 3792 
C 3258 4187 2874 4416 2381 4416 
C 1286 4416 294 3456 294 2148 
C 294 826 1286 -128 2387 -128 
C 3366 -128 3974 730 3974 1461 
C 3974 1524 3974 1550 3917 1550 
C 3866 1550 3866 1531 3859 1474 
C 3808 585 3168 38 2477 38 
C 1824 38 781 495 781 2147 
C 781 3805 1843 4250 2464 4250 
C 3187 4250 3712 3628 3834 2745 
C 3846 2668 3846 2655 3904 2655 
C 3974 2655 3974 2668 3974 2783 
L 3974 4289 
z
" transform="scale(0.015625)"/>
       <path id="CMR17-6e" d="M 2656 1933 
C 2656 2259 2592 2790 1837 2790 
C 1331 2790 1069 2400 973 2144 
L 966 2144 
L 966 2790 
L 211 2720 
L 211 2554 
C 589 2554 646 2515 646 2208 
L 646 428 
C 646 184 621 153 211 153 
L 211 -13 
C 365 0 646 0 813 0 
C 979 0 1267 0 1421 -13 
L 1421 153 
C 1011 153 986 178 986 428 
L 986 1658 
C 986 2247 1344 2688 1792 2688 
C 2266 2688 2317 2266 2317 1958 
L 2317 428 
C 2317 184 2291 153 1882 153 
L 1882 -13 
C 2035 0 2317 0 2483 0 
C 2650 0 2938 0 3091 -13 
L 3091 153 
C 2682 153 2656 178 2656 428 
L 2656 1933 
z
" transform="scale(0.015625)"/>
       <path id="CMR17-72" d="M 960 1497 
C 960 2112 1222 2688 1702 2688 
C 1747 2688 1792 2682 1837 2662 
C 1837 2662 1696 2617 1696 2452 
C 1696 2298 1818 2234 1914 2234 
C 1990 2234 2131 2279 2131 2458 
C 2131 2663 1926 2790 1709 2790 
C 1222 2790 1011 2317 947 2093 
L 941 2093 
L 941 2790 
L 198 2720 
L 198 2554 
C 576 2554 634 2515 634 2208 
L 634 428 
C 634 184 608 153 198 153 
L 198 -13 
C 352 0 646 0 813 0 
C 998 0 1325 0 1498 -13 
L 1498 153 
C 1037 153 960 153 960 440 
L 960 1497 
z
" transform="scale(0.015625)"/>
       <path id="CMR17-69" d="M 992 3909 
C 992 4049 877 4170 730 4170 
C 589 4170 467 4056 467 3909 
C 467 3769 582 3648 730 3648 
C 870 3648 992 3763 992 3909 
z
M 243 2706 
L 243 2541 
C 602 2541 653 2502 653 2197 
L 653 427 
C 653 184 627 153 218 153 
L 218 -13 
C 371 0 646 0 806 0 
C 960 0 1222 0 1370 -13 
L 1370 153 
C 992 153 979 191 979 420 
L 979 2776 
L 243 2706 
z
" transform="scale(0.015625)"/>
       <path id="CMR17-62" d="M 960 4396 
L 198 4326 
L 198 4160 
C 576 4160 634 4122 634 3817 
L 634 -13 
L 749 -13 
L 934 441 
C 1120 141 1395 -64 1766 -64 
C 2406 -64 3053 500 3053 1370 
C 3053 2188 2477 2790 1830 2790 
C 1434 2790 1152 2579 960 2330 
L 960 4396 
z
M 973 2004 
C 973 2118 973 2138 1062 2272 
C 1312 2657 1670 2688 1792 2688 
C 1984 2688 2643 2585 2643 1376 
C 2643 108 1888 38 1734 38 
C 1536 38 1248 114 1043 486 
C 973 608 973 621 973 735 
L 973 2004 
z
" transform="scale(0.015625)"/>
       <path id="CMR17-75" d="M 1882 2693 
L 1882 2528 
C 2259 2528 2317 2489 2317 2186 
L 2317 1032 
C 2317 500 2029 38 1555 38 
C 1030 38 986 348 986 678 
L 986 2763 
L 211 2693 
L 211 2528 
C 467 2528 640 2528 646 2274 
L 646 1058 
C 646 633 646 361 813 183 
C 896 101 1056 -64 1517 -64 
C 2061 -64 2272 377 2323 506 
L 2330 506 
L 2330 -63 
L 3091 -63 
L 3091 128 
C 2714 128 2656 166 2656 473 
L 2656 2763 
L 1882 2693 
z
" transform="scale(0.015625)"/>
       <path id="CMR17-28" d="M 1958 -1561 
C 1958 -1555 1958 -1542 1939 -1523 
C 1645 -1224 858 -407 858 1581 
C 858 3569 1632 4379 1946 4697 
C 1946 4704 1958 4717 1958 4736 
C 1958 4755 1939 4768 1914 4768 
C 1843 4768 1299 4296 986 3594 
C 666 2887 576 2199 576 1588 
C 576 1128 621 351 1005 -471 
C 1312 -1135 1837 -1600 1914 -1600 
C 1946 -1600 1958 -1587 1958 -1561 
z
" transform="scale(0.015625)"/>
       <path id="CMR17-6d" d="M 4326 1933 
C 4326 2252 4269 2790 3507 2790 
C 3072 2790 2771 2496 2656 2151 
L 2650 2151 
C 2573 2676 2195 2790 1837 2790 
C 1331 2790 1069 2400 973 2144 
L 966 2144 
L 966 2790 
L 211 2720 
L 211 2554 
C 589 2554 646 2515 646 2208 
L 646 428 
C 646 184 621 153 211 153 
L 211 -13 
C 365 0 646 0 813 0 
C 979 0 1267 0 1421 -13 
L 1421 153 
C 1011 153 986 178 986 428 
L 986 1658 
C 986 2247 1344 2688 1792 2688 
C 2266 2688 2317 2266 2317 1958 
L 2317 428 
C 2317 184 2291 153 1882 153 
L 1882 -13 
C 2035 0 2317 0 2483 0 
C 2650 0 2938 0 3091 -13 
L 3091 153 
C 2682 153 2656 178 2656 428 
L 2656 1658 
C 2656 2247 3014 2688 3462 2688 
C 3936 2688 3987 2266 3987 1958 
L 3987 428 
C 3987 184 3962 153 3552 153 
L 3552 -13 
C 3706 0 3987 0 4154 0 
C 4320 0 4608 0 4762 -13 
L 4762 153 
C 4352 153 4326 178 4326 428 
L 4326 1933 
z
" transform="scale(0.015625)"/>
       <path id="CMR17-4b" d="M 2362 2675 
L 3469 3782 
C 3699 4006 3942 4186 4301 4186 
L 4301 4352 
C 4173 4352 4013 4352 3885 4352 
C 3712 4352 3411 4352 3245 4358 
L 3245 4192 
C 3411 4180 3437 4065 3437 4019 
C 3437 3975 3411 3905 3386 3867 
L 1261 1738 
L 1261 3900 
C 1261 4186 1331 4186 1773 4186 
L 1773 4352 
C 1587 4352 1248 4352 1050 4352 
C 851 4352 512 4352 326 4352 
L 326 4186 
C 768 4186 838 4186 838 3899 
L 838 446 
C 838 160 768 160 326 160 
L 326 0 
C 512 0 851 0 1050 0 
C 1248 0 1587 0 1773 0 
L 1773 160 
C 1331 160 1261 160 1261 447 
L 1261 1579 
L 2080 2390 
L 3290 537 
C 3328 473 3373 390 3373 326 
C 3373 160 3194 160 3110 160 
L 3110 0 
C 3315 0 3610 0 3821 0 
C 3974 0 4237 0 4384 -6 
L 4384 160 
C 4077 160 3981 198 3789 493 
L 2362 2675 
z
" transform="scale(0.015625)"/>
       <path id="CMR17-29" d="M 1683 1581 
C 1683 2040 1638 2817 1254 3639 
C 947 4303 422 4768 346 4768 
C 326 4768 301 4761 301 4729 
C 301 4717 307 4710 314 4697 
C 621 4378 1402 3568 1402 1584 
C 1402 -407 627 -1217 314 -1537 
C 307 -1549 301 -1556 301 -1568 
C 301 -1600 326 -1600 346 -1600 
C 416 -1600 960 -1128 1274 -426 
C 1594 281 1683 969 1683 1581 
z
" transform="scale(0.015625)"/>
      </defs>
      <use xlink:href="#CMR17-54" transform="scale(0.996264)"/>
      <use xlink:href="#CMR17-6f" transform="translate(58.702625 0) scale(0.996264)"/>
      <use xlink:href="#CMR17-74" transform="translate(104.393102 0) scale(0.996264)"/>
      <use xlink:href="#CMR17-61" transform="translate(139.67387 0) scale(0.996264)"/>
      <use xlink:href="#CMR17-6c" transform="translate(185.364347 0) scale(0.996264)"/>
      <use xlink:href="#CMR17-43" transform="translate(240.311372 0) scale(0.996264)"/>
      <use xlink:href="#CMR17-6f" transform="translate(306.821253 0) scale(0.996264)"/>
      <use xlink:href="#CMR17-6e" transform="translate(352.51173 0) scale(0.996264)"/>
      <use xlink:href="#CMR17-74" transform="translate(400.804646 0) scale(0.996264)"/>
      <use xlink:href="#CMR17-72" transform="translate(436.085413 0) scale(0.996264)"/>
      <use xlink:href="#CMR17-69" transform="translate(471.366181 0) scale(0.996264)"/>
      <use xlink:href="#CMR17-62" transform="translate(496.23724 0) scale(0.996264)"/>
      <use xlink:href="#CMR17-75" transform="translate(547.132609 0) scale(0.996264)"/>
      <use xlink:href="#CMR17-74" transform="translate(598.027979 0) scale(0.996264)"/>
      <use xlink:href="#CMR17-69" transform="translate(633.308747 0) scale(0.996264)"/>
      <use xlink:href="#CMR17-6f" transform="translate(658.179805 0) scale(0.996264)"/>
      <use xlink:href="#CMR17-6e" transform="translate(703.870283 0) scale(0.996264)"/>
      <use xlink:href="#CMR17-28" transform="translate(784.841619 0) scale(0.996264)"/>
      <use xlink:href="#CMR17-6d" transform="translate(820.122387 0) scale(0.996264)"/>
      <use xlink:href="#CMR17-44" transform="translate(897.041976 0) scale(0.996264)"/>
      <use xlink:href="#CMR17-4b" transform="translate(967.435532 0) scale(0.996264)"/>
      <use xlink:href="#CMR17-4b" transform="translate(1039.11031 0) scale(0.996264)"/>
      <use xlink:href="#CMR17-29" transform="translate(1110.785087 0) scale(0.996264)"/>
     </g>
    </g>
   </g>
   <g id="line2d_18">
    <path d="M 126.566183 389.82514 
L 138.559051 357.10327 
L 138.559051 357.10327 
L 149.391318 354.85868 
L 149.391318 354.85868 
L 161.384186 342.161389 
L 161.384186 342.161389 
L 172.990187 341.871006 
L 172.990187 341.871006 
L 184.983055 337.83986 
L 184.983055 337.83986 
L 196.589056 337.736651 
L 196.589056 337.736651 
L 208.581924 330.95786 
L 208.581924 330.95786 
L 220.574791 329.925235 
L 220.574791 329.925235 
L 232.180792 327.744731 
L 232.180792 327.744731 
L 244.17366 330.769563 
L 244.17366 330.769563 
L 255.779661 312.321772 
L 255.779661 312.321772 
L 267.772529 304.022649 
L 267.772529 304.022649 
L 279.765397 305.391378 
L 279.765397 305.391378 
L 290.984531 302.039959 
L 290.984531 302.039959 
L 302.977399 283.830664 
L 302.977399 283.830664 
L 314.5834 245.376549 
L 314.5834 245.376549 
L 326.576267 241.984234 
L 326.576267 241.984234 
L 338.182269 234.98201 
L 338.182269 234.98201 
L 350.175136 239.966024 
L 350.175136 239.966024 
L 362.168004 238.353611 
L 362.168004 238.353611 
L 373.774005 230.355209 
L 373.774005 230.355209 
L 385.766873 207.861515 
L 385.766873 207.861515 
L 397.372874 207.425145 
L 397.372874 207.425145 
L 409.365742 233.683508 
L 409.365742 233.683508 
L 421.358609 233.193755 
L 421.358609 233.193755 
L 432.190877 229.999484 
L 432.190877 229.999484 
L 444.183745 231.169164 
L 444.183745 231.169164 
L 455.789746 233.351597 
L 455.789746 233.351597 
L 467.782613 220.248242 
L 467.782613 220.248242 
L 479.388614 222.99972 
L 479.388614 222.99972 
L 491.381482 216.048729 
L 491.381482 216.048729 
L 503.37435 218.114574 
L 503.37435 218.114574 
L 514.980351 252.379181 
L 514.980351 252.379181 
L 526.973219 242.592579 
L 526.973219 242.592579 
L 538.57922 242.693044 
L 538.57922 242.693044 
L 550.572087 280.847625 
L 550.572087 280.847625 
L 562.564955 269.259663 
L 562.564955 269.259663 
L 573.397223 271.572829 
L 573.397223 271.572829 
L 585.390091 345.253118 
L 585.390091 345.253118 
L 596.996092 314.819862 
L 596.996092 314.819862 
L 608.988959 323.899223 
L 608.988959 323.899223 
L 620.59496 322.545988 
L 620.59496 322.545988 
L 632.587828 360.26199 
L 632.587828 360.26199 
L 644.580696 355.596506 
L 644.580696 355.596506 
L 656.186697 334.621918 
L 656.186697 334.621918 
L 668.179565 324.450713 
L 668.179565 324.450713 
L 679.785566 329.35236 
L 679.785566 329.35236 
L 691.778433 340.32387 
L 691.778433 340.32387 
L 703.771301 318.400338 
L 703.771301 318.400338 
L 714.603569 327.473079 
L 714.603569 327.473079 
L 726.596437 339.910582 
L 726.596437 339.910582 
L 738.202438 323.901959 
L 738.202438 323.901959 
L 750.195305 337.83934 
L 750.195305 337.83934 
L 761.801306 385.190077 
L 761.801306 385.190077 
L 773.794174 410.1946 
L 773.794174 410.1946 
L 785.787042 385.898909 
L 785.787042 385.898909 
L 797.393043 398.070238 
L 797.393043 398.070238 
L 809.385911 417.965052 
L 809.385911 417.965052 
L 820.991912 433.88353 
L 820.991912 433.88353 
L 832.984779 432.490178 
L 832.984779 432.490178 
L 844.977647 433.029168 
L 844.977647 433.029168 
L 856.196781 424.835225 
L 856.196781 424.835225 
L 868.189649 433.091722 
L 868.189649 433.091722 
L 879.79565 436.555763 
L 879.79565 436.555763 
L 891.788518 449.17986 
L 891.788518 449.17986 
L 903.394519 428.210834 
L 903.394519 428.210834 
L 915.387387 453.525352 
L 915.387387 453.525352 
L 927.380254 438.474242 
L 927.380254 438.474242 
L 938.986256 434.931172 
L 938.986256 434.931172 
L 950.979123 420.478366 
L 950.979123 420.478366 
L 962.585124 430.892752 
L 962.585124 430.892752 
L 974.577992 412.169247 
L 974.577992 412.169247 
L 986.57086 417.344647 
L 986.57086 417.344647 
L 997.403127 482.790248 
L 997.403127 482.790248 
L 1009.395995 461.749634 
L 1009.395995 461.749634 
L 1021.001996 460.694979 
L 1021.001996 460.694979 
L 1032.994864 462.457423 
L 1032.994864 462.457423 
L 1044.600865 465.634119 
L 1044.600865 465.634119 
L 1056.593733 457.084666 
L 1056.593733 457.084666 
L 1068.5866 458.737195 
L 1068.5866 458.737195 
L 1080.192601 463.342346 
L 1080.192601 463.342346 
L 1092.185469 468.464518 
L 1092.185469 468.464518 
L 1103.79147 459.696481 
L 1103.79147 459.696481 
L 1115.784338 466.123566 
L 1115.784338 466.123566 
L 1127.777206 465.696323 
L 1127.777206 465.696323 
L 1138.609473 462.496735 
L 1138.609473 462.496735 
L 1150.602341 462.296264 
L 1150.602341 462.296264 
L 1162.208342 468.404837 
L 1162.208342 468.404837 
L 1174.20121 483.269145 
L 1174.20121 483.269145 
L 1185.807211 505.764039 
L 1185.807211 505.764039 
L 1197.800079 477.767867 
L 1197.800079 477.767867 
L 1209.792946 477.014355 
L 1209.792946 477.014355 
L 1221.398947 496.437741 
L 1221.398947 496.437741 
L 1233.391815 481.341468 
L 1233.391815 481.341468 
L 1244.997816 482.643316 
L 1244.997816 482.643316 
L 1256.990684 519.933797 
L 1256.990684 519.933797 
L 1268.983552 509.197474 
L 1268.983552 509.197474 
L 1279.815819 513.94306 
L 1279.815819 513.94306 
L 1291.808687 506.394978 
L 1291.808687 506.394978 
L 1303.414688 509.883364 
L 1303.414688 509.883364 
L 1315.407556 530.9878 
L 1315.407556 530.9878 
L 1327.013557 505.808767 
L 1327.013557 505.808767 
L 1339.006425 503.402224 
L 1339.006425 503.402224 
L 1350.999292 539.822827 
L 1350.999292 539.822827 
L 1362.605293 514.239325 
L 1362.605293 514.239325 
L 1374.598161 521.854449 
L 1374.598161 521.854449 
" clip-path="url(#p62bbc5da0a)" style="fill: none; stroke-dasharray: 5.55,2.4; stroke-dashoffset: 0; stroke: #006e64; stroke-width: 1.5"/>
   </g>
   <g id="line2d_19">
    <path d="M 126.566183 427.596183 
L 138.559051 405.370575 
L 138.559051 405.370575 
L 149.391318 413.881278 
L 149.391318 413.881278 
L 161.384186 406.682897 
L 161.384186 406.682897 
L 172.990187 395.302878 
L 172.990187 395.302878 
L 184.983055 380.496841 
L 184.983055 380.496841 
L 196.589056 392.336283 
L 196.589056 392.336283 
L 208.581924 338.821639 
L 208.581924 338.821639 
L 220.574791 291.855716 
L 220.574791 291.855716 
L 232.180792 288.509595 
L 232.180792 288.509595 
L 244.17366 339.525901 
L 244.17366 339.525901 
L 255.779661 230.540336 
L 255.779661 230.540336 
L 267.772529 244.07852 
L 267.772529 244.07852 
L 279.765397 212.143486 
L 279.765397 212.143486 
L 290.984531 240.864246 
L 290.984531 240.864246 
L 302.977399 235.64153 
L 302.977399 235.64153 
L 314.5834 171.493703 
L 314.5834 171.493703 
L 326.576267 251.577809 
L 326.576267 251.577809 
L 338.182269 264.142346 
L 338.182269 264.142346 
L 350.175136 219.38537 
L 350.175136 219.38537 
L 362.168004 214.100591 
L 362.168004 214.100591 
L 373.774005 214.301689 
L 373.774005 214.301689 
L 385.766873 202.266394 
L 385.766873 202.266394 
L 397.372874 235.917804 
L 397.372874 235.917804 
L 409.365742 229.869292 
L 409.365742 229.869292 
L 421.358609 246.153396 
L 421.358609 246.153396 
L 432.190877 240.675236 
L 432.190877 240.675236 
L 444.183745 226.38483 
L 444.183745 226.38483 
L 455.789746 202.75343 
L 455.789746 202.75343 
L 467.782613 206.417054 
L 467.782613 206.417054 
L 479.388614 235.724767 
L 479.388614 235.724767 
L 491.381482 209.760068 
L 491.381482 209.760068 
L 503.37435 255.788898 
L 503.37435 255.788898 
L 514.980351 310.183519 
L 514.980351 310.183519 
L 526.973219 243.556413 
L 526.973219 243.556413 
L 538.57922 257.933565 
L 538.57922 257.933565 
L 550.572087 216.861261 
L 550.572087 216.861261 
L 562.564955 218.34302 
L 562.564955 218.34302 
L 573.397223 225.308633 
L 573.397223 225.308633 
L 585.390091 284.838412 
L 585.390091 284.838412 
L 596.996092 304.190571 
L 596.996092 304.190571 
L 608.988959 373.570959 
L 608.988959 373.570959 
L 620.59496 362.675433 
L 620.59496 362.675433 
L 632.587828 336.417279 
L 632.587828 336.417279 
L 644.580696 356.142597 
L 644.580696 356.142597 
L 656.186697 285.887506 
L 656.186697 285.887506 
L 668.179565 280.386507 
L 668.179565 280.386507 
L 679.785566 225.100496 
L 679.785566 225.100496 
L 691.778433 286.836793 
L 691.778433 286.836793 
L 703.771301 240.094517 
L 703.771301 240.094517 
L 714.603569 232.011256 
L 714.603569 232.011256 
L 726.596437 257.935291 
L 726.596437 257.935291 
L 738.202438 239.051635 
L 738.202438 239.051635 
L 750.195305 266.303663 
L 750.195305 266.303663 
L 761.801306 382.71145 
L 761.801306 382.71145 
L 773.794174 385.098188 
L 773.794174 385.098188 
L 785.787042 385.976215 
L 785.787042 385.976215 
L 797.393043 328.049717 
L 797.393043 328.049717 
L 809.385911 383.500917 
L 809.385911 383.500917 
L 820.991912 399.98703 
L 820.991912 399.98703 
L 832.984779 371.199477 
L 832.984779 371.199477 
L 844.977647 399.371143 
L 844.977647 399.371143 
L 856.196781 413.488085 
L 856.196781 413.488085 
L 868.189649 446.241356 
L 868.189649 446.241356 
L 879.79565 426.692097 
L 879.79565 426.692097 
L 891.788518 429.355748 
L 891.788518 429.355748 
L 903.394519 406.715754 
L 903.394519 406.715754 
L 915.387387 404.759755 
L 915.387387 404.759755 
L 927.380254 392.19627 
L 927.380254 392.19627 
L 938.986256 395.225526 
L 938.986256 395.225526 
L 950.979123 400.705756 
L 950.979123 400.705756 
L 962.585124 358.122279 
L 962.585124 358.122279 
L 974.577992 407.640238 
L 974.577992 407.640238 
L 986.57086 404.289732 
L 986.57086 404.289732 
L 997.403127 444.842395 
L 997.403127 444.842395 
L 1009.395995 436.229592 
L 1009.395995 436.229592 
L 1021.001996 401.849228 
L 1021.001996 401.849228 
L 1032.994864 411.287307 
L 1032.994864 411.287307 
L 1044.600865 423.787348 
L 1044.600865 423.787348 
L 1056.593733 414.801891 
L 1056.593733 414.801891 
L 1068.5866 425.70255 
L 1068.5866 425.70255 
L 1080.192601 440.188039 
L 1080.192601 440.188039 
L 1092.185469 440.563045 
L 1092.185469 440.563045 
L 1103.79147 398.500353 
L 1103.79147 398.500353 
L 1115.784338 449.785688 
L 1115.784338 449.785688 
L 1127.777206 477.742639 
L 1127.777206 477.742639 
L 1138.609473 438.792718 
L 1138.609473 438.792718 
L 1150.602341 478.15159 
L 1150.602341 478.15159 
L 1162.208342 470.503502 
L 1162.208342 470.503502 
L 1174.20121 497.541121 
L 1174.20121 497.541121 
L 1185.807211 476.492399 
L 1185.807211 476.492399 
L 1197.800079 466.338569 
L 1197.800079 466.338569 
L 1209.792946 481.639976 
L 1209.792946 481.639976 
L 1221.398947 491.593244 
L 1221.398947 491.593244 
L 1233.391815 467.570161 
L 1233.391815 467.570161 
L 1244.997816 481.50744 
L 1244.997816 481.50744 
L 1256.990684 484.960987 
L 1256.990684 484.960987 
L 1268.983552 486.553485 
L 1268.983552 486.553485 
L 1279.815819 495.328489 
L 1279.815819 495.328489 
L 1291.808687 469.617314 
L 1291.808687 469.617314 
L 1303.414688 487.441182 
L 1303.414688 487.441182 
L 1315.407556 492.902118 
L 1315.407556 492.902118 
L 1327.013557 499.084406 
L 1327.013557 499.084406 
L 1339.006425 498.98897 
L 1339.006425 498.98897 
L 1350.999292 518.58169 
L 1350.999292 518.58169 
L 1362.605293 494.10441 
L 1362.605293 494.10441 
L 1374.598161 514.325637 
L 1374.598161 514.325637 
" clip-path="url(#p62bbc5da0a)" style="fill: none; stroke: #734848; stroke-width: 1.5; stroke-linecap: round"/>
   </g>
   <g id="patch_3">
    <path d="M 64.164584 612.832679 
L 64.164584 9.918738 
" style="fill: none; stroke: #808080; stroke-width: 0.8; stroke-linejoin: miter; stroke-linecap: square"/>
   </g>
   <g id="patch_4">
    <path d="M 64.164584 612.832679 
L 1436.99976 612.832679 
" style="fill: none; stroke: #808080; stroke-width: 0.8; stroke-linejoin: miter; stroke-linecap: square"/>
   </g>
   <g id="legend_1">
    <g id="patch_5">
     <path d="M 560.471824 716.999707 
L 940.69252 716.999707 
Q 944.69252 716.999707 944.69252 712.999707 
L 944.69252 687.124073 
Q 944.69252 683.124073 940.69252 683.124073 
L 560.471824 683.124073 
Q 556.471824 683.124073 556.471824 687.124073 
L 556.471824 712.999707 
Q 556.471824 716.999707 560.471824 716.999707 
z
" style="fill: #ffffff; opacity: 0.8"/>
    </g>
    <g id="line2d_20">
     <path d="M 564.471824 698.124073 
L 584.471824 698.124073 
L 604.471824 698.124073 
" style="fill: none; stroke-dasharray: 5.55,2.4; stroke-dashoffset: 0; stroke: #006e64; stroke-width: 1.5"/>
    </g>
    <g id="text_20">
     <!-- Actual -->
     <g style="fill: #262626" transform="translate(620.471824 705.124073) scale(0.2 -0.2)">
      <defs>
       <path id="CMR17-41" d="M 2323 4378 
C 2291 4461 2278 4480 2214 4480 
C 2150 4480 2138 4461 2106 4378 
L 749 566 
C 627 223 371 153 147 153 
L 147 -13 
C 262 0 518 0 640 0 
C 800 0 1056 0 1210 -13 
L 1210 153 
C 909 153 864 361 864 439 
C 864 497 877 530 890 569 
L 1229 1536 
L 2906 1536 
L 3290 442 
C 3322 365 3322 352 3322 327 
C 3322 153 3046 153 2925 153 
L 2925 0 
C 3110 0 3443 0 3642 0 
C 3808 0 4128 0 4282 -13 
L 4282 153 
C 3942 153 3827 153 3744 387 
L 2323 4378 
z
M 2067 3893 
L 2848 1702 
L 1286 1702 
L 2067 3893 
z
" transform="scale(0.015625)"/>
       <path id="CMR17-63" d="M 2234 2240 
C 2112 2240 1933 2240 1933 2017 
C 1933 1838 2080 1787 2163 1787 
C 2208 1787 2394 1807 2394 2024 
C 2394 2467 1958 2803 1466 2803 
C 787 2803 211 2178 211 1363 
C 211 516 813 -64 1466 -64 
C 2259 -64 2458 677 2458 748 
C 2458 774 2451 793 2406 793 
C 2362 793 2355 787 2330 703 
C 2163 180 1798 51 1523 51 
C 1114 51 621 427 621 1369 
C 621 2338 1094 2688 1472 2688 
C 1722 2688 2093 2573 2234 2240 
z
" transform="scale(0.015625)"/>
      </defs>
      <use xlink:href="#CMR17-41" transform="scale(0.996264)"/>
      <use xlink:href="#CMR17-63" transform="translate(69.07243 0) scale(0.996264)"/>
      <use xlink:href="#CMR17-74" transform="translate(109.55809 0) scale(0.996264)"/>
      <use xlink:href="#CMR17-75" transform="translate(144.838858 0) scale(0.996264)"/>
      <use xlink:href="#CMR17-61" transform="translate(195.734228 0) scale(0.996264)"/>
      <use xlink:href="#CMR17-6c" transform="translate(241.424705 0) scale(0.996264)"/>
     </g>
    </g>
    <g id="line2d_21">
     <path d="M 713.730949 698.124073 
L 733.730949 698.124073 
L 753.730949 698.124073 
" style="fill: none; stroke: #734848; stroke-width: 1.5; stroke-linecap: round"/>
    </g>
    <g id="text_21">
     <!-- Cluster Combination -->
     <g style="fill: #262626" transform="translate(769.730949 705.124073) scale(0.2 -0.2)">
      <defs>
       <path id="CMR17-73" d="M 1978 2697 
C 1978 2813 1971 2819 1933 2819 
C 1907 2819 1901 2813 1824 2717 
C 1805 2691 1747 2626 1728 2601 
C 1523 2819 1235 2819 1126 2819 
C 416 2819 160 2447 160 2076 
C 160 1498 813 1365 998 1325 
C 1402 1243 1542 1217 1677 1101 
C 1760 1025 1901 884 1901 654 
C 1901 384 1747 38 1158 38 
C 602 38 403 460 288 1021 
C 269 1110 269 1117 218 1117 
C 166 1117 160 1110 160 983 
L 160 63 
C 160 -51 166 -58 205 -58 
C 237 -58 243 -51 275 0 
C 314 57 410 211 448 276 
C 576 103 800 -64 1158 -64 
C 1792 -64 2131 283 2131 784 
C 2131 1112 1958 1285 1875 1362 
C 1683 1561 1459 1606 1190 1657 
C 838 1735 390 1825 390 2217 
C 390 2383 480 2737 1126 2737 
C 1811 2737 1850 2094 1862 1888 
C 1869 1856 1901 1849 1920 1849 
C 1978 1849 1978 1869 1978 1978 
L 1978 2697 
z
" transform="scale(0.015625)"/>
      </defs>
      <use xlink:href="#CMR17-43" transform="scale(0.996264)"/>
      <use xlink:href="#CMR17-6c" transform="translate(66.509881 0) scale(0.996264)"/>
      <use xlink:href="#CMR17-75" transform="translate(91.380939 0) scale(0.996264)"/>
      <use xlink:href="#CMR17-73" transform="translate(142.276309 0) scale(0.996264)"/>
      <use xlink:href="#CMR17-74" transform="translate(178.077646 0) scale(0.996264)"/>
      <use xlink:href="#CMR17-65" transform="translate(213.358414 0) scale(0.996264)"/>
      <use xlink:href="#CMR17-72" transform="translate(253.844075 0) scale(0.996264)"/>
      <use xlink:href="#CMR17-43" transform="translate(319.200809 0) scale(0.996264)"/>
      <use xlink:href="#CMR17-6f" transform="translate(385.710689 0) scale(0.996264)"/>
      <use xlink:href="#CMR17-6d" transform="translate(431.401167 0) scale(0.996264)"/>
      <use xlink:href="#CMR17-62" transform="translate(505.718302 0) scale(0.996264)"/>
      <use xlink:href="#CMR17-69" transform="translate(556.613672 0) scale(0.996264)"/>
      <use xlink:href="#CMR17-6e" transform="translate(581.484731 0) scale(0.996264)"/>
      <use xlink:href="#CMR17-61" transform="translate(632.380101 0) scale(0.996264)"/>
      <use xlink:href="#CMR17-74" transform="translate(678.070578 0) scale(0.996264)"/>
      <use xlink:href="#CMR17-69" transform="translate(713.351345 0) scale(0.996264)"/>
      <use xlink:href="#CMR17-6f" transform="translate(738.222404 0) scale(0.996264)"/>
      <use xlink:href="#CMR17-6e" transform="translate(783.912881 0) scale(0.996264)"/>
     </g>
    </g>
   </g>
  </g>
 </g>
 <defs>
  <clipPath id="p62bbc5da0a">
   <rect x="64.164584" y="9.918738" width="1372.835176" height="602.913941"/>
  </clipPath>
 </defs>
</svg>
