<?xml version="1.0" encoding="utf-8" standalone="no"?>
<!DOCTYPE svg PUBLIC "-//W3C//DTD SVG 1.1//EN"
  "http://www.w3.org/Graphics/SVG/1.1/DTD/svg11.dtd">
<svg xmlns:xlink="http://www.w3.org/1999/xlink" width="1440pt" height="720pt" viewBox="0 0 1440 720" xmlns="http://www.w3.org/2000/svg" version="1.1">
 <metadata>
  <rdf:RDF xmlns:dc="http://purl.org/dc/elements/1.1/" xmlns:cc="http://creativecommons.org/ns#" xmlns:rdf="http://www.w3.org/1999/02/22-rdf-syntax-ns#">
   <cc:Work>
    <dc:type rdf:resource="http://purl.org/dc/dcmitype/StillImage"/>
    <dc:date>2023-11-08T18:32:31.744564</dc:date>
    <dc:format>image/svg+xml</dc:format>
    <dc:creator>
     <cc:Agent>
      <dc:title>Matplotlib v3.8.0, https://matplotlib.org/</dc:title>
     </cc:Agent>
    </dc:creator>
   </cc:Work>
  </rdf:RDF>
 </metadata>
 <defs>
  <style type="text/css">*{stroke-linejoin: round; stroke-linecap: butt}</style>
 </defs>
 <g id="figure_1">
  <g id="patch_1">
   <path d="M 0 720 
L 1440 720 
L 1440 0 
L 0 0 
z
" style="fill: #ffffff"/>
  </g>
  <g id="axes_1">
   <g id="patch_2">
    <path d="M 61.046592 612.198293 
L 1427.861665 612.198293 
L 1427.861665 3.00024 
L 61.046592 3.00024 
z
" style="fill: #ffffff"/>
   </g>
   <g id="matplotlib.axis_1">
    <g id="xtick_1">
     <g id="line2d_1">
      <path d="M 155.931119 612.198293 
L 155.931119 3.00024 
" clip-path="url(#p749b480513)" style="fill: none; stroke: #cccccc; stroke-opacity: 0.35; stroke-width: 0.8; stroke-linecap: round"/>
     </g>
     <g id="text_1">
      <!-- $\mathdefault{−50}$ -->
      <g transform="translate(139.04428 629.535289) scale(0.2 -0.2)">
       <defs>
        <path id="CMSY10-0" d="M 4218 1472 
C 4326 1472 4442 1472 4442 1600 
C 4442 1728 4326 1728 4218 1728 
L 755 1728 
C 646 1728 531 1728 531 1600 
C 531 1472 646 1472 755 1472 
L 4218 1472 
z
" transform="scale(0.015625)"/>
        <path id="CMR17-35" d="M 730 3692 
C 794 3666 1056 3584 1325 3584 
C 1920 3584 2246 3911 2432 4100 
C 2432 4157 2432 4192 2394 4192 
C 2387 4192 2374 4192 2323 4163 
C 2099 4058 1837 3973 1517 3973 
C 1325 3973 1037 3999 723 4139 
C 653 4171 640 4171 634 4171 
C 602 4171 595 4164 595 4037 
L 595 2203 
C 595 2089 595 2057 659 2057 
C 691 2057 704 2070 736 2114 
C 941 2401 1222 2522 1542 2522 
C 1766 2522 2246 2382 2246 1289 
C 2246 1085 2246 715 2054 421 
C 1894 159 1645 25 1370 25 
C 947 25 518 320 403 814 
C 429 807 480 795 506 795 
C 589 795 749 840 749 1038 
C 749 1210 627 1280 506 1280 
C 358 1280 262 1190 262 1011 
C 262 454 704 -128 1382 -128 
C 2042 -128 2669 440 2669 1264 
C 2669 2030 2170 2624 1549 2624 
C 1222 2624 947 2503 730 2274 
L 730 3692 
z
" transform="scale(0.015625)"/>
        <path id="CMR17-30" d="M 2688 2025 
C 2688 2416 2682 3080 2413 3591 
C 2176 4039 1798 4198 1466 4198 
C 1158 4198 768 4058 525 3597 
C 269 3118 243 2524 243 2025 
C 243 1661 250 1106 448 619 
C 723 -39 1216 -128 1466 -128 
C 1760 -128 2208 -7 2470 600 
C 2662 1042 2688 1559 2688 2025 
z
M 1466 -26 
C 1056 -26 813 325 723 812 
C 653 1188 653 1738 653 2096 
C 653 2588 653 2997 736 3387 
C 858 3929 1216 4096 1466 4096 
C 1728 4096 2067 3923 2189 3400 
C 2272 3036 2278 2607 2278 2096 
C 2278 1680 2278 1169 2202 792 
C 2067 95 1690 -26 1466 -26 
z
" transform="scale(0.015625)"/>
       </defs>
       <use xlink:href="#CMSY10-0" transform="scale(0.996264)"/>
       <use xlink:href="#CMR17-35" transform="translate(77.487468 0) scale(0.996264)"/>
       <use xlink:href="#CMR17-30" transform="translate(123.177945 0) scale(0.996264)"/>
      </g>
     </g>
    </g>
    <g id="xtick_2">
     <g id="line2d_2">
      <path d="M 367.919543 612.198293 
L 367.919543 3.00024 
" clip-path="url(#p749b480513)" style="fill: none; stroke: #cccccc; stroke-opacity: 0.35; stroke-width: 0.8; stroke-linecap: round"/>
     </g>
     <g id="text_2">
      <!-- $\mathdefault{−40}$ -->
      <g transform="translate(351.032704 629.535289) scale(0.2 -0.2)">
       <defs>
        <path id="CMR17-34" d="M 2150 4122 
C 2150 4256 2144 4256 2029 4256 
L 128 1254 
L 128 1088 
L 1779 1088 
L 1779 457 
C 1779 224 1766 160 1318 160 
L 1197 160 
L 1197 0 
C 1402 0 1747 0 1965 0 
C 2182 0 2528 0 2733 0 
L 2733 160 
L 2611 160 
C 2163 160 2150 224 2150 457 
L 2150 1088 
L 2803 1088 
L 2803 1254 
L 2150 1254 
L 2150 4122 
z
M 1798 3703 
L 1798 1254 
L 256 1254 
L 1798 3703 
z
" transform="scale(0.015625)"/>
       </defs>
       <use xlink:href="#CMSY10-0" transform="scale(0.996264)"/>
       <use xlink:href="#CMR17-34" transform="translate(77.487468 0) scale(0.996264)"/>
       <use xlink:href="#CMR17-30" transform="translate(123.177945 0) scale(0.996264)"/>
      </g>
     </g>
    </g>
    <g id="xtick_3">
     <g id="line2d_3">
      <path d="M 579.907968 612.198293 
L 579.907968 3.00024 
" clip-path="url(#p749b480513)" style="fill: none; stroke: #cccccc; stroke-opacity: 0.35; stroke-width: 0.8; stroke-linecap: round"/>
     </g>
     <g id="text_3">
      <!-- $\mathdefault{−30}$ -->
      <g transform="translate(563.021128 629.535289) scale(0.2 -0.2)">
       <defs>
        <path id="CMR17-33" d="M 1414 2157 
C 1984 2157 2234 1662 2234 1090 
C 2234 320 1824 25 1453 25 
C 1114 25 563 194 390 693 
C 422 680 454 680 486 680 
C 640 680 755 782 755 948 
C 755 1133 614 1216 486 1216 
C 378 1216 211 1165 211 926 
C 211 335 787 -128 1466 -128 
C 2176 -128 2720 430 2720 1085 
C 2720 1707 2208 2157 1600 2227 
C 2086 2328 2554 2756 2554 3329 
C 2554 3820 2048 4179 1472 4179 
C 890 4179 378 3829 378 3329 
C 378 3110 544 3072 627 3072 
C 762 3072 877 3155 877 3321 
C 877 3486 762 3569 627 3569 
C 602 3569 570 3569 544 3557 
C 730 3959 1235 4032 1459 4032 
C 1683 4032 2106 3925 2106 3320 
C 2106 3143 2080 2828 1862 2550 
C 1670 2304 1453 2304 1242 2284 
C 1210 2284 1062 2269 1037 2269 
C 992 2263 966 2257 966 2208 
C 966 2163 973 2157 1101 2157 
L 1414 2157 
z
" transform="scale(0.015625)"/>
       </defs>
       <use xlink:href="#CMSY10-0" transform="scale(0.996264)"/>
       <use xlink:href="#CMR17-33" transform="translate(77.487468 0) scale(0.996264)"/>
       <use xlink:href="#CMR17-30" transform="translate(123.177945 0) scale(0.996264)"/>
      </g>
     </g>
    </g>
    <g id="xtick_4">
     <g id="line2d_4">
      <path d="M 791.896392 612.198293 
L 791.896392 3.00024 
" clip-path="url(#p749b480513)" style="fill: none; stroke: #cccccc; stroke-opacity: 0.35; stroke-width: 0.8; stroke-linecap: round"/>
     </g>
     <g id="text_4">
      <!-- $\mathdefault{−20}$ -->
      <g transform="translate(775.009553 629.535289) scale(0.2 -0.2)">
       <defs>
        <path id="CMR17-32" d="M 2669 989 
L 2554 989 
C 2490 536 2438 459 2413 420 
C 2381 369 1920 369 1830 369 
L 602 369 
C 832 619 1280 1072 1824 1597 
C 2214 1967 2669 2402 2669 3035 
C 2669 3790 2067 4224 1395 4224 
C 691 4224 262 3604 262 3030 
C 262 2780 448 2748 525 2748 
C 589 2748 781 2787 781 3010 
C 781 3207 614 3264 525 3264 
C 486 3264 448 3258 422 3245 
C 544 3790 915 4058 1306 4058 
C 1862 4058 2227 3617 2227 3035 
C 2227 2479 1901 2000 1536 1584 
L 262 146 
L 262 0 
L 2515 0 
L 2669 989 
z
" transform="scale(0.015625)"/>
       </defs>
       <use xlink:href="#CMSY10-0" transform="scale(0.996264)"/>
       <use xlink:href="#CMR17-32" transform="translate(77.487468 0) scale(0.996264)"/>
       <use xlink:href="#CMR17-30" transform="translate(123.177945 0) scale(0.996264)"/>
      </g>
     </g>
    </g>
    <g id="xtick_5">
     <g id="line2d_5">
      <path d="M 1003.884816 612.198293 
L 1003.884816 3.00024 
" clip-path="url(#p749b480513)" style="fill: none; stroke: #cccccc; stroke-opacity: 0.35; stroke-width: 0.8; stroke-linecap: round"/>
     </g>
     <g id="text_5">
      <!-- $\mathdefault{−10}$ -->
      <g transform="translate(986.997977 629.535289) scale(0.2 -0.2)">
       <defs>
        <path id="CMR17-31" d="M 1702 4058 
C 1702 4192 1696 4192 1606 4192 
C 1357 3916 979 3827 621 3827 
C 602 3827 570 3827 563 3808 
C 557 3795 557 3782 557 3648 
C 755 3648 1088 3686 1344 3839 
L 1344 461 
C 1344 236 1331 160 781 160 
L 589 160 
L 589 0 
C 896 0 1216 0 1523 0 
C 1830 0 2150 0 2458 0 
L 2458 160 
L 2266 160 
C 1715 160 1702 230 1702 458 
L 1702 4058 
z
" transform="scale(0.015625)"/>
       </defs>
       <use xlink:href="#CMSY10-0" transform="scale(0.996264)"/>
       <use xlink:href="#CMR17-31" transform="translate(77.487468 0) scale(0.996264)"/>
       <use xlink:href="#CMR17-30" transform="translate(123.177945 0) scale(0.996264)"/>
      </g>
     </g>
    </g>
    <g id="xtick_6">
     <g id="line2d_6">
      <path d="M 1215.87324 612.198293 
L 1215.87324 3.00024 
" clip-path="url(#p749b480513)" style="fill: none; stroke: #cccccc; stroke-opacity: 0.35; stroke-width: 0.8; stroke-linecap: round"/>
     </g>
     <g id="text_6">
      <!-- $\mathdefault{0}$ -->
      <g transform="translate(1211.304193 629.535289) scale(0.2 -0.2)">
       <use xlink:href="#CMR17-30" transform="scale(0.996264)"/>
      </g>
     </g>
    </g>
    <g id="xtick_7">
     <g id="line2d_7">
      <path d="M 1427.861665 612.198293 
L 1427.861665 3.00024 
" clip-path="url(#p749b480513)" style="fill: none; stroke: #cccccc; stroke-opacity: 0.35; stroke-width: 0.8; stroke-linecap: round"/>
     </g>
     <g id="text_7">
      <!-- $\mathdefault{10}$ -->
      <g transform="translate(1418.723569 629.535289) scale(0.2 -0.2)">
       <use xlink:href="#CMR17-31" transform="scale(0.996264)"/>
       <use xlink:href="#CMR17-30" transform="translate(45.690477 0) scale(0.996264)"/>
      </g>
     </g>
    </g>
    <g id="text_8">
     <!-- Costs (mDKK) -->
     <g style="fill: #696969" transform="translate(683.415749 652.336945) scale(0.2 -0.2)">
      <defs>
       <path id="CMR17-43" d="M 3974 4289 
C 3974 4403 3968 4410 3930 4410 
C 3904 4410 3898 4403 3853 4327 
L 3571 3792 
C 3258 4187 2874 4416 2381 4416 
C 1286 4416 294 3456 294 2148 
C 294 826 1286 -128 2387 -128 
C 3366 -128 3974 730 3974 1461 
C 3974 1524 3974 1550 3917 1550 
C 3866 1550 3866 1531 3859 1474 
C 3808 585 3168 38 2477 38 
C 1824 38 781 495 781 2147 
C 781 3805 1843 4250 2464 4250 
C 3187 4250 3712 3628 3834 2745 
C 3846 2668 3846 2655 3904 2655 
C 3974 2655 3974 2668 3974 2783 
L 3974 4289 
z
" transform="scale(0.015625)"/>
       <path id="CMR17-6f" d="M 2758 1356 
C 2758 2176 2163 2816 1466 2816 
C 768 2816 173 2176 173 1356 
C 173 551 768 -64 1466 -64 
C 2163 -64 2758 551 2758 1356 
z
M 1466 51 
C 1165 51 909 230 762 480 
C 602 767 582 1126 582 1408 
C 582 1677 595 2010 762 2298 
C 890 2509 1139 2714 1466 2714 
C 1754 2714 1997 2554 2150 2330 
C 2349 2029 2349 1607 2349 1408 
C 2349 1158 2336 775 2163 467 
C 1984 173 1709 51 1466 51 
z
" transform="scale(0.015625)"/>
       <path id="CMR17-73" d="M 1978 2697 
C 1978 2813 1971 2819 1933 2819 
C 1907 2819 1901 2813 1824 2717 
C 1805 2691 1747 2626 1728 2601 
C 1523 2819 1235 2819 1126 2819 
C 416 2819 160 2447 160 2076 
C 160 1498 813 1365 998 1325 
C 1402 1243 1542 1217 1677 1101 
C 1760 1025 1901 884 1901 654 
C 1901 384 1747 38 1158 38 
C 602 38 403 460 288 1021 
C 269 1110 269 1117 218 1117 
C 166 1117 160 1110 160 983 
L 160 63 
C 160 -51 166 -58 205 -58 
C 237 -58 243 -51 275 0 
C 314 57 410 211 448 276 
C 576 103 800 -64 1158 -64 
C 1792 -64 2131 283 2131 784 
C 2131 1112 1958 1285 1875 1362 
C 1683 1561 1459 1606 1190 1657 
C 838 1735 390 1825 390 2217 
C 390 2383 480 2737 1126 2737 
C 1811 2737 1850 2094 1862 1888 
C 1869 1856 1901 1849 1920 1849 
C 1978 1849 1978 1869 1978 1978 
L 1978 2697 
z
" transform="scale(0.015625)"/>
       <path id="CMR17-74" d="M 966 2560 
L 1862 2560 
L 1862 2725 
L 966 2725 
L 966 3904 
L 851 3904 
C 838 3245 614 2668 70 2668 
L 70 2560 
L 627 2560 
L 627 771 
C 627 650 627 -64 1370 -64 
C 1747 -64 1965 306 1965 777 
L 1965 1140 
L 1850 1140 
L 1850 783 
C 1850 344 1677 51 1408 51 
C 1222 51 966 178 966 758 
L 966 2560 
z
" transform="scale(0.015625)"/>
       <path id="CMR17-28" d="M 1958 -1561 
C 1958 -1555 1958 -1542 1939 -1523 
C 1645 -1224 858 -407 858 1581 
C 858 3569 1632 4379 1946 4697 
C 1946 4704 1958 4717 1958 4736 
C 1958 4755 1939 4768 1914 4768 
C 1843 4768 1299 4296 986 3594 
C 666 2887 576 2199 576 1588 
C 576 1128 621 351 1005 -471 
C 1312 -1135 1837 -1600 1914 -1600 
C 1946 -1600 1958 -1587 1958 -1561 
z
" transform="scale(0.015625)"/>
       <path id="CMR17-6d" d="M 4326 1933 
C 4326 2252 4269 2790 3507 2790 
C 3072 2790 2771 2496 2656 2151 
L 2650 2151 
C 2573 2676 2195 2790 1837 2790 
C 1331 2790 1069 2400 973 2144 
L 966 2144 
L 966 2790 
L 211 2720 
L 211 2554 
C 589 2554 646 2515 646 2208 
L 646 428 
C 646 184 621 153 211 153 
L 211 -13 
C 365 0 646 0 813 0 
C 979 0 1267 0 1421 -13 
L 1421 153 
C 1011 153 986 178 986 428 
L 986 1658 
C 986 2247 1344 2688 1792 2688 
C 2266 2688 2317 2266 2317 1958 
L 2317 428 
C 2317 184 2291 153 1882 153 
L 1882 -13 
C 2035 0 2317 0 2483 0 
C 2650 0 2938 0 3091 -13 
L 3091 153 
C 2682 153 2656 178 2656 428 
L 2656 1658 
C 2656 2247 3014 2688 3462 2688 
C 3936 2688 3987 2266 3987 1958 
L 3987 428 
C 3987 184 3962 153 3552 153 
L 3552 -13 
C 3706 0 3987 0 4154 0 
C 4320 0 4608 0 4762 -13 
L 4762 153 
C 4352 153 4326 178 4326 428 
L 4326 1933 
z
" transform="scale(0.015625)"/>
       <path id="CMR17-44" d="M 333 4352 
L 333 4186 
C 774 4186 845 4186 845 3900 
L 845 452 
C 845 166 774 166 333 166 
L 333 0 
L 2368 0 
C 3398 0 4224 943 4224 2141 
C 4224 3346 3411 4352 2368 4352 
L 333 4352 
z
M 1523 166 
C 1267 166 1254 197 1254 414 
L 1254 3938 
C 1254 4155 1267 4186 1523 4186 
L 2240 4186 
C 2771 4186 3750 3874 3750 2141 
C 3750 1242 3488 879 3366 707 
C 3213 510 2848 166 2240 166 
L 1523 166 
z
" transform="scale(0.015625)"/>
       <path id="CMR17-4b" d="M 2362 2675 
L 3469 3782 
C 3699 4006 3942 4186 4301 4186 
L 4301 4352 
C 4173 4352 4013 4352 3885 4352 
C 3712 4352 3411 4352 3245 4358 
L 3245 4192 
C 3411 4180 3437 4065 3437 4019 
C 3437 3975 3411 3905 3386 3867 
L 1261 1738 
L 1261 3900 
C 1261 4186 1331 4186 1773 4186 
L 1773 4352 
C 1587 4352 1248 4352 1050 4352 
C 851 4352 512 4352 326 4352 
L 326 4186 
C 768 4186 838 4186 838 3899 
L 838 446 
C 838 160 768 160 326 160 
L 326 0 
C 512 0 851 0 1050 0 
C 1248 0 1587 0 1773 0 
L 1773 160 
C 1331 160 1261 160 1261 447 
L 1261 1579 
L 2080 2390 
L 3290 537 
C 3328 473 3373 390 3373 326 
C 3373 160 3194 160 3110 160 
L 3110 0 
C 3315 0 3610 0 3821 0 
C 3974 0 4237 0 4384 -6 
L 4384 160 
C 4077 160 3981 198 3789 493 
L 2362 2675 
z
" transform="scale(0.015625)"/>
       <path id="CMR17-29" d="M 1683 1581 
C 1683 2040 1638 2817 1254 3639 
C 947 4303 422 4768 346 4768 
C 326 4768 301 4761 301 4729 
C 301 4717 307 4710 314 4697 
C 621 4378 1402 3568 1402 1584 
C 1402 -407 627 -1217 314 -1537 
C 307 -1549 301 -1556 301 -1568 
C 301 -1600 326 -1600 346 -1600 
C 416 -1600 960 -1128 1274 -426 
C 1594 281 1683 969 1683 1581 
z
" transform="scale(0.015625)"/>
      </defs>
      <use xlink:href="#CMR17-43" transform="scale(0.996264)"/>
      <use xlink:href="#CMR17-6f" transform="translate(66.509881 0) scale(0.996264)"/>
      <use xlink:href="#CMR17-73" transform="translate(112.200358 0) scale(0.996264)"/>
      <use xlink:href="#CMR17-74" transform="translate(148.001695 0) scale(0.996264)"/>
      <use xlink:href="#CMR17-73" transform="translate(183.282463 0) scale(0.996264)"/>
      <use xlink:href="#CMR17-28" transform="translate(249.159767 0) scale(0.996264)"/>
      <use xlink:href="#CMR17-6d" transform="translate(284.440535 0) scale(0.996264)"/>
      <use xlink:href="#CMR17-44" transform="translate(361.360125 0) scale(0.996264)"/>
      <use xlink:href="#CMR17-4b" transform="translate(431.753681 0) scale(0.996264)"/>
      <use xlink:href="#CMR17-4b" transform="translate(503.428458 0) scale(0.996264)"/>
      <use xlink:href="#CMR17-29" transform="translate(575.103235 0) scale(0.996264)"/>
     </g>
    </g>
   </g>
   <g id="matplotlib.axis_2">
    <g id="ytick_1">
     <g id="line2d_8">
      <path d="M 61.046592 612.198293 
L 1427.861665 612.198293 
" clip-path="url(#p749b480513)" style="fill: none; stroke: #cccccc; stroke-opacity: 0.35; stroke-width: 0.8; stroke-linecap: round"/>
     </g>
     <g id="text_9">
      <!-- $\mathdefault{0.00}$ -->
      <g transform="translate(24.71287 619.116791) scale(0.2 -0.2)">
       <defs>
        <path id="CMMI12-3a" d="M 1178 307 
C 1178 492 1024 619 870 619 
C 685 619 557 466 557 313 
C 557 128 710 0 864 0 
C 1050 0 1178 153 1178 307 
z
" transform="scale(0.015625)"/>
       </defs>
       <use xlink:href="#CMR17-30" transform="scale(0.996264)"/>
       <use xlink:href="#CMMI12-3a" transform="translate(45.690477 0) scale(0.996264)"/>
       <use xlink:href="#CMR17-30" transform="translate(72.787654 0) scale(0.996264)"/>
       <use xlink:href="#CMR17-30" transform="translate(118.478131 0) scale(0.996264)"/>
      </g>
     </g>
    </g>
    <g id="ytick_2">
     <g id="line2d_9">
      <path d="M 61.046592 504.850738 
L 1427.861665 504.850738 
" clip-path="url(#p749b480513)" style="fill: none; stroke: #cccccc; stroke-opacity: 0.35; stroke-width: 0.8; stroke-linecap: round"/>
     </g>
     <g id="text_10">
      <!-- $\mathdefault{0.02}$ -->
      <g transform="translate(24.71287 511.769236) scale(0.2 -0.2)">
       <use xlink:href="#CMR17-30" transform="scale(0.996264)"/>
       <use xlink:href="#CMMI12-3a" transform="translate(45.690477 0) scale(0.996264)"/>
       <use xlink:href="#CMR17-30" transform="translate(72.787654 0) scale(0.996264)"/>
       <use xlink:href="#CMR17-32" transform="translate(118.478131 0) scale(0.996264)"/>
      </g>
     </g>
    </g>
    <g id="ytick_3">
     <g id="line2d_10">
      <path d="M 61.046592 397.503182 
L 1427.861665 397.503182 
" clip-path="url(#p749b480513)" style="fill: none; stroke: #cccccc; stroke-opacity: 0.35; stroke-width: 0.8; stroke-linecap: round"/>
     </g>
     <g id="text_11">
      <!-- $\mathdefault{0.04}$ -->
      <g transform="translate(24.71287 404.421681) scale(0.2 -0.2)">
       <use xlink:href="#CMR17-30" transform="scale(0.996264)"/>
       <use xlink:href="#CMMI12-3a" transform="translate(45.690477 0) scale(0.996264)"/>
       <use xlink:href="#CMR17-30" transform="translate(72.787654 0) scale(0.996264)"/>
       <use xlink:href="#CMR17-34" transform="translate(118.478131 0) scale(0.996264)"/>
      </g>
     </g>
    </g>
    <g id="ytick_4">
     <g id="line2d_11">
      <path d="M 61.046592 290.155627 
L 1427.861665 290.155627 
" clip-path="url(#p749b480513)" style="fill: none; stroke: #cccccc; stroke-opacity: 0.35; stroke-width: 0.8; stroke-linecap: round"/>
     </g>
     <g id="text_12">
      <!-- $\mathdefault{0.06}$ -->
      <g transform="translate(24.71287 297.074126) scale(0.2 -0.2)">
       <defs>
        <path id="CMR17-36" d="M 678 2176 
C 678 3690 1395 4032 1811 4032 
C 1946 4032 2272 4009 2400 3776 
C 2298 3776 2106 3776 2106 3553 
C 2106 3381 2246 3323 2336 3323 
C 2394 3323 2566 3348 2566 3560 
C 2566 3954 2246 4179 1805 4179 
C 1043 4179 243 3390 243 1984 
C 243 253 966 -128 1478 -128 
C 2099 -128 2688 427 2688 1283 
C 2688 2081 2170 2662 1517 2662 
C 1126 2662 838 2407 678 1960 
L 678 2176 
z
M 1478 25 
C 691 25 691 1200 691 1436 
C 691 1896 909 2560 1504 2560 
C 1613 2560 1926 2560 2138 2120 
C 2253 1870 2253 1609 2253 1289 
C 2253 944 2253 690 2118 434 
C 1978 171 1773 25 1478 25 
z
" transform="scale(0.015625)"/>
       </defs>
       <use xlink:href="#CMR17-30" transform="scale(0.996264)"/>
       <use xlink:href="#CMMI12-3a" transform="translate(45.690477 0) scale(0.996264)"/>
       <use xlink:href="#CMR17-30" transform="translate(72.787654 0) scale(0.996264)"/>
       <use xlink:href="#CMR17-36" transform="translate(118.478131 0) scale(0.996264)"/>
      </g>
     </g>
    </g>
    <g id="ytick_5">
     <g id="line2d_12">
      <path d="M 61.046592 182.808072 
L 1427.861665 182.808072 
" clip-path="url(#p749b480513)" style="fill: none; stroke: #cccccc; stroke-opacity: 0.35; stroke-width: 0.8; stroke-linecap: round"/>
     </g>
     <g id="text_13">
      <!-- $\mathdefault{0.08}$ -->
      <g transform="translate(24.71287 189.72657) scale(0.2 -0.2)">
       <defs>
        <path id="CMR17-38" d="M 1741 2264 
C 2144 2467 2554 2773 2554 3263 
C 2554 3841 1990 4179 1472 4179 
C 890 4179 378 3759 378 3180 
C 378 3021 416 2747 666 2505 
C 730 2442 998 2251 1171 2130 
C 883 1983 211 1634 211 934 
C 211 279 838 -128 1459 -128 
C 2144 -128 2720 362 2720 1010 
C 2720 1590 2330 1857 2074 2029 
L 1741 2264 
z
M 902 2822 
C 851 2854 595 3051 595 3351 
C 595 3739 998 4032 1459 4032 
C 1965 4032 2336 3676 2336 3262 
C 2336 2669 1670 2331 1638 2331 
C 1632 2331 1626 2331 1574 2370 
L 902 2822 
z
M 2080 1519 
C 2176 1449 2483 1240 2483 851 
C 2483 381 2010 25 1472 25 
C 890 25 448 438 448 940 
C 448 1443 838 1862 1280 2060 
L 2080 1519 
z
" transform="scale(0.015625)"/>
       </defs>
       <use xlink:href="#CMR17-30" transform="scale(0.996264)"/>
       <use xlink:href="#CMMI12-3a" transform="translate(45.690477 0) scale(0.996264)"/>
       <use xlink:href="#CMR17-30" transform="translate(72.787654 0) scale(0.996264)"/>
       <use xlink:href="#CMR17-38" transform="translate(118.478131 0) scale(0.996264)"/>
      </g>
     </g>
    </g>
    <g id="ytick_6">
     <g id="line2d_13">
      <path d="M 61.046592 75.460517 
L 1427.861665 75.460517 
" clip-path="url(#p749b480513)" style="fill: none; stroke: #cccccc; stroke-opacity: 0.35; stroke-width: 0.8; stroke-linecap: round"/>
     </g>
     <g id="text_14">
      <!-- $\mathdefault{0.10}$ -->
      <g transform="translate(24.71287 82.379015) scale(0.2 -0.2)">
       <use xlink:href="#CMR17-30" transform="scale(0.996264)"/>
       <use xlink:href="#CMMI12-3a" transform="translate(45.690477 0) scale(0.996264)"/>
       <use xlink:href="#CMR17-31" transform="translate(72.787654 0) scale(0.996264)"/>
       <use xlink:href="#CMR17-30" transform="translate(118.478131 0) scale(0.996264)"/>
      </g>
     </g>
    </g>
    <g id="text_15">
     <!-- Density -->
     <g style="fill: #696969" transform="translate(16.837237 337.941066) rotate(-90) scale(0.2 -0.2)">
      <defs>
       <path id="CMR17-65" d="M 2438 1472 
C 2464 1498 2464 1511 2464 1576 
C 2464 2238 2118 2816 1389 2816 
C 710 2816 173 2169 173 1383 
C 173 551 781 -64 1459 -64 
C 2176 -64 2458 607 2458 740 
C 2458 784 2419 784 2406 784 
C 2362 784 2355 771 2330 696 
C 2189 265 1837 51 1504 51 
C 1229 51 954 203 781 480 
C 582 803 582 1176 582 1472 
L 2438 1472 
z
M 589 1568 
C 634 2505 1126 2714 1382 2714 
C 1818 2714 2112 2297 2118 1568 
L 589 1568 
z
" transform="scale(0.015625)"/>
       <path id="CMR17-6e" d="M 2656 1933 
C 2656 2259 2592 2790 1837 2790 
C 1331 2790 1069 2400 973 2144 
L 966 2144 
L 966 2790 
L 211 2720 
L 211 2554 
C 589 2554 646 2515 646 2208 
L 646 428 
C 646 184 621 153 211 153 
L 211 -13 
C 365 0 646 0 813 0 
C 979 0 1267 0 1421 -13 
L 1421 153 
C 1011 153 986 178 986 428 
L 986 1658 
C 986 2247 1344 2688 1792 2688 
C 2266 2688 2317 2266 2317 1958 
L 2317 428 
C 2317 184 2291 153 1882 153 
L 1882 -13 
C 2035 0 2317 0 2483 0 
C 2650 0 2938 0 3091 -13 
L 3091 153 
C 2682 153 2656 178 2656 428 
L 2656 1933 
z
" transform="scale(0.015625)"/>
       <path id="CMR17-69" d="M 992 3909 
C 992 4049 877 4170 730 4170 
C 589 4170 467 4056 467 3909 
C 467 3769 582 3648 730 3648 
C 870 3648 992 3763 992 3909 
z
M 243 2706 
L 243 2541 
C 602 2541 653 2502 653 2197 
L 653 427 
C 653 184 627 153 218 153 
L 218 -13 
C 371 0 646 0 806 0 
C 960 0 1222 0 1370 -13 
L 1370 153 
C 992 153 979 191 979 420 
L 979 2776 
L 243 2706 
z
" transform="scale(0.015625)"/>
       <path id="CMR17-79" d="M 2496 2197 
C 2656 2586 2944 2586 3034 2586 
L 3034 2752 
C 2912 2752 2752 2752 2630 2752 
C 2496 2752 2285 2752 2157 2758 
L 2157 2592 
C 2400 2573 2406 2394 2406 2343 
C 2406 2280 2394 2248 2362 2171 
L 1664 449 
L 902 2306 
C 870 2382 870 2426 870 2433 
C 870 2573 1018 2586 1171 2586 
L 1171 2758 
C 1018 2752 742 2752 582 2752 
C 410 2752 205 2752 64 2758 
L 64 2586 
C 410 2586 448 2554 531 2350 
L 1485 15 
C 1197 -738 1030 -1178 627 -1178 
C 557 -1178 397 -1159 282 -1044 
C 429 -1031 493 -942 493 -833 
C 493 -725 416 -629 288 -629 
C 147 -629 77 -725 77 -840 
C 77 -1095 339 -1280 627 -1280 
C 998 -1280 1229 -922 1357 -604 
L 2496 2197 
z
" transform="scale(0.015625)"/>
      </defs>
      <use xlink:href="#CMR17-44" transform="scale(0.996264)"/>
      <use xlink:href="#CMR17-65" transform="translate(70.393556 0) scale(0.996264)"/>
      <use xlink:href="#CMR17-6e" transform="translate(110.879216 0) scale(0.996264)"/>
      <use xlink:href="#CMR17-73" transform="translate(161.774586 0) scale(0.996264)"/>
      <use xlink:href="#CMR17-69" transform="translate(197.575924 0) scale(0.996264)"/>
      <use xlink:href="#CMR17-74" transform="translate(222.446982 0) scale(0.996264)"/>
      <use xlink:href="#CMR17-79" transform="translate(255.125296 0) scale(0.996264)"/>
     </g>
    </g>
   </g>
   <g id="line2d_14">
    <path d="M -1 610.652115 
L 1.841432 610.415238 
L 8.650185 609.689317 
L 15.458939 608.811966 
L 42.693955 604.790896 
L 49.502709 604.08118 
L 56.311462 603.666539 
L 63.120216 603.596761 
L 69.92897 603.880388 
L 76.737724 604.482992 
L 83.546478 605.334052 
L 110.781493 609.363259 
L 117.590247 610.150427 
L 124.399001 610.779413 
L 131.207755 611.255339 
L 144.825262 611.830772 
L 158.44277 612.077044 
L 185.677785 612.190268 
L 246.95657 612.156447 
L 267.382832 611.951884 
L 281.000339 611.545903 
L 287.809093 611.201084 
L 294.617847 610.73622 
L 301.426601 610.142126 
L 315.044109 608.609202 
L 328.661616 606.893106 
L 335.47037 606.136424 
L 342.279124 605.549936 
L 349.087878 605.194968 
L 355.896632 605.103859 
L 362.705385 605.270497 
L 369.514139 605.647232 
L 389.940401 607.059712 
L 396.749155 607.214024 
L 403.557909 607.010527 
L 410.366662 606.358594 
L 417.175416 605.199932 
L 423.98417 603.514992 
L 430.792924 601.327679 
L 437.601678 598.708157 
L 444.410432 595.772925 
L 458.027939 589.624512 
L 464.836693 586.814606 
L 471.645447 584.460787 
L 478.454201 582.748133 
L 485.262955 581.814249 
L 492.071708 581.730542 
L 498.880462 582.491625 
L 505.689216 584.015409 
L 512.49797 586.154198 
L 519.306724 588.714637 
L 532.924232 594.245754 
L 539.732985 596.815864 
L 546.541739 599.037124 
L 553.350493 600.79131 
L 560.159247 601.995368 
L 566.968001 602.597329 
L 573.776755 602.574102 
L 580.585508 601.933577 
L 587.394262 600.721012 
L 594.203016 599.026888 
L 601.01177 596.991506 
L 614.629278 592.673767 
L 621.438032 590.831366 
L 628.246785 589.468888 
L 635.055539 588.721766 
L 641.864293 588.643554 
L 648.673047 589.198681 
L 655.481801 590.272195 
L 662.290555 591.693151 
L 675.908062 594.789287 
L 682.716816 596.090929 
L 689.52557 597.017243 
L 696.334324 597.438341 
L 703.143078 597.240018 
L 709.951832 596.321609 
L 716.760585 594.603521 
L 723.569339 592.045434 
L 730.378093 588.670872 
L 737.186847 584.589759 
L 743.995601 580.009273 
L 750.804355 575.225508 
L 757.613108 570.593581 
L 764.421862 566.480194 
L 771.230616 563.208206 
L 778.03937 561.005507 
L 784.848124 559.969558 
L 791.656878 560.054791 
L 798.465632 561.084189 
L 805.274385 562.780757 
L 818.891893 566.831736 
L 825.700647 568.532677 
L 832.509401 569.670633 
L 839.318155 570.092879 
L 846.126908 569.749522 
L 852.935662 568.694677 
L 859.744416 567.07589 
L 880.170678 561.137781 
L 886.979432 559.542341 
L 893.788185 558.323943 
L 907.405693 556.489603 
L 914.214447 555.231879 
L 921.023201 553.148146 
L 927.831955 549.773216 
L 934.640708 544.741077 
L 941.449462 537.871783 
L 948.258216 529.230432 
L 955.06697 519.143644 
L 968.684478 497.013285 
L 975.493232 486.438963 
L 982.301985 477.135041 
L 989.110739 469.6161 
L 995.919493 464.141355 
L 1002.728247 460.674152 
L 1009.537001 458.885125 
L 1016.345755 458.19641 
L 1023.154508 457.858515 
L 1029.963262 457.047417 
L 1036.772016 454.967046 
L 1043.58077 450.941721 
L 1050.389524 444.484546 
L 1057.198278 435.331843 
L 1064.007032 423.440407 
L 1070.815785 408.952496 
L 1077.624539 392.140812 
L 1084.433293 373.349172 
L 1091.242047 352.942535 
L 1098.050801 331.272862 
L 1104.859555 308.658324 
L 1111.668308 285.367359 
L 1125.285816 237.465941 
L 1132.09457 212.975317 
L 1138.903324 188.059036 
L 1145.712078 162.64592 
L 1159.329585 110.911999 
L 1166.138339 85.867734 
L 1172.947093 63.178503 
L 1179.755847 44.954944 
L 1186.564601 33.713398 
L 1193.373355 32.009671 
L 1200.182108 41.962925 
L 1206.990862 64.776824 
L 1213.799616 100.382438 
L 1220.60837 147.306516 
L 1227.417124 202.813253 
L 1234.225878 263.294583 
L 1241.034632 324.817509 
L 1247.843385 383.699239 
L 1254.652139 436.982856 
L 1261.460893 482.724557 
L 1268.269647 520.061848 
L 1275.078401 549.089734 
L 1281.887155 570.611352 
L 1288.695908 585.842659 
L 1295.504662 596.14002 
L 1302.313416 602.794243 
L 1309.12217 606.906285 
L 1315.930924 609.337222 
L 1315.930924 609.337222 
" clip-path="url(#p749b480513)" style="fill: none; stroke: #006e64; stroke-width: 1.5; stroke-linecap: round"/>
   </g>
   <g id="line2d_15">
    <path d="M -1 611.2898 
L 41.568412 609.968515 
L 52.89248 609.805154 
L 64.216548 609.823931 
L 75.540616 610.023865 
L 120.836888 611.406513 
L 132.160956 611.54854 
L 143.485023 611.527964 
L 154.809091 611.33565 
L 166.133159 610.972851 
L 177.457227 610.451157 
L 200.105363 609.058243 
L 222.753499 607.637305 
L 234.077567 607.149202 
L 245.401634 606.926911 
L 256.725702 607.012625 
L 268.04977 607.389959 
L 290.697906 608.685529 
L 302.021974 609.372651 
L 313.346042 609.948398 
L 324.67011 610.351422 
L 335.994178 610.553551 
L 347.318245 610.540683 
L 358.642313 610.287362 
L 369.966381 609.738015 
L 381.290449 608.806988 
L 392.614517 607.403472 
L 403.938585 605.477144 
L 415.262653 603.069389 
L 437.910789 597.608262 
L 449.234856 595.224741 
L 460.558924 593.57461 
L 471.882992 592.942801 
L 483.20706 593.445563 
L 494.531128 594.994765 
L 505.855196 597.315099 
L 528.503332 602.644264 
L 539.827399 604.846606 
L 551.151467 606.355691 
L 562.475535 607.053584 
L 573.799603 606.96027 
L 585.123671 606.210734 
L 596.447739 605.019092 
L 619.095875 602.250076 
L 641.74401 599.839974 
L 653.068078 598.625611 
L 664.392146 597.11222 
L 675.716214 595.053184 
L 687.040282 592.263351 
L 698.36435 588.659348 
L 709.688418 584.274194 
L 721.012486 579.261572 
L 743.660621 568.592556 
L 754.984689 563.835493 
L 766.308757 560.150019 
L 777.632825 557.970802 
L 788.956893 557.528982 
L 800.280961 558.772148 
L 811.605029 561.355833 
L 834.253165 568.180432 
L 845.577232 571.147479 
L 856.9013 573.188477 
L 868.225368 574.141721 
L 879.549436 574.09881 
L 890.873504 573.287196 
L 902.197572 571.872247 
L 913.52164 569.760389 
L 924.845708 566.513521 
L 936.169776 561.451955 
L 947.493843 553.929929 
L 958.817911 543.66125 
L 970.141979 530.919981 
L 981.466047 516.484355 
L 1015.438251 471.020535 
L 1026.762319 455.422934 
L 1038.086387 438.344336 
L 1049.410454 418.807235 
L 1060.734522 396.238463 
L 1072.05859 370.612189 
L 1083.382658 342.298793 
L 1094.706726 311.741744 
L 1106.030794 279.167701 
L 1117.354862 244.505478 
L 1128.67893 207.604367 
L 1140.002998 168.759887 
L 1151.327065 129.458583 
L 1162.651133 93.089023 
L 1173.975201 65.172185 
L 1185.299269 52.63196 
L 1196.623337 61.957433 
L 1207.947405 96.759935 
L 1219.271473 155.810121 
L 1230.595541 232.659692 
L 1241.919609 317.245462 
L 1253.243676 398.83108 
L 1264.567744 468.95376 
L 1275.891812 523.154387 
L 1287.21588 561.037508 
L 1298.539948 585.066287 
L 1309.864016 598.931246 
L 1321.188084 606.221758 
L 1332.512152 609.719624 
L 1343.836219 611.25238 
L 1343.836219 611.25238 
" clip-path="url(#p749b480513)" style="fill: none; stroke: #734848; stroke-width: 1.5; stroke-linecap: round"/>
   </g>
   <g id="line2d_16">
    <path d="M -1 610.469107 
L 24.128199 609.527465 
L 49.68635 608.396276 
L 62.465426 607.957051 
L 75.244501 607.662391 
L 100.802652 607.416547 
L 126.360803 607.379598 
L 151.918953 607.570675 
L 177.477104 608.108977 
L 215.81433 609.046246 
L 241.372481 609.349588 
L 292.488783 609.739101 
L 330.826009 610.29259 
L 343.605084 610.363631 
L 356.38416 610.265018 
L 369.163235 609.898139 
L 381.942311 609.146367 
L 394.721386 607.899162 
L 407.500461 606.099487 
L 420.279537 603.803042 
L 445.837688 598.710782 
L 458.616763 596.700429 
L 471.395838 595.557385 
L 484.174914 595.458647 
L 496.953989 596.318756 
L 509.733065 597.812056 
L 522.51214 599.478943 
L 535.291216 600.868008 
L 548.070291 601.656821 
L 560.849366 601.714092 
L 573.628442 601.096579 
L 586.407517 599.995603 
L 650.302894 593.357969 
L 663.08197 591.766879 
L 675.861045 589.81675 
L 688.64012 587.442321 
L 701.419196 584.613496 
L 714.198271 581.318405 
L 726.977347 577.589416 
L 752.535497 569.579132 
L 765.314573 566.093471 
L 778.093648 563.652498 
L 790.872724 562.68637 
L 803.651799 563.351422 
L 816.430874 565.431568 
L 841.989025 571.238502 
L 854.768101 573.204997 
L 867.547176 573.468671 
L 880.326251 571.563398 
L 893.105327 567.374297 
L 905.884402 561.051002 
L 918.663478 552.859909 
L 931.442553 543.086285 
L 944.221628 532.047615 
L 957.000704 520.168864 
L 969.779779 507.99347 
L 982.558855 496.037987 
L 1008.117005 473.161539 
L 1020.896081 461.098534 
L 1033.675156 447.176539 
L 1046.454232 430.291534 
L 1059.233307 409.704999 
L 1072.012382 385.12334 
L 1084.791458 356.53952 
L 1097.570533 323.990913 
L 1110.349609 287.457709 
L 1123.128684 247.079126 
L 1135.907759 203.737058 
L 1148.686835 159.874238 
L 1161.46591 120.179382 
L 1174.244986 91.567218 
L 1187.024061 81.93672 
L 1199.803136 97.71638 
L 1212.582212 141.058415 
L 1225.361287 208.132092 
L 1238.140363 289.672744 
L 1250.919438 373.765908 
L 1263.698514 449.557984 
L 1276.477589 510.12491 
L 1289.256664 553.385203 
L 1302.03574 581.138997 
L 1314.814815 597.18378 
L 1327.593891 605.560804 
L 1340.372966 609.517064 
L 1353.152041 611.209199 
L 1353.152041 611.209199 
" clip-path="url(#p749b480513)" style="fill: none; stroke: #004e4a; stroke-width: 1.5; stroke-linecap: round"/>
   </g>
   <g id="line2d_17">
    <path d="M -1 610.423347 
L 24.043203 609.396957 
L 49.63913 608.237105 
L 62.437093 607.799462 
L 75.235057 607.53051 
L 88.03302 607.436269 
L 113.628948 607.63589 
L 164.820802 608.571203 
L 203.214693 609.182128 
L 228.81062 609.39912 
L 267.204511 609.465841 
L 318.396365 609.352378 
L 343.992292 609.137371 
L 356.790256 608.918664 
L 369.588219 608.522471 
L 382.386183 607.821016 
L 395.184146 606.681291 
L 407.98211 605.024412 
L 420.780074 602.889796 
L 446.376001 598.106467 
L 459.173964 596.182733 
L 471.971928 595.031332 
L 484.769891 594.808858 
L 497.567855 595.443449 
L 510.365819 596.659481 
L 523.163782 598.068468 
L 535.961746 599.285331 
L 548.759709 600.02586 
L 561.557673 600.158796 
L 574.355637 599.709131 
L 587.1536 598.823477 
L 625.547491 595.530441 
L 651.143418 593.659071 
L 663.941382 592.53841 
L 676.739345 591.028602 
L 689.537309 588.942516 
L 702.335272 586.131841 
L 715.133236 582.513784 
L 727.931199 578.128637 
L 753.527127 568.271885 
L 766.32509 563.976485 
L 779.123054 561.051978 
L 791.921017 560.020292 
L 804.718981 561.003616 
L 817.516945 563.639868 
L 830.314908 567.151304 
L 843.112872 570.538627 
L 855.910835 572.827845 
L 868.708799 573.281869 
L 881.506762 571.505124 
L 894.304726 567.416435 
L 907.10269 561.131477 
L 919.900653 552.846063 
L 932.698617 542.803221 
L 945.49658 531.351588 
L 958.294544 519.010339 
L 971.092508 506.424657 
L 983.890471 494.164439 
L 996.688435 482.444208 
L 1009.486398 470.927705 
L 1022.284362 458.753127 
L 1035.082325 444.785552 
L 1047.880289 427.96122 
L 1060.678253 407.536077 
L 1073.476216 383.125944 
L 1086.27418 354.573284 
L 1099.072143 321.794832 
L 1111.870107 284.788788 
L 1124.66807 243.917998 
L 1150.263998 157.384476 
L 1163.061961 119.684787 
L 1175.859925 94.290203 
L 1188.657888 88.615248 
L 1201.455852 108.195551 
L 1214.253816 154.192008 
L 1227.051779 222.098722 
L 1239.849743 302.579352 
L 1252.647706 384.240265 
L 1265.44567 457.053663 
L 1278.243633 514.854193 
L 1291.041597 556.004965 
L 1303.839561 582.400709 
L 1316.637524 597.701446 
L 1329.435488 605.733503 
L 1342.233451 609.557684 
L 1355.031415 611.210946 
L 1355.031415 611.210946 
" clip-path="url(#p749b480513)" style="fill: none; stroke: #c17150; stroke-width: 1.5; stroke-linecap: round"/>
   </g>
   <g id="patch_3">
    <path d="M 61.046592 612.198293 
L 61.046592 3.00024 
" style="fill: none; stroke: #808080; stroke-width: 0.8; stroke-linejoin: miter; stroke-linecap: square"/>
   </g>
   <g id="patch_4">
    <path d="M 61.046592 612.198293 
L 1427.861665 612.198293 
" style="fill: none; stroke: #808080; stroke-width: 0.8; stroke-linejoin: miter; stroke-linecap: square"/>
   </g>
   <g id="legend_1">
    <g id="patch_5">
     <path d="M 263.585142 716.993732 
L 1225.323115 716.993732 
Q 1229.323115 716.993732 1229.323115 712.993732 
L 1229.323115 687.118098 
Q 1229.323115 683.118098 1225.323115 683.118098 
L 263.585142 683.118098 
Q 259.585142 683.118098 259.585142 687.118098 
L 259.585142 712.993732 
Q 259.585142 716.993732 263.585142 716.993732 
z
" style="fill: #ffffff; opacity: 0.8"/>
    </g>
    <g id="line2d_18">
     <path d="M 267.585142 698.118098 
L 287.585142 698.118098 
L 307.585142 698.118098 
" style="fill: none; stroke: #006e64; stroke-width: 1.5; stroke-linecap: round"/>
    </g>
    <g id="text_16">
     <!-- budget costs -->
     <g style="fill: #262626" transform="translate(323.585142 705.118098) scale(0.2 -0.2)">
      <defs>
       <path id="CMR17-62" d="M 960 4396 
L 198 4326 
L 198 4160 
C 576 4160 634 4122 634 3817 
L 634 -13 
L 749 -13 
L 934 441 
C 1120 141 1395 -64 1766 -64 
C 2406 -64 3053 500 3053 1370 
C 3053 2188 2477 2790 1830 2790 
C 1434 2790 1152 2579 960 2330 
L 960 4396 
z
M 973 2004 
C 973 2118 973 2138 1062 2272 
C 1312 2657 1670 2688 1792 2688 
C 1984 2688 2643 2585 2643 1376 
C 2643 108 1888 38 1734 38 
C 1536 38 1248 114 1043 486 
C 973 608 973 621 973 735 
L 973 2004 
z
" transform="scale(0.015625)"/>
       <path id="CMR17-75" d="M 1882 2693 
L 1882 2528 
C 2259 2528 2317 2489 2317 2186 
L 2317 1032 
C 2317 500 2029 38 1555 38 
C 1030 38 986 348 986 678 
L 986 2763 
L 211 2693 
L 211 2528 
C 467 2528 640 2528 646 2274 
L 646 1058 
C 646 633 646 361 813 183 
C 896 101 1056 -64 1517 -64 
C 2061 -64 2272 377 2323 506 
L 2330 506 
L 2330 -63 
L 3091 -63 
L 3091 128 
C 2714 128 2656 166 2656 473 
L 2656 2763 
L 1882 2693 
z
" transform="scale(0.015625)"/>
       <path id="CMR17-64" d="M 1869 4326 
L 1869 4160 
C 2246 4160 2304 4122 2304 3820 
L 2304 2345 
C 2278 2377 2016 2790 1498 2790 
C 845 2790 211 2208 211 1364 
C 211 525 806 -64 1434 -64 
C 1978 -64 2259 337 2291 380 
L 2291 -63 
L 3066 -63 
L 3066 128 
C 2688 128 2630 166 2630 473 
L 2630 4396 
L 1869 4326 
z
M 2291 755 
C 2291 563 2176 390 2029 262 
C 1811 70 1594 38 1472 38 
C 1286 38 621 134 621 1356 
C 621 2612 1363 2688 1530 2688 
C 1824 2688 2061 2522 2208 2291 
C 2291 2157 2291 2138 2291 2023 
L 2291 755 
z
" transform="scale(0.015625)"/>
       <path id="CMR17-67" d="M 710 1164 
C 832 1068 1043 960 1299 960 
C 1805 960 2240 1357 2240 1888 
C 2240 2054 2189 2310 1997 2509 
C 2176 2692 2438 2752 2586 2752 
C 2611 2752 2650 2752 2682 2734 
C 2656 2728 2598 2703 2598 2605 
C 2598 2527 2656 2471 2739 2471 
C 2835 2471 2886 2533 2886 2614 
C 2886 2731 2790 2854 2586 2854 
C 2330 2854 2106 2738 1926 2580 
C 1734 2753 1504 2816 1299 2816 
C 794 2816 358 2419 358 1888 
C 358 1522 570 1292 634 1228 
C 442 1004 442 743 442 711 
C 442 545 506 302 723 168 
C 390 85 128 -169 128 -486 
C 128 -943 736 -1280 1466 -1280 
C 2170 -1280 2803 -956 2803 -479 
C 2803 384 1856 384 1363 384 
C 1216 384 954 384 922 391 
C 723 423 589 602 589 826 
C 589 883 589 1024 710 1164 
z
M 1299 1068 
C 736 1068 736 1760 736 1889 
C 736 2016 736 2708 1299 2708 
C 1862 2708 1862 2016 1862 1889 
C 1862 1760 1862 1068 1299 1068 
z
M 1466 -1171 
C 826 -1171 384 -835 384 -486 
C 384 -289 493 -105 634 -4 
C 794 104 858 104 1293 104 
C 1818 104 2547 104 2547 -486 
C 2547 -835 2106 -1171 1466 -1171 
z
" transform="scale(0.015625)"/>
       <path id="CMR17-63" d="M 2234 2240 
C 2112 2240 1933 2240 1933 2017 
C 1933 1838 2080 1787 2163 1787 
C 2208 1787 2394 1807 2394 2024 
C 2394 2467 1958 2803 1466 2803 
C 787 2803 211 2178 211 1363 
C 211 516 813 -64 1466 -64 
C 2259 -64 2458 677 2458 748 
C 2458 774 2451 793 2406 793 
C 2362 793 2355 787 2330 703 
C 2163 180 1798 51 1523 51 
C 1114 51 621 427 621 1369 
C 621 2338 1094 2688 1472 2688 
C 1722 2688 2093 2573 2234 2240 
z
" transform="scale(0.015625)"/>
      </defs>
      <use xlink:href="#CMR17-62" transform="scale(0.996264)"/>
      <use xlink:href="#CMR17-75" transform="translate(50.89537 0) scale(0.996264)"/>
      <use xlink:href="#CMR17-64" transform="translate(101.79074 0) scale(0.996264)"/>
      <use xlink:href="#CMR17-67" transform="translate(152.686109 0) scale(0.996264)"/>
      <use xlink:href="#CMR17-65" transform="translate(198.376586 0) scale(0.996264)"/>
      <use xlink:href="#CMR17-74" transform="translate(238.862247 0) scale(0.996264)"/>
      <use xlink:href="#CMR17-63" transform="translate(304.218981 0) scale(0.996264)"/>
      <use xlink:href="#CMR17-6f" transform="translate(344.704642 0) scale(0.996264)"/>
      <use xlink:href="#CMR17-73" transform="translate(390.395119 0) scale(0.996264)"/>
      <use xlink:href="#CMR17-74" transform="translate(426.196456 0) scale(0.996264)"/>
      <use xlink:href="#CMR17-73" transform="translate(461.477224 0) scale(0.996264)"/>
     </g>
    </g>
    <g id="line2d_19">
     <path d="M 463.040812 698.118098 
L 483.040812 698.118098 
L 503.040812 698.118098 
" style="fill: none; stroke: #734848; stroke-width: 1.5; stroke-linecap: round"/>
    </g>
    <g id="text_17">
     <!-- sales estimate costs -->
     <g style="fill: #262626" transform="translate(519.040812 705.118098) scale(0.2 -0.2)">
      <defs>
       <path id="CMR17-61" d="M 2304 1653 
C 2304 2072 2304 2294 2035 2543 
C 1798 2752 1523 2816 1306 2816 
C 800 2816 435 2407 435 1971 
C 435 1728 627 1728 666 1728 
C 749 1728 896 1778 896 1954 
C 896 2112 774 2181 666 2181 
C 640 2181 608 2174 589 2168 
C 723 2592 1069 2714 1293 2714 
C 1613 2714 1965 2429 1965 1885 
L 1965 1600 
C 1587 1600 1133 1549 774 1357 
C 371 1133 256 813 256 570 
C 256 77 832 -64 1171 -64 
C 1523 -64 1850 139 1990 511 
C 2003 233 2182 -18 2464 -18 
C 2598 -18 2938 70 2938 567 
L 2938 920 
L 2822 920 
L 2822 562 
C 2822 178 2650 128 2566 128 
C 2304 128 2304 458 2304 738 
L 2304 1653 
z
M 1965 870 
C 1965 317 1568 38 1216 38 
C 896 38 646 275 646 570 
C 646 761 730 1100 1101 1305 
C 1408 1478 1760 1504 1965 1504 
L 1965 870 
z
" transform="scale(0.015625)"/>
       <path id="CMR17-6c" d="M 979 4396 
L 218 4326 
L 218 4160 
C 595 4160 653 4122 653 3817 
L 653 426 
C 653 184 627 153 218 153 
L 218 -13 
C 371 0 653 0 813 0 
C 979 0 1261 0 1414 -13 
L 1414 153 
C 1005 153 979 178 979 426 
L 979 4396 
z
" transform="scale(0.015625)"/>
      </defs>
      <use xlink:href="#CMR17-73" transform="scale(0.996264)"/>
      <use xlink:href="#CMR17-61" transform="translate(35.801338 0) scale(0.996264)"/>
      <use xlink:href="#CMR17-6c" transform="translate(81.491815 0) scale(0.996264)"/>
      <use xlink:href="#CMR17-65" transform="translate(106.362873 0) scale(0.996264)"/>
      <use xlink:href="#CMR17-73" transform="translate(146.848534 0) scale(0.996264)"/>
      <use xlink:href="#CMR17-65" transform="translate(212.725838 0) scale(0.996264)"/>
      <use xlink:href="#CMR17-73" transform="translate(253.211498 0) scale(0.996264)"/>
      <use xlink:href="#CMR17-74" transform="translate(289.012836 0) scale(0.996264)"/>
      <use xlink:href="#CMR17-69" transform="translate(324.293604 0) scale(0.996264)"/>
      <use xlink:href="#CMR17-6d" transform="translate(349.164662 0) scale(0.996264)"/>
      <use xlink:href="#CMR17-61" transform="translate(426.084252 0) scale(0.996264)"/>
      <use xlink:href="#CMR17-74" transform="translate(471.774729 0) scale(0.996264)"/>
      <use xlink:href="#CMR17-65" transform="translate(507.055497 0) scale(0.996264)"/>
      <use xlink:href="#CMR17-63" transform="translate(577.617124 0) scale(0.996264)"/>
      <use xlink:href="#CMR17-6f" transform="translate(618.102784 0) scale(0.996264)"/>
      <use xlink:href="#CMR17-73" transform="translate(663.793261 0) scale(0.996264)"/>
      <use xlink:href="#CMR17-74" transform="translate(699.594599 0) scale(0.996264)"/>
      <use xlink:href="#CMR17-73" transform="translate(734.875367 0) scale(0.996264)"/>
     </g>
    </g>
    <g id="line2d_20">
     <path d="M 713.176092 698.118098 
L 733.176092 698.118098 
L 753.176092 698.118098 
" style="fill: none; stroke: #004e4a; stroke-width: 1.5; stroke-linecap: round"/>
    </g>
    <g id="text_18">
     <!-- production estimate costs -->
     <g style="fill: #262626" transform="translate(769.176092 705.118098) scale(0.2 -0.2)">
      <defs>
       <path id="CMR17-70" d="M 1408 -1063 
C 998 -1063 973 -1037 973 -789 
L 973 402 
C 1158 134 1427 -38 1766 -38 
C 2406 -38 3053 523 3053 1388 
C 3053 2191 2496 2802 1837 2802 
C 1453 2802 1139 2592 960 2338 
L 960 2802 
L 198 2732 
L 198 2567 
C 576 2567 634 2528 634 2223 
L 634 -789 
C 634 -1031 608 -1063 198 -1063 
L 198 -1228 
C 352 -1216 634 -1216 800 -1216 
C 966 -1216 1254 -1216 1408 -1228 
L 1408 -1063 
z
M 973 2012 
C 973 2102 973 2235 1222 2471 
C 1254 2497 1472 2688 1792 2688 
C 2259 2688 2643 2108 2643 1382 
C 2643 656 2234 64 1728 64 
C 1498 64 1248 172 1056 472 
C 973 612 973 650 973 752 
L 973 2012 
z
" transform="scale(0.015625)"/>
       <path id="CMR17-72" d="M 960 1497 
C 960 2112 1222 2688 1702 2688 
C 1747 2688 1792 2682 1837 2662 
C 1837 2662 1696 2617 1696 2452 
C 1696 2298 1818 2234 1914 2234 
C 1990 2234 2131 2279 2131 2458 
C 2131 2663 1926 2790 1709 2790 
C 1222 2790 1011 2317 947 2093 
L 941 2093 
L 941 2790 
L 198 2720 
L 198 2554 
C 576 2554 634 2515 634 2208 
L 634 428 
C 634 184 608 153 198 153 
L 198 -13 
C 352 0 646 0 813 0 
C 998 0 1325 0 1498 -13 
L 1498 153 
C 1037 153 960 153 960 440 
L 960 1497 
z
" transform="scale(0.015625)"/>
      </defs>
      <use xlink:href="#CMR17-70" transform="scale(0.996264)"/>
      <use xlink:href="#CMR17-72" transform="translate(50.89537 0) scale(0.996264)"/>
      <use xlink:href="#CMR17-6f" transform="translate(86.176138 0) scale(0.996264)"/>
      <use xlink:href="#CMR17-64" transform="translate(134.469053 0) scale(0.996264)"/>
      <use xlink:href="#CMR17-75" transform="translate(185.364423 0) scale(0.996264)"/>
      <use xlink:href="#CMR17-63" transform="translate(236.259793 0) scale(0.996264)"/>
      <use xlink:href="#CMR17-74" transform="translate(276.745453 0) scale(0.996264)"/>
      <use xlink:href="#CMR17-69" transform="translate(312.026221 0) scale(0.996264)"/>
      <use xlink:href="#CMR17-6f" transform="translate(336.89728 0) scale(0.996264)"/>
      <use xlink:href="#CMR17-6e" transform="translate(382.587757 0) scale(0.996264)"/>
      <use xlink:href="#CMR17-65" transform="translate(463.559093 0) scale(0.996264)"/>
      <use xlink:href="#CMR17-73" transform="translate(504.044753 0) scale(0.996264)"/>
      <use xlink:href="#CMR17-74" transform="translate(539.846091 0) scale(0.996264)"/>
      <use xlink:href="#CMR17-69" transform="translate(575.126859 0) scale(0.996264)"/>
      <use xlink:href="#CMR17-6d" transform="translate(599.997917 0) scale(0.996264)"/>
      <use xlink:href="#CMR17-61" transform="translate(676.917507 0) scale(0.996264)"/>
      <use xlink:href="#CMR17-74" transform="translate(722.607984 0) scale(0.996264)"/>
      <use xlink:href="#CMR17-65" transform="translate(757.888752 0) scale(0.996264)"/>
      <use xlink:href="#CMR17-63" transform="translate(828.450379 0) scale(0.996264)"/>
      <use xlink:href="#CMR17-6f" transform="translate(868.936039 0) scale(0.996264)"/>
      <use xlink:href="#CMR17-73" transform="translate(914.626517 0) scale(0.996264)"/>
      <use xlink:href="#CMR17-74" transform="translate(950.427854 0) scale(0.996264)"/>
      <use xlink:href="#CMR17-73" transform="translate(985.708622 0) scale(0.996264)"/>
     </g>
    </g>
    <g id="line2d_21">
     <path d="M 1013.477983 698.118098 
L 1033.477983 698.118098 
L 1053.477983 698.118098 
" style="fill: none; stroke: #c17150; stroke-width: 1.5; stroke-linecap: round"/>
    </g>
    <g id="text_19">
     <!-- final estimate costs -->
     <g style="fill: #262626" transform="translate(1069.477983 705.118098) scale(0.2 -0.2)">
      <defs>
       <path id="CMR17-c" d="M 2554 2764 
C 2400 2764 1926 2764 1805 2739 
C 1766 2725 1754 2725 1677 2725 
L 947 2725 
L 947 3469 
C 947 4073 1434 4352 1818 4352 
C 1939 4352 2214 4320 2355 4101 
C 2291 4101 2086 4101 2086 3878 
C 2086 3725 2189 3648 2317 3648 
C 2432 3648 2547 3712 2547 3885 
C 2547 4205 2240 4454 1843 4454 
C 1338 4454 634 4168 634 3469 
L 634 2725 
L 122 2725 
L 122 2560 
L 634 2560 
L 634 427 
C 634 184 608 153 198 153 
L 198 -13 
C 352 0 634 0 794 0 
C 960 0 1242 0 1395 -13 
L 1395 153 
C 986 153 960 178 960 427 
L 960 2560 
L 1901 2560 
C 2176 2560 2227 2502 2227 2222 
L 2227 427 
C 2227 184 2202 153 1792 153 
L 1792 -13 
C 1946 0 2227 0 2387 0 
C 2554 0 2835 0 2989 -13 
L 2989 153 
C 2579 153 2554 178 2554 427 
L 2554 2764 
z
" transform="scale(0.015625)"/>
      </defs>
      <use xlink:href="#CMR17-c" transform="scale(0.996264)"/>
      <use xlink:href="#CMR17-6e" transform="translate(49.742223 0) scale(0.996264)"/>
      <use xlink:href="#CMR17-61" transform="translate(100.637593 0) scale(0.996264)"/>
      <use xlink:href="#CMR17-6c" transform="translate(146.32807 0) scale(0.996264)"/>
      <use xlink:href="#CMR17-65" transform="translate(201.275095 0) scale(0.996264)"/>
      <use xlink:href="#CMR17-73" transform="translate(241.760756 0) scale(0.996264)"/>
      <use xlink:href="#CMR17-74" transform="translate(277.562093 0) scale(0.996264)"/>
      <use xlink:href="#CMR17-69" transform="translate(312.842861 0) scale(0.996264)"/>
      <use xlink:href="#CMR17-6d" transform="translate(337.713919 0) scale(0.996264)"/>
      <use xlink:href="#CMR17-61" transform="translate(414.633509 0) scale(0.996264)"/>
      <use xlink:href="#CMR17-74" transform="translate(460.323986 0) scale(0.996264)"/>
      <use xlink:href="#CMR17-65" transform="translate(495.604754 0) scale(0.996264)"/>
      <use xlink:href="#CMR17-63" transform="translate(566.166381 0) scale(0.996264)"/>
      <use xlink:href="#CMR17-6f" transform="translate(606.652042 0) scale(0.996264)"/>
      <use xlink:href="#CMR17-73" transform="translate(652.342519 0) scale(0.996264)"/>
      <use xlink:href="#CMR17-74" transform="translate(688.143856 0) scale(0.996264)"/>
      <use xlink:href="#CMR17-73" transform="translate(723.424624 0) scale(0.996264)"/>
     </g>
    </g>
   </g>
  </g>
 </g>
 <defs>
  <clipPath id="p749b480513">
   <rect x="61.046592" y="3.00024" width="1366.815073" height="609.198053"/>
  </clipPath>
 </defs>
</svg>
