<?xml version="1.0" encoding="utf-8" standalone="no"?>
<!DOCTYPE svg PUBLIC "-//W3C//DTD SVG 1.1//EN"
  "http://www.w3.org/Graphics/SVG/1.1/DTD/svg11.dtd">
<svg xmlns:xlink="http://www.w3.org/1999/xlink" width="1440pt" height="720pt" viewBox="0 0 1440 720" xmlns="http://www.w3.org/2000/svg" version="1.1">
 <metadata>
  <rdf:RDF xmlns:dc="http://purl.org/dc/elements/1.1/" xmlns:cc="http://creativecommons.org/ns#" xmlns:rdf="http://www.w3.org/1999/02/22-rdf-syntax-ns#">
   <cc:Work>
    <dc:type rdf:resource="http://purl.org/dc/dcmitype/StillImage"/>
    <dc:date>2023-10-23T20:03:16.784726</dc:date>
    <dc:format>image/svg+xml</dc:format>
    <dc:creator>
     <cc:Agent>
      <dc:title>Matplotlib v3.6.3, https://matplotlib.org/</dc:title>
     </cc:Agent>
    </dc:creator>
   </cc:Work>
  </rdf:RDF>
 </metadata>
 <defs>
  <style type="text/css">*{stroke-linejoin: round; stroke-linecap: butt}</style>
 </defs>
 <g id="figure_1">
  <g id="patch_1">
   <path d="M 0 720 
L 1440 720 
L 1440 0 
L 0 0 
z
" style="fill: #ffffff"/>
  </g>
  <g id="axes_1">
   <g id="patch_2">
    <path d="M 37.067331 570.424988 
L 1432.018425 570.424988 
L 1432.018425 3.00024 
L 37.067331 3.00024 
z
" style="fill: #ffffff"/>
   </g>
   <g id="matplotlib.axis_1">
    <g id="xtick_1">
     <g id="line2d_1">
      <path d="M 133.905065 570.424988 
L 133.905065 3.00024 
" clip-path="url(#p5c1c26b28e)" style="fill: none; stroke: #cccccc; stroke-opacity: 0.35; stroke-width: 0.8; stroke-linecap: round"/>
     </g>
     <g id="text_1">
      <!-- $\mathdefault{−50}$ -->
      <g transform="translate(125.049358 580.843487) scale(0.1 -0.1)">
       <defs>
        <path id="CMSY10-0" d="M 4218 1472 
C 4326 1472 4442 1472 4442 1600 
C 4442 1728 4326 1728 4218 1728 
L 755 1728 
C 646 1728 531 1728 531 1600 
C 531 1472 646 1472 755 1472 
L 4218 1472 
z
" transform="scale(0.015625)"/>
        <path id="CMR17-35" d="M 730 3692 
C 794 3666 1056 3584 1325 3584 
C 1920 3584 2246 3911 2432 4100 
C 2432 4157 2432 4192 2394 4192 
C 2387 4192 2374 4192 2323 4163 
C 2099 4058 1837 3973 1517 3973 
C 1325 3973 1037 3999 723 4139 
C 653 4171 640 4171 634 4171 
C 602 4171 595 4164 595 4037 
L 595 2203 
C 595 2089 595 2057 659 2057 
C 691 2057 704 2070 736 2114 
C 941 2401 1222 2522 1542 2522 
C 1766 2522 2246 2382 2246 1289 
C 2246 1085 2246 715 2054 421 
C 1894 159 1645 25 1370 25 
C 947 25 518 320 403 814 
C 429 807 480 795 506 795 
C 589 795 749 840 749 1038 
C 749 1210 627 1280 506 1280 
C 358 1280 262 1190 262 1011 
C 262 454 704 -128 1382 -128 
C 2042 -128 2669 440 2669 1264 
C 2669 2030 2170 2624 1549 2624 
C 1222 2624 947 2503 730 2274 
L 730 3692 
z
" transform="scale(0.015625)"/>
        <path id="CMR17-30" d="M 2688 2025 
C 2688 2416 2682 3080 2413 3591 
C 2176 4039 1798 4198 1466 4198 
C 1158 4198 768 4058 525 3597 
C 269 3118 243 2524 243 2025 
C 243 1661 250 1106 448 619 
C 723 -39 1216 -128 1466 -128 
C 1760 -128 2208 -7 2470 600 
C 2662 1042 2688 1559 2688 2025 
z
M 1466 -26 
C 1056 -26 813 325 723 812 
C 653 1188 653 1738 653 2096 
C 653 2588 653 2997 736 3387 
C 858 3929 1216 4096 1466 4096 
C 1728 4096 2067 3923 2189 3400 
C 2272 3036 2278 2607 2278 2096 
C 2278 1680 2278 1169 2202 792 
C 2067 95 1690 -26 1466 -26 
z
" transform="scale(0.015625)"/>
       </defs>
       <use xlink:href="#CMSY10-0" transform="scale(0.996264)"/>
       <use xlink:href="#CMR17-35" transform="translate(77.487468 0) scale(0.996264)"/>
       <use xlink:href="#CMR17-30" transform="translate(123.177945 0) scale(0.996264)"/>
      </g>
     </g>
    </g>
    <g id="xtick_2">
     <g id="line2d_2">
      <path d="M 350.257292 570.424988 
L 350.257292 3.00024 
" clip-path="url(#p5c1c26b28e)" style="fill: none; stroke: #cccccc; stroke-opacity: 0.35; stroke-width: 0.8; stroke-linecap: round"/>
     </g>
     <g id="text_2">
      <!-- $\mathdefault{−40}$ -->
      <g transform="translate(341.401585 580.843487) scale(0.1 -0.1)">
       <defs>
        <path id="CMR17-34" d="M 2150 4122 
C 2150 4256 2144 4256 2029 4256 
L 128 1254 
L 128 1088 
L 1779 1088 
L 1779 457 
C 1779 224 1766 160 1318 160 
L 1197 160 
L 1197 0 
C 1402 0 1747 0 1965 0 
C 2182 0 2528 0 2733 0 
L 2733 160 
L 2611 160 
C 2163 160 2150 224 2150 457 
L 2150 1088 
L 2803 1088 
L 2803 1254 
L 2150 1254 
L 2150 4122 
z
M 1798 3703 
L 1798 1254 
L 256 1254 
L 1798 3703 
z
" transform="scale(0.015625)"/>
       </defs>
       <use xlink:href="#CMSY10-0" transform="scale(0.996264)"/>
       <use xlink:href="#CMR17-34" transform="translate(77.487468 0) scale(0.996264)"/>
       <use xlink:href="#CMR17-30" transform="translate(123.177945 0) scale(0.996264)"/>
      </g>
     </g>
    </g>
    <g id="xtick_3">
     <g id="line2d_3">
      <path d="M 566.609518 570.424988 
L 566.609518 3.00024 
" clip-path="url(#p5c1c26b28e)" style="fill: none; stroke: #cccccc; stroke-opacity: 0.35; stroke-width: 0.8; stroke-linecap: round"/>
     </g>
     <g id="text_3">
      <!-- $\mathdefault{−30}$ -->
      <g transform="translate(557.753811 580.843487) scale(0.1 -0.1)">
       <defs>
        <path id="CMR17-33" d="M 1414 2157 
C 1984 2157 2234 1662 2234 1090 
C 2234 320 1824 25 1453 25 
C 1114 25 563 194 390 693 
C 422 680 454 680 486 680 
C 640 680 755 782 755 948 
C 755 1133 614 1216 486 1216 
C 378 1216 211 1165 211 926 
C 211 335 787 -128 1466 -128 
C 2176 -128 2720 430 2720 1085 
C 2720 1707 2208 2157 1600 2227 
C 2086 2328 2554 2756 2554 3329 
C 2554 3820 2048 4179 1472 4179 
C 890 4179 378 3829 378 3329 
C 378 3110 544 3072 627 3072 
C 762 3072 877 3155 877 3321 
C 877 3486 762 3569 627 3569 
C 602 3569 570 3569 544 3557 
C 730 3959 1235 4032 1459 4032 
C 1683 4032 2106 3925 2106 3320 
C 2106 3143 2080 2828 1862 2550 
C 1670 2304 1453 2304 1242 2284 
C 1210 2284 1062 2269 1037 2269 
C 992 2263 966 2257 966 2208 
C 966 2163 973 2157 1101 2157 
L 1414 2157 
z
" transform="scale(0.015625)"/>
       </defs>
       <use xlink:href="#CMSY10-0" transform="scale(0.996264)"/>
       <use xlink:href="#CMR17-33" transform="translate(77.487468 0) scale(0.996264)"/>
       <use xlink:href="#CMR17-30" transform="translate(123.177945 0) scale(0.996264)"/>
      </g>
     </g>
    </g>
    <g id="xtick_4">
     <g id="line2d_4">
      <path d="M 782.961745 570.424988 
L 782.961745 3.00024 
" clip-path="url(#p5c1c26b28e)" style="fill: none; stroke: #cccccc; stroke-opacity: 0.35; stroke-width: 0.8; stroke-linecap: round"/>
     </g>
     <g id="text_4">
      <!-- $\mathdefault{−20}$ -->
      <g transform="translate(774.106038 580.843487) scale(0.1 -0.1)">
       <defs>
        <path id="CMR17-32" d="M 2669 989 
L 2554 989 
C 2490 536 2438 459 2413 420 
C 2381 369 1920 369 1830 369 
L 602 369 
C 832 619 1280 1072 1824 1597 
C 2214 1967 2669 2402 2669 3035 
C 2669 3790 2067 4224 1395 4224 
C 691 4224 262 3604 262 3030 
C 262 2780 448 2748 525 2748 
C 589 2748 781 2787 781 3010 
C 781 3207 614 3264 525 3264 
C 486 3264 448 3258 422 3245 
C 544 3790 915 4058 1306 4058 
C 1862 4058 2227 3617 2227 3035 
C 2227 2479 1901 2000 1536 1584 
L 262 146 
L 262 0 
L 2515 0 
L 2669 989 
z
" transform="scale(0.015625)"/>
       </defs>
       <use xlink:href="#CMSY10-0" transform="scale(0.996264)"/>
       <use xlink:href="#CMR17-32" transform="translate(77.487468 0) scale(0.996264)"/>
       <use xlink:href="#CMR17-30" transform="translate(123.177945 0) scale(0.996264)"/>
      </g>
     </g>
    </g>
    <g id="xtick_5">
     <g id="line2d_5">
      <path d="M 999.313972 570.424988 
L 999.313972 3.00024 
" clip-path="url(#p5c1c26b28e)" style="fill: none; stroke: #cccccc; stroke-opacity: 0.35; stroke-width: 0.8; stroke-linecap: round"/>
     </g>
     <g id="text_5">
      <!-- $\mathdefault{−10}$ -->
      <g transform="translate(990.458264 580.843487) scale(0.1 -0.1)">
       <defs>
        <path id="CMR17-31" d="M 1702 4058 
C 1702 4192 1696 4192 1606 4192 
C 1357 3916 979 3827 621 3827 
C 602 3827 570 3827 563 3808 
C 557 3795 557 3782 557 3648 
C 755 3648 1088 3686 1344 3839 
L 1344 461 
C 1344 236 1331 160 781 160 
L 589 160 
L 589 0 
C 896 0 1216 0 1523 0 
C 1830 0 2150 0 2458 0 
L 2458 160 
L 2266 160 
C 1715 160 1702 230 1702 458 
L 1702 4058 
z
" transform="scale(0.015625)"/>
       </defs>
       <use xlink:href="#CMSY10-0" transform="scale(0.996264)"/>
       <use xlink:href="#CMR17-31" transform="translate(77.487468 0) scale(0.996264)"/>
       <use xlink:href="#CMR17-30" transform="translate(123.177945 0) scale(0.996264)"/>
      </g>
     </g>
    </g>
    <g id="xtick_6">
     <g id="line2d_6">
      <path d="M 1215.666198 570.424988 
L 1215.666198 3.00024 
" clip-path="url(#p5c1c26b28e)" style="fill: none; stroke: #cccccc; stroke-opacity: 0.35; stroke-width: 0.8; stroke-linecap: round"/>
     </g>
     <g id="text_6">
      <!-- $\mathdefault{0}$ -->
      <g transform="translate(1213.175531 580.843487) scale(0.1 -0.1)">
       <use xlink:href="#CMR17-30" transform="scale(0.996264)"/>
      </g>
     </g>
    </g>
    <g id="xtick_7">
     <g id="line2d_7">
      <path d="M 1432.018425 570.424988 
L 1432.018425 3.00024 
" clip-path="url(#p5c1c26b28e)" style="fill: none; stroke: #cccccc; stroke-opacity: 0.35; stroke-width: 0.8; stroke-linecap: round"/>
     </g>
     <g id="text_7">
      <!-- $\mathdefault{10}$ -->
      <g transform="translate(1427.037089 580.843487) scale(0.1 -0.1)">
       <use xlink:href="#CMR17-31" transform="scale(0.996264)"/>
       <use xlink:href="#CMR17-30" transform="translate(45.690477 0) scale(0.996264)"/>
      </g>
     </g>
    </g>
    <g id="text_8">
     <!-- Costs (mDKK) -->
     <g style="fill: #696969" transform="translate(701.347848 594.252645) scale(0.1 -0.1)">
      <defs>
       <path id="CMR17-43" d="M 3974 4289 
C 3974 4403 3968 4410 3930 4410 
C 3904 4410 3898 4403 3853 4327 
L 3571 3792 
C 3258 4187 2874 4416 2381 4416 
C 1286 4416 294 3456 294 2148 
C 294 826 1286 -128 2387 -128 
C 3366 -128 3974 730 3974 1461 
C 3974 1524 3974 1550 3917 1550 
C 3866 1550 3866 1531 3859 1474 
C 3808 585 3168 38 2477 38 
C 1824 38 781 495 781 2147 
C 781 3805 1843 4250 2464 4250 
C 3187 4250 3712 3628 3834 2745 
C 3846 2668 3846 2655 3904 2655 
C 3974 2655 3974 2668 3974 2783 
L 3974 4289 
z
" transform="scale(0.015625)"/>
       <path id="CMR17-6f" d="M 2758 1356 
C 2758 2176 2163 2816 1466 2816 
C 768 2816 173 2176 173 1356 
C 173 551 768 -64 1466 -64 
C 2163 -64 2758 551 2758 1356 
z
M 1466 51 
C 1165 51 909 230 762 480 
C 602 767 582 1126 582 1408 
C 582 1677 595 2010 762 2298 
C 890 2509 1139 2714 1466 2714 
C 1754 2714 1997 2554 2150 2330 
C 2349 2029 2349 1607 2349 1408 
C 2349 1158 2336 775 2163 467 
C 1984 173 1709 51 1466 51 
z
" transform="scale(0.015625)"/>
       <path id="CMR17-73" d="M 1978 2697 
C 1978 2813 1971 2819 1933 2819 
C 1907 2819 1901 2813 1824 2717 
C 1805 2691 1747 2626 1728 2601 
C 1523 2819 1235 2819 1126 2819 
C 416 2819 160 2447 160 2076 
C 160 1498 813 1365 998 1325 
C 1402 1243 1542 1217 1677 1101 
C 1760 1025 1901 884 1901 654 
C 1901 384 1747 38 1158 38 
C 602 38 403 460 288 1021 
C 269 1110 269 1117 218 1117 
C 166 1117 160 1110 160 983 
L 160 63 
C 160 -51 166 -58 205 -58 
C 237 -58 243 -51 275 0 
C 314 57 410 211 448 276 
C 576 103 800 -64 1158 -64 
C 1792 -64 2131 283 2131 784 
C 2131 1112 1958 1285 1875 1362 
C 1683 1561 1459 1606 1190 1657 
C 838 1735 390 1825 390 2217 
C 390 2383 480 2737 1126 2737 
C 1811 2737 1850 2094 1862 1888 
C 1869 1856 1901 1849 1920 1849 
C 1978 1849 1978 1869 1978 1978 
L 1978 2697 
z
" transform="scale(0.015625)"/>
       <path id="CMR17-74" d="M 966 2560 
L 1862 2560 
L 1862 2725 
L 966 2725 
L 966 3904 
L 851 3904 
C 838 3245 614 2668 70 2668 
L 70 2560 
L 627 2560 
L 627 771 
C 627 650 627 -64 1370 -64 
C 1747 -64 1965 306 1965 777 
L 1965 1140 
L 1850 1140 
L 1850 783 
C 1850 344 1677 51 1408 51 
C 1222 51 966 178 966 758 
L 966 2560 
z
" transform="scale(0.015625)"/>
       <path id="CMR17-28" d="M 1958 -1561 
C 1958 -1555 1958 -1542 1939 -1523 
C 1645 -1224 858 -407 858 1581 
C 858 3569 1632 4379 1946 4697 
C 1946 4704 1958 4717 1958 4736 
C 1958 4755 1939 4768 1914 4768 
C 1843 4768 1299 4296 986 3594 
C 666 2887 576 2199 576 1588 
C 576 1128 621 351 1005 -471 
C 1312 -1135 1837 -1600 1914 -1600 
C 1946 -1600 1958 -1587 1958 -1561 
z
" transform="scale(0.015625)"/>
       <path id="CMR17-6d" d="M 4326 1933 
C 4326 2252 4269 2790 3507 2790 
C 3072 2790 2771 2496 2656 2151 
L 2650 2151 
C 2573 2676 2195 2790 1837 2790 
C 1331 2790 1069 2400 973 2144 
L 966 2144 
L 966 2790 
L 211 2720 
L 211 2554 
C 589 2554 646 2515 646 2208 
L 646 428 
C 646 184 621 153 211 153 
L 211 -13 
C 365 0 646 0 813 0 
C 979 0 1267 0 1421 -13 
L 1421 153 
C 1011 153 986 178 986 428 
L 986 1658 
C 986 2247 1344 2688 1792 2688 
C 2266 2688 2317 2266 2317 1958 
L 2317 428 
C 2317 184 2291 153 1882 153 
L 1882 -13 
C 2035 0 2317 0 2483 0 
C 2650 0 2938 0 3091 -13 
L 3091 153 
C 2682 153 2656 178 2656 428 
L 2656 1658 
C 2656 2247 3014 2688 3462 2688 
C 3936 2688 3987 2266 3987 1958 
L 3987 428 
C 3987 184 3962 153 3552 153 
L 3552 -13 
C 3706 0 3987 0 4154 0 
C 4320 0 4608 0 4762 -13 
L 4762 153 
C 4352 153 4326 178 4326 428 
L 4326 1933 
z
" transform="scale(0.015625)"/>
       <path id="CMR17-44" d="M 333 4352 
L 333 4186 
C 774 4186 845 4186 845 3900 
L 845 452 
C 845 166 774 166 333 166 
L 333 0 
L 2368 0 
C 3398 0 4224 943 4224 2141 
C 4224 3346 3411 4352 2368 4352 
L 333 4352 
z
M 1523 166 
C 1267 166 1254 197 1254 414 
L 1254 3938 
C 1254 4155 1267 4186 1523 4186 
L 2240 4186 
C 2771 4186 3750 3874 3750 2141 
C 3750 1242 3488 879 3366 707 
C 3213 510 2848 166 2240 166 
L 1523 166 
z
" transform="scale(0.015625)"/>
       <path id="CMR17-4b" d="M 2362 2675 
L 3469 3782 
C 3699 4006 3942 4186 4301 4186 
L 4301 4352 
C 4173 4352 4013 4352 3885 4352 
C 3712 4352 3411 4352 3245 4358 
L 3245 4192 
C 3411 4180 3437 4065 3437 4019 
C 3437 3975 3411 3905 3386 3867 
L 1261 1738 
L 1261 3900 
C 1261 4186 1331 4186 1773 4186 
L 1773 4352 
C 1587 4352 1248 4352 1050 4352 
C 851 4352 512 4352 326 4352 
L 326 4186 
C 768 4186 838 4186 838 3899 
L 838 446 
C 838 160 768 160 326 160 
L 326 0 
C 512 0 851 0 1050 0 
C 1248 0 1587 0 1773 0 
L 1773 160 
C 1331 160 1261 160 1261 447 
L 1261 1579 
L 2080 2390 
L 3290 537 
C 3328 473 3373 390 3373 326 
C 3373 160 3194 160 3110 160 
L 3110 0 
C 3315 0 3610 0 3821 0 
C 3974 0 4237 0 4384 -6 
L 4384 160 
C 4077 160 3981 198 3789 493 
L 2362 2675 
z
" transform="scale(0.015625)"/>
       <path id="CMR17-29" d="M 1683 1581 
C 1683 2040 1638 2817 1254 3639 
C 947 4303 422 4768 346 4768 
C 326 4768 301 4761 301 4729 
C 301 4717 307 4710 314 4697 
C 621 4378 1402 3568 1402 1584 
C 1402 -407 627 -1217 314 -1537 
C 307 -1549 301 -1556 301 -1568 
C 301 -1600 326 -1600 346 -1600 
C 416 -1600 960 -1128 1274 -426 
C 1594 281 1683 969 1683 1581 
z
" transform="scale(0.015625)"/>
      </defs>
      <use xlink:href="#CMR17-43" transform="scale(0.996264)"/>
      <use xlink:href="#CMR17-6f" transform="translate(66.509881 0) scale(0.996264)"/>
      <use xlink:href="#CMR17-73" transform="translate(112.200358 0) scale(0.996264)"/>
      <use xlink:href="#CMR17-74" transform="translate(148.001695 0) scale(0.996264)"/>
      <use xlink:href="#CMR17-73" transform="translate(183.282463 0) scale(0.996264)"/>
      <use xlink:href="#CMR17-28" transform="translate(249.159767 0) scale(0.996264)"/>
      <use xlink:href="#CMR17-6d" transform="translate(284.440535 0) scale(0.996264)"/>
      <use xlink:href="#CMR17-44" transform="translate(361.360125 0) scale(0.996264)"/>
      <use xlink:href="#CMR17-4b" transform="translate(431.753681 0) scale(0.996264)"/>
      <use xlink:href="#CMR17-4b" transform="translate(503.428458 0) scale(0.996264)"/>
      <use xlink:href="#CMR17-29" transform="translate(575.103235 0) scale(0.996264)"/>
     </g>
    </g>
   </g>
   <g id="matplotlib.axis_2">
    <g id="ytick_1">
     <g id="line2d_8">
      <path d="M 37.067331 570.424988 
L 1432.018425 570.424988 
" clip-path="url(#p5c1c26b28e)" style="fill: none; stroke: #cccccc; stroke-opacity: 0.35; stroke-width: 0.8; stroke-linecap: round"/>
     </g>
     <g id="text_9">
      <!-- $\mathdefault{0.00}$ -->
      <g transform="translate(15.855917 573.884238) scale(0.1 -0.1)">
       <defs>
        <path id="CMMI12-3a" d="M 1178 307 
C 1178 492 1024 619 870 619 
C 685 619 557 466 557 313 
C 557 128 710 0 864 0 
C 1050 0 1178 153 1178 307 
z
" transform="scale(0.015625)"/>
       </defs>
       <use xlink:href="#CMR17-30" transform="scale(0.996264)"/>
       <use xlink:href="#CMMI12-3a" transform="translate(45.690477 0) scale(0.996264)"/>
       <use xlink:href="#CMR17-30" transform="translate(72.787654 0) scale(0.996264)"/>
       <use xlink:href="#CMR17-30" transform="translate(118.478131 0) scale(0.996264)"/>
      </g>
     </g>
    </g>
    <g id="ytick_2">
     <g id="line2d_9">
      <path d="M 37.067331 471.790992 
L 1432.018425 471.790992 
" clip-path="url(#p5c1c26b28e)" style="fill: none; stroke: #cccccc; stroke-opacity: 0.35; stroke-width: 0.8; stroke-linecap: round"/>
     </g>
     <g id="text_10">
      <!-- $\mathdefault{0.02}$ -->
      <g transform="translate(15.855917 475.250241) scale(0.1 -0.1)">
       <use xlink:href="#CMR17-30" transform="scale(0.996264)"/>
       <use xlink:href="#CMMI12-3a" transform="translate(45.690477 0) scale(0.996264)"/>
       <use xlink:href="#CMR17-30" transform="translate(72.787654 0) scale(0.996264)"/>
       <use xlink:href="#CMR17-32" transform="translate(118.478131 0) scale(0.996264)"/>
      </g>
     </g>
    </g>
    <g id="ytick_3">
     <g id="line2d_10">
      <path d="M 37.067331 373.156995 
L 1432.018425 373.156995 
" clip-path="url(#p5c1c26b28e)" style="fill: none; stroke: #cccccc; stroke-opacity: 0.35; stroke-width: 0.8; stroke-linecap: round"/>
     </g>
     <g id="text_11">
      <!-- $\mathdefault{0.04}$ -->
      <g transform="translate(15.855917 376.616244) scale(0.1 -0.1)">
       <use xlink:href="#CMR17-30" transform="scale(0.996264)"/>
       <use xlink:href="#CMMI12-3a" transform="translate(45.690477 0) scale(0.996264)"/>
       <use xlink:href="#CMR17-30" transform="translate(72.787654 0) scale(0.996264)"/>
       <use xlink:href="#CMR17-34" transform="translate(118.478131 0) scale(0.996264)"/>
      </g>
     </g>
    </g>
    <g id="ytick_4">
     <g id="line2d_11">
      <path d="M 37.067331 274.522998 
L 1432.018425 274.522998 
" clip-path="url(#p5c1c26b28e)" style="fill: none; stroke: #cccccc; stroke-opacity: 0.35; stroke-width: 0.8; stroke-linecap: round"/>
     </g>
     <g id="text_12">
      <!-- $\mathdefault{0.06}$ -->
      <g transform="translate(15.855917 277.982247) scale(0.1 -0.1)">
       <defs>
        <path id="CMR17-36" d="M 678 2176 
C 678 3690 1395 4032 1811 4032 
C 1946 4032 2272 4009 2400 3776 
C 2298 3776 2106 3776 2106 3553 
C 2106 3381 2246 3323 2336 3323 
C 2394 3323 2566 3348 2566 3560 
C 2566 3954 2246 4179 1805 4179 
C 1043 4179 243 3390 243 1984 
C 243 253 966 -128 1478 -128 
C 2099 -128 2688 427 2688 1283 
C 2688 2081 2170 2662 1517 2662 
C 1126 2662 838 2407 678 1960 
L 678 2176 
z
M 1478 25 
C 691 25 691 1200 691 1436 
C 691 1896 909 2560 1504 2560 
C 1613 2560 1926 2560 2138 2120 
C 2253 1870 2253 1609 2253 1289 
C 2253 944 2253 690 2118 434 
C 1978 171 1773 25 1478 25 
z
" transform="scale(0.015625)"/>
       </defs>
       <use xlink:href="#CMR17-30" transform="scale(0.996264)"/>
       <use xlink:href="#CMMI12-3a" transform="translate(45.690477 0) scale(0.996264)"/>
       <use xlink:href="#CMR17-30" transform="translate(72.787654 0) scale(0.996264)"/>
       <use xlink:href="#CMR17-36" transform="translate(118.478131 0) scale(0.996264)"/>
      </g>
     </g>
    </g>
    <g id="ytick_5">
     <g id="line2d_12">
      <path d="M 37.067331 175.889001 
L 1432.018425 175.889001 
" clip-path="url(#p5c1c26b28e)" style="fill: none; stroke: #cccccc; stroke-opacity: 0.35; stroke-width: 0.8; stroke-linecap: round"/>
     </g>
     <g id="text_13">
      <!-- $\mathdefault{0.08}$ -->
      <g transform="translate(15.855917 179.34825) scale(0.1 -0.1)">
       <defs>
        <path id="CMR17-38" d="M 1741 2264 
C 2144 2467 2554 2773 2554 3263 
C 2554 3841 1990 4179 1472 4179 
C 890 4179 378 3759 378 3180 
C 378 3021 416 2747 666 2505 
C 730 2442 998 2251 1171 2130 
C 883 1983 211 1634 211 934 
C 211 279 838 -128 1459 -128 
C 2144 -128 2720 362 2720 1010 
C 2720 1590 2330 1857 2074 2029 
L 1741 2264 
z
M 902 2822 
C 851 2854 595 3051 595 3351 
C 595 3739 998 4032 1459 4032 
C 1965 4032 2336 3676 2336 3262 
C 2336 2669 1670 2331 1638 2331 
C 1632 2331 1626 2331 1574 2370 
L 902 2822 
z
M 2080 1519 
C 2176 1449 2483 1240 2483 851 
C 2483 381 2010 25 1472 25 
C 890 25 448 438 448 940 
C 448 1443 838 1862 1280 2060 
L 2080 1519 
z
" transform="scale(0.015625)"/>
       </defs>
       <use xlink:href="#CMR17-30" transform="scale(0.996264)"/>
       <use xlink:href="#CMMI12-3a" transform="translate(45.690477 0) scale(0.996264)"/>
       <use xlink:href="#CMR17-30" transform="translate(72.787654 0) scale(0.996264)"/>
       <use xlink:href="#CMR17-38" transform="translate(118.478131 0) scale(0.996264)"/>
      </g>
     </g>
    </g>
    <g id="ytick_6">
     <g id="line2d_13">
      <path d="M 37.067331 77.255004 
L 1432.018425 77.255004 
" clip-path="url(#p5c1c26b28e)" style="fill: none; stroke: #cccccc; stroke-opacity: 0.35; stroke-width: 0.8; stroke-linecap: round"/>
     </g>
     <g id="text_14">
      <!-- $\mathdefault{0.10}$ -->
      <g transform="translate(15.855917 80.714254) scale(0.1 -0.1)">
       <use xlink:href="#CMR17-30" transform="scale(0.996264)"/>
       <use xlink:href="#CMMI12-3a" transform="translate(45.690477 0) scale(0.996264)"/>
       <use xlink:href="#CMR17-31" transform="translate(72.787654 0) scale(0.996264)"/>
       <use xlink:href="#CMR17-30" transform="translate(118.478131 0) scale(0.996264)"/>
      </g>
     </g>
    </g>
    <g id="text_15">
     <!-- Density -->
     <g style="fill: #696969" transform="translate(9.918738 303.275534) rotate(-90) scale(0.1 -0.1)">
      <defs>
       <path id="CMR17-65" d="M 2438 1472 
C 2464 1498 2464 1511 2464 1576 
C 2464 2238 2118 2816 1389 2816 
C 710 2816 173 2169 173 1383 
C 173 551 781 -64 1459 -64 
C 2176 -64 2458 607 2458 740 
C 2458 784 2419 784 2406 784 
C 2362 784 2355 771 2330 696 
C 2189 265 1837 51 1504 51 
C 1229 51 954 203 781 480 
C 582 803 582 1176 582 1472 
L 2438 1472 
z
M 589 1568 
C 634 2505 1126 2714 1382 2714 
C 1818 2714 2112 2297 2118 1568 
L 589 1568 
z
" transform="scale(0.015625)"/>
       <path id="CMR17-6e" d="M 2656 1933 
C 2656 2259 2592 2790 1837 2790 
C 1331 2790 1069 2400 973 2144 
L 966 2144 
L 966 2790 
L 211 2720 
L 211 2554 
C 589 2554 646 2515 646 2208 
L 646 428 
C 646 184 621 153 211 153 
L 211 -13 
C 365 0 646 0 813 0 
C 979 0 1267 0 1421 -13 
L 1421 153 
C 1011 153 986 178 986 428 
L 986 1658 
C 986 2247 1344 2688 1792 2688 
C 2266 2688 2317 2266 2317 1958 
L 2317 428 
C 2317 184 2291 153 1882 153 
L 1882 -13 
C 2035 0 2317 0 2483 0 
C 2650 0 2938 0 3091 -13 
L 3091 153 
C 2682 153 2656 178 2656 428 
L 2656 1933 
z
" transform="scale(0.015625)"/>
       <path id="CMR17-69" d="M 992 3909 
C 992 4049 877 4170 730 4170 
C 589 4170 467 4056 467 3909 
C 467 3769 582 3648 730 3648 
C 870 3648 992 3763 992 3909 
z
M 243 2706 
L 243 2541 
C 602 2541 653 2502 653 2197 
L 653 427 
C 653 184 627 153 218 153 
L 218 -13 
C 371 0 646 0 806 0 
C 960 0 1222 0 1370 -13 
L 1370 153 
C 992 153 979 191 979 420 
L 979 2776 
L 243 2706 
z
" transform="scale(0.015625)"/>
       <path id="CMR17-79" d="M 2496 2197 
C 2656 2586 2944 2586 3034 2586 
L 3034 2752 
C 2912 2752 2752 2752 2630 2752 
C 2496 2752 2285 2752 2157 2758 
L 2157 2592 
C 2400 2573 2406 2394 2406 2343 
C 2406 2280 2394 2248 2362 2171 
L 1664 449 
L 902 2306 
C 870 2382 870 2426 870 2433 
C 870 2573 1018 2586 1171 2586 
L 1171 2758 
C 1018 2752 742 2752 582 2752 
C 410 2752 205 2752 64 2758 
L 64 2586 
C 410 2586 448 2554 531 2350 
L 1485 15 
C 1197 -738 1030 -1178 627 -1178 
C 557 -1178 397 -1159 282 -1044 
C 429 -1031 493 -942 493 -833 
C 493 -725 416 -629 288 -629 
C 147 -629 77 -725 77 -840 
C 77 -1095 339 -1280 627 -1280 
C 998 -1280 1229 -922 1357 -604 
L 2496 2197 
z
" transform="scale(0.015625)"/>
      </defs>
      <use xlink:href="#CMR17-44" transform="scale(0.996264)"/>
      <use xlink:href="#CMR17-65" transform="translate(70.393556 0) scale(0.996264)"/>
      <use xlink:href="#CMR17-6e" transform="translate(110.879216 0) scale(0.996264)"/>
      <use xlink:href="#CMR17-73" transform="translate(161.774586 0) scale(0.996264)"/>
      <use xlink:href="#CMR17-69" transform="translate(197.575924 0) scale(0.996264)"/>
      <use xlink:href="#CMR17-74" transform="translate(222.446982 0) scale(0.996264)"/>
      <use xlink:href="#CMR17-79" transform="translate(255.125296 0) scale(0.996264)"/>
     </g>
    </g>
   </g>
   <g id="line2d_14">
    <path d="M -1 566.407451 
L 11.821589 564.705406 
L 18.765602 563.899971 
L 25.709615 563.287402 
L 32.653629 562.938579 
L 39.597642 562.8958 
L 46.541655 563.164343 
L 53.485668 563.711401 
L 60.429682 564.472665 
L 88.205735 568.008757 
L 95.149748 568.688658 
L 102.093761 569.228581 
L 109.037775 569.634532 
L 122.925801 570.120807 
L 136.813828 570.326042 
L 164.589881 570.418648 
L 234.030014 570.35943 
L 247.91804 570.218519 
L 261.806067 569.875328 
L 275.694094 569.188044 
L 289.58212 568.071879 
L 317.358173 565.274879 
L 324.302187 564.77921 
L 331.2462 564.482196 
L 338.190213 564.41056 
L 345.134226 564.557417 
L 359.022253 565.300309 
L 365.966266 565.718183 
L 372.91028 566.017234 
L 379.854293 566.078986 
L 386.798306 565.793138 
L 393.742319 565.06686 
L 400.686333 563.832951 
L 407.630346 562.057551 
L 414.574359 559.747776 
L 421.518373 556.958792 
L 428.462386 553.798772 
L 442.350412 547.059041 
L 449.294426 543.928026 
L 456.238439 541.284242 
L 463.182452 539.353423 
L 470.126466 538.30783 
L 477.070479 538.239913 
L 484.014492 539.14689 
L 490.958505 540.930164 
L 497.902519 543.410061 
L 504.846532 546.352608 
L 518.734559 552.612974 
L 525.678572 555.472782 
L 532.622585 557.916364 
L 539.566598 559.827837 
L 546.510612 561.135567 
L 553.454625 561.804281 
L 560.398638 561.829163 
L 567.342652 561.234929 
L 574.286665 560.080022 
L 581.230678 558.463077 
L 588.174691 556.526805 
L 602.062718 552.454287 
L 609.006731 550.736854 
L 615.950745 549.482221 
L 622.894758 548.811738 
L 629.838771 548.767853 
L 636.782784 549.309123 
L 643.726798 550.32151 
L 650.670811 551.642334 
L 664.558838 554.487418 
L 671.502851 555.683287 
L 678.446864 556.551095 
L 685.390877 556.986283 
L 692.334891 556.897171 
L 699.278904 556.200562 
L 706.222917 554.826924 
L 713.166931 552.736245 
L 720.110944 549.940668 
L 727.054957 546.526135 
L 733.99897 542.663962 
L 747.886997 534.656095 
L 754.83101 531.1357 
L 761.775024 528.328016 
L 768.719037 526.43572 
L 775.66305 525.548146 
L 782.607063 525.62931 
L 789.551077 526.527461 
L 796.49509 528.002453 
L 810.383117 531.512632 
L 817.32713 532.977681 
L 824.271143 533.946521 
L 831.215156 534.28478 
L 838.15917 533.946228 
L 845.103183 532.972662 
L 852.047196 531.483394 
L 858.99121 529.653767 
L 872.879236 525.751487 
L 879.823249 523.978337 
L 900.655289 519.109042 
L 907.599303 516.851669 
L 914.543316 513.679202 
L 921.487329 509.245529 
L 928.431343 503.327306 
L 935.375356 495.89256 
L 942.319369 487.136729 
L 949.263382 477.47567 
L 956.207396 467.495011 
L 963.151409 457.865175 
L 970.095422 449.238647 
L 977.039436 442.14892 
L 983.983449 436.928794 
L 990.927462 433.660474 
L 997.871475 432.163027 
L 1004.815489 432.016228 
L 1018.703515 433.243104 
L 1025.647529 433.161503 
L 1032.591542 431.68959 
L 1039.535555 428.278517 
L 1046.479568 422.560399 
L 1053.423582 414.368347 
L 1060.367595 403.724909 
L 1067.311608 390.803313 
L 1074.255622 375.87227 
L 1081.199635 359.238656 
L 1088.143648 341.201269 
L 1095.087661 322.022744 
L 1102.031675 301.918167 
L 1108.975688 281.052026 
L 1115.919701 259.533907 
L 1122.863715 237.40945 
L 1129.807728 214.654261 
L 1136.751741 191.189228 
L 1143.695754 166.939058 
L 1150.639768 141.946962 
L 1164.527794 91.489438 
L 1171.471808 68.165789 
L 1178.415821 48.523821 
L 1185.359834 34.966476 
L 1192.303847 30.020466 
L 1199.247861 35.889441 
L 1206.191874 53.978115 
L 1213.135887 84.50916 
L 1220.079901 126.343131 
L 1227.023914 177.063079 
L 1233.967927 233.314346 
L 1240.91194 291.320227 
L 1247.855954 347.44944 
L 1254.799967 398.705911 
L 1261.74398 443.044059 
L 1268.687994 479.469263 
L 1275.632007 507.942214 
L 1282.57602 529.148768 
L 1289.520033 544.213858 
L 1296.464047 554.430122 
L 1303.40806 561.047888 
L 1310.352073 565.144783 
L 1317.296087 567.569745 
L 1317.296087 567.569745 
" clip-path="url(#p5c1c26b28e)" style="fill: none; stroke: #006e64; stroke-width: 1.5; stroke-linecap: round"/>
   </g>
   <g id="line2d_15">
    <path d="M -1 569.207051 
L 17.497051 568.793046 
L 29.0343 568.650643 
L 40.571548 568.644979 
L 63.646045 569.027151 
L 98.257791 569.820422 
L 109.795039 569.923642 
L 121.332288 569.897284 
L 132.869536 569.733924 
L 144.406784 569.435139 
L 167.481281 568.482809 
L 202.093027 566.731313 
L 213.630275 566.322647 
L 225.167524 566.124248 
L 236.704772 566.177025 
L 248.242021 566.476218 
L 271.316517 567.567965 
L 294.391014 568.704835 
L 305.928263 569.097974 
L 317.465511 569.319208 
L 329.00276 569.342819 
L 340.540008 569.13226 
L 352.077257 568.62398 
L 363.614505 567.724983 
L 375.151754 566.330253 
L 386.689002 564.359834 
L 398.22625 561.807552 
L 409.763499 558.786551 
L 421.300747 555.553447 
L 432.837996 552.494761 
L 444.375244 550.067109 
L 455.912493 548.696717 
L 467.449741 548.662195 
L 478.98699 550.000002 
L 490.524238 552.473242 
L 502.061487 555.623778 
L 513.598735 558.891557 
L 525.135983 561.75438 
L 536.673232 563.836493 
L 548.21048 564.957618 
L 559.747729 565.126835 
L 571.284977 564.504413 
L 582.822226 563.350463 
L 605.896723 560.613103 
L 617.433971 559.457445 
L 652.045716 556.500063 
L 663.582965 554.950428 
L 675.120213 552.760742 
L 686.657462 549.84726 
L 698.19471 546.234581 
L 709.731959 542.046307 
L 732.806456 532.929987 
L 744.343704 528.741129 
L 755.880953 525.393717 
L 767.418201 523.290815 
L 778.955449 522.669247 
L 790.492698 523.515082 
L 802.029946 525.546545 
L 813.567195 528.275035 
L 825.104443 531.123309 
L 836.641692 533.562459 
L 848.17894 535.228365 
L 859.716189 535.984132 
L 871.253437 535.902767 
L 882.790686 535.161197 
L 894.327934 533.871231 
L 905.865183 531.916571 
L 917.402431 528.887437 
L 928.939679 524.176089 
L 940.476928 517.217269 
L 952.014176 507.767643 
L 963.551425 496.075729 
L 975.088673 482.833666 
L 1021.237667 427.288634 
L 1032.774916 412.39763 
L 1044.312164 395.7496 
L 1055.849412 376.790106 
L 1067.386661 355.343614 
L 1078.923909 331.519893 
L 1090.461158 305.488937 
L 1101.998406 277.271573 
L 1113.535655 246.667469 
L 1125.072903 213.389116 
L 1136.610152 177.444173 
L 1148.1474 139.774023 
L 1159.684649 103.01515 
L 1171.221897 71.993765 
L 1182.759145 53.389224 
L 1194.296394 54.19849 
L 1205.833642 79.280103 
L 1217.370891 129.005932 
L 1228.908139 198.307158 
L 1251.982636 356.735266 
L 1263.519885 425.950457 
L 1275.057133 480.21942 
L 1286.594382 518.509152 
L 1298.13163 542.922514 
L 1309.668878 557.029084 
L 1321.206127 564.430809 
L 1332.743375 567.962616 
L 1344.280624 569.496847 
L 1344.280624 569.496847 
" clip-path="url(#p5c1c26b28e)" style="fill: none; stroke: #734848; stroke-width: 1.5; stroke-linecap: round"/>
   </g>
   <g id="line2d_16">
    <path d="M -1 568.542825 
L 38.557443 567.030864 
L 51.571529 566.719356 
L 77.599701 566.394357 
L 103.627873 566.26609 
L 129.656045 566.381406 
L 155.684216 566.84956 
L 194.726474 567.689358 
L 220.754646 567.948729 
L 272.81099 568.266222 
L 324.867333 568.838714 
L 337.881419 568.755165 
L 350.895505 568.418574 
L 363.909591 567.698891 
L 376.923677 566.45204 
L 389.937763 564.56526 
L 402.951849 562.027703 
L 415.965935 559.001579 
L 428.980021 555.851739 
L 441.994107 553.094735 
L 455.008192 551.260753 
L 468.022278 550.711706 
L 481.036364 551.495693 
L 494.05045 553.312279 
L 507.064536 555.610745 
L 520.078622 557.775399 
L 533.092708 559.312886 
L 546.106794 559.968839 
L 559.12088 559.748143 
L 572.134966 558.856378 
L 624.191309 553.85878 
L 637.205395 552.700484 
L 650.219481 551.363334 
L 663.233567 549.719246 
L 676.247653 547.715149 
L 689.261739 545.347805 
L 702.275825 542.62084 
L 715.289911 539.544354 
L 741.318082 532.801282 
L 754.332168 529.754732 
L 767.346254 527.547462 
L 780.36034 526.611657 
L 793.374426 527.153616 
L 806.388512 529.042863 
L 832.416684 534.660046 
L 845.43077 536.769675 
L 858.444856 537.343313 
L 871.458942 535.848203 
L 884.473027 532.074089 
L 897.487113 526.091113 
L 910.501199 518.141078 
L 923.515285 508.554053 
L 936.529371 497.745534 
L 962.557543 474.713328 
L 975.571629 463.688354 
L 988.585715 453.421342 
L 1001.599801 443.633544 
L 1014.613887 433.52521 
L 1027.627973 422.004101 
L 1040.642058 408.030463 
L 1053.656144 390.891551 
L 1066.67023 370.263753 
L 1079.684316 346.057255 
L 1092.698402 318.177841 
L 1105.712488 286.399135 
L 1118.726574 250.503406 
L 1131.74066 210.765671 
L 1144.754746 168.739922 
L 1157.768832 128.105383 
L 1170.782918 95.04845 
L 1183.797003 77.516229 
L 1196.811089 83.029585 
L 1209.825175 115.643025 
L 1222.839261 173.535514 
L 1235.853347 248.771446 
L 1248.867433 329.674568 
L 1261.881519 404.698734 
L 1274.895605 465.833108 
L 1287.909691 510.04893 
L 1300.923777 538.603363 
L 1313.937863 555.132157 
L 1326.951948 563.730524 
L 1339.966034 567.757748 
L 1352.98012 569.458362 
L 1352.98012 569.458362 
" clip-path="url(#p5c1c26b28e)" style="fill: none; stroke: #004e4a; stroke-width: 1.5; stroke-linecap: round"/>
   </g>
   <g id="line2d_17">
    <path d="M -1 568.003833 
L 38.536147 566.545624 
L 51.564431 566.311113 
L 64.592714 566.237594 
L 90.64928 566.433099 
L 194.875545 567.911885 
L 233.960395 568.012464 
L 312.130094 567.873235 
L 338.18666 567.640345 
L 351.214943 567.308681 
L 364.243226 566.658178 
L 377.271509 565.520674 
L 390.299793 563.759975 
L 403.328076 561.348213 
L 416.356359 558.434251 
L 429.384642 555.365845 
L 442.412925 552.635076 
L 455.441208 550.746927 
L 468.469492 550.052871 
L 481.497775 550.619987 
L 494.526058 552.1984 
L 520.582624 556.380907 
L 533.610907 557.961152 
L 546.63919 558.778512 
L 559.667474 558.794544 
L 572.695757 558.160058 
L 585.72404 557.134646 
L 611.780606 554.915708 
L 650.865456 552.03937 
L 663.893739 550.709827 
L 676.922022 548.930936 
L 689.950305 546.595629 
L 702.978588 543.631124 
L 716.006871 540.031219 
L 729.035155 535.936293 
L 742.063438 531.710362 
L 755.091721 527.935807 
L 768.120004 525.282847 
L 781.148287 524.289112 
L 794.17657 525.145979 
L 807.204854 527.589765 
L 833.26142 534.281309 
L 846.289703 536.66401 
L 859.317986 537.337737 
L 872.346269 535.856216 
L 885.374552 532.081278 
L 898.402836 526.094729 
L 911.431119 518.097752 
L 924.459402 508.375154 
L 937.487685 497.337067 
L 963.544251 473.749153 
L 976.572535 462.497458 
L 989.600818 452.056619 
L 1002.629101 442.136431 
L 1015.657384 431.93954 
L 1028.685667 420.404182 
L 1041.71395 406.52804 
L 1054.742234 389.59654 
L 1067.770517 369.210127 
L 1080.7988 345.142115 
L 1093.827083 317.167842 
L 1106.855366 285.026198 
L 1119.883649 248.623942 
L 1132.911932 208.523595 
L 1145.940216 166.662034 
L 1158.968499 127.061701 
L 1171.996782 96.036724 
L 1185.025065 81.300587 
L 1198.053348 89.768156 
L 1211.081631 124.705026 
L 1224.109915 183.64835 
L 1237.138198 258.456335 
L 1250.166481 337.749795 
L 1263.194764 410.596098 
L 1276.223047 469.609163 
L 1289.25133 512.161796 
L 1302.279613 539.627484 
L 1315.307897 555.554233 
L 1328.33618 563.87232 
L 1341.364463 567.792059 
L 1354.392746 569.460855 
L 1354.392746 569.460855 
" clip-path="url(#p5c1c26b28e)" style="fill: none; stroke: #c17150; stroke-width: 1.5; stroke-linecap: round"/>
   </g>
   <g id="patch_3">
    <path d="M 37.067331 570.424988 
L 37.067331 3.00024 
" style="fill: none; stroke: #808080; stroke-width: 0.8; stroke-linejoin: miter; stroke-linecap: square"/>
   </g>
   <g id="patch_4">
    <path d="M 37.067331 570.424988 
L 1432.018425 570.424988 
" style="fill: none; stroke: #808080; stroke-width: 0.8; stroke-linejoin: miter; stroke-linecap: square"/>
   </g>
   <g id="text_16">
    <!-- Source: ELCON A/S -->
    <g style="fill: #808080" transform="translate(1339.282672 714.771836) scale(0.1 -0.1)">
     <defs>
      <path id="CMR17-53" d="M 2803 4290 
C 2803 4404 2797 4411 2758 4411 
C 2720 4411 2707 4385 2682 4328 
L 2490 3907 
C 2246 4257 1875 4416 1472 4416 
C 819 4416 294 3901 294 3253 
C 294 3056 339 2776 557 2510 
C 794 2218 1018 2167 1530 2033 
C 1722 1982 2042 1899 2106 1874 
C 2470 1722 2662 1341 2662 985 
C 2662 527 2336 38 1779 38 
C 1094 38 454 419 410 1311 
C 403 1413 397 1419 352 1419 
C 301 1419 294 1413 294 1285 
L 294 -1 
C 294 -115 301 -122 339 -122 
C 384 -122 397 -90 486 108 
C 493 127 493 140 614 381 
C 934 -39 1472 -128 1779 -128 
C 2477 -128 2970 451 2970 1124 
C 2970 1454 2848 1708 2778 1823 
C 2509 2230 2221 2306 1914 2382 
C 1869 2402 1856 2402 1498 2490 
C 1152 2579 1005 2624 845 2796 
C 666 2992 602 3196 602 3399 
C 602 3812 934 4263 1478 4263 
C 2157 4263 2579 3786 2675 2993 
C 2694 2878 2701 2872 2746 2872 
C 2803 2872 2803 2891 2803 2999 
L 2803 4290 
z
" transform="scale(0.015625)"/>
      <path id="CMR17-75" d="M 1882 2693 
L 1882 2528 
C 2259 2528 2317 2489 2317 2186 
L 2317 1032 
C 2317 500 2029 38 1555 38 
C 1030 38 986 348 986 678 
L 986 2763 
L 211 2693 
L 211 2528 
C 467 2528 640 2528 646 2274 
L 646 1058 
C 646 633 646 361 813 183 
C 896 101 1056 -64 1517 -64 
C 2061 -64 2272 377 2323 506 
L 2330 506 
L 2330 -63 
L 3091 -63 
L 3091 128 
C 2714 128 2656 166 2656 473 
L 2656 2763 
L 1882 2693 
z
" transform="scale(0.015625)"/>
      <path id="CMR17-72" d="M 960 1497 
C 960 2112 1222 2688 1702 2688 
C 1747 2688 1792 2682 1837 2662 
C 1837 2662 1696 2617 1696 2452 
C 1696 2298 1818 2234 1914 2234 
C 1990 2234 2131 2279 2131 2458 
C 2131 2663 1926 2790 1709 2790 
C 1222 2790 1011 2317 947 2093 
L 941 2093 
L 941 2790 
L 198 2720 
L 198 2554 
C 576 2554 634 2515 634 2208 
L 634 428 
C 634 184 608 153 198 153 
L 198 -13 
C 352 0 646 0 813 0 
C 998 0 1325 0 1498 -13 
L 1498 153 
C 1037 153 960 153 960 440 
L 960 1497 
z
" transform="scale(0.015625)"/>
      <path id="CMR17-63" d="M 2234 2240 
C 2112 2240 1933 2240 1933 2017 
C 1933 1838 2080 1787 2163 1787 
C 2208 1787 2394 1807 2394 2024 
C 2394 2467 1958 2803 1466 2803 
C 787 2803 211 2178 211 1363 
C 211 516 813 -64 1466 -64 
C 2259 -64 2458 677 2458 748 
C 2458 774 2451 793 2406 793 
C 2362 793 2355 787 2330 703 
C 2163 180 1798 51 1523 51 
C 1114 51 621 427 621 1369 
C 621 2338 1094 2688 1472 2688 
C 1722 2688 2093 2573 2234 2240 
z
" transform="scale(0.015625)"/>
      <path id="CMR17-3a" d="M 1062 2491 
C 1062 2650 934 2752 800 2752 
C 672 2752 538 2650 538 2491 
C 538 2332 666 2230 800 2230 
C 928 2230 1062 2332 1062 2491 
z
M 1062 261 
C 1062 420 934 522 800 522 
C 672 522 538 420 538 261 
C 538 102 666 0 800 0 
C 928 0 1062 102 1062 261 
z
" transform="scale(0.015625)"/>
      <path id="CMR17-45" d="M 3885 1615 
L 3770 1615 
C 3629 676 3546 166 2419 166 
L 1530 166 
C 1274 166 1261 197 1261 414 
L 1261 2176 
L 1862 2176 
C 2464 2176 2522 1960 2522 1430 
L 2637 1430 
L 2637 3081 
L 2522 3081 
C 2522 2557 2464 2342 1862 2342 
L 1261 2342 
L 1261 3913 
C 1261 4128 1274 4160 1530 4160 
L 2406 4160 
C 3398 4160 3514 3769 3603 2929 
L 3718 2929 
L 3565 4325 
L 326 4325 
L 326 4160 
C 768 4160 838 4160 838 3874 
L 838 451 
C 838 166 768 166 326 166 
L 326 0 
L 3654 0 
L 3885 1615 
z
" transform="scale(0.015625)"/>
      <path id="CMR17-4c" d="M 3469 1615 
L 3354 1615 
C 3302 983 3219 166 2125 166 
L 1530 166 
C 1274 166 1261 197 1261 414 
L 1261 3898 
C 1261 4129 1274 4192 1760 4192 
L 1901 4192 
L 1901 4352 
C 1638 4352 1331 4352 1069 4352 
C 870 4352 512 4352 326 4352 
L 326 4192 
C 768 4192 838 4192 838 3905 
L 838 452 
C 838 166 768 166 326 166 
L 326 0 
L 3315 0 
L 3469 1615 
z
" transform="scale(0.015625)"/>
      <path id="CMR17-4f" d="M 4307 2135 
C 4307 3437 3366 4416 2304 4416 
C 1216 4416 294 3424 294 2135 
C 294 845 1229 -128 2298 -128 
C 3392 -128 4307 864 4307 2135 
z
M 2304 -13 
C 1574 -13 781 711 781 2217 
C 781 3716 1651 4301 2298 4301 
C 2976 4301 3821 3698 3821 2217 
C 3821 686 3008 -13 2304 -13 
z
" transform="scale(0.015625)"/>
      <path id="CMR17-4e" d="M 1312 4250 
C 1267 4320 1261 4320 1139 4320 
L 326 4320 
L 326 4160 
L 448 4160 
C 704 4160 819 4129 838 4122 
L 838 610 
C 838 451 838 153 326 153 
L 326 -13 
C 474 0 742 0 902 0 
C 1062 0 1331 0 1478 -13 
L 1478 153 
C 966 153 966 451 966 610 
L 966 4033 
C 1011 3995 1011 3982 1056 3919 
L 3430 76 
C 3475 0 3494 0 3526 0 
C 3590 0 3590 19 3590 139 
L 3590 3705 
C 3590 3863 3590 4160 4102 4160 
L 4102 4326 
C 3955 4320 3686 4320 3526 4320 
C 3366 4320 3098 4320 2950 4326 
L 2950 4160 
C 3462 4160 3462 3862 3462 3703 
L 3462 763 
L 1312 4250 
z
" transform="scale(0.015625)"/>
      <path id="CMR17-41" d="M 2323 4378 
C 2291 4461 2278 4480 2214 4480 
C 2150 4480 2138 4461 2106 4378 
L 749 566 
C 627 223 371 153 147 153 
L 147 -13 
C 262 0 518 0 640 0 
C 800 0 1056 0 1210 -13 
L 1210 153 
C 909 153 864 361 864 439 
C 864 497 877 530 890 569 
L 1229 1536 
L 2906 1536 
L 3290 442 
C 3322 365 3322 352 3322 327 
C 3322 153 3046 153 2925 153 
L 2925 0 
C 3110 0 3443 0 3642 0 
C 3808 0 4128 0 4282 -13 
L 4282 153 
C 3942 153 3827 153 3744 387 
L 2323 4378 
z
M 2067 3893 
L 2848 1702 
L 1286 1702 
L 2067 3893 
z
" transform="scale(0.015625)"/>
      <path id="CMR17-2f" d="M 2605 4545 
C 2637 4627 2637 4640 2637 4653 
C 2637 4729 2579 4768 2528 4768 
C 2451 4768 2426 4717 2400 4640 
L 326 -1377 
C 294 -1460 294 -1473 294 -1486 
C 294 -1562 352 -1600 403 -1600 
C 480 -1600 506 -1549 531 -1473 
L 2605 4545 
z
" transform="scale(0.015625)"/>
     </defs>
     <use xlink:href="#CMR17-53" transform="scale(0.996264)"/>
     <use xlink:href="#CMR17-6f" transform="translate(50.89537 0) scale(0.996264)"/>
     <use xlink:href="#CMR17-75" transform="translate(96.585847 0) scale(0.996264)"/>
     <use xlink:href="#CMR17-72" transform="translate(147.481217 0) scale(0.996264)"/>
     <use xlink:href="#CMR17-63" transform="translate(182.761984 0) scale(0.996264)"/>
     <use xlink:href="#CMR17-65" transform="translate(223.247645 0) scale(0.996264)"/>
     <use xlink:href="#CMR17-3a" transform="translate(263.733305 0) scale(0.996264)"/>
     <use xlink:href="#CMR17-45" transform="translate(329.090024 0) scale(0.996264)"/>
     <use xlink:href="#CMR17-4c" transform="translate(391.676325 0) scale(0.996264)"/>
     <use xlink:href="#CMR17-43" transform="translate(449.057733 0) scale(0.996264)"/>
     <use xlink:href="#CMR17-4f" transform="translate(515.567613 0) scale(0.996264)"/>
     <use xlink:href="#CMR17-4e" transform="translate(587.282402 0) scale(0.996264)"/>
     <use xlink:href="#CMR17-41" transform="translate(686.430798 0) scale(0.996264)"/>
     <use xlink:href="#CMR17-2f" transform="translate(755.503228 0) scale(0.996264)"/>
     <use xlink:href="#CMR17-53" transform="translate(801.193705 0) scale(0.996264)"/>
    </g>
   </g>
   <g id="legend_1">
    <g id="patch_5">
     <path d="M 479.709899 649.104642 
L 989.375857 649.104642 
Q 991.375857 649.104642 991.375857 647.104642 
L 991.375857 634.167463 
Q 991.375857 632.167463 989.375857 632.167463 
L 479.709899 632.167463 
Q 477.709899 632.167463 477.709899 634.167463 
L 477.709899 647.104642 
Q 477.709899 649.104642 479.709899 649.104642 
z
" style="fill: #ffffff; opacity: 0.8"/>
    </g>
    <g id="line2d_18">
     <path d="M 481.709899 639.667463 
L 491.709899 639.667463 
L 501.709899 639.667463 
" style="fill: none; stroke: #006e64; stroke-width: 1.5; stroke-linecap: round"/>
    </g>
    <g id="text_17">
     <!-- budget costs -->
     <g style="fill: #262626" transform="translate(509.709899 643.167463) scale(0.1 -0.1)">
      <defs>
       <path id="CMR17-62" d="M 960 4396 
L 198 4326 
L 198 4160 
C 576 4160 634 4122 634 3817 
L 634 -13 
L 749 -13 
L 934 441 
C 1120 141 1395 -64 1766 -64 
C 2406 -64 3053 500 3053 1370 
C 3053 2188 2477 2790 1830 2790 
C 1434 2790 1152 2579 960 2330 
L 960 4396 
z
M 973 2004 
C 973 2118 973 2138 1062 2272 
C 1312 2657 1670 2688 1792 2688 
C 1984 2688 2643 2585 2643 1376 
C 2643 108 1888 38 1734 38 
C 1536 38 1248 114 1043 486 
C 973 608 973 621 973 735 
L 973 2004 
z
" transform="scale(0.015625)"/>
       <path id="CMR17-64" d="M 1869 4326 
L 1869 4160 
C 2246 4160 2304 4122 2304 3820 
L 2304 2345 
C 2278 2377 2016 2790 1498 2790 
C 845 2790 211 2208 211 1364 
C 211 525 806 -64 1434 -64 
C 1978 -64 2259 337 2291 380 
L 2291 -63 
L 3066 -63 
L 3066 128 
C 2688 128 2630 166 2630 473 
L 2630 4396 
L 1869 4326 
z
M 2291 755 
C 2291 563 2176 390 2029 262 
C 1811 70 1594 38 1472 38 
C 1286 38 621 134 621 1356 
C 621 2612 1363 2688 1530 2688 
C 1824 2688 2061 2522 2208 2291 
C 2291 2157 2291 2138 2291 2023 
L 2291 755 
z
" transform="scale(0.015625)"/>
       <path id="CMR17-67" d="M 710 1164 
C 832 1068 1043 960 1299 960 
C 1805 960 2240 1357 2240 1888 
C 2240 2054 2189 2310 1997 2509 
C 2176 2692 2438 2752 2586 2752 
C 2611 2752 2650 2752 2682 2734 
C 2656 2728 2598 2703 2598 2605 
C 2598 2527 2656 2471 2739 2471 
C 2835 2471 2886 2533 2886 2614 
C 2886 2731 2790 2854 2586 2854 
C 2330 2854 2106 2738 1926 2580 
C 1734 2753 1504 2816 1299 2816 
C 794 2816 358 2419 358 1888 
C 358 1522 570 1292 634 1228 
C 442 1004 442 743 442 711 
C 442 545 506 302 723 168 
C 390 85 128 -169 128 -486 
C 128 -943 736 -1280 1466 -1280 
C 2170 -1280 2803 -956 2803 -479 
C 2803 384 1856 384 1363 384 
C 1216 384 954 384 922 391 
C 723 423 589 602 589 826 
C 589 883 589 1024 710 1164 
z
M 1299 1068 
C 736 1068 736 1760 736 1889 
C 736 2016 736 2708 1299 2708 
C 1862 2708 1862 2016 1862 1889 
C 1862 1760 1862 1068 1299 1068 
z
M 1466 -1171 
C 826 -1171 384 -835 384 -486 
C 384 -289 493 -105 634 -4 
C 794 104 858 104 1293 104 
C 1818 104 2547 104 2547 -486 
C 2547 -835 2106 -1171 1466 -1171 
z
" transform="scale(0.015625)"/>
      </defs>
      <use xlink:href="#CMR17-62" transform="scale(0.996264)"/>
      <use xlink:href="#CMR17-75" transform="translate(50.89537 0) scale(0.996264)"/>
      <use xlink:href="#CMR17-64" transform="translate(101.79074 0) scale(0.996264)"/>
      <use xlink:href="#CMR17-67" transform="translate(152.686109 0) scale(0.996264)"/>
      <use xlink:href="#CMR17-65" transform="translate(198.376586 0) scale(0.996264)"/>
      <use xlink:href="#CMR17-74" transform="translate(238.862247 0) scale(0.996264)"/>
      <use xlink:href="#CMR17-63" transform="translate(304.218981 0) scale(0.996264)"/>
      <use xlink:href="#CMR17-6f" transform="translate(344.704642 0) scale(0.996264)"/>
      <use xlink:href="#CMR17-73" transform="translate(390.395119 0) scale(0.996264)"/>
      <use xlink:href="#CMR17-74" transform="translate(426.196456 0) scale(0.996264)"/>
      <use xlink:href="#CMR17-73" transform="translate(461.477224 0) scale(0.996264)"/>
     </g>
    </g>
    <g id="line2d_19">
     <path d="M 584.061728 639.667463 
L 594.061728 639.667463 
L 604.061728 639.667463 
" style="fill: none; stroke: #734848; stroke-width: 1.5; stroke-linecap: round"/>
    </g>
    <g id="text_18">
     <!-- sales estimate costs -->
     <g style="fill: #262626" transform="translate(612.061728 643.167463) scale(0.1 -0.1)">
      <defs>
       <path id="CMR17-61" d="M 2304 1653 
C 2304 2072 2304 2294 2035 2543 
C 1798 2752 1523 2816 1306 2816 
C 800 2816 435 2407 435 1971 
C 435 1728 627 1728 666 1728 
C 749 1728 896 1778 896 1954 
C 896 2112 774 2181 666 2181 
C 640 2181 608 2174 589 2168 
C 723 2592 1069 2714 1293 2714 
C 1613 2714 1965 2429 1965 1885 
L 1965 1600 
C 1587 1600 1133 1549 774 1357 
C 371 1133 256 813 256 570 
C 256 77 832 -64 1171 -64 
C 1523 -64 1850 139 1990 511 
C 2003 233 2182 -18 2464 -18 
C 2598 -18 2938 70 2938 567 
L 2938 920 
L 2822 920 
L 2822 562 
C 2822 178 2650 128 2566 128 
C 2304 128 2304 458 2304 738 
L 2304 1653 
z
M 1965 870 
C 1965 317 1568 38 1216 38 
C 896 38 646 275 646 570 
C 646 761 730 1100 1101 1305 
C 1408 1478 1760 1504 1965 1504 
L 1965 870 
z
" transform="scale(0.015625)"/>
       <path id="CMR17-6c" d="M 979 4396 
L 218 4326 
L 218 4160 
C 595 4160 653 4122 653 3817 
L 653 426 
C 653 184 627 153 218 153 
L 218 -13 
C 371 0 653 0 813 0 
C 979 0 1261 0 1414 -13 
L 1414 153 
C 1005 153 979 178 979 426 
L 979 4396 
z
" transform="scale(0.015625)"/>
      </defs>
      <use xlink:href="#CMR17-73" transform="scale(0.996264)"/>
      <use xlink:href="#CMR17-61" transform="translate(35.801338 0) scale(0.996264)"/>
      <use xlink:href="#CMR17-6c" transform="translate(81.491815 0) scale(0.996264)"/>
      <use xlink:href="#CMR17-65" transform="translate(106.362873 0) scale(0.996264)"/>
      <use xlink:href="#CMR17-73" transform="translate(146.848534 0) scale(0.996264)"/>
      <use xlink:href="#CMR17-65" transform="translate(212.725838 0) scale(0.996264)"/>
      <use xlink:href="#CMR17-73" transform="translate(253.211498 0) scale(0.996264)"/>
      <use xlink:href="#CMR17-74" transform="translate(289.012836 0) scale(0.996264)"/>
      <use xlink:href="#CMR17-69" transform="translate(324.293604 0) scale(0.996264)"/>
      <use xlink:href="#CMR17-6d" transform="translate(349.164662 0) scale(0.996264)"/>
      <use xlink:href="#CMR17-61" transform="translate(426.084252 0) scale(0.996264)"/>
      <use xlink:href="#CMR17-74" transform="translate(471.774729 0) scale(0.996264)"/>
      <use xlink:href="#CMR17-65" transform="translate(507.055497 0) scale(0.996264)"/>
      <use xlink:href="#CMR17-63" transform="translate(577.617124 0) scale(0.996264)"/>
      <use xlink:href="#CMR17-6f" transform="translate(618.102784 0) scale(0.996264)"/>
      <use xlink:href="#CMR17-73" transform="translate(663.793261 0) scale(0.996264)"/>
      <use xlink:href="#CMR17-74" transform="translate(699.594599 0) scale(0.996264)"/>
      <use xlink:href="#CMR17-73" transform="translate(734.875367 0) scale(0.996264)"/>
     </g>
    </g>
    <g id="line2d_20">
     <path d="M 716.467527 639.667463 
L 726.467527 639.667463 
L 736.467527 639.667463 
" style="fill: none; stroke: #004e4a; stroke-width: 1.5; stroke-linecap: round"/>
    </g>
    <g id="text_19">
     <!-- production estimate costs -->
     <g style="fill: #262626" transform="translate(744.467527 643.167463) scale(0.1 -0.1)">
      <defs>
       <path id="CMR17-70" d="M 1408 -1063 
C 998 -1063 973 -1037 973 -789 
L 973 402 
C 1158 134 1427 -38 1766 -38 
C 2406 -38 3053 523 3053 1388 
C 3053 2191 2496 2802 1837 2802 
C 1453 2802 1139 2592 960 2338 
L 960 2802 
L 198 2732 
L 198 2567 
C 576 2567 634 2528 634 2223 
L 634 -789 
C 634 -1031 608 -1063 198 -1063 
L 198 -1228 
C 352 -1216 634 -1216 800 -1216 
C 966 -1216 1254 -1216 1408 -1228 
L 1408 -1063 
z
M 973 2012 
C 973 2102 973 2235 1222 2471 
C 1254 2497 1472 2688 1792 2688 
C 2259 2688 2643 2108 2643 1382 
C 2643 656 2234 64 1728 64 
C 1498 64 1248 172 1056 472 
C 973 612 973 650 973 752 
L 973 2012 
z
" transform="scale(0.015625)"/>
      </defs>
      <use xlink:href="#CMR17-70" transform="scale(0.996264)"/>
      <use xlink:href="#CMR17-72" transform="translate(50.89537 0) scale(0.996264)"/>
      <use xlink:href="#CMR17-6f" transform="translate(86.176138 0) scale(0.996264)"/>
      <use xlink:href="#CMR17-64" transform="translate(134.469053 0) scale(0.996264)"/>
      <use xlink:href="#CMR17-75" transform="translate(185.364423 0) scale(0.996264)"/>
      <use xlink:href="#CMR17-63" transform="translate(236.259793 0) scale(0.996264)"/>
      <use xlink:href="#CMR17-74" transform="translate(276.745453 0) scale(0.996264)"/>
      <use xlink:href="#CMR17-69" transform="translate(312.026221 0) scale(0.996264)"/>
      <use xlink:href="#CMR17-6f" transform="translate(336.89728 0) scale(0.996264)"/>
      <use xlink:href="#CMR17-6e" transform="translate(382.587757 0) scale(0.996264)"/>
      <use xlink:href="#CMR17-65" transform="translate(463.559093 0) scale(0.996264)"/>
      <use xlink:href="#CMR17-73" transform="translate(504.044753 0) scale(0.996264)"/>
      <use xlink:href="#CMR17-74" transform="translate(539.846091 0) scale(0.996264)"/>
      <use xlink:href="#CMR17-69" transform="translate(575.126859 0) scale(0.996264)"/>
      <use xlink:href="#CMR17-6d" transform="translate(599.997917 0) scale(0.996264)"/>
      <use xlink:href="#CMR17-61" transform="translate(676.917507 0) scale(0.996264)"/>
      <use xlink:href="#CMR17-74" transform="translate(722.607984 0) scale(0.996264)"/>
      <use xlink:href="#CMR17-65" transform="translate(757.888752 0) scale(0.996264)"/>
      <use xlink:href="#CMR17-63" transform="translate(828.450379 0) scale(0.996264)"/>
      <use xlink:href="#CMR17-6f" transform="translate(868.936039 0) scale(0.996264)"/>
      <use xlink:href="#CMR17-73" transform="translate(914.626517 0) scale(0.996264)"/>
      <use xlink:href="#CMR17-74" transform="translate(950.427854 0) scale(0.996264)"/>
      <use xlink:href="#CMR17-73" transform="translate(985.708622 0) scale(0.996264)"/>
     </g>
    </g>
    <g id="line2d_21">
     <path d="M 876.187675 639.667463 
L 886.187675 639.667463 
L 896.187675 639.667463 
" style="fill: none; stroke: #c17150; stroke-width: 1.5; stroke-linecap: round"/>
    </g>
    <g id="text_20">
     <!-- final estimate costs -->
     <g style="fill: #262626" transform="translate(904.187675 643.167463) scale(0.1 -0.1)">
      <defs>
       <path id="CMR17-c" d="M 2554 2764 
C 2400 2764 1926 2764 1805 2739 
C 1766 2725 1754 2725 1677 2725 
L 947 2725 
L 947 3469 
C 947 4073 1434 4352 1818 4352 
C 1939 4352 2214 4320 2355 4101 
C 2291 4101 2086 4101 2086 3878 
C 2086 3725 2189 3648 2317 3648 
C 2432 3648 2547 3712 2547 3885 
C 2547 4205 2240 4454 1843 4454 
C 1338 4454 634 4168 634 3469 
L 634 2725 
L 122 2725 
L 122 2560 
L 634 2560 
L 634 427 
C 634 184 608 153 198 153 
L 198 -13 
C 352 0 634 0 794 0 
C 960 0 1242 0 1395 -13 
L 1395 153 
C 986 153 960 178 960 427 
L 960 2560 
L 1901 2560 
C 2176 2560 2227 2502 2227 2222 
L 2227 427 
C 2227 184 2202 153 1792 153 
L 1792 -13 
C 1946 0 2227 0 2387 0 
C 2554 0 2835 0 2989 -13 
L 2989 153 
C 2579 153 2554 178 2554 427 
L 2554 2764 
z
" transform="scale(0.015625)"/>
      </defs>
      <use xlink:href="#CMR17-c" transform="scale(0.996264)"/>
      <use xlink:href="#CMR17-6e" transform="translate(49.742223 0) scale(0.996264)"/>
      <use xlink:href="#CMR17-61" transform="translate(100.637593 0) scale(0.996264)"/>
      <use xlink:href="#CMR17-6c" transform="translate(146.32807 0) scale(0.996264)"/>
      <use xlink:href="#CMR17-65" transform="translate(201.275095 0) scale(0.996264)"/>
      <use xlink:href="#CMR17-73" transform="translate(241.760756 0) scale(0.996264)"/>
      <use xlink:href="#CMR17-74" transform="translate(277.562093 0) scale(0.996264)"/>
      <use xlink:href="#CMR17-69" transform="translate(312.842861 0) scale(0.996264)"/>
      <use xlink:href="#CMR17-6d" transform="translate(337.713919 0) scale(0.996264)"/>
      <use xlink:href="#CMR17-61" transform="translate(414.633509 0) scale(0.996264)"/>
      <use xlink:href="#CMR17-74" transform="translate(460.323986 0) scale(0.996264)"/>
      <use xlink:href="#CMR17-65" transform="translate(495.604754 0) scale(0.996264)"/>
      <use xlink:href="#CMR17-63" transform="translate(566.166381 0) scale(0.996264)"/>
      <use xlink:href="#CMR17-6f" transform="translate(606.652042 0) scale(0.996264)"/>
      <use xlink:href="#CMR17-73" transform="translate(652.342519 0) scale(0.996264)"/>
      <use xlink:href="#CMR17-74" transform="translate(688.143856 0) scale(0.996264)"/>
      <use xlink:href="#CMR17-73" transform="translate(723.424624 0) scale(0.996264)"/>
     </g>
    </g>
   </g>
  </g>
 </g>
 <defs>
  <clipPath id="p5c1c26b28e">
   <rect x="37.067331" y="3.00024" width="1394.951094" height="567.424748"/>
  </clipPath>
 </defs>
</svg>
