<?xml version="1.0" encoding="utf-8" standalone="no"?>
<!DOCTYPE svg PUBLIC "-//W3C//DTD SVG 1.1//EN"
  "http://www.w3.org/Graphics/SVG/1.1/DTD/svg11.dtd">
<svg xmlns:xlink="http://www.w3.org/1999/xlink" width="1440pt" height="720pt" viewBox="0 0 1440 720" xmlns="http://www.w3.org/2000/svg" version="1.1">
 <metadata>
  <rdf:RDF xmlns:dc="http://purl.org/dc/elements/1.1/" xmlns:cc="http://creativecommons.org/ns#" xmlns:rdf="http://www.w3.org/1999/02/22-rdf-syntax-ns#">
   <cc:Work>
    <dc:type rdf:resource="http://purl.org/dc/dcmitype/StillImage"/>
    <dc:date>2023-11-20T14:54:36.115663</dc:date>
    <dc:format>image/svg+xml</dc:format>
    <dc:creator>
     <cc:Agent>
      <dc:title>Matplotlib v3.8.0, https://matplotlib.org/</dc:title>
     </cc:Agent>
    </dc:creator>
   </cc:Work>
  </rdf:RDF>
 </metadata>
 <defs>
  <style type="text/css">*{stroke-linejoin: round; stroke-linecap: butt}</style>
 </defs>
 <g id="figure_1">
  <g id="patch_1">
   <path d="M 0 720 
L 1440 720 
L 1440 0 
L 0 0 
z
" style="fill: #ffffff"/>
  </g>
  <g id="axes_1">
   <g id="patch_2">
    <path d="M 61.046592 612.203718 
L 1427.861665 612.203718 
L 1427.861665 3.00024 
L 61.046592 3.00024 
z
" style="fill: #ffffff"/>
   </g>
   <g id="matplotlib.axis_1">
    <g id="xtick_1">
     <g id="line2d_1">
      <path d="M 155.931119 612.203718 
L 155.931119 3.00024 
" clip-path="url(#pb787a3ae2d)" style="fill: none; stroke: #cccccc; stroke-opacity: 0.35; stroke-width: 0.8; stroke-linecap: round"/>
     </g>
     <g id="text_1">
      <!-- $\mathdefault{−50}$ -->
      <g transform="translate(139.04428 629.540715) scale(0.2 -0.2)">
       <defs>
        <path id="CMSY10-0" d="M 4218 1472 
C 4326 1472 4442 1472 4442 1600 
C 4442 1728 4326 1728 4218 1728 
L 755 1728 
C 646 1728 531 1728 531 1600 
C 531 1472 646 1472 755 1472 
L 4218 1472 
z
" transform="scale(0.015625)"/>
        <path id="CMR17-35" d="M 730 3692 
C 794 3666 1056 3584 1325 3584 
C 1920 3584 2246 3911 2432 4100 
C 2432 4157 2432 4192 2394 4192 
C 2387 4192 2374 4192 2323 4163 
C 2099 4058 1837 3973 1517 3973 
C 1325 3973 1037 3999 723 4139 
C 653 4171 640 4171 634 4171 
C 602 4171 595 4164 595 4037 
L 595 2203 
C 595 2089 595 2057 659 2057 
C 691 2057 704 2070 736 2114 
C 941 2401 1222 2522 1542 2522 
C 1766 2522 2246 2382 2246 1289 
C 2246 1085 2246 715 2054 421 
C 1894 159 1645 25 1370 25 
C 947 25 518 320 403 814 
C 429 807 480 795 506 795 
C 589 795 749 840 749 1038 
C 749 1210 627 1280 506 1280 
C 358 1280 262 1190 262 1011 
C 262 454 704 -128 1382 -128 
C 2042 -128 2669 440 2669 1264 
C 2669 2030 2170 2624 1549 2624 
C 1222 2624 947 2503 730 2274 
L 730 3692 
z
" transform="scale(0.015625)"/>
        <path id="CMR17-30" d="M 2688 2025 
C 2688 2416 2682 3080 2413 3591 
C 2176 4039 1798 4198 1466 4198 
C 1158 4198 768 4058 525 3597 
C 269 3118 243 2524 243 2025 
C 243 1661 250 1106 448 619 
C 723 -39 1216 -128 1466 -128 
C 1760 -128 2208 -7 2470 600 
C 2662 1042 2688 1559 2688 2025 
z
M 1466 -26 
C 1056 -26 813 325 723 812 
C 653 1188 653 1738 653 2096 
C 653 2588 653 2997 736 3387 
C 858 3929 1216 4096 1466 4096 
C 1728 4096 2067 3923 2189 3400 
C 2272 3036 2278 2607 2278 2096 
C 2278 1680 2278 1169 2202 792 
C 2067 95 1690 -26 1466 -26 
z
" transform="scale(0.015625)"/>
       </defs>
       <use xlink:href="#CMSY10-0" transform="scale(0.996264)"/>
       <use xlink:href="#CMR17-35" transform="translate(77.487468 0) scale(0.996264)"/>
       <use xlink:href="#CMR17-30" transform="translate(123.177945 0) scale(0.996264)"/>
      </g>
     </g>
    </g>
    <g id="xtick_2">
     <g id="line2d_2">
      <path d="M 367.919543 612.203718 
L 367.919543 3.00024 
" clip-path="url(#pb787a3ae2d)" style="fill: none; stroke: #cccccc; stroke-opacity: 0.35; stroke-width: 0.8; stroke-linecap: round"/>
     </g>
     <g id="text_2">
      <!-- $\mathdefault{−40}$ -->
      <g transform="translate(351.032704 629.540715) scale(0.2 -0.2)">
       <defs>
        <path id="CMR17-34" d="M 2150 4122 
C 2150 4256 2144 4256 2029 4256 
L 128 1254 
L 128 1088 
L 1779 1088 
L 1779 457 
C 1779 224 1766 160 1318 160 
L 1197 160 
L 1197 0 
C 1402 0 1747 0 1965 0 
C 2182 0 2528 0 2733 0 
L 2733 160 
L 2611 160 
C 2163 160 2150 224 2150 457 
L 2150 1088 
L 2803 1088 
L 2803 1254 
L 2150 1254 
L 2150 4122 
z
M 1798 3703 
L 1798 1254 
L 256 1254 
L 1798 3703 
z
" transform="scale(0.015625)"/>
       </defs>
       <use xlink:href="#CMSY10-0" transform="scale(0.996264)"/>
       <use xlink:href="#CMR17-34" transform="translate(77.487468 0) scale(0.996264)"/>
       <use xlink:href="#CMR17-30" transform="translate(123.177945 0) scale(0.996264)"/>
      </g>
     </g>
    </g>
    <g id="xtick_3">
     <g id="line2d_3">
      <path d="M 579.907968 612.203718 
L 579.907968 3.00024 
" clip-path="url(#pb787a3ae2d)" style="fill: none; stroke: #cccccc; stroke-opacity: 0.35; stroke-width: 0.8; stroke-linecap: round"/>
     </g>
     <g id="text_3">
      <!-- $\mathdefault{−30}$ -->
      <g transform="translate(563.021128 629.540715) scale(0.2 -0.2)">
       <defs>
        <path id="CMR17-33" d="M 1414 2157 
C 1984 2157 2234 1662 2234 1090 
C 2234 320 1824 25 1453 25 
C 1114 25 563 194 390 693 
C 422 680 454 680 486 680 
C 640 680 755 782 755 948 
C 755 1133 614 1216 486 1216 
C 378 1216 211 1165 211 926 
C 211 335 787 -128 1466 -128 
C 2176 -128 2720 430 2720 1085 
C 2720 1707 2208 2157 1600 2227 
C 2086 2328 2554 2756 2554 3329 
C 2554 3820 2048 4179 1472 4179 
C 890 4179 378 3829 378 3329 
C 378 3110 544 3072 627 3072 
C 762 3072 877 3155 877 3321 
C 877 3486 762 3569 627 3569 
C 602 3569 570 3569 544 3557 
C 730 3959 1235 4032 1459 4032 
C 1683 4032 2106 3925 2106 3320 
C 2106 3143 2080 2828 1862 2550 
C 1670 2304 1453 2304 1242 2284 
C 1210 2284 1062 2269 1037 2269 
C 992 2263 966 2257 966 2208 
C 966 2163 973 2157 1101 2157 
L 1414 2157 
z
" transform="scale(0.015625)"/>
       </defs>
       <use xlink:href="#CMSY10-0" transform="scale(0.996264)"/>
       <use xlink:href="#CMR17-33" transform="translate(77.487468 0) scale(0.996264)"/>
       <use xlink:href="#CMR17-30" transform="translate(123.177945 0) scale(0.996264)"/>
      </g>
     </g>
    </g>
    <g id="xtick_4">
     <g id="line2d_4">
      <path d="M 791.896392 612.203718 
L 791.896392 3.00024 
" clip-path="url(#pb787a3ae2d)" style="fill: none; stroke: #cccccc; stroke-opacity: 0.35; stroke-width: 0.8; stroke-linecap: round"/>
     </g>
     <g id="text_4">
      <!-- $\mathdefault{−20}$ -->
      <g transform="translate(775.009553 629.540715) scale(0.2 -0.2)">
       <defs>
        <path id="CMR17-32" d="M 2669 989 
L 2554 989 
C 2490 536 2438 459 2413 420 
C 2381 369 1920 369 1830 369 
L 602 369 
C 832 619 1280 1072 1824 1597 
C 2214 1967 2669 2402 2669 3035 
C 2669 3790 2067 4224 1395 4224 
C 691 4224 262 3604 262 3030 
C 262 2780 448 2748 525 2748 
C 589 2748 781 2787 781 3010 
C 781 3207 614 3264 525 3264 
C 486 3264 448 3258 422 3245 
C 544 3790 915 4058 1306 4058 
C 1862 4058 2227 3617 2227 3035 
C 2227 2479 1901 2000 1536 1584 
L 262 146 
L 262 0 
L 2515 0 
L 2669 989 
z
" transform="scale(0.015625)"/>
       </defs>
       <use xlink:href="#CMSY10-0" transform="scale(0.996264)"/>
       <use xlink:href="#CMR17-32" transform="translate(77.487468 0) scale(0.996264)"/>
       <use xlink:href="#CMR17-30" transform="translate(123.177945 0) scale(0.996264)"/>
      </g>
     </g>
    </g>
    <g id="xtick_5">
     <g id="line2d_5">
      <path d="M 1003.884816 612.203718 
L 1003.884816 3.00024 
" clip-path="url(#pb787a3ae2d)" style="fill: none; stroke: #cccccc; stroke-opacity: 0.35; stroke-width: 0.8; stroke-linecap: round"/>
     </g>
     <g id="text_5">
      <!-- $\mathdefault{−10}$ -->
      <g transform="translate(986.997977 629.540715) scale(0.2 -0.2)">
       <defs>
        <path id="CMR17-31" d="M 1702 4058 
C 1702 4192 1696 4192 1606 4192 
C 1357 3916 979 3827 621 3827 
C 602 3827 570 3827 563 3808 
C 557 3795 557 3782 557 3648 
C 755 3648 1088 3686 1344 3839 
L 1344 461 
C 1344 236 1331 160 781 160 
L 589 160 
L 589 0 
C 896 0 1216 0 1523 0 
C 1830 0 2150 0 2458 0 
L 2458 160 
L 2266 160 
C 1715 160 1702 230 1702 458 
L 1702 4058 
z
" transform="scale(0.015625)"/>
       </defs>
       <use xlink:href="#CMSY10-0" transform="scale(0.996264)"/>
       <use xlink:href="#CMR17-31" transform="translate(77.487468 0) scale(0.996264)"/>
       <use xlink:href="#CMR17-30" transform="translate(123.177945 0) scale(0.996264)"/>
      </g>
     </g>
    </g>
    <g id="xtick_6">
     <g id="line2d_6">
      <path d="M 1215.87324 612.203718 
L 1215.87324 3.00024 
" clip-path="url(#pb787a3ae2d)" style="fill: none; stroke: #cccccc; stroke-opacity: 0.35; stroke-width: 0.8; stroke-linecap: round"/>
     </g>
     <g id="text_6">
      <!-- $\mathdefault{0}$ -->
      <g transform="translate(1211.304193 629.540715) scale(0.2 -0.2)">
       <use xlink:href="#CMR17-30" transform="scale(0.996264)"/>
      </g>
     </g>
    </g>
    <g id="xtick_7">
     <g id="line2d_7">
      <path d="M 1427.861665 612.203718 
L 1427.861665 3.00024 
" clip-path="url(#pb787a3ae2d)" style="fill: none; stroke: #cccccc; stroke-opacity: 0.35; stroke-width: 0.8; stroke-linecap: round"/>
     </g>
     <g id="text_7">
      <!-- $\mathdefault{10}$ -->
      <g transform="translate(1418.723569 629.540715) scale(0.2 -0.2)">
       <use xlink:href="#CMR17-31" transform="scale(0.996264)"/>
       <use xlink:href="#CMR17-30" transform="translate(45.690477 0) scale(0.996264)"/>
      </g>
     </g>
    </g>
    <g id="text_8">
     <!-- Costs (mDKK) -->
     <g style="fill: #696969" transform="translate(683.415749 652.342371) scale(0.2 -0.2)">
      <defs>
       <path id="CMR17-43" d="M 3974 4289 
C 3974 4403 3968 4410 3930 4410 
C 3904 4410 3898 4403 3853 4327 
L 3571 3792 
C 3258 4187 2874 4416 2381 4416 
C 1286 4416 294 3456 294 2148 
C 294 826 1286 -128 2387 -128 
C 3366 -128 3974 730 3974 1461 
C 3974 1524 3974 1550 3917 1550 
C 3866 1550 3866 1531 3859 1474 
C 3808 585 3168 38 2477 38 
C 1824 38 781 495 781 2147 
C 781 3805 1843 4250 2464 4250 
C 3187 4250 3712 3628 3834 2745 
C 3846 2668 3846 2655 3904 2655 
C 3974 2655 3974 2668 3974 2783 
L 3974 4289 
z
" transform="scale(0.015625)"/>
       <path id="CMR17-6f" d="M 2758 1356 
C 2758 2176 2163 2816 1466 2816 
C 768 2816 173 2176 173 1356 
C 173 551 768 -64 1466 -64 
C 2163 -64 2758 551 2758 1356 
z
M 1466 51 
C 1165 51 909 230 762 480 
C 602 767 582 1126 582 1408 
C 582 1677 595 2010 762 2298 
C 890 2509 1139 2714 1466 2714 
C 1754 2714 1997 2554 2150 2330 
C 2349 2029 2349 1607 2349 1408 
C 2349 1158 2336 775 2163 467 
C 1984 173 1709 51 1466 51 
z
" transform="scale(0.015625)"/>
       <path id="CMR17-73" d="M 1978 2697 
C 1978 2813 1971 2819 1933 2819 
C 1907 2819 1901 2813 1824 2717 
C 1805 2691 1747 2626 1728 2601 
C 1523 2819 1235 2819 1126 2819 
C 416 2819 160 2447 160 2076 
C 160 1498 813 1365 998 1325 
C 1402 1243 1542 1217 1677 1101 
C 1760 1025 1901 884 1901 654 
C 1901 384 1747 38 1158 38 
C 602 38 403 460 288 1021 
C 269 1110 269 1117 218 1117 
C 166 1117 160 1110 160 983 
L 160 63 
C 160 -51 166 -58 205 -58 
C 237 -58 243 -51 275 0 
C 314 57 410 211 448 276 
C 576 103 800 -64 1158 -64 
C 1792 -64 2131 283 2131 784 
C 2131 1112 1958 1285 1875 1362 
C 1683 1561 1459 1606 1190 1657 
C 838 1735 390 1825 390 2217 
C 390 2383 480 2737 1126 2737 
C 1811 2737 1850 2094 1862 1888 
C 1869 1856 1901 1849 1920 1849 
C 1978 1849 1978 1869 1978 1978 
L 1978 2697 
z
" transform="scale(0.015625)"/>
       <path id="CMR17-74" d="M 966 2560 
L 1862 2560 
L 1862 2725 
L 966 2725 
L 966 3904 
L 851 3904 
C 838 3245 614 2668 70 2668 
L 70 2560 
L 627 2560 
L 627 771 
C 627 650 627 -64 1370 -64 
C 1747 -64 1965 306 1965 777 
L 1965 1140 
L 1850 1140 
L 1850 783 
C 1850 344 1677 51 1408 51 
C 1222 51 966 178 966 758 
L 966 2560 
z
" transform="scale(0.015625)"/>
       <path id="CMR17-28" d="M 1958 -1561 
C 1958 -1555 1958 -1542 1939 -1523 
C 1645 -1224 858 -407 858 1581 
C 858 3569 1632 4379 1946 4697 
C 1946 4704 1958 4717 1958 4736 
C 1958 4755 1939 4768 1914 4768 
C 1843 4768 1299 4296 986 3594 
C 666 2887 576 2199 576 1588 
C 576 1128 621 351 1005 -471 
C 1312 -1135 1837 -1600 1914 -1600 
C 1946 -1600 1958 -1587 1958 -1561 
z
" transform="scale(0.015625)"/>
       <path id="CMR17-6d" d="M 4326 1933 
C 4326 2252 4269 2790 3507 2790 
C 3072 2790 2771 2496 2656 2151 
L 2650 2151 
C 2573 2676 2195 2790 1837 2790 
C 1331 2790 1069 2400 973 2144 
L 966 2144 
L 966 2790 
L 211 2720 
L 211 2554 
C 589 2554 646 2515 646 2208 
L 646 428 
C 646 184 621 153 211 153 
L 211 -13 
C 365 0 646 0 813 0 
C 979 0 1267 0 1421 -13 
L 1421 153 
C 1011 153 986 178 986 428 
L 986 1658 
C 986 2247 1344 2688 1792 2688 
C 2266 2688 2317 2266 2317 1958 
L 2317 428 
C 2317 184 2291 153 1882 153 
L 1882 -13 
C 2035 0 2317 0 2483 0 
C 2650 0 2938 0 3091 -13 
L 3091 153 
C 2682 153 2656 178 2656 428 
L 2656 1658 
C 2656 2247 3014 2688 3462 2688 
C 3936 2688 3987 2266 3987 1958 
L 3987 428 
C 3987 184 3962 153 3552 153 
L 3552 -13 
C 3706 0 3987 0 4154 0 
C 4320 0 4608 0 4762 -13 
L 4762 153 
C 4352 153 4326 178 4326 428 
L 4326 1933 
z
" transform="scale(0.015625)"/>
       <path id="CMR17-44" d="M 333 4352 
L 333 4186 
C 774 4186 845 4186 845 3900 
L 845 452 
C 845 166 774 166 333 166 
L 333 0 
L 2368 0 
C 3398 0 4224 943 4224 2141 
C 4224 3346 3411 4352 2368 4352 
L 333 4352 
z
M 1523 166 
C 1267 166 1254 197 1254 414 
L 1254 3938 
C 1254 4155 1267 4186 1523 4186 
L 2240 4186 
C 2771 4186 3750 3874 3750 2141 
C 3750 1242 3488 879 3366 707 
C 3213 510 2848 166 2240 166 
L 1523 166 
z
" transform="scale(0.015625)"/>
       <path id="CMR17-4b" d="M 2362 2675 
L 3469 3782 
C 3699 4006 3942 4186 4301 4186 
L 4301 4352 
C 4173 4352 4013 4352 3885 4352 
C 3712 4352 3411 4352 3245 4358 
L 3245 4192 
C 3411 4180 3437 4065 3437 4019 
C 3437 3975 3411 3905 3386 3867 
L 1261 1738 
L 1261 3900 
C 1261 4186 1331 4186 1773 4186 
L 1773 4352 
C 1587 4352 1248 4352 1050 4352 
C 851 4352 512 4352 326 4352 
L 326 4186 
C 768 4186 838 4186 838 3899 
L 838 446 
C 838 160 768 160 326 160 
L 326 0 
C 512 0 851 0 1050 0 
C 1248 0 1587 0 1773 0 
L 1773 160 
C 1331 160 1261 160 1261 447 
L 1261 1579 
L 2080 2390 
L 3290 537 
C 3328 473 3373 390 3373 326 
C 3373 160 3194 160 3110 160 
L 3110 0 
C 3315 0 3610 0 3821 0 
C 3974 0 4237 0 4384 -6 
L 4384 160 
C 4077 160 3981 198 3789 493 
L 2362 2675 
z
" transform="scale(0.015625)"/>
       <path id="CMR17-29" d="M 1683 1581 
C 1683 2040 1638 2817 1254 3639 
C 947 4303 422 4768 346 4768 
C 326 4768 301 4761 301 4729 
C 301 4717 307 4710 314 4697 
C 621 4378 1402 3568 1402 1584 
C 1402 -407 627 -1217 314 -1537 
C 307 -1549 301 -1556 301 -1568 
C 301 -1600 326 -1600 346 -1600 
C 416 -1600 960 -1128 1274 -426 
C 1594 281 1683 969 1683 1581 
z
" transform="scale(0.015625)"/>
      </defs>
      <use xlink:href="#CMR17-43" transform="scale(0.996264)"/>
      <use xlink:href="#CMR17-6f" transform="translate(66.509881 0) scale(0.996264)"/>
      <use xlink:href="#CMR17-73" transform="translate(112.200358 0) scale(0.996264)"/>
      <use xlink:href="#CMR17-74" transform="translate(148.001695 0) scale(0.996264)"/>
      <use xlink:href="#CMR17-73" transform="translate(183.282463 0) scale(0.996264)"/>
      <use xlink:href="#CMR17-28" transform="translate(249.159767 0) scale(0.996264)"/>
      <use xlink:href="#CMR17-6d" transform="translate(284.440535 0) scale(0.996264)"/>
      <use xlink:href="#CMR17-44" transform="translate(361.360125 0) scale(0.996264)"/>
      <use xlink:href="#CMR17-4b" transform="translate(431.753681 0) scale(0.996264)"/>
      <use xlink:href="#CMR17-4b" transform="translate(503.428458 0) scale(0.996264)"/>
      <use xlink:href="#CMR17-29" transform="translate(575.103235 0) scale(0.996264)"/>
     </g>
    </g>
   </g>
   <g id="matplotlib.axis_2">
    <g id="ytick_1">
     <g id="line2d_8">
      <path d="M 61.046592 612.203718 
L 1427.861665 612.203718 
" clip-path="url(#pb787a3ae2d)" style="fill: none; stroke: #cccccc; stroke-opacity: 0.35; stroke-width: 0.8; stroke-linecap: round"/>
     </g>
     <g id="text_9">
      <!-- $\mathdefault{0.00}$ -->
      <g transform="translate(24.71287 619.122217) scale(0.2 -0.2)">
       <defs>
        <path id="CMMI12-3a" d="M 1178 307 
C 1178 492 1024 619 870 619 
C 685 619 557 466 557 313 
C 557 128 710 0 864 0 
C 1050 0 1178 153 1178 307 
z
" transform="scale(0.015625)"/>
       </defs>
       <use xlink:href="#CMR17-30" transform="scale(0.996264)"/>
       <use xlink:href="#CMMI12-3a" transform="translate(45.690477 0) scale(0.996264)"/>
       <use xlink:href="#CMR17-30" transform="translate(72.787654 0) scale(0.996264)"/>
       <use xlink:href="#CMR17-30" transform="translate(118.478131 0) scale(0.996264)"/>
      </g>
     </g>
    </g>
    <g id="ytick_2">
     <g id="line2d_9">
      <path d="M 61.046592 503.969383 
L 1427.861665 503.969383 
" clip-path="url(#pb787a3ae2d)" style="fill: none; stroke: #cccccc; stroke-opacity: 0.35; stroke-width: 0.8; stroke-linecap: round"/>
     </g>
     <g id="text_10">
      <!-- $\mathdefault{0.02}$ -->
      <g transform="translate(24.71287 510.887882) scale(0.2 -0.2)">
       <use xlink:href="#CMR17-30" transform="scale(0.996264)"/>
       <use xlink:href="#CMMI12-3a" transform="translate(45.690477 0) scale(0.996264)"/>
       <use xlink:href="#CMR17-30" transform="translate(72.787654 0) scale(0.996264)"/>
       <use xlink:href="#CMR17-32" transform="translate(118.478131 0) scale(0.996264)"/>
      </g>
     </g>
    </g>
    <g id="ytick_3">
     <g id="line2d_10">
      <path d="M 61.046592 395.735048 
L 1427.861665 395.735048 
" clip-path="url(#pb787a3ae2d)" style="fill: none; stroke: #cccccc; stroke-opacity: 0.35; stroke-width: 0.8; stroke-linecap: round"/>
     </g>
     <g id="text_11">
      <!-- $\mathdefault{0.04}$ -->
      <g transform="translate(24.71287 402.653547) scale(0.2 -0.2)">
       <use xlink:href="#CMR17-30" transform="scale(0.996264)"/>
       <use xlink:href="#CMMI12-3a" transform="translate(45.690477 0) scale(0.996264)"/>
       <use xlink:href="#CMR17-30" transform="translate(72.787654 0) scale(0.996264)"/>
       <use xlink:href="#CMR17-34" transform="translate(118.478131 0) scale(0.996264)"/>
      </g>
     </g>
    </g>
    <g id="ytick_4">
     <g id="line2d_11">
      <path d="M 61.046592 287.500714 
L 1427.861665 287.500714 
" clip-path="url(#pb787a3ae2d)" style="fill: none; stroke: #cccccc; stroke-opacity: 0.35; stroke-width: 0.8; stroke-linecap: round"/>
     </g>
     <g id="text_12">
      <!-- $\mathdefault{0.06}$ -->
      <g transform="translate(24.71287 294.419212) scale(0.2 -0.2)">
       <defs>
        <path id="CMR17-36" d="M 678 2176 
C 678 3690 1395 4032 1811 4032 
C 1946 4032 2272 4009 2400 3776 
C 2298 3776 2106 3776 2106 3553 
C 2106 3381 2246 3323 2336 3323 
C 2394 3323 2566 3348 2566 3560 
C 2566 3954 2246 4179 1805 4179 
C 1043 4179 243 3390 243 1984 
C 243 253 966 -128 1478 -128 
C 2099 -128 2688 427 2688 1283 
C 2688 2081 2170 2662 1517 2662 
C 1126 2662 838 2407 678 1960 
L 678 2176 
z
M 1478 25 
C 691 25 691 1200 691 1436 
C 691 1896 909 2560 1504 2560 
C 1613 2560 1926 2560 2138 2120 
C 2253 1870 2253 1609 2253 1289 
C 2253 944 2253 690 2118 434 
C 1978 171 1773 25 1478 25 
z
" transform="scale(0.015625)"/>
       </defs>
       <use xlink:href="#CMR17-30" transform="scale(0.996264)"/>
       <use xlink:href="#CMMI12-3a" transform="translate(45.690477 0) scale(0.996264)"/>
       <use xlink:href="#CMR17-30" transform="translate(72.787654 0) scale(0.996264)"/>
       <use xlink:href="#CMR17-36" transform="translate(118.478131 0) scale(0.996264)"/>
      </g>
     </g>
    </g>
    <g id="ytick_5">
     <g id="line2d_12">
      <path d="M 61.046592 179.266379 
L 1427.861665 179.266379 
" clip-path="url(#pb787a3ae2d)" style="fill: none; stroke: #cccccc; stroke-opacity: 0.35; stroke-width: 0.8; stroke-linecap: round"/>
     </g>
     <g id="text_13">
      <!-- $\mathdefault{0.08}$ -->
      <g transform="translate(24.71287 186.184877) scale(0.2 -0.2)">
       <defs>
        <path id="CMR17-38" d="M 1741 2264 
C 2144 2467 2554 2773 2554 3263 
C 2554 3841 1990 4179 1472 4179 
C 890 4179 378 3759 378 3180 
C 378 3021 416 2747 666 2505 
C 730 2442 998 2251 1171 2130 
C 883 1983 211 1634 211 934 
C 211 279 838 -128 1459 -128 
C 2144 -128 2720 362 2720 1010 
C 2720 1590 2330 1857 2074 2029 
L 1741 2264 
z
M 902 2822 
C 851 2854 595 3051 595 3351 
C 595 3739 998 4032 1459 4032 
C 1965 4032 2336 3676 2336 3262 
C 2336 2669 1670 2331 1638 2331 
C 1632 2331 1626 2331 1574 2370 
L 902 2822 
z
M 2080 1519 
C 2176 1449 2483 1240 2483 851 
C 2483 381 2010 25 1472 25 
C 890 25 448 438 448 940 
C 448 1443 838 1862 1280 2060 
L 2080 1519 
z
" transform="scale(0.015625)"/>
       </defs>
       <use xlink:href="#CMR17-30" transform="scale(0.996264)"/>
       <use xlink:href="#CMMI12-3a" transform="translate(45.690477 0) scale(0.996264)"/>
       <use xlink:href="#CMR17-30" transform="translate(72.787654 0) scale(0.996264)"/>
       <use xlink:href="#CMR17-38" transform="translate(118.478131 0) scale(0.996264)"/>
      </g>
     </g>
    </g>
    <g id="ytick_6">
     <g id="line2d_13">
      <path d="M 61.046592 71.032044 
L 1427.861665 71.032044 
" clip-path="url(#pb787a3ae2d)" style="fill: none; stroke: #cccccc; stroke-opacity: 0.35; stroke-width: 0.8; stroke-linecap: round"/>
     </g>
     <g id="text_14">
      <!-- $\mathdefault{0.10}$ -->
      <g transform="translate(24.71287 77.950542) scale(0.2 -0.2)">
       <use xlink:href="#CMR17-30" transform="scale(0.996264)"/>
       <use xlink:href="#CMMI12-3a" transform="translate(45.690477 0) scale(0.996264)"/>
       <use xlink:href="#CMR17-31" transform="translate(72.787654 0) scale(0.996264)"/>
       <use xlink:href="#CMR17-30" transform="translate(118.478131 0) scale(0.996264)"/>
      </g>
     </g>
    </g>
    <g id="text_15">
     <!-- Density -->
     <g style="fill: #696969" transform="translate(16.837237 337.943779) rotate(-90) scale(0.2 -0.2)">
      <defs>
       <path id="CMR17-65" d="M 2438 1472 
C 2464 1498 2464 1511 2464 1576 
C 2464 2238 2118 2816 1389 2816 
C 710 2816 173 2169 173 1383 
C 173 551 781 -64 1459 -64 
C 2176 -64 2458 607 2458 740 
C 2458 784 2419 784 2406 784 
C 2362 784 2355 771 2330 696 
C 2189 265 1837 51 1504 51 
C 1229 51 954 203 781 480 
C 582 803 582 1176 582 1472 
L 2438 1472 
z
M 589 1568 
C 634 2505 1126 2714 1382 2714 
C 1818 2714 2112 2297 2118 1568 
L 589 1568 
z
" transform="scale(0.015625)"/>
       <path id="CMR17-6e" d="M 2656 1933 
C 2656 2259 2592 2790 1837 2790 
C 1331 2790 1069 2400 973 2144 
L 966 2144 
L 966 2790 
L 211 2720 
L 211 2554 
C 589 2554 646 2515 646 2208 
L 646 428 
C 646 184 621 153 211 153 
L 211 -13 
C 365 0 646 0 813 0 
C 979 0 1267 0 1421 -13 
L 1421 153 
C 1011 153 986 178 986 428 
L 986 1658 
C 986 2247 1344 2688 1792 2688 
C 2266 2688 2317 2266 2317 1958 
L 2317 428 
C 2317 184 2291 153 1882 153 
L 1882 -13 
C 2035 0 2317 0 2483 0 
C 2650 0 2938 0 3091 -13 
L 3091 153 
C 2682 153 2656 178 2656 428 
L 2656 1933 
z
" transform="scale(0.015625)"/>
       <path id="CMR17-69" d="M 992 3909 
C 992 4049 877 4170 730 4170 
C 589 4170 467 4056 467 3909 
C 467 3769 582 3648 730 3648 
C 870 3648 992 3763 992 3909 
z
M 243 2706 
L 243 2541 
C 602 2541 653 2502 653 2197 
L 653 427 
C 653 184 627 153 218 153 
L 218 -13 
C 371 0 646 0 806 0 
C 960 0 1222 0 1370 -13 
L 1370 153 
C 992 153 979 191 979 420 
L 979 2776 
L 243 2706 
z
" transform="scale(0.015625)"/>
       <path id="CMR17-79" d="M 2496 2197 
C 2656 2586 2944 2586 3034 2586 
L 3034 2752 
C 2912 2752 2752 2752 2630 2752 
C 2496 2752 2285 2752 2157 2758 
L 2157 2592 
C 2400 2573 2406 2394 2406 2343 
C 2406 2280 2394 2248 2362 2171 
L 1664 449 
L 902 2306 
C 870 2382 870 2426 870 2433 
C 870 2573 1018 2586 1171 2586 
L 1171 2758 
C 1018 2752 742 2752 582 2752 
C 410 2752 205 2752 64 2758 
L 64 2586 
C 410 2586 448 2554 531 2350 
L 1485 15 
C 1197 -738 1030 -1178 627 -1178 
C 557 -1178 397 -1159 282 -1044 
C 429 -1031 493 -942 493 -833 
C 493 -725 416 -629 288 -629 
C 147 -629 77 -725 77 -840 
C 77 -1095 339 -1280 627 -1280 
C 998 -1280 1229 -922 1357 -604 
L 2496 2197 
z
" transform="scale(0.015625)"/>
      </defs>
      <use xlink:href="#CMR17-44" transform="scale(0.996264)"/>
      <use xlink:href="#CMR17-65" transform="translate(70.393556 0) scale(0.996264)"/>
      <use xlink:href="#CMR17-6e" transform="translate(110.879216 0) scale(0.996264)"/>
      <use xlink:href="#CMR17-73" transform="translate(161.774586 0) scale(0.996264)"/>
      <use xlink:href="#CMR17-69" transform="translate(197.575924 0) scale(0.996264)"/>
      <use xlink:href="#CMR17-74" transform="translate(222.446982 0) scale(0.996264)"/>
      <use xlink:href="#CMR17-79" transform="translate(255.125296 0) scale(0.996264)"/>
     </g>
    </g>
   </g>
   <g id="line2d_14">
    <path d="M -1 610.571399 
L 0.901476 610.412872 
L 7.720283 609.685329 
L 14.53909 608.804398 
L 28.176703 606.726691 
L 41.814317 604.71311 
L 48.633124 603.965935 
L 55.451931 603.50794 
L 62.270738 603.392999 
L 69.089544 603.634936 
L 75.908351 604.204793 
L 82.727158 605.036527 
L 96.364772 607.11512 
L 110.002386 609.137052 
L 116.821192 609.964956 
L 123.639999 610.634967 
L 130.458806 611.14859 
L 137.277613 611.52254 
L 150.915227 611.952653 
L 164.55284 612.12517 
L 198.646875 612.201444 
L 253.197329 612.122127 
L 266.834943 611.952089 
L 280.472557 611.544993 
L 287.291364 611.201448 
L 294.11017 610.739945 
L 300.928977 610.151732 
L 314.566591 608.637234 
L 328.204205 606.939545 
L 335.023011 606.186524 
L 341.841818 605.597044 
L 348.660625 605.231221 
L 355.479432 605.121522 
L 362.298239 605.263338 
L 369.117046 605.61152 
L 389.573466 606.938687 
L 396.392273 607.06474 
L 403.21108 606.826229 
L 410.029887 606.122764 
L 416.848694 604.881774 
L 423.667501 603.064786 
L 430.486307 600.672733 
L 437.305114 597.750577 
L 444.123921 594.39085 
L 464.580342 583.323544 
L 471.399148 580.042199 
L 478.217955 577.37588 
L 485.036762 575.547575 
L 491.855569 574.725587 
L 498.674376 574.998845 
L 505.493183 576.361115 
L 512.31199 578.708017 
L 519.130796 581.848193 
L 525.949603 585.526807 
L 539.587217 593.351784 
L 546.406024 596.954606 
L 553.224831 600.057464 
L 560.043637 602.512017 
L 566.862444 604.230758 
L 573.681251 605.182745 
L 580.500058 605.387301 
L 587.318865 604.908334 
L 594.137672 603.850079 
L 600.956479 602.353008 
L 621.412899 597.007603 
L 628.231706 595.554548 
L 635.050513 594.512219 
L 641.86932 593.951284 
L 648.688126 593.875827 
L 655.506933 594.226584 
L 662.32574 594.894188 
L 682.782161 597.344803 
L 689.600968 597.812567 
L 696.419774 597.873689 
L 703.238581 597.400946 
L 710.057388 596.278471 
L 716.876195 594.413423 
L 723.695002 591.756054 
L 730.513809 588.323961 
L 737.332615 584.222866 
L 744.151422 579.655256 
L 750.970229 574.91037 
L 757.789036 570.333792 
L 764.607843 566.280795 
L 771.42665 563.062615 
L 778.245457 560.897311 
L 785.064263 559.875868 
L 791.88307 559.950303 
L 798.701877 560.944973 
L 805.520684 562.58707 
L 819.158298 566.493482 
L 825.977104 568.116818 
L 832.795911 569.181562 
L 839.614718 569.540505 
L 846.433525 569.148728 
L 853.252332 568.06421 
L 860.071139 566.436251 
L 880.527559 560.555634 
L 887.346366 558.973047 
L 894.165173 557.738898 
L 907.802787 555.729675 
L 914.621593 554.2968 
L 921.4404 551.980937 
L 928.259207 548.327325 
L 935.078014 542.986022 
L 941.896821 535.79653 
L 948.715628 526.844782 
L 955.534435 516.478489 
L 969.172048 493.965376 
L 975.990855 483.327305 
L 982.809662 474.065152 
L 989.628469 466.698013 
L 996.447276 461.474609 
L 1003.266082 458.328913 
L 1010.084889 456.883261 
L 1016.903696 456.497746 
L 1023.722503 456.357306 
L 1030.54131 455.581944 
L 1037.360117 453.341869 
L 1044.178924 448.958518 
L 1050.99773 441.975002 
L 1057.816537 432.185463 
L 1064.635344 419.621499 
L 1071.454151 404.503344 
L 1078.272958 387.171131 
L 1085.091765 368.014597 
L 1091.910572 347.416567 
L 1098.729378 325.717412 
L 1105.548185 303.197947 
L 1112.366992 280.071659 
L 1119.185799 256.477492 
L 1126.004606 232.472234 
L 1132.823413 208.03327 
L 1139.642219 183.091453 
L 1153.279833 131.738159 
L 1160.09864 105.951242 
L 1166.917447 81.247113 
L 1173.736254 59.219613 
L 1180.555061 42.017088 
L 1187.373867 32.128138 
L 1194.192674 32.009929 
L 1201.011481 43.624182 
L 1207.830288 67.986763 
L 1214.649095 104.848802 
L 1221.467902 152.602636 
L 1228.286708 208.450133 
L 1241.924322 329.810221 
L 1248.743129 387.924717 
L 1255.561936 440.329839 
L 1262.380743 485.206841 
L 1269.19955 521.782804 
L 1276.018356 550.200609 
L 1282.837163 571.273948 
L 1289.65597 586.20281 
L 1296.474777 596.313594 
L 1303.293584 602.863833 
L 1310.112391 606.924938 
L 1316.931197 609.335454 
L 1316.931197 609.335454 
" clip-path="url(#pb787a3ae2d)" style="fill: none; stroke: #006e64; stroke-width: 1.5; stroke-linecap: round"/>
   </g>
   <g id="line2d_15">
    <path d="M -1 611.289099 
L 41.568573 609.958869 
L 52.89263 609.794403 
L 64.216688 609.813309 
L 75.540745 610.0146 
L 120.836976 611.40661 
L 132.161033 611.549597 
L 143.485091 611.528882 
L 154.809148 611.335268 
L 166.133206 610.970019 
L 177.457263 610.444799 
L 200.105378 609.04247 
L 222.753493 607.611921 
L 234.077551 607.120514 
L 245.401609 606.896717 
L 256.725666 606.983007 
L 268.049724 607.362885 
L 290.697839 608.667091 
L 302.021896 609.35858 
L 313.345954 609.9375 
L 324.670011 610.341571 
L 335.994069 610.541512 
L 347.318126 610.521718 
L 358.642184 610.254759 
L 369.966242 609.682903 
L 381.290299 608.71891 
L 392.614357 607.271986 
L 403.938414 605.294225 
L 415.262472 602.831788 
L 437.910587 597.275 
L 449.234644 594.859394 
L 460.558702 593.190024 
L 471.882759 592.551763 
L 483.206817 593.060867 
L 494.530874 594.629805 
L 505.854932 596.98376 
L 528.503047 602.415856 
L 539.827105 604.679625 
L 551.151162 606.250312 
L 562.47522 607.006383 
L 573.799277 606.965852 
L 585.123335 606.262524 
L 596.447392 605.108864 
L 630.419565 601.121055 
L 653.06768 598.696069 
L 664.391738 597.138711 
L 675.715795 595.031322 
L 687.039853 592.192626 
L 698.36391 588.541316 
L 709.687968 584.110895 
L 721.012025 579.054834 
L 743.66014 568.305747 
L 754.984198 563.515272 
L 766.308255 559.804301 
L 777.632313 557.61003 
L 788.956371 557.164921 
L 800.280428 558.415976 
L 811.604486 561.016012 
L 834.252601 567.879447 
L 845.576658 570.857556 
L 856.900716 572.897338 
L 868.224773 573.834398 
L 879.548831 573.760476 
L 890.872888 572.905862 
L 902.196946 571.440084 
L 913.521004 569.272661 
L 924.845061 565.965164 
L 936.169119 560.833365 
L 947.493176 553.224453 
L 958.817234 542.846288 
L 970.141291 529.9712 
L 981.465349 515.379721 
L 1015.437521 469.299563 
L 1026.761579 453.409342 
L 1038.085636 435.985363 
L 1049.409694 416.084008 
L 1060.733752 393.204178 
L 1072.057809 367.410535 
L 1083.381867 339.140543 
L 1094.705924 308.837493 
L 1106.029982 276.642538 
L 1117.354039 242.337924 
L 1128.678097 205.623309 
L 1140.002154 166.703341 
L 1151.326212 127.066898 
L 1162.650269 90.192179 
L 1173.974327 61.740526 
L 1185.298385 48.780523 
L 1196.622442 57.9115 
L 1207.9465 92.797364 
L 1219.270557 152.197295 
L 1230.594615 229.5969 
L 1241.918672 314.834571 
L 1253.24273 397.071904 
L 1264.566787 467.766025 
L 1275.890845 522.413902 
L 1287.214902 560.612349 
L 1298.53896 584.842444 
L 1309.863017 598.824172 
L 1321.187075 606.176349 
L 1332.511133 609.70391 
L 1343.83519 611.24972 
L 1343.83519 611.24972 
" clip-path="url(#pb787a3ae2d)" style="fill: none; stroke: #734848; stroke-width: 1.5; stroke-linecap: round"/>
   </g>
   <g id="line2d_16">
    <path d="M -1 610.401282 
L 11.343305 609.960119 
L 62.463839 607.752547 
L 75.243972 607.465914 
L 100.804239 607.274133 
L 139.144639 607.376182 
L 164.704905 607.769987 
L 215.825439 609.029671 
L 241.385706 609.335451 
L 292.506239 609.728535 
L 330.846639 610.284501 
L 343.626772 610.355062 
L 356.406906 610.254299 
L 369.187039 609.882682 
L 381.967172 609.122494 
L 394.747306 607.862032 
L 407.527439 606.043189 
L 420.307572 603.720933 
L 445.867839 598.558374 
L 458.647972 596.507907 
L 471.428106 595.327606 
L 484.208239 595.200922 
L 496.988372 596.048486 
L 509.768506 597.548278 
L 522.548639 599.240485 
L 535.328773 600.669865 
L 548.108906 601.508219 
L 560.889039 601.618557 
L 573.669173 601.053047 
L 586.449306 599.999125 
L 650.349973 593.383956 
L 663.130106 591.749043 
L 675.910239 589.749374 
L 688.690373 587.324944 
L 701.470506 584.448132 
L 714.250639 581.106852 
L 727.030773 577.331825 
L 752.591039 569.225664 
L 765.371173 565.692757 
L 778.151306 563.21071 
L 790.931439 562.215879 
L 803.711573 562.869961 
L 816.491706 564.958773 
L 842.051973 570.823766 
L 854.832106 572.820345 
L 867.61224 573.100404 
L 880.392373 571.189633 
L 893.172506 566.96825 
L 905.95264 560.58407 
L 918.732773 552.304683 
L 931.512906 542.419959 
L 944.29304 531.255565 
L 957.073173 519.247056 
L 969.853306 506.948075 
L 982.63344 494.881552 
L 995.413573 483.271651 
L 1008.193706 471.814275 
L 1020.97384 459.654 
L 1033.753973 445.618205 
L 1046.534106 428.594249 
L 1059.31424 407.840073 
L 1072.094373 383.062997 
L 1084.874506 354.258354 
L 1097.65464 321.464048 
L 1110.434773 284.658496 
L 1123.214907 243.981492 
L 1135.99504 200.326926 
L 1148.775173 156.169601 
L 1161.555307 116.251484 
L 1174.33544 87.550369 
L 1187.115573 78.016262 
L 1199.895707 94.094185 
L 1212.67584 137.90769 
L 1225.455973 205.559859 
L 1238.236107 287.704361 
L 1251.01624 372.354357 
L 1263.796373 448.60949 
L 1276.576507 509.528194 
L 1289.35664 553.03461 
L 1302.136773 580.947682 
L 1314.916907 597.08791 
L 1327.69704 605.517822 
L 1340.477173 609.501102 
L 1353.257307 611.205922 
L 1353.257307 611.205922 
" clip-path="url(#pb787a3ae2d)" style="fill: none; stroke: #004e4a; stroke-width: 1.5; stroke-linecap: round"/>
   </g>
   <g id="line2d_17">
    <path d="M -1 610.353921 
L 24.037031 609.260558 
L 49.635701 608.043771 
L 62.435036 607.597343 
L 75.234371 607.336343 
L 88.033706 607.264387 
L 113.632376 607.528102 
L 203.227721 609.166219 
L 228.826391 609.385186 
L 267.224395 609.452719 
L 318.421735 609.338094 
L 344.020405 609.120456 
L 356.81974 608.898285 
L 369.619075 608.495592 
L 382.41841 607.782709 
L 395.217745 606.624025 
L 408.01708 604.937288 
L 420.816415 602.758116 
L 446.415085 597.832131 
L 459.214419 595.815511 
L 472.013754 594.571413 
L 484.813089 594.27547 
L 497.612424 594.876347 
L 510.411759 596.113222 
L 523.211094 597.600457 
L 536.010429 598.9421 
L 548.809764 599.833219 
L 561.609099 600.119255 
L 574.408434 599.80594 
L 587.207769 599.027535 
L 651.204444 593.858807 
L 664.003779 592.654761 
L 676.803113 591.055427 
L 689.602448 588.881478 
L 702.401783 585.987826 
L 715.201118 582.291296 
L 728.000453 577.830944 
L 753.599123 567.839708 
L 766.398458 563.495194 
L 779.197793 560.541448 
L 791.997128 559.502409 
L 804.796463 560.496571 
L 817.595798 563.152958 
L 830.395133 566.682772 
L 843.194468 570.0777 
L 855.993803 572.35986 
L 868.793138 572.793628 
L 881.592473 570.987506 
L 894.391807 566.863149 
L 907.191142 560.535364 
L 919.990477 552.195939 
L 932.789812 542.083728 
L 945.589147 530.546412 
L 958.388482 518.106802 
L 971.187817 505.416668 
L 983.987152 493.051606 
L 996.786487 481.227123 
L 1009.585822 469.601812 
L 1022.385157 457.304745 
L 1035.184492 443.192555 
L 1047.983827 426.197974 
L 1060.783162 405.579299 
L 1073.582497 380.957382 
L 1086.381832 352.177479 
L 1099.181167 319.154283 
L 1111.980502 281.882071 
L 1124.779836 240.72631 
L 1150.378506 153.664641 
L 1163.177841 115.819597 
L 1175.977176 90.434128 
L 1188.776511 84.955878 
L 1201.575846 104.913621 
L 1214.375181 151.420192 
L 1227.174516 219.896239 
L 1239.973851 300.930947 
L 1252.773186 383.075656 
L 1265.572521 456.275403 
L 1278.371856 514.362132 
L 1291.171191 555.711438 
L 1303.970526 582.236683 
L 1316.769861 597.616762 
L 1329.569196 605.69425 
L 1342.36853 609.542578 
L 1355.167865 611.207672 
L 1355.167865 611.207672 
" clip-path="url(#pb787a3ae2d)" style="fill: none; stroke: #c17150; stroke-width: 1.5; stroke-linecap: round"/>
   </g>
   <g id="patch_3">
    <path d="M 61.046592 612.203718 
L 61.046592 3.00024 
" style="fill: none; stroke: #808080; stroke-width: 0.8; stroke-linejoin: miter; stroke-linecap: square"/>
   </g>
   <g id="patch_4">
    <path d="M 61.046592 612.203718 
L 1427.861665 612.203718 
" style="fill: none; stroke: #808080; stroke-width: 0.8; stroke-linejoin: miter; stroke-linecap: square"/>
   </g>
   <g id="legend_1">
    <g id="patch_5">
     <path d="M 263.585142 716.9997 
L 1225.323115 716.9997 
Q 1229.323115 716.9997 1229.323115 712.9997 
L 1229.323115 687.124066 
Q 1229.323115 683.124066 1225.323115 683.124066 
L 263.585142 683.124066 
Q 259.585142 683.124066 259.585142 687.124066 
L 259.585142 712.9997 
Q 259.585142 716.9997 263.585142 716.9997 
z
" style="fill: #ffffff; opacity: 0.8"/>
    </g>
    <g id="line2d_18">
     <path d="M 267.585142 698.124066 
L 287.585142 698.124066 
L 307.585142 698.124066 
" style="fill: none; stroke: #006e64; stroke-width: 1.5; stroke-linecap: round"/>
    </g>
    <g id="text_16">
     <!-- budget costs -->
     <g style="fill: #262626" transform="translate(323.585142 705.124066) scale(0.2 -0.2)">
      <defs>
       <path id="CMR17-62" d="M 960 4396 
L 198 4326 
L 198 4160 
C 576 4160 634 4122 634 3817 
L 634 -13 
L 749 -13 
L 934 441 
C 1120 141 1395 -64 1766 -64 
C 2406 -64 3053 500 3053 1370 
C 3053 2188 2477 2790 1830 2790 
C 1434 2790 1152 2579 960 2330 
L 960 4396 
z
M 973 2004 
C 973 2118 973 2138 1062 2272 
C 1312 2657 1670 2688 1792 2688 
C 1984 2688 2643 2585 2643 1376 
C 2643 108 1888 38 1734 38 
C 1536 38 1248 114 1043 486 
C 973 608 973 621 973 735 
L 973 2004 
z
" transform="scale(0.015625)"/>
       <path id="CMR17-75" d="M 1882 2693 
L 1882 2528 
C 2259 2528 2317 2489 2317 2186 
L 2317 1032 
C 2317 500 2029 38 1555 38 
C 1030 38 986 348 986 678 
L 986 2763 
L 211 2693 
L 211 2528 
C 467 2528 640 2528 646 2274 
L 646 1058 
C 646 633 646 361 813 183 
C 896 101 1056 -64 1517 -64 
C 2061 -64 2272 377 2323 506 
L 2330 506 
L 2330 -63 
L 3091 -63 
L 3091 128 
C 2714 128 2656 166 2656 473 
L 2656 2763 
L 1882 2693 
z
" transform="scale(0.015625)"/>
       <path id="CMR17-64" d="M 1869 4326 
L 1869 4160 
C 2246 4160 2304 4122 2304 3820 
L 2304 2345 
C 2278 2377 2016 2790 1498 2790 
C 845 2790 211 2208 211 1364 
C 211 525 806 -64 1434 -64 
C 1978 -64 2259 337 2291 380 
L 2291 -63 
L 3066 -63 
L 3066 128 
C 2688 128 2630 166 2630 473 
L 2630 4396 
L 1869 4326 
z
M 2291 755 
C 2291 563 2176 390 2029 262 
C 1811 70 1594 38 1472 38 
C 1286 38 621 134 621 1356 
C 621 2612 1363 2688 1530 2688 
C 1824 2688 2061 2522 2208 2291 
C 2291 2157 2291 2138 2291 2023 
L 2291 755 
z
" transform="scale(0.015625)"/>
       <path id="CMR17-67" d="M 710 1164 
C 832 1068 1043 960 1299 960 
C 1805 960 2240 1357 2240 1888 
C 2240 2054 2189 2310 1997 2509 
C 2176 2692 2438 2752 2586 2752 
C 2611 2752 2650 2752 2682 2734 
C 2656 2728 2598 2703 2598 2605 
C 2598 2527 2656 2471 2739 2471 
C 2835 2471 2886 2533 2886 2614 
C 2886 2731 2790 2854 2586 2854 
C 2330 2854 2106 2738 1926 2580 
C 1734 2753 1504 2816 1299 2816 
C 794 2816 358 2419 358 1888 
C 358 1522 570 1292 634 1228 
C 442 1004 442 743 442 711 
C 442 545 506 302 723 168 
C 390 85 128 -169 128 -486 
C 128 -943 736 -1280 1466 -1280 
C 2170 -1280 2803 -956 2803 -479 
C 2803 384 1856 384 1363 384 
C 1216 384 954 384 922 391 
C 723 423 589 602 589 826 
C 589 883 589 1024 710 1164 
z
M 1299 1068 
C 736 1068 736 1760 736 1889 
C 736 2016 736 2708 1299 2708 
C 1862 2708 1862 2016 1862 1889 
C 1862 1760 1862 1068 1299 1068 
z
M 1466 -1171 
C 826 -1171 384 -835 384 -486 
C 384 -289 493 -105 634 -4 
C 794 104 858 104 1293 104 
C 1818 104 2547 104 2547 -486 
C 2547 -835 2106 -1171 1466 -1171 
z
" transform="scale(0.015625)"/>
       <path id="CMR17-63" d="M 2234 2240 
C 2112 2240 1933 2240 1933 2017 
C 1933 1838 2080 1787 2163 1787 
C 2208 1787 2394 1807 2394 2024 
C 2394 2467 1958 2803 1466 2803 
C 787 2803 211 2178 211 1363 
C 211 516 813 -64 1466 -64 
C 2259 -64 2458 677 2458 748 
C 2458 774 2451 793 2406 793 
C 2362 793 2355 787 2330 703 
C 2163 180 1798 51 1523 51 
C 1114 51 621 427 621 1369 
C 621 2338 1094 2688 1472 2688 
C 1722 2688 2093 2573 2234 2240 
z
" transform="scale(0.015625)"/>
      </defs>
      <use xlink:href="#CMR17-62" transform="scale(0.996264)"/>
      <use xlink:href="#CMR17-75" transform="translate(50.89537 0) scale(0.996264)"/>
      <use xlink:href="#CMR17-64" transform="translate(101.79074 0) scale(0.996264)"/>
      <use xlink:href="#CMR17-67" transform="translate(152.686109 0) scale(0.996264)"/>
      <use xlink:href="#CMR17-65" transform="translate(198.376586 0) scale(0.996264)"/>
      <use xlink:href="#CMR17-74" transform="translate(238.862247 0) scale(0.996264)"/>
      <use xlink:href="#CMR17-63" transform="translate(304.218981 0) scale(0.996264)"/>
      <use xlink:href="#CMR17-6f" transform="translate(344.704642 0) scale(0.996264)"/>
      <use xlink:href="#CMR17-73" transform="translate(390.395119 0) scale(0.996264)"/>
      <use xlink:href="#CMR17-74" transform="translate(426.196456 0) scale(0.996264)"/>
      <use xlink:href="#CMR17-73" transform="translate(461.477224 0) scale(0.996264)"/>
     </g>
    </g>
    <g id="line2d_19">
     <path d="M 463.040812 698.124066 
L 483.040812 698.124066 
L 503.040812 698.124066 
" style="fill: none; stroke: #734848; stroke-width: 1.5; stroke-linecap: round"/>
    </g>
    <g id="text_17">
     <!-- sales estimate costs -->
     <g style="fill: #262626" transform="translate(519.040812 705.124066) scale(0.2 -0.2)">
      <defs>
       <path id="CMR17-61" d="M 2304 1653 
C 2304 2072 2304 2294 2035 2543 
C 1798 2752 1523 2816 1306 2816 
C 800 2816 435 2407 435 1971 
C 435 1728 627 1728 666 1728 
C 749 1728 896 1778 896 1954 
C 896 2112 774 2181 666 2181 
C 640 2181 608 2174 589 2168 
C 723 2592 1069 2714 1293 2714 
C 1613 2714 1965 2429 1965 1885 
L 1965 1600 
C 1587 1600 1133 1549 774 1357 
C 371 1133 256 813 256 570 
C 256 77 832 -64 1171 -64 
C 1523 -64 1850 139 1990 511 
C 2003 233 2182 -18 2464 -18 
C 2598 -18 2938 70 2938 567 
L 2938 920 
L 2822 920 
L 2822 562 
C 2822 178 2650 128 2566 128 
C 2304 128 2304 458 2304 738 
L 2304 1653 
z
M 1965 870 
C 1965 317 1568 38 1216 38 
C 896 38 646 275 646 570 
C 646 761 730 1100 1101 1305 
C 1408 1478 1760 1504 1965 1504 
L 1965 870 
z
" transform="scale(0.015625)"/>
       <path id="CMR17-6c" d="M 979 4396 
L 218 4326 
L 218 4160 
C 595 4160 653 4122 653 3817 
L 653 426 
C 653 184 627 153 218 153 
L 218 -13 
C 371 0 653 0 813 0 
C 979 0 1261 0 1414 -13 
L 1414 153 
C 1005 153 979 178 979 426 
L 979 4396 
z
" transform="scale(0.015625)"/>
      </defs>
      <use xlink:href="#CMR17-73" transform="scale(0.996264)"/>
      <use xlink:href="#CMR17-61" transform="translate(35.801338 0) scale(0.996264)"/>
      <use xlink:href="#CMR17-6c" transform="translate(81.491815 0) scale(0.996264)"/>
      <use xlink:href="#CMR17-65" transform="translate(106.362873 0) scale(0.996264)"/>
      <use xlink:href="#CMR17-73" transform="translate(146.848534 0) scale(0.996264)"/>
      <use xlink:href="#CMR17-65" transform="translate(212.725838 0) scale(0.996264)"/>
      <use xlink:href="#CMR17-73" transform="translate(253.211498 0) scale(0.996264)"/>
      <use xlink:href="#CMR17-74" transform="translate(289.012836 0) scale(0.996264)"/>
      <use xlink:href="#CMR17-69" transform="translate(324.293604 0) scale(0.996264)"/>
      <use xlink:href="#CMR17-6d" transform="translate(349.164662 0) scale(0.996264)"/>
      <use xlink:href="#CMR17-61" transform="translate(426.084252 0) scale(0.996264)"/>
      <use xlink:href="#CMR17-74" transform="translate(471.774729 0) scale(0.996264)"/>
      <use xlink:href="#CMR17-65" transform="translate(507.055497 0) scale(0.996264)"/>
      <use xlink:href="#CMR17-63" transform="translate(577.617124 0) scale(0.996264)"/>
      <use xlink:href="#CMR17-6f" transform="translate(618.102784 0) scale(0.996264)"/>
      <use xlink:href="#CMR17-73" transform="translate(663.793261 0) scale(0.996264)"/>
      <use xlink:href="#CMR17-74" transform="translate(699.594599 0) scale(0.996264)"/>
      <use xlink:href="#CMR17-73" transform="translate(734.875367 0) scale(0.996264)"/>
     </g>
    </g>
    <g id="line2d_20">
     <path d="M 713.176092 698.124066 
L 733.176092 698.124066 
L 753.176092 698.124066 
" style="fill: none; stroke: #004e4a; stroke-width: 1.5; stroke-linecap: round"/>
    </g>
    <g id="text_18">
     <!-- production estimate costs -->
     <g style="fill: #262626" transform="translate(769.176092 705.124066) scale(0.2 -0.2)">
      <defs>
       <path id="CMR17-70" d="M 1408 -1063 
C 998 -1063 973 -1037 973 -789 
L 973 402 
C 1158 134 1427 -38 1766 -38 
C 2406 -38 3053 523 3053 1388 
C 3053 2191 2496 2802 1837 2802 
C 1453 2802 1139 2592 960 2338 
L 960 2802 
L 198 2732 
L 198 2567 
C 576 2567 634 2528 634 2223 
L 634 -789 
C 634 -1031 608 -1063 198 -1063 
L 198 -1228 
C 352 -1216 634 -1216 800 -1216 
C 966 -1216 1254 -1216 1408 -1228 
L 1408 -1063 
z
M 973 2012 
C 973 2102 973 2235 1222 2471 
C 1254 2497 1472 2688 1792 2688 
C 2259 2688 2643 2108 2643 1382 
C 2643 656 2234 64 1728 64 
C 1498 64 1248 172 1056 472 
C 973 612 973 650 973 752 
L 973 2012 
z
" transform="scale(0.015625)"/>
       <path id="CMR17-72" d="M 960 1497 
C 960 2112 1222 2688 1702 2688 
C 1747 2688 1792 2682 1837 2662 
C 1837 2662 1696 2617 1696 2452 
C 1696 2298 1818 2234 1914 2234 
C 1990 2234 2131 2279 2131 2458 
C 2131 2663 1926 2790 1709 2790 
C 1222 2790 1011 2317 947 2093 
L 941 2093 
L 941 2790 
L 198 2720 
L 198 2554 
C 576 2554 634 2515 634 2208 
L 634 428 
C 634 184 608 153 198 153 
L 198 -13 
C 352 0 646 0 813 0 
C 998 0 1325 0 1498 -13 
L 1498 153 
C 1037 153 960 153 960 440 
L 960 1497 
z
" transform="scale(0.015625)"/>
      </defs>
      <use xlink:href="#CMR17-70" transform="scale(0.996264)"/>
      <use xlink:href="#CMR17-72" transform="translate(50.89537 0) scale(0.996264)"/>
      <use xlink:href="#CMR17-6f" transform="translate(86.176138 0) scale(0.996264)"/>
      <use xlink:href="#CMR17-64" transform="translate(134.469053 0) scale(0.996264)"/>
      <use xlink:href="#CMR17-75" transform="translate(185.364423 0) scale(0.996264)"/>
      <use xlink:href="#CMR17-63" transform="translate(236.259793 0) scale(0.996264)"/>
      <use xlink:href="#CMR17-74" transform="translate(276.745453 0) scale(0.996264)"/>
      <use xlink:href="#CMR17-69" transform="translate(312.026221 0) scale(0.996264)"/>
      <use xlink:href="#CMR17-6f" transform="translate(336.89728 0) scale(0.996264)"/>
      <use xlink:href="#CMR17-6e" transform="translate(382.587757 0) scale(0.996264)"/>
      <use xlink:href="#CMR17-65" transform="translate(463.559093 0) scale(0.996264)"/>
      <use xlink:href="#CMR17-73" transform="translate(504.044753 0) scale(0.996264)"/>
      <use xlink:href="#CMR17-74" transform="translate(539.846091 0) scale(0.996264)"/>
      <use xlink:href="#CMR17-69" transform="translate(575.126859 0) scale(0.996264)"/>
      <use xlink:href="#CMR17-6d" transform="translate(599.997917 0) scale(0.996264)"/>
      <use xlink:href="#CMR17-61" transform="translate(676.917507 0) scale(0.996264)"/>
      <use xlink:href="#CMR17-74" transform="translate(722.607984 0) scale(0.996264)"/>
      <use xlink:href="#CMR17-65" transform="translate(757.888752 0) scale(0.996264)"/>
      <use xlink:href="#CMR17-63" transform="translate(828.450379 0) scale(0.996264)"/>
      <use xlink:href="#CMR17-6f" transform="translate(868.936039 0) scale(0.996264)"/>
      <use xlink:href="#CMR17-73" transform="translate(914.626517 0) scale(0.996264)"/>
      <use xlink:href="#CMR17-74" transform="translate(950.427854 0) scale(0.996264)"/>
      <use xlink:href="#CMR17-73" transform="translate(985.708622 0) scale(0.996264)"/>
     </g>
    </g>
    <g id="line2d_21">
     <path d="M 1013.477983 698.124066 
L 1033.477983 698.124066 
L 1053.477983 698.124066 
" style="fill: none; stroke: #c17150; stroke-width: 1.5; stroke-linecap: round"/>
    </g>
    <g id="text_19">
     <!-- final estimate costs -->
     <g style="fill: #262626" transform="translate(1069.477983 705.124066) scale(0.2 -0.2)">
      <defs>
       <path id="CMR17-c" d="M 2554 2764 
C 2400 2764 1926 2764 1805 2739 
C 1766 2725 1754 2725 1677 2725 
L 947 2725 
L 947 3469 
C 947 4073 1434 4352 1818 4352 
C 1939 4352 2214 4320 2355 4101 
C 2291 4101 2086 4101 2086 3878 
C 2086 3725 2189 3648 2317 3648 
C 2432 3648 2547 3712 2547 3885 
C 2547 4205 2240 4454 1843 4454 
C 1338 4454 634 4168 634 3469 
L 634 2725 
L 122 2725 
L 122 2560 
L 634 2560 
L 634 427 
C 634 184 608 153 198 153 
L 198 -13 
C 352 0 634 0 794 0 
C 960 0 1242 0 1395 -13 
L 1395 153 
C 986 153 960 178 960 427 
L 960 2560 
L 1901 2560 
C 2176 2560 2227 2502 2227 2222 
L 2227 427 
C 2227 184 2202 153 1792 153 
L 1792 -13 
C 1946 0 2227 0 2387 0 
C 2554 0 2835 0 2989 -13 
L 2989 153 
C 2579 153 2554 178 2554 427 
L 2554 2764 
z
" transform="scale(0.015625)"/>
      </defs>
      <use xlink:href="#CMR17-c" transform="scale(0.996264)"/>
      <use xlink:href="#CMR17-6e" transform="translate(49.742223 0) scale(0.996264)"/>
      <use xlink:href="#CMR17-61" transform="translate(100.637593 0) scale(0.996264)"/>
      <use xlink:href="#CMR17-6c" transform="translate(146.32807 0) scale(0.996264)"/>
      <use xlink:href="#CMR17-65" transform="translate(201.275095 0) scale(0.996264)"/>
      <use xlink:href="#CMR17-73" transform="translate(241.760756 0) scale(0.996264)"/>
      <use xlink:href="#CMR17-74" transform="translate(277.562093 0) scale(0.996264)"/>
      <use xlink:href="#CMR17-69" transform="translate(312.842861 0) scale(0.996264)"/>
      <use xlink:href="#CMR17-6d" transform="translate(337.713919 0) scale(0.996264)"/>
      <use xlink:href="#CMR17-61" transform="translate(414.633509 0) scale(0.996264)"/>
      <use xlink:href="#CMR17-74" transform="translate(460.323986 0) scale(0.996264)"/>
      <use xlink:href="#CMR17-65" transform="translate(495.604754 0) scale(0.996264)"/>
      <use xlink:href="#CMR17-63" transform="translate(566.166381 0) scale(0.996264)"/>
      <use xlink:href="#CMR17-6f" transform="translate(606.652042 0) scale(0.996264)"/>
      <use xlink:href="#CMR17-73" transform="translate(652.342519 0) scale(0.996264)"/>
      <use xlink:href="#CMR17-74" transform="translate(688.143856 0) scale(0.996264)"/>
      <use xlink:href="#CMR17-73" transform="translate(723.424624 0) scale(0.996264)"/>
     </g>
    </g>
   </g>
  </g>
 </g>
 <defs>
  <clipPath id="pb787a3ae2d">
   <rect x="61.046592" y="3.00024" width="1366.815073" height="609.203478"/>
  </clipPath>
 </defs>
</svg>
