<?xml version="1.0" encoding="utf-8" standalone="no"?>
<!DOCTYPE svg PUBLIC "-//W3C//DTD SVG 1.1//EN"
  "http://www.w3.org/Graphics/SVG/1.1/DTD/svg11.dtd">
<svg xmlns:xlink="http://www.w3.org/1999/xlink" width="1440pt" height="720pt" viewBox="0 0 1440 720" xmlns="http://www.w3.org/2000/svg" version="1.1">
 <metadata>
  <rdf:RDF xmlns:dc="http://purl.org/dc/elements/1.1/" xmlns:cc="http://creativecommons.org/ns#" xmlns:rdf="http://www.w3.org/1999/02/22-rdf-syntax-ns#">
   <cc:Work>
    <dc:type rdf:resource="http://purl.org/dc/dcmitype/StillImage"/>
    <dc:date>2023-11-01T09:53:07.557369</dc:date>
    <dc:format>image/svg+xml</dc:format>
    <dc:creator>
     <cc:Agent>
      <dc:title>Matplotlib v3.6.3, https://matplotlib.org/</dc:title>
     </cc:Agent>
    </dc:creator>
   </cc:Work>
  </rdf:RDF>
 </metadata>
 <defs>
  <style type="text/css">*{stroke-linejoin: round; stroke-linecap: butt}</style>
 </defs>
 <g id="figure_1">
  <g id="patch_1">
   <path d="M 0 720 
L 1440 720 
L 1440 0 
L 0 0 
z
" style="fill: #ffffff"/>
  </g>
  <g id="axes_1">
   <g id="patch_2">
    <path d="M 37.067331 632.140349 
L 1432.018425 632.140349 
L 1432.018425 3.00024 
L 37.067331 3.00024 
z
" style="fill: #ffffff"/>
   </g>
   <g id="matplotlib.axis_1">
    <g id="xtick_1">
     <g id="line2d_1">
      <path d="M 133.905065 632.140349 
L 133.905065 3.00024 
" clip-path="url(#paa7045c3a6)" style="fill: none; stroke: #cccccc; stroke-opacity: 0.35; stroke-width: 0.8; stroke-linecap: round"/>
     </g>
     <g id="text_1">
      <!-- $\mathdefault{−50}$ -->
      <g transform="translate(125.049358 642.558847) scale(0.1 -0.1)">
       <defs>
        <path id="CMSY10-0" d="M 4218 1472 
C 4326 1472 4442 1472 4442 1600 
C 4442 1728 4326 1728 4218 1728 
L 755 1728 
C 646 1728 531 1728 531 1600 
C 531 1472 646 1472 755 1472 
L 4218 1472 
z
" transform="scale(0.015625)"/>
        <path id="CMR17-35" d="M 730 3692 
C 794 3666 1056 3584 1325 3584 
C 1920 3584 2246 3911 2432 4100 
C 2432 4157 2432 4192 2394 4192 
C 2387 4192 2374 4192 2323 4163 
C 2099 4058 1837 3973 1517 3973 
C 1325 3973 1037 3999 723 4139 
C 653 4171 640 4171 634 4171 
C 602 4171 595 4164 595 4037 
L 595 2203 
C 595 2089 595 2057 659 2057 
C 691 2057 704 2070 736 2114 
C 941 2401 1222 2522 1542 2522 
C 1766 2522 2246 2382 2246 1289 
C 2246 1085 2246 715 2054 421 
C 1894 159 1645 25 1370 25 
C 947 25 518 320 403 814 
C 429 807 480 795 506 795 
C 589 795 749 840 749 1038 
C 749 1210 627 1280 506 1280 
C 358 1280 262 1190 262 1011 
C 262 454 704 -128 1382 -128 
C 2042 -128 2669 440 2669 1264 
C 2669 2030 2170 2624 1549 2624 
C 1222 2624 947 2503 730 2274 
L 730 3692 
z
" transform="scale(0.015625)"/>
        <path id="CMR17-30" d="M 2688 2025 
C 2688 2416 2682 3080 2413 3591 
C 2176 4039 1798 4198 1466 4198 
C 1158 4198 768 4058 525 3597 
C 269 3118 243 2524 243 2025 
C 243 1661 250 1106 448 619 
C 723 -39 1216 -128 1466 -128 
C 1760 -128 2208 -7 2470 600 
C 2662 1042 2688 1559 2688 2025 
z
M 1466 -26 
C 1056 -26 813 325 723 812 
C 653 1188 653 1738 653 2096 
C 653 2588 653 2997 736 3387 
C 858 3929 1216 4096 1466 4096 
C 1728 4096 2067 3923 2189 3400 
C 2272 3036 2278 2607 2278 2096 
C 2278 1680 2278 1169 2202 792 
C 2067 95 1690 -26 1466 -26 
z
" transform="scale(0.015625)"/>
       </defs>
       <use xlink:href="#CMSY10-0" transform="scale(0.996264)"/>
       <use xlink:href="#CMR17-35" transform="translate(77.487468 0) scale(0.996264)"/>
       <use xlink:href="#CMR17-30" transform="translate(123.177945 0) scale(0.996264)"/>
      </g>
     </g>
    </g>
    <g id="xtick_2">
     <g id="line2d_2">
      <path d="M 350.257292 632.140349 
L 350.257292 3.00024 
" clip-path="url(#paa7045c3a6)" style="fill: none; stroke: #cccccc; stroke-opacity: 0.35; stroke-width: 0.8; stroke-linecap: round"/>
     </g>
     <g id="text_2">
      <!-- $\mathdefault{−40}$ -->
      <g transform="translate(341.401585 642.558847) scale(0.1 -0.1)">
       <defs>
        <path id="CMR17-34" d="M 2150 4122 
C 2150 4256 2144 4256 2029 4256 
L 128 1254 
L 128 1088 
L 1779 1088 
L 1779 457 
C 1779 224 1766 160 1318 160 
L 1197 160 
L 1197 0 
C 1402 0 1747 0 1965 0 
C 2182 0 2528 0 2733 0 
L 2733 160 
L 2611 160 
C 2163 160 2150 224 2150 457 
L 2150 1088 
L 2803 1088 
L 2803 1254 
L 2150 1254 
L 2150 4122 
z
M 1798 3703 
L 1798 1254 
L 256 1254 
L 1798 3703 
z
" transform="scale(0.015625)"/>
       </defs>
       <use xlink:href="#CMSY10-0" transform="scale(0.996264)"/>
       <use xlink:href="#CMR17-34" transform="translate(77.487468 0) scale(0.996264)"/>
       <use xlink:href="#CMR17-30" transform="translate(123.177945 0) scale(0.996264)"/>
      </g>
     </g>
    </g>
    <g id="xtick_3">
     <g id="line2d_3">
      <path d="M 566.609518 632.140349 
L 566.609518 3.00024 
" clip-path="url(#paa7045c3a6)" style="fill: none; stroke: #cccccc; stroke-opacity: 0.35; stroke-width: 0.8; stroke-linecap: round"/>
     </g>
     <g id="text_3">
      <!-- $\mathdefault{−30}$ -->
      <g transform="translate(557.753811 642.558847) scale(0.1 -0.1)">
       <defs>
        <path id="CMR17-33" d="M 1414 2157 
C 1984 2157 2234 1662 2234 1090 
C 2234 320 1824 25 1453 25 
C 1114 25 563 194 390 693 
C 422 680 454 680 486 680 
C 640 680 755 782 755 948 
C 755 1133 614 1216 486 1216 
C 378 1216 211 1165 211 926 
C 211 335 787 -128 1466 -128 
C 2176 -128 2720 430 2720 1085 
C 2720 1707 2208 2157 1600 2227 
C 2086 2328 2554 2756 2554 3329 
C 2554 3820 2048 4179 1472 4179 
C 890 4179 378 3829 378 3329 
C 378 3110 544 3072 627 3072 
C 762 3072 877 3155 877 3321 
C 877 3486 762 3569 627 3569 
C 602 3569 570 3569 544 3557 
C 730 3959 1235 4032 1459 4032 
C 1683 4032 2106 3925 2106 3320 
C 2106 3143 2080 2828 1862 2550 
C 1670 2304 1453 2304 1242 2284 
C 1210 2284 1062 2269 1037 2269 
C 992 2263 966 2257 966 2208 
C 966 2163 973 2157 1101 2157 
L 1414 2157 
z
" transform="scale(0.015625)"/>
       </defs>
       <use xlink:href="#CMSY10-0" transform="scale(0.996264)"/>
       <use xlink:href="#CMR17-33" transform="translate(77.487468 0) scale(0.996264)"/>
       <use xlink:href="#CMR17-30" transform="translate(123.177945 0) scale(0.996264)"/>
      </g>
     </g>
    </g>
    <g id="xtick_4">
     <g id="line2d_4">
      <path d="M 782.961745 632.140349 
L 782.961745 3.00024 
" clip-path="url(#paa7045c3a6)" style="fill: none; stroke: #cccccc; stroke-opacity: 0.35; stroke-width: 0.8; stroke-linecap: round"/>
     </g>
     <g id="text_4">
      <!-- $\mathdefault{−20}$ -->
      <g transform="translate(774.106038 642.558847) scale(0.1 -0.1)">
       <defs>
        <path id="CMR17-32" d="M 2669 989 
L 2554 989 
C 2490 536 2438 459 2413 420 
C 2381 369 1920 369 1830 369 
L 602 369 
C 832 619 1280 1072 1824 1597 
C 2214 1967 2669 2402 2669 3035 
C 2669 3790 2067 4224 1395 4224 
C 691 4224 262 3604 262 3030 
C 262 2780 448 2748 525 2748 
C 589 2748 781 2787 781 3010 
C 781 3207 614 3264 525 3264 
C 486 3264 448 3258 422 3245 
C 544 3790 915 4058 1306 4058 
C 1862 4058 2227 3617 2227 3035 
C 2227 2479 1901 2000 1536 1584 
L 262 146 
L 262 0 
L 2515 0 
L 2669 989 
z
" transform="scale(0.015625)"/>
       </defs>
       <use xlink:href="#CMSY10-0" transform="scale(0.996264)"/>
       <use xlink:href="#CMR17-32" transform="translate(77.487468 0) scale(0.996264)"/>
       <use xlink:href="#CMR17-30" transform="translate(123.177945 0) scale(0.996264)"/>
      </g>
     </g>
    </g>
    <g id="xtick_5">
     <g id="line2d_5">
      <path d="M 999.313972 632.140349 
L 999.313972 3.00024 
" clip-path="url(#paa7045c3a6)" style="fill: none; stroke: #cccccc; stroke-opacity: 0.35; stroke-width: 0.8; stroke-linecap: round"/>
     </g>
     <g id="text_5">
      <!-- $\mathdefault{−10}$ -->
      <g transform="translate(990.458264 642.558847) scale(0.1 -0.1)">
       <defs>
        <path id="CMR17-31" d="M 1702 4058 
C 1702 4192 1696 4192 1606 4192 
C 1357 3916 979 3827 621 3827 
C 602 3827 570 3827 563 3808 
C 557 3795 557 3782 557 3648 
C 755 3648 1088 3686 1344 3839 
L 1344 461 
C 1344 236 1331 160 781 160 
L 589 160 
L 589 0 
C 896 0 1216 0 1523 0 
C 1830 0 2150 0 2458 0 
L 2458 160 
L 2266 160 
C 1715 160 1702 230 1702 458 
L 1702 4058 
z
" transform="scale(0.015625)"/>
       </defs>
       <use xlink:href="#CMSY10-0" transform="scale(0.996264)"/>
       <use xlink:href="#CMR17-31" transform="translate(77.487468 0) scale(0.996264)"/>
       <use xlink:href="#CMR17-30" transform="translate(123.177945 0) scale(0.996264)"/>
      </g>
     </g>
    </g>
    <g id="xtick_6">
     <g id="line2d_6">
      <path d="M 1215.666198 632.140349 
L 1215.666198 3.00024 
" clip-path="url(#paa7045c3a6)" style="fill: none; stroke: #cccccc; stroke-opacity: 0.35; stroke-width: 0.8; stroke-linecap: round"/>
     </g>
     <g id="text_6">
      <!-- $\mathdefault{0}$ -->
      <g transform="translate(1213.175531 642.558847) scale(0.1 -0.1)">
       <use xlink:href="#CMR17-30" transform="scale(0.996264)"/>
      </g>
     </g>
    </g>
    <g id="xtick_7">
     <g id="line2d_7">
      <path d="M 1432.018425 632.140349 
L 1432.018425 3.00024 
" clip-path="url(#paa7045c3a6)" style="fill: none; stroke: #cccccc; stroke-opacity: 0.35; stroke-width: 0.8; stroke-linecap: round"/>
     </g>
     <g id="text_7">
      <!-- $\mathdefault{10}$ -->
      <g transform="translate(1427.037089 642.558847) scale(0.1 -0.1)">
       <use xlink:href="#CMR17-31" transform="scale(0.996264)"/>
       <use xlink:href="#CMR17-30" transform="translate(45.690477 0) scale(0.996264)"/>
      </g>
     </g>
    </g>
    <g id="text_8">
     <!-- Costs (mDKK) -->
     <g style="fill: #696969" transform="translate(701.347848 655.968005) scale(0.1 -0.1)">
      <defs>
       <path id="CMR17-43" d="M 3974 4289 
C 3974 4403 3968 4410 3930 4410 
C 3904 4410 3898 4403 3853 4327 
L 3571 3792 
C 3258 4187 2874 4416 2381 4416 
C 1286 4416 294 3456 294 2148 
C 294 826 1286 -128 2387 -128 
C 3366 -128 3974 730 3974 1461 
C 3974 1524 3974 1550 3917 1550 
C 3866 1550 3866 1531 3859 1474 
C 3808 585 3168 38 2477 38 
C 1824 38 781 495 781 2147 
C 781 3805 1843 4250 2464 4250 
C 3187 4250 3712 3628 3834 2745 
C 3846 2668 3846 2655 3904 2655 
C 3974 2655 3974 2668 3974 2783 
L 3974 4289 
z
" transform="scale(0.015625)"/>
       <path id="CMR17-6f" d="M 2758 1356 
C 2758 2176 2163 2816 1466 2816 
C 768 2816 173 2176 173 1356 
C 173 551 768 -64 1466 -64 
C 2163 -64 2758 551 2758 1356 
z
M 1466 51 
C 1165 51 909 230 762 480 
C 602 767 582 1126 582 1408 
C 582 1677 595 2010 762 2298 
C 890 2509 1139 2714 1466 2714 
C 1754 2714 1997 2554 2150 2330 
C 2349 2029 2349 1607 2349 1408 
C 2349 1158 2336 775 2163 467 
C 1984 173 1709 51 1466 51 
z
" transform="scale(0.015625)"/>
       <path id="CMR17-73" d="M 1978 2697 
C 1978 2813 1971 2819 1933 2819 
C 1907 2819 1901 2813 1824 2717 
C 1805 2691 1747 2626 1728 2601 
C 1523 2819 1235 2819 1126 2819 
C 416 2819 160 2447 160 2076 
C 160 1498 813 1365 998 1325 
C 1402 1243 1542 1217 1677 1101 
C 1760 1025 1901 884 1901 654 
C 1901 384 1747 38 1158 38 
C 602 38 403 460 288 1021 
C 269 1110 269 1117 218 1117 
C 166 1117 160 1110 160 983 
L 160 63 
C 160 -51 166 -58 205 -58 
C 237 -58 243 -51 275 0 
C 314 57 410 211 448 276 
C 576 103 800 -64 1158 -64 
C 1792 -64 2131 283 2131 784 
C 2131 1112 1958 1285 1875 1362 
C 1683 1561 1459 1606 1190 1657 
C 838 1735 390 1825 390 2217 
C 390 2383 480 2737 1126 2737 
C 1811 2737 1850 2094 1862 1888 
C 1869 1856 1901 1849 1920 1849 
C 1978 1849 1978 1869 1978 1978 
L 1978 2697 
z
" transform="scale(0.015625)"/>
       <path id="CMR17-74" d="M 966 2560 
L 1862 2560 
L 1862 2725 
L 966 2725 
L 966 3904 
L 851 3904 
C 838 3245 614 2668 70 2668 
L 70 2560 
L 627 2560 
L 627 771 
C 627 650 627 -64 1370 -64 
C 1747 -64 1965 306 1965 777 
L 1965 1140 
L 1850 1140 
L 1850 783 
C 1850 344 1677 51 1408 51 
C 1222 51 966 178 966 758 
L 966 2560 
z
" transform="scale(0.015625)"/>
       <path id="CMR17-28" d="M 1958 -1561 
C 1958 -1555 1958 -1542 1939 -1523 
C 1645 -1224 858 -407 858 1581 
C 858 3569 1632 4379 1946 4697 
C 1946 4704 1958 4717 1958 4736 
C 1958 4755 1939 4768 1914 4768 
C 1843 4768 1299 4296 986 3594 
C 666 2887 576 2199 576 1588 
C 576 1128 621 351 1005 -471 
C 1312 -1135 1837 -1600 1914 -1600 
C 1946 -1600 1958 -1587 1958 -1561 
z
" transform="scale(0.015625)"/>
       <path id="CMR17-6d" d="M 4326 1933 
C 4326 2252 4269 2790 3507 2790 
C 3072 2790 2771 2496 2656 2151 
L 2650 2151 
C 2573 2676 2195 2790 1837 2790 
C 1331 2790 1069 2400 973 2144 
L 966 2144 
L 966 2790 
L 211 2720 
L 211 2554 
C 589 2554 646 2515 646 2208 
L 646 428 
C 646 184 621 153 211 153 
L 211 -13 
C 365 0 646 0 813 0 
C 979 0 1267 0 1421 -13 
L 1421 153 
C 1011 153 986 178 986 428 
L 986 1658 
C 986 2247 1344 2688 1792 2688 
C 2266 2688 2317 2266 2317 1958 
L 2317 428 
C 2317 184 2291 153 1882 153 
L 1882 -13 
C 2035 0 2317 0 2483 0 
C 2650 0 2938 0 3091 -13 
L 3091 153 
C 2682 153 2656 178 2656 428 
L 2656 1658 
C 2656 2247 3014 2688 3462 2688 
C 3936 2688 3987 2266 3987 1958 
L 3987 428 
C 3987 184 3962 153 3552 153 
L 3552 -13 
C 3706 0 3987 0 4154 0 
C 4320 0 4608 0 4762 -13 
L 4762 153 
C 4352 153 4326 178 4326 428 
L 4326 1933 
z
" transform="scale(0.015625)"/>
       <path id="CMR17-44" d="M 333 4352 
L 333 4186 
C 774 4186 845 4186 845 3900 
L 845 452 
C 845 166 774 166 333 166 
L 333 0 
L 2368 0 
C 3398 0 4224 943 4224 2141 
C 4224 3346 3411 4352 2368 4352 
L 333 4352 
z
M 1523 166 
C 1267 166 1254 197 1254 414 
L 1254 3938 
C 1254 4155 1267 4186 1523 4186 
L 2240 4186 
C 2771 4186 3750 3874 3750 2141 
C 3750 1242 3488 879 3366 707 
C 3213 510 2848 166 2240 166 
L 1523 166 
z
" transform="scale(0.015625)"/>
       <path id="CMR17-4b" d="M 2362 2675 
L 3469 3782 
C 3699 4006 3942 4186 4301 4186 
L 4301 4352 
C 4173 4352 4013 4352 3885 4352 
C 3712 4352 3411 4352 3245 4358 
L 3245 4192 
C 3411 4180 3437 4065 3437 4019 
C 3437 3975 3411 3905 3386 3867 
L 1261 1738 
L 1261 3900 
C 1261 4186 1331 4186 1773 4186 
L 1773 4352 
C 1587 4352 1248 4352 1050 4352 
C 851 4352 512 4352 326 4352 
L 326 4186 
C 768 4186 838 4186 838 3899 
L 838 446 
C 838 160 768 160 326 160 
L 326 0 
C 512 0 851 0 1050 0 
C 1248 0 1587 0 1773 0 
L 1773 160 
C 1331 160 1261 160 1261 447 
L 1261 1579 
L 2080 2390 
L 3290 537 
C 3328 473 3373 390 3373 326 
C 3373 160 3194 160 3110 160 
L 3110 0 
C 3315 0 3610 0 3821 0 
C 3974 0 4237 0 4384 -6 
L 4384 160 
C 4077 160 3981 198 3789 493 
L 2362 2675 
z
" transform="scale(0.015625)"/>
       <path id="CMR17-29" d="M 1683 1581 
C 1683 2040 1638 2817 1254 3639 
C 947 4303 422 4768 346 4768 
C 326 4768 301 4761 301 4729 
C 301 4717 307 4710 314 4697 
C 621 4378 1402 3568 1402 1584 
C 1402 -407 627 -1217 314 -1537 
C 307 -1549 301 -1556 301 -1568 
C 301 -1600 326 -1600 346 -1600 
C 416 -1600 960 -1128 1274 -426 
C 1594 281 1683 969 1683 1581 
z
" transform="scale(0.015625)"/>
      </defs>
      <use xlink:href="#CMR17-43" transform="scale(0.996264)"/>
      <use xlink:href="#CMR17-6f" transform="translate(66.509881 0) scale(0.996264)"/>
      <use xlink:href="#CMR17-73" transform="translate(112.200358 0) scale(0.996264)"/>
      <use xlink:href="#CMR17-74" transform="translate(148.001695 0) scale(0.996264)"/>
      <use xlink:href="#CMR17-73" transform="translate(183.282463 0) scale(0.996264)"/>
      <use xlink:href="#CMR17-28" transform="translate(249.159767 0) scale(0.996264)"/>
      <use xlink:href="#CMR17-6d" transform="translate(284.440535 0) scale(0.996264)"/>
      <use xlink:href="#CMR17-44" transform="translate(361.360125 0) scale(0.996264)"/>
      <use xlink:href="#CMR17-4b" transform="translate(431.753681 0) scale(0.996264)"/>
      <use xlink:href="#CMR17-4b" transform="translate(503.428458 0) scale(0.996264)"/>
      <use xlink:href="#CMR17-29" transform="translate(575.103235 0) scale(0.996264)"/>
     </g>
    </g>
   </g>
   <g id="matplotlib.axis_2">
    <g id="ytick_1">
     <g id="line2d_8">
      <path d="M 37.067331 632.140349 
L 1432.018425 632.140349 
" clip-path="url(#paa7045c3a6)" style="fill: none; stroke: #cccccc; stroke-opacity: 0.35; stroke-width: 0.8; stroke-linecap: round"/>
     </g>
     <g id="text_9">
      <!-- $\mathdefault{0.00}$ -->
      <g transform="translate(15.855917 635.599598) scale(0.1 -0.1)">
       <defs>
        <path id="CMMI12-3a" d="M 1178 307 
C 1178 492 1024 619 870 619 
C 685 619 557 466 557 313 
C 557 128 710 0 864 0 
C 1050 0 1178 153 1178 307 
z
" transform="scale(0.015625)"/>
       </defs>
       <use xlink:href="#CMR17-30" transform="scale(0.996264)"/>
       <use xlink:href="#CMMI12-3a" transform="translate(45.690477 0) scale(0.996264)"/>
       <use xlink:href="#CMR17-30" transform="translate(72.787654 0) scale(0.996264)"/>
       <use xlink:href="#CMR17-30" transform="translate(118.478131 0) scale(0.996264)"/>
      </g>
     </g>
    </g>
    <g id="ytick_2">
     <g id="line2d_9">
      <path d="M 37.067331 521.025079 
L 1432.018425 521.025079 
" clip-path="url(#paa7045c3a6)" style="fill: none; stroke: #cccccc; stroke-opacity: 0.35; stroke-width: 0.8; stroke-linecap: round"/>
     </g>
     <g id="text_10">
      <!-- $\mathdefault{0.02}$ -->
      <g transform="translate(15.855917 524.484328) scale(0.1 -0.1)">
       <use xlink:href="#CMR17-30" transform="scale(0.996264)"/>
       <use xlink:href="#CMMI12-3a" transform="translate(45.690477 0) scale(0.996264)"/>
       <use xlink:href="#CMR17-30" transform="translate(72.787654 0) scale(0.996264)"/>
       <use xlink:href="#CMR17-32" transform="translate(118.478131 0) scale(0.996264)"/>
      </g>
     </g>
    </g>
    <g id="ytick_3">
     <g id="line2d_10">
      <path d="M 37.067331 409.90981 
L 1432.018425 409.90981 
" clip-path="url(#paa7045c3a6)" style="fill: none; stroke: #cccccc; stroke-opacity: 0.35; stroke-width: 0.8; stroke-linecap: round"/>
     </g>
     <g id="text_11">
      <!-- $\mathdefault{0.04}$ -->
      <g transform="translate(15.855917 413.369059) scale(0.1 -0.1)">
       <use xlink:href="#CMR17-30" transform="scale(0.996264)"/>
       <use xlink:href="#CMMI12-3a" transform="translate(45.690477 0) scale(0.996264)"/>
       <use xlink:href="#CMR17-30" transform="translate(72.787654 0) scale(0.996264)"/>
       <use xlink:href="#CMR17-34" transform="translate(118.478131 0) scale(0.996264)"/>
      </g>
     </g>
    </g>
    <g id="ytick_4">
     <g id="line2d_11">
      <path d="M 37.067331 298.79454 
L 1432.018425 298.79454 
" clip-path="url(#paa7045c3a6)" style="fill: none; stroke: #cccccc; stroke-opacity: 0.35; stroke-width: 0.8; stroke-linecap: round"/>
     </g>
     <g id="text_12">
      <!-- $\mathdefault{0.06}$ -->
      <g transform="translate(15.855917 302.253789) scale(0.1 -0.1)">
       <defs>
        <path id="CMR17-36" d="M 678 2176 
C 678 3690 1395 4032 1811 4032 
C 1946 4032 2272 4009 2400 3776 
C 2298 3776 2106 3776 2106 3553 
C 2106 3381 2246 3323 2336 3323 
C 2394 3323 2566 3348 2566 3560 
C 2566 3954 2246 4179 1805 4179 
C 1043 4179 243 3390 243 1984 
C 243 253 966 -128 1478 -128 
C 2099 -128 2688 427 2688 1283 
C 2688 2081 2170 2662 1517 2662 
C 1126 2662 838 2407 678 1960 
L 678 2176 
z
M 1478 25 
C 691 25 691 1200 691 1436 
C 691 1896 909 2560 1504 2560 
C 1613 2560 1926 2560 2138 2120 
C 2253 1870 2253 1609 2253 1289 
C 2253 944 2253 690 2118 434 
C 1978 171 1773 25 1478 25 
z
" transform="scale(0.015625)"/>
       </defs>
       <use xlink:href="#CMR17-30" transform="scale(0.996264)"/>
       <use xlink:href="#CMMI12-3a" transform="translate(45.690477 0) scale(0.996264)"/>
       <use xlink:href="#CMR17-30" transform="translate(72.787654 0) scale(0.996264)"/>
       <use xlink:href="#CMR17-36" transform="translate(118.478131 0) scale(0.996264)"/>
      </g>
     </g>
    </g>
    <g id="ytick_5">
     <g id="line2d_12">
      <path d="M 37.067331 187.67927 
L 1432.018425 187.67927 
" clip-path="url(#paa7045c3a6)" style="fill: none; stroke: #cccccc; stroke-opacity: 0.35; stroke-width: 0.8; stroke-linecap: round"/>
     </g>
     <g id="text_13">
      <!-- $\mathdefault{0.08}$ -->
      <g transform="translate(15.855917 191.13852) scale(0.1 -0.1)">
       <defs>
        <path id="CMR17-38" d="M 1741 2264 
C 2144 2467 2554 2773 2554 3263 
C 2554 3841 1990 4179 1472 4179 
C 890 4179 378 3759 378 3180 
C 378 3021 416 2747 666 2505 
C 730 2442 998 2251 1171 2130 
C 883 1983 211 1634 211 934 
C 211 279 838 -128 1459 -128 
C 2144 -128 2720 362 2720 1010 
C 2720 1590 2330 1857 2074 2029 
L 1741 2264 
z
M 902 2822 
C 851 2854 595 3051 595 3351 
C 595 3739 998 4032 1459 4032 
C 1965 4032 2336 3676 2336 3262 
C 2336 2669 1670 2331 1638 2331 
C 1632 2331 1626 2331 1574 2370 
L 902 2822 
z
M 2080 1519 
C 2176 1449 2483 1240 2483 851 
C 2483 381 2010 25 1472 25 
C 890 25 448 438 448 940 
C 448 1443 838 1862 1280 2060 
L 2080 1519 
z
" transform="scale(0.015625)"/>
       </defs>
       <use xlink:href="#CMR17-30" transform="scale(0.996264)"/>
       <use xlink:href="#CMMI12-3a" transform="translate(45.690477 0) scale(0.996264)"/>
       <use xlink:href="#CMR17-30" transform="translate(72.787654 0) scale(0.996264)"/>
       <use xlink:href="#CMR17-38" transform="translate(118.478131 0) scale(0.996264)"/>
      </g>
     </g>
    </g>
    <g id="ytick_6">
     <g id="line2d_13">
      <path d="M 37.067331 76.564001 
L 1432.018425 76.564001 
" clip-path="url(#paa7045c3a6)" style="fill: none; stroke: #cccccc; stroke-opacity: 0.35; stroke-width: 0.8; stroke-linecap: round"/>
     </g>
     <g id="text_14">
      <!-- $\mathdefault{0.10}$ -->
      <g transform="translate(15.855917 80.02325) scale(0.1 -0.1)">
       <use xlink:href="#CMR17-30" transform="scale(0.996264)"/>
       <use xlink:href="#CMMI12-3a" transform="translate(45.690477 0) scale(0.996264)"/>
       <use xlink:href="#CMR17-31" transform="translate(72.787654 0) scale(0.996264)"/>
       <use xlink:href="#CMR17-30" transform="translate(118.478131 0) scale(0.996264)"/>
      </g>
     </g>
    </g>
    <g id="text_15">
     <!-- Density -->
     <g style="fill: #696969" transform="translate(9.918738 334.133214) rotate(-90) scale(0.1 -0.1)">
      <defs>
       <path id="CMR17-65" d="M 2438 1472 
C 2464 1498 2464 1511 2464 1576 
C 2464 2238 2118 2816 1389 2816 
C 710 2816 173 2169 173 1383 
C 173 551 781 -64 1459 -64 
C 2176 -64 2458 607 2458 740 
C 2458 784 2419 784 2406 784 
C 2362 784 2355 771 2330 696 
C 2189 265 1837 51 1504 51 
C 1229 51 954 203 781 480 
C 582 803 582 1176 582 1472 
L 2438 1472 
z
M 589 1568 
C 634 2505 1126 2714 1382 2714 
C 1818 2714 2112 2297 2118 1568 
L 589 1568 
z
" transform="scale(0.015625)"/>
       <path id="CMR17-6e" d="M 2656 1933 
C 2656 2259 2592 2790 1837 2790 
C 1331 2790 1069 2400 973 2144 
L 966 2144 
L 966 2790 
L 211 2720 
L 211 2554 
C 589 2554 646 2515 646 2208 
L 646 428 
C 646 184 621 153 211 153 
L 211 -13 
C 365 0 646 0 813 0 
C 979 0 1267 0 1421 -13 
L 1421 153 
C 1011 153 986 178 986 428 
L 986 1658 
C 986 2247 1344 2688 1792 2688 
C 2266 2688 2317 2266 2317 1958 
L 2317 428 
C 2317 184 2291 153 1882 153 
L 1882 -13 
C 2035 0 2317 0 2483 0 
C 2650 0 2938 0 3091 -13 
L 3091 153 
C 2682 153 2656 178 2656 428 
L 2656 1933 
z
" transform="scale(0.015625)"/>
       <path id="CMR17-69" d="M 992 3909 
C 992 4049 877 4170 730 4170 
C 589 4170 467 4056 467 3909 
C 467 3769 582 3648 730 3648 
C 870 3648 992 3763 992 3909 
z
M 243 2706 
L 243 2541 
C 602 2541 653 2502 653 2197 
L 653 427 
C 653 184 627 153 218 153 
L 218 -13 
C 371 0 646 0 806 0 
C 960 0 1222 0 1370 -13 
L 1370 153 
C 992 153 979 191 979 420 
L 979 2776 
L 243 2706 
z
" transform="scale(0.015625)"/>
       <path id="CMR17-79" d="M 2496 2197 
C 2656 2586 2944 2586 3034 2586 
L 3034 2752 
C 2912 2752 2752 2752 2630 2752 
C 2496 2752 2285 2752 2157 2758 
L 2157 2592 
C 2400 2573 2406 2394 2406 2343 
C 2406 2280 2394 2248 2362 2171 
L 1664 449 
L 902 2306 
C 870 2382 870 2426 870 2433 
C 870 2573 1018 2586 1171 2586 
L 1171 2758 
C 1018 2752 742 2752 582 2752 
C 410 2752 205 2752 64 2758 
L 64 2586 
C 410 2586 448 2554 531 2350 
L 1485 15 
C 1197 -738 1030 -1178 627 -1178 
C 557 -1178 397 -1159 282 -1044 
C 429 -1031 493 -942 493 -833 
C 493 -725 416 -629 288 -629 
C 147 -629 77 -725 77 -840 
C 77 -1095 339 -1280 627 -1280 
C 998 -1280 1229 -922 1357 -604 
L 2496 2197 
z
" transform="scale(0.015625)"/>
      </defs>
      <use xlink:href="#CMR17-44" transform="scale(0.996264)"/>
      <use xlink:href="#CMR17-65" transform="translate(70.393556 0) scale(0.996264)"/>
      <use xlink:href="#CMR17-6e" transform="translate(110.879216 0) scale(0.996264)"/>
      <use xlink:href="#CMR17-73" transform="translate(161.774586 0) scale(0.996264)"/>
      <use xlink:href="#CMR17-69" transform="translate(197.575924 0) scale(0.996264)"/>
      <use xlink:href="#CMR17-74" transform="translate(222.446982 0) scale(0.996264)"/>
      <use xlink:href="#CMR17-79" transform="translate(255.125296 0) scale(0.996264)"/>
     </g>
    </g>
   </g>
   <g id="line2d_14">
    <path d="M -1 627.38797 
L 11.954338 625.347393 
L 18.896851 624.394228 
L 25.839364 623.671655 
L 32.781877 623.263574 
L 39.724391 623.219615 
L 46.666904 623.545216 
L 53.609417 624.200518 
L 60.551931 625.108387 
L 88.321984 629.301098 
L 95.264497 630.103296 
L 102.20701 630.739126 
L 109.149524 631.216249 
L 123.03455 631.786138 
L 136.919577 632.02563 
L 164.68963 632.13307 
L 234.114763 632.063095 
L 247.99979 631.896533 
L 261.884816 631.490163 
L 268.82733 631.143597 
L 275.769843 630.675319 
L 282.712356 630.075833 
L 296.597383 628.526877 
L 310.482409 626.794206 
L 317.424923 626.033003 
L 324.367436 625.446577 
L 331.309949 625.097005 
L 338.252463 625.016298 
L 345.194976 625.196816 
L 352.137489 625.588325 
L 366.022516 626.622166 
L 372.965029 627.017191 
L 379.907542 627.157044 
L 386.850056 626.925152 
L 393.792569 626.229649 
L 400.735082 625.011949 
L 407.677596 623.253336 
L 414.620109 620.979906 
L 421.562622 618.265577 
L 428.505136 615.232235 
L 442.390162 608.906005 
L 449.332675 606.032171 
L 456.275189 603.640867 
L 463.217702 601.922376 
L 470.160215 601.016636 
L 477.102729 600.993947 
L 484.045242 601.84435 
L 490.987755 603.4783 
L 497.930269 605.738854 
L 504.872782 608.422971 
L 518.757808 614.173827 
L 525.700322 616.828411 
L 532.642835 619.11325 
L 539.585348 620.909414 
L 546.527862 622.134152 
L 553.470375 622.736189 
L 560.412888 622.693184 
L 567.355401 622.013915 
L 574.297915 620.745115 
L 581.240428 618.979983 
L 588.182941 616.863305 
L 602.067968 612.379024 
L 609.010481 610.467127 
L 615.952995 609.053685 
L 622.895508 608.278043 
L 629.838021 608.193989 
L 636.780534 608.762523 
L 643.723048 609.862622 
L 650.665561 611.316317 
L 664.550588 614.474148 
L 671.493101 615.799702 
L 678.435614 616.745787 
L 685.378128 617.184011 
L 692.320641 617.000619 
L 699.263154 616.093083 
L 706.205667 614.377315 
L 713.148181 611.806673 
L 720.090694 608.398308 
L 727.033207 604.257927 
L 733.975721 599.592596 
L 740.918234 594.703451 
L 747.860747 589.955507 
L 754.803261 585.728608 
L 761.745774 582.35941 
L 768.688287 580.08739 
L 775.6308 579.016967 
L 782.573314 579.103555 
L 789.515827 580.165098 
L 796.45834 581.914706 
L 810.343367 586.082413 
L 817.28588 587.820899 
L 824.228394 588.967997 
L 831.170907 589.363243 
L 838.11342 588.951307 
L 845.055933 587.782307 
L 851.998447 585.999948 
L 858.94096 583.816687 
L 872.825987 579.202388 
L 879.7685 577.149616 
L 886.711013 575.349219 
L 893.653527 573.679383 
L 900.59604 571.861344 
L 907.538553 569.492151 
L 914.481066 566.112771 
L 921.42358 561.301114 
L 928.366093 554.771269 
L 935.308606 546.456281 
L 942.25112 536.553823 
L 949.193633 525.521938 
L 956.136146 514.02345 
L 963.07866 502.829338 
L 970.021173 492.700072 
L 976.963686 484.267557 
L 983.906199 477.938545 
L 990.848713 473.83439 
L 997.791226 471.774036 
L 1004.733739 471.299297 
L 1018.618766 472.276062 
L 1025.561279 472.080213 
L 1032.503793 470.367672 
L 1039.446306 466.500689 
L 1046.388819 460.040565 
L 1053.331332 450.771706 
L 1060.273846 438.691232 
L 1067.216359 423.969551 
L 1074.158872 406.893927 
L 1081.101386 387.81041 
L 1088.043899 367.07726 
L 1094.986412 345.035679 
L 1101.928926 321.994279 
L 1108.871439 298.217242 
L 1115.813952 273.906799 
L 1129.698979 224.049732 
L 1136.641492 198.443607 
L 1143.584005 172.270482 
L 1164.411545 92.439986 
L 1171.354059 68.399864 
L 1178.296572 48.706956 
L 1185.239085 35.987709 
L 1192.181598 32.959293 
L 1199.124112 41.929776 
L 1206.066625 64.282952 
L 1213.009138 100.081372 
L 1219.951652 147.902417 
L 1226.894165 204.965131 
L 1233.836678 267.527354 
L 1240.779192 331.459612 
L 1247.721705 392.858595 
L 1254.664218 448.562294 
L 1261.606731 496.467995 
L 1268.549245 535.616574 
L 1275.491758 566.069287 
L 1282.434271 588.646955 
L 1289.376785 604.616886 
L 1296.319298 615.40213 
L 1303.261811 622.360739 
L 1310.204325 626.652058 
L 1317.146838 629.182557 
L 1317.146838 629.182557 
" clip-path="url(#paa7045c3a6)" style="fill: none; stroke: #006e64; stroke-width: 1.5; stroke-linecap: round"/>
   </g>
   <g id="line2d_15">
    <path d="M -1 630.537261 
L 17.313169 630.025731 
L 28.86228 629.857812 
L 40.411392 629.864288 
L 51.960504 630.047507 
L 98.156952 631.372222 
L 109.706063 631.506297 
L 121.255175 631.480063 
L 132.804287 631.284335 
L 144.353399 630.920648 
L 155.902511 630.400926 
L 179.000735 629.018635 
L 202.098958 627.603683 
L 213.64807 627.111318 
L 225.197182 626.880283 
L 236.746294 626.956203 
L 248.295406 627.327597 
L 259.844518 627.925075 
L 294.491853 629.961045 
L 306.040965 630.401126 
L 317.590077 630.637112 
L 329.139189 630.647803 
L 340.688301 630.401284 
L 352.237413 629.836979 
L 363.786525 628.865945 
L 375.335636 627.395737 
L 386.884748 625.376231 
L 398.43386 622.851746 
L 421.532084 617.119764 
L 433.081196 614.610574 
L 444.630308 612.864631 
L 456.179419 612.182031 
L 467.728531 612.687182 
L 479.277643 614.290408 
L 490.826755 616.70512 
L 513.924979 622.269046 
L 525.474091 624.573358 
L 537.023203 626.155857 
L 548.572314 626.892961 
L 560.121426 626.805206 
L 571.670538 626.033609 
L 583.21965 624.803264 
L 606.317874 621.966555 
L 617.866986 620.709734 
L 640.965209 618.412157 
L 652.514321 616.953187 
L 664.063433 614.942488 
L 675.612545 612.184642 
L 687.161657 608.589889 
L 698.710769 604.185562 
L 710.259881 599.117243 
L 733.358104 588.189583 
L 744.907216 583.223456 
L 756.456328 579.289079 
L 768.00544 576.842172 
L 779.554552 576.134452 
L 791.103664 577.124825 
L 802.652775 579.467946 
L 825.750999 585.821977 
L 837.300111 588.565008 
L 848.849223 590.415633 
L 860.398335 591.239897 
L 871.947447 591.148789 
L 883.496559 590.370511 
L 895.04567 589.049803 
L 906.594782 587.055369 
L 918.143894 583.901169 
L 929.693006 578.854212 
L 941.242118 571.211114 
L 952.79123 560.623711 
L 964.340342 547.304815 
L 975.889453 531.988583 
L 987.438565 515.640201 
L 1010.536789 482.459866 
L 1022.085901 465.540969 
L 1033.635013 447.508288 
L 1045.184125 427.519858 
L 1056.733237 405.00939 
L 1068.282348 379.82992 
L 1079.83146 352.15169 
L 1091.380572 322.20825 
L 1102.929684 290.060093 
L 1114.478796 255.528215 
L 1126.027908 218.389628 
L 1137.57702 178.869599 
L 1149.126131 138.381697 
L 1160.675243 100.289776 
L 1172.224355 70.231643 
L 1183.773467 55.46373 
L 1195.322579 63.001315 
L 1206.871691 97.024522 
L 1218.420803 156.689268 
L 1229.969915 235.568541 
L 1241.519026 323.230509 
L 1253.068138 408.327282 
L 1264.61725 481.776848 
L 1276.166362 538.690719 
L 1287.715474 578.510776 
L 1299.264586 603.760156 
L 1310.813698 618.306661 
L 1322.362809 625.934496 
L 1333.911921 629.579921 
L 1345.461033 631.169308 
L 1345.461033 631.169308 
" clip-path="url(#paa7045c3a6)" style="fill: none; stroke: #734848; stroke-width: 1.5; stroke-linecap: round"/>
   </g>
   <g id="line2d_16">
    <path d="M -1 629.653806 
L 38.529254 627.949331 
L 51.562133 627.612545 
L 77.627891 627.290515 
L 103.693649 627.19666 
L 129.759407 627.365413 
L 155.825165 627.917672 
L 194.923802 628.892812 
L 220.98956 629.203798 
L 260.088198 629.442856 
L 299.186835 630.004232 
L 325.252593 630.260303 
L 338.285472 630.169686 
L 351.318351 629.806013 
L 364.35123 629.047544 
L 377.384109 627.776228 
L 390.416988 625.926973 
L 403.449867 623.550921 
L 429.515625 618.235629 
L 442.548504 616.120872 
L 455.581384 614.912356 
L 468.614263 614.805721 
L 481.647142 615.719157 
L 494.680021 617.313859 
L 507.7129 619.104636 
L 520.745779 620.610193 
L 533.778658 621.482271 
L 546.811537 621.573826 
L 559.844416 620.938637 
L 572.877295 619.776921 
L 638.04169 612.588638 
L 651.074569 610.81867 
L 664.107448 608.660378 
L 677.140328 606.074068 
L 690.173207 603.062089 
L 703.206086 599.633626 
L 716.238965 595.819318 
L 742.304723 587.700403 
L 755.337602 584.164054 
L 768.370481 581.688602 
L 781.40336 580.732729 
L 794.436239 581.478025 
L 807.469118 583.716346 
L 833.534876 589.983461 
L 846.567755 592.149347 
L 859.600634 592.497856 
L 872.633513 590.491922 
L 885.666393 585.967507 
L 898.699272 579.065073 
L 911.732151 570.091053 
L 924.76503 559.413705 
L 937.797909 547.453375 
L 950.830788 534.724328 
L 963.863667 521.816566 
L 976.896546 509.242521 
L 989.929425 497.192368 
L 1002.962304 485.343364 
L 1015.995183 472.865056 
L 1029.028062 458.649426 
L 1042.060941 441.652123 
L 1055.09382 421.158228 
L 1068.126699 396.835578 
L 1081.159578 368.579559 
L 1094.192458 336.294411 
L 1107.225337 299.814979 
L 1120.258216 259.133136 
L 1133.291095 214.986956 
L 1146.323974 169.70749 
L 1159.356853 127.978012 
L 1172.389732 96.914771 
L 1185.422611 84.879686 
L 1198.45549 98.948929 
L 1211.488369 141.88289 
L 1224.521248 210.146484 
L 1237.554127 294.300428 
L 1250.587006 381.850415 
L 1263.619885 461.208748 
L 1276.652764 524.847501 
L 1289.685643 570.378621 
L 1302.718522 599.5919 
L 1315.751402 616.457042 
L 1328.784281 625.237882 
L 1341.81716 629.367735 
L 1354.850039 631.12451 
L 1354.850039 631.12451 
" clip-path="url(#paa7045c3a6)" style="fill: none; stroke: #004e4a; stroke-width: 1.5; stroke-linecap: round"/>
   </g>
   <g id="line2d_17">
    <path d="M -1 629.267613 
L 38.504873 627.582491 
L 51.554006 627.304881 
L 64.603138 627.211238 
L 90.701403 627.42642 
L 142.897934 628.397747 
L 182.045331 629.031512 
L 208.143596 629.257793 
L 260.340127 629.354089 
L 312.536657 629.282853 
L 338.634922 628.966267 
L 351.684054 628.56471 
L 364.733187 627.839145 
L 377.782319 626.652028 
L 390.831452 624.919855 
L 403.880584 622.680583 
L 429.97885 617.634037 
L 443.027982 615.59196 
L 456.077115 614.364428 
L 469.126247 614.125589 
L 482.17538 614.806742 
L 495.224512 616.11996 
L 508.273645 617.653569 
L 521.322777 618.99604 
L 534.37191 619.840646 
L 547.421042 620.041906 
L 560.470175 619.619744 
L 573.519308 618.722621 
L 638.76497 612.94127 
L 651.814103 611.56253 
L 664.863235 609.778153 
L 677.912368 607.443071 
L 690.9615 604.447855 
L 704.010633 600.725516 
L 717.059765 596.300746 
L 743.158031 586.416682 
L 756.207163 582.092039 
L 769.256296 579.146581 
L 782.305428 578.140109 
L 795.354561 579.226109 
L 808.403693 582.048003 
L 821.452826 585.800332 
L 834.501958 589.42764 
L 847.551091 591.884288 
L 860.600223 592.362884 
L 873.649356 590.41578 
L 886.698489 585.940866 
L 899.747621 579.069253 
L 912.796754 570.044663 
L 925.845886 559.178632 
L 938.895019 546.891783 
L 951.944151 533.760292 
L 964.993284 520.458144 
L 978.042416 507.555768 
L 991.091549 495.256418 
L 1004.140681 483.226131 
L 1017.189814 470.636411 
L 1030.238946 456.411435 
L 1043.288079 439.543919 
L 1056.337212 419.307359 
L 1069.386344 395.27231 
L 1082.435477 367.172817 
L 1095.484609 334.772434 
L 1108.533742 297.893122 
L 1121.582874 256.712268 
L 1134.632007 212.342129 
L 1147.681139 167.572042 
L 1160.730272 127.443661 
L 1173.779404 99.122059 
L 1186.828537 90.573096 
L 1199.87767 108.082407 
L 1212.926802 153.497061 
L 1225.975935 222.629333 
L 1239.025067 305.929647 
L 1252.0742 391.346705 
L 1265.123332 468.036241 
L 1278.172465 529.170019 
L 1291.221597 572.77919 
L 1304.27073 600.750645 
L 1317.319862 616.933949 
L 1330.368995 625.398153 
L 1343.418127 629.406434 
L 1356.46726 631.127093 
L 1356.46726 631.127093 
" clip-path="url(#paa7045c3a6)" style="fill: none; stroke: #c17150; stroke-width: 1.5; stroke-linecap: round"/>
   </g>
   <g id="patch_3">
    <path d="M 37.067331 632.140349 
L 37.067331 3.00024 
" style="fill: none; stroke: #808080; stroke-width: 0.8; stroke-linejoin: miter; stroke-linecap: square"/>
   </g>
   <g id="patch_4">
    <path d="M 37.067331 632.140349 
L 1432.018425 632.140349 
" style="fill: none; stroke: #808080; stroke-width: 0.8; stroke-linejoin: miter; stroke-linecap: square"/>
   </g>
   <g id="legend_1">
    <g id="patch_5">
     <path d="M 479.709899 716.991538 
L 989.375857 716.991538 
Q 991.375857 716.991538 991.375857 714.991538 
L 991.375857 702.054359 
Q 991.375857 700.054359 989.375857 700.054359 
L 479.709899 700.054359 
Q 477.709899 700.054359 477.709899 702.054359 
L 477.709899 714.991538 
Q 477.709899 716.991538 479.709899 716.991538 
z
" style="fill: #ffffff; opacity: 0.8"/>
    </g>
    <g id="line2d_18">
     <path d="M 481.709899 707.554359 
L 491.709899 707.554359 
L 501.709899 707.554359 
" style="fill: none; stroke: #006e64; stroke-width: 1.5; stroke-linecap: round"/>
    </g>
    <g id="text_16">
     <!-- budget costs -->
     <g style="fill: #262626" transform="translate(509.709899 711.054359) scale(0.1 -0.1)">
      <defs>
       <path id="CMR17-62" d="M 960 4396 
L 198 4326 
L 198 4160 
C 576 4160 634 4122 634 3817 
L 634 -13 
L 749 -13 
L 934 441 
C 1120 141 1395 -64 1766 -64 
C 2406 -64 3053 500 3053 1370 
C 3053 2188 2477 2790 1830 2790 
C 1434 2790 1152 2579 960 2330 
L 960 4396 
z
M 973 2004 
C 973 2118 973 2138 1062 2272 
C 1312 2657 1670 2688 1792 2688 
C 1984 2688 2643 2585 2643 1376 
C 2643 108 1888 38 1734 38 
C 1536 38 1248 114 1043 486 
C 973 608 973 621 973 735 
L 973 2004 
z
" transform="scale(0.015625)"/>
       <path id="CMR17-75" d="M 1882 2693 
L 1882 2528 
C 2259 2528 2317 2489 2317 2186 
L 2317 1032 
C 2317 500 2029 38 1555 38 
C 1030 38 986 348 986 678 
L 986 2763 
L 211 2693 
L 211 2528 
C 467 2528 640 2528 646 2274 
L 646 1058 
C 646 633 646 361 813 183 
C 896 101 1056 -64 1517 -64 
C 2061 -64 2272 377 2323 506 
L 2330 506 
L 2330 -63 
L 3091 -63 
L 3091 128 
C 2714 128 2656 166 2656 473 
L 2656 2763 
L 1882 2693 
z
" transform="scale(0.015625)"/>
       <path id="CMR17-64" d="M 1869 4326 
L 1869 4160 
C 2246 4160 2304 4122 2304 3820 
L 2304 2345 
C 2278 2377 2016 2790 1498 2790 
C 845 2790 211 2208 211 1364 
C 211 525 806 -64 1434 -64 
C 1978 -64 2259 337 2291 380 
L 2291 -63 
L 3066 -63 
L 3066 128 
C 2688 128 2630 166 2630 473 
L 2630 4396 
L 1869 4326 
z
M 2291 755 
C 2291 563 2176 390 2029 262 
C 1811 70 1594 38 1472 38 
C 1286 38 621 134 621 1356 
C 621 2612 1363 2688 1530 2688 
C 1824 2688 2061 2522 2208 2291 
C 2291 2157 2291 2138 2291 2023 
L 2291 755 
z
" transform="scale(0.015625)"/>
       <path id="CMR17-67" d="M 710 1164 
C 832 1068 1043 960 1299 960 
C 1805 960 2240 1357 2240 1888 
C 2240 2054 2189 2310 1997 2509 
C 2176 2692 2438 2752 2586 2752 
C 2611 2752 2650 2752 2682 2734 
C 2656 2728 2598 2703 2598 2605 
C 2598 2527 2656 2471 2739 2471 
C 2835 2471 2886 2533 2886 2614 
C 2886 2731 2790 2854 2586 2854 
C 2330 2854 2106 2738 1926 2580 
C 1734 2753 1504 2816 1299 2816 
C 794 2816 358 2419 358 1888 
C 358 1522 570 1292 634 1228 
C 442 1004 442 743 442 711 
C 442 545 506 302 723 168 
C 390 85 128 -169 128 -486 
C 128 -943 736 -1280 1466 -1280 
C 2170 -1280 2803 -956 2803 -479 
C 2803 384 1856 384 1363 384 
C 1216 384 954 384 922 391 
C 723 423 589 602 589 826 
C 589 883 589 1024 710 1164 
z
M 1299 1068 
C 736 1068 736 1760 736 1889 
C 736 2016 736 2708 1299 2708 
C 1862 2708 1862 2016 1862 1889 
C 1862 1760 1862 1068 1299 1068 
z
M 1466 -1171 
C 826 -1171 384 -835 384 -486 
C 384 -289 493 -105 634 -4 
C 794 104 858 104 1293 104 
C 1818 104 2547 104 2547 -486 
C 2547 -835 2106 -1171 1466 -1171 
z
" transform="scale(0.015625)"/>
       <path id="CMR17-63" d="M 2234 2240 
C 2112 2240 1933 2240 1933 2017 
C 1933 1838 2080 1787 2163 1787 
C 2208 1787 2394 1807 2394 2024 
C 2394 2467 1958 2803 1466 2803 
C 787 2803 211 2178 211 1363 
C 211 516 813 -64 1466 -64 
C 2259 -64 2458 677 2458 748 
C 2458 774 2451 793 2406 793 
C 2362 793 2355 787 2330 703 
C 2163 180 1798 51 1523 51 
C 1114 51 621 427 621 1369 
C 621 2338 1094 2688 1472 2688 
C 1722 2688 2093 2573 2234 2240 
z
" transform="scale(0.015625)"/>
      </defs>
      <use xlink:href="#CMR17-62" transform="scale(0.996264)"/>
      <use xlink:href="#CMR17-75" transform="translate(50.89537 0) scale(0.996264)"/>
      <use xlink:href="#CMR17-64" transform="translate(101.79074 0) scale(0.996264)"/>
      <use xlink:href="#CMR17-67" transform="translate(152.686109 0) scale(0.996264)"/>
      <use xlink:href="#CMR17-65" transform="translate(198.376586 0) scale(0.996264)"/>
      <use xlink:href="#CMR17-74" transform="translate(238.862247 0) scale(0.996264)"/>
      <use xlink:href="#CMR17-63" transform="translate(304.218981 0) scale(0.996264)"/>
      <use xlink:href="#CMR17-6f" transform="translate(344.704642 0) scale(0.996264)"/>
      <use xlink:href="#CMR17-73" transform="translate(390.395119 0) scale(0.996264)"/>
      <use xlink:href="#CMR17-74" transform="translate(426.196456 0) scale(0.996264)"/>
      <use xlink:href="#CMR17-73" transform="translate(461.477224 0) scale(0.996264)"/>
     </g>
    </g>
    <g id="line2d_19">
     <path d="M 584.061728 707.554359 
L 594.061728 707.554359 
L 604.061728 707.554359 
" style="fill: none; stroke: #734848; stroke-width: 1.5; stroke-linecap: round"/>
    </g>
    <g id="text_17">
     <!-- sales estimate costs -->
     <g style="fill: #262626" transform="translate(612.061728 711.054359) scale(0.1 -0.1)">
      <defs>
       <path id="CMR17-61" d="M 2304 1653 
C 2304 2072 2304 2294 2035 2543 
C 1798 2752 1523 2816 1306 2816 
C 800 2816 435 2407 435 1971 
C 435 1728 627 1728 666 1728 
C 749 1728 896 1778 896 1954 
C 896 2112 774 2181 666 2181 
C 640 2181 608 2174 589 2168 
C 723 2592 1069 2714 1293 2714 
C 1613 2714 1965 2429 1965 1885 
L 1965 1600 
C 1587 1600 1133 1549 774 1357 
C 371 1133 256 813 256 570 
C 256 77 832 -64 1171 -64 
C 1523 -64 1850 139 1990 511 
C 2003 233 2182 -18 2464 -18 
C 2598 -18 2938 70 2938 567 
L 2938 920 
L 2822 920 
L 2822 562 
C 2822 178 2650 128 2566 128 
C 2304 128 2304 458 2304 738 
L 2304 1653 
z
M 1965 870 
C 1965 317 1568 38 1216 38 
C 896 38 646 275 646 570 
C 646 761 730 1100 1101 1305 
C 1408 1478 1760 1504 1965 1504 
L 1965 870 
z
" transform="scale(0.015625)"/>
       <path id="CMR17-6c" d="M 979 4396 
L 218 4326 
L 218 4160 
C 595 4160 653 4122 653 3817 
L 653 426 
C 653 184 627 153 218 153 
L 218 -13 
C 371 0 653 0 813 0 
C 979 0 1261 0 1414 -13 
L 1414 153 
C 1005 153 979 178 979 426 
L 979 4396 
z
" transform="scale(0.015625)"/>
      </defs>
      <use xlink:href="#CMR17-73" transform="scale(0.996264)"/>
      <use xlink:href="#CMR17-61" transform="translate(35.801338 0) scale(0.996264)"/>
      <use xlink:href="#CMR17-6c" transform="translate(81.491815 0) scale(0.996264)"/>
      <use xlink:href="#CMR17-65" transform="translate(106.362873 0) scale(0.996264)"/>
      <use xlink:href="#CMR17-73" transform="translate(146.848534 0) scale(0.996264)"/>
      <use xlink:href="#CMR17-65" transform="translate(212.725838 0) scale(0.996264)"/>
      <use xlink:href="#CMR17-73" transform="translate(253.211498 0) scale(0.996264)"/>
      <use xlink:href="#CMR17-74" transform="translate(289.012836 0) scale(0.996264)"/>
      <use xlink:href="#CMR17-69" transform="translate(324.293604 0) scale(0.996264)"/>
      <use xlink:href="#CMR17-6d" transform="translate(349.164662 0) scale(0.996264)"/>
      <use xlink:href="#CMR17-61" transform="translate(426.084252 0) scale(0.996264)"/>
      <use xlink:href="#CMR17-74" transform="translate(471.774729 0) scale(0.996264)"/>
      <use xlink:href="#CMR17-65" transform="translate(507.055497 0) scale(0.996264)"/>
      <use xlink:href="#CMR17-63" transform="translate(577.617124 0) scale(0.996264)"/>
      <use xlink:href="#CMR17-6f" transform="translate(618.102784 0) scale(0.996264)"/>
      <use xlink:href="#CMR17-73" transform="translate(663.793261 0) scale(0.996264)"/>
      <use xlink:href="#CMR17-74" transform="translate(699.594599 0) scale(0.996264)"/>
      <use xlink:href="#CMR17-73" transform="translate(734.875367 0) scale(0.996264)"/>
     </g>
    </g>
    <g id="line2d_20">
     <path d="M 716.467527 707.554359 
L 726.467527 707.554359 
L 736.467527 707.554359 
" style="fill: none; stroke: #004e4a; stroke-width: 1.5; stroke-linecap: round"/>
    </g>
    <g id="text_18">
     <!-- production estimate costs -->
     <g style="fill: #262626" transform="translate(744.467527 711.054359) scale(0.1 -0.1)">
      <defs>
       <path id="CMR17-70" d="M 1408 -1063 
C 998 -1063 973 -1037 973 -789 
L 973 402 
C 1158 134 1427 -38 1766 -38 
C 2406 -38 3053 523 3053 1388 
C 3053 2191 2496 2802 1837 2802 
C 1453 2802 1139 2592 960 2338 
L 960 2802 
L 198 2732 
L 198 2567 
C 576 2567 634 2528 634 2223 
L 634 -789 
C 634 -1031 608 -1063 198 -1063 
L 198 -1228 
C 352 -1216 634 -1216 800 -1216 
C 966 -1216 1254 -1216 1408 -1228 
L 1408 -1063 
z
M 973 2012 
C 973 2102 973 2235 1222 2471 
C 1254 2497 1472 2688 1792 2688 
C 2259 2688 2643 2108 2643 1382 
C 2643 656 2234 64 1728 64 
C 1498 64 1248 172 1056 472 
C 973 612 973 650 973 752 
L 973 2012 
z
" transform="scale(0.015625)"/>
       <path id="CMR17-72" d="M 960 1497 
C 960 2112 1222 2688 1702 2688 
C 1747 2688 1792 2682 1837 2662 
C 1837 2662 1696 2617 1696 2452 
C 1696 2298 1818 2234 1914 2234 
C 1990 2234 2131 2279 2131 2458 
C 2131 2663 1926 2790 1709 2790 
C 1222 2790 1011 2317 947 2093 
L 941 2093 
L 941 2790 
L 198 2720 
L 198 2554 
C 576 2554 634 2515 634 2208 
L 634 428 
C 634 184 608 153 198 153 
L 198 -13 
C 352 0 646 0 813 0 
C 998 0 1325 0 1498 -13 
L 1498 153 
C 1037 153 960 153 960 440 
L 960 1497 
z
" transform="scale(0.015625)"/>
      </defs>
      <use xlink:href="#CMR17-70" transform="scale(0.996264)"/>
      <use xlink:href="#CMR17-72" transform="translate(50.89537 0) scale(0.996264)"/>
      <use xlink:href="#CMR17-6f" transform="translate(86.176138 0) scale(0.996264)"/>
      <use xlink:href="#CMR17-64" transform="translate(134.469053 0) scale(0.996264)"/>
      <use xlink:href="#CMR17-75" transform="translate(185.364423 0) scale(0.996264)"/>
      <use xlink:href="#CMR17-63" transform="translate(236.259793 0) scale(0.996264)"/>
      <use xlink:href="#CMR17-74" transform="translate(276.745453 0) scale(0.996264)"/>
      <use xlink:href="#CMR17-69" transform="translate(312.026221 0) scale(0.996264)"/>
      <use xlink:href="#CMR17-6f" transform="translate(336.89728 0) scale(0.996264)"/>
      <use xlink:href="#CMR17-6e" transform="translate(382.587757 0) scale(0.996264)"/>
      <use xlink:href="#CMR17-65" transform="translate(463.559093 0) scale(0.996264)"/>
      <use xlink:href="#CMR17-73" transform="translate(504.044753 0) scale(0.996264)"/>
      <use xlink:href="#CMR17-74" transform="translate(539.846091 0) scale(0.996264)"/>
      <use xlink:href="#CMR17-69" transform="translate(575.126859 0) scale(0.996264)"/>
      <use xlink:href="#CMR17-6d" transform="translate(599.997917 0) scale(0.996264)"/>
      <use xlink:href="#CMR17-61" transform="translate(676.917507 0) scale(0.996264)"/>
      <use xlink:href="#CMR17-74" transform="translate(722.607984 0) scale(0.996264)"/>
      <use xlink:href="#CMR17-65" transform="translate(757.888752 0) scale(0.996264)"/>
      <use xlink:href="#CMR17-63" transform="translate(828.450379 0) scale(0.996264)"/>
      <use xlink:href="#CMR17-6f" transform="translate(868.936039 0) scale(0.996264)"/>
      <use xlink:href="#CMR17-73" transform="translate(914.626517 0) scale(0.996264)"/>
      <use xlink:href="#CMR17-74" transform="translate(950.427854 0) scale(0.996264)"/>
      <use xlink:href="#CMR17-73" transform="translate(985.708622 0) scale(0.996264)"/>
     </g>
    </g>
    <g id="line2d_21">
     <path d="M 876.187675 707.554359 
L 886.187675 707.554359 
L 896.187675 707.554359 
" style="fill: none; stroke: #c17150; stroke-width: 1.5; stroke-linecap: round"/>
    </g>
    <g id="text_19">
     <!-- final estimate costs -->
     <g style="fill: #262626" transform="translate(904.187675 711.054359) scale(0.1 -0.1)">
      <defs>
       <path id="CMR17-c" d="M 2554 2764 
C 2400 2764 1926 2764 1805 2739 
C 1766 2725 1754 2725 1677 2725 
L 947 2725 
L 947 3469 
C 947 4073 1434 4352 1818 4352 
C 1939 4352 2214 4320 2355 4101 
C 2291 4101 2086 4101 2086 3878 
C 2086 3725 2189 3648 2317 3648 
C 2432 3648 2547 3712 2547 3885 
C 2547 4205 2240 4454 1843 4454 
C 1338 4454 634 4168 634 3469 
L 634 2725 
L 122 2725 
L 122 2560 
L 634 2560 
L 634 427 
C 634 184 608 153 198 153 
L 198 -13 
C 352 0 634 0 794 0 
C 960 0 1242 0 1395 -13 
L 1395 153 
C 986 153 960 178 960 427 
L 960 2560 
L 1901 2560 
C 2176 2560 2227 2502 2227 2222 
L 2227 427 
C 2227 184 2202 153 1792 153 
L 1792 -13 
C 1946 0 2227 0 2387 0 
C 2554 0 2835 0 2989 -13 
L 2989 153 
C 2579 153 2554 178 2554 427 
L 2554 2764 
z
" transform="scale(0.015625)"/>
      </defs>
      <use xlink:href="#CMR17-c" transform="scale(0.996264)"/>
      <use xlink:href="#CMR17-6e" transform="translate(49.742223 0) scale(0.996264)"/>
      <use xlink:href="#CMR17-61" transform="translate(100.637593 0) scale(0.996264)"/>
      <use xlink:href="#CMR17-6c" transform="translate(146.32807 0) scale(0.996264)"/>
      <use xlink:href="#CMR17-65" transform="translate(201.275095 0) scale(0.996264)"/>
      <use xlink:href="#CMR17-73" transform="translate(241.760756 0) scale(0.996264)"/>
      <use xlink:href="#CMR17-74" transform="translate(277.562093 0) scale(0.996264)"/>
      <use xlink:href="#CMR17-69" transform="translate(312.842861 0) scale(0.996264)"/>
      <use xlink:href="#CMR17-6d" transform="translate(337.713919 0) scale(0.996264)"/>
      <use xlink:href="#CMR17-61" transform="translate(414.633509 0) scale(0.996264)"/>
      <use xlink:href="#CMR17-74" transform="translate(460.323986 0) scale(0.996264)"/>
      <use xlink:href="#CMR17-65" transform="translate(495.604754 0) scale(0.996264)"/>
      <use xlink:href="#CMR17-63" transform="translate(566.166381 0) scale(0.996264)"/>
      <use xlink:href="#CMR17-6f" transform="translate(606.652042 0) scale(0.996264)"/>
      <use xlink:href="#CMR17-73" transform="translate(652.342519 0) scale(0.996264)"/>
      <use xlink:href="#CMR17-74" transform="translate(688.143856 0) scale(0.996264)"/>
      <use xlink:href="#CMR17-73" transform="translate(723.424624 0) scale(0.996264)"/>
     </g>
    </g>
   </g>
  </g>
 </g>
 <defs>
  <clipPath id="paa7045c3a6">
   <rect x="37.067331" y="3.00024" width="1394.951094" height="629.140109"/>
  </clipPath>
 </defs>
</svg>
