<?xml version="1.0" encoding="utf-8" standalone="no"?>
<!DOCTYPE svg PUBLIC "-//W3C//DTD SVG 1.1//EN"
  "http://www.w3.org/Graphics/SVG/1.1/DTD/svg11.dtd">
<svg xmlns:xlink="http://www.w3.org/1999/xlink" width="1440pt" height="720pt" viewBox="0 0 1440 720" xmlns="http://www.w3.org/2000/svg" version="1.1">
 <metadata>
  <rdf:RDF xmlns:dc="http://purl.org/dc/elements/1.1/" xmlns:cc="http://creativecommons.org/ns#" xmlns:rdf="http://www.w3.org/1999/02/22-rdf-syntax-ns#">
   <cc:Work>
    <dc:type rdf:resource="http://purl.org/dc/dcmitype/StillImage"/>
    <dc:date>2023-11-21T12:36:20.611238</dc:date>
    <dc:format>image/svg+xml</dc:format>
    <dc:creator>
     <cc:Agent>
      <dc:title>Matplotlib v3.6.3, https://matplotlib.org/</dc:title>
     </cc:Agent>
    </dc:creator>
   </cc:Work>
  </rdf:RDF>
 </metadata>
 <defs>
  <style type="text/css">*{stroke-linejoin: round; stroke-linecap: butt}</style>
 </defs>
 <g id="figure_1">
  <g id="patch_1">
   <path d="M 0 720 
L 1440 720 
L 1440 0 
L 0 0 
z
" style="fill: #ffffff"/>
  </g>
  <g id="axes_1">
   <g id="patch_2">
    <path d="M 61.046592 612.203718 
L 1436.99976 612.203718 
L 1436.99976 3.00024 
L 61.046592 3.00024 
z
" style="fill: #ffffff"/>
   </g>
   <g id="matplotlib.axis_1">
    <g id="xtick_1">
     <g id="line2d_1">
      <path d="M 61.046592 612.203718 
L 61.046592 3.00024 
" clip-path="url(#p1cb56855f5)" style="fill: none; stroke: #cccccc; stroke-opacity: 0.35; stroke-width: 0.8; stroke-linecap: round"/>
     </g>
     <g id="text_1">
      <!-- $\mathdefault{−10}$ -->
      <g transform="translate(44.159753 629.540715) scale(0.2 -0.2)">
       <defs>
        <path id="CMSY10-0" d="M 4218 1472 
C 4326 1472 4442 1472 4442 1600 
C 4442 1728 4326 1728 4218 1728 
L 755 1728 
C 646 1728 531 1728 531 1600 
C 531 1472 646 1472 755 1472 
L 4218 1472 
z
" transform="scale(0.015625)"/>
        <path id="CMR17-31" d="M 1702 4058 
C 1702 4192 1696 4192 1606 4192 
C 1357 3916 979 3827 621 3827 
C 602 3827 570 3827 563 3808 
C 557 3795 557 3782 557 3648 
C 755 3648 1088 3686 1344 3839 
L 1344 461 
C 1344 236 1331 160 781 160 
L 589 160 
L 589 0 
C 896 0 1216 0 1523 0 
C 1830 0 2150 0 2458 0 
L 2458 160 
L 2266 160 
C 1715 160 1702 230 1702 458 
L 1702 4058 
z
" transform="scale(0.015625)"/>
        <path id="CMR17-30" d="M 2688 2025 
C 2688 2416 2682 3080 2413 3591 
C 2176 4039 1798 4198 1466 4198 
C 1158 4198 768 4058 525 3597 
C 269 3118 243 2524 243 2025 
C 243 1661 250 1106 448 619 
C 723 -39 1216 -128 1466 -128 
C 1760 -128 2208 -7 2470 600 
C 2662 1042 2688 1559 2688 2025 
z
M 1466 -26 
C 1056 -26 813 325 723 812 
C 653 1188 653 1738 653 2096 
C 653 2588 653 2997 736 3387 
C 858 3929 1216 4096 1466 4096 
C 1728 4096 2067 3923 2189 3400 
C 2272 3036 2278 2607 2278 2096 
C 2278 1680 2278 1169 2202 792 
C 2067 95 1690 -26 1466 -26 
z
" transform="scale(0.015625)"/>
       </defs>
       <use xlink:href="#CMSY10-0" transform="scale(0.996264)"/>
       <use xlink:href="#CMR17-31" transform="translate(77.487468 0) scale(0.996264)"/>
       <use xlink:href="#CMR17-30" transform="translate(123.177945 0) scale(0.996264)"/>
      </g>
     </g>
    </g>
    <g id="xtick_2">
     <g id="line2d_2">
      <path d="M 281.543173 612.203718 
L 281.543173 3.00024 
" clip-path="url(#p1cb56855f5)" style="fill: none; stroke: #cccccc; stroke-opacity: 0.35; stroke-width: 0.8; stroke-linecap: round"/>
     </g>
     <g id="text_2">
      <!-- $\mathdefault{0}$ -->
      <g transform="translate(276.974125 629.540715) scale(0.2 -0.2)">
       <use xlink:href="#CMR17-30" transform="scale(0.996264)"/>
      </g>
     </g>
    </g>
    <g id="xtick_3">
     <g id="line2d_3">
      <path d="M 502.039754 612.203718 
L 502.039754 3.00024 
" clip-path="url(#p1cb56855f5)" style="fill: none; stroke: #cccccc; stroke-opacity: 0.35; stroke-width: 0.8; stroke-linecap: round"/>
     </g>
     <g id="text_3">
      <!-- $\mathdefault{10}$ -->
      <g transform="translate(492.901658 629.540715) scale(0.2 -0.2)">
       <use xlink:href="#CMR17-31" transform="scale(0.996264)"/>
       <use xlink:href="#CMR17-30" transform="translate(45.690477 0) scale(0.996264)"/>
      </g>
     </g>
    </g>
    <g id="xtick_4">
     <g id="line2d_4">
      <path d="M 722.536334 612.203718 
L 722.536334 3.00024 
" clip-path="url(#p1cb56855f5)" style="fill: none; stroke: #cccccc; stroke-opacity: 0.35; stroke-width: 0.8; stroke-linecap: round"/>
     </g>
     <g id="text_4">
      <!-- $\mathdefault{20}$ -->
      <g transform="translate(713.398239 629.540715) scale(0.2 -0.2)">
       <defs>
        <path id="CMR17-32" d="M 2669 989 
L 2554 989 
C 2490 536 2438 459 2413 420 
C 2381 369 1920 369 1830 369 
L 602 369 
C 832 619 1280 1072 1824 1597 
C 2214 1967 2669 2402 2669 3035 
C 2669 3790 2067 4224 1395 4224 
C 691 4224 262 3604 262 3030 
C 262 2780 448 2748 525 2748 
C 589 2748 781 2787 781 3010 
C 781 3207 614 3264 525 3264 
C 486 3264 448 3258 422 3245 
C 544 3790 915 4058 1306 4058 
C 1862 4058 2227 3617 2227 3035 
C 2227 2479 1901 2000 1536 1584 
L 262 146 
L 262 0 
L 2515 0 
L 2669 989 
z
" transform="scale(0.015625)"/>
       </defs>
       <use xlink:href="#CMR17-32" transform="scale(0.996264)"/>
       <use xlink:href="#CMR17-30" transform="translate(45.690477 0) scale(0.996264)"/>
      </g>
     </g>
    </g>
    <g id="xtick_5">
     <g id="line2d_5">
      <path d="M 943.032915 612.203718 
L 943.032915 3.00024 
" clip-path="url(#p1cb56855f5)" style="fill: none; stroke: #cccccc; stroke-opacity: 0.35; stroke-width: 0.8; stroke-linecap: round"/>
     </g>
     <g id="text_5">
      <!-- $\mathdefault{30}$ -->
      <g transform="translate(933.89482 629.540715) scale(0.2 -0.2)">
       <defs>
        <path id="CMR17-33" d="M 1414 2157 
C 1984 2157 2234 1662 2234 1090 
C 2234 320 1824 25 1453 25 
C 1114 25 563 194 390 693 
C 422 680 454 680 486 680 
C 640 680 755 782 755 948 
C 755 1133 614 1216 486 1216 
C 378 1216 211 1165 211 926 
C 211 335 787 -128 1466 -128 
C 2176 -128 2720 430 2720 1085 
C 2720 1707 2208 2157 1600 2227 
C 2086 2328 2554 2756 2554 3329 
C 2554 3820 2048 4179 1472 4179 
C 890 4179 378 3829 378 3329 
C 378 3110 544 3072 627 3072 
C 762 3072 877 3155 877 3321 
C 877 3486 762 3569 627 3569 
C 602 3569 570 3569 544 3557 
C 730 3959 1235 4032 1459 4032 
C 1683 4032 2106 3925 2106 3320 
C 2106 3143 2080 2828 1862 2550 
C 1670 2304 1453 2304 1242 2284 
C 1210 2284 1062 2269 1037 2269 
C 992 2263 966 2257 966 2208 
C 966 2163 973 2157 1101 2157 
L 1414 2157 
z
" transform="scale(0.015625)"/>
       </defs>
       <use xlink:href="#CMR17-33" transform="scale(0.996264)"/>
       <use xlink:href="#CMR17-30" transform="translate(45.690477 0) scale(0.996264)"/>
      </g>
     </g>
    </g>
    <g id="xtick_6">
     <g id="line2d_6">
      <path d="M 1163.529496 612.203718 
L 1163.529496 3.00024 
" clip-path="url(#p1cb56855f5)" style="fill: none; stroke: #cccccc; stroke-opacity: 0.35; stroke-width: 0.8; stroke-linecap: round"/>
     </g>
     <g id="text_6">
      <!-- $\mathdefault{40}$ -->
      <g transform="translate(1154.391401 629.540715) scale(0.2 -0.2)">
       <defs>
        <path id="CMR17-34" d="M 2150 4122 
C 2150 4256 2144 4256 2029 4256 
L 128 1254 
L 128 1088 
L 1779 1088 
L 1779 457 
C 1779 224 1766 160 1318 160 
L 1197 160 
L 1197 0 
C 1402 0 1747 0 1965 0 
C 2182 0 2528 0 2733 0 
L 2733 160 
L 2611 160 
C 2163 160 2150 224 2150 457 
L 2150 1088 
L 2803 1088 
L 2803 1254 
L 2150 1254 
L 2150 4122 
z
M 1798 3703 
L 1798 1254 
L 256 1254 
L 1798 3703 
z
" transform="scale(0.015625)"/>
       </defs>
       <use xlink:href="#CMR17-34" transform="scale(0.996264)"/>
       <use xlink:href="#CMR17-30" transform="translate(45.690477 0) scale(0.996264)"/>
      </g>
     </g>
    </g>
    <g id="xtick_7">
     <g id="line2d_7">
      <path d="M 1384.026077 612.203718 
L 1384.026077 3.00024 
" clip-path="url(#p1cb56855f5)" style="fill: none; stroke: #cccccc; stroke-opacity: 0.35; stroke-width: 0.8; stroke-linecap: round"/>
     </g>
     <g id="text_7">
      <!-- $\mathdefault{50}$ -->
      <g transform="translate(1374.887981 629.540715) scale(0.2 -0.2)">
       <defs>
        <path id="CMR17-35" d="M 730 3692 
C 794 3666 1056 3584 1325 3584 
C 1920 3584 2246 3911 2432 4100 
C 2432 4157 2432 4192 2394 4192 
C 2387 4192 2374 4192 2323 4163 
C 2099 4058 1837 3973 1517 3973 
C 1325 3973 1037 3999 723 4139 
C 653 4171 640 4171 634 4171 
C 602 4171 595 4164 595 4037 
L 595 2203 
C 595 2089 595 2057 659 2057 
C 691 2057 704 2070 736 2114 
C 941 2401 1222 2522 1542 2522 
C 1766 2522 2246 2382 2246 1289 
C 2246 1085 2246 715 2054 421 
C 1894 159 1645 25 1370 25 
C 947 25 518 320 403 814 
C 429 807 480 795 506 795 
C 589 795 749 840 749 1038 
C 749 1210 627 1280 506 1280 
C 358 1280 262 1190 262 1011 
C 262 454 704 -128 1382 -128 
C 2042 -128 2669 440 2669 1264 
C 2669 2030 2170 2624 1549 2624 
C 1222 2624 947 2503 730 2274 
L 730 3692 
z
" transform="scale(0.015625)"/>
       </defs>
       <use xlink:href="#CMR17-35" transform="scale(0.996264)"/>
       <use xlink:href="#CMR17-30" transform="translate(45.690477 0) scale(0.996264)"/>
      </g>
     </g>
    </g>
    <g id="text_8">
     <!-- Revenue (mDKK) -->
     <g style="fill: #696969" transform="translate(676.480521 652.342371) scale(0.2 -0.2)">
      <defs>
       <path id="CMR17-52" d="M 2509 2146 
C 3117 2268 3629 2676 3629 3186 
C 3629 3785 2950 4326 2054 4326 
L 333 4326 
L 333 4160 
C 774 4160 845 4160 845 3873 
L 845 415 
C 845 128 774 128 333 128 
L 333 -26 
C 518 -26 851 -26 1050 -26 
C 1248 -26 1581 -26 1766 -26 
L 1766 128 
C 1325 128 1254 128 1254 417 
L 1254 2112 
L 2003 2112 
C 2368 2112 2573 1964 2662 1881 
C 2918 1632 2918 1459 2918 1024 
C 2918 595 2918 377 3110 160 
C 3354 -102 3680 -128 3821 -128 
C 4294 -128 4365 396 4365 503 
C 4365 540 4365 585 4307 585 
C 4256 585 4250 547 4250 522 
C 4218 112 4032 -26 3834 -26 
C 3482 -26 3443 375 3405 764 
C 3386 898 3373 993 3360 1133 
C 3322 1452 3270 1917 2509 2146 
z
M 1984 2214 
L 1254 2214 
L 1254 3913 
C 1254 4129 1267 4160 1523 4160 
L 1990 4160 
C 2522 4160 3142 3977 3142 3190 
C 3142 2372 2464 2214 1984 2214 
z
" transform="scale(0.015625)"/>
       <path id="CMR17-65" d="M 2438 1472 
C 2464 1498 2464 1511 2464 1576 
C 2464 2238 2118 2816 1389 2816 
C 710 2816 173 2169 173 1383 
C 173 551 781 -64 1459 -64 
C 2176 -64 2458 607 2458 740 
C 2458 784 2419 784 2406 784 
C 2362 784 2355 771 2330 696 
C 2189 265 1837 51 1504 51 
C 1229 51 954 203 781 480 
C 582 803 582 1176 582 1472 
L 2438 1472 
z
M 589 1568 
C 634 2505 1126 2714 1382 2714 
C 1818 2714 2112 2297 2118 1568 
L 589 1568 
z
" transform="scale(0.015625)"/>
       <path id="CMR17-76" d="M 2502 2163 
C 2560 2304 2662 2560 3034 2560 
L 3034 2726 
C 2912 2726 2752 2726 2630 2726 
C 2496 2726 2285 2726 2157 2732 
L 2157 2566 
C 2317 2553 2406 2477 2406 2311 
C 2406 2253 2406 2240 2368 2151 
L 1664 377 
L 902 2286 
C 864 2369 864 2381 864 2407 
C 864 2560 1075 2560 1171 2560 
L 1171 2732 
C 1018 2726 736 2726 576 2726 
C 403 2726 205 2726 64 2732 
L 64 2560 
C 307 2560 442 2560 518 2362 
L 1446 44 
C 1485 -51 1491 -64 1549 -64 
C 1606 -64 1613 -51 1651 44 
L 2502 2163 
z
" transform="scale(0.015625)"/>
       <path id="CMR17-6e" d="M 2656 1933 
C 2656 2259 2592 2790 1837 2790 
C 1331 2790 1069 2400 973 2144 
L 966 2144 
L 966 2790 
L 211 2720 
L 211 2554 
C 589 2554 646 2515 646 2208 
L 646 428 
C 646 184 621 153 211 153 
L 211 -13 
C 365 0 646 0 813 0 
C 979 0 1267 0 1421 -13 
L 1421 153 
C 1011 153 986 178 986 428 
L 986 1658 
C 986 2247 1344 2688 1792 2688 
C 2266 2688 2317 2266 2317 1958 
L 2317 428 
C 2317 184 2291 153 1882 153 
L 1882 -13 
C 2035 0 2317 0 2483 0 
C 2650 0 2938 0 3091 -13 
L 3091 153 
C 2682 153 2656 178 2656 428 
L 2656 1933 
z
" transform="scale(0.015625)"/>
       <path id="CMR17-75" d="M 1882 2693 
L 1882 2528 
C 2259 2528 2317 2489 2317 2186 
L 2317 1032 
C 2317 500 2029 38 1555 38 
C 1030 38 986 348 986 678 
L 986 2763 
L 211 2693 
L 211 2528 
C 467 2528 640 2528 646 2274 
L 646 1058 
C 646 633 646 361 813 183 
C 896 101 1056 -64 1517 -64 
C 2061 -64 2272 377 2323 506 
L 2330 506 
L 2330 -63 
L 3091 -63 
L 3091 128 
C 2714 128 2656 166 2656 473 
L 2656 2763 
L 1882 2693 
z
" transform="scale(0.015625)"/>
       <path id="CMR17-28" d="M 1958 -1561 
C 1958 -1555 1958 -1542 1939 -1523 
C 1645 -1224 858 -407 858 1581 
C 858 3569 1632 4379 1946 4697 
C 1946 4704 1958 4717 1958 4736 
C 1958 4755 1939 4768 1914 4768 
C 1843 4768 1299 4296 986 3594 
C 666 2887 576 2199 576 1588 
C 576 1128 621 351 1005 -471 
C 1312 -1135 1837 -1600 1914 -1600 
C 1946 -1600 1958 -1587 1958 -1561 
z
" transform="scale(0.015625)"/>
       <path id="CMR17-6d" d="M 4326 1933 
C 4326 2252 4269 2790 3507 2790 
C 3072 2790 2771 2496 2656 2151 
L 2650 2151 
C 2573 2676 2195 2790 1837 2790 
C 1331 2790 1069 2400 973 2144 
L 966 2144 
L 966 2790 
L 211 2720 
L 211 2554 
C 589 2554 646 2515 646 2208 
L 646 428 
C 646 184 621 153 211 153 
L 211 -13 
C 365 0 646 0 813 0 
C 979 0 1267 0 1421 -13 
L 1421 153 
C 1011 153 986 178 986 428 
L 986 1658 
C 986 2247 1344 2688 1792 2688 
C 2266 2688 2317 2266 2317 1958 
L 2317 428 
C 2317 184 2291 153 1882 153 
L 1882 -13 
C 2035 0 2317 0 2483 0 
C 2650 0 2938 0 3091 -13 
L 3091 153 
C 2682 153 2656 178 2656 428 
L 2656 1658 
C 2656 2247 3014 2688 3462 2688 
C 3936 2688 3987 2266 3987 1958 
L 3987 428 
C 3987 184 3962 153 3552 153 
L 3552 -13 
C 3706 0 3987 0 4154 0 
C 4320 0 4608 0 4762 -13 
L 4762 153 
C 4352 153 4326 178 4326 428 
L 4326 1933 
z
" transform="scale(0.015625)"/>
       <path id="CMR17-44" d="M 333 4352 
L 333 4186 
C 774 4186 845 4186 845 3900 
L 845 452 
C 845 166 774 166 333 166 
L 333 0 
L 2368 0 
C 3398 0 4224 943 4224 2141 
C 4224 3346 3411 4352 2368 4352 
L 333 4352 
z
M 1523 166 
C 1267 166 1254 197 1254 414 
L 1254 3938 
C 1254 4155 1267 4186 1523 4186 
L 2240 4186 
C 2771 4186 3750 3874 3750 2141 
C 3750 1242 3488 879 3366 707 
C 3213 510 2848 166 2240 166 
L 1523 166 
z
" transform="scale(0.015625)"/>
       <path id="CMR17-4b" d="M 2362 2675 
L 3469 3782 
C 3699 4006 3942 4186 4301 4186 
L 4301 4352 
C 4173 4352 4013 4352 3885 4352 
C 3712 4352 3411 4352 3245 4358 
L 3245 4192 
C 3411 4180 3437 4065 3437 4019 
C 3437 3975 3411 3905 3386 3867 
L 1261 1738 
L 1261 3900 
C 1261 4186 1331 4186 1773 4186 
L 1773 4352 
C 1587 4352 1248 4352 1050 4352 
C 851 4352 512 4352 326 4352 
L 326 4186 
C 768 4186 838 4186 838 3899 
L 838 446 
C 838 160 768 160 326 160 
L 326 0 
C 512 0 851 0 1050 0 
C 1248 0 1587 0 1773 0 
L 1773 160 
C 1331 160 1261 160 1261 447 
L 1261 1579 
L 2080 2390 
L 3290 537 
C 3328 473 3373 390 3373 326 
C 3373 160 3194 160 3110 160 
L 3110 0 
C 3315 0 3610 0 3821 0 
C 3974 0 4237 0 4384 -6 
L 4384 160 
C 4077 160 3981 198 3789 493 
L 2362 2675 
z
" transform="scale(0.015625)"/>
       <path id="CMR17-29" d="M 1683 1581 
C 1683 2040 1638 2817 1254 3639 
C 947 4303 422 4768 346 4768 
C 326 4768 301 4761 301 4729 
C 301 4717 307 4710 314 4697 
C 621 4378 1402 3568 1402 1584 
C 1402 -407 627 -1217 314 -1537 
C 307 -1549 301 -1556 301 -1568 
C 301 -1600 326 -1600 346 -1600 
C 416 -1600 960 -1128 1274 -426 
C 1594 281 1683 969 1683 1581 
z
" transform="scale(0.015625)"/>
      </defs>
      <use xlink:href="#CMR17-52" transform="scale(0.996264)"/>
      <use xlink:href="#CMR17-65" transform="translate(67.791102 0) scale(0.996264)"/>
      <use xlink:href="#CMR17-76" transform="translate(108.276762 0) scale(0.996264)"/>
      <use xlink:href="#CMR17-65" transform="translate(153.967224 0) scale(0.996264)"/>
      <use xlink:href="#CMR17-6e" transform="translate(194.452885 0) scale(0.996264)"/>
      <use xlink:href="#CMR17-75" transform="translate(242.745801 0) scale(0.996264)"/>
      <use xlink:href="#CMR17-65" transform="translate(293.64117 0) scale(0.996264)"/>
      <use xlink:href="#CMR17-28" transform="translate(364.202797 0) scale(0.996264)"/>
      <use xlink:href="#CMR17-6d" transform="translate(399.483565 0) scale(0.996264)"/>
      <use xlink:href="#CMR17-44" transform="translate(476.403155 0) scale(0.996264)"/>
      <use xlink:href="#CMR17-4b" transform="translate(546.796711 0) scale(0.996264)"/>
      <use xlink:href="#CMR17-4b" transform="translate(618.471488 0) scale(0.996264)"/>
      <use xlink:href="#CMR17-29" transform="translate(690.146265 0) scale(0.996264)"/>
     </g>
    </g>
   </g>
   <g id="matplotlib.axis_2">
    <g id="ytick_1">
     <g id="line2d_8">
      <path d="M 61.046592 612.203718 
L 1436.99976 612.203718 
" clip-path="url(#p1cb56855f5)" style="fill: none; stroke: #cccccc; stroke-opacity: 0.35; stroke-width: 0.8; stroke-linecap: round"/>
     </g>
     <g id="text_9">
      <!-- $\mathdefault{0.00}$ -->
      <g transform="translate(24.71287 619.122217) scale(0.2 -0.2)">
       <defs>
        <path id="CMMI12-3a" d="M 1178 307 
C 1178 492 1024 619 870 619 
C 685 619 557 466 557 313 
C 557 128 710 0 864 0 
C 1050 0 1178 153 1178 307 
z
" transform="scale(0.015625)"/>
       </defs>
       <use xlink:href="#CMR17-30" transform="scale(0.996264)"/>
       <use xlink:href="#CMMI12-3a" transform="translate(45.690477 0) scale(0.996264)"/>
       <use xlink:href="#CMR17-30" transform="translate(72.787654 0) scale(0.996264)"/>
       <use xlink:href="#CMR17-30" transform="translate(118.478131 0) scale(0.996264)"/>
      </g>
     </g>
    </g>
    <g id="ytick_2">
     <g id="line2d_9">
      <path d="M 61.046592 491.942967 
L 1436.99976 491.942967 
" clip-path="url(#p1cb56855f5)" style="fill: none; stroke: #cccccc; stroke-opacity: 0.35; stroke-width: 0.8; stroke-linecap: round"/>
     </g>
     <g id="text_10">
      <!-- $\mathdefault{0.02}$ -->
      <g transform="translate(24.71287 498.861466) scale(0.2 -0.2)">
       <use xlink:href="#CMR17-30" transform="scale(0.996264)"/>
       <use xlink:href="#CMMI12-3a" transform="translate(45.690477 0) scale(0.996264)"/>
       <use xlink:href="#CMR17-30" transform="translate(72.787654 0) scale(0.996264)"/>
       <use xlink:href="#CMR17-32" transform="translate(118.478131 0) scale(0.996264)"/>
      </g>
     </g>
    </g>
    <g id="ytick_3">
     <g id="line2d_10">
      <path d="M 61.046592 371.682216 
L 1436.99976 371.682216 
" clip-path="url(#p1cb56855f5)" style="fill: none; stroke: #cccccc; stroke-opacity: 0.35; stroke-width: 0.8; stroke-linecap: round"/>
     </g>
     <g id="text_11">
      <!-- $\mathdefault{0.04}$ -->
      <g transform="translate(24.71287 378.600714) scale(0.2 -0.2)">
       <use xlink:href="#CMR17-30" transform="scale(0.996264)"/>
       <use xlink:href="#CMMI12-3a" transform="translate(45.690477 0) scale(0.996264)"/>
       <use xlink:href="#CMR17-30" transform="translate(72.787654 0) scale(0.996264)"/>
       <use xlink:href="#CMR17-34" transform="translate(118.478131 0) scale(0.996264)"/>
      </g>
     </g>
    </g>
    <g id="ytick_4">
     <g id="line2d_11">
      <path d="M 61.046592 251.421465 
L 1436.99976 251.421465 
" clip-path="url(#p1cb56855f5)" style="fill: none; stroke: #cccccc; stroke-opacity: 0.35; stroke-width: 0.8; stroke-linecap: round"/>
     </g>
     <g id="text_12">
      <!-- $\mathdefault{0.06}$ -->
      <g transform="translate(24.71287 258.339963) scale(0.2 -0.2)">
       <defs>
        <path id="CMR17-36" d="M 678 2176 
C 678 3690 1395 4032 1811 4032 
C 1946 4032 2272 4009 2400 3776 
C 2298 3776 2106 3776 2106 3553 
C 2106 3381 2246 3323 2336 3323 
C 2394 3323 2566 3348 2566 3560 
C 2566 3954 2246 4179 1805 4179 
C 1043 4179 243 3390 243 1984 
C 243 253 966 -128 1478 -128 
C 2099 -128 2688 427 2688 1283 
C 2688 2081 2170 2662 1517 2662 
C 1126 2662 838 2407 678 1960 
L 678 2176 
z
M 1478 25 
C 691 25 691 1200 691 1436 
C 691 1896 909 2560 1504 2560 
C 1613 2560 1926 2560 2138 2120 
C 2253 1870 2253 1609 2253 1289 
C 2253 944 2253 690 2118 434 
C 1978 171 1773 25 1478 25 
z
" transform="scale(0.015625)"/>
       </defs>
       <use xlink:href="#CMR17-30" transform="scale(0.996264)"/>
       <use xlink:href="#CMMI12-3a" transform="translate(45.690477 0) scale(0.996264)"/>
       <use xlink:href="#CMR17-30" transform="translate(72.787654 0) scale(0.996264)"/>
       <use xlink:href="#CMR17-36" transform="translate(118.478131 0) scale(0.996264)"/>
      </g>
     </g>
    </g>
    <g id="ytick_5">
     <g id="line2d_12">
      <path d="M 61.046592 131.160714 
L 1436.99976 131.160714 
" clip-path="url(#p1cb56855f5)" style="fill: none; stroke: #cccccc; stroke-opacity: 0.35; stroke-width: 0.8; stroke-linecap: round"/>
     </g>
     <g id="text_13">
      <!-- $\mathdefault{0.08}$ -->
      <g transform="translate(24.71287 138.079212) scale(0.2 -0.2)">
       <defs>
        <path id="CMR17-38" d="M 1741 2264 
C 2144 2467 2554 2773 2554 3263 
C 2554 3841 1990 4179 1472 4179 
C 890 4179 378 3759 378 3180 
C 378 3021 416 2747 666 2505 
C 730 2442 998 2251 1171 2130 
C 883 1983 211 1634 211 934 
C 211 279 838 -128 1459 -128 
C 2144 -128 2720 362 2720 1010 
C 2720 1590 2330 1857 2074 2029 
L 1741 2264 
z
M 902 2822 
C 851 2854 595 3051 595 3351 
C 595 3739 998 4032 1459 4032 
C 1965 4032 2336 3676 2336 3262 
C 2336 2669 1670 2331 1638 2331 
C 1632 2331 1626 2331 1574 2370 
L 902 2822 
z
M 2080 1519 
C 2176 1449 2483 1240 2483 851 
C 2483 381 2010 25 1472 25 
C 890 25 448 438 448 940 
C 448 1443 838 1862 1280 2060 
L 2080 1519 
z
" transform="scale(0.015625)"/>
       </defs>
       <use xlink:href="#CMR17-30" transform="scale(0.996264)"/>
       <use xlink:href="#CMMI12-3a" transform="translate(45.690477 0) scale(0.996264)"/>
       <use xlink:href="#CMR17-30" transform="translate(72.787654 0) scale(0.996264)"/>
       <use xlink:href="#CMR17-38" transform="translate(118.478131 0) scale(0.996264)"/>
      </g>
     </g>
    </g>
    <g id="ytick_6">
     <g id="line2d_13">
      <path d="M 61.046592 10.899963 
L 1436.99976 10.899963 
" clip-path="url(#p1cb56855f5)" style="fill: none; stroke: #cccccc; stroke-opacity: 0.35; stroke-width: 0.8; stroke-linecap: round"/>
     </g>
     <g id="text_14">
      <!-- $\mathdefault{0.10}$ -->
      <g transform="translate(24.71287 17.818461) scale(0.2 -0.2)">
       <use xlink:href="#CMR17-30" transform="scale(0.996264)"/>
       <use xlink:href="#CMMI12-3a" transform="translate(45.690477 0) scale(0.996264)"/>
       <use xlink:href="#CMR17-31" transform="translate(72.787654 0) scale(0.996264)"/>
       <use xlink:href="#CMR17-30" transform="translate(118.478131 0) scale(0.996264)"/>
      </g>
     </g>
    </g>
    <g id="text_15">
     <!-- Density -->
     <g style="fill: #696969" transform="translate(16.837237 337.943779) rotate(-90) scale(0.2 -0.2)">
      <defs>
       <path id="CMR17-73" d="M 1978 2697 
C 1978 2813 1971 2819 1933 2819 
C 1907 2819 1901 2813 1824 2717 
C 1805 2691 1747 2626 1728 2601 
C 1523 2819 1235 2819 1126 2819 
C 416 2819 160 2447 160 2076 
C 160 1498 813 1365 998 1325 
C 1402 1243 1542 1217 1677 1101 
C 1760 1025 1901 884 1901 654 
C 1901 384 1747 38 1158 38 
C 602 38 403 460 288 1021 
C 269 1110 269 1117 218 1117 
C 166 1117 160 1110 160 983 
L 160 63 
C 160 -51 166 -58 205 -58 
C 237 -58 243 -51 275 0 
C 314 57 410 211 448 276 
C 576 103 800 -64 1158 -64 
C 1792 -64 2131 283 2131 784 
C 2131 1112 1958 1285 1875 1362 
C 1683 1561 1459 1606 1190 1657 
C 838 1735 390 1825 390 2217 
C 390 2383 480 2737 1126 2737 
C 1811 2737 1850 2094 1862 1888 
C 1869 1856 1901 1849 1920 1849 
C 1978 1849 1978 1869 1978 1978 
L 1978 2697 
z
" transform="scale(0.015625)"/>
       <path id="CMR17-69" d="M 992 3909 
C 992 4049 877 4170 730 4170 
C 589 4170 467 4056 467 3909 
C 467 3769 582 3648 730 3648 
C 870 3648 992 3763 992 3909 
z
M 243 2706 
L 243 2541 
C 602 2541 653 2502 653 2197 
L 653 427 
C 653 184 627 153 218 153 
L 218 -13 
C 371 0 646 0 806 0 
C 960 0 1222 0 1370 -13 
L 1370 153 
C 992 153 979 191 979 420 
L 979 2776 
L 243 2706 
z
" transform="scale(0.015625)"/>
       <path id="CMR17-74" d="M 966 2560 
L 1862 2560 
L 1862 2725 
L 966 2725 
L 966 3904 
L 851 3904 
C 838 3245 614 2668 70 2668 
L 70 2560 
L 627 2560 
L 627 771 
C 627 650 627 -64 1370 -64 
C 1747 -64 1965 306 1965 777 
L 1965 1140 
L 1850 1140 
L 1850 783 
C 1850 344 1677 51 1408 51 
C 1222 51 966 178 966 758 
L 966 2560 
z
" transform="scale(0.015625)"/>
       <path id="CMR17-79" d="M 2496 2197 
C 2656 2586 2944 2586 3034 2586 
L 3034 2752 
C 2912 2752 2752 2752 2630 2752 
C 2496 2752 2285 2752 2157 2758 
L 2157 2592 
C 2400 2573 2406 2394 2406 2343 
C 2406 2280 2394 2248 2362 2171 
L 1664 449 
L 902 2306 
C 870 2382 870 2426 870 2433 
C 870 2573 1018 2586 1171 2586 
L 1171 2758 
C 1018 2752 742 2752 582 2752 
C 410 2752 205 2752 64 2758 
L 64 2586 
C 410 2586 448 2554 531 2350 
L 1485 15 
C 1197 -738 1030 -1178 627 -1178 
C 557 -1178 397 -1159 282 -1044 
C 429 -1031 493 -942 493 -833 
C 493 -725 416 -629 288 -629 
C 147 -629 77 -725 77 -840 
C 77 -1095 339 -1280 627 -1280 
C 998 -1280 1229 -922 1357 -604 
L 2496 2197 
z
" transform="scale(0.015625)"/>
      </defs>
      <use xlink:href="#CMR17-44" transform="scale(0.996264)"/>
      <use xlink:href="#CMR17-65" transform="translate(70.393556 0) scale(0.996264)"/>
      <use xlink:href="#CMR17-6e" transform="translate(110.879216 0) scale(0.996264)"/>
      <use xlink:href="#CMR17-73" transform="translate(161.774586 0) scale(0.996264)"/>
      <use xlink:href="#CMR17-69" transform="translate(197.575924 0) scale(0.996264)"/>
      <use xlink:href="#CMR17-74" transform="translate(222.446982 0) scale(0.996264)"/>
      <use xlink:href="#CMR17-79" transform="translate(255.125296 0) scale(0.996264)"/>
     </g>
    </g>
   </g>
   <g id="line2d_14">
    <path d="M 170.36516 609.419571 
L 177.288841 607.298981 
L 184.212523 603.84863 
L 191.136204 598.439182 
L 198.059886 590.269597 
L 204.983567 578.38856 
L 211.907248 561.756979 
L 218.83093 539.358745 
L 225.754611 510.357523 
L 232.678293 474.284013 
L 239.601974 431.223837 
L 246.525656 381.965389 
L 253.449337 328.064399 
L 267.2967 215.946768 
L 274.220382 163.565737 
L 281.144063 117.547687 
L 288.067745 80.28708 
L 294.991426 53.371439 
L 301.915108 37.407968 
L 308.838789 32.009929 
L 315.762471 35.938795 
L 322.686152 47.365097 
L 329.609834 64.188931 
L 336.533515 84.354924 
L 357.304559 149.661482 
L 364.228241 170.335234 
L 371.151922 190.176786 
L 384.999285 228.316599 
L 412.694011 303.396503 
L 419.617693 321.497092 
L 426.541374 338.765061 
L 433.465056 354.890816 
L 440.388737 369.63898 
L 447.312419 382.884271 
L 454.2361 394.624878 
L 461.159782 404.97271 
L 468.083463 414.124162 
L 475.007145 422.318653 
L 481.930826 429.794353 
L 488.854507 436.750596 
L 495.778189 443.32436 
L 502.70187 449.584394 
L 509.625552 455.542051 
L 516.549233 461.173943 
L 523.472915 466.449207 
L 530.396596 471.353913 
L 537.320278 475.906902 
L 544.243959 480.164317 
L 558.091322 488.159284 
L 571.938685 496.154894 
L 578.862367 500.371904 
L 585.786048 504.808711 
L 592.70973 509.493106 
L 599.633411 514.435572 
L 606.557093 519.632416 
L 613.480774 525.065785 
L 620.404456 530.70039 
L 648.099181 553.732663 
L 655.022863 559.057553 
L 661.946544 563.971228 
L 668.870226 568.388684 
L 675.793907 572.26406 
L 682.717589 575.592895 
L 689.64127 578.405697 
L 696.564952 580.754693 
L 703.488633 582.697425 
L 710.412315 584.281441 
L 717.335996 585.533738 
L 724.259678 586.457025 
L 731.183359 587.033033 
L 738.107041 587.231464 
L 745.030722 587.022133 
L 751.954404 586.387538 
L 758.878085 585.333335 
L 765.801766 583.894848 
L 772.725448 582.138595 
L 786.572811 578.06923 
L 793.496492 575.993151 
L 800.420174 574.051033 
L 807.343855 572.350046 
L 814.267537 570.975447 
L 821.191218 569.985078 
L 828.1149 569.407027 
L 835.038581 569.240112 
L 841.962263 569.456698 
L 848.885944 570.007456 
L 855.809626 570.827843 
L 862.733307 571.846097 
L 876.58067 574.206993 
L 904.275396 579.254646 
L 918.122759 582.024248 
L 931.970122 585.095413 
L 952.741166 589.789424 
L 959.664848 591.193908 
L 966.588529 592.468104 
L 980.435892 594.663458 
L 1001.206937 597.665592 
L 1015.0543 599.88943 
L 1028.901663 602.182149 
L 1035.825344 603.191367 
L 1042.749026 603.988307 
L 1049.672707 604.480005 
L 1056.596388 604.586273 
L 1063.52007 604.251094 
L 1070.443751 603.452028 
L 1077.367433 602.206575 
L 1084.291114 600.57453 
L 1091.214796 598.655529 
L 1105.062159 594.503707 
L 1111.98584 592.577547 
L 1118.909522 590.944042 
L 1125.833203 589.713956 
L 1132.756885 588.955348 
L 1139.680566 588.68733 
L 1146.604248 588.880962 
L 1153.527929 589.466951 
L 1160.451611 590.348621 
L 1174.298974 592.571001 
L 1188.146337 594.817993 
L 1201.993699 596.768757 
L 1222.764744 599.491466 
L 1236.612107 601.614903 
L 1250.45947 604.06195 
L 1264.306833 606.558941 
L 1271.230514 607.704723 
L 1278.154196 608.726922 
L 1285.077877 609.600431 
L 1292.001559 610.315224 
L 1298.92524 610.874643 
L 1305.848922 611.291688 
L 1319.696285 611.771225 
L 1333.543647 611.881713 
L 1347.39101 611.663794 
L 1354.314692 611.41276 
L 1361.238373 611.046381 
L 1368.162055 610.5483 
L 1375.085736 609.907272 
L 1382.009418 609.122722 
L 1395.856781 607.203283 
L 1409.704144 605.143327 
L 1416.627825 604.241962 
L 1423.551507 603.533474 
L 1430.475188 603.085806 
L 1437.39887 602.943933 
L 1441 603.03677 
L 1441 603.03677 
" clip-path="url(#p1cb56855f5)" style="fill: none; stroke: #006e64; stroke-width: 1.5; stroke-linecap: round"/>
   </g>
   <g id="line2d_15">
    <path d="M 143.838622 609.698908 
L 157.414421 606.155076 
L 170.990219 598.771787 
L 184.566017 584.755328 
L 198.141816 560.541507 
L 211.717614 522.545094 
L 225.293412 468.522609 
L 238.869211 399.189605 
L 252.445009 319.330856 
L 266.020808 237.577054 
L 279.596606 164.520626 
L 293.172404 109.734785 
L 306.748203 78.981517 
L 320.324001 72.890021 
L 333.899799 87.59371 
L 347.475598 116.763438 
L 361.051396 153.876006 
L 374.627194 193.73063 
L 388.202993 232.905002 
L 401.778791 269.472117 
L 415.354589 302.50594 
L 428.930388 331.716771 
L 442.506186 357.262424 
L 456.081984 379.62663 
L 469.657783 399.480116 
L 483.233581 417.526863 
L 496.809379 434.377762 
L 510.385178 450.47379 
L 523.960976 466.052425 
L 537.536774 481.149097 
L 551.112573 495.636651 
L 564.688371 509.302256 
L 578.264169 521.940021 
L 591.839968 533.420937 
L 605.415766 543.709037 
L 618.991564 552.821607 
L 632.567363 560.762674 
L 646.143161 567.473338 
L 659.718959 572.831476 
L 673.294758 576.704097 
L 686.870556 579.025406 
L 700.446354 579.860035 
L 714.022153 579.419992 
L 727.597951 578.028082 
L 741.173749 576.046197 
L 768.325346 571.545114 
L 781.901144 569.447344 
L 795.476943 567.631927 
L 809.052741 566.205616 
L 822.628539 565.269418 
L 836.204338 564.90928 
L 849.780136 565.187767 
L 863.355934 566.155487 
L 876.931733 567.876229 
L 890.507531 570.435112 
L 904.083329 573.900865 
L 917.659128 578.246956 
L 931.234926 583.277303 
L 944.810725 588.614563 
L 958.386523 593.776731 
L 971.962321 598.311928 
L 985.53812 601.923413 
L 999.113918 604.524143 
L 1012.689716 606.204259 
L 1026.265515 607.142874 
L 1039.841313 607.518203 
L 1053.417111 607.459908 
L 1066.99291 607.056661 
L 1080.568708 606.399062 
L 1107.720305 604.892547 
L 1121.296103 604.391894 
L 1134.871901 604.219202 
L 1148.4477 604.357115 
L 1175.599296 604.996157 
L 1189.175095 605.175245 
L 1202.750893 605.168766 
L 1229.90249 604.924742 
L 1243.478288 604.960083 
L 1257.054086 605.238745 
L 1270.629885 605.776314 
L 1297.781481 607.336865 
L 1311.35728 608.11669 
L 1324.933078 608.735838 
L 1338.508876 609.116556 
L 1352.084675 609.232726 
L 1365.660473 609.111371 
L 1419.963666 608.003543 
L 1441 608.078145 
L 1441 608.078145 
" clip-path="url(#p1cb56855f5)" style="fill: none; stroke: #734848; stroke-width: 1.5; stroke-linecap: round"/>
   </g>
   <g id="line2d_16">
    <path d="M 88.049188 611.187963 
L 117.646515 607.474785 
L 147.243842 594.793332 
L 176.841169 561.337826 
L 206.438495 493.667641 
L 236.035822 390.152208 
L 265.633149 273.856948 
L 295.230476 185.368212 
L 324.827803 154.914811 
L 354.42513 181.914517 
L 384.022457 242.351781 
L 413.619784 310.087764 
L 443.217111 369.345496 
L 472.814437 414.974602 
L 502.411764 448.595222 
L 532.009091 474.788313 
L 561.606418 497.714259 
L 591.203745 519.116976 
L 620.801072 538.452593 
L 650.398399 554.164013 
L 679.995726 564.801744 
L 709.593053 569.798676 
L 739.19038 569.981528 
L 768.787706 567.39816 
L 798.385033 564.402903 
L 827.98236 562.75635 
L 857.579687 563.393231 
L 887.177014 566.70956 
L 916.774341 572.695958 
L 946.371668 580.62557 
L 975.968995 588.935615 
L 1005.566322 595.907729 
L 1035.163648 600.588446 
L 1064.760975 603.042914 
L 1094.358302 603.959693 
L 1123.955629 604.152194 
L 1153.552956 604.226197 
L 1183.150283 604.498751 
L 1212.74761 605.12367 
L 1242.344937 606.13756 
L 1271.942264 607.334755 
L 1301.53959 608.270858 
L 1331.136917 608.537362 
L 1360.734244 608.074613 
L 1390.331571 607.271233 
L 1419.928898 606.738805 
L 1441 606.818441 
L 1441 606.818441 
" clip-path="url(#p1cb56855f5)" style="fill: none; stroke: #004e4a; stroke-width: 1.5; stroke-linecap: round"/>
   </g>
   <g id="line2d_17">
    <path d="M 132.522072 609.781613 
L 146.746598 606.51234 
L 160.971125 599.842205 
L 175.195651 587.37132 
L 189.420178 566.030563 
L 203.644704 532.660305 
L 217.86923 485.087847 
L 232.093757 423.461976 
L 246.318283 351.285946 
L 260.54281 275.486124 
L 274.767336 205.152299 
L 288.991863 149.22493 
L 303.216389 114.025471 
L 317.440916 101.694968 
L 331.665442 110.161132 
L 345.889968 134.466832 
L 360.114495 168.673294 
L 374.339021 207.456488 
L 388.563548 246.904174 
L 402.788074 284.550133 
L 417.012601 319.007437 
L 431.237127 349.57202 
L 445.461654 375.980895 
L 459.68618 398.317439 
L 473.910707 416.971444 
L 488.135233 432.579838 
L 502.359759 445.929446 
L 516.584286 457.840693 
L 559.257865 491.480499 
L 573.482392 503.128534 
L 601.931445 526.65219 
L 616.155971 537.813963 
L 630.380497 548.042217 
L 644.605024 556.993633 
L 658.82955 564.406376 
L 673.054077 570.105874 
L 687.278603 574.01291 
L 701.50313 576.163034 
L 715.727656 576.725691 
L 729.952183 576.000786 
L 744.176709 574.380042 
L 786.850288 568.114968 
L 801.074815 566.561877 
L 815.299341 565.557239 
L 829.523868 565.151054 
L 843.748394 565.345327 
L 857.972921 566.130159 
L 872.197447 567.519638 
L 886.421973 569.566461 
L 900.6465 572.338062 
L 914.871026 575.857643 
L 929.095553 580.038534 
L 957.544606 589.345703 
L 971.769132 593.731872 
L 985.993659 597.471274 
L 1000.218185 600.352556 
L 1014.442712 602.317141 
L 1028.667238 603.438776 
L 1042.891764 603.877571 
L 1057.116291 603.8333 
L 1099.78987 602.78721 
L 1114.014397 602.669489 
L 1128.238923 602.812259 
L 1142.46345 603.200674 
L 1170.912502 604.394571 
L 1213.586082 606.167001 
L 1256.259661 607.966445 
L 1284.708714 609.097455 
L 1298.93324 609.472222 
L 1313.157767 609.648849 
L 1327.382293 609.59803 
L 1341.60682 609.312937 
L 1355.831346 608.813317 
L 1412.729452 606.238051 
L 1426.953979 606.017374 
L 1441 606.116085 
L 1441 606.116085 
" clip-path="url(#p1cb56855f5)" style="fill: none; stroke: #c17150; stroke-width: 1.5; stroke-linecap: round"/>
   </g>
   <g id="patch_3">
    <path d="M 61.046592 612.203718 
L 61.046592 3.00024 
" style="fill: none; stroke: #808080; stroke-width: 0.8; stroke-linejoin: miter; stroke-linecap: square"/>
   </g>
   <g id="patch_4">
    <path d="M 61.046592 612.203718 
L 1436.99976 612.203718 
" style="fill: none; stroke: #808080; stroke-width: 0.8; stroke-linejoin: miter; stroke-linecap: square"/>
   </g>
   <g id="legend_1">
    <g id="patch_5">
     <path d="M 224.731514 716.9997 
L 1273.314838 716.9997 
Q 1277.314838 716.9997 1277.314838 712.9997 
L 1277.314838 687.124066 
Q 1277.314838 683.124066 1273.314838 683.124066 
L 224.731514 683.124066 
Q 220.731514 683.124066 220.731514 687.124066 
L 220.731514 712.9997 
Q 220.731514 716.9997 224.731514 716.9997 
z
" style="fill: #ffffff; opacity: 0.8"/>
    </g>
    <g id="line2d_18">
     <path d="M 228.731514 698.124066 
L 248.731514 698.124066 
L 268.731514 698.124066 
" style="fill: none; stroke: #006e64; stroke-width: 1.5; stroke-linecap: round"/>
    </g>
    <g id="text_16">
     <!-- budget revenue -->
     <g style="fill: #262626" transform="translate(284.731514 705.124066) scale(0.2 -0.2)">
      <defs>
       <path id="CMR17-62" d="M 960 4396 
L 198 4326 
L 198 4160 
C 576 4160 634 4122 634 3817 
L 634 -13 
L 749 -13 
L 934 441 
C 1120 141 1395 -64 1766 -64 
C 2406 -64 3053 500 3053 1370 
C 3053 2188 2477 2790 1830 2790 
C 1434 2790 1152 2579 960 2330 
L 960 4396 
z
M 973 2004 
C 973 2118 973 2138 1062 2272 
C 1312 2657 1670 2688 1792 2688 
C 1984 2688 2643 2585 2643 1376 
C 2643 108 1888 38 1734 38 
C 1536 38 1248 114 1043 486 
C 973 608 973 621 973 735 
L 973 2004 
z
" transform="scale(0.015625)"/>
       <path id="CMR17-64" d="M 1869 4326 
L 1869 4160 
C 2246 4160 2304 4122 2304 3820 
L 2304 2345 
C 2278 2377 2016 2790 1498 2790 
C 845 2790 211 2208 211 1364 
C 211 525 806 -64 1434 -64 
C 1978 -64 2259 337 2291 380 
L 2291 -63 
L 3066 -63 
L 3066 128 
C 2688 128 2630 166 2630 473 
L 2630 4396 
L 1869 4326 
z
M 2291 755 
C 2291 563 2176 390 2029 262 
C 1811 70 1594 38 1472 38 
C 1286 38 621 134 621 1356 
C 621 2612 1363 2688 1530 2688 
C 1824 2688 2061 2522 2208 2291 
C 2291 2157 2291 2138 2291 2023 
L 2291 755 
z
" transform="scale(0.015625)"/>
       <path id="CMR17-67" d="M 710 1164 
C 832 1068 1043 960 1299 960 
C 1805 960 2240 1357 2240 1888 
C 2240 2054 2189 2310 1997 2509 
C 2176 2692 2438 2752 2586 2752 
C 2611 2752 2650 2752 2682 2734 
C 2656 2728 2598 2703 2598 2605 
C 2598 2527 2656 2471 2739 2471 
C 2835 2471 2886 2533 2886 2614 
C 2886 2731 2790 2854 2586 2854 
C 2330 2854 2106 2738 1926 2580 
C 1734 2753 1504 2816 1299 2816 
C 794 2816 358 2419 358 1888 
C 358 1522 570 1292 634 1228 
C 442 1004 442 743 442 711 
C 442 545 506 302 723 168 
C 390 85 128 -169 128 -486 
C 128 -943 736 -1280 1466 -1280 
C 2170 -1280 2803 -956 2803 -479 
C 2803 384 1856 384 1363 384 
C 1216 384 954 384 922 391 
C 723 423 589 602 589 826 
C 589 883 589 1024 710 1164 
z
M 1299 1068 
C 736 1068 736 1760 736 1889 
C 736 2016 736 2708 1299 2708 
C 1862 2708 1862 2016 1862 1889 
C 1862 1760 1862 1068 1299 1068 
z
M 1466 -1171 
C 826 -1171 384 -835 384 -486 
C 384 -289 493 -105 634 -4 
C 794 104 858 104 1293 104 
C 1818 104 2547 104 2547 -486 
C 2547 -835 2106 -1171 1466 -1171 
z
" transform="scale(0.015625)"/>
       <path id="CMR17-72" d="M 960 1497 
C 960 2112 1222 2688 1702 2688 
C 1747 2688 1792 2682 1837 2662 
C 1837 2662 1696 2617 1696 2452 
C 1696 2298 1818 2234 1914 2234 
C 1990 2234 2131 2279 2131 2458 
C 2131 2663 1926 2790 1709 2790 
C 1222 2790 1011 2317 947 2093 
L 941 2093 
L 941 2790 
L 198 2720 
L 198 2554 
C 576 2554 634 2515 634 2208 
L 634 428 
C 634 184 608 153 198 153 
L 198 -13 
C 352 0 646 0 813 0 
C 998 0 1325 0 1498 -13 
L 1498 153 
C 1037 153 960 153 960 440 
L 960 1497 
z
" transform="scale(0.015625)"/>
      </defs>
      <use xlink:href="#CMR17-62" transform="scale(0.996264)"/>
      <use xlink:href="#CMR17-75" transform="translate(50.89537 0) scale(0.996264)"/>
      <use xlink:href="#CMR17-64" transform="translate(101.79074 0) scale(0.996264)"/>
      <use xlink:href="#CMR17-67" transform="translate(152.686109 0) scale(0.996264)"/>
      <use xlink:href="#CMR17-65" transform="translate(198.376586 0) scale(0.996264)"/>
      <use xlink:href="#CMR17-74" transform="translate(238.862247 0) scale(0.996264)"/>
      <use xlink:href="#CMR17-72" transform="translate(304.218981 0) scale(0.996264)"/>
      <use xlink:href="#CMR17-65" transform="translate(339.499749 0) scale(0.996264)"/>
      <use xlink:href="#CMR17-76" transform="translate(379.985409 0) scale(0.996264)"/>
      <use xlink:href="#CMR17-65" transform="translate(425.675871 0) scale(0.996264)"/>
      <use xlink:href="#CMR17-6e" transform="translate(466.161532 0) scale(0.996264)"/>
      <use xlink:href="#CMR17-75" transform="translate(514.454448 0) scale(0.996264)"/>
      <use xlink:href="#CMR17-65" transform="translate(565.349817 0) scale(0.996264)"/>
     </g>
    </g>
    <g id="line2d_19">
     <path d="M 445.898522 698.124066 
L 465.898522 698.124066 
L 485.898522 698.124066 
" style="fill: none; stroke: #734848; stroke-width: 1.5; stroke-linecap: round"/>
    </g>
    <g id="text_17">
     <!-- sales estimate revenue -->
     <g style="fill: #262626" transform="translate(501.898522 705.124066) scale(0.2 -0.2)">
      <defs>
       <path id="CMR17-61" d="M 2304 1653 
C 2304 2072 2304 2294 2035 2543 
C 1798 2752 1523 2816 1306 2816 
C 800 2816 435 2407 435 1971 
C 435 1728 627 1728 666 1728 
C 749 1728 896 1778 896 1954 
C 896 2112 774 2181 666 2181 
C 640 2181 608 2174 589 2168 
C 723 2592 1069 2714 1293 2714 
C 1613 2714 1965 2429 1965 1885 
L 1965 1600 
C 1587 1600 1133 1549 774 1357 
C 371 1133 256 813 256 570 
C 256 77 832 -64 1171 -64 
C 1523 -64 1850 139 1990 511 
C 2003 233 2182 -18 2464 -18 
C 2598 -18 2938 70 2938 567 
L 2938 920 
L 2822 920 
L 2822 562 
C 2822 178 2650 128 2566 128 
C 2304 128 2304 458 2304 738 
L 2304 1653 
z
M 1965 870 
C 1965 317 1568 38 1216 38 
C 896 38 646 275 646 570 
C 646 761 730 1100 1101 1305 
C 1408 1478 1760 1504 1965 1504 
L 1965 870 
z
" transform="scale(0.015625)"/>
       <path id="CMR17-6c" d="M 979 4396 
L 218 4326 
L 218 4160 
C 595 4160 653 4122 653 3817 
L 653 426 
C 653 184 627 153 218 153 
L 218 -13 
C 371 0 653 0 813 0 
C 979 0 1261 0 1414 -13 
L 1414 153 
C 1005 153 979 178 979 426 
L 979 4396 
z
" transform="scale(0.015625)"/>
      </defs>
      <use xlink:href="#CMR17-73" transform="scale(0.996264)"/>
      <use xlink:href="#CMR17-61" transform="translate(35.801338 0) scale(0.996264)"/>
      <use xlink:href="#CMR17-6c" transform="translate(81.491815 0) scale(0.996264)"/>
      <use xlink:href="#CMR17-65" transform="translate(106.362873 0) scale(0.996264)"/>
      <use xlink:href="#CMR17-73" transform="translate(146.848534 0) scale(0.996264)"/>
      <use xlink:href="#CMR17-65" transform="translate(212.725838 0) scale(0.996264)"/>
      <use xlink:href="#CMR17-73" transform="translate(253.211498 0) scale(0.996264)"/>
      <use xlink:href="#CMR17-74" transform="translate(289.012836 0) scale(0.996264)"/>
      <use xlink:href="#CMR17-69" transform="translate(324.293604 0) scale(0.996264)"/>
      <use xlink:href="#CMR17-6d" transform="translate(349.164662 0) scale(0.996264)"/>
      <use xlink:href="#CMR17-61" transform="translate(426.084252 0) scale(0.996264)"/>
      <use xlink:href="#CMR17-74" transform="translate(471.774729 0) scale(0.996264)"/>
      <use xlink:href="#CMR17-65" transform="translate(507.055497 0) scale(0.996264)"/>
      <use xlink:href="#CMR17-72" transform="translate(577.617124 0) scale(0.996264)"/>
      <use xlink:href="#CMR17-65" transform="translate(612.897891 0) scale(0.996264)"/>
      <use xlink:href="#CMR17-76" transform="translate(653.383552 0) scale(0.996264)"/>
      <use xlink:href="#CMR17-65" transform="translate(699.074014 0) scale(0.996264)"/>
      <use xlink:href="#CMR17-6e" transform="translate(739.559674 0) scale(0.996264)"/>
      <use xlink:href="#CMR17-75" transform="translate(787.85259 0) scale(0.996264)"/>
      <use xlink:href="#CMR17-65" transform="translate(838.74796 0) scale(0.996264)"/>
     </g>
    </g>
    <g id="line2d_20">
     <path d="M 717.745139 698.124066 
L 737.745139 698.124066 
L 757.745139 698.124066 
" style="fill: none; stroke: #004e4a; stroke-width: 1.5; stroke-linecap: round"/>
    </g>
    <g id="text_18">
     <!-- production estimate revenue -->
     <g style="fill: #262626" transform="translate(773.745139 705.124066) scale(0.2 -0.2)">
      <defs>
       <path id="CMR17-70" d="M 1408 -1063 
C 998 -1063 973 -1037 973 -789 
L 973 402 
C 1158 134 1427 -38 1766 -38 
C 2406 -38 3053 523 3053 1388 
C 3053 2191 2496 2802 1837 2802 
C 1453 2802 1139 2592 960 2338 
L 960 2802 
L 198 2732 
L 198 2567 
C 576 2567 634 2528 634 2223 
L 634 -789 
C 634 -1031 608 -1063 198 -1063 
L 198 -1228 
C 352 -1216 634 -1216 800 -1216 
C 966 -1216 1254 -1216 1408 -1228 
L 1408 -1063 
z
M 973 2012 
C 973 2102 973 2235 1222 2471 
C 1254 2497 1472 2688 1792 2688 
C 2259 2688 2643 2108 2643 1382 
C 2643 656 2234 64 1728 64 
C 1498 64 1248 172 1056 472 
C 973 612 973 650 973 752 
L 973 2012 
z
" transform="scale(0.015625)"/>
       <path id="CMR17-6f" d="M 2758 1356 
C 2758 2176 2163 2816 1466 2816 
C 768 2816 173 2176 173 1356 
C 173 551 768 -64 1466 -64 
C 2163 -64 2758 551 2758 1356 
z
M 1466 51 
C 1165 51 909 230 762 480 
C 602 767 582 1126 582 1408 
C 582 1677 595 2010 762 2298 
C 890 2509 1139 2714 1466 2714 
C 1754 2714 1997 2554 2150 2330 
C 2349 2029 2349 1607 2349 1408 
C 2349 1158 2336 775 2163 467 
C 1984 173 1709 51 1466 51 
z
" transform="scale(0.015625)"/>
       <path id="CMR17-63" d="M 2234 2240 
C 2112 2240 1933 2240 1933 2017 
C 1933 1838 2080 1787 2163 1787 
C 2208 1787 2394 1807 2394 2024 
C 2394 2467 1958 2803 1466 2803 
C 787 2803 211 2178 211 1363 
C 211 516 813 -64 1466 -64 
C 2259 -64 2458 677 2458 748 
C 2458 774 2451 793 2406 793 
C 2362 793 2355 787 2330 703 
C 2163 180 1798 51 1523 51 
C 1114 51 621 427 621 1369 
C 621 2338 1094 2688 1472 2688 
C 1722 2688 2093 2573 2234 2240 
z
" transform="scale(0.015625)"/>
      </defs>
      <use xlink:href="#CMR17-70" transform="scale(0.996264)"/>
      <use xlink:href="#CMR17-72" transform="translate(50.89537 0) scale(0.996264)"/>
      <use xlink:href="#CMR17-6f" transform="translate(86.176138 0) scale(0.996264)"/>
      <use xlink:href="#CMR17-64" transform="translate(134.469053 0) scale(0.996264)"/>
      <use xlink:href="#CMR17-75" transform="translate(185.364423 0) scale(0.996264)"/>
      <use xlink:href="#CMR17-63" transform="translate(236.259793 0) scale(0.996264)"/>
      <use xlink:href="#CMR17-74" transform="translate(276.745453 0) scale(0.996264)"/>
      <use xlink:href="#CMR17-69" transform="translate(312.026221 0) scale(0.996264)"/>
      <use xlink:href="#CMR17-6f" transform="translate(336.89728 0) scale(0.996264)"/>
      <use xlink:href="#CMR17-6e" transform="translate(382.587757 0) scale(0.996264)"/>
      <use xlink:href="#CMR17-65" transform="translate(463.559093 0) scale(0.996264)"/>
      <use xlink:href="#CMR17-73" transform="translate(504.044753 0) scale(0.996264)"/>
      <use xlink:href="#CMR17-74" transform="translate(539.846091 0) scale(0.996264)"/>
      <use xlink:href="#CMR17-69" transform="translate(575.126859 0) scale(0.996264)"/>
      <use xlink:href="#CMR17-6d" transform="translate(599.997917 0) scale(0.996264)"/>
      <use xlink:href="#CMR17-61" transform="translate(676.917507 0) scale(0.996264)"/>
      <use xlink:href="#CMR17-74" transform="translate(722.607984 0) scale(0.996264)"/>
      <use xlink:href="#CMR17-65" transform="translate(757.888752 0) scale(0.996264)"/>
      <use xlink:href="#CMR17-72" transform="translate(828.450379 0) scale(0.996264)"/>
      <use xlink:href="#CMR17-65" transform="translate(863.731147 0) scale(0.996264)"/>
      <use xlink:href="#CMR17-76" transform="translate(904.216807 0) scale(0.996264)"/>
      <use xlink:href="#CMR17-65" transform="translate(949.907269 0) scale(0.996264)"/>
      <use xlink:href="#CMR17-6e" transform="translate(990.39293 0) scale(0.996264)"/>
      <use xlink:href="#CMR17-75" transform="translate(1038.685845 0) scale(0.996264)"/>
      <use xlink:href="#CMR17-65" transform="translate(1089.581215 0) scale(0.996264)"/>
     </g>
    </g>
    <g id="line2d_21">
     <path d="M 1039.758369 698.124066 
L 1059.758369 698.124066 
L 1079.758369 698.124066 
" style="fill: none; stroke: #c17150; stroke-width: 1.5; stroke-linecap: round"/>
    </g>
    <g id="text_19">
     <!-- final estimate revenue -->
     <g style="fill: #262626" transform="translate(1095.758369 705.124066) scale(0.2 -0.2)">
      <defs>
       <path id="CMR17-c" d="M 2554 2764 
C 2400 2764 1926 2764 1805 2739 
C 1766 2725 1754 2725 1677 2725 
L 947 2725 
L 947 3469 
C 947 4073 1434 4352 1818 4352 
C 1939 4352 2214 4320 2355 4101 
C 2291 4101 2086 4101 2086 3878 
C 2086 3725 2189 3648 2317 3648 
C 2432 3648 2547 3712 2547 3885 
C 2547 4205 2240 4454 1843 4454 
C 1338 4454 634 4168 634 3469 
L 634 2725 
L 122 2725 
L 122 2560 
L 634 2560 
L 634 427 
C 634 184 608 153 198 153 
L 198 -13 
C 352 0 634 0 794 0 
C 960 0 1242 0 1395 -13 
L 1395 153 
C 986 153 960 178 960 427 
L 960 2560 
L 1901 2560 
C 2176 2560 2227 2502 2227 2222 
L 2227 427 
C 2227 184 2202 153 1792 153 
L 1792 -13 
C 1946 0 2227 0 2387 0 
C 2554 0 2835 0 2989 -13 
L 2989 153 
C 2579 153 2554 178 2554 427 
L 2554 2764 
z
" transform="scale(0.015625)"/>
      </defs>
      <use xlink:href="#CMR17-c" transform="scale(0.996264)"/>
      <use xlink:href="#CMR17-6e" transform="translate(49.742223 0) scale(0.996264)"/>
      <use xlink:href="#CMR17-61" transform="translate(100.637593 0) scale(0.996264)"/>
      <use xlink:href="#CMR17-6c" transform="translate(146.32807 0) scale(0.996264)"/>
      <use xlink:href="#CMR17-65" transform="translate(201.275095 0) scale(0.996264)"/>
      <use xlink:href="#CMR17-73" transform="translate(241.760756 0) scale(0.996264)"/>
      <use xlink:href="#CMR17-74" transform="translate(277.562093 0) scale(0.996264)"/>
      <use xlink:href="#CMR17-69" transform="translate(312.842861 0) scale(0.996264)"/>
      <use xlink:href="#CMR17-6d" transform="translate(337.713919 0) scale(0.996264)"/>
      <use xlink:href="#CMR17-61" transform="translate(414.633509 0) scale(0.996264)"/>
      <use xlink:href="#CMR17-74" transform="translate(460.323986 0) scale(0.996264)"/>
      <use xlink:href="#CMR17-65" transform="translate(495.604754 0) scale(0.996264)"/>
      <use xlink:href="#CMR17-72" transform="translate(566.166381 0) scale(0.996264)"/>
      <use xlink:href="#CMR17-65" transform="translate(601.447149 0) scale(0.996264)"/>
      <use xlink:href="#CMR17-76" transform="translate(641.932809 0) scale(0.996264)"/>
      <use xlink:href="#CMR17-65" transform="translate(687.623271 0) scale(0.996264)"/>
      <use xlink:href="#CMR17-6e" transform="translate(728.108932 0) scale(0.996264)"/>
      <use xlink:href="#CMR17-75" transform="translate(776.401848 0) scale(0.996264)"/>
      <use xlink:href="#CMR17-65" transform="translate(827.297217 0) scale(0.996264)"/>
     </g>
    </g>
   </g>
  </g>
 </g>
 <defs>
  <clipPath id="p1cb56855f5">
   <rect x="61.046592" y="3.00024" width="1375.953168" height="609.203478"/>
  </clipPath>
 </defs>
</svg>
