<?xml version="1.0" encoding="utf-8" standalone="no"?>
<!DOCTYPE svg PUBLIC "-//W3C//DTD SVG 1.1//EN"
  "http://www.w3.org/Graphics/SVG/1.1/DTD/svg11.dtd">
<svg xmlns:xlink="http://www.w3.org/1999/xlink" width="720pt" height="360pt" viewBox="0 0 720 360" xmlns="http://www.w3.org/2000/svg" version="1.1">
 <metadata>
  <rdf:RDF xmlns:dc="http://purl.org/dc/elements/1.1/" xmlns:cc="http://creativecommons.org/ns#" xmlns:rdf="http://www.w3.org/1999/02/22-rdf-syntax-ns#">
   <cc:Work>
    <dc:type rdf:resource="http://purl.org/dc/dcmitype/StillImage"/>
    <dc:date>2023-10-09T15:35:05.961704</dc:date>
    <dc:format>image/svg+xml</dc:format>
    <dc:creator>
     <cc:Agent>
      <dc:title>Matplotlib v3.6.3, https://matplotlib.org/</dc:title>
     </cc:Agent>
    </dc:creator>
   </cc:Work>
  </rdf:RDF>
 </metadata>
 <defs>
  <style type="text/css">*{stroke-linejoin: round; stroke-linecap: butt}</style>
 </defs>
 <g id="figure_1">
  <g id="patch_1">
   <path d="M 0 360 
L 720 360 
L 720 0 
L 0 0 
z
" style="fill: #ffffff"/>
  </g>
  <g id="axes_1">
   <g id="patch_2">
    <path d="M 42.048666 304.875083 
L 716.99976 304.875083 
L 716.99976 3.00024 
L 42.048666 3.00024 
z
" style="fill: #ffffff"/>
   </g>
   <g id="matplotlib.axis_1">
    <g id="xtick_1">
     <g id="line2d_1">
      <path d="M 93.059117 304.875083 
L 93.059117 3.00024 
" clip-path="url(#p50451adfbf)" style="fill: none; stroke: #cccccc; stroke-opacity: 0.35; stroke-width: 0.8; stroke-linecap: round"/>
     </g>
     <g id="text_1">
      <!-- $\mathdefault{2014}$ -->
      <g transform="translate(83.096447 315.293581) scale(0.1 -0.1)">
       <defs>
        <path id="CMR17-32" d="M 2669 989 
L 2554 989 
C 2490 536 2438 459 2413 420 
C 2381 369 1920 369 1830 369 
L 602 369 
C 832 619 1280 1072 1824 1597 
C 2214 1967 2669 2402 2669 3035 
C 2669 3790 2067 4224 1395 4224 
C 691 4224 262 3604 262 3030 
C 262 2780 448 2748 525 2748 
C 589 2748 781 2787 781 3010 
C 781 3207 614 3264 525 3264 
C 486 3264 448 3258 422 3245 
C 544 3790 915 4058 1306 4058 
C 1862 4058 2227 3617 2227 3035 
C 2227 2479 1901 2000 1536 1584 
L 262 146 
L 262 0 
L 2515 0 
L 2669 989 
z
" transform="scale(0.015625)"/>
        <path id="CMR17-30" d="M 2688 2025 
C 2688 2416 2682 3080 2413 3591 
C 2176 4039 1798 4198 1466 4198 
C 1158 4198 768 4058 525 3597 
C 269 3118 243 2524 243 2025 
C 243 1661 250 1106 448 619 
C 723 -39 1216 -128 1466 -128 
C 1760 -128 2208 -7 2470 600 
C 2662 1042 2688 1559 2688 2025 
z
M 1466 -26 
C 1056 -26 813 325 723 812 
C 653 1188 653 1738 653 2096 
C 653 2588 653 2997 736 3387 
C 858 3929 1216 4096 1466 4096 
C 1728 4096 2067 3923 2189 3400 
C 2272 3036 2278 2607 2278 2096 
C 2278 1680 2278 1169 2202 792 
C 2067 95 1690 -26 1466 -26 
z
" transform="scale(0.015625)"/>
        <path id="CMR17-31" d="M 1702 4058 
C 1702 4192 1696 4192 1606 4192 
C 1357 3916 979 3827 621 3827 
C 602 3827 570 3827 563 3808 
C 557 3795 557 3782 557 3648 
C 755 3648 1088 3686 1344 3839 
L 1344 461 
C 1344 236 1331 160 781 160 
L 589 160 
L 589 0 
C 896 0 1216 0 1523 0 
C 1830 0 2150 0 2458 0 
L 2458 160 
L 2266 160 
C 1715 160 1702 230 1702 458 
L 1702 4058 
z
" transform="scale(0.015625)"/>
        <path id="CMR17-34" d="M 2150 4122 
C 2150 4256 2144 4256 2029 4256 
L 128 1254 
L 128 1088 
L 1779 1088 
L 1779 457 
C 1779 224 1766 160 1318 160 
L 1197 160 
L 1197 0 
C 1402 0 1747 0 1965 0 
C 2182 0 2528 0 2733 0 
L 2733 160 
L 2611 160 
C 2163 160 2150 224 2150 457 
L 2150 1088 
L 2803 1088 
L 2803 1254 
L 2150 1254 
L 2150 4122 
z
M 1798 3703 
L 1798 1254 
L 256 1254 
L 1798 3703 
z
" transform="scale(0.015625)"/>
       </defs>
       <use xlink:href="#CMR17-32" transform="scale(0.996264)"/>
       <use xlink:href="#CMR17-30" transform="translate(45.690477 0) scale(0.996264)"/>
       <use xlink:href="#CMR17-31" transform="translate(91.380954 0) scale(0.996264)"/>
       <use xlink:href="#CMR17-34" transform="translate(137.071431 0) scale(0.996264)"/>
      </g>
     </g>
    </g>
    <g id="xtick_2">
     <g id="line2d_2">
      <path d="M 214.710961 304.875083 
L 214.710961 3.00024 
" clip-path="url(#p50451adfbf)" style="fill: none; stroke: #cccccc; stroke-opacity: 0.35; stroke-width: 0.8; stroke-linecap: round"/>
     </g>
     <g id="text_2">
      <!-- $\mathdefault{2016}$ -->
      <g transform="translate(204.748291 315.293581) scale(0.1 -0.1)">
       <defs>
        <path id="CMR17-36" d="M 678 2176 
C 678 3690 1395 4032 1811 4032 
C 1946 4032 2272 4009 2400 3776 
C 2298 3776 2106 3776 2106 3553 
C 2106 3381 2246 3323 2336 3323 
C 2394 3323 2566 3348 2566 3560 
C 2566 3954 2246 4179 1805 4179 
C 1043 4179 243 3390 243 1984 
C 243 253 966 -128 1478 -128 
C 2099 -128 2688 427 2688 1283 
C 2688 2081 2170 2662 1517 2662 
C 1126 2662 838 2407 678 1960 
L 678 2176 
z
M 1478 25 
C 691 25 691 1200 691 1436 
C 691 1896 909 2560 1504 2560 
C 1613 2560 1926 2560 2138 2120 
C 2253 1870 2253 1609 2253 1289 
C 2253 944 2253 690 2118 434 
C 1978 171 1773 25 1478 25 
z
" transform="scale(0.015625)"/>
       </defs>
       <use xlink:href="#CMR17-32" transform="scale(0.996264)"/>
       <use xlink:href="#CMR17-30" transform="translate(45.690477 0) scale(0.996264)"/>
       <use xlink:href="#CMR17-31" transform="translate(91.380954 0) scale(0.996264)"/>
       <use xlink:href="#CMR17-36" transform="translate(137.071431 0) scale(0.996264)"/>
      </g>
     </g>
    </g>
    <g id="xtick_3">
     <g id="line2d_3">
      <path d="M 336.529452 304.875083 
L 336.529452 3.00024 
" clip-path="url(#p50451adfbf)" style="fill: none; stroke: #cccccc; stroke-opacity: 0.35; stroke-width: 0.8; stroke-linecap: round"/>
     </g>
     <g id="text_3">
      <!-- $\mathdefault{2018}$ -->
      <g transform="translate(326.566781 315.293581) scale(0.1 -0.1)">
       <defs>
        <path id="CMR17-38" d="M 1741 2264 
C 2144 2467 2554 2773 2554 3263 
C 2554 3841 1990 4179 1472 4179 
C 890 4179 378 3759 378 3180 
C 378 3021 416 2747 666 2505 
C 730 2442 998 2251 1171 2130 
C 883 1983 211 1634 211 934 
C 211 279 838 -128 1459 -128 
C 2144 -128 2720 362 2720 1010 
C 2720 1590 2330 1857 2074 2029 
L 1741 2264 
z
M 902 2822 
C 851 2854 595 3051 595 3351 
C 595 3739 998 4032 1459 4032 
C 1965 4032 2336 3676 2336 3262 
C 2336 2669 1670 2331 1638 2331 
C 1632 2331 1626 2331 1574 2370 
L 902 2822 
z
M 2080 1519 
C 2176 1449 2483 1240 2483 851 
C 2483 381 2010 25 1472 25 
C 890 25 448 438 448 940 
C 448 1443 838 1862 1280 2060 
L 2080 1519 
z
" transform="scale(0.015625)"/>
       </defs>
       <use xlink:href="#CMR17-32" transform="scale(0.996264)"/>
       <use xlink:href="#CMR17-30" transform="translate(45.690477 0) scale(0.996264)"/>
       <use xlink:href="#CMR17-31" transform="translate(91.380954 0) scale(0.996264)"/>
       <use xlink:href="#CMR17-38" transform="translate(137.071431 0) scale(0.996264)"/>
      </g>
     </g>
    </g>
    <g id="xtick_4">
     <g id="line2d_4">
      <path d="M 458.181296 304.875083 
L 458.181296 3.00024 
" clip-path="url(#p50451adfbf)" style="fill: none; stroke: #cccccc; stroke-opacity: 0.35; stroke-width: 0.8; stroke-linecap: round"/>
     </g>
     <g id="text_4">
      <!-- $\mathdefault{2020}$ -->
      <g transform="translate(448.218625 315.293581) scale(0.1 -0.1)">
       <use xlink:href="#CMR17-32" transform="scale(0.996264)"/>
       <use xlink:href="#CMR17-30" transform="translate(45.690477 0) scale(0.996264)"/>
       <use xlink:href="#CMR17-32" transform="translate(91.380954 0) scale(0.996264)"/>
       <use xlink:href="#CMR17-30" transform="translate(137.071431 0) scale(0.996264)"/>
      </g>
     </g>
    </g>
    <g id="xtick_5">
     <g id="line2d_5">
      <path d="M 579.999786 304.875083 
L 579.999786 3.00024 
" clip-path="url(#p50451adfbf)" style="fill: none; stroke: #cccccc; stroke-opacity: 0.35; stroke-width: 0.8; stroke-linecap: round"/>
     </g>
     <g id="text_5">
      <!-- $\mathdefault{2022}$ -->
      <g transform="translate(570.037116 315.293581) scale(0.1 -0.1)">
       <use xlink:href="#CMR17-32" transform="scale(0.996264)"/>
       <use xlink:href="#CMR17-30" transform="translate(45.690477 0) scale(0.996264)"/>
       <use xlink:href="#CMR17-32" transform="translate(91.380954 0) scale(0.996264)"/>
       <use xlink:href="#CMR17-32" transform="translate(137.071431 0) scale(0.996264)"/>
      </g>
     </g>
    </g>
    <g id="xtick_6">
     <g id="line2d_6">
      <path d="M 701.65163 304.875083 
L 701.65163 3.00024 
" clip-path="url(#p50451adfbf)" style="fill: none; stroke: #cccccc; stroke-opacity: 0.35; stroke-width: 0.8; stroke-linecap: round"/>
     </g>
     <g id="text_6">
      <!-- $\mathdefault{2024}$ -->
      <g transform="translate(691.68896 315.293581) scale(0.1 -0.1)">
       <use xlink:href="#CMR17-32" transform="scale(0.996264)"/>
       <use xlink:href="#CMR17-30" transform="translate(45.690477 0) scale(0.996264)"/>
       <use xlink:href="#CMR17-32" transform="translate(91.380954 0) scale(0.996264)"/>
       <use xlink:href="#CMR17-34" transform="translate(137.071431 0) scale(0.996264)"/>
      </g>
     </g>
    </g>
    <g id="text_7">
     <!-- Date -->
     <g style="fill: #696969" transform="translate(369.077259 328.149258) scale(0.1 -0.1)">
      <defs>
       <path id="CMR17-44" d="M 333 4352 
L 333 4186 
C 774 4186 845 4186 845 3900 
L 845 452 
C 845 166 774 166 333 166 
L 333 0 
L 2368 0 
C 3398 0 4224 943 4224 2141 
C 4224 3346 3411 4352 2368 4352 
L 333 4352 
z
M 1523 166 
C 1267 166 1254 197 1254 414 
L 1254 3938 
C 1254 4155 1267 4186 1523 4186 
L 2240 4186 
C 2771 4186 3750 3874 3750 2141 
C 3750 1242 3488 879 3366 707 
C 3213 510 2848 166 2240 166 
L 1523 166 
z
" transform="scale(0.015625)"/>
       <path id="CMR17-61" d="M 2304 1653 
C 2304 2072 2304 2294 2035 2543 
C 1798 2752 1523 2816 1306 2816 
C 800 2816 435 2407 435 1971 
C 435 1728 627 1728 666 1728 
C 749 1728 896 1778 896 1954 
C 896 2112 774 2181 666 2181 
C 640 2181 608 2174 589 2168 
C 723 2592 1069 2714 1293 2714 
C 1613 2714 1965 2429 1965 1885 
L 1965 1600 
C 1587 1600 1133 1549 774 1357 
C 371 1133 256 813 256 570 
C 256 77 832 -64 1171 -64 
C 1523 -64 1850 139 1990 511 
C 2003 233 2182 -18 2464 -18 
C 2598 -18 2938 70 2938 567 
L 2938 920 
L 2822 920 
L 2822 562 
C 2822 178 2650 128 2566 128 
C 2304 128 2304 458 2304 738 
L 2304 1653 
z
M 1965 870 
C 1965 317 1568 38 1216 38 
C 896 38 646 275 646 570 
C 646 761 730 1100 1101 1305 
C 1408 1478 1760 1504 1965 1504 
L 1965 870 
z
" transform="scale(0.015625)"/>
       <path id="CMR17-74" d="M 966 2560 
L 1862 2560 
L 1862 2725 
L 966 2725 
L 966 3904 
L 851 3904 
C 838 3245 614 2668 70 2668 
L 70 2560 
L 627 2560 
L 627 771 
C 627 650 627 -64 1370 -64 
C 1747 -64 1965 306 1965 777 
L 1965 1140 
L 1850 1140 
L 1850 783 
C 1850 344 1677 51 1408 51 
C 1222 51 966 178 966 758 
L 966 2560 
z
" transform="scale(0.015625)"/>
       <path id="CMR17-65" d="M 2438 1472 
C 2464 1498 2464 1511 2464 1576 
C 2464 2238 2118 2816 1389 2816 
C 710 2816 173 2169 173 1383 
C 173 551 781 -64 1459 -64 
C 2176 -64 2458 607 2458 740 
C 2458 784 2419 784 2406 784 
C 2362 784 2355 771 2330 696 
C 2189 265 1837 51 1504 51 
C 1229 51 954 203 781 480 
C 582 803 582 1176 582 1472 
L 2438 1472 
z
M 589 1568 
C 634 2505 1126 2714 1382 2714 
C 1818 2714 2112 2297 2118 1568 
L 589 1568 
z
" transform="scale(0.015625)"/>
      </defs>
      <use xlink:href="#CMR17-44" transform="scale(0.996264)"/>
      <use xlink:href="#CMR17-61" transform="translate(70.393556 0) scale(0.996264)"/>
      <use xlink:href="#CMR17-74" transform="translate(116.084033 0) scale(0.996264)"/>
      <use xlink:href="#CMR17-65" transform="translate(151.364801 0) scale(0.996264)"/>
     </g>
    </g>
   </g>
   <g id="matplotlib.axis_2">
    <g id="ytick_1">
     <g id="line2d_7">
      <path d="M 42.048666 303.133963 
L 716.99976 303.133963 
" clip-path="url(#p50451adfbf)" style="fill: none; stroke: #cccccc; stroke-opacity: 0.35; stroke-width: 0.8; stroke-linecap: round"/>
     </g>
     <g id="text_8">
      <!-- $\mathdefault{−400}$ -->
      <g transform="translate(15.855917 306.593213) scale(0.1 -0.1)">
       <defs>
        <path id="CMSY10-0" d="M 4218 1472 
C 4326 1472 4442 1472 4442 1600 
C 4442 1728 4326 1728 4218 1728 
L 755 1728 
C 646 1728 531 1728 531 1600 
C 531 1472 646 1472 755 1472 
L 4218 1472 
z
" transform="scale(0.015625)"/>
       </defs>
       <use xlink:href="#CMSY10-0" transform="scale(0.996264)"/>
       <use xlink:href="#CMR17-34" transform="translate(77.487468 0) scale(0.996264)"/>
       <use xlink:href="#CMR17-30" transform="translate(123.177945 0) scale(0.996264)"/>
       <use xlink:href="#CMR17-30" transform="translate(168.868422 0) scale(0.996264)"/>
      </g>
     </g>
    </g>
    <g id="ytick_2">
     <g id="line2d_8">
      <path d="M 42.048666 267.210639 
L 716.99976 267.210639 
" clip-path="url(#p50451adfbf)" style="fill: none; stroke: #cccccc; stroke-opacity: 0.35; stroke-width: 0.8; stroke-linecap: round"/>
     </g>
     <g id="text_9">
      <!-- $\mathdefault{−300}$ -->
      <g transform="translate(15.855917 270.669888) scale(0.1 -0.1)">
       <defs>
        <path id="CMR17-33" d="M 1414 2157 
C 1984 2157 2234 1662 2234 1090 
C 2234 320 1824 25 1453 25 
C 1114 25 563 194 390 693 
C 422 680 454 680 486 680 
C 640 680 755 782 755 948 
C 755 1133 614 1216 486 1216 
C 378 1216 211 1165 211 926 
C 211 335 787 -128 1466 -128 
C 2176 -128 2720 430 2720 1085 
C 2720 1707 2208 2157 1600 2227 
C 2086 2328 2554 2756 2554 3329 
C 2554 3820 2048 4179 1472 4179 
C 890 4179 378 3829 378 3329 
C 378 3110 544 3072 627 3072 
C 762 3072 877 3155 877 3321 
C 877 3486 762 3569 627 3569 
C 602 3569 570 3569 544 3557 
C 730 3959 1235 4032 1459 4032 
C 1683 4032 2106 3925 2106 3320 
C 2106 3143 2080 2828 1862 2550 
C 1670 2304 1453 2304 1242 2284 
C 1210 2284 1062 2269 1037 2269 
C 992 2263 966 2257 966 2208 
C 966 2163 973 2157 1101 2157 
L 1414 2157 
z
" transform="scale(0.015625)"/>
       </defs>
       <use xlink:href="#CMSY10-0" transform="scale(0.996264)"/>
       <use xlink:href="#CMR17-33" transform="translate(77.487468 0) scale(0.996264)"/>
       <use xlink:href="#CMR17-30" transform="translate(123.177945 0) scale(0.996264)"/>
       <use xlink:href="#CMR17-30" transform="translate(168.868422 0) scale(0.996264)"/>
      </g>
     </g>
    </g>
    <g id="ytick_3">
     <g id="line2d_9">
      <path d="M 42.048666 231.287314 
L 716.99976 231.287314 
" clip-path="url(#p50451adfbf)" style="fill: none; stroke: #cccccc; stroke-opacity: 0.35; stroke-width: 0.8; stroke-linecap: round"/>
     </g>
     <g id="text_10">
      <!-- $\mathdefault{−200}$ -->
      <g transform="translate(15.855917 234.746563) scale(0.1 -0.1)">
       <use xlink:href="#CMSY10-0" transform="scale(0.996264)"/>
       <use xlink:href="#CMR17-32" transform="translate(77.487468 0) scale(0.996264)"/>
       <use xlink:href="#CMR17-30" transform="translate(123.177945 0) scale(0.996264)"/>
       <use xlink:href="#CMR17-30" transform="translate(168.868422 0) scale(0.996264)"/>
      </g>
     </g>
    </g>
    <g id="ytick_4">
     <g id="line2d_10">
      <path d="M 42.048666 195.363989 
L 716.99976 195.363989 
" clip-path="url(#p50451adfbf)" style="fill: none; stroke: #cccccc; stroke-opacity: 0.35; stroke-width: 0.8; stroke-linecap: round"/>
     </g>
     <g id="text_11">
      <!-- $\mathdefault{−100}$ -->
      <g transform="translate(15.855917 198.823238) scale(0.1 -0.1)">
       <use xlink:href="#CMSY10-0" transform="scale(0.996264)"/>
       <use xlink:href="#CMR17-31" transform="translate(77.487468 0) scale(0.996264)"/>
       <use xlink:href="#CMR17-30" transform="translate(123.177945 0) scale(0.996264)"/>
       <use xlink:href="#CMR17-30" transform="translate(168.868422 0) scale(0.996264)"/>
      </g>
     </g>
    </g>
    <g id="ytick_5">
     <g id="line2d_11">
      <path d="M 42.048666 159.440664 
L 716.99976 159.440664 
" clip-path="url(#p50451adfbf)" style="fill: none; stroke: #cccccc; stroke-opacity: 0.35; stroke-width: 0.8; stroke-linecap: round"/>
     </g>
     <g id="text_12">
      <!-- $\mathdefault{0}$ -->
      <g transform="translate(33.567331 162.899914) scale(0.1 -0.1)">
       <use xlink:href="#CMR17-30" transform="scale(0.996264)"/>
      </g>
     </g>
    </g>
    <g id="ytick_6">
     <g id="line2d_12">
      <path d="M 42.048666 123.51734 
L 716.99976 123.51734 
" clip-path="url(#p50451adfbf)" style="fill: none; stroke: #cccccc; stroke-opacity: 0.35; stroke-width: 0.8; stroke-linecap: round"/>
     </g>
     <g id="text_13">
      <!-- $\mathdefault{100}$ -->
      <g transform="translate(23.60466 126.976589) scale(0.1 -0.1)">
       <use xlink:href="#CMR17-31" transform="scale(0.996264)"/>
       <use xlink:href="#CMR17-30" transform="translate(45.690477 0) scale(0.996264)"/>
       <use xlink:href="#CMR17-30" transform="translate(91.380954 0) scale(0.996264)"/>
      </g>
     </g>
    </g>
    <g id="ytick_7">
     <g id="line2d_13">
      <path d="M 42.048666 87.594015 
L 716.99976 87.594015 
" clip-path="url(#p50451adfbf)" style="fill: none; stroke: #cccccc; stroke-opacity: 0.35; stroke-width: 0.8; stroke-linecap: round"/>
     </g>
     <g id="text_14">
      <!-- $\mathdefault{200}$ -->
      <g transform="translate(23.60466 91.053264) scale(0.1 -0.1)">
       <use xlink:href="#CMR17-32" transform="scale(0.996264)"/>
       <use xlink:href="#CMR17-30" transform="translate(45.690477 0) scale(0.996264)"/>
       <use xlink:href="#CMR17-30" transform="translate(91.380954 0) scale(0.996264)"/>
      </g>
     </g>
    </g>
    <g id="ytick_8">
     <g id="line2d_14">
      <path d="M 42.048666 51.67069 
L 716.99976 51.67069 
" clip-path="url(#p50451adfbf)" style="fill: none; stroke: #cccccc; stroke-opacity: 0.35; stroke-width: 0.8; stroke-linecap: round"/>
     </g>
     <g id="text_15">
      <!-- $\mathdefault{300}$ -->
      <g transform="translate(23.60466 55.129939) scale(0.1 -0.1)">
       <use xlink:href="#CMR17-33" transform="scale(0.996264)"/>
       <use xlink:href="#CMR17-30" transform="translate(45.690477 0) scale(0.996264)"/>
       <use xlink:href="#CMR17-30" transform="translate(91.380954 0) scale(0.996264)"/>
      </g>
     </g>
    </g>
    <g id="ytick_9">
     <g id="line2d_15">
      <path d="M 42.048666 15.747365 
L 716.99976 15.747365 
" clip-path="url(#p50451adfbf)" style="fill: none; stroke: #cccccc; stroke-opacity: 0.35; stroke-width: 0.8; stroke-linecap: round"/>
     </g>
     <g id="text_16">
      <!-- $\mathdefault{400}$ -->
      <g transform="translate(23.60466 19.206615) scale(0.1 -0.1)">
       <use xlink:href="#CMR17-34" transform="scale(0.996264)"/>
       <use xlink:href="#CMR17-30" transform="translate(45.690477 0) scale(0.996264)"/>
       <use xlink:href="#CMR17-30" transform="translate(91.380954 0) scale(0.996264)"/>
      </g>
     </g>
    </g>
    <g id="text_17">
     <!-- Risk -->
     <g style="fill: #696969" transform="translate(9.918738 163.582067) rotate(-90) scale(0.1 -0.1)">
      <defs>
       <path id="CMR17-52" d="M 2509 2146 
C 3117 2268 3629 2676 3629 3186 
C 3629 3785 2950 4326 2054 4326 
L 333 4326 
L 333 4160 
C 774 4160 845 4160 845 3873 
L 845 415 
C 845 128 774 128 333 128 
L 333 -26 
C 518 -26 851 -26 1050 -26 
C 1248 -26 1581 -26 1766 -26 
L 1766 128 
C 1325 128 1254 128 1254 417 
L 1254 2112 
L 2003 2112 
C 2368 2112 2573 1964 2662 1881 
C 2918 1632 2918 1459 2918 1024 
C 2918 595 2918 377 3110 160 
C 3354 -102 3680 -128 3821 -128 
C 4294 -128 4365 396 4365 503 
C 4365 540 4365 585 4307 585 
C 4256 585 4250 547 4250 522 
C 4218 112 4032 -26 3834 -26 
C 3482 -26 3443 375 3405 764 
C 3386 898 3373 993 3360 1133 
C 3322 1452 3270 1917 2509 2146 
z
M 1984 2214 
L 1254 2214 
L 1254 3913 
C 1254 4129 1267 4160 1523 4160 
L 1990 4160 
C 2522 4160 3142 3977 3142 3190 
C 3142 2372 2464 2214 1984 2214 
z
" transform="scale(0.015625)"/>
       <path id="CMR17-69" d="M 992 3909 
C 992 4049 877 4170 730 4170 
C 589 4170 467 4056 467 3909 
C 467 3769 582 3648 730 3648 
C 870 3648 992 3763 992 3909 
z
M 243 2706 
L 243 2541 
C 602 2541 653 2502 653 2197 
L 653 427 
C 653 184 627 153 218 153 
L 218 -13 
C 371 0 646 0 806 0 
C 960 0 1222 0 1370 -13 
L 1370 153 
C 992 153 979 191 979 420 
L 979 2776 
L 243 2706 
z
" transform="scale(0.015625)"/>
       <path id="CMR17-73" d="M 1978 2697 
C 1978 2813 1971 2819 1933 2819 
C 1907 2819 1901 2813 1824 2717 
C 1805 2691 1747 2626 1728 2601 
C 1523 2819 1235 2819 1126 2819 
C 416 2819 160 2447 160 2076 
C 160 1498 813 1365 998 1325 
C 1402 1243 1542 1217 1677 1101 
C 1760 1025 1901 884 1901 654 
C 1901 384 1747 38 1158 38 
C 602 38 403 460 288 1021 
C 269 1110 269 1117 218 1117 
C 166 1117 160 1110 160 983 
L 160 63 
C 160 -51 166 -58 205 -58 
C 237 -58 243 -51 275 0 
C 314 57 410 211 448 276 
C 576 103 800 -64 1158 -64 
C 1792 -64 2131 283 2131 784 
C 2131 1112 1958 1285 1875 1362 
C 1683 1561 1459 1606 1190 1657 
C 838 1735 390 1825 390 2217 
C 390 2383 480 2737 1126 2737 
C 1811 2737 1850 2094 1862 1888 
C 1869 1856 1901 1849 1920 1849 
C 1978 1849 1978 1869 1978 1978 
L 1978 2697 
z
" transform="scale(0.015625)"/>
       <path id="CMR17-6b" d="M 1670 1673 
C 1664 1686 1632 1724 1632 1743 
C 1632 1756 2086 2171 2144 2222 
C 2509 2528 2739 2560 2906 2560 
L 2906 2733 
C 2867 2733 2854 2733 2848 2720 
L 2534 2720 
C 2355 2720 2080 2720 1907 2733 
L 1907 2566 
C 1997 2559 2061 2508 2061 2419 
C 2061 2291 1933 2170 1926 2170 
L 960 1289 
L 960 4396 
L 198 4326 
L 198 4160 
C 576 4160 634 4122 634 3817 
L 634 426 
C 634 184 608 153 198 153 
L 198 -13 
C 352 0 634 0 794 0 
C 954 0 1235 0 1389 -13 
L 1389 153 
C 979 153 954 178 954 428 
L 954 1130 
L 1395 1532 
L 2042 574 
C 2118 459 2182 369 2182 286 
C 2182 172 2067 153 1990 153 
L 1990 -13 
C 2144 0 2419 0 2579 0 
C 2694 0 2931 0 3040 0 
L 3040 153 
C 2739 153 2669 210 2477 491 
L 1670 1673 
z
" transform="scale(0.015625)"/>
      </defs>
      <use xlink:href="#CMR17-52" transform="scale(0.996264)"/>
      <use xlink:href="#CMR17-69" transform="translate(67.791102 0) scale(0.996264)"/>
      <use xlink:href="#CMR17-73" transform="translate(92.66216 0) scale(0.996264)"/>
      <use xlink:href="#CMR17-6b" transform="translate(128.463498 0) scale(0.996264)"/>
     </g>
    </g>
   </g>
   <g id="PolyCollection_1">
    <defs>
     <path id="me6b0552ca3" d="M 82.893689 -328.623162 
L 82.893689 -313.042247 
L 87.89308 -302.118131 
L 93.059117 -300.71772 
L 98.225155 -207.400553 
L 102.891253 -207.476835 
L 108.05729 -207.893009 
L 113.056681 -201.477956 
L 118.222718 -215.698745 
L 123.222109 -188.311792 
L 128.388146 -203.31425 
L 133.554183 -210.056758 
L 138.553574 -206.804723 
L 143.719611 -206.753575 
L 148.719002 -243.991518 
L 153.885039 -185.138752 
L 159.051077 -190.784703 
L 163.717175 -195.586986 
L 168.883212 -195.611538 
L 173.882603 -184.418186 
L 179.04864 -192.716793 
L 184.048031 -189.558315 
L 189.214068 -169.41534 
L 194.380105 -169.656539 
L 199.379496 -151.449602 
L 204.545533 -169.918472 
L 209.544924 -156.606254 
L 214.710961 -204.61728 
L 219.876999 -205.78784 
L 224.709743 -207.955486 
L 229.87578 -213.620756 
L 234.875171 -203.530025 
L 240.041208 -174.60219 
L 245.040599 -158.472604 
L 250.206636 -198.661447 
L 255.372674 -188.860271 
L 260.372065 -149.394521 
L 265.538102 -170.826083 
L 270.537493 -201.249213 
L 275.70353 -161.212444 
L 280.869567 -201.099984 
L 285.535665 -182.78196 
L 290.701702 -167.371992 
L 295.701093 -180.451715 
L 300.86713 -183.194466 
L 305.866521 -168.82583 
L 311.032558 -185.49304 
L 316.198596 -173.505318 
L 321.197987 -200.617874 
L 326.364024 -158.792846 
L 331.363415 -162.286021 
L 336.529452 -150.902122 
L 341.695489 -180.578728 
L 346.361587 -195.104275 
L 351.527624 -199.756481 
L 356.527015 -197.556768 
L 361.693052 -199.107663 
L 366.692443 -196.057923 
L 371.85848 -188.642923 
L 377.024518 -187.371879 
L 382.023909 -187.952774 
L 387.189946 -186.313385 
L 392.189337 -180.889059 
L 397.355374 -191.502369 
L 402.521411 -191.004446 
L 407.187509 -191.21454 
L 412.353546 -188.985397 
L 417.352937 -186.614255 
L 422.518974 -189.540043 
L 427.518365 -185.716533 
L 432.684402 -189.774737 
L 437.85044 -194.985849 
L 442.849831 -198.362045 
L 448.015868 -199.086246 
L 453.015259 -199.450269 
L 458.181296 -199.851419 
L 463.347333 -198.7939 
L 468.180077 -194.25559 
L 473.346115 -187.983021 
L 478.345506 -190.375805 
L 483.511543 -199.157149 
L 488.510934 -188.138473 
L 493.676971 -197.418143 
L 498.843008 -194.632194 
L 503.842399 -188.947447 
L 509.008436 -187.164276 
L 514.007827 -186.922708 
L 519.173864 -202.44773 
L 524.339901 -203.750675 
L 529.005999 -204.164035 
L 534.172037 -203.243995 
L 539.171428 -202.601117 
L 544.337465 -200.123145 
L 549.336856 -194.584044 
L 554.502893 -200.690419 
L 559.66893 -197.036356 
L 564.668321 -182.369516 
L 569.834358 -150.401628 
L 574.833749 -196.709213 
L 579.999786 -201.734754 
L 585.165823 -187.890272 
L 589.831921 -177.510207 
L 594.997959 -146.326435 
L 599.99735 -194.90737 
L 605.163387 -194.204387 
L 610.162778 -191.374624 
L 615.328815 -196.709922 
L 620.494852 -198.167698 
L 625.494243 -151.096073 
L 630.66028 -171.012989 
L 635.659671 -195.921083 
L 640.825708 -163.820092 
L 645.991745 -101.537304 
L 650.657843 -75.221235 
L 655.823881 -68.846501 
L 660.823271 -71.811067 
L 665.989309 -134.900724 
L 670.9887 -198.21333 
L 676.154737 -198.089728 
L 681.320774 -87.0325 
L 686.320165 -118.46905 
L 686.320165 -202.268992 
L 686.320165 -202.268992 
L 681.320774 -197.524926 
L 676.154737 -219.715107 
L 670.9887 -205.871129 
L 665.989309 -201.898195 
L 660.823271 -197.464477 
L 655.823881 -199.986566 
L 650.657843 -192.185758 
L 645.991745 -190.810824 
L 640.825708 -199.52561 
L 635.659671 -266.410935 
L 630.66028 -197.453814 
L 625.494243 -194.99881 
L 620.494852 -232.124118 
L 615.328815 -210.837934 
L 610.162778 -234.408175 
L 605.163387 -234.465427 
L 599.99735 -239.252093 
L 594.997959 -197.294957 
L 589.831921 -207.25787 
L 585.165823 -218.196342 
L 579.999786 -235.719053 
L 574.833749 -213.844149 
L 569.834358 -201.257513 
L 564.668321 -204.27042 
L 559.66893 -255.788009 
L 554.502893 -239.412236 
L 549.336856 -208.630715 
L 544.337465 -245.644225 
L 539.171428 -285.065531 
L 534.172037 -258.143786 
L 529.005999 -252.738664 
L 524.339901 -231.799166 
L 519.173864 -237.414355 
L 514.007827 -263.371318 
L 509.008436 -255.235688 
L 503.842399 -261.756042 
L 498.843008 -272.309403 
L 493.676971 -224.014476 
L 488.510934 -200.877674 
L 483.511543 -204.835664 
L 478.345506 -201.548582 
L 473.346115 -201.605824 
L 468.180077 -200.928364 
L 463.347333 -202.153059 
L 458.181296 -211.97921 
L 453.015259 -219.117462 
L 448.015868 -210.93779 
L 442.849831 -203.578458 
L 437.85044 -204.047918 
L 432.684402 -204.390164 
L 427.518365 -205.144441 
L 422.518974 -203.7609 
L 417.352937 -203.219646 
L 412.353546 -204.027482 
L 407.187509 -203.311716 
L 402.521411 -202.941179 
L 397.355374 -203.540564 
L 392.189337 -203.623932 
L 387.189946 -201.712395 
L 382.023909 -205.28774 
L 377.024518 -205.125645 
L 371.85848 -210.218188 
L 366.692443 -215.114701 
L 361.693052 -217.858698 
L 356.527015 -220.750802 
L 351.527624 -222.746833 
L 346.361587 -218.569212 
L 341.695489 -222.098486 
L 336.529452 -220.984214 
L 331.363415 -216.543972 
L 326.364024 -213.221228 
L 321.197987 -208.142622 
L 316.198596 -206.013457 
L 311.032558 -203.869805 
L 305.866521 -201.255087 
L 300.86713 -201.602993 
L 295.701093 -201.824712 
L 290.701702 -203.012076 
L 285.535665 -201.353301 
L 280.869567 -208.522265 
L 275.70353 -201.072275 
L 270.537493 -228.026077 
L 265.538102 -200.609402 
L 260.372065 -199.955928 
L 255.372674 -208.566663 
L 250.206636 -224.565639 
L 245.040599 -201.126148 
L 240.041208 -205.01994 
L 234.875171 -235.245587 
L 229.87578 -316.285179 
L 224.709743 -268.793386 
L 219.876999 -252.744274 
L 214.710961 -236.759787 
L 209.544924 -195.04069 
L 204.545533 -199.162101 
L 199.379496 -193.306523 
L 194.380105 -204.746551 
L 189.214068 -198.090805 
L 184.048031 -203.149985 
L 179.04864 -204.892597 
L 173.882603 -204.304142 
L 168.883212 -230.742889 
L 163.717175 -248.227846 
L 159.051077 -227.102775 
L 153.885039 -243.0133 
L 148.719002 -343.278176 
L 143.719611 -313.720523 
L 138.553574 -336.847872 
L 133.554183 -297.958896 
L 128.388146 -298.383859 
L 123.222109 -311.954179 
L 118.222718 -319.64425 
L 113.056681 -313.680742 
L 108.05729 -318.910318 
L 102.891253 -320.136316 
L 98.225155 -322.573921 
L 93.059117 -328.269102 
L 87.89308 -328.661087 
L 82.893689 -328.623162 
z
" style="stroke: #006e64; stroke-opacity: 0.2"/>
    </defs>
    <g clip-path="url(#p50451adfbf)">
     <use xlink:href="#me6b0552ca3" x="0" y="360" style="fill: #006e64; fill-opacity: 0.2; stroke: #006e64; stroke-opacity: 0.2"/>
    </g>
   </g>
   <g id="PolyCollection_2">
    <defs>
     <path id="m9a2a225042" d="M 163.717175 -206.8588 
L 163.717175 -200.501042 
L 168.883212 -200.574636 
L 173.882603 -200.673732 
L 179.04864 -200.869264 
L 184.048031 -201.318914 
L 189.214068 -200.840047 
L 194.380105 -200.507364 
L 199.379496 -200.282653 
L 204.545533 -199.72683 
L 209.544924 -200.583976 
L 214.710961 -200.621161 
L 219.876999 -200.428712 
L 224.709743 -200.331889 
L 229.87578 -200.440034 
L 234.875171 -200.247702 
L 240.041208 -200.197515 
L 245.040599 -200.197299 
L 250.206636 -199.927018 
L 255.372674 -199.991802 
L 260.372065 -200.570889 
L 265.538102 -200.872647 
L 270.537493 -200.826867 
L 275.70353 -200.624773 
L 280.869567 -200.972207 
L 285.535665 -200.761102 
L 290.701702 -199.996667 
L 295.701093 -200.944661 
L 300.86713 -200.281257 
L 305.866521 -200.888319 
L 311.032558 -200.4826 
L 316.198596 -200.57837 
L 321.197987 -200.55929 
L 326.364024 -199.450973 
L 331.363415 -199.752783 
L 336.529452 -199.603715 
L 341.695489 -196.311876 
L 346.361587 -185.467297 
L 351.527624 -188.397206 
L 356.527015 -199.243253 
L 361.693052 -199.658034 
L 366.692443 -198.32727 
L 371.85848 -200.092213 
L 377.024518 -200.540575 
L 382.023909 -190.594861 
L 387.189946 -191.434948 
L 392.189337 -178.714505 
L 397.355374 -172.251533 
L 402.521411 -165.655616 
L 407.187509 -162.932679 
L 412.353546 -166.481312 
L 417.352937 -174.738821 
L 422.518974 -173.703601 
L 427.518365 -180.284705 
L 432.684402 -185.604005 
L 437.85044 -151.389055 
L 442.849831 -168.4306 
L 448.015868 -167.430518 
L 453.015259 -168.162243 
L 458.181296 -177.623785 
L 463.347333 -177.004626 
L 468.180077 -198.252696 
L 473.346115 -200.23699 
L 478.345506 -199.786251 
L 483.511543 -201.529122 
L 488.510934 -202.578075 
L 493.676971 -200.926507 
L 498.843008 -199.247583 
L 503.842399 -191.435976 
L 509.008436 -181.462902 
L 514.007827 -165.244124 
L 519.173864 -169.384367 
L 524.339901 -170.520781 
L 529.005999 -199.964632 
L 534.172037 -208.218418 
L 539.171428 -206.833093 
L 544.337465 -206.374928 
L 549.336856 -203.738757 
L 554.502893 -201.755117 
L 559.66893 -200.448233 
L 564.668321 -200.628532 
L 569.834358 -203.915016 
L 574.833749 -204.494575 
L 579.999786 -206.741245 
L 585.165823 -199.20293 
L 589.831921 -195.663387 
L 594.997959 -198.581884 
L 599.99735 -195.152663 
L 605.163387 -194.676909 
L 610.162778 -186.446184 
L 615.328815 -188.158932 
L 620.494852 -191.964022 
L 625.494243 -185.928529 
L 630.66028 -186.371449 
L 635.659671 -174.510398 
L 640.825708 -147.369727 
L 645.991745 -168.647903 
L 650.657843 -168.292487 
L 655.823881 -162.654742 
L 660.823271 -157.065705 
L 665.989309 -164.211736 
L 670.9887 -148.542938 
L 676.154737 -141.372887 
L 681.320774 -157.418397 
L 686.320165 -160.684913 
L 686.320165 -195.206762 
L 686.320165 -195.206762 
L 681.320774 -189.036317 
L 676.154737 -187.839471 
L 670.9887 -191.743554 
L 665.989309 -202.376561 
L 660.823271 -195.770526 
L 655.823881 -199.363629 
L 650.657843 -201.785202 
L 645.991745 -198.744676 
L 640.825708 -191.413933 
L 635.659671 -198.507599 
L 630.66028 -203.381313 
L 625.494243 -206.545525 
L 620.494852 -208.16536 
L 615.328815 -205.867137 
L 610.162778 -200.925188 
L 605.163387 -203.009744 
L 599.99735 -213.516671 
L 594.997959 -216.449675 
L 589.831921 -217.632114 
L 585.165823 -230.431681 
L 579.999786 -250.473907 
L 574.833749 -218.381032 
L 569.834358 -219.00814 
L 564.668321 -214.36603 
L 559.66893 -236.100369 
L 554.502893 -233.859966 
L 549.336856 -230.667525 
L 544.337465 -239.005038 
L 539.171428 -244.236797 
L 534.172037 -244.257248 
L 529.005999 -213.221201 
L 524.339901 -206.316217 
L 519.173864 -202.985602 
L 514.007827 -204.96512 
L 509.008436 -206.27336 
L 503.842399 -210.498197 
L 498.843008 -207.631767 
L 493.676971 -211.004323 
L 488.510934 -224.826193 
L 483.511543 -230.364184 
L 478.345506 -226.518141 
L 473.346115 -219.515866 
L 468.180077 -210.068607 
L 463.347333 -201.256285 
L 458.181296 -202.470747 
L 453.015259 -201.878325 
L 448.015868 -200.838331 
L 442.849831 -200.687138 
L 437.85044 -206.828419 
L 432.684402 -243.557832 
L 427.518365 -220.904054 
L 422.518974 -207.537663 
L 417.352937 -205.636154 
L 412.353546 -209.28884 
L 407.187509 -207.614088 
L 402.521411 -203.418235 
L 397.355374 -200.803823 
L 392.189337 -200.645827 
L 387.189946 -201.038737 
L 382.023909 -202.410042 
L 377.024518 -229.064641 
L 371.85848 -232.598122 
L 366.692443 -224.894585 
L 361.693052 -224.682685 
L 356.527015 -225.876297 
L 351.527624 -218.976835 
L 346.361587 -214.321761 
L 341.695489 -211.288794 
L 336.529452 -214.387518 
L 331.363415 -215.864209 
L 326.364024 -213.928911 
L 321.197987 -213.030884 
L 316.198596 -212.989603 
L 311.032558 -210.97209 
L 305.866521 -211.237995 
L 300.86713 -213.074098 
L 295.701093 -217.942323 
L 290.701702 -219.224252 
L 285.535665 -201.98879 
L 280.869567 -202.194127 
L 275.70353 -201.675396 
L 270.537493 -202.062545 
L 265.538102 -201.756802 
L 260.372065 -201.272916 
L 255.372674 -200.809866 
L 250.206636 -200.565964 
L 245.040599 -200.643204 
L 240.041208 -200.65448 
L 234.875171 -200.666654 
L 229.87578 -200.823091 
L 224.709743 -200.595773 
L 219.876999 -200.759264 
L 214.710961 -201.488587 
L 209.544924 -200.859087 
L 204.545533 -201.09642 
L 199.379496 -201.513676 
L 194.380105 -202.361722 
L 189.214068 -203.334648 
L 184.048031 -203.938221 
L 179.04864 -203.500867 
L 173.882603 -206.1026 
L 168.883212 -206.46178 
L 163.717175 -206.8588 
z
" style="stroke: #c17150; stroke-opacity: 0.2"/>
    </defs>
    <g clip-path="url(#p50451adfbf)">
     <use xlink:href="#m9a2a225042" x="0" y="360" style="fill: #c17150; fill-opacity: 0.2; stroke: #c17150; stroke-opacity: 0.2"/>
    </g>
   </g>
   <g id="line2d_16">
    <path d="M 72.728261 31.040468 
L 77.727652 31.311542 
L 82.893689 39.167295 
L 87.89308 44.610391 
L 93.059117 45.506589 
L 98.225155 83.986778 
L 102.891253 86.751615 
L 108.05729 90.76286 
L 113.056681 102.64047 
L 118.222718 92.328503 
L 123.222109 124.122777 
L 128.388146 109.150946 
L 133.554183 105.722724 
L 138.553574 90.368672 
L 143.719611 101.526813 
L 148.719002 70.581741 
L 153.885039 145.624429 
L 159.051077 151.807686 
L 163.717175 141.893284 
L 168.883212 149.641198 
L 173.882603 164.403839 
L 179.04864 160.621702 
L 184.048031 163.267566 
L 189.214068 174.039901 
L 194.380105 169.306762 
L 199.379496 184.564861 
L 204.545533 173.065525 
L 209.544924 182.314834 
L 214.710961 141.820737 
L 219.876999 133.546443 
L 224.709743 125.689008 
L 229.87578 104.868816 
L 234.875171 144.658603 
L 240.041208 166.616288 
L 245.040599 175.850481 
L 250.206636 150.623556 
L 255.372674 160.217937 
L 260.372065 182.38481 
L 265.538102 171.52433 
L 270.537493 148.100782 
L 275.70353 176.595185 
L 280.869567 155.650449 
L 285.535665 166.490278 
L 290.701702 171.436659 
L 295.701093 167.620076 
L 300.86713 166.626433 
L 305.866521 172.433787 
L 311.032558 162.734886 
L 316.198596 167.240021 
L 321.197987 156.237889 
L 326.364024 169.697139 
L 331.363415 167.448099 
L 336.529452 167.727006 
L 341.695489 158.622487 
L 346.361587 155.008265 
L 351.527624 151.640823 
L 356.527015 153.533734 
L 361.693052 153.703221 
L 366.692443 155.902558 
L 371.85848 160.482062 
L 377.024518 162.068653 
L 382.023909 161.390629 
L 387.189946 164.477063 
L 392.189337 165.442383 
L 397.355374 161.262428 
L 402.521411 161.7128 
L 407.187509 161.50766 
L 412.353546 161.939203 
L 417.352937 163.465947 
L 422.518974 162.699943 
L 427.518365 162.548231 
L 432.684402 161.60175 
L 437.85044 160.199454 
L 442.849831 159.172999 
L 448.015868 156.183417 
L 453.015259 153.506073 
L 458.181296 155.63992 
L 463.347333 159.514195 
L 468.180077 162.055067 
L 473.346115 164.06938 
L 478.345506 163.220134 
L 483.511543 158.530162 
L 488.510934 163.929677 
L 493.676971 153.0554 
L 498.843008 137.979333 
L 503.842399 144.071685 
L 509.008436 145.380272 
L 514.007827 141.750793 
L 519.173864 143.068117 
L 524.339901 143.868786 
L 529.005999 136.908339 
L 534.172037 135.340865 
L 539.171428 126.843883 
L 544.337465 142.454789 
L 549.336856 158.901931 
L 554.502893 141.996405 
L 559.66893 140.220125 
L 564.668321 164.986193 
L 569.834358 177.848638 
L 574.833749 155.099073 
L 579.999786 143.605083 
L 585.165823 156.765512 
L 589.831921 164.668518 
L 594.997959 180.650278 
L 599.99735 148.21526 
L 605.163387 150.772134 
L 610.162778 150.248606 
L 615.328815 157.068788 
L 620.494852 147.581951 
L 625.494243 181.112455 
L 630.66028 173.928328 
L 635.659671 135.819537 
L 640.825708 175.258684 
L 645.991745 204.040957 
L 650.657843 209.883057 
L 655.823881 206.955452 
L 660.823271 207.940082 
L 665.989309 181.56825 
L 670.9887 158.242916 
L 676.154737 152.750318 
L 681.320774 203.362941 
L 686.320165 192.566356 
" clip-path="url(#p50451adfbf)" style="fill: none; stroke: #006e64; stroke-width: 1.5; stroke-linecap: round"/>
   </g>
   <g id="line2d_17">
    <path d="M 159.051077 152.583874 
L 163.717175 156.320079 
L 168.883212 156.877717 
L 173.882603 156.942403 
L 179.04864 157.991171 
L 184.048031 157.659786 
L 189.214068 158.065048 
L 194.380105 158.802006 
L 199.379496 159.15364 
L 204.545533 159.505782 
L 209.544924 159.299674 
L 214.710961 159.044346 
L 219.876999 159.40903 
L 224.709743 159.512227 
L 229.87578 159.369039 
L 234.875171 159.518462 
L 240.041208 159.552257 
L 245.040599 159.542479 
L 250.206636 159.70158 
L 255.372674 159.547386 
L 260.372065 159.115179 
L 265.538102 158.749482 
L 270.537493 158.63064 
L 275.70353 158.915067 
L 280.869567 158.466164 
L 285.535665 158.65803 
L 290.701702 153.465413 
L 295.701093 153.198679 
L 300.86713 155.255063 
L 305.866521 155.541184 
L 311.032558 155.782175 
L 316.198596 154.284775 
L 321.197987 154.429465 
L 326.364024 154.557317 
L 331.363415 153.775786 
L 336.529452 154.256352 
L 341.695489 157.647609 
L 346.361587 160.423454 
L 351.527624 157.262449 
L 356.527015 151.486535 
L 361.693052 151.447685 
L 366.692443 151.460889 
L 371.85848 147.600713 
L 377.024518 148.877908 
L 382.023909 162.058065 
L 387.189946 163.076565 
L 392.189337 168.610262 
L 397.355374 171.110883 
L 402.521411 172.497742 
L 407.187509 173.472713 
L 412.353546 170.971827 
L 417.352937 168.290735 
L 422.518974 168.088146 
L 427.518365 160.120752 
L 432.684402 151.42964 
L 437.85044 176.636419 
L 442.849831 171.674043 
L 448.015868 170.662659 
L 453.015259 169.749649 
L 458.181296 166.328082 
L 463.347333 167.295782 
L 468.180077 156.433449 
L 473.346115 151.626509 
L 478.345506 148.464088 
L 483.511543 146.3682 
L 488.510934 149.036255 
L 493.676971 154.659156 
L 498.843008 156.912328 
L 503.842399 158.830678 
L 509.008436 163.313202 
L 514.007827 168.960207 
L 519.173864 168.92706 
L 524.339901 166.850012 
L 529.005999 155.053601 
L 534.172037 137.08461 
L 539.171428 138.742457 
L 544.337465 140.845581 
L 549.336856 145.346693 
L 554.502893 145.877241 
L 559.66893 145.743357 
L 564.668321 153.180332 
L 569.834358 149.116307 
L 574.833749 149.276336 
L 579.999786 135.26878 
L 585.165823 148.07818 
L 589.831921 154.970245 
L 594.997959 154.087707 
L 599.99735 156.33186 
L 605.163387 161.432362 
L 610.162778 165.786031 
L 615.328815 163.078892 
L 620.494852 160.48605 
L 625.494243 163.87555 
L 630.66028 164.450978 
L 635.659671 171.861845 
L 640.825708 186.194435 
L 645.991745 174.003539 
L 650.657843 172.332564 
L 655.823881 174.708363 
L 660.823271 178.750882 
L 665.989309 174.532101 
L 670.9887 185.374356 
L 676.154737 192.586678 
L 681.320774 184.681973 
L 686.320165 178.878563 
" clip-path="url(#p50451adfbf)" style="fill: none; stroke: #c17150; stroke-width: 1.5; stroke-linecap: round"/>
   </g>
   <g id="line2d_18"/>
   <g id="line2d_19"/>
   <g id="patch_3">
    <path d="M 42.048666 304.875083 
L 42.048666 3.00024 
" style="fill: none; stroke: #808080; stroke-width: 0.8; stroke-linejoin: miter; stroke-linecap: square"/>
   </g>
   <g id="patch_4">
    <path d="M 42.048666 304.875083 
L 716.99976 304.875083 
" style="fill: none; stroke: #808080; stroke-width: 0.8; stroke-linejoin: miter; stroke-linecap: square"/>
   </g>
   <g id="text_18">
    <!-- Source: ELCON A/S -->
    <g style="fill: #808080" transform="translate(624.264008 352.646969) scale(0.1 -0.1)">
     <defs>
      <path id="CMR17-53" d="M 2803 4290 
C 2803 4404 2797 4411 2758 4411 
C 2720 4411 2707 4385 2682 4328 
L 2490 3907 
C 2246 4257 1875 4416 1472 4416 
C 819 4416 294 3901 294 3253 
C 294 3056 339 2776 557 2510 
C 794 2218 1018 2167 1530 2033 
C 1722 1982 2042 1899 2106 1874 
C 2470 1722 2662 1341 2662 985 
C 2662 527 2336 38 1779 38 
C 1094 38 454 419 410 1311 
C 403 1413 397 1419 352 1419 
C 301 1419 294 1413 294 1285 
L 294 -1 
C 294 -115 301 -122 339 -122 
C 384 -122 397 -90 486 108 
C 493 127 493 140 614 381 
C 934 -39 1472 -128 1779 -128 
C 2477 -128 2970 451 2970 1124 
C 2970 1454 2848 1708 2778 1823 
C 2509 2230 2221 2306 1914 2382 
C 1869 2402 1856 2402 1498 2490 
C 1152 2579 1005 2624 845 2796 
C 666 2992 602 3196 602 3399 
C 602 3812 934 4263 1478 4263 
C 2157 4263 2579 3786 2675 2993 
C 2694 2878 2701 2872 2746 2872 
C 2803 2872 2803 2891 2803 2999 
L 2803 4290 
z
" transform="scale(0.015625)"/>
      <path id="CMR17-6f" d="M 2758 1356 
C 2758 2176 2163 2816 1466 2816 
C 768 2816 173 2176 173 1356 
C 173 551 768 -64 1466 -64 
C 2163 -64 2758 551 2758 1356 
z
M 1466 51 
C 1165 51 909 230 762 480 
C 602 767 582 1126 582 1408 
C 582 1677 595 2010 762 2298 
C 890 2509 1139 2714 1466 2714 
C 1754 2714 1997 2554 2150 2330 
C 2349 2029 2349 1607 2349 1408 
C 2349 1158 2336 775 2163 467 
C 1984 173 1709 51 1466 51 
z
" transform="scale(0.015625)"/>
      <path id="CMR17-75" d="M 1882 2693 
L 1882 2528 
C 2259 2528 2317 2489 2317 2186 
L 2317 1032 
C 2317 500 2029 38 1555 38 
C 1030 38 986 348 986 678 
L 986 2763 
L 211 2693 
L 211 2528 
C 467 2528 640 2528 646 2274 
L 646 1058 
C 646 633 646 361 813 183 
C 896 101 1056 -64 1517 -64 
C 2061 -64 2272 377 2323 506 
L 2330 506 
L 2330 -63 
L 3091 -63 
L 3091 128 
C 2714 128 2656 166 2656 473 
L 2656 2763 
L 1882 2693 
z
" transform="scale(0.015625)"/>
      <path id="CMR17-72" d="M 960 1497 
C 960 2112 1222 2688 1702 2688 
C 1747 2688 1792 2682 1837 2662 
C 1837 2662 1696 2617 1696 2452 
C 1696 2298 1818 2234 1914 2234 
C 1990 2234 2131 2279 2131 2458 
C 2131 2663 1926 2790 1709 2790 
C 1222 2790 1011 2317 947 2093 
L 941 2093 
L 941 2790 
L 198 2720 
L 198 2554 
C 576 2554 634 2515 634 2208 
L 634 428 
C 634 184 608 153 198 153 
L 198 -13 
C 352 0 646 0 813 0 
C 998 0 1325 0 1498 -13 
L 1498 153 
C 1037 153 960 153 960 440 
L 960 1497 
z
" transform="scale(0.015625)"/>
      <path id="CMR17-63" d="M 2234 2240 
C 2112 2240 1933 2240 1933 2017 
C 1933 1838 2080 1787 2163 1787 
C 2208 1787 2394 1807 2394 2024 
C 2394 2467 1958 2803 1466 2803 
C 787 2803 211 2178 211 1363 
C 211 516 813 -64 1466 -64 
C 2259 -64 2458 677 2458 748 
C 2458 774 2451 793 2406 793 
C 2362 793 2355 787 2330 703 
C 2163 180 1798 51 1523 51 
C 1114 51 621 427 621 1369 
C 621 2338 1094 2688 1472 2688 
C 1722 2688 2093 2573 2234 2240 
z
" transform="scale(0.015625)"/>
      <path id="CMR17-3a" d="M 1062 2491 
C 1062 2650 934 2752 800 2752 
C 672 2752 538 2650 538 2491 
C 538 2332 666 2230 800 2230 
C 928 2230 1062 2332 1062 2491 
z
M 1062 261 
C 1062 420 934 522 800 522 
C 672 522 538 420 538 261 
C 538 102 666 0 800 0 
C 928 0 1062 102 1062 261 
z
" transform="scale(0.015625)"/>
      <path id="CMR17-45" d="M 3885 1615 
L 3770 1615 
C 3629 676 3546 166 2419 166 
L 1530 166 
C 1274 166 1261 197 1261 414 
L 1261 2176 
L 1862 2176 
C 2464 2176 2522 1960 2522 1430 
L 2637 1430 
L 2637 3081 
L 2522 3081 
C 2522 2557 2464 2342 1862 2342 
L 1261 2342 
L 1261 3913 
C 1261 4128 1274 4160 1530 4160 
L 2406 4160 
C 3398 4160 3514 3769 3603 2929 
L 3718 2929 
L 3565 4325 
L 326 4325 
L 326 4160 
C 768 4160 838 4160 838 3874 
L 838 451 
C 838 166 768 166 326 166 
L 326 0 
L 3654 0 
L 3885 1615 
z
" transform="scale(0.015625)"/>
      <path id="CMR17-4c" d="M 3469 1615 
L 3354 1615 
C 3302 983 3219 166 2125 166 
L 1530 166 
C 1274 166 1261 197 1261 414 
L 1261 3898 
C 1261 4129 1274 4192 1760 4192 
L 1901 4192 
L 1901 4352 
C 1638 4352 1331 4352 1069 4352 
C 870 4352 512 4352 326 4352 
L 326 4192 
C 768 4192 838 4192 838 3905 
L 838 452 
C 838 166 768 166 326 166 
L 326 0 
L 3315 0 
L 3469 1615 
z
" transform="scale(0.015625)"/>
      <path id="CMR17-43" d="M 3974 4289 
C 3974 4403 3968 4410 3930 4410 
C 3904 4410 3898 4403 3853 4327 
L 3571 3792 
C 3258 4187 2874 4416 2381 4416 
C 1286 4416 294 3456 294 2148 
C 294 826 1286 -128 2387 -128 
C 3366 -128 3974 730 3974 1461 
C 3974 1524 3974 1550 3917 1550 
C 3866 1550 3866 1531 3859 1474 
C 3808 585 3168 38 2477 38 
C 1824 38 781 495 781 2147 
C 781 3805 1843 4250 2464 4250 
C 3187 4250 3712 3628 3834 2745 
C 3846 2668 3846 2655 3904 2655 
C 3974 2655 3974 2668 3974 2783 
L 3974 4289 
z
" transform="scale(0.015625)"/>
      <path id="CMR17-4f" d="M 4307 2135 
C 4307 3437 3366 4416 2304 4416 
C 1216 4416 294 3424 294 2135 
C 294 845 1229 -128 2298 -128 
C 3392 -128 4307 864 4307 2135 
z
M 2304 -13 
C 1574 -13 781 711 781 2217 
C 781 3716 1651 4301 2298 4301 
C 2976 4301 3821 3698 3821 2217 
C 3821 686 3008 -13 2304 -13 
z
" transform="scale(0.015625)"/>
      <path id="CMR17-4e" d="M 1312 4250 
C 1267 4320 1261 4320 1139 4320 
L 326 4320 
L 326 4160 
L 448 4160 
C 704 4160 819 4129 838 4122 
L 838 610 
C 838 451 838 153 326 153 
L 326 -13 
C 474 0 742 0 902 0 
C 1062 0 1331 0 1478 -13 
L 1478 153 
C 966 153 966 451 966 610 
L 966 4033 
C 1011 3995 1011 3982 1056 3919 
L 3430 76 
C 3475 0 3494 0 3526 0 
C 3590 0 3590 19 3590 139 
L 3590 3705 
C 3590 3863 3590 4160 4102 4160 
L 4102 4326 
C 3955 4320 3686 4320 3526 4320 
C 3366 4320 3098 4320 2950 4326 
L 2950 4160 
C 3462 4160 3462 3862 3462 3703 
L 3462 763 
L 1312 4250 
z
" transform="scale(0.015625)"/>
      <path id="CMR17-41" d="M 2323 4378 
C 2291 4461 2278 4480 2214 4480 
C 2150 4480 2138 4461 2106 4378 
L 749 566 
C 627 223 371 153 147 153 
L 147 -13 
C 262 0 518 0 640 0 
C 800 0 1056 0 1210 -13 
L 1210 153 
C 909 153 864 361 864 439 
C 864 497 877 530 890 569 
L 1229 1536 
L 2906 1536 
L 3290 442 
C 3322 365 3322 352 3322 327 
C 3322 153 3046 153 2925 153 
L 2925 0 
C 3110 0 3443 0 3642 0 
C 3808 0 4128 0 4282 -13 
L 4282 153 
C 3942 153 3827 153 3744 387 
L 2323 4378 
z
M 2067 3893 
L 2848 1702 
L 1286 1702 
L 2067 3893 
z
" transform="scale(0.015625)"/>
      <path id="CMR17-2f" d="M 2605 4545 
C 2637 4627 2637 4640 2637 4653 
C 2637 4729 2579 4768 2528 4768 
C 2451 4768 2426 4717 2400 4640 
L 326 -1377 
C 294 -1460 294 -1473 294 -1486 
C 294 -1562 352 -1600 403 -1600 
C 480 -1600 506 -1549 531 -1473 
L 2605 4545 
z
" transform="scale(0.015625)"/>
     </defs>
     <use xlink:href="#CMR17-53" transform="scale(0.996264)"/>
     <use xlink:href="#CMR17-6f" transform="translate(50.89537 0) scale(0.996264)"/>
     <use xlink:href="#CMR17-75" transform="translate(96.585847 0) scale(0.996264)"/>
     <use xlink:href="#CMR17-72" transform="translate(147.481217 0) scale(0.996264)"/>
     <use xlink:href="#CMR17-63" transform="translate(182.761984 0) scale(0.996264)"/>
     <use xlink:href="#CMR17-65" transform="translate(223.247645 0) scale(0.996264)"/>
     <use xlink:href="#CMR17-3a" transform="translate(263.733305 0) scale(0.996264)"/>
     <use xlink:href="#CMR17-45" transform="translate(329.090024 0) scale(0.996264)"/>
     <use xlink:href="#CMR17-4c" transform="translate(391.676325 0) scale(0.996264)"/>
     <use xlink:href="#CMR17-43" transform="translate(449.057733 0) scale(0.996264)"/>
     <use xlink:href="#CMR17-4f" transform="translate(515.567613 0) scale(0.996264)"/>
     <use xlink:href="#CMR17-4e" transform="translate(587.282402 0) scale(0.996264)"/>
     <use xlink:href="#CMR17-41" transform="translate(686.430798 0) scale(0.996264)"/>
     <use xlink:href="#CMR17-2f" transform="translate(755.503228 0) scale(0.996264)"/>
     <use xlink:href="#CMR17-53" transform="translate(801.193705 0) scale(0.996264)"/>
    </g>
   </g>
   <g id="legend_1">
    <g id="patch_5">
     <path d="M 324.580207 356.999746 
L 434.468219 356.999746 
Q 436.468219 356.999746 436.468219 354.999746 
L 436.468219 342.062567 
Q 436.468219 340.062567 434.468219 340.062567 
L 324.580207 340.062567 
Q 322.580207 340.062567 322.580207 342.062567 
L 322.580207 354.999746 
Q 322.580207 356.999746 324.580207 356.999746 
z
" style="fill: #ffffff; opacity: 0.8"/>
    </g>
    <g id="line2d_20">
     <path d="M 326.580207 347.562567 
L 336.580207 347.562567 
L 346.580207 347.562567 
" style="fill: none; stroke: #006e64; stroke-width: 1.5; stroke-linecap: round"/>
    </g>
    <g id="text_19">
     <!-- 505 -->
     <g style="fill: #262626" transform="translate(354.580207 351.062567) scale(0.1 -0.1)">
      <defs>
       <path id="CMR17-35" d="M 730 3692 
C 794 3666 1056 3584 1325 3584 
C 1920 3584 2246 3911 2432 4100 
C 2432 4157 2432 4192 2394 4192 
C 2387 4192 2374 4192 2323 4163 
C 2099 4058 1837 3973 1517 3973 
C 1325 3973 1037 3999 723 4139 
C 653 4171 640 4171 634 4171 
C 602 4171 595 4164 595 4037 
L 595 2203 
C 595 2089 595 2057 659 2057 
C 691 2057 704 2070 736 2114 
C 941 2401 1222 2522 1542 2522 
C 1766 2522 2246 2382 2246 1289 
C 2246 1085 2246 715 2054 421 
C 1894 159 1645 25 1370 25 
C 947 25 518 320 403 814 
C 429 807 480 795 506 795 
C 589 795 749 840 749 1038 
C 749 1210 627 1280 506 1280 
C 358 1280 262 1190 262 1011 
C 262 454 704 -128 1382 -128 
C 2042 -128 2669 440 2669 1264 
C 2669 2030 2170 2624 1549 2624 
C 1222 2624 947 2503 730 2274 
L 730 3692 
z
" transform="scale(0.015625)"/>
      </defs>
      <use xlink:href="#CMR17-35" transform="scale(0.996264)"/>
      <use xlink:href="#CMR17-30" transform="translate(45.690477 0) scale(0.996264)"/>
      <use xlink:href="#CMR17-35" transform="translate(91.380954 0) scale(0.996264)"/>
     </g>
    </g>
    <g id="line2d_21">
     <path d="M 389.524213 347.562567 
L 399.524213 347.562567 
L 409.524213 347.562567 
" style="fill: none; stroke: #c17150; stroke-width: 1.5; stroke-linecap: round"/>
    </g>
    <g id="text_20">
     <!-- 515 -->
     <g style="fill: #262626" transform="translate(417.524213 351.062567) scale(0.1 -0.1)">
      <use xlink:href="#CMR17-35" transform="scale(0.996264)"/>
      <use xlink:href="#CMR17-31" transform="translate(45.690477 0) scale(0.996264)"/>
      <use xlink:href="#CMR17-35" transform="translate(91.380954 0) scale(0.996264)"/>
     </g>
    </g>
   </g>
  </g>
 </g>
 <defs>
  <clipPath id="p50451adfbf">
   <rect x="42.048666" y="3.00024" width="674.951094" height="301.874843"/>
  </clipPath>
 </defs>
</svg>
