<?xml version="1.0" encoding="utf-8" standalone="no"?>
<!DOCTYPE svg PUBLIC "-//W3C//DTD SVG 1.1//EN"
  "http://www.w3.org/Graphics/SVG/1.1/DTD/svg11.dtd">
<svg xmlns:xlink="http://www.w3.org/1999/xlink" width="720pt" height="360pt" viewBox="0 0 720 360" xmlns="http://www.w3.org/2000/svg" version="1.1">
 <metadata>
  <rdf:RDF xmlns:dc="http://purl.org/dc/elements/1.1/" xmlns:cc="http://creativecommons.org/ns#" xmlns:rdf="http://www.w3.org/1999/02/22-rdf-syntax-ns#">
   <cc:Work>
    <dc:type rdf:resource="http://purl.org/dc/dcmitype/StillImage"/>
    <dc:date>2023-10-18T14:59:21.477398</dc:date>
    <dc:format>image/svg+xml</dc:format>
    <dc:creator>
     <cc:Agent>
      <dc:title>Matplotlib v3.6.3, https://matplotlib.org/</dc:title>
     </cc:Agent>
    </dc:creator>
   </cc:Work>
  </rdf:RDF>
 </metadata>
 <defs>
  <style type="text/css">*{stroke-linejoin: round; stroke-linecap: butt}</style>
 </defs>
 <g id="figure_1">
  <g id="patch_1">
   <path d="M 0 360 
L 720 360 
L 720 0 
L 0 0 
z
" style="fill: #ffffff"/>
  </g>
  <g id="axes_1">
   <g id="patch_2">
    <path d="M 42.048666 304.946828 
L 716.99976 304.946828 
L 716.99976 3.800384 
L 42.048666 3.800384 
z
" style="fill: #ffffff"/>
   </g>
   <g id="matplotlib.axis_1">
    <g id="xtick_1">
     <g id="line2d_1">
      <path d="M 93.059117 304.946828 
L 93.059117 3.800384 
" clip-path="url(#p6d034a9415)" style="fill: none; stroke: #cccccc; stroke-opacity: 0.35; stroke-width: 0.8; stroke-linecap: round"/>
     </g>
     <g id="text_1">
      <!-- $\mathdefault{2014}$ -->
      <g transform="translate(83.096447 315.365326) scale(0.1 -0.1)">
       <defs>
        <path id="CMR17-32" d="M 2669 989 
L 2554 989 
C 2490 536 2438 459 2413 420 
C 2381 369 1920 369 1830 369 
L 602 369 
C 832 619 1280 1072 1824 1597 
C 2214 1967 2669 2402 2669 3035 
C 2669 3790 2067 4224 1395 4224 
C 691 4224 262 3604 262 3030 
C 262 2780 448 2748 525 2748 
C 589 2748 781 2787 781 3010 
C 781 3207 614 3264 525 3264 
C 486 3264 448 3258 422 3245 
C 544 3790 915 4058 1306 4058 
C 1862 4058 2227 3617 2227 3035 
C 2227 2479 1901 2000 1536 1584 
L 262 146 
L 262 0 
L 2515 0 
L 2669 989 
z
" transform="scale(0.015625)"/>
        <path id="CMR17-30" d="M 2688 2025 
C 2688 2416 2682 3080 2413 3591 
C 2176 4039 1798 4198 1466 4198 
C 1158 4198 768 4058 525 3597 
C 269 3118 243 2524 243 2025 
C 243 1661 250 1106 448 619 
C 723 -39 1216 -128 1466 -128 
C 1760 -128 2208 -7 2470 600 
C 2662 1042 2688 1559 2688 2025 
z
M 1466 -26 
C 1056 -26 813 325 723 812 
C 653 1188 653 1738 653 2096 
C 653 2588 653 2997 736 3387 
C 858 3929 1216 4096 1466 4096 
C 1728 4096 2067 3923 2189 3400 
C 2272 3036 2278 2607 2278 2096 
C 2278 1680 2278 1169 2202 792 
C 2067 95 1690 -26 1466 -26 
z
" transform="scale(0.015625)"/>
        <path id="CMR17-31" d="M 1702 4058 
C 1702 4192 1696 4192 1606 4192 
C 1357 3916 979 3827 621 3827 
C 602 3827 570 3827 563 3808 
C 557 3795 557 3782 557 3648 
C 755 3648 1088 3686 1344 3839 
L 1344 461 
C 1344 236 1331 160 781 160 
L 589 160 
L 589 0 
C 896 0 1216 0 1523 0 
C 1830 0 2150 0 2458 0 
L 2458 160 
L 2266 160 
C 1715 160 1702 230 1702 458 
L 1702 4058 
z
" transform="scale(0.015625)"/>
        <path id="CMR17-34" d="M 2150 4122 
C 2150 4256 2144 4256 2029 4256 
L 128 1254 
L 128 1088 
L 1779 1088 
L 1779 457 
C 1779 224 1766 160 1318 160 
L 1197 160 
L 1197 0 
C 1402 0 1747 0 1965 0 
C 2182 0 2528 0 2733 0 
L 2733 160 
L 2611 160 
C 2163 160 2150 224 2150 457 
L 2150 1088 
L 2803 1088 
L 2803 1254 
L 2150 1254 
L 2150 4122 
z
M 1798 3703 
L 1798 1254 
L 256 1254 
L 1798 3703 
z
" transform="scale(0.015625)"/>
       </defs>
       <use xlink:href="#CMR17-32" transform="scale(0.996264)"/>
       <use xlink:href="#CMR17-30" transform="translate(45.690477 0) scale(0.996264)"/>
       <use xlink:href="#CMR17-31" transform="translate(91.380954 0) scale(0.996264)"/>
       <use xlink:href="#CMR17-34" transform="translate(137.071431 0) scale(0.996264)"/>
      </g>
     </g>
    </g>
    <g id="xtick_2">
     <g id="line2d_2">
      <path d="M 214.710961 304.946828 
L 214.710961 3.800384 
" clip-path="url(#p6d034a9415)" style="fill: none; stroke: #cccccc; stroke-opacity: 0.35; stroke-width: 0.8; stroke-linecap: round"/>
     </g>
     <g id="text_2">
      <!-- $\mathdefault{2016}$ -->
      <g transform="translate(204.748291 315.365326) scale(0.1 -0.1)">
       <defs>
        <path id="CMR17-36" d="M 678 2176 
C 678 3690 1395 4032 1811 4032 
C 1946 4032 2272 4009 2400 3776 
C 2298 3776 2106 3776 2106 3553 
C 2106 3381 2246 3323 2336 3323 
C 2394 3323 2566 3348 2566 3560 
C 2566 3954 2246 4179 1805 4179 
C 1043 4179 243 3390 243 1984 
C 243 253 966 -128 1478 -128 
C 2099 -128 2688 427 2688 1283 
C 2688 2081 2170 2662 1517 2662 
C 1126 2662 838 2407 678 1960 
L 678 2176 
z
M 1478 25 
C 691 25 691 1200 691 1436 
C 691 1896 909 2560 1504 2560 
C 1613 2560 1926 2560 2138 2120 
C 2253 1870 2253 1609 2253 1289 
C 2253 944 2253 690 2118 434 
C 1978 171 1773 25 1478 25 
z
" transform="scale(0.015625)"/>
       </defs>
       <use xlink:href="#CMR17-32" transform="scale(0.996264)"/>
       <use xlink:href="#CMR17-30" transform="translate(45.690477 0) scale(0.996264)"/>
       <use xlink:href="#CMR17-31" transform="translate(91.380954 0) scale(0.996264)"/>
       <use xlink:href="#CMR17-36" transform="translate(137.071431 0) scale(0.996264)"/>
      </g>
     </g>
    </g>
    <g id="xtick_3">
     <g id="line2d_3">
      <path d="M 336.529452 304.946828 
L 336.529452 3.800384 
" clip-path="url(#p6d034a9415)" style="fill: none; stroke: #cccccc; stroke-opacity: 0.35; stroke-width: 0.8; stroke-linecap: round"/>
     </g>
     <g id="text_3">
      <!-- $\mathdefault{2018}$ -->
      <g transform="translate(326.566781 315.365326) scale(0.1 -0.1)">
       <defs>
        <path id="CMR17-38" d="M 1741 2264 
C 2144 2467 2554 2773 2554 3263 
C 2554 3841 1990 4179 1472 4179 
C 890 4179 378 3759 378 3180 
C 378 3021 416 2747 666 2505 
C 730 2442 998 2251 1171 2130 
C 883 1983 211 1634 211 934 
C 211 279 838 -128 1459 -128 
C 2144 -128 2720 362 2720 1010 
C 2720 1590 2330 1857 2074 2029 
L 1741 2264 
z
M 902 2822 
C 851 2854 595 3051 595 3351 
C 595 3739 998 4032 1459 4032 
C 1965 4032 2336 3676 2336 3262 
C 2336 2669 1670 2331 1638 2331 
C 1632 2331 1626 2331 1574 2370 
L 902 2822 
z
M 2080 1519 
C 2176 1449 2483 1240 2483 851 
C 2483 381 2010 25 1472 25 
C 890 25 448 438 448 940 
C 448 1443 838 1862 1280 2060 
L 2080 1519 
z
" transform="scale(0.015625)"/>
       </defs>
       <use xlink:href="#CMR17-32" transform="scale(0.996264)"/>
       <use xlink:href="#CMR17-30" transform="translate(45.690477 0) scale(0.996264)"/>
       <use xlink:href="#CMR17-31" transform="translate(91.380954 0) scale(0.996264)"/>
       <use xlink:href="#CMR17-38" transform="translate(137.071431 0) scale(0.996264)"/>
      </g>
     </g>
    </g>
    <g id="xtick_4">
     <g id="line2d_4">
      <path d="M 458.181296 304.946828 
L 458.181296 3.800384 
" clip-path="url(#p6d034a9415)" style="fill: none; stroke: #cccccc; stroke-opacity: 0.35; stroke-width: 0.8; stroke-linecap: round"/>
     </g>
     <g id="text_4">
      <!-- $\mathdefault{2020}$ -->
      <g transform="translate(448.218625 315.365326) scale(0.1 -0.1)">
       <use xlink:href="#CMR17-32" transform="scale(0.996264)"/>
       <use xlink:href="#CMR17-30" transform="translate(45.690477 0) scale(0.996264)"/>
       <use xlink:href="#CMR17-32" transform="translate(91.380954 0) scale(0.996264)"/>
       <use xlink:href="#CMR17-30" transform="translate(137.071431 0) scale(0.996264)"/>
      </g>
     </g>
    </g>
    <g id="xtick_5">
     <g id="line2d_5">
      <path d="M 579.999786 304.946828 
L 579.999786 3.800384 
" clip-path="url(#p6d034a9415)" style="fill: none; stroke: #cccccc; stroke-opacity: 0.35; stroke-width: 0.8; stroke-linecap: round"/>
     </g>
     <g id="text_5">
      <!-- $\mathdefault{2022}$ -->
      <g transform="translate(570.037116 315.365326) scale(0.1 -0.1)">
       <use xlink:href="#CMR17-32" transform="scale(0.996264)"/>
       <use xlink:href="#CMR17-30" transform="translate(45.690477 0) scale(0.996264)"/>
       <use xlink:href="#CMR17-32" transform="translate(91.380954 0) scale(0.996264)"/>
       <use xlink:href="#CMR17-32" transform="translate(137.071431 0) scale(0.996264)"/>
      </g>
     </g>
    </g>
    <g id="xtick_6">
     <g id="line2d_6">
      <path d="M 701.65163 304.946828 
L 701.65163 3.800384 
" clip-path="url(#p6d034a9415)" style="fill: none; stroke: #cccccc; stroke-opacity: 0.35; stroke-width: 0.8; stroke-linecap: round"/>
     </g>
     <g id="text_6">
      <!-- $\mathdefault{2024}$ -->
      <g transform="translate(691.68896 315.365326) scale(0.1 -0.1)">
       <use xlink:href="#CMR17-32" transform="scale(0.996264)"/>
       <use xlink:href="#CMR17-30" transform="translate(45.690477 0) scale(0.996264)"/>
       <use xlink:href="#CMR17-32" transform="translate(91.380954 0) scale(0.996264)"/>
       <use xlink:href="#CMR17-34" transform="translate(137.071431 0) scale(0.996264)"/>
      </g>
     </g>
    </g>
    <g id="text_7">
     <!-- Date -->
     <g style="fill: #696969" transform="translate(369.077259 328.221003) scale(0.1 -0.1)">
      <defs>
       <path id="CMR17-44" d="M 333 4352 
L 333 4186 
C 774 4186 845 4186 845 3900 
L 845 452 
C 845 166 774 166 333 166 
L 333 0 
L 2368 0 
C 3398 0 4224 943 4224 2141 
C 4224 3346 3411 4352 2368 4352 
L 333 4352 
z
M 1523 166 
C 1267 166 1254 197 1254 414 
L 1254 3938 
C 1254 4155 1267 4186 1523 4186 
L 2240 4186 
C 2771 4186 3750 3874 3750 2141 
C 3750 1242 3488 879 3366 707 
C 3213 510 2848 166 2240 166 
L 1523 166 
z
" transform="scale(0.015625)"/>
       <path id="CMR17-61" d="M 2304 1653 
C 2304 2072 2304 2294 2035 2543 
C 1798 2752 1523 2816 1306 2816 
C 800 2816 435 2407 435 1971 
C 435 1728 627 1728 666 1728 
C 749 1728 896 1778 896 1954 
C 896 2112 774 2181 666 2181 
C 640 2181 608 2174 589 2168 
C 723 2592 1069 2714 1293 2714 
C 1613 2714 1965 2429 1965 1885 
L 1965 1600 
C 1587 1600 1133 1549 774 1357 
C 371 1133 256 813 256 570 
C 256 77 832 -64 1171 -64 
C 1523 -64 1850 139 1990 511 
C 2003 233 2182 -18 2464 -18 
C 2598 -18 2938 70 2938 567 
L 2938 920 
L 2822 920 
L 2822 562 
C 2822 178 2650 128 2566 128 
C 2304 128 2304 458 2304 738 
L 2304 1653 
z
M 1965 870 
C 1965 317 1568 38 1216 38 
C 896 38 646 275 646 570 
C 646 761 730 1100 1101 1305 
C 1408 1478 1760 1504 1965 1504 
L 1965 870 
z
" transform="scale(0.015625)"/>
       <path id="CMR17-74" d="M 966 2560 
L 1862 2560 
L 1862 2725 
L 966 2725 
L 966 3904 
L 851 3904 
C 838 3245 614 2668 70 2668 
L 70 2560 
L 627 2560 
L 627 771 
C 627 650 627 -64 1370 -64 
C 1747 -64 1965 306 1965 777 
L 1965 1140 
L 1850 1140 
L 1850 783 
C 1850 344 1677 51 1408 51 
C 1222 51 966 178 966 758 
L 966 2560 
z
" transform="scale(0.015625)"/>
       <path id="CMR17-65" d="M 2438 1472 
C 2464 1498 2464 1511 2464 1576 
C 2464 2238 2118 2816 1389 2816 
C 710 2816 173 2169 173 1383 
C 173 551 781 -64 1459 -64 
C 2176 -64 2458 607 2458 740 
C 2458 784 2419 784 2406 784 
C 2362 784 2355 771 2330 696 
C 2189 265 1837 51 1504 51 
C 1229 51 954 203 781 480 
C 582 803 582 1176 582 1472 
L 2438 1472 
z
M 589 1568 
C 634 2505 1126 2714 1382 2714 
C 1818 2714 2112 2297 2118 1568 
L 589 1568 
z
" transform="scale(0.015625)"/>
      </defs>
      <use xlink:href="#CMR17-44" transform="scale(0.996264)"/>
      <use xlink:href="#CMR17-61" transform="translate(70.393556 0) scale(0.996264)"/>
      <use xlink:href="#CMR17-74" transform="translate(116.084033 0) scale(0.996264)"/>
      <use xlink:href="#CMR17-65" transform="translate(151.364801 0) scale(0.996264)"/>
     </g>
    </g>
   </g>
   <g id="matplotlib.axis_2">
    <g id="ytick_1">
     <g id="line2d_7">
      <path d="M 42.048666 265.54033 
L 716.99976 265.54033 
" clip-path="url(#p6d034a9415)" style="fill: none; stroke: #cccccc; stroke-opacity: 0.35; stroke-width: 0.8; stroke-linecap: round"/>
     </g>
     <g id="text_8">
      <!-- $\mathdefault{−600}$ -->
      <g transform="translate(15.855917 268.999579) scale(0.1 -0.1)">
       <defs>
        <path id="CMSY10-0" d="M 4218 1472 
C 4326 1472 4442 1472 4442 1600 
C 4442 1728 4326 1728 4218 1728 
L 755 1728 
C 646 1728 531 1728 531 1600 
C 531 1472 646 1472 755 1472 
L 4218 1472 
z
" transform="scale(0.015625)"/>
       </defs>
       <use xlink:href="#CMSY10-0" transform="scale(0.996264)"/>
       <use xlink:href="#CMR17-36" transform="translate(77.487468 0) scale(0.996264)"/>
       <use xlink:href="#CMR17-30" transform="translate(123.177945 0) scale(0.996264)"/>
       <use xlink:href="#CMR17-30" transform="translate(168.868422 0) scale(0.996264)"/>
      </g>
     </g>
    </g>
    <g id="ytick_2">
     <g id="line2d_8">
      <path d="M 42.048666 213.724142 
L 716.99976 213.724142 
" clip-path="url(#p6d034a9415)" style="fill: none; stroke: #cccccc; stroke-opacity: 0.35; stroke-width: 0.8; stroke-linecap: round"/>
     </g>
     <g id="text_9">
      <!-- $\mathdefault{−400}$ -->
      <g transform="translate(15.855917 217.183391) scale(0.1 -0.1)">
       <use xlink:href="#CMSY10-0" transform="scale(0.996264)"/>
       <use xlink:href="#CMR17-34" transform="translate(77.487468 0) scale(0.996264)"/>
       <use xlink:href="#CMR17-30" transform="translate(123.177945 0) scale(0.996264)"/>
       <use xlink:href="#CMR17-30" transform="translate(168.868422 0) scale(0.996264)"/>
      </g>
     </g>
    </g>
    <g id="ytick_3">
     <g id="line2d_9">
      <path d="M 42.048666 161.907954 
L 716.99976 161.907954 
" clip-path="url(#p6d034a9415)" style="fill: none; stroke: #cccccc; stroke-opacity: 0.35; stroke-width: 0.8; stroke-linecap: round"/>
     </g>
     <g id="text_10">
      <!-- $\mathdefault{−200}$ -->
      <g transform="translate(15.855917 165.367204) scale(0.1 -0.1)">
       <use xlink:href="#CMSY10-0" transform="scale(0.996264)"/>
       <use xlink:href="#CMR17-32" transform="translate(77.487468 0) scale(0.996264)"/>
       <use xlink:href="#CMR17-30" transform="translate(123.177945 0) scale(0.996264)"/>
       <use xlink:href="#CMR17-30" transform="translate(168.868422 0) scale(0.996264)"/>
      </g>
     </g>
    </g>
    <g id="ytick_4">
     <g id="line2d_10">
      <path d="M 42.048666 110.091767 
L 716.99976 110.091767 
" clip-path="url(#p6d034a9415)" style="fill: none; stroke: #cccccc; stroke-opacity: 0.35; stroke-width: 0.8; stroke-linecap: round"/>
     </g>
     <g id="text_11">
      <!-- $\mathdefault{0}$ -->
      <g transform="translate(33.567331 113.551016) scale(0.1 -0.1)">
       <use xlink:href="#CMR17-30" transform="scale(0.996264)"/>
      </g>
     </g>
    </g>
    <g id="ytick_5">
     <g id="line2d_11">
      <path d="M 42.048666 58.275579 
L 716.99976 58.275579 
" clip-path="url(#p6d034a9415)" style="fill: none; stroke: #cccccc; stroke-opacity: 0.35; stroke-width: 0.8; stroke-linecap: round"/>
     </g>
     <g id="text_12">
      <!-- $\mathdefault{200}$ -->
      <g transform="translate(23.60466 61.734828) scale(0.1 -0.1)">
       <use xlink:href="#CMR17-32" transform="scale(0.996264)"/>
       <use xlink:href="#CMR17-30" transform="translate(45.690477 0) scale(0.996264)"/>
       <use xlink:href="#CMR17-30" transform="translate(91.380954 0) scale(0.996264)"/>
      </g>
     </g>
    </g>
    <g id="ytick_6">
     <g id="line2d_12">
      <path d="M 42.048666 6.459391 
L 716.99976 6.459391 
" clip-path="url(#p6d034a9415)" style="fill: none; stroke: #cccccc; stroke-opacity: 0.35; stroke-width: 0.8; stroke-linecap: round"/>
     </g>
     <g id="text_13">
      <!-- $\mathdefault{400}$ -->
      <g transform="translate(23.60466 9.91864) scale(0.1 -0.1)">
       <use xlink:href="#CMR17-34" transform="scale(0.996264)"/>
       <use xlink:href="#CMR17-30" transform="translate(45.690477 0) scale(0.996264)"/>
       <use xlink:href="#CMR17-30" transform="translate(91.380954 0) scale(0.996264)"/>
      </g>
     </g>
    </g>
    <g id="text_14">
     <!-- Risk -->
     <g style="fill: #696969" transform="translate(9.918738 164.018012) rotate(-90) scale(0.1 -0.1)">
      <defs>
       <path id="CMR17-52" d="M 2509 2146 
C 3117 2268 3629 2676 3629 3186 
C 3629 3785 2950 4326 2054 4326 
L 333 4326 
L 333 4160 
C 774 4160 845 4160 845 3873 
L 845 415 
C 845 128 774 128 333 128 
L 333 -26 
C 518 -26 851 -26 1050 -26 
C 1248 -26 1581 -26 1766 -26 
L 1766 128 
C 1325 128 1254 128 1254 417 
L 1254 2112 
L 2003 2112 
C 2368 2112 2573 1964 2662 1881 
C 2918 1632 2918 1459 2918 1024 
C 2918 595 2918 377 3110 160 
C 3354 -102 3680 -128 3821 -128 
C 4294 -128 4365 396 4365 503 
C 4365 540 4365 585 4307 585 
C 4256 585 4250 547 4250 522 
C 4218 112 4032 -26 3834 -26 
C 3482 -26 3443 375 3405 764 
C 3386 898 3373 993 3360 1133 
C 3322 1452 3270 1917 2509 2146 
z
M 1984 2214 
L 1254 2214 
L 1254 3913 
C 1254 4129 1267 4160 1523 4160 
L 1990 4160 
C 2522 4160 3142 3977 3142 3190 
C 3142 2372 2464 2214 1984 2214 
z
" transform="scale(0.015625)"/>
       <path id="CMR17-69" d="M 992 3909 
C 992 4049 877 4170 730 4170 
C 589 4170 467 4056 467 3909 
C 467 3769 582 3648 730 3648 
C 870 3648 992 3763 992 3909 
z
M 243 2706 
L 243 2541 
C 602 2541 653 2502 653 2197 
L 653 427 
C 653 184 627 153 218 153 
L 218 -13 
C 371 0 646 0 806 0 
C 960 0 1222 0 1370 -13 
L 1370 153 
C 992 153 979 191 979 420 
L 979 2776 
L 243 2706 
z
" transform="scale(0.015625)"/>
       <path id="CMR17-73" d="M 1978 2697 
C 1978 2813 1971 2819 1933 2819 
C 1907 2819 1901 2813 1824 2717 
C 1805 2691 1747 2626 1728 2601 
C 1523 2819 1235 2819 1126 2819 
C 416 2819 160 2447 160 2076 
C 160 1498 813 1365 998 1325 
C 1402 1243 1542 1217 1677 1101 
C 1760 1025 1901 884 1901 654 
C 1901 384 1747 38 1158 38 
C 602 38 403 460 288 1021 
C 269 1110 269 1117 218 1117 
C 166 1117 160 1110 160 983 
L 160 63 
C 160 -51 166 -58 205 -58 
C 237 -58 243 -51 275 0 
C 314 57 410 211 448 276 
C 576 103 800 -64 1158 -64 
C 1792 -64 2131 283 2131 784 
C 2131 1112 1958 1285 1875 1362 
C 1683 1561 1459 1606 1190 1657 
C 838 1735 390 1825 390 2217 
C 390 2383 480 2737 1126 2737 
C 1811 2737 1850 2094 1862 1888 
C 1869 1856 1901 1849 1920 1849 
C 1978 1849 1978 1869 1978 1978 
L 1978 2697 
z
" transform="scale(0.015625)"/>
       <path id="CMR17-6b" d="M 1670 1673 
C 1664 1686 1632 1724 1632 1743 
C 1632 1756 2086 2171 2144 2222 
C 2509 2528 2739 2560 2906 2560 
L 2906 2733 
C 2867 2733 2854 2733 2848 2720 
L 2534 2720 
C 2355 2720 2080 2720 1907 2733 
L 1907 2566 
C 1997 2559 2061 2508 2061 2419 
C 2061 2291 1933 2170 1926 2170 
L 960 1289 
L 960 4396 
L 198 4326 
L 198 4160 
C 576 4160 634 4122 634 3817 
L 634 426 
C 634 184 608 153 198 153 
L 198 -13 
C 352 0 634 0 794 0 
C 954 0 1235 0 1389 -13 
L 1389 153 
C 979 153 954 178 954 428 
L 954 1130 
L 1395 1532 
L 2042 574 
C 2118 459 2182 369 2182 286 
C 2182 172 2067 153 1990 153 
L 1990 -13 
C 2144 0 2419 0 2579 0 
C 2694 0 2931 0 3040 0 
L 3040 153 
C 2739 153 2669 210 2477 491 
L 1670 1673 
z
" transform="scale(0.015625)"/>
      </defs>
      <use xlink:href="#CMR17-52" transform="scale(0.996264)"/>
      <use xlink:href="#CMR17-69" transform="translate(67.791102 0) scale(0.996264)"/>
      <use xlink:href="#CMR17-73" transform="translate(92.66216 0) scale(0.996264)"/>
      <use xlink:href="#CMR17-6b" transform="translate(128.463498 0) scale(0.996264)"/>
     </g>
    </g>
   </g>
   <g id="PolyCollection_1">
    <defs>
     <path id="mdf1b07783e" d="M 82.893689 -342.268549 
L 82.893689 -331.031511 
L 87.89308 -323.152979 
L 93.059117 -322.142996 
L 98.225155 -254.842156 
L 102.891253 -252.427275 
L 108.05729 -252.629427 
L 113.056681 -251.847583 
L 118.222718 -255.722181 
L 123.222109 -247.751082 
L 128.388146 -252.215828 
L 133.554183 -255.580907 
L 138.553574 -252.43496 
L 143.719611 -250.918337 
L 148.719002 -260.883735 
L 153.885039 -245.197631 
L 159.051077 -245.999948 
L 163.717175 -247.603137 
L 168.883212 -248.571499 
L 173.882603 -241.793031 
L 179.04864 -246.285578 
L 184.048031 -243.788088 
L 189.214068 -235.35555 
L 194.380105 -235.886442 
L 199.379496 -229.819978 
L 204.545533 -239.874708 
L 209.544924 -233.901532 
L 214.710961 -252.305723 
L 219.876999 -252.326483 
L 224.709743 -252.812722 
L 229.87578 -253.272554 
L 234.875171 -251.479339 
L 240.041208 -242.468113 
L 245.040599 -231.361976 
L 250.206636 -250.367853 
L 255.372674 -247.033842 
L 260.372065 -226.839221 
L 265.538102 -238.737481 
L 270.537493 -251.194102 
L 275.70353 -221.823538 
L 280.869567 -250.498673 
L 285.535665 -239.956531 
L 290.701702 -223.003998 
L 295.701093 -235.748178 
L 300.86713 -236.071671 
L 305.866521 -220.375408 
L 311.032558 -234.007889 
L 316.198596 -221.495979 
L 321.197987 -250.206084 
L 326.364024 -201.192637 
L 331.363415 -202.099699 
L 336.529452 -191.429734 
L 341.695489 -218.764626 
L 346.361587 -241.323896 
L 351.527624 -247.780372 
L 356.527015 -249.501755 
L 361.693052 -246.830397 
L 366.692443 -244.848522 
L 371.85848 -244.50206 
L 377.024518 -242.33721 
L 382.023909 -244.528257 
L 387.189946 -241.635267 
L 392.189337 -239.847612 
L 397.355374 -240.652451 
L 402.521411 -238.68908 
L 407.187509 -236.040116 
L 412.353546 -235.604201 
L 417.352937 -231.723717 
L 422.518974 -230.634458 
L 427.518365 -239.530191 
L 432.684402 -231.54138 
L 437.85044 -246.206007 
L 442.849831 -247.274083 
L 448.015868 -249.234143 
L 453.015259 -249.30713 
L 458.181296 -249.948127 
L 463.347333 -248.959165 
L 468.180077 -245.608015 
L 473.346115 -241.247229 
L 478.345506 -242.650824 
L 483.511543 -247.41106 
L 488.510934 -242.119178 
L 493.676971 -248.646291 
L 498.843008 -246.009501 
L 503.842399 -242.762652 
L 509.008436 -240.607777 
L 514.007827 -241.410948 
L 519.173864 -251.642446 
L 524.339901 -250.933784 
L 529.005999 -251.401628 
L 534.172037 -251.09025 
L 539.171428 -251.165586 
L 544.337465 -248.655136 
L 549.336856 -246.931778 
L 554.502893 -249.803648 
L 559.66893 -245.902051 
L 564.668321 -237.940904 
L 569.834358 -225.343722 
L 574.833749 -247.493677 
L 579.999786 -251.645968 
L 585.165823 -241.932914 
L 589.831921 -238.662326 
L 594.997959 -221.943343 
L 599.99735 -247.063771 
L 605.163387 -246.326499 
L 610.162778 -244.078368 
L 615.328815 -248.217881 
L 620.494852 -248.430163 
L 625.494243 -219.380911 
L 630.66028 -229.514941 
L 635.659671 -247.049928 
L 640.825708 -197.222195 
L 645.991745 -109.158472 
L 650.657843 -75.455505 
L 655.823881 -68.741647 
L 660.823271 -154.903593 
L 665.989309 -200.680661 
L 670.9887 -246.080361 
L 676.154737 -244.764738 
L 681.320774 -169.939581 
L 686.320165 -122.346707 
L 686.320165 -246.64291 
L 686.320165 -246.64291 
L 681.320774 -247.884145 
L 676.154737 -254.749082 
L 670.9887 -252.539651 
L 665.989309 -250.170108 
L 660.823271 -247.938856 
L 655.823881 -253.573369 
L 650.657843 -244.950928 
L 645.991745 -244.687187 
L 640.825708 -248.294188 
L 635.659671 -324.11323 
L 630.66028 -248.556526 
L 625.494243 -249.18467 
L 620.494852 -269.641006 
L 615.328815 -257.192552 
L 610.162778 -287.536271 
L 605.163387 -296.513701 
L 599.99735 -272.775542 
L 594.997959 -248.518701 
L 589.831921 -254.597687 
L 585.165823 -259.458869 
L 579.999786 -266.279416 
L 574.833749 -257.067303 
L 569.834358 -250.825906 
L 564.668321 -251.959759 
L 559.66893 -297.291232 
L 554.502893 -282.663661 
L 549.336856 -252.98141 
L 544.337465 -289.750615 
L 539.171428 -308.177728 
L 534.172037 -288.777515 
L 529.005999 -281.657453 
L 524.339901 -269.752546 
L 519.173864 -274.454538 
L 514.007827 -294.427031 
L 509.008436 -288.766579 
L 503.842399 -292.815508 
L 498.843008 -299.61398 
L 493.676971 -266.172431 
L 488.510934 -251.595871 
L 483.511543 -253.714465 
L 478.345506 -250.886583 
L 473.346115 -251.443305 
L 468.180077 -250.35066 
L 463.347333 -253.552304 
L 458.181296 -258.993654 
L 453.015259 -264.140542 
L 448.015868 -258.354342 
L 442.849831 -253.561605 
L 437.85044 -254.67489 
L 432.684402 -253.670161 
L 427.518365 -255.82453 
L 422.518974 -251.828867 
L 417.352937 -251.753043 
L 412.353546 -253.121844 
L 407.187509 -250.888114 
L 402.521411 -252.251739 
L 397.355374 -251.574849 
L 392.189337 -253.218585 
L 387.189946 -252.341673 
L 382.023909 -254.167093 
L 377.024518 -254.525695 
L 371.85848 -258.658612 
L 366.692443 -258.279936 
L 361.693052 -261.519235 
L 356.527015 -262.186698 
L 351.527624 -263.257078 
L 346.361587 -260.969753 
L 341.695489 -261.446497 
L 336.529452 -259.906083 
L 331.363415 -257.398507 
L 326.364024 -256.636945 
L 321.197987 -255.403794 
L 316.198596 -252.001074 
L 311.032558 -251.616076 
L 305.866521 -250.594784 
L 300.86713 -250.557377 
L 295.701093 -250.833997 
L 290.701702 -251.124163 
L 285.535665 -251.608911 
L 280.869567 -257.486741 
L 275.70353 -251.485715 
L 270.537493 -273.155186 
L 265.538102 -251.657322 
L 260.372065 -250.875519 
L 255.372674 -258.649445 
L 250.206636 -269.314888 
L 245.040599 -251.744826 
L 240.041208 -252.678188 
L 234.875171 -273.407217 
L 229.87578 -322.947683 
L 224.709743 -274.836763 
L 219.876999 -267.976109 
L 214.710961 -263.305132 
L 209.544924 -249.624507 
L 204.545533 -249.916618 
L 199.379496 -247.837599 
L 194.380105 -251.383114 
L 189.214068 -248.730877 
L 184.048031 -251.671549 
L 179.04864 -252.326978 
L 173.882603 -252.074419 
L 168.883212 -264.873327 
L 163.717175 -273.355405 
L 159.051077 -262.782011 
L 153.885039 -267.692077 
L 148.719002 -309.364598 
L 143.719611 -294.301051 
L 138.553574 -307.740817 
L 133.554183 -306.774377 
L 128.388146 -294.747324 
L 123.222109 -291.488898 
L 118.222718 -309.395155 
L 113.056681 -308.733625 
L 108.05729 -321.559891 
L 102.891253 -326.04936 
L 98.225155 -337.905804 
L 93.059117 -342.0132 
L 87.89308 -342.295902 
L 82.893689 -342.268549 
z
" style="stroke: #006e64; stroke-opacity: 0.2"/>
    </defs>
    <g clip-path="url(#p6d034a9415)">
     <use xlink:href="#mdf1b07783e" x="0" y="360" style="fill: #006e64; fill-opacity: 0.2; stroke: #006e64; stroke-opacity: 0.2"/>
    </g>
   </g>
   <g id="PolyCollection_2">
    <defs>
     <path id="m7edb992ad2" d="M 163.717175 -254.451441 
L 163.717175 -249.866192 
L 168.883212 -249.919268 
L 173.882603 -249.990737 
L 179.04864 -250.115841 
L 184.048031 -250.271714 
L 189.214068 -250.110684 
L 194.380105 -249.862114 
L 199.379496 -249.726177 
L 204.545533 -249.306718 
L 209.544924 -249.927896 
L 214.710961 -249.953998 
L 219.876999 -249.809749 
L 224.709743 -249.741463 
L 229.87578 -249.832641 
L 234.875171 -249.674486 
L 240.041208 -249.656465 
L 245.040599 -249.662419 
L 250.206636 -249.455885 
L 255.372674 -249.529971 
L 260.372065 -249.908428 
L 265.538102 -250.131619 
L 270.537493 -250.083894 
L 275.70353 -249.963308 
L 280.869567 -250.208257 
L 285.535665 -250.087161 
L 290.701702 -249.479527 
L 295.701093 -250.181785 
L 300.86713 -249.709501 
L 305.866521 -250.095616 
L 311.032558 -249.892537 
L 316.198596 -249.921281 
L 321.197987 -249.920302 
L 326.364024 -248.938989 
L 331.363415 -249.416227 
L 336.529452 -249.253191 
L 341.695489 -248.749759 
L 346.361587 -245.836833 
L 351.527624 -249.736222 
L 356.527015 -249.167208 
L 361.693052 -249.390761 
L 366.692443 -248.928243 
L 371.85848 -249.582551 
L 377.024518 -249.894119 
L 382.023909 -239.928718 
L 387.189946 -242.009039 
L 392.189337 -227.992609 
L 397.355374 -220.732777 
L 402.521411 -217.707173 
L 407.187509 -210.831657 
L 412.353546 -186.721483 
L 417.352937 -192.928459 
L 422.518974 -193.923471 
L 427.518365 -234.570056 
L 432.684402 -238.466352 
L 437.85044 -157.949242 
L 442.849831 -228.012884 
L 448.015868 -226.391691 
L 453.015259 -233.359946 
L 458.181296 -238.19326 
L 463.347333 -237.415971 
L 468.180077 -248.844761 
L 473.346115 -249.498408 
L 478.345506 -249.613349 
L 483.511543 -250.802388 
L 488.510934 -251.381724 
L 493.676971 -250.279497 
L 498.843008 -249.542963 
L 503.842399 -245.402867 
L 509.008436 -240.132364 
L 514.007827 -232.611969 
L 519.173864 -234.092772 
L 524.339901 -234.892437 
L 529.005999 -249.33404 
L 534.172037 -252.705496 
L 539.171428 -252.229608 
L 544.337465 -251.697714 
L 549.336856 -249.927622 
L 554.502893 -248.52173 
L 559.66893 -248.15383 
L 564.668321 -248.812595 
L 569.834358 -251.139396 
L 574.833749 -252.838883 
L 579.999786 -252.208382 
L 585.165823 -247.63247 
L 589.831921 -244.586492 
L 594.997959 -248.758757 
L 599.99735 -245.11834 
L 605.163387 -245.712538 
L 610.162778 -243.033148 
L 615.328815 -243.529824 
L 620.494852 -245.597047 
L 625.494243 -240.975056 
L 630.66028 -237.993923 
L 635.659671 -227.379338 
L 640.825708 -217.278255 
L 645.991745 -233.276916 
L 650.657843 -216.191855 
L 655.823881 -226.472809 
L 660.823271 -221.101679 
L 665.989309 -225.856046 
L 670.9887 -219.46497 
L 676.154737 -211.142901 
L 681.320774 -221.791254 
L 686.320165 -212.844907 
L 686.320165 -240.914989 
L 686.320165 -240.914989 
L 681.320774 -242.83276 
L 676.154737 -241.02758 
L 670.9887 -244.352646 
L 665.989309 -254.831461 
L 660.823271 -245.927812 
L 655.823881 -248.101434 
L 650.657843 -249.874806 
L 645.991745 -248.098664 
L 640.825708 -244.973046 
L 635.659671 -247.751702 
L 630.66028 -252.604498 
L 625.494243 -256.717722 
L 620.494852 -257.910556 
L 615.328815 -258.69071 
L 610.162778 -252.056603 
L 605.163387 -253.314697 
L 599.99735 -257.059202 
L 594.997959 -258.723322 
L 589.831921 -259.047277 
L 585.165823 -271.940811 
L 579.999786 -268.305518 
L 574.833749 -265.996976 
L 569.834358 -257.923478 
L 564.668321 -256.244334 
L 559.66893 -255.55719 
L 554.502893 -252.98051 
L 549.336856 -253.671893 
L 544.337465 -256.061916 
L 539.171428 -260.580788 
L 534.172037 -261.330529 
L 529.005999 -261.53419 
L 524.339901 -257.234422 
L 519.173864 -251.486975 
L 514.007827 -253.500992 
L 509.008436 -254.098904 
L 503.842399 -257.719814 
L 498.843008 -255.056045 
L 493.676971 -255.891852 
L 488.510934 -263.125342 
L 483.511543 -267.832113 
L 478.345506 -266.482822 
L 473.346115 -262.439433 
L 468.180077 -257.673704 
L 463.347333 -250.31815 
L 458.181296 -251.158517 
L 453.015259 -250.941928 
L 448.015868 -250.217111 
L 442.849831 -250.285237 
L 437.85044 -253.074136 
L 432.684402 -272.578771 
L 427.518365 -259.409198 
L 422.518974 -253.302003 
L 417.352937 -252.687747 
L 412.353546 -256.563845 
L 407.187509 -254.719391 
L 402.521411 -252.02237 
L 397.355374 -250.132374 
L 392.189337 -249.908042 
L 387.189946 -250.426395 
L 382.023909 -251.422817 
L 377.024518 -268.417046 
L 371.85848 -272.25954 
L 366.692443 -270.77757 
L 361.693052 -269.242634 
L 356.527015 -272.704629 
L 351.527624 -265.170382 
L 346.361587 -259.396444 
L 341.695489 -258.199275 
L 336.529452 -258.62602 
L 331.363415 -258.732868 
L 326.364024 -259.687838 
L 321.197987 -257.309845 
L 316.198596 -257.278075 
L 311.032558 -253.685816 
L 305.866521 -253.207674 
L 300.86713 -254.293653 
L 295.701093 -254.875934 
L 290.701702 -256.193752 
L 285.535665 -250.9614 
L 280.869567 -251.147135 
L 275.70353 -250.721846 
L 270.537493 -250.985269 
L 265.538102 -250.792401 
L 260.372065 -250.398676 
L 255.372674 -250.090239 
L 250.206636 -249.917803 
L 245.040599 -249.974419 
L 240.041208 -249.975692 
L 234.875171 -249.987563 
L 229.87578 -250.101108 
L 224.709743 -249.93362 
L 219.876999 -250.047725 
L 214.710961 -250.600847 
L 209.544924 -250.144775 
L 204.545533 -250.289838 
L 199.379496 -250.56978 
L 194.380105 -251.216545 
L 189.214068 -252.083804 
L 184.048031 -252.379182 
L 179.04864 -252.029682 
L 173.882603 -253.906066 
L 168.883212 -254.165108 
L 163.717175 -254.451441 
z
" style="stroke: #c17150; stroke-opacity: 0.2"/>
    </defs>
    <g clip-path="url(#p6d034a9415)">
     <use xlink:href="#m7edb992ad2" x="0" y="360" style="fill: #c17150; fill-opacity: 0.2; stroke: #c17150; stroke-opacity: 0.2"/>
    </g>
   </g>
   <g id="line2d_13">
    <path d="M 72.728261 17.488858 
L 77.727652 17.684359 
L 82.893689 23.34997 
L 87.89308 27.27556 
L 93.059117 27.921902 
L 98.225155 55.674021 
L 102.891253 70.761682 
L 108.05729 72.905341 
L 113.056681 80.641828 
L 118.222718 80.420755 
L 123.222109 95.297169 
L 128.388146 87.409654 
L 133.554183 82.184308 
L 138.553574 84.043075 
L 143.719611 90.337312 
L 148.719002 76.148267 
L 153.885039 103.512108 
L 159.051077 105.96888 
L 163.717175 101.621186 
L 168.883212 104.899391 
L 173.882603 112.063318 
L 179.04864 110.294882 
L 184.048031 111.974175 
L 189.214068 117.076817 
L 194.380105 114.37551 
L 199.379496 120.061457 
L 204.545533 114.243414 
L 209.544924 117.108159 
L 214.710961 103.0431 
L 219.876999 100.808445 
L 224.709743 97.956697 
L 229.87578 81.319074 
L 234.875171 100.729841 
L 240.041208 111.380187 
L 245.040599 116.481751 
L 250.206636 102.742551 
L 255.372674 107.656004 
L 260.372065 119.323691 
L 265.538102 114.087388 
L 270.537493 100.513319 
L 275.70353 120.13188 
L 280.869567 106.587524 
L 285.535665 113.002262 
L 290.701702 119.032026 
L 295.701093 114.910647 
L 300.86713 115.032809 
L 305.866521 120.00969 
L 311.032558 114.608645 
L 316.198596 119.192707 
L 321.197987 107.507606 
L 326.364024 124.071765 
L 331.363415 122.606153 
L 336.529452 126.000991 
L 341.695489 115.774606 
L 346.361587 108.723332 
L 351.527624 105.741737 
L 356.527015 105.087615 
L 361.693052 106.510932 
L 366.692443 108.734172 
L 371.85848 108.327747 
L 377.024518 110.871585 
L 382.023909 109.936942 
L 387.189946 112.267864 
L 392.189337 112.738597 
L 397.355374 113.354453 
L 402.521411 113.824382 
L 407.187509 115.675597 
L 412.353546 114.832692 
L 417.352937 116.933732 
L 422.518974 117.404424 
L 427.518365 111.381322 
L 432.684402 115.859619 
L 437.85044 109.676887 
L 442.849831 109.845644 
L 448.015868 106.782056 
L 453.015259 105.249492 
L 458.181296 106.502778 
L 463.347333 109.149905 
L 468.180077 111.772964 
L 473.346115 112.808484 
L 478.345506 112.861819 
L 483.511543 109.358709 
L 488.510934 112.282719 
L 493.676971 104.825633 
L 498.843008 94.950786 
L 503.842399 98.689829 
L 509.008436 100.505561 
L 514.007827 98.142335 
L 519.173864 99.190705 
L 524.339901 102.134488 
L 529.005999 96.675572 
L 534.172037 95.606083 
L 539.171428 87.653683 
L 544.337465 96.701756 
L 549.336856 110.070321 
L 554.502893 96.880327 
L 559.66893 94.926139 
L 564.668321 114.114105 
L 569.834358 119.219576 
L 574.833749 107.873614 
L 579.999786 101.87661 
L 585.165823 108.463436 
L 589.831921 112.32059 
L 594.997959 120.950527 
L 599.99735 102.526556 
L 605.163387 95.72809 
L 610.162778 97.432606 
L 615.328815 107.925493 
L 620.494852 102.627682 
L 625.494243 121.879653 
L 630.66028 119.405296 
L 635.659671 84.512204 
L 640.825708 130.771816 
L 645.991745 161.554267 
L 650.657843 173.636785 
L 655.823881 172.760216 
L 660.823271 146.545893 
L 665.989309 127.752884 
L 670.9887 110.462398 
L 676.154737 110.092074 
L 681.320774 142.287119 
L 686.320165 156.001359 
" clip-path="url(#p6d034a9415)" style="fill: none; stroke: #006e64; stroke-width: 1.5; stroke-linecap: round"/>
   </g>
   <g id="line2d_14">
    <path d="M 159.051077 105.146613 
L 163.717175 107.841184 
L 168.883212 108.243355 
L 173.882603 108.290007 
L 179.04864 109.046384 
L 184.048031 108.807387 
L 189.214068 109.099665 
L 194.380105 109.631163 
L 199.379496 109.884763 
L 204.545533 110.13873 
L 209.544924 109.990084 
L 214.710961 109.805939 
L 219.876999 110.068952 
L 224.709743 110.143378 
L 229.87578 110.04011 
L 234.875171 110.147875 
L 240.041208 110.172248 
L 245.040599 110.165196 
L 250.206636 110.279941 
L 255.372674 110.168735 
L 260.372065 109.857025 
L 265.538102 109.593283 
L 270.537493 109.507573 
L 275.70353 109.712703 
L 280.869567 109.388952 
L 285.535665 109.527327 
L 290.701702 108.123267 
L 295.701093 108.120477 
L 300.86713 108.596671 
L 305.866521 108.713321 
L 311.032558 108.726845 
L 316.198596 107.134951 
L 321.197987 107.236335 
L 326.364024 106.600601 
L 331.363415 106.592218 
L 336.529452 106.790676 
L 341.695489 107.546982 
L 346.361587 108.471705 
L 351.527624 104.719464 
L 356.527015 101.79581 
L 361.693052 102.855782 
L 366.692443 101.796749 
L 371.85848 101.084487 
L 377.024518 103.495499 
L 382.023909 112.817893 
L 387.189946 113.302399 
L 392.189337 118.42714 
L 397.355374 121.215303 
L 402.521411 122.852446 
L 407.187509 123.93941 
L 412.353546 132.039642 
L 417.352937 130.009844 
L 422.518974 130.169875 
L 427.518365 111.997076 
L 432.684402 107.290382 
L 437.85044 142.345425 
L 442.849831 118.348824 
L 448.015868 117.988261 
L 453.015259 115.191287 
L 458.181296 113.473588 
L 463.347333 114.180624 
L 468.180077 107.421838 
L 473.346115 105.046903 
L 478.345506 103.252481 
L 483.511543 101.989351 
L 488.510934 103.899992 
L 493.676971 107.217945 
L 498.843008 108.117244 
L 503.842399 108.598006 
L 509.008436 111.402794 
L 514.007827 114.199903 
L 519.173864 114.801428 
L 524.339901 112.743546 
L 529.005999 106.148665 
L 534.172037 103.433622 
L 539.171428 103.832081 
L 544.337465 106.200189 
L 549.336856 108.212051 
L 554.502893 109.329156 
L 559.66893 108.32597 
L 564.668321 107.739404 
L 569.834358 105.828616 
L 574.833749 101.307147 
L 579.999786 101.052196 
L 585.165823 102.523781 
L 589.831921 108.724957 
L 594.997959 107.060897 
L 599.99735 109.340215 
L 605.163387 110.521664 
L 610.162778 112.556388 
L 615.328815 109.497962 
L 620.494852 108.918453 
L 625.494243 111.868502 
L 630.66028 114.29828 
L 635.659671 121.384579 
L 640.825708 125.635236 
L 645.991745 118.393579 
L 650.657843 123.672758 
L 655.823881 120.352874 
L 660.823271 123.400062 
L 665.989309 117.525347 
L 670.9887 126.922082 
L 676.154737 132.517229 
L 681.320774 126.398279 
L 686.320165 132.097836 
" clip-path="url(#p6d034a9415)" style="fill: none; stroke: #c17150; stroke-width: 1.5; stroke-linecap: round"/>
   </g>
   <g id="line2d_15"/>
   <g id="line2d_16"/>
   <g id="patch_3">
    <path d="M 42.048666 304.946828 
L 42.048666 3.800384 
" style="fill: none; stroke: #808080; stroke-width: 0.8; stroke-linejoin: miter; stroke-linecap: square"/>
   </g>
   <g id="patch_4">
    <path d="M 42.048666 304.946828 
L 716.99976 304.946828 
" style="fill: none; stroke: #808080; stroke-width: 0.8; stroke-linejoin: miter; stroke-linecap: square"/>
   </g>
   <g id="text_15">
    <!-- Source: ELCON A/S -->
    <g style="fill: #808080" transform="translate(624.264008 352.609455) scale(0.1 -0.1)">
     <defs>
      <path id="CMR17-53" d="M 2803 4290 
C 2803 4404 2797 4411 2758 4411 
C 2720 4411 2707 4385 2682 4328 
L 2490 3907 
C 2246 4257 1875 4416 1472 4416 
C 819 4416 294 3901 294 3253 
C 294 3056 339 2776 557 2510 
C 794 2218 1018 2167 1530 2033 
C 1722 1982 2042 1899 2106 1874 
C 2470 1722 2662 1341 2662 985 
C 2662 527 2336 38 1779 38 
C 1094 38 454 419 410 1311 
C 403 1413 397 1419 352 1419 
C 301 1419 294 1413 294 1285 
L 294 -1 
C 294 -115 301 -122 339 -122 
C 384 -122 397 -90 486 108 
C 493 127 493 140 614 381 
C 934 -39 1472 -128 1779 -128 
C 2477 -128 2970 451 2970 1124 
C 2970 1454 2848 1708 2778 1823 
C 2509 2230 2221 2306 1914 2382 
C 1869 2402 1856 2402 1498 2490 
C 1152 2579 1005 2624 845 2796 
C 666 2992 602 3196 602 3399 
C 602 3812 934 4263 1478 4263 
C 2157 4263 2579 3786 2675 2993 
C 2694 2878 2701 2872 2746 2872 
C 2803 2872 2803 2891 2803 2999 
L 2803 4290 
z
" transform="scale(0.015625)"/>
      <path id="CMR17-6f" d="M 2758 1356 
C 2758 2176 2163 2816 1466 2816 
C 768 2816 173 2176 173 1356 
C 173 551 768 -64 1466 -64 
C 2163 -64 2758 551 2758 1356 
z
M 1466 51 
C 1165 51 909 230 762 480 
C 602 767 582 1126 582 1408 
C 582 1677 595 2010 762 2298 
C 890 2509 1139 2714 1466 2714 
C 1754 2714 1997 2554 2150 2330 
C 2349 2029 2349 1607 2349 1408 
C 2349 1158 2336 775 2163 467 
C 1984 173 1709 51 1466 51 
z
" transform="scale(0.015625)"/>
      <path id="CMR17-75" d="M 1882 2693 
L 1882 2528 
C 2259 2528 2317 2489 2317 2186 
L 2317 1032 
C 2317 500 2029 38 1555 38 
C 1030 38 986 348 986 678 
L 986 2763 
L 211 2693 
L 211 2528 
C 467 2528 640 2528 646 2274 
L 646 1058 
C 646 633 646 361 813 183 
C 896 101 1056 -64 1517 -64 
C 2061 -64 2272 377 2323 506 
L 2330 506 
L 2330 -63 
L 3091 -63 
L 3091 128 
C 2714 128 2656 166 2656 473 
L 2656 2763 
L 1882 2693 
z
" transform="scale(0.015625)"/>
      <path id="CMR17-72" d="M 960 1497 
C 960 2112 1222 2688 1702 2688 
C 1747 2688 1792 2682 1837 2662 
C 1837 2662 1696 2617 1696 2452 
C 1696 2298 1818 2234 1914 2234 
C 1990 2234 2131 2279 2131 2458 
C 2131 2663 1926 2790 1709 2790 
C 1222 2790 1011 2317 947 2093 
L 941 2093 
L 941 2790 
L 198 2720 
L 198 2554 
C 576 2554 634 2515 634 2208 
L 634 428 
C 634 184 608 153 198 153 
L 198 -13 
C 352 0 646 0 813 0 
C 998 0 1325 0 1498 -13 
L 1498 153 
C 1037 153 960 153 960 440 
L 960 1497 
z
" transform="scale(0.015625)"/>
      <path id="CMR17-63" d="M 2234 2240 
C 2112 2240 1933 2240 1933 2017 
C 1933 1838 2080 1787 2163 1787 
C 2208 1787 2394 1807 2394 2024 
C 2394 2467 1958 2803 1466 2803 
C 787 2803 211 2178 211 1363 
C 211 516 813 -64 1466 -64 
C 2259 -64 2458 677 2458 748 
C 2458 774 2451 793 2406 793 
C 2362 793 2355 787 2330 703 
C 2163 180 1798 51 1523 51 
C 1114 51 621 427 621 1369 
C 621 2338 1094 2688 1472 2688 
C 1722 2688 2093 2573 2234 2240 
z
" transform="scale(0.015625)"/>
      <path id="CMR17-3a" d="M 1062 2491 
C 1062 2650 934 2752 800 2752 
C 672 2752 538 2650 538 2491 
C 538 2332 666 2230 800 2230 
C 928 2230 1062 2332 1062 2491 
z
M 1062 261 
C 1062 420 934 522 800 522 
C 672 522 538 420 538 261 
C 538 102 666 0 800 0 
C 928 0 1062 102 1062 261 
z
" transform="scale(0.015625)"/>
      <path id="CMR17-45" d="M 3885 1615 
L 3770 1615 
C 3629 676 3546 166 2419 166 
L 1530 166 
C 1274 166 1261 197 1261 414 
L 1261 2176 
L 1862 2176 
C 2464 2176 2522 1960 2522 1430 
L 2637 1430 
L 2637 3081 
L 2522 3081 
C 2522 2557 2464 2342 1862 2342 
L 1261 2342 
L 1261 3913 
C 1261 4128 1274 4160 1530 4160 
L 2406 4160 
C 3398 4160 3514 3769 3603 2929 
L 3718 2929 
L 3565 4325 
L 326 4325 
L 326 4160 
C 768 4160 838 4160 838 3874 
L 838 451 
C 838 166 768 166 326 166 
L 326 0 
L 3654 0 
L 3885 1615 
z
" transform="scale(0.015625)"/>
      <path id="CMR17-4c" d="M 3469 1615 
L 3354 1615 
C 3302 983 3219 166 2125 166 
L 1530 166 
C 1274 166 1261 197 1261 414 
L 1261 3898 
C 1261 4129 1274 4192 1760 4192 
L 1901 4192 
L 1901 4352 
C 1638 4352 1331 4352 1069 4352 
C 870 4352 512 4352 326 4352 
L 326 4192 
C 768 4192 838 4192 838 3905 
L 838 452 
C 838 166 768 166 326 166 
L 326 0 
L 3315 0 
L 3469 1615 
z
" transform="scale(0.015625)"/>
      <path id="CMR17-43" d="M 3974 4289 
C 3974 4403 3968 4410 3930 4410 
C 3904 4410 3898 4403 3853 4327 
L 3571 3792 
C 3258 4187 2874 4416 2381 4416 
C 1286 4416 294 3456 294 2148 
C 294 826 1286 -128 2387 -128 
C 3366 -128 3974 730 3974 1461 
C 3974 1524 3974 1550 3917 1550 
C 3866 1550 3866 1531 3859 1474 
C 3808 585 3168 38 2477 38 
C 1824 38 781 495 781 2147 
C 781 3805 1843 4250 2464 4250 
C 3187 4250 3712 3628 3834 2745 
C 3846 2668 3846 2655 3904 2655 
C 3974 2655 3974 2668 3974 2783 
L 3974 4289 
z
" transform="scale(0.015625)"/>
      <path id="CMR17-4f" d="M 4307 2135 
C 4307 3437 3366 4416 2304 4416 
C 1216 4416 294 3424 294 2135 
C 294 845 1229 -128 2298 -128 
C 3392 -128 4307 864 4307 2135 
z
M 2304 -13 
C 1574 -13 781 711 781 2217 
C 781 3716 1651 4301 2298 4301 
C 2976 4301 3821 3698 3821 2217 
C 3821 686 3008 -13 2304 -13 
z
" transform="scale(0.015625)"/>
      <path id="CMR17-4e" d="M 1312 4250 
C 1267 4320 1261 4320 1139 4320 
L 326 4320 
L 326 4160 
L 448 4160 
C 704 4160 819 4129 838 4122 
L 838 610 
C 838 451 838 153 326 153 
L 326 -13 
C 474 0 742 0 902 0 
C 1062 0 1331 0 1478 -13 
L 1478 153 
C 966 153 966 451 966 610 
L 966 4033 
C 1011 3995 1011 3982 1056 3919 
L 3430 76 
C 3475 0 3494 0 3526 0 
C 3590 0 3590 19 3590 139 
L 3590 3705 
C 3590 3863 3590 4160 4102 4160 
L 4102 4326 
C 3955 4320 3686 4320 3526 4320 
C 3366 4320 3098 4320 2950 4326 
L 2950 4160 
C 3462 4160 3462 3862 3462 3703 
L 3462 763 
L 1312 4250 
z
" transform="scale(0.015625)"/>
      <path id="CMR17-41" d="M 2323 4378 
C 2291 4461 2278 4480 2214 4480 
C 2150 4480 2138 4461 2106 4378 
L 749 566 
C 627 223 371 153 147 153 
L 147 -13 
C 262 0 518 0 640 0 
C 800 0 1056 0 1210 -13 
L 1210 153 
C 909 153 864 361 864 439 
C 864 497 877 530 890 569 
L 1229 1536 
L 2906 1536 
L 3290 442 
C 3322 365 3322 352 3322 327 
C 3322 153 3046 153 2925 153 
L 2925 0 
C 3110 0 3443 0 3642 0 
C 3808 0 4128 0 4282 -13 
L 4282 153 
C 3942 153 3827 153 3744 387 
L 2323 4378 
z
M 2067 3893 
L 2848 1702 
L 1286 1702 
L 2067 3893 
z
" transform="scale(0.015625)"/>
      <path id="CMR17-2f" d="M 2605 4545 
C 2637 4627 2637 4640 2637 4653 
C 2637 4729 2579 4768 2528 4768 
C 2451 4768 2426 4717 2400 4640 
L 326 -1377 
C 294 -1460 294 -1473 294 -1486 
C 294 -1562 352 -1600 403 -1600 
C 480 -1600 506 -1549 531 -1473 
L 2605 4545 
z
" transform="scale(0.015625)"/>
     </defs>
     <use xlink:href="#CMR17-53" transform="scale(0.996264)"/>
     <use xlink:href="#CMR17-6f" transform="translate(50.89537 0) scale(0.996264)"/>
     <use xlink:href="#CMR17-75" transform="translate(96.585847 0) scale(0.996264)"/>
     <use xlink:href="#CMR17-72" transform="translate(147.481217 0) scale(0.996264)"/>
     <use xlink:href="#CMR17-63" transform="translate(182.761984 0) scale(0.996264)"/>
     <use xlink:href="#CMR17-65" transform="translate(223.247645 0) scale(0.996264)"/>
     <use xlink:href="#CMR17-3a" transform="translate(263.733305 0) scale(0.996264)"/>
     <use xlink:href="#CMR17-45" transform="translate(329.090024 0) scale(0.996264)"/>
     <use xlink:href="#CMR17-4c" transform="translate(391.676325 0) scale(0.996264)"/>
     <use xlink:href="#CMR17-43" transform="translate(449.057733 0) scale(0.996264)"/>
     <use xlink:href="#CMR17-4f" transform="translate(515.567613 0) scale(0.996264)"/>
     <use xlink:href="#CMR17-4e" transform="translate(587.282402 0) scale(0.996264)"/>
     <use xlink:href="#CMR17-41" transform="translate(686.430798 0) scale(0.996264)"/>
     <use xlink:href="#CMR17-2f" transform="translate(755.503228 0) scale(0.996264)"/>
     <use xlink:href="#CMR17-53" transform="translate(801.193705 0) scale(0.996264)"/>
    </g>
   </g>
   <g id="legend_1">
    <g id="patch_5">
     <path d="M 324.580207 356.998651 
L 434.468219 356.998651 
Q 436.468219 356.998651 436.468219 354.998651 
L 436.468219 342.061472 
Q 436.468219 340.061472 434.468219 340.061472 
L 324.580207 340.061472 
Q 322.580207 340.061472 322.580207 342.061472 
L 322.580207 354.998651 
Q 322.580207 356.998651 324.580207 356.998651 
z
" style="fill: #ffffff; opacity: 0.8"/>
    </g>
    <g id="line2d_17">
     <path d="M 326.580207 347.561472 
L 336.580207 347.561472 
L 346.580207 347.561472 
" style="fill: none; stroke: #006e64; stroke-width: 1.5; stroke-linecap: round"/>
    </g>
    <g id="text_16">
     <!-- 505 -->
     <g style="fill: #262626" transform="translate(354.580207 351.061472) scale(0.1 -0.1)">
      <defs>
       <path id="CMR17-35" d="M 730 3692 
C 794 3666 1056 3584 1325 3584 
C 1920 3584 2246 3911 2432 4100 
C 2432 4157 2432 4192 2394 4192 
C 2387 4192 2374 4192 2323 4163 
C 2099 4058 1837 3973 1517 3973 
C 1325 3973 1037 3999 723 4139 
C 653 4171 640 4171 634 4171 
C 602 4171 595 4164 595 4037 
L 595 2203 
C 595 2089 595 2057 659 2057 
C 691 2057 704 2070 736 2114 
C 941 2401 1222 2522 1542 2522 
C 1766 2522 2246 2382 2246 1289 
C 2246 1085 2246 715 2054 421 
C 1894 159 1645 25 1370 25 
C 947 25 518 320 403 814 
C 429 807 480 795 506 795 
C 589 795 749 840 749 1038 
C 749 1210 627 1280 506 1280 
C 358 1280 262 1190 262 1011 
C 262 454 704 -128 1382 -128 
C 2042 -128 2669 440 2669 1264 
C 2669 2030 2170 2624 1549 2624 
C 1222 2624 947 2503 730 2274 
L 730 3692 
z
" transform="scale(0.015625)"/>
      </defs>
      <use xlink:href="#CMR17-35" transform="scale(0.996264)"/>
      <use xlink:href="#CMR17-30" transform="translate(45.690477 0) scale(0.996264)"/>
      <use xlink:href="#CMR17-35" transform="translate(91.380954 0) scale(0.996264)"/>
     </g>
    </g>
    <g id="line2d_18">
     <path d="M 389.524213 347.561472 
L 399.524213 347.561472 
L 409.524213 347.561472 
" style="fill: none; stroke: #c17150; stroke-width: 1.5; stroke-linecap: round"/>
    </g>
    <g id="text_17">
     <!-- 515 -->
     <g style="fill: #262626" transform="translate(417.524213 351.061472) scale(0.1 -0.1)">
      <use xlink:href="#CMR17-35" transform="scale(0.996264)"/>
      <use xlink:href="#CMR17-31" transform="translate(45.690477 0) scale(0.996264)"/>
      <use xlink:href="#CMR17-35" transform="translate(91.380954 0) scale(0.996264)"/>
     </g>
    </g>
   </g>
  </g>
 </g>
 <defs>
  <clipPath id="p6d034a9415">
   <rect x="42.048666" y="3.800384" width="674.951094" height="301.146444"/>
  </clipPath>
 </defs>
</svg>
