<?xml version="1.0" encoding="utf-8" standalone="no"?>
<!DOCTYPE svg PUBLIC "-//W3C//DTD SVG 1.1//EN"
  "http://www.w3.org/Graphics/SVG/1.1/DTD/svg11.dtd">
<svg xmlns:xlink="http://www.w3.org/1999/xlink" width="720pt" height="360pt" viewBox="0 0 720 360" xmlns="http://www.w3.org/2000/svg" version="1.1">
 <metadata>
  <rdf:RDF xmlns:dc="http://purl.org/dc/elements/1.1/" xmlns:cc="http://creativecommons.org/ns#" xmlns:rdf="http://www.w3.org/1999/02/22-rdf-syntax-ns#">
   <cc:Work>
    <dc:type rdf:resource="http://purl.org/dc/dcmitype/StillImage"/>
    <dc:date>2023-10-09T14:50:43.191763</dc:date>
    <dc:format>image/svg+xml</dc:format>
    <dc:creator>
     <cc:Agent>
      <dc:title>Matplotlib v3.6.3, https://matplotlib.org/</dc:title>
     </cc:Agent>
    </dc:creator>
   </cc:Work>
  </rdf:RDF>
 </metadata>
 <defs>
  <style type="text/css">*{stroke-linejoin: round; stroke-linecap: butt}</style>
 </defs>
 <g id="figure_1">
  <g id="patch_1">
   <path d="M 0 360 
L 720 360 
L 720 0 
L 0 0 
z
" style="fill: #ffffff"/>
  </g>
  <g id="axes_1">
   <g id="patch_2">
    <path d="M 42.048666 304.875083 
L 716.99976 304.875083 
L 716.99976 3.00024 
L 42.048666 3.00024 
z
" style="fill: #ffffff"/>
   </g>
   <g id="matplotlib.axis_1">
    <g id="xtick_1">
     <g id="line2d_1">
      <path d="M 93.059117 304.875083 
L 93.059117 3.00024 
" clip-path="url(#p59e03d4e2c)" style="fill: none; stroke: #cccccc; stroke-opacity: 0.35; stroke-width: 0.8; stroke-linecap: round"/>
     </g>
     <g id="text_1">
      <!-- $\mathdefault{2014}$ -->
      <g transform="translate(83.096447 315.293581) scale(0.1 -0.1)">
       <defs>
        <path id="CMR17-32" d="M 2669 989 
L 2554 989 
C 2490 536 2438 459 2413 420 
C 2381 369 1920 369 1830 369 
L 602 369 
C 832 619 1280 1072 1824 1597 
C 2214 1967 2669 2402 2669 3035 
C 2669 3790 2067 4224 1395 4224 
C 691 4224 262 3604 262 3030 
C 262 2780 448 2748 525 2748 
C 589 2748 781 2787 781 3010 
C 781 3207 614 3264 525 3264 
C 486 3264 448 3258 422 3245 
C 544 3790 915 4058 1306 4058 
C 1862 4058 2227 3617 2227 3035 
C 2227 2479 1901 2000 1536 1584 
L 262 146 
L 262 0 
L 2515 0 
L 2669 989 
z
" transform="scale(0.015625)"/>
        <path id="CMR17-30" d="M 2688 2025 
C 2688 2416 2682 3080 2413 3591 
C 2176 4039 1798 4198 1466 4198 
C 1158 4198 768 4058 525 3597 
C 269 3118 243 2524 243 2025 
C 243 1661 250 1106 448 619 
C 723 -39 1216 -128 1466 -128 
C 1760 -128 2208 -7 2470 600 
C 2662 1042 2688 1559 2688 2025 
z
M 1466 -26 
C 1056 -26 813 325 723 812 
C 653 1188 653 1738 653 2096 
C 653 2588 653 2997 736 3387 
C 858 3929 1216 4096 1466 4096 
C 1728 4096 2067 3923 2189 3400 
C 2272 3036 2278 2607 2278 2096 
C 2278 1680 2278 1169 2202 792 
C 2067 95 1690 -26 1466 -26 
z
" transform="scale(0.015625)"/>
        <path id="CMR17-31" d="M 1702 4058 
C 1702 4192 1696 4192 1606 4192 
C 1357 3916 979 3827 621 3827 
C 602 3827 570 3827 563 3808 
C 557 3795 557 3782 557 3648 
C 755 3648 1088 3686 1344 3839 
L 1344 461 
C 1344 236 1331 160 781 160 
L 589 160 
L 589 0 
C 896 0 1216 0 1523 0 
C 1830 0 2150 0 2458 0 
L 2458 160 
L 2266 160 
C 1715 160 1702 230 1702 458 
L 1702 4058 
z
" transform="scale(0.015625)"/>
        <path id="CMR17-34" d="M 2150 4122 
C 2150 4256 2144 4256 2029 4256 
L 128 1254 
L 128 1088 
L 1779 1088 
L 1779 457 
C 1779 224 1766 160 1318 160 
L 1197 160 
L 1197 0 
C 1402 0 1747 0 1965 0 
C 2182 0 2528 0 2733 0 
L 2733 160 
L 2611 160 
C 2163 160 2150 224 2150 457 
L 2150 1088 
L 2803 1088 
L 2803 1254 
L 2150 1254 
L 2150 4122 
z
M 1798 3703 
L 1798 1254 
L 256 1254 
L 1798 3703 
z
" transform="scale(0.015625)"/>
       </defs>
       <use xlink:href="#CMR17-32" transform="scale(0.996264)"/>
       <use xlink:href="#CMR17-30" transform="translate(45.690477 0) scale(0.996264)"/>
       <use xlink:href="#CMR17-31" transform="translate(91.380954 0) scale(0.996264)"/>
       <use xlink:href="#CMR17-34" transform="translate(137.071431 0) scale(0.996264)"/>
      </g>
     </g>
    </g>
    <g id="xtick_2">
     <g id="line2d_2">
      <path d="M 214.710961 304.875083 
L 214.710961 3.00024 
" clip-path="url(#p59e03d4e2c)" style="fill: none; stroke: #cccccc; stroke-opacity: 0.35; stroke-width: 0.8; stroke-linecap: round"/>
     </g>
     <g id="text_2">
      <!-- $\mathdefault{2016}$ -->
      <g transform="translate(204.748291 315.293581) scale(0.1 -0.1)">
       <defs>
        <path id="CMR17-36" d="M 678 2176 
C 678 3690 1395 4032 1811 4032 
C 1946 4032 2272 4009 2400 3776 
C 2298 3776 2106 3776 2106 3553 
C 2106 3381 2246 3323 2336 3323 
C 2394 3323 2566 3348 2566 3560 
C 2566 3954 2246 4179 1805 4179 
C 1043 4179 243 3390 243 1984 
C 243 253 966 -128 1478 -128 
C 2099 -128 2688 427 2688 1283 
C 2688 2081 2170 2662 1517 2662 
C 1126 2662 838 2407 678 1960 
L 678 2176 
z
M 1478 25 
C 691 25 691 1200 691 1436 
C 691 1896 909 2560 1504 2560 
C 1613 2560 1926 2560 2138 2120 
C 2253 1870 2253 1609 2253 1289 
C 2253 944 2253 690 2118 434 
C 1978 171 1773 25 1478 25 
z
" transform="scale(0.015625)"/>
       </defs>
       <use xlink:href="#CMR17-32" transform="scale(0.996264)"/>
       <use xlink:href="#CMR17-30" transform="translate(45.690477 0) scale(0.996264)"/>
       <use xlink:href="#CMR17-31" transform="translate(91.380954 0) scale(0.996264)"/>
       <use xlink:href="#CMR17-36" transform="translate(137.071431 0) scale(0.996264)"/>
      </g>
     </g>
    </g>
    <g id="xtick_3">
     <g id="line2d_3">
      <path d="M 336.529452 304.875083 
L 336.529452 3.00024 
" clip-path="url(#p59e03d4e2c)" style="fill: none; stroke: #cccccc; stroke-opacity: 0.35; stroke-width: 0.8; stroke-linecap: round"/>
     </g>
     <g id="text_3">
      <!-- $\mathdefault{2018}$ -->
      <g transform="translate(326.566781 315.293581) scale(0.1 -0.1)">
       <defs>
        <path id="CMR17-38" d="M 1741 2264 
C 2144 2467 2554 2773 2554 3263 
C 2554 3841 1990 4179 1472 4179 
C 890 4179 378 3759 378 3180 
C 378 3021 416 2747 666 2505 
C 730 2442 998 2251 1171 2130 
C 883 1983 211 1634 211 934 
C 211 279 838 -128 1459 -128 
C 2144 -128 2720 362 2720 1010 
C 2720 1590 2330 1857 2074 2029 
L 1741 2264 
z
M 902 2822 
C 851 2854 595 3051 595 3351 
C 595 3739 998 4032 1459 4032 
C 1965 4032 2336 3676 2336 3262 
C 2336 2669 1670 2331 1638 2331 
C 1632 2331 1626 2331 1574 2370 
L 902 2822 
z
M 2080 1519 
C 2176 1449 2483 1240 2483 851 
C 2483 381 2010 25 1472 25 
C 890 25 448 438 448 940 
C 448 1443 838 1862 1280 2060 
L 2080 1519 
z
" transform="scale(0.015625)"/>
       </defs>
       <use xlink:href="#CMR17-32" transform="scale(0.996264)"/>
       <use xlink:href="#CMR17-30" transform="translate(45.690477 0) scale(0.996264)"/>
       <use xlink:href="#CMR17-31" transform="translate(91.380954 0) scale(0.996264)"/>
       <use xlink:href="#CMR17-38" transform="translate(137.071431 0) scale(0.996264)"/>
      </g>
     </g>
    </g>
    <g id="xtick_4">
     <g id="line2d_4">
      <path d="M 458.181296 304.875083 
L 458.181296 3.00024 
" clip-path="url(#p59e03d4e2c)" style="fill: none; stroke: #cccccc; stroke-opacity: 0.35; stroke-width: 0.8; stroke-linecap: round"/>
     </g>
     <g id="text_4">
      <!-- $\mathdefault{2020}$ -->
      <g transform="translate(448.218625 315.293581) scale(0.1 -0.1)">
       <use xlink:href="#CMR17-32" transform="scale(0.996264)"/>
       <use xlink:href="#CMR17-30" transform="translate(45.690477 0) scale(0.996264)"/>
       <use xlink:href="#CMR17-32" transform="translate(91.380954 0) scale(0.996264)"/>
       <use xlink:href="#CMR17-30" transform="translate(137.071431 0) scale(0.996264)"/>
      </g>
     </g>
    </g>
    <g id="xtick_5">
     <g id="line2d_5">
      <path d="M 579.999786 304.875083 
L 579.999786 3.00024 
" clip-path="url(#p59e03d4e2c)" style="fill: none; stroke: #cccccc; stroke-opacity: 0.35; stroke-width: 0.8; stroke-linecap: round"/>
     </g>
     <g id="text_5">
      <!-- $\mathdefault{2022}$ -->
      <g transform="translate(570.037116 315.293581) scale(0.1 -0.1)">
       <use xlink:href="#CMR17-32" transform="scale(0.996264)"/>
       <use xlink:href="#CMR17-30" transform="translate(45.690477 0) scale(0.996264)"/>
       <use xlink:href="#CMR17-32" transform="translate(91.380954 0) scale(0.996264)"/>
       <use xlink:href="#CMR17-32" transform="translate(137.071431 0) scale(0.996264)"/>
      </g>
     </g>
    </g>
    <g id="xtick_6">
     <g id="line2d_6">
      <path d="M 701.65163 304.875083 
L 701.65163 3.00024 
" clip-path="url(#p59e03d4e2c)" style="fill: none; stroke: #cccccc; stroke-opacity: 0.35; stroke-width: 0.8; stroke-linecap: round"/>
     </g>
     <g id="text_6">
      <!-- $\mathdefault{2024}$ -->
      <g transform="translate(691.68896 315.293581) scale(0.1 -0.1)">
       <use xlink:href="#CMR17-32" transform="scale(0.996264)"/>
       <use xlink:href="#CMR17-30" transform="translate(45.690477 0) scale(0.996264)"/>
       <use xlink:href="#CMR17-32" transform="translate(91.380954 0) scale(0.996264)"/>
       <use xlink:href="#CMR17-34" transform="translate(137.071431 0) scale(0.996264)"/>
      </g>
     </g>
    </g>
    <g id="text_7">
     <!-- Date -->
     <g style="fill: #696969" transform="translate(369.077259 328.149258) scale(0.1 -0.1)">
      <defs>
       <path id="CMR17-44" d="M 333 4352 
L 333 4186 
C 774 4186 845 4186 845 3900 
L 845 452 
C 845 166 774 166 333 166 
L 333 0 
L 2368 0 
C 3398 0 4224 943 4224 2141 
C 4224 3346 3411 4352 2368 4352 
L 333 4352 
z
M 1523 166 
C 1267 166 1254 197 1254 414 
L 1254 3938 
C 1254 4155 1267 4186 1523 4186 
L 2240 4186 
C 2771 4186 3750 3874 3750 2141 
C 3750 1242 3488 879 3366 707 
C 3213 510 2848 166 2240 166 
L 1523 166 
z
" transform="scale(0.015625)"/>
       <path id="CMR17-61" d="M 2304 1653 
C 2304 2072 2304 2294 2035 2543 
C 1798 2752 1523 2816 1306 2816 
C 800 2816 435 2407 435 1971 
C 435 1728 627 1728 666 1728 
C 749 1728 896 1778 896 1954 
C 896 2112 774 2181 666 2181 
C 640 2181 608 2174 589 2168 
C 723 2592 1069 2714 1293 2714 
C 1613 2714 1965 2429 1965 1885 
L 1965 1600 
C 1587 1600 1133 1549 774 1357 
C 371 1133 256 813 256 570 
C 256 77 832 -64 1171 -64 
C 1523 -64 1850 139 1990 511 
C 2003 233 2182 -18 2464 -18 
C 2598 -18 2938 70 2938 567 
L 2938 920 
L 2822 920 
L 2822 562 
C 2822 178 2650 128 2566 128 
C 2304 128 2304 458 2304 738 
L 2304 1653 
z
M 1965 870 
C 1965 317 1568 38 1216 38 
C 896 38 646 275 646 570 
C 646 761 730 1100 1101 1305 
C 1408 1478 1760 1504 1965 1504 
L 1965 870 
z
" transform="scale(0.015625)"/>
       <path id="CMR17-74" d="M 966 2560 
L 1862 2560 
L 1862 2725 
L 966 2725 
L 966 3904 
L 851 3904 
C 838 3245 614 2668 70 2668 
L 70 2560 
L 627 2560 
L 627 771 
C 627 650 627 -64 1370 -64 
C 1747 -64 1965 306 1965 777 
L 1965 1140 
L 1850 1140 
L 1850 783 
C 1850 344 1677 51 1408 51 
C 1222 51 966 178 966 758 
L 966 2560 
z
" transform="scale(0.015625)"/>
       <path id="CMR17-65" d="M 2438 1472 
C 2464 1498 2464 1511 2464 1576 
C 2464 2238 2118 2816 1389 2816 
C 710 2816 173 2169 173 1383 
C 173 551 781 -64 1459 -64 
C 2176 -64 2458 607 2458 740 
C 2458 784 2419 784 2406 784 
C 2362 784 2355 771 2330 696 
C 2189 265 1837 51 1504 51 
C 1229 51 954 203 781 480 
C 582 803 582 1176 582 1472 
L 2438 1472 
z
M 589 1568 
C 634 2505 1126 2714 1382 2714 
C 1818 2714 2112 2297 2118 1568 
L 589 1568 
z
" transform="scale(0.015625)"/>
      </defs>
      <use xlink:href="#CMR17-44" transform="scale(0.996264)"/>
      <use xlink:href="#CMR17-61" transform="translate(70.393556 0) scale(0.996264)"/>
      <use xlink:href="#CMR17-74" transform="translate(116.084033 0) scale(0.996264)"/>
      <use xlink:href="#CMR17-65" transform="translate(151.364801 0) scale(0.996264)"/>
     </g>
    </g>
   </g>
   <g id="matplotlib.axis_2">
    <g id="ytick_1">
     <g id="line2d_7">
      <path d="M 42.048666 304.517525 
L 716.99976 304.517525 
" clip-path="url(#p59e03d4e2c)" style="fill: none; stroke: #cccccc; stroke-opacity: 0.35; stroke-width: 0.8; stroke-linecap: round"/>
     </g>
     <g id="text_8">
      <!-- $\mathdefault{−400}$ -->
      <g transform="translate(15.855917 307.976774) scale(0.1 -0.1)">
       <defs>
        <path id="CMSY10-0" d="M 4218 1472 
C 4326 1472 4442 1472 4442 1600 
C 4442 1728 4326 1728 4218 1728 
L 755 1728 
C 646 1728 531 1728 531 1600 
C 531 1472 646 1472 755 1472 
L 4218 1472 
z
" transform="scale(0.015625)"/>
       </defs>
       <use xlink:href="#CMSY10-0" transform="scale(0.996264)"/>
       <use xlink:href="#CMR17-34" transform="translate(77.487468 0) scale(0.996264)"/>
       <use xlink:href="#CMR17-30" transform="translate(123.177945 0) scale(0.996264)"/>
       <use xlink:href="#CMR17-30" transform="translate(168.868422 0) scale(0.996264)"/>
      </g>
     </g>
    </g>
    <g id="ytick_2">
     <g id="line2d_8">
      <path d="M 42.048666 269.228792 
L 716.99976 269.228792 
" clip-path="url(#p59e03d4e2c)" style="fill: none; stroke: #cccccc; stroke-opacity: 0.35; stroke-width: 0.8; stroke-linecap: round"/>
     </g>
     <g id="text_9">
      <!-- $\mathdefault{−300}$ -->
      <g transform="translate(15.855917 272.688041) scale(0.1 -0.1)">
       <defs>
        <path id="CMR17-33" d="M 1414 2157 
C 1984 2157 2234 1662 2234 1090 
C 2234 320 1824 25 1453 25 
C 1114 25 563 194 390 693 
C 422 680 454 680 486 680 
C 640 680 755 782 755 948 
C 755 1133 614 1216 486 1216 
C 378 1216 211 1165 211 926 
C 211 335 787 -128 1466 -128 
C 2176 -128 2720 430 2720 1085 
C 2720 1707 2208 2157 1600 2227 
C 2086 2328 2554 2756 2554 3329 
C 2554 3820 2048 4179 1472 4179 
C 890 4179 378 3829 378 3329 
C 378 3110 544 3072 627 3072 
C 762 3072 877 3155 877 3321 
C 877 3486 762 3569 627 3569 
C 602 3569 570 3569 544 3557 
C 730 3959 1235 4032 1459 4032 
C 1683 4032 2106 3925 2106 3320 
C 2106 3143 2080 2828 1862 2550 
C 1670 2304 1453 2304 1242 2284 
C 1210 2284 1062 2269 1037 2269 
C 992 2263 966 2257 966 2208 
C 966 2163 973 2157 1101 2157 
L 1414 2157 
z
" transform="scale(0.015625)"/>
       </defs>
       <use xlink:href="#CMSY10-0" transform="scale(0.996264)"/>
       <use xlink:href="#CMR17-33" transform="translate(77.487468 0) scale(0.996264)"/>
       <use xlink:href="#CMR17-30" transform="translate(123.177945 0) scale(0.996264)"/>
       <use xlink:href="#CMR17-30" transform="translate(168.868422 0) scale(0.996264)"/>
      </g>
     </g>
    </g>
    <g id="ytick_3">
     <g id="line2d_9">
      <path d="M 42.048666 233.940059 
L 716.99976 233.940059 
" clip-path="url(#p59e03d4e2c)" style="fill: none; stroke: #cccccc; stroke-opacity: 0.35; stroke-width: 0.8; stroke-linecap: round"/>
     </g>
     <g id="text_10">
      <!-- $\mathdefault{−200}$ -->
      <g transform="translate(15.855917 237.399308) scale(0.1 -0.1)">
       <use xlink:href="#CMSY10-0" transform="scale(0.996264)"/>
       <use xlink:href="#CMR17-32" transform="translate(77.487468 0) scale(0.996264)"/>
       <use xlink:href="#CMR17-30" transform="translate(123.177945 0) scale(0.996264)"/>
       <use xlink:href="#CMR17-30" transform="translate(168.868422 0) scale(0.996264)"/>
      </g>
     </g>
    </g>
    <g id="ytick_4">
     <g id="line2d_10">
      <path d="M 42.048666 198.651326 
L 716.99976 198.651326 
" clip-path="url(#p59e03d4e2c)" style="fill: none; stroke: #cccccc; stroke-opacity: 0.35; stroke-width: 0.8; stroke-linecap: round"/>
     </g>
     <g id="text_11">
      <!-- $\mathdefault{−100}$ -->
      <g transform="translate(15.855917 202.110575) scale(0.1 -0.1)">
       <use xlink:href="#CMSY10-0" transform="scale(0.996264)"/>
       <use xlink:href="#CMR17-31" transform="translate(77.487468 0) scale(0.996264)"/>
       <use xlink:href="#CMR17-30" transform="translate(123.177945 0) scale(0.996264)"/>
       <use xlink:href="#CMR17-30" transform="translate(168.868422 0) scale(0.996264)"/>
      </g>
     </g>
    </g>
    <g id="ytick_5">
     <g id="line2d_11">
      <path d="M 42.048666 163.362593 
L 716.99976 163.362593 
" clip-path="url(#p59e03d4e2c)" style="fill: none; stroke: #cccccc; stroke-opacity: 0.35; stroke-width: 0.8; stroke-linecap: round"/>
     </g>
     <g id="text_12">
      <!-- $\mathdefault{0}$ -->
      <g transform="translate(33.567331 166.821842) scale(0.1 -0.1)">
       <use xlink:href="#CMR17-30" transform="scale(0.996264)"/>
      </g>
     </g>
    </g>
    <g id="ytick_6">
     <g id="line2d_12">
      <path d="M 42.048666 128.07386 
L 716.99976 128.07386 
" clip-path="url(#p59e03d4e2c)" style="fill: none; stroke: #cccccc; stroke-opacity: 0.35; stroke-width: 0.8; stroke-linecap: round"/>
     </g>
     <g id="text_13">
      <!-- $\mathdefault{100}$ -->
      <g transform="translate(23.60466 131.533109) scale(0.1 -0.1)">
       <use xlink:href="#CMR17-31" transform="scale(0.996264)"/>
       <use xlink:href="#CMR17-30" transform="translate(45.690477 0) scale(0.996264)"/>
       <use xlink:href="#CMR17-30" transform="translate(91.380954 0) scale(0.996264)"/>
      </g>
     </g>
    </g>
    <g id="ytick_7">
     <g id="line2d_13">
      <path d="M 42.048666 92.785127 
L 716.99976 92.785127 
" clip-path="url(#p59e03d4e2c)" style="fill: none; stroke: #cccccc; stroke-opacity: 0.35; stroke-width: 0.8; stroke-linecap: round"/>
     </g>
     <g id="text_14">
      <!-- $\mathdefault{200}$ -->
      <g transform="translate(23.60466 96.244376) scale(0.1 -0.1)">
       <use xlink:href="#CMR17-32" transform="scale(0.996264)"/>
       <use xlink:href="#CMR17-30" transform="translate(45.690477 0) scale(0.996264)"/>
       <use xlink:href="#CMR17-30" transform="translate(91.380954 0) scale(0.996264)"/>
      </g>
     </g>
    </g>
    <g id="ytick_8">
     <g id="line2d_14">
      <path d="M 42.048666 57.496394 
L 716.99976 57.496394 
" clip-path="url(#p59e03d4e2c)" style="fill: none; stroke: #cccccc; stroke-opacity: 0.35; stroke-width: 0.8; stroke-linecap: round"/>
     </g>
     <g id="text_15">
      <!-- $\mathdefault{300}$ -->
      <g transform="translate(23.60466 60.955643) scale(0.1 -0.1)">
       <use xlink:href="#CMR17-33" transform="scale(0.996264)"/>
       <use xlink:href="#CMR17-30" transform="translate(45.690477 0) scale(0.996264)"/>
       <use xlink:href="#CMR17-30" transform="translate(91.380954 0) scale(0.996264)"/>
      </g>
     </g>
    </g>
    <g id="ytick_9">
     <g id="line2d_15">
      <path d="M 42.048666 22.207661 
L 716.99976 22.207661 
" clip-path="url(#p59e03d4e2c)" style="fill: none; stroke: #cccccc; stroke-opacity: 0.35; stroke-width: 0.8; stroke-linecap: round"/>
     </g>
     <g id="text_16">
      <!-- $\mathdefault{400}$ -->
      <g transform="translate(23.60466 25.66691) scale(0.1 -0.1)">
       <use xlink:href="#CMR17-34" transform="scale(0.996264)"/>
       <use xlink:href="#CMR17-30" transform="translate(45.690477 0) scale(0.996264)"/>
       <use xlink:href="#CMR17-30" transform="translate(91.380954 0) scale(0.996264)"/>
      </g>
     </g>
    </g>
    <g id="text_17">
     <!-- Risk -->
     <g style="fill: #696969" transform="translate(9.918738 163.582067) rotate(-90) scale(0.1 -0.1)">
      <defs>
       <path id="CMR17-52" d="M 2509 2146 
C 3117 2268 3629 2676 3629 3186 
C 3629 3785 2950 4326 2054 4326 
L 333 4326 
L 333 4160 
C 774 4160 845 4160 845 3873 
L 845 415 
C 845 128 774 128 333 128 
L 333 -26 
C 518 -26 851 -26 1050 -26 
C 1248 -26 1581 -26 1766 -26 
L 1766 128 
C 1325 128 1254 128 1254 417 
L 1254 2112 
L 2003 2112 
C 2368 2112 2573 1964 2662 1881 
C 2918 1632 2918 1459 2918 1024 
C 2918 595 2918 377 3110 160 
C 3354 -102 3680 -128 3821 -128 
C 4294 -128 4365 396 4365 503 
C 4365 540 4365 585 4307 585 
C 4256 585 4250 547 4250 522 
C 4218 112 4032 -26 3834 -26 
C 3482 -26 3443 375 3405 764 
C 3386 898 3373 993 3360 1133 
C 3322 1452 3270 1917 2509 2146 
z
M 1984 2214 
L 1254 2214 
L 1254 3913 
C 1254 4129 1267 4160 1523 4160 
L 1990 4160 
C 2522 4160 3142 3977 3142 3190 
C 3142 2372 2464 2214 1984 2214 
z
" transform="scale(0.015625)"/>
       <path id="CMR17-69" d="M 992 3909 
C 992 4049 877 4170 730 4170 
C 589 4170 467 4056 467 3909 
C 467 3769 582 3648 730 3648 
C 870 3648 992 3763 992 3909 
z
M 243 2706 
L 243 2541 
C 602 2541 653 2502 653 2197 
L 653 427 
C 653 184 627 153 218 153 
L 218 -13 
C 371 0 646 0 806 0 
C 960 0 1222 0 1370 -13 
L 1370 153 
C 992 153 979 191 979 420 
L 979 2776 
L 243 2706 
z
" transform="scale(0.015625)"/>
       <path id="CMR17-73" d="M 1978 2697 
C 1978 2813 1971 2819 1933 2819 
C 1907 2819 1901 2813 1824 2717 
C 1805 2691 1747 2626 1728 2601 
C 1523 2819 1235 2819 1126 2819 
C 416 2819 160 2447 160 2076 
C 160 1498 813 1365 998 1325 
C 1402 1243 1542 1217 1677 1101 
C 1760 1025 1901 884 1901 654 
C 1901 384 1747 38 1158 38 
C 602 38 403 460 288 1021 
C 269 1110 269 1117 218 1117 
C 166 1117 160 1110 160 983 
L 160 63 
C 160 -51 166 -58 205 -58 
C 237 -58 243 -51 275 0 
C 314 57 410 211 448 276 
C 576 103 800 -64 1158 -64 
C 1792 -64 2131 283 2131 784 
C 2131 1112 1958 1285 1875 1362 
C 1683 1561 1459 1606 1190 1657 
C 838 1735 390 1825 390 2217 
C 390 2383 480 2737 1126 2737 
C 1811 2737 1850 2094 1862 1888 
C 1869 1856 1901 1849 1920 1849 
C 1978 1849 1978 1869 1978 1978 
L 1978 2697 
z
" transform="scale(0.015625)"/>
       <path id="CMR17-6b" d="M 1670 1673 
C 1664 1686 1632 1724 1632 1743 
C 1632 1756 2086 2171 2144 2222 
C 2509 2528 2739 2560 2906 2560 
L 2906 2733 
C 2867 2733 2854 2733 2848 2720 
L 2534 2720 
C 2355 2720 2080 2720 1907 2733 
L 1907 2566 
C 1997 2559 2061 2508 2061 2419 
C 2061 2291 1933 2170 1926 2170 
L 960 1289 
L 960 4396 
L 198 4326 
L 198 4160 
C 576 4160 634 4122 634 3817 
L 634 426 
C 634 184 608 153 198 153 
L 198 -13 
C 352 0 634 0 794 0 
C 954 0 1235 0 1389 -13 
L 1389 153 
C 979 153 954 178 954 428 
L 954 1130 
L 1395 1532 
L 2042 574 
C 2118 459 2182 369 2182 286 
C 2182 172 2067 153 1990 153 
L 1990 -13 
C 2144 0 2419 0 2579 0 
C 2694 0 2931 0 3040 0 
L 3040 153 
C 2739 153 2669 210 2477 491 
L 1670 1673 
z
" transform="scale(0.015625)"/>
      </defs>
      <use xlink:href="#CMR17-52" transform="scale(0.996264)"/>
      <use xlink:href="#CMR17-69" transform="translate(67.791102 0) scale(0.996264)"/>
      <use xlink:href="#CMR17-73" transform="translate(92.66216 0) scale(0.996264)"/>
      <use xlink:href="#CMR17-6b" transform="translate(128.463498 0) scale(0.996264)"/>
     </g>
    </g>
   </g>
   <g id="PolyCollection_1">
    <defs>
     <path id="m1ee2dcb157" d="M 82.893689 -322.438963 
L 82.893689 -307.133288 
L 87.89308 -296.402148 
L 93.059117 -295.026476 
L 98.225155 -203.357773 
L 102.891253 -203.432708 
L 108.05729 -203.84153 
L 113.056681 -197.539799 
L 118.222718 -211.509376 
L 123.222109 -184.606218 
L 128.388146 -199.343655 
L 133.554183 -206.496434 
L 138.553574 -202.704787 
L 143.719611 -203.866837 
L 148.719002 -236.636745 
L 153.885039 -181.434525 
L 159.051077 -187.311093 
L 163.717175 -191.950212 
L 168.883212 -192.466849 
L 173.882603 -179.879108 
L 179.04864 -188.838381 
L 184.048031 -185.691047 
L 189.214068 -166.298255 
L 194.380105 -167.027228 
L 199.379496 -151.698249 
L 204.545533 -166.455463 
L 209.544924 -153.030414 
L 214.710961 -200.534567 
L 219.876999 -201.43218 
L 224.709743 -203.411596 
L 229.87578 -207.17014 
L 234.875171 -199.94154 
L 240.041208 -172.343686 
L 245.040599 -155.15979 
L 250.206636 -194.618197 
L 255.372674 -184.783697 
L 260.372065 -145.234911 
L 265.538102 -168.793764 
L 270.537493 -197.021983 
L 275.70353 -157.43929 
L 280.869567 -196.928223 
L 285.535665 -179.305848 
L 290.701702 -164.781485 
L 295.701093 -176.548343 
L 300.86713 -178.991529 
L 305.866521 -165.458079 
L 311.032558 -182.180968 
L 316.198596 -168.311627 
L 321.197987 -196.787664 
L 326.364024 -155.483348 
L 331.363415 -160.011299 
L 336.529452 -148.952191 
L 341.695489 -177.262169 
L 346.361587 -192.093514 
L 351.527624 -195.782588 
L 356.527015 -193.915621 
L 361.693052 -194.985039 
L 366.692443 -192.51345 
L 371.85848 -185.335905 
L 377.024518 -183.726901 
L 382.023909 -184.45929 
L 387.189946 -181.302187 
L 392.189337 -178.626568 
L 397.355374 -188.077699 
L 402.521411 -187.666341 
L 407.187509 -187.554752 
L 412.353546 -185.06525 
L 417.352937 -183.199601 
L 422.518974 -185.686046 
L 427.518365 -182.714729 
L 432.684402 -185.447577 
L 437.85044 -191.053311 
L 442.849831 -194.575804 
L 448.015868 -195.265419 
L 453.015259 -195.652803 
L 458.181296 -195.870622 
L 463.347333 -194.749976 
L 468.180077 -190.411128 
L 473.346115 -184.267995 
L 478.345506 -187.141779 
L 483.511543 -195.343541 
L 488.510934 -184.854756 
L 493.676971 -193.354757 
L 498.843008 -190.657405 
L 503.842399 -185.24678 
L 509.008436 -183.075709 
L 514.007827 -185.522625 
L 519.173864 -198.07475 
L 524.339901 -199.196179 
L 529.005999 -200.826412 
L 534.172037 -199.595223 
L 539.171428 -198.917226 
L 544.337465 -196.487076 
L 549.336856 -188.150783 
L 554.502893 -194.585993 
L 559.66893 -192.390236 
L 564.668321 -176.862896 
L 569.834358 -145.198433 
L 574.833749 -192.448763 
L 579.999786 -197.659523 
L 585.165823 -183.286756 
L 589.831921 -174.112012 
L 594.997959 -144.539464 
L 599.99735 -190.635634 
L 605.163387 -190.933816 
L 610.162778 -187.982522 
L 615.328815 -193.243714 
L 620.494852 -194.720708 
L 625.494243 -147.627565 
L 630.66028 -168.112234 
L 635.659671 -192.803956 
L 640.825708 -167.024881 
L 645.991745 -106.618648 
L 650.657843 -76.319146 
L 655.823881 -69.489899 
L 660.823271 -68.846501 
L 665.989309 -131.94888 
L 670.9887 -194.559098 
L 676.154737 -194.569909 
L 681.320774 -86.079967 
L 686.320165 -114.445797 
L 686.320165 -198.078664 
L 686.320165 -198.078664 
L 681.320774 -192.616188 
L 676.154737 -214.931541 
L 670.9887 -202.075901 
L 665.989309 -197.631645 
L 660.823271 -193.015605 
L 655.823881 -196.367731 
L 650.657843 -190.154364 
L 645.991745 -186.75357 
L 640.825708 -198.955597 
L 635.659671 -259.801656 
L 630.66028 -193.660877 
L 625.494243 -191.743511 
L 620.494852 -229.079693 
L 615.328815 -207.872466 
L 610.162778 -229.665771 
L 605.163387 -229.963328 
L 599.99735 -232.928617 
L 594.997959 -193.71642 
L 589.831921 -202.217549 
L 585.165823 -212.183374 
L 579.999786 -231.097444 
L 574.833749 -208.172138 
L 569.834358 -196.482613 
L 564.668321 -199.669867 
L 559.66893 -249.091144 
L 554.502893 -233.442127 
L 549.336856 -203.605965 
L 544.337465 -242.71949 
L 539.171428 -278.75915 
L 534.172037 -255.758626 
L 529.005999 -247.89891 
L 524.339901 -227.386337 
L 519.173864 -231.378717 
L 514.007827 -259.389631 
L 509.008436 -251.460693 
L 503.842399 -257.5213 
L 498.843008 -267.480399 
L 493.676971 -219.096352 
L 488.510934 -197.135715 
L 483.511543 -200.782542 
L 478.345506 -197.51404 
L 473.346115 -197.64402 
L 468.180077 -197.1918 
L 463.347333 -198.266437 
L 458.181296 -207.606593 
L 453.015259 -214.651697 
L 448.015868 -206.961115 
L 442.849831 -199.681724 
L 437.85044 -200.063068 
L 432.684402 -200.667432 
L 427.518365 -200.97022 
L 422.518974 -199.734789 
L 417.352937 -199.397762 
L 412.353546 -200.466528 
L 407.187509 -199.206905 
L 402.521411 -198.998921 
L 397.355374 -199.702981 
L 392.189337 -198.799266 
L 387.189946 -197.609887 
L 382.023909 -201.405714 
L 377.024518 -201.297237 
L 371.85848 -205.158275 
L 366.692443 -211.147671 
L 361.693052 -213.812107 
L 356.527015 -214.845552 
L 351.527624 -218.589197 
L 346.361587 -214.337291 
L 341.695489 -216.126557 
L 336.529452 -215.069207 
L 331.363415 -212.440019 
L 326.364024 -210.398655 
L 321.197987 -204.100558 
L 316.198596 -201.324079 
L 311.032558 -199.981367 
L 305.866521 -196.332084 
L 300.86713 -197.5584 
L 295.701093 -197.699767 
L 290.701702 -198.375847 
L 285.535665 -197.438451 
L 280.869567 -204.912015 
L 275.70353 -197.18258 
L 270.537493 -222.19745 
L 265.538102 -196.691804 
L 260.372065 -195.420904 
L 255.372674 -205.043696 
L 250.206636 -220.219972 
L 245.040599 -197.67049 
L 240.041208 -200.155978 
L 234.875171 -231.512857 
L 229.87578 -305.021826 
L 224.709743 -262.310121 
L 219.876999 -247.668846 
L 214.710961 -232.091125 
L 209.544924 -192.863937 
L 204.545533 -195.604663 
L 199.379496 -189.31296 
L 194.380105 -200.530729 
L 189.214068 -194.210351 
L 184.048031 -199.278871 
L 179.04864 -201.272779 
L 173.882603 -200.80788 
L 168.883212 -225.264789 
L 163.717175 -244.225337 
L 159.051077 -221.907269 
L 153.885039 -235.469557 
L 148.719002 -335.444728 
L 143.719611 -312.080178 
L 138.553574 -343.278176 
L 133.554183 -292.316387 
L 128.388146 -292.733843 
L 123.222109 -306.064441 
L 118.222718 -313.618666 
L 113.056681 -307.328632 
L 108.05729 -312.897699 
L 102.891253 -314.102039 
L 98.225155 -316.496583 
L 93.059117 -322.091158 
L 87.89308 -322.476219 
L 82.893689 -322.438963 
z
" style="stroke: #006e64; stroke-opacity: 0.2"/>
    </defs>
    <g clip-path="url(#p59e03d4e2c)">
     <use xlink:href="#m1ee2dcb157" x="0" y="360" style="fill: #006e64; fill-opacity: 0.2; stroke: #006e64; stroke-opacity: 0.2"/>
    </g>
   </g>
   <g id="PolyCollection_2">
    <defs>
     <path id="m737bbdf8ad" d="M 163.717175 -202.82559 
L 163.717175 -196.580143 
L 168.883212 -196.652437 
L 173.882603 -196.749782 
L 179.04864 -196.952456 
L 184.048031 -197.132494 
L 189.214068 -196.913159 
L 194.380105 -196.586059 
L 199.379496 -196.373262 
L 204.545533 -195.794158 
L 209.544924 -196.663307 
L 214.710961 -196.696873 
L 219.876999 -196.514718 
L 224.709743 -196.415499 
L 229.87578 -196.511341 
L 234.875171 -196.32994 
L 240.041208 -196.288632 
L 245.040599 -196.290767 
L 250.206636 -196.034993 
L 255.372674 -196.117561 
L 260.372065 -196.649038 
L 265.538102 -196.938221 
L 270.537493 -196.93204 
L 275.70353 -196.723156 
L 280.869567 -197.065336 
L 285.535665 -196.851112 
L 290.701702 -196.012946 
L 295.701093 -196.99469 
L 300.86713 -196.39736 
L 305.866521 -196.979957 
L 311.032558 -196.613769 
L 316.198596 -196.62745 
L 321.197987 -196.670309 
L 326.364024 -195.428442 
L 331.363415 -195.851953 
L 336.529452 -195.687602 
L 341.695489 -192.455741 
L 346.361587 -181.508005 
L 351.527624 -184.671283 
L 356.527015 -195.389307 
L 361.693052 -195.931801 
L 366.692443 -194.425265 
L 371.85848 -196.410086 
L 377.024518 -196.615917 
L 382.023909 -186.473971 
L 387.189946 -187.563666 
L 392.189337 -175.359197 
L 397.355374 -168.063699 
L 402.521411 -162.648643 
L 407.187509 -157.193677 
L 412.353546 -162.248589 
L 417.352937 -171.153718 
L 422.518974 -170.240832 
L 427.518365 -176.683684 
L 432.684402 -180.41422 
L 437.85044 -148.686558 
L 442.849831 -165.743109 
L 448.015868 -165.01473 
L 453.015259 -164.685715 
L 458.181296 -174.093924 
L 463.347333 -173.151061 
L 468.180077 -194.672965 
L 473.346115 -196.263309 
L 478.345506 -196.13368 
L 483.511543 -197.794311 
L 488.510934 -198.580261 
L 493.676971 -197.099147 
L 498.843008 -195.445243 
L 503.842399 -187.223089 
L 509.008436 -178.077549 
L 514.007827 -162.418748 
L 519.173864 -166.114704 
L 524.339901 -167.765706 
L 529.005999 -196.110244 
L 534.172037 -203.484119 
L 539.171428 -202.224048 
L 544.337465 -201.890768 
L 549.336856 -199.29082 
L 554.502893 -197.899147 
L 559.66893 -196.482831 
L 564.668321 -196.186383 
L 569.834358 -200.092655 
L 574.833749 -200.512974 
L 579.999786 -203.5133 
L 585.165823 -194.953138 
L 589.831921 -191.801881 
L 594.997959 -194.505038 
L 599.99735 -192.415977 
L 605.163387 -190.543751 
L 610.162778 -181.991529 
L 615.328815 -184.440887 
L 620.494852 -188.312341 
L 625.494243 -182.241145 
L 630.66028 -183.045825 
L 635.659671 -171.443122 
L 640.825708 -144.528157 
L 645.991745 -164.710512 
L 650.657843 -164.998468 
L 655.823881 -160.942668 
L 660.823271 -156.191269 
L 665.989309 -158.521691 
L 670.9887 -145.82959 
L 676.154737 -140.577839 
L 681.320774 -153.63618 
L 686.320165 -159.849866 
L 686.320165 -191.844975 
L 686.320165 -191.844975 
L 681.320774 -186.446598 
L 676.154737 -184.161822 
L 670.9887 -188.602699 
L 665.989309 -199.798278 
L 660.823271 -192.455511 
L 655.823881 -195.574861 
L 650.657843 -199.01668 
L 645.991745 -194.673683 
L 640.825708 -187.75868 
L 635.659671 -194.011104 
L 630.66028 -199.68243 
L 625.494243 -202.660991 
L 620.494852 -203.302658 
L 615.328815 -201.404846 
L 610.162778 -197.323039 
L 605.163387 -199.04243 
L 599.99735 -209.37716 
L 594.997959 -211.451987 
L 589.831921 -212.295177 
L 585.165823 -226.549014 
L 579.999786 -247.460321 
L 574.833749 -215.088681 
L 569.834358 -215.454452 
L 564.668321 -209.870365 
L 559.66893 -233.311072 
L 554.502893 -232.759446 
L 549.336856 -226.9946 
L 544.337465 -237.132472 
L 539.171428 -240.005091 
L 534.172037 -240.493131 
L 529.005999 -208.912396 
L 524.339901 -204.013839 
L 519.173864 -198.821746 
L 514.007827 -201.239281 
L 509.008436 -202.257197 
L 503.842399 -206.338814 
L 498.843008 -203.957415 
L 493.676971 -206.556373 
L 488.510934 -219.63635 
L 483.511543 -225.685381 
L 478.345506 -222.842623 
L 473.346115 -215.780193 
L 468.180077 -206.910023 
L 463.347333 -197.36024 
L 458.181296 -198.551608 
L 453.015259 -197.928548 
L 448.015868 -196.962588 
L 442.849831 -196.719407 
L 437.85044 -203.370121 
L 432.684402 -240.096175 
L 427.518365 -216.407003 
L 422.518974 -203.362204 
L 417.352937 -201.830931 
L 412.353546 -205.780344 
L 407.187509 -203.515647 
L 402.521411 -199.327068 
L 397.355374 -196.767418 
L 392.189337 -196.707811 
L 387.189946 -197.661173 
L 382.023909 -198.643241 
L 377.024518 -224.691467 
L 371.85848 -226.598414 
L 366.692443 -221.034784 
L 361.693052 -219.26732 
L 356.527015 -221.473289 
L 351.527624 -214.667761 
L 346.361587 -209.807405 
L 341.695489 -207.196742 
L 336.529452 -210.083577 
L 331.363415 -211.927027 
L 326.364024 -210.527981 
L 321.197987 -208.887676 
L 316.198596 -209.034811 
L 311.032558 -206.839689 
L 305.866521 -206.895924 
L 300.86713 -208.995252 
L 295.701093 -213.895081 
L 290.701702 -214.76344 
L 285.535665 -198.03407 
L 280.869567 -198.241293 
L 275.70353 -197.729181 
L 270.537493 -198.079178 
L 265.538102 -197.851875 
L 260.372065 -197.28817 
L 255.372674 -196.888264 
L 250.206636 -196.653152 
L 245.040599 -196.740546 
L 240.041208 -196.714014 
L 234.875171 -196.741765 
L 229.87578 -196.886365 
L 224.709743 -196.674249 
L 219.876999 -196.833946 
L 214.710961 -197.552394 
L 209.544924 -196.94426 
L 204.545533 -197.164513 
L 199.379496 -197.575114 
L 194.380105 -198.446504 
L 189.214068 -199.298541 
L 184.048031 -199.956604 
L 179.04864 -199.548652 
L 173.882603 -202.082749 
L 168.883212 -202.435584 
L 163.717175 -202.82559 
z
" style="stroke: #c17150; stroke-opacity: 0.2"/>
    </defs>
    <g clip-path="url(#p59e03d4e2c)">
     <use xlink:href="#m737bbdf8ad" x="0" y="360" style="fill: #c17150; fill-opacity: 0.2; stroke: #c17150; stroke-opacity: 0.2"/>
    </g>
   </g>
   <g id="line2d_16">
    <path d="M 72.728261 37.230608 
L 77.727652 37.496894 
L 82.893689 45.213874 
L 87.89308 50.560816 
L 93.059117 51.441183 
L 98.225155 89.241613 
L 102.891253 91.957609 
L 108.05729 95.897994 
L 113.056681 107.565785 
L 118.222718 97.435979 
L 123.222109 128.668603 
L 128.388146 113.961251 
L 133.554183 110.593589 
L 138.553574 95.51077 
L 143.719611 106.4718 
L 148.719002 76.073378 
L 153.885039 149.790424 
L 159.051077 155.864453 
L 163.717175 146.12519 
L 168.883212 153.736236 
L 173.882603 168.238092 
L 179.04864 164.522767 
L 184.048031 167.121892 
L 189.214068 177.703932 
L 194.380105 173.054405 
L 199.379496 188.042966 
L 204.545533 176.746768 
L 209.544924 185.832687 
L 214.710961 146.053925 
L 219.876999 137.925797 
L 224.709743 130.207166 
L 229.87578 109.754766 
L 234.875171 148.84166 
L 240.041208 170.411459 
L 245.040599 179.482527 
L 250.206636 154.701241 
L 255.372674 164.126135 
L 260.372065 185.901427 
L 265.538102 175.232799 
L 270.537493 152.223031 
L 275.70353 180.214077 
L 280.869567 159.639332 
L 285.535665 170.287675 
L 290.701702 175.146676 
L 295.701093 171.397514 
L 300.86713 170.421424 
L 305.866521 176.12619 
L 311.032558 166.598622 
L 316.198596 171.024173 
L 321.197987 160.216396 
L 326.364024 173.437886 
L 331.363415 171.228575 
L 336.529452 171.502556 
L 341.695489 162.55887 
L 346.361587 159.008493 
L 351.527624 155.700538 
L 356.527015 157.56001 
L 361.693052 157.726503 
L 366.692443 159.886988 
L 371.85848 164.385594 
L 377.024518 165.944158 
L 382.023909 165.278112 
L 387.189946 168.310023 
L 392.189337 169.258291 
L 397.355374 165.152175 
L 402.521411 165.594591 
L 407.187509 165.393075 
L 412.353546 165.816995 
L 417.352937 167.316768 
L 422.518974 166.564296 
L 427.518365 166.415264 
L 432.684402 165.485502 
L 437.85044 164.107978 
L 442.849831 163.099656 
L 448.015868 160.162886 
L 453.015259 157.532837 
L 458.181296 159.628989 
L 463.347333 163.434825 
L 468.180077 165.930812 
L 473.346115 167.909542 
L 478.345506 167.075298 
L 483.511543 162.468175 
L 488.510934 167.772307 
L 493.676971 157.090126 
L 498.843008 142.28038 
L 503.842399 148.26511 
L 509.008436 149.55058 
L 514.007827 145.985216 
L 519.173864 147.27824 
L 524.339901 148.064841 
L 529.005999 141.227449 
L 534.172037 139.687359 
L 539.171428 131.340476 
L 544.337465 146.674298 
L 549.336856 164.135259 
L 554.502893 147.307099 
L 559.66893 145.427612 
L 564.668321 170.231213 
L 569.834358 182.654457 
L 574.833749 159.744327 
L 579.999786 148.021653 
L 585.165823 161.054991 
L 589.831921 168.889636 
L 594.997959 184.698482 
L 599.99735 152.993722 
L 605.163387 154.847393 
L 610.162778 153.888516 
L 615.328815 160.754241 
L 620.494852 151.756506 
L 625.494243 184.858806 
L 630.66028 177.638232 
L 635.659671 141.117578 
L 640.825708 174.573127 
L 645.991745 203.352153 
L 650.657843 211.884442 
L 655.823881 210.180576 
L 660.823271 211.969455 
L 665.989309 185.554572 
L 670.9887 161.89698 
L 676.154737 156.352879 
L 681.320774 207.318071 
L 686.320165 196.609684 
" clip-path="url(#p59e03d4e2c)" style="fill: none; stroke: #006e64; stroke-width: 1.5; stroke-linecap: round"/>
   </g>
   <g id="line2d_17">
    <path d="M 159.051077 156.626929 
L 163.717175 160.297134 
L 168.883212 160.844921 
L 173.882603 160.908464 
L 179.04864 161.938705 
L 184.048031 161.613174 
L 189.214068 162.011277 
L 194.380105 162.735217 
L 199.379496 163.080639 
L 204.545533 163.426561 
L 209.544924 163.224094 
L 214.710961 162.973275 
L 219.876999 163.331517 
L 224.709743 163.432892 
L 229.87578 163.292234 
L 234.875171 163.439016 
L 240.041208 163.472214 
L 245.040599 163.462609 
L 250.206636 163.6189 
L 255.372674 163.46743 
L 260.372065 163.042857 
L 265.538102 162.683621 
L 270.537493 162.566879 
L 275.70353 162.846281 
L 280.869567 162.405307 
L 285.535665 162.593784 
L 290.701702 157.492896 
L 295.701093 157.230874 
L 300.86713 159.250931 
L 305.866521 159.531997 
L 311.032558 159.768732 
L 316.198596 158.297784 
L 321.197987 158.439918 
L 326.364024 158.565512 
L 331.363415 157.797786 
L 336.529452 158.269862 
L 341.695489 161.601213 
L 346.361587 164.328022 
L 351.527624 161.222857 
L 356.527015 155.548975 
L 361.693052 155.510811 
L 366.692443 155.523782 
L 371.85848 151.731797 
L 377.024518 152.98643 
L 382.023909 165.933757 
L 387.189946 166.934265 
L 392.189337 172.370208 
L 397.355374 174.826655 
L 402.521411 176.189015 
L 407.187509 177.146763 
L 412.353546 174.690056 
L 417.352937 172.056326 
L 422.518974 171.857316 
L 427.518365 164.030667 
L 432.684402 155.493085 
L 437.85044 180.254582 
L 442.849831 175.379868 
L 448.015868 174.38635 
L 453.015259 173.489468 
L 458.181296 170.128343 
L 463.347333 171.078948 
L 468.180077 160.408501 
L 473.346115 155.686476 
L 478.345506 152.57992 
L 483.511543 150.521056 
L 488.510934 153.141979 
L 493.676971 158.665551 
L 498.843008 160.87892 
L 503.842399 162.763382 
L 509.008436 167.166722 
L 514.007827 172.713971 
L 519.173864 172.68141 
L 524.339901 170.641054 
L 529.005999 159.053028 
L 534.172037 141.401463 
L 539.171428 143.030023 
L 544.337465 145.095995 
L 549.336856 149.517594 
L 554.502893 150.038771 
L 559.66893 149.907251 
L 564.668321 157.212851 
L 569.834358 153.220618 
L 574.833749 153.37782 
L 579.999786 139.61771 
L 585.165823 152.20083 
L 589.831921 158.971144 
L 594.997959 158.104196 
L 599.99735 160.308707 
L 605.163387 165.319107 
L 610.162778 169.595868 
L 615.328815 166.936551 
L 620.494852 164.389512 
L 625.494243 167.719136 
L 630.66028 168.284399 
L 635.659671 175.564352 
L 640.825708 189.643754 
L 645.991745 177.668212 
L 650.657843 176.026755 
L 655.823881 178.360585 
L 660.823271 182.331692 
L 665.989309 178.187437 
L 670.9887 188.838162 
L 676.154737 195.923994 
L 681.320774 188.15801 
L 686.320165 182.457118 
" clip-path="url(#p59e03d4e2c)" style="fill: none; stroke: #c17150; stroke-width: 1.5; stroke-linecap: round"/>
   </g>
   <g id="line2d_18"/>
   <g id="line2d_19"/>
   <g id="patch_3">
    <path d="M 42.048666 304.875083 
L 42.048666 3.00024 
" style="fill: none; stroke: #808080; stroke-width: 0.8; stroke-linejoin: miter; stroke-linecap: square"/>
   </g>
   <g id="patch_4">
    <path d="M 42.048666 304.875083 
L 716.99976 304.875083 
" style="fill: none; stroke: #808080; stroke-width: 0.8; stroke-linejoin: miter; stroke-linecap: square"/>
   </g>
   <g id="text_18">
    <!-- Source: ELCON A/S -->
    <g style="fill: #808080" transform="translate(624.264008 352.646969) scale(0.1 -0.1)">
     <defs>
      <path id="CMR17-53" d="M 2803 4290 
C 2803 4404 2797 4411 2758 4411 
C 2720 4411 2707 4385 2682 4328 
L 2490 3907 
C 2246 4257 1875 4416 1472 4416 
C 819 4416 294 3901 294 3253 
C 294 3056 339 2776 557 2510 
C 794 2218 1018 2167 1530 2033 
C 1722 1982 2042 1899 2106 1874 
C 2470 1722 2662 1341 2662 985 
C 2662 527 2336 38 1779 38 
C 1094 38 454 419 410 1311 
C 403 1413 397 1419 352 1419 
C 301 1419 294 1413 294 1285 
L 294 -1 
C 294 -115 301 -122 339 -122 
C 384 -122 397 -90 486 108 
C 493 127 493 140 614 381 
C 934 -39 1472 -128 1779 -128 
C 2477 -128 2970 451 2970 1124 
C 2970 1454 2848 1708 2778 1823 
C 2509 2230 2221 2306 1914 2382 
C 1869 2402 1856 2402 1498 2490 
C 1152 2579 1005 2624 845 2796 
C 666 2992 602 3196 602 3399 
C 602 3812 934 4263 1478 4263 
C 2157 4263 2579 3786 2675 2993 
C 2694 2878 2701 2872 2746 2872 
C 2803 2872 2803 2891 2803 2999 
L 2803 4290 
z
" transform="scale(0.015625)"/>
      <path id="CMR17-6f" d="M 2758 1356 
C 2758 2176 2163 2816 1466 2816 
C 768 2816 173 2176 173 1356 
C 173 551 768 -64 1466 -64 
C 2163 -64 2758 551 2758 1356 
z
M 1466 51 
C 1165 51 909 230 762 480 
C 602 767 582 1126 582 1408 
C 582 1677 595 2010 762 2298 
C 890 2509 1139 2714 1466 2714 
C 1754 2714 1997 2554 2150 2330 
C 2349 2029 2349 1607 2349 1408 
C 2349 1158 2336 775 2163 467 
C 1984 173 1709 51 1466 51 
z
" transform="scale(0.015625)"/>
      <path id="CMR17-75" d="M 1882 2693 
L 1882 2528 
C 2259 2528 2317 2489 2317 2186 
L 2317 1032 
C 2317 500 2029 38 1555 38 
C 1030 38 986 348 986 678 
L 986 2763 
L 211 2693 
L 211 2528 
C 467 2528 640 2528 646 2274 
L 646 1058 
C 646 633 646 361 813 183 
C 896 101 1056 -64 1517 -64 
C 2061 -64 2272 377 2323 506 
L 2330 506 
L 2330 -63 
L 3091 -63 
L 3091 128 
C 2714 128 2656 166 2656 473 
L 2656 2763 
L 1882 2693 
z
" transform="scale(0.015625)"/>
      <path id="CMR17-72" d="M 960 1497 
C 960 2112 1222 2688 1702 2688 
C 1747 2688 1792 2682 1837 2662 
C 1837 2662 1696 2617 1696 2452 
C 1696 2298 1818 2234 1914 2234 
C 1990 2234 2131 2279 2131 2458 
C 2131 2663 1926 2790 1709 2790 
C 1222 2790 1011 2317 947 2093 
L 941 2093 
L 941 2790 
L 198 2720 
L 198 2554 
C 576 2554 634 2515 634 2208 
L 634 428 
C 634 184 608 153 198 153 
L 198 -13 
C 352 0 646 0 813 0 
C 998 0 1325 0 1498 -13 
L 1498 153 
C 1037 153 960 153 960 440 
L 960 1497 
z
" transform="scale(0.015625)"/>
      <path id="CMR17-63" d="M 2234 2240 
C 2112 2240 1933 2240 1933 2017 
C 1933 1838 2080 1787 2163 1787 
C 2208 1787 2394 1807 2394 2024 
C 2394 2467 1958 2803 1466 2803 
C 787 2803 211 2178 211 1363 
C 211 516 813 -64 1466 -64 
C 2259 -64 2458 677 2458 748 
C 2458 774 2451 793 2406 793 
C 2362 793 2355 787 2330 703 
C 2163 180 1798 51 1523 51 
C 1114 51 621 427 621 1369 
C 621 2338 1094 2688 1472 2688 
C 1722 2688 2093 2573 2234 2240 
z
" transform="scale(0.015625)"/>
      <path id="CMR17-3a" d="M 1062 2491 
C 1062 2650 934 2752 800 2752 
C 672 2752 538 2650 538 2491 
C 538 2332 666 2230 800 2230 
C 928 2230 1062 2332 1062 2491 
z
M 1062 261 
C 1062 420 934 522 800 522 
C 672 522 538 420 538 261 
C 538 102 666 0 800 0 
C 928 0 1062 102 1062 261 
z
" transform="scale(0.015625)"/>
      <path id="CMR17-45" d="M 3885 1615 
L 3770 1615 
C 3629 676 3546 166 2419 166 
L 1530 166 
C 1274 166 1261 197 1261 414 
L 1261 2176 
L 1862 2176 
C 2464 2176 2522 1960 2522 1430 
L 2637 1430 
L 2637 3081 
L 2522 3081 
C 2522 2557 2464 2342 1862 2342 
L 1261 2342 
L 1261 3913 
C 1261 4128 1274 4160 1530 4160 
L 2406 4160 
C 3398 4160 3514 3769 3603 2929 
L 3718 2929 
L 3565 4325 
L 326 4325 
L 326 4160 
C 768 4160 838 4160 838 3874 
L 838 451 
C 838 166 768 166 326 166 
L 326 0 
L 3654 0 
L 3885 1615 
z
" transform="scale(0.015625)"/>
      <path id="CMR17-4c" d="M 3469 1615 
L 3354 1615 
C 3302 983 3219 166 2125 166 
L 1530 166 
C 1274 166 1261 197 1261 414 
L 1261 3898 
C 1261 4129 1274 4192 1760 4192 
L 1901 4192 
L 1901 4352 
C 1638 4352 1331 4352 1069 4352 
C 870 4352 512 4352 326 4352 
L 326 4192 
C 768 4192 838 4192 838 3905 
L 838 452 
C 838 166 768 166 326 166 
L 326 0 
L 3315 0 
L 3469 1615 
z
" transform="scale(0.015625)"/>
      <path id="CMR17-43" d="M 3974 4289 
C 3974 4403 3968 4410 3930 4410 
C 3904 4410 3898 4403 3853 4327 
L 3571 3792 
C 3258 4187 2874 4416 2381 4416 
C 1286 4416 294 3456 294 2148 
C 294 826 1286 -128 2387 -128 
C 3366 -128 3974 730 3974 1461 
C 3974 1524 3974 1550 3917 1550 
C 3866 1550 3866 1531 3859 1474 
C 3808 585 3168 38 2477 38 
C 1824 38 781 495 781 2147 
C 781 3805 1843 4250 2464 4250 
C 3187 4250 3712 3628 3834 2745 
C 3846 2668 3846 2655 3904 2655 
C 3974 2655 3974 2668 3974 2783 
L 3974 4289 
z
" transform="scale(0.015625)"/>
      <path id="CMR17-4f" d="M 4307 2135 
C 4307 3437 3366 4416 2304 4416 
C 1216 4416 294 3424 294 2135 
C 294 845 1229 -128 2298 -128 
C 3392 -128 4307 864 4307 2135 
z
M 2304 -13 
C 1574 -13 781 711 781 2217 
C 781 3716 1651 4301 2298 4301 
C 2976 4301 3821 3698 3821 2217 
C 3821 686 3008 -13 2304 -13 
z
" transform="scale(0.015625)"/>
      <path id="CMR17-4e" d="M 1312 4250 
C 1267 4320 1261 4320 1139 4320 
L 326 4320 
L 326 4160 
L 448 4160 
C 704 4160 819 4129 838 4122 
L 838 610 
C 838 451 838 153 326 153 
L 326 -13 
C 474 0 742 0 902 0 
C 1062 0 1331 0 1478 -13 
L 1478 153 
C 966 153 966 451 966 610 
L 966 4033 
C 1011 3995 1011 3982 1056 3919 
L 3430 76 
C 3475 0 3494 0 3526 0 
C 3590 0 3590 19 3590 139 
L 3590 3705 
C 3590 3863 3590 4160 4102 4160 
L 4102 4326 
C 3955 4320 3686 4320 3526 4320 
C 3366 4320 3098 4320 2950 4326 
L 2950 4160 
C 3462 4160 3462 3862 3462 3703 
L 3462 763 
L 1312 4250 
z
" transform="scale(0.015625)"/>
      <path id="CMR17-41" d="M 2323 4378 
C 2291 4461 2278 4480 2214 4480 
C 2150 4480 2138 4461 2106 4378 
L 749 566 
C 627 223 371 153 147 153 
L 147 -13 
C 262 0 518 0 640 0 
C 800 0 1056 0 1210 -13 
L 1210 153 
C 909 153 864 361 864 439 
C 864 497 877 530 890 569 
L 1229 1536 
L 2906 1536 
L 3290 442 
C 3322 365 3322 352 3322 327 
C 3322 153 3046 153 2925 153 
L 2925 0 
C 3110 0 3443 0 3642 0 
C 3808 0 4128 0 4282 -13 
L 4282 153 
C 3942 153 3827 153 3744 387 
L 2323 4378 
z
M 2067 3893 
L 2848 1702 
L 1286 1702 
L 2067 3893 
z
" transform="scale(0.015625)"/>
      <path id="CMR17-2f" d="M 2605 4545 
C 2637 4627 2637 4640 2637 4653 
C 2637 4729 2579 4768 2528 4768 
C 2451 4768 2426 4717 2400 4640 
L 326 -1377 
C 294 -1460 294 -1473 294 -1486 
C 294 -1562 352 -1600 403 -1600 
C 480 -1600 506 -1549 531 -1473 
L 2605 4545 
z
" transform="scale(0.015625)"/>
     </defs>
     <use xlink:href="#CMR17-53" transform="scale(0.996264)"/>
     <use xlink:href="#CMR17-6f" transform="translate(50.89537 0) scale(0.996264)"/>
     <use xlink:href="#CMR17-75" transform="translate(96.585847 0) scale(0.996264)"/>
     <use xlink:href="#CMR17-72" transform="translate(147.481217 0) scale(0.996264)"/>
     <use xlink:href="#CMR17-63" transform="translate(182.761984 0) scale(0.996264)"/>
     <use xlink:href="#CMR17-65" transform="translate(223.247645 0) scale(0.996264)"/>
     <use xlink:href="#CMR17-3a" transform="translate(263.733305 0) scale(0.996264)"/>
     <use xlink:href="#CMR17-45" transform="translate(329.090024 0) scale(0.996264)"/>
     <use xlink:href="#CMR17-4c" transform="translate(391.676325 0) scale(0.996264)"/>
     <use xlink:href="#CMR17-43" transform="translate(449.057733 0) scale(0.996264)"/>
     <use xlink:href="#CMR17-4f" transform="translate(515.567613 0) scale(0.996264)"/>
     <use xlink:href="#CMR17-4e" transform="translate(587.282402 0) scale(0.996264)"/>
     <use xlink:href="#CMR17-41" transform="translate(686.430798 0) scale(0.996264)"/>
     <use xlink:href="#CMR17-2f" transform="translate(755.503228 0) scale(0.996264)"/>
     <use xlink:href="#CMR17-53" transform="translate(801.193705 0) scale(0.996264)"/>
    </g>
   </g>
   <g id="legend_1">
    <g id="patch_5">
     <path d="M 324.580207 356.999746 
L 434.468219 356.999746 
Q 436.468219 356.999746 436.468219 354.999746 
L 436.468219 342.062567 
Q 436.468219 340.062567 434.468219 340.062567 
L 324.580207 340.062567 
Q 322.580207 340.062567 322.580207 342.062567 
L 322.580207 354.999746 
Q 322.580207 356.999746 324.580207 356.999746 
z
" style="fill: #ffffff; opacity: 0.8; stroke: #cccccc; stroke-linejoin: miter"/>
    </g>
    <g id="line2d_20">
     <path d="M 326.580207 347.562567 
L 336.580207 347.562567 
L 346.580207 347.562567 
" style="fill: none; stroke: #006e64; stroke-width: 1.5; stroke-linecap: round"/>
    </g>
    <g id="text_19">
     <!-- 505 -->
     <g style="fill: #262626" transform="translate(354.580207 351.062567) scale(0.1 -0.1)">
      <defs>
       <path id="CMR17-35" d="M 730 3692 
C 794 3666 1056 3584 1325 3584 
C 1920 3584 2246 3911 2432 4100 
C 2432 4157 2432 4192 2394 4192 
C 2387 4192 2374 4192 2323 4163 
C 2099 4058 1837 3973 1517 3973 
C 1325 3973 1037 3999 723 4139 
C 653 4171 640 4171 634 4171 
C 602 4171 595 4164 595 4037 
L 595 2203 
C 595 2089 595 2057 659 2057 
C 691 2057 704 2070 736 2114 
C 941 2401 1222 2522 1542 2522 
C 1766 2522 2246 2382 2246 1289 
C 2246 1085 2246 715 2054 421 
C 1894 159 1645 25 1370 25 
C 947 25 518 320 403 814 
C 429 807 480 795 506 795 
C 589 795 749 840 749 1038 
C 749 1210 627 1280 506 1280 
C 358 1280 262 1190 262 1011 
C 262 454 704 -128 1382 -128 
C 2042 -128 2669 440 2669 1264 
C 2669 2030 2170 2624 1549 2624 
C 1222 2624 947 2503 730 2274 
L 730 3692 
z
" transform="scale(0.015625)"/>
      </defs>
      <use xlink:href="#CMR17-35" transform="scale(0.996264)"/>
      <use xlink:href="#CMR17-30" transform="translate(45.690477 0) scale(0.996264)"/>
      <use xlink:href="#CMR17-35" transform="translate(91.380954 0) scale(0.996264)"/>
     </g>
    </g>
    <g id="line2d_21">
     <path d="M 389.524213 347.562567 
L 399.524213 347.562567 
L 409.524213 347.562567 
" style="fill: none; stroke: #c17150; stroke-width: 1.5; stroke-linecap: round"/>
    </g>
    <g id="text_20">
     <!-- 515 -->
     <g style="fill: #262626" transform="translate(417.524213 351.062567) scale(0.1 -0.1)">
      <use xlink:href="#CMR17-35" transform="scale(0.996264)"/>
      <use xlink:href="#CMR17-31" transform="translate(45.690477 0) scale(0.996264)"/>
      <use xlink:href="#CMR17-35" transform="translate(91.380954 0) scale(0.996264)"/>
     </g>
    </g>
   </g>
  </g>
 </g>
 <defs>
  <clipPath id="p59e03d4e2c">
   <rect x="42.048666" y="3.00024" width="674.951094" height="301.874843"/>
  </clipPath>
 </defs>
</svg>
