<?xml version="1.0" encoding="utf-8" standalone="no"?>
<!DOCTYPE svg PUBLIC "-//W3C//DTD SVG 1.1//EN"
  "http://www.w3.org/Graphics/SVG/1.1/DTD/svg11.dtd">
<svg xmlns:xlink="http://www.w3.org/1999/xlink" width="720pt" height="360pt" viewBox="0 0 720 360" xmlns="http://www.w3.org/2000/svg" version="1.1">
 <metadata>
  <rdf:RDF xmlns:dc="http://purl.org/dc/elements/1.1/" xmlns:cc="http://creativecommons.org/ns#" xmlns:rdf="http://www.w3.org/1999/02/22-rdf-syntax-ns#">
   <cc:Work>
    <dc:type rdf:resource="http://purl.org/dc/dcmitype/StillImage"/>
    <dc:date>2023-10-17T13:58:13.510506</dc:date>
    <dc:format>image/svg+xml</dc:format>
    <dc:creator>
     <cc:Agent>
      <dc:title>Matplotlib v3.6.3, https://matplotlib.org/</dc:title>
     </cc:Agent>
    </dc:creator>
   </cc:Work>
  </rdf:RDF>
 </metadata>
 <defs>
  <style type="text/css">*{stroke-linejoin: round; stroke-linecap: butt}</style>
 </defs>
 <g id="figure_1">
  <g id="patch_1">
   <path d="M 0 360 
L 720 360 
L 720 0 
L 0 0 
z
" style="fill: #ffffff"/>
  </g>
  <g id="axes_1">
   <g id="patch_2">
    <path d="M 42.048666 304.935084 
L 716.99976 304.935084 
L 716.99976 3.671039 
L 42.048666 3.671039 
z
" style="fill: #ffffff"/>
   </g>
   <g id="matplotlib.axis_1">
    <g id="xtick_1">
     <g id="line2d_1">
      <path d="M 93.059117 304.935084 
L 93.059117 3.671039 
" clip-path="url(#p8ae859b78a)" style="fill: none; stroke: #cccccc; stroke-opacity: 0.35; stroke-width: 0.8; stroke-linecap: round"/>
     </g>
     <g id="text_1">
      <!-- $\mathdefault{2014}$ -->
      <g transform="translate(83.096447 315.353582) scale(0.1 -0.1)">
       <defs>
        <path id="CMR17-32" d="M 2669 989 
L 2554 989 
C 2490 536 2438 459 2413 420 
C 2381 369 1920 369 1830 369 
L 602 369 
C 832 619 1280 1072 1824 1597 
C 2214 1967 2669 2402 2669 3035 
C 2669 3790 2067 4224 1395 4224 
C 691 4224 262 3604 262 3030 
C 262 2780 448 2748 525 2748 
C 589 2748 781 2787 781 3010 
C 781 3207 614 3264 525 3264 
C 486 3264 448 3258 422 3245 
C 544 3790 915 4058 1306 4058 
C 1862 4058 2227 3617 2227 3035 
C 2227 2479 1901 2000 1536 1584 
L 262 146 
L 262 0 
L 2515 0 
L 2669 989 
z
" transform="scale(0.015625)"/>
        <path id="CMR17-30" d="M 2688 2025 
C 2688 2416 2682 3080 2413 3591 
C 2176 4039 1798 4198 1466 4198 
C 1158 4198 768 4058 525 3597 
C 269 3118 243 2524 243 2025 
C 243 1661 250 1106 448 619 
C 723 -39 1216 -128 1466 -128 
C 1760 -128 2208 -7 2470 600 
C 2662 1042 2688 1559 2688 2025 
z
M 1466 -26 
C 1056 -26 813 325 723 812 
C 653 1188 653 1738 653 2096 
C 653 2588 653 2997 736 3387 
C 858 3929 1216 4096 1466 4096 
C 1728 4096 2067 3923 2189 3400 
C 2272 3036 2278 2607 2278 2096 
C 2278 1680 2278 1169 2202 792 
C 2067 95 1690 -26 1466 -26 
z
" transform="scale(0.015625)"/>
        <path id="CMR17-31" d="M 1702 4058 
C 1702 4192 1696 4192 1606 4192 
C 1357 3916 979 3827 621 3827 
C 602 3827 570 3827 563 3808 
C 557 3795 557 3782 557 3648 
C 755 3648 1088 3686 1344 3839 
L 1344 461 
C 1344 236 1331 160 781 160 
L 589 160 
L 589 0 
C 896 0 1216 0 1523 0 
C 1830 0 2150 0 2458 0 
L 2458 160 
L 2266 160 
C 1715 160 1702 230 1702 458 
L 1702 4058 
z
" transform="scale(0.015625)"/>
        <path id="CMR17-34" d="M 2150 4122 
C 2150 4256 2144 4256 2029 4256 
L 128 1254 
L 128 1088 
L 1779 1088 
L 1779 457 
C 1779 224 1766 160 1318 160 
L 1197 160 
L 1197 0 
C 1402 0 1747 0 1965 0 
C 2182 0 2528 0 2733 0 
L 2733 160 
L 2611 160 
C 2163 160 2150 224 2150 457 
L 2150 1088 
L 2803 1088 
L 2803 1254 
L 2150 1254 
L 2150 4122 
z
M 1798 3703 
L 1798 1254 
L 256 1254 
L 1798 3703 
z
" transform="scale(0.015625)"/>
       </defs>
       <use xlink:href="#CMR17-32" transform="scale(0.996264)"/>
       <use xlink:href="#CMR17-30" transform="translate(45.690477 0) scale(0.996264)"/>
       <use xlink:href="#CMR17-31" transform="translate(91.380954 0) scale(0.996264)"/>
       <use xlink:href="#CMR17-34" transform="translate(137.071431 0) scale(0.996264)"/>
      </g>
     </g>
    </g>
    <g id="xtick_2">
     <g id="line2d_2">
      <path d="M 214.710961 304.935084 
L 214.710961 3.671039 
" clip-path="url(#p8ae859b78a)" style="fill: none; stroke: #cccccc; stroke-opacity: 0.35; stroke-width: 0.8; stroke-linecap: round"/>
     </g>
     <g id="text_2">
      <!-- $\mathdefault{2016}$ -->
      <g transform="translate(204.748291 315.353582) scale(0.1 -0.1)">
       <defs>
        <path id="CMR17-36" d="M 678 2176 
C 678 3690 1395 4032 1811 4032 
C 1946 4032 2272 4009 2400 3776 
C 2298 3776 2106 3776 2106 3553 
C 2106 3381 2246 3323 2336 3323 
C 2394 3323 2566 3348 2566 3560 
C 2566 3954 2246 4179 1805 4179 
C 1043 4179 243 3390 243 1984 
C 243 253 966 -128 1478 -128 
C 2099 -128 2688 427 2688 1283 
C 2688 2081 2170 2662 1517 2662 
C 1126 2662 838 2407 678 1960 
L 678 2176 
z
M 1478 25 
C 691 25 691 1200 691 1436 
C 691 1896 909 2560 1504 2560 
C 1613 2560 1926 2560 2138 2120 
C 2253 1870 2253 1609 2253 1289 
C 2253 944 2253 690 2118 434 
C 1978 171 1773 25 1478 25 
z
" transform="scale(0.015625)"/>
       </defs>
       <use xlink:href="#CMR17-32" transform="scale(0.996264)"/>
       <use xlink:href="#CMR17-30" transform="translate(45.690477 0) scale(0.996264)"/>
       <use xlink:href="#CMR17-31" transform="translate(91.380954 0) scale(0.996264)"/>
       <use xlink:href="#CMR17-36" transform="translate(137.071431 0) scale(0.996264)"/>
      </g>
     </g>
    </g>
    <g id="xtick_3">
     <g id="line2d_3">
      <path d="M 336.529452 304.935084 
L 336.529452 3.671039 
" clip-path="url(#p8ae859b78a)" style="fill: none; stroke: #cccccc; stroke-opacity: 0.35; stroke-width: 0.8; stroke-linecap: round"/>
     </g>
     <g id="text_3">
      <!-- $\mathdefault{2018}$ -->
      <g transform="translate(326.566781 315.353582) scale(0.1 -0.1)">
       <defs>
        <path id="CMR17-38" d="M 1741 2264 
C 2144 2467 2554 2773 2554 3263 
C 2554 3841 1990 4179 1472 4179 
C 890 4179 378 3759 378 3180 
C 378 3021 416 2747 666 2505 
C 730 2442 998 2251 1171 2130 
C 883 1983 211 1634 211 934 
C 211 279 838 -128 1459 -128 
C 2144 -128 2720 362 2720 1010 
C 2720 1590 2330 1857 2074 2029 
L 1741 2264 
z
M 902 2822 
C 851 2854 595 3051 595 3351 
C 595 3739 998 4032 1459 4032 
C 1965 4032 2336 3676 2336 3262 
C 2336 2669 1670 2331 1638 2331 
C 1632 2331 1626 2331 1574 2370 
L 902 2822 
z
M 2080 1519 
C 2176 1449 2483 1240 2483 851 
C 2483 381 2010 25 1472 25 
C 890 25 448 438 448 940 
C 448 1443 838 1862 1280 2060 
L 2080 1519 
z
" transform="scale(0.015625)"/>
       </defs>
       <use xlink:href="#CMR17-32" transform="scale(0.996264)"/>
       <use xlink:href="#CMR17-30" transform="translate(45.690477 0) scale(0.996264)"/>
       <use xlink:href="#CMR17-31" transform="translate(91.380954 0) scale(0.996264)"/>
       <use xlink:href="#CMR17-38" transform="translate(137.071431 0) scale(0.996264)"/>
      </g>
     </g>
    </g>
    <g id="xtick_4">
     <g id="line2d_4">
      <path d="M 458.181296 304.935084 
L 458.181296 3.671039 
" clip-path="url(#p8ae859b78a)" style="fill: none; stroke: #cccccc; stroke-opacity: 0.35; stroke-width: 0.8; stroke-linecap: round"/>
     </g>
     <g id="text_4">
      <!-- $\mathdefault{2020}$ -->
      <g transform="translate(448.218625 315.353582) scale(0.1 -0.1)">
       <use xlink:href="#CMR17-32" transform="scale(0.996264)"/>
       <use xlink:href="#CMR17-30" transform="translate(45.690477 0) scale(0.996264)"/>
       <use xlink:href="#CMR17-32" transform="translate(91.380954 0) scale(0.996264)"/>
       <use xlink:href="#CMR17-30" transform="translate(137.071431 0) scale(0.996264)"/>
      </g>
     </g>
    </g>
    <g id="xtick_5">
     <g id="line2d_5">
      <path d="M 579.999786 304.935084 
L 579.999786 3.671039 
" clip-path="url(#p8ae859b78a)" style="fill: none; stroke: #cccccc; stroke-opacity: 0.35; stroke-width: 0.8; stroke-linecap: round"/>
     </g>
     <g id="text_5">
      <!-- $\mathdefault{2022}$ -->
      <g transform="translate(570.037116 315.353582) scale(0.1 -0.1)">
       <use xlink:href="#CMR17-32" transform="scale(0.996264)"/>
       <use xlink:href="#CMR17-30" transform="translate(45.690477 0) scale(0.996264)"/>
       <use xlink:href="#CMR17-32" transform="translate(91.380954 0) scale(0.996264)"/>
       <use xlink:href="#CMR17-32" transform="translate(137.071431 0) scale(0.996264)"/>
      </g>
     </g>
    </g>
    <g id="xtick_6">
     <g id="line2d_6">
      <path d="M 701.65163 304.935084 
L 701.65163 3.671039 
" clip-path="url(#p8ae859b78a)" style="fill: none; stroke: #cccccc; stroke-opacity: 0.35; stroke-width: 0.8; stroke-linecap: round"/>
     </g>
     <g id="text_6">
      <!-- $\mathdefault{2024}$ -->
      <g transform="translate(691.68896 315.353582) scale(0.1 -0.1)">
       <use xlink:href="#CMR17-32" transform="scale(0.996264)"/>
       <use xlink:href="#CMR17-30" transform="translate(45.690477 0) scale(0.996264)"/>
       <use xlink:href="#CMR17-32" transform="translate(91.380954 0) scale(0.996264)"/>
       <use xlink:href="#CMR17-34" transform="translate(137.071431 0) scale(0.996264)"/>
      </g>
     </g>
    </g>
    <g id="text_7">
     <!-- Date -->
     <g style="fill: #696969" transform="translate(369.077259 328.209259) scale(0.1 -0.1)">
      <defs>
       <path id="CMR17-44" d="M 333 4352 
L 333 4186 
C 774 4186 845 4186 845 3900 
L 845 452 
C 845 166 774 166 333 166 
L 333 0 
L 2368 0 
C 3398 0 4224 943 4224 2141 
C 4224 3346 3411 4352 2368 4352 
L 333 4352 
z
M 1523 166 
C 1267 166 1254 197 1254 414 
L 1254 3938 
C 1254 4155 1267 4186 1523 4186 
L 2240 4186 
C 2771 4186 3750 3874 3750 2141 
C 3750 1242 3488 879 3366 707 
C 3213 510 2848 166 2240 166 
L 1523 166 
z
" transform="scale(0.015625)"/>
       <path id="CMR17-61" d="M 2304 1653 
C 2304 2072 2304 2294 2035 2543 
C 1798 2752 1523 2816 1306 2816 
C 800 2816 435 2407 435 1971 
C 435 1728 627 1728 666 1728 
C 749 1728 896 1778 896 1954 
C 896 2112 774 2181 666 2181 
C 640 2181 608 2174 589 2168 
C 723 2592 1069 2714 1293 2714 
C 1613 2714 1965 2429 1965 1885 
L 1965 1600 
C 1587 1600 1133 1549 774 1357 
C 371 1133 256 813 256 570 
C 256 77 832 -64 1171 -64 
C 1523 -64 1850 139 1990 511 
C 2003 233 2182 -18 2464 -18 
C 2598 -18 2938 70 2938 567 
L 2938 920 
L 2822 920 
L 2822 562 
C 2822 178 2650 128 2566 128 
C 2304 128 2304 458 2304 738 
L 2304 1653 
z
M 1965 870 
C 1965 317 1568 38 1216 38 
C 896 38 646 275 646 570 
C 646 761 730 1100 1101 1305 
C 1408 1478 1760 1504 1965 1504 
L 1965 870 
z
" transform="scale(0.015625)"/>
       <path id="CMR17-74" d="M 966 2560 
L 1862 2560 
L 1862 2725 
L 966 2725 
L 966 3904 
L 851 3904 
C 838 3245 614 2668 70 2668 
L 70 2560 
L 627 2560 
L 627 771 
C 627 650 627 -64 1370 -64 
C 1747 -64 1965 306 1965 777 
L 1965 1140 
L 1850 1140 
L 1850 783 
C 1850 344 1677 51 1408 51 
C 1222 51 966 178 966 758 
L 966 2560 
z
" transform="scale(0.015625)"/>
       <path id="CMR17-65" d="M 2438 1472 
C 2464 1498 2464 1511 2464 1576 
C 2464 2238 2118 2816 1389 2816 
C 710 2816 173 2169 173 1383 
C 173 551 781 -64 1459 -64 
C 2176 -64 2458 607 2458 740 
C 2458 784 2419 784 2406 784 
C 2362 784 2355 771 2330 696 
C 2189 265 1837 51 1504 51 
C 1229 51 954 203 781 480 
C 582 803 582 1176 582 1472 
L 2438 1472 
z
M 589 1568 
C 634 2505 1126 2714 1382 2714 
C 1818 2714 2112 2297 2118 1568 
L 589 1568 
z
" transform="scale(0.015625)"/>
      </defs>
      <use xlink:href="#CMR17-44" transform="scale(0.996264)"/>
      <use xlink:href="#CMR17-61" transform="translate(70.393556 0) scale(0.996264)"/>
      <use xlink:href="#CMR17-74" transform="translate(116.084033 0) scale(0.996264)"/>
      <use xlink:href="#CMR17-65" transform="translate(151.364801 0) scale(0.996264)"/>
     </g>
    </g>
   </g>
   <g id="matplotlib.axis_2">
    <g id="ytick_1">
     <g id="line2d_7">
      <path d="M 42.048666 262.627671 
L 716.99976 262.627671 
" clip-path="url(#p8ae859b78a)" style="fill: none; stroke: #cccccc; stroke-opacity: 0.35; stroke-width: 0.8; stroke-linecap: round"/>
     </g>
     <g id="text_8">
      <!-- $\mathdefault{−600}$ -->
      <g transform="translate(15.855917 266.08692) scale(0.1 -0.1)">
       <defs>
        <path id="CMSY10-0" d="M 4218 1472 
C 4326 1472 4442 1472 4442 1600 
C 4442 1728 4326 1728 4218 1728 
L 755 1728 
C 646 1728 531 1728 531 1600 
C 531 1472 646 1472 755 1472 
L 4218 1472 
z
" transform="scale(0.015625)"/>
       </defs>
       <use xlink:href="#CMSY10-0" transform="scale(0.996264)"/>
       <use xlink:href="#CMR17-36" transform="translate(77.487468 0) scale(0.996264)"/>
       <use xlink:href="#CMR17-30" transform="translate(123.177945 0) scale(0.996264)"/>
       <use xlink:href="#CMR17-30" transform="translate(168.868422 0) scale(0.996264)"/>
      </g>
     </g>
    </g>
    <g id="ytick_2">
     <g id="line2d_8">
      <path d="M 42.048666 211.394015 
L 716.99976 211.394015 
" clip-path="url(#p8ae859b78a)" style="fill: none; stroke: #cccccc; stroke-opacity: 0.35; stroke-width: 0.8; stroke-linecap: round"/>
     </g>
     <g id="text_9">
      <!-- $\mathdefault{−400}$ -->
      <g transform="translate(15.855917 214.853264) scale(0.1 -0.1)">
       <use xlink:href="#CMSY10-0" transform="scale(0.996264)"/>
       <use xlink:href="#CMR17-34" transform="translate(77.487468 0) scale(0.996264)"/>
       <use xlink:href="#CMR17-30" transform="translate(123.177945 0) scale(0.996264)"/>
       <use xlink:href="#CMR17-30" transform="translate(168.868422 0) scale(0.996264)"/>
      </g>
     </g>
    </g>
    <g id="ytick_3">
     <g id="line2d_9">
      <path d="M 42.048666 160.160358 
L 716.99976 160.160358 
" clip-path="url(#p8ae859b78a)" style="fill: none; stroke: #cccccc; stroke-opacity: 0.35; stroke-width: 0.8; stroke-linecap: round"/>
     </g>
     <g id="text_10">
      <!-- $\mathdefault{−200}$ -->
      <g transform="translate(15.855917 163.619607) scale(0.1 -0.1)">
       <use xlink:href="#CMSY10-0" transform="scale(0.996264)"/>
       <use xlink:href="#CMR17-32" transform="translate(77.487468 0) scale(0.996264)"/>
       <use xlink:href="#CMR17-30" transform="translate(123.177945 0) scale(0.996264)"/>
       <use xlink:href="#CMR17-30" transform="translate(168.868422 0) scale(0.996264)"/>
      </g>
     </g>
    </g>
    <g id="ytick_4">
     <g id="line2d_10">
      <path d="M 42.048666 108.926701 
L 716.99976 108.926701 
" clip-path="url(#p8ae859b78a)" style="fill: none; stroke: #cccccc; stroke-opacity: 0.35; stroke-width: 0.8; stroke-linecap: round"/>
     </g>
     <g id="text_11">
      <!-- $\mathdefault{0}$ -->
      <g transform="translate(33.567331 112.38595) scale(0.1 -0.1)">
       <use xlink:href="#CMR17-30" transform="scale(0.996264)"/>
      </g>
     </g>
    </g>
    <g id="ytick_5">
     <g id="line2d_11">
      <path d="M 42.048666 57.693045 
L 716.99976 57.693045 
" clip-path="url(#p8ae859b78a)" style="fill: none; stroke: #cccccc; stroke-opacity: 0.35; stroke-width: 0.8; stroke-linecap: round"/>
     </g>
     <g id="text_12">
      <!-- $\mathdefault{200}$ -->
      <g transform="translate(23.60466 61.152294) scale(0.1 -0.1)">
       <use xlink:href="#CMR17-32" transform="scale(0.996264)"/>
       <use xlink:href="#CMR17-30" transform="translate(45.690477 0) scale(0.996264)"/>
       <use xlink:href="#CMR17-30" transform="translate(91.380954 0) scale(0.996264)"/>
      </g>
     </g>
    </g>
    <g id="ytick_6">
     <g id="line2d_12">
      <path d="M 42.048666 6.459388 
L 716.99976 6.459388 
" clip-path="url(#p8ae859b78a)" style="fill: none; stroke: #cccccc; stroke-opacity: 0.35; stroke-width: 0.8; stroke-linecap: round"/>
     </g>
     <g id="text_13">
      <!-- $\mathdefault{400}$ -->
      <g transform="translate(23.60466 9.918637) scale(0.1 -0.1)">
       <use xlink:href="#CMR17-34" transform="scale(0.996264)"/>
       <use xlink:href="#CMR17-30" transform="translate(45.690477 0) scale(0.996264)"/>
       <use xlink:href="#CMR17-30" transform="translate(91.380954 0) scale(0.996264)"/>
      </g>
     </g>
    </g>
    <g id="text_14">
     <!-- Risk -->
     <g style="fill: #696969" transform="translate(9.918738 163.947467) rotate(-90) scale(0.1 -0.1)">
      <defs>
       <path id="CMR17-52" d="M 2509 2146 
C 3117 2268 3629 2676 3629 3186 
C 3629 3785 2950 4326 2054 4326 
L 333 4326 
L 333 4160 
C 774 4160 845 4160 845 3873 
L 845 415 
C 845 128 774 128 333 128 
L 333 -26 
C 518 -26 851 -26 1050 -26 
C 1248 -26 1581 -26 1766 -26 
L 1766 128 
C 1325 128 1254 128 1254 417 
L 1254 2112 
L 2003 2112 
C 2368 2112 2573 1964 2662 1881 
C 2918 1632 2918 1459 2918 1024 
C 2918 595 2918 377 3110 160 
C 3354 -102 3680 -128 3821 -128 
C 4294 -128 4365 396 4365 503 
C 4365 540 4365 585 4307 585 
C 4256 585 4250 547 4250 522 
C 4218 112 4032 -26 3834 -26 
C 3482 -26 3443 375 3405 764 
C 3386 898 3373 993 3360 1133 
C 3322 1452 3270 1917 2509 2146 
z
M 1984 2214 
L 1254 2214 
L 1254 3913 
C 1254 4129 1267 4160 1523 4160 
L 1990 4160 
C 2522 4160 3142 3977 3142 3190 
C 3142 2372 2464 2214 1984 2214 
z
" transform="scale(0.015625)"/>
       <path id="CMR17-69" d="M 992 3909 
C 992 4049 877 4170 730 4170 
C 589 4170 467 4056 467 3909 
C 467 3769 582 3648 730 3648 
C 870 3648 992 3763 992 3909 
z
M 243 2706 
L 243 2541 
C 602 2541 653 2502 653 2197 
L 653 427 
C 653 184 627 153 218 153 
L 218 -13 
C 371 0 646 0 806 0 
C 960 0 1222 0 1370 -13 
L 1370 153 
C 992 153 979 191 979 420 
L 979 2776 
L 243 2706 
z
" transform="scale(0.015625)"/>
       <path id="CMR17-73" d="M 1978 2697 
C 1978 2813 1971 2819 1933 2819 
C 1907 2819 1901 2813 1824 2717 
C 1805 2691 1747 2626 1728 2601 
C 1523 2819 1235 2819 1126 2819 
C 416 2819 160 2447 160 2076 
C 160 1498 813 1365 998 1325 
C 1402 1243 1542 1217 1677 1101 
C 1760 1025 1901 884 1901 654 
C 1901 384 1747 38 1158 38 
C 602 38 403 460 288 1021 
C 269 1110 269 1117 218 1117 
C 166 1117 160 1110 160 983 
L 160 63 
C 160 -51 166 -58 205 -58 
C 237 -58 243 -51 275 0 
C 314 57 410 211 448 276 
C 576 103 800 -64 1158 -64 
C 1792 -64 2131 283 2131 784 
C 2131 1112 1958 1285 1875 1362 
C 1683 1561 1459 1606 1190 1657 
C 838 1735 390 1825 390 2217 
C 390 2383 480 2737 1126 2737 
C 1811 2737 1850 2094 1862 1888 
C 1869 1856 1901 1849 1920 1849 
C 1978 1849 1978 1869 1978 1978 
L 1978 2697 
z
" transform="scale(0.015625)"/>
       <path id="CMR17-6b" d="M 1670 1673 
C 1664 1686 1632 1724 1632 1743 
C 1632 1756 2086 2171 2144 2222 
C 2509 2528 2739 2560 2906 2560 
L 2906 2733 
C 2867 2733 2854 2733 2848 2720 
L 2534 2720 
C 2355 2720 2080 2720 1907 2733 
L 1907 2566 
C 1997 2559 2061 2508 2061 2419 
C 2061 2291 1933 2170 1926 2170 
L 960 1289 
L 960 4396 
L 198 4326 
L 198 4160 
C 576 4160 634 4122 634 3817 
L 634 426 
C 634 184 608 153 198 153 
L 198 -13 
C 352 0 634 0 794 0 
C 954 0 1235 0 1389 -13 
L 1389 153 
C 979 153 954 178 954 428 
L 954 1130 
L 1395 1532 
L 2042 574 
C 2118 459 2182 369 2182 286 
C 2182 172 2067 153 1990 153 
L 1990 -13 
C 2144 0 2419 0 2579 0 
C 2694 0 2931 0 3040 0 
L 3040 153 
C 2739 153 2669 210 2477 491 
L 1670 1673 
z
" transform="scale(0.015625)"/>
      </defs>
      <use xlink:href="#CMR17-52" transform="scale(0.996264)"/>
      <use xlink:href="#CMR17-69" transform="translate(67.791102 0) scale(0.996264)"/>
      <use xlink:href="#CMR17-73" transform="translate(92.66216 0) scale(0.996264)"/>
      <use xlink:href="#CMR17-6b" transform="translate(128.463498 0) scale(0.996264)"/>
     </g>
    </g>
   </g>
   <g id="PolyCollection_1">
    <defs>
     <path id="m73ba09b813" d="M 82.893689 -342.395276 
L 82.893689 -331.284567 
L 87.89308 -323.494608 
L 93.059117 -322.495979 
L 98.225155 -255.951753 
L 102.891253 -253.564021 
L 108.05729 -253.7639 
L 113.056681 -252.990846 
L 118.222718 -256.82606 
L 123.222109 -248.977375 
L 128.388146 -253.631577 
L 133.554183 -256.685144 
L 138.553574 -251.518623 
L 143.719611 -252.641026 
L 148.719002 -261.726389 
L 153.885039 -245.397555 
L 159.051077 -247.232533 
L 163.717175 -249.266939 
L 168.883212 -249.37687 
L 173.882603 -242.712252 
L 179.04864 -247.643861 
L 184.048031 -244.921347 
L 189.214068 -237.320374 
L 194.380105 -236.91395 
L 199.379496 -231.978104 
L 204.545533 -241.079721 
L 209.544924 -236.487218 
L 214.710961 -253.262729 
L 219.876999 -253.486113 
L 224.709743 -254.036379 
L 229.87578 -254.817859 
L 234.875171 -252.589167 
L 240.041208 -243.868227 
L 245.040599 -232.748857 
L 250.206636 -251.348977 
L 255.372674 -248.34849 
L 260.372065 -228.066752 
L 265.538102 -240.14041 
L 270.537493 -252.480613 
L 275.70353 -222.79733 
L 280.869567 -251.750119 
L 285.535665 -240.864515 
L 290.701702 -225.132714 
L 295.701093 -237.564391 
L 300.86713 -237.492615 
L 305.866521 -223.568112 
L 311.032558 -235.388978 
L 316.198596 -221.501319 
L 321.197987 -251.494953 
L 326.364024 -201.303685 
L 331.363415 -206.353144 
L 336.529452 -191.372604 
L 341.695489 -221.917037 
L 346.361587 -243.103094 
L 351.527624 -248.74899 
L 356.527015 -250.943168 
L 361.693052 -247.775746 
L 366.692443 -246.561856 
L 371.85848 -246.316659 
L 377.024518 -244.131591 
L 382.023909 -245.86624 
L 387.189946 -242.528437 
L 392.189337 -240.921953 
L 397.355374 -242.005254 
L 402.521411 -239.646488 
L 407.187509 -236.965357 
L 412.353546 -237.310768 
L 417.352937 -233.868695 
L 422.518974 -232.118795 
L 427.518365 -240.584157 
L 432.684402 -232.600546 
L 437.85044 -247.500716 
L 442.849831 -248.577364 
L 448.015868 -250.352806 
L 453.015259 -250.420625 
L 458.181296 -251.095797 
L 463.347333 -250.029809 
L 468.180077 -246.860627 
L 473.346115 -242.802301 
L 478.345506 -243.448696 
L 483.511543 -248.593172 
L 488.510934 -243.42242 
L 493.676971 -249.758899 
L 498.843008 -247.164454 
L 503.842399 -244.403498 
L 509.008436 -240.629948 
L 514.007827 -242.840069 
L 519.173864 -252.465113 
L 524.339901 -251.527838 
L 529.005999 -252.360345 
L 534.172037 -252.073084 
L 539.171428 -253.054593 
L 544.337465 -250.038309 
L 549.336856 -248.126532 
L 554.502893 -250.932947 
L 559.66893 -247.924761 
L 564.668321 -238.740051 
L 569.834358 -226.511023 
L 574.833749 -248.770954 
L 579.999786 -252.734193 
L 585.165823 -242.912552 
L 589.831921 -239.111173 
L 594.997959 -223.991015 
L 599.99735 -248.309806 
L 605.163387 -247.868809 
L 610.162778 -246.291288 
L 615.328815 -249.19624 
L 620.494852 -249.534121 
L 625.494243 -219.06683 
L 630.66028 -231.192499 
L 635.659671 -248.933785 
L 640.825708 -199.171857 
L 645.991745 -118.564498 
L 650.657843 -80.159695 
L 655.823881 -68.758737 
L 660.823271 -150.420662 
L 665.989309 -199.97299 
L 670.9887 -247.370022 
L 676.154737 -245.520804 
L 681.320774 -166.567258 
L 686.320165 -142.956892 
L 686.320165 -248.402299 
L 686.320165 -248.402299 
L 681.320774 -248.127719 
L 676.154737 -255.599661 
L 670.9887 -253.675801 
L 665.989309 -251.568557 
L 660.823271 -248.780043 
L 655.823881 -254.027691 
L 650.657843 -246.002481 
L 645.991745 -246.186709 
L 640.825708 -249.70807 
L 635.659671 -324.462588 
L 630.66028 -249.980672 
L 625.494243 -250.359969 
L 620.494852 -270.778762 
L 615.328815 -258.650688 
L 610.162778 -290.490708 
L 605.163387 -297.012098 
L 599.99735 -272.912203 
L 594.997959 -249.917579 
L 589.831921 -256.195058 
L 585.165823 -260.582 
L 579.999786 -267.704846 
L 574.833749 -258.09398 
L 569.834358 -251.945871 
L 564.668321 -253.074056 
L 559.66893 -297.1387 
L 554.502893 -283.676141 
L 549.336856 -253.944375 
L 544.337465 -289.549699 
L 539.171428 -309.859375 
L 534.172037 -289.182051 
L 529.005999 -282.777604 
L 524.339901 -270.961328 
L 519.173864 -275.370774 
L 514.007827 -295.351003 
L 509.008436 -289.45643 
L 503.842399 -292.957396 
L 498.843008 -300.250915 
L 493.676971 -267.91479 
L 488.510934 -253.02836 
L 483.511543 -254.812155 
L 478.345506 -252.170683 
L 473.346115 -252.945599 
L 468.180077 -251.337474 
L 463.347333 -254.664609 
L 458.181296 -260.379721 
L 453.015259 -265.331128 
L 448.015868 -259.460433 
L 442.849831 -254.780665 
L 437.85044 -255.976194 
L 432.684402 -254.692266 
L 427.518365 -256.438452 
L 422.518974 -253.096152 
L 417.352937 -253.798639 
L 412.353546 -254.571582 
L 407.187509 -252.359095 
L 402.521411 -253.437038 
L 397.355374 -253.017302 
L 392.189337 -254.671719 
L 387.189946 -253.221401 
L 382.023909 -255.19015 
L 377.024518 -255.396025 
L 371.85848 -259.799326 
L 366.692443 -259.002832 
L 361.693052 -262.184379 
L 356.527015 -262.658898 
L 351.527624 -263.180922 
L 346.361587 -261.671458 
L 341.695489 -261.670289 
L 336.529452 -260.491565 
L 331.363415 -258.920521 
L 326.364024 -257.605122 
L 321.197987 -256.662082 
L 316.198596 -253.381087 
L 311.032558 -252.771684 
L 305.866521 -251.755225 
L 300.86713 -251.780867 
L 295.701093 -251.91687 
L 290.701702 -252.159897 
L 285.535665 -252.782828 
L 280.869567 -258.526095 
L 275.70353 -252.780897 
L 270.537493 -273.000542 
L 265.538102 -252.39468 
L 260.372065 -251.934417 
L 255.372674 -259.141979 
L 250.206636 -270.091768 
L 245.040599 -253.103139 
L 240.041208 -253.751614 
L 234.875171 -273.83992 
L 229.87578 -319.512902 
L 224.709743 -275.227009 
L 219.876999 -269.315265 
L 214.710961 -264.052752 
L 209.544924 -250.939084 
L 204.545533 -251.076315 
L 199.379496 -248.608222 
L 194.380105 -252.752713 
L 189.214068 -250.151962 
L 184.048031 -252.690765 
L 179.04864 -253.701072 
L 173.882603 -253.244535 
L 168.883212 -265.899772 
L 163.717175 -273.301714 
L 159.051077 -263.769535 
L 153.885039 -269.587144 
L 148.719002 -311.868394 
L 143.719611 -292.967785 
L 138.553574 -306.454654 
L 133.554183 -302.780057 
L 128.388146 -300.705435 
L 123.222109 -292.192114 
L 118.222718 -308.590706 
L 113.056681 -307.558603 
L 108.05729 -321.91943 
L 102.891253 -326.358427 
L 98.225155 -338.081578 
L 93.059117 -342.142797 
L 87.89308 -342.422321 
L 82.893689 -342.395276 
z
" style="stroke: #006e64; stroke-opacity: 0.2"/>
    </defs>
    <g clip-path="url(#p8ae859b78a)">
     <use xlink:href="#m73ba09b813" x="0" y="360" style="fill: #006e64; fill-opacity: 0.2; stroke: #006e64; stroke-opacity: 0.2"/>
    </g>
   </g>
   <g id="PolyCollection_2">
    <defs>
     <path id="m749f237c71" d="M 163.717175 -255.56543 
L 163.717175 -251.03173 
L 168.883212 -251.084209 
L 173.882603 -251.154875 
L 179.04864 -251.302 
L 184.048031 -251.432693 
L 189.214068 -251.226178 
L 194.380105 -251.027698 
L 199.379496 -250.902963 
L 204.545533 -250.460708 
L 209.544924 -251.091524 
L 214.710961 -251.121724 
L 219.876999 -250.976926 
L 224.709743 -250.906459 
L 229.87578 -250.982286 
L 234.875171 -250.844966 
L 240.041208 -250.809606 
L 245.040599 -250.8317 
L 250.206636 -250.649153 
L 255.372674 -250.693077 
L 260.372065 -251.074407 
L 265.538102 -251.281466 
L 270.537493 -251.254502 
L 275.70353 -251.132584 
L 280.869567 -251.391298 
L 285.535665 -251.208622 
L 290.701702 -250.624575 
L 295.701093 -251.354843 
L 300.86713 -250.895901 
L 305.866521 -251.338339 
L 311.032558 -251.034243 
L 316.198596 -251.105674 
L 321.197987 -251.070315 
L 326.364024 -250.125258 
L 331.363415 -250.665984 
L 336.529452 -250.295167 
L 341.695489 -249.965854 
L 346.361587 -247.100701 
L 351.527624 -250.945945 
L 356.527015 -250.352138 
L 361.693052 -250.541666 
L 366.692443 -249.914613 
L 371.85848 -250.85699 
L 377.024518 -251.036292 
L 382.023909 -241.239523 
L 387.189946 -243.047773 
L 392.189337 -229.359589 
L 397.355374 -222.10465 
L 402.521411 -219.506188 
L 407.187509 -214.535396 
L 412.353546 -191.735511 
L 417.352937 -191.636728 
L 422.518974 -194.145899 
L 427.518365 -236.768926 
L 432.684402 -238.954815 
L 437.85044 -165.379393 
L 442.849831 -228.274667 
L 448.015868 -227.738245 
L 453.015259 -234.758042 
L 458.181296 -239.451132 
L 463.347333 -238.848624 
L 468.180077 -250.120914 
L 473.346115 -250.708522 
L 478.345506 -250.800585 
L 483.511543 -252.101567 
L 488.510934 -252.408161 
L 493.676971 -251.542734 
L 498.843008 -250.668115 
L 503.842399 -246.801799 
L 509.008436 -241.717752 
L 514.007827 -233.920815 
L 519.173864 -235.288852 
L 524.339901 -236.180252 
L 529.005999 -250.63854 
L 534.172037 -253.871568 
L 539.171428 -253.604414 
L 544.337465 -252.700262 
L 549.336856 -251.243488 
L 554.502893 -249.656745 
L 559.66893 -249.430528 
L 564.668321 -249.799442 
L 569.834358 -252.078943 
L 574.833749 -254.257309 
L 579.999786 -253.447883 
L 585.165823 -248.321687 
L 589.831921 -245.556871 
L 594.997959 -249.764605 
L 599.99735 -246.10059 
L 605.163387 -246.83888 
L 610.162778 -243.503754 
L 615.328815 -245.143442 
L 620.494852 -246.69186 
L 625.494243 -241.924749 
L 630.66028 -239.754221 
L 635.659671 -228.220294 
L 640.825708 -221.013765 
L 645.991745 -234.451153 
L 650.657843 -215.900374 
L 655.823881 -228.317461 
L 660.823271 -224.655629 
L 665.989309 -227.23309 
L 670.9887 -219.69056 
L 676.154737 -212.465058 
L 681.320774 -222.62455 
L 686.320165 -215.530835 
L 686.320165 -241.811669 
L 686.320165 -241.811669 
L 681.320774 -243.476988 
L 676.154737 -240.979041 
L 670.9887 -244.985433 
L 665.989309 -255.702077 
L 660.823271 -247.648093 
L 655.823881 -249.364612 
L 650.657843 -251.585322 
L 645.991745 -249.753882 
L 640.825708 -245.46549 
L 635.659671 -248.950493 
L 630.66028 -254.081388 
L 625.494243 -258.593839 
L 620.494852 -258.202054 
L 615.328815 -259.557921 
L 610.162778 -253.681379 
L 605.163387 -254.362335 
L 599.99735 -257.707382 
L 594.997959 -260.323781 
L 589.831921 -259.821594 
L 585.165823 -272.357219 
L 579.999786 -268.834496 
L 574.833749 -266.979396 
L 569.834358 -258.863118 
L 564.668321 -257.078235 
L 559.66893 -256.980975 
L 554.502893 -254.022033 
L 549.336856 -254.688431 
L 544.337465 -257.523382 
L 539.171428 -261.979735 
L 534.172037 -262.298978 
L 529.005999 -262.38062 
L 524.339901 -258.0003 
L 519.173864 -252.61242 
L 514.007827 -254.640736 
L 509.008436 -255.249461 
L 503.842399 -258.742087 
L 498.843008 -256.489557 
L 493.676971 -256.823297 
L 488.510934 -264.489895 
L 483.511543 -268.107115 
L 478.345506 -266.49378 
L 473.346115 -262.213223 
L 468.180077 -258.987815 
L 463.347333 -251.512767 
L 458.181296 -252.318839 
L 453.015259 -252.091933 
L 448.015868 -251.329595 
L 442.849831 -251.28492 
L 437.85044 -253.537861 
L 432.684402 -273.261151 
L 427.518365 -261.264404 
L 422.518974 -254.539356 
L 417.352937 -253.718704 
L 412.353546 -256.951832 
L 407.187509 -256.10283 
L 402.521411 -253.406531 
L 397.355374 -251.281738 
L 392.189337 -251.131661 
L 387.189946 -251.656978 
L 382.023909 -252.563099 
L 377.024518 -269.339744 
L 371.85848 -272.56472 
L 366.692443 -272.526478 
L 361.693052 -269.781936 
L 356.527015 -273.874082 
L 351.527624 -265.392576 
L 346.361587 -260.67561 
L 341.695489 -259.770085 
L 336.529452 -259.741547 
L 331.363415 -260.153231 
L 326.364024 -260.351766 
L 321.197987 -257.688364 
L 316.198596 -258.462606 
L 311.032558 -254.719743 
L 305.866521 -254.300706 
L 300.86713 -255.395126 
L 295.701093 -255.997235 
L 290.701702 -257.376704 
L 285.535665 -252.097021 
L 280.869567 -252.288431 
L 275.70353 -251.865162 
L 270.537493 -252.142991 
L 265.538102 -251.946056 
L 260.372065 -251.58099 
L 255.372674 -251.239207 
L 250.206636 -251.093598 
L 245.040599 -251.142265 
L 240.041208 -251.134388 
L 234.875171 -251.14909 
L 229.87578 -251.259164 
L 224.709743 -251.099378 
L 219.876999 -251.21954 
L 214.710961 -251.729469 
L 209.544924 -251.293099 
L 204.545533 -251.467593 
L 199.379496 -251.760731 
L 194.380105 -252.366902 
L 189.214068 -253.006254 
L 184.048031 -253.482773 
L 179.04864 -253.147863 
L 173.882603 -255.026186 
L 168.883212 -255.282316 
L 163.717175 -255.56543 
z
" style="stroke: #c17150; stroke-opacity: 0.2"/>
    </defs>
    <g clip-path="url(#p8ae859b78a)">
     <use xlink:href="#m749f237c71" x="0" y="360" style="fill: #c17150; fill-opacity: 0.2; stroke: #c17150; stroke-opacity: 0.2"/>
    </g>
   </g>
   <g id="line2d_13">
    <path d="M 72.728261 17.364859 
L 77.727652 17.558161 
L 82.893689 23.160078 
L 87.89308 27.041536 
L 93.059117 27.680612 
L 98.225155 55.120734 
L 102.891253 70.038776 
L 108.05729 72.158335 
L 113.056681 79.807847 
L 118.222718 79.589259 
L 123.222109 94.298428 
L 128.388146 86.499587 
L 133.554183 81.332985 
L 138.553574 83.170855 
L 143.719611 89.394332 
L 148.719002 75.364804 
L 153.885039 102.421013 
L 159.051077 104.850165 
L 163.717175 100.551349 
L 168.883212 103.792699 
L 173.882603 110.876088 
L 179.04864 109.127533 
L 184.048031 110.787947 
L 189.214068 115.833224 
L 194.380105 113.162286 
L 199.379496 118.784309 
L 204.545533 113.031675 
L 209.544924 115.864213 
L 214.710961 101.957278 
L 219.876999 99.747745 
L 224.709743 96.928057 
L 229.87578 80.477479 
L 234.875171 99.670025 
L 240.041208 110.200637 
L 245.040599 115.244848 
L 250.206636 101.660108 
L 255.372674 106.518322 
L 260.372065 118.054838 
L 265.538102 112.877403 
L 270.537493 99.455937 
L 275.70353 118.853941 
L 280.869567 105.461854 
L 285.535665 111.804476 
L 290.701702 117.766452 
L 295.701093 113.691407 
L 300.86713 113.812195 
L 305.866521 118.733125 
L 311.032558 113.3928 
L 316.198596 117.925327 
L 321.197987 106.371592 
L 326.364024 122.749532 
L 331.363415 121.300398 
L 336.529452 124.65707 
L 341.695489 114.545653 
L 346.361587 107.573651 
L 351.527624 104.625576 
L 356.527015 103.978808 
L 361.693052 105.386123 
L 366.692443 107.584369 
L 371.85848 107.182514 
L 377.024518 109.697753 
L 382.023909 108.773617 
L 387.189946 111.078335 
L 392.189337 111.543776 
L 397.355374 112.152708 
L 402.521411 112.617354 
L 407.187509 114.447756 
L 412.353546 113.614328 
L 417.352937 115.691748 
L 422.518974 116.157148 
L 427.518365 110.201759 
L 432.684402 114.62971 
L 437.85044 108.516486 
L 442.849831 108.683346 
L 448.015868 105.654199 
L 453.015259 104.138864 
L 458.181296 105.378061 
L 463.347333 107.995428 
L 468.180077 110.588998 
L 473.346115 111.612877 
L 478.345506 111.665612 
L 483.511543 108.201885 
L 488.510934 111.093022 
L 493.676971 103.750614 
L 498.843008 93.976146 
L 503.842399 97.673625 
L 509.008436 99.468785 
L 514.007827 97.130308 
L 519.173864 98.178432 
L 524.339901 101.089774 
L 529.005999 95.687449 
L 534.172037 94.626871 
L 539.171428 86.757197 
L 544.337465 95.71321 
L 549.336856 108.972143 
L 554.502893 95.90851 
L 559.66893 93.952677 
L 564.668321 112.943839 
L 569.834358 117.975178 
L 574.833749 106.733649 
L 579.999786 100.784428 
L 585.165823 107.305073 
L 589.831921 111.120801 
L 594.997959 119.667022 
L 599.99735 101.440875 
L 605.163387 94.709086 
L 610.162778 96.385901 
L 615.328815 106.778986 
L 620.494852 101.539898 
L 625.494243 120.60415 
L 630.66028 118.144186 
L 635.659671 83.608231 
L 640.825708 129.386719 
L 645.991745 159.86899 
L 650.657843 171.799759 
L 655.823881 170.939118 
L 660.823271 145.025993 
L 665.989309 126.395245 
L 670.9887 109.267141 
L 676.154737 108.885122 
L 681.320774 140.769054 
L 686.320165 152.446543 
" clip-path="url(#p8ae859b78a)" style="fill: none; stroke: #006e64; stroke-width: 1.5; stroke-linecap: round"/>
   </g>
   <g id="line2d_14">
    <path d="M 159.051077 104.037142 
L 163.717175 106.70142 
L 168.883212 107.09907 
L 173.882603 107.145198 
L 179.04864 107.893071 
L 184.048031 107.656761 
L 189.214068 107.945753 
L 194.380105 108.471276 
L 199.379496 108.722025 
L 204.545533 108.973137 
L 209.544924 108.826162 
L 214.710961 108.644087 
L 219.876999 108.904143 
L 224.709743 108.977732 
L 229.87578 108.875626 
L 234.875171 108.982178 
L 240.041208 109.006277 
L 245.040599 108.999305 
L 250.206636 109.11276 
L 255.372674 109.002805 
L 260.372065 108.694598 
L 265.538102 108.433821 
L 270.537493 108.349075 
L 275.70353 108.551899 
L 280.869567 108.231788 
L 285.535665 108.368607 
L 290.701702 106.980332 
L 295.701093 106.977573 
L 300.86713 107.448414 
L 305.866521 107.563752 
L 311.032558 107.577124 
L 316.198596 106.003127 
L 321.197987 106.103372 
L 326.364024 105.474785 
L 331.363415 105.466496 
L 336.529452 105.662722 
L 341.695489 106.410526 
L 346.361587 107.324853 
L 351.527624 103.614796 
L 356.527015 100.72401 
L 361.693052 101.772066 
L 366.692443 100.724938 
L 371.85848 100.020683 
L 377.024518 102.40459 
L 382.023909 111.62218 
L 387.189946 112.101239 
L 392.189337 117.168366 
L 397.355374 119.925184 
L 402.521411 121.543922 
L 407.187509 122.618666 
L 412.353546 130.627832 
L 417.352937 128.620855 
L 422.518974 128.779086 
L 427.518365 110.810591 
L 432.684402 106.156811 
L 437.85044 140.817756 
L 442.849831 117.090931 
L 448.015868 116.734421 
L 453.015259 113.968891 
L 458.181296 112.270503 
L 463.347333 112.969591 
L 468.180077 106.277309 
L 473.346115 103.937 
L 478.345506 102.16134 
L 483.511543 100.909377 
L 488.510934 102.801639 
L 493.676971 106.086235 
L 498.843008 106.978229 
L 503.842399 107.451754 
L 509.008436 110.223266 
L 514.007827 112.977535 
L 519.173864 113.590528 
L 524.339901 111.553354 
L 529.005999 105.023787 
L 534.172037 102.35672 
L 539.171428 102.74007 
L 544.337465 105.081842 
L 549.336856 107.07288 
L 554.502893 108.175309 
L 559.66893 107.178234 
L 564.668321 106.595421 
L 569.834358 104.710228 
L 574.833749 100.149172 
L 579.999786 99.848054 
L 585.165823 101.487704 
L 589.831921 107.608643 
L 594.997959 105.933552 
L 599.99735 108.161962 
L 605.163387 109.436589 
L 610.162778 111.476592 
L 615.328815 108.483711 
L 620.494852 107.822529 
L 625.494243 110.782949 
L 630.66028 113.142129 
L 635.659671 120.044663 
L 640.825708 124.340385 
L 645.991745 117.041238 
L 650.657843 122.369367 
L 655.823881 119.002956 
L 660.823271 122.12771 
L 665.989309 116.467349 
L 670.9887 125.632805 
L 676.154737 131.274914 
L 681.320774 125.187554 
L 686.320165 129.94627 
" clip-path="url(#p8ae859b78a)" style="fill: none; stroke: #c17150; stroke-width: 1.5; stroke-linecap: round"/>
   </g>
   <g id="line2d_15"/>
   <g id="line2d_16"/>
   <g id="patch_3">
    <path d="M 42.048666 304.935084 
L 42.048666 3.671039 
" style="fill: none; stroke: #808080; stroke-width: 0.8; stroke-linejoin: miter; stroke-linecap: square"/>
   </g>
   <g id="patch_4">
    <path d="M 42.048666 304.935084 
L 716.99976 304.935084 
" style="fill: none; stroke: #808080; stroke-width: 0.8; stroke-linejoin: miter; stroke-linecap: square"/>
   </g>
   <g id="text_15">
    <!-- Source: ELCON A/S -->
    <g style="fill: #808080" transform="translate(624.264008 352.61535) scale(0.1 -0.1)">
     <defs>
      <path id="CMR17-53" d="M 2803 4290 
C 2803 4404 2797 4411 2758 4411 
C 2720 4411 2707 4385 2682 4328 
L 2490 3907 
C 2246 4257 1875 4416 1472 4416 
C 819 4416 294 3901 294 3253 
C 294 3056 339 2776 557 2510 
C 794 2218 1018 2167 1530 2033 
C 1722 1982 2042 1899 2106 1874 
C 2470 1722 2662 1341 2662 985 
C 2662 527 2336 38 1779 38 
C 1094 38 454 419 410 1311 
C 403 1413 397 1419 352 1419 
C 301 1419 294 1413 294 1285 
L 294 -1 
C 294 -115 301 -122 339 -122 
C 384 -122 397 -90 486 108 
C 493 127 493 140 614 381 
C 934 -39 1472 -128 1779 -128 
C 2477 -128 2970 451 2970 1124 
C 2970 1454 2848 1708 2778 1823 
C 2509 2230 2221 2306 1914 2382 
C 1869 2402 1856 2402 1498 2490 
C 1152 2579 1005 2624 845 2796 
C 666 2992 602 3196 602 3399 
C 602 3812 934 4263 1478 4263 
C 2157 4263 2579 3786 2675 2993 
C 2694 2878 2701 2872 2746 2872 
C 2803 2872 2803 2891 2803 2999 
L 2803 4290 
z
" transform="scale(0.015625)"/>
      <path id="CMR17-6f" d="M 2758 1356 
C 2758 2176 2163 2816 1466 2816 
C 768 2816 173 2176 173 1356 
C 173 551 768 -64 1466 -64 
C 2163 -64 2758 551 2758 1356 
z
M 1466 51 
C 1165 51 909 230 762 480 
C 602 767 582 1126 582 1408 
C 582 1677 595 2010 762 2298 
C 890 2509 1139 2714 1466 2714 
C 1754 2714 1997 2554 2150 2330 
C 2349 2029 2349 1607 2349 1408 
C 2349 1158 2336 775 2163 467 
C 1984 173 1709 51 1466 51 
z
" transform="scale(0.015625)"/>
      <path id="CMR17-75" d="M 1882 2693 
L 1882 2528 
C 2259 2528 2317 2489 2317 2186 
L 2317 1032 
C 2317 500 2029 38 1555 38 
C 1030 38 986 348 986 678 
L 986 2763 
L 211 2693 
L 211 2528 
C 467 2528 640 2528 646 2274 
L 646 1058 
C 646 633 646 361 813 183 
C 896 101 1056 -64 1517 -64 
C 2061 -64 2272 377 2323 506 
L 2330 506 
L 2330 -63 
L 3091 -63 
L 3091 128 
C 2714 128 2656 166 2656 473 
L 2656 2763 
L 1882 2693 
z
" transform="scale(0.015625)"/>
      <path id="CMR17-72" d="M 960 1497 
C 960 2112 1222 2688 1702 2688 
C 1747 2688 1792 2682 1837 2662 
C 1837 2662 1696 2617 1696 2452 
C 1696 2298 1818 2234 1914 2234 
C 1990 2234 2131 2279 2131 2458 
C 2131 2663 1926 2790 1709 2790 
C 1222 2790 1011 2317 947 2093 
L 941 2093 
L 941 2790 
L 198 2720 
L 198 2554 
C 576 2554 634 2515 634 2208 
L 634 428 
C 634 184 608 153 198 153 
L 198 -13 
C 352 0 646 0 813 0 
C 998 0 1325 0 1498 -13 
L 1498 153 
C 1037 153 960 153 960 440 
L 960 1497 
z
" transform="scale(0.015625)"/>
      <path id="CMR17-63" d="M 2234 2240 
C 2112 2240 1933 2240 1933 2017 
C 1933 1838 2080 1787 2163 1787 
C 2208 1787 2394 1807 2394 2024 
C 2394 2467 1958 2803 1466 2803 
C 787 2803 211 2178 211 1363 
C 211 516 813 -64 1466 -64 
C 2259 -64 2458 677 2458 748 
C 2458 774 2451 793 2406 793 
C 2362 793 2355 787 2330 703 
C 2163 180 1798 51 1523 51 
C 1114 51 621 427 621 1369 
C 621 2338 1094 2688 1472 2688 
C 1722 2688 2093 2573 2234 2240 
z
" transform="scale(0.015625)"/>
      <path id="CMR17-3a" d="M 1062 2491 
C 1062 2650 934 2752 800 2752 
C 672 2752 538 2650 538 2491 
C 538 2332 666 2230 800 2230 
C 928 2230 1062 2332 1062 2491 
z
M 1062 261 
C 1062 420 934 522 800 522 
C 672 522 538 420 538 261 
C 538 102 666 0 800 0 
C 928 0 1062 102 1062 261 
z
" transform="scale(0.015625)"/>
      <path id="CMR17-45" d="M 3885 1615 
L 3770 1615 
C 3629 676 3546 166 2419 166 
L 1530 166 
C 1274 166 1261 197 1261 414 
L 1261 2176 
L 1862 2176 
C 2464 2176 2522 1960 2522 1430 
L 2637 1430 
L 2637 3081 
L 2522 3081 
C 2522 2557 2464 2342 1862 2342 
L 1261 2342 
L 1261 3913 
C 1261 4128 1274 4160 1530 4160 
L 2406 4160 
C 3398 4160 3514 3769 3603 2929 
L 3718 2929 
L 3565 4325 
L 326 4325 
L 326 4160 
C 768 4160 838 4160 838 3874 
L 838 451 
C 838 166 768 166 326 166 
L 326 0 
L 3654 0 
L 3885 1615 
z
" transform="scale(0.015625)"/>
      <path id="CMR17-4c" d="M 3469 1615 
L 3354 1615 
C 3302 983 3219 166 2125 166 
L 1530 166 
C 1274 166 1261 197 1261 414 
L 1261 3898 
C 1261 4129 1274 4192 1760 4192 
L 1901 4192 
L 1901 4352 
C 1638 4352 1331 4352 1069 4352 
C 870 4352 512 4352 326 4352 
L 326 4192 
C 768 4192 838 4192 838 3905 
L 838 452 
C 838 166 768 166 326 166 
L 326 0 
L 3315 0 
L 3469 1615 
z
" transform="scale(0.015625)"/>
      <path id="CMR17-43" d="M 3974 4289 
C 3974 4403 3968 4410 3930 4410 
C 3904 4410 3898 4403 3853 4327 
L 3571 3792 
C 3258 4187 2874 4416 2381 4416 
C 1286 4416 294 3456 294 2148 
C 294 826 1286 -128 2387 -128 
C 3366 -128 3974 730 3974 1461 
C 3974 1524 3974 1550 3917 1550 
C 3866 1550 3866 1531 3859 1474 
C 3808 585 3168 38 2477 38 
C 1824 38 781 495 781 2147 
C 781 3805 1843 4250 2464 4250 
C 3187 4250 3712 3628 3834 2745 
C 3846 2668 3846 2655 3904 2655 
C 3974 2655 3974 2668 3974 2783 
L 3974 4289 
z
" transform="scale(0.015625)"/>
      <path id="CMR17-4f" d="M 4307 2135 
C 4307 3437 3366 4416 2304 4416 
C 1216 4416 294 3424 294 2135 
C 294 845 1229 -128 2298 -128 
C 3392 -128 4307 864 4307 2135 
z
M 2304 -13 
C 1574 -13 781 711 781 2217 
C 781 3716 1651 4301 2298 4301 
C 2976 4301 3821 3698 3821 2217 
C 3821 686 3008 -13 2304 -13 
z
" transform="scale(0.015625)"/>
      <path id="CMR17-4e" d="M 1312 4250 
C 1267 4320 1261 4320 1139 4320 
L 326 4320 
L 326 4160 
L 448 4160 
C 704 4160 819 4129 838 4122 
L 838 610 
C 838 451 838 153 326 153 
L 326 -13 
C 474 0 742 0 902 0 
C 1062 0 1331 0 1478 -13 
L 1478 153 
C 966 153 966 451 966 610 
L 966 4033 
C 1011 3995 1011 3982 1056 3919 
L 3430 76 
C 3475 0 3494 0 3526 0 
C 3590 0 3590 19 3590 139 
L 3590 3705 
C 3590 3863 3590 4160 4102 4160 
L 4102 4326 
C 3955 4320 3686 4320 3526 4320 
C 3366 4320 3098 4320 2950 4326 
L 2950 4160 
C 3462 4160 3462 3862 3462 3703 
L 3462 763 
L 1312 4250 
z
" transform="scale(0.015625)"/>
      <path id="CMR17-41" d="M 2323 4378 
C 2291 4461 2278 4480 2214 4480 
C 2150 4480 2138 4461 2106 4378 
L 749 566 
C 627 223 371 153 147 153 
L 147 -13 
C 262 0 518 0 640 0 
C 800 0 1056 0 1210 -13 
L 1210 153 
C 909 153 864 361 864 439 
C 864 497 877 530 890 569 
L 1229 1536 
L 2906 1536 
L 3290 442 
C 3322 365 3322 352 3322 327 
C 3322 153 3046 153 2925 153 
L 2925 0 
C 3110 0 3443 0 3642 0 
C 3808 0 4128 0 4282 -13 
L 4282 153 
C 3942 153 3827 153 3744 387 
L 2323 4378 
z
M 2067 3893 
L 2848 1702 
L 1286 1702 
L 2067 3893 
z
" transform="scale(0.015625)"/>
      <path id="CMR17-2f" d="M 2605 4545 
C 2637 4627 2637 4640 2637 4653 
C 2637 4729 2579 4768 2528 4768 
C 2451 4768 2426 4717 2400 4640 
L 326 -1377 
C 294 -1460 294 -1473 294 -1486 
C 294 -1562 352 -1600 403 -1600 
C 480 -1600 506 -1549 531 -1473 
L 2605 4545 
z
" transform="scale(0.015625)"/>
     </defs>
     <use xlink:href="#CMR17-53" transform="scale(0.996264)"/>
     <use xlink:href="#CMR17-6f" transform="translate(50.89537 0) scale(0.996264)"/>
     <use xlink:href="#CMR17-75" transform="translate(96.585847 0) scale(0.996264)"/>
     <use xlink:href="#CMR17-72" transform="translate(147.481217 0) scale(0.996264)"/>
     <use xlink:href="#CMR17-63" transform="translate(182.761984 0) scale(0.996264)"/>
     <use xlink:href="#CMR17-65" transform="translate(223.247645 0) scale(0.996264)"/>
     <use xlink:href="#CMR17-3a" transform="translate(263.733305 0) scale(0.996264)"/>
     <use xlink:href="#CMR17-45" transform="translate(329.090024 0) scale(0.996264)"/>
     <use xlink:href="#CMR17-4c" transform="translate(391.676325 0) scale(0.996264)"/>
     <use xlink:href="#CMR17-43" transform="translate(449.057733 0) scale(0.996264)"/>
     <use xlink:href="#CMR17-4f" transform="translate(515.567613 0) scale(0.996264)"/>
     <use xlink:href="#CMR17-4e" transform="translate(587.282402 0) scale(0.996264)"/>
     <use xlink:href="#CMR17-41" transform="translate(686.430798 0) scale(0.996264)"/>
     <use xlink:href="#CMR17-2f" transform="translate(755.503228 0) scale(0.996264)"/>
     <use xlink:href="#CMR17-53" transform="translate(801.193705 0) scale(0.996264)"/>
    </g>
   </g>
   <g id="legend_1">
    <g id="patch_5">
     <path d="M 324.580207 356.998667 
L 434.468219 356.998667 
Q 436.468219 356.998667 436.468219 354.998667 
L 436.468219 342.061488 
Q 436.468219 340.061488 434.468219 340.061488 
L 324.580207 340.061488 
Q 322.580207 340.061488 322.580207 342.061488 
L 322.580207 354.998667 
Q 322.580207 356.998667 324.580207 356.998667 
z
" style="fill: #ffffff; opacity: 0.8"/>
    </g>
    <g id="line2d_17">
     <path d="M 326.580207 347.561488 
L 336.580207 347.561488 
L 346.580207 347.561488 
" style="fill: none; stroke: #006e64; stroke-width: 1.5; stroke-linecap: round"/>
    </g>
    <g id="text_16">
     <!-- 505 -->
     <g style="fill: #262626" transform="translate(354.580207 351.061488) scale(0.1 -0.1)">
      <defs>
       <path id="CMR17-35" d="M 730 3692 
C 794 3666 1056 3584 1325 3584 
C 1920 3584 2246 3911 2432 4100 
C 2432 4157 2432 4192 2394 4192 
C 2387 4192 2374 4192 2323 4163 
C 2099 4058 1837 3973 1517 3973 
C 1325 3973 1037 3999 723 4139 
C 653 4171 640 4171 634 4171 
C 602 4171 595 4164 595 4037 
L 595 2203 
C 595 2089 595 2057 659 2057 
C 691 2057 704 2070 736 2114 
C 941 2401 1222 2522 1542 2522 
C 1766 2522 2246 2382 2246 1289 
C 2246 1085 2246 715 2054 421 
C 1894 159 1645 25 1370 25 
C 947 25 518 320 403 814 
C 429 807 480 795 506 795 
C 589 795 749 840 749 1038 
C 749 1210 627 1280 506 1280 
C 358 1280 262 1190 262 1011 
C 262 454 704 -128 1382 -128 
C 2042 -128 2669 440 2669 1264 
C 2669 2030 2170 2624 1549 2624 
C 1222 2624 947 2503 730 2274 
L 730 3692 
z
" transform="scale(0.015625)"/>
      </defs>
      <use xlink:href="#CMR17-35" transform="scale(0.996264)"/>
      <use xlink:href="#CMR17-30" transform="translate(45.690477 0) scale(0.996264)"/>
      <use xlink:href="#CMR17-35" transform="translate(91.380954 0) scale(0.996264)"/>
     </g>
    </g>
    <g id="line2d_18">
     <path d="M 389.524213 347.561488 
L 399.524213 347.561488 
L 409.524213 347.561488 
" style="fill: none; stroke: #c17150; stroke-width: 1.5; stroke-linecap: round"/>
    </g>
    <g id="text_17">
     <!-- 515 -->
     <g style="fill: #262626" transform="translate(417.524213 351.061488) scale(0.1 -0.1)">
      <use xlink:href="#CMR17-35" transform="scale(0.996264)"/>
      <use xlink:href="#CMR17-31" transform="translate(45.690477 0) scale(0.996264)"/>
      <use xlink:href="#CMR17-35" transform="translate(91.380954 0) scale(0.996264)"/>
     </g>
    </g>
   </g>
  </g>
 </g>
 <defs>
  <clipPath id="p8ae859b78a">
   <rect x="42.048666" y="3.671039" width="674.951094" height="301.264045"/>
  </clipPath>
 </defs>
</svg>
