<?xml version="1.0" encoding="utf-8" standalone="no"?>
<!DOCTYPE svg PUBLIC "-//W3C//DTD SVG 1.1//EN"
  "http://www.w3.org/Graphics/SVG/1.1/DTD/svg11.dtd">
<svg xmlns:xlink="http://www.w3.org/1999/xlink" width="720pt" height="360pt" viewBox="0 0 720 360" xmlns="http://www.w3.org/2000/svg" version="1.1">
 <metadata>
  <rdf:RDF xmlns:dc="http://purl.org/dc/elements/1.1/" xmlns:cc="http://creativecommons.org/ns#" xmlns:rdf="http://www.w3.org/1999/02/22-rdf-syntax-ns#">
   <cc:Work>
    <dc:type rdf:resource="http://purl.org/dc/dcmitype/StillImage"/>
    <dc:date>2023-10-17T10:23:37.546506</dc:date>
    <dc:format>image/svg+xml</dc:format>
    <dc:creator>
     <cc:Agent>
      <dc:title>Matplotlib v3.6.3, https://matplotlib.org/</dc:title>
     </cc:Agent>
    </dc:creator>
   </cc:Work>
  </rdf:RDF>
 </metadata>
 <defs>
  <style type="text/css">*{stroke-linejoin: round; stroke-linecap: butt}</style>
 </defs>
 <g id="figure_1">
  <g id="patch_1">
   <path d="M 0 360 
L 720 360 
L 720 0 
L 0 0 
z
" style="fill: #ffffff"/>
  </g>
  <g id="axes_1">
   <g id="patch_2">
    <path d="M 42.048666 304.942585 
L 716.99976 304.942585 
L 716.99976 3.742711 
L 42.048666 3.742711 
z
" style="fill: #ffffff"/>
   </g>
   <g id="matplotlib.axis_1">
    <g id="xtick_1">
     <g id="line2d_1">
      <path d="M 93.059117 304.942585 
L 93.059117 3.742711 
" clip-path="url(#p191e4b3127)" style="fill: none; stroke: #cccccc; stroke-opacity: 0.35; stroke-width: 0.8; stroke-linecap: round"/>
     </g>
     <g id="text_1">
      <!-- $\mathdefault{2014}$ -->
      <g transform="translate(83.096447 315.361084) scale(0.1 -0.1)">
       <defs>
        <path id="CMR17-32" d="M 2669 989 
L 2554 989 
C 2490 536 2438 459 2413 420 
C 2381 369 1920 369 1830 369 
L 602 369 
C 832 619 1280 1072 1824 1597 
C 2214 1967 2669 2402 2669 3035 
C 2669 3790 2067 4224 1395 4224 
C 691 4224 262 3604 262 3030 
C 262 2780 448 2748 525 2748 
C 589 2748 781 2787 781 3010 
C 781 3207 614 3264 525 3264 
C 486 3264 448 3258 422 3245 
C 544 3790 915 4058 1306 4058 
C 1862 4058 2227 3617 2227 3035 
C 2227 2479 1901 2000 1536 1584 
L 262 146 
L 262 0 
L 2515 0 
L 2669 989 
z
" transform="scale(0.015625)"/>
        <path id="CMR17-30" d="M 2688 2025 
C 2688 2416 2682 3080 2413 3591 
C 2176 4039 1798 4198 1466 4198 
C 1158 4198 768 4058 525 3597 
C 269 3118 243 2524 243 2025 
C 243 1661 250 1106 448 619 
C 723 -39 1216 -128 1466 -128 
C 1760 -128 2208 -7 2470 600 
C 2662 1042 2688 1559 2688 2025 
z
M 1466 -26 
C 1056 -26 813 325 723 812 
C 653 1188 653 1738 653 2096 
C 653 2588 653 2997 736 3387 
C 858 3929 1216 4096 1466 4096 
C 1728 4096 2067 3923 2189 3400 
C 2272 3036 2278 2607 2278 2096 
C 2278 1680 2278 1169 2202 792 
C 2067 95 1690 -26 1466 -26 
z
" transform="scale(0.015625)"/>
        <path id="CMR17-31" d="M 1702 4058 
C 1702 4192 1696 4192 1606 4192 
C 1357 3916 979 3827 621 3827 
C 602 3827 570 3827 563 3808 
C 557 3795 557 3782 557 3648 
C 755 3648 1088 3686 1344 3839 
L 1344 461 
C 1344 236 1331 160 781 160 
L 589 160 
L 589 0 
C 896 0 1216 0 1523 0 
C 1830 0 2150 0 2458 0 
L 2458 160 
L 2266 160 
C 1715 160 1702 230 1702 458 
L 1702 4058 
z
" transform="scale(0.015625)"/>
        <path id="CMR17-34" d="M 2150 4122 
C 2150 4256 2144 4256 2029 4256 
L 128 1254 
L 128 1088 
L 1779 1088 
L 1779 457 
C 1779 224 1766 160 1318 160 
L 1197 160 
L 1197 0 
C 1402 0 1747 0 1965 0 
C 2182 0 2528 0 2733 0 
L 2733 160 
L 2611 160 
C 2163 160 2150 224 2150 457 
L 2150 1088 
L 2803 1088 
L 2803 1254 
L 2150 1254 
L 2150 4122 
z
M 1798 3703 
L 1798 1254 
L 256 1254 
L 1798 3703 
z
" transform="scale(0.015625)"/>
       </defs>
       <use xlink:href="#CMR17-32" transform="scale(0.996264)"/>
       <use xlink:href="#CMR17-30" transform="translate(45.690477 0) scale(0.996264)"/>
       <use xlink:href="#CMR17-31" transform="translate(91.380954 0) scale(0.996264)"/>
       <use xlink:href="#CMR17-34" transform="translate(137.071431 0) scale(0.996264)"/>
      </g>
     </g>
    </g>
    <g id="xtick_2">
     <g id="line2d_2">
      <path d="M 214.710961 304.942585 
L 214.710961 3.742711 
" clip-path="url(#p191e4b3127)" style="fill: none; stroke: #cccccc; stroke-opacity: 0.35; stroke-width: 0.8; stroke-linecap: round"/>
     </g>
     <g id="text_2">
      <!-- $\mathdefault{2016}$ -->
      <g transform="translate(204.748291 315.361084) scale(0.1 -0.1)">
       <defs>
        <path id="CMR17-36" d="M 678 2176 
C 678 3690 1395 4032 1811 4032 
C 1946 4032 2272 4009 2400 3776 
C 2298 3776 2106 3776 2106 3553 
C 2106 3381 2246 3323 2336 3323 
C 2394 3323 2566 3348 2566 3560 
C 2566 3954 2246 4179 1805 4179 
C 1043 4179 243 3390 243 1984 
C 243 253 966 -128 1478 -128 
C 2099 -128 2688 427 2688 1283 
C 2688 2081 2170 2662 1517 2662 
C 1126 2662 838 2407 678 1960 
L 678 2176 
z
M 1478 25 
C 691 25 691 1200 691 1436 
C 691 1896 909 2560 1504 2560 
C 1613 2560 1926 2560 2138 2120 
C 2253 1870 2253 1609 2253 1289 
C 2253 944 2253 690 2118 434 
C 1978 171 1773 25 1478 25 
z
" transform="scale(0.015625)"/>
       </defs>
       <use xlink:href="#CMR17-32" transform="scale(0.996264)"/>
       <use xlink:href="#CMR17-30" transform="translate(45.690477 0) scale(0.996264)"/>
       <use xlink:href="#CMR17-31" transform="translate(91.380954 0) scale(0.996264)"/>
       <use xlink:href="#CMR17-36" transform="translate(137.071431 0) scale(0.996264)"/>
      </g>
     </g>
    </g>
    <g id="xtick_3">
     <g id="line2d_3">
      <path d="M 336.529452 304.942585 
L 336.529452 3.742711 
" clip-path="url(#p191e4b3127)" style="fill: none; stroke: #cccccc; stroke-opacity: 0.35; stroke-width: 0.8; stroke-linecap: round"/>
     </g>
     <g id="text_3">
      <!-- $\mathdefault{2018}$ -->
      <g transform="translate(326.566781 315.361084) scale(0.1 -0.1)">
       <defs>
        <path id="CMR17-38" d="M 1741 2264 
C 2144 2467 2554 2773 2554 3263 
C 2554 3841 1990 4179 1472 4179 
C 890 4179 378 3759 378 3180 
C 378 3021 416 2747 666 2505 
C 730 2442 998 2251 1171 2130 
C 883 1983 211 1634 211 934 
C 211 279 838 -128 1459 -128 
C 2144 -128 2720 362 2720 1010 
C 2720 1590 2330 1857 2074 2029 
L 1741 2264 
z
M 902 2822 
C 851 2854 595 3051 595 3351 
C 595 3739 998 4032 1459 4032 
C 1965 4032 2336 3676 2336 3262 
C 2336 2669 1670 2331 1638 2331 
C 1632 2331 1626 2331 1574 2370 
L 902 2822 
z
M 2080 1519 
C 2176 1449 2483 1240 2483 851 
C 2483 381 2010 25 1472 25 
C 890 25 448 438 448 940 
C 448 1443 838 1862 1280 2060 
L 2080 1519 
z
" transform="scale(0.015625)"/>
       </defs>
       <use xlink:href="#CMR17-32" transform="scale(0.996264)"/>
       <use xlink:href="#CMR17-30" transform="translate(45.690477 0) scale(0.996264)"/>
       <use xlink:href="#CMR17-31" transform="translate(91.380954 0) scale(0.996264)"/>
       <use xlink:href="#CMR17-38" transform="translate(137.071431 0) scale(0.996264)"/>
      </g>
     </g>
    </g>
    <g id="xtick_4">
     <g id="line2d_4">
      <path d="M 458.181296 304.942585 
L 458.181296 3.742711 
" clip-path="url(#p191e4b3127)" style="fill: none; stroke: #cccccc; stroke-opacity: 0.35; stroke-width: 0.8; stroke-linecap: round"/>
     </g>
     <g id="text_4">
      <!-- $\mathdefault{2020}$ -->
      <g transform="translate(448.218625 315.361084) scale(0.1 -0.1)">
       <use xlink:href="#CMR17-32" transform="scale(0.996264)"/>
       <use xlink:href="#CMR17-30" transform="translate(45.690477 0) scale(0.996264)"/>
       <use xlink:href="#CMR17-32" transform="translate(91.380954 0) scale(0.996264)"/>
       <use xlink:href="#CMR17-30" transform="translate(137.071431 0) scale(0.996264)"/>
      </g>
     </g>
    </g>
    <g id="xtick_5">
     <g id="line2d_5">
      <path d="M 579.999786 304.942585 
L 579.999786 3.742711 
" clip-path="url(#p191e4b3127)" style="fill: none; stroke: #cccccc; stroke-opacity: 0.35; stroke-width: 0.8; stroke-linecap: round"/>
     </g>
     <g id="text_5">
      <!-- $\mathdefault{2022}$ -->
      <g transform="translate(570.037116 315.361084) scale(0.1 -0.1)">
       <use xlink:href="#CMR17-32" transform="scale(0.996264)"/>
       <use xlink:href="#CMR17-30" transform="translate(45.690477 0) scale(0.996264)"/>
       <use xlink:href="#CMR17-32" transform="translate(91.380954 0) scale(0.996264)"/>
       <use xlink:href="#CMR17-32" transform="translate(137.071431 0) scale(0.996264)"/>
      </g>
     </g>
    </g>
    <g id="xtick_6">
     <g id="line2d_6">
      <path d="M 701.65163 304.942585 
L 701.65163 3.742711 
" clip-path="url(#p191e4b3127)" style="fill: none; stroke: #cccccc; stroke-opacity: 0.35; stroke-width: 0.8; stroke-linecap: round"/>
     </g>
     <g id="text_6">
      <!-- $\mathdefault{2024}$ -->
      <g transform="translate(691.68896 315.361084) scale(0.1 -0.1)">
       <use xlink:href="#CMR17-32" transform="scale(0.996264)"/>
       <use xlink:href="#CMR17-30" transform="translate(45.690477 0) scale(0.996264)"/>
       <use xlink:href="#CMR17-32" transform="translate(91.380954 0) scale(0.996264)"/>
       <use xlink:href="#CMR17-34" transform="translate(137.071431 0) scale(0.996264)"/>
      </g>
     </g>
    </g>
    <g id="text_7">
     <!-- Date -->
     <g style="fill: #696969" transform="translate(369.077259 328.21676) scale(0.1 -0.1)">
      <defs>
       <path id="CMR17-44" d="M 333 4352 
L 333 4186 
C 774 4186 845 4186 845 3900 
L 845 452 
C 845 166 774 166 333 166 
L 333 0 
L 2368 0 
C 3398 0 4224 943 4224 2141 
C 4224 3346 3411 4352 2368 4352 
L 333 4352 
z
M 1523 166 
C 1267 166 1254 197 1254 414 
L 1254 3938 
C 1254 4155 1267 4186 1523 4186 
L 2240 4186 
C 2771 4186 3750 3874 3750 2141 
C 3750 1242 3488 879 3366 707 
C 3213 510 2848 166 2240 166 
L 1523 166 
z
" transform="scale(0.015625)"/>
       <path id="CMR17-61" d="M 2304 1653 
C 2304 2072 2304 2294 2035 2543 
C 1798 2752 1523 2816 1306 2816 
C 800 2816 435 2407 435 1971 
C 435 1728 627 1728 666 1728 
C 749 1728 896 1778 896 1954 
C 896 2112 774 2181 666 2181 
C 640 2181 608 2174 589 2168 
C 723 2592 1069 2714 1293 2714 
C 1613 2714 1965 2429 1965 1885 
L 1965 1600 
C 1587 1600 1133 1549 774 1357 
C 371 1133 256 813 256 570 
C 256 77 832 -64 1171 -64 
C 1523 -64 1850 139 1990 511 
C 2003 233 2182 -18 2464 -18 
C 2598 -18 2938 70 2938 567 
L 2938 920 
L 2822 920 
L 2822 562 
C 2822 178 2650 128 2566 128 
C 2304 128 2304 458 2304 738 
L 2304 1653 
z
M 1965 870 
C 1965 317 1568 38 1216 38 
C 896 38 646 275 646 570 
C 646 761 730 1100 1101 1305 
C 1408 1478 1760 1504 1965 1504 
L 1965 870 
z
" transform="scale(0.015625)"/>
       <path id="CMR17-74" d="M 966 2560 
L 1862 2560 
L 1862 2725 
L 966 2725 
L 966 3904 
L 851 3904 
C 838 3245 614 2668 70 2668 
L 70 2560 
L 627 2560 
L 627 771 
C 627 650 627 -64 1370 -64 
C 1747 -64 1965 306 1965 777 
L 1965 1140 
L 1850 1140 
L 1850 783 
C 1850 344 1677 51 1408 51 
C 1222 51 966 178 966 758 
L 966 2560 
z
" transform="scale(0.015625)"/>
       <path id="CMR17-65" d="M 2438 1472 
C 2464 1498 2464 1511 2464 1576 
C 2464 2238 2118 2816 1389 2816 
C 710 2816 173 2169 173 1383 
C 173 551 781 -64 1459 -64 
C 2176 -64 2458 607 2458 740 
C 2458 784 2419 784 2406 784 
C 2362 784 2355 771 2330 696 
C 2189 265 1837 51 1504 51 
C 1229 51 954 203 781 480 
C 582 803 582 1176 582 1472 
L 2438 1472 
z
M 589 1568 
C 634 2505 1126 2714 1382 2714 
C 1818 2714 2112 2297 2118 1568 
L 589 1568 
z
" transform="scale(0.015625)"/>
      </defs>
      <use xlink:href="#CMR17-44" transform="scale(0.996264)"/>
      <use xlink:href="#CMR17-61" transform="translate(70.393556 0) scale(0.996264)"/>
      <use xlink:href="#CMR17-74" transform="translate(116.084033 0) scale(0.996264)"/>
      <use xlink:href="#CMR17-65" transform="translate(151.364801 0) scale(0.996264)"/>
     </g>
    </g>
   </g>
   <g id="matplotlib.axis_2">
    <g id="ytick_1">
     <g id="line2d_7">
      <path d="M 42.048666 264.240477 
L 716.99976 264.240477 
" clip-path="url(#p191e4b3127)" style="fill: none; stroke: #cccccc; stroke-opacity: 0.35; stroke-width: 0.8; stroke-linecap: round"/>
     </g>
     <g id="text_8">
      <!-- $\mathdefault{−600}$ -->
      <g transform="translate(15.855917 267.699726) scale(0.1 -0.1)">
       <defs>
        <path id="CMSY10-0" d="M 4218 1472 
C 4326 1472 4442 1472 4442 1600 
C 4442 1728 4326 1728 4218 1728 
L 755 1728 
C 646 1728 531 1728 531 1600 
C 531 1472 646 1472 755 1472 
L 4218 1472 
z
" transform="scale(0.015625)"/>
       </defs>
       <use xlink:href="#CMSY10-0" transform="scale(0.996264)"/>
       <use xlink:href="#CMR17-36" transform="translate(77.487468 0) scale(0.996264)"/>
       <use xlink:href="#CMR17-30" transform="translate(123.177945 0) scale(0.996264)"/>
       <use xlink:href="#CMR17-30" transform="translate(168.868422 0) scale(0.996264)"/>
      </g>
     </g>
    </g>
    <g id="ytick_2">
     <g id="line2d_8">
      <path d="M 42.048666 212.684279 
L 716.99976 212.684279 
" clip-path="url(#p191e4b3127)" style="fill: none; stroke: #cccccc; stroke-opacity: 0.35; stroke-width: 0.8; stroke-linecap: round"/>
     </g>
     <g id="text_9">
      <!-- $\mathdefault{−400}$ -->
      <g transform="translate(15.855917 216.143529) scale(0.1 -0.1)">
       <use xlink:href="#CMSY10-0" transform="scale(0.996264)"/>
       <use xlink:href="#CMR17-34" transform="translate(77.487468 0) scale(0.996264)"/>
       <use xlink:href="#CMR17-30" transform="translate(123.177945 0) scale(0.996264)"/>
       <use xlink:href="#CMR17-30" transform="translate(168.868422 0) scale(0.996264)"/>
      </g>
     </g>
    </g>
    <g id="ytick_3">
     <g id="line2d_9">
      <path d="M 42.048666 161.128082 
L 716.99976 161.128082 
" clip-path="url(#p191e4b3127)" style="fill: none; stroke: #cccccc; stroke-opacity: 0.35; stroke-width: 0.8; stroke-linecap: round"/>
     </g>
     <g id="text_10">
      <!-- $\mathdefault{−200}$ -->
      <g transform="translate(15.855917 164.587331) scale(0.1 -0.1)">
       <use xlink:href="#CMSY10-0" transform="scale(0.996264)"/>
       <use xlink:href="#CMR17-32" transform="translate(77.487468 0) scale(0.996264)"/>
       <use xlink:href="#CMR17-30" transform="translate(123.177945 0) scale(0.996264)"/>
       <use xlink:href="#CMR17-30" transform="translate(168.868422 0) scale(0.996264)"/>
      </g>
     </g>
    </g>
    <g id="ytick_4">
     <g id="line2d_10">
      <path d="M 42.048666 109.571884 
L 716.99976 109.571884 
" clip-path="url(#p191e4b3127)" style="fill: none; stroke: #cccccc; stroke-opacity: 0.35; stroke-width: 0.8; stroke-linecap: round"/>
     </g>
     <g id="text_11">
      <!-- $\mathdefault{0}$ -->
      <g transform="translate(33.567331 113.031133) scale(0.1 -0.1)">
       <use xlink:href="#CMR17-30" transform="scale(0.996264)"/>
      </g>
     </g>
    </g>
    <g id="ytick_5">
     <g id="line2d_11">
      <path d="M 42.048666 58.015686 
L 716.99976 58.015686 
" clip-path="url(#p191e4b3127)" style="fill: none; stroke: #cccccc; stroke-opacity: 0.35; stroke-width: 0.8; stroke-linecap: round"/>
     </g>
     <g id="text_12">
      <!-- $\mathdefault{200}$ -->
      <g transform="translate(23.60466 61.474935) scale(0.1 -0.1)">
       <use xlink:href="#CMR17-32" transform="scale(0.996264)"/>
       <use xlink:href="#CMR17-30" transform="translate(45.690477 0) scale(0.996264)"/>
       <use xlink:href="#CMR17-30" transform="translate(91.380954 0) scale(0.996264)"/>
      </g>
     </g>
    </g>
    <g id="ytick_6">
     <g id="line2d_12">
      <path d="M 42.048666 6.459488 
L 716.99976 6.459488 
" clip-path="url(#p191e4b3127)" style="fill: none; stroke: #cccccc; stroke-opacity: 0.35; stroke-width: 0.8; stroke-linecap: round"/>
     </g>
     <g id="text_13">
      <!-- $\mathdefault{400}$ -->
      <g transform="translate(23.60466 9.918738) scale(0.1 -0.1)">
       <use xlink:href="#CMR17-34" transform="scale(0.996264)"/>
       <use xlink:href="#CMR17-30" transform="translate(45.690477 0) scale(0.996264)"/>
       <use xlink:href="#CMR17-30" transform="translate(91.380954 0) scale(0.996264)"/>
      </g>
     </g>
    </g>
    <g id="text_14">
     <!-- Risk -->
     <g style="fill: #696969" transform="translate(9.918738 163.987054) rotate(-90) scale(0.1 -0.1)">
      <defs>
       <path id="CMR17-52" d="M 2509 2146 
C 3117 2268 3629 2676 3629 3186 
C 3629 3785 2950 4326 2054 4326 
L 333 4326 
L 333 4160 
C 774 4160 845 4160 845 3873 
L 845 415 
C 845 128 774 128 333 128 
L 333 -26 
C 518 -26 851 -26 1050 -26 
C 1248 -26 1581 -26 1766 -26 
L 1766 128 
C 1325 128 1254 128 1254 417 
L 1254 2112 
L 2003 2112 
C 2368 2112 2573 1964 2662 1881 
C 2918 1632 2918 1459 2918 1024 
C 2918 595 2918 377 3110 160 
C 3354 -102 3680 -128 3821 -128 
C 4294 -128 4365 396 4365 503 
C 4365 540 4365 585 4307 585 
C 4256 585 4250 547 4250 522 
C 4218 112 4032 -26 3834 -26 
C 3482 -26 3443 375 3405 764 
C 3386 898 3373 993 3360 1133 
C 3322 1452 3270 1917 2509 2146 
z
M 1984 2214 
L 1254 2214 
L 1254 3913 
C 1254 4129 1267 4160 1523 4160 
L 1990 4160 
C 2522 4160 3142 3977 3142 3190 
C 3142 2372 2464 2214 1984 2214 
z
" transform="scale(0.015625)"/>
       <path id="CMR17-69" d="M 992 3909 
C 992 4049 877 4170 730 4170 
C 589 4170 467 4056 467 3909 
C 467 3769 582 3648 730 3648 
C 870 3648 992 3763 992 3909 
z
M 243 2706 
L 243 2541 
C 602 2541 653 2502 653 2197 
L 653 427 
C 653 184 627 153 218 153 
L 218 -13 
C 371 0 646 0 806 0 
C 960 0 1222 0 1370 -13 
L 1370 153 
C 992 153 979 191 979 420 
L 979 2776 
L 243 2706 
z
" transform="scale(0.015625)"/>
       <path id="CMR17-73" d="M 1978 2697 
C 1978 2813 1971 2819 1933 2819 
C 1907 2819 1901 2813 1824 2717 
C 1805 2691 1747 2626 1728 2601 
C 1523 2819 1235 2819 1126 2819 
C 416 2819 160 2447 160 2076 
C 160 1498 813 1365 998 1325 
C 1402 1243 1542 1217 1677 1101 
C 1760 1025 1901 884 1901 654 
C 1901 384 1747 38 1158 38 
C 602 38 403 460 288 1021 
C 269 1110 269 1117 218 1117 
C 166 1117 160 1110 160 983 
L 160 63 
C 160 -51 166 -58 205 -58 
C 237 -58 243 -51 275 0 
C 314 57 410 211 448 276 
C 576 103 800 -64 1158 -64 
C 1792 -64 2131 283 2131 784 
C 2131 1112 1958 1285 1875 1362 
C 1683 1561 1459 1606 1190 1657 
C 838 1735 390 1825 390 2217 
C 390 2383 480 2737 1126 2737 
C 1811 2737 1850 2094 1862 1888 
C 1869 1856 1901 1849 1920 1849 
C 1978 1849 1978 1869 1978 1978 
L 1978 2697 
z
" transform="scale(0.015625)"/>
       <path id="CMR17-6b" d="M 1670 1673 
C 1664 1686 1632 1724 1632 1743 
C 1632 1756 2086 2171 2144 2222 
C 2509 2528 2739 2560 2906 2560 
L 2906 2733 
C 2867 2733 2854 2733 2848 2720 
L 2534 2720 
C 2355 2720 2080 2720 1907 2733 
L 1907 2566 
C 1997 2559 2061 2508 2061 2419 
C 2061 2291 1933 2170 1926 2170 
L 960 1289 
L 960 4396 
L 198 4326 
L 198 4160 
C 576 4160 634 4122 634 3817 
L 634 426 
C 634 184 608 153 198 153 
L 198 -13 
C 352 0 634 0 794 0 
C 954 0 1235 0 1389 -13 
L 1389 153 
C 979 153 954 178 954 428 
L 954 1130 
L 1395 1532 
L 2042 574 
C 2118 459 2182 369 2182 286 
C 2182 172 2067 153 1990 153 
L 1990 -13 
C 2144 0 2419 0 2579 0 
C 2694 0 2931 0 3040 0 
L 3040 153 
C 2739 153 2669 210 2477 491 
L 1670 1673 
z
" transform="scale(0.015625)"/>
      </defs>
      <use xlink:href="#CMR17-52" transform="scale(0.996264)"/>
      <use xlink:href="#CMR17-69" transform="translate(67.791102 0) scale(0.996264)"/>
      <use xlink:href="#CMR17-73" transform="translate(92.66216 0) scale(0.996264)"/>
      <use xlink:href="#CMR17-6b" transform="translate(128.463498 0) scale(0.996264)"/>
     </g>
    </g>
   </g>
   <g id="PolyCollection_1">
    <defs>
     <path id="m3bd1c51542" d="M 82.893689 -342.32501 
L 82.893689 -331.144354 
L 87.89308 -323.305353 
L 93.059117 -322.300438 
L 98.225155 -255.337283 
L 102.891253 -251.705767 
L 108.05729 -253.135656 
L 113.056681 -252.353581 
L 118.222718 -255.768063 
L 123.222109 -248.307937 
L 128.388146 -252.219432 
L 133.554183 -256.07529 
L 138.553574 -253.209493 
L 143.719611 -252.207264 
L 148.719002 -262.702419 
L 153.885039 -245.742147 
L 159.051077 -245.978675 
L 163.717175 -249.167001 
L 168.883212 -248.828953 
L 173.882603 -242.153534 
L 179.04864 -246.984687 
L 184.048031 -244.63454 
L 189.214068 -235.813588 
L 194.380105 -237.530003 
L 199.379496 -231.330687 
L 204.545533 -240.904154 
L 209.544924 -235.443093 
L 214.710961 -252.988955 
L 219.876999 -252.62232 
L 224.709743 -253.319759 
L 229.87578 -254.07787 
L 234.875171 -251.989113 
L 240.041208 -242.697118 
L 245.040599 -233.043055 
L 250.206636 -250.728663 
L 255.372674 -247.580821 
L 260.372065 -228.790102 
L 265.538102 -239.952921 
L 270.537493 -251.834332 
L 275.70353 -220.98448 
L 280.869567 -251.083882 
L 285.535665 -240.134962 
L 290.701702 -222.522892 
L 295.701093 -237.329466 
L 300.86713 -236.61603 
L 305.866521 -223.312284 
L 311.032558 -234.143957 
L 316.198596 -219.490084 
L 321.197987 -250.718501 
L 326.364024 -201.582399 
L 331.363415 -206.481047 
L 336.529452 -190.412065 
L 341.695489 -219.393972 
L 346.361587 -241.993172 
L 351.527624 -247.95793 
L 356.527015 -249.984795 
L 361.693052 -247.155245 
L 366.692443 -245.268826 
L 371.85848 -245.463476 
L 377.024518 -243.402533 
L 382.023909 -244.393135 
L 387.189946 -242.251916 
L 392.189337 -240.48306 
L 397.355374 -240.862131 
L 402.521411 -239.427222 
L 407.187509 -237.011818 
L 412.353546 -236.140605 
L 417.352937 -232.242561 
L 422.518974 -231.422149 
L 427.518365 -240.005865 
L 432.684402 -230.970668 
L 437.85044 -246.553726 
L 442.849831 -247.885911 
L 448.015868 -249.73875 
L 453.015259 -249.698232 
L 458.181296 -250.419399 
L 463.347333 -249.433944 
L 468.180077 -246.108031 
L 473.346115 -242.050778 
L 478.345506 -243.189358 
L 483.511543 -248.051097 
L 488.510934 -242.49297 
L 493.676971 -249.208737 
L 498.843008 -246.758687 
L 503.842399 -243.073322 
L 509.008436 -241.27979 
L 514.007827 -240.822218 
L 519.173864 -252.047382 
L 524.339901 -251.147524 
L 529.005999 -252.080683 
L 534.172037 -251.367785 
L 539.171428 -251.343637 
L 544.337465 -249.372027 
L 549.336856 -247.252635 
L 554.502893 -249.297465 
L 559.66893 -246.82211 
L 564.668321 -238.186285 
L 569.834358 -225.488431 
L 574.833749 -248.037136 
L 579.999786 -251.972602 
L 585.165823 -241.997448 
L 589.831921 -239.42279 
L 594.997959 -223.004704 
L 599.99735 -247.811523 
L 605.163387 -246.951355 
L 610.162778 -244.824342 
L 615.328815 -248.537393 
L 620.494852 -248.684028 
L 625.494243 -221.334053 
L 630.66028 -229.890474 
L 635.659671 -247.957682 
L 640.825708 -196.437291 
L 645.991745 -115.543843 
L 650.657843 -76.313777 
L 655.823881 -68.748318 
L 660.823271 -157.398428 
L 665.989309 -201.737859 
L 670.9887 -246.91132 
L 676.154737 -245.509945 
L 681.320774 -171.201256 
L 686.320165 -132.838366 
L 686.320165 -248.164614 
L 686.320165 -248.164614 
L 681.320774 -248.375068 
L 676.154737 -254.960064 
L 670.9887 -253.224184 
L 665.989309 -250.927043 
L 660.823271 -248.385966 
L 655.823881 -253.673934 
L 650.657843 -245.609025 
L 645.991745 -245.689529 
L 640.825708 -248.840952 
L 635.659671 -324.218919 
L 630.66028 -248.632426 
L 625.494243 -249.850104 
L 620.494852 -270.825069 
L 615.328815 -257.491285 
L 610.162778 -288.371712 
L 605.163387 -295.730001 
L 599.99735 -274.174971 
L 594.997959 -249.201433 
L 589.831921 -255.145247 
L 585.165823 -259.694818 
L 579.999786 -266.591415 
L 574.833749 -257.911659 
L 569.834358 -250.980064 
L 564.668321 -252.420477 
L 559.66893 -297.039002 
L 554.502893 -283.28409 
L 549.336856 -253.550859 
L 544.337465 -290.119895 
L 539.171428 -308.730614 
L 534.172037 -288.681764 
L 529.005999 -282.147359 
L 524.339901 -269.010298 
L 519.173864 -276.233645 
L 514.007827 -294.627143 
L 509.008436 -289.753424 
L 503.842399 -294.26593 
L 498.843008 -300.616579 
L 493.676971 -267.238004 
L 488.510934 -252.14305 
L 483.511543 -254.208806 
L 478.345506 -251.35961 
L 473.346115 -251.850341 
L 468.180077 -250.876386 
L 463.347333 -254.0975 
L 458.181296 -260.289827 
L 453.015259 -264.556974 
L 448.015868 -259.707611 
L 442.849831 -253.913093 
L 437.85044 -255.339616 
L 432.684402 -254.217497 
L 427.518365 -256.484489 
L 422.518974 -253.34707 
L 417.352937 -252.951062 
L 412.353546 -253.998962 
L 407.187509 -251.324903 
L 402.521411 -252.761988 
L 397.355374 -252.106429 
L 392.189337 -253.439674 
L 387.189946 -253.061726 
L 382.023909 -254.311567 
L 377.024518 -254.623533 
L 371.85848 -259.17856 
L 366.692443 -258.781199 
L 361.693052 -261.793076 
L 356.527015 -263.069845 
L 351.527624 -263.198721 
L 346.361587 -261.039802 
L 341.695489 -262.650931 
L 336.529452 -260.756132 
L 331.363415 -257.36837 
L 326.364024 -257.318122 
L 321.197987 -255.684627 
L 316.198596 -252.548175 
L 311.032558 -252.045577 
L 305.866521 -251.002307 
L 300.86713 -250.914066 
L 295.701093 -251.175437 
L 290.701702 -251.520614 
L 285.535665 -252.2548 
L 280.869567 -257.945868 
L 275.70353 -252.13194 
L 270.537493 -275.159847 
L 265.538102 -252.02415 
L 260.372065 -251.23912 
L 255.372674 -258.689504 
L 250.206636 -269.642418 
L 245.040599 -252.524217 
L 240.041208 -253.299332 
L 234.875171 -273.344529 
L 229.87578 -317.938835 
L 224.709743 -274.990861 
L 219.876999 -267.850553 
L 214.710961 -263.878068 
L 209.544924 -250.300452 
L 204.545533 -250.527591 
L 199.379496 -247.944999 
L 194.380105 -252.154526 
L 189.214068 -249.112261 
L 184.048031 -251.882802 
L 179.04864 -252.811806 
L 173.882603 -252.697192 
L 168.883212 -265.358283 
L 163.717175 -274.429821 
L 159.051077 -262.918698 
L 153.885039 -268.01549 
L 148.719002 -310.901368 
L 143.719611 -293.305825 
L 138.553574 -309.569882 
L 133.554183 -301.685899 
L 128.388146 -295.32023 
L 123.222109 -293.256274 
L 118.222718 -308.821262 
L 113.056681 -307.274281 
L 108.05729 -321.720258 
L 102.891253 -326.187202 
L 98.225155 -337.984155 
L 93.059117 -342.070942 
L 87.89308 -342.352225 
L 82.893689 -342.32501 
z
" style="stroke: #006e64; stroke-opacity: 0.2"/>
    </defs>
    <g clip-path="url(#p191e4b3127)">
     <use xlink:href="#m3bd1c51542" x="0" y="360" style="fill: #006e64; fill-opacity: 0.2; stroke: #006e64; stroke-opacity: 0.2"/>
    </g>
   </g>
   <g id="PolyCollection_2">
    <defs>
     <path id="mbb87210a82" d="M 163.717175 -254.948528 
L 163.717175 -250.386285 
L 168.883212 -250.439096 
L 173.882603 -250.510205 
L 179.04864 -250.650121 
L 184.048031 -250.789773 
L 189.214068 -250.629551 
L 194.380105 -250.382229 
L 199.379496 -250.20666 
L 204.545533 -249.818273 
L 209.544924 -250.446544 
L 214.710961 -250.470091 
L 219.876999 -250.333017 
L 224.709743 -250.265174 
L 229.87578 -250.338489 
L 234.875171 -250.198037 
L 240.041208 -250.175344 
L 245.040599 -250.179934 
L 250.206636 -249.987123 
L 255.372674 -250.052931 
L 260.372065 -250.43364 
L 265.538102 -250.639537 
L 270.537493 -250.641606 
L 275.70353 -250.475932 
L 280.869567 -250.734505 
L 285.535665 -250.580669 
L 290.701702 -250.029788 
L 295.701093 -250.72159 
L 300.86713 -250.248567 
L 305.866521 -250.660204 
L 311.032558 -250.399838 
L 316.198596 -250.420837 
L 321.197987 -250.45266 
L 326.364024 -249.402154 
L 331.363415 -249.897942 
L 336.529452 -249.758521 
L 341.695489 -249.170588 
L 346.361587 -246.445279 
L 351.527624 -250.336763 
L 356.527015 -249.829755 
L 361.693052 -249.880674 
L 366.692443 -249.466767 
L 371.85848 -250.074103 
L 377.024518 -250.402955 
L 382.023909 -240.756778 
L 387.189946 -242.56243 
L 392.189337 -229.128029 
L 397.355374 -221.979712 
L 402.521411 -215.184748 
L 407.187509 -210.554062 
L 412.353546 -187.913054 
L 417.352937 -193.730675 
L 422.518974 -191.95679 
L 427.518365 -235.736927 
L 432.684402 -237.618163 
L 437.85044 -156.11994 
L 442.849831 -228.547289 
L 448.015868 -227.116975 
L 453.015259 -233.749409 
L 458.181296 -238.738359 
L 463.347333 -238.206141 
L 468.180077 -249.547121 
L 473.346115 -250.36258 
L 478.345506 -249.970266 
L 483.511543 -251.182785 
L 488.510934 -251.780506 
L 493.676971 -250.81673 
L 498.843008 -250.031862 
L 503.842399 -245.826738 
L 509.008436 -240.373302 
L 514.007827 -233.004858 
L 519.173864 -234.758111 
L 524.339901 -235.801845 
L 529.005999 -249.916881 
L 534.172037 -253.175619 
L 539.171428 -252.941437 
L 544.337465 -252.224056 
L 549.336856 -250.561914 
L 554.502893 -249.110602 
L 559.66893 -248.624049 
L 564.668321 -249.529752 
L 569.834358 -251.622732 
L 574.833749 -253.568968 
L 579.999786 -252.778183 
L 585.165823 -247.747626 
L 589.831921 -245.04422 
L 594.997959 -248.940073 
L 599.99735 -245.858597 
L 605.163387 -245.935162 
L 610.162778 -243.316132 
L 615.328815 -244.042185 
L 620.494852 -246.223564 
L 625.494243 -242.102101 
L 630.66028 -239.123307 
L 635.659671 -227.40078 
L 640.825708 -219.116764 
L 645.991745 -234.58449 
L 650.657843 -216.456436 
L 655.823881 -227.420846 
L 660.823271 -223.063471 
L 665.989309 -225.649645 
L 670.9887 -218.743327 
L 676.154737 -213.055204 
L 681.320774 -223.035495 
L 686.320165 -213.556423 
L 686.320165 -240.47563 
L 686.320165 -240.47563 
L 681.320774 -243.6929 
L 676.154737 -241.446662 
L 670.9887 -244.507779 
L 665.989309 -255.463152 
L 660.823271 -246.749697 
L 655.823881 -248.641791 
L 650.657843 -250.764692 
L 645.991745 -248.597425 
L 640.825708 -245.24752 
L 635.659671 -248.044872 
L 630.66028 -254.164265 
L 625.494243 -256.853633 
L 620.494852 -258.265579 
L 615.328815 -259.71251 
L 610.162778 -252.957912 
L 605.163387 -253.638461 
L 599.99735 -257.423825 
L 594.997959 -260.054431 
L 589.831921 -259.249193 
L 585.165823 -271.101921 
L 579.999786 -268.787192 
L 574.833749 -266.002595 
L 569.834358 -258.49843 
L 564.668321 -256.458306 
L 559.66893 -256.190936 
L 554.502893 -253.410049 
L 549.336856 -254.144706 
L 544.337465 -256.583954 
L 539.171428 -261.519119 
L 534.172037 -261.95869 
L 529.005999 -262.019402 
L 524.339901 -257.272479 
L 519.173864 -252.065208 
L 514.007827 -253.997016 
L 509.008436 -254.648123 
L 503.842399 -258.012049 
L 498.843008 -255.364109 
L 493.676971 -256.230531 
L 488.510934 -263.817511 
L 483.511543 -267.814092 
L 478.345506 -266.746632 
L 473.346115 -262.639575 
L 468.180077 -258.280565 
L 463.347333 -250.843222 
L 458.181296 -251.760765 
L 453.015259 -251.42603 
L 448.015868 -250.704409 
L 442.849831 -250.46739 
L 437.85044 -253.562443 
L 432.684402 -273.042262 
L 427.518365 -260.568586 
L 422.518974 -254.560586 
L 417.352937 -252.798788 
L 412.353546 -257.120528 
L 407.187509 -255.6205 
L 402.521411 -252.556879 
L 397.355374 -250.696495 
L 392.189337 -250.498671 
L 387.189946 -250.969191 
L 382.023909 -251.922765 
L 377.024518 -268.875359 
L 371.85848 -272.616132 
L 366.692443 -270.650847 
L 361.693052 -269.802346 
L 356.527015 -271.072115 
L 351.527624 -265.27273 
L 346.361587 -260.428331 
L 341.695489 -258.855911 
L 336.529452 -259.020547 
L 331.363415 -259.913556 
L 326.364024 -260.256746 
L 321.197987 -257.548211 
L 316.198596 -257.855914 
L 311.032558 -254.091436 
L 305.866521 -253.654278 
L 300.86713 -254.824536 
L 295.701093 -255.39191 
L 290.701702 -256.785704 
L 285.535665 -251.491037 
L 280.869567 -251.667287 
L 275.70353 -251.228751 
L 270.537493 -251.530128 
L 265.538102 -251.336423 
L 260.372065 -250.917229 
L 255.372674 -250.628999 
L 250.206636 -250.440307 
L 245.040599 -250.487688 
L 240.041208 -250.488103 
L 234.875171 -250.503618 
L 229.87578 -250.624987 
L 224.709743 -250.456483 
L 219.876999 -250.567428 
L 214.710961 -251.086028 
L 209.544924 -250.650429 
L 204.545533 -250.819501 
L 199.379496 -251.130577 
L 194.380105 -251.729863 
L 189.214068 -252.419643 
L 184.048031 -252.852759 
L 179.04864 -252.53892 
L 173.882603 -254.405889 
L 168.883212 -254.663632 
L 163.717175 -254.948528 
z
" style="stroke: #c17150; stroke-opacity: 0.2"/>
    </defs>
    <g clip-path="url(#p191e4b3127)">
     <use xlink:href="#mbb87210a82" x="0" y="360" style="fill: #c17150; fill-opacity: 0.2; stroke: #c17150; stroke-opacity: 0.2"/>
    </g>
   </g>
   <g id="line2d_13">
    <path d="M 72.728261 17.433615 
L 77.727652 17.628134 
L 82.893689 23.265318 
L 87.89308 27.171211 
L 93.059117 27.81431 
L 98.225155 55.427181 
L 102.891253 70.43914 
L 108.05729 72.572043 
L 113.056681 80.269712 
L 118.222718 80.049748 
L 123.222109 94.851518 
L 128.388146 87.00358 
L 133.554183 81.804452 
L 138.553574 83.653892 
L 143.719611 89.916549 
L 148.719002 75.798698 
L 153.885039 103.025239 
L 159.051077 105.469684 
L 163.717175 101.143805 
L 168.883212 104.405561 
L 173.882603 111.533543 
L 179.04864 109.77398 
L 184.048031 111.444847 
L 189.214068 116.521886 
L 194.380105 113.834133 
L 199.379496 119.491551 
L 204.545533 113.7027 
L 209.544924 116.553071 
L 214.710961 102.558585 
L 219.876999 100.335142 
L 224.709743 97.497702 
L 229.87578 80.94356 
L 234.875171 100.256932 
L 240.041208 110.85384 
L 245.040599 115.929807 
L 250.206636 102.259544 
L 255.372674 107.148343 
L 260.372065 118.757487 
L 265.538102 113.547457 
L 270.537493 100.041496 
L 275.70353 119.561621 
L 280.869567 106.085224 
L 285.535665 112.467776 
L 290.701702 118.467285 
L 295.701093 114.366586 
L 300.86713 114.488134 
L 305.866521 119.440043 
L 311.032558 114.066099 
L 316.198596 118.62716 
L 321.197987 107.000689 
L 326.364024 123.481737 
L 331.363415 122.023479 
L 336.529452 125.401283 
L 341.695489 115.22621 
L 346.361587 108.210315 
L 351.527624 105.243681 
L 356.527015 104.592841 
L 361.693052 106.009016 
L 366.692443 108.221101 
L 371.85848 107.816716 
L 377.024518 110.34779 
L 382.023909 109.417836 
L 387.189946 111.737063 
L 392.189337 112.205434 
L 397.355374 112.8182 
L 402.521411 113.285771 
L 407.187509 115.127697 
L 412.353546 114.289021 
L 417.352937 116.37952 
L 422.518974 116.84785 
L 427.518365 110.854969 
L 432.684402 115.310796 
L 437.85044 109.159086 
L 442.849831 109.326996 
L 448.015868 106.27878 
L 453.015259 104.753905 
L 458.181296 106.000904 
L 463.347333 108.634748 
L 468.180077 111.244646 
L 473.346115 112.27497 
L 478.345506 112.328037 
L 483.511543 108.842505 
L 488.510934 111.751843 
L 493.676971 104.363211 
L 498.843008 94.527208 
L 503.842399 98.247964 
L 509.008436 100.054425 
L 514.007827 97.701226 
L 519.173864 98.755949 
L 524.339901 101.68562 
L 529.005999 96.249284 
L 534.172037 95.182029 
L 539.171428 87.262811 
L 544.337465 96.275207 
L 549.336856 109.614163 
L 554.502893 96.469955 
L 559.66893 94.502749 
L 564.668321 113.611928 
L 569.834358 118.675456 
L 574.833749 107.365138 
L 579.999786 101.380381 
L 585.165823 107.941304 
L 589.831921 111.780562 
L 594.997959 120.380628 
L 599.99735 102.039397 
L 605.163387 95.267612 
L 610.162778 96.957363 
L 615.328815 107.414366 
L 620.494852 102.139339 
L 625.494243 121.323211 
L 630.66028 118.848883 
L 635.659671 84.090341 
L 640.825708 130.155495 
L 645.991745 160.833351 
L 650.657843 172.859867 
L 655.823881 171.972422 
L 660.823271 145.892811 
L 665.989309 127.146429 
L 670.9887 109.917723 
L 676.154737 109.535086 
L 681.320774 141.611915 
L 686.320165 153.357727 
" clip-path="url(#p191e4b3127)" style="fill: none; stroke: #006e64; stroke-width: 1.5; stroke-linecap: round"/>
   </g>
   <g id="line2d_14">
    <path d="M 159.051077 104.651543 
L 163.717175 107.332594 
L 168.883212 107.732747 
L 173.882603 107.779165 
L 179.04864 108.531747 
L 184.048031 108.293949 
L 189.214068 108.58476 
L 194.380105 109.113591 
L 199.379496 109.365919 
L 204.545533 109.618612 
L 209.544924 109.470711 
L 214.710961 109.287491 
L 219.876999 109.549183 
L 224.709743 109.623236 
L 229.87578 109.520487 
L 234.875171 109.62771 
L 240.041208 109.651961 
L 245.040599 109.644944 
L 250.206636 109.759114 
L 255.372674 109.648466 
L 260.372065 109.33832 
L 265.538102 109.075901 
L 270.537493 108.990622 
L 275.70353 109.194722 
L 280.869567 108.872595 
L 285.535665 109.010276 
L 290.701702 107.613262 
L 295.701093 107.610485 
L 300.86713 108.08429 
L 305.866521 108.200354 
L 311.032558 108.21381 
L 316.198596 106.629904 
L 321.197987 106.73078 
L 326.364024 106.098236 
L 331.363415 106.089894 
L 336.529452 106.287356 
L 341.695489 107.039868 
L 346.361587 107.959951 
L 351.527624 104.226537 
L 356.527015 101.317553 
L 361.693052 102.372206 
L 366.692443 101.318487 
L 371.85848 100.609798 
L 377.024518 103.008713 
L 382.023909 112.284332 
L 387.189946 112.766406 
L 392.189337 117.865434 
L 397.355374 120.639607 
L 402.521411 122.268536 
L 407.187509 123.350046 
L 412.353546 131.409634 
L 417.352937 129.390022 
L 422.518974 129.549249 
L 427.518365 111.467633 
L 432.684402 106.784556 
L 437.85044 141.663709 
L 442.849831 117.787511 
L 448.015868 117.428757 
L 453.015259 114.645817 
L 458.181296 112.936737 
L 463.347333 113.640225 
L 468.180077 106.914476 
L 473.346115 104.552189 
L 478.345506 102.76664 
L 483.511543 101.509568 
L 488.510934 103.410908 
L 493.676971 106.712576 
L 498.843008 107.607622 
L 503.842399 108.085804 
L 509.008436 110.876358 
L 514.007827 113.65838 
L 519.173864 114.258568 
L 524.339901 112.210791 
L 529.005999 105.648186 
L 534.172037 102.948484 
L 539.171428 103.341783 
L 544.337465 105.694758 
L 549.336856 107.69471 
L 554.502893 108.805546 
L 559.66893 107.810347 
L 564.668321 107.22755 
L 569.834358 105.338221 
L 574.833749 100.850281 
L 579.999786 100.574374 
L 585.165823 102.032787 
L 589.831921 108.208442 
L 594.997959 106.548318 
L 599.99735 108.81731 
L 605.163387 110.016514 
L 610.162778 112.036929 
L 615.328815 108.995645 
L 620.494852 108.435793 
L 625.494243 111.399256 
L 630.66028 113.826161 
L 635.659671 120.841385 
L 640.825708 125.043736 
L 645.991745 117.811646 
L 650.657843 123.057754 
L 655.823881 119.73101 
L 660.823271 122.784089 
L 665.989309 117.032007 
L 670.9887 126.335534 
L 676.154737 131.974532 
L 681.320774 125.882094 
L 686.320165 131.406319 
" clip-path="url(#p191e4b3127)" style="fill: none; stroke: #c17150; stroke-width: 1.5; stroke-linecap: round"/>
   </g>
   <g id="line2d_15"/>
   <g id="line2d_16"/>
   <g id="patch_3">
    <path d="M 42.048666 304.942585 
L 42.048666 3.742711 
" style="fill: none; stroke: #808080; stroke-width: 0.8; stroke-linejoin: miter; stroke-linecap: square"/>
   </g>
   <g id="patch_4">
    <path d="M 42.048666 304.942585 
L 716.99976 304.942585 
" style="fill: none; stroke: #808080; stroke-width: 0.8; stroke-linejoin: miter; stroke-linecap: square"/>
   </g>
   <g id="text_15">
    <!-- Source: ELCON A/S -->
    <g style="fill: #808080" transform="translate(624.264008 352.613226) scale(0.1 -0.1)">
     <defs>
      <path id="CMR17-53" d="M 2803 4290 
C 2803 4404 2797 4411 2758 4411 
C 2720 4411 2707 4385 2682 4328 
L 2490 3907 
C 2246 4257 1875 4416 1472 4416 
C 819 4416 294 3901 294 3253 
C 294 3056 339 2776 557 2510 
C 794 2218 1018 2167 1530 2033 
C 1722 1982 2042 1899 2106 1874 
C 2470 1722 2662 1341 2662 985 
C 2662 527 2336 38 1779 38 
C 1094 38 454 419 410 1311 
C 403 1413 397 1419 352 1419 
C 301 1419 294 1413 294 1285 
L 294 -1 
C 294 -115 301 -122 339 -122 
C 384 -122 397 -90 486 108 
C 493 127 493 140 614 381 
C 934 -39 1472 -128 1779 -128 
C 2477 -128 2970 451 2970 1124 
C 2970 1454 2848 1708 2778 1823 
C 2509 2230 2221 2306 1914 2382 
C 1869 2402 1856 2402 1498 2490 
C 1152 2579 1005 2624 845 2796 
C 666 2992 602 3196 602 3399 
C 602 3812 934 4263 1478 4263 
C 2157 4263 2579 3786 2675 2993 
C 2694 2878 2701 2872 2746 2872 
C 2803 2872 2803 2891 2803 2999 
L 2803 4290 
z
" transform="scale(0.015625)"/>
      <path id="CMR17-6f" d="M 2758 1356 
C 2758 2176 2163 2816 1466 2816 
C 768 2816 173 2176 173 1356 
C 173 551 768 -64 1466 -64 
C 2163 -64 2758 551 2758 1356 
z
M 1466 51 
C 1165 51 909 230 762 480 
C 602 767 582 1126 582 1408 
C 582 1677 595 2010 762 2298 
C 890 2509 1139 2714 1466 2714 
C 1754 2714 1997 2554 2150 2330 
C 2349 2029 2349 1607 2349 1408 
C 2349 1158 2336 775 2163 467 
C 1984 173 1709 51 1466 51 
z
" transform="scale(0.015625)"/>
      <path id="CMR17-75" d="M 1882 2693 
L 1882 2528 
C 2259 2528 2317 2489 2317 2186 
L 2317 1032 
C 2317 500 2029 38 1555 38 
C 1030 38 986 348 986 678 
L 986 2763 
L 211 2693 
L 211 2528 
C 467 2528 640 2528 646 2274 
L 646 1058 
C 646 633 646 361 813 183 
C 896 101 1056 -64 1517 -64 
C 2061 -64 2272 377 2323 506 
L 2330 506 
L 2330 -63 
L 3091 -63 
L 3091 128 
C 2714 128 2656 166 2656 473 
L 2656 2763 
L 1882 2693 
z
" transform="scale(0.015625)"/>
      <path id="CMR17-72" d="M 960 1497 
C 960 2112 1222 2688 1702 2688 
C 1747 2688 1792 2682 1837 2662 
C 1837 2662 1696 2617 1696 2452 
C 1696 2298 1818 2234 1914 2234 
C 1990 2234 2131 2279 2131 2458 
C 2131 2663 1926 2790 1709 2790 
C 1222 2790 1011 2317 947 2093 
L 941 2093 
L 941 2790 
L 198 2720 
L 198 2554 
C 576 2554 634 2515 634 2208 
L 634 428 
C 634 184 608 153 198 153 
L 198 -13 
C 352 0 646 0 813 0 
C 998 0 1325 0 1498 -13 
L 1498 153 
C 1037 153 960 153 960 440 
L 960 1497 
z
" transform="scale(0.015625)"/>
      <path id="CMR17-63" d="M 2234 2240 
C 2112 2240 1933 2240 1933 2017 
C 1933 1838 2080 1787 2163 1787 
C 2208 1787 2394 1807 2394 2024 
C 2394 2467 1958 2803 1466 2803 
C 787 2803 211 2178 211 1363 
C 211 516 813 -64 1466 -64 
C 2259 -64 2458 677 2458 748 
C 2458 774 2451 793 2406 793 
C 2362 793 2355 787 2330 703 
C 2163 180 1798 51 1523 51 
C 1114 51 621 427 621 1369 
C 621 2338 1094 2688 1472 2688 
C 1722 2688 2093 2573 2234 2240 
z
" transform="scale(0.015625)"/>
      <path id="CMR17-3a" d="M 1062 2491 
C 1062 2650 934 2752 800 2752 
C 672 2752 538 2650 538 2491 
C 538 2332 666 2230 800 2230 
C 928 2230 1062 2332 1062 2491 
z
M 1062 261 
C 1062 420 934 522 800 522 
C 672 522 538 420 538 261 
C 538 102 666 0 800 0 
C 928 0 1062 102 1062 261 
z
" transform="scale(0.015625)"/>
      <path id="CMR17-45" d="M 3885 1615 
L 3770 1615 
C 3629 676 3546 166 2419 166 
L 1530 166 
C 1274 166 1261 197 1261 414 
L 1261 2176 
L 1862 2176 
C 2464 2176 2522 1960 2522 1430 
L 2637 1430 
L 2637 3081 
L 2522 3081 
C 2522 2557 2464 2342 1862 2342 
L 1261 2342 
L 1261 3913 
C 1261 4128 1274 4160 1530 4160 
L 2406 4160 
C 3398 4160 3514 3769 3603 2929 
L 3718 2929 
L 3565 4325 
L 326 4325 
L 326 4160 
C 768 4160 838 4160 838 3874 
L 838 451 
C 838 166 768 166 326 166 
L 326 0 
L 3654 0 
L 3885 1615 
z
" transform="scale(0.015625)"/>
      <path id="CMR17-4c" d="M 3469 1615 
L 3354 1615 
C 3302 983 3219 166 2125 166 
L 1530 166 
C 1274 166 1261 197 1261 414 
L 1261 3898 
C 1261 4129 1274 4192 1760 4192 
L 1901 4192 
L 1901 4352 
C 1638 4352 1331 4352 1069 4352 
C 870 4352 512 4352 326 4352 
L 326 4192 
C 768 4192 838 4192 838 3905 
L 838 452 
C 838 166 768 166 326 166 
L 326 0 
L 3315 0 
L 3469 1615 
z
" transform="scale(0.015625)"/>
      <path id="CMR17-43" d="M 3974 4289 
C 3974 4403 3968 4410 3930 4410 
C 3904 4410 3898 4403 3853 4327 
L 3571 3792 
C 3258 4187 2874 4416 2381 4416 
C 1286 4416 294 3456 294 2148 
C 294 826 1286 -128 2387 -128 
C 3366 -128 3974 730 3974 1461 
C 3974 1524 3974 1550 3917 1550 
C 3866 1550 3866 1531 3859 1474 
C 3808 585 3168 38 2477 38 
C 1824 38 781 495 781 2147 
C 781 3805 1843 4250 2464 4250 
C 3187 4250 3712 3628 3834 2745 
C 3846 2668 3846 2655 3904 2655 
C 3974 2655 3974 2668 3974 2783 
L 3974 4289 
z
" transform="scale(0.015625)"/>
      <path id="CMR17-4f" d="M 4307 2135 
C 4307 3437 3366 4416 2304 4416 
C 1216 4416 294 3424 294 2135 
C 294 845 1229 -128 2298 -128 
C 3392 -128 4307 864 4307 2135 
z
M 2304 -13 
C 1574 -13 781 711 781 2217 
C 781 3716 1651 4301 2298 4301 
C 2976 4301 3821 3698 3821 2217 
C 3821 686 3008 -13 2304 -13 
z
" transform="scale(0.015625)"/>
      <path id="CMR17-4e" d="M 1312 4250 
C 1267 4320 1261 4320 1139 4320 
L 326 4320 
L 326 4160 
L 448 4160 
C 704 4160 819 4129 838 4122 
L 838 610 
C 838 451 838 153 326 153 
L 326 -13 
C 474 0 742 0 902 0 
C 1062 0 1331 0 1478 -13 
L 1478 153 
C 966 153 966 451 966 610 
L 966 4033 
C 1011 3995 1011 3982 1056 3919 
L 3430 76 
C 3475 0 3494 0 3526 0 
C 3590 0 3590 19 3590 139 
L 3590 3705 
C 3590 3863 3590 4160 4102 4160 
L 4102 4326 
C 3955 4320 3686 4320 3526 4320 
C 3366 4320 3098 4320 2950 4326 
L 2950 4160 
C 3462 4160 3462 3862 3462 3703 
L 3462 763 
L 1312 4250 
z
" transform="scale(0.015625)"/>
      <path id="CMR17-41" d="M 2323 4378 
C 2291 4461 2278 4480 2214 4480 
C 2150 4480 2138 4461 2106 4378 
L 749 566 
C 627 223 371 153 147 153 
L 147 -13 
C 262 0 518 0 640 0 
C 800 0 1056 0 1210 -13 
L 1210 153 
C 909 153 864 361 864 439 
C 864 497 877 530 890 569 
L 1229 1536 
L 2906 1536 
L 3290 442 
C 3322 365 3322 352 3322 327 
C 3322 153 3046 153 2925 153 
L 2925 0 
C 3110 0 3443 0 3642 0 
C 3808 0 4128 0 4282 -13 
L 4282 153 
C 3942 153 3827 153 3744 387 
L 2323 4378 
z
M 2067 3893 
L 2848 1702 
L 1286 1702 
L 2067 3893 
z
" transform="scale(0.015625)"/>
      <path id="CMR17-2f" d="M 2605 4545 
C 2637 4627 2637 4640 2637 4653 
C 2637 4729 2579 4768 2528 4768 
C 2451 4768 2426 4717 2400 4640 
L 326 -1377 
C 294 -1460 294 -1473 294 -1486 
C 294 -1562 352 -1600 403 -1600 
C 480 -1600 506 -1549 531 -1473 
L 2605 4545 
z
" transform="scale(0.015625)"/>
     </defs>
     <use xlink:href="#CMR17-53" transform="scale(0.996264)"/>
     <use xlink:href="#CMR17-6f" transform="translate(50.89537 0) scale(0.996264)"/>
     <use xlink:href="#CMR17-75" transform="translate(96.585847 0) scale(0.996264)"/>
     <use xlink:href="#CMR17-72" transform="translate(147.481217 0) scale(0.996264)"/>
     <use xlink:href="#CMR17-63" transform="translate(182.761984 0) scale(0.996264)"/>
     <use xlink:href="#CMR17-65" transform="translate(223.247645 0) scale(0.996264)"/>
     <use xlink:href="#CMR17-3a" transform="translate(263.733305 0) scale(0.996264)"/>
     <use xlink:href="#CMR17-45" transform="translate(329.090024 0) scale(0.996264)"/>
     <use xlink:href="#CMR17-4c" transform="translate(391.676325 0) scale(0.996264)"/>
     <use xlink:href="#CMR17-43" transform="translate(449.057733 0) scale(0.996264)"/>
     <use xlink:href="#CMR17-4f" transform="translate(515.567613 0) scale(0.996264)"/>
     <use xlink:href="#CMR17-4e" transform="translate(587.282402 0) scale(0.996264)"/>
     <use xlink:href="#CMR17-41" transform="translate(686.430798 0) scale(0.996264)"/>
     <use xlink:href="#CMR17-2f" transform="translate(755.503228 0) scale(0.996264)"/>
     <use xlink:href="#CMR17-53" transform="translate(801.193705 0) scale(0.996264)"/>
    </g>
   </g>
   <g id="legend_1">
    <g id="patch_5">
     <path d="M 324.580207 356.999751 
L 434.468219 356.999751 
Q 436.468219 356.999751 436.468219 354.999751 
L 436.468219 342.062573 
Q 436.468219 340.062573 434.468219 340.062573 
L 324.580207 340.062573 
Q 322.580207 340.062573 322.580207 342.062573 
L 322.580207 354.999751 
Q 322.580207 356.999751 324.580207 356.999751 
z
" style="fill: #ffffff; opacity: 0.8"/>
    </g>
    <g id="line2d_17">
     <path d="M 326.580207 347.562573 
L 336.580207 347.562573 
L 346.580207 347.562573 
" style="fill: none; stroke: #006e64; stroke-width: 1.5; stroke-linecap: round"/>
    </g>
    <g id="text_16">
     <!-- 505 -->
     <g style="fill: #262626" transform="translate(354.580207 351.062573) scale(0.1 -0.1)">
      <defs>
       <path id="CMR17-35" d="M 730 3692 
C 794 3666 1056 3584 1325 3584 
C 1920 3584 2246 3911 2432 4100 
C 2432 4157 2432 4192 2394 4192 
C 2387 4192 2374 4192 2323 4163 
C 2099 4058 1837 3973 1517 3973 
C 1325 3973 1037 3999 723 4139 
C 653 4171 640 4171 634 4171 
C 602 4171 595 4164 595 4037 
L 595 2203 
C 595 2089 595 2057 659 2057 
C 691 2057 704 2070 736 2114 
C 941 2401 1222 2522 1542 2522 
C 1766 2522 2246 2382 2246 1289 
C 2246 1085 2246 715 2054 421 
C 1894 159 1645 25 1370 25 
C 947 25 518 320 403 814 
C 429 807 480 795 506 795 
C 589 795 749 840 749 1038 
C 749 1210 627 1280 506 1280 
C 358 1280 262 1190 262 1011 
C 262 454 704 -128 1382 -128 
C 2042 -128 2669 440 2669 1264 
C 2669 2030 2170 2624 1549 2624 
C 1222 2624 947 2503 730 2274 
L 730 3692 
z
" transform="scale(0.015625)"/>
      </defs>
      <use xlink:href="#CMR17-35" transform="scale(0.996264)"/>
      <use xlink:href="#CMR17-30" transform="translate(45.690477 0) scale(0.996264)"/>
      <use xlink:href="#CMR17-35" transform="translate(91.380954 0) scale(0.996264)"/>
     </g>
    </g>
    <g id="line2d_18">
     <path d="M 389.524213 347.562573 
L 399.524213 347.562573 
L 409.524213 347.562573 
" style="fill: none; stroke: #c17150; stroke-width: 1.5; stroke-linecap: round"/>
    </g>
    <g id="text_17">
     <!-- 515 -->
     <g style="fill: #262626" transform="translate(417.524213 351.062573) scale(0.1 -0.1)">
      <use xlink:href="#CMR17-35" transform="scale(0.996264)"/>
      <use xlink:href="#CMR17-31" transform="translate(45.690477 0) scale(0.996264)"/>
      <use xlink:href="#CMR17-35" transform="translate(91.380954 0) scale(0.996264)"/>
     </g>
    </g>
   </g>
  </g>
 </g>
 <defs>
  <clipPath id="p191e4b3127">
   <rect x="42.048666" y="3.742711" width="674.951094" height="301.199874"/>
  </clipPath>
 </defs>
</svg>
