<?xml version="1.0" encoding="utf-8" standalone="no"?>
<!DOCTYPE svg PUBLIC "-//W3C//DTD SVG 1.1//EN"
  "http://www.w3.org/Graphics/SVG/1.1/DTD/svg11.dtd">
<svg xmlns:xlink="http://www.w3.org/1999/xlink" width="1440pt" height="720pt" viewBox="0 0 1440 720" xmlns="http://www.w3.org/2000/svg" version="1.1">
 <metadata>
  <rdf:RDF xmlns:dc="http://purl.org/dc/elements/1.1/" xmlns:cc="http://creativecommons.org/ns#" xmlns:rdf="http://www.w3.org/1999/02/22-rdf-syntax-ns#">
   <cc:Work>
    <dc:type rdf:resource="http://purl.org/dc/dcmitype/StillImage"/>
    <dc:date>2023-11-02T11:18:30.166442</dc:date>
    <dc:format>image/svg+xml</dc:format>
    <dc:creator>
     <cc:Agent>
      <dc:title>Matplotlib v3.8.0, https://matplotlib.org/</dc:title>
     </cc:Agent>
    </dc:creator>
   </cc:Work>
  </rdf:RDF>
 </metadata>
 <defs>
  <style type="text/css">*{stroke-linejoin: round; stroke-linecap: butt}</style>
 </defs>
 <g id="figure_1">
  <g id="patch_1">
   <path d="M 0 720 
L 1440 720 
L 1440 0 
L 0 0 
z
" style="fill: #ffffff"/>
  </g>
  <g id="axes_1">
   <g id="patch_2">
    <path d="M 42.048666 632.140349 
L 1436.99976 632.140349 
L 1436.99976 3.00024 
L 42.048666 3.00024 
z
" style="fill: #ffffff"/>
   </g>
   <g id="matplotlib.axis_1">
    <g id="xtick_1">
     <g id="line2d_1">
      <path d="M 105.455534 632.140349 
L 105.455534 3.00024 
" clip-path="url(#p422b14e27f)" style="fill: none; stroke: #cccccc; stroke-opacity: 0.35; stroke-width: 0.8; stroke-linecap: round"/>
     </g>
     <g id="text_1">
      <!-- $\mathdefault{2015}$ -->
      <g transform="translate(95.492864 642.558847) scale(0.1 -0.1)">
       <defs>
        <path id="CMR17-32" d="M 2669 989 
L 2554 989 
C 2490 536 2438 459 2413 420 
C 2381 369 1920 369 1830 369 
L 602 369 
C 832 619 1280 1072 1824 1597 
C 2214 1967 2669 2402 2669 3035 
C 2669 3790 2067 4224 1395 4224 
C 691 4224 262 3604 262 3030 
C 262 2780 448 2748 525 2748 
C 589 2748 781 2787 781 3010 
C 781 3207 614 3264 525 3264 
C 486 3264 448 3258 422 3245 
C 544 3790 915 4058 1306 4058 
C 1862 4058 2227 3617 2227 3035 
C 2227 2479 1901 2000 1536 1584 
L 262 146 
L 262 0 
L 2515 0 
L 2669 989 
z
" transform="scale(0.015625)"/>
        <path id="CMR17-30" d="M 2688 2025 
C 2688 2416 2682 3080 2413 3591 
C 2176 4039 1798 4198 1466 4198 
C 1158 4198 768 4058 525 3597 
C 269 3118 243 2524 243 2025 
C 243 1661 250 1106 448 619 
C 723 -39 1216 -128 1466 -128 
C 1760 -128 2208 -7 2470 600 
C 2662 1042 2688 1559 2688 2025 
z
M 1466 -26 
C 1056 -26 813 325 723 812 
C 653 1188 653 1738 653 2096 
C 653 2588 653 2997 736 3387 
C 858 3929 1216 4096 1466 4096 
C 1728 4096 2067 3923 2189 3400 
C 2272 3036 2278 2607 2278 2096 
C 2278 1680 2278 1169 2202 792 
C 2067 95 1690 -26 1466 -26 
z
" transform="scale(0.015625)"/>
        <path id="CMR17-31" d="M 1702 4058 
C 1702 4192 1696 4192 1606 4192 
C 1357 3916 979 3827 621 3827 
C 602 3827 570 3827 563 3808 
C 557 3795 557 3782 557 3648 
C 755 3648 1088 3686 1344 3839 
L 1344 461 
C 1344 236 1331 160 781 160 
L 589 160 
L 589 0 
C 896 0 1216 0 1523 0 
C 1830 0 2150 0 2458 0 
L 2458 160 
L 2266 160 
C 1715 160 1702 230 1702 458 
L 1702 4058 
z
" transform="scale(0.015625)"/>
        <path id="CMR17-35" d="M 730 3692 
C 794 3666 1056 3584 1325 3584 
C 1920 3584 2246 3911 2432 4100 
C 2432 4157 2432 4192 2394 4192 
C 2387 4192 2374 4192 2323 4163 
C 2099 4058 1837 3973 1517 3973 
C 1325 3973 1037 3999 723 4139 
C 653 4171 640 4171 634 4171 
C 602 4171 595 4164 595 4037 
L 595 2203 
C 595 2089 595 2057 659 2057 
C 691 2057 704 2070 736 2114 
C 941 2401 1222 2522 1542 2522 
C 1766 2522 2246 2382 2246 1289 
C 2246 1085 2246 715 2054 421 
C 1894 159 1645 25 1370 25 
C 947 25 518 320 403 814 
C 429 807 480 795 506 795 
C 589 795 749 840 749 1038 
C 749 1210 627 1280 506 1280 
C 358 1280 262 1190 262 1011 
C 262 454 704 -128 1382 -128 
C 2042 -128 2669 440 2669 1264 
C 2669 2030 2170 2624 1549 2624 
C 1222 2624 947 2503 730 2274 
L 730 3692 
z
" transform="scale(0.015625)"/>
       </defs>
       <use xlink:href="#CMR17-32" transform="scale(0.996264)"/>
       <use xlink:href="#CMR17-30" transform="translate(45.690477 0) scale(0.996264)"/>
       <use xlink:href="#CMR17-31" transform="translate(91.380954 0) scale(0.996264)"/>
       <use xlink:href="#CMR17-35" transform="translate(137.071431 0) scale(0.996264)"/>
      </g>
     </g>
    </g>
    <g id="xtick_2">
     <g id="line2d_2">
      <path d="M 248.936667 632.140349 
L 248.936667 3.00024 
" clip-path="url(#p422b14e27f)" style="fill: none; stroke: #cccccc; stroke-opacity: 0.35; stroke-width: 0.8; stroke-linecap: round"/>
     </g>
     <g id="text_2">
      <!-- $\mathdefault{2016}$ -->
      <g transform="translate(238.973997 642.558847) scale(0.1 -0.1)">
       <defs>
        <path id="CMR17-36" d="M 678 2176 
C 678 3690 1395 4032 1811 4032 
C 1946 4032 2272 4009 2400 3776 
C 2298 3776 2106 3776 2106 3553 
C 2106 3381 2246 3323 2336 3323 
C 2394 3323 2566 3348 2566 3560 
C 2566 3954 2246 4179 1805 4179 
C 1043 4179 243 3390 243 1984 
C 243 253 966 -128 1478 -128 
C 2099 -128 2688 427 2688 1283 
C 2688 2081 2170 2662 1517 2662 
C 1126 2662 838 2407 678 1960 
L 678 2176 
z
M 1478 25 
C 691 25 691 1200 691 1436 
C 691 1896 909 2560 1504 2560 
C 1613 2560 1926 2560 2138 2120 
C 2253 1870 2253 1609 2253 1289 
C 2253 944 2253 690 2118 434 
C 1978 171 1773 25 1478 25 
z
" transform="scale(0.015625)"/>
       </defs>
       <use xlink:href="#CMR17-32" transform="scale(0.996264)"/>
       <use xlink:href="#CMR17-30" transform="translate(45.690477 0) scale(0.996264)"/>
       <use xlink:href="#CMR17-31" transform="translate(91.380954 0) scale(0.996264)"/>
       <use xlink:href="#CMR17-36" transform="translate(137.071431 0) scale(0.996264)"/>
      </g>
     </g>
    </g>
    <g id="xtick_3">
     <g id="line2d_3">
      <path d="M 392.810899 632.140349 
L 392.810899 3.00024 
" clip-path="url(#p422b14e27f)" style="fill: none; stroke: #cccccc; stroke-opacity: 0.35; stroke-width: 0.8; stroke-linecap: round"/>
     </g>
     <g id="text_3">
      <!-- $\mathdefault{2017}$ -->
      <g transform="translate(382.848229 642.558847) scale(0.1 -0.1)">
       <defs>
        <path id="CMR17-37" d="M 2886 3941 
L 2886 4081 
L 1382 4081 
C 634 4081 621 4165 595 4288 
L 480 4288 
L 294 3094 
L 410 3094 
C 429 3215 474 3540 550 3661 
C 589 3712 1062 3712 1171 3712 
L 2579 3712 
L 1869 2661 
C 1395 1954 1069 999 1069 165 
C 1069 89 1069 -128 1299 -128 
C 1530 -128 1530 89 1530 171 
L 1530 465 
C 1530 1508 1709 2196 2003 2636 
L 2886 3941 
z
" transform="scale(0.015625)"/>
       </defs>
       <use xlink:href="#CMR17-32" transform="scale(0.996264)"/>
       <use xlink:href="#CMR17-30" transform="translate(45.690477 0) scale(0.996264)"/>
       <use xlink:href="#CMR17-31" transform="translate(91.380954 0) scale(0.996264)"/>
       <use xlink:href="#CMR17-37" transform="translate(137.071431 0) scale(0.996264)"/>
      </g>
     </g>
    </g>
    <g id="xtick_4">
     <g id="line2d_4">
      <path d="M 536.292033 632.140349 
L 536.292033 3.00024 
" clip-path="url(#p422b14e27f)" style="fill: none; stroke: #cccccc; stroke-opacity: 0.35; stroke-width: 0.8; stroke-linecap: round"/>
     </g>
     <g id="text_4">
      <!-- $\mathdefault{2018}$ -->
      <g transform="translate(526.329362 642.558847) scale(0.1 -0.1)">
       <defs>
        <path id="CMR17-38" d="M 1741 2264 
C 2144 2467 2554 2773 2554 3263 
C 2554 3841 1990 4179 1472 4179 
C 890 4179 378 3759 378 3180 
C 378 3021 416 2747 666 2505 
C 730 2442 998 2251 1171 2130 
C 883 1983 211 1634 211 934 
C 211 279 838 -128 1459 -128 
C 2144 -128 2720 362 2720 1010 
C 2720 1590 2330 1857 2074 2029 
L 1741 2264 
z
M 902 2822 
C 851 2854 595 3051 595 3351 
C 595 3739 998 4032 1459 4032 
C 1965 4032 2336 3676 2336 3262 
C 2336 2669 1670 2331 1638 2331 
C 1632 2331 1626 2331 1574 2370 
L 902 2822 
z
M 2080 1519 
C 2176 1449 2483 1240 2483 851 
C 2483 381 2010 25 1472 25 
C 890 25 448 438 448 940 
C 448 1443 838 1862 1280 2060 
L 2080 1519 
z
" transform="scale(0.015625)"/>
       </defs>
       <use xlink:href="#CMR17-32" transform="scale(0.996264)"/>
       <use xlink:href="#CMR17-30" transform="translate(45.690477 0) scale(0.996264)"/>
       <use xlink:href="#CMR17-31" transform="translate(91.380954 0) scale(0.996264)"/>
       <use xlink:href="#CMR17-38" transform="translate(137.071431 0) scale(0.996264)"/>
      </g>
     </g>
    </g>
    <g id="xtick_5">
     <g id="line2d_5">
      <path d="M 679.773166 632.140349 
L 679.773166 3.00024 
" clip-path="url(#p422b14e27f)" style="fill: none; stroke: #cccccc; stroke-opacity: 0.35; stroke-width: 0.8; stroke-linecap: round"/>
     </g>
     <g id="text_5">
      <!-- $\mathdefault{2019}$ -->
      <g transform="translate(669.810495 642.558847) scale(0.1 -0.1)">
       <defs>
        <path id="CMR17-39" d="M 2253 1864 
C 2253 464 1670 31 1190 31 
C 1043 31 685 31 538 294 
C 704 268 826 357 826 518 
C 826 692 685 749 595 749 
C 538 749 365 723 365 506 
C 365 71 742 -128 1203 -128 
C 1939 -128 2688 674 2688 2073 
C 2688 3817 1971 4179 1485 4179 
C 851 4179 243 3628 243 2778 
C 243 1991 762 1408 1414 1408 
C 1952 1408 2189 1903 2253 2112 
L 2253 1864 
z
M 1427 1510 
C 1254 1510 1011 1542 813 1922 
C 678 2169 678 2461 678 2771 
C 678 3146 678 3405 858 3684 
C 947 3817 1114 4032 1485 4032 
C 2240 4032 2240 2885 2240 2632 
C 2240 2182 2035 1510 1427 1510 
z
" transform="scale(0.015625)"/>
       </defs>
       <use xlink:href="#CMR17-32" transform="scale(0.996264)"/>
       <use xlink:href="#CMR17-30" transform="translate(45.690477 0) scale(0.996264)"/>
       <use xlink:href="#CMR17-31" transform="translate(91.380954 0) scale(0.996264)"/>
       <use xlink:href="#CMR17-39" transform="translate(137.071431 0) scale(0.996264)"/>
      </g>
     </g>
    </g>
    <g id="xtick_6">
     <g id="line2d_6">
      <path d="M 823.254299 632.140349 
L 823.254299 3.00024 
" clip-path="url(#p422b14e27f)" style="fill: none; stroke: #cccccc; stroke-opacity: 0.35; stroke-width: 0.8; stroke-linecap: round"/>
     </g>
     <g id="text_6">
      <!-- $\mathdefault{2020}$ -->
      <g transform="translate(813.291629 642.558847) scale(0.1 -0.1)">
       <use xlink:href="#CMR17-32" transform="scale(0.996264)"/>
       <use xlink:href="#CMR17-30" transform="translate(45.690477 0) scale(0.996264)"/>
       <use xlink:href="#CMR17-32" transform="translate(91.380954 0) scale(0.996264)"/>
       <use xlink:href="#CMR17-30" transform="translate(137.071431 0) scale(0.996264)"/>
      </g>
     </g>
    </g>
    <g id="xtick_7">
     <g id="line2d_7">
      <path d="M 967.128531 632.140349 
L 967.128531 3.00024 
" clip-path="url(#p422b14e27f)" style="fill: none; stroke: #cccccc; stroke-opacity: 0.35; stroke-width: 0.8; stroke-linecap: round"/>
     </g>
     <g id="text_7">
      <!-- $\mathdefault{2021}$ -->
      <g transform="translate(957.165861 642.558847) scale(0.1 -0.1)">
       <use xlink:href="#CMR17-32" transform="scale(0.996264)"/>
       <use xlink:href="#CMR17-30" transform="translate(45.690477 0) scale(0.996264)"/>
       <use xlink:href="#CMR17-32" transform="translate(91.380954 0) scale(0.996264)"/>
       <use xlink:href="#CMR17-31" transform="translate(137.071431 0) scale(0.996264)"/>
      </g>
     </g>
    </g>
    <g id="xtick_8">
     <g id="line2d_8">
      <path d="M 1110.609664 632.140349 
L 1110.609664 3.00024 
" clip-path="url(#p422b14e27f)" style="fill: none; stroke: #cccccc; stroke-opacity: 0.35; stroke-width: 0.8; stroke-linecap: round"/>
     </g>
     <g id="text_8">
      <!-- $\mathdefault{2022}$ -->
      <g transform="translate(1100.646994 642.558847) scale(0.1 -0.1)">
       <use xlink:href="#CMR17-32" transform="scale(0.996264)"/>
       <use xlink:href="#CMR17-30" transform="translate(45.690477 0) scale(0.996264)"/>
       <use xlink:href="#CMR17-32" transform="translate(91.380954 0) scale(0.996264)"/>
       <use xlink:href="#CMR17-32" transform="translate(137.071431 0) scale(0.996264)"/>
      </g>
     </g>
    </g>
    <g id="xtick_9">
     <g id="line2d_9">
      <path d="M 1254.090798 632.140349 
L 1254.090798 3.00024 
" clip-path="url(#p422b14e27f)" style="fill: none; stroke: #cccccc; stroke-opacity: 0.35; stroke-width: 0.8; stroke-linecap: round"/>
     </g>
     <g id="text_9">
      <!-- $\mathdefault{2023}$ -->
      <g transform="translate(1244.128127 642.558847) scale(0.1 -0.1)">
       <defs>
        <path id="CMR17-33" d="M 1414 2157 
C 1984 2157 2234 1662 2234 1090 
C 2234 320 1824 25 1453 25 
C 1114 25 563 194 390 693 
C 422 680 454 680 486 680 
C 640 680 755 782 755 948 
C 755 1133 614 1216 486 1216 
C 378 1216 211 1165 211 926 
C 211 335 787 -128 1466 -128 
C 2176 -128 2720 430 2720 1085 
C 2720 1707 2208 2157 1600 2227 
C 2086 2328 2554 2756 2554 3329 
C 2554 3820 2048 4179 1472 4179 
C 890 4179 378 3829 378 3329 
C 378 3110 544 3072 627 3072 
C 762 3072 877 3155 877 3321 
C 877 3486 762 3569 627 3569 
C 602 3569 570 3569 544 3557 
C 730 3959 1235 4032 1459 4032 
C 1683 4032 2106 3925 2106 3320 
C 2106 3143 2080 2828 1862 2550 
C 1670 2304 1453 2304 1242 2284 
C 1210 2284 1062 2269 1037 2269 
C 992 2263 966 2257 966 2208 
C 966 2163 973 2157 1101 2157 
L 1414 2157 
z
" transform="scale(0.015625)"/>
       </defs>
       <use xlink:href="#CMR17-32" transform="scale(0.996264)"/>
       <use xlink:href="#CMR17-30" transform="translate(45.690477 0) scale(0.996264)"/>
       <use xlink:href="#CMR17-32" transform="translate(91.380954 0) scale(0.996264)"/>
       <use xlink:href="#CMR17-33" transform="translate(137.071431 0) scale(0.996264)"/>
      </g>
     </g>
    </g>
    <g id="xtick_10">
     <g id="line2d_10">
      <path d="M 1397.571931 632.140349 
L 1397.571931 3.00024 
" clip-path="url(#p422b14e27f)" style="fill: none; stroke: #cccccc; stroke-opacity: 0.35; stroke-width: 0.8; stroke-linecap: round"/>
     </g>
     <g id="text_10">
      <!-- $\mathdefault{2024}$ -->
      <g transform="translate(1387.60926 642.558847) scale(0.1 -0.1)">
       <defs>
        <path id="CMR17-34" d="M 2150 4122 
C 2150 4256 2144 4256 2029 4256 
L 128 1254 
L 128 1088 
L 1779 1088 
L 1779 457 
C 1779 224 1766 160 1318 160 
L 1197 160 
L 1197 0 
C 1402 0 1747 0 1965 0 
C 2182 0 2528 0 2733 0 
L 2733 160 
L 2611 160 
C 2163 160 2150 224 2150 457 
L 2150 1088 
L 2803 1088 
L 2803 1254 
L 2150 1254 
L 2150 4122 
z
M 1798 3703 
L 1798 1254 
L 256 1254 
L 1798 3703 
z
" transform="scale(0.015625)"/>
       </defs>
       <use xlink:href="#CMR17-32" transform="scale(0.996264)"/>
       <use xlink:href="#CMR17-30" transform="translate(45.690477 0) scale(0.996264)"/>
       <use xlink:href="#CMR17-32" transform="translate(91.380954 0) scale(0.996264)"/>
       <use xlink:href="#CMR17-34" transform="translate(137.071431 0) scale(0.996264)"/>
      </g>
     </g>
    </g>
    <g id="text_11">
     <!-- Date -->
     <g style="fill: #696969" transform="translate(729.077259 655.414524) scale(0.1 -0.1)">
      <defs>
       <path id="CMR17-44" d="M 333 4352 
L 333 4186 
C 774 4186 845 4186 845 3900 
L 845 452 
C 845 166 774 166 333 166 
L 333 0 
L 2368 0 
C 3398 0 4224 943 4224 2141 
C 4224 3346 3411 4352 2368 4352 
L 333 4352 
z
M 1523 166 
C 1267 166 1254 197 1254 414 
L 1254 3938 
C 1254 4155 1267 4186 1523 4186 
L 2240 4186 
C 2771 4186 3750 3874 3750 2141 
C 3750 1242 3488 879 3366 707 
C 3213 510 2848 166 2240 166 
L 1523 166 
z
" transform="scale(0.015625)"/>
       <path id="CMR17-61" d="M 2304 1653 
C 2304 2072 2304 2294 2035 2543 
C 1798 2752 1523 2816 1306 2816 
C 800 2816 435 2407 435 1971 
C 435 1728 627 1728 666 1728 
C 749 1728 896 1778 896 1954 
C 896 2112 774 2181 666 2181 
C 640 2181 608 2174 589 2168 
C 723 2592 1069 2714 1293 2714 
C 1613 2714 1965 2429 1965 1885 
L 1965 1600 
C 1587 1600 1133 1549 774 1357 
C 371 1133 256 813 256 570 
C 256 77 832 -64 1171 -64 
C 1523 -64 1850 139 1990 511 
C 2003 233 2182 -18 2464 -18 
C 2598 -18 2938 70 2938 567 
L 2938 920 
L 2822 920 
L 2822 562 
C 2822 178 2650 128 2566 128 
C 2304 128 2304 458 2304 738 
L 2304 1653 
z
M 1965 870 
C 1965 317 1568 38 1216 38 
C 896 38 646 275 646 570 
C 646 761 730 1100 1101 1305 
C 1408 1478 1760 1504 1965 1504 
L 1965 870 
z
" transform="scale(0.015625)"/>
       <path id="CMR17-74" d="M 966 2560 
L 1862 2560 
L 1862 2725 
L 966 2725 
L 966 3904 
L 851 3904 
C 838 3245 614 2668 70 2668 
L 70 2560 
L 627 2560 
L 627 771 
C 627 650 627 -64 1370 -64 
C 1747 -64 1965 306 1965 777 
L 1965 1140 
L 1850 1140 
L 1850 783 
C 1850 344 1677 51 1408 51 
C 1222 51 966 178 966 758 
L 966 2560 
z
" transform="scale(0.015625)"/>
       <path id="CMR17-65" d="M 2438 1472 
C 2464 1498 2464 1511 2464 1576 
C 2464 2238 2118 2816 1389 2816 
C 710 2816 173 2169 173 1383 
C 173 551 781 -64 1459 -64 
C 2176 -64 2458 607 2458 740 
C 2458 784 2419 784 2406 784 
C 2362 784 2355 771 2330 696 
C 2189 265 1837 51 1504 51 
C 1229 51 954 203 781 480 
C 582 803 582 1176 582 1472 
L 2438 1472 
z
M 589 1568 
C 634 2505 1126 2714 1382 2714 
C 1818 2714 2112 2297 2118 1568 
L 589 1568 
z
" transform="scale(0.015625)"/>
      </defs>
      <use xlink:href="#CMR17-44" transform="scale(0.996264)"/>
      <use xlink:href="#CMR17-61" transform="translate(70.393556 0) scale(0.996264)"/>
      <use xlink:href="#CMR17-74" transform="translate(116.084033 0) scale(0.996264)"/>
      <use xlink:href="#CMR17-65" transform="translate(151.364801 0) scale(0.996264)"/>
     </g>
    </g>
   </g>
   <g id="matplotlib.axis_2">
    <g id="ytick_1">
     <g id="line2d_11">
      <path d="M 42.048666 601.037102 
L 1436.99976 601.037102 
" clip-path="url(#p422b14e27f)" style="fill: none; stroke: #cccccc; stroke-opacity: 0.35; stroke-width: 0.8; stroke-linecap: round"/>
     </g>
     <g id="text_12">
      <!-- $\mathdefault{−250}$ -->
      <g transform="translate(15.855917 604.496351) scale(0.1 -0.1)">
       <defs>
        <path id="CMSY10-0" d="M 4218 1472 
C 4326 1472 4442 1472 4442 1600 
C 4442 1728 4326 1728 4218 1728 
L 755 1728 
C 646 1728 531 1728 531 1600 
C 531 1472 646 1472 755 1472 
L 4218 1472 
z
" transform="scale(0.015625)"/>
       </defs>
       <use xlink:href="#CMSY10-0" transform="scale(0.996264)"/>
       <use xlink:href="#CMR17-32" transform="translate(77.487468 0) scale(0.996264)"/>
       <use xlink:href="#CMR17-35" transform="translate(123.177945 0) scale(0.996264)"/>
       <use xlink:href="#CMR17-30" transform="translate(168.868422 0) scale(0.996264)"/>
      </g>
     </g>
    </g>
    <g id="ytick_2">
     <g id="line2d_12">
      <path d="M 42.048666 524.59316 
L 1436.99976 524.59316 
" clip-path="url(#p422b14e27f)" style="fill: none; stroke: #cccccc; stroke-opacity: 0.35; stroke-width: 0.8; stroke-linecap: round"/>
     </g>
     <g id="text_13">
      <!-- $\mathdefault{−200}$ -->
      <g transform="translate(15.855917 528.052409) scale(0.1 -0.1)">
       <use xlink:href="#CMSY10-0" transform="scale(0.996264)"/>
       <use xlink:href="#CMR17-32" transform="translate(77.487468 0) scale(0.996264)"/>
       <use xlink:href="#CMR17-30" transform="translate(123.177945 0) scale(0.996264)"/>
       <use xlink:href="#CMR17-30" transform="translate(168.868422 0) scale(0.996264)"/>
      </g>
     </g>
    </g>
    <g id="ytick_3">
     <g id="line2d_13">
      <path d="M 42.048666 448.149218 
L 1436.99976 448.149218 
" clip-path="url(#p422b14e27f)" style="fill: none; stroke: #cccccc; stroke-opacity: 0.35; stroke-width: 0.8; stroke-linecap: round"/>
     </g>
     <g id="text_14">
      <!-- $\mathdefault{−150}$ -->
      <g transform="translate(15.855917 451.608467) scale(0.1 -0.1)">
       <use xlink:href="#CMSY10-0" transform="scale(0.996264)"/>
       <use xlink:href="#CMR17-31" transform="translate(77.487468 0) scale(0.996264)"/>
       <use xlink:href="#CMR17-35" transform="translate(123.177945 0) scale(0.996264)"/>
       <use xlink:href="#CMR17-30" transform="translate(168.868422 0) scale(0.996264)"/>
      </g>
     </g>
    </g>
    <g id="ytick_4">
     <g id="line2d_14">
      <path d="M 42.048666 371.705276 
L 1436.99976 371.705276 
" clip-path="url(#p422b14e27f)" style="fill: none; stroke: #cccccc; stroke-opacity: 0.35; stroke-width: 0.8; stroke-linecap: round"/>
     </g>
     <g id="text_15">
      <!-- $\mathdefault{−100}$ -->
      <g transform="translate(15.855917 375.164526) scale(0.1 -0.1)">
       <use xlink:href="#CMSY10-0" transform="scale(0.996264)"/>
       <use xlink:href="#CMR17-31" transform="translate(77.487468 0) scale(0.996264)"/>
       <use xlink:href="#CMR17-30" transform="translate(123.177945 0) scale(0.996264)"/>
       <use xlink:href="#CMR17-30" transform="translate(168.868422 0) scale(0.996264)"/>
      </g>
     </g>
    </g>
    <g id="ytick_5">
     <g id="line2d_15">
      <path d="M 42.048666 295.261335 
L 1436.99976 295.261335 
" clip-path="url(#p422b14e27f)" style="fill: none; stroke: #cccccc; stroke-opacity: 0.35; stroke-width: 0.8; stroke-linecap: round"/>
     </g>
     <g id="text_16">
      <!-- $\mathdefault{−50}$ -->
      <g transform="translate(20.837252 298.720584) scale(0.1 -0.1)">
       <use xlink:href="#CMSY10-0" transform="scale(0.996264)"/>
       <use xlink:href="#CMR17-35" transform="translate(77.487468 0) scale(0.996264)"/>
       <use xlink:href="#CMR17-30" transform="translate(123.177945 0) scale(0.996264)"/>
      </g>
     </g>
    </g>
    <g id="ytick_6">
     <g id="line2d_16">
      <path d="M 42.048666 218.817393 
L 1436.99976 218.817393 
" clip-path="url(#p422b14e27f)" style="fill: none; stroke: #cccccc; stroke-opacity: 0.35; stroke-width: 0.8; stroke-linecap: round"/>
     </g>
     <g id="text_17">
      <!-- $\mathdefault{0}$ -->
      <g transform="translate(33.567331 222.276642) scale(0.1 -0.1)">
       <use xlink:href="#CMR17-30" transform="scale(0.996264)"/>
      </g>
     </g>
    </g>
    <g id="ytick_7">
     <g id="line2d_17">
      <path d="M 42.048666 142.373451 
L 1436.99976 142.373451 
" clip-path="url(#p422b14e27f)" style="fill: none; stroke: #cccccc; stroke-opacity: 0.35; stroke-width: 0.8; stroke-linecap: round"/>
     </g>
     <g id="text_18">
      <!-- $\mathdefault{50}$ -->
      <g transform="translate(28.585996 145.8327) scale(0.1 -0.1)">
       <use xlink:href="#CMR17-35" transform="scale(0.996264)"/>
       <use xlink:href="#CMR17-30" transform="translate(45.690477 0) scale(0.996264)"/>
      </g>
     </g>
    </g>
    <g id="ytick_8">
     <g id="line2d_18">
      <path d="M 42.048666 65.92951 
L 1436.99976 65.92951 
" clip-path="url(#p422b14e27f)" style="fill: none; stroke: #cccccc; stroke-opacity: 0.35; stroke-width: 0.8; stroke-linecap: round"/>
     </g>
     <g id="text_19">
      <!-- $\mathdefault{100}$ -->
      <g transform="translate(23.60466 69.388759) scale(0.1 -0.1)">
       <use xlink:href="#CMR17-31" transform="scale(0.996264)"/>
       <use xlink:href="#CMR17-30" transform="translate(45.690477 0) scale(0.996264)"/>
       <use xlink:href="#CMR17-30" transform="translate(91.380954 0) scale(0.996264)"/>
      </g>
     </g>
    </g>
    <g id="text_20">
     <!-- Risk -->
     <g style="fill: #696969" transform="translate(9.918738 327.2147) rotate(-90) scale(0.1 -0.1)">
      <defs>
       <path id="CMR17-52" d="M 2509 2146 
C 3117 2268 3629 2676 3629 3186 
C 3629 3785 2950 4326 2054 4326 
L 333 4326 
L 333 4160 
C 774 4160 845 4160 845 3873 
L 845 415 
C 845 128 774 128 333 128 
L 333 -26 
C 518 -26 851 -26 1050 -26 
C 1248 -26 1581 -26 1766 -26 
L 1766 128 
C 1325 128 1254 128 1254 417 
L 1254 2112 
L 2003 2112 
C 2368 2112 2573 1964 2662 1881 
C 2918 1632 2918 1459 2918 1024 
C 2918 595 2918 377 3110 160 
C 3354 -102 3680 -128 3821 -128 
C 4294 -128 4365 396 4365 503 
C 4365 540 4365 585 4307 585 
C 4256 585 4250 547 4250 522 
C 4218 112 4032 -26 3834 -26 
C 3482 -26 3443 375 3405 764 
C 3386 898 3373 993 3360 1133 
C 3322 1452 3270 1917 2509 2146 
z
M 1984 2214 
L 1254 2214 
L 1254 3913 
C 1254 4129 1267 4160 1523 4160 
L 1990 4160 
C 2522 4160 3142 3977 3142 3190 
C 3142 2372 2464 2214 1984 2214 
z
" transform="scale(0.015625)"/>
       <path id="CMR17-69" d="M 992 3909 
C 992 4049 877 4170 730 4170 
C 589 4170 467 4056 467 3909 
C 467 3769 582 3648 730 3648 
C 870 3648 992 3763 992 3909 
z
M 243 2706 
L 243 2541 
C 602 2541 653 2502 653 2197 
L 653 427 
C 653 184 627 153 218 153 
L 218 -13 
C 371 0 646 0 806 0 
C 960 0 1222 0 1370 -13 
L 1370 153 
C 992 153 979 191 979 420 
L 979 2776 
L 243 2706 
z
" transform="scale(0.015625)"/>
       <path id="CMR17-73" d="M 1978 2697 
C 1978 2813 1971 2819 1933 2819 
C 1907 2819 1901 2813 1824 2717 
C 1805 2691 1747 2626 1728 2601 
C 1523 2819 1235 2819 1126 2819 
C 416 2819 160 2447 160 2076 
C 160 1498 813 1365 998 1325 
C 1402 1243 1542 1217 1677 1101 
C 1760 1025 1901 884 1901 654 
C 1901 384 1747 38 1158 38 
C 602 38 403 460 288 1021 
C 269 1110 269 1117 218 1117 
C 166 1117 160 1110 160 983 
L 160 63 
C 160 -51 166 -58 205 -58 
C 237 -58 243 -51 275 0 
C 314 57 410 211 448 276 
C 576 103 800 -64 1158 -64 
C 1792 -64 2131 283 2131 784 
C 2131 1112 1958 1285 1875 1362 
C 1683 1561 1459 1606 1190 1657 
C 838 1735 390 1825 390 2217 
C 390 2383 480 2737 1126 2737 
C 1811 2737 1850 2094 1862 1888 
C 1869 1856 1901 1849 1920 1849 
C 1978 1849 1978 1869 1978 1978 
L 1978 2697 
z
" transform="scale(0.015625)"/>
       <path id="CMR17-6b" d="M 1670 1673 
C 1664 1686 1632 1724 1632 1743 
C 1632 1756 2086 2171 2144 2222 
C 2509 2528 2739 2560 2906 2560 
L 2906 2733 
C 2867 2733 2854 2733 2848 2720 
L 2534 2720 
C 2355 2720 2080 2720 1907 2733 
L 1907 2566 
C 1997 2559 2061 2508 2061 2419 
C 2061 2291 1933 2170 1926 2170 
L 960 1289 
L 960 4396 
L 198 4326 
L 198 4160 
C 576 4160 634 4122 634 3817 
L 634 426 
C 634 184 608 153 198 153 
L 198 -13 
C 352 0 634 0 794 0 
C 954 0 1235 0 1389 -13 
L 1389 153 
C 979 153 954 178 954 428 
L 954 1130 
L 1395 1532 
L 2042 574 
C 2118 459 2182 369 2182 286 
C 2182 172 2067 153 1990 153 
L 1990 -13 
C 2144 0 2419 0 2579 0 
C 2694 0 2931 0 3040 0 
L 3040 153 
C 2739 153 2669 210 2477 491 
L 1670 1673 
z
" transform="scale(0.015625)"/>
      </defs>
      <use xlink:href="#CMR17-52" transform="scale(0.996264)"/>
      <use xlink:href="#CMR17-69" transform="translate(67.791102 0) scale(0.996264)"/>
      <use xlink:href="#CMR17-73" transform="translate(92.66216 0) scale(0.996264)"/>
      <use xlink:href="#CMR17-6b" transform="translate(128.463498 0) scale(0.996264)"/>
     </g>
    </g>
   </g>
   <g id="line2d_19">
    <path d="M 105.455534 203.796619 
L 117.641603 200.587163 
L 128.648375 178.269337 
L 140.834444 194.239232 
L 152.627413 229.806247 
L 164.813482 224.615737 
L 176.606452 241.061047 
L 188.792521 270.26659 
L 200.97859 253.587706 
L 212.77156 292.522785 
L 224.957629 249.0306 
L 236.750598 267.141489 
L 248.936667 174.568249 
L 261.122736 161.174154 
L 272.522607 140.4973 
L 284.708676 31.597518 
L 296.501646 151.186941 
L 308.687715 216.570831 
L 320.480684 254.842353 
L 332.666753 169.466866 
L 344.852822 200.827578 
L 356.645792 275.605708 
L 368.831861 242.40756 
L 380.624831 158.11203 
L 392.810899 282.045311 
L 404.996968 199.450712 
L 416.00374 241.603562 
L 428.189809 282.337572 
L 439.982779 250.971022 
L 452.168848 251.670517 
L 463.961818 277.768041 
L 476.147886 249.659448 
L 488.333955 281.437516 
L 500.126925 203.751236 
L 512.312994 286.295186 
L 524.105964 279.954077 
L 536.292033 296.929576 
L 548.478102 227.290917 
L 559.484873 181.802679 
L 571.670942 171.031976 
L 583.463912 168.34489 
L 595.649981 184.420606 
L 607.442951 201.728548 
L 619.62902 202.23539 
L 631.815088 213.250144 
L 643.608058 200.219652 
L 655.794127 229.257033 
L 667.587097 215.051369 
L 679.773166 230.840278 
L 691.959235 244.869141 
L 702.966007 248.318662 
L 715.152075 249.05205 
L 726.945045 257.62441 
L 739.131114 263.449679 
L 750.924084 226.785552 
L 763.110153 244.928359 
L 775.296222 216.832245 
L 787.089191 222.556697 
L 799.27526 214.318058 
L 811.06823 203.511502 
L 823.254299 191.271275 
L 835.440368 205.376093 
L 846.840239 223.972485 
L 859.026308 274.482212 
L 870.819277 300.47693 
L 883.005346 279.250723 
L 894.798316 275.783963 
L 906.984385 272.15723 
L 919.170454 269.16998 
L 930.963424 275.486741 
L 943.149493 270.683028 
L 954.942462 262.078197 
L 967.128531 204.478969 
L 979.3146 212.211958 
L 990.321372 212.293496 
L 1002.507441 212.003465 
L 1014.300411 198.520889 
L 1026.486479 218.907825 
L 1038.279449 175.061495 
L 1050.465518 145.929132 
L 1062.651587 186.80281 
L 1074.444557 205.477141 
L 1086.630626 215.133893 
L 1098.423596 174.543718 
L 1110.609664 139.837499 
L 1122.795733 165.289974 
L 1133.802505 187.160931 
L 1145.988574 224.226586 
L 1157.781544 208.727617 
L 1169.967613 224.001698 
L 1181.760583 234.943537 
L 1193.946651 219.962601 
L 1206.13272 221.360471 
L 1217.92569 255.990314 
L 1230.111759 256.344427 
L 1241.904729 243.6129 
L 1254.090798 273.73894 
L 1266.276866 271.585194 
L 1277.283638 248.95071 
L 1289.469707 303.44603 
L 1301.262677 285.912062 
L 1313.448746 253.045669 
L 1325.241716 212.335476 
L 1337.427785 204.036097 
L 1349.613853 272.6145 
L 1361.406823 297.849918 
L 1373.592892 603.543071 
" clip-path="url(#p422b14e27f)" style="fill: none; stroke: #006e64; stroke-width: 1.5; stroke-linecap: round"/>
   </g>
   <g id="line2d_20">
    <path d="M 117.641603 181.739124 
L 128.648375 201.928277 
L 140.834444 200.022821 
L 152.627413 200.514012 
L 164.813482 206.65071 
L 176.606452 207.566288 
L 188.792521 209.965454 
L 200.97859 213.275336 
L 212.77156 216.313061 
L 224.957629 218.206006 
L 236.750598 218.033874 
L 248.936667 217.799343 
L 261.122736 218.912895 
L 272.522607 219.682517 
L 284.708676 219.83292 
L 296.501646 220.03801 
L 308.687715 220.144865 
L 320.480684 219.705863 
L 332.666753 220.645447 
L 344.852822 219.61938 
L 356.645792 218.349426 
L 368.831861 216.590447 
L 380.624831 215.724323 
L 392.810899 217.993685 
L 404.996968 215.973574 
L 416.00374 216.399379 
L 428.189809 211.445463 
L 439.982779 214.539049 
L 452.168848 215.276183 
L 463.961818 215.956001 
L 476.147886 219.560912 
L 488.333955 186.988861 
L 500.126925 191.755726 
L 512.312994 182.163919 
L 524.105964 193.773223 
L 536.292033 196.053923 
L 548.478102 192.772294 
L 559.484873 197.802714 
L 571.670942 162.418123 
L 583.463912 177.734996 
L 595.649981 184.09688 
L 607.442951 171.089723 
L 619.62902 188.621953 
L 631.815088 222.552619 
L 643.608058 258.994365 
L 655.794127 235.275096 
L 667.587097 272.538935 
L 679.773166 286.413457 
L 691.959235 279.426673 
L 702.966007 267.232226 
L 715.152075 323.470005 
L 726.945045 342.551657 
L 739.131114 354.502205 
L 750.924084 238.469521 
L 763.110153 230.158344 
L 775.296222 419.734535 
L 787.089191 283.273534 
L 799.27526 260.791196 
L 811.06823 254.811053 
L 823.254299 242.003386 
L 835.440368 243.892111 
L 846.840239 222.352402 
L 859.026308 198.845685 
L 870.819277 187.743846 
L 883.005346 186.225889 
L 894.798316 188.134221 
L 906.984385 200.441257 
L 919.170454 207.100485 
L 930.963424 222.539415 
L 943.149493 241.486816 
L 954.942462 270.673384 
L 967.128531 259.794414 
L 979.3146 257.116704 
L 990.321372 215.311909 
L 1002.507441 194.80896 
L 1014.300411 198.529757 
L 1026.486479 213.021862 
L 1038.279449 225.123354 
L 1050.465518 228.898837 
L 1062.651587 231.889173 
L 1074.444557 210.773027 
L 1086.630626 202.903161 
L 1098.423596 204.374654 
L 1110.609664 206.841853 
L 1122.795733 191.429046 
L 1133.802505 205.731626 
L 1145.988574 198.863816 
L 1157.781544 196.241533 
L 1169.967613 192.037355 
L 1181.760583 186.659481 
L 1193.946651 176.486172 
L 1206.13272 200.463149 
L 1217.92569 202.377735 
L 1230.111759 217.461197 
L 1241.904729 211.282276 
L 1254.090798 248.018624 
L 1266.276866 237.59451 
L 1277.283638 324.334676 
L 1289.469707 275.121915 
L 1301.262677 332.093663 
L 1313.448746 346.106209 
L 1325.241716 365.487962 
L 1337.427785 373.676794 
L 1349.613853 345.965933 
L 1361.406823 373.344594 
L 1373.592892 172.528281 
" clip-path="url(#p422b14e27f)" style="fill: none; stroke: #734848; stroke-width: 1.5; stroke-linecap: round"/>
   </g>
   <g id="line2d_21"/>
   <g id="line2d_22"/>
   <g id="patch_3">
    <path d="M 42.048666 632.140349 
L 42.048666 3.00024 
" style="fill: none; stroke: #808080; stroke-width: 0.8; stroke-linejoin: miter; stroke-linecap: square"/>
   </g>
   <g id="patch_4">
    <path d="M 42.048666 632.140349 
L 1436.99976 632.140349 
" style="fill: none; stroke: #808080; stroke-width: 0.8; stroke-linejoin: miter; stroke-linecap: square"/>
   </g>
   <g id="legend_1">
    <g id="patch_5">
     <path d="M 684.580207 716.991538 
L 794.468219 716.991538 
Q 796.468219 716.991538 796.468219 714.991538 
L 796.468219 702.054359 
Q 796.468219 700.054359 794.468219 700.054359 
L 684.580207 700.054359 
Q 682.580207 700.054359 682.580207 702.054359 
L 682.580207 714.991538 
Q 682.580207 716.991538 684.580207 716.991538 
z
" style="fill: #ffffff; opacity: 0.8"/>
    </g>
    <g id="line2d_23">
     <path d="M 686.580207 707.554359 
L 696.580207 707.554359 
L 706.580207 707.554359 
" style="fill: none; stroke: #006e64; stroke-width: 1.5; stroke-linecap: round"/>
    </g>
    <g id="text_21">
     <!-- 505 -->
     <g style="fill: #262626" transform="translate(714.580207 711.054359) scale(0.1 -0.1)">
      <use xlink:href="#CMR17-35" transform="scale(0.996264)"/>
      <use xlink:href="#CMR17-30" transform="translate(45.690477 0) scale(0.996264)"/>
      <use xlink:href="#CMR17-35" transform="translate(91.380954 0) scale(0.996264)"/>
     </g>
    </g>
    <g id="line2d_24">
     <path d="M 749.524213 707.554359 
L 759.524213 707.554359 
L 769.524213 707.554359 
" style="fill: none; stroke: #734848; stroke-width: 1.5; stroke-linecap: round"/>
    </g>
    <g id="text_22">
     <!-- 515 -->
     <g style="fill: #262626" transform="translate(777.524213 711.054359) scale(0.1 -0.1)">
      <use xlink:href="#CMR17-35" transform="scale(0.996264)"/>
      <use xlink:href="#CMR17-31" transform="translate(45.690477 0) scale(0.996264)"/>
      <use xlink:href="#CMR17-35" transform="translate(91.380954 0) scale(0.996264)"/>
     </g>
    </g>
   </g>
  </g>
 </g>
 <defs>
  <clipPath id="p422b14e27f">
   <rect x="42.048666" y="3.00024" width="1394.951094" height="629.140109"/>
  </clipPath>
 </defs>
</svg>
