<?xml version="1.0" encoding="utf-8" standalone="no"?>
<!DOCTYPE svg PUBLIC "-//W3C//DTD SVG 1.1//EN"
  "http://www.w3.org/Graphics/SVG/1.1/DTD/svg11.dtd">
<svg xmlns:xlink="http://www.w3.org/1999/xlink" width="1440pt" height="720pt" viewBox="0 0 1440 720" xmlns="http://www.w3.org/2000/svg" version="1.1">
 <metadata>
  <rdf:RDF xmlns:dc="http://purl.org/dc/elements/1.1/" xmlns:cc="http://creativecommons.org/ns#" xmlns:rdf="http://www.w3.org/1999/02/22-rdf-syntax-ns#">
   <cc:Work>
    <dc:type rdf:resource="http://purl.org/dc/dcmitype/StillImage"/>
    <dc:date>2023-11-08T08:34:32.727765</dc:date>
    <dc:format>image/svg+xml</dc:format>
    <dc:creator>
     <cc:Agent>
      <dc:title>Matplotlib v3.8.0, https://matplotlib.org/</dc:title>
     </cc:Agent>
    </dc:creator>
   </cc:Work>
  </rdf:RDF>
 </metadata>
 <defs>
  <style type="text/css">*{stroke-linejoin: round; stroke-linecap: butt}</style>
 </defs>
 <g id="figure_1">
  <g id="patch_1">
   <path d="M 0 720 
L 1440 720 
L 1440 0 
L 0 0 
z
" style="fill: #ffffff"/>
  </g>
  <g id="axes_1">
   <g id="patch_2">
    <path d="M 55.026489 299.252507 
L 1403.951032 299.252507 
L 1403.951032 30.255883 
L 55.026489 30.255883 
z
" style="fill: #ffffff"/>
   </g>
   <g id="matplotlib.axis_1">
    <g id="xtick_1">
     <g id="line2d_1">
      <path d="M 116.341241 299.252507 
L 116.341241 30.255883 
" clip-path="url(#p451a66b95b)" style="fill: none; stroke: #cccccc; stroke-width: 0.8; stroke-linecap: round"/>
     </g>
     <g id="text_1">
      <!-- $\mathdefault{2021{-}07}$ -->
      <g transform="translate(81.178211 316.589503) scale(0.2 -0.2)">
       <defs>
        <path id="CMR17-32" d="M 2669 989 
L 2554 989 
C 2490 536 2438 459 2413 420 
C 2381 369 1920 369 1830 369 
L 602 369 
C 832 619 1280 1072 1824 1597 
C 2214 1967 2669 2402 2669 3035 
C 2669 3790 2067 4224 1395 4224 
C 691 4224 262 3604 262 3030 
C 262 2780 448 2748 525 2748 
C 589 2748 781 2787 781 3010 
C 781 3207 614 3264 525 3264 
C 486 3264 448 3258 422 3245 
C 544 3790 915 4058 1306 4058 
C 1862 4058 2227 3617 2227 3035 
C 2227 2479 1901 2000 1536 1584 
L 262 146 
L 262 0 
L 2515 0 
L 2669 989 
z
" transform="scale(0.015625)"/>
        <path id="CMR17-30" d="M 2688 2025 
C 2688 2416 2682 3080 2413 3591 
C 2176 4039 1798 4198 1466 4198 
C 1158 4198 768 4058 525 3597 
C 269 3118 243 2524 243 2025 
C 243 1661 250 1106 448 619 
C 723 -39 1216 -128 1466 -128 
C 1760 -128 2208 -7 2470 600 
C 2662 1042 2688 1559 2688 2025 
z
M 1466 -26 
C 1056 -26 813 325 723 812 
C 653 1188 653 1738 653 2096 
C 653 2588 653 2997 736 3387 
C 858 3929 1216 4096 1466 4096 
C 1728 4096 2067 3923 2189 3400 
C 2272 3036 2278 2607 2278 2096 
C 2278 1680 2278 1169 2202 792 
C 2067 95 1690 -26 1466 -26 
z
" transform="scale(0.015625)"/>
        <path id="CMR17-31" d="M 1702 4058 
C 1702 4192 1696 4192 1606 4192 
C 1357 3916 979 3827 621 3827 
C 602 3827 570 3827 563 3808 
C 557 3795 557 3782 557 3648 
C 755 3648 1088 3686 1344 3839 
L 1344 461 
C 1344 236 1331 160 781 160 
L 589 160 
L 589 0 
C 896 0 1216 0 1523 0 
C 1830 0 2150 0 2458 0 
L 2458 160 
L 2266 160 
C 1715 160 1702 230 1702 458 
L 1702 4058 
z
" transform="scale(0.015625)"/>
        <path id="CMSY10-0" d="M 4218 1472 
C 4326 1472 4442 1472 4442 1600 
C 4442 1728 4326 1728 4218 1728 
L 755 1728 
C 646 1728 531 1728 531 1600 
C 531 1472 646 1472 755 1472 
L 4218 1472 
z
" transform="scale(0.015625)"/>
        <path id="CMR17-37" d="M 2886 3941 
L 2886 4081 
L 1382 4081 
C 634 4081 621 4165 595 4288 
L 480 4288 
L 294 3094 
L 410 3094 
C 429 3215 474 3540 550 3661 
C 589 3712 1062 3712 1171 3712 
L 2579 3712 
L 1869 2661 
C 1395 1954 1069 999 1069 165 
C 1069 89 1069 -128 1299 -128 
C 1530 -128 1530 89 1530 171 
L 1530 465 
C 1530 1508 1709 2196 2003 2636 
L 2886 3941 
z
" transform="scale(0.015625)"/>
       </defs>
       <use xlink:href="#CMR17-32" transform="scale(0.996264)"/>
       <use xlink:href="#CMR17-30" transform="translate(45.690477 0) scale(0.996264)"/>
       <use xlink:href="#CMR17-32" transform="translate(91.380954 0) scale(0.996264)"/>
       <use xlink:href="#CMR17-31" transform="translate(137.071431 0) scale(0.996264)"/>
       <use xlink:href="#CMSY10-0" transform="translate(182.761908 0) scale(0.996264)"/>
       <use xlink:href="#CMR17-30" transform="translate(260.249376 0) scale(0.996264)"/>
       <use xlink:href="#CMR17-37" transform="translate(305.939853 0) scale(0.996264)"/>
      </g>
     </g>
    </g>
    <g id="xtick_2">
     <g id="line2d_2">
      <path d="M 247.427952 299.252507 
L 247.427952 30.255883 
" clip-path="url(#p451a66b95b)" style="fill: none; stroke: #cccccc; stroke-width: 0.8; stroke-linecap: round"/>
     </g>
     <g id="text_2">
      <!-- $\mathdefault{2021{-}09}$ -->
      <g transform="translate(212.264922 316.589503) scale(0.2 -0.2)">
       <defs>
        <path id="CMR17-39" d="M 2253 1864 
C 2253 464 1670 31 1190 31 
C 1043 31 685 31 538 294 
C 704 268 826 357 826 518 
C 826 692 685 749 595 749 
C 538 749 365 723 365 506 
C 365 71 742 -128 1203 -128 
C 1939 -128 2688 674 2688 2073 
C 2688 3817 1971 4179 1485 4179 
C 851 4179 243 3628 243 2778 
C 243 1991 762 1408 1414 1408 
C 1952 1408 2189 1903 2253 2112 
L 2253 1864 
z
M 1427 1510 
C 1254 1510 1011 1542 813 1922 
C 678 2169 678 2461 678 2771 
C 678 3146 678 3405 858 3684 
C 947 3817 1114 4032 1485 4032 
C 2240 4032 2240 2885 2240 2632 
C 2240 2182 2035 1510 1427 1510 
z
" transform="scale(0.015625)"/>
       </defs>
       <use xlink:href="#CMR17-32" transform="scale(0.996264)"/>
       <use xlink:href="#CMR17-30" transform="translate(45.690477 0) scale(0.996264)"/>
       <use xlink:href="#CMR17-32" transform="translate(91.380954 0) scale(0.996264)"/>
       <use xlink:href="#CMR17-31" transform="translate(137.071431 0) scale(0.996264)"/>
       <use xlink:href="#CMSY10-0" transform="translate(182.761908 0) scale(0.996264)"/>
       <use xlink:href="#CMR17-30" transform="translate(260.249376 0) scale(0.996264)"/>
       <use xlink:href="#CMR17-39" transform="translate(305.939853 0) scale(0.996264)"/>
      </g>
     </g>
    </g>
    <g id="xtick_3">
     <g id="line2d_3">
      <path d="M 376.400361 299.252507 
L 376.400361 30.255883 
" clip-path="url(#p451a66b95b)" style="fill: none; stroke: #cccccc; stroke-width: 0.8; stroke-linecap: round"/>
     </g>
     <g id="text_3">
      <!-- $\mathdefault{2021{-}11}$ -->
      <g transform="translate(341.237331 316.589503) scale(0.2 -0.2)">
       <use xlink:href="#CMR17-32" transform="scale(0.996264)"/>
       <use xlink:href="#CMR17-30" transform="translate(45.690477 0) scale(0.996264)"/>
       <use xlink:href="#CMR17-32" transform="translate(91.380954 0) scale(0.996264)"/>
       <use xlink:href="#CMR17-31" transform="translate(137.071431 0) scale(0.996264)"/>
       <use xlink:href="#CMSY10-0" transform="translate(182.761908 0) scale(0.996264)"/>
       <use xlink:href="#CMR17-31" transform="translate(260.249376 0) scale(0.996264)"/>
       <use xlink:href="#CMR17-31" transform="translate(305.939853 0) scale(0.996264)"/>
      </g>
     </g>
    </g>
    <g id="xtick_4">
     <g id="line2d_4">
      <path d="M 505.37277 299.252507 
L 505.37277 30.255883 
" clip-path="url(#p451a66b95b)" style="fill: none; stroke: #cccccc; stroke-width: 0.8; stroke-linecap: round"/>
     </g>
     <g id="text_4">
      <!-- $\mathdefault{2022{-}01}$ -->
      <g transform="translate(470.20974 316.589503) scale(0.2 -0.2)">
       <use xlink:href="#CMR17-32" transform="scale(0.996264)"/>
       <use xlink:href="#CMR17-30" transform="translate(45.690477 0) scale(0.996264)"/>
       <use xlink:href="#CMR17-32" transform="translate(91.380954 0) scale(0.996264)"/>
       <use xlink:href="#CMR17-32" transform="translate(137.071431 0) scale(0.996264)"/>
       <use xlink:href="#CMSY10-0" transform="translate(182.761908 0) scale(0.996264)"/>
       <use xlink:href="#CMR17-30" transform="translate(260.249376 0) scale(0.996264)"/>
       <use xlink:href="#CMR17-31" transform="translate(305.939853 0) scale(0.996264)"/>
      </g>
     </g>
    </g>
    <g id="xtick_5">
     <g id="line2d_5">
      <path d="M 630.116576 299.252507 
L 630.116576 30.255883 
" clip-path="url(#p451a66b95b)" style="fill: none; stroke: #cccccc; stroke-width: 0.8; stroke-linecap: round"/>
     </g>
     <g id="text_5">
      <!-- $\mathdefault{2022{-}03}$ -->
      <g transform="translate(594.953546 316.589503) scale(0.2 -0.2)">
       <defs>
        <path id="CMR17-33" d="M 1414 2157 
C 1984 2157 2234 1662 2234 1090 
C 2234 320 1824 25 1453 25 
C 1114 25 563 194 390 693 
C 422 680 454 680 486 680 
C 640 680 755 782 755 948 
C 755 1133 614 1216 486 1216 
C 378 1216 211 1165 211 926 
C 211 335 787 -128 1466 -128 
C 2176 -128 2720 430 2720 1085 
C 2720 1707 2208 2157 1600 2227 
C 2086 2328 2554 2756 2554 3329 
C 2554 3820 2048 4179 1472 4179 
C 890 4179 378 3829 378 3329 
C 378 3110 544 3072 627 3072 
C 762 3072 877 3155 877 3321 
C 877 3486 762 3569 627 3569 
C 602 3569 570 3569 544 3557 
C 730 3959 1235 4032 1459 4032 
C 1683 4032 2106 3925 2106 3320 
C 2106 3143 2080 2828 1862 2550 
C 1670 2304 1453 2304 1242 2284 
C 1210 2284 1062 2269 1037 2269 
C 992 2263 966 2257 966 2208 
C 966 2163 973 2157 1101 2157 
L 1414 2157 
z
" transform="scale(0.015625)"/>
       </defs>
       <use xlink:href="#CMR17-32" transform="scale(0.996264)"/>
       <use xlink:href="#CMR17-30" transform="translate(45.690477 0) scale(0.996264)"/>
       <use xlink:href="#CMR17-32" transform="translate(91.380954 0) scale(0.996264)"/>
       <use xlink:href="#CMR17-32" transform="translate(137.071431 0) scale(0.996264)"/>
       <use xlink:href="#CMSY10-0" transform="translate(182.761908 0) scale(0.996264)"/>
       <use xlink:href="#CMR17-30" transform="translate(260.249376 0) scale(0.996264)"/>
       <use xlink:href="#CMR17-33" transform="translate(305.939853 0) scale(0.996264)"/>
      </g>
     </g>
    </g>
    <g id="xtick_6">
     <g id="line2d_6">
      <path d="M 759.088985 299.252507 
L 759.088985 30.255883 
" clip-path="url(#p451a66b95b)" style="fill: none; stroke: #cccccc; stroke-width: 0.8; stroke-linecap: round"/>
     </g>
     <g id="text_6">
      <!-- $\mathdefault{2022{-}05}$ -->
      <g transform="translate(723.925955 316.589503) scale(0.2 -0.2)">
       <defs>
        <path id="CMR17-35" d="M 730 3692 
C 794 3666 1056 3584 1325 3584 
C 1920 3584 2246 3911 2432 4100 
C 2432 4157 2432 4192 2394 4192 
C 2387 4192 2374 4192 2323 4163 
C 2099 4058 1837 3973 1517 3973 
C 1325 3973 1037 3999 723 4139 
C 653 4171 640 4171 634 4171 
C 602 4171 595 4164 595 4037 
L 595 2203 
C 595 2089 595 2057 659 2057 
C 691 2057 704 2070 736 2114 
C 941 2401 1222 2522 1542 2522 
C 1766 2522 2246 2382 2246 1289 
C 2246 1085 2246 715 2054 421 
C 1894 159 1645 25 1370 25 
C 947 25 518 320 403 814 
C 429 807 480 795 506 795 
C 589 795 749 840 749 1038 
C 749 1210 627 1280 506 1280 
C 358 1280 262 1190 262 1011 
C 262 454 704 -128 1382 -128 
C 2042 -128 2669 440 2669 1264 
C 2669 2030 2170 2624 1549 2624 
C 1222 2624 947 2503 730 2274 
L 730 3692 
z
" transform="scale(0.015625)"/>
       </defs>
       <use xlink:href="#CMR17-32" transform="scale(0.996264)"/>
       <use xlink:href="#CMR17-30" transform="translate(45.690477 0) scale(0.996264)"/>
       <use xlink:href="#CMR17-32" transform="translate(91.380954 0) scale(0.996264)"/>
       <use xlink:href="#CMR17-32" transform="translate(137.071431 0) scale(0.996264)"/>
       <use xlink:href="#CMSY10-0" transform="translate(182.761908 0) scale(0.996264)"/>
       <use xlink:href="#CMR17-30" transform="translate(260.249376 0) scale(0.996264)"/>
       <use xlink:href="#CMR17-35" transform="translate(305.939853 0) scale(0.996264)"/>
      </g>
     </g>
    </g>
    <g id="xtick_7">
     <g id="line2d_7">
      <path d="M 888.061395 299.252507 
L 888.061395 30.255883 
" clip-path="url(#p451a66b95b)" style="fill: none; stroke: #cccccc; stroke-width: 0.8; stroke-linecap: round"/>
     </g>
     <g id="text_7">
      <!-- $\mathdefault{2022{-}07}$ -->
      <g transform="translate(852.898365 316.589503) scale(0.2 -0.2)">
       <use xlink:href="#CMR17-32" transform="scale(0.996264)"/>
       <use xlink:href="#CMR17-30" transform="translate(45.690477 0) scale(0.996264)"/>
       <use xlink:href="#CMR17-32" transform="translate(91.380954 0) scale(0.996264)"/>
       <use xlink:href="#CMR17-32" transform="translate(137.071431 0) scale(0.996264)"/>
       <use xlink:href="#CMSY10-0" transform="translate(182.761908 0) scale(0.996264)"/>
       <use xlink:href="#CMR17-30" transform="translate(260.249376 0) scale(0.996264)"/>
       <use xlink:href="#CMR17-37" transform="translate(305.939853 0) scale(0.996264)"/>
      </g>
     </g>
    </g>
    <g id="xtick_8">
     <g id="line2d_8">
      <path d="M 1019.148106 299.252507 
L 1019.148106 30.255883 
" clip-path="url(#p451a66b95b)" style="fill: none; stroke: #cccccc; stroke-width: 0.8; stroke-linecap: round"/>
     </g>
     <g id="text_8">
      <!-- $\mathdefault{2022{-}09}$ -->
      <g transform="translate(983.985076 316.589503) scale(0.2 -0.2)">
       <use xlink:href="#CMR17-32" transform="scale(0.996264)"/>
       <use xlink:href="#CMR17-30" transform="translate(45.690477 0) scale(0.996264)"/>
       <use xlink:href="#CMR17-32" transform="translate(91.380954 0) scale(0.996264)"/>
       <use xlink:href="#CMR17-32" transform="translate(137.071431 0) scale(0.996264)"/>
       <use xlink:href="#CMSY10-0" transform="translate(182.761908 0) scale(0.996264)"/>
       <use xlink:href="#CMR17-30" transform="translate(260.249376 0) scale(0.996264)"/>
       <use xlink:href="#CMR17-39" transform="translate(305.939853 0) scale(0.996264)"/>
      </g>
     </g>
    </g>
    <g id="xtick_9">
     <g id="line2d_9">
      <path d="M 1148.120515 299.252507 
L 1148.120515 30.255883 
" clip-path="url(#p451a66b95b)" style="fill: none; stroke: #cccccc; stroke-width: 0.8; stroke-linecap: round"/>
     </g>
     <g id="text_9">
      <!-- $\mathdefault{2022{-}11}$ -->
      <g transform="translate(1112.957485 316.589503) scale(0.2 -0.2)">
       <use xlink:href="#CMR17-32" transform="scale(0.996264)"/>
       <use xlink:href="#CMR17-30" transform="translate(45.690477 0) scale(0.996264)"/>
       <use xlink:href="#CMR17-32" transform="translate(91.380954 0) scale(0.996264)"/>
       <use xlink:href="#CMR17-32" transform="translate(137.071431 0) scale(0.996264)"/>
       <use xlink:href="#CMSY10-0" transform="translate(182.761908 0) scale(0.996264)"/>
       <use xlink:href="#CMR17-31" transform="translate(260.249376 0) scale(0.996264)"/>
       <use xlink:href="#CMR17-31" transform="translate(305.939853 0) scale(0.996264)"/>
      </g>
     </g>
    </g>
    <g id="xtick_10">
     <g id="line2d_10">
      <path d="M 1277.092924 299.252507 
L 1277.092924 30.255883 
" clip-path="url(#p451a66b95b)" style="fill: none; stroke: #cccccc; stroke-width: 0.8; stroke-linecap: round"/>
     </g>
     <g id="text_10">
      <!-- $\mathdefault{2023{-}01}$ -->
      <g transform="translate(1241.929894 316.589503) scale(0.2 -0.2)">
       <use xlink:href="#CMR17-32" transform="scale(0.996264)"/>
       <use xlink:href="#CMR17-30" transform="translate(45.690477 0) scale(0.996264)"/>
       <use xlink:href="#CMR17-32" transform="translate(91.380954 0) scale(0.996264)"/>
       <use xlink:href="#CMR17-33" transform="translate(137.071431 0) scale(0.996264)"/>
       <use xlink:href="#CMSY10-0" transform="translate(182.761908 0) scale(0.996264)"/>
       <use xlink:href="#CMR17-30" transform="translate(260.249376 0) scale(0.996264)"/>
       <use xlink:href="#CMR17-31" transform="translate(305.939853 0) scale(0.996264)"/>
      </g>
     </g>
    </g>
    <g id="xtick_11">
     <g id="line2d_11">
      <path d="M 1401.83673 299.252507 
L 1401.83673 30.255883 
" clip-path="url(#p451a66b95b)" style="fill: none; stroke: #cccccc; stroke-width: 0.8; stroke-linecap: round"/>
     </g>
     <g id="text_11">
      <!-- $\mathdefault{2023{-}03}$ -->
      <g transform="translate(1366.6737 316.589503) scale(0.2 -0.2)">
       <use xlink:href="#CMR17-32" transform="scale(0.996264)"/>
       <use xlink:href="#CMR17-30" transform="translate(45.690477 0) scale(0.996264)"/>
       <use xlink:href="#CMR17-32" transform="translate(91.380954 0) scale(0.996264)"/>
       <use xlink:href="#CMR17-33" transform="translate(137.071431 0) scale(0.996264)"/>
       <use xlink:href="#CMSY10-0" transform="translate(182.761908 0) scale(0.996264)"/>
       <use xlink:href="#CMR17-30" transform="translate(260.249376 0) scale(0.996264)"/>
       <use xlink:href="#CMR17-33" transform="translate(305.939853 0) scale(0.996264)"/>
      </g>
     </g>
    </g>
    <g id="text_12">
     <!-- Date -->
     <g style="fill: #696969" transform="translate(710.303723 338.302134) scale(0.2 -0.2)">
      <defs>
       <path id="CMR17-44" d="M 333 4352 
L 333 4186 
C 774 4186 845 4186 845 3900 
L 845 452 
C 845 166 774 166 333 166 
L 333 0 
L 2368 0 
C 3398 0 4224 943 4224 2141 
C 4224 3346 3411 4352 2368 4352 
L 333 4352 
z
M 1523 166 
C 1267 166 1254 197 1254 414 
L 1254 3938 
C 1254 4155 1267 4186 1523 4186 
L 2240 4186 
C 2771 4186 3750 3874 3750 2141 
C 3750 1242 3488 879 3366 707 
C 3213 510 2848 166 2240 166 
L 1523 166 
z
" transform="scale(0.015625)"/>
       <path id="CMR17-61" d="M 2304 1653 
C 2304 2072 2304 2294 2035 2543 
C 1798 2752 1523 2816 1306 2816 
C 800 2816 435 2407 435 1971 
C 435 1728 627 1728 666 1728 
C 749 1728 896 1778 896 1954 
C 896 2112 774 2181 666 2181 
C 640 2181 608 2174 589 2168 
C 723 2592 1069 2714 1293 2714 
C 1613 2714 1965 2429 1965 1885 
L 1965 1600 
C 1587 1600 1133 1549 774 1357 
C 371 1133 256 813 256 570 
C 256 77 832 -64 1171 -64 
C 1523 -64 1850 139 1990 511 
C 2003 233 2182 -18 2464 -18 
C 2598 -18 2938 70 2938 567 
L 2938 920 
L 2822 920 
L 2822 562 
C 2822 178 2650 128 2566 128 
C 2304 128 2304 458 2304 738 
L 2304 1653 
z
M 1965 870 
C 1965 317 1568 38 1216 38 
C 896 38 646 275 646 570 
C 646 761 730 1100 1101 1305 
C 1408 1478 1760 1504 1965 1504 
L 1965 870 
z
" transform="scale(0.015625)"/>
       <path id="CMR17-74" d="M 966 2560 
L 1862 2560 
L 1862 2725 
L 966 2725 
L 966 3904 
L 851 3904 
C 838 3245 614 2668 70 2668 
L 70 2560 
L 627 2560 
L 627 771 
C 627 650 627 -64 1370 -64 
C 1747 -64 1965 306 1965 777 
L 1965 1140 
L 1850 1140 
L 1850 783 
C 1850 344 1677 51 1408 51 
C 1222 51 966 178 966 758 
L 966 2560 
z
" transform="scale(0.015625)"/>
       <path id="CMR17-65" d="M 2438 1472 
C 2464 1498 2464 1511 2464 1576 
C 2464 2238 2118 2816 1389 2816 
C 710 2816 173 2169 173 1383 
C 173 551 781 -64 1459 -64 
C 2176 -64 2458 607 2458 740 
C 2458 784 2419 784 2406 784 
C 2362 784 2355 771 2330 696 
C 2189 265 1837 51 1504 51 
C 1229 51 954 203 781 480 
C 582 803 582 1176 582 1472 
L 2438 1472 
z
M 589 1568 
C 634 2505 1126 2714 1382 2714 
C 1818 2714 2112 2297 2118 1568 
L 589 1568 
z
" transform="scale(0.015625)"/>
      </defs>
      <use xlink:href="#CMR17-44" transform="scale(0.996264)"/>
      <use xlink:href="#CMR17-61" transform="translate(70.393556 0) scale(0.996264)"/>
      <use xlink:href="#CMR17-74" transform="translate(116.084033 0) scale(0.996264)"/>
      <use xlink:href="#CMR17-65" transform="translate(151.364801 0) scale(0.996264)"/>
     </g>
    </g>
   </g>
   <g id="matplotlib.axis_2">
    <g id="ytick_1">
     <g id="line2d_12">
      <path d="M 55.026489 287.025387 
L 1403.951032 287.025387 
" clip-path="url(#p451a66b95b)" style="fill: none; stroke: #cccccc; stroke-width: 0.8; stroke-linecap: round"/>
     </g>
     <g id="text_13">
      <!-- $\mathdefault{0}$ -->
      <g transform="translate(42.388393 293.943886) scale(0.2 -0.2)">
       <use xlink:href="#CMR17-30" transform="scale(0.996264)"/>
      </g>
     </g>
    </g>
    <g id="ytick_2">
     <g id="line2d_13">
      <path d="M 55.026489 231.147881 
L 1403.951032 231.147881 
" clip-path="url(#p451a66b95b)" style="fill: none; stroke: #cccccc; stroke-width: 0.8; stroke-linecap: round"/>
     </g>
     <g id="text_14">
      <!-- $\mathdefault{1}$ -->
      <g transform="translate(42.388393 238.06638) scale(0.2 -0.2)">
       <use xlink:href="#CMR17-31" transform="scale(0.996264)"/>
      </g>
     </g>
    </g>
    <g id="ytick_3">
     <g id="line2d_14">
      <path d="M 55.026489 175.270375 
L 1403.951032 175.270375 
" clip-path="url(#p451a66b95b)" style="fill: none; stroke: #cccccc; stroke-width: 0.8; stroke-linecap: round"/>
     </g>
     <g id="text_15">
      <!-- $\mathdefault{2}$ -->
      <g transform="translate(42.388393 182.188874) scale(0.2 -0.2)">
       <use xlink:href="#CMR17-32" transform="scale(0.996264)"/>
      </g>
     </g>
    </g>
    <g id="ytick_4">
     <g id="line2d_15">
      <path d="M 55.026489 119.392869 
L 1403.951032 119.392869 
" clip-path="url(#p451a66b95b)" style="fill: none; stroke: #cccccc; stroke-width: 0.8; stroke-linecap: round"/>
     </g>
     <g id="text_16">
      <!-- $\mathdefault{3}$ -->
      <g transform="translate(42.388393 126.311368) scale(0.2 -0.2)">
       <use xlink:href="#CMR17-33" transform="scale(0.996264)"/>
      </g>
     </g>
    </g>
    <g id="ytick_5">
     <g id="line2d_16">
      <path d="M 55.026489 63.515363 
L 1403.951032 63.515363 
" clip-path="url(#p451a66b95b)" style="fill: none; stroke: #cccccc; stroke-width: 0.8; stroke-linecap: round"/>
     </g>
     <g id="text_17">
      <!-- $\mathdefault{4}$ -->
      <g transform="translate(42.388393 70.433862) scale(0.2 -0.2)">
       <defs>
        <path id="CMR17-34" d="M 2150 4122 
C 2150 4256 2144 4256 2029 4256 
L 128 1254 
L 128 1088 
L 1779 1088 
L 1779 457 
C 1779 224 1766 160 1318 160 
L 1197 160 
L 1197 0 
C 1402 0 1747 0 1965 0 
C 2182 0 2528 0 2733 0 
L 2733 160 
L 2611 160 
C 2163 160 2150 224 2150 457 
L 2150 1088 
L 2803 1088 
L 2803 1254 
L 2150 1254 
L 2150 4122 
z
M 1798 3703 
L 1798 1254 
L 256 1254 
L 1798 3703 
z
" transform="scale(0.015625)"/>
       </defs>
       <use xlink:href="#CMR17-34" transform="scale(0.996264)"/>
      </g>
     </g>
    </g>
    <g id="text_18">
     <!-- Revenue (mDKK) -->
     <g style="fill: #696969" transform="translate(33.423749 237.296849) rotate(-90) scale(0.2 -0.2)">
      <defs>
       <path id="CMR17-52" d="M 2509 2146 
C 3117 2268 3629 2676 3629 3186 
C 3629 3785 2950 4326 2054 4326 
L 333 4326 
L 333 4160 
C 774 4160 845 4160 845 3873 
L 845 415 
C 845 128 774 128 333 128 
L 333 -26 
C 518 -26 851 -26 1050 -26 
C 1248 -26 1581 -26 1766 -26 
L 1766 128 
C 1325 128 1254 128 1254 417 
L 1254 2112 
L 2003 2112 
C 2368 2112 2573 1964 2662 1881 
C 2918 1632 2918 1459 2918 1024 
C 2918 595 2918 377 3110 160 
C 3354 -102 3680 -128 3821 -128 
C 4294 -128 4365 396 4365 503 
C 4365 540 4365 585 4307 585 
C 4256 585 4250 547 4250 522 
C 4218 112 4032 -26 3834 -26 
C 3482 -26 3443 375 3405 764 
C 3386 898 3373 993 3360 1133 
C 3322 1452 3270 1917 2509 2146 
z
M 1984 2214 
L 1254 2214 
L 1254 3913 
C 1254 4129 1267 4160 1523 4160 
L 1990 4160 
C 2522 4160 3142 3977 3142 3190 
C 3142 2372 2464 2214 1984 2214 
z
" transform="scale(0.015625)"/>
       <path id="CMR17-76" d="M 2502 2163 
C 2560 2304 2662 2560 3034 2560 
L 3034 2726 
C 2912 2726 2752 2726 2630 2726 
C 2496 2726 2285 2726 2157 2732 
L 2157 2566 
C 2317 2553 2406 2477 2406 2311 
C 2406 2253 2406 2240 2368 2151 
L 1664 377 
L 902 2286 
C 864 2369 864 2381 864 2407 
C 864 2560 1075 2560 1171 2560 
L 1171 2732 
C 1018 2726 736 2726 576 2726 
C 403 2726 205 2726 64 2732 
L 64 2560 
C 307 2560 442 2560 518 2362 
L 1446 44 
C 1485 -51 1491 -64 1549 -64 
C 1606 -64 1613 -51 1651 44 
L 2502 2163 
z
" transform="scale(0.015625)"/>
       <path id="CMR17-6e" d="M 2656 1933 
C 2656 2259 2592 2790 1837 2790 
C 1331 2790 1069 2400 973 2144 
L 966 2144 
L 966 2790 
L 211 2720 
L 211 2554 
C 589 2554 646 2515 646 2208 
L 646 428 
C 646 184 621 153 211 153 
L 211 -13 
C 365 0 646 0 813 0 
C 979 0 1267 0 1421 -13 
L 1421 153 
C 1011 153 986 178 986 428 
L 986 1658 
C 986 2247 1344 2688 1792 2688 
C 2266 2688 2317 2266 2317 1958 
L 2317 428 
C 2317 184 2291 153 1882 153 
L 1882 -13 
C 2035 0 2317 0 2483 0 
C 2650 0 2938 0 3091 -13 
L 3091 153 
C 2682 153 2656 178 2656 428 
L 2656 1933 
z
" transform="scale(0.015625)"/>
       <path id="CMR17-75" d="M 1882 2693 
L 1882 2528 
C 2259 2528 2317 2489 2317 2186 
L 2317 1032 
C 2317 500 2029 38 1555 38 
C 1030 38 986 348 986 678 
L 986 2763 
L 211 2693 
L 211 2528 
C 467 2528 640 2528 646 2274 
L 646 1058 
C 646 633 646 361 813 183 
C 896 101 1056 -64 1517 -64 
C 2061 -64 2272 377 2323 506 
L 2330 506 
L 2330 -63 
L 3091 -63 
L 3091 128 
C 2714 128 2656 166 2656 473 
L 2656 2763 
L 1882 2693 
z
" transform="scale(0.015625)"/>
       <path id="CMR17-28" d="M 1958 -1561 
C 1958 -1555 1958 -1542 1939 -1523 
C 1645 -1224 858 -407 858 1581 
C 858 3569 1632 4379 1946 4697 
C 1946 4704 1958 4717 1958 4736 
C 1958 4755 1939 4768 1914 4768 
C 1843 4768 1299 4296 986 3594 
C 666 2887 576 2199 576 1588 
C 576 1128 621 351 1005 -471 
C 1312 -1135 1837 -1600 1914 -1600 
C 1946 -1600 1958 -1587 1958 -1561 
z
" transform="scale(0.015625)"/>
       <path id="CMR17-6d" d="M 4326 1933 
C 4326 2252 4269 2790 3507 2790 
C 3072 2790 2771 2496 2656 2151 
L 2650 2151 
C 2573 2676 2195 2790 1837 2790 
C 1331 2790 1069 2400 973 2144 
L 966 2144 
L 966 2790 
L 211 2720 
L 211 2554 
C 589 2554 646 2515 646 2208 
L 646 428 
C 646 184 621 153 211 153 
L 211 -13 
C 365 0 646 0 813 0 
C 979 0 1267 0 1421 -13 
L 1421 153 
C 1011 153 986 178 986 428 
L 986 1658 
C 986 2247 1344 2688 1792 2688 
C 2266 2688 2317 2266 2317 1958 
L 2317 428 
C 2317 184 2291 153 1882 153 
L 1882 -13 
C 2035 0 2317 0 2483 0 
C 2650 0 2938 0 3091 -13 
L 3091 153 
C 2682 153 2656 178 2656 428 
L 2656 1658 
C 2656 2247 3014 2688 3462 2688 
C 3936 2688 3987 2266 3987 1958 
L 3987 428 
C 3987 184 3962 153 3552 153 
L 3552 -13 
C 3706 0 3987 0 4154 0 
C 4320 0 4608 0 4762 -13 
L 4762 153 
C 4352 153 4326 178 4326 428 
L 4326 1933 
z
" transform="scale(0.015625)"/>
       <path id="CMR17-4b" d="M 2362 2675 
L 3469 3782 
C 3699 4006 3942 4186 4301 4186 
L 4301 4352 
C 4173 4352 4013 4352 3885 4352 
C 3712 4352 3411 4352 3245 4358 
L 3245 4192 
C 3411 4180 3437 4065 3437 4019 
C 3437 3975 3411 3905 3386 3867 
L 1261 1738 
L 1261 3900 
C 1261 4186 1331 4186 1773 4186 
L 1773 4352 
C 1587 4352 1248 4352 1050 4352 
C 851 4352 512 4352 326 4352 
L 326 4186 
C 768 4186 838 4186 838 3899 
L 838 446 
C 838 160 768 160 326 160 
L 326 0 
C 512 0 851 0 1050 0 
C 1248 0 1587 0 1773 0 
L 1773 160 
C 1331 160 1261 160 1261 447 
L 1261 1579 
L 2080 2390 
L 3290 537 
C 3328 473 3373 390 3373 326 
C 3373 160 3194 160 3110 160 
L 3110 0 
C 3315 0 3610 0 3821 0 
C 3974 0 4237 0 4384 -6 
L 4384 160 
C 4077 160 3981 198 3789 493 
L 2362 2675 
z
" transform="scale(0.015625)"/>
       <path id="CMR17-29" d="M 1683 1581 
C 1683 2040 1638 2817 1254 3639 
C 947 4303 422 4768 346 4768 
C 326 4768 301 4761 301 4729 
C 301 4717 307 4710 314 4697 
C 621 4378 1402 3568 1402 1584 
C 1402 -407 627 -1217 314 -1537 
C 307 -1549 301 -1556 301 -1568 
C 301 -1600 326 -1600 346 -1600 
C 416 -1600 960 -1128 1274 -426 
C 1594 281 1683 969 1683 1581 
z
" transform="scale(0.015625)"/>
      </defs>
      <use xlink:href="#CMR17-52" transform="scale(0.996264)"/>
      <use xlink:href="#CMR17-65" transform="translate(67.791102 0) scale(0.996264)"/>
      <use xlink:href="#CMR17-76" transform="translate(108.276762 0) scale(0.996264)"/>
      <use xlink:href="#CMR17-65" transform="translate(153.967224 0) scale(0.996264)"/>
      <use xlink:href="#CMR17-6e" transform="translate(194.452885 0) scale(0.996264)"/>
      <use xlink:href="#CMR17-75" transform="translate(242.745801 0) scale(0.996264)"/>
      <use xlink:href="#CMR17-65" transform="translate(293.64117 0) scale(0.996264)"/>
      <use xlink:href="#CMR17-28" transform="translate(364.202797 0) scale(0.996264)"/>
      <use xlink:href="#CMR17-6d" transform="translate(399.483565 0) scale(0.996264)"/>
      <use xlink:href="#CMR17-44" transform="translate(476.403155 0) scale(0.996264)"/>
      <use xlink:href="#CMR17-4b" transform="translate(546.796711 0) scale(0.996264)"/>
      <use xlink:href="#CMR17-4b" transform="translate(618.471488 0) scale(0.996264)"/>
      <use xlink:href="#CMR17-29" transform="translate(690.146265 0) scale(0.996264)"/>
     </g>
    </g>
   </g>
   <g id="PolyCollection_1"/>
   <g id="PolyCollection_2"/>
   <g id="line2d_17">
    <path d="M 116.341241 287.025387 
L 181.884596 282.834574 
L 247.427952 282.834574 
L 310.857005 280.040699 
L 376.400361 275.849886 
L 439.829415 270.262135 
L 505.37277 265.791935 
L 570.916126 265.791935 
L 630.116576 243.999708 
L 695.659932 156.830798 
L 759.088985 96.762479 
L 824.632341 67.259156 
L 888.061395 50.775292 
L 953.60475 42.483002 
L 1019.148106 45.48977 
L 1082.577159 45.208969 
L 1148.120515 45.208969 
L 1211.549569 43.253256 
L 1277.092924 43.253256 
L 1342.63628 43.253256 
" clip-path="url(#p451a66b95b)" style="fill: none; stroke: #006e64; stroke-width: 1.5; stroke-linecap: round"/>
   </g>
   <g id="line2d_18">
    <path d="M 116.341241 287.025387 
L 181.884596 283.797863 
L 247.427952 277.332666 
L 310.857005 268.581327 
L 376.400361 257.158289 
L 439.829415 243.974951 
L 505.37277 228.389623 
L 570.916126 211.132516 
L 630.116576 194.450606 
L 695.659932 175.216225 
L 759.088985 156.32465 
L 824.632341 137.055316 
L 888.061395 119.151714 
L 953.60475 101.894607 
L 1019.148106 86.309279 
L 1082.577159 73.125941 
L 1148.120515 61.702903 
L 1211.549569 52.951564 
L 1277.092924 46.486367 
L 1342.63628 43.258843 
" clip-path="url(#p451a66b95b)" style="fill: none; stroke-dasharray: 5.55,2.4; stroke-dashoffset: 0; stroke: #006e64; stroke-width: 1.5"/>
   </g>
   <g id="patch_3">
    <path d="M 55.026489 299.252507 
L 55.026489 30.255883 
" style="fill: none; stroke: #808080; stroke-width: 0.8; stroke-linejoin: miter; stroke-linecap: square"/>
   </g>
   <g id="patch_4">
    <path d="M 55.026489 299.252507 
L 1403.951032 299.252507 
" style="fill: none; stroke: #808080; stroke-width: 0.8; stroke-linejoin: miter; stroke-linecap: square"/>
   </g>
   <g id="legend_1">
    <g id="patch_5">
     <path d="M 561.011901 370.027803 
L 897.965619 370.027803 
Q 901.965619 370.027803 901.965619 366.027803 
L 901.965619 340.152169 
Q 901.965619 336.152169 897.965619 336.152169 
L 561.011901 336.152169 
Q 557.011901 336.152169 557.011901 340.152169 
L 557.011901 366.027803 
Q 557.011901 370.027803 561.011901 370.027803 
z
" style="fill: #ffffff; opacity: 0.8"/>
    </g>
    <g id="line2d_19">
     <path d="M 565.011901 351.152169 
L 585.011901 351.152169 
L 605.011901 351.152169 
" style="fill: none; stroke: #006e64; stroke-width: 1.5; stroke-linecap: round"/>
    </g>
    <g id="text_19">
     <!-- revenue -->
     <g style="fill: #262626" transform="translate(621.011901 358.152169) scale(0.2 -0.2)">
      <defs>
       <path id="CMR17-72" d="M 960 1497 
C 960 2112 1222 2688 1702 2688 
C 1747 2688 1792 2682 1837 2662 
C 1837 2662 1696 2617 1696 2452 
C 1696 2298 1818 2234 1914 2234 
C 1990 2234 2131 2279 2131 2458 
C 2131 2663 1926 2790 1709 2790 
C 1222 2790 1011 2317 947 2093 
L 941 2093 
L 941 2790 
L 198 2720 
L 198 2554 
C 576 2554 634 2515 634 2208 
L 634 428 
C 634 184 608 153 198 153 
L 198 -13 
C 352 0 646 0 813 0 
C 998 0 1325 0 1498 -13 
L 1498 153 
C 1037 153 960 153 960 440 
L 960 1497 
z
" transform="scale(0.015625)"/>
      </defs>
      <use xlink:href="#CMR17-72" transform="scale(0.996264)"/>
      <use xlink:href="#CMR17-65" transform="translate(35.280768 0) scale(0.996264)"/>
      <use xlink:href="#CMR17-76" transform="translate(75.766428 0) scale(0.996264)"/>
      <use xlink:href="#CMR17-65" transform="translate(121.45689 0) scale(0.996264)"/>
      <use xlink:href="#CMR17-6e" transform="translate(161.942551 0) scale(0.996264)"/>
      <use xlink:href="#CMR17-75" transform="translate(210.235466 0) scale(0.996264)"/>
      <use xlink:href="#CMR17-65" transform="translate(261.130836 0) scale(0.996264)"/>
     </g>
    </g>
    <g id="line2d_20">
     <path d="M 721.335143 351.152169 
L 741.335143 351.152169 
L 761.335143 351.152169 
" style="fill: none; stroke-dasharray: 5.55,2.4; stroke-dashoffset: 0; stroke: #006e64; stroke-width: 1.5"/>
    </g>
    <g id="text_20">
     <!-- revenue_scurve -->
     <g style="fill: #262626" transform="translate(777.335143 358.152169) scale(0.2 -0.2)">
      <defs>
       <path id="CMR17-73" d="M 1978 2697 
C 1978 2813 1971 2819 1933 2819 
C 1907 2819 1901 2813 1824 2717 
C 1805 2691 1747 2626 1728 2601 
C 1523 2819 1235 2819 1126 2819 
C 416 2819 160 2447 160 2076 
C 160 1498 813 1365 998 1325 
C 1402 1243 1542 1217 1677 1101 
C 1760 1025 1901 884 1901 654 
C 1901 384 1747 38 1158 38 
C 602 38 403 460 288 1021 
C 269 1110 269 1117 218 1117 
C 166 1117 160 1110 160 983 
L 160 63 
C 160 -51 166 -58 205 -58 
C 237 -58 243 -51 275 0 
C 314 57 410 211 448 276 
C 576 103 800 -64 1158 -64 
C 1792 -64 2131 283 2131 784 
C 2131 1112 1958 1285 1875 1362 
C 1683 1561 1459 1606 1190 1657 
C 838 1735 390 1825 390 2217 
C 390 2383 480 2737 1126 2737 
C 1811 2737 1850 2094 1862 1888 
C 1869 1856 1901 1849 1920 1849 
C 1978 1849 1978 1869 1978 1978 
L 1978 2697 
z
" transform="scale(0.015625)"/>
       <path id="CMR17-63" d="M 2234 2240 
C 2112 2240 1933 2240 1933 2017 
C 1933 1838 2080 1787 2163 1787 
C 2208 1787 2394 1807 2394 2024 
C 2394 2467 1958 2803 1466 2803 
C 787 2803 211 2178 211 1363 
C 211 516 813 -64 1466 -64 
C 2259 -64 2458 677 2458 748 
C 2458 774 2451 793 2406 793 
C 2362 793 2355 787 2330 703 
C 2163 180 1798 51 1523 51 
C 1114 51 621 427 621 1369 
C 621 2338 1094 2688 1472 2688 
C 1722 2688 2093 2573 2234 2240 
z
" transform="scale(0.015625)"/>
      </defs>
      <use xlink:href="#CMR17-72" transform="scale(0.996264)"/>
      <use xlink:href="#CMR17-65" transform="translate(35.280768 0) scale(0.996264)"/>
      <use xlink:href="#CMR17-76" transform="translate(75.766428 0) scale(0.996264)"/>
      <use xlink:href="#CMR17-65" transform="translate(121.45689 0) scale(0.996264)"/>
      <use xlink:href="#CMR17-6e" transform="translate(161.942551 0) scale(0.996264)"/>
      <use xlink:href="#CMR17-75" transform="translate(210.235466 0) scale(0.996264)"/>
      <use xlink:href="#CMR17-65" transform="translate(261.130836 0) scale(0.996264)"/>
      <use xlink:href="#CMR17-73" transform="translate(334.513716 0) scale(0.996264)"/>
      <use xlink:href="#CMR17-63" transform="translate(370.315054 0) scale(0.996264)"/>
      <use xlink:href="#CMR17-75" transform="translate(410.800714 0) scale(0.996264)"/>
      <use xlink:href="#CMR17-72" transform="translate(461.696084 0) scale(0.996264)"/>
      <use xlink:href="#CMR17-76" transform="translate(496.976852 0) scale(0.996264)"/>
      <use xlink:href="#CMR17-65" transform="translate(542.667314 0) scale(0.996264)"/>
      <path d="M 307.099126 0 
L 334.513716 0 
L 334.513716 0.3985 
L 307.099126 0.3985 
L 307.099126 0 
z
"/>
     </g>
    </g>
   </g>
  </g>
  <g id="axes_2">
   <g id="patch_6">
    <path d="M 55.026489 646.224445 
L 1403.951032 646.224445 
L 1403.951032 377.227821 
L 55.026489 377.227821 
z
" style="fill: #ffffff"/>
   </g>
   <g id="matplotlib.axis_3">
    <g id="xtick_12">
     <g id="line2d_21">
      <path d="M 116.341241 646.224445 
L 116.341241 377.227821 
" clip-path="url(#p1e6603b374)" style="fill: none; stroke: #cccccc; stroke-opacity: 0.35; stroke-width: 0.8; stroke-linecap: round"/>
     </g>
     <g id="text_21">
      <!-- $\mathdefault{2021{-}07}$ -->
      <g transform="translate(81.178211 663.561442) scale(0.2 -0.2)">
       <use xlink:href="#CMR17-32" transform="scale(0.996264)"/>
       <use xlink:href="#CMR17-30" transform="translate(45.690477 0) scale(0.996264)"/>
       <use xlink:href="#CMR17-32" transform="translate(91.380954 0) scale(0.996264)"/>
       <use xlink:href="#CMR17-31" transform="translate(137.071431 0) scale(0.996264)"/>
       <use xlink:href="#CMSY10-0" transform="translate(182.761908 0) scale(0.996264)"/>
       <use xlink:href="#CMR17-30" transform="translate(260.249376 0) scale(0.996264)"/>
       <use xlink:href="#CMR17-37" transform="translate(305.939853 0) scale(0.996264)"/>
      </g>
     </g>
    </g>
    <g id="xtick_13">
     <g id="line2d_22">
      <path d="M 247.427952 646.224445 
L 247.427952 377.227821 
" clip-path="url(#p1e6603b374)" style="fill: none; stroke: #cccccc; stroke-opacity: 0.35; stroke-width: 0.8; stroke-linecap: round"/>
     </g>
     <g id="text_22">
      <!-- $\mathdefault{2021{-}09}$ -->
      <g transform="translate(212.264922 663.561442) scale(0.2 -0.2)">
       <use xlink:href="#CMR17-32" transform="scale(0.996264)"/>
       <use xlink:href="#CMR17-30" transform="translate(45.690477 0) scale(0.996264)"/>
       <use xlink:href="#CMR17-32" transform="translate(91.380954 0) scale(0.996264)"/>
       <use xlink:href="#CMR17-31" transform="translate(137.071431 0) scale(0.996264)"/>
       <use xlink:href="#CMSY10-0" transform="translate(182.761908 0) scale(0.996264)"/>
       <use xlink:href="#CMR17-30" transform="translate(260.249376 0) scale(0.996264)"/>
       <use xlink:href="#CMR17-39" transform="translate(305.939853 0) scale(0.996264)"/>
      </g>
     </g>
    </g>
    <g id="xtick_14">
     <g id="line2d_23">
      <path d="M 376.400361 646.224445 
L 376.400361 377.227821 
" clip-path="url(#p1e6603b374)" style="fill: none; stroke: #cccccc; stroke-opacity: 0.35; stroke-width: 0.8; stroke-linecap: round"/>
     </g>
     <g id="text_23">
      <!-- $\mathdefault{2021{-}11}$ -->
      <g transform="translate(341.237331 663.561442) scale(0.2 -0.2)">
       <use xlink:href="#CMR17-32" transform="scale(0.996264)"/>
       <use xlink:href="#CMR17-30" transform="translate(45.690477 0) scale(0.996264)"/>
       <use xlink:href="#CMR17-32" transform="translate(91.380954 0) scale(0.996264)"/>
       <use xlink:href="#CMR17-31" transform="translate(137.071431 0) scale(0.996264)"/>
       <use xlink:href="#CMSY10-0" transform="translate(182.761908 0) scale(0.996264)"/>
       <use xlink:href="#CMR17-31" transform="translate(260.249376 0) scale(0.996264)"/>
       <use xlink:href="#CMR17-31" transform="translate(305.939853 0) scale(0.996264)"/>
      </g>
     </g>
    </g>
    <g id="xtick_15">
     <g id="line2d_24">
      <path d="M 505.37277 646.224445 
L 505.37277 377.227821 
" clip-path="url(#p1e6603b374)" style="fill: none; stroke: #cccccc; stroke-opacity: 0.35; stroke-width: 0.8; stroke-linecap: round"/>
     </g>
     <g id="text_24">
      <!-- $\mathdefault{2022{-}01}$ -->
      <g transform="translate(470.20974 663.561442) scale(0.2 -0.2)">
       <use xlink:href="#CMR17-32" transform="scale(0.996264)"/>
       <use xlink:href="#CMR17-30" transform="translate(45.690477 0) scale(0.996264)"/>
       <use xlink:href="#CMR17-32" transform="translate(91.380954 0) scale(0.996264)"/>
       <use xlink:href="#CMR17-32" transform="translate(137.071431 0) scale(0.996264)"/>
       <use xlink:href="#CMSY10-0" transform="translate(182.761908 0) scale(0.996264)"/>
       <use xlink:href="#CMR17-30" transform="translate(260.249376 0) scale(0.996264)"/>
       <use xlink:href="#CMR17-31" transform="translate(305.939853 0) scale(0.996264)"/>
      </g>
     </g>
    </g>
    <g id="xtick_16">
     <g id="line2d_25">
      <path d="M 630.116576 646.224445 
L 630.116576 377.227821 
" clip-path="url(#p1e6603b374)" style="fill: none; stroke: #cccccc; stroke-opacity: 0.35; stroke-width: 0.8; stroke-linecap: round"/>
     </g>
     <g id="text_25">
      <!-- $\mathdefault{2022{-}03}$ -->
      <g transform="translate(594.953546 663.561442) scale(0.2 -0.2)">
       <use xlink:href="#CMR17-32" transform="scale(0.996264)"/>
       <use xlink:href="#CMR17-30" transform="translate(45.690477 0) scale(0.996264)"/>
       <use xlink:href="#CMR17-32" transform="translate(91.380954 0) scale(0.996264)"/>
       <use xlink:href="#CMR17-32" transform="translate(137.071431 0) scale(0.996264)"/>
       <use xlink:href="#CMSY10-0" transform="translate(182.761908 0) scale(0.996264)"/>
       <use xlink:href="#CMR17-30" transform="translate(260.249376 0) scale(0.996264)"/>
       <use xlink:href="#CMR17-33" transform="translate(305.939853 0) scale(0.996264)"/>
      </g>
     </g>
    </g>
    <g id="xtick_17">
     <g id="line2d_26">
      <path d="M 759.088985 646.224445 
L 759.088985 377.227821 
" clip-path="url(#p1e6603b374)" style="fill: none; stroke: #cccccc; stroke-opacity: 0.35; stroke-width: 0.8; stroke-linecap: round"/>
     </g>
     <g id="text_26">
      <!-- $\mathdefault{2022{-}05}$ -->
      <g transform="translate(723.925955 663.561442) scale(0.2 -0.2)">
       <use xlink:href="#CMR17-32" transform="scale(0.996264)"/>
       <use xlink:href="#CMR17-30" transform="translate(45.690477 0) scale(0.996264)"/>
       <use xlink:href="#CMR17-32" transform="translate(91.380954 0) scale(0.996264)"/>
       <use xlink:href="#CMR17-32" transform="translate(137.071431 0) scale(0.996264)"/>
       <use xlink:href="#CMSY10-0" transform="translate(182.761908 0) scale(0.996264)"/>
       <use xlink:href="#CMR17-30" transform="translate(260.249376 0) scale(0.996264)"/>
       <use xlink:href="#CMR17-35" transform="translate(305.939853 0) scale(0.996264)"/>
      </g>
     </g>
    </g>
    <g id="xtick_18">
     <g id="line2d_27">
      <path d="M 888.061395 646.224445 
L 888.061395 377.227821 
" clip-path="url(#p1e6603b374)" style="fill: none; stroke: #cccccc; stroke-opacity: 0.35; stroke-width: 0.8; stroke-linecap: round"/>
     </g>
     <g id="text_27">
      <!-- $\mathdefault{2022{-}07}$ -->
      <g transform="translate(852.898365 663.561442) scale(0.2 -0.2)">
       <use xlink:href="#CMR17-32" transform="scale(0.996264)"/>
       <use xlink:href="#CMR17-30" transform="translate(45.690477 0) scale(0.996264)"/>
       <use xlink:href="#CMR17-32" transform="translate(91.380954 0) scale(0.996264)"/>
       <use xlink:href="#CMR17-32" transform="translate(137.071431 0) scale(0.996264)"/>
       <use xlink:href="#CMSY10-0" transform="translate(182.761908 0) scale(0.996264)"/>
       <use xlink:href="#CMR17-30" transform="translate(260.249376 0) scale(0.996264)"/>
       <use xlink:href="#CMR17-37" transform="translate(305.939853 0) scale(0.996264)"/>
      </g>
     </g>
    </g>
    <g id="xtick_19">
     <g id="line2d_28">
      <path d="M 1019.148106 646.224445 
L 1019.148106 377.227821 
" clip-path="url(#p1e6603b374)" style="fill: none; stroke: #cccccc; stroke-opacity: 0.35; stroke-width: 0.8; stroke-linecap: round"/>
     </g>
     <g id="text_28">
      <!-- $\mathdefault{2022{-}09}$ -->
      <g transform="translate(983.985076 663.561442) scale(0.2 -0.2)">
       <use xlink:href="#CMR17-32" transform="scale(0.996264)"/>
       <use xlink:href="#CMR17-30" transform="translate(45.690477 0) scale(0.996264)"/>
       <use xlink:href="#CMR17-32" transform="translate(91.380954 0) scale(0.996264)"/>
       <use xlink:href="#CMR17-32" transform="translate(137.071431 0) scale(0.996264)"/>
       <use xlink:href="#CMSY10-0" transform="translate(182.761908 0) scale(0.996264)"/>
       <use xlink:href="#CMR17-30" transform="translate(260.249376 0) scale(0.996264)"/>
       <use xlink:href="#CMR17-39" transform="translate(305.939853 0) scale(0.996264)"/>
      </g>
     </g>
    </g>
    <g id="xtick_20">
     <g id="line2d_29">
      <path d="M 1148.120515 646.224445 
L 1148.120515 377.227821 
" clip-path="url(#p1e6603b374)" style="fill: none; stroke: #cccccc; stroke-opacity: 0.35; stroke-width: 0.8; stroke-linecap: round"/>
     </g>
     <g id="text_29">
      <!-- $\mathdefault{2022{-}11}$ -->
      <g transform="translate(1112.957485 663.561442) scale(0.2 -0.2)">
       <use xlink:href="#CMR17-32" transform="scale(0.996264)"/>
       <use xlink:href="#CMR17-30" transform="translate(45.690477 0) scale(0.996264)"/>
       <use xlink:href="#CMR17-32" transform="translate(91.380954 0) scale(0.996264)"/>
       <use xlink:href="#CMR17-32" transform="translate(137.071431 0) scale(0.996264)"/>
       <use xlink:href="#CMSY10-0" transform="translate(182.761908 0) scale(0.996264)"/>
       <use xlink:href="#CMR17-31" transform="translate(260.249376 0) scale(0.996264)"/>
       <use xlink:href="#CMR17-31" transform="translate(305.939853 0) scale(0.996264)"/>
      </g>
     </g>
    </g>
    <g id="xtick_21">
     <g id="line2d_30">
      <path d="M 1277.092924 646.224445 
L 1277.092924 377.227821 
" clip-path="url(#p1e6603b374)" style="fill: none; stroke: #cccccc; stroke-opacity: 0.35; stroke-width: 0.8; stroke-linecap: round"/>
     </g>
     <g id="text_30">
      <!-- $\mathdefault{2023{-}01}$ -->
      <g transform="translate(1241.929894 663.561442) scale(0.2 -0.2)">
       <use xlink:href="#CMR17-32" transform="scale(0.996264)"/>
       <use xlink:href="#CMR17-30" transform="translate(45.690477 0) scale(0.996264)"/>
       <use xlink:href="#CMR17-32" transform="translate(91.380954 0) scale(0.996264)"/>
       <use xlink:href="#CMR17-33" transform="translate(137.071431 0) scale(0.996264)"/>
       <use xlink:href="#CMSY10-0" transform="translate(182.761908 0) scale(0.996264)"/>
       <use xlink:href="#CMR17-30" transform="translate(260.249376 0) scale(0.996264)"/>
       <use xlink:href="#CMR17-31" transform="translate(305.939853 0) scale(0.996264)"/>
      </g>
     </g>
    </g>
    <g id="xtick_22">
     <g id="line2d_31">
      <path d="M 1401.83673 646.224445 
L 1401.83673 377.227821 
" clip-path="url(#p1e6603b374)" style="fill: none; stroke: #cccccc; stroke-opacity: 0.35; stroke-width: 0.8; stroke-linecap: round"/>
     </g>
     <g id="text_31">
      <!-- $\mathdefault{2023{-}03}$ -->
      <g transform="translate(1366.6737 663.561442) scale(0.2 -0.2)">
       <use xlink:href="#CMR17-32" transform="scale(0.996264)"/>
       <use xlink:href="#CMR17-30" transform="translate(45.690477 0) scale(0.996264)"/>
       <use xlink:href="#CMR17-32" transform="translate(91.380954 0) scale(0.996264)"/>
       <use xlink:href="#CMR17-33" transform="translate(137.071431 0) scale(0.996264)"/>
       <use xlink:href="#CMSY10-0" transform="translate(182.761908 0) scale(0.996264)"/>
       <use xlink:href="#CMR17-30" transform="translate(260.249376 0) scale(0.996264)"/>
       <use xlink:href="#CMR17-33" transform="translate(305.939853 0) scale(0.996264)"/>
      </g>
     </g>
    </g>
    <g id="text_32">
     <!-- Date -->
     <g style="fill: #696969" transform="translate(710.303723 685.274072) scale(0.2 -0.2)">
      <use xlink:href="#CMR17-44" transform="scale(0.996264)"/>
      <use xlink:href="#CMR17-61" transform="translate(70.393556 0) scale(0.996264)"/>
      <use xlink:href="#CMR17-74" transform="translate(116.084033 0) scale(0.996264)"/>
      <use xlink:href="#CMR17-65" transform="translate(151.364801 0) scale(0.996264)"/>
     </g>
    </g>
   </g>
   <g id="matplotlib.axis_4">
    <g id="ytick_6">
     <g id="line2d_32">
      <path d="M 55.026489 596.576674 
L 1403.951032 596.576674 
" clip-path="url(#p1e6603b374)" style="fill: none; stroke: #cccccc; stroke-opacity: 0.35; stroke-width: 0.8; stroke-linecap: round"/>
     </g>
     <g id="text_33">
      <!-- $\mathdefault{−4}$ -->
      <g transform="translate(26.890906 603.495173) scale(0.2 -0.2)">
       <use xlink:href="#CMSY10-0" transform="scale(0.996264)"/>
       <use xlink:href="#CMR17-34" transform="translate(77.487468 0) scale(0.996264)"/>
      </g>
     </g>
    </g>
    <g id="ytick_7">
     <g id="line2d_33">
      <path d="M 55.026489 544.796241 
L 1403.951032 544.796241 
" clip-path="url(#p1e6603b374)" style="fill: none; stroke: #cccccc; stroke-opacity: 0.35; stroke-width: 0.8; stroke-linecap: round"/>
     </g>
     <g id="text_34">
      <!-- $\mathdefault{−3}$ -->
      <g transform="translate(26.890906 551.714739) scale(0.2 -0.2)">
       <use xlink:href="#CMSY10-0" transform="scale(0.996264)"/>
       <use xlink:href="#CMR17-33" transform="translate(77.487468 0) scale(0.996264)"/>
      </g>
     </g>
    </g>
    <g id="ytick_8">
     <g id="line2d_34">
      <path d="M 55.026489 493.015807 
L 1403.951032 493.015807 
" clip-path="url(#p1e6603b374)" style="fill: none; stroke: #cccccc; stroke-opacity: 0.35; stroke-width: 0.8; stroke-linecap: round"/>
     </g>
     <g id="text_35">
      <!-- $\mathdefault{−2}$ -->
      <g transform="translate(26.890906 499.934306) scale(0.2 -0.2)">
       <use xlink:href="#CMSY10-0" transform="scale(0.996264)"/>
       <use xlink:href="#CMR17-32" transform="translate(77.487468 0) scale(0.996264)"/>
      </g>
     </g>
    </g>
    <g id="ytick_9">
     <g id="line2d_35">
      <path d="M 55.026489 441.235374 
L 1403.951032 441.235374 
" clip-path="url(#p1e6603b374)" style="fill: none; stroke: #cccccc; stroke-opacity: 0.35; stroke-width: 0.8; stroke-linecap: round"/>
     </g>
     <g id="text_36">
      <!-- $\mathdefault{−1}$ -->
      <g transform="translate(26.890906 448.153872) scale(0.2 -0.2)">
       <use xlink:href="#CMSY10-0" transform="scale(0.996264)"/>
       <use xlink:href="#CMR17-31" transform="translate(77.487468 0) scale(0.996264)"/>
      </g>
     </g>
    </g>
    <g id="ytick_10">
     <g id="line2d_36">
      <path d="M 55.026489 389.454941 
L 1403.951032 389.454941 
" clip-path="url(#p1e6603b374)" style="fill: none; stroke: #cccccc; stroke-opacity: 0.35; stroke-width: 0.8; stroke-linecap: round"/>
     </g>
     <g id="text_37">
      <!-- $\mathdefault{0}$ -->
      <g transform="translate(42.388393 396.373439) scale(0.2 -0.2)">
       <use xlink:href="#CMR17-30" transform="scale(0.996264)"/>
      </g>
     </g>
    </g>
    <g id="text_38">
     <!-- Costs (mDKK) -->
     <g style="fill: #696969" transform="translate(17.926262 572.764512) rotate(-90) scale(0.2 -0.2)">
      <defs>
       <path id="CMR17-43" d="M 3974 4289 
C 3974 4403 3968 4410 3930 4410 
C 3904 4410 3898 4403 3853 4327 
L 3571 3792 
C 3258 4187 2874 4416 2381 4416 
C 1286 4416 294 3456 294 2148 
C 294 826 1286 -128 2387 -128 
C 3366 -128 3974 730 3974 1461 
C 3974 1524 3974 1550 3917 1550 
C 3866 1550 3866 1531 3859 1474 
C 3808 585 3168 38 2477 38 
C 1824 38 781 495 781 2147 
C 781 3805 1843 4250 2464 4250 
C 3187 4250 3712 3628 3834 2745 
C 3846 2668 3846 2655 3904 2655 
C 3974 2655 3974 2668 3974 2783 
L 3974 4289 
z
" transform="scale(0.015625)"/>
       <path id="CMR17-6f" d="M 2758 1356 
C 2758 2176 2163 2816 1466 2816 
C 768 2816 173 2176 173 1356 
C 173 551 768 -64 1466 -64 
C 2163 -64 2758 551 2758 1356 
z
M 1466 51 
C 1165 51 909 230 762 480 
C 602 767 582 1126 582 1408 
C 582 1677 595 2010 762 2298 
C 890 2509 1139 2714 1466 2714 
C 1754 2714 1997 2554 2150 2330 
C 2349 2029 2349 1607 2349 1408 
C 2349 1158 2336 775 2163 467 
C 1984 173 1709 51 1466 51 
z
" transform="scale(0.015625)"/>
      </defs>
      <use xlink:href="#CMR17-43" transform="scale(0.996264)"/>
      <use xlink:href="#CMR17-6f" transform="translate(66.509881 0) scale(0.996264)"/>
      <use xlink:href="#CMR17-73" transform="translate(112.200358 0) scale(0.996264)"/>
      <use xlink:href="#CMR17-74" transform="translate(148.001695 0) scale(0.996264)"/>
      <use xlink:href="#CMR17-73" transform="translate(183.282463 0) scale(0.996264)"/>
      <use xlink:href="#CMR17-28" transform="translate(249.159767 0) scale(0.996264)"/>
      <use xlink:href="#CMR17-6d" transform="translate(284.440535 0) scale(0.996264)"/>
      <use xlink:href="#CMR17-44" transform="translate(361.360125 0) scale(0.996264)"/>
      <use xlink:href="#CMR17-4b" transform="translate(431.753681 0) scale(0.996264)"/>
      <use xlink:href="#CMR17-4b" transform="translate(503.428458 0) scale(0.996264)"/>
      <use xlink:href="#CMR17-29" transform="translate(575.103235 0) scale(0.996264)"/>
     </g>
    </g>
   </g>
   <g id="PolyCollection_3"/>
   <g id="PolyCollection_4"/>
   <g id="line2d_37">
    <path d="M 116.341241 391.171462 
L 181.884596 391.572361 
L 247.427952 391.694242 
L 310.857005 392.321305 
L 376.400361 393.878487 
L 439.829415 398.175155 
L 505.37277 399.994848 
L 570.916126 402.113896 
L 630.116576 424.287612 
L 695.659932 472.148045 
L 759.088985 528.855185 
L 824.632341 561.746288 
L 888.061395 598.906525 
L 953.60475 633.997326 
L 1019.148106 627.158845 
L 1082.577159 627.501632 
L 1148.120515 629.770428 
L 1211.549569 630.069919 
L 1277.092924 627.6991 
L 1342.63628 627.791516 
" clip-path="url(#p1e6603b374)" style="fill: none; stroke: #734848; stroke-width: 1.5; stroke-linecap: round"/>
   </g>
   <g id="line2d_38">
    <path d="M 116.341241 389.454941 
L 181.884596 392.632465 
L 247.427952 398.997506 
L 310.857005 407.613272 
L 376.400361 418.859347 
L 439.829415 431.838454 
L 505.37277 447.182338 
L 570.916126 464.172104 
L 630.116576 480.595583 
L 695.659932 499.531992 
L 759.088985 518.130905 
L 824.632341 537.101724 
L 888.061395 554.727969 
L 953.60475 571.717735 
L 1019.148106 587.06162 
L 1082.577159 600.040726 
L 1148.120515 611.286802 
L 1211.549569 619.902568 
L 1277.092924 626.267608 
L 1342.63628 629.445133 
" clip-path="url(#p1e6603b374)" style="fill: none; stroke-dasharray: 5.55,2.4; stroke-dashoffset: 0; stroke: #734848; stroke-width: 1.5"/>
   </g>
   <g id="patch_7">
    <path d="M 55.026489 646.224445 
L 55.026489 377.227821 
" style="fill: none; stroke: #808080; stroke-width: 0.8; stroke-linejoin: miter; stroke-linecap: square"/>
   </g>
   <g id="patch_8">
    <path d="M 55.026489 646.224445 
L 1403.951032 646.224445 
" style="fill: none; stroke: #808080; stroke-width: 0.8; stroke-linejoin: miter; stroke-linecap: square"/>
   </g>
   <g id="legend_2">
    <g id="patch_9">
     <path d="M 582.723239 716.999741 
L 876.254282 716.999741 
Q 880.254282 716.999741 880.254282 712.999741 
L 880.254282 687.124108 
Q 880.254282 683.124108 876.254282 683.124108 
L 582.723239 683.124108 
Q 578.723239 683.124108 578.723239 687.124108 
L 578.723239 712.999741 
Q 578.723239 716.999741 582.723239 716.999741 
z
" style="fill: #ffffff; opacity: 0.8"/>
    </g>
    <g id="line2d_39">
     <path d="M 586.723239 698.124108 
L 606.723239 698.124108 
L 626.723239 698.124108 
" style="fill: none; stroke: #734848; stroke-width: 1.5; stroke-linecap: round"/>
    </g>
    <g id="text_39">
     <!-- costs -->
     <g style="fill: #262626" transform="translate(642.723239 705.124108) scale(0.2 -0.2)">
      <use xlink:href="#CMR17-63" transform="scale(0.996264)"/>
      <use xlink:href="#CMR17-6f" transform="translate(40.48566 0) scale(0.996264)"/>
      <use xlink:href="#CMR17-73" transform="translate(86.176138 0) scale(0.996264)"/>
      <use xlink:href="#CMR17-74" transform="translate(121.977475 0) scale(0.996264)"/>
      <use xlink:href="#CMR17-73" transform="translate(157.258243 0) scale(0.996264)"/>
     </g>
    </g>
    <g id="line2d_40">
     <path d="M 721.335143 698.124108 
L 741.335143 698.124108 
L 761.335143 698.124108 
" style="fill: none; stroke-dasharray: 5.55,2.4; stroke-dashoffset: 0; stroke: #734848; stroke-width: 1.5"/>
    </g>
    <g id="text_40">
     <!-- costs_scurve -->
     <g style="fill: #262626" transform="translate(777.335143 705.124108) scale(0.2 -0.2)">
      <use xlink:href="#CMR17-63" transform="scale(0.996264)"/>
      <use xlink:href="#CMR17-6f" transform="translate(40.48566 0) scale(0.996264)"/>
      <use xlink:href="#CMR17-73" transform="translate(86.176138 0) scale(0.996264)"/>
      <use xlink:href="#CMR17-74" transform="translate(121.977475 0) scale(0.996264)"/>
      <use xlink:href="#CMR17-73" transform="translate(157.258243 0) scale(0.996264)"/>
      <use xlink:href="#CMR17-73" transform="translate(225.9568 0) scale(0.996264)"/>
      <use xlink:href="#CMR17-63" transform="translate(261.758138 0) scale(0.996264)"/>
      <use xlink:href="#CMR17-75" transform="translate(302.243798 0) scale(0.996264)"/>
      <use xlink:href="#CMR17-72" transform="translate(353.139168 0) scale(0.996264)"/>
      <use xlink:href="#CMR17-76" transform="translate(388.419936 0) scale(0.996264)"/>
      <use xlink:href="#CMR17-65" transform="translate(434.110398 0) scale(0.996264)"/>
      <path d="M 198.54221 0 
L 225.9568 0 
L 225.9568 0.3985 
L 198.54221 0.3985 
L 198.54221 0 
z
"/>
     </g>
    </g>
   </g>
  </g>
  <g id="text_41">
   <!-- Job S309436 -->
   <g style="fill: #262626" transform="translate(660.159377 19.604645) scale(0.24 -0.24)">
    <defs>
     <path id="CMR17-4a" d="M 1888 910 
C 1888 324 1568 -26 1242 -26 
C 1075 -26 691 49 525 431 
C 550 425 582 418 608 418 
C 730 418 883 501 883 692 
C 883 845 774 960 614 960 
C 461 960 339 865 339 682 
C 339 258 730 -128 1254 -128 
C 1754 -128 2214 229 2291 764 
C 2298 809 2298 821 2298 1038 
L 2298 3715 
C 2298 3823 2298 4001 2310 4039 
C 2336 4160 2483 4160 2682 4160 
L 2682 4320 
C 2669 4320 2214 4320 2054 4320 
C 1786 4320 1491 4320 1222 4320 
L 1222 4160 
L 1376 4160 
C 1875 4160 1888 4090 1888 3861 
L 1888 910 
z
" transform="scale(0.015625)"/>
     <path id="CMR17-62" d="M 960 4396 
L 198 4326 
L 198 4160 
C 576 4160 634 4122 634 3817 
L 634 -13 
L 749 -13 
L 934 441 
C 1120 141 1395 -64 1766 -64 
C 2406 -64 3053 500 3053 1370 
C 3053 2188 2477 2790 1830 2790 
C 1434 2790 1152 2579 960 2330 
L 960 4396 
z
M 973 2004 
C 973 2118 973 2138 1062 2272 
C 1312 2657 1670 2688 1792 2688 
C 1984 2688 2643 2585 2643 1376 
C 2643 108 1888 38 1734 38 
C 1536 38 1248 114 1043 486 
C 973 608 973 621 973 735 
L 973 2004 
z
" transform="scale(0.015625)"/>
     <path id="CMR17-53" d="M 2803 4290 
C 2803 4404 2797 4411 2758 4411 
C 2720 4411 2707 4385 2682 4328 
L 2490 3907 
C 2246 4257 1875 4416 1472 4416 
C 819 4416 294 3901 294 3253 
C 294 3056 339 2776 557 2510 
C 794 2218 1018 2167 1530 2033 
C 1722 1982 2042 1899 2106 1874 
C 2470 1722 2662 1341 2662 985 
C 2662 527 2336 38 1779 38 
C 1094 38 454 419 410 1311 
C 403 1413 397 1419 352 1419 
C 301 1419 294 1413 294 1285 
L 294 -1 
C 294 -115 301 -122 339 -122 
C 384 -122 397 -90 486 108 
C 493 127 493 140 614 381 
C 934 -39 1472 -128 1779 -128 
C 2477 -128 2970 451 2970 1124 
C 2970 1454 2848 1708 2778 1823 
C 2509 2230 2221 2306 1914 2382 
C 1869 2402 1856 2402 1498 2490 
C 1152 2579 1005 2624 845 2796 
C 666 2992 602 3196 602 3399 
C 602 3812 934 4263 1478 4263 
C 2157 4263 2579 3786 2675 2993 
C 2694 2878 2701 2872 2746 2872 
C 2803 2872 2803 2891 2803 2999 
L 2803 4290 
z
" transform="scale(0.015625)"/>
     <path id="CMR17-36" d="M 678 2176 
C 678 3690 1395 4032 1811 4032 
C 1946 4032 2272 4009 2400 3776 
C 2298 3776 2106 3776 2106 3553 
C 2106 3381 2246 3323 2336 3323 
C 2394 3323 2566 3348 2566 3560 
C 2566 3954 2246 4179 1805 4179 
C 1043 4179 243 3390 243 1984 
C 243 253 966 -128 1478 -128 
C 2099 -128 2688 427 2688 1283 
C 2688 2081 2170 2662 1517 2662 
C 1126 2662 838 2407 678 1960 
L 678 2176 
z
M 1478 25 
C 691 25 691 1200 691 1436 
C 691 1896 909 2560 1504 2560 
C 1613 2560 1926 2560 2138 2120 
C 2253 1870 2253 1609 2253 1289 
C 2253 944 2253 690 2118 434 
C 1978 171 1773 25 1478 25 
z
" transform="scale(0.015625)"/>
    </defs>
    <use xlink:href="#CMR17-4a" transform="scale(0.996264)"/>
    <use xlink:href="#CMR17-6f" transform="translate(46.97179 0) scale(0.996264)"/>
    <use xlink:href="#CMR17-62" transform="translate(92.662267 0) scale(0.996264)"/>
    <use xlink:href="#CMR17-53" transform="translate(173.633603 0) scale(0.996264)"/>
    <use xlink:href="#CMR17-33" transform="translate(224.528973 0) scale(0.996264)"/>
    <use xlink:href="#CMR17-30" transform="translate(270.21945 0) scale(0.996264)"/>
    <use xlink:href="#CMR17-39" transform="translate(315.909927 0) scale(0.996264)"/>
    <use xlink:href="#CMR17-34" transform="translate(361.600404 0) scale(0.996264)"/>
    <use xlink:href="#CMR17-33" transform="translate(407.290881 0) scale(0.996264)"/>
    <use xlink:href="#CMR17-36" transform="translate(452.981358 0) scale(0.996264)"/>
   </g>
  </g>
 </g>
 <defs>
  <clipPath id="p451a66b95b">
   <rect x="55.026489" y="30.255883" width="1348.924543" height="268.996624"/>
  </clipPath>
  <clipPath id="p1e6603b374">
   <rect x="55.026489" y="377.227821" width="1348.924543" height="268.996624"/>
  </clipPath>
 </defs>
</svg>
