<?xml version="1.0" encoding="utf-8" standalone="no"?>
<!DOCTYPE svg PUBLIC "-//W3C//DTD SVG 1.1//EN"
  "http://www.w3.org/Graphics/SVG/1.1/DTD/svg11.dtd">
<svg xmlns:xlink="http://www.w3.org/1999/xlink" width="720pt" height="360pt" viewBox="0 0 720 360" xmlns="http://www.w3.org/2000/svg" version="1.1">
 <metadata>
  <rdf:RDF xmlns:dc="http://purl.org/dc/elements/1.1/" xmlns:cc="http://creativecommons.org/ns#" xmlns:rdf="http://www.w3.org/1999/02/22-rdf-syntax-ns#">
   <cc:Work>
    <dc:type rdf:resource="http://purl.org/dc/dcmitype/StillImage"/>
    <dc:date>2023-10-09T15:11:31.277761</dc:date>
    <dc:format>image/svg+xml</dc:format>
    <dc:creator>
     <cc:Agent>
      <dc:title>Matplotlib v3.6.3, https://matplotlib.org/</dc:title>
     </cc:Agent>
    </dc:creator>
   </cc:Work>
  </rdf:RDF>
 </metadata>
 <defs>
  <style type="text/css">*{stroke-linejoin: round; stroke-linecap: butt}</style>
 </defs>
 <g id="figure_1">
  <g id="patch_1">
   <path d="M 0 360 
L 720 360 
L 720 0 
L 0 0 
z
" style="fill: #ffffff"/>
  </g>
  <g id="axes_1">
   <g id="patch_2">
    <path d="M 42.048666 304.875083 
L 716.99976 304.875083 
L 716.99976 3.00024 
L 42.048666 3.00024 
z
" style="fill: #ffffff"/>
   </g>
   <g id="matplotlib.axis_1">
    <g id="xtick_1">
     <g id="line2d_1">
      <path d="M 93.059117 304.875083 
L 93.059117 3.00024 
" clip-path="url(#pd49a21762c)" style="fill: none; stroke: #cccccc; stroke-opacity: 0.35; stroke-width: 0.8; stroke-linecap: round"/>
     </g>
     <g id="text_1">
      <!-- $\mathdefault{2014}$ -->
      <g transform="translate(83.096447 315.293581) scale(0.1 -0.1)">
       <defs>
        <path id="CMR17-32" d="M 2669 989 
L 2554 989 
C 2490 536 2438 459 2413 420 
C 2381 369 1920 369 1830 369 
L 602 369 
C 832 619 1280 1072 1824 1597 
C 2214 1967 2669 2402 2669 3035 
C 2669 3790 2067 4224 1395 4224 
C 691 4224 262 3604 262 3030 
C 262 2780 448 2748 525 2748 
C 589 2748 781 2787 781 3010 
C 781 3207 614 3264 525 3264 
C 486 3264 448 3258 422 3245 
C 544 3790 915 4058 1306 4058 
C 1862 4058 2227 3617 2227 3035 
C 2227 2479 1901 2000 1536 1584 
L 262 146 
L 262 0 
L 2515 0 
L 2669 989 
z
" transform="scale(0.015625)"/>
        <path id="CMR17-30" d="M 2688 2025 
C 2688 2416 2682 3080 2413 3591 
C 2176 4039 1798 4198 1466 4198 
C 1158 4198 768 4058 525 3597 
C 269 3118 243 2524 243 2025 
C 243 1661 250 1106 448 619 
C 723 -39 1216 -128 1466 -128 
C 1760 -128 2208 -7 2470 600 
C 2662 1042 2688 1559 2688 2025 
z
M 1466 -26 
C 1056 -26 813 325 723 812 
C 653 1188 653 1738 653 2096 
C 653 2588 653 2997 736 3387 
C 858 3929 1216 4096 1466 4096 
C 1728 4096 2067 3923 2189 3400 
C 2272 3036 2278 2607 2278 2096 
C 2278 1680 2278 1169 2202 792 
C 2067 95 1690 -26 1466 -26 
z
" transform="scale(0.015625)"/>
        <path id="CMR17-31" d="M 1702 4058 
C 1702 4192 1696 4192 1606 4192 
C 1357 3916 979 3827 621 3827 
C 602 3827 570 3827 563 3808 
C 557 3795 557 3782 557 3648 
C 755 3648 1088 3686 1344 3839 
L 1344 461 
C 1344 236 1331 160 781 160 
L 589 160 
L 589 0 
C 896 0 1216 0 1523 0 
C 1830 0 2150 0 2458 0 
L 2458 160 
L 2266 160 
C 1715 160 1702 230 1702 458 
L 1702 4058 
z
" transform="scale(0.015625)"/>
        <path id="CMR17-34" d="M 2150 4122 
C 2150 4256 2144 4256 2029 4256 
L 128 1254 
L 128 1088 
L 1779 1088 
L 1779 457 
C 1779 224 1766 160 1318 160 
L 1197 160 
L 1197 0 
C 1402 0 1747 0 1965 0 
C 2182 0 2528 0 2733 0 
L 2733 160 
L 2611 160 
C 2163 160 2150 224 2150 457 
L 2150 1088 
L 2803 1088 
L 2803 1254 
L 2150 1254 
L 2150 4122 
z
M 1798 3703 
L 1798 1254 
L 256 1254 
L 1798 3703 
z
" transform="scale(0.015625)"/>
       </defs>
       <use xlink:href="#CMR17-32" transform="scale(0.996264)"/>
       <use xlink:href="#CMR17-30" transform="translate(45.690477 0) scale(0.996264)"/>
       <use xlink:href="#CMR17-31" transform="translate(91.380954 0) scale(0.996264)"/>
       <use xlink:href="#CMR17-34" transform="translate(137.071431 0) scale(0.996264)"/>
      </g>
     </g>
    </g>
    <g id="xtick_2">
     <g id="line2d_2">
      <path d="M 214.710961 304.875083 
L 214.710961 3.00024 
" clip-path="url(#pd49a21762c)" style="fill: none; stroke: #cccccc; stroke-opacity: 0.35; stroke-width: 0.8; stroke-linecap: round"/>
     </g>
     <g id="text_2">
      <!-- $\mathdefault{2016}$ -->
      <g transform="translate(204.748291 315.293581) scale(0.1 -0.1)">
       <defs>
        <path id="CMR17-36" d="M 678 2176 
C 678 3690 1395 4032 1811 4032 
C 1946 4032 2272 4009 2400 3776 
C 2298 3776 2106 3776 2106 3553 
C 2106 3381 2246 3323 2336 3323 
C 2394 3323 2566 3348 2566 3560 
C 2566 3954 2246 4179 1805 4179 
C 1043 4179 243 3390 243 1984 
C 243 253 966 -128 1478 -128 
C 2099 -128 2688 427 2688 1283 
C 2688 2081 2170 2662 1517 2662 
C 1126 2662 838 2407 678 1960 
L 678 2176 
z
M 1478 25 
C 691 25 691 1200 691 1436 
C 691 1896 909 2560 1504 2560 
C 1613 2560 1926 2560 2138 2120 
C 2253 1870 2253 1609 2253 1289 
C 2253 944 2253 690 2118 434 
C 1978 171 1773 25 1478 25 
z
" transform="scale(0.015625)"/>
       </defs>
       <use xlink:href="#CMR17-32" transform="scale(0.996264)"/>
       <use xlink:href="#CMR17-30" transform="translate(45.690477 0) scale(0.996264)"/>
       <use xlink:href="#CMR17-31" transform="translate(91.380954 0) scale(0.996264)"/>
       <use xlink:href="#CMR17-36" transform="translate(137.071431 0) scale(0.996264)"/>
      </g>
     </g>
    </g>
    <g id="xtick_3">
     <g id="line2d_3">
      <path d="M 336.529452 304.875083 
L 336.529452 3.00024 
" clip-path="url(#pd49a21762c)" style="fill: none; stroke: #cccccc; stroke-opacity: 0.35; stroke-width: 0.8; stroke-linecap: round"/>
     </g>
     <g id="text_3">
      <!-- $\mathdefault{2018}$ -->
      <g transform="translate(326.566781 315.293581) scale(0.1 -0.1)">
       <defs>
        <path id="CMR17-38" d="M 1741 2264 
C 2144 2467 2554 2773 2554 3263 
C 2554 3841 1990 4179 1472 4179 
C 890 4179 378 3759 378 3180 
C 378 3021 416 2747 666 2505 
C 730 2442 998 2251 1171 2130 
C 883 1983 211 1634 211 934 
C 211 279 838 -128 1459 -128 
C 2144 -128 2720 362 2720 1010 
C 2720 1590 2330 1857 2074 2029 
L 1741 2264 
z
M 902 2822 
C 851 2854 595 3051 595 3351 
C 595 3739 998 4032 1459 4032 
C 1965 4032 2336 3676 2336 3262 
C 2336 2669 1670 2331 1638 2331 
C 1632 2331 1626 2331 1574 2370 
L 902 2822 
z
M 2080 1519 
C 2176 1449 2483 1240 2483 851 
C 2483 381 2010 25 1472 25 
C 890 25 448 438 448 940 
C 448 1443 838 1862 1280 2060 
L 2080 1519 
z
" transform="scale(0.015625)"/>
       </defs>
       <use xlink:href="#CMR17-32" transform="scale(0.996264)"/>
       <use xlink:href="#CMR17-30" transform="translate(45.690477 0) scale(0.996264)"/>
       <use xlink:href="#CMR17-31" transform="translate(91.380954 0) scale(0.996264)"/>
       <use xlink:href="#CMR17-38" transform="translate(137.071431 0) scale(0.996264)"/>
      </g>
     </g>
    </g>
    <g id="xtick_4">
     <g id="line2d_4">
      <path d="M 458.181296 304.875083 
L 458.181296 3.00024 
" clip-path="url(#pd49a21762c)" style="fill: none; stroke: #cccccc; stroke-opacity: 0.35; stroke-width: 0.8; stroke-linecap: round"/>
     </g>
     <g id="text_4">
      <!-- $\mathdefault{2020}$ -->
      <g transform="translate(448.218625 315.293581) scale(0.1 -0.1)">
       <use xlink:href="#CMR17-32" transform="scale(0.996264)"/>
       <use xlink:href="#CMR17-30" transform="translate(45.690477 0) scale(0.996264)"/>
       <use xlink:href="#CMR17-32" transform="translate(91.380954 0) scale(0.996264)"/>
       <use xlink:href="#CMR17-30" transform="translate(137.071431 0) scale(0.996264)"/>
      </g>
     </g>
    </g>
    <g id="xtick_5">
     <g id="line2d_5">
      <path d="M 579.999786 304.875083 
L 579.999786 3.00024 
" clip-path="url(#pd49a21762c)" style="fill: none; stroke: #cccccc; stroke-opacity: 0.35; stroke-width: 0.8; stroke-linecap: round"/>
     </g>
     <g id="text_5">
      <!-- $\mathdefault{2022}$ -->
      <g transform="translate(570.037116 315.293581) scale(0.1 -0.1)">
       <use xlink:href="#CMR17-32" transform="scale(0.996264)"/>
       <use xlink:href="#CMR17-30" transform="translate(45.690477 0) scale(0.996264)"/>
       <use xlink:href="#CMR17-32" transform="translate(91.380954 0) scale(0.996264)"/>
       <use xlink:href="#CMR17-32" transform="translate(137.071431 0) scale(0.996264)"/>
      </g>
     </g>
    </g>
    <g id="xtick_6">
     <g id="line2d_6">
      <path d="M 701.65163 304.875083 
L 701.65163 3.00024 
" clip-path="url(#pd49a21762c)" style="fill: none; stroke: #cccccc; stroke-opacity: 0.35; stroke-width: 0.8; stroke-linecap: round"/>
     </g>
     <g id="text_6">
      <!-- $\mathdefault{2024}$ -->
      <g transform="translate(691.68896 315.293581) scale(0.1 -0.1)">
       <use xlink:href="#CMR17-32" transform="scale(0.996264)"/>
       <use xlink:href="#CMR17-30" transform="translate(45.690477 0) scale(0.996264)"/>
       <use xlink:href="#CMR17-32" transform="translate(91.380954 0) scale(0.996264)"/>
       <use xlink:href="#CMR17-34" transform="translate(137.071431 0) scale(0.996264)"/>
      </g>
     </g>
    </g>
    <g id="text_7">
     <!-- Date -->
     <g style="fill: #696969" transform="translate(369.077259 328.149258) scale(0.1 -0.1)">
      <defs>
       <path id="CMR17-44" d="M 333 4352 
L 333 4186 
C 774 4186 845 4186 845 3900 
L 845 452 
C 845 166 774 166 333 166 
L 333 0 
L 2368 0 
C 3398 0 4224 943 4224 2141 
C 4224 3346 3411 4352 2368 4352 
L 333 4352 
z
M 1523 166 
C 1267 166 1254 197 1254 414 
L 1254 3938 
C 1254 4155 1267 4186 1523 4186 
L 2240 4186 
C 2771 4186 3750 3874 3750 2141 
C 3750 1242 3488 879 3366 707 
C 3213 510 2848 166 2240 166 
L 1523 166 
z
" transform="scale(0.015625)"/>
       <path id="CMR17-61" d="M 2304 1653 
C 2304 2072 2304 2294 2035 2543 
C 1798 2752 1523 2816 1306 2816 
C 800 2816 435 2407 435 1971 
C 435 1728 627 1728 666 1728 
C 749 1728 896 1778 896 1954 
C 896 2112 774 2181 666 2181 
C 640 2181 608 2174 589 2168 
C 723 2592 1069 2714 1293 2714 
C 1613 2714 1965 2429 1965 1885 
L 1965 1600 
C 1587 1600 1133 1549 774 1357 
C 371 1133 256 813 256 570 
C 256 77 832 -64 1171 -64 
C 1523 -64 1850 139 1990 511 
C 2003 233 2182 -18 2464 -18 
C 2598 -18 2938 70 2938 567 
L 2938 920 
L 2822 920 
L 2822 562 
C 2822 178 2650 128 2566 128 
C 2304 128 2304 458 2304 738 
L 2304 1653 
z
M 1965 870 
C 1965 317 1568 38 1216 38 
C 896 38 646 275 646 570 
C 646 761 730 1100 1101 1305 
C 1408 1478 1760 1504 1965 1504 
L 1965 870 
z
" transform="scale(0.015625)"/>
       <path id="CMR17-74" d="M 966 2560 
L 1862 2560 
L 1862 2725 
L 966 2725 
L 966 3904 
L 851 3904 
C 838 3245 614 2668 70 2668 
L 70 2560 
L 627 2560 
L 627 771 
C 627 650 627 -64 1370 -64 
C 1747 -64 1965 306 1965 777 
L 1965 1140 
L 1850 1140 
L 1850 783 
C 1850 344 1677 51 1408 51 
C 1222 51 966 178 966 758 
L 966 2560 
z
" transform="scale(0.015625)"/>
       <path id="CMR17-65" d="M 2438 1472 
C 2464 1498 2464 1511 2464 1576 
C 2464 2238 2118 2816 1389 2816 
C 710 2816 173 2169 173 1383 
C 173 551 781 -64 1459 -64 
C 2176 -64 2458 607 2458 740 
C 2458 784 2419 784 2406 784 
C 2362 784 2355 771 2330 696 
C 2189 265 1837 51 1504 51 
C 1229 51 954 203 781 480 
C 582 803 582 1176 582 1472 
L 2438 1472 
z
M 589 1568 
C 634 2505 1126 2714 1382 2714 
C 1818 2714 2112 2297 2118 1568 
L 589 1568 
z
" transform="scale(0.015625)"/>
      </defs>
      <use xlink:href="#CMR17-44" transform="scale(0.996264)"/>
      <use xlink:href="#CMR17-61" transform="translate(70.393556 0) scale(0.996264)"/>
      <use xlink:href="#CMR17-74" transform="translate(116.084033 0) scale(0.996264)"/>
      <use xlink:href="#CMR17-65" transform="translate(151.364801 0) scale(0.996264)"/>
     </g>
    </g>
   </g>
   <g id="matplotlib.axis_2">
    <g id="ytick_1">
     <g id="line2d_7">
      <path d="M 42.048666 297.44214 
L 716.99976 297.44214 
" clip-path="url(#pd49a21762c)" style="fill: none; stroke: #cccccc; stroke-opacity: 0.35; stroke-width: 0.8; stroke-linecap: round"/>
     </g>
     <g id="text_8">
      <!-- $\mathdefault{−400}$ -->
      <g transform="translate(15.855917 300.901389) scale(0.1 -0.1)">
       <defs>
        <path id="CMSY10-0" d="M 4218 1472 
C 4326 1472 4442 1472 4442 1600 
C 4442 1728 4326 1728 4218 1728 
L 755 1728 
C 646 1728 531 1728 531 1600 
C 531 1472 646 1472 755 1472 
L 4218 1472 
z
" transform="scale(0.015625)"/>
       </defs>
       <use xlink:href="#CMSY10-0" transform="scale(0.996264)"/>
       <use xlink:href="#CMR17-34" transform="translate(77.487468 0) scale(0.996264)"/>
       <use xlink:href="#CMR17-30" transform="translate(123.177945 0) scale(0.996264)"/>
       <use xlink:href="#CMR17-30" transform="translate(168.868422 0) scale(0.996264)"/>
      </g>
     </g>
    </g>
    <g id="ytick_2">
     <g id="line2d_8">
      <path d="M 42.048666 261.775142 
L 716.99976 261.775142 
" clip-path="url(#pd49a21762c)" style="fill: none; stroke: #cccccc; stroke-opacity: 0.35; stroke-width: 0.8; stroke-linecap: round"/>
     </g>
     <g id="text_9">
      <!-- $\mathdefault{−300}$ -->
      <g transform="translate(15.855917 265.234391) scale(0.1 -0.1)">
       <defs>
        <path id="CMR17-33" d="M 1414 2157 
C 1984 2157 2234 1662 2234 1090 
C 2234 320 1824 25 1453 25 
C 1114 25 563 194 390 693 
C 422 680 454 680 486 680 
C 640 680 755 782 755 948 
C 755 1133 614 1216 486 1216 
C 378 1216 211 1165 211 926 
C 211 335 787 -128 1466 -128 
C 2176 -128 2720 430 2720 1085 
C 2720 1707 2208 2157 1600 2227 
C 2086 2328 2554 2756 2554 3329 
C 2554 3820 2048 4179 1472 4179 
C 890 4179 378 3829 378 3329 
C 378 3110 544 3072 627 3072 
C 762 3072 877 3155 877 3321 
C 877 3486 762 3569 627 3569 
C 602 3569 570 3569 544 3557 
C 730 3959 1235 4032 1459 4032 
C 1683 4032 2106 3925 2106 3320 
C 2106 3143 2080 2828 1862 2550 
C 1670 2304 1453 2304 1242 2284 
C 1210 2284 1062 2269 1037 2269 
C 992 2263 966 2257 966 2208 
C 966 2163 973 2157 1101 2157 
L 1414 2157 
z
" transform="scale(0.015625)"/>
       </defs>
       <use xlink:href="#CMSY10-0" transform="scale(0.996264)"/>
       <use xlink:href="#CMR17-33" transform="translate(77.487468 0) scale(0.996264)"/>
       <use xlink:href="#CMR17-30" transform="translate(123.177945 0) scale(0.996264)"/>
       <use xlink:href="#CMR17-30" transform="translate(168.868422 0) scale(0.996264)"/>
      </g>
     </g>
    </g>
    <g id="ytick_3">
     <g id="line2d_9">
      <path d="M 42.048666 226.108144 
L 716.99976 226.108144 
" clip-path="url(#pd49a21762c)" style="fill: none; stroke: #cccccc; stroke-opacity: 0.35; stroke-width: 0.8; stroke-linecap: round"/>
     </g>
     <g id="text_10">
      <!-- $\mathdefault{−200}$ -->
      <g transform="translate(15.855917 229.567393) scale(0.1 -0.1)">
       <use xlink:href="#CMSY10-0" transform="scale(0.996264)"/>
       <use xlink:href="#CMR17-32" transform="translate(77.487468 0) scale(0.996264)"/>
       <use xlink:href="#CMR17-30" transform="translate(123.177945 0) scale(0.996264)"/>
       <use xlink:href="#CMR17-30" transform="translate(168.868422 0) scale(0.996264)"/>
      </g>
     </g>
    </g>
    <g id="ytick_4">
     <g id="line2d_10">
      <path d="M 42.048666 190.441146 
L 716.99976 190.441146 
" clip-path="url(#pd49a21762c)" style="fill: none; stroke: #cccccc; stroke-opacity: 0.35; stroke-width: 0.8; stroke-linecap: round"/>
     </g>
     <g id="text_11">
      <!-- $\mathdefault{−100}$ -->
      <g transform="translate(15.855917 193.900396) scale(0.1 -0.1)">
       <use xlink:href="#CMSY10-0" transform="scale(0.996264)"/>
       <use xlink:href="#CMR17-31" transform="translate(77.487468 0) scale(0.996264)"/>
       <use xlink:href="#CMR17-30" transform="translate(123.177945 0) scale(0.996264)"/>
       <use xlink:href="#CMR17-30" transform="translate(168.868422 0) scale(0.996264)"/>
      </g>
     </g>
    </g>
    <g id="ytick_5">
     <g id="line2d_11">
      <path d="M 42.048666 154.774148 
L 716.99976 154.774148 
" clip-path="url(#pd49a21762c)" style="fill: none; stroke: #cccccc; stroke-opacity: 0.35; stroke-width: 0.8; stroke-linecap: round"/>
     </g>
     <g id="text_12">
      <!-- $\mathdefault{0}$ -->
      <g transform="translate(33.567331 158.233398) scale(0.1 -0.1)">
       <use xlink:href="#CMR17-30" transform="scale(0.996264)"/>
      </g>
     </g>
    </g>
    <g id="ytick_6">
     <g id="line2d_12">
      <path d="M 42.048666 119.10715 
L 716.99976 119.10715 
" clip-path="url(#pd49a21762c)" style="fill: none; stroke: #cccccc; stroke-opacity: 0.35; stroke-width: 0.8; stroke-linecap: round"/>
     </g>
     <g id="text_13">
      <!-- $\mathdefault{100}$ -->
      <g transform="translate(23.60466 122.5664) scale(0.1 -0.1)">
       <use xlink:href="#CMR17-31" transform="scale(0.996264)"/>
       <use xlink:href="#CMR17-30" transform="translate(45.690477 0) scale(0.996264)"/>
       <use xlink:href="#CMR17-30" transform="translate(91.380954 0) scale(0.996264)"/>
      </g>
     </g>
    </g>
    <g id="ytick_7">
     <g id="line2d_13">
      <path d="M 42.048666 83.440153 
L 716.99976 83.440153 
" clip-path="url(#pd49a21762c)" style="fill: none; stroke: #cccccc; stroke-opacity: 0.35; stroke-width: 0.8; stroke-linecap: round"/>
     </g>
     <g id="text_14">
      <!-- $\mathdefault{200}$ -->
      <g transform="translate(23.60466 86.899402) scale(0.1 -0.1)">
       <use xlink:href="#CMR17-32" transform="scale(0.996264)"/>
       <use xlink:href="#CMR17-30" transform="translate(45.690477 0) scale(0.996264)"/>
       <use xlink:href="#CMR17-30" transform="translate(91.380954 0) scale(0.996264)"/>
      </g>
     </g>
    </g>
    <g id="ytick_8">
     <g id="line2d_14">
      <path d="M 42.048666 47.773155 
L 716.99976 47.773155 
" clip-path="url(#pd49a21762c)" style="fill: none; stroke: #cccccc; stroke-opacity: 0.35; stroke-width: 0.8; stroke-linecap: round"/>
     </g>
     <g id="text_15">
      <!-- $\mathdefault{300}$ -->
      <g transform="translate(23.60466 51.232404) scale(0.1 -0.1)">
       <use xlink:href="#CMR17-33" transform="scale(0.996264)"/>
       <use xlink:href="#CMR17-30" transform="translate(45.690477 0) scale(0.996264)"/>
       <use xlink:href="#CMR17-30" transform="translate(91.380954 0) scale(0.996264)"/>
      </g>
     </g>
    </g>
    <g id="ytick_9">
     <g id="line2d_15">
      <path d="M 42.048666 12.106157 
L 716.99976 12.106157 
" clip-path="url(#pd49a21762c)" style="fill: none; stroke: #cccccc; stroke-opacity: 0.35; stroke-width: 0.8; stroke-linecap: round"/>
     </g>
     <g id="text_16">
      <!-- $\mathdefault{400}$ -->
      <g transform="translate(23.60466 15.565406) scale(0.1 -0.1)">
       <use xlink:href="#CMR17-34" transform="scale(0.996264)"/>
       <use xlink:href="#CMR17-30" transform="translate(45.690477 0) scale(0.996264)"/>
       <use xlink:href="#CMR17-30" transform="translate(91.380954 0) scale(0.996264)"/>
      </g>
     </g>
    </g>
    <g id="text_17">
     <!-- Risk -->
     <g style="fill: #696969" transform="translate(9.918738 163.582067) rotate(-90) scale(0.1 -0.1)">
      <defs>
       <path id="CMR17-52" d="M 2509 2146 
C 3117 2268 3629 2676 3629 3186 
C 3629 3785 2950 4326 2054 4326 
L 333 4326 
L 333 4160 
C 774 4160 845 4160 845 3873 
L 845 415 
C 845 128 774 128 333 128 
L 333 -26 
C 518 -26 851 -26 1050 -26 
C 1248 -26 1581 -26 1766 -26 
L 1766 128 
C 1325 128 1254 128 1254 417 
L 1254 2112 
L 2003 2112 
C 2368 2112 2573 1964 2662 1881 
C 2918 1632 2918 1459 2918 1024 
C 2918 595 2918 377 3110 160 
C 3354 -102 3680 -128 3821 -128 
C 4294 -128 4365 396 4365 503 
C 4365 540 4365 585 4307 585 
C 4256 585 4250 547 4250 522 
C 4218 112 4032 -26 3834 -26 
C 3482 -26 3443 375 3405 764 
C 3386 898 3373 993 3360 1133 
C 3322 1452 3270 1917 2509 2146 
z
M 1984 2214 
L 1254 2214 
L 1254 3913 
C 1254 4129 1267 4160 1523 4160 
L 1990 4160 
C 2522 4160 3142 3977 3142 3190 
C 3142 2372 2464 2214 1984 2214 
z
" transform="scale(0.015625)"/>
       <path id="CMR17-69" d="M 992 3909 
C 992 4049 877 4170 730 4170 
C 589 4170 467 4056 467 3909 
C 467 3769 582 3648 730 3648 
C 870 3648 992 3763 992 3909 
z
M 243 2706 
L 243 2541 
C 602 2541 653 2502 653 2197 
L 653 427 
C 653 184 627 153 218 153 
L 218 -13 
C 371 0 646 0 806 0 
C 960 0 1222 0 1370 -13 
L 1370 153 
C 992 153 979 191 979 420 
L 979 2776 
L 243 2706 
z
" transform="scale(0.015625)"/>
       <path id="CMR17-73" d="M 1978 2697 
C 1978 2813 1971 2819 1933 2819 
C 1907 2819 1901 2813 1824 2717 
C 1805 2691 1747 2626 1728 2601 
C 1523 2819 1235 2819 1126 2819 
C 416 2819 160 2447 160 2076 
C 160 1498 813 1365 998 1325 
C 1402 1243 1542 1217 1677 1101 
C 1760 1025 1901 884 1901 654 
C 1901 384 1747 38 1158 38 
C 602 38 403 460 288 1021 
C 269 1110 269 1117 218 1117 
C 166 1117 160 1110 160 983 
L 160 63 
C 160 -51 166 -58 205 -58 
C 237 -58 243 -51 275 0 
C 314 57 410 211 448 276 
C 576 103 800 -64 1158 -64 
C 1792 -64 2131 283 2131 784 
C 2131 1112 1958 1285 1875 1362 
C 1683 1561 1459 1606 1190 1657 
C 838 1735 390 1825 390 2217 
C 390 2383 480 2737 1126 2737 
C 1811 2737 1850 2094 1862 1888 
C 1869 1856 1901 1849 1920 1849 
C 1978 1849 1978 1869 1978 1978 
L 1978 2697 
z
" transform="scale(0.015625)"/>
       <path id="CMR17-6b" d="M 1670 1673 
C 1664 1686 1632 1724 1632 1743 
C 1632 1756 2086 2171 2144 2222 
C 2509 2528 2739 2560 2906 2560 
L 2906 2733 
C 2867 2733 2854 2733 2848 2720 
L 2534 2720 
C 2355 2720 2080 2720 1907 2733 
L 1907 2566 
C 1997 2559 2061 2508 2061 2419 
C 2061 2291 1933 2170 1926 2170 
L 960 1289 
L 960 4396 
L 198 4326 
L 198 4160 
C 576 4160 634 4122 634 3817 
L 634 426 
C 634 184 608 153 198 153 
L 198 -13 
C 352 0 634 0 794 0 
C 954 0 1235 0 1389 -13 
L 1389 153 
C 979 153 954 178 954 428 
L 954 1130 
L 1395 1532 
L 2042 574 
C 2118 459 2182 369 2182 286 
C 2182 172 2067 153 1990 153 
L 1990 -13 
C 2144 0 2419 0 2579 0 
C 2694 0 2931 0 3040 0 
L 3040 153 
C 2739 153 2669 210 2477 491 
L 1670 1673 
z
" transform="scale(0.015625)"/>
      </defs>
      <use xlink:href="#CMR17-52" transform="scale(0.996264)"/>
      <use xlink:href="#CMR17-69" transform="translate(67.791102 0) scale(0.996264)"/>
      <use xlink:href="#CMR17-73" transform="translate(92.66216 0) scale(0.996264)"/>
      <use xlink:href="#CMR17-6b" transform="translate(128.463498 0) scale(0.996264)"/>
     </g>
    </g>
   </g>
   <g id="PolyCollection_1">
    <defs>
     <path id="m272babde26" d="M 82.893689 -332.375893 
L 82.893689 -316.906154 
L 87.89308 -306.059986 
L 93.059117 -304.669568 
L 98.225155 -212.018254 
L 102.891253 -212.093992 
L 108.05729 -212.507196 
L 113.056681 -206.137917 
L 118.222718 -220.257235 
L 123.222109 -193.065699 
L 128.388146 -207.961108 
L 133.554183 -215.190559 
L 138.553574 -211.358269 
L 143.719611 -211.375893 
L 148.719002 -248.682101 
L 153.885039 -191.983687 
L 159.051077 -194.911093 
L 163.717175 -201.349595 
L 168.883212 -199.834726 
L 173.882603 -187.780241 
L 179.04864 -197.687984 
L 184.048031 -193.53567 
L 189.214068 -175.069573 
L 194.380105 -174.176759 
L 199.379496 -157.414189 
L 204.545533 -174.929001 
L 209.544924 -160.295469 
L 214.710961 -209.053673 
L 219.876999 -210.333636 
L 224.709743 -211.133369 
L 229.87578 -216.62437 
L 234.875171 -208.362201 
L 240.041208 -175.858917 
L 245.040599 -163.277661 
L 250.206636 -203.354652 
L 255.372674 -192.838593 
L 260.372065 -153.961511 
L 265.538102 -175.601291 
L 270.537493 -206.134962 
L 275.70353 -164.418378 
L 280.869567 -205.561753 
L 285.535665 -187.177626 
L 290.701702 -173.219724 
L 295.701093 -185.699877 
L 300.86713 -188.018834 
L 305.866521 -174.739354 
L 311.032558 -191.143007 
L 316.198596 -176.608686 
L 321.197987 -205.399278 
L 326.364024 -164.243927 
L 331.363415 -170.95256 
L 336.529452 -156.14315 
L 341.695489 -185.390758 
L 346.361587 -199.668764 
L 351.527624 -204.355651 
L 356.527015 -202.608158 
L 361.693052 -203.543391 
L 366.692443 -200.630338 
L 371.85848 -193.645117 
L 377.024518 -191.989666 
L 382.023909 -192.445105 
L 387.189946 -190.720158 
L 392.189337 -187.280981 
L 397.355374 -195.383201 
L 402.521411 -195.860446 
L 407.187509 -195.702108 
L 412.353546 -193.129323 
L 417.352937 -191.594049 
L 422.518974 -194.355317 
L 427.518365 -190.738525 
L 432.684402 -193.628596 
L 437.85044 -199.305315 
L 442.849831 -202.946718 
L 448.015868 -203.807616 
L 453.015259 -204.039807 
L 458.181296 -204.563552 
L 463.347333 -203.342226 
L 468.180077 -198.816877 
L 473.346115 -193.610313 
L 478.345506 -194.999917 
L 483.511543 -203.975321 
L 488.510934 -193.541164 
L 493.676971 -201.807549 
L 498.843008 -199.207288 
L 503.842399 -193.440519 
L 509.008436 -193.032311 
L 514.007827 -192.280569 
L 519.173864 -207.749989 
L 524.339901 -207.715006 
L 529.005999 -209.07519 
L 534.172037 -208.34251 
L 539.171428 -208.213473 
L 544.337465 -204.761411 
L 549.336856 -199.443127 
L 554.502893 -204.819937 
L 559.66893 -202.316278 
L 564.668321 -188.17484 
L 569.834358 -158.423169 
L 574.833749 -201.614631 
L 579.999786 -206.233994 
L 585.165823 -193.155893 
L 589.831921 -183.725194 
L 594.997959 -150.767354 
L 599.99735 -199.722305 
L 605.163387 -198.908852 
L 610.162778 -194.675445 
L 615.328815 -201.509157 
L 620.494852 -203.120979 
L 625.494243 -157.241257 
L 630.66028 -175.070358 
L 635.659671 -201.110681 
L 640.825708 -171.176232 
L 645.991745 -107.337528 
L 650.657843 -76.959632 
L 655.823881 -68.846501 
L 660.823271 -72.529619 
L 665.989309 -143.420713 
L 670.9887 -202.538657 
L 676.154737 -201.764329 
L 681.320774 -93.783569 
L 686.320165 -117.887089 
L 686.320165 -207.325213 
L 686.320165 -207.325213 
L 681.320774 -201.510521 
L 676.154737 -223.45175 
L 670.9887 -210.378532 
L 665.989309 -208.096009 
L 660.823271 -202.262757 
L 655.823881 -204.898219 
L 650.657843 -197.264673 
L 645.991745 -194.853587 
L 640.825708 -207.8118 
L 635.659671 -269.435011 
L 630.66028 -200.403459 
L 625.494243 -201.426488 
L 620.494852 -237.510378 
L 615.328815 -215.41557 
L 610.162778 -239.333177 
L 605.163387 -240.614998 
L 599.99735 -243.029159 
L 594.997959 -202.369422 
L 589.831921 -211.511917 
L 585.165823 -222.481199 
L 579.999786 -240.672726 
L 574.833749 -219.816001 
L 569.834358 -206.046216 
L 564.668321 -209.004168 
L 559.66893 -261.62359 
L 554.502893 -244.233892 
L 549.336856 -213.731733 
L 544.337465 -248.532978 
L 539.171428 -295.991952 
L 534.172037 -263.369008 
L 529.005999 -255.442757 
L 524.339901 -237.050135 
L 519.173864 -241.779691 
L 514.007827 -268.536911 
L 509.008436 -258.712478 
L 503.842399 -265.252901 
L 498.843008 -276.917424 
L 493.676971 -228.41489 
L 488.510934 -205.851383 
L 483.511543 -209.438531 
L 478.345506 -206.171459 
L 473.346115 -206.397948 
L 468.180077 -205.690337 
L 463.347333 -206.773047 
L 458.181296 -216.70093 
L 453.015259 -222.800866 
L 448.015868 -215.716826 
L 442.849831 -208.21046 
L 437.85044 -208.467664 
L 432.684402 -209.01984 
L 427.518365 -209.755919 
L 422.518974 -207.958545 
L 417.352937 -207.878545 
L 412.353546 -208.987822 
L 407.187509 -208.184089 
L 402.521411 -207.642499 
L 397.355374 -208.178313 
L 392.189337 -207.665863 
L 387.189946 -206.543234 
L 382.023909 -209.768888 
L 377.024518 -210.078623 
L 371.85848 -214.876707 
L 366.692443 -219.641228 
L 361.693052 -222.244183 
L 356.527015 -224.122135 
L 351.527624 -228.887119 
L 346.361587 -223.284302 
L 341.695489 -224.100996 
L 336.529452 -225.810481 
L 331.363415 -219.617784 
L 326.364024 -219.290815 
L 321.197987 -212.454315 
L 316.198596 -210.475857 
L 311.032558 -208.633918 
L 305.866521 -205.123448 
L 300.86713 -206.09109 
L 295.701093 -206.124585 
L 290.701702 -207.403761 
L 285.535665 -206.302409 
L 280.869567 -213.571595 
L 275.70353 -205.621829 
L 270.537493 -230.737135 
L 265.538102 -205.301447 
L 260.372065 -204.648393 
L 255.372674 -213.858428 
L 250.206636 -229.480871 
L 245.040599 -205.71796 
L 240.041208 -209.069177 
L 234.875171 -239.373196 
L 229.87578 -310.25012 
L 224.709743 -273.907078 
L 219.876999 -257.858773 
L 214.710961 -243.25373 
L 209.544924 -201.225451 
L 204.545533 -203.944702 
L 199.379496 -198.471339 
L 194.380105 -209.503644 
L 189.214068 -202.592126 
L 184.048031 -207.877842 
L 179.04864 -209.58968 
L 173.882603 -208.930865 
L 168.883212 -233.817469 
L 163.717175 -252.97805 
L 159.051077 -230.502369 
L 153.885039 -246.547322 
L 148.719002 -339.624634 
L 143.719611 -315.992415 
L 138.553574 -343.278176 
L 133.554183 -306.070573 
L 128.388146 -302.352359 
L 123.222109 -315.82585 
L 118.222718 -323.461049 
L 113.056681 -317.103591 
L 108.05729 -322.732354 
L 102.891253 -323.949604 
L 98.225155 -326.369815 
L 93.059117 -332.024359 
L 87.89308 -332.413548 
L 82.893689 -332.375893 
z
" style="stroke: #006e64; stroke-opacity: 0.2"/>
    </defs>
    <g clip-path="url(#pd49a21762c)">
     <use xlink:href="#m272babde26" x="0" y="360" style="fill: #006e64; fill-opacity: 0.2; stroke: #006e64; stroke-opacity: 0.2"/>
    </g>
   </g>
   <g id="PolyCollection_2">
    <defs>
     <path id="m1a67613f75" d="M 163.717175 -211.480367 
L 163.717175 -205.167974 
L 168.883212 -205.807605 
L 173.882603 -205.339432 
L 179.04864 -205.533568 
L 184.048031 -205.726246 
L 189.214068 -205.50456 
L 194.380105 -205.162361 
L 199.379496 -204.966502 
L 204.545533 -204.377422 
L 209.544924 -205.253721 
L 214.710961 -205.285168 
L 219.876999 -205.107316 
L 224.709743 -204.974536 
L 229.87578 -205.124319 
L 234.875171 -204.931978 
L 240.041208 -204.89484 
L 245.040599 -204.887549 
L 250.206636 -204.603691 
L 255.372674 -204.673335 
L 260.372065 -205.236495 
L 265.538102 -205.518058 
L 270.537493 -205.511324 
L 275.70353 -205.303232 
L 280.869567 -205.61592 
L 285.535665 -205.464772 
L 290.701702 -204.613733 
L 295.701093 -205.631603 
L 300.86713 -204.982733 
L 305.866521 -205.507455 
L 311.032558 -205.216362 
L 316.198596 -205.206642 
L 321.197987 -205.231688 
L 326.364024 -203.857907 
L 331.363415 -204.451518 
L 336.529452 -204.366845 
L 341.695489 -201.32991 
L 346.361587 -190.246787 
L 351.527624 -193.688627 
L 356.527015 -203.81894 
L 361.693052 -204.405036 
L 366.692443 -203.218067 
L 371.85848 -204.734064 
L 377.024518 -205.22005 
L 382.023909 -195.347542 
L 387.189946 -195.980577 
L 392.189337 -182.863614 
L 397.355374 -176.736398 
L 402.521411 -170.201151 
L 407.187509 -165.61487 
L 412.353546 -171.359463 
L 417.352937 -179.193617 
L 422.518974 -177.304851 
L 427.518365 -184.276396 
L 432.684402 -189.142751 
L 437.85044 -158.629842 
L 442.849831 -171.408945 
L 448.015868 -172.770628 
L 453.015259 -172.667363 
L 458.181296 -182.569103 
L 463.347333 -181.657288 
L 468.180077 -203.049679 
L 473.346115 -204.960894 
L 478.345506 -204.643822 
L 483.511543 -206.200175 
L 488.510934 -207.107811 
L 493.676971 -205.618034 
L 498.843008 -204.130239 
L 503.842399 -195.72223 
L 509.008436 -186.496797 
L 514.007827 -170.407256 
L 519.173864 -174.197376 
L 524.339901 -175.706302 
L 529.005999 -204.445969 
L 534.172037 -211.998031 
L 539.171428 -211.093687 
L 544.337465 -210.589907 
L 549.336856 -208.585673 
L 554.502893 -206.589282 
L 559.66893 -204.90385 
L 564.668321 -204.829764 
L 569.834358 -208.200945 
L 574.833749 -208.907759 
L 579.999786 -211.970083 
L 585.165823 -203.39558 
L 589.831921 -200.047022 
L 594.997959 -202.734802 
L 599.99735 -200.690463 
L 605.163387 -198.95012 
L 610.162778 -191.375858 
L 615.328815 -192.482431 
L 620.494852 -196.924307 
L 625.494243 -191.243156 
L 630.66028 -190.837723 
L 635.659671 -179.551604 
L 640.825708 -152.498261 
L 645.991745 -173.299429 
L 650.657843 -172.674194 
L 655.823881 -165.415639 
L 660.823271 -163.415332 
L 665.989309 -167.167482 
L 670.9887 -156.347127 
L 676.154737 -147.126495 
L 681.320774 -161.082247 
L 686.320165 -166.500233 
L 686.320165 -200.175973 
L 686.320165 -200.175973 
L 681.320774 -193.815492 
L 676.154737 -191.249439 
L 670.9887 -197.364548 
L 665.989309 -207.121968 
L 660.823271 -200.313859 
L 655.823881 -204.523858 
L 650.657843 -206.872305 
L 645.991745 -203.764639 
L 640.825708 -196.362887 
L 635.659671 -202.854786 
L 630.66028 -208.57083 
L 625.494243 -210.108011 
L 620.494852 -212.483784 
L 615.328815 -209.946679 
L 610.162778 -206.310346 
L 605.163387 -207.515694 
L 599.99735 -217.700235 
L 594.997959 -221.363746 
L 589.831921 -222.534255 
L 585.165823 -234.115455 
L 579.999786 -254.681287 
L 574.833749 -222.681329 
L 569.834358 -223.668672 
L 564.668321 -219.185785 
L 559.66893 -239.61604 
L 554.502893 -237.377135 
L 549.336856 -235.657144 
L 544.337465 -243.639826 
L 539.171428 -249.639133 
L 534.172037 -249.757431 
L 529.005999 -217.589056 
L 524.339901 -212.706259 
L 519.173864 -207.562763 
L 514.007827 -209.83368 
L 509.008436 -211.088347 
L 503.842399 -213.5499 
L 498.843008 -212.328013 
L 493.676971 -215.684309 
L 488.510934 -228.703908 
L 483.511543 -236.561016 
L 478.345506 -230.495193 
L 473.346115 -223.756557 
L 468.180077 -215.134757 
L 463.347333 -205.859158 
L 458.181296 -207.109393 
L 453.015259 -206.582268 
L 448.015868 -205.544042 
L 442.849831 -205.549176 
L 437.85044 -211.612364 
L 432.684402 -247.848952 
L 427.518365 -225.128958 
L 422.518974 -211.943808 
L 417.352937 -209.261881 
L 412.353546 -214.037809 
L 407.187509 -212.00692 
L 402.521411 -208.513148 
L 397.355374 -205.320954 
L 392.189337 -205.566726 
L 387.189946 -205.91582 
L 382.023909 -207.320061 
L 377.024518 -232.926383 
L 371.85848 -236.485511 
L 366.692443 -230.137376 
L 361.693052 -227.18723 
L 356.527015 -230.376568 
L 351.527624 -223.038937 
L 346.361587 -218.526443 
L 341.695489 -215.91875 
L 336.529452 -218.735347 
L 331.363415 -220.300309 
L 326.364024 -218.833298 
L 321.197987 -217.630545 
L 316.198596 -217.482571 
L 311.032558 -215.167291 
L 305.866521 -215.518289 
L 300.86713 -217.796715 
L 295.701093 -222.670026 
L 290.701702 -223.518827 
L 285.535665 -206.696944 
L 280.869567 -206.904243 
L 275.70353 -206.382829 
L 270.537493 -206.740787 
L 265.538102 -206.432771 
L 260.372065 -205.908925 
L 255.372674 -205.482308 
L 250.206636 -205.249168 
L 245.040599 -205.314479 
L 240.041208 -205.320059 
L 234.875171 -205.320828 
L 229.87578 -205.498412 
L 224.709743 -205.267284 
L 219.876999 -205.423853 
L 214.710961 -206.128046 
L 209.544924 -205.524902 
L 204.545533 -205.748326 
L 199.379496 -206.17436 
L 194.380105 -207.054341 
L 189.214068 -207.981361 
L 184.048031 -208.580628 
L 179.04864 -208.146394 
L 173.882603 -210.729563 
L 168.883212 -211.08618 
L 163.717175 -211.480367 
z
" style="stroke: #c17150; stroke-opacity: 0.2"/>
    </defs>
    <g clip-path="url(#pd49a21762c)">
     <use xlink:href="#m1a67613f75" x="0" y="360" style="fill: #c17150; fill-opacity: 0.2; stroke: #c17150; stroke-opacity: 0.2"/>
    </g>
   </g>
   <g id="line2d_16">
    <path d="M 72.728261 27.290137 
L 77.727652 27.559277 
L 82.893689 35.358976 
L 87.89308 40.763233 
L 93.059117 41.653037 
L 98.225155 79.858655 
L 102.891253 82.603764 
L 108.05729 86.586387 
L 113.056681 98.379246 
L 118.222718 88.140858 
L 123.222109 119.708268 
L 128.388146 104.843266 
L 133.554183 101.439506 
L 138.553574 86.195011 
L 143.719611 97.273535 
L 148.719002 66.549267 
L 153.885039 141.056497 
L 159.051077 147.195635 
L 163.717175 137.351975 
L 168.883212 145.044605 
L 173.882603 159.701909 
L 179.04864 155.946758 
L 184.048031 158.573743 
L 189.214068 169.269214 
L 194.380105 164.569848 
L 199.379496 179.719074 
L 204.545533 168.30179 
L 209.544924 177.485102 
L 214.710961 137.279946 
L 219.876999 129.064692 
L 224.709743 121.263324 
L 229.87578 100.591691 
L 234.875171 140.097563 
L 240.041208 161.898572 
L 245.040599 171.066874 
L 250.206636 146.019954 
L 255.372674 155.545875 
L 260.372065 177.554579 
L 265.538102 166.771592 
L 270.537493 143.51518 
L 275.70353 171.806265 
L 280.869567 151.010977 
L 285.535665 161.773461 
L 290.701702 166.684547 
L 295.701093 162.895197 
L 300.86713 161.908644 
L 305.866521 167.67456 
L 311.032558 158.044864 
L 316.198596 162.517854 
L 321.197987 151.594226 
L 326.364024 164.95744 
L 331.363415 162.724446 
L 336.529452 163.001364 
L 341.695489 153.961809 
L 346.361587 150.373376 
L 351.527624 147.029962 
L 356.527015 148.909366 
L 361.693052 149.077644 
L 366.692443 151.261288 
L 371.85848 155.808115 
L 377.024518 157.383385 
L 382.023909 156.7102 
L 387.189946 159.774611 
L 392.189337 160.733043 
L 397.355374 156.582913 
L 402.521411 157.030071 
L 407.187509 156.826395 
L 412.353546 157.254859 
L 417.352937 158.770709 
L 422.518974 158.010171 
L 427.518365 157.859541 
L 432.684402 156.919813 
L 437.85044 155.527523 
L 442.849831 154.508393 
L 448.015868 151.540143 
L 453.015259 148.881903 
L 458.181296 151.000524 
L 463.347333 154.847155 
L 468.180077 157.369896 
L 473.346115 159.369837 
L 478.345506 158.52665 
L 483.511543 153.870142 
L 488.510934 159.23113 
L 493.676971 148.434446 
L 498.843008 133.465952 
L 503.842399 139.514833 
L 509.008436 140.814082 
L 514.007827 137.210501 
L 519.173864 138.564673 
L 524.339901 139.366869 
L 529.005999 132.455124 
L 534.172037 130.900411 
L 539.171428 122.447262 
L 544.337465 137.970368 
L 549.336856 154.306058 
L 554.502893 137.47228 
L 559.66893 135.740994 
L 564.668321 160.350207 
L 569.834358 173.063315 
L 574.833749 150.428214 
L 579.999786 138.975556 
L 585.165823 151.967281 
L 589.831921 159.838114 
L 594.997959 175.778674 
L 599.99735 143.73302 
L 605.163387 146.020543 
L 610.162778 145.52872 
L 615.328815 152.270425 
L 620.494852 142.831766 
L 625.494243 174.832979 
L 630.66028 170.543974 
L 635.659671 131.622506 
L 640.825708 168.93039 
L 645.991745 199.96253 
L 650.657843 205.226623 
L 655.823881 202.106726 
L 660.823271 203.14246 
L 665.989309 176.795636 
L 670.9887 153.735681 
L 676.154737 148.199691 
L 681.320774 198.434579 
L 686.320165 187.758904 
" clip-path="url(#pd49a21762c)" style="fill: none; stroke: #006e64; stroke-width: 1.5; stroke-linecap: round"/>
   </g>
   <g id="line2d_17">
    <path d="M 159.051077 147.966284 
L 163.717175 151.67583 
L 168.883212 152.229489 
L 173.882603 152.293713 
L 179.04864 153.334998 
L 184.048031 153.005977 
L 189.214068 153.408347 
L 194.380105 154.140047 
L 199.379496 154.489172 
L 204.545533 154.838802 
L 209.544924 154.634164 
L 214.710961 154.380657 
L 219.876999 154.742739 
L 224.709743 154.8452 
L 229.87578 154.703035 
L 234.875171 154.851391 
L 240.041208 154.884944 
L 245.040599 154.875236 
L 250.206636 155.033202 
L 255.372674 154.880109 
L 260.372065 154.450985 
L 265.538102 154.087898 
L 270.537493 153.969904 
L 275.70353 154.252302 
L 280.869567 153.806601 
L 285.535665 153.997099 
L 290.701702 148.841533 
L 295.701093 148.576702 
L 300.86713 150.618413 
L 305.866521 150.902492 
L 311.032558 151.141764 
L 316.198596 149.655049 
L 321.197987 149.798706 
L 326.364024 149.925646 
L 331.363415 149.149691 
L 336.529452 149.626828 
L 341.695489 152.993887 
L 346.361587 155.749926 
L 351.527624 152.611476 
L 356.527015 146.876775 
L 361.693052 146.838202 
L 366.692443 146.851311 
L 371.85848 143.01868 
L 377.024518 144.286762 
L 382.023909 157.372873 
L 387.189946 158.384106 
L 392.189337 163.878317 
L 397.355374 166.361095 
L 402.521411 167.738059 
L 407.187509 168.706073 
L 412.353546 166.223032 
L 417.352937 163.56107 
L 422.518974 163.359927 
L 427.518365 155.449384 
L 432.684402 146.820286 
L 437.85044 171.847205 
L 442.849831 166.920238 
L 448.015868 165.91607 
L 453.015259 165.009575 
L 458.181296 161.612421 
L 463.347333 162.573216 
L 468.180077 151.788391 
L 473.346115 147.01575 
L 478.345506 143.875894 
L 483.511543 141.794961 
L 488.510934 144.443978 
L 493.676971 150.026758 
L 498.843008 152.263853 
L 503.842399 154.168515 
L 509.008436 158.619054 
L 514.007827 164.225765 
L 519.173864 164.192855 
L 524.339901 162.130628 
L 529.005999 150.418388 
L 534.172037 132.577613 
L 539.171428 134.223631 
L 544.337465 136.311748 
L 549.336856 140.780743 
L 554.502893 141.307506 
L 559.66893 141.174576 
L 564.668321 148.558486 
L 569.834358 144.52346 
L 574.833749 144.682347 
L 579.999786 130.77474 
L 585.165823 143.49274 
L 589.831921 150.335627 
L 594.997959 149.459386 
L 599.99735 151.687527 
L 605.163387 156.751635 
L 610.162778 161.074239 
L 615.328815 158.386416 
L 620.494852 155.812074 
L 625.494243 159.177389 
L 630.66028 159.748711 
L 635.659671 167.106699 
L 640.825708 181.337021 
L 645.991745 169.233111 
L 650.657843 167.57406 
L 655.823881 169.932906 
L 660.823271 173.94658 
L 665.989309 169.757902 
L 670.9887 180.522793 
L 676.154737 187.68458 
L 681.320774 179.83535 
L 686.320165 174.07335 
" clip-path="url(#pd49a21762c)" style="fill: none; stroke: #c17150; stroke-width: 1.5; stroke-linecap: round"/>
   </g>
   <g id="line2d_18"/>
   <g id="line2d_19"/>
   <g id="patch_3">
    <path d="M 42.048666 304.875083 
L 42.048666 3.00024 
" style="fill: none; stroke: #808080; stroke-width: 0.8; stroke-linejoin: miter; stroke-linecap: square"/>
   </g>
   <g id="patch_4">
    <path d="M 42.048666 304.875083 
L 716.99976 304.875083 
" style="fill: none; stroke: #808080; stroke-width: 0.8; stroke-linejoin: miter; stroke-linecap: square"/>
   </g>
   <g id="text_18">
    <!-- Source: ELCON A/S -->
    <g style="fill: #808080" transform="translate(624.264008 352.646969) scale(0.1 -0.1)">
     <defs>
      <path id="CMR17-53" d="M 2803 4290 
C 2803 4404 2797 4411 2758 4411 
C 2720 4411 2707 4385 2682 4328 
L 2490 3907 
C 2246 4257 1875 4416 1472 4416 
C 819 4416 294 3901 294 3253 
C 294 3056 339 2776 557 2510 
C 794 2218 1018 2167 1530 2033 
C 1722 1982 2042 1899 2106 1874 
C 2470 1722 2662 1341 2662 985 
C 2662 527 2336 38 1779 38 
C 1094 38 454 419 410 1311 
C 403 1413 397 1419 352 1419 
C 301 1419 294 1413 294 1285 
L 294 -1 
C 294 -115 301 -122 339 -122 
C 384 -122 397 -90 486 108 
C 493 127 493 140 614 381 
C 934 -39 1472 -128 1779 -128 
C 2477 -128 2970 451 2970 1124 
C 2970 1454 2848 1708 2778 1823 
C 2509 2230 2221 2306 1914 2382 
C 1869 2402 1856 2402 1498 2490 
C 1152 2579 1005 2624 845 2796 
C 666 2992 602 3196 602 3399 
C 602 3812 934 4263 1478 4263 
C 2157 4263 2579 3786 2675 2993 
C 2694 2878 2701 2872 2746 2872 
C 2803 2872 2803 2891 2803 2999 
L 2803 4290 
z
" transform="scale(0.015625)"/>
      <path id="CMR17-6f" d="M 2758 1356 
C 2758 2176 2163 2816 1466 2816 
C 768 2816 173 2176 173 1356 
C 173 551 768 -64 1466 -64 
C 2163 -64 2758 551 2758 1356 
z
M 1466 51 
C 1165 51 909 230 762 480 
C 602 767 582 1126 582 1408 
C 582 1677 595 2010 762 2298 
C 890 2509 1139 2714 1466 2714 
C 1754 2714 1997 2554 2150 2330 
C 2349 2029 2349 1607 2349 1408 
C 2349 1158 2336 775 2163 467 
C 1984 173 1709 51 1466 51 
z
" transform="scale(0.015625)"/>
      <path id="CMR17-75" d="M 1882 2693 
L 1882 2528 
C 2259 2528 2317 2489 2317 2186 
L 2317 1032 
C 2317 500 2029 38 1555 38 
C 1030 38 986 348 986 678 
L 986 2763 
L 211 2693 
L 211 2528 
C 467 2528 640 2528 646 2274 
L 646 1058 
C 646 633 646 361 813 183 
C 896 101 1056 -64 1517 -64 
C 2061 -64 2272 377 2323 506 
L 2330 506 
L 2330 -63 
L 3091 -63 
L 3091 128 
C 2714 128 2656 166 2656 473 
L 2656 2763 
L 1882 2693 
z
" transform="scale(0.015625)"/>
      <path id="CMR17-72" d="M 960 1497 
C 960 2112 1222 2688 1702 2688 
C 1747 2688 1792 2682 1837 2662 
C 1837 2662 1696 2617 1696 2452 
C 1696 2298 1818 2234 1914 2234 
C 1990 2234 2131 2279 2131 2458 
C 2131 2663 1926 2790 1709 2790 
C 1222 2790 1011 2317 947 2093 
L 941 2093 
L 941 2790 
L 198 2720 
L 198 2554 
C 576 2554 634 2515 634 2208 
L 634 428 
C 634 184 608 153 198 153 
L 198 -13 
C 352 0 646 0 813 0 
C 998 0 1325 0 1498 -13 
L 1498 153 
C 1037 153 960 153 960 440 
L 960 1497 
z
" transform="scale(0.015625)"/>
      <path id="CMR17-63" d="M 2234 2240 
C 2112 2240 1933 2240 1933 2017 
C 1933 1838 2080 1787 2163 1787 
C 2208 1787 2394 1807 2394 2024 
C 2394 2467 1958 2803 1466 2803 
C 787 2803 211 2178 211 1363 
C 211 516 813 -64 1466 -64 
C 2259 -64 2458 677 2458 748 
C 2458 774 2451 793 2406 793 
C 2362 793 2355 787 2330 703 
C 2163 180 1798 51 1523 51 
C 1114 51 621 427 621 1369 
C 621 2338 1094 2688 1472 2688 
C 1722 2688 2093 2573 2234 2240 
z
" transform="scale(0.015625)"/>
      <path id="CMR17-3a" d="M 1062 2491 
C 1062 2650 934 2752 800 2752 
C 672 2752 538 2650 538 2491 
C 538 2332 666 2230 800 2230 
C 928 2230 1062 2332 1062 2491 
z
M 1062 261 
C 1062 420 934 522 800 522 
C 672 522 538 420 538 261 
C 538 102 666 0 800 0 
C 928 0 1062 102 1062 261 
z
" transform="scale(0.015625)"/>
      <path id="CMR17-45" d="M 3885 1615 
L 3770 1615 
C 3629 676 3546 166 2419 166 
L 1530 166 
C 1274 166 1261 197 1261 414 
L 1261 2176 
L 1862 2176 
C 2464 2176 2522 1960 2522 1430 
L 2637 1430 
L 2637 3081 
L 2522 3081 
C 2522 2557 2464 2342 1862 2342 
L 1261 2342 
L 1261 3913 
C 1261 4128 1274 4160 1530 4160 
L 2406 4160 
C 3398 4160 3514 3769 3603 2929 
L 3718 2929 
L 3565 4325 
L 326 4325 
L 326 4160 
C 768 4160 838 4160 838 3874 
L 838 451 
C 838 166 768 166 326 166 
L 326 0 
L 3654 0 
L 3885 1615 
z
" transform="scale(0.015625)"/>
      <path id="CMR17-4c" d="M 3469 1615 
L 3354 1615 
C 3302 983 3219 166 2125 166 
L 1530 166 
C 1274 166 1261 197 1261 414 
L 1261 3898 
C 1261 4129 1274 4192 1760 4192 
L 1901 4192 
L 1901 4352 
C 1638 4352 1331 4352 1069 4352 
C 870 4352 512 4352 326 4352 
L 326 4192 
C 768 4192 838 4192 838 3905 
L 838 452 
C 838 166 768 166 326 166 
L 326 0 
L 3315 0 
L 3469 1615 
z
" transform="scale(0.015625)"/>
      <path id="CMR17-43" d="M 3974 4289 
C 3974 4403 3968 4410 3930 4410 
C 3904 4410 3898 4403 3853 4327 
L 3571 3792 
C 3258 4187 2874 4416 2381 4416 
C 1286 4416 294 3456 294 2148 
C 294 826 1286 -128 2387 -128 
C 3366 -128 3974 730 3974 1461 
C 3974 1524 3974 1550 3917 1550 
C 3866 1550 3866 1531 3859 1474 
C 3808 585 3168 38 2477 38 
C 1824 38 781 495 781 2147 
C 781 3805 1843 4250 2464 4250 
C 3187 4250 3712 3628 3834 2745 
C 3846 2668 3846 2655 3904 2655 
C 3974 2655 3974 2668 3974 2783 
L 3974 4289 
z
" transform="scale(0.015625)"/>
      <path id="CMR17-4f" d="M 4307 2135 
C 4307 3437 3366 4416 2304 4416 
C 1216 4416 294 3424 294 2135 
C 294 845 1229 -128 2298 -128 
C 3392 -128 4307 864 4307 2135 
z
M 2304 -13 
C 1574 -13 781 711 781 2217 
C 781 3716 1651 4301 2298 4301 
C 2976 4301 3821 3698 3821 2217 
C 3821 686 3008 -13 2304 -13 
z
" transform="scale(0.015625)"/>
      <path id="CMR17-4e" d="M 1312 4250 
C 1267 4320 1261 4320 1139 4320 
L 326 4320 
L 326 4160 
L 448 4160 
C 704 4160 819 4129 838 4122 
L 838 610 
C 838 451 838 153 326 153 
L 326 -13 
C 474 0 742 0 902 0 
C 1062 0 1331 0 1478 -13 
L 1478 153 
C 966 153 966 451 966 610 
L 966 4033 
C 1011 3995 1011 3982 1056 3919 
L 3430 76 
C 3475 0 3494 0 3526 0 
C 3590 0 3590 19 3590 139 
L 3590 3705 
C 3590 3863 3590 4160 4102 4160 
L 4102 4326 
C 3955 4320 3686 4320 3526 4320 
C 3366 4320 3098 4320 2950 4326 
L 2950 4160 
C 3462 4160 3462 3862 3462 3703 
L 3462 763 
L 1312 4250 
z
" transform="scale(0.015625)"/>
      <path id="CMR17-41" d="M 2323 4378 
C 2291 4461 2278 4480 2214 4480 
C 2150 4480 2138 4461 2106 4378 
L 749 566 
C 627 223 371 153 147 153 
L 147 -13 
C 262 0 518 0 640 0 
C 800 0 1056 0 1210 -13 
L 1210 153 
C 909 153 864 361 864 439 
C 864 497 877 530 890 569 
L 1229 1536 
L 2906 1536 
L 3290 442 
C 3322 365 3322 352 3322 327 
C 3322 153 3046 153 2925 153 
L 2925 0 
C 3110 0 3443 0 3642 0 
C 3808 0 4128 0 4282 -13 
L 4282 153 
C 3942 153 3827 153 3744 387 
L 2323 4378 
z
M 2067 3893 
L 2848 1702 
L 1286 1702 
L 2067 3893 
z
" transform="scale(0.015625)"/>
      <path id="CMR17-2f" d="M 2605 4545 
C 2637 4627 2637 4640 2637 4653 
C 2637 4729 2579 4768 2528 4768 
C 2451 4768 2426 4717 2400 4640 
L 326 -1377 
C 294 -1460 294 -1473 294 -1486 
C 294 -1562 352 -1600 403 -1600 
C 480 -1600 506 -1549 531 -1473 
L 2605 4545 
z
" transform="scale(0.015625)"/>
     </defs>
     <use xlink:href="#CMR17-53" transform="scale(0.996264)"/>
     <use xlink:href="#CMR17-6f" transform="translate(50.89537 0) scale(0.996264)"/>
     <use xlink:href="#CMR17-75" transform="translate(96.585847 0) scale(0.996264)"/>
     <use xlink:href="#CMR17-72" transform="translate(147.481217 0) scale(0.996264)"/>
     <use xlink:href="#CMR17-63" transform="translate(182.761984 0) scale(0.996264)"/>
     <use xlink:href="#CMR17-65" transform="translate(223.247645 0) scale(0.996264)"/>
     <use xlink:href="#CMR17-3a" transform="translate(263.733305 0) scale(0.996264)"/>
     <use xlink:href="#CMR17-45" transform="translate(329.090024 0) scale(0.996264)"/>
     <use xlink:href="#CMR17-4c" transform="translate(391.676325 0) scale(0.996264)"/>
     <use xlink:href="#CMR17-43" transform="translate(449.057733 0) scale(0.996264)"/>
     <use xlink:href="#CMR17-4f" transform="translate(515.567613 0) scale(0.996264)"/>
     <use xlink:href="#CMR17-4e" transform="translate(587.282402 0) scale(0.996264)"/>
     <use xlink:href="#CMR17-41" transform="translate(686.430798 0) scale(0.996264)"/>
     <use xlink:href="#CMR17-2f" transform="translate(755.503228 0) scale(0.996264)"/>
     <use xlink:href="#CMR17-53" transform="translate(801.193705 0) scale(0.996264)"/>
    </g>
   </g>
   <g id="legend_1">
    <g id="patch_5">
     <path d="M 324.580207 356.999746 
L 434.468219 356.999746 
Q 436.468219 356.999746 436.468219 354.999746 
L 436.468219 342.062567 
Q 436.468219 340.062567 434.468219 340.062567 
L 324.580207 340.062567 
Q 322.580207 340.062567 322.580207 342.062567 
L 322.580207 354.999746 
Q 322.580207 356.999746 324.580207 356.999746 
z
" style="fill: #ffffff; opacity: 0.8"/>
    </g>
    <g id="line2d_20">
     <path d="M 326.580207 347.562567 
L 336.580207 347.562567 
L 346.580207 347.562567 
" style="fill: none; stroke: #006e64; stroke-width: 1.5; stroke-linecap: round"/>
    </g>
    <g id="text_19">
     <!-- 505 -->
     <g style="fill: #262626" transform="translate(354.580207 351.062567) scale(0.1 -0.1)">
      <defs>
       <path id="CMR17-35" d="M 730 3692 
C 794 3666 1056 3584 1325 3584 
C 1920 3584 2246 3911 2432 4100 
C 2432 4157 2432 4192 2394 4192 
C 2387 4192 2374 4192 2323 4163 
C 2099 4058 1837 3973 1517 3973 
C 1325 3973 1037 3999 723 4139 
C 653 4171 640 4171 634 4171 
C 602 4171 595 4164 595 4037 
L 595 2203 
C 595 2089 595 2057 659 2057 
C 691 2057 704 2070 736 2114 
C 941 2401 1222 2522 1542 2522 
C 1766 2522 2246 2382 2246 1289 
C 2246 1085 2246 715 2054 421 
C 1894 159 1645 25 1370 25 
C 947 25 518 320 403 814 
C 429 807 480 795 506 795 
C 589 795 749 840 749 1038 
C 749 1210 627 1280 506 1280 
C 358 1280 262 1190 262 1011 
C 262 454 704 -128 1382 -128 
C 2042 -128 2669 440 2669 1264 
C 2669 2030 2170 2624 1549 2624 
C 1222 2624 947 2503 730 2274 
L 730 3692 
z
" transform="scale(0.015625)"/>
      </defs>
      <use xlink:href="#CMR17-35" transform="scale(0.996264)"/>
      <use xlink:href="#CMR17-30" transform="translate(45.690477 0) scale(0.996264)"/>
      <use xlink:href="#CMR17-35" transform="translate(91.380954 0) scale(0.996264)"/>
     </g>
    </g>
    <g id="line2d_21">
     <path d="M 389.524213 347.562567 
L 399.524213 347.562567 
L 409.524213 347.562567 
" style="fill: none; stroke: #c17150; stroke-width: 1.5; stroke-linecap: round"/>
    </g>
    <g id="text_20">
     <!-- 515 -->
     <g style="fill: #262626" transform="translate(417.524213 351.062567) scale(0.1 -0.1)">
      <use xlink:href="#CMR17-35" transform="scale(0.996264)"/>
      <use xlink:href="#CMR17-31" transform="translate(45.690477 0) scale(0.996264)"/>
      <use xlink:href="#CMR17-35" transform="translate(91.380954 0) scale(0.996264)"/>
     </g>
    </g>
   </g>
  </g>
 </g>
 <defs>
  <clipPath id="pd49a21762c">
   <rect x="42.048666" y="3.00024" width="674.951094" height="301.874843"/>
  </clipPath>
 </defs>
</svg>
