<?xml version="1.0" encoding="utf-8" standalone="no"?>
<!DOCTYPE svg PUBLIC "-//W3C//DTD SVG 1.1//EN"
  "http://www.w3.org/Graphics/SVG/1.1/DTD/svg11.dtd">
<svg xmlns:xlink="http://www.w3.org/1999/xlink" width="1440pt" height="720pt" viewBox="0 0 1440 720" xmlns="http://www.w3.org/2000/svg" version="1.1">
 <metadata>
  <rdf:RDF xmlns:dc="http://purl.org/dc/elements/1.1/" xmlns:cc="http://creativecommons.org/ns#" xmlns:rdf="http://www.w3.org/1999/02/22-rdf-syntax-ns#">
   <cc:Work>
    <dc:type rdf:resource="http://purl.org/dc/dcmitype/StillImage"/>
    <dc:date>2023-12-11T11:18:20.542500</dc:date>
    <dc:format>image/svg+xml</dc:format>
    <dc:creator>
     <cc:Agent>
      <dc:title>Matplotlib v3.6.3, https://matplotlib.org/</dc:title>
     </cc:Agent>
    </dc:creator>
   </cc:Work>
  </rdf:RDF>
 </metadata>
 <defs>
  <style type="text/css">*{stroke-linejoin: round; stroke-linecap: butt}</style>
 </defs>
 <g id="figure_1">
  <g id="patch_1">
   <path d="M 0 720 
L 1440 720 
L 1440 0 
L 0 0 
z
" style="fill: #ffffff"/>
  </g>
  <g id="axes_1">
   <g id="patch_2">
    <path d="M 45.693354 335.18737 
L 712.8 335.18737 
L 712.8 25.604645 
L 45.693354 25.604645 
z
" style="fill: #ffffff"/>
   </g>
   <g id="matplotlib.axis_1">
    <g id="xtick_1">
     <g id="line2d_1">
      <path d="M 76.016383 335.18737 
L 76.016383 25.604645 
" clip-path="url(#p3ce114bafd)" style="fill: none; stroke: #cccccc; stroke-width: 0.8; stroke-linecap: round"/>
     </g>
     <g id="text_1">
      <!-- $\mathdefault{2014}$ -->
      <g transform="translate(57.740192 352.524366) scale(0.2 -0.2)">
       <defs>
        <path id="CMR17-32" d="M 2669 989 
L 2554 989 
C 2490 536 2438 459 2413 420 
C 2381 369 1920 369 1830 369 
L 602 369 
C 832 619 1280 1072 1824 1597 
C 2214 1967 2669 2402 2669 3035 
C 2669 3790 2067 4224 1395 4224 
C 691 4224 262 3604 262 3030 
C 262 2780 448 2748 525 2748 
C 589 2748 781 2787 781 3010 
C 781 3207 614 3264 525 3264 
C 486 3264 448 3258 422 3245 
C 544 3790 915 4058 1306 4058 
C 1862 4058 2227 3617 2227 3035 
C 2227 2479 1901 2000 1536 1584 
L 262 146 
L 262 0 
L 2515 0 
L 2669 989 
z
" transform="scale(0.015625)"/>
        <path id="CMR17-30" d="M 2688 2025 
C 2688 2416 2682 3080 2413 3591 
C 2176 4039 1798 4198 1466 4198 
C 1158 4198 768 4058 525 3597 
C 269 3118 243 2524 243 2025 
C 243 1661 250 1106 448 619 
C 723 -39 1216 -128 1466 -128 
C 1760 -128 2208 -7 2470 600 
C 2662 1042 2688 1559 2688 2025 
z
M 1466 -26 
C 1056 -26 813 325 723 812 
C 653 1188 653 1738 653 2096 
C 653 2588 653 2997 736 3387 
C 858 3929 1216 4096 1466 4096 
C 1728 4096 2067 3923 2189 3400 
C 2272 3036 2278 2607 2278 2096 
C 2278 1680 2278 1169 2202 792 
C 2067 95 1690 -26 1466 -26 
z
" transform="scale(0.015625)"/>
        <path id="CMR17-31" d="M 1702 4058 
C 1702 4192 1696 4192 1606 4192 
C 1357 3916 979 3827 621 3827 
C 602 3827 570 3827 563 3808 
C 557 3795 557 3782 557 3648 
C 755 3648 1088 3686 1344 3839 
L 1344 461 
C 1344 236 1331 160 781 160 
L 589 160 
L 589 0 
C 896 0 1216 0 1523 0 
C 1830 0 2150 0 2458 0 
L 2458 160 
L 2266 160 
C 1715 160 1702 230 1702 458 
L 1702 4058 
z
" transform="scale(0.015625)"/>
        <path id="CMR17-34" d="M 2150 4122 
C 2150 4256 2144 4256 2029 4256 
L 128 1254 
L 128 1088 
L 1779 1088 
L 1779 457 
C 1779 224 1766 160 1318 160 
L 1197 160 
L 1197 0 
C 1402 0 1747 0 1965 0 
C 2182 0 2528 0 2733 0 
L 2733 160 
L 2611 160 
C 2163 160 2150 224 2150 457 
L 2150 1088 
L 2803 1088 
L 2803 1254 
L 2150 1254 
L 2150 4122 
z
M 1798 3703 
L 1798 1254 
L 256 1254 
L 1798 3703 
z
" transform="scale(0.015625)"/>
       </defs>
       <use xlink:href="#CMR17-32" transform="scale(0.996264)"/>
       <use xlink:href="#CMR17-30" transform="translate(45.690477 0) scale(0.996264)"/>
       <use xlink:href="#CMR17-31" transform="translate(91.380954 0) scale(0.996264)"/>
       <use xlink:href="#CMR17-34" transform="translate(137.071431 0) scale(0.996264)"/>
      </g>
     </g>
    </g>
    <g id="xtick_2">
     <g id="line2d_2">
      <path d="M 137.658854 335.18737 
L 137.658854 25.604645 
" clip-path="url(#p3ce114bafd)" style="fill: none; stroke: #cccccc; stroke-width: 0.8; stroke-linecap: round"/>
     </g>
     <g id="text_2">
      <!-- $\mathdefault{2015}$ -->
      <g transform="translate(119.382664 352.524366) scale(0.2 -0.2)">
       <defs>
        <path id="CMR17-35" d="M 730 3692 
C 794 3666 1056 3584 1325 3584 
C 1920 3584 2246 3911 2432 4100 
C 2432 4157 2432 4192 2394 4192 
C 2387 4192 2374 4192 2323 4163 
C 2099 4058 1837 3973 1517 3973 
C 1325 3973 1037 3999 723 4139 
C 653 4171 640 4171 634 4171 
C 602 4171 595 4164 595 4037 
L 595 2203 
C 595 2089 595 2057 659 2057 
C 691 2057 704 2070 736 2114 
C 941 2401 1222 2522 1542 2522 
C 1766 2522 2246 2382 2246 1289 
C 2246 1085 2246 715 2054 421 
C 1894 159 1645 25 1370 25 
C 947 25 518 320 403 814 
C 429 807 480 795 506 795 
C 589 795 749 840 749 1038 
C 749 1210 627 1280 506 1280 
C 358 1280 262 1190 262 1011 
C 262 454 704 -128 1382 -128 
C 2042 -128 2669 440 2669 1264 
C 2669 2030 2170 2624 1549 2624 
C 1222 2624 947 2503 730 2274 
L 730 3692 
z
" transform="scale(0.015625)"/>
       </defs>
       <use xlink:href="#CMR17-32" transform="scale(0.996264)"/>
       <use xlink:href="#CMR17-30" transform="translate(45.690477 0) scale(0.996264)"/>
       <use xlink:href="#CMR17-31" transform="translate(91.380954 0) scale(0.996264)"/>
       <use xlink:href="#CMR17-35" transform="translate(137.071431 0) scale(0.996264)"/>
      </g>
     </g>
    </g>
    <g id="xtick_3">
     <g id="line2d_3">
      <path d="M 199.301326 335.18737 
L 199.301326 25.604645 
" clip-path="url(#p3ce114bafd)" style="fill: none; stroke: #cccccc; stroke-width: 0.8; stroke-linecap: round"/>
     </g>
     <g id="text_3">
      <!-- $\mathdefault{2016}$ -->
      <g transform="translate(181.025135 352.524366) scale(0.2 -0.2)">
       <defs>
        <path id="CMR17-36" d="M 678 2176 
C 678 3690 1395 4032 1811 4032 
C 1946 4032 2272 4009 2400 3776 
C 2298 3776 2106 3776 2106 3553 
C 2106 3381 2246 3323 2336 3323 
C 2394 3323 2566 3348 2566 3560 
C 2566 3954 2246 4179 1805 4179 
C 1043 4179 243 3390 243 1984 
C 243 253 966 -128 1478 -128 
C 2099 -128 2688 427 2688 1283 
C 2688 2081 2170 2662 1517 2662 
C 1126 2662 838 2407 678 1960 
L 678 2176 
z
M 1478 25 
C 691 25 691 1200 691 1436 
C 691 1896 909 2560 1504 2560 
C 1613 2560 1926 2560 2138 2120 
C 2253 1870 2253 1609 2253 1289 
C 2253 944 2253 690 2118 434 
C 1978 171 1773 25 1478 25 
z
" transform="scale(0.015625)"/>
       </defs>
       <use xlink:href="#CMR17-32" transform="scale(0.996264)"/>
       <use xlink:href="#CMR17-30" transform="translate(45.690477 0) scale(0.996264)"/>
       <use xlink:href="#CMR17-31" transform="translate(91.380954 0) scale(0.996264)"/>
       <use xlink:href="#CMR17-36" transform="translate(137.071431 0) scale(0.996264)"/>
      </g>
     </g>
    </g>
    <g id="xtick_4">
     <g id="line2d_4">
      <path d="M 261.11268 335.18737 
L 261.11268 25.604645 
" clip-path="url(#p3ce114bafd)" style="fill: none; stroke: #cccccc; stroke-width: 0.8; stroke-linecap: round"/>
     </g>
     <g id="text_4">
      <!-- $\mathdefault{2017}$ -->
      <g transform="translate(242.83649 352.524366) scale(0.2 -0.2)">
       <defs>
        <path id="CMR17-37" d="M 2886 3941 
L 2886 4081 
L 1382 4081 
C 634 4081 621 4165 595 4288 
L 480 4288 
L 294 3094 
L 410 3094 
C 429 3215 474 3540 550 3661 
C 589 3712 1062 3712 1171 3712 
L 2579 3712 
L 1869 2661 
C 1395 1954 1069 999 1069 165 
C 1069 89 1069 -128 1299 -128 
C 1530 -128 1530 89 1530 171 
L 1530 465 
C 1530 1508 1709 2196 2003 2636 
L 2886 3941 
z
" transform="scale(0.015625)"/>
       </defs>
       <use xlink:href="#CMR17-32" transform="scale(0.996264)"/>
       <use xlink:href="#CMR17-30" transform="translate(45.690477 0) scale(0.996264)"/>
       <use xlink:href="#CMR17-31" transform="translate(91.380954 0) scale(0.996264)"/>
       <use xlink:href="#CMR17-37" transform="translate(137.071431 0) scale(0.996264)"/>
      </g>
     </g>
    </g>
    <g id="xtick_5">
     <g id="line2d_5">
      <path d="M 322.755152 335.18737 
L 322.755152 25.604645 
" clip-path="url(#p3ce114bafd)" style="fill: none; stroke: #cccccc; stroke-width: 0.8; stroke-linecap: round"/>
     </g>
     <g id="text_5">
      <!-- $\mathdefault{2018}$ -->
      <g transform="translate(304.478961 352.524366) scale(0.2 -0.2)">
       <defs>
        <path id="CMR17-38" d="M 1741 2264 
C 2144 2467 2554 2773 2554 3263 
C 2554 3841 1990 4179 1472 4179 
C 890 4179 378 3759 378 3180 
C 378 3021 416 2747 666 2505 
C 730 2442 998 2251 1171 2130 
C 883 1983 211 1634 211 934 
C 211 279 838 -128 1459 -128 
C 2144 -128 2720 362 2720 1010 
C 2720 1590 2330 1857 2074 2029 
L 1741 2264 
z
M 902 2822 
C 851 2854 595 3051 595 3351 
C 595 3739 998 4032 1459 4032 
C 1965 4032 2336 3676 2336 3262 
C 2336 2669 1670 2331 1638 2331 
C 1632 2331 1626 2331 1574 2370 
L 902 2822 
z
M 2080 1519 
C 2176 1449 2483 1240 2483 851 
C 2483 381 2010 25 1472 25 
C 890 25 448 438 448 940 
C 448 1443 838 1862 1280 2060 
L 2080 1519 
z
" transform="scale(0.015625)"/>
       </defs>
       <use xlink:href="#CMR17-32" transform="scale(0.996264)"/>
       <use xlink:href="#CMR17-30" transform="translate(45.690477 0) scale(0.996264)"/>
       <use xlink:href="#CMR17-31" transform="translate(91.380954 0) scale(0.996264)"/>
       <use xlink:href="#CMR17-38" transform="translate(137.071431 0) scale(0.996264)"/>
      </g>
     </g>
    </g>
    <g id="xtick_6">
     <g id="line2d_6">
      <path d="M 384.397623 335.18737 
L 384.397623 25.604645 
" clip-path="url(#p3ce114bafd)" style="fill: none; stroke: #cccccc; stroke-width: 0.8; stroke-linecap: round"/>
     </g>
     <g id="text_6">
      <!-- $\mathdefault{2019}$ -->
      <g transform="translate(366.121432 352.524366) scale(0.2 -0.2)">
       <defs>
        <path id="CMR17-39" d="M 2253 1864 
C 2253 464 1670 31 1190 31 
C 1043 31 685 31 538 294 
C 704 268 826 357 826 518 
C 826 692 685 749 595 749 
C 538 749 365 723 365 506 
C 365 71 742 -128 1203 -128 
C 1939 -128 2688 674 2688 2073 
C 2688 3817 1971 4179 1485 4179 
C 851 4179 243 3628 243 2778 
C 243 1991 762 1408 1414 1408 
C 1952 1408 2189 1903 2253 2112 
L 2253 1864 
z
M 1427 1510 
C 1254 1510 1011 1542 813 1922 
C 678 2169 678 2461 678 2771 
C 678 3146 678 3405 858 3684 
C 947 3817 1114 4032 1485 4032 
C 2240 4032 2240 2885 2240 2632 
C 2240 2182 2035 1510 1427 1510 
z
" transform="scale(0.015625)"/>
       </defs>
       <use xlink:href="#CMR17-32" transform="scale(0.996264)"/>
       <use xlink:href="#CMR17-30" transform="translate(45.690477 0) scale(0.996264)"/>
       <use xlink:href="#CMR17-31" transform="translate(91.380954 0) scale(0.996264)"/>
       <use xlink:href="#CMR17-39" transform="translate(137.071431 0) scale(0.996264)"/>
      </g>
     </g>
    </g>
    <g id="xtick_7">
     <g id="line2d_7">
      <path d="M 446.040094 335.18737 
L 446.040094 25.604645 
" clip-path="url(#p3ce114bafd)" style="fill: none; stroke: #cccccc; stroke-width: 0.8; stroke-linecap: round"/>
     </g>
     <g id="text_7">
      <!-- $\mathdefault{2020}$ -->
      <g transform="translate(427.763904 352.524366) scale(0.2 -0.2)">
       <use xlink:href="#CMR17-32" transform="scale(0.996264)"/>
       <use xlink:href="#CMR17-30" transform="translate(45.690477 0) scale(0.996264)"/>
       <use xlink:href="#CMR17-32" transform="translate(91.380954 0) scale(0.996264)"/>
       <use xlink:href="#CMR17-30" transform="translate(137.071431 0) scale(0.996264)"/>
      </g>
     </g>
    </g>
    <g id="xtick_8">
     <g id="line2d_8">
      <path d="M 507.851449 335.18737 
L 507.851449 25.604645 
" clip-path="url(#p3ce114bafd)" style="fill: none; stroke: #cccccc; stroke-width: 0.8; stroke-linecap: round"/>
     </g>
     <g id="text_8">
      <!-- $\mathdefault{2021}$ -->
      <g transform="translate(489.575258 352.524366) scale(0.2 -0.2)">
       <use xlink:href="#CMR17-32" transform="scale(0.996264)"/>
       <use xlink:href="#CMR17-30" transform="translate(45.690477 0) scale(0.996264)"/>
       <use xlink:href="#CMR17-32" transform="translate(91.380954 0) scale(0.996264)"/>
       <use xlink:href="#CMR17-31" transform="translate(137.071431 0) scale(0.996264)"/>
      </g>
     </g>
    </g>
    <g id="xtick_9">
     <g id="line2d_9">
      <path d="M 569.49392 335.18737 
L 569.49392 25.604645 
" clip-path="url(#p3ce114bafd)" style="fill: none; stroke: #cccccc; stroke-width: 0.8; stroke-linecap: round"/>
     </g>
     <g id="text_9">
      <!-- $\mathdefault{2022}$ -->
      <g transform="translate(551.21773 352.524366) scale(0.2 -0.2)">
       <use xlink:href="#CMR17-32" transform="scale(0.996264)"/>
       <use xlink:href="#CMR17-30" transform="translate(45.690477 0) scale(0.996264)"/>
       <use xlink:href="#CMR17-32" transform="translate(91.380954 0) scale(0.996264)"/>
       <use xlink:href="#CMR17-32" transform="translate(137.071431 0) scale(0.996264)"/>
      </g>
     </g>
    </g>
    <g id="xtick_10">
     <g id="line2d_10">
      <path d="M 631.136392 335.18737 
L 631.136392 25.604645 
" clip-path="url(#p3ce114bafd)" style="fill: none; stroke: #cccccc; stroke-width: 0.8; stroke-linecap: round"/>
     </g>
     <g id="text_10">
      <!-- $\mathdefault{2023}$ -->
      <g transform="translate(612.860201 352.524366) scale(0.2 -0.2)">
       <defs>
        <path id="CMR17-33" d="M 1414 2157 
C 1984 2157 2234 1662 2234 1090 
C 2234 320 1824 25 1453 25 
C 1114 25 563 194 390 693 
C 422 680 454 680 486 680 
C 640 680 755 782 755 948 
C 755 1133 614 1216 486 1216 
C 378 1216 211 1165 211 926 
C 211 335 787 -128 1466 -128 
C 2176 -128 2720 430 2720 1085 
C 2720 1707 2208 2157 1600 2227 
C 2086 2328 2554 2756 2554 3329 
C 2554 3820 2048 4179 1472 4179 
C 890 4179 378 3829 378 3329 
C 378 3110 544 3072 627 3072 
C 762 3072 877 3155 877 3321 
C 877 3486 762 3569 627 3569 
C 602 3569 570 3569 544 3557 
C 730 3959 1235 4032 1459 4032 
C 1683 4032 2106 3925 2106 3320 
C 2106 3143 2080 2828 1862 2550 
C 1670 2304 1453 2304 1242 2284 
C 1210 2284 1062 2269 1037 2269 
C 992 2263 966 2257 966 2208 
C 966 2163 973 2157 1101 2157 
L 1414 2157 
z
" transform="scale(0.015625)"/>
       </defs>
       <use xlink:href="#CMR17-32" transform="scale(0.996264)"/>
       <use xlink:href="#CMR17-30" transform="translate(45.690477 0) scale(0.996264)"/>
       <use xlink:href="#CMR17-32" transform="translate(91.380954 0) scale(0.996264)"/>
       <use xlink:href="#CMR17-33" transform="translate(137.071431 0) scale(0.996264)"/>
      </g>
     </g>
    </g>
    <g id="xtick_11">
     <g id="line2d_11">
      <path d="M 692.778863 335.18737 
L 692.778863 25.604645 
" clip-path="url(#p3ce114bafd)" style="fill: none; stroke: #cccccc; stroke-width: 0.8; stroke-linecap: round"/>
     </g>
     <g id="text_11">
      <!-- $\mathdefault{2024}$ -->
      <g transform="translate(674.502672 352.524366) scale(0.2 -0.2)">
       <use xlink:href="#CMR17-32" transform="scale(0.996264)"/>
       <use xlink:href="#CMR17-30" transform="translate(45.690477 0) scale(0.996264)"/>
       <use xlink:href="#CMR17-32" transform="translate(91.380954 0) scale(0.996264)"/>
       <use xlink:href="#CMR17-34" transform="translate(137.071431 0) scale(0.996264)"/>
      </g>
     </g>
    </g>
   </g>
   <g id="matplotlib.axis_2">
    <g id="ytick_1">
     <g id="line2d_12">
      <path d="M 45.693354 308.699008 
L 712.8 308.699008 
" clip-path="url(#p3ce114bafd)" style="fill: none; stroke: #cccccc; stroke-width: 0.8; stroke-linecap: round"/>
     </g>
     <g id="text_12">
      <!-- $\mathdefault{−0.4}$ -->
      <g transform="translate(3.00024 315.617507) scale(0.2 -0.2)">
       <defs>
        <path id="CMSY10-0" d="M 4218 1472 
C 4326 1472 4442 1472 4442 1600 
C 4442 1728 4326 1728 4218 1728 
L 755 1728 
C 646 1728 531 1728 531 1600 
C 531 1472 646 1472 755 1472 
L 4218 1472 
z
" transform="scale(0.015625)"/>
        <path id="CMMI12-3a" d="M 1178 307 
C 1178 492 1024 619 870 619 
C 685 619 557 466 557 313 
C 557 128 710 0 864 0 
C 1050 0 1178 153 1178 307 
z
" transform="scale(0.015625)"/>
       </defs>
       <use xlink:href="#CMSY10-0" transform="scale(0.996264)"/>
       <use xlink:href="#CMR17-30" transform="translate(77.487468 0) scale(0.996264)"/>
       <use xlink:href="#CMMI12-3a" transform="translate(123.177945 0) scale(0.996264)"/>
       <use xlink:href="#CMR17-34" transform="translate(150.275122 0) scale(0.996264)"/>
      </g>
     </g>
    </g>
    <g id="ytick_2">
     <g id="line2d_13">
      <path d="M 45.693354 225.922879 
L 712.8 225.922879 
" clip-path="url(#p3ce114bafd)" style="fill: none; stroke: #cccccc; stroke-width: 0.8; stroke-linecap: round"/>
     </g>
     <g id="text_13">
      <!-- $\mathdefault{−0.2}$ -->
      <g transform="translate(3.00024 232.841377) scale(0.2 -0.2)">
       <use xlink:href="#CMSY10-0" transform="scale(0.996264)"/>
       <use xlink:href="#CMR17-30" transform="translate(77.487468 0) scale(0.996264)"/>
       <use xlink:href="#CMMI12-3a" transform="translate(123.177945 0) scale(0.996264)"/>
       <use xlink:href="#CMR17-32" transform="translate(150.275122 0) scale(0.996264)"/>
      </g>
     </g>
    </g>
    <g id="ytick_3">
     <g id="line2d_14">
      <path d="M 45.693354 143.146749 
L 712.8 143.146749 
" clip-path="url(#p3ce114bafd)" style="fill: none; stroke: #cccccc; stroke-width: 0.8; stroke-linecap: round"/>
     </g>
     <g id="text_14">
      <!-- $\mathdefault{0.0}$ -->
      <g transform="translate(18.497727 150.065248) scale(0.2 -0.2)">
       <use xlink:href="#CMR17-30" transform="scale(0.996264)"/>
       <use xlink:href="#CMMI12-3a" transform="translate(45.690477 0) scale(0.996264)"/>
       <use xlink:href="#CMR17-30" transform="translate(72.787654 0) scale(0.996264)"/>
      </g>
     </g>
    </g>
    <g id="ytick_4">
     <g id="line2d_15">
      <path d="M 45.693354 60.37062 
L 712.8 60.37062 
" clip-path="url(#p3ce114bafd)" style="fill: none; stroke: #cccccc; stroke-width: 0.8; stroke-linecap: round"/>
     </g>
     <g id="text_15">
      <!-- $\mathdefault{0.2}$ -->
      <g transform="translate(18.497727 67.289118) scale(0.2 -0.2)">
       <use xlink:href="#CMR17-30" transform="scale(0.996264)"/>
       <use xlink:href="#CMMI12-3a" transform="translate(45.690477 0) scale(0.996264)"/>
       <use xlink:href="#CMR17-32" transform="translate(72.787654 0) scale(0.996264)"/>
      </g>
     </g>
    </g>
   </g>
   <g id="line2d_16">
    <path d="M 76.016383 56.231813 
L 81.251771 110.036297 
L 85.980509 163.840782 
L 91.215897 147.285556 
L 96.282401 163.840782 
L 101.517789 130.73033 
L 106.584294 76.925846 
L 111.819681 93.481071 
L 117.055069 139.007943 
L 122.121574 114.175104 
L 127.356962 89.342265 
L 132.423466 122.452717 
L 137.658854 134.869136 
L 142.894242 155.563169 
L 147.62298 151.424362 
L 152.858368 130.73033 
L 157.924872 159.701975 
L 163.16026 155.563169 
L 168.226765 97.619878 
L 173.462153 143.146749 
L 178.697541 134.869136 
L 183.764045 68.648233 
L 188.999433 52.093007 
L 194.065938 39.676587 
L 199.301326 68.648233 
L 204.536714 114.175104 
L 209.434335 89.342265 
L 214.669723 81.064652 
L 219.736227 47.9542 
L 224.971615 101.758684 
L 230.03812 47.9542 
L 235.273508 110.036297 
L 240.508896 110.036297 
L 245.5754 47.9542 
L 250.810788 64.509426 
L 255.877293 60.37062 
L 261.11268 56.231813 
L 266.348068 114.175104 
L 271.076806 105.897491 
L 276.312194 97.619878 
L 281.378698 97.619878 
L 286.614086 85.203458 
L 291.680591 43.815394 
L 296.915979 97.619878 
L 302.151367 97.619878 
L 307.217871 72.787039 
L 312.453259 39.676587 
L 317.519764 89.342265 
L 322.755152 64.509426 
L 327.99054 114.175104 
L 332.719277 105.897491 
L 337.954665 89.342265 
L 343.02117 122.452717 
L 348.256558 105.897491 
L 353.323062 101.758684 
L 358.55845 97.619878 
L 363.793838 110.036297 
L 368.860343 89.342265 
L 374.095731 64.509426 
L 379.162235 56.231813 
L 384.397623 56.231813 
L 389.633011 118.31391 
L 394.361749 97.619878 
L 399.597137 89.342265 
L 404.663641 159.701975 
L 409.899029 213.506459 
L 414.965534 89.342265 
L 420.200921 130.73033 
L 425.436309 130.73033 
L 430.502814 56.231813 
L 435.738202 85.203458 
L 440.804706 101.758684 
L 446.040094 68.648233 
L 451.275482 89.342265 
L 456.173103 122.452717 
L 461.408491 238.339298 
L 466.474996 296.282589 
L 471.710384 321.115428 
L 476.776888 192.812427 
L 482.012276 201.09004 
L 487.247664 147.285556 
L 492.314169 139.007943 
L 497.549557 114.175104 
L 502.616061 93.481071 
L 507.851449 93.481071 
L 513.086837 110.036297 
L 517.815575 101.758684 
L 523.050963 110.036297 
L 528.117467 85.203458 
L 533.352855 76.925846 
L 538.41936 81.064652 
L 543.654748 76.925846 
L 548.890136 76.925846 
L 553.95664 68.648233 
L 559.192028 56.231813 
L 564.258533 56.231813 
L 569.49392 85.203458 
L 574.729308 126.591523 
L 579.458046 122.452717 
L 584.693434 76.925846 
L 589.759938 101.758684 
L 594.995326 143.146749 
L 600.061831 130.73033 
L 605.297219 159.701975 
L 610.532607 172.118394 
L 615.599111 147.285556 
L 620.834499 155.563169 
L 625.901004 151.424362 
L 631.136392 143.146749 
L 636.37178 159.701975 
L 641.100517 114.175104 
L 646.335905 180.396007 
L 651.40241 172.118394 
L 656.637798 163.840782 
L 661.704302 167.979588 
L 666.93969 176.257201 
L 672.175078 180.396007 
L 677.241583 163.840782 
L 682.476971 159.701975 
" clip-path="url(#p3ce114bafd)" style="fill: none; stroke: #006e64; stroke-width: 1.5; stroke-linecap: round"/>
   </g>
   <g id="patch_3">
    <path d="M 45.693354 335.18737 
L 45.693354 25.604645 
" style="fill: none; stroke: #808080; stroke-width: 0.8; stroke-linejoin: miter; stroke-linecap: square"/>
   </g>
   <g id="patch_4">
    <path d="M 45.693354 335.18737 
L 712.8 335.18737 
" style="fill: none; stroke: #808080; stroke-width: 0.8; stroke-linejoin: miter; stroke-linecap: square"/>
   </g>
   <g id="text_16">
    <!-- Change in Industry Revenue -->
    <g style="fill: #262626" transform="translate(242.414453 19.604645) scale(0.24 -0.24)">
     <defs>
      <path id="CMR17-43" d="M 3974 4289 
C 3974 4403 3968 4410 3930 4410 
C 3904 4410 3898 4403 3853 4327 
L 3571 3792 
C 3258 4187 2874 4416 2381 4416 
C 1286 4416 294 3456 294 2148 
C 294 826 1286 -128 2387 -128 
C 3366 -128 3974 730 3974 1461 
C 3974 1524 3974 1550 3917 1550 
C 3866 1550 3866 1531 3859 1474 
C 3808 585 3168 38 2477 38 
C 1824 38 781 495 781 2147 
C 781 3805 1843 4250 2464 4250 
C 3187 4250 3712 3628 3834 2745 
C 3846 2668 3846 2655 3904 2655 
C 3974 2655 3974 2668 3974 2783 
L 3974 4289 
z
" transform="scale(0.015625)"/>
      <path id="CMR17-68" d="M 2656 1933 
C 2656 2259 2592 2790 1837 2790 
C 1312 2790 1056 2368 979 2157 
L 973 2157 
L 973 4396 
L 211 4326 
L 211 4160 
C 589 4160 646 4122 646 3817 
L 646 426 
C 646 184 621 153 211 153 
L 211 -13 
C 365 0 646 0 813 0 
C 979 0 1267 0 1421 -13 
L 1421 153 
C 1011 153 986 178 986 428 
L 986 1658 
C 986 2247 1344 2688 1792 2688 
C 2266 2688 2317 2266 2317 1958 
L 2317 428 
C 2317 184 2291 153 1882 153 
L 1882 -13 
C 2035 0 2317 0 2483 0 
C 2650 0 2938 0 3091 -13 
L 3091 153 
C 2682 153 2656 178 2656 428 
L 2656 1933 
z
" transform="scale(0.015625)"/>
      <path id="CMR17-61" d="M 2304 1653 
C 2304 2072 2304 2294 2035 2543 
C 1798 2752 1523 2816 1306 2816 
C 800 2816 435 2407 435 1971 
C 435 1728 627 1728 666 1728 
C 749 1728 896 1778 896 1954 
C 896 2112 774 2181 666 2181 
C 640 2181 608 2174 589 2168 
C 723 2592 1069 2714 1293 2714 
C 1613 2714 1965 2429 1965 1885 
L 1965 1600 
C 1587 1600 1133 1549 774 1357 
C 371 1133 256 813 256 570 
C 256 77 832 -64 1171 -64 
C 1523 -64 1850 139 1990 511 
C 2003 233 2182 -18 2464 -18 
C 2598 -18 2938 70 2938 567 
L 2938 920 
L 2822 920 
L 2822 562 
C 2822 178 2650 128 2566 128 
C 2304 128 2304 458 2304 738 
L 2304 1653 
z
M 1965 870 
C 1965 317 1568 38 1216 38 
C 896 38 646 275 646 570 
C 646 761 730 1100 1101 1305 
C 1408 1478 1760 1504 1965 1504 
L 1965 870 
z
" transform="scale(0.015625)"/>
      <path id="CMR17-6e" d="M 2656 1933 
C 2656 2259 2592 2790 1837 2790 
C 1331 2790 1069 2400 973 2144 
L 966 2144 
L 966 2790 
L 211 2720 
L 211 2554 
C 589 2554 646 2515 646 2208 
L 646 428 
C 646 184 621 153 211 153 
L 211 -13 
C 365 0 646 0 813 0 
C 979 0 1267 0 1421 -13 
L 1421 153 
C 1011 153 986 178 986 428 
L 986 1658 
C 986 2247 1344 2688 1792 2688 
C 2266 2688 2317 2266 2317 1958 
L 2317 428 
C 2317 184 2291 153 1882 153 
L 1882 -13 
C 2035 0 2317 0 2483 0 
C 2650 0 2938 0 3091 -13 
L 3091 153 
C 2682 153 2656 178 2656 428 
L 2656 1933 
z
" transform="scale(0.015625)"/>
      <path id="CMR17-67" d="M 710 1164 
C 832 1068 1043 960 1299 960 
C 1805 960 2240 1357 2240 1888 
C 2240 2054 2189 2310 1997 2509 
C 2176 2692 2438 2752 2586 2752 
C 2611 2752 2650 2752 2682 2734 
C 2656 2728 2598 2703 2598 2605 
C 2598 2527 2656 2471 2739 2471 
C 2835 2471 2886 2533 2886 2614 
C 2886 2731 2790 2854 2586 2854 
C 2330 2854 2106 2738 1926 2580 
C 1734 2753 1504 2816 1299 2816 
C 794 2816 358 2419 358 1888 
C 358 1522 570 1292 634 1228 
C 442 1004 442 743 442 711 
C 442 545 506 302 723 168 
C 390 85 128 -169 128 -486 
C 128 -943 736 -1280 1466 -1280 
C 2170 -1280 2803 -956 2803 -479 
C 2803 384 1856 384 1363 384 
C 1216 384 954 384 922 391 
C 723 423 589 602 589 826 
C 589 883 589 1024 710 1164 
z
M 1299 1068 
C 736 1068 736 1760 736 1889 
C 736 2016 736 2708 1299 2708 
C 1862 2708 1862 2016 1862 1889 
C 1862 1760 1862 1068 1299 1068 
z
M 1466 -1171 
C 826 -1171 384 -835 384 -486 
C 384 -289 493 -105 634 -4 
C 794 104 858 104 1293 104 
C 1818 104 2547 104 2547 -486 
C 2547 -835 2106 -1171 1466 -1171 
z
" transform="scale(0.015625)"/>
      <path id="CMR17-65" d="M 2438 1472 
C 2464 1498 2464 1511 2464 1576 
C 2464 2238 2118 2816 1389 2816 
C 710 2816 173 2169 173 1383 
C 173 551 781 -64 1459 -64 
C 2176 -64 2458 607 2458 740 
C 2458 784 2419 784 2406 784 
C 2362 784 2355 771 2330 696 
C 2189 265 1837 51 1504 51 
C 1229 51 954 203 781 480 
C 582 803 582 1176 582 1472 
L 2438 1472 
z
M 589 1568 
C 634 2505 1126 2714 1382 2714 
C 1818 2714 2112 2297 2118 1568 
L 589 1568 
z
" transform="scale(0.015625)"/>
      <path id="CMR17-69" d="M 992 3909 
C 992 4049 877 4170 730 4170 
C 589 4170 467 4056 467 3909 
C 467 3769 582 3648 730 3648 
C 870 3648 992 3763 992 3909 
z
M 243 2706 
L 243 2541 
C 602 2541 653 2502 653 2197 
L 653 427 
C 653 184 627 153 218 153 
L 218 -13 
C 371 0 646 0 806 0 
C 960 0 1222 0 1370 -13 
L 1370 153 
C 992 153 979 191 979 420 
L 979 2776 
L 243 2706 
z
" transform="scale(0.015625)"/>
      <path id="CMR17-49" d="M 1261 3905 
C 1261 4192 1338 4192 1798 4192 
L 1798 4352 
C 1594 4352 1267 4352 1050 4352 
C 832 4352 506 4352 301 4352 
L 301 4192 
C 762 4192 838 4192 838 3905 
L 838 447 
C 838 160 762 160 301 160 
L 301 0 
C 506 0 832 0 1050 0 
C 1267 0 1594 0 1798 0 
L 1798 160 
C 1338 160 1261 160 1261 447 
L 1261 3905 
z
" transform="scale(0.015625)"/>
      <path id="CMR17-64" d="M 1869 4326 
L 1869 4160 
C 2246 4160 2304 4122 2304 3820 
L 2304 2345 
C 2278 2377 2016 2790 1498 2790 
C 845 2790 211 2208 211 1364 
C 211 525 806 -64 1434 -64 
C 1978 -64 2259 337 2291 380 
L 2291 -63 
L 3066 -63 
L 3066 128 
C 2688 128 2630 166 2630 473 
L 2630 4396 
L 1869 4326 
z
M 2291 755 
C 2291 563 2176 390 2029 262 
C 1811 70 1594 38 1472 38 
C 1286 38 621 134 621 1356 
C 621 2612 1363 2688 1530 2688 
C 1824 2688 2061 2522 2208 2291 
C 2291 2157 2291 2138 2291 2023 
L 2291 755 
z
" transform="scale(0.015625)"/>
      <path id="CMR17-75" d="M 1882 2693 
L 1882 2528 
C 2259 2528 2317 2489 2317 2186 
L 2317 1032 
C 2317 500 2029 38 1555 38 
C 1030 38 986 348 986 678 
L 986 2763 
L 211 2693 
L 211 2528 
C 467 2528 640 2528 646 2274 
L 646 1058 
C 646 633 646 361 813 183 
C 896 101 1056 -64 1517 -64 
C 2061 -64 2272 377 2323 506 
L 2330 506 
L 2330 -63 
L 3091 -63 
L 3091 128 
C 2714 128 2656 166 2656 473 
L 2656 2763 
L 1882 2693 
z
" transform="scale(0.015625)"/>
      <path id="CMR17-73" d="M 1978 2697 
C 1978 2813 1971 2819 1933 2819 
C 1907 2819 1901 2813 1824 2717 
C 1805 2691 1747 2626 1728 2601 
C 1523 2819 1235 2819 1126 2819 
C 416 2819 160 2447 160 2076 
C 160 1498 813 1365 998 1325 
C 1402 1243 1542 1217 1677 1101 
C 1760 1025 1901 884 1901 654 
C 1901 384 1747 38 1158 38 
C 602 38 403 460 288 1021 
C 269 1110 269 1117 218 1117 
C 166 1117 160 1110 160 983 
L 160 63 
C 160 -51 166 -58 205 -58 
C 237 -58 243 -51 275 0 
C 314 57 410 211 448 276 
C 576 103 800 -64 1158 -64 
C 1792 -64 2131 283 2131 784 
C 2131 1112 1958 1285 1875 1362 
C 1683 1561 1459 1606 1190 1657 
C 838 1735 390 1825 390 2217 
C 390 2383 480 2737 1126 2737 
C 1811 2737 1850 2094 1862 1888 
C 1869 1856 1901 1849 1920 1849 
C 1978 1849 1978 1869 1978 1978 
L 1978 2697 
z
" transform="scale(0.015625)"/>
      <path id="CMR17-74" d="M 966 2560 
L 1862 2560 
L 1862 2725 
L 966 2725 
L 966 3904 
L 851 3904 
C 838 3245 614 2668 70 2668 
L 70 2560 
L 627 2560 
L 627 771 
C 627 650 627 -64 1370 -64 
C 1747 -64 1965 306 1965 777 
L 1965 1140 
L 1850 1140 
L 1850 783 
C 1850 344 1677 51 1408 51 
C 1222 51 966 178 966 758 
L 966 2560 
z
" transform="scale(0.015625)"/>
      <path id="CMR17-72" d="M 960 1497 
C 960 2112 1222 2688 1702 2688 
C 1747 2688 1792 2682 1837 2662 
C 1837 2662 1696 2617 1696 2452 
C 1696 2298 1818 2234 1914 2234 
C 1990 2234 2131 2279 2131 2458 
C 2131 2663 1926 2790 1709 2790 
C 1222 2790 1011 2317 947 2093 
L 941 2093 
L 941 2790 
L 198 2720 
L 198 2554 
C 576 2554 634 2515 634 2208 
L 634 428 
C 634 184 608 153 198 153 
L 198 -13 
C 352 0 646 0 813 0 
C 998 0 1325 0 1498 -13 
L 1498 153 
C 1037 153 960 153 960 440 
L 960 1497 
z
" transform="scale(0.015625)"/>
      <path id="CMR17-79" d="M 2496 2197 
C 2656 2586 2944 2586 3034 2586 
L 3034 2752 
C 2912 2752 2752 2752 2630 2752 
C 2496 2752 2285 2752 2157 2758 
L 2157 2592 
C 2400 2573 2406 2394 2406 2343 
C 2406 2280 2394 2248 2362 2171 
L 1664 449 
L 902 2306 
C 870 2382 870 2426 870 2433 
C 870 2573 1018 2586 1171 2586 
L 1171 2758 
C 1018 2752 742 2752 582 2752 
C 410 2752 205 2752 64 2758 
L 64 2586 
C 410 2586 448 2554 531 2350 
L 1485 15 
C 1197 -738 1030 -1178 627 -1178 
C 557 -1178 397 -1159 282 -1044 
C 429 -1031 493 -942 493 -833 
C 493 -725 416 -629 288 -629 
C 147 -629 77 -725 77 -840 
C 77 -1095 339 -1280 627 -1280 
C 998 -1280 1229 -922 1357 -604 
L 2496 2197 
z
" transform="scale(0.015625)"/>
      <path id="CMR17-52" d="M 2509 2146 
C 3117 2268 3629 2676 3629 3186 
C 3629 3785 2950 4326 2054 4326 
L 333 4326 
L 333 4160 
C 774 4160 845 4160 845 3873 
L 845 415 
C 845 128 774 128 333 128 
L 333 -26 
C 518 -26 851 -26 1050 -26 
C 1248 -26 1581 -26 1766 -26 
L 1766 128 
C 1325 128 1254 128 1254 417 
L 1254 2112 
L 2003 2112 
C 2368 2112 2573 1964 2662 1881 
C 2918 1632 2918 1459 2918 1024 
C 2918 595 2918 377 3110 160 
C 3354 -102 3680 -128 3821 -128 
C 4294 -128 4365 396 4365 503 
C 4365 540 4365 585 4307 585 
C 4256 585 4250 547 4250 522 
C 4218 112 4032 -26 3834 -26 
C 3482 -26 3443 375 3405 764 
C 3386 898 3373 993 3360 1133 
C 3322 1452 3270 1917 2509 2146 
z
M 1984 2214 
L 1254 2214 
L 1254 3913 
C 1254 4129 1267 4160 1523 4160 
L 1990 4160 
C 2522 4160 3142 3977 3142 3190 
C 3142 2372 2464 2214 1984 2214 
z
" transform="scale(0.015625)"/>
      <path id="CMR17-76" d="M 2502 2163 
C 2560 2304 2662 2560 3034 2560 
L 3034 2726 
C 2912 2726 2752 2726 2630 2726 
C 2496 2726 2285 2726 2157 2732 
L 2157 2566 
C 2317 2553 2406 2477 2406 2311 
C 2406 2253 2406 2240 2368 2151 
L 1664 377 
L 902 2286 
C 864 2369 864 2381 864 2407 
C 864 2560 1075 2560 1171 2560 
L 1171 2732 
C 1018 2726 736 2726 576 2726 
C 403 2726 205 2726 64 2732 
L 64 2560 
C 307 2560 442 2560 518 2362 
L 1446 44 
C 1485 -51 1491 -64 1549 -64 
C 1606 -64 1613 -51 1651 44 
L 2502 2163 
z
" transform="scale(0.015625)"/>
     </defs>
     <use xlink:href="#CMR17-43" transform="scale(0.996264)"/>
     <use xlink:href="#CMR17-68" transform="translate(66.509881 0) scale(0.996264)"/>
     <use xlink:href="#CMR17-61" transform="translate(117.40525 0) scale(0.996264)"/>
     <use xlink:href="#CMR17-6e" transform="translate(163.095727 0) scale(0.996264)"/>
     <use xlink:href="#CMR17-67" transform="translate(213.991097 0) scale(0.996264)"/>
     <use xlink:href="#CMR17-65" transform="translate(259.681574 0) scale(0.996264)"/>
     <use xlink:href="#CMR17-69" transform="translate(330.243201 0) scale(0.996264)"/>
     <use xlink:href="#CMR17-6e" transform="translate(355.11426 0) scale(0.996264)"/>
     <use xlink:href="#CMR17-49" transform="translate(436.085596 0) scale(0.996264)"/>
     <use xlink:href="#CMR17-6e" transform="translate(468.724005 0) scale(0.996264)"/>
     <use xlink:href="#CMR17-64" transform="translate(519.619375 0) scale(0.996264)"/>
     <use xlink:href="#CMR17-75" transform="translate(570.514745 0) scale(0.996264)"/>
     <use xlink:href="#CMR17-73" transform="translate(621.410114 0) scale(0.996264)"/>
     <use xlink:href="#CMR17-74" transform="translate(657.211452 0) scale(0.996264)"/>
     <use xlink:href="#CMR17-72" transform="translate(692.49222 0) scale(0.996264)"/>
     <use xlink:href="#CMR17-79" transform="translate(727.772988 0) scale(0.996264)"/>
     <use xlink:href="#CMR17-52" transform="translate(806.14187 0) scale(0.996264)"/>
     <use xlink:href="#CMR17-65" transform="translate(873.932972 0) scale(0.996264)"/>
     <use xlink:href="#CMR17-76" transform="translate(914.418632 0) scale(0.996264)"/>
     <use xlink:href="#CMR17-65" transform="translate(960.109094 0) scale(0.996264)"/>
     <use xlink:href="#CMR17-6e" transform="translate(1000.594755 0) scale(0.996264)"/>
     <use xlink:href="#CMR17-75" transform="translate(1048.88767 0) scale(0.996264)"/>
     <use xlink:href="#CMR17-65" transform="translate(1099.78304 0) scale(0.996264)"/>
    </g>
   </g>
  </g>
  <g id="axes_2">
   <g id="patch_5">
    <path d="M 769.893114 335.18737 
L 1436.99976 335.18737 
L 1436.99976 25.604645 
L 769.893114 25.604645 
z
" style="fill: #ffffff"/>
   </g>
   <g id="matplotlib.axis_3">
    <g id="xtick_12">
     <g id="line2d_17">
      <path d="M 800.216143 335.18737 
L 800.216143 25.604645 
" clip-path="url(#p1decb90a21)" style="fill: none; stroke: #cccccc; stroke-width: 0.8; stroke-linecap: round"/>
     </g>
     <g id="text_17">
      <!-- $\mathdefault{2014}$ -->
      <g transform="translate(781.939952 352.524366) scale(0.2 -0.2)">
       <use xlink:href="#CMR17-32" transform="scale(0.996264)"/>
       <use xlink:href="#CMR17-30" transform="translate(45.690477 0) scale(0.996264)"/>
       <use xlink:href="#CMR17-31" transform="translate(91.380954 0) scale(0.996264)"/>
       <use xlink:href="#CMR17-34" transform="translate(137.071431 0) scale(0.996264)"/>
      </g>
     </g>
    </g>
    <g id="xtick_13">
     <g id="line2d_18">
      <path d="M 861.858614 335.18737 
L 861.858614 25.604645 
" clip-path="url(#p1decb90a21)" style="fill: none; stroke: #cccccc; stroke-width: 0.8; stroke-linecap: round"/>
     </g>
     <g id="text_18">
      <!-- $\mathdefault{2015}$ -->
      <g transform="translate(843.582424 352.524366) scale(0.2 -0.2)">
       <use xlink:href="#CMR17-32" transform="scale(0.996264)"/>
       <use xlink:href="#CMR17-30" transform="translate(45.690477 0) scale(0.996264)"/>
       <use xlink:href="#CMR17-31" transform="translate(91.380954 0) scale(0.996264)"/>
       <use xlink:href="#CMR17-35" transform="translate(137.071431 0) scale(0.996264)"/>
      </g>
     </g>
    </g>
    <g id="xtick_14">
     <g id="line2d_19">
      <path d="M 923.501086 335.18737 
L 923.501086 25.604645 
" clip-path="url(#p1decb90a21)" style="fill: none; stroke: #cccccc; stroke-width: 0.8; stroke-linecap: round"/>
     </g>
     <g id="text_19">
      <!-- $\mathdefault{2016}$ -->
      <g transform="translate(905.224895 352.524366) scale(0.2 -0.2)">
       <use xlink:href="#CMR17-32" transform="scale(0.996264)"/>
       <use xlink:href="#CMR17-30" transform="translate(45.690477 0) scale(0.996264)"/>
       <use xlink:href="#CMR17-31" transform="translate(91.380954 0) scale(0.996264)"/>
       <use xlink:href="#CMR17-36" transform="translate(137.071431 0) scale(0.996264)"/>
      </g>
     </g>
    </g>
    <g id="xtick_15">
     <g id="line2d_20">
      <path d="M 985.31244 335.18737 
L 985.31244 25.604645 
" clip-path="url(#p1decb90a21)" style="fill: none; stroke: #cccccc; stroke-width: 0.8; stroke-linecap: round"/>
     </g>
     <g id="text_20">
      <!-- $\mathdefault{2017}$ -->
      <g transform="translate(967.03625 352.524366) scale(0.2 -0.2)">
       <use xlink:href="#CMR17-32" transform="scale(0.996264)"/>
       <use xlink:href="#CMR17-30" transform="translate(45.690477 0) scale(0.996264)"/>
       <use xlink:href="#CMR17-31" transform="translate(91.380954 0) scale(0.996264)"/>
       <use xlink:href="#CMR17-37" transform="translate(137.071431 0) scale(0.996264)"/>
      </g>
     </g>
    </g>
    <g id="xtick_16">
     <g id="line2d_21">
      <path d="M 1046.954912 335.18737 
L 1046.954912 25.604645 
" clip-path="url(#p1decb90a21)" style="fill: none; stroke: #cccccc; stroke-width: 0.8; stroke-linecap: round"/>
     </g>
     <g id="text_21">
      <!-- $\mathdefault{2018}$ -->
      <g transform="translate(1028.678721 352.524366) scale(0.2 -0.2)">
       <use xlink:href="#CMR17-32" transform="scale(0.996264)"/>
       <use xlink:href="#CMR17-30" transform="translate(45.690477 0) scale(0.996264)"/>
       <use xlink:href="#CMR17-31" transform="translate(91.380954 0) scale(0.996264)"/>
       <use xlink:href="#CMR17-38" transform="translate(137.071431 0) scale(0.996264)"/>
      </g>
     </g>
    </g>
    <g id="xtick_17">
     <g id="line2d_22">
      <path d="M 1108.597383 335.18737 
L 1108.597383 25.604645 
" clip-path="url(#p1decb90a21)" style="fill: none; stroke: #cccccc; stroke-width: 0.8; stroke-linecap: round"/>
     </g>
     <g id="text_22">
      <!-- $\mathdefault{2019}$ -->
      <g transform="translate(1090.321192 352.524366) scale(0.2 -0.2)">
       <use xlink:href="#CMR17-32" transform="scale(0.996264)"/>
       <use xlink:href="#CMR17-30" transform="translate(45.690477 0) scale(0.996264)"/>
       <use xlink:href="#CMR17-31" transform="translate(91.380954 0) scale(0.996264)"/>
       <use xlink:href="#CMR17-39" transform="translate(137.071431 0) scale(0.996264)"/>
      </g>
     </g>
    </g>
    <g id="xtick_18">
     <g id="line2d_23">
      <path d="M 1170.239854 335.18737 
L 1170.239854 25.604645 
" clip-path="url(#p1decb90a21)" style="fill: none; stroke: #cccccc; stroke-width: 0.8; stroke-linecap: round"/>
     </g>
     <g id="text_23">
      <!-- $\mathdefault{2020}$ -->
      <g transform="translate(1151.963664 352.524366) scale(0.2 -0.2)">
       <use xlink:href="#CMR17-32" transform="scale(0.996264)"/>
       <use xlink:href="#CMR17-30" transform="translate(45.690477 0) scale(0.996264)"/>
       <use xlink:href="#CMR17-32" transform="translate(91.380954 0) scale(0.996264)"/>
       <use xlink:href="#CMR17-30" transform="translate(137.071431 0) scale(0.996264)"/>
      </g>
     </g>
    </g>
    <g id="xtick_19">
     <g id="line2d_24">
      <path d="M 1232.051209 335.18737 
L 1232.051209 25.604645 
" clip-path="url(#p1decb90a21)" style="fill: none; stroke: #cccccc; stroke-width: 0.8; stroke-linecap: round"/>
     </g>
     <g id="text_24">
      <!-- $\mathdefault{2021}$ -->
      <g transform="translate(1213.775018 352.524366) scale(0.2 -0.2)">
       <use xlink:href="#CMR17-32" transform="scale(0.996264)"/>
       <use xlink:href="#CMR17-30" transform="translate(45.690477 0) scale(0.996264)"/>
       <use xlink:href="#CMR17-32" transform="translate(91.380954 0) scale(0.996264)"/>
       <use xlink:href="#CMR17-31" transform="translate(137.071431 0) scale(0.996264)"/>
      </g>
     </g>
    </g>
    <g id="xtick_20">
     <g id="line2d_25">
      <path d="M 1293.69368 335.18737 
L 1293.69368 25.604645 
" clip-path="url(#p1decb90a21)" style="fill: none; stroke: #cccccc; stroke-width: 0.8; stroke-linecap: round"/>
     </g>
     <g id="text_25">
      <!-- $\mathdefault{2022}$ -->
      <g transform="translate(1275.41749 352.524366) scale(0.2 -0.2)">
       <use xlink:href="#CMR17-32" transform="scale(0.996264)"/>
       <use xlink:href="#CMR17-30" transform="translate(45.690477 0) scale(0.996264)"/>
       <use xlink:href="#CMR17-32" transform="translate(91.380954 0) scale(0.996264)"/>
       <use xlink:href="#CMR17-32" transform="translate(137.071431 0) scale(0.996264)"/>
      </g>
     </g>
    </g>
    <g id="xtick_21">
     <g id="line2d_26">
      <path d="M 1355.336152 335.18737 
L 1355.336152 25.604645 
" clip-path="url(#p1decb90a21)" style="fill: none; stroke: #cccccc; stroke-width: 0.8; stroke-linecap: round"/>
     </g>
     <g id="text_26">
      <!-- $\mathdefault{2023}$ -->
      <g transform="translate(1337.059961 352.524366) scale(0.2 -0.2)">
       <use xlink:href="#CMR17-32" transform="scale(0.996264)"/>
       <use xlink:href="#CMR17-30" transform="translate(45.690477 0) scale(0.996264)"/>
       <use xlink:href="#CMR17-32" transform="translate(91.380954 0) scale(0.996264)"/>
       <use xlink:href="#CMR17-33" transform="translate(137.071431 0) scale(0.996264)"/>
      </g>
     </g>
    </g>
    <g id="xtick_22">
     <g id="line2d_27">
      <path d="M 1416.978623 335.18737 
L 1416.978623 25.604645 
" clip-path="url(#p1decb90a21)" style="fill: none; stroke: #cccccc; stroke-width: 0.8; stroke-linecap: round"/>
     </g>
     <g id="text_27">
      <!-- $\mathdefault{2024}$ -->
      <g transform="translate(1398.702432 352.524366) scale(0.2 -0.2)">
       <use xlink:href="#CMR17-32" transform="scale(0.996264)"/>
       <use xlink:href="#CMR17-30" transform="translate(45.690477 0) scale(0.996264)"/>
       <use xlink:href="#CMR17-32" transform="translate(91.380954 0) scale(0.996264)"/>
       <use xlink:href="#CMR17-34" transform="translate(137.071431 0) scale(0.996264)"/>
      </g>
     </g>
    </g>
   </g>
   <g id="matplotlib.axis_4">
    <g id="ytick_5">
     <g id="line2d_28">
      <path d="M 769.893114 333.351899 
L 1436.99976 333.351899 
" clip-path="url(#p1decb90a21)" style="fill: none; stroke: #cccccc; stroke-width: 0.8; stroke-linecap: round"/>
     </g>
     <g id="text_28">
      <!-- $\mathdefault{−0.4}$ -->
      <g transform="translate(727.2 340.270397) scale(0.2 -0.2)">
       <use xlink:href="#CMSY10-0" transform="scale(0.996264)"/>
       <use xlink:href="#CMR17-30" transform="translate(77.487468 0) scale(0.996264)"/>
       <use xlink:href="#CMMI12-3a" transform="translate(123.177945 0) scale(0.996264)"/>
       <use xlink:href="#CMR17-34" transform="translate(150.275122 0) scale(0.996264)"/>
      </g>
     </g>
    </g>
    <g id="ytick_6">
     <g id="line2d_29">
      <path d="M 769.893114 272.169542 
L 1436.99976 272.169542 
" clip-path="url(#p1decb90a21)" style="fill: none; stroke: #cccccc; stroke-width: 0.8; stroke-linecap: round"/>
     </g>
     <g id="text_29">
      <!-- $\mathdefault{−0.3}$ -->
      <g transform="translate(727.2 279.088041) scale(0.2 -0.2)">
       <use xlink:href="#CMSY10-0" transform="scale(0.996264)"/>
       <use xlink:href="#CMR17-30" transform="translate(77.487468 0) scale(0.996264)"/>
       <use xlink:href="#CMMI12-3a" transform="translate(123.177945 0) scale(0.996264)"/>
       <use xlink:href="#CMR17-33" transform="translate(150.275122 0) scale(0.996264)"/>
      </g>
     </g>
    </g>
    <g id="ytick_7">
     <g id="line2d_30">
      <path d="M 769.893114 210.987186 
L 1436.99976 210.987186 
" clip-path="url(#p1decb90a21)" style="fill: none; stroke: #cccccc; stroke-width: 0.8; stroke-linecap: round"/>
     </g>
     <g id="text_30">
      <!-- $\mathdefault{−0.2}$ -->
      <g transform="translate(727.2 217.905684) scale(0.2 -0.2)">
       <use xlink:href="#CMSY10-0" transform="scale(0.996264)"/>
       <use xlink:href="#CMR17-30" transform="translate(77.487468 0) scale(0.996264)"/>
       <use xlink:href="#CMMI12-3a" transform="translate(123.177945 0) scale(0.996264)"/>
       <use xlink:href="#CMR17-32" transform="translate(150.275122 0) scale(0.996264)"/>
      </g>
     </g>
    </g>
    <g id="ytick_8">
     <g id="line2d_31">
      <path d="M 769.893114 149.804829 
L 1436.99976 149.804829 
" clip-path="url(#p1decb90a21)" style="fill: none; stroke: #cccccc; stroke-width: 0.8; stroke-linecap: round"/>
     </g>
     <g id="text_31">
      <!-- $\mathdefault{−0.1}$ -->
      <g transform="translate(727.2 156.723328) scale(0.2 -0.2)">
       <use xlink:href="#CMSY10-0" transform="scale(0.996264)"/>
       <use xlink:href="#CMR17-30" transform="translate(77.487468 0) scale(0.996264)"/>
       <use xlink:href="#CMMI12-3a" transform="translate(123.177945 0) scale(0.996264)"/>
       <use xlink:href="#CMR17-31" transform="translate(150.275122 0) scale(0.996264)"/>
      </g>
     </g>
    </g>
    <g id="ytick_9">
     <g id="line2d_32">
      <path d="M 769.893114 88.622473 
L 1436.99976 88.622473 
" clip-path="url(#p1decb90a21)" style="fill: none; stroke: #cccccc; stroke-width: 0.8; stroke-linecap: round"/>
     </g>
     <g id="text_32">
      <!-- $\mathdefault{0.0}$ -->
      <g transform="translate(742.697487 95.540971) scale(0.2 -0.2)">
       <use xlink:href="#CMR17-30" transform="scale(0.996264)"/>
       <use xlink:href="#CMMI12-3a" transform="translate(45.690477 0) scale(0.996264)"/>
       <use xlink:href="#CMR17-30" transform="translate(72.787654 0) scale(0.996264)"/>
      </g>
     </g>
    </g>
    <g id="ytick_10">
     <g id="line2d_33">
      <path d="M 769.893114 27.440116 
L 1436.99976 27.440116 
" clip-path="url(#p1decb90a21)" style="fill: none; stroke: #cccccc; stroke-width: 0.8; stroke-linecap: round"/>
     </g>
     <g id="text_33">
      <!-- $\mathdefault{0.1}$ -->
      <g transform="translate(742.697487 34.358614) scale(0.2 -0.2)">
       <use xlink:href="#CMR17-30" transform="scale(0.996264)"/>
       <use xlink:href="#CMMI12-3a" transform="translate(45.690477 0) scale(0.996264)"/>
       <use xlink:href="#CMR17-31" transform="translate(72.787654 0) scale(0.996264)"/>
      </g>
     </g>
    </g>
   </g>
   <g id="line2d_34">
    <path d="M 800.216143 113.095415 
L 805.451531 131.450122 
L 810.180269 174.277772 
L 815.415657 180.396007 
L 820.482161 229.341893 
L 825.717549 192.632479 
L 830.784054 198.750714 
L 836.019441 217.105421 
L 841.254829 186.514243 
L 846.321334 247.6966 
L 851.556722 253.814835 
L 856.623226 180.396007 
L 861.858614 229.341893 
L 867.094002 223.223657 
L 871.82274 217.105421 
L 877.058128 210.987186 
L 882.124632 229.341893 
L 887.36002 247.6966 
L 892.426525 210.987186 
L 897.661913 149.804829 
L 902.897301 168.159536 
L 907.963805 186.514243 
L 913.199193 70.267766 
L 918.265698 125.331886 
L 923.501086 137.568358 
L 928.736474 174.277772 
L 933.634095 125.331886 
L 938.869483 106.97718 
L 943.935987 100.858944 
L 949.171375 106.97718 
L 954.23788 162.0413 
L 959.473268 162.0413 
L 964.708656 119.213651 
L 969.77516 174.277772 
L 975.010548 162.0413 
L 980.077053 168.159536 
L 985.31244 162.0413 
L 990.547828 125.331886 
L 995.276566 155.923065 
L 1000.511954 137.568358 
L 1005.578458 149.804829 
L 1010.813846 137.568358 
L 1015.880351 131.450122 
L 1021.115739 174.277772 
L 1026.351127 137.568358 
L 1031.417631 137.568358 
L 1036.653019 94.740708 
L 1041.719524 131.450122 
L 1046.954912 100.858944 
L 1052.1903 143.686593 
L 1056.919037 94.740708 
L 1062.154425 125.331886 
L 1067.22093 149.804829 
L 1072.456318 137.568358 
L 1077.522822 82.504237 
L 1082.75821 106.97718 
L 1087.993598 131.450122 
L 1093.060103 137.568358 
L 1098.295491 143.686593 
L 1103.361995 137.568358 
L 1108.597383 162.0413 
L 1113.832771 155.923065 
L 1118.561509 137.568358 
L 1123.796897 180.396007 
L 1128.863401 174.277772 
L 1134.098789 168.159536 
L 1139.165294 137.568358 
L 1144.400681 168.159536 
L 1149.636069 162.0413 
L 1154.702574 149.804829 
L 1159.937962 143.686593 
L 1165.004466 143.686593 
L 1170.239854 125.331886 
L 1175.475242 168.159536 
L 1180.372863 149.804829 
L 1185.608251 321.115428 
L 1190.674756 290.524249 
L 1195.910144 278.287778 
L 1200.976648 272.169542 
L 1206.212036 198.750714 
L 1211.447424 210.987186 
L 1216.513929 168.159536 
L 1221.749317 143.686593 
L 1226.815821 106.97718 
L 1232.051209 94.740708 
L 1237.286597 94.740708 
L 1242.015335 119.213651 
L 1247.250723 106.97718 
L 1252.317227 94.740708 
L 1257.552615 64.14953 
L 1262.61912 76.386001 
L 1267.854508 70.267766 
L 1273.089896 88.622473 
L 1278.1564 58.031294 
L 1283.391788 45.794823 
L 1288.458293 45.794823 
L 1293.69368 39.676587 
L 1298.929068 64.14953 
L 1303.657806 94.740708 
L 1308.893194 106.97718 
L 1313.959698 88.622473 
L 1319.195086 113.095415 
L 1324.261591 119.213651 
L 1329.496979 131.450122 
L 1334.732367 162.0413 
L 1339.798871 119.213651 
L 1345.034259 106.97718 
L 1350.100764 125.331886 
L 1355.336152 131.450122 
L 1360.57154 149.804829 
L 1365.300277 125.331886 
L 1370.535665 162.0413 
L 1375.60217 162.0413 
L 1380.837558 143.686593 
L 1385.904062 149.804829 
L 1391.13945 137.568358 
L 1396.374838 155.923065 
L 1401.441343 149.804829 
L 1406.676731 155.923065 
" clip-path="url(#p1decb90a21)" style="fill: none; stroke: #006e64; stroke-width: 1.5; stroke-linecap: round"/>
   </g>
   <g id="patch_6">
    <path d="M 769.893114 335.18737 
L 769.893114 25.604645 
" style="fill: none; stroke: #808080; stroke-width: 0.8; stroke-linejoin: miter; stroke-linecap: square"/>
   </g>
   <g id="patch_7">
    <path d="M 769.893114 335.18737 
L 1436.99976 335.18737 
" style="fill: none; stroke: #808080; stroke-width: 0.8; stroke-linejoin: miter; stroke-linecap: square"/>
   </g>
   <g id="text_34">
    <!-- Assessment of Order Backlog -->
    <g style="fill: #262626" transform="translate(963.754598 19.604645) scale(0.24 -0.24)">
     <defs>
      <path id="CMR17-41" d="M 2323 4378 
C 2291 4461 2278 4480 2214 4480 
C 2150 4480 2138 4461 2106 4378 
L 749 566 
C 627 223 371 153 147 153 
L 147 -13 
C 262 0 518 0 640 0 
C 800 0 1056 0 1210 -13 
L 1210 153 
C 909 153 864 361 864 439 
C 864 497 877 530 890 569 
L 1229 1536 
L 2906 1536 
L 3290 442 
C 3322 365 3322 352 3322 327 
C 3322 153 3046 153 2925 153 
L 2925 0 
C 3110 0 3443 0 3642 0 
C 3808 0 4128 0 4282 -13 
L 4282 153 
C 3942 153 3827 153 3744 387 
L 2323 4378 
z
M 2067 3893 
L 2848 1702 
L 1286 1702 
L 2067 3893 
z
" transform="scale(0.015625)"/>
      <path id="CMR17-6d" d="M 4326 1933 
C 4326 2252 4269 2790 3507 2790 
C 3072 2790 2771 2496 2656 2151 
L 2650 2151 
C 2573 2676 2195 2790 1837 2790 
C 1331 2790 1069 2400 973 2144 
L 966 2144 
L 966 2790 
L 211 2720 
L 211 2554 
C 589 2554 646 2515 646 2208 
L 646 428 
C 646 184 621 153 211 153 
L 211 -13 
C 365 0 646 0 813 0 
C 979 0 1267 0 1421 -13 
L 1421 153 
C 1011 153 986 178 986 428 
L 986 1658 
C 986 2247 1344 2688 1792 2688 
C 2266 2688 2317 2266 2317 1958 
L 2317 428 
C 2317 184 2291 153 1882 153 
L 1882 -13 
C 2035 0 2317 0 2483 0 
C 2650 0 2938 0 3091 -13 
L 3091 153 
C 2682 153 2656 178 2656 428 
L 2656 1658 
C 2656 2247 3014 2688 3462 2688 
C 3936 2688 3987 2266 3987 1958 
L 3987 428 
C 3987 184 3962 153 3552 153 
L 3552 -13 
C 3706 0 3987 0 4154 0 
C 4320 0 4608 0 4762 -13 
L 4762 153 
C 4352 153 4326 178 4326 428 
L 4326 1933 
z
" transform="scale(0.015625)"/>
      <path id="CMR17-6f" d="M 2758 1356 
C 2758 2176 2163 2816 1466 2816 
C 768 2816 173 2176 173 1356 
C 173 551 768 -64 1466 -64 
C 2163 -64 2758 551 2758 1356 
z
M 1466 51 
C 1165 51 909 230 762 480 
C 602 767 582 1126 582 1408 
C 582 1677 595 2010 762 2298 
C 890 2509 1139 2714 1466 2714 
C 1754 2714 1997 2554 2150 2330 
C 2349 2029 2349 1607 2349 1408 
C 2349 1158 2336 775 2163 467 
C 1984 173 1709 51 1466 51 
z
" transform="scale(0.015625)"/>
      <path id="CMR17-66" d="M 979 2560 
L 1709 2560 
L 1709 2725 
L 966 2725 
L 966 3494 
C 966 4022 1235 4352 1510 4352 
C 1594 4352 1690 4327 1754 4282 
C 1702 4269 1568 4225 1568 4067 
C 1568 3901 1696 3850 1786 3850 
C 1875 3850 2003 3901 2003 4067 
C 2003 4308 1773 4454 1517 4454 
C 1152 4454 653 4156 653 3481 
L 653 2725 
L 141 2725 
L 141 2560 
L 653 2560 
L 653 427 
C 653 184 627 153 218 153 
L 218 -13 
C 371 0 666 0 832 0 
C 1018 0 1344 0 1517 -13 
L 1517 153 
C 1056 153 979 153 979 439 
L 979 2560 
z
" transform="scale(0.015625)"/>
      <path id="CMR17-4f" d="M 4307 2135 
C 4307 3437 3366 4416 2304 4416 
C 1216 4416 294 3424 294 2135 
C 294 845 1229 -128 2298 -128 
C 3392 -128 4307 864 4307 2135 
z
M 2304 -13 
C 1574 -13 781 711 781 2217 
C 781 3716 1651 4301 2298 4301 
C 2976 4301 3821 3698 3821 2217 
C 3821 686 3008 -13 2304 -13 
z
" transform="scale(0.015625)"/>
      <path id="CMR17-42" d="M 333 4352 
L 333 4186 
C 774 4186 845 4186 845 3900 
L 845 452 
C 845 166 774 166 333 166 
L 333 0 
L 2534 0 
C 3354 0 3885 583 3885 1164 
C 3885 1741 3360 2233 2675 2233 
C 3290 2356 3718 2771 3718 3264 
C 3718 3802 3194 4352 2368 4352 
L 333 4352 
z
M 1248 2304 
L 1248 3937 
C 1248 4155 1261 4186 1517 4186 
L 2336 4186 
C 2970 4186 3251 3674 3251 3277 
C 3251 2791 2861 2304 2170 2304 
L 1248 2304 
z
M 1517 166 
C 1261 166 1248 197 1248 413 
L 1248 2202 
L 2432 2202 
C 3091 2202 3411 1625 3411 1162 
C 3411 699 3046 166 2349 166 
L 1517 166 
z
" transform="scale(0.015625)"/>
      <path id="CMR17-63" d="M 2234 2240 
C 2112 2240 1933 2240 1933 2017 
C 1933 1838 2080 1787 2163 1787 
C 2208 1787 2394 1807 2394 2024 
C 2394 2467 1958 2803 1466 2803 
C 787 2803 211 2178 211 1363 
C 211 516 813 -64 1466 -64 
C 2259 -64 2458 677 2458 748 
C 2458 774 2451 793 2406 793 
C 2362 793 2355 787 2330 703 
C 2163 180 1798 51 1523 51 
C 1114 51 621 427 621 1369 
C 621 2338 1094 2688 1472 2688 
C 1722 2688 2093 2573 2234 2240 
z
" transform="scale(0.015625)"/>
      <path id="CMR17-6b" d="M 1670 1673 
C 1664 1686 1632 1724 1632 1743 
C 1632 1756 2086 2171 2144 2222 
C 2509 2528 2739 2560 2906 2560 
L 2906 2733 
C 2867 2733 2854 2733 2848 2720 
L 2534 2720 
C 2355 2720 2080 2720 1907 2733 
L 1907 2566 
C 1997 2559 2061 2508 2061 2419 
C 2061 2291 1933 2170 1926 2170 
L 960 1289 
L 960 4396 
L 198 4326 
L 198 4160 
C 576 4160 634 4122 634 3817 
L 634 426 
C 634 184 608 153 198 153 
L 198 -13 
C 352 0 634 0 794 0 
C 954 0 1235 0 1389 -13 
L 1389 153 
C 979 153 954 178 954 428 
L 954 1130 
L 1395 1532 
L 2042 574 
C 2118 459 2182 369 2182 286 
C 2182 172 2067 153 1990 153 
L 1990 -13 
C 2144 0 2419 0 2579 0 
C 2694 0 2931 0 3040 0 
L 3040 153 
C 2739 153 2669 210 2477 491 
L 1670 1673 
z
" transform="scale(0.015625)"/>
      <path id="CMR17-6c" d="M 979 4396 
L 218 4326 
L 218 4160 
C 595 4160 653 4122 653 3817 
L 653 426 
C 653 184 627 153 218 153 
L 218 -13 
C 371 0 653 0 813 0 
C 979 0 1261 0 1414 -13 
L 1414 153 
C 1005 153 979 178 979 426 
L 979 4396 
z
" transform="scale(0.015625)"/>
     </defs>
     <use xlink:href="#CMR17-41" transform="scale(0.996264)"/>
     <use xlink:href="#CMR17-73" transform="translate(69.07243 0) scale(0.996264)"/>
     <use xlink:href="#CMR17-73" transform="translate(104.873767 0) scale(0.996264)"/>
     <use xlink:href="#CMR17-65" transform="translate(140.675105 0) scale(0.996264)"/>
     <use xlink:href="#CMR17-73" transform="translate(181.160766 0) scale(0.996264)"/>
     <use xlink:href="#CMR17-73" transform="translate(216.962103 0) scale(0.996264)"/>
     <use xlink:href="#CMR17-6d" transform="translate(252.763441 0) scale(0.996264)"/>
     <use xlink:href="#CMR17-65" transform="translate(329.683031 0) scale(0.996264)"/>
     <use xlink:href="#CMR17-6e" transform="translate(370.168691 0) scale(0.996264)"/>
     <use xlink:href="#CMR17-74" transform="translate(418.461607 0) scale(0.996264)"/>
     <use xlink:href="#CMR17-6f" transform="translate(483.818341 0) scale(0.996264)"/>
     <use xlink:href="#CMR17-66" transform="translate(529.508818 0) scale(0.996264)"/>
     <use xlink:href="#CMR17-4f" transform="translate(587.058297 0) scale(0.996264)"/>
     <use xlink:href="#CMR17-72" transform="translate(658.773085 0) scale(0.996264)"/>
     <use xlink:href="#CMR17-64" transform="translate(694.053853 0) scale(0.996264)"/>
     <use xlink:href="#CMR17-65" transform="translate(744.949223 0) scale(0.996264)"/>
     <use xlink:href="#CMR17-72" transform="translate(785.434883 0) scale(0.996264)"/>
     <use xlink:href="#CMR17-42" transform="translate(850.791618 0) scale(0.996264)"/>
     <use xlink:href="#CMR17-61" transform="translate(915.980372 0) scale(0.996264)"/>
     <use xlink:href="#CMR17-63" transform="translate(961.670849 0) scale(0.996264)"/>
     <use xlink:href="#CMR17-6b" transform="translate(999.554056 0) scale(0.996264)"/>
     <use xlink:href="#CMR17-6c" transform="translate(1047.846972 0) scale(0.996264)"/>
     <use xlink:href="#CMR17-6f" transform="translate(1072.71803 0) scale(0.996264)"/>
     <use xlink:href="#CMR17-67" transform="translate(1118.408507 0) scale(0.996264)"/>
    </g>
   </g>
  </g>
  <g id="axes_3">
   <g id="patch_8">
    <path d="M 45.693354 695.78713 
L 712.8 695.78713 
L 712.8 386.204405 
L 45.693354 386.204405 
z
" style="fill: #ffffff"/>
   </g>
   <g id="matplotlib.axis_5">
    <g id="xtick_23">
     <g id="line2d_35">
      <path d="M 76.016383 695.78713 
L 76.016383 386.204405 
" clip-path="url(#p5c998dac97)" style="fill: none; stroke: #cccccc; stroke-width: 0.8; stroke-linecap: round"/>
     </g>
     <g id="text_35">
      <!-- $\mathdefault{2014}$ -->
      <g transform="translate(57.740192 713.124126) scale(0.2 -0.2)">
       <use xlink:href="#CMR17-32" transform="scale(0.996264)"/>
       <use xlink:href="#CMR17-30" transform="translate(45.690477 0) scale(0.996264)"/>
       <use xlink:href="#CMR17-31" transform="translate(91.380954 0) scale(0.996264)"/>
       <use xlink:href="#CMR17-34" transform="translate(137.071431 0) scale(0.996264)"/>
      </g>
     </g>
    </g>
    <g id="xtick_24">
     <g id="line2d_36">
      <path d="M 137.658854 695.78713 
L 137.658854 386.204405 
" clip-path="url(#p5c998dac97)" style="fill: none; stroke: #cccccc; stroke-width: 0.8; stroke-linecap: round"/>
     </g>
     <g id="text_36">
      <!-- $\mathdefault{2015}$ -->
      <g transform="translate(119.382664 713.124126) scale(0.2 -0.2)">
       <use xlink:href="#CMR17-32" transform="scale(0.996264)"/>
       <use xlink:href="#CMR17-30" transform="translate(45.690477 0) scale(0.996264)"/>
       <use xlink:href="#CMR17-31" transform="translate(91.380954 0) scale(0.996264)"/>
       <use xlink:href="#CMR17-35" transform="translate(137.071431 0) scale(0.996264)"/>
      </g>
     </g>
    </g>
    <g id="xtick_25">
     <g id="line2d_37">
      <path d="M 199.301326 695.78713 
L 199.301326 386.204405 
" clip-path="url(#p5c998dac97)" style="fill: none; stroke: #cccccc; stroke-width: 0.8; stroke-linecap: round"/>
     </g>
     <g id="text_37">
      <!-- $\mathdefault{2016}$ -->
      <g transform="translate(181.025135 713.124126) scale(0.2 -0.2)">
       <use xlink:href="#CMR17-32" transform="scale(0.996264)"/>
       <use xlink:href="#CMR17-30" transform="translate(45.690477 0) scale(0.996264)"/>
       <use xlink:href="#CMR17-31" transform="translate(91.380954 0) scale(0.996264)"/>
       <use xlink:href="#CMR17-36" transform="translate(137.071431 0) scale(0.996264)"/>
      </g>
     </g>
    </g>
    <g id="xtick_26">
     <g id="line2d_38">
      <path d="M 261.11268 695.78713 
L 261.11268 386.204405 
" clip-path="url(#p5c998dac97)" style="fill: none; stroke: #cccccc; stroke-width: 0.8; stroke-linecap: round"/>
     </g>
     <g id="text_38">
      <!-- $\mathdefault{2017}$ -->
      <g transform="translate(242.83649 713.124126) scale(0.2 -0.2)">
       <use xlink:href="#CMR17-32" transform="scale(0.996264)"/>
       <use xlink:href="#CMR17-30" transform="translate(45.690477 0) scale(0.996264)"/>
       <use xlink:href="#CMR17-31" transform="translate(91.380954 0) scale(0.996264)"/>
       <use xlink:href="#CMR17-37" transform="translate(137.071431 0) scale(0.996264)"/>
      </g>
     </g>
    </g>
    <g id="xtick_27">
     <g id="line2d_39">
      <path d="M 322.755152 695.78713 
L 322.755152 386.204405 
" clip-path="url(#p5c998dac97)" style="fill: none; stroke: #cccccc; stroke-width: 0.8; stroke-linecap: round"/>
     </g>
     <g id="text_39">
      <!-- $\mathdefault{2018}$ -->
      <g transform="translate(304.478961 713.124126) scale(0.2 -0.2)">
       <use xlink:href="#CMR17-32" transform="scale(0.996264)"/>
       <use xlink:href="#CMR17-30" transform="translate(45.690477 0) scale(0.996264)"/>
       <use xlink:href="#CMR17-31" transform="translate(91.380954 0) scale(0.996264)"/>
       <use xlink:href="#CMR17-38" transform="translate(137.071431 0) scale(0.996264)"/>
      </g>
     </g>
    </g>
    <g id="xtick_28">
     <g id="line2d_40">
      <path d="M 384.397623 695.78713 
L 384.397623 386.204405 
" clip-path="url(#p5c998dac97)" style="fill: none; stroke: #cccccc; stroke-width: 0.8; stroke-linecap: round"/>
     </g>
     <g id="text_40">
      <!-- $\mathdefault{2019}$ -->
      <g transform="translate(366.121432 713.124126) scale(0.2 -0.2)">
       <use xlink:href="#CMR17-32" transform="scale(0.996264)"/>
       <use xlink:href="#CMR17-30" transform="translate(45.690477 0) scale(0.996264)"/>
       <use xlink:href="#CMR17-31" transform="translate(91.380954 0) scale(0.996264)"/>
       <use xlink:href="#CMR17-39" transform="translate(137.071431 0) scale(0.996264)"/>
      </g>
     </g>
    </g>
    <g id="xtick_29">
     <g id="line2d_41">
      <path d="M 446.040094 695.78713 
L 446.040094 386.204405 
" clip-path="url(#p5c998dac97)" style="fill: none; stroke: #cccccc; stroke-width: 0.8; stroke-linecap: round"/>
     </g>
     <g id="text_41">
      <!-- $\mathdefault{2020}$ -->
      <g transform="translate(427.763904 713.124126) scale(0.2 -0.2)">
       <use xlink:href="#CMR17-32" transform="scale(0.996264)"/>
       <use xlink:href="#CMR17-30" transform="translate(45.690477 0) scale(0.996264)"/>
       <use xlink:href="#CMR17-32" transform="translate(91.380954 0) scale(0.996264)"/>
       <use xlink:href="#CMR17-30" transform="translate(137.071431 0) scale(0.996264)"/>
      </g>
     </g>
    </g>
    <g id="xtick_30">
     <g id="line2d_42">
      <path d="M 507.851449 695.78713 
L 507.851449 386.204405 
" clip-path="url(#p5c998dac97)" style="fill: none; stroke: #cccccc; stroke-width: 0.8; stroke-linecap: round"/>
     </g>
     <g id="text_42">
      <!-- $\mathdefault{2021}$ -->
      <g transform="translate(489.575258 713.124126) scale(0.2 -0.2)">
       <use xlink:href="#CMR17-32" transform="scale(0.996264)"/>
       <use xlink:href="#CMR17-30" transform="translate(45.690477 0) scale(0.996264)"/>
       <use xlink:href="#CMR17-32" transform="translate(91.380954 0) scale(0.996264)"/>
       <use xlink:href="#CMR17-31" transform="translate(137.071431 0) scale(0.996264)"/>
      </g>
     </g>
    </g>
    <g id="xtick_31">
     <g id="line2d_43">
      <path d="M 569.49392 695.78713 
L 569.49392 386.204405 
" clip-path="url(#p5c998dac97)" style="fill: none; stroke: #cccccc; stroke-width: 0.8; stroke-linecap: round"/>
     </g>
     <g id="text_43">
      <!-- $\mathdefault{2022}$ -->
      <g transform="translate(551.21773 713.124126) scale(0.2 -0.2)">
       <use xlink:href="#CMR17-32" transform="scale(0.996264)"/>
       <use xlink:href="#CMR17-30" transform="translate(45.690477 0) scale(0.996264)"/>
       <use xlink:href="#CMR17-32" transform="translate(91.380954 0) scale(0.996264)"/>
       <use xlink:href="#CMR17-32" transform="translate(137.071431 0) scale(0.996264)"/>
      </g>
     </g>
    </g>
    <g id="xtick_32">
     <g id="line2d_44">
      <path d="M 631.136392 695.78713 
L 631.136392 386.204405 
" clip-path="url(#p5c998dac97)" style="fill: none; stroke: #cccccc; stroke-width: 0.8; stroke-linecap: round"/>
     </g>
     <g id="text_44">
      <!-- $\mathdefault{2023}$ -->
      <g transform="translate(612.860201 713.124126) scale(0.2 -0.2)">
       <use xlink:href="#CMR17-32" transform="scale(0.996264)"/>
       <use xlink:href="#CMR17-30" transform="translate(45.690477 0) scale(0.996264)"/>
       <use xlink:href="#CMR17-32" transform="translate(91.380954 0) scale(0.996264)"/>
       <use xlink:href="#CMR17-33" transform="translate(137.071431 0) scale(0.996264)"/>
      </g>
     </g>
    </g>
    <g id="xtick_33">
     <g id="line2d_45">
      <path d="M 692.778863 695.78713 
L 692.778863 386.204405 
" clip-path="url(#p5c998dac97)" style="fill: none; stroke: #cccccc; stroke-width: 0.8; stroke-linecap: round"/>
     </g>
     <g id="text_45">
      <!-- $\mathdefault{2024}$ -->
      <g transform="translate(674.502672 713.124126) scale(0.2 -0.2)">
       <use xlink:href="#CMR17-32" transform="scale(0.996264)"/>
       <use xlink:href="#CMR17-30" transform="translate(45.690477 0) scale(0.996264)"/>
       <use xlink:href="#CMR17-32" transform="translate(91.380954 0) scale(0.996264)"/>
       <use xlink:href="#CMR17-34" transform="translate(137.071431 0) scale(0.996264)"/>
      </g>
     </g>
    </g>
   </g>
   <g id="matplotlib.axis_6">
    <g id="ytick_11">
     <g id="line2d_46">
      <path d="M 45.693354 694.805366 
L 712.8 694.805366 
" clip-path="url(#p5c998dac97)" style="fill: none; stroke: #cccccc; stroke-width: 0.8; stroke-linecap: round"/>
     </g>
     <g id="text_46">
      <!-- $\mathdefault{0.3}$ -->
      <g transform="translate(18.497727 701.723865) scale(0.2 -0.2)">
       <use xlink:href="#CMR17-30" transform="scale(0.996264)"/>
       <use xlink:href="#CMMI12-3a" transform="translate(45.690477 0) scale(0.996264)"/>
       <use xlink:href="#CMR17-33" transform="translate(72.787654 0) scale(0.996264)"/>
      </g>
     </g>
    </g>
    <g id="ytick_12">
     <g id="line2d_47">
      <path d="M 45.693354 629.354473 
L 712.8 629.354473 
" clip-path="url(#p5c998dac97)" style="fill: none; stroke: #cccccc; stroke-width: 0.8; stroke-linecap: round"/>
     </g>
     <g id="text_47">
      <!-- $\mathdefault{0.4}$ -->
      <g transform="translate(18.497727 636.272972) scale(0.2 -0.2)">
       <use xlink:href="#CMR17-30" transform="scale(0.996264)"/>
       <use xlink:href="#CMMI12-3a" transform="translate(45.690477 0) scale(0.996264)"/>
       <use xlink:href="#CMR17-34" transform="translate(72.787654 0) scale(0.996264)"/>
      </g>
     </g>
    </g>
    <g id="ytick_13">
     <g id="line2d_48">
      <path d="M 45.693354 563.90358 
L 712.8 563.90358 
" clip-path="url(#p5c998dac97)" style="fill: none; stroke: #cccccc; stroke-width: 0.8; stroke-linecap: round"/>
     </g>
     <g id="text_48">
      <!-- $\mathdefault{0.5}$ -->
      <g transform="translate(18.497727 570.822078) scale(0.2 -0.2)">
       <use xlink:href="#CMR17-30" transform="scale(0.996264)"/>
       <use xlink:href="#CMMI12-3a" transform="translate(45.690477 0) scale(0.996264)"/>
       <use xlink:href="#CMR17-35" transform="translate(72.787654 0) scale(0.996264)"/>
      </g>
     </g>
    </g>
    <g id="ytick_14">
     <g id="line2d_49">
      <path d="M 45.693354 498.452687 
L 712.8 498.452687 
" clip-path="url(#p5c998dac97)" style="fill: none; stroke: #cccccc; stroke-width: 0.8; stroke-linecap: round"/>
     </g>
     <g id="text_49">
      <!-- $\mathdefault{0.6}$ -->
      <g transform="translate(18.497727 505.371185) scale(0.2 -0.2)">
       <use xlink:href="#CMR17-30" transform="scale(0.996264)"/>
       <use xlink:href="#CMMI12-3a" transform="translate(45.690477 0) scale(0.996264)"/>
       <use xlink:href="#CMR17-36" transform="translate(72.787654 0) scale(0.996264)"/>
      </g>
     </g>
    </g>
    <g id="ytick_15">
     <g id="line2d_50">
      <path d="M 45.693354 433.001794 
L 712.8 433.001794 
" clip-path="url(#p5c998dac97)" style="fill: none; stroke: #cccccc; stroke-width: 0.8; stroke-linecap: round"/>
     </g>
     <g id="text_50">
      <!-- $\mathdefault{0.7}$ -->
      <g transform="translate(18.497727 439.920292) scale(0.2 -0.2)">
       <use xlink:href="#CMR17-30" transform="scale(0.996264)"/>
       <use xlink:href="#CMMI12-3a" transform="translate(45.690477 0) scale(0.996264)"/>
       <use xlink:href="#CMR17-37" transform="translate(72.787654 0) scale(0.996264)"/>
      </g>
     </g>
    </g>
   </g>
   <g id="line2d_51">
    <path d="M 76.016383 413.366526 
L 81.251771 426.456704 
L 85.980509 400.276347 
L 91.215897 465.72724 
L 96.282401 452.637062 
L 101.517789 446.091972 
L 106.584294 485.362508 
L 111.819681 518.087955 
L 117.055069 485.362508 
L 122.121574 465.72724 
L 127.356962 511.542866 
L 132.423466 550.813401 
L 137.658854 485.362508 
L 142.894242 537.723223 
L 147.62298 485.362508 
L 152.858368 485.362508 
L 157.924872 498.452687 
L 163.16026 452.637062 
L 168.226765 485.362508 
L 173.462153 439.546883 
L 178.697541 419.911615 
L 183.764045 459.182151 
L 188.999433 498.452687 
L 194.065938 459.182151 
L 199.301326 472.27233 
L 204.536714 472.27233 
L 209.434335 511.542866 
L 214.669723 498.452687 
L 219.736227 478.817419 
L 224.971615 524.633044 
L 230.03812 537.723223 
L 235.273508 491.907598 
L 240.508896 472.27233 
L 245.5754 518.087955 
L 250.810788 511.542866 
L 255.877293 544.268312 
L 261.11268 485.362508 
L 266.348068 518.087955 
L 271.076806 498.452687 
L 276.312194 472.27233 
L 281.378698 504.997776 
L 286.614086 504.997776 
L 291.680591 524.633044 
L 296.915979 511.542866 
L 302.151367 537.723223 
L 307.217871 563.90358 
L 312.453259 550.813401 
L 317.519764 570.448669 
L 322.755152 524.633044 
L 327.99054 518.087955 
L 332.719277 550.813401 
L 337.954665 498.452687 
L 343.02117 511.542866 
L 348.256558 537.723223 
L 353.323062 531.178133 
L 358.55845 524.633044 
L 363.793838 524.633044 
L 368.860343 622.809384 
L 374.095731 544.268312 
L 379.162235 544.268312 
L 384.397623 531.178133 
L 389.633011 524.633044 
L 394.361749 478.817419 
L 399.597137 511.542866 
L 404.663641 504.997776 
L 409.899029 544.268312 
L 414.965534 531.178133 
L 420.200921 498.452687 
L 425.436309 557.358491 
L 430.502814 544.268312 
L 435.738202 518.087955 
L 440.804706 518.087955 
L 446.040094 491.907598 
L 451.275482 511.542866 
L 456.173103 518.087955 
L 461.408491 622.809384 
L 466.474996 563.90358 
L 471.710384 570.448669 
L 476.776888 544.268312 
L 482.012276 491.907598 
L 487.247664 478.817419 
L 492.314169 491.907598 
L 497.549557 531.178133 
L 502.616061 491.907598 
L 507.851449 459.182151 
L 513.086837 478.817419 
L 517.815575 524.633044 
L 523.050963 504.997776 
L 528.117467 511.542866 
L 533.352855 524.633044 
L 538.41936 537.723223 
L 543.654748 518.087955 
L 548.890136 550.813401 
L 553.95664 563.90358 
L 559.192028 590.083937 
L 564.258533 590.083937 
L 569.49392 590.083937 
L 574.729308 603.174116 
L 579.458046 576.993759 
L 584.693434 603.174116 
L 589.759938 648.989741 
L 594.995326 635.899562 
L 600.061831 544.268312 
L 605.297219 550.813401 
L 610.532607 590.083937 
L 615.599111 681.715188 
L 620.834499 590.083937 
L 625.901004 583.538848 
L 631.136392 563.90358 
L 636.37178 550.813401 
L 641.100517 550.813401 
L 646.335905 531.178133 
L 651.40241 518.087955 
L 656.637798 531.178133 
L 661.704302 524.633044 
L 666.93969 550.813401 
L 672.175078 537.723223 
L 677.241583 524.633044 
L 682.476971 544.268312 
" clip-path="url(#p5c998dac97)" style="fill: none; stroke: #006e64; stroke-width: 1.5; stroke-linecap: round"/>
   </g>
   <g id="patch_9">
    <path d="M 45.693354 695.78713 
L 45.693354 386.204405 
" style="fill: none; stroke: #808080; stroke-width: 0.8; stroke-linejoin: miter; stroke-linecap: square"/>
   </g>
   <g id="patch_10">
    <path d="M 45.693354 695.78713 
L 712.8 695.78713 
" style="fill: none; stroke: #808080; stroke-width: 0.8; stroke-linejoin: miter; stroke-linecap: square"/>
   </g>
   <g id="text_51">
    <!-- Share with No Production Limitations -->
    <g style="fill: #262626" transform="translate(194.614828 380.204405) scale(0.24 -0.24)">
     <defs>
      <path id="CMR17-53" d="M 2803 4290 
C 2803 4404 2797 4411 2758 4411 
C 2720 4411 2707 4385 2682 4328 
L 2490 3907 
C 2246 4257 1875 4416 1472 4416 
C 819 4416 294 3901 294 3253 
C 294 3056 339 2776 557 2510 
C 794 2218 1018 2167 1530 2033 
C 1722 1982 2042 1899 2106 1874 
C 2470 1722 2662 1341 2662 985 
C 2662 527 2336 38 1779 38 
C 1094 38 454 419 410 1311 
C 403 1413 397 1419 352 1419 
C 301 1419 294 1413 294 1285 
L 294 -1 
C 294 -115 301 -122 339 -122 
C 384 -122 397 -90 486 108 
C 493 127 493 140 614 381 
C 934 -39 1472 -128 1779 -128 
C 2477 -128 2970 451 2970 1124 
C 2970 1454 2848 1708 2778 1823 
C 2509 2230 2221 2306 1914 2382 
C 1869 2402 1856 2402 1498 2490 
C 1152 2579 1005 2624 845 2796 
C 666 2992 602 3196 602 3399 
C 602 3812 934 4263 1478 4263 
C 2157 4263 2579 3786 2675 2993 
C 2694 2878 2701 2872 2746 2872 
C 2803 2872 2803 2891 2803 2999 
L 2803 4290 
z
" transform="scale(0.015625)"/>
      <path id="CMR17-77" d="M 3725 2183 
C 3853 2560 4109 2560 4205 2560 
L 4205 2732 
C 4077 2732 3949 2732 3821 2732 
C 3699 2732 3424 2732 3315 2738 
L 3315 2560 
C 3514 2560 3622 2445 3622 2286 
C 3622 2241 3610 2184 3597 2140 
L 2995 407 
L 2342 2275 
C 2330 2319 2310 2370 2310 2395 
C 2310 2560 2528 2560 2630 2560 
L 2630 2738 
C 2483 2732 2214 2732 2061 2732 
C 1901 2732 1734 2732 1587 2738 
L 1587 2560 
C 1939 2560 1939 2547 2074 2149 
L 1485 451 
L 851 2281 
C 819 2363 819 2376 819 2395 
C 819 2560 1037 2560 1139 2560 
L 1139 2738 
C 986 2732 717 2732 557 2732 
C 416 2732 198 2732 64 2738 
L 64 2560 
C 346 2560 416 2541 486 2331 
L 1274 49 
C 1299 -33 1318 -52 1370 -52 
C 1414 -52 1440 -39 1472 56 
L 2131 1980 
L 2797 56 
C 2829 -39 2854 -52 2899 -52 
C 2950 -52 2970 -33 2995 50 
L 3725 2183 
z
" transform="scale(0.015625)"/>
      <path id="CMR17-4e" d="M 1312 4250 
C 1267 4320 1261 4320 1139 4320 
L 326 4320 
L 326 4160 
L 448 4160 
C 704 4160 819 4129 838 4122 
L 838 610 
C 838 451 838 153 326 153 
L 326 -13 
C 474 0 742 0 902 0 
C 1062 0 1331 0 1478 -13 
L 1478 153 
C 966 153 966 451 966 610 
L 966 4033 
C 1011 3995 1011 3982 1056 3919 
L 3430 76 
C 3475 0 3494 0 3526 0 
C 3590 0 3590 19 3590 139 
L 3590 3705 
C 3590 3863 3590 4160 4102 4160 
L 4102 4326 
C 3955 4320 3686 4320 3526 4320 
C 3366 4320 3098 4320 2950 4326 
L 2950 4160 
C 3462 4160 3462 3862 3462 3703 
L 3462 763 
L 1312 4250 
z
" transform="scale(0.015625)"/>
      <path id="CMR17-50" d="M 1267 2042 
L 2291 2042 
C 3117 2042 3718 2578 3718 3184 
C 3718 3791 3130 4352 2291 4352 
L 333 4352 
L 333 4186 
C 774 4186 845 4186 845 3899 
L 845 446 
C 845 160 774 160 333 160 
L 333 0 
C 518 0 858 0 1056 0 
C 1254 0 1594 0 1779 0 
L 1779 160 
C 1338 160 1267 160 1267 446 
L 1267 2042 
z
M 1254 2176 
L 1254 3938 
C 1254 4155 1267 4186 1523 4186 
L 2170 4186 
C 2995 4186 3232 3714 3232 3184 
C 3232 2604 2950 2176 2170 2176 
L 1254 2176 
z
" transform="scale(0.015625)"/>
      <path id="CMR17-4c" d="M 3469 1615 
L 3354 1615 
C 3302 983 3219 166 2125 166 
L 1530 166 
C 1274 166 1261 197 1261 414 
L 1261 3898 
C 1261 4129 1274 4192 1760 4192 
L 1901 4192 
L 1901 4352 
C 1638 4352 1331 4352 1069 4352 
C 870 4352 512 4352 326 4352 
L 326 4192 
C 768 4192 838 4192 838 3905 
L 838 452 
C 838 166 768 166 326 166 
L 326 0 
L 3315 0 
L 3469 1615 
z
" transform="scale(0.015625)"/>
     </defs>
     <use xlink:href="#CMR17-53" transform="scale(0.996264)"/>
     <use xlink:href="#CMR17-68" transform="translate(50.89537 0) scale(0.996264)"/>
     <use xlink:href="#CMR17-61" transform="translate(101.79074 0) scale(0.996264)"/>
     <use xlink:href="#CMR17-72" transform="translate(147.481217 0) scale(0.996264)"/>
     <use xlink:href="#CMR17-65" transform="translate(182.761984 0) scale(0.996264)"/>
     <use xlink:href="#CMR17-77" transform="translate(253.323611 0) scale(0.996264)"/>
     <use xlink:href="#CMR17-69" transform="translate(319.833492 0) scale(0.996264)"/>
     <use xlink:href="#CMR17-74" transform="translate(344.70455 0) scale(0.996264)"/>
     <use xlink:href="#CMR17-68" transform="translate(379.985318 0) scale(0.996264)"/>
     <use xlink:href="#CMR17-4e" transform="translate(460.956654 0) scale(0.996264)"/>
     <use xlink:href="#CMR17-6f" transform="translate(530.029084 0) scale(0.996264)"/>
     <use xlink:href="#CMR17-50" transform="translate(605.795528 0) scale(0.996264)"/>
     <use xlink:href="#CMR17-72" transform="translate(668.381828 0) scale(0.996264)"/>
     <use xlink:href="#CMR17-6f" transform="translate(703.662596 0) scale(0.996264)"/>
     <use xlink:href="#CMR17-64" transform="translate(751.955512 0) scale(0.996264)"/>
     <use xlink:href="#CMR17-75" transform="translate(802.850881 0) scale(0.996264)"/>
     <use xlink:href="#CMR17-63" transform="translate(853.746251 0) scale(0.996264)"/>
     <use xlink:href="#CMR17-74" transform="translate(894.231912 0) scale(0.996264)"/>
     <use xlink:href="#CMR17-69" transform="translate(929.51268 0) scale(0.996264)"/>
     <use xlink:href="#CMR17-6f" transform="translate(954.383738 0) scale(0.996264)"/>
     <use xlink:href="#CMR17-6e" transform="translate(1000.074215 0) scale(0.996264)"/>
     <use xlink:href="#CMR17-4c" transform="translate(1081.045551 0) scale(0.996264)"/>
     <use xlink:href="#CMR17-69" transform="translate(1138.426959 0) scale(0.996264)"/>
     <use xlink:href="#CMR17-6d" transform="translate(1163.298018 0) scale(0.996264)"/>
     <use xlink:href="#CMR17-69" transform="translate(1240.217607 0) scale(0.996264)"/>
     <use xlink:href="#CMR17-74" transform="translate(1265.088666 0) scale(0.996264)"/>
     <use xlink:href="#CMR17-61" transform="translate(1300.369434 0) scale(0.996264)"/>
     <use xlink:href="#CMR17-74" transform="translate(1346.059911 0) scale(0.996264)"/>
     <use xlink:href="#CMR17-69" transform="translate(1381.340679 0) scale(0.996264)"/>
     <use xlink:href="#CMR17-6f" transform="translate(1406.211737 0) scale(0.996264)"/>
     <use xlink:href="#CMR17-6e" transform="translate(1451.902214 0) scale(0.996264)"/>
     <use xlink:href="#CMR17-73" transform="translate(1502.797584 0) scale(0.996264)"/>
    </g>
   </g>
  </g>
  <g id="axes_4">
   <g id="patch_11">
    <path d="M 769.893114 695.78713 
L 1436.99976 695.78713 
L 1436.99976 386.204405 
L 769.893114 386.204405 
z
" style="fill: #ffffff"/>
   </g>
   <g id="matplotlib.axis_7">
    <g id="xtick_34">
     <g id="line2d_52">
      <path d="M 800.216143 695.78713 
L 800.216143 386.204405 
" clip-path="url(#p076edfcfc9)" style="fill: none; stroke: #cccccc; stroke-width: 0.8; stroke-linecap: round"/>
     </g>
     <g id="text_52">
      <!-- $\mathdefault{2014}$ -->
      <g transform="translate(781.939952 713.124126) scale(0.2 -0.2)">
       <use xlink:href="#CMR17-32" transform="scale(0.996264)"/>
       <use xlink:href="#CMR17-30" transform="translate(45.690477 0) scale(0.996264)"/>
       <use xlink:href="#CMR17-31" transform="translate(91.380954 0) scale(0.996264)"/>
       <use xlink:href="#CMR17-34" transform="translate(137.071431 0) scale(0.996264)"/>
      </g>
     </g>
    </g>
    <g id="xtick_35">
     <g id="line2d_53">
      <path d="M 861.858614 695.78713 
L 861.858614 386.204405 
" clip-path="url(#p076edfcfc9)" style="fill: none; stroke: #cccccc; stroke-width: 0.8; stroke-linecap: round"/>
     </g>
     <g id="text_53">
      <!-- $\mathdefault{2015}$ -->
      <g transform="translate(843.582424 713.124126) scale(0.2 -0.2)">
       <use xlink:href="#CMR17-32" transform="scale(0.996264)"/>
       <use xlink:href="#CMR17-30" transform="translate(45.690477 0) scale(0.996264)"/>
       <use xlink:href="#CMR17-31" transform="translate(91.380954 0) scale(0.996264)"/>
       <use xlink:href="#CMR17-35" transform="translate(137.071431 0) scale(0.996264)"/>
      </g>
     </g>
    </g>
    <g id="xtick_36">
     <g id="line2d_54">
      <path d="M 923.501086 695.78713 
L 923.501086 386.204405 
" clip-path="url(#p076edfcfc9)" style="fill: none; stroke: #cccccc; stroke-width: 0.8; stroke-linecap: round"/>
     </g>
     <g id="text_54">
      <!-- $\mathdefault{2016}$ -->
      <g transform="translate(905.224895 713.124126) scale(0.2 -0.2)">
       <use xlink:href="#CMR17-32" transform="scale(0.996264)"/>
       <use xlink:href="#CMR17-30" transform="translate(45.690477 0) scale(0.996264)"/>
       <use xlink:href="#CMR17-31" transform="translate(91.380954 0) scale(0.996264)"/>
       <use xlink:href="#CMR17-36" transform="translate(137.071431 0) scale(0.996264)"/>
      </g>
     </g>
    </g>
    <g id="xtick_37">
     <g id="line2d_55">
      <path d="M 985.31244 695.78713 
L 985.31244 386.204405 
" clip-path="url(#p076edfcfc9)" style="fill: none; stroke: #cccccc; stroke-width: 0.8; stroke-linecap: round"/>
     </g>
     <g id="text_55">
      <!-- $\mathdefault{2017}$ -->
      <g transform="translate(967.03625 713.124126) scale(0.2 -0.2)">
       <use xlink:href="#CMR17-32" transform="scale(0.996264)"/>
       <use xlink:href="#CMR17-30" transform="translate(45.690477 0) scale(0.996264)"/>
       <use xlink:href="#CMR17-31" transform="translate(91.380954 0) scale(0.996264)"/>
       <use xlink:href="#CMR17-37" transform="translate(137.071431 0) scale(0.996264)"/>
      </g>
     </g>
    </g>
    <g id="xtick_38">
     <g id="line2d_56">
      <path d="M 1046.954912 695.78713 
L 1046.954912 386.204405 
" clip-path="url(#p076edfcfc9)" style="fill: none; stroke: #cccccc; stroke-width: 0.8; stroke-linecap: round"/>
     </g>
     <g id="text_56">
      <!-- $\mathdefault{2018}$ -->
      <g transform="translate(1028.678721 713.124126) scale(0.2 -0.2)">
       <use xlink:href="#CMR17-32" transform="scale(0.996264)"/>
       <use xlink:href="#CMR17-30" transform="translate(45.690477 0) scale(0.996264)"/>
       <use xlink:href="#CMR17-31" transform="translate(91.380954 0) scale(0.996264)"/>
       <use xlink:href="#CMR17-38" transform="translate(137.071431 0) scale(0.996264)"/>
      </g>
     </g>
    </g>
    <g id="xtick_39">
     <g id="line2d_57">
      <path d="M 1108.597383 695.78713 
L 1108.597383 386.204405 
" clip-path="url(#p076edfcfc9)" style="fill: none; stroke: #cccccc; stroke-width: 0.8; stroke-linecap: round"/>
     </g>
     <g id="text_57">
      <!-- $\mathdefault{2019}$ -->
      <g transform="translate(1090.321192 713.124126) scale(0.2 -0.2)">
       <use xlink:href="#CMR17-32" transform="scale(0.996264)"/>
       <use xlink:href="#CMR17-30" transform="translate(45.690477 0) scale(0.996264)"/>
       <use xlink:href="#CMR17-31" transform="translate(91.380954 0) scale(0.996264)"/>
       <use xlink:href="#CMR17-39" transform="translate(137.071431 0) scale(0.996264)"/>
      </g>
     </g>
    </g>
    <g id="xtick_40">
     <g id="line2d_58">
      <path d="M 1170.239854 695.78713 
L 1170.239854 386.204405 
" clip-path="url(#p076edfcfc9)" style="fill: none; stroke: #cccccc; stroke-width: 0.8; stroke-linecap: round"/>
     </g>
     <g id="text_58">
      <!-- $\mathdefault{2020}$ -->
      <g transform="translate(1151.963664 713.124126) scale(0.2 -0.2)">
       <use xlink:href="#CMR17-32" transform="scale(0.996264)"/>
       <use xlink:href="#CMR17-30" transform="translate(45.690477 0) scale(0.996264)"/>
       <use xlink:href="#CMR17-32" transform="translate(91.380954 0) scale(0.996264)"/>
       <use xlink:href="#CMR17-30" transform="translate(137.071431 0) scale(0.996264)"/>
      </g>
     </g>
    </g>
    <g id="xtick_41">
     <g id="line2d_59">
      <path d="M 1232.051209 695.78713 
L 1232.051209 386.204405 
" clip-path="url(#p076edfcfc9)" style="fill: none; stroke: #cccccc; stroke-width: 0.8; stroke-linecap: round"/>
     </g>
     <g id="text_59">
      <!-- $\mathdefault{2021}$ -->
      <g transform="translate(1213.775018 713.124126) scale(0.2 -0.2)">
       <use xlink:href="#CMR17-32" transform="scale(0.996264)"/>
       <use xlink:href="#CMR17-30" transform="translate(45.690477 0) scale(0.996264)"/>
       <use xlink:href="#CMR17-32" transform="translate(91.380954 0) scale(0.996264)"/>
       <use xlink:href="#CMR17-31" transform="translate(137.071431 0) scale(0.996264)"/>
      </g>
     </g>
    </g>
    <g id="xtick_42">
     <g id="line2d_60">
      <path d="M 1293.69368 695.78713 
L 1293.69368 386.204405 
" clip-path="url(#p076edfcfc9)" style="fill: none; stroke: #cccccc; stroke-width: 0.8; stroke-linecap: round"/>
     </g>
     <g id="text_60">
      <!-- $\mathdefault{2022}$ -->
      <g transform="translate(1275.41749 713.124126) scale(0.2 -0.2)">
       <use xlink:href="#CMR17-32" transform="scale(0.996264)"/>
       <use xlink:href="#CMR17-30" transform="translate(45.690477 0) scale(0.996264)"/>
       <use xlink:href="#CMR17-32" transform="translate(91.380954 0) scale(0.996264)"/>
       <use xlink:href="#CMR17-32" transform="translate(137.071431 0) scale(0.996264)"/>
      </g>
     </g>
    </g>
    <g id="xtick_43">
     <g id="line2d_61">
      <path d="M 1355.336152 695.78713 
L 1355.336152 386.204405 
" clip-path="url(#p076edfcfc9)" style="fill: none; stroke: #cccccc; stroke-width: 0.8; stroke-linecap: round"/>
     </g>
     <g id="text_61">
      <!-- $\mathdefault{2023}$ -->
      <g transform="translate(1337.059961 713.124126) scale(0.2 -0.2)">
       <use xlink:href="#CMR17-32" transform="scale(0.996264)"/>
       <use xlink:href="#CMR17-30" transform="translate(45.690477 0) scale(0.996264)"/>
       <use xlink:href="#CMR17-32" transform="translate(91.380954 0) scale(0.996264)"/>
       <use xlink:href="#CMR17-33" transform="translate(137.071431 0) scale(0.996264)"/>
      </g>
     </g>
    </g>
    <g id="xtick_44">
     <g id="line2d_62">
      <path d="M 1416.978623 695.78713 
L 1416.978623 386.204405 
" clip-path="url(#p076edfcfc9)" style="fill: none; stroke: #cccccc; stroke-width: 0.8; stroke-linecap: round"/>
     </g>
     <g id="text_62">
      <!-- $\mathdefault{2024}$ -->
      <g transform="translate(1398.702432 713.124126) scale(0.2 -0.2)">
       <use xlink:href="#CMR17-32" transform="scale(0.996264)"/>
       <use xlink:href="#CMR17-30" transform="translate(45.690477 0) scale(0.996264)"/>
       <use xlink:href="#CMR17-32" transform="translate(91.380954 0) scale(0.996264)"/>
       <use xlink:href="#CMR17-34" transform="translate(137.071431 0) scale(0.996264)"/>
      </g>
     </g>
    </g>
   </g>
   <g id="matplotlib.axis_8">
    <g id="ytick_16">
     <g id="line2d_63">
      <path d="M 769.893114 640.529016 
L 1436.99976 640.529016 
" clip-path="url(#p076edfcfc9)" style="fill: none; stroke: #cccccc; stroke-width: 0.8; stroke-linecap: round"/>
     </g>
     <g id="text_63">
      <!-- $\mathdefault{−0.3}$ -->
      <g transform="translate(727.2 647.447514) scale(0.2 -0.2)">
       <use xlink:href="#CMSY10-0" transform="scale(0.996264)"/>
       <use xlink:href="#CMR17-30" transform="translate(77.487468 0) scale(0.996264)"/>
       <use xlink:href="#CMMI12-3a" transform="translate(123.177945 0) scale(0.996264)"/>
       <use xlink:href="#CMR17-33" transform="translate(150.275122 0) scale(0.996264)"/>
      </g>
     </g>
    </g>
    <g id="ytick_17">
     <g id="line2d_64">
      <path d="M 769.893114 571.885396 
L 1436.99976 571.885396 
" clip-path="url(#p076edfcfc9)" style="fill: none; stroke: #cccccc; stroke-width: 0.8; stroke-linecap: round"/>
     </g>
     <g id="text_64">
      <!-- $\mathdefault{−0.2}$ -->
      <g transform="translate(727.2 578.803895) scale(0.2 -0.2)">
       <use xlink:href="#CMSY10-0" transform="scale(0.996264)"/>
       <use xlink:href="#CMR17-30" transform="translate(77.487468 0) scale(0.996264)"/>
       <use xlink:href="#CMMI12-3a" transform="translate(123.177945 0) scale(0.996264)"/>
       <use xlink:href="#CMR17-32" transform="translate(150.275122 0) scale(0.996264)"/>
      </g>
     </g>
    </g>
    <g id="ytick_18">
     <g id="line2d_65">
      <path d="M 769.893114 503.241777 
L 1436.99976 503.241777 
" clip-path="url(#p076edfcfc9)" style="fill: none; stroke: #cccccc; stroke-width: 0.8; stroke-linecap: round"/>
     </g>
     <g id="text_65">
      <!-- $\mathdefault{−0.1}$ -->
      <g transform="translate(727.2 510.160275) scale(0.2 -0.2)">
       <use xlink:href="#CMSY10-0" transform="scale(0.996264)"/>
       <use xlink:href="#CMR17-30" transform="translate(77.487468 0) scale(0.996264)"/>
       <use xlink:href="#CMMI12-3a" transform="translate(123.177945 0) scale(0.996264)"/>
       <use xlink:href="#CMR17-31" transform="translate(150.275122 0) scale(0.996264)"/>
      </g>
     </g>
    </g>
    <g id="ytick_19">
     <g id="line2d_66">
      <path d="M 769.893114 434.598157 
L 1436.99976 434.598157 
" clip-path="url(#p076edfcfc9)" style="fill: none; stroke: #cccccc; stroke-width: 0.8; stroke-linecap: round"/>
     </g>
     <g id="text_66">
      <!-- $\mathdefault{0.0}$ -->
      <g transform="translate(742.697487 441.516655) scale(0.2 -0.2)">
       <use xlink:href="#CMR17-30" transform="scale(0.996264)"/>
       <use xlink:href="#CMMI12-3a" transform="translate(45.690477 0) scale(0.996264)"/>
       <use xlink:href="#CMR17-30" transform="translate(72.787654 0) scale(0.996264)"/>
      </g>
     </g>
    </g>
   </g>
   <g id="line2d_67">
    <path d="M 800.216143 468.919967 
L 805.451531 468.919967 
L 810.180269 475.784329 
L 815.415657 475.784329 
L 820.482161 516.970501 
L 825.717549 503.241777 
L 830.784054 482.648691 
L 836.019441 489.513053 
L 841.254829 496.377415 
L 846.321334 510.106139 
L 851.556722 516.970501 
L 856.623226 523.834863 
L 861.858614 551.29231 
L 867.094002 537.563586 
L 871.82274 558.156672 
L 877.058128 551.29231 
L 882.124632 544.427948 
L 887.36002 516.970501 
L 892.426525 523.834863 
L 897.661913 516.970501 
L 902.897301 503.241777 
L 907.963805 516.970501 
L 913.199193 489.513053 
L 918.265698 489.513053 
L 923.501086 475.784329 
L 928.736474 468.919967 
L 933.634095 468.919967 
L 938.869483 468.919967 
L 943.935987 468.919967 
L 949.171375 496.377415 
L 954.23788 489.513053 
L 959.473268 482.648691 
L 964.708656 482.648691 
L 969.77516 475.784329 
L 975.010548 475.784329 
L 980.077053 475.784329 
L 985.31244 468.919967 
L 990.547828 468.919967 
L 995.276566 462.055605 
L 1000.511954 468.919967 
L 1005.578458 468.919967 
L 1010.813846 455.191243 
L 1015.880351 455.191243 
L 1021.115739 462.055605 
L 1026.351127 462.055605 
L 1031.417631 448.326881 
L 1036.653019 455.191243 
L 1041.719524 455.191243 
L 1046.954912 434.598157 
L 1052.1903 441.462519 
L 1056.919037 448.326881 
L 1062.154425 462.055605 
L 1067.22093 441.462519 
L 1072.456318 455.191243 
L 1077.522822 434.598157 
L 1082.75821 434.598157 
L 1087.993598 441.462519 
L 1093.060103 448.326881 
L 1098.295491 441.462519 
L 1103.361995 455.191243 
L 1108.597383 455.191243 
L 1113.832771 455.191243 
L 1118.561509 462.055605 
L 1123.796897 468.919967 
L 1128.863401 462.055605 
L 1134.098789 468.919967 
L 1139.165294 468.919967 
L 1144.400681 462.055605 
L 1149.636069 468.919967 
L 1154.702574 462.055605 
L 1159.937962 448.326881 
L 1165.004466 468.919967 
L 1170.239854 475.784329 
L 1175.475242 462.055605 
L 1180.372863 496.377415 
L 1185.608251 681.715188 
L 1190.674756 599.342844 
L 1195.910144 530.699224 
L 1200.976648 516.970501 
L 1206.212036 496.377415 
L 1211.447424 489.513053 
L 1216.513929 489.513053 
L 1221.749317 468.919967 
L 1226.815821 462.055605 
L 1232.051209 468.919967 
L 1237.286597 489.513053 
L 1242.015335 462.055605 
L 1247.250723 434.598157 
L 1252.317227 462.055605 
L 1257.552615 441.462519 
L 1262.61912 420.869433 
L 1267.854508 420.869433 
L 1273.089896 407.140709 
L 1278.1564 407.140709 
L 1283.391788 420.869433 
L 1288.458293 414.005071 
L 1293.69368 434.598157 
L 1298.929068 400.276347 
L 1303.657806 475.784329 
L 1308.893194 475.784329 
L 1313.959698 496.377415 
L 1319.195086 523.834863 
L 1324.261591 544.427948 
L 1329.496979 544.427948 
L 1334.732367 558.156672 
L 1339.798871 551.29231 
L 1345.034259 551.29231 
L 1350.100764 544.427948 
L 1355.336152 537.563586 
L 1360.57154 544.427948 
L 1365.300277 537.563586 
L 1370.535665 551.29231 
L 1375.60217 523.834863 
L 1380.837558 516.970501 
L 1385.904062 516.970501 
L 1391.13945 510.106139 
L 1396.374838 510.106139 
L 1401.441343 523.834863 
L 1406.676731 496.377415 
" clip-path="url(#p076edfcfc9)" style="fill: none; stroke: #006e64; stroke-width: 1.5; stroke-linecap: round"/>
   </g>
   <g id="patch_12">
    <path d="M 769.893114 695.78713 
L 769.893114 386.204405 
" style="fill: none; stroke: #808080; stroke-width: 0.8; stroke-linejoin: miter; stroke-linecap: square"/>
   </g>
   <g id="patch_13">
    <path d="M 769.893114 695.78713 
L 1436.99976 695.78713 
" style="fill: none; stroke: #808080; stroke-width: 0.8; stroke-linejoin: miter; stroke-linecap: square"/>
   </g>
   <g id="text_67">
    <!-- Confidence Indicator -->
    <g style="fill: #262626" transform="translate(1004.09965 380.204405) scale(0.24 -0.24)">
     <defs>
      <path id="CMR17-c" d="M 2554 2764 
C 2400 2764 1926 2764 1805 2739 
C 1766 2725 1754 2725 1677 2725 
L 947 2725 
L 947 3469 
C 947 4073 1434 4352 1818 4352 
C 1939 4352 2214 4320 2355 4101 
C 2291 4101 2086 4101 2086 3878 
C 2086 3725 2189 3648 2317 3648 
C 2432 3648 2547 3712 2547 3885 
C 2547 4205 2240 4454 1843 4454 
C 1338 4454 634 4168 634 3469 
L 634 2725 
L 122 2725 
L 122 2560 
L 634 2560 
L 634 427 
C 634 184 608 153 198 153 
L 198 -13 
C 352 0 634 0 794 0 
C 960 0 1242 0 1395 -13 
L 1395 153 
C 986 153 960 178 960 427 
L 960 2560 
L 1901 2560 
C 2176 2560 2227 2502 2227 2222 
L 2227 427 
C 2227 184 2202 153 1792 153 
L 1792 -13 
C 1946 0 2227 0 2387 0 
C 2554 0 2835 0 2989 -13 
L 2989 153 
C 2579 153 2554 178 2554 427 
L 2554 2764 
z
" transform="scale(0.015625)"/>
     </defs>
     <use xlink:href="#CMR17-43" transform="scale(0.996264)"/>
     <use xlink:href="#CMR17-6f" transform="translate(66.509881 0) scale(0.996264)"/>
     <use xlink:href="#CMR17-6e" transform="translate(112.200358 0) scale(0.996264)"/>
     <use xlink:href="#CMR17-c" transform="translate(163.095727 0) scale(0.996264)"/>
     <use xlink:href="#CMR17-64" transform="translate(212.837951 0) scale(0.996264)"/>
     <use xlink:href="#CMR17-65" transform="translate(263.733321 0) scale(0.996264)"/>
     <use xlink:href="#CMR17-6e" transform="translate(304.218981 0) scale(0.996264)"/>
     <use xlink:href="#CMR17-63" transform="translate(355.114351 0) scale(0.996264)"/>
     <use xlink:href="#CMR17-65" transform="translate(395.600011 0) scale(0.996264)"/>
     <use xlink:href="#CMR17-49" transform="translate(466.161638 0) scale(0.996264)"/>
     <use xlink:href="#CMR17-6e" transform="translate(498.800047 0) scale(0.996264)"/>
     <use xlink:href="#CMR17-64" transform="translate(549.695417 0) scale(0.996264)"/>
     <use xlink:href="#CMR17-69" transform="translate(600.590787 0) scale(0.996264)"/>
     <use xlink:href="#CMR17-63" transform="translate(625.461845 0) scale(0.996264)"/>
     <use xlink:href="#CMR17-61" transform="translate(665.947506 0) scale(0.996264)"/>
     <use xlink:href="#CMR17-74" transform="translate(711.637983 0) scale(0.996264)"/>
     <use xlink:href="#CMR17-6f" transform="translate(746.918751 0) scale(0.996264)"/>
     <use xlink:href="#CMR17-72" transform="translate(792.609228 0) scale(0.996264)"/>
    </g>
   </g>
  </g>
 </g>
 <defs>
  <clipPath id="p3ce114bafd">
   <rect x="45.693354" y="25.604645" width="667.106646" height="309.582724"/>
  </clipPath>
  <clipPath id="p1decb90a21">
   <rect x="769.893114" y="25.604645" width="667.106646" height="309.582724"/>
  </clipPath>
  <clipPath id="p5c998dac97">
   <rect x="45.693354" y="386.204405" width="667.106646" height="309.582724"/>
  </clipPath>
  <clipPath id="p076edfcfc9">
   <rect x="769.893114" y="386.204405" width="667.106646" height="309.582724"/>
  </clipPath>
 </defs>
</svg>
