<?xml version="1.0" encoding="utf-8" standalone="no"?>
<!DOCTYPE svg PUBLIC "-//W3C//DTD SVG 1.1//EN"
  "http://www.w3.org/Graphics/SVG/1.1/DTD/svg11.dtd">
<svg xmlns:xlink="http://www.w3.org/1999/xlink" width="1440pt" height="720pt" viewBox="0 0 1440 720" xmlns="http://www.w3.org/2000/svg" version="1.1">
 <metadata>
  <rdf:RDF xmlns:dc="http://purl.org/dc/elements/1.1/" xmlns:cc="http://creativecommons.org/ns#" xmlns:rdf="http://www.w3.org/1999/02/22-rdf-syntax-ns#">
   <cc:Work>
    <dc:type rdf:resource="http://purl.org/dc/dcmitype/StillImage"/>
    <dc:date>2023-11-24T23:38:03.639133</dc:date>
    <dc:format>image/svg+xml</dc:format>
    <dc:creator>
     <cc:Agent>
      <dc:title>Matplotlib v3.8.0, https://matplotlib.org/</dc:title>
     </cc:Agent>
    </dc:creator>
   </cc:Work>
  </rdf:RDF>
 </metadata>
 <defs>
  <style type="text/css">*{stroke-linejoin: round; stroke-linecap: butt}</style>
 </defs>
 <g id="figure_1">
  <g id="patch_1">
   <path d="M 0 720 
L 1440 720 
L 1440 0 
L 0 0 
z
" style="fill: #ffffff"/>
  </g>
  <g id="axes_1">
   <g id="patch_2">
    <path d="M 64.765252 313.474739 
L 712.8 313.474739 
L 712.8 3.00024 
L 64.765252 3.00024 
z
" style="fill: #ffffff"/>
   </g>
   <g id="matplotlib.axis_1">
    <g id="xtick_1">
     <g id="text_1">
      <!-- 0 -->
      <g transform="translate(222.204891 330.811736) scale(0.2 -0.2)">
       <defs>
        <path id="CMR17-30" d="M 2688 2025 
C 2688 2416 2682 3080 2413 3591 
C 2176 4039 1798 4198 1466 4198 
C 1158 4198 768 4058 525 3597 
C 269 3118 243 2524 243 2025 
C 243 1661 250 1106 448 619 
C 723 -39 1216 -128 1466 -128 
C 1760 -128 2208 -7 2470 600 
C 2662 1042 2688 1559 2688 2025 
z
M 1466 -26 
C 1056 -26 813 325 723 812 
C 653 1188 653 1738 653 2096 
C 653 2588 653 2997 736 3387 
C 858 3929 1216 4096 1466 4096 
C 1728 4096 2067 3923 2189 3400 
C 2272 3036 2278 2607 2278 2096 
C 2278 1680 2278 1169 2202 792 
C 2067 95 1690 -26 1466 -26 
z
" transform="scale(0.015625)"/>
       </defs>
       <use xlink:href="#CMR17-30" transform="scale(0.996264)"/>
      </g>
     </g>
    </g>
    <g id="xtick_2">
     <g id="text_2">
      <!-- 1 -->
      <g transform="translate(546.222265 330.811736) scale(0.2 -0.2)">
       <defs>
        <path id="CMR17-31" d="M 1702 4058 
C 1702 4192 1696 4192 1606 4192 
C 1357 3916 979 3827 621 3827 
C 602 3827 570 3827 563 3808 
C 557 3795 557 3782 557 3648 
C 755 3648 1088 3686 1344 3839 
L 1344 461 
C 1344 236 1331 160 781 160 
L 589 160 
L 589 0 
C 896 0 1216 0 1523 0 
C 1830 0 2150 0 2458 0 
L 2458 160 
L 2266 160 
C 1715 160 1702 230 1702 458 
L 1702 4058 
z
" transform="scale(0.015625)"/>
       </defs>
       <use xlink:href="#CMR17-31" transform="scale(0.996264)"/>
      </g>
     </g>
    </g>
    <g id="text_3">
     <!-- cluster for 2 cluster solution -->
     <g style="fill: #696969" transform="translate(277.319053 352.524366) scale(0.2 -0.2)">
      <defs>
       <path id="CMR17-63" d="M 2234 2240 
C 2112 2240 1933 2240 1933 2017 
C 1933 1838 2080 1787 2163 1787 
C 2208 1787 2394 1807 2394 2024 
C 2394 2467 1958 2803 1466 2803 
C 787 2803 211 2178 211 1363 
C 211 516 813 -64 1466 -64 
C 2259 -64 2458 677 2458 748 
C 2458 774 2451 793 2406 793 
C 2362 793 2355 787 2330 703 
C 2163 180 1798 51 1523 51 
C 1114 51 621 427 621 1369 
C 621 2338 1094 2688 1472 2688 
C 1722 2688 2093 2573 2234 2240 
z
" transform="scale(0.015625)"/>
       <path id="CMR17-6c" d="M 979 4396 
L 218 4326 
L 218 4160 
C 595 4160 653 4122 653 3817 
L 653 426 
C 653 184 627 153 218 153 
L 218 -13 
C 371 0 653 0 813 0 
C 979 0 1261 0 1414 -13 
L 1414 153 
C 1005 153 979 178 979 426 
L 979 4396 
z
" transform="scale(0.015625)"/>
       <path id="CMR17-75" d="M 1882 2693 
L 1882 2528 
C 2259 2528 2317 2489 2317 2186 
L 2317 1032 
C 2317 500 2029 38 1555 38 
C 1030 38 986 348 986 678 
L 986 2763 
L 211 2693 
L 211 2528 
C 467 2528 640 2528 646 2274 
L 646 1058 
C 646 633 646 361 813 183 
C 896 101 1056 -64 1517 -64 
C 2061 -64 2272 377 2323 506 
L 2330 506 
L 2330 -63 
L 3091 -63 
L 3091 128 
C 2714 128 2656 166 2656 473 
L 2656 2763 
L 1882 2693 
z
" transform="scale(0.015625)"/>
       <path id="CMR17-73" d="M 1978 2697 
C 1978 2813 1971 2819 1933 2819 
C 1907 2819 1901 2813 1824 2717 
C 1805 2691 1747 2626 1728 2601 
C 1523 2819 1235 2819 1126 2819 
C 416 2819 160 2447 160 2076 
C 160 1498 813 1365 998 1325 
C 1402 1243 1542 1217 1677 1101 
C 1760 1025 1901 884 1901 654 
C 1901 384 1747 38 1158 38 
C 602 38 403 460 288 1021 
C 269 1110 269 1117 218 1117 
C 166 1117 160 1110 160 983 
L 160 63 
C 160 -51 166 -58 205 -58 
C 237 -58 243 -51 275 0 
C 314 57 410 211 448 276 
C 576 103 800 -64 1158 -64 
C 1792 -64 2131 283 2131 784 
C 2131 1112 1958 1285 1875 1362 
C 1683 1561 1459 1606 1190 1657 
C 838 1735 390 1825 390 2217 
C 390 2383 480 2737 1126 2737 
C 1811 2737 1850 2094 1862 1888 
C 1869 1856 1901 1849 1920 1849 
C 1978 1849 1978 1869 1978 1978 
L 1978 2697 
z
" transform="scale(0.015625)"/>
       <path id="CMR17-74" d="M 966 2560 
L 1862 2560 
L 1862 2725 
L 966 2725 
L 966 3904 
L 851 3904 
C 838 3245 614 2668 70 2668 
L 70 2560 
L 627 2560 
L 627 771 
C 627 650 627 -64 1370 -64 
C 1747 -64 1965 306 1965 777 
L 1965 1140 
L 1850 1140 
L 1850 783 
C 1850 344 1677 51 1408 51 
C 1222 51 966 178 966 758 
L 966 2560 
z
" transform="scale(0.015625)"/>
       <path id="CMR17-65" d="M 2438 1472 
C 2464 1498 2464 1511 2464 1576 
C 2464 2238 2118 2816 1389 2816 
C 710 2816 173 2169 173 1383 
C 173 551 781 -64 1459 -64 
C 2176 -64 2458 607 2458 740 
C 2458 784 2419 784 2406 784 
C 2362 784 2355 771 2330 696 
C 2189 265 1837 51 1504 51 
C 1229 51 954 203 781 480 
C 582 803 582 1176 582 1472 
L 2438 1472 
z
M 589 1568 
C 634 2505 1126 2714 1382 2714 
C 1818 2714 2112 2297 2118 1568 
L 589 1568 
z
" transform="scale(0.015625)"/>
       <path id="CMR17-72" d="M 960 1497 
C 960 2112 1222 2688 1702 2688 
C 1747 2688 1792 2682 1837 2662 
C 1837 2662 1696 2617 1696 2452 
C 1696 2298 1818 2234 1914 2234 
C 1990 2234 2131 2279 2131 2458 
C 2131 2663 1926 2790 1709 2790 
C 1222 2790 1011 2317 947 2093 
L 941 2093 
L 941 2790 
L 198 2720 
L 198 2554 
C 576 2554 634 2515 634 2208 
L 634 428 
C 634 184 608 153 198 153 
L 198 -13 
C 352 0 646 0 813 0 
C 998 0 1325 0 1498 -13 
L 1498 153 
C 1037 153 960 153 960 440 
L 960 1497 
z
" transform="scale(0.015625)"/>
       <path id="CMR17-66" d="M 979 2560 
L 1709 2560 
L 1709 2725 
L 966 2725 
L 966 3494 
C 966 4022 1235 4352 1510 4352 
C 1594 4352 1690 4327 1754 4282 
C 1702 4269 1568 4225 1568 4067 
C 1568 3901 1696 3850 1786 3850 
C 1875 3850 2003 3901 2003 4067 
C 2003 4308 1773 4454 1517 4454 
C 1152 4454 653 4156 653 3481 
L 653 2725 
L 141 2725 
L 141 2560 
L 653 2560 
L 653 427 
C 653 184 627 153 218 153 
L 218 -13 
C 371 0 666 0 832 0 
C 1018 0 1344 0 1517 -13 
L 1517 153 
C 1056 153 979 153 979 439 
L 979 2560 
z
" transform="scale(0.015625)"/>
       <path id="CMR17-6f" d="M 2758 1356 
C 2758 2176 2163 2816 1466 2816 
C 768 2816 173 2176 173 1356 
C 173 551 768 -64 1466 -64 
C 2163 -64 2758 551 2758 1356 
z
M 1466 51 
C 1165 51 909 230 762 480 
C 602 767 582 1126 582 1408 
C 582 1677 595 2010 762 2298 
C 890 2509 1139 2714 1466 2714 
C 1754 2714 1997 2554 2150 2330 
C 2349 2029 2349 1607 2349 1408 
C 2349 1158 2336 775 2163 467 
C 1984 173 1709 51 1466 51 
z
" transform="scale(0.015625)"/>
       <path id="CMR17-32" d="M 2669 989 
L 2554 989 
C 2490 536 2438 459 2413 420 
C 2381 369 1920 369 1830 369 
L 602 369 
C 832 619 1280 1072 1824 1597 
C 2214 1967 2669 2402 2669 3035 
C 2669 3790 2067 4224 1395 4224 
C 691 4224 262 3604 262 3030 
C 262 2780 448 2748 525 2748 
C 589 2748 781 2787 781 3010 
C 781 3207 614 3264 525 3264 
C 486 3264 448 3258 422 3245 
C 544 3790 915 4058 1306 4058 
C 1862 4058 2227 3617 2227 3035 
C 2227 2479 1901 2000 1536 1584 
L 262 146 
L 262 0 
L 2515 0 
L 2669 989 
z
" transform="scale(0.015625)"/>
       <path id="CMR17-69" d="M 992 3909 
C 992 4049 877 4170 730 4170 
C 589 4170 467 4056 467 3909 
C 467 3769 582 3648 730 3648 
C 870 3648 992 3763 992 3909 
z
M 243 2706 
L 243 2541 
C 602 2541 653 2502 653 2197 
L 653 427 
C 653 184 627 153 218 153 
L 218 -13 
C 371 0 646 0 806 0 
C 960 0 1222 0 1370 -13 
L 1370 153 
C 992 153 979 191 979 420 
L 979 2776 
L 243 2706 
z
" transform="scale(0.015625)"/>
       <path id="CMR17-6e" d="M 2656 1933 
C 2656 2259 2592 2790 1837 2790 
C 1331 2790 1069 2400 973 2144 
L 966 2144 
L 966 2790 
L 211 2720 
L 211 2554 
C 589 2554 646 2515 646 2208 
L 646 428 
C 646 184 621 153 211 153 
L 211 -13 
C 365 0 646 0 813 0 
C 979 0 1267 0 1421 -13 
L 1421 153 
C 1011 153 986 178 986 428 
L 986 1658 
C 986 2247 1344 2688 1792 2688 
C 2266 2688 2317 2266 2317 1958 
L 2317 428 
C 2317 184 2291 153 1882 153 
L 1882 -13 
C 2035 0 2317 0 2483 0 
C 2650 0 2938 0 3091 -13 
L 3091 153 
C 2682 153 2656 178 2656 428 
L 2656 1933 
z
" transform="scale(0.015625)"/>
      </defs>
      <use xlink:href="#CMR17-63" transform="scale(0.996264)"/>
      <use xlink:href="#CMR17-6c" transform="translate(40.48566 0) scale(0.996264)"/>
      <use xlink:href="#CMR17-75" transform="translate(65.356719 0) scale(0.996264)"/>
      <use xlink:href="#CMR17-73" transform="translate(116.252089 0) scale(0.996264)"/>
      <use xlink:href="#CMR17-74" transform="translate(152.053426 0) scale(0.996264)"/>
      <use xlink:href="#CMR17-65" transform="translate(187.334194 0) scale(0.996264)"/>
      <use xlink:href="#CMR17-72" transform="translate(227.819855 0) scale(0.996264)"/>
      <use xlink:href="#CMR17-66" transform="translate(293.176589 0) scale(0.996264)"/>
      <use xlink:href="#CMR17-6f" transform="translate(320.650101 0) scale(0.996264)"/>
      <use xlink:href="#CMR17-72" transform="translate(366.340578 0) scale(0.996264)"/>
      <use xlink:href="#CMR17-32" transform="translate(431.697312 0) scale(0.996264)"/>
      <use xlink:href="#CMR17-63" transform="translate(507.463756 0) scale(0.996264)"/>
      <use xlink:href="#CMR17-6c" transform="translate(547.949416 0) scale(0.996264)"/>
      <use xlink:href="#CMR17-75" transform="translate(572.820475 0) scale(0.996264)"/>
      <use xlink:href="#CMR17-73" transform="translate(623.715845 0) scale(0.996264)"/>
      <use xlink:href="#CMR17-74" transform="translate(659.517182 0) scale(0.996264)"/>
      <use xlink:href="#CMR17-65" transform="translate(694.79795 0) scale(0.996264)"/>
      <use xlink:href="#CMR17-72" transform="translate(735.283611 0) scale(0.996264)"/>
      <use xlink:href="#CMR17-73" transform="translate(800.640345 0) scale(0.996264)"/>
      <use xlink:href="#CMR17-6f" transform="translate(836.441682 0) scale(0.996264)"/>
      <use xlink:href="#CMR17-6c" transform="translate(882.132159 0) scale(0.996264)"/>
      <use xlink:href="#CMR17-75" transform="translate(907.003218 0) scale(0.996264)"/>
      <use xlink:href="#CMR17-74" transform="translate(957.898588 0) scale(0.996264)"/>
      <use xlink:href="#CMR17-69" transform="translate(993.179355 0) scale(0.996264)"/>
      <use xlink:href="#CMR17-6f" transform="translate(1018.050414 0) scale(0.996264)"/>
      <use xlink:href="#CMR17-6e" transform="translate(1063.740891 0) scale(0.996264)"/>
     </g>
    </g>
   </g>
   <g id="matplotlib.axis_2">
    <g id="ytick_1">
     <g id="line2d_1">
      <path d="M 64.765252 313.474739 
L 712.8 313.474739 
" clip-path="url(#pc1be6c492e)" style="fill: none; stroke: #cccccc; stroke-width: 0.8; stroke-linecap: round"/>
     </g>
     <g id="text_4">
      <!-- $\mathdefault{0}$ -->
      <g transform="translate(52.127157 320.393238) scale(0.2 -0.2)">
       <use xlink:href="#CMR17-30" transform="scale(0.996264)"/>
      </g>
     </g>
    </g>
    <g id="ytick_2">
     <g id="line2d_2">
      <path d="M 64.765252 263.32379 
L 712.8 263.32379 
" clip-path="url(#pc1be6c492e)" style="fill: none; stroke: #cccccc; stroke-width: 0.8; stroke-linecap: round"/>
     </g>
     <g id="text_5">
      <!-- $\mathdefault{500}$ -->
      <g transform="translate(33.850966 270.242288) scale(0.2 -0.2)">
       <defs>
        <path id="CMR17-35" d="M 730 3692 
C 794 3666 1056 3584 1325 3584 
C 1920 3584 2246 3911 2432 4100 
C 2432 4157 2432 4192 2394 4192 
C 2387 4192 2374 4192 2323 4163 
C 2099 4058 1837 3973 1517 3973 
C 1325 3973 1037 3999 723 4139 
C 653 4171 640 4171 634 4171 
C 602 4171 595 4164 595 4037 
L 595 2203 
C 595 2089 595 2057 659 2057 
C 691 2057 704 2070 736 2114 
C 941 2401 1222 2522 1542 2522 
C 1766 2522 2246 2382 2246 1289 
C 2246 1085 2246 715 2054 421 
C 1894 159 1645 25 1370 25 
C 947 25 518 320 403 814 
C 429 807 480 795 506 795 
C 589 795 749 840 749 1038 
C 749 1210 627 1280 506 1280 
C 358 1280 262 1190 262 1011 
C 262 454 704 -128 1382 -128 
C 2042 -128 2669 440 2669 1264 
C 2669 2030 2170 2624 1549 2624 
C 1222 2624 947 2503 730 2274 
L 730 3692 
z
" transform="scale(0.015625)"/>
       </defs>
       <use xlink:href="#CMR17-35" transform="scale(0.996264)"/>
       <use xlink:href="#CMR17-30" transform="translate(45.690477 0) scale(0.996264)"/>
       <use xlink:href="#CMR17-30" transform="translate(91.380954 0) scale(0.996264)"/>
      </g>
     </g>
    </g>
    <g id="ytick_3">
     <g id="line2d_3">
      <path d="M 64.765252 213.17284 
L 712.8 213.17284 
" clip-path="url(#pc1be6c492e)" style="fill: none; stroke: #cccccc; stroke-width: 0.8; stroke-linecap: round"/>
     </g>
     <g id="text_6">
      <!-- $\mathdefault{1000}$ -->
      <g transform="translate(24.71287 220.091338) scale(0.2 -0.2)">
       <use xlink:href="#CMR17-31" transform="scale(0.996264)"/>
       <use xlink:href="#CMR17-30" transform="translate(45.690477 0) scale(0.996264)"/>
       <use xlink:href="#CMR17-30" transform="translate(91.380954 0) scale(0.996264)"/>
       <use xlink:href="#CMR17-30" transform="translate(137.071431 0) scale(0.996264)"/>
      </g>
     </g>
    </g>
    <g id="ytick_4">
     <g id="line2d_4">
      <path d="M 64.765252 163.02189 
L 712.8 163.02189 
" clip-path="url(#pc1be6c492e)" style="fill: none; stroke: #cccccc; stroke-width: 0.8; stroke-linecap: round"/>
     </g>
     <g id="text_7">
      <!-- $\mathdefault{1500}$ -->
      <g transform="translate(24.71287 169.940389) scale(0.2 -0.2)">
       <use xlink:href="#CMR17-31" transform="scale(0.996264)"/>
       <use xlink:href="#CMR17-35" transform="translate(45.690477 0) scale(0.996264)"/>
       <use xlink:href="#CMR17-30" transform="translate(91.380954 0) scale(0.996264)"/>
       <use xlink:href="#CMR17-30" transform="translate(137.071431 0) scale(0.996264)"/>
      </g>
     </g>
    </g>
    <g id="ytick_5">
     <g id="line2d_5">
      <path d="M 64.765252 112.870941 
L 712.8 112.870941 
" clip-path="url(#pc1be6c492e)" style="fill: none; stroke: #cccccc; stroke-width: 0.8; stroke-linecap: round"/>
     </g>
     <g id="text_8">
      <!-- $\mathdefault{2000}$ -->
      <g transform="translate(24.71287 119.789439) scale(0.2 -0.2)">
       <use xlink:href="#CMR17-32" transform="scale(0.996264)"/>
       <use xlink:href="#CMR17-30" transform="translate(45.690477 0) scale(0.996264)"/>
       <use xlink:href="#CMR17-30" transform="translate(91.380954 0) scale(0.996264)"/>
       <use xlink:href="#CMR17-30" transform="translate(137.071431 0) scale(0.996264)"/>
      </g>
     </g>
    </g>
    <g id="ytick_6">
     <g id="line2d_6">
      <path d="M 64.765252 62.719991 
L 712.8 62.719991 
" clip-path="url(#pc1be6c492e)" style="fill: none; stroke: #cccccc; stroke-width: 0.8; stroke-linecap: round"/>
     </g>
     <g id="text_9">
      <!-- $\mathdefault{2500}$ -->
      <g transform="translate(24.71287 69.638489) scale(0.2 -0.2)">
       <use xlink:href="#CMR17-32" transform="scale(0.996264)"/>
       <use xlink:href="#CMR17-35" transform="translate(45.690477 0) scale(0.996264)"/>
       <use xlink:href="#CMR17-30" transform="translate(91.380954 0) scale(0.996264)"/>
       <use xlink:href="#CMR17-30" transform="translate(137.071431 0) scale(0.996264)"/>
      </g>
     </g>
    </g>
    <g id="ytick_7">
     <g id="line2d_7">
      <path d="M 64.765252 12.569041 
L 712.8 12.569041 
" clip-path="url(#pc1be6c492e)" style="fill: none; stroke: #cccccc; stroke-width: 0.8; stroke-linecap: round"/>
     </g>
     <g id="text_10">
      <!-- $\mathdefault{3000}$ -->
      <g transform="translate(24.71287 19.48754) scale(0.2 -0.2)">
       <defs>
        <path id="CMR17-33" d="M 1414 2157 
C 1984 2157 2234 1662 2234 1090 
C 2234 320 1824 25 1453 25 
C 1114 25 563 194 390 693 
C 422 680 454 680 486 680 
C 640 680 755 782 755 948 
C 755 1133 614 1216 486 1216 
C 378 1216 211 1165 211 926 
C 211 335 787 -128 1466 -128 
C 2176 -128 2720 430 2720 1085 
C 2720 1707 2208 2157 1600 2227 
C 2086 2328 2554 2756 2554 3329 
C 2554 3820 2048 4179 1472 4179 
C 890 4179 378 3829 378 3329 
C 378 3110 544 3072 627 3072 
C 762 3072 877 3155 877 3321 
C 877 3486 762 3569 627 3569 
C 602 3569 570 3569 544 3557 
C 730 3959 1235 4032 1459 4032 
C 1683 4032 2106 3925 2106 3320 
C 2106 3143 2080 2828 1862 2550 
C 1670 2304 1453 2304 1242 2284 
C 1210 2284 1062 2269 1037 2269 
C 992 2263 966 2257 966 2208 
C 966 2163 973 2157 1101 2157 
L 1414 2157 
z
" transform="scale(0.015625)"/>
       </defs>
       <use xlink:href="#CMR17-33" transform="scale(0.996264)"/>
       <use xlink:href="#CMR17-30" transform="translate(45.690477 0) scale(0.996264)"/>
       <use xlink:href="#CMR17-30" transform="translate(91.380954 0) scale(0.996264)"/>
       <use xlink:href="#CMR17-30" transform="translate(137.071431 0) scale(0.996264)"/>
      </g>
     </g>
    </g>
    <g id="text_11">
     <!-- Number of observations -->
     <g style="fill: #696969" transform="translate(16.837237 252.87107) rotate(-90) scale(0.2 -0.2)">
      <defs>
       <path id="CMR17-4e" d="M 1312 4250 
C 1267 4320 1261 4320 1139 4320 
L 326 4320 
L 326 4160 
L 448 4160 
C 704 4160 819 4129 838 4122 
L 838 610 
C 838 451 838 153 326 153 
L 326 -13 
C 474 0 742 0 902 0 
C 1062 0 1331 0 1478 -13 
L 1478 153 
C 966 153 966 451 966 610 
L 966 4033 
C 1011 3995 1011 3982 1056 3919 
L 3430 76 
C 3475 0 3494 0 3526 0 
C 3590 0 3590 19 3590 139 
L 3590 3705 
C 3590 3863 3590 4160 4102 4160 
L 4102 4326 
C 3955 4320 3686 4320 3526 4320 
C 3366 4320 3098 4320 2950 4326 
L 2950 4160 
C 3462 4160 3462 3862 3462 3703 
L 3462 763 
L 1312 4250 
z
" transform="scale(0.015625)"/>
       <path id="CMR17-6d" d="M 4326 1933 
C 4326 2252 4269 2790 3507 2790 
C 3072 2790 2771 2496 2656 2151 
L 2650 2151 
C 2573 2676 2195 2790 1837 2790 
C 1331 2790 1069 2400 973 2144 
L 966 2144 
L 966 2790 
L 211 2720 
L 211 2554 
C 589 2554 646 2515 646 2208 
L 646 428 
C 646 184 621 153 211 153 
L 211 -13 
C 365 0 646 0 813 0 
C 979 0 1267 0 1421 -13 
L 1421 153 
C 1011 153 986 178 986 428 
L 986 1658 
C 986 2247 1344 2688 1792 2688 
C 2266 2688 2317 2266 2317 1958 
L 2317 428 
C 2317 184 2291 153 1882 153 
L 1882 -13 
C 2035 0 2317 0 2483 0 
C 2650 0 2938 0 3091 -13 
L 3091 153 
C 2682 153 2656 178 2656 428 
L 2656 1658 
C 2656 2247 3014 2688 3462 2688 
C 3936 2688 3987 2266 3987 1958 
L 3987 428 
C 3987 184 3962 153 3552 153 
L 3552 -13 
C 3706 0 3987 0 4154 0 
C 4320 0 4608 0 4762 -13 
L 4762 153 
C 4352 153 4326 178 4326 428 
L 4326 1933 
z
" transform="scale(0.015625)"/>
       <path id="CMR17-62" d="M 960 4396 
L 198 4326 
L 198 4160 
C 576 4160 634 4122 634 3817 
L 634 -13 
L 749 -13 
L 934 441 
C 1120 141 1395 -64 1766 -64 
C 2406 -64 3053 500 3053 1370 
C 3053 2188 2477 2790 1830 2790 
C 1434 2790 1152 2579 960 2330 
L 960 4396 
z
M 973 2004 
C 973 2118 973 2138 1062 2272 
C 1312 2657 1670 2688 1792 2688 
C 1984 2688 2643 2585 2643 1376 
C 2643 108 1888 38 1734 38 
C 1536 38 1248 114 1043 486 
C 973 608 973 621 973 735 
L 973 2004 
z
" transform="scale(0.015625)"/>
       <path id="CMR17-76" d="M 2502 2163 
C 2560 2304 2662 2560 3034 2560 
L 3034 2726 
C 2912 2726 2752 2726 2630 2726 
C 2496 2726 2285 2726 2157 2732 
L 2157 2566 
C 2317 2553 2406 2477 2406 2311 
C 2406 2253 2406 2240 2368 2151 
L 1664 377 
L 902 2286 
C 864 2369 864 2381 864 2407 
C 864 2560 1075 2560 1171 2560 
L 1171 2732 
C 1018 2726 736 2726 576 2726 
C 403 2726 205 2726 64 2732 
L 64 2560 
C 307 2560 442 2560 518 2362 
L 1446 44 
C 1485 -51 1491 -64 1549 -64 
C 1606 -64 1613 -51 1651 44 
L 2502 2163 
z
" transform="scale(0.015625)"/>
       <path id="CMR17-61" d="M 2304 1653 
C 2304 2072 2304 2294 2035 2543 
C 1798 2752 1523 2816 1306 2816 
C 800 2816 435 2407 435 1971 
C 435 1728 627 1728 666 1728 
C 749 1728 896 1778 896 1954 
C 896 2112 774 2181 666 2181 
C 640 2181 608 2174 589 2168 
C 723 2592 1069 2714 1293 2714 
C 1613 2714 1965 2429 1965 1885 
L 1965 1600 
C 1587 1600 1133 1549 774 1357 
C 371 1133 256 813 256 570 
C 256 77 832 -64 1171 -64 
C 1523 -64 1850 139 1990 511 
C 2003 233 2182 -18 2464 -18 
C 2598 -18 2938 70 2938 567 
L 2938 920 
L 2822 920 
L 2822 562 
C 2822 178 2650 128 2566 128 
C 2304 128 2304 458 2304 738 
L 2304 1653 
z
M 1965 870 
C 1965 317 1568 38 1216 38 
C 896 38 646 275 646 570 
C 646 761 730 1100 1101 1305 
C 1408 1478 1760 1504 1965 1504 
L 1965 870 
z
" transform="scale(0.015625)"/>
      </defs>
      <use xlink:href="#CMR17-4e" transform="scale(0.996264)"/>
      <use xlink:href="#CMR17-75" transform="translate(69.07243 0) scale(0.996264)"/>
      <use xlink:href="#CMR17-6d" transform="translate(119.9678 0) scale(0.996264)"/>
      <use xlink:href="#CMR17-62" transform="translate(194.284936 0) scale(0.996264)"/>
      <use xlink:href="#CMR17-65" transform="translate(247.782744 0) scale(0.996264)"/>
      <use xlink:href="#CMR17-72" transform="translate(288.268404 0) scale(0.996264)"/>
      <use xlink:href="#CMR17-6f" transform="translate(353.625139 0) scale(0.996264)"/>
      <use xlink:href="#CMR17-66" transform="translate(399.315616 0) scale(0.996264)"/>
      <use xlink:href="#CMR17-6f" transform="translate(456.865095 0) scale(0.996264)"/>
      <use xlink:href="#CMR17-62" transform="translate(502.555572 0) scale(0.996264)"/>
      <use xlink:href="#CMR17-73" transform="translate(553.450941 0) scale(0.996264)"/>
      <use xlink:href="#CMR17-65" transform="translate(589.252279 0) scale(0.996264)"/>
      <use xlink:href="#CMR17-72" transform="translate(629.73794 0) scale(0.996264)"/>
      <use xlink:href="#CMR17-76" transform="translate(665.018707 0) scale(0.996264)"/>
      <use xlink:href="#CMR17-61" transform="translate(708.106807 0) scale(0.996264)"/>
      <use xlink:href="#CMR17-74" transform="translate(753.797284 0) scale(0.996264)"/>
      <use xlink:href="#CMR17-69" transform="translate(789.078051 0) scale(0.996264)"/>
      <use xlink:href="#CMR17-6f" transform="translate(813.94911 0) scale(0.996264)"/>
      <use xlink:href="#CMR17-6e" transform="translate(859.639587 0) scale(0.996264)"/>
      <use xlink:href="#CMR17-73" transform="translate(910.534957 0) scale(0.996264)"/>
     </g>
    </g>
   </g>
   <g id="patch_3">
    <path d="M 97.166989 313.474739 
L 356.380889 313.474739 
L 356.380889 150.484153 
L 97.166989 150.484153 
z
" clip-path="url(#pc1be6c492e)" style="fill: #0e6059; stroke: #ffffff; stroke-linejoin: miter"/>
   </g>
   <g id="patch_4">
    <path d="M 421.184363 313.474739 
L 680.398263 313.474739 
L 680.398263 17.78474 
L 421.184363 17.78474 
z
" clip-path="url(#pc1be6c492e)" style="fill: #0e6059; stroke: #ffffff; stroke-linejoin: miter"/>
   </g>
   <g id="patch_5">
    <path d="M 64.765252 313.474739 
L 64.765252 3.00024 
" style="fill: none; stroke: #808080; stroke-width: 0.8; stroke-linejoin: miter; stroke-linecap: square"/>
   </g>
   <g id="patch_6">
    <path d="M 64.765252 313.474739 
L 712.8 313.474739 
" style="fill: none; stroke: #808080; stroke-width: 0.8; stroke-linejoin: miter; stroke-linecap: square"/>
   </g>
  </g>
  <g id="axes_2">
   <g id="patch_7">
    <path d="M 788.965012 313.474739 
L 1436.99976 313.474739 
L 1436.99976 3.00024 
L 788.965012 3.00024 
z
" style="fill: #ffffff"/>
   </g>
   <g id="matplotlib.axis_3">
    <g id="xtick_3">
     <g id="text_12">
      <!-- 0 -->
      <g transform="translate(892.401756 330.811736) scale(0.2 -0.2)">
       <use xlink:href="#CMR17-30" transform="scale(0.996264)"/>
      </g>
     </g>
    </g>
    <g id="xtick_4">
     <g id="text_13">
      <!-- 1 -->
      <g transform="translate(1108.413338 330.811736) scale(0.2 -0.2)">
       <use xlink:href="#CMR17-31" transform="scale(0.996264)"/>
      </g>
     </g>
    </g>
    <g id="xtick_5">
     <g id="text_14">
      <!-- 2 -->
      <g transform="translate(1324.424921 330.811736) scale(0.2 -0.2)">
       <use xlink:href="#CMR17-32" transform="scale(0.996264)"/>
      </g>
     </g>
    </g>
    <g id="text_15">
     <!-- cluster for 3 cluster solution -->
     <g style="fill: #696969" transform="translate(1001.518813 352.524366) scale(0.2 -0.2)">
      <use xlink:href="#CMR17-63" transform="scale(0.996264)"/>
      <use xlink:href="#CMR17-6c" transform="translate(40.48566 0) scale(0.996264)"/>
      <use xlink:href="#CMR17-75" transform="translate(65.356719 0) scale(0.996264)"/>
      <use xlink:href="#CMR17-73" transform="translate(116.252089 0) scale(0.996264)"/>
      <use xlink:href="#CMR17-74" transform="translate(152.053426 0) scale(0.996264)"/>
      <use xlink:href="#CMR17-65" transform="translate(187.334194 0) scale(0.996264)"/>
      <use xlink:href="#CMR17-72" transform="translate(227.819855 0) scale(0.996264)"/>
      <use xlink:href="#CMR17-66" transform="translate(293.176589 0) scale(0.996264)"/>
      <use xlink:href="#CMR17-6f" transform="translate(320.650101 0) scale(0.996264)"/>
      <use xlink:href="#CMR17-72" transform="translate(366.340578 0) scale(0.996264)"/>
      <use xlink:href="#CMR17-33" transform="translate(431.697312 0) scale(0.996264)"/>
      <use xlink:href="#CMR17-63" transform="translate(507.463756 0) scale(0.996264)"/>
      <use xlink:href="#CMR17-6c" transform="translate(547.949416 0) scale(0.996264)"/>
      <use xlink:href="#CMR17-75" transform="translate(572.820475 0) scale(0.996264)"/>
      <use xlink:href="#CMR17-73" transform="translate(623.715845 0) scale(0.996264)"/>
      <use xlink:href="#CMR17-74" transform="translate(659.517182 0) scale(0.996264)"/>
      <use xlink:href="#CMR17-65" transform="translate(694.79795 0) scale(0.996264)"/>
      <use xlink:href="#CMR17-72" transform="translate(735.283611 0) scale(0.996264)"/>
      <use xlink:href="#CMR17-73" transform="translate(800.640345 0) scale(0.996264)"/>
      <use xlink:href="#CMR17-6f" transform="translate(836.441682 0) scale(0.996264)"/>
      <use xlink:href="#CMR17-6c" transform="translate(882.132159 0) scale(0.996264)"/>
      <use xlink:href="#CMR17-75" transform="translate(907.003218 0) scale(0.996264)"/>
      <use xlink:href="#CMR17-74" transform="translate(957.898588 0) scale(0.996264)"/>
      <use xlink:href="#CMR17-69" transform="translate(993.179355 0) scale(0.996264)"/>
      <use xlink:href="#CMR17-6f" transform="translate(1018.050414 0) scale(0.996264)"/>
      <use xlink:href="#CMR17-6e" transform="translate(1063.740891 0) scale(0.996264)"/>
     </g>
    </g>
   </g>
   <g id="matplotlib.axis_4">
    <g id="ytick_8">
     <g id="line2d_8">
      <path d="M 788.965012 313.474739 
L 1436.99976 313.474739 
" clip-path="url(#pe1e5d8e713)" style="fill: none; stroke: #cccccc; stroke-width: 0.8; stroke-linecap: round"/>
     </g>
     <g id="text_16">
      <!-- $\mathdefault{0}$ -->
      <g transform="translate(776.326917 320.393238) scale(0.2 -0.2)">
       <use xlink:href="#CMR17-30" transform="scale(0.996264)"/>
      </g>
     </g>
    </g>
    <g id="ytick_9">
     <g id="line2d_9">
      <path d="M 788.965012 263.32379 
L 1436.99976 263.32379 
" clip-path="url(#pe1e5d8e713)" style="fill: none; stroke: #cccccc; stroke-width: 0.8; stroke-linecap: round"/>
     </g>
     <g id="text_17">
      <!-- $\mathdefault{500}$ -->
      <g transform="translate(758.050726 270.242288) scale(0.2 -0.2)">
       <use xlink:href="#CMR17-35" transform="scale(0.996264)"/>
       <use xlink:href="#CMR17-30" transform="translate(45.690477 0) scale(0.996264)"/>
       <use xlink:href="#CMR17-30" transform="translate(91.380954 0) scale(0.996264)"/>
      </g>
     </g>
    </g>
    <g id="ytick_10">
     <g id="line2d_10">
      <path d="M 788.965012 213.17284 
L 1436.99976 213.17284 
" clip-path="url(#pe1e5d8e713)" style="fill: none; stroke: #cccccc; stroke-width: 0.8; stroke-linecap: round"/>
     </g>
     <g id="text_18">
      <!-- $\mathdefault{1000}$ -->
      <g transform="translate(748.91263 220.091338) scale(0.2 -0.2)">
       <use xlink:href="#CMR17-31" transform="scale(0.996264)"/>
       <use xlink:href="#CMR17-30" transform="translate(45.690477 0) scale(0.996264)"/>
       <use xlink:href="#CMR17-30" transform="translate(91.380954 0) scale(0.996264)"/>
       <use xlink:href="#CMR17-30" transform="translate(137.071431 0) scale(0.996264)"/>
      </g>
     </g>
    </g>
    <g id="ytick_11">
     <g id="line2d_11">
      <path d="M 788.965012 163.02189 
L 1436.99976 163.02189 
" clip-path="url(#pe1e5d8e713)" style="fill: none; stroke: #cccccc; stroke-width: 0.8; stroke-linecap: round"/>
     </g>
     <g id="text_19">
      <!-- $\mathdefault{1500}$ -->
      <g transform="translate(748.91263 169.940389) scale(0.2 -0.2)">
       <use xlink:href="#CMR17-31" transform="scale(0.996264)"/>
       <use xlink:href="#CMR17-35" transform="translate(45.690477 0) scale(0.996264)"/>
       <use xlink:href="#CMR17-30" transform="translate(91.380954 0) scale(0.996264)"/>
       <use xlink:href="#CMR17-30" transform="translate(137.071431 0) scale(0.996264)"/>
      </g>
     </g>
    </g>
    <g id="ytick_12">
     <g id="line2d_12">
      <path d="M 788.965012 112.870941 
L 1436.99976 112.870941 
" clip-path="url(#pe1e5d8e713)" style="fill: none; stroke: #cccccc; stroke-width: 0.8; stroke-linecap: round"/>
     </g>
     <g id="text_20">
      <!-- $\mathdefault{2000}$ -->
      <g transform="translate(748.91263 119.789439) scale(0.2 -0.2)">
       <use xlink:href="#CMR17-32" transform="scale(0.996264)"/>
       <use xlink:href="#CMR17-30" transform="translate(45.690477 0) scale(0.996264)"/>
       <use xlink:href="#CMR17-30" transform="translate(91.380954 0) scale(0.996264)"/>
       <use xlink:href="#CMR17-30" transform="translate(137.071431 0) scale(0.996264)"/>
      </g>
     </g>
    </g>
    <g id="ytick_13">
     <g id="line2d_13">
      <path d="M 788.965012 62.719991 
L 1436.99976 62.719991 
" clip-path="url(#pe1e5d8e713)" style="fill: none; stroke: #cccccc; stroke-width: 0.8; stroke-linecap: round"/>
     </g>
     <g id="text_21">
      <!-- $\mathdefault{2500}$ -->
      <g transform="translate(748.91263 69.638489) scale(0.2 -0.2)">
       <use xlink:href="#CMR17-32" transform="scale(0.996264)"/>
       <use xlink:href="#CMR17-35" transform="translate(45.690477 0) scale(0.996264)"/>
       <use xlink:href="#CMR17-30" transform="translate(91.380954 0) scale(0.996264)"/>
       <use xlink:href="#CMR17-30" transform="translate(137.071431 0) scale(0.996264)"/>
      </g>
     </g>
    </g>
    <g id="ytick_14">
     <g id="line2d_14">
      <path d="M 788.965012 12.569041 
L 1436.99976 12.569041 
" clip-path="url(#pe1e5d8e713)" style="fill: none; stroke: #cccccc; stroke-width: 0.8; stroke-linecap: round"/>
     </g>
     <g id="text_22">
      <!-- $\mathdefault{3000}$ -->
      <g transform="translate(748.91263 19.48754) scale(0.2 -0.2)">
       <use xlink:href="#CMR17-33" transform="scale(0.996264)"/>
       <use xlink:href="#CMR17-30" transform="translate(45.690477 0) scale(0.996264)"/>
       <use xlink:href="#CMR17-30" transform="translate(91.380954 0) scale(0.996264)"/>
       <use xlink:href="#CMR17-30" transform="translate(137.071431 0) scale(0.996264)"/>
      </g>
     </g>
    </g>
    <g id="text_23">
     <!-- Number of observations -->
     <g style="fill: #696969" transform="translate(741.036997 252.87107) rotate(-90) scale(0.2 -0.2)">
      <use xlink:href="#CMR17-4e" transform="scale(0.996264)"/>
      <use xlink:href="#CMR17-75" transform="translate(69.07243 0) scale(0.996264)"/>
      <use xlink:href="#CMR17-6d" transform="translate(119.9678 0) scale(0.996264)"/>
      <use xlink:href="#CMR17-62" transform="translate(194.284936 0) scale(0.996264)"/>
      <use xlink:href="#CMR17-65" transform="translate(247.782744 0) scale(0.996264)"/>
      <use xlink:href="#CMR17-72" transform="translate(288.268404 0) scale(0.996264)"/>
      <use xlink:href="#CMR17-6f" transform="translate(353.625139 0) scale(0.996264)"/>
      <use xlink:href="#CMR17-66" transform="translate(399.315616 0) scale(0.996264)"/>
      <use xlink:href="#CMR17-6f" transform="translate(456.865095 0) scale(0.996264)"/>
      <use xlink:href="#CMR17-62" transform="translate(502.555572 0) scale(0.996264)"/>
      <use xlink:href="#CMR17-73" transform="translate(553.450941 0) scale(0.996264)"/>
      <use xlink:href="#CMR17-65" transform="translate(589.252279 0) scale(0.996264)"/>
      <use xlink:href="#CMR17-72" transform="translate(629.73794 0) scale(0.996264)"/>
      <use xlink:href="#CMR17-76" transform="translate(665.018707 0) scale(0.996264)"/>
      <use xlink:href="#CMR17-61" transform="translate(708.106807 0) scale(0.996264)"/>
      <use xlink:href="#CMR17-74" transform="translate(753.797284 0) scale(0.996264)"/>
      <use xlink:href="#CMR17-69" transform="translate(789.078051 0) scale(0.996264)"/>
      <use xlink:href="#CMR17-6f" transform="translate(813.94911 0) scale(0.996264)"/>
      <use xlink:href="#CMR17-6e" transform="translate(859.639587 0) scale(0.996264)"/>
      <use xlink:href="#CMR17-73" transform="translate(910.534957 0) scale(0.996264)"/>
     </g>
    </g>
   </g>
   <g id="patch_8">
    <path d="M 810.56617 313.474739 
L 983.375436 313.474739 
L 983.375436 151.487172 
L 810.56617 151.487172 
z
" clip-path="url(#pe1e5d8e713)" style="fill: #0e6059; stroke: #ffffff; stroke-linejoin: miter"/>
   </g>
   <g id="patch_9">
    <path d="M 1026.577753 313.474739 
L 1199.387019 313.474739 
L 1199.387019 17.78474 
L 1026.577753 17.78474 
z
" clip-path="url(#pe1e5d8e713)" style="fill: #0e6059; stroke: #ffffff; stroke-linejoin: miter"/>
   </g>
   <g id="patch_10">
    <path d="M 1242.589336 313.474739 
L 1415.398602 313.474739 
L 1415.398602 312.47172 
L 1242.589336 312.47172 
z
" clip-path="url(#pe1e5d8e713)" style="fill: #0e6059; stroke: #ffffff; stroke-linejoin: miter"/>
   </g>
   <g id="patch_11">
    <path d="M 788.965012 313.474739 
L 788.965012 3.00024 
" style="fill: none; stroke: #808080; stroke-width: 0.8; stroke-linejoin: miter; stroke-linecap: square"/>
   </g>
   <g id="patch_12">
    <path d="M 788.965012 313.474739 
L 1436.99976 313.474739 
" style="fill: none; stroke: #808080; stroke-width: 0.8; stroke-linejoin: miter; stroke-linecap: square"/>
   </g>
  </g>
  <g id="axes_3">
   <g id="patch_13">
    <path d="M 64.765252 674.074499 
L 712.8 674.074499 
L 712.8 363.6 
L 64.765252 363.6 
z
" style="fill: #ffffff"/>
   </g>
   <g id="matplotlib.axis_5">
    <g id="xtick_6">
     <g id="text_24">
      <!-- 0 -->
      <g transform="translate(141.200548 691.411496) scale(0.2 -0.2)">
       <use xlink:href="#CMR17-30" transform="scale(0.996264)"/>
      </g>
     </g>
    </g>
    <g id="xtick_7">
     <g id="text_25">
      <!-- 1 -->
      <g transform="translate(303.209235 691.411496) scale(0.2 -0.2)">
       <use xlink:href="#CMR17-31" transform="scale(0.996264)"/>
      </g>
     </g>
    </g>
    <g id="xtick_8">
     <g id="text_26">
      <!-- 2 -->
      <g transform="translate(465.217922 691.411496) scale(0.2 -0.2)">
       <use xlink:href="#CMR17-32" transform="scale(0.996264)"/>
      </g>
     </g>
    </g>
    <g id="xtick_9">
     <g id="text_27">
      <!-- 3 -->
      <g transform="translate(627.226609 691.411496) scale(0.2 -0.2)">
       <use xlink:href="#CMR17-33" transform="scale(0.996264)"/>
      </g>
     </g>
    </g>
    <g id="text_28">
     <!-- cluster for 4 cluster solution -->
     <g style="fill: #696969" transform="translate(277.319053 713.124126) scale(0.2 -0.2)">
      <defs>
       <path id="CMR17-34" d="M 2150 4122 
C 2150 4256 2144 4256 2029 4256 
L 128 1254 
L 128 1088 
L 1779 1088 
L 1779 457 
C 1779 224 1766 160 1318 160 
L 1197 160 
L 1197 0 
C 1402 0 1747 0 1965 0 
C 2182 0 2528 0 2733 0 
L 2733 160 
L 2611 160 
C 2163 160 2150 224 2150 457 
L 2150 1088 
L 2803 1088 
L 2803 1254 
L 2150 1254 
L 2150 4122 
z
M 1798 3703 
L 1798 1254 
L 256 1254 
L 1798 3703 
z
" transform="scale(0.015625)"/>
      </defs>
      <use xlink:href="#CMR17-63" transform="scale(0.996264)"/>
      <use xlink:href="#CMR17-6c" transform="translate(40.48566 0) scale(0.996264)"/>
      <use xlink:href="#CMR17-75" transform="translate(65.356719 0) scale(0.996264)"/>
      <use xlink:href="#CMR17-73" transform="translate(116.252089 0) scale(0.996264)"/>
      <use xlink:href="#CMR17-74" transform="translate(152.053426 0) scale(0.996264)"/>
      <use xlink:href="#CMR17-65" transform="translate(187.334194 0) scale(0.996264)"/>
      <use xlink:href="#CMR17-72" transform="translate(227.819855 0) scale(0.996264)"/>
      <use xlink:href="#CMR17-66" transform="translate(293.176589 0) scale(0.996264)"/>
      <use xlink:href="#CMR17-6f" transform="translate(320.650101 0) scale(0.996264)"/>
      <use xlink:href="#CMR17-72" transform="translate(366.340578 0) scale(0.996264)"/>
      <use xlink:href="#CMR17-34" transform="translate(431.697312 0) scale(0.996264)"/>
      <use xlink:href="#CMR17-63" transform="translate(507.463756 0) scale(0.996264)"/>
      <use xlink:href="#CMR17-6c" transform="translate(547.949416 0) scale(0.996264)"/>
      <use xlink:href="#CMR17-75" transform="translate(572.820475 0) scale(0.996264)"/>
      <use xlink:href="#CMR17-73" transform="translate(623.715845 0) scale(0.996264)"/>
      <use xlink:href="#CMR17-74" transform="translate(659.517182 0) scale(0.996264)"/>
      <use xlink:href="#CMR17-65" transform="translate(694.79795 0) scale(0.996264)"/>
      <use xlink:href="#CMR17-72" transform="translate(735.283611 0) scale(0.996264)"/>
      <use xlink:href="#CMR17-73" transform="translate(800.640345 0) scale(0.996264)"/>
      <use xlink:href="#CMR17-6f" transform="translate(836.441682 0) scale(0.996264)"/>
      <use xlink:href="#CMR17-6c" transform="translate(882.132159 0) scale(0.996264)"/>
      <use xlink:href="#CMR17-75" transform="translate(907.003218 0) scale(0.996264)"/>
      <use xlink:href="#CMR17-74" transform="translate(957.898588 0) scale(0.996264)"/>
      <use xlink:href="#CMR17-69" transform="translate(993.179355 0) scale(0.996264)"/>
      <use xlink:href="#CMR17-6f" transform="translate(1018.050414 0) scale(0.996264)"/>
      <use xlink:href="#CMR17-6e" transform="translate(1063.740891 0) scale(0.996264)"/>
     </g>
    </g>
   </g>
   <g id="matplotlib.axis_6">
    <g id="ytick_15">
     <g id="line2d_15">
      <path d="M 64.765252 674.074499 
L 712.8 674.074499 
" clip-path="url(#p966413adfa)" style="fill: none; stroke: #cccccc; stroke-width: 0.8; stroke-linecap: round"/>
     </g>
     <g id="text_29">
      <!-- $\mathdefault{0}$ -->
      <g transform="translate(52.127157 680.992998) scale(0.2 -0.2)">
       <use xlink:href="#CMR17-30" transform="scale(0.996264)"/>
      </g>
     </g>
    </g>
    <g id="ytick_16">
     <g id="line2d_16">
      <path d="M 64.765252 623.92355 
L 712.8 623.92355 
" clip-path="url(#p966413adfa)" style="fill: none; stroke: #cccccc; stroke-width: 0.8; stroke-linecap: round"/>
     </g>
     <g id="text_30">
      <!-- $\mathdefault{500}$ -->
      <g transform="translate(33.850966 630.842048) scale(0.2 -0.2)">
       <use xlink:href="#CMR17-35" transform="scale(0.996264)"/>
       <use xlink:href="#CMR17-30" transform="translate(45.690477 0) scale(0.996264)"/>
       <use xlink:href="#CMR17-30" transform="translate(91.380954 0) scale(0.996264)"/>
      </g>
     </g>
    </g>
    <g id="ytick_17">
     <g id="line2d_17">
      <path d="M 64.765252 573.7726 
L 712.8 573.7726 
" clip-path="url(#p966413adfa)" style="fill: none; stroke: #cccccc; stroke-width: 0.8; stroke-linecap: round"/>
     </g>
     <g id="text_31">
      <!-- $\mathdefault{1000}$ -->
      <g transform="translate(24.71287 580.691098) scale(0.2 -0.2)">
       <use xlink:href="#CMR17-31" transform="scale(0.996264)"/>
       <use xlink:href="#CMR17-30" transform="translate(45.690477 0) scale(0.996264)"/>
       <use xlink:href="#CMR17-30" transform="translate(91.380954 0) scale(0.996264)"/>
       <use xlink:href="#CMR17-30" transform="translate(137.071431 0) scale(0.996264)"/>
      </g>
     </g>
    </g>
    <g id="ytick_18">
     <g id="line2d_18">
      <path d="M 64.765252 523.62165 
L 712.8 523.62165 
" clip-path="url(#p966413adfa)" style="fill: none; stroke: #cccccc; stroke-width: 0.8; stroke-linecap: round"/>
     </g>
     <g id="text_32">
      <!-- $\mathdefault{1500}$ -->
      <g transform="translate(24.71287 530.540149) scale(0.2 -0.2)">
       <use xlink:href="#CMR17-31" transform="scale(0.996264)"/>
       <use xlink:href="#CMR17-35" transform="translate(45.690477 0) scale(0.996264)"/>
       <use xlink:href="#CMR17-30" transform="translate(91.380954 0) scale(0.996264)"/>
       <use xlink:href="#CMR17-30" transform="translate(137.071431 0) scale(0.996264)"/>
      </g>
     </g>
    </g>
    <g id="ytick_19">
     <g id="line2d_19">
      <path d="M 64.765252 473.470701 
L 712.8 473.470701 
" clip-path="url(#p966413adfa)" style="fill: none; stroke: #cccccc; stroke-width: 0.8; stroke-linecap: round"/>
     </g>
     <g id="text_33">
      <!-- $\mathdefault{2000}$ -->
      <g transform="translate(24.71287 480.389199) scale(0.2 -0.2)">
       <use xlink:href="#CMR17-32" transform="scale(0.996264)"/>
       <use xlink:href="#CMR17-30" transform="translate(45.690477 0) scale(0.996264)"/>
       <use xlink:href="#CMR17-30" transform="translate(91.380954 0) scale(0.996264)"/>
       <use xlink:href="#CMR17-30" transform="translate(137.071431 0) scale(0.996264)"/>
      </g>
     </g>
    </g>
    <g id="ytick_20">
     <g id="line2d_20">
      <path d="M 64.765252 423.319751 
L 712.8 423.319751 
" clip-path="url(#p966413adfa)" style="fill: none; stroke: #cccccc; stroke-width: 0.8; stroke-linecap: round"/>
     </g>
     <g id="text_34">
      <!-- $\mathdefault{2500}$ -->
      <g transform="translate(24.71287 430.238249) scale(0.2 -0.2)">
       <use xlink:href="#CMR17-32" transform="scale(0.996264)"/>
       <use xlink:href="#CMR17-35" transform="translate(45.690477 0) scale(0.996264)"/>
       <use xlink:href="#CMR17-30" transform="translate(91.380954 0) scale(0.996264)"/>
       <use xlink:href="#CMR17-30" transform="translate(137.071431 0) scale(0.996264)"/>
      </g>
     </g>
    </g>
    <g id="ytick_21">
     <g id="line2d_21">
      <path d="M 64.765252 373.168801 
L 712.8 373.168801 
" clip-path="url(#p966413adfa)" style="fill: none; stroke: #cccccc; stroke-width: 0.8; stroke-linecap: round"/>
     </g>
     <g id="text_35">
      <!-- $\mathdefault{3000}$ -->
      <g transform="translate(24.71287 380.0873) scale(0.2 -0.2)">
       <use xlink:href="#CMR17-33" transform="scale(0.996264)"/>
       <use xlink:href="#CMR17-30" transform="translate(45.690477 0) scale(0.996264)"/>
       <use xlink:href="#CMR17-30" transform="translate(91.380954 0) scale(0.996264)"/>
       <use xlink:href="#CMR17-30" transform="translate(137.071431 0) scale(0.996264)"/>
      </g>
     </g>
    </g>
    <g id="text_36">
     <!-- Number of observations -->
     <g style="fill: #696969" transform="translate(16.837237 613.47083) rotate(-90) scale(0.2 -0.2)">
      <use xlink:href="#CMR17-4e" transform="scale(0.996264)"/>
      <use xlink:href="#CMR17-75" transform="translate(69.07243 0) scale(0.996264)"/>
      <use xlink:href="#CMR17-6d" transform="translate(119.9678 0) scale(0.996264)"/>
      <use xlink:href="#CMR17-62" transform="translate(194.284936 0) scale(0.996264)"/>
      <use xlink:href="#CMR17-65" transform="translate(247.782744 0) scale(0.996264)"/>
      <use xlink:href="#CMR17-72" transform="translate(288.268404 0) scale(0.996264)"/>
      <use xlink:href="#CMR17-6f" transform="translate(353.625139 0) scale(0.996264)"/>
      <use xlink:href="#CMR17-66" transform="translate(399.315616 0) scale(0.996264)"/>
      <use xlink:href="#CMR17-6f" transform="translate(456.865095 0) scale(0.996264)"/>
      <use xlink:href="#CMR17-62" transform="translate(502.555572 0) scale(0.996264)"/>
      <use xlink:href="#CMR17-73" transform="translate(553.450941 0) scale(0.996264)"/>
      <use xlink:href="#CMR17-65" transform="translate(589.252279 0) scale(0.996264)"/>
      <use xlink:href="#CMR17-72" transform="translate(629.73794 0) scale(0.996264)"/>
      <use xlink:href="#CMR17-76" transform="translate(665.018707 0) scale(0.996264)"/>
      <use xlink:href="#CMR17-61" transform="translate(708.106807 0) scale(0.996264)"/>
      <use xlink:href="#CMR17-74" transform="translate(753.797284 0) scale(0.996264)"/>
      <use xlink:href="#CMR17-69" transform="translate(789.078051 0) scale(0.996264)"/>
      <use xlink:href="#CMR17-6f" transform="translate(813.94911 0) scale(0.996264)"/>
      <use xlink:href="#CMR17-6e" transform="translate(859.639587 0) scale(0.996264)"/>
      <use xlink:href="#CMR17-73" transform="translate(910.534957 0) scale(0.996264)"/>
     </g>
    </g>
   </g>
   <g id="patch_14">
    <path d="M 80.966121 674.074499 
L 210.57307 674.074499 
L 210.57307 555.417352 
L 80.966121 555.417352 
z
" clip-path="url(#p966413adfa)" style="fill: #0e6059; stroke: #ffffff; stroke-linejoin: miter"/>
   </g>
   <g id="patch_15">
    <path d="M 242.974808 674.074499 
L 372.581757 674.074499 
L 372.581757 378.3845 
L 242.974808 378.3845 
z
" clip-path="url(#p966413adfa)" style="fill: #0e6059; stroke: #ffffff; stroke-linejoin: miter"/>
   </g>
   <g id="patch_16">
    <path d="M 404.983495 674.074499 
L 534.590444 674.074499 
L 534.590444 673.07148 
L 404.983495 673.07148 
z
" clip-path="url(#p966413adfa)" style="fill: #0e6059; stroke: #ffffff; stroke-linejoin: miter"/>
   </g>
   <g id="patch_17">
    <path d="M 566.992182 674.074499 
L 696.599131 674.074499 
L 696.599131 630.744079 
L 566.992182 630.744079 
z
" clip-path="url(#p966413adfa)" style="fill: #0e6059; stroke: #ffffff; stroke-linejoin: miter"/>
   </g>
   <g id="patch_18">
    <path d="M 64.765252 674.074499 
L 64.765252 363.6 
" style="fill: none; stroke: #808080; stroke-width: 0.8; stroke-linejoin: miter; stroke-linecap: square"/>
   </g>
   <g id="patch_19">
    <path d="M 64.765252 674.074499 
L 712.8 674.074499 
" style="fill: none; stroke: #808080; stroke-width: 0.8; stroke-linejoin: miter; stroke-linecap: square"/>
   </g>
  </g>
  <g id="axes_4">
   <g id="patch_20">
    <path d="M 788.965012 674.074499 
L 1436.99976 674.074499 
L 1436.99976 363.6 
L 788.965012 363.6 
z
" style="fill: #ffffff"/>
   </g>
   <g id="matplotlib.axis_7">
    <g id="xtick_10">
     <g id="text_37">
      <!-- 0 -->
      <g transform="translate(849.199439 691.411496) scale(0.2 -0.2)">
       <use xlink:href="#CMR17-30" transform="scale(0.996264)"/>
      </g>
     </g>
    </g>
    <g id="xtick_11">
     <g id="text_38">
      <!-- 1 -->
      <g transform="translate(978.806389 691.411496) scale(0.2 -0.2)">
       <use xlink:href="#CMR17-31" transform="scale(0.996264)"/>
      </g>
     </g>
    </g>
    <g id="xtick_12">
     <g id="text_39">
      <!-- 2 -->
      <g transform="translate(1108.413338 691.411496) scale(0.2 -0.2)">
       <use xlink:href="#CMR17-32" transform="scale(0.996264)"/>
      </g>
     </g>
    </g>
    <g id="xtick_13">
     <g id="text_40">
      <!-- 3 -->
      <g transform="translate(1238.020288 691.411496) scale(0.2 -0.2)">
       <use xlink:href="#CMR17-33" transform="scale(0.996264)"/>
      </g>
     </g>
    </g>
    <g id="xtick_14">
     <g id="text_41">
      <!-- 4 -->
      <g transform="translate(1367.627237 691.411496) scale(0.2 -0.2)">
       <use xlink:href="#CMR17-34" transform="scale(0.996264)"/>
      </g>
     </g>
    </g>
    <g id="text_42">
     <!-- cluster for 5 cluster solution -->
     <g style="fill: #696969" transform="translate(1001.518813 713.124126) scale(0.2 -0.2)">
      <use xlink:href="#CMR17-63" transform="scale(0.996264)"/>
      <use xlink:href="#CMR17-6c" transform="translate(40.48566 0) scale(0.996264)"/>
      <use xlink:href="#CMR17-75" transform="translate(65.356719 0) scale(0.996264)"/>
      <use xlink:href="#CMR17-73" transform="translate(116.252089 0) scale(0.996264)"/>
      <use xlink:href="#CMR17-74" transform="translate(152.053426 0) scale(0.996264)"/>
      <use xlink:href="#CMR17-65" transform="translate(187.334194 0) scale(0.996264)"/>
      <use xlink:href="#CMR17-72" transform="translate(227.819855 0) scale(0.996264)"/>
      <use xlink:href="#CMR17-66" transform="translate(293.176589 0) scale(0.996264)"/>
      <use xlink:href="#CMR17-6f" transform="translate(320.650101 0) scale(0.996264)"/>
      <use xlink:href="#CMR17-72" transform="translate(366.340578 0) scale(0.996264)"/>
      <use xlink:href="#CMR17-35" transform="translate(431.697312 0) scale(0.996264)"/>
      <use xlink:href="#CMR17-63" transform="translate(507.463756 0) scale(0.996264)"/>
      <use xlink:href="#CMR17-6c" transform="translate(547.949416 0) scale(0.996264)"/>
      <use xlink:href="#CMR17-75" transform="translate(572.820475 0) scale(0.996264)"/>
      <use xlink:href="#CMR17-73" transform="translate(623.715845 0) scale(0.996264)"/>
      <use xlink:href="#CMR17-74" transform="translate(659.517182 0) scale(0.996264)"/>
      <use xlink:href="#CMR17-65" transform="translate(694.79795 0) scale(0.996264)"/>
      <use xlink:href="#CMR17-72" transform="translate(735.283611 0) scale(0.996264)"/>
      <use xlink:href="#CMR17-73" transform="translate(800.640345 0) scale(0.996264)"/>
      <use xlink:href="#CMR17-6f" transform="translate(836.441682 0) scale(0.996264)"/>
      <use xlink:href="#CMR17-6c" transform="translate(882.132159 0) scale(0.996264)"/>
      <use xlink:href="#CMR17-75" transform="translate(907.003218 0) scale(0.996264)"/>
      <use xlink:href="#CMR17-74" transform="translate(957.898588 0) scale(0.996264)"/>
      <use xlink:href="#CMR17-69" transform="translate(993.179355 0) scale(0.996264)"/>
      <use xlink:href="#CMR17-6f" transform="translate(1018.050414 0) scale(0.996264)"/>
      <use xlink:href="#CMR17-6e" transform="translate(1063.740891 0) scale(0.996264)"/>
     </g>
    </g>
   </g>
   <g id="matplotlib.axis_8">
    <g id="ytick_22">
     <g id="line2d_22">
      <path d="M 788.965012 674.074499 
L 1436.99976 674.074499 
" clip-path="url(#p54168e5c7e)" style="fill: none; stroke: #cccccc; stroke-width: 0.8; stroke-linecap: round"/>
     </g>
     <g id="text_43">
      <!-- $\mathdefault{0}$ -->
      <g transform="translate(776.326917 680.992998) scale(0.2 -0.2)">
       <use xlink:href="#CMR17-30" transform="scale(0.996264)"/>
      </g>
     </g>
    </g>
    <g id="ytick_23">
     <g id="line2d_23">
      <path d="M 788.965012 623.92355 
L 1436.99976 623.92355 
" clip-path="url(#p54168e5c7e)" style="fill: none; stroke: #cccccc; stroke-width: 0.8; stroke-linecap: round"/>
     </g>
     <g id="text_44">
      <!-- $\mathdefault{500}$ -->
      <g transform="translate(758.050726 630.842048) scale(0.2 -0.2)">
       <use xlink:href="#CMR17-35" transform="scale(0.996264)"/>
       <use xlink:href="#CMR17-30" transform="translate(45.690477 0) scale(0.996264)"/>
       <use xlink:href="#CMR17-30" transform="translate(91.380954 0) scale(0.996264)"/>
      </g>
     </g>
    </g>
    <g id="ytick_24">
     <g id="line2d_24">
      <path d="M 788.965012 573.7726 
L 1436.99976 573.7726 
" clip-path="url(#p54168e5c7e)" style="fill: none; stroke: #cccccc; stroke-width: 0.8; stroke-linecap: round"/>
     </g>
     <g id="text_45">
      <!-- $\mathdefault{1000}$ -->
      <g transform="translate(748.91263 580.691098) scale(0.2 -0.2)">
       <use xlink:href="#CMR17-31" transform="scale(0.996264)"/>
       <use xlink:href="#CMR17-30" transform="translate(45.690477 0) scale(0.996264)"/>
       <use xlink:href="#CMR17-30" transform="translate(91.380954 0) scale(0.996264)"/>
       <use xlink:href="#CMR17-30" transform="translate(137.071431 0) scale(0.996264)"/>
      </g>
     </g>
    </g>
    <g id="ytick_25">
     <g id="line2d_25">
      <path d="M 788.965012 523.62165 
L 1436.99976 523.62165 
" clip-path="url(#p54168e5c7e)" style="fill: none; stroke: #cccccc; stroke-width: 0.8; stroke-linecap: round"/>
     </g>
     <g id="text_46">
      <!-- $\mathdefault{1500}$ -->
      <g transform="translate(748.91263 530.540149) scale(0.2 -0.2)">
       <use xlink:href="#CMR17-31" transform="scale(0.996264)"/>
       <use xlink:href="#CMR17-35" transform="translate(45.690477 0) scale(0.996264)"/>
       <use xlink:href="#CMR17-30" transform="translate(91.380954 0) scale(0.996264)"/>
       <use xlink:href="#CMR17-30" transform="translate(137.071431 0) scale(0.996264)"/>
      </g>
     </g>
    </g>
    <g id="ytick_26">
     <g id="line2d_26">
      <path d="M 788.965012 473.470701 
L 1436.99976 473.470701 
" clip-path="url(#p54168e5c7e)" style="fill: none; stroke: #cccccc; stroke-width: 0.8; stroke-linecap: round"/>
     </g>
     <g id="text_47">
      <!-- $\mathdefault{2000}$ -->
      <g transform="translate(748.91263 480.389199) scale(0.2 -0.2)">
       <use xlink:href="#CMR17-32" transform="scale(0.996264)"/>
       <use xlink:href="#CMR17-30" transform="translate(45.690477 0) scale(0.996264)"/>
       <use xlink:href="#CMR17-30" transform="translate(91.380954 0) scale(0.996264)"/>
       <use xlink:href="#CMR17-30" transform="translate(137.071431 0) scale(0.996264)"/>
      </g>
     </g>
    </g>
    <g id="ytick_27">
     <g id="line2d_27">
      <path d="M 788.965012 423.319751 
L 1436.99976 423.319751 
" clip-path="url(#p54168e5c7e)" style="fill: none; stroke: #cccccc; stroke-width: 0.8; stroke-linecap: round"/>
     </g>
     <g id="text_48">
      <!-- $\mathdefault{2500}$ -->
      <g transform="translate(748.91263 430.238249) scale(0.2 -0.2)">
       <use xlink:href="#CMR17-32" transform="scale(0.996264)"/>
       <use xlink:href="#CMR17-35" transform="translate(45.690477 0) scale(0.996264)"/>
       <use xlink:href="#CMR17-30" transform="translate(91.380954 0) scale(0.996264)"/>
       <use xlink:href="#CMR17-30" transform="translate(137.071431 0) scale(0.996264)"/>
      </g>
     </g>
    </g>
    <g id="ytick_28">
     <g id="line2d_28">
      <path d="M 788.965012 373.168801 
L 1436.99976 373.168801 
" clip-path="url(#p54168e5c7e)" style="fill: none; stroke: #cccccc; stroke-width: 0.8; stroke-linecap: round"/>
     </g>
     <g id="text_49">
      <!-- $\mathdefault{3000}$ -->
      <g transform="translate(748.91263 380.0873) scale(0.2 -0.2)">
       <use xlink:href="#CMR17-33" transform="scale(0.996264)"/>
       <use xlink:href="#CMR17-30" transform="translate(45.690477 0) scale(0.996264)"/>
       <use xlink:href="#CMR17-30" transform="translate(91.380954 0) scale(0.996264)"/>
       <use xlink:href="#CMR17-30" transform="translate(137.071431 0) scale(0.996264)"/>
      </g>
     </g>
    </g>
    <g id="text_50">
     <!-- Number of observations -->
     <g style="fill: #696969" transform="translate(741.036997 613.47083) rotate(-90) scale(0.2 -0.2)">
      <use xlink:href="#CMR17-4e" transform="scale(0.996264)"/>
      <use xlink:href="#CMR17-75" transform="translate(69.07243 0) scale(0.996264)"/>
      <use xlink:href="#CMR17-6d" transform="translate(119.9678 0) scale(0.996264)"/>
      <use xlink:href="#CMR17-62" transform="translate(194.284936 0) scale(0.996264)"/>
      <use xlink:href="#CMR17-65" transform="translate(247.782744 0) scale(0.996264)"/>
      <use xlink:href="#CMR17-72" transform="translate(288.268404 0) scale(0.996264)"/>
      <use xlink:href="#CMR17-6f" transform="translate(353.625139 0) scale(0.996264)"/>
      <use xlink:href="#CMR17-66" transform="translate(399.315616 0) scale(0.996264)"/>
      <use xlink:href="#CMR17-6f" transform="translate(456.865095 0) scale(0.996264)"/>
      <use xlink:href="#CMR17-62" transform="translate(502.555572 0) scale(0.996264)"/>
      <use xlink:href="#CMR17-73" transform="translate(553.450941 0) scale(0.996264)"/>
      <use xlink:href="#CMR17-65" transform="translate(589.252279 0) scale(0.996264)"/>
      <use xlink:href="#CMR17-72" transform="translate(629.73794 0) scale(0.996264)"/>
      <use xlink:href="#CMR17-76" transform="translate(665.018707 0) scale(0.996264)"/>
      <use xlink:href="#CMR17-61" transform="translate(708.106807 0) scale(0.996264)"/>
      <use xlink:href="#CMR17-74" transform="translate(753.797284 0) scale(0.996264)"/>
      <use xlink:href="#CMR17-69" transform="translate(789.078051 0) scale(0.996264)"/>
      <use xlink:href="#CMR17-6f" transform="translate(813.94911 0) scale(0.996264)"/>
      <use xlink:href="#CMR17-6e" transform="translate(859.639587 0) scale(0.996264)"/>
      <use xlink:href="#CMR17-73" transform="translate(910.534957 0) scale(0.996264)"/>
     </g>
    </g>
   </g>
   <g id="patch_21">
    <path d="M 801.925707 674.074499 
L 905.611267 674.074499 
L 905.611267 561.034259 
L 801.925707 561.034259 
z
" clip-path="url(#p54168e5c7e)" style="fill: #0e6059; stroke: #ffffff; stroke-linejoin: miter"/>
   </g>
   <g id="patch_22">
    <path d="M 931.532657 674.074499 
L 1035.218216 674.074499 
L 1035.218216 378.3845 
L 931.532657 378.3845 
z
" clip-path="url(#p54168e5c7e)" style="fill: #0e6059; stroke: #ffffff; stroke-linejoin: miter"/>
   </g>
   <g id="patch_23">
    <path d="M 1061.139606 674.074499 
L 1164.825166 674.074499 
L 1164.825166 673.07148 
L 1061.139606 673.07148 
z
" clip-path="url(#p54168e5c7e)" style="fill: #0e6059; stroke: #ffffff; stroke-linejoin: miter"/>
   </g>
   <g id="patch_24">
    <path d="M 1190.746556 674.074499 
L 1294.432115 674.074499 
L 1294.432115 630.744079 
L 1190.746556 630.744079 
z
" clip-path="url(#p54168e5c7e)" style="fill: #0e6059; stroke: #ffffff; stroke-linejoin: miter"/>
   </g>
   <g id="patch_25">
    <path d="M 1320.353505 674.074499 
L 1424.039065 674.074499 
L 1424.039065 668.457593 
L 1320.353505 668.457593 
z
" clip-path="url(#p54168e5c7e)" style="fill: #0e6059; stroke: #ffffff; stroke-linejoin: miter"/>
   </g>
   <g id="patch_26">
    <path d="M 788.965012 674.074499 
L 788.965012 363.6 
" style="fill: none; stroke: #808080; stroke-width: 0.8; stroke-linejoin: miter; stroke-linecap: square"/>
   </g>
   <g id="patch_27">
    <path d="M 788.965012 674.074499 
L 1436.99976 674.074499 
" style="fill: none; stroke: #808080; stroke-width: 0.8; stroke-linejoin: miter; stroke-linecap: square"/>
   </g>
  </g>
 </g>
 <defs>
  <clipPath id="pc1be6c492e">
   <rect x="64.765252" y="3.00024" width="648.034748" height="310.474499"/>
  </clipPath>
  <clipPath id="pe1e5d8e713">
   <rect x="788.965012" y="3.00024" width="648.034748" height="310.474499"/>
  </clipPath>
  <clipPath id="p966413adfa">
   <rect x="64.765252" y="363.6" width="648.034748" height="310.474499"/>
  </clipPath>
  <clipPath id="p54168e5c7e">
   <rect x="788.965012" y="363.6" width="648.034748" height="310.474499"/>
  </clipPath>
 </defs>
</svg>
