<?xml version="1.0" encoding="utf-8" standalone="no"?>
<!DOCTYPE svg PUBLIC "-//W3C//DTD SVG 1.1//EN"
  "http://www.w3.org/Graphics/SVG/1.1/DTD/svg11.dtd">
<svg xmlns:xlink="http://www.w3.org/1999/xlink" width="1440pt" height="720pt" viewBox="0 0 1440 720" xmlns="http://www.w3.org/2000/svg" version="1.1">
 <metadata>
  <rdf:RDF xmlns:dc="http://purl.org/dc/elements/1.1/" xmlns:cc="http://creativecommons.org/ns#" xmlns:rdf="http://www.w3.org/1999/02/22-rdf-syntax-ns#">
   <cc:Work>
    <dc:type rdf:resource="http://purl.org/dc/dcmitype/StillImage"/>
    <dc:date>2023-11-21T15:13:12.823017</dc:date>
    <dc:format>image/svg+xml</dc:format>
    <dc:creator>
     <cc:Agent>
      <dc:title>Matplotlib v3.6.3, https://matplotlib.org/</dc:title>
     </cc:Agent>
    </dc:creator>
   </cc:Work>
  </rdf:RDF>
 </metadata>
 <defs>
  <style type="text/css">*{stroke-linejoin: round; stroke-linecap: butt}</style>
 </defs>
 <g id="figure_1">
  <g id="patch_1">
   <path d="M 0 720 
L 1440 720 
L 1440 0 
L 0 0 
z
" style="fill: #ffffff"/>
  </g>
  <g id="axes_1">
   <g id="patch_2">
    <path d="M 432.005331 588.917225 
L 1007.994669 588.917225 
L 1007.994669 25.604645 
L 432.005331 25.604645 
z
" style="fill: #ffffff"/>
   </g>
   <g id="matplotlib.axis_1">
    <g id="xtick_1">
     <g id="line2d_1">
      <path d="M 458.186665 588.917225 
L 458.186665 25.604645 
" clip-path="url(#pd05e55001b)" style="fill: none; stroke: #cccccc; stroke-opacity: 0.5; stroke-width: 0.8; stroke-linecap: round"/>
     </g>
     <g id="text_1">
      <!-- $\mathdefault{2015}$ -->
      <g transform="translate(439.910474 606.254222) scale(0.2 -0.2)">
       <defs>
        <path id="CMR17-32" d="M 2669 989 
L 2554 989 
C 2490 536 2438 459 2413 420 
C 2381 369 1920 369 1830 369 
L 602 369 
C 832 619 1280 1072 1824 1597 
C 2214 1967 2669 2402 2669 3035 
C 2669 3790 2067 4224 1395 4224 
C 691 4224 262 3604 262 3030 
C 262 2780 448 2748 525 2748 
C 589 2748 781 2787 781 3010 
C 781 3207 614 3264 525 3264 
C 486 3264 448 3258 422 3245 
C 544 3790 915 4058 1306 4058 
C 1862 4058 2227 3617 2227 3035 
C 2227 2479 1901 2000 1536 1584 
L 262 146 
L 262 0 
L 2515 0 
L 2669 989 
z
" transform="scale(0.015625)"/>
        <path id="CMR17-30" d="M 2688 2025 
C 2688 2416 2682 3080 2413 3591 
C 2176 4039 1798 4198 1466 4198 
C 1158 4198 768 4058 525 3597 
C 269 3118 243 2524 243 2025 
C 243 1661 250 1106 448 619 
C 723 -39 1216 -128 1466 -128 
C 1760 -128 2208 -7 2470 600 
C 2662 1042 2688 1559 2688 2025 
z
M 1466 -26 
C 1056 -26 813 325 723 812 
C 653 1188 653 1738 653 2096 
C 653 2588 653 2997 736 3387 
C 858 3929 1216 4096 1466 4096 
C 1728 4096 2067 3923 2189 3400 
C 2272 3036 2278 2607 2278 2096 
C 2278 1680 2278 1169 2202 792 
C 2067 95 1690 -26 1466 -26 
z
" transform="scale(0.015625)"/>
        <path id="CMR17-31" d="M 1702 4058 
C 1702 4192 1696 4192 1606 4192 
C 1357 3916 979 3827 621 3827 
C 602 3827 570 3827 563 3808 
C 557 3795 557 3782 557 3648 
C 755 3648 1088 3686 1344 3839 
L 1344 461 
C 1344 236 1331 160 781 160 
L 589 160 
L 589 0 
C 896 0 1216 0 1523 0 
C 1830 0 2150 0 2458 0 
L 2458 160 
L 2266 160 
C 1715 160 1702 230 1702 458 
L 1702 4058 
z
" transform="scale(0.015625)"/>
        <path id="CMR17-35" d="M 730 3692 
C 794 3666 1056 3584 1325 3584 
C 1920 3584 2246 3911 2432 4100 
C 2432 4157 2432 4192 2394 4192 
C 2387 4192 2374 4192 2323 4163 
C 2099 4058 1837 3973 1517 3973 
C 1325 3973 1037 3999 723 4139 
C 653 4171 640 4171 634 4171 
C 602 4171 595 4164 595 4037 
L 595 2203 
C 595 2089 595 2057 659 2057 
C 691 2057 704 2070 736 2114 
C 941 2401 1222 2522 1542 2522 
C 1766 2522 2246 2382 2246 1289 
C 2246 1085 2246 715 2054 421 
C 1894 159 1645 25 1370 25 
C 947 25 518 320 403 814 
C 429 807 480 795 506 795 
C 589 795 749 840 749 1038 
C 749 1210 627 1280 506 1280 
C 358 1280 262 1190 262 1011 
C 262 454 704 -128 1382 -128 
C 2042 -128 2669 440 2669 1264 
C 2669 2030 2170 2624 1549 2624 
C 1222 2624 947 2503 730 2274 
L 730 3692 
z
" transform="scale(0.015625)"/>
       </defs>
       <use xlink:href="#CMR17-32" transform="scale(0.996264)"/>
       <use xlink:href="#CMR17-30" transform="translate(45.690477 0) scale(0.996264)"/>
       <use xlink:href="#CMR17-31" transform="translate(91.380954 0) scale(0.996264)"/>
       <use xlink:href="#CMR17-35" transform="translate(137.071431 0) scale(0.996264)"/>
      </g>
     </g>
    </g>
    <g id="xtick_2">
     <g id="line2d_2">
      <path d="M 517.431468 588.917225 
L 517.431468 25.604645 
" clip-path="url(#pd05e55001b)" style="fill: none; stroke: #cccccc; stroke-opacity: 0.5; stroke-width: 0.8; stroke-linecap: round"/>
     </g>
     <g id="text_2">
      <!-- $\mathdefault{2016}$ -->
      <g transform="translate(499.155277 606.254222) scale(0.2 -0.2)">
       <defs>
        <path id="CMR17-36" d="M 678 2176 
C 678 3690 1395 4032 1811 4032 
C 1946 4032 2272 4009 2400 3776 
C 2298 3776 2106 3776 2106 3553 
C 2106 3381 2246 3323 2336 3323 
C 2394 3323 2566 3348 2566 3560 
C 2566 3954 2246 4179 1805 4179 
C 1043 4179 243 3390 243 1984 
C 243 253 966 -128 1478 -128 
C 2099 -128 2688 427 2688 1283 
C 2688 2081 2170 2662 1517 2662 
C 1126 2662 838 2407 678 1960 
L 678 2176 
z
M 1478 25 
C 691 25 691 1200 691 1436 
C 691 1896 909 2560 1504 2560 
C 1613 2560 1926 2560 2138 2120 
C 2253 1870 2253 1609 2253 1289 
C 2253 944 2253 690 2118 434 
C 1978 171 1773 25 1478 25 
z
" transform="scale(0.015625)"/>
       </defs>
       <use xlink:href="#CMR17-32" transform="scale(0.996264)"/>
       <use xlink:href="#CMR17-30" transform="translate(45.690477 0) scale(0.996264)"/>
       <use xlink:href="#CMR17-31" transform="translate(91.380954 0) scale(0.996264)"/>
       <use xlink:href="#CMR17-36" transform="translate(137.071431 0) scale(0.996264)"/>
      </g>
     </g>
    </g>
    <g id="xtick_3">
     <g id="line2d_3">
      <path d="M 576.838585 588.917225 
L 576.838585 25.604645 
" clip-path="url(#pd05e55001b)" style="fill: none; stroke: #cccccc; stroke-opacity: 0.5; stroke-width: 0.8; stroke-linecap: round"/>
     </g>
     <g id="text_3">
      <!-- $\mathdefault{2017}$ -->
      <g transform="translate(558.562395 606.254222) scale(0.2 -0.2)">
       <defs>
        <path id="CMR17-37" d="M 2886 3941 
L 2886 4081 
L 1382 4081 
C 634 4081 621 4165 595 4288 
L 480 4288 
L 294 3094 
L 410 3094 
C 429 3215 474 3540 550 3661 
C 589 3712 1062 3712 1171 3712 
L 2579 3712 
L 1869 2661 
C 1395 1954 1069 999 1069 165 
C 1069 89 1069 -128 1299 -128 
C 1530 -128 1530 89 1530 171 
L 1530 465 
C 1530 1508 1709 2196 2003 2636 
L 2886 3941 
z
" transform="scale(0.015625)"/>
       </defs>
       <use xlink:href="#CMR17-32" transform="scale(0.996264)"/>
       <use xlink:href="#CMR17-30" transform="translate(45.690477 0) scale(0.996264)"/>
       <use xlink:href="#CMR17-31" transform="translate(91.380954 0) scale(0.996264)"/>
       <use xlink:href="#CMR17-37" transform="translate(137.071431 0) scale(0.996264)"/>
      </g>
     </g>
    </g>
    <g id="xtick_4">
     <g id="line2d_4">
      <path d="M 636.083388 588.917225 
L 636.083388 25.604645 
" clip-path="url(#pd05e55001b)" style="fill: none; stroke: #cccccc; stroke-opacity: 0.5; stroke-width: 0.8; stroke-linecap: round"/>
     </g>
     <g id="text_4">
      <!-- $\mathdefault{2018}$ -->
      <g transform="translate(617.807198 606.254222) scale(0.2 -0.2)">
       <defs>
        <path id="CMR17-38" d="M 1741 2264 
C 2144 2467 2554 2773 2554 3263 
C 2554 3841 1990 4179 1472 4179 
C 890 4179 378 3759 378 3180 
C 378 3021 416 2747 666 2505 
C 730 2442 998 2251 1171 2130 
C 883 1983 211 1634 211 934 
C 211 279 838 -128 1459 -128 
C 2144 -128 2720 362 2720 1010 
C 2720 1590 2330 1857 2074 2029 
L 1741 2264 
z
M 902 2822 
C 851 2854 595 3051 595 3351 
C 595 3739 998 4032 1459 4032 
C 1965 4032 2336 3676 2336 3262 
C 2336 2669 1670 2331 1638 2331 
C 1632 2331 1626 2331 1574 2370 
L 902 2822 
z
M 2080 1519 
C 2176 1449 2483 1240 2483 851 
C 2483 381 2010 25 1472 25 
C 890 25 448 438 448 940 
C 448 1443 838 1862 1280 2060 
L 2080 1519 
z
" transform="scale(0.015625)"/>
       </defs>
       <use xlink:href="#CMR17-32" transform="scale(0.996264)"/>
       <use xlink:href="#CMR17-30" transform="translate(45.690477 0) scale(0.996264)"/>
       <use xlink:href="#CMR17-31" transform="translate(91.380954 0) scale(0.996264)"/>
       <use xlink:href="#CMR17-38" transform="translate(137.071431 0) scale(0.996264)"/>
      </g>
     </g>
    </g>
    <g id="xtick_5">
     <g id="line2d_5">
      <path d="M 695.328192 588.917225 
L 695.328192 25.604645 
" clip-path="url(#pd05e55001b)" style="fill: none; stroke: #cccccc; stroke-opacity: 0.5; stroke-width: 0.8; stroke-linecap: round"/>
     </g>
     <g id="text_5">
      <!-- $\mathdefault{2019}$ -->
      <g transform="translate(677.052001 606.254222) scale(0.2 -0.2)">
       <defs>
        <path id="CMR17-39" d="M 2253 1864 
C 2253 464 1670 31 1190 31 
C 1043 31 685 31 538 294 
C 704 268 826 357 826 518 
C 826 692 685 749 595 749 
C 538 749 365 723 365 506 
C 365 71 742 -128 1203 -128 
C 1939 -128 2688 674 2688 2073 
C 2688 3817 1971 4179 1485 4179 
C 851 4179 243 3628 243 2778 
C 243 1991 762 1408 1414 1408 
C 1952 1408 2189 1903 2253 2112 
L 2253 1864 
z
M 1427 1510 
C 1254 1510 1011 1542 813 1922 
C 678 2169 678 2461 678 2771 
C 678 3146 678 3405 858 3684 
C 947 3817 1114 4032 1485 4032 
C 2240 4032 2240 2885 2240 2632 
C 2240 2182 2035 1510 1427 1510 
z
" transform="scale(0.015625)"/>
       </defs>
       <use xlink:href="#CMR17-32" transform="scale(0.996264)"/>
       <use xlink:href="#CMR17-30" transform="translate(45.690477 0) scale(0.996264)"/>
       <use xlink:href="#CMR17-31" transform="translate(91.380954 0) scale(0.996264)"/>
       <use xlink:href="#CMR17-39" transform="translate(137.071431 0) scale(0.996264)"/>
      </g>
     </g>
    </g>
    <g id="xtick_6">
     <g id="line2d_6">
      <path d="M 754.572995 588.917225 
L 754.572995 25.604645 
" clip-path="url(#pd05e55001b)" style="fill: none; stroke: #cccccc; stroke-opacity: 0.5; stroke-width: 0.8; stroke-linecap: round"/>
     </g>
     <g id="text_6">
      <!-- $\mathdefault{2020}$ -->
      <g transform="translate(736.296804 606.254222) scale(0.2 -0.2)">
       <use xlink:href="#CMR17-32" transform="scale(0.996264)"/>
       <use xlink:href="#CMR17-30" transform="translate(45.690477 0) scale(0.996264)"/>
       <use xlink:href="#CMR17-32" transform="translate(91.380954 0) scale(0.996264)"/>
       <use xlink:href="#CMR17-30" transform="translate(137.071431 0) scale(0.996264)"/>
      </g>
     </g>
    </g>
    <g id="xtick_7">
     <g id="line2d_7">
      <path d="M 813.980112 588.917225 
L 813.980112 25.604645 
" clip-path="url(#pd05e55001b)" style="fill: none; stroke: #cccccc; stroke-opacity: 0.5; stroke-width: 0.8; stroke-linecap: round"/>
     </g>
     <g id="text_7">
      <!-- $\mathdefault{2021}$ -->
      <g transform="translate(795.703921 606.254222) scale(0.2 -0.2)">
       <use xlink:href="#CMR17-32" transform="scale(0.996264)"/>
       <use xlink:href="#CMR17-30" transform="translate(45.690477 0) scale(0.996264)"/>
       <use xlink:href="#CMR17-32" transform="translate(91.380954 0) scale(0.996264)"/>
       <use xlink:href="#CMR17-31" transform="translate(137.071431 0) scale(0.996264)"/>
      </g>
     </g>
    </g>
    <g id="xtick_8">
     <g id="line2d_8">
      <path d="M 873.224915 588.917225 
L 873.224915 25.604645 
" clip-path="url(#pd05e55001b)" style="fill: none; stroke: #cccccc; stroke-opacity: 0.5; stroke-width: 0.8; stroke-linecap: round"/>
     </g>
     <g id="text_8">
      <!-- $\mathdefault{2022}$ -->
      <g transform="translate(854.948725 606.254222) scale(0.2 -0.2)">
       <use xlink:href="#CMR17-32" transform="scale(0.996264)"/>
       <use xlink:href="#CMR17-30" transform="translate(45.690477 0) scale(0.996264)"/>
       <use xlink:href="#CMR17-32" transform="translate(91.380954 0) scale(0.996264)"/>
       <use xlink:href="#CMR17-32" transform="translate(137.071431 0) scale(0.996264)"/>
      </g>
     </g>
    </g>
    <g id="xtick_9">
     <g id="line2d_9">
      <path d="M 932.469719 588.917225 
L 932.469719 25.604645 
" clip-path="url(#pd05e55001b)" style="fill: none; stroke: #cccccc; stroke-opacity: 0.5; stroke-width: 0.8; stroke-linecap: round"/>
     </g>
     <g id="text_9">
      <!-- $\mathdefault{2023}$ -->
      <g transform="translate(914.193528 606.254222) scale(0.2 -0.2)">
       <defs>
        <path id="CMR17-33" d="M 1414 2157 
C 1984 2157 2234 1662 2234 1090 
C 2234 320 1824 25 1453 25 
C 1114 25 563 194 390 693 
C 422 680 454 680 486 680 
C 640 680 755 782 755 948 
C 755 1133 614 1216 486 1216 
C 378 1216 211 1165 211 926 
C 211 335 787 -128 1466 -128 
C 2176 -128 2720 430 2720 1085 
C 2720 1707 2208 2157 1600 2227 
C 2086 2328 2554 2756 2554 3329 
C 2554 3820 2048 4179 1472 4179 
C 890 4179 378 3829 378 3329 
C 378 3110 544 3072 627 3072 
C 762 3072 877 3155 877 3321 
C 877 3486 762 3569 627 3569 
C 602 3569 570 3569 544 3557 
C 730 3959 1235 4032 1459 4032 
C 1683 4032 2106 3925 2106 3320 
C 2106 3143 2080 2828 1862 2550 
C 1670 2304 1453 2304 1242 2284 
C 1210 2284 1062 2269 1037 2269 
C 992 2263 966 2257 966 2208 
C 966 2163 973 2157 1101 2157 
L 1414 2157 
z
" transform="scale(0.015625)"/>
       </defs>
       <use xlink:href="#CMR17-32" transform="scale(0.996264)"/>
       <use xlink:href="#CMR17-30" transform="translate(45.690477 0) scale(0.996264)"/>
       <use xlink:href="#CMR17-32" transform="translate(91.380954 0) scale(0.996264)"/>
       <use xlink:href="#CMR17-33" transform="translate(137.071431 0) scale(0.996264)"/>
      </g>
     </g>
    </g>
    <g id="xtick_10">
     <g id="line2d_10">
      <path d="M 991.714522 588.917225 
L 991.714522 25.604645 
" clip-path="url(#pd05e55001b)" style="fill: none; stroke: #cccccc; stroke-opacity: 0.5; stroke-width: 0.8; stroke-linecap: round"/>
     </g>
     <g id="text_10">
      <!-- $\mathdefault{2024}$ -->
      <g transform="translate(973.438331 606.254222) scale(0.2 -0.2)">
       <defs>
        <path id="CMR17-34" d="M 2150 4122 
C 2150 4256 2144 4256 2029 4256 
L 128 1254 
L 128 1088 
L 1779 1088 
L 1779 457 
C 1779 224 1766 160 1318 160 
L 1197 160 
L 1197 0 
C 1402 0 1747 0 1965 0 
C 2182 0 2528 0 2733 0 
L 2733 160 
L 2611 160 
C 2163 160 2150 224 2150 457 
L 2150 1088 
L 2803 1088 
L 2803 1254 
L 2150 1254 
L 2150 4122 
z
M 1798 3703 
L 1798 1254 
L 256 1254 
L 1798 3703 
z
" transform="scale(0.015625)"/>
       </defs>
       <use xlink:href="#CMR17-32" transform="scale(0.996264)"/>
       <use xlink:href="#CMR17-30" transform="translate(45.690477 0) scale(0.996264)"/>
       <use xlink:href="#CMR17-32" transform="translate(91.380954 0) scale(0.996264)"/>
       <use xlink:href="#CMR17-34" transform="translate(137.071431 0) scale(0.996264)"/>
      </g>
     </g>
    </g>
    <g id="text_11">
     <!-- Date -->
     <g style="fill: #696969" transform="translate(700.814963 627.966852) scale(0.2 -0.2)">
      <defs>
       <path id="CMR17-44" d="M 333 4352 
L 333 4186 
C 774 4186 845 4186 845 3900 
L 845 452 
C 845 166 774 166 333 166 
L 333 0 
L 2368 0 
C 3398 0 4224 943 4224 2141 
C 4224 3346 3411 4352 2368 4352 
L 333 4352 
z
M 1523 166 
C 1267 166 1254 197 1254 414 
L 1254 3938 
C 1254 4155 1267 4186 1523 4186 
L 2240 4186 
C 2771 4186 3750 3874 3750 2141 
C 3750 1242 3488 879 3366 707 
C 3213 510 2848 166 2240 166 
L 1523 166 
z
" transform="scale(0.015625)"/>
       <path id="CMR17-61" d="M 2304 1653 
C 2304 2072 2304 2294 2035 2543 
C 1798 2752 1523 2816 1306 2816 
C 800 2816 435 2407 435 1971 
C 435 1728 627 1728 666 1728 
C 749 1728 896 1778 896 1954 
C 896 2112 774 2181 666 2181 
C 640 2181 608 2174 589 2168 
C 723 2592 1069 2714 1293 2714 
C 1613 2714 1965 2429 1965 1885 
L 1965 1600 
C 1587 1600 1133 1549 774 1357 
C 371 1133 256 813 256 570 
C 256 77 832 -64 1171 -64 
C 1523 -64 1850 139 1990 511 
C 2003 233 2182 -18 2464 -18 
C 2598 -18 2938 70 2938 567 
L 2938 920 
L 2822 920 
L 2822 562 
C 2822 178 2650 128 2566 128 
C 2304 128 2304 458 2304 738 
L 2304 1653 
z
M 1965 870 
C 1965 317 1568 38 1216 38 
C 896 38 646 275 646 570 
C 646 761 730 1100 1101 1305 
C 1408 1478 1760 1504 1965 1504 
L 1965 870 
z
" transform="scale(0.015625)"/>
       <path id="CMR17-74" d="M 966 2560 
L 1862 2560 
L 1862 2725 
L 966 2725 
L 966 3904 
L 851 3904 
C 838 3245 614 2668 70 2668 
L 70 2560 
L 627 2560 
L 627 771 
C 627 650 627 -64 1370 -64 
C 1747 -64 1965 306 1965 777 
L 1965 1140 
L 1850 1140 
L 1850 783 
C 1850 344 1677 51 1408 51 
C 1222 51 966 178 966 758 
L 966 2560 
z
" transform="scale(0.015625)"/>
       <path id="CMR17-65" d="M 2438 1472 
C 2464 1498 2464 1511 2464 1576 
C 2464 2238 2118 2816 1389 2816 
C 710 2816 173 2169 173 1383 
C 173 551 781 -64 1459 -64 
C 2176 -64 2458 607 2458 740 
C 2458 784 2419 784 2406 784 
C 2362 784 2355 771 2330 696 
C 2189 265 1837 51 1504 51 
C 1229 51 954 203 781 480 
C 582 803 582 1176 582 1472 
L 2438 1472 
z
M 589 1568 
C 634 2505 1126 2714 1382 2714 
C 1818 2714 2112 2297 2118 1568 
L 589 1568 
z
" transform="scale(0.015625)"/>
      </defs>
      <use xlink:href="#CMR17-44" transform="scale(0.996264)"/>
      <use xlink:href="#CMR17-61" transform="translate(70.393556 0) scale(0.996264)"/>
      <use xlink:href="#CMR17-74" transform="translate(116.084033 0) scale(0.996264)"/>
      <use xlink:href="#CMR17-65" transform="translate(151.364801 0) scale(0.996264)"/>
     </g>
    </g>
   </g>
   <g id="matplotlib.axis_2">
    <g id="ytick_1">
     <g id="line2d_11">
      <path d="M 432.005331 563.279333 
L 1007.994669 563.279333 
" clip-path="url(#pd05e55001b)" style="fill: none; stroke: #cccccc; stroke-opacity: 0.5; stroke-width: 0.8; stroke-linecap: round"/>
     </g>
     <g id="text_12">
      <!-- $\mathdefault{0}$ -->
      <g transform="translate(419.367236 570.197831) scale(0.2 -0.2)">
       <use xlink:href="#CMR17-30" transform="scale(0.996264)"/>
      </g>
     </g>
    </g>
    <g id="ytick_2">
     <g id="line2d_12">
      <path d="M 432.005331 443.487433 
L 1007.994669 443.487433 
" clip-path="url(#pd05e55001b)" style="fill: none; stroke: #cccccc; stroke-opacity: 0.5; stroke-width: 0.8; stroke-linecap: round"/>
     </g>
     <g id="text_13">
      <!-- $\mathdefault{50000}$ -->
      <g transform="translate(382.814854 450.405931) scale(0.2 -0.2)">
       <use xlink:href="#CMR17-35" transform="scale(0.996264)"/>
       <use xlink:href="#CMR17-30" transform="translate(45.690477 0) scale(0.996264)"/>
       <use xlink:href="#CMR17-30" transform="translate(91.380954 0) scale(0.996264)"/>
       <use xlink:href="#CMR17-30" transform="translate(137.071431 0) scale(0.996264)"/>
       <use xlink:href="#CMR17-30" transform="translate(182.761908 0) scale(0.996264)"/>
      </g>
     </g>
    </g>
    <g id="ytick_3">
     <g id="line2d_13">
      <path d="M 432.005331 323.695533 
L 1007.994669 323.695533 
" clip-path="url(#pd05e55001b)" style="fill: none; stroke: #cccccc; stroke-opacity: 0.5; stroke-width: 0.8; stroke-linecap: round"/>
     </g>
     <g id="text_14">
      <!-- $\mathdefault{100000}$ -->
      <g transform="translate(373.676759 330.614032) scale(0.2 -0.2)">
       <use xlink:href="#CMR17-31" transform="scale(0.996264)"/>
       <use xlink:href="#CMR17-30" transform="translate(45.690477 0) scale(0.996264)"/>
       <use xlink:href="#CMR17-30" transform="translate(91.380954 0) scale(0.996264)"/>
       <use xlink:href="#CMR17-30" transform="translate(137.071431 0) scale(0.996264)"/>
       <use xlink:href="#CMR17-30" transform="translate(182.761908 0) scale(0.996264)"/>
       <use xlink:href="#CMR17-30" transform="translate(228.452386 0) scale(0.996264)"/>
      </g>
     </g>
    </g>
    <g id="ytick_4">
     <g id="line2d_14">
      <path d="M 432.005331 203.903634 
L 1007.994669 203.903634 
" clip-path="url(#pd05e55001b)" style="fill: none; stroke: #cccccc; stroke-opacity: 0.5; stroke-width: 0.8; stroke-linecap: round"/>
     </g>
     <g id="text_15">
      <!-- $\mathdefault{150000}$ -->
      <g transform="translate(373.676759 210.822132) scale(0.2 -0.2)">
       <use xlink:href="#CMR17-31" transform="scale(0.996264)"/>
       <use xlink:href="#CMR17-35" transform="translate(45.690477 0) scale(0.996264)"/>
       <use xlink:href="#CMR17-30" transform="translate(91.380954 0) scale(0.996264)"/>
       <use xlink:href="#CMR17-30" transform="translate(137.071431 0) scale(0.996264)"/>
       <use xlink:href="#CMR17-30" transform="translate(182.761908 0) scale(0.996264)"/>
       <use xlink:href="#CMR17-30" transform="translate(228.452386 0) scale(0.996264)"/>
      </g>
     </g>
    </g>
    <g id="ytick_5">
     <g id="line2d_15">
      <path d="M 432.005331 84.111734 
L 1007.994669 84.111734 
" clip-path="url(#pd05e55001b)" style="fill: none; stroke: #cccccc; stroke-opacity: 0.5; stroke-width: 0.8; stroke-linecap: round"/>
     </g>
     <g id="text_16">
      <!-- $\mathdefault{200000}$ -->
      <g transform="translate(373.676759 91.030232) scale(0.2 -0.2)">
       <use xlink:href="#CMR17-32" transform="scale(0.996264)"/>
       <use xlink:href="#CMR17-30" transform="translate(45.690477 0) scale(0.996264)"/>
       <use xlink:href="#CMR17-30" transform="translate(91.380954 0) scale(0.996264)"/>
       <use xlink:href="#CMR17-30" transform="translate(137.071431 0) scale(0.996264)"/>
       <use xlink:href="#CMR17-30" transform="translate(182.761908 0) scale(0.996264)"/>
       <use xlink:href="#CMR17-30" transform="translate(228.452386 0) scale(0.996264)"/>
      </g>
     </g>
    </g>
    <g id="text_17">
     <!-- Total Contribution -->
     <g style="fill: #696969" transform="translate(365.801125 382.737465) rotate(-90) scale(0.2 -0.2)">
      <defs>
       <path id="CMR17-54" d="M 3981 4326 
L 288 4326 
L 179 2918 
L 294 2918 
C 378 3976 467 4160 1453 4160 
C 1568 4160 1754 4160 1805 4154 
C 1926 4135 1926 4058 1926 3912 
L 1926 459 
C 1926 230 1907 160 1376 160 
L 1197 160 
L 1197 0 
C 1504 0 1824 0 2138 0 
C 2451 0 2771 0 3078 0 
L 3078 160 
L 2899 160 
C 2368 160 2349 230 2349 459 
L 2349 3912 
C 2349 4052 2349 4129 2464 4154 
C 2515 4160 2701 4160 2816 4160 
C 3795 4160 3891 3976 3974 2918 
L 4090 2918 
L 3981 4326 
z
" transform="scale(0.015625)"/>
       <path id="CMR17-6f" d="M 2758 1356 
C 2758 2176 2163 2816 1466 2816 
C 768 2816 173 2176 173 1356 
C 173 551 768 -64 1466 -64 
C 2163 -64 2758 551 2758 1356 
z
M 1466 51 
C 1165 51 909 230 762 480 
C 602 767 582 1126 582 1408 
C 582 1677 595 2010 762 2298 
C 890 2509 1139 2714 1466 2714 
C 1754 2714 1997 2554 2150 2330 
C 2349 2029 2349 1607 2349 1408 
C 2349 1158 2336 775 2163 467 
C 1984 173 1709 51 1466 51 
z
" transform="scale(0.015625)"/>
       <path id="CMR17-6c" d="M 979 4396 
L 218 4326 
L 218 4160 
C 595 4160 653 4122 653 3817 
L 653 426 
C 653 184 627 153 218 153 
L 218 -13 
C 371 0 653 0 813 0 
C 979 0 1261 0 1414 -13 
L 1414 153 
C 1005 153 979 178 979 426 
L 979 4396 
z
" transform="scale(0.015625)"/>
       <path id="CMR17-43" d="M 3974 4289 
C 3974 4403 3968 4410 3930 4410 
C 3904 4410 3898 4403 3853 4327 
L 3571 3792 
C 3258 4187 2874 4416 2381 4416 
C 1286 4416 294 3456 294 2148 
C 294 826 1286 -128 2387 -128 
C 3366 -128 3974 730 3974 1461 
C 3974 1524 3974 1550 3917 1550 
C 3866 1550 3866 1531 3859 1474 
C 3808 585 3168 38 2477 38 
C 1824 38 781 495 781 2147 
C 781 3805 1843 4250 2464 4250 
C 3187 4250 3712 3628 3834 2745 
C 3846 2668 3846 2655 3904 2655 
C 3974 2655 3974 2668 3974 2783 
L 3974 4289 
z
" transform="scale(0.015625)"/>
       <path id="CMR17-6e" d="M 2656 1933 
C 2656 2259 2592 2790 1837 2790 
C 1331 2790 1069 2400 973 2144 
L 966 2144 
L 966 2790 
L 211 2720 
L 211 2554 
C 589 2554 646 2515 646 2208 
L 646 428 
C 646 184 621 153 211 153 
L 211 -13 
C 365 0 646 0 813 0 
C 979 0 1267 0 1421 -13 
L 1421 153 
C 1011 153 986 178 986 428 
L 986 1658 
C 986 2247 1344 2688 1792 2688 
C 2266 2688 2317 2266 2317 1958 
L 2317 428 
C 2317 184 2291 153 1882 153 
L 1882 -13 
C 2035 0 2317 0 2483 0 
C 2650 0 2938 0 3091 -13 
L 3091 153 
C 2682 153 2656 178 2656 428 
L 2656 1933 
z
" transform="scale(0.015625)"/>
       <path id="CMR17-72" d="M 960 1497 
C 960 2112 1222 2688 1702 2688 
C 1747 2688 1792 2682 1837 2662 
C 1837 2662 1696 2617 1696 2452 
C 1696 2298 1818 2234 1914 2234 
C 1990 2234 2131 2279 2131 2458 
C 2131 2663 1926 2790 1709 2790 
C 1222 2790 1011 2317 947 2093 
L 941 2093 
L 941 2790 
L 198 2720 
L 198 2554 
C 576 2554 634 2515 634 2208 
L 634 428 
C 634 184 608 153 198 153 
L 198 -13 
C 352 0 646 0 813 0 
C 998 0 1325 0 1498 -13 
L 1498 153 
C 1037 153 960 153 960 440 
L 960 1497 
z
" transform="scale(0.015625)"/>
       <path id="CMR17-69" d="M 992 3909 
C 992 4049 877 4170 730 4170 
C 589 4170 467 4056 467 3909 
C 467 3769 582 3648 730 3648 
C 870 3648 992 3763 992 3909 
z
M 243 2706 
L 243 2541 
C 602 2541 653 2502 653 2197 
L 653 427 
C 653 184 627 153 218 153 
L 218 -13 
C 371 0 646 0 806 0 
C 960 0 1222 0 1370 -13 
L 1370 153 
C 992 153 979 191 979 420 
L 979 2776 
L 243 2706 
z
" transform="scale(0.015625)"/>
       <path id="CMR17-62" d="M 960 4396 
L 198 4326 
L 198 4160 
C 576 4160 634 4122 634 3817 
L 634 -13 
L 749 -13 
L 934 441 
C 1120 141 1395 -64 1766 -64 
C 2406 -64 3053 500 3053 1370 
C 3053 2188 2477 2790 1830 2790 
C 1434 2790 1152 2579 960 2330 
L 960 4396 
z
M 973 2004 
C 973 2118 973 2138 1062 2272 
C 1312 2657 1670 2688 1792 2688 
C 1984 2688 2643 2585 2643 1376 
C 2643 108 1888 38 1734 38 
C 1536 38 1248 114 1043 486 
C 973 608 973 621 973 735 
L 973 2004 
z
" transform="scale(0.015625)"/>
       <path id="CMR17-75" d="M 1882 2693 
L 1882 2528 
C 2259 2528 2317 2489 2317 2186 
L 2317 1032 
C 2317 500 2029 38 1555 38 
C 1030 38 986 348 986 678 
L 986 2763 
L 211 2693 
L 211 2528 
C 467 2528 640 2528 646 2274 
L 646 1058 
C 646 633 646 361 813 183 
C 896 101 1056 -64 1517 -64 
C 2061 -64 2272 377 2323 506 
L 2330 506 
L 2330 -63 
L 3091 -63 
L 3091 128 
C 2714 128 2656 166 2656 473 
L 2656 2763 
L 1882 2693 
z
" transform="scale(0.015625)"/>
      </defs>
      <use xlink:href="#CMR17-54" transform="scale(0.996264)"/>
      <use xlink:href="#CMR17-6f" transform="translate(58.702625 0) scale(0.996264)"/>
      <use xlink:href="#CMR17-74" transform="translate(104.393102 0) scale(0.996264)"/>
      <use xlink:href="#CMR17-61" transform="translate(139.67387 0) scale(0.996264)"/>
      <use xlink:href="#CMR17-6c" transform="translate(185.364347 0) scale(0.996264)"/>
      <use xlink:href="#CMR17-43" transform="translate(240.311372 0) scale(0.996264)"/>
      <use xlink:href="#CMR17-6f" transform="translate(306.821253 0) scale(0.996264)"/>
      <use xlink:href="#CMR17-6e" transform="translate(352.51173 0) scale(0.996264)"/>
      <use xlink:href="#CMR17-74" transform="translate(400.804646 0) scale(0.996264)"/>
      <use xlink:href="#CMR17-72" transform="translate(436.085413 0) scale(0.996264)"/>
      <use xlink:href="#CMR17-69" transform="translate(471.366181 0) scale(0.996264)"/>
      <use xlink:href="#CMR17-62" transform="translate(496.23724 0) scale(0.996264)"/>
      <use xlink:href="#CMR17-75" transform="translate(547.132609 0) scale(0.996264)"/>
      <use xlink:href="#CMR17-74" transform="translate(598.027979 0) scale(0.996264)"/>
      <use xlink:href="#CMR17-69" transform="translate(633.308747 0) scale(0.996264)"/>
      <use xlink:href="#CMR17-6f" transform="translate(658.179805 0) scale(0.996264)"/>
      <use xlink:href="#CMR17-6e" transform="translate(703.870283 0) scale(0.996264)"/>
     </g>
    </g>
   </g>
   <g id="line2d_16">
    <path d="M 458.186665 563.279333 
L 517.431468 563.212239 
L 517.431468 563.212239 
L 527.170339 563.070377 
L 527.170339 563.070377 
L 532.20209 562.740552 
L 532.20209 562.740552 
L 557.036213 562.675056 
L 557.036213 562.675056 
L 566.937399 562.637997 
L 566.937399 562.637997 
L 616.281016 562.754351 
L 616.281016 562.754351 
L 621.150452 562.943246 
L 621.150452 562.943246 
L 626.182202 562.6684 
L 626.182202 562.6684 
L 636.083388 562.761016 
L 636.083388 562.761016 
L 645.659946 562.624108 
L 645.659946 562.624108 
L 650.691696 562.955034 
L 650.691696 562.955034 
L 655.561132 562.958088 
L 655.561132 562.958088 
L 660.592882 562.849854 
L 660.592882 562.849854 
L 665.462318 562.936786 
L 665.462318 562.936786 
L 670.494069 562.577201 
L 670.494069 562.577201 
L 675.525819 562.655882 
L 675.525819 562.655882 
L 680.395255 562.442826 
L 680.395255 562.442826 
L 685.427005 562.429641 
L 685.427005 562.429641 
L 690.296441 562.187337 
L 690.296441 562.187337 
L 695.328192 562.569866 
L 695.328192 562.569866 
L 700.359942 562.145838 
L 700.359942 562.145838 
L 704.904749 562.184902 
L 704.904749 562.184902 
L 709.936499 562.08779 
L 709.936499 562.08779 
L 719.837685 562.238407 
L 719.837685 562.238407 
L 724.707121 562.761659 
L 724.707121 562.761659 
L 759.604745 562.890713 
L 759.604745 562.890713 
L 764.311866 562.840337 
L 764.311866 562.840337 
L 769.343617 562.95309 
L 769.343617 562.95309 
L 774.213053 562.85763 
L 774.213053 562.85763 
L 779.244803 563.003151 
L 779.244803 563.003151 
L 799.047176 562.900703 
L 799.047176 562.900703 
L 819.011863 563.052131 
L 819.011863 563.052131 
L 823.55667 562.971291 
L 823.55667 562.971291 
L 828.58842 562.595423 
L 828.58842 562.595423 
L 833.457856 562.410281 
L 833.457856 562.410281 
L 848.390793 562.535697 
L 848.390793 562.535697 
L 858.291979 562.514502 
L 858.291979 562.514502 
L 863.323729 562.598826 
L 863.323729 562.598826 
L 868.193165 562.380265 
L 868.193165 562.380265 
L 873.224915 562.627654 
L 873.224915 562.627654 
L 878.256666 562.687374 
L 878.256666 562.687374 
L 882.801473 562.490121 
L 882.801473 562.490121 
L 892.702659 562.556995 
L 892.702659 562.556995 
L 902.603845 562.68676 
L 902.603845 562.68676 
L 907.635596 562.831942 
L 907.635596 562.831942 
L 917.536782 562.742928 
L 917.536782 562.742928 
L 922.568532 562.850598 
L 922.568532 562.850598 
L 927.437968 562.788521 
L 927.437968 562.788521 
L 932.469719 562.983043 
L 932.469719 562.983043 
L 956.979212 563.062581 
L 956.979212 563.062581 
L 966.880399 563.180694 
L 966.880399 563.180694 
L 981.813335 563.208594 
L 981.813335 563.208594 
" clip-path="url(#pd05e55001b)" style="fill: none; stroke: #006e64; stroke-width: 1.5; stroke-linecap: round"/>
   </g>
   <g id="line2d_17">
    <path d="M 458.186665 563.279333 
L 517.431468 563.212239 
L 517.431468 563.212239 
L 527.170339 562.8224 
L 527.170339 562.8224 
L 542.103276 561.18507 
L 542.103276 561.18507 
L 546.972712 560.506818 
L 546.972712 560.506818 
L 561.905649 558.877317 
L 561.905649 558.877317 
L 566.937399 558.130953 
L 566.937399 558.130953 
L 571.806835 557.527291 
L 571.806835 557.527291 
L 576.838585 558.201841 
L 576.838585 558.201841 
L 581.870336 557.676036 
L 581.870336 557.676036 
L 586.415143 557.052049 
L 586.415143 557.052049 
L 591.446893 556.895394 
L 591.446893 556.895394 
L 596.316329 556.388759 
L 596.316329 556.388759 
L 601.348079 555.462171 
L 601.348079 555.462171 
L 606.217515 555.458106 
L 606.217515 555.458106 
L 611.249266 554.613261 
L 611.249266 554.613261 
L 616.281016 554.554375 
L 616.281016 554.554375 
L 621.150452 558.265154 
L 621.150452 558.265154 
L 626.182202 553.183499 
L 626.182202 553.183499 
L 631.051638 553.032334 
L 631.051638 553.032334 
L 636.083388 553.192197 
L 636.083388 553.192197 
L 645.659946 551.908495 
L 645.659946 551.908495 
L 650.691696 557.677911 
L 650.691696 557.677911 
L 655.561132 559.016052 
L 655.561132 559.016052 
L 660.592882 558.54973 
L 660.592882 558.54973 
L 665.462318 558.370722 
L 665.462318 558.370722 
L 675.525819 557.591037 
L 675.525819 557.591037 
L 690.296441 554.920294 
L 690.296441 554.920294 
L 695.328192 556.054696 
L 695.328192 556.054696 
L 700.359942 554.889562 
L 700.359942 554.889562 
L 704.904749 554.88036 
L 704.904749 554.88036 
L 709.936499 554.594506 
L 709.936499 554.594506 
L 714.805935 552.801551 
L 714.805935 552.801551 
L 719.837685 552.832591 
L 719.837685 552.832591 
L 724.707121 557.653561 
L 724.707121 557.653561 
L 729.738872 556.849855 
L 729.738872 556.849855 
L 734.770622 557.304177 
L 734.770622 557.304177 
L 739.640058 556.983365 
L 739.640058 556.983365 
L 744.671808 557.182951 
L 744.671808 557.182951 
L 749.541244 556.789235 
L 749.541244 556.789235 
L 754.572995 556.677929 
L 754.572995 556.677929 
L 759.604745 558.677032 
L 759.604745 558.677032 
L 764.311866 555.887664 
L 764.311866 555.887664 
L 769.343617 558.449315 
L 769.343617 558.449315 
L 774.213053 555.594904 
L 774.213053 555.594904 
L 779.244803 559.272953 
L 779.244803 559.272953 
L 784.114239 558.706342 
L 784.114239 558.706342 
L 789.145989 559.082436 
L 789.145989 559.082436 
L 794.17774 558.129416 
L 794.17774 558.129416 
L 799.047176 557.810809 
L 799.047176 557.810809 
L 804.078926 558.743249 
L 804.078926 558.743249 
L 808.948362 559.328903 
L 808.948362 559.328903 
L 813.980112 560.086463 
L 813.980112 560.086463 
L 819.011863 560.392736 
L 819.011863 560.392736 
L 823.55667 561.374452 
L 823.55667 561.374452 
L 828.58842 560.742661 
L 828.58842 560.742661 
L 833.457856 559.878982 
L 833.457856 559.878982 
L 838.489606 559.220504 
L 838.489606 559.220504 
L 843.359042 558.431186 
L 843.359042 558.431186 
L 848.390793 558.074462 
L 848.390793 558.074462 
L 853.422543 557.127624 
L 853.422543 557.127624 
L 858.291979 556.802571 
L 858.291979 556.802571 
L 873.224915 556.655556 
L 873.224915 556.655556 
L 878.256666 557.008826 
L 878.256666 557.008826 
L 882.801473 555.356002 
L 882.801473 555.356002 
L 887.833223 554.633312 
L 887.833223 554.633312 
L 892.702659 554.67364 
L 892.702659 554.67364 
L 897.734409 554.403989 
L 897.734409 554.403989 
L 907.635596 555.938703 
L 907.635596 555.938703 
L 912.667346 554.980672 
L 912.667346 554.980672 
L 917.536782 555.09906 
L 917.536782 555.09906 
L 922.568532 556.202678 
L 922.568532 556.202678 
L 927.437968 555.743702 
L 927.437968 555.743702 
L 932.469719 558.806499 
L 932.469719 558.806499 
L 937.501469 558.225328 
L 937.501469 558.225328 
L 942.046276 559.543775 
L 942.046276 559.543775 
L 947.078026 558.295853 
L 947.078026 558.295853 
L 951.947462 559.420882 
L 951.947462 559.420882 
L 961.848648 560.797174 
L 961.848648 560.797174 
L 966.880399 560.900068 
L 966.880399 560.900068 
L 971.912149 560.433446 
L 971.912149 560.433446 
L 976.781585 561.820329 
L 976.781585 561.820329 
L 981.813335 561.717004 
L 981.813335 561.717004 
" clip-path="url(#pd05e55001b)" style="fill: none; stroke: #734848; stroke-width: 1.5; stroke-linecap: round"/>
   </g>
   <g id="line2d_18">
    <path d="M 458.186665 563.215338 
L 497.629095 563.072365 
L 497.629095 563.072365 
L 537.071526 563.107932 
L 537.071526 563.107932 
L 546.972712 563.144264 
L 546.972712 563.144264 
L 606.217515 563.178115 
L 606.217515 563.178115 
L 951.947462 563.263124 
L 951.947462 563.263124 
L 981.813335 563.279449 
L 981.813335 563.279449 
" clip-path="url(#pd05e55001b)" style="fill: none; stroke: #004e4a; stroke-width: 1.5; stroke-linecap: round"/>
   </g>
   <g id="line2d_19">
    <path d="M 458.186665 563.260166 
L 586.415143 563.248187 
L 586.415143 563.248187 
L 981.813335 563.279333 
L 981.813335 563.279333 
" clip-path="url(#pd05e55001b)" style="fill: none; stroke: #c17150; stroke-width: 1.5; stroke-linecap: round"/>
   </g>
   <g id="line2d_20">
    <path d="M 458.186665 486.670856 
L 463.218415 475.421797 
L 463.218415 475.421797 
L 467.763222 452.632586 
L 467.763222 452.632586 
L 472.794972 434.014529 
L 472.794972 434.014529 
L 477.664408 418.059446 
L 477.664408 418.059446 
L 482.696158 400.966939 
L 482.696158 400.966939 
L 487.565594 390.58836 
L 487.565594 390.58836 
L 492.597345 376.539765 
L 492.597345 376.539765 
L 497.629095 360.41338 
L 497.629095 360.41338 
L 502.498531 343.698816 
L 502.498531 343.698816 
L 507.530281 327.616154 
L 507.530281 327.616154 
L 512.399717 314.271337 
L 512.399717 314.271337 
L 517.431468 298.979541 
L 517.431468 298.979541 
L 522.463218 289.424341 
L 522.463218 289.424341 
L 527.170339 271.125529 
L 527.170339 271.125529 
L 532.20209 269.132192 
L 532.20209 269.132192 
L 537.071526 249.053871 
L 537.071526 249.053871 
L 542.103276 244.561292 
L 542.103276 244.561292 
L 546.972712 227.337253 
L 546.972712 227.337253 
L 552.004462 210.638262 
L 552.004462 210.638262 
L 557.036213 201.60787 
L 557.036213 201.60787 
L 561.905649 177.695011 
L 561.905649 177.695011 
L 566.937399 156.31036 
L 566.937399 156.31036 
L 571.806835 139.529311 
L 571.806835 139.529311 
L 576.838585 227.54042 
L 576.838585 227.54042 
L 581.870336 210.770153 
L 581.870336 210.770153 
L 586.415143 184.791483 
L 586.415143 184.791483 
L 591.446893 173.911623 
L 591.446893 173.911623 
L 596.316329 143.013818 
L 596.316329 143.013818 
L 601.348079 109.764378 
L 601.348079 109.764378 
L 606.217515 130.990425 
L 606.217515 130.990425 
L 611.249266 91.222389 
L 611.249266 91.222389 
L 616.281016 134.173176 
L 616.281016 134.173176 
L 621.150452 155.314649 
L 621.150452 155.314649 
L 626.182202 81.142931 
L 626.182202 81.142931 
L 631.051638 77.035003 
L 631.051638 77.035003 
L 636.083388 119.078414 
L 636.083388 119.078414 
L 641.115139 88.618473 
L 641.115139 88.618473 
L 645.659946 56.964685 
L 645.659946 56.964685 
L 650.691696 176.611134 
L 650.691696 176.611134 
L 655.561132 207.862732 
L 655.561132 207.862732 
L 660.592882 188.039401 
L 660.592882 188.039401 
L 665.462318 212.467005 
L 665.462318 212.467005 
L 670.494069 192.953456 
L 670.494069 192.953456 
L 675.525819 201.737197 
L 675.525819 201.737197 
L 680.395255 176.080455 
L 680.395255 176.080455 
L 685.427005 140.356355 
L 685.427005 140.356355 
L 690.296441 139.863171 
L 690.296441 139.863171 
L 695.328192 170.045579 
L 695.328192 170.045579 
L 700.359942 161.478062 
L 700.359942 161.478062 
L 704.904749 168.854416 
L 704.904749 168.854416 
L 709.936499 176.706919 
L 709.936499 176.706919 
L 714.805935 113.932011 
L 714.805935 113.932011 
L 719.837685 130.870753 
L 719.837685 130.870753 
L 724.707121 224.453191 
L 724.707121 224.453191 
L 729.738872 169.293861 
L 729.738872 169.293861 
L 734.770622 153.44695 
L 734.770622 153.44695 
L 739.640058 161.613523 
L 739.640058 161.613523 
L 744.671808 162.236681 
L 744.671808 162.236681 
L 749.541244 201.489324 
L 749.541244 201.489324 
L 754.572995 194.055637 
L 754.572995 194.055637 
L 759.604745 189.922338 
L 759.604745 189.922338 
L 764.311866 125.428176 
L 764.311866 125.428176 
L 769.343617 148.430137 
L 769.343617 148.430137 
L 774.213053 91.641206 
L 774.213053 91.641206 
L 779.244803 137.231847 
L 779.244803 137.231847 
L 784.114239 101.871075 
L 784.114239 101.871075 
L 789.145989 106.646339 
L 789.145989 106.646339 
L 794.17774 62.337352 
L 794.17774 62.337352 
L 799.047176 51.209762 
L 799.047176 51.209762 
L 804.078926 104.743756 
L 804.078926 104.743756 
L 808.948362 107.383131 
L 808.948362 107.383131 
L 813.980112 276.60711 
L 813.980112 276.60711 
L 819.011863 271.555486 
L 819.011863 271.555486 
L 823.55667 332.005593 
L 823.55667 332.005593 
L 828.58842 301.892305 
L 828.58842 301.892305 
L 833.457856 276.305355 
L 833.457856 276.305355 
L 838.489606 250.716008 
L 838.489606 250.716008 
L 843.359042 229.08219 
L 843.359042 229.08219 
L 848.390793 257.096604 
L 848.390793 257.096604 
L 853.422543 219.99286 
L 853.422543 219.99286 
L 858.291979 202.91353 
L 858.291979 202.91353 
L 863.323729 200.476363 
L 863.323729 200.476363 
L 868.193165 240.820502 
L 868.193165 240.820502 
L 873.224915 235.804216 
L 873.224915 235.804216 
L 878.256666 242.432302 
L 878.256666 242.432302 
L 882.801473 212.169874 
L 882.801473 212.169874 
L 887.833223 154.055229 
L 887.833223 154.055229 
L 892.702659 184.50094 
L 892.702659 184.50094 
L 897.734409 182.918489 
L 897.734409 182.918489 
L 902.603845 177.409618 
L 902.603845 177.409618 
L 907.635596 215.915167 
L 907.635596 215.915167 
L 912.667346 193.465566 
L 912.667346 193.465566 
L 917.536782 183.698334 
L 917.536782 183.698334 
L 922.568532 263.817552 
L 922.568532 263.817552 
L 927.437968 262.162028 
L 927.437968 262.162028 
L 932.469719 303.962214 
L 932.469719 303.962214 
L 937.501469 274.03101 
L 937.501469 274.03101 
L 942.046276 360.436308 
L 942.046276 360.436308 
L 947.078026 323.819518 
L 947.078026 323.819518 
L 951.947462 341.69187 
L 951.947462 341.69187 
L 956.979212 364.898556 
L 956.979212 364.898556 
L 961.848648 448.040124 
L 961.848648 448.040124 
L 966.880399 459.264625 
L 966.880399 459.264625 
L 971.912149 404.813816 
L 971.912149 404.813816 
L 976.781585 494.84222 
L 976.781585 494.84222 
L 981.813335 503.624763 
L 981.813335 503.624763 
" clip-path="url(#pd05e55001b)" style="fill: none; stroke: #c8f0e6; stroke-width: 1.5; stroke-linecap: round"/>
   </g>
   <g id="line2d_21">
    <path d="M 458.186665 563.274541 
L 700.359942 563.267353 
L 700.359942 563.267353 
L 932.469719 563.279333 
L 932.469719 563.279333 
L 981.813335 563.279333 
L 981.813335 563.279333 
" clip-path="url(#pd05e55001b)" style="fill: none; stroke: #ffbb00; stroke-width: 1.5; stroke-linecap: round"/>
   </g>
   <g id="line2d_22">
    <path d="M 458.186665 563.262993 
L 714.805935 563.207242 
L 714.805935 563.207242 
L 769.343617 563.24397 
L 769.343617 563.24397 
L 848.390793 563.217879 
L 848.390793 563.217879 
L 981.813335 563.279333 
L 981.813335 563.279333 
" clip-path="url(#pd05e55001b)" style="fill: none; stroke: #dcfae9; stroke-width: 1.5; stroke-linecap: round"/>
   </g>
   <g id="line2d_23">
    <path d="M 458.186665 563.253028 
L 576.838585 563.136687 
L 576.838585 563.136687 
L 819.011863 563.200278 
L 819.011863 563.200278 
L 858.291979 563.184258 
L 858.291979 563.184258 
L 976.781585 563.270951 
L 976.781585 563.270951 
L 981.813335 563.274968 
L 981.813335 563.274968 
" clip-path="url(#pd05e55001b)" style="fill: none; stroke: #a1d9cc; stroke-width: 1.5; stroke-linecap: round"/>
   </g>
   <g id="line2d_24">
    <path d="M 458.186665 563.280387 
L 981.813335 563.279333 
L 981.813335 563.279333 
" clip-path="url(#pd05e55001b)" style="fill: none; stroke: #1e8c82; stroke-width: 1.5; stroke-linecap: round"/>
   </g>
   <g id="line2d_25">
    <path d="M 458.186665 563.274221 
L 981.813335 563.274541 
L 981.813335 563.274541 
" clip-path="url(#pd05e55001b)" style="fill: none; stroke: #006e64; stroke-width: 1.5; stroke-linecap: round"/>
   </g>
   <g id="patch_3">
    <path d="M 432.005331 588.917225 
L 432.005331 25.604645 
" style="fill: none; stroke: #808080; stroke-width: 0.8; stroke-linejoin: miter; stroke-linecap: square"/>
   </g>
   <g id="patch_4">
    <path d="M 432.005331 588.917225 
L 1007.994669 588.917225 
" style="fill: none; stroke: #808080; stroke-width: 0.8; stroke-linejoin: miter; stroke-linecap: square"/>
   </g>
   <g id="text_18">
    <!-- Out of Sample -->
    <g style="fill: #262626" transform="translate(650.284284 19.604645) scale(0.24 -0.24)">
     <defs>
      <path id="CMR17-4f" d="M 4307 2135 
C 4307 3437 3366 4416 2304 4416 
C 1216 4416 294 3424 294 2135 
C 294 845 1229 -128 2298 -128 
C 3392 -128 4307 864 4307 2135 
z
M 2304 -13 
C 1574 -13 781 711 781 2217 
C 781 3716 1651 4301 2298 4301 
C 2976 4301 3821 3698 3821 2217 
C 3821 686 3008 -13 2304 -13 
z
" transform="scale(0.015625)"/>
      <path id="CMR17-66" d="M 979 2560 
L 1709 2560 
L 1709 2725 
L 966 2725 
L 966 3494 
C 966 4022 1235 4352 1510 4352 
C 1594 4352 1690 4327 1754 4282 
C 1702 4269 1568 4225 1568 4067 
C 1568 3901 1696 3850 1786 3850 
C 1875 3850 2003 3901 2003 4067 
C 2003 4308 1773 4454 1517 4454 
C 1152 4454 653 4156 653 3481 
L 653 2725 
L 141 2725 
L 141 2560 
L 653 2560 
L 653 427 
C 653 184 627 153 218 153 
L 218 -13 
C 371 0 666 0 832 0 
C 1018 0 1344 0 1517 -13 
L 1517 153 
C 1056 153 979 153 979 439 
L 979 2560 
z
" transform="scale(0.015625)"/>
      <path id="CMR17-53" d="M 2803 4290 
C 2803 4404 2797 4411 2758 4411 
C 2720 4411 2707 4385 2682 4328 
L 2490 3907 
C 2246 4257 1875 4416 1472 4416 
C 819 4416 294 3901 294 3253 
C 294 3056 339 2776 557 2510 
C 794 2218 1018 2167 1530 2033 
C 1722 1982 2042 1899 2106 1874 
C 2470 1722 2662 1341 2662 985 
C 2662 527 2336 38 1779 38 
C 1094 38 454 419 410 1311 
C 403 1413 397 1419 352 1419 
C 301 1419 294 1413 294 1285 
L 294 -1 
C 294 -115 301 -122 339 -122 
C 384 -122 397 -90 486 108 
C 493 127 493 140 614 381 
C 934 -39 1472 -128 1779 -128 
C 2477 -128 2970 451 2970 1124 
C 2970 1454 2848 1708 2778 1823 
C 2509 2230 2221 2306 1914 2382 
C 1869 2402 1856 2402 1498 2490 
C 1152 2579 1005 2624 845 2796 
C 666 2992 602 3196 602 3399 
C 602 3812 934 4263 1478 4263 
C 2157 4263 2579 3786 2675 2993 
C 2694 2878 2701 2872 2746 2872 
C 2803 2872 2803 2891 2803 2999 
L 2803 4290 
z
" transform="scale(0.015625)"/>
      <path id="CMR17-6d" d="M 4326 1933 
C 4326 2252 4269 2790 3507 2790 
C 3072 2790 2771 2496 2656 2151 
L 2650 2151 
C 2573 2676 2195 2790 1837 2790 
C 1331 2790 1069 2400 973 2144 
L 966 2144 
L 966 2790 
L 211 2720 
L 211 2554 
C 589 2554 646 2515 646 2208 
L 646 428 
C 646 184 621 153 211 153 
L 211 -13 
C 365 0 646 0 813 0 
C 979 0 1267 0 1421 -13 
L 1421 153 
C 1011 153 986 178 986 428 
L 986 1658 
C 986 2247 1344 2688 1792 2688 
C 2266 2688 2317 2266 2317 1958 
L 2317 428 
C 2317 184 2291 153 1882 153 
L 1882 -13 
C 2035 0 2317 0 2483 0 
C 2650 0 2938 0 3091 -13 
L 3091 153 
C 2682 153 2656 178 2656 428 
L 2656 1658 
C 2656 2247 3014 2688 3462 2688 
C 3936 2688 3987 2266 3987 1958 
L 3987 428 
C 3987 184 3962 153 3552 153 
L 3552 -13 
C 3706 0 3987 0 4154 0 
C 4320 0 4608 0 4762 -13 
L 4762 153 
C 4352 153 4326 178 4326 428 
L 4326 1933 
z
" transform="scale(0.015625)"/>
      <path id="CMR17-70" d="M 1408 -1063 
C 998 -1063 973 -1037 973 -789 
L 973 402 
C 1158 134 1427 -38 1766 -38 
C 2406 -38 3053 523 3053 1388 
C 3053 2191 2496 2802 1837 2802 
C 1453 2802 1139 2592 960 2338 
L 960 2802 
L 198 2732 
L 198 2567 
C 576 2567 634 2528 634 2223 
L 634 -789 
C 634 -1031 608 -1063 198 -1063 
L 198 -1228 
C 352 -1216 634 -1216 800 -1216 
C 966 -1216 1254 -1216 1408 -1228 
L 1408 -1063 
z
M 973 2012 
C 973 2102 973 2235 1222 2471 
C 1254 2497 1472 2688 1792 2688 
C 2259 2688 2643 2108 2643 1382 
C 2643 656 2234 64 1728 64 
C 1498 64 1248 172 1056 472 
C 973 612 973 650 973 752 
L 973 2012 
z
" transform="scale(0.015625)"/>
     </defs>
     <use xlink:href="#CMR17-4f" transform="scale(0.996264)"/>
     <use xlink:href="#CMR17-75" transform="translate(71.714788 0) scale(0.996264)"/>
     <use xlink:href="#CMR17-74" transform="translate(122.610158 0) scale(0.996264)"/>
     <use xlink:href="#CMR17-6f" transform="translate(187.966892 0) scale(0.996264)"/>
     <use xlink:href="#CMR17-66" transform="translate(233.657369 0) scale(0.996264)"/>
     <use xlink:href="#CMR17-53" transform="translate(291.206848 0) scale(0.996264)"/>
     <use xlink:href="#CMR17-61" transform="translate(342.102218 0) scale(0.996264)"/>
     <use xlink:href="#CMR17-6d" transform="translate(387.792695 0) scale(0.996264)"/>
     <use xlink:href="#CMR17-70" transform="translate(464.712285 0) scale(0.996264)"/>
     <use xlink:href="#CMR17-6c" transform="translate(515.607655 0) scale(0.996264)"/>
     <use xlink:href="#CMR17-65" transform="translate(540.478713 0) scale(0.996264)"/>
    </g>
   </g>
   <g id="legend_1">
    <g id="patch_5">
     <path d="M -38.000649 716.99975 
L 1478.000649 716.99975 
Q 1482.000649 716.99975 1482.000649 712.99975 
L 1482.000649 659.248483 
Q 1482.000649 655.248483 1478.000649 655.248483 
L -38.000649 655.248483 
Q -42.000649 655.248483 -42.000649 659.248483 
L -42.000649 712.99975 
Q -42.000649 716.99975 -38.000649 716.99975 
z
" style="fill: #ffffff; opacity: 0.8"/>
    </g>
    <g id="line2d_26">
     <path d="M -1 670.248483 
L 5.999351 670.248483 
" style="fill: none; stroke: #006e64; stroke-width: 1.5; stroke-linecap: round"/>
    </g>
    <g id="text_19">
     <!-- contract_work -->
     <g style="fill: #262626" transform="translate(21.999351 677.248483) scale(0.2 -0.2)">
      <defs>
       <path id="CMR17-63" d="M 2234 2240 
C 2112 2240 1933 2240 1933 2017 
C 1933 1838 2080 1787 2163 1787 
C 2208 1787 2394 1807 2394 2024 
C 2394 2467 1958 2803 1466 2803 
C 787 2803 211 2178 211 1363 
C 211 516 813 -64 1466 -64 
C 2259 -64 2458 677 2458 748 
C 2458 774 2451 793 2406 793 
C 2362 793 2355 787 2330 703 
C 2163 180 1798 51 1523 51 
C 1114 51 621 427 621 1369 
C 621 2338 1094 2688 1472 2688 
C 1722 2688 2093 2573 2234 2240 
z
" transform="scale(0.015625)"/>
       <path id="CMR17-77" d="M 3725 2183 
C 3853 2560 4109 2560 4205 2560 
L 4205 2732 
C 4077 2732 3949 2732 3821 2732 
C 3699 2732 3424 2732 3315 2738 
L 3315 2560 
C 3514 2560 3622 2445 3622 2286 
C 3622 2241 3610 2184 3597 2140 
L 2995 407 
L 2342 2275 
C 2330 2319 2310 2370 2310 2395 
C 2310 2560 2528 2560 2630 2560 
L 2630 2738 
C 2483 2732 2214 2732 2061 2732 
C 1901 2732 1734 2732 1587 2738 
L 1587 2560 
C 1939 2560 1939 2547 2074 2149 
L 1485 451 
L 851 2281 
C 819 2363 819 2376 819 2395 
C 819 2560 1037 2560 1139 2560 
L 1139 2738 
C 986 2732 717 2732 557 2732 
C 416 2732 198 2732 64 2738 
L 64 2560 
C 346 2560 416 2541 486 2331 
L 1274 49 
C 1299 -33 1318 -52 1370 -52 
C 1414 -52 1440 -39 1472 56 
L 2131 1980 
L 2797 56 
C 2829 -39 2854 -52 2899 -52 
C 2950 -52 2970 -33 2995 50 
L 3725 2183 
z
" transform="scale(0.015625)"/>
       <path id="CMR17-6b" d="M 1670 1673 
C 1664 1686 1632 1724 1632 1743 
C 1632 1756 2086 2171 2144 2222 
C 2509 2528 2739 2560 2906 2560 
L 2906 2733 
C 2867 2733 2854 2733 2848 2720 
L 2534 2720 
C 2355 2720 2080 2720 1907 2733 
L 1907 2566 
C 1997 2559 2061 2508 2061 2419 
C 2061 2291 1933 2170 1926 2170 
L 960 1289 
L 960 4396 
L 198 4326 
L 198 4160 
C 576 4160 634 4122 634 3817 
L 634 426 
C 634 184 608 153 198 153 
L 198 -13 
C 352 0 634 0 794 0 
C 954 0 1235 0 1389 -13 
L 1389 153 
C 979 153 954 178 954 428 
L 954 1130 
L 1395 1532 
L 2042 574 
C 2118 459 2182 369 2182 286 
C 2182 172 2067 153 1990 153 
L 1990 -13 
C 2144 0 2419 0 2579 0 
C 2694 0 2931 0 3040 0 
L 3040 153 
C 2739 153 2669 210 2477 491 
L 1670 1673 
z
" transform="scale(0.015625)"/>
      </defs>
      <use xlink:href="#CMR17-63" transform="scale(0.996264)"/>
      <use xlink:href="#CMR17-6f" transform="translate(40.48566 0) scale(0.996264)"/>
      <use xlink:href="#CMR17-6e" transform="translate(86.176138 0) scale(0.996264)"/>
      <use xlink:href="#CMR17-74" transform="translate(134.469053 0) scale(0.996264)"/>
      <use xlink:href="#CMR17-72" transform="translate(169.749821 0) scale(0.996264)"/>
      <use xlink:href="#CMR17-61" transform="translate(205.030589 0) scale(0.996264)"/>
      <use xlink:href="#CMR17-63" transform="translate(250.721066 0) scale(0.996264)"/>
      <use xlink:href="#CMR17-74" transform="translate(291.206727 0) scale(0.996264)"/>
      <use xlink:href="#CMR17-77" transform="translate(359.384714 0) scale(0.996264)"/>
      <use xlink:href="#CMR17-6f" transform="translate(423.292141 0) scale(0.996264)"/>
      <use xlink:href="#CMR17-72" transform="translate(468.982618 0) scale(0.996264)"/>
      <use xlink:href="#CMR17-6b" transform="translate(504.263385 0) scale(0.996264)"/>
      <path d="M 331.970124 0 
L 359.384714 0 
L 359.384714 0.3985 
L 331.970124 0.3985 
L 331.970124 0 
z
"/>
     </g>
    </g>
    <g id="line2d_27">
     <path d="M -1 698.124117 
L 5.999351 698.124117 
" style="fill: none; stroke: #734848; stroke-width: 1.5; stroke-linecap: round"/>
    </g>
    <g id="text_20">
     <!-- contract_work_cumsum -->
     <g style="fill: #262626" transform="translate(21.999351 705.124117) scale(0.2 -0.2)">
      <defs>
       <path id="CMR17-73" d="M 1978 2697 
C 1978 2813 1971 2819 1933 2819 
C 1907 2819 1901 2813 1824 2717 
C 1805 2691 1747 2626 1728 2601 
C 1523 2819 1235 2819 1126 2819 
C 416 2819 160 2447 160 2076 
C 160 1498 813 1365 998 1325 
C 1402 1243 1542 1217 1677 1101 
C 1760 1025 1901 884 1901 654 
C 1901 384 1747 38 1158 38 
C 602 38 403 460 288 1021 
C 269 1110 269 1117 218 1117 
C 166 1117 160 1110 160 983 
L 160 63 
C 160 -51 166 -58 205 -58 
C 237 -58 243 -51 275 0 
C 314 57 410 211 448 276 
C 576 103 800 -64 1158 -64 
C 1792 -64 2131 283 2131 784 
C 2131 1112 1958 1285 1875 1362 
C 1683 1561 1459 1606 1190 1657 
C 838 1735 390 1825 390 2217 
C 390 2383 480 2737 1126 2737 
C 1811 2737 1850 2094 1862 1888 
C 1869 1856 1901 1849 1920 1849 
C 1978 1849 1978 1869 1978 1978 
L 1978 2697 
z
" transform="scale(0.015625)"/>
      </defs>
      <use xlink:href="#CMR17-63" transform="scale(0.996264)"/>
      <use xlink:href="#CMR17-6f" transform="translate(40.48566 0) scale(0.996264)"/>
      <use xlink:href="#CMR17-6e" transform="translate(86.176138 0) scale(0.996264)"/>
      <use xlink:href="#CMR17-74" transform="translate(134.469053 0) scale(0.996264)"/>
      <use xlink:href="#CMR17-72" transform="translate(169.749821 0) scale(0.996264)"/>
      <use xlink:href="#CMR17-61" transform="translate(205.030589 0) scale(0.996264)"/>
      <use xlink:href="#CMR17-63" transform="translate(250.721066 0) scale(0.996264)"/>
      <use xlink:href="#CMR17-74" transform="translate(291.206727 0) scale(0.996264)"/>
      <use xlink:href="#CMR17-77" transform="translate(359.384714 0) scale(0.996264)"/>
      <use xlink:href="#CMR17-6f" transform="translate(423.292141 0) scale(0.996264)"/>
      <use xlink:href="#CMR17-72" transform="translate(468.982618 0) scale(0.996264)"/>
      <use xlink:href="#CMR17-6b" transform="translate(504.263385 0) scale(0.996264)"/>
      <use xlink:href="#CMR17-63" transform="translate(585.453521 0) scale(0.996264)"/>
      <use xlink:href="#CMR17-75" transform="translate(625.939181 0) scale(0.996264)"/>
      <use xlink:href="#CMR17-6d" transform="translate(676.834551 0) scale(0.996264)"/>
      <use xlink:href="#CMR17-73" transform="translate(753.754141 0) scale(0.996264)"/>
      <use xlink:href="#CMR17-75" transform="translate(789.555479 0) scale(0.996264)"/>
      <use xlink:href="#CMR17-6d" transform="translate(840.450848 0) scale(0.996264)"/>
      <path d="M 331.970124 0 
L 359.384714 0 
L 359.384714 0.3985 
L 331.970124 0.3985 
L 331.970124 0 
z
"/>
      <path d="M 558.038931 0 
L 585.453521 0 
L 585.453521 0.3985 
L 558.038931 0.3985 
L 558.038931 0 
z
"/>
     </g>
    </g>
    <g id="line2d_28">
     <path d="M 245.473311 670.248483 
L 265.473311 670.248483 
L 285.473311 670.248483 
" style="fill: none; stroke: #004e4a; stroke-width: 1.5; stroke-linecap: round"/>
    </g>
    <g id="text_21">
     <!-- costs_scurve_diff -->
     <g style="fill: #262626" transform="translate(301.473311 677.248483) scale(0.2 -0.2)">
      <defs>
       <path id="CMR17-76" d="M 2502 2163 
C 2560 2304 2662 2560 3034 2560 
L 3034 2726 
C 2912 2726 2752 2726 2630 2726 
C 2496 2726 2285 2726 2157 2732 
L 2157 2566 
C 2317 2553 2406 2477 2406 2311 
C 2406 2253 2406 2240 2368 2151 
L 1664 377 
L 902 2286 
C 864 2369 864 2381 864 2407 
C 864 2560 1075 2560 1171 2560 
L 1171 2732 
C 1018 2726 736 2726 576 2726 
C 403 2726 205 2726 64 2732 
L 64 2560 
C 307 2560 442 2560 518 2362 
L 1446 44 
C 1485 -51 1491 -64 1549 -64 
C 1606 -64 1613 -51 1651 44 
L 2502 2163 
z
" transform="scale(0.015625)"/>
       <path id="CMR17-64" d="M 1869 4326 
L 1869 4160 
C 2246 4160 2304 4122 2304 3820 
L 2304 2345 
C 2278 2377 2016 2790 1498 2790 
C 845 2790 211 2208 211 1364 
C 211 525 806 -64 1434 -64 
C 1978 -64 2259 337 2291 380 
L 2291 -63 
L 3066 -63 
L 3066 128 
C 2688 128 2630 166 2630 473 
L 2630 4396 
L 1869 4326 
z
M 2291 755 
C 2291 563 2176 390 2029 262 
C 1811 70 1594 38 1472 38 
C 1286 38 621 134 621 1356 
C 621 2612 1363 2688 1530 2688 
C 1824 2688 2061 2522 2208 2291 
C 2291 2157 2291 2138 2291 2023 
L 2291 755 
z
" transform="scale(0.015625)"/>
       <path id="CMR17-b" d="M 2554 2560 
L 3283 2560 
L 3283 2725 
L 2541 2725 
L 2541 3494 
C 2541 4022 2810 4352 3085 4352 
C 3168 4352 3264 4327 3328 4282 
C 3277 4269 3142 4225 3142 4067 
C 3142 3901 3270 3850 3360 3850 
C 3450 3850 3578 3901 3578 4067 
C 3578 4308 3347 4454 3091 4454 
C 2842 4454 2637 4333 2477 4181 
C 2330 4390 2086 4454 1837 4454 
C 1338 4454 634 4168 634 3469 
L 634 2725 
L 122 2725 
L 122 2560 
L 634 2560 
L 634 427 
C 634 184 608 153 198 153 
L 198 -13 
C 352 0 634 0 794 0 
C 960 0 1242 0 1395 -13 
L 1395 153 
C 986 153 960 178 960 427 
L 960 2560 
L 2227 2560 
L 2227 427 
C 2227 184 2202 153 1792 153 
L 1792 -13 
C 1946 0 2240 0 2406 0 
C 2592 0 2918 0 3091 -13 
L 3091 153 
C 2630 153 2554 153 2554 439 
L 2554 2560 
z
M 947 2725 
L 947 3469 
C 947 4047 1395 4352 1824 4352 
C 1920 4352 2170 4332 2323 4187 
C 2208 4187 2099 4136 2099 3977 
C 2099 3812 2246 3767 2259 3767 
C 2227 3652 2227 3526 2227 3481 
L 2227 2725 
L 947 2725 
z
" transform="scale(0.015625)"/>
      </defs>
      <use xlink:href="#CMR17-63" transform="scale(0.996264)"/>
      <use xlink:href="#CMR17-6f" transform="translate(40.48566 0) scale(0.996264)"/>
      <use xlink:href="#CMR17-73" transform="translate(86.176138 0) scale(0.996264)"/>
      <use xlink:href="#CMR17-74" transform="translate(121.977475 0) scale(0.996264)"/>
      <use xlink:href="#CMR17-73" transform="translate(157.258243 0) scale(0.996264)"/>
      <use xlink:href="#CMR17-73" transform="translate(225.9568 0) scale(0.996264)"/>
      <use xlink:href="#CMR17-63" transform="translate(261.758138 0) scale(0.996264)"/>
      <use xlink:href="#CMR17-75" transform="translate(302.243798 0) scale(0.996264)"/>
      <use xlink:href="#CMR17-72" transform="translate(353.139168 0) scale(0.996264)"/>
      <use xlink:href="#CMR17-76" transform="translate(388.419936 0) scale(0.996264)"/>
      <use xlink:href="#CMR17-65" transform="translate(434.110398 0) scale(0.996264)"/>
      <use xlink:href="#CMR17-64" transform="translate(507.493278 0) scale(0.996264)"/>
      <use xlink:href="#CMR17-69" transform="translate(558.388648 0) scale(0.996264)"/>
      <use xlink:href="#CMR17-b" transform="translate(583.259706 0) scale(0.996264)"/>
      <path d="M 198.54221 0 
L 225.9568 0 
L 225.9568 0.3985 
L 198.54221 0.3985 
L 198.54221 0 
z
"/>
      <path d="M 480.078687 0 
L 507.493278 0 
L 507.493278 0.3985 
L 480.078687 0.3985 
L 480.078687 0 
z
"/>
     </g>
    </g>
    <g id="line2d_29">
     <path d="M 245.473311 698.124117 
L 265.473311 698.124117 
L 285.473311 698.124117 
" style="fill: none; stroke: #c17150; stroke-width: 1.5; stroke-linecap: round"/>
    </g>
    <g id="text_22">
     <!-- tilbuds_og_entreprisekontrakt -->
     <g style="fill: #262626" transform="translate(301.473311 705.124117) scale(0.2 -0.2)">
      <defs>
       <path id="CMR17-67" d="M 710 1164 
C 832 1068 1043 960 1299 960 
C 1805 960 2240 1357 2240 1888 
C 2240 2054 2189 2310 1997 2509 
C 2176 2692 2438 2752 2586 2752 
C 2611 2752 2650 2752 2682 2734 
C 2656 2728 2598 2703 2598 2605 
C 2598 2527 2656 2471 2739 2471 
C 2835 2471 2886 2533 2886 2614 
C 2886 2731 2790 2854 2586 2854 
C 2330 2854 2106 2738 1926 2580 
C 1734 2753 1504 2816 1299 2816 
C 794 2816 358 2419 358 1888 
C 358 1522 570 1292 634 1228 
C 442 1004 442 743 442 711 
C 442 545 506 302 723 168 
C 390 85 128 -169 128 -486 
C 128 -943 736 -1280 1466 -1280 
C 2170 -1280 2803 -956 2803 -479 
C 2803 384 1856 384 1363 384 
C 1216 384 954 384 922 391 
C 723 423 589 602 589 826 
C 589 883 589 1024 710 1164 
z
M 1299 1068 
C 736 1068 736 1760 736 1889 
C 736 2016 736 2708 1299 2708 
C 1862 2708 1862 2016 1862 1889 
C 1862 1760 1862 1068 1299 1068 
z
M 1466 -1171 
C 826 -1171 384 -835 384 -486 
C 384 -289 493 -105 634 -4 
C 794 104 858 104 1293 104 
C 1818 104 2547 104 2547 -486 
C 2547 -835 2106 -1171 1466 -1171 
z
" transform="scale(0.015625)"/>
      </defs>
      <use xlink:href="#CMR17-74" transform="scale(0.996264)"/>
      <use xlink:href="#CMR17-69" transform="translate(35.280768 0) scale(0.996264)"/>
      <use xlink:href="#CMR17-6c" transform="translate(60.151826 0) scale(0.996264)"/>
      <use xlink:href="#CMR17-62" transform="translate(85.022885 0) scale(0.996264)"/>
      <use xlink:href="#CMR17-75" transform="translate(135.918255 0) scale(0.996264)"/>
      <use xlink:href="#CMR17-64" transform="translate(186.813624 0) scale(0.996264)"/>
      <use xlink:href="#CMR17-73" transform="translate(237.708994 0) scale(0.996264)"/>
      <use xlink:href="#CMR17-6f" transform="translate(306.407551 0) scale(0.996264)"/>
      <use xlink:href="#CMR17-67" transform="translate(352.098028 0) scale(0.996264)"/>
      <use xlink:href="#CMR17-65" transform="translate(430.685725 0) scale(0.996264)"/>
      <use xlink:href="#CMR17-6e" transform="translate(471.171386 0) scale(0.996264)"/>
      <use xlink:href="#CMR17-74" transform="translate(519.464301 0) scale(0.996264)"/>
      <use xlink:href="#CMR17-72" transform="translate(554.745069 0) scale(0.996264)"/>
      <use xlink:href="#CMR17-65" transform="translate(590.025837 0) scale(0.996264)"/>
      <use xlink:href="#CMR17-70" transform="translate(630.511497 0) scale(0.996264)"/>
      <use xlink:href="#CMR17-72" transform="translate(681.406867 0) scale(0.996264)"/>
      <use xlink:href="#CMR17-69" transform="translate(716.687635 0) scale(0.996264)"/>
      <use xlink:href="#CMR17-73" transform="translate(741.558693 0) scale(0.996264)"/>
      <use xlink:href="#CMR17-65" transform="translate(777.360031 0) scale(0.996264)"/>
      <use xlink:href="#CMR17-6b" transform="translate(817.845692 0) scale(0.996264)"/>
      <use xlink:href="#CMR17-6f" transform="translate(863.536153 0) scale(0.996264)"/>
      <use xlink:href="#CMR17-6e" transform="translate(909.226631 0) scale(0.996264)"/>
      <use xlink:href="#CMR17-74" transform="translate(957.519546 0) scale(0.996264)"/>
      <use xlink:href="#CMR17-72" transform="translate(992.800314 0) scale(0.996264)"/>
      <use xlink:href="#CMR17-61" transform="translate(1028.081082 0) scale(0.996264)"/>
      <use xlink:href="#CMR17-6b" transform="translate(1073.771559 0) scale(0.996264)"/>
      <use xlink:href="#CMR17-74" transform="translate(1122.064475 0) scale(0.996264)"/>
      <path d="M 278.992961 0 
L 306.407551 0 
L 306.407551 0.3985 
L 278.992961 0.3985 
L 278.992961 0 
z
"/>
      <path d="M 403.271135 0 
L 430.685725 0 
L 430.685725 0.3985 
L 403.271135 0.3985 
L 403.271135 0 
z
"/>
     </g>
    </g>
    <g id="line2d_30">
     <path d="M 572.942187 670.248483 
L 592.942187 670.248483 
L 612.942187 670.248483 
" style="fill: none; stroke: #c8f0e6; stroke-width: 1.5; stroke-linecap: round"/>
    </g>
    <g id="text_23">
     <!-- billable_hours_qty_cumsum -->
     <g style="fill: #262626" transform="translate(628.942187 677.248483) scale(0.2 -0.2)">
      <defs>
       <path id="CMR17-68" d="M 2656 1933 
C 2656 2259 2592 2790 1837 2790 
C 1312 2790 1056 2368 979 2157 
L 973 2157 
L 973 4396 
L 211 4326 
L 211 4160 
C 589 4160 646 4122 646 3817 
L 646 426 
C 646 184 621 153 211 153 
L 211 -13 
C 365 0 646 0 813 0 
C 979 0 1267 0 1421 -13 
L 1421 153 
C 1011 153 986 178 986 428 
L 986 1658 
C 986 2247 1344 2688 1792 2688 
C 2266 2688 2317 2266 2317 1958 
L 2317 428 
C 2317 184 2291 153 1882 153 
L 1882 -13 
C 2035 0 2317 0 2483 0 
C 2650 0 2938 0 3091 -13 
L 3091 153 
C 2682 153 2656 178 2656 428 
L 2656 1933 
z
" transform="scale(0.015625)"/>
       <path id="CMR17-71" d="M 2630 2802 
L 2528 2802 
L 2336 2172 
C 2189 2509 1920 2802 1491 2802 
C 838 2802 211 2223 211 1383 
C 211 548 800 -38 1440 -38 
C 1933 -38 2208 338 2291 478 
L 2291 -789 
C 2291 -1031 2266 -1063 1856 -1063 
L 1856 -1228 
C 2010 -1216 2291 -1216 2458 -1216 
C 2624 -1216 2912 -1216 3066 -1228 
L 3066 -1063 
C 2656 -1063 2630 -1037 2630 -789 
L 2630 2802 
z
M 2304 886 
C 2304 612 2074 357 2054 338 
C 1856 115 1626 64 1472 64 
C 992 64 621 669 621 1375 
C 621 2121 1043 2688 1536 2688 
C 2048 2688 2304 2108 2304 1777 
L 2304 886 
z
" transform="scale(0.015625)"/>
       <path id="CMR17-79" d="M 2496 2197 
C 2656 2586 2944 2586 3034 2586 
L 3034 2752 
C 2912 2752 2752 2752 2630 2752 
C 2496 2752 2285 2752 2157 2758 
L 2157 2592 
C 2400 2573 2406 2394 2406 2343 
C 2406 2280 2394 2248 2362 2171 
L 1664 449 
L 902 2306 
C 870 2382 870 2426 870 2433 
C 870 2573 1018 2586 1171 2586 
L 1171 2758 
C 1018 2752 742 2752 582 2752 
C 410 2752 205 2752 64 2758 
L 64 2586 
C 410 2586 448 2554 531 2350 
L 1485 15 
C 1197 -738 1030 -1178 627 -1178 
C 557 -1178 397 -1159 282 -1044 
C 429 -1031 493 -942 493 -833 
C 493 -725 416 -629 288 -629 
C 147 -629 77 -725 77 -840 
C 77 -1095 339 -1280 627 -1280 
C 998 -1280 1229 -922 1357 -604 
L 2496 2197 
z
" transform="scale(0.015625)"/>
      </defs>
      <use xlink:href="#CMR17-62" transform="scale(0.996264)"/>
      <use xlink:href="#CMR17-69" transform="translate(50.89537 0) scale(0.996264)"/>
      <use xlink:href="#CMR17-6c" transform="translate(75.766428 0) scale(0.996264)"/>
      <use xlink:href="#CMR17-6c" transform="translate(100.637487 0) scale(0.996264)"/>
      <use xlink:href="#CMR17-61" transform="translate(125.508545 0) scale(0.996264)"/>
      <use xlink:href="#CMR17-62" transform="translate(171.199022 0) scale(0.996264)"/>
      <use xlink:href="#CMR17-6c" transform="translate(222.094392 0) scale(0.996264)"/>
      <use xlink:href="#CMR17-65" transform="translate(246.965451 0) scale(0.996264)"/>
      <use xlink:href="#CMR17-68" transform="translate(320.348331 0) scale(0.996264)"/>
      <use xlink:href="#CMR17-6f" transform="translate(371.2437 0) scale(0.996264)"/>
      <use xlink:href="#CMR17-75" transform="translate(416.934177 0) scale(0.996264)"/>
      <use xlink:href="#CMR17-72" transform="translate(467.829547 0) scale(0.996264)"/>
      <use xlink:href="#CMR17-73" transform="translate(503.110315 0) scale(0.996264)"/>
      <use xlink:href="#CMR17-71" transform="translate(571.808872 0) scale(0.996264)"/>
      <use xlink:href="#CMR17-74" transform="translate(620.101788 0) scale(0.996264)"/>
      <use xlink:href="#CMR17-79" transform="translate(652.780102 0) scale(0.996264)"/>
      <use xlink:href="#CMR17-63" transform="translate(733.970237 0) scale(0.996264)"/>
      <use xlink:href="#CMR17-75" transform="translate(774.455898 0) scale(0.996264)"/>
      <use xlink:href="#CMR17-6d" transform="translate(825.351268 0) scale(0.996264)"/>
      <use xlink:href="#CMR17-73" transform="translate(902.270857 0) scale(0.996264)"/>
      <use xlink:href="#CMR17-75" transform="translate(938.072195 0) scale(0.996264)"/>
      <use xlink:href="#CMR17-6d" transform="translate(988.967565 0) scale(0.996264)"/>
      <path d="M 292.93374 0 
L 320.348331 0 
L 320.348331 0.3985 
L 292.93374 0.3985 
L 292.93374 0 
z
"/>
      <path d="M 544.394282 0 
L 571.808872 0 
L 571.808872 0.3985 
L 544.394282 0.3985 
L 544.394282 0 
z
"/>
      <path d="M 706.555647 0 
L 733.970237 0 
L 733.970237 0.3985 
L 706.555647 0.3985 
L 706.555647 0 
z
"/>
     </g>
    </g>
    <g id="line2d_31">
     <path d="M 572.942187 698.124117 
L 592.942187 698.124117 
L 612.942187 698.124117 
" style="fill: none; stroke: #ffbb00; stroke-width: 1.5; stroke-linecap: round"/>
    </g>
    <g id="text_24">
     <!-- ombygning -->
     <g style="fill: #262626" transform="translate(628.942187 705.124117) scale(0.2 -0.2)">
      <use xlink:href="#CMR17-6f" transform="scale(0.996264)"/>
      <use xlink:href="#CMR17-6d" transform="translate(45.690477 0) scale(0.996264)"/>
      <use xlink:href="#CMR17-62" transform="translate(120.007613 0) scale(0.996264)"/>
      <use xlink:href="#CMR17-79" transform="translate(168.300529 0) scale(0.996264)"/>
      <use xlink:href="#CMR17-67" transform="translate(216.593445 0) scale(0.996264)"/>
      <use xlink:href="#CMR17-6e" transform="translate(262.283922 0) scale(0.996264)"/>
      <use xlink:href="#CMR17-69" transform="translate(313.179292 0) scale(0.996264)"/>
      <use xlink:href="#CMR17-6e" transform="translate(338.05035 0) scale(0.996264)"/>
      <use xlink:href="#CMR17-67" transform="translate(388.94572 0) scale(0.996264)"/>
     </g>
    </g>
    <g id="line2d_32">
     <path d="M 882.119441 670.248483 
L 902.119441 670.248483 
L 922.119441 670.248483 
" style="fill: none; stroke: #dcfae9; stroke-width: 1.5; stroke-linecap: round"/>
    </g>
    <g id="text_25">
     <!-- kbyg33_no_limitations -->
     <g style="fill: #262626" transform="translate(938.119441 677.248483) scale(0.2 -0.2)">
      <use xlink:href="#CMR17-6b" transform="scale(0.996264)"/>
      <use xlink:href="#CMR17-62" transform="translate(48.292916 0) scale(0.996264)"/>
      <use xlink:href="#CMR17-79" transform="translate(96.585832 0) scale(0.996264)"/>
      <use xlink:href="#CMR17-67" transform="translate(144.878748 0) scale(0.996264)"/>
      <use xlink:href="#CMR17-33" transform="translate(190.569225 0) scale(0.996264)"/>
      <use xlink:href="#CMR17-33" transform="translate(236.259702 0) scale(0.996264)"/>
      <use xlink:href="#CMR17-6e" transform="translate(314.847398 0) scale(0.996264)"/>
      <use xlink:href="#CMR17-6f" transform="translate(365.742768 0) scale(0.996264)"/>
      <use xlink:href="#CMR17-6c" transform="translate(444.330465 0) scale(0.996264)"/>
      <use xlink:href="#CMR17-69" transform="translate(469.201523 0) scale(0.996264)"/>
      <use xlink:href="#CMR17-6d" transform="translate(494.072582 0) scale(0.996264)"/>
      <use xlink:href="#CMR17-69" transform="translate(570.992172 0) scale(0.996264)"/>
      <use xlink:href="#CMR17-74" transform="translate(595.86323 0) scale(0.996264)"/>
      <use xlink:href="#CMR17-61" transform="translate(631.143998 0) scale(0.996264)"/>
      <use xlink:href="#CMR17-74" transform="translate(676.834475 0) scale(0.996264)"/>
      <use xlink:href="#CMR17-69" transform="translate(712.115243 0) scale(0.996264)"/>
      <use xlink:href="#CMR17-6f" transform="translate(736.986301 0) scale(0.996264)"/>
      <use xlink:href="#CMR17-6e" transform="translate(782.676778 0) scale(0.996264)"/>
      <use xlink:href="#CMR17-73" transform="translate(833.572148 0) scale(0.996264)"/>
      <path d="M 287.432808 0 
L 314.847398 0 
L 314.847398 0.3985 
L 287.432808 0.3985 
L 287.432808 0 
z
"/>
      <path d="M 416.915875 0 
L 444.330465 0 
L 444.330465 0.3985 
L 416.915875 0.3985 
L 416.915875 0 
z
"/>
     </g>
    </g>
    <g id="line2d_33">
     <path d="M 882.119441 698.124117 
L 902.119441 698.124117 
L 922.119441 698.124117 
" style="fill: none; stroke: #a1d9cc; stroke-width: 1.5; stroke-linecap: round"/>
    </g>
    <g id="text_26">
     <!-- billable_rate_dep -->
     <g style="fill: #262626" transform="translate(938.119441 705.124117) scale(0.2 -0.2)">
      <use xlink:href="#CMR17-62" transform="scale(0.996264)"/>
      <use xlink:href="#CMR17-69" transform="translate(50.89537 0) scale(0.996264)"/>
      <use xlink:href="#CMR17-6c" transform="translate(75.766428 0) scale(0.996264)"/>
      <use xlink:href="#CMR17-6c" transform="translate(100.637487 0) scale(0.996264)"/>
      <use xlink:href="#CMR17-61" transform="translate(125.508545 0) scale(0.996264)"/>
      <use xlink:href="#CMR17-62" transform="translate(171.199022 0) scale(0.996264)"/>
      <use xlink:href="#CMR17-6c" transform="translate(222.094392 0) scale(0.996264)"/>
      <use xlink:href="#CMR17-65" transform="translate(246.965451 0) scale(0.996264)"/>
      <use xlink:href="#CMR17-72" transform="translate(320.348331 0) scale(0.996264)"/>
      <use xlink:href="#CMR17-61" transform="translate(355.629098 0) scale(0.996264)"/>
      <use xlink:href="#CMR17-74" transform="translate(401.319576 0) scale(0.996264)"/>
      <use xlink:href="#CMR17-65" transform="translate(436.600343 0) scale(0.996264)"/>
      <use xlink:href="#CMR17-64" transform="translate(509.983223 0) scale(0.996264)"/>
      <use xlink:href="#CMR17-65" transform="translate(560.878593 0) scale(0.996264)"/>
      <use xlink:href="#CMR17-70" transform="translate(601.364254 0) scale(0.996264)"/>
      <path d="M 292.93374 0 
L 320.348331 0 
L 320.348331 0.3985 
L 292.93374 0.3985 
L 292.93374 0 
z
"/>
      <path d="M 482.568633 0 
L 509.983223 0 
L 509.983223 0.3985 
L 482.568633 0.3985 
L 482.568633 0 
z
"/>
     </g>
    </g>
    <g id="line2d_34">
     <path d="M 1151.994023 670.248483 
L 1171.994023 670.248483 
L 1191.994023 670.248483 
" style="fill: none; stroke: #1e8c82; stroke-width: 1.5; stroke-linecap: round"/>
    </g>
    <g id="text_27">
     <!-- kbyg44_employment_expectations -->
     <g style="fill: #262626" transform="translate(1207.994023 677.248483) scale(0.2 -0.2)">
      <defs>
       <path id="CMR17-78" d="M 1664 1477 
C 1856 1726 2074 2006 2253 2216 
C 2464 2458 2707 2560 2989 2560 
L 2989 2726 
C 2880 2726 2656 2726 2541 2726 
C 2368 2726 2170 2726 2022 2732 
L 2022 2566 
C 2112 2553 2163 2489 2163 2400 
C 2163 2285 2099 2215 2067 2171 
L 1594 1573 
L 1030 2306 
C 973 2376 973 2388 973 2420 
C 973 2497 1037 2560 1146 2560 
L 1146 2732 
C 992 2726 717 2726 557 2726 
C 384 2726 179 2726 38 2732 
L 38 2560 
C 384 2560 461 2534 614 2343 
L 1350 1395 
C 1363 1382 1395 1344 1395 1325 
C 1395 1299 838 619 768 530 
C 480 185 179 160 6 160 
L 6 0 
C 115 0 339 0 454 0 
C 582 0 864 0 979 -6 
L 979 160 
C 941 166 838 179 838 325 
C 838 440 890 510 947 586 
L 1478 1236 
L 2035 512 
C 2086 442 2163 346 2163 301 
C 2163 211 2086 160 1984 160 
L 1984 -6 
C 2138 0 2413 0 2573 0 
C 2746 0 2950 0 3091 -6 
L 3091 160 
C 2771 160 2675 172 2522 370 
L 1664 1477 
z
" transform="scale(0.015625)"/>
      </defs>
      <use xlink:href="#CMR17-6b" transform="scale(0.996264)"/>
      <use xlink:href="#CMR17-62" transform="translate(48.292916 0) scale(0.996264)"/>
      <use xlink:href="#CMR17-79" transform="translate(96.585832 0) scale(0.996264)"/>
      <use xlink:href="#CMR17-67" transform="translate(144.878748 0) scale(0.996264)"/>
      <use xlink:href="#CMR17-34" transform="translate(190.569225 0) scale(0.996264)"/>
      <use xlink:href="#CMR17-34" transform="translate(236.259702 0) scale(0.996264)"/>
      <use xlink:href="#CMR17-65" transform="translate(314.847398 0) scale(0.996264)"/>
      <use xlink:href="#CMR17-6d" transform="translate(355.333059 0) scale(0.996264)"/>
      <use xlink:href="#CMR17-70" transform="translate(432.252649 0) scale(0.996264)"/>
      <use xlink:href="#CMR17-6c" transform="translate(483.148019 0) scale(0.996264)"/>
      <use xlink:href="#CMR17-6f" transform="translate(508.019077 0) scale(0.996264)"/>
      <use xlink:href="#CMR17-79" transform="translate(551.1071 0) scale(0.996264)"/>
      <use xlink:href="#CMR17-6d" transform="translate(599.400016 0) scale(0.996264)"/>
      <use xlink:href="#CMR17-65" transform="translate(676.319606 0) scale(0.996264)"/>
      <use xlink:href="#CMR17-6e" transform="translate(716.805266 0) scale(0.996264)"/>
      <use xlink:href="#CMR17-74" transform="translate(765.098182 0) scale(0.996264)"/>
      <use xlink:href="#CMR17-65" transform="translate(833.27617 0) scale(0.996264)"/>
      <use xlink:href="#CMR17-78" transform="translate(873.76183 0) scale(0.996264)"/>
      <use xlink:href="#CMR17-70" transform="translate(922.054746 0) scale(0.996264)"/>
      <use xlink:href="#CMR17-65" transform="translate(975.552554 0) scale(0.996264)"/>
      <use xlink:href="#CMR17-63" transform="translate(1016.038215 0) scale(0.996264)"/>
      <use xlink:href="#CMR17-74" transform="translate(1056.523875 0) scale(0.996264)"/>
      <use xlink:href="#CMR17-61" transform="translate(1091.804643 0) scale(0.996264)"/>
      <use xlink:href="#CMR17-74" transform="translate(1137.49512 0) scale(0.996264)"/>
      <use xlink:href="#CMR17-69" transform="translate(1172.775888 0) scale(0.996264)"/>
      <use xlink:href="#CMR17-6f" transform="translate(1197.646947 0) scale(0.996264)"/>
      <use xlink:href="#CMR17-6e" transform="translate(1243.337424 0) scale(0.996264)"/>
      <use xlink:href="#CMR17-73" transform="translate(1294.232793 0) scale(0.996264)"/>
      <path d="M 287.432808 0 
L 314.847398 0 
L 314.847398 0.3985 
L 287.432808 0.3985 
L 287.432808 0 
z
"/>
      <path d="M 805.861579 0 
L 833.27617 0 
L 833.27617 0.3985 
L 805.861579 0.3985 
L 805.861579 0 
z
"/>
     </g>
    </g>
    <g id="line2d_35">
     <path d="M 1151.994023 698.124117 
L 1171.994023 698.124117 
L 1191.994023 698.124117 
" style="fill: none; stroke: #006e64; stroke-width: 1.5; stroke-linecap: round"/>
    </g>
    <g id="text_28">
     <!-- progress -->
     <g style="fill: #262626" transform="translate(1207.994023 705.124117) scale(0.2 -0.2)">
      <use xlink:href="#CMR17-70" transform="scale(0.996264)"/>
      <use xlink:href="#CMR17-72" transform="translate(50.89537 0) scale(0.996264)"/>
      <use xlink:href="#CMR17-6f" transform="translate(86.176138 0) scale(0.996264)"/>
      <use xlink:href="#CMR17-67" transform="translate(131.866615 0) scale(0.996264)"/>
      <use xlink:href="#CMR17-72" transform="translate(177.557092 0) scale(0.996264)"/>
      <use xlink:href="#CMR17-65" transform="translate(212.83786 0) scale(0.996264)"/>
      <use xlink:href="#CMR17-73" transform="translate(253.32352 0) scale(0.996264)"/>
      <use xlink:href="#CMR17-73" transform="translate(289.124858 0) scale(0.996264)"/>
     </g>
    </g>
   </g>
  </g>
 </g>
 <defs>
  <clipPath id="pd05e55001b">
   <rect x="432.005331" y="25.604645" width="575.989338" height="563.31258"/>
  </clipPath>
 </defs>
</svg>
