<?xml version="1.0" encoding="utf-8" standalone="no"?>
<!DOCTYPE svg PUBLIC "-//W3C//DTD SVG 1.1//EN"
  "http://www.w3.org/Graphics/SVG/1.1/DTD/svg11.dtd">
<svg xmlns:xlink="http://www.w3.org/1999/xlink" width="1440pt" height="720pt" viewBox="0 0 1440 720" xmlns="http://www.w3.org/2000/svg" version="1.1">
 <metadata>
  <rdf:RDF xmlns:dc="http://purl.org/dc/elements/1.1/" xmlns:cc="http://creativecommons.org/ns#" xmlns:rdf="http://www.w3.org/1999/02/22-rdf-syntax-ns#">
   <cc:Work>
    <dc:type rdf:resource="http://purl.org/dc/dcmitype/StillImage"/>
    <dc:date>2023-10-23T20:03:31.311418</dc:date>
    <dc:format>image/svg+xml</dc:format>
    <dc:creator>
     <cc:Agent>
      <dc:title>Matplotlib v3.6.3, https://matplotlib.org/</dc:title>
     </cc:Agent>
    </dc:creator>
   </cc:Work>
  </rdf:RDF>
 </metadata>
 <defs>
  <style type="text/css">*{stroke-linejoin: round; stroke-linecap: butt}</style>
 </defs>
 <g id="figure_1">
  <g id="patch_1">
   <path d="M 0 720 
L 1440 720 
L 1440 0 
L 0 0 
z
" style="fill: #ffffff"/>
  </g>
  <g id="axes_1">
   <g id="patch_2">
    <path d="M 44.816075 633.447079 
L 1436.99976 633.447079 
L 1436.99976 17.30242 
L 44.816075 17.30242 
z
" style="fill: #ffffff"/>
   </g>
   <g id="matplotlib.axis_1">
    <g id="xtick_1">
     <g id="line2d_1">
      <path d="M 140.244357 633.447079 
L 140.244357 17.30242 
" clip-path="url(#pf2939a12f6)" style="fill: none; stroke: #cccccc; stroke-opacity: 0.5; stroke-width: 0.8; stroke-linecap: round"/>
     </g>
     <g id="text_1">
      <!-- $\mathdefault{2014}$ -->
      <g transform="translate(130.281687 643.865577) scale(0.1 -0.1)">
       <defs>
        <path id="CMR17-32" d="M 2669 989 
L 2554 989 
C 2490 536 2438 459 2413 420 
C 2381 369 1920 369 1830 369 
L 602 369 
C 832 619 1280 1072 1824 1597 
C 2214 1967 2669 2402 2669 3035 
C 2669 3790 2067 4224 1395 4224 
C 691 4224 262 3604 262 3030 
C 262 2780 448 2748 525 2748 
C 589 2748 781 2787 781 3010 
C 781 3207 614 3264 525 3264 
C 486 3264 448 3258 422 3245 
C 544 3790 915 4058 1306 4058 
C 1862 4058 2227 3617 2227 3035 
C 2227 2479 1901 2000 1536 1584 
L 262 146 
L 262 0 
L 2515 0 
L 2669 989 
z
" transform="scale(0.015625)"/>
        <path id="CMR17-30" d="M 2688 2025 
C 2688 2416 2682 3080 2413 3591 
C 2176 4039 1798 4198 1466 4198 
C 1158 4198 768 4058 525 3597 
C 269 3118 243 2524 243 2025 
C 243 1661 250 1106 448 619 
C 723 -39 1216 -128 1466 -128 
C 1760 -128 2208 -7 2470 600 
C 2662 1042 2688 1559 2688 2025 
z
M 1466 -26 
C 1056 -26 813 325 723 812 
C 653 1188 653 1738 653 2096 
C 653 2588 653 2997 736 3387 
C 858 3929 1216 4096 1466 4096 
C 1728 4096 2067 3923 2189 3400 
C 2272 3036 2278 2607 2278 2096 
C 2278 1680 2278 1169 2202 792 
C 2067 95 1690 -26 1466 -26 
z
" transform="scale(0.015625)"/>
        <path id="CMR17-31" d="M 1702 4058 
C 1702 4192 1696 4192 1606 4192 
C 1357 3916 979 3827 621 3827 
C 602 3827 570 3827 563 3808 
C 557 3795 557 3782 557 3648 
C 755 3648 1088 3686 1344 3839 
L 1344 461 
C 1344 236 1331 160 781 160 
L 589 160 
L 589 0 
C 896 0 1216 0 1523 0 
C 1830 0 2150 0 2458 0 
L 2458 160 
L 2266 160 
C 1715 160 1702 230 1702 458 
L 1702 4058 
z
" transform="scale(0.015625)"/>
        <path id="CMR17-34" d="M 2150 4122 
C 2150 4256 2144 4256 2029 4256 
L 128 1254 
L 128 1088 
L 1779 1088 
L 1779 457 
C 1779 224 1766 160 1318 160 
L 1197 160 
L 1197 0 
C 1402 0 1747 0 1965 0 
C 2182 0 2528 0 2733 0 
L 2733 160 
L 2611 160 
C 2163 160 2150 224 2150 457 
L 2150 1088 
L 2803 1088 
L 2803 1254 
L 2150 1254 
L 2150 4122 
z
M 1798 3703 
L 1798 1254 
L 256 1254 
L 1798 3703 
z
" transform="scale(0.015625)"/>
       </defs>
       <use xlink:href="#CMR17-32" transform="scale(0.996264)"/>
       <use xlink:href="#CMR17-30" transform="translate(45.690477 0) scale(0.996264)"/>
       <use xlink:href="#CMR17-31" transform="translate(91.380954 0) scale(0.996264)"/>
       <use xlink:href="#CMR17-34" transform="translate(137.071431 0) scale(0.996264)"/>
      </g>
     </g>
    </g>
    <g id="xtick_2">
     <g id="line2d_2">
      <path d="M 267.784904 633.447079 
L 267.784904 17.30242 
" clip-path="url(#pf2939a12f6)" style="fill: none; stroke: #cccccc; stroke-opacity: 0.5; stroke-width: 0.8; stroke-linecap: round"/>
     </g>
     <g id="text_2">
      <!-- $\mathdefault{2015}$ -->
      <g transform="translate(257.822233 643.865577) scale(0.1 -0.1)">
       <defs>
        <path id="CMR17-35" d="M 730 3692 
C 794 3666 1056 3584 1325 3584 
C 1920 3584 2246 3911 2432 4100 
C 2432 4157 2432 4192 2394 4192 
C 2387 4192 2374 4192 2323 4163 
C 2099 4058 1837 3973 1517 3973 
C 1325 3973 1037 3999 723 4139 
C 653 4171 640 4171 634 4171 
C 602 4171 595 4164 595 4037 
L 595 2203 
C 595 2089 595 2057 659 2057 
C 691 2057 704 2070 736 2114 
C 941 2401 1222 2522 1542 2522 
C 1766 2522 2246 2382 2246 1289 
C 2246 1085 2246 715 2054 421 
C 1894 159 1645 25 1370 25 
C 947 25 518 320 403 814 
C 429 807 480 795 506 795 
C 589 795 749 840 749 1038 
C 749 1210 627 1280 506 1280 
C 358 1280 262 1190 262 1011 
C 262 454 704 -128 1382 -128 
C 2042 -128 2669 440 2669 1264 
C 2669 2030 2170 2624 1549 2624 
C 1222 2624 947 2503 730 2274 
L 730 3692 
z
" transform="scale(0.015625)"/>
       </defs>
       <use xlink:href="#CMR17-32" transform="scale(0.996264)"/>
       <use xlink:href="#CMR17-30" transform="translate(45.690477 0) scale(0.996264)"/>
       <use xlink:href="#CMR17-31" transform="translate(91.380954 0) scale(0.996264)"/>
       <use xlink:href="#CMR17-35" transform="translate(137.071431 0) scale(0.996264)"/>
      </g>
     </g>
    </g>
    <g id="xtick_3">
     <g id="line2d_3">
      <path d="M 395.32545 633.447079 
L 395.32545 17.30242 
" clip-path="url(#pf2939a12f6)" style="fill: none; stroke: #cccccc; stroke-opacity: 0.5; stroke-width: 0.8; stroke-linecap: round"/>
     </g>
     <g id="text_3">
      <!-- $\mathdefault{2016}$ -->
      <g transform="translate(385.36278 643.865577) scale(0.1 -0.1)">
       <defs>
        <path id="CMR17-36" d="M 678 2176 
C 678 3690 1395 4032 1811 4032 
C 1946 4032 2272 4009 2400 3776 
C 2298 3776 2106 3776 2106 3553 
C 2106 3381 2246 3323 2336 3323 
C 2394 3323 2566 3348 2566 3560 
C 2566 3954 2246 4179 1805 4179 
C 1043 4179 243 3390 243 1984 
C 243 253 966 -128 1478 -128 
C 2099 -128 2688 427 2688 1283 
C 2688 2081 2170 2662 1517 2662 
C 1126 2662 838 2407 678 1960 
L 678 2176 
z
M 1478 25 
C 691 25 691 1200 691 1436 
C 691 1896 909 2560 1504 2560 
C 1613 2560 1926 2560 2138 2120 
C 2253 1870 2253 1609 2253 1289 
C 2253 944 2253 690 2118 434 
C 1978 171 1773 25 1478 25 
z
" transform="scale(0.015625)"/>
       </defs>
       <use xlink:href="#CMR17-32" transform="scale(0.996264)"/>
       <use xlink:href="#CMR17-30" transform="translate(45.690477 0) scale(0.996264)"/>
       <use xlink:href="#CMR17-31" transform="translate(91.380954 0) scale(0.996264)"/>
       <use xlink:href="#CMR17-36" transform="translate(137.071431 0) scale(0.996264)"/>
      </g>
     </g>
    </g>
    <g id="xtick_4">
     <g id="line2d_4">
      <path d="M 523.215423 633.447079 
L 523.215423 17.30242 
" clip-path="url(#pf2939a12f6)" style="fill: none; stroke: #cccccc; stroke-opacity: 0.5; stroke-width: 0.8; stroke-linecap: round"/>
     </g>
     <g id="text_4">
      <!-- $\mathdefault{2017}$ -->
      <g transform="translate(513.252752 643.865577) scale(0.1 -0.1)">
       <defs>
        <path id="CMR17-37" d="M 2886 3941 
L 2886 4081 
L 1382 4081 
C 634 4081 621 4165 595 4288 
L 480 4288 
L 294 3094 
L 410 3094 
C 429 3215 474 3540 550 3661 
C 589 3712 1062 3712 1171 3712 
L 2579 3712 
L 1869 2661 
C 1395 1954 1069 999 1069 165 
C 1069 89 1069 -128 1299 -128 
C 1530 -128 1530 89 1530 171 
L 1530 465 
C 1530 1508 1709 2196 2003 2636 
L 2886 3941 
z
" transform="scale(0.015625)"/>
       </defs>
       <use xlink:href="#CMR17-32" transform="scale(0.996264)"/>
       <use xlink:href="#CMR17-30" transform="translate(45.690477 0) scale(0.996264)"/>
       <use xlink:href="#CMR17-31" transform="translate(91.380954 0) scale(0.996264)"/>
       <use xlink:href="#CMR17-37" transform="translate(137.071431 0) scale(0.996264)"/>
      </g>
     </g>
    </g>
    <g id="xtick_5">
     <g id="line2d_5">
      <path d="M 650.755969 633.447079 
L 650.755969 17.30242 
" clip-path="url(#pf2939a12f6)" style="fill: none; stroke: #cccccc; stroke-opacity: 0.5; stroke-width: 0.8; stroke-linecap: round"/>
     </g>
     <g id="text_5">
      <!-- $\mathdefault{2018}$ -->
      <g transform="translate(640.793299 643.865577) scale(0.1 -0.1)">
       <defs>
        <path id="CMR17-38" d="M 1741 2264 
C 2144 2467 2554 2773 2554 3263 
C 2554 3841 1990 4179 1472 4179 
C 890 4179 378 3759 378 3180 
C 378 3021 416 2747 666 2505 
C 730 2442 998 2251 1171 2130 
C 883 1983 211 1634 211 934 
C 211 279 838 -128 1459 -128 
C 2144 -128 2720 362 2720 1010 
C 2720 1590 2330 1857 2074 2029 
L 1741 2264 
z
M 902 2822 
C 851 2854 595 3051 595 3351 
C 595 3739 998 4032 1459 4032 
C 1965 4032 2336 3676 2336 3262 
C 2336 2669 1670 2331 1638 2331 
C 1632 2331 1626 2331 1574 2370 
L 902 2822 
z
M 2080 1519 
C 2176 1449 2483 1240 2483 851 
C 2483 381 2010 25 1472 25 
C 890 25 448 438 448 940 
C 448 1443 838 1862 1280 2060 
L 2080 1519 
z
" transform="scale(0.015625)"/>
       </defs>
       <use xlink:href="#CMR17-32" transform="scale(0.996264)"/>
       <use xlink:href="#CMR17-30" transform="translate(45.690477 0) scale(0.996264)"/>
       <use xlink:href="#CMR17-31" transform="translate(91.380954 0) scale(0.996264)"/>
       <use xlink:href="#CMR17-38" transform="translate(137.071431 0) scale(0.996264)"/>
      </g>
     </g>
    </g>
    <g id="xtick_6">
     <g id="line2d_6">
      <path d="M 778.296516 633.447079 
L 778.296516 17.30242 
" clip-path="url(#pf2939a12f6)" style="fill: none; stroke: #cccccc; stroke-opacity: 0.5; stroke-width: 0.8; stroke-linecap: round"/>
     </g>
     <g id="text_6">
      <!-- $\mathdefault{2019}$ -->
      <g transform="translate(768.333845 643.865577) scale(0.1 -0.1)">
       <defs>
        <path id="CMR17-39" d="M 2253 1864 
C 2253 464 1670 31 1190 31 
C 1043 31 685 31 538 294 
C 704 268 826 357 826 518 
C 826 692 685 749 595 749 
C 538 749 365 723 365 506 
C 365 71 742 -128 1203 -128 
C 1939 -128 2688 674 2688 2073 
C 2688 3817 1971 4179 1485 4179 
C 851 4179 243 3628 243 2778 
C 243 1991 762 1408 1414 1408 
C 1952 1408 2189 1903 2253 2112 
L 2253 1864 
z
M 1427 1510 
C 1254 1510 1011 1542 813 1922 
C 678 2169 678 2461 678 2771 
C 678 3146 678 3405 858 3684 
C 947 3817 1114 4032 1485 4032 
C 2240 4032 2240 2885 2240 2632 
C 2240 2182 2035 1510 1427 1510 
z
" transform="scale(0.015625)"/>
       </defs>
       <use xlink:href="#CMR17-32" transform="scale(0.996264)"/>
       <use xlink:href="#CMR17-30" transform="translate(45.690477 0) scale(0.996264)"/>
       <use xlink:href="#CMR17-31" transform="translate(91.380954 0) scale(0.996264)"/>
       <use xlink:href="#CMR17-39" transform="translate(137.071431 0) scale(0.996264)"/>
      </g>
     </g>
    </g>
    <g id="xtick_7">
     <g id="line2d_7">
      <path d="M 905.837062 633.447079 
L 905.837062 17.30242 
" clip-path="url(#pf2939a12f6)" style="fill: none; stroke: #cccccc; stroke-opacity: 0.5; stroke-width: 0.8; stroke-linecap: round"/>
     </g>
     <g id="text_7">
      <!-- $\mathdefault{2020}$ -->
      <g transform="translate(895.874392 643.865577) scale(0.1 -0.1)">
       <use xlink:href="#CMR17-32" transform="scale(0.996264)"/>
       <use xlink:href="#CMR17-30" transform="translate(45.690477 0) scale(0.996264)"/>
       <use xlink:href="#CMR17-32" transform="translate(91.380954 0) scale(0.996264)"/>
       <use xlink:href="#CMR17-30" transform="translate(137.071431 0) scale(0.996264)"/>
      </g>
     </g>
    </g>
    <g id="xtick_8">
     <g id="line2d_8">
      <path d="M 1033.727035 633.447079 
L 1033.727035 17.30242 
" clip-path="url(#pf2939a12f6)" style="fill: none; stroke: #cccccc; stroke-opacity: 0.5; stroke-width: 0.8; stroke-linecap: round"/>
     </g>
     <g id="text_8">
      <!-- $\mathdefault{2021}$ -->
      <g transform="translate(1023.764364 643.865577) scale(0.1 -0.1)">
       <use xlink:href="#CMR17-32" transform="scale(0.996264)"/>
       <use xlink:href="#CMR17-30" transform="translate(45.690477 0) scale(0.996264)"/>
       <use xlink:href="#CMR17-32" transform="translate(91.380954 0) scale(0.996264)"/>
       <use xlink:href="#CMR17-31" transform="translate(137.071431 0) scale(0.996264)"/>
      </g>
     </g>
    </g>
    <g id="xtick_9">
     <g id="line2d_9">
      <path d="M 1161.267581 633.447079 
L 1161.267581 17.30242 
" clip-path="url(#pf2939a12f6)" style="fill: none; stroke: #cccccc; stroke-opacity: 0.5; stroke-width: 0.8; stroke-linecap: round"/>
     </g>
     <g id="text_9">
      <!-- $\mathdefault{2022}$ -->
      <g transform="translate(1151.304911 643.865577) scale(0.1 -0.1)">
       <use xlink:href="#CMR17-32" transform="scale(0.996264)"/>
       <use xlink:href="#CMR17-30" transform="translate(45.690477 0) scale(0.996264)"/>
       <use xlink:href="#CMR17-32" transform="translate(91.380954 0) scale(0.996264)"/>
       <use xlink:href="#CMR17-32" transform="translate(137.071431 0) scale(0.996264)"/>
      </g>
     </g>
    </g>
    <g id="xtick_10">
     <g id="line2d_10">
      <path d="M 1288.808128 633.447079 
L 1288.808128 17.30242 
" clip-path="url(#pf2939a12f6)" style="fill: none; stroke: #cccccc; stroke-opacity: 0.5; stroke-width: 0.8; stroke-linecap: round"/>
     </g>
     <g id="text_10">
      <!-- $\mathdefault{2023}$ -->
      <g transform="translate(1278.845457 643.865577) scale(0.1 -0.1)">
       <defs>
        <path id="CMR17-33" d="M 1414 2157 
C 1984 2157 2234 1662 2234 1090 
C 2234 320 1824 25 1453 25 
C 1114 25 563 194 390 693 
C 422 680 454 680 486 680 
C 640 680 755 782 755 948 
C 755 1133 614 1216 486 1216 
C 378 1216 211 1165 211 926 
C 211 335 787 -128 1466 -128 
C 2176 -128 2720 430 2720 1085 
C 2720 1707 2208 2157 1600 2227 
C 2086 2328 2554 2756 2554 3329 
C 2554 3820 2048 4179 1472 4179 
C 890 4179 378 3829 378 3329 
C 378 3110 544 3072 627 3072 
C 762 3072 877 3155 877 3321 
C 877 3486 762 3569 627 3569 
C 602 3569 570 3569 544 3557 
C 730 3959 1235 4032 1459 4032 
C 1683 4032 2106 3925 2106 3320 
C 2106 3143 2080 2828 1862 2550 
C 1670 2304 1453 2304 1242 2284 
C 1210 2284 1062 2269 1037 2269 
C 992 2263 966 2257 966 2208 
C 966 2163 973 2157 1101 2157 
L 1414 2157 
z
" transform="scale(0.015625)"/>
       </defs>
       <use xlink:href="#CMR17-32" transform="scale(0.996264)"/>
       <use xlink:href="#CMR17-30" transform="translate(45.690477 0) scale(0.996264)"/>
       <use xlink:href="#CMR17-32" transform="translate(91.380954 0) scale(0.996264)"/>
       <use xlink:href="#CMR17-33" transform="translate(137.071431 0) scale(0.996264)"/>
      </g>
     </g>
    </g>
    <g id="xtick_11">
     <g id="line2d_11">
      <path d="M 1416.348674 633.447079 
L 1416.348674 17.30242 
" clip-path="url(#pf2939a12f6)" style="fill: none; stroke: #cccccc; stroke-opacity: 0.5; stroke-width: 0.8; stroke-linecap: round"/>
     </g>
     <g id="text_11">
      <!-- $\mathdefault{2024}$ -->
      <g transform="translate(1406.386004 643.865577) scale(0.1 -0.1)">
       <use xlink:href="#CMR17-32" transform="scale(0.996264)"/>
       <use xlink:href="#CMR17-30" transform="translate(45.690477 0) scale(0.996264)"/>
       <use xlink:href="#CMR17-32" transform="translate(91.380954 0) scale(0.996264)"/>
       <use xlink:href="#CMR17-34" transform="translate(137.071431 0) scale(0.996264)"/>
      </g>
     </g>
    </g>
    <g id="text_12">
     <!-- Date -->
     <g style="fill: #696969" transform="translate(730.460964 656.721254) scale(0.1 -0.1)">
      <defs>
       <path id="CMR17-44" d="M 333 4352 
L 333 4186 
C 774 4186 845 4186 845 3900 
L 845 452 
C 845 166 774 166 333 166 
L 333 0 
L 2368 0 
C 3398 0 4224 943 4224 2141 
C 4224 3346 3411 4352 2368 4352 
L 333 4352 
z
M 1523 166 
C 1267 166 1254 197 1254 414 
L 1254 3938 
C 1254 4155 1267 4186 1523 4186 
L 2240 4186 
C 2771 4186 3750 3874 3750 2141 
C 3750 1242 3488 879 3366 707 
C 3213 510 2848 166 2240 166 
L 1523 166 
z
" transform="scale(0.015625)"/>
       <path id="CMR17-61" d="M 2304 1653 
C 2304 2072 2304 2294 2035 2543 
C 1798 2752 1523 2816 1306 2816 
C 800 2816 435 2407 435 1971 
C 435 1728 627 1728 666 1728 
C 749 1728 896 1778 896 1954 
C 896 2112 774 2181 666 2181 
C 640 2181 608 2174 589 2168 
C 723 2592 1069 2714 1293 2714 
C 1613 2714 1965 2429 1965 1885 
L 1965 1600 
C 1587 1600 1133 1549 774 1357 
C 371 1133 256 813 256 570 
C 256 77 832 -64 1171 -64 
C 1523 -64 1850 139 1990 511 
C 2003 233 2182 -18 2464 -18 
C 2598 -18 2938 70 2938 567 
L 2938 920 
L 2822 920 
L 2822 562 
C 2822 178 2650 128 2566 128 
C 2304 128 2304 458 2304 738 
L 2304 1653 
z
M 1965 870 
C 1965 317 1568 38 1216 38 
C 896 38 646 275 646 570 
C 646 761 730 1100 1101 1305 
C 1408 1478 1760 1504 1965 1504 
L 1965 870 
z
" transform="scale(0.015625)"/>
       <path id="CMR17-74" d="M 966 2560 
L 1862 2560 
L 1862 2725 
L 966 2725 
L 966 3904 
L 851 3904 
C 838 3245 614 2668 70 2668 
L 70 2560 
L 627 2560 
L 627 771 
C 627 650 627 -64 1370 -64 
C 1747 -64 1965 306 1965 777 
L 1965 1140 
L 1850 1140 
L 1850 783 
C 1850 344 1677 51 1408 51 
C 1222 51 966 178 966 758 
L 966 2560 
z
" transform="scale(0.015625)"/>
       <path id="CMR17-65" d="M 2438 1472 
C 2464 1498 2464 1511 2464 1576 
C 2464 2238 2118 2816 1389 2816 
C 710 2816 173 2169 173 1383 
C 173 551 781 -64 1459 -64 
C 2176 -64 2458 607 2458 740 
C 2458 784 2419 784 2406 784 
C 2362 784 2355 771 2330 696 
C 2189 265 1837 51 1504 51 
C 1229 51 954 203 781 480 
C 582 803 582 1176 582 1472 
L 2438 1472 
z
M 589 1568 
C 634 2505 1126 2714 1382 2714 
C 1818 2714 2112 2297 2118 1568 
L 589 1568 
z
" transform="scale(0.015625)"/>
      </defs>
      <use xlink:href="#CMR17-44" transform="scale(0.996264)"/>
      <use xlink:href="#CMR17-61" transform="translate(70.393556 0) scale(0.996264)"/>
      <use xlink:href="#CMR17-74" transform="translate(116.084033 0) scale(0.996264)"/>
      <use xlink:href="#CMR17-65" transform="translate(151.364801 0) scale(0.996264)"/>
     </g>
    </g>
   </g>
   <g id="matplotlib.axis_2">
    <g id="ytick_1">
     <g id="line2d_12">
      <path d="M 44.816075 569.609742 
L 1436.99976 569.609742 
" clip-path="url(#pf2939a12f6)" style="fill: none; stroke: #cccccc; stroke-opacity: 0.5; stroke-width: 0.8; stroke-linecap: round"/>
     </g>
     <g id="text_13">
      <!-- $\mathdefault{−10.0}$ -->
      <g transform="translate(15.855917 573.068991) scale(0.1 -0.1)">
       <defs>
        <path id="CMSY10-0" d="M 4218 1472 
C 4326 1472 4442 1472 4442 1600 
C 4442 1728 4326 1728 4218 1728 
L 755 1728 
C 646 1728 531 1728 531 1600 
C 531 1472 646 1472 755 1472 
L 4218 1472 
z
" transform="scale(0.015625)"/>
        <path id="CMMI12-3a" d="M 1178 307 
C 1178 492 1024 619 870 619 
C 685 619 557 466 557 313 
C 557 128 710 0 864 0 
C 1050 0 1178 153 1178 307 
z
" transform="scale(0.015625)"/>
       </defs>
       <use xlink:href="#CMSY10-0" transform="scale(0.996264)"/>
       <use xlink:href="#CMR17-31" transform="translate(77.487468 0) scale(0.996264)"/>
       <use xlink:href="#CMR17-30" transform="translate(123.177945 0) scale(0.996264)"/>
       <use xlink:href="#CMMI12-3a" transform="translate(168.868422 0) scale(0.996264)"/>
       <use xlink:href="#CMR17-30" transform="translate(195.965599 0) scale(0.996264)"/>
      </g>
     </g>
    </g>
    <g id="ytick_2">
     <g id="line2d_13">
      <path d="M 44.816075 493.413033 
L 1436.99976 493.413033 
" clip-path="url(#pf2939a12f6)" style="fill: none; stroke: #cccccc; stroke-opacity: 0.5; stroke-width: 0.8; stroke-linecap: round"/>
     </g>
     <g id="text_14">
      <!-- $\mathdefault{−7.5}$ -->
      <g transform="translate(20.837252 496.872282) scale(0.1 -0.1)">
       <use xlink:href="#CMSY10-0" transform="scale(0.996264)"/>
       <use xlink:href="#CMR17-37" transform="translate(77.487468 0) scale(0.996264)"/>
       <use xlink:href="#CMMI12-3a" transform="translate(123.177945 0) scale(0.996264)"/>
       <use xlink:href="#CMR17-35" transform="translate(150.275122 0) scale(0.996264)"/>
      </g>
     </g>
    </g>
    <g id="ytick_3">
     <g id="line2d_14">
      <path d="M 44.816075 417.216324 
L 1436.99976 417.216324 
" clip-path="url(#pf2939a12f6)" style="fill: none; stroke: #cccccc; stroke-opacity: 0.5; stroke-width: 0.8; stroke-linecap: round"/>
     </g>
     <g id="text_15">
      <!-- $\mathdefault{−5.0}$ -->
      <g transform="translate(20.837252 420.675574) scale(0.1 -0.1)">
       <use xlink:href="#CMSY10-0" transform="scale(0.996264)"/>
       <use xlink:href="#CMR17-35" transform="translate(77.487468 0) scale(0.996264)"/>
       <use xlink:href="#CMMI12-3a" transform="translate(123.177945 0) scale(0.996264)"/>
       <use xlink:href="#CMR17-30" transform="translate(150.275122 0) scale(0.996264)"/>
      </g>
     </g>
    </g>
    <g id="ytick_4">
     <g id="line2d_15">
      <path d="M 44.816075 341.019616 
L 1436.99976 341.019616 
" clip-path="url(#pf2939a12f6)" style="fill: none; stroke: #cccccc; stroke-opacity: 0.5; stroke-width: 0.8; stroke-linecap: round"/>
     </g>
     <g id="text_16">
      <!-- $\mathdefault{−2.5}$ -->
      <g transform="translate(20.837252 344.478865) scale(0.1 -0.1)">
       <use xlink:href="#CMSY10-0" transform="scale(0.996264)"/>
       <use xlink:href="#CMR17-32" transform="translate(77.487468 0) scale(0.996264)"/>
       <use xlink:href="#CMMI12-3a" transform="translate(123.177945 0) scale(0.996264)"/>
       <use xlink:href="#CMR17-35" transform="translate(150.275122 0) scale(0.996264)"/>
      </g>
     </g>
    </g>
    <g id="ytick_5">
     <g id="line2d_16">
      <path d="M 44.816075 264.822907 
L 1436.99976 264.822907 
" clip-path="url(#pf2939a12f6)" style="fill: none; stroke: #cccccc; stroke-opacity: 0.5; stroke-width: 0.8; stroke-linecap: round"/>
     </g>
     <g id="text_17">
      <!-- $\mathdefault{0.0}$ -->
      <g transform="translate(28.585996 268.282156) scale(0.1 -0.1)">
       <use xlink:href="#CMR17-30" transform="scale(0.996264)"/>
       <use xlink:href="#CMMI12-3a" transform="translate(45.690477 0) scale(0.996264)"/>
       <use xlink:href="#CMR17-30" transform="translate(72.787654 0) scale(0.996264)"/>
      </g>
     </g>
    </g>
    <g id="ytick_6">
     <g id="line2d_17">
      <path d="M 44.816075 188.626198 
L 1436.99976 188.626198 
" clip-path="url(#pf2939a12f6)" style="fill: none; stroke: #cccccc; stroke-opacity: 0.5; stroke-width: 0.8; stroke-linecap: round"/>
     </g>
     <g id="text_18">
      <!-- $\mathdefault{2.5}$ -->
      <g transform="translate(28.585996 192.085447) scale(0.1 -0.1)">
       <use xlink:href="#CMR17-32" transform="scale(0.996264)"/>
       <use xlink:href="#CMMI12-3a" transform="translate(45.690477 0) scale(0.996264)"/>
       <use xlink:href="#CMR17-35" transform="translate(72.787654 0) scale(0.996264)"/>
      </g>
     </g>
    </g>
    <g id="ytick_7">
     <g id="line2d_18">
      <path d="M 44.816075 112.42949 
L 1436.99976 112.42949 
" clip-path="url(#pf2939a12f6)" style="fill: none; stroke: #cccccc; stroke-opacity: 0.5; stroke-width: 0.8; stroke-linecap: round"/>
     </g>
     <g id="text_19">
      <!-- $\mathdefault{5.0}$ -->
      <g transform="translate(28.585996 115.888739) scale(0.1 -0.1)">
       <use xlink:href="#CMR17-35" transform="scale(0.996264)"/>
       <use xlink:href="#CMMI12-3a" transform="translate(45.690477 0) scale(0.996264)"/>
       <use xlink:href="#CMR17-30" transform="translate(72.787654 0) scale(0.996264)"/>
      </g>
     </g>
    </g>
    <g id="ytick_8">
     <g id="line2d_19">
      <path d="M 44.816075 36.232781 
L 1436.99976 36.232781 
" clip-path="url(#pf2939a12f6)" style="fill: none; stroke: #cccccc; stroke-opacity: 0.5; stroke-width: 0.8; stroke-linecap: round"/>
     </g>
     <g id="text_20">
      <!-- $\mathdefault{7.5}$ -->
      <g transform="translate(28.585996 39.69203) scale(0.1 -0.1)">
       <use xlink:href="#CMR17-37" transform="scale(0.996264)"/>
       <use xlink:href="#CMMI12-3a" transform="translate(45.690477 0) scale(0.996264)"/>
       <use xlink:href="#CMR17-35" transform="translate(72.787654 0) scale(0.996264)"/>
      </g>
     </g>
    </g>
    <g id="text_21">
     <!-- Total Contribution -->
     <g style="fill: #696969" transform="translate(9.918738 366.622939) rotate(-90) scale(0.1 -0.1)">
      <defs>
       <path id="CMR17-54" d="M 3981 4326 
L 288 4326 
L 179 2918 
L 294 2918 
C 378 3976 467 4160 1453 4160 
C 1568 4160 1754 4160 1805 4154 
C 1926 4135 1926 4058 1926 3912 
L 1926 459 
C 1926 230 1907 160 1376 160 
L 1197 160 
L 1197 0 
C 1504 0 1824 0 2138 0 
C 2451 0 2771 0 3078 0 
L 3078 160 
L 2899 160 
C 2368 160 2349 230 2349 459 
L 2349 3912 
C 2349 4052 2349 4129 2464 4154 
C 2515 4160 2701 4160 2816 4160 
C 3795 4160 3891 3976 3974 2918 
L 4090 2918 
L 3981 4326 
z
" transform="scale(0.015625)"/>
       <path id="CMR17-6f" d="M 2758 1356 
C 2758 2176 2163 2816 1466 2816 
C 768 2816 173 2176 173 1356 
C 173 551 768 -64 1466 -64 
C 2163 -64 2758 551 2758 1356 
z
M 1466 51 
C 1165 51 909 230 762 480 
C 602 767 582 1126 582 1408 
C 582 1677 595 2010 762 2298 
C 890 2509 1139 2714 1466 2714 
C 1754 2714 1997 2554 2150 2330 
C 2349 2029 2349 1607 2349 1408 
C 2349 1158 2336 775 2163 467 
C 1984 173 1709 51 1466 51 
z
" transform="scale(0.015625)"/>
       <path id="CMR17-6c" d="M 979 4396 
L 218 4326 
L 218 4160 
C 595 4160 653 4122 653 3817 
L 653 426 
C 653 184 627 153 218 153 
L 218 -13 
C 371 0 653 0 813 0 
C 979 0 1261 0 1414 -13 
L 1414 153 
C 1005 153 979 178 979 426 
L 979 4396 
z
" transform="scale(0.015625)"/>
       <path id="CMR17-43" d="M 3974 4289 
C 3974 4403 3968 4410 3930 4410 
C 3904 4410 3898 4403 3853 4327 
L 3571 3792 
C 3258 4187 2874 4416 2381 4416 
C 1286 4416 294 3456 294 2148 
C 294 826 1286 -128 2387 -128 
C 3366 -128 3974 730 3974 1461 
C 3974 1524 3974 1550 3917 1550 
C 3866 1550 3866 1531 3859 1474 
C 3808 585 3168 38 2477 38 
C 1824 38 781 495 781 2147 
C 781 3805 1843 4250 2464 4250 
C 3187 4250 3712 3628 3834 2745 
C 3846 2668 3846 2655 3904 2655 
C 3974 2655 3974 2668 3974 2783 
L 3974 4289 
z
" transform="scale(0.015625)"/>
       <path id="CMR17-6e" d="M 2656 1933 
C 2656 2259 2592 2790 1837 2790 
C 1331 2790 1069 2400 973 2144 
L 966 2144 
L 966 2790 
L 211 2720 
L 211 2554 
C 589 2554 646 2515 646 2208 
L 646 428 
C 646 184 621 153 211 153 
L 211 -13 
C 365 0 646 0 813 0 
C 979 0 1267 0 1421 -13 
L 1421 153 
C 1011 153 986 178 986 428 
L 986 1658 
C 986 2247 1344 2688 1792 2688 
C 2266 2688 2317 2266 2317 1958 
L 2317 428 
C 2317 184 2291 153 1882 153 
L 1882 -13 
C 2035 0 2317 0 2483 0 
C 2650 0 2938 0 3091 -13 
L 3091 153 
C 2682 153 2656 178 2656 428 
L 2656 1933 
z
" transform="scale(0.015625)"/>
       <path id="CMR17-72" d="M 960 1497 
C 960 2112 1222 2688 1702 2688 
C 1747 2688 1792 2682 1837 2662 
C 1837 2662 1696 2617 1696 2452 
C 1696 2298 1818 2234 1914 2234 
C 1990 2234 2131 2279 2131 2458 
C 2131 2663 1926 2790 1709 2790 
C 1222 2790 1011 2317 947 2093 
L 941 2093 
L 941 2790 
L 198 2720 
L 198 2554 
C 576 2554 634 2515 634 2208 
L 634 428 
C 634 184 608 153 198 153 
L 198 -13 
C 352 0 646 0 813 0 
C 998 0 1325 0 1498 -13 
L 1498 153 
C 1037 153 960 153 960 440 
L 960 1497 
z
" transform="scale(0.015625)"/>
       <path id="CMR17-69" d="M 992 3909 
C 992 4049 877 4170 730 4170 
C 589 4170 467 4056 467 3909 
C 467 3769 582 3648 730 3648 
C 870 3648 992 3763 992 3909 
z
M 243 2706 
L 243 2541 
C 602 2541 653 2502 653 2197 
L 653 427 
C 653 184 627 153 218 153 
L 218 -13 
C 371 0 646 0 806 0 
C 960 0 1222 0 1370 -13 
L 1370 153 
C 992 153 979 191 979 420 
L 979 2776 
L 243 2706 
z
" transform="scale(0.015625)"/>
       <path id="CMR17-62" d="M 960 4396 
L 198 4326 
L 198 4160 
C 576 4160 634 4122 634 3817 
L 634 -13 
L 749 -13 
L 934 441 
C 1120 141 1395 -64 1766 -64 
C 2406 -64 3053 500 3053 1370 
C 3053 2188 2477 2790 1830 2790 
C 1434 2790 1152 2579 960 2330 
L 960 4396 
z
M 973 2004 
C 973 2118 973 2138 1062 2272 
C 1312 2657 1670 2688 1792 2688 
C 1984 2688 2643 2585 2643 1376 
C 2643 108 1888 38 1734 38 
C 1536 38 1248 114 1043 486 
C 973 608 973 621 973 735 
L 973 2004 
z
" transform="scale(0.015625)"/>
       <path id="CMR17-75" d="M 1882 2693 
L 1882 2528 
C 2259 2528 2317 2489 2317 2186 
L 2317 1032 
C 2317 500 2029 38 1555 38 
C 1030 38 986 348 986 678 
L 986 2763 
L 211 2693 
L 211 2528 
C 467 2528 640 2528 646 2274 
L 646 1058 
C 646 633 646 361 813 183 
C 896 101 1056 -64 1517 -64 
C 2061 -64 2272 377 2323 506 
L 2330 506 
L 2330 -63 
L 3091 -63 
L 3091 128 
C 2714 128 2656 166 2656 473 
L 2656 2763 
L 1882 2693 
z
" transform="scale(0.015625)"/>
      </defs>
      <use xlink:href="#CMR17-54" transform="scale(0.996264)"/>
      <use xlink:href="#CMR17-6f" transform="translate(58.702625 0) scale(0.996264)"/>
      <use xlink:href="#CMR17-74" transform="translate(104.393102 0) scale(0.996264)"/>
      <use xlink:href="#CMR17-61" transform="translate(139.67387 0) scale(0.996264)"/>
      <use xlink:href="#CMR17-6c" transform="translate(185.364347 0) scale(0.996264)"/>
      <use xlink:href="#CMR17-43" transform="translate(240.311372 0) scale(0.996264)"/>
      <use xlink:href="#CMR17-6f" transform="translate(306.821253 0) scale(0.996264)"/>
      <use xlink:href="#CMR17-6e" transform="translate(352.51173 0) scale(0.996264)"/>
      <use xlink:href="#CMR17-74" transform="translate(400.804646 0) scale(0.996264)"/>
      <use xlink:href="#CMR17-72" transform="translate(436.085413 0) scale(0.996264)"/>
      <use xlink:href="#CMR17-69" transform="translate(471.366181 0) scale(0.996264)"/>
      <use xlink:href="#CMR17-62" transform="translate(496.23724 0) scale(0.996264)"/>
      <use xlink:href="#CMR17-75" transform="translate(547.132609 0) scale(0.996264)"/>
      <use xlink:href="#CMR17-74" transform="translate(598.027979 0) scale(0.996264)"/>
      <use xlink:href="#CMR17-69" transform="translate(633.308747 0) scale(0.996264)"/>
      <use xlink:href="#CMR17-6f" transform="translate(658.179805 0) scale(0.996264)"/>
      <use xlink:href="#CMR17-6e" transform="translate(703.870283 0) scale(0.996264)"/>
     </g>
    </g>
   </g>
   <g id="line2d_20">
    <path d="M 108.097151 264.904788 
L 171.692711 258.847229 
L 182.175496 256.325409 
L 193.007707 263.92779 
L 214.322702 258.883432 
L 225.154913 262.322233 
L 235.637698 264.16113 
L 246.469909 264.554281 
L 256.952693 266.807097 
L 267.784904 183.711027 
L 267.784904 183.711027 
L 278.617115 257.78522 
L 278.617115 257.78522 
L 288.401047 263.011689 
L 288.401047 263.011689 
L 299.233258 251.869567 
L 299.233258 251.869567 
L 309.716042 261.013263 
L 309.716042 261.013263 
L 320.548253 298.012234 
L 320.548253 298.012234 
L 331.031038 272.078351 
L 331.031038 272.078351 
L 341.863249 258.161162 
L 341.863249 258.161162 
L 352.69546 255.302877 
L 352.69546 255.302877 
L 363.178244 394.518834 
L 363.178244 394.518834 
L 374.010455 257.120894 
L 374.010455 257.120894 
L 384.49324 367.856508 
L 384.49324 367.856508 
L 395.32545 259.377488 
L 395.32545 259.377488 
L 406.157661 253.547451 
L 406.157661 253.547451 
L 416.29102 230.397944 
L 416.29102 230.397944 
L 427.12323 258.463473 
L 427.12323 258.463473 
L 437.606015 267.415519 
L 437.606015 267.415519 
L 448.438226 266.918366 
L 448.438226 266.918366 
L 458.921011 268.803884 
L 458.921011 268.803884 
L 469.753221 259.869099 
L 469.753221 259.869099 
L 480.585432 255.735136 
L 480.585432 255.735136 
L 491.068217 270.563327 
L 491.068217 270.563327 
L 501.900428 214.714261 
L 501.900428 214.714261 
L 512.383212 269.912912 
L 512.383212 269.912912 
L 523.215423 256.29392 
L 523.215423 256.29392 
L 534.047634 314.219635 
L 534.047634 314.219635 
L 543.831566 279.51681 
L 543.831566 279.51681 
L 554.663777 246.231438 
L 554.663777 246.231438 
L 565.146562 259.250043 
L 565.146562 259.250043 
L 575.978772 268.537721 
L 575.978772 268.537721 
L 586.461557 251.713642 
L 586.461557 251.713642 
L 597.293768 288.282885 
L 597.293768 288.282885 
L 608.125979 230.673822 
L 608.125979 230.673822 
L 618.608763 258.568812 
L 618.608763 258.568812 
L 629.440974 268.746269 
L 629.440974 268.746269 
L 639.923759 242.073222 
L 639.923759 242.073222 
L 650.755969 293.574927 
L 650.755969 293.574927 
L 661.58818 217.783121 
L 661.58818 217.783121 
L 671.372113 237.029526 
L 671.372113 237.029526 
L 682.204323 303.240519 
L 682.204323 303.240519 
L 692.687108 264.240805 
L 692.687108 264.240805 
L 703.519319 253.775597 
L 703.519319 253.775597 
L 714.002103 266.099923 
L 714.002103 266.099923 
L 724.834314 281.30544 
L 724.834314 281.30544 
L 735.666525 196.83726 
L 735.666525 196.83726 
L 746.14931 245.337395 
L 746.14931 245.337395 
L 756.98152 256.972755 
L 756.98152 256.972755 
L 767.464305 251.582272 
L 767.464305 251.582272 
L 778.296516 253.468417 
L 778.296516 253.468417 
L 789.128727 238.949789 
L 789.128727 238.949789 
L 798.912659 248.428193 
L 798.912659 248.428193 
L 809.74487 263.417699 
L 809.74487 263.417699 
L 820.227654 252.50532 
L 820.227654 252.50532 
L 831.059865 244.280276 
L 831.059865 244.280276 
L 841.54265 247.038203 
L 841.54265 247.038203 
L 852.374861 258.027873 
L 852.374861 258.027873 
L 863.207071 220.186737 
L 863.207071 220.186737 
L 873.689856 264.557038 
L 873.689856 264.557038 
L 884.522067 254.541068 
L 884.522067 254.541068 
L 895.004852 247.590566 
L 895.004852 247.590566 
L 905.837062 308.96827 
L 905.837062 308.96827 
L 916.669273 269.585054 
L 916.669273 269.585054 
L 926.802632 268.528207 
L 926.802632 268.528207 
L 937.634842 249.930983 
L 937.634842 249.930983 
L 948.117627 261.491004 
L 948.117627 261.491004 
L 958.949838 246.962348 
L 958.949838 246.962348 
L 969.432622 316.887892 
L 969.432622 316.887892 
L 980.264833 243.99745 
L 980.264833 243.99745 
L 991.097044 271.420442 
L 991.097044 271.420442 
L 1001.579829 262.600848 
L 1001.579829 262.600848 
L 1012.412039 246.347521 
L 1012.412039 246.347521 
L 1022.894824 302.016905 
L 1022.894824 302.016905 
L 1033.727035 273.026999 
L 1033.727035 273.026999 
L 1044.559246 249.766315 
L 1044.559246 249.766315 
L 1054.343178 275.810287 
L 1054.343178 275.810287 
L 1065.175389 211.057468 
L 1065.175389 211.057468 
L 1075.658173 228.343344 
L 1075.658173 228.343344 
L 1086.490384 269.726327 
L 1086.490384 269.726327 
L 1096.973169 230.088892 
L 1096.973169 230.088892 
L 1107.80538 261.723356 
L 1107.80538 261.723356 
L 1118.637591 255.40951 
L 1118.637591 255.40951 
L 1129.120375 224.097706 
L 1129.120375 224.097706 
L 1139.952586 263.051402 
L 1139.952586 263.051402 
L 1150.435371 262.958003 
L 1150.435371 262.958003 
L 1161.267581 275.61638 
L 1161.267581 275.61638 
L 1172.099792 235.844998 
L 1172.099792 235.844998 
L 1181.883724 247.132858 
L 1181.883724 247.132858 
L 1192.715935 239.148718 
L 1192.715935 239.148718 
L 1203.19872 250.078585 
L 1203.19872 250.078585 
L 1214.030931 263.969325 
L 1214.030931 263.969325 
L 1224.513715 265.421071 
L 1224.513715 265.421071 
L 1235.345926 261.319951 
L 1235.345926 261.319951 
L 1246.178137 229.038289 
L 1246.178137 229.038289 
L 1256.660922 256.535951 
L 1256.660922 256.535951 
L 1267.493132 261.59858 
L 1267.493132 261.59858 
L 1277.975917 269.036568 
L 1277.975917 269.036568 
L 1288.808128 266.495545 
L 1288.808128 266.495545 
L 1299.640339 269.628158 
L 1299.640339 269.628158 
L 1309.424271 264.822907 
L 1320.256482 244.592456 
L 1320.256482 244.592456 
L 1330.739266 262.830894 
L 1330.739266 262.830894 
L 1341.571477 263.010449 
L 1341.571477 263.010449 
L 1352.054262 264.976584 
L 1352.054262 264.976584 
L 1373.718683 267.096082 
L 1373.718683 267.096082 
" clip-path="url(#pf2939a12f6)" style="fill: none; stroke: #006e64; stroke-width: 1.5; stroke-linecap: round"/>
   </g>
   <g id="line2d_21">
    <path d="M 108.097151 274.077919 
L 171.692711 266.137783 
L 182.175496 277.065432 
L 193.007707 268.760224 
L 214.322702 258.157693 
L 225.154913 252.954195 
L 235.637698 263.200282 
L 246.469909 259.234113 
L 256.952693 268.618668 
L 267.784904 259.498681 
L 267.784904 259.498681 
L 278.617115 274.169892 
L 278.617115 274.169892 
L 288.401047 285.550962 
L 288.401047 285.550962 
L 299.233258 227.319764 
L 299.233258 227.319764 
L 309.716042 246.370471 
L 309.716042 246.370471 
L 320.548253 200.018258 
L 320.548253 200.018258 
L 331.031038 210.258076 
L 331.031038 210.258076 
L 341.863249 202.020657 
L 341.863249 202.020657 
L 352.69546 174.288774 
L 352.69546 174.288774 
L 363.178244 195.70263 
L 363.178244 195.70263 
L 374.010455 81.544028 
L 374.010455 81.544028 
L 384.49324 45.308995 
L 384.49324 45.308995 
L 395.32545 235.507123 
L 395.32545 235.507123 
L 406.157661 222.41091 
L 406.157661 222.41091 
L 416.29102 313.477228 
L 416.29102 313.477228 
L 427.12323 287.904821 
L 427.12323 287.904821 
L 437.606015 264.177307 
L 437.606015 264.177307 
L 448.438226 282.389523 
L 448.438226 282.389523 
L 458.921011 167.643216 
L 458.921011 167.643216 
L 469.753221 230.865558 
L 469.753221 230.865558 
L 480.585432 303.792705 
L 480.585432 303.792705 
L 491.068217 222.151404 
L 491.068217 222.151404 
L 501.900428 274.516838 
L 501.900428 274.516838 
L 512.383212 363.10176 
L 512.383212 363.10176 
L 523.215423 134.216636 
L 523.215423 134.216636 
L 534.047634 312.069412 
L 534.047634 312.069412 
L 543.831566 284.712867 
L 543.831566 284.712867 
L 554.663777 205.976366 
L 554.663777 205.976366 
L 565.146562 291.093595 
L 565.146562 291.093595 
L 575.978772 232.136582 
L 575.978772 232.136582 
L 586.461557 195.747204 
L 586.461557 195.747204 
L 597.293768 281.723492 
L 597.293768 281.723492 
L 608.125979 172.543956 
L 608.125979 172.543956 
L 618.608763 220.190587 
L 618.608763 220.190587 
L 629.440974 147.573974 
L 629.440974 147.573974 
L 639.923759 179.550724 
L 639.923759 179.550724 
L 650.755969 117.384094 
L 650.755969 117.384094 
L 661.58818 223.664775 
L 661.58818 223.664775 
L 671.372113 354.169623 
L 671.372113 354.169623 
L 682.204323 273.402574 
L 682.204323 273.402574 
L 692.687108 269.892442 
L 692.687108 269.892442 
L 703.519319 251.501229 
L 703.519319 251.501229 
L 714.002103 179.16262 
L 714.002103 179.16262 
L 724.834314 121.599836 
L 724.834314 121.599836 
L 735.666525 229.51766 
L 735.666525 229.51766 
L 746.14931 329.745459 
L 746.14931 329.745459 
L 756.98152 153.498797 
L 756.98152 153.498797 
L 767.464305 297.92911 
L 767.464305 297.92911 
L 778.296516 257.93356 
L 778.296516 257.93356 
L 789.128727 324.225724 
L 789.128727 324.225724 
L 798.912659 276.405519 
L 798.912659 276.405519 
L 809.74487 229.858901 
L 809.74487 229.858901 
L 820.227654 323.710374 
L 820.227654 323.710374 
L 831.059865 271.161728 
L 831.059865 271.161728 
L 841.54265 230.169582 
L 841.54265 230.169582 
L 852.374861 240.920234 
L 852.374861 240.920234 
L 863.207071 237.83828 
L 863.207071 237.83828 
L 873.689856 282.418593 
L 873.689856 282.418593 
L 884.522067 265.615211 
L 884.522067 265.615211 
L 895.004852 338.625992 
L 895.004852 338.625992 
L 905.837062 324.680699 
L 905.837062 324.680699 
L 916.669273 331.734512 
L 916.669273 331.734512 
L 926.802632 380.640043 
L 926.802632 380.640043 
L 937.634842 605.440504 
L 937.634842 605.440504 
L 948.117627 474.682547 
L 948.117627 474.682547 
L 958.949838 398.510339 
L 958.949838 398.510339 
L 969.432622 390.716167 
L 969.432622 390.716167 
L 980.264833 402.531568 
L 980.264833 402.531568 
L 991.097044 421.22596 
L 991.097044 421.22596 
L 1001.579829 345.839575 
L 1001.579829 345.839575 
L 1012.412039 286.932336 
L 1012.412039 286.932336 
L 1022.894824 292.61891 
L 1022.894824 292.61891 
L 1033.727035 220.305612 
L 1033.727035 220.305612 
L 1044.559246 260.646138 
L 1044.559246 260.646138 
L 1054.343178 193.174856 
L 1054.343178 193.174856 
L 1065.175389 214.023052 
L 1065.175389 214.023052 
L 1075.658173 312.844208 
L 1075.658173 312.844208 
L 1086.490384 210.106365 
L 1086.490384 210.106365 
L 1096.973169 215.485887 
L 1096.973169 215.485887 
L 1107.80538 249.144424 
L 1107.80538 249.144424 
L 1118.637591 219.274889 
L 1118.637591 219.274889 
L 1129.120375 135.517551 
L 1129.120375 135.517551 
L 1139.952586 168.540518 
L 1139.952586 168.540518 
L 1150.435371 251.05408 
L 1150.435371 251.05408 
L 1161.267581 372.875622 
L 1161.267581 372.875622 
L 1172.099792 312.854866 
L 1172.099792 312.854866 
L 1181.883724 359.192312 
L 1181.883724 359.192312 
L 1192.715935 302.812738 
L 1192.715935 302.812738 
L 1203.19872 384.611479 
L 1203.19872 384.611479 
L 1214.030931 423.499282 
L 1214.030931 423.499282 
L 1224.513715 304.245908 
L 1224.513715 304.245908 
L 1235.345926 375.544781 
L 1235.345926 375.544781 
L 1246.178137 467.911557 
L 1246.178137 467.911557 
L 1256.660922 374.783232 
L 1256.660922 374.783232 
L 1267.493132 399.010102 
L 1267.493132 399.010102 
L 1277.975917 373.824424 
L 1277.975917 373.824424 
L 1288.808128 350.79184 
L 1288.808128 350.79184 
L 1299.640339 333.235133 
L 1299.640339 333.235133 
L 1309.424271 287.628537 
L 1320.256482 306.586086 
L 1320.256482 306.586086 
L 1330.739266 310.393693 
L 1330.739266 310.393693 
L 1341.571477 364.874817 
L 1341.571477 364.874817 
L 1352.054262 354.922764 
L 1352.054262 354.922764 
L 1373.718683 313.349401 
L 1373.718683 313.349401 
" clip-path="url(#pf2939a12f6)" style="fill: none; stroke: #734848; stroke-width: 1.5; stroke-linecap: round"/>
   </g>
   <g id="patch_3">
    <path d="M 44.816075 633.447079 
L 44.816075 17.30242 
" style="fill: none; stroke: #808080; stroke-width: 0.8; stroke-linejoin: miter; stroke-linecap: square"/>
   </g>
   <g id="patch_4">
    <path d="M 44.816075 633.447079 
L 1436.99976 633.447079 
" style="fill: none; stroke: #808080; stroke-width: 0.8; stroke-linejoin: miter; stroke-linecap: square"/>
   </g>
   <g id="text_22">
    <!-- Actual vs. Predicted Contribution -->
    <g style="fill: #262626" transform="translate(652.839781 11.30242) scale(0.12 -0.12)">
     <defs>
      <path id="CMR17-41" d="M 2323 4378 
C 2291 4461 2278 4480 2214 4480 
C 2150 4480 2138 4461 2106 4378 
L 749 566 
C 627 223 371 153 147 153 
L 147 -13 
C 262 0 518 0 640 0 
C 800 0 1056 0 1210 -13 
L 1210 153 
C 909 153 864 361 864 439 
C 864 497 877 530 890 569 
L 1229 1536 
L 2906 1536 
L 3290 442 
C 3322 365 3322 352 3322 327 
C 3322 153 3046 153 2925 153 
L 2925 0 
C 3110 0 3443 0 3642 0 
C 3808 0 4128 0 4282 -13 
L 4282 153 
C 3942 153 3827 153 3744 387 
L 2323 4378 
z
M 2067 3893 
L 2848 1702 
L 1286 1702 
L 2067 3893 
z
" transform="scale(0.015625)"/>
      <path id="CMR17-63" d="M 2234 2240 
C 2112 2240 1933 2240 1933 2017 
C 1933 1838 2080 1787 2163 1787 
C 2208 1787 2394 1807 2394 2024 
C 2394 2467 1958 2803 1466 2803 
C 787 2803 211 2178 211 1363 
C 211 516 813 -64 1466 -64 
C 2259 -64 2458 677 2458 748 
C 2458 774 2451 793 2406 793 
C 2362 793 2355 787 2330 703 
C 2163 180 1798 51 1523 51 
C 1114 51 621 427 621 1369 
C 621 2338 1094 2688 1472 2688 
C 1722 2688 2093 2573 2234 2240 
z
" transform="scale(0.015625)"/>
      <path id="CMR17-76" d="M 2502 2163 
C 2560 2304 2662 2560 3034 2560 
L 3034 2726 
C 2912 2726 2752 2726 2630 2726 
C 2496 2726 2285 2726 2157 2732 
L 2157 2566 
C 2317 2553 2406 2477 2406 2311 
C 2406 2253 2406 2240 2368 2151 
L 1664 377 
L 902 2286 
C 864 2369 864 2381 864 2407 
C 864 2560 1075 2560 1171 2560 
L 1171 2732 
C 1018 2726 736 2726 576 2726 
C 403 2726 205 2726 64 2732 
L 64 2560 
C 307 2560 442 2560 518 2362 
L 1446 44 
C 1485 -51 1491 -64 1549 -64 
C 1606 -64 1613 -51 1651 44 
L 2502 2163 
z
" transform="scale(0.015625)"/>
      <path id="CMR17-73" d="M 1978 2697 
C 1978 2813 1971 2819 1933 2819 
C 1907 2819 1901 2813 1824 2717 
C 1805 2691 1747 2626 1728 2601 
C 1523 2819 1235 2819 1126 2819 
C 416 2819 160 2447 160 2076 
C 160 1498 813 1365 998 1325 
C 1402 1243 1542 1217 1677 1101 
C 1760 1025 1901 884 1901 654 
C 1901 384 1747 38 1158 38 
C 602 38 403 460 288 1021 
C 269 1110 269 1117 218 1117 
C 166 1117 160 1110 160 983 
L 160 63 
C 160 -51 166 -58 205 -58 
C 237 -58 243 -51 275 0 
C 314 57 410 211 448 276 
C 576 103 800 -64 1158 -64 
C 1792 -64 2131 283 2131 784 
C 2131 1112 1958 1285 1875 1362 
C 1683 1561 1459 1606 1190 1657 
C 838 1735 390 1825 390 2217 
C 390 2383 480 2737 1126 2737 
C 1811 2737 1850 2094 1862 1888 
C 1869 1856 1901 1849 1920 1849 
C 1978 1849 1978 1869 1978 1978 
L 1978 2697 
z
" transform="scale(0.015625)"/>
      <path id="CMR17-2e" d="M 1062 261 
C 1062 420 934 522 800 522 
C 672 522 538 420 538 261 
C 538 102 666 0 800 0 
C 928 0 1062 102 1062 261 
z
" transform="scale(0.015625)"/>
      <path id="CMR17-50" d="M 1267 2042 
L 2291 2042 
C 3117 2042 3718 2578 3718 3184 
C 3718 3791 3130 4352 2291 4352 
L 333 4352 
L 333 4186 
C 774 4186 845 4186 845 3899 
L 845 446 
C 845 160 774 160 333 160 
L 333 0 
C 518 0 858 0 1056 0 
C 1254 0 1594 0 1779 0 
L 1779 160 
C 1338 160 1267 160 1267 446 
L 1267 2042 
z
M 1254 2176 
L 1254 3938 
C 1254 4155 1267 4186 1523 4186 
L 2170 4186 
C 2995 4186 3232 3714 3232 3184 
C 3232 2604 2950 2176 2170 2176 
L 1254 2176 
z
" transform="scale(0.015625)"/>
      <path id="CMR17-64" d="M 1869 4326 
L 1869 4160 
C 2246 4160 2304 4122 2304 3820 
L 2304 2345 
C 2278 2377 2016 2790 1498 2790 
C 845 2790 211 2208 211 1364 
C 211 525 806 -64 1434 -64 
C 1978 -64 2259 337 2291 380 
L 2291 -63 
L 3066 -63 
L 3066 128 
C 2688 128 2630 166 2630 473 
L 2630 4396 
L 1869 4326 
z
M 2291 755 
C 2291 563 2176 390 2029 262 
C 1811 70 1594 38 1472 38 
C 1286 38 621 134 621 1356 
C 621 2612 1363 2688 1530 2688 
C 1824 2688 2061 2522 2208 2291 
C 2291 2157 2291 2138 2291 2023 
L 2291 755 
z
" transform="scale(0.015625)"/>
     </defs>
     <use xlink:href="#CMR17-41" transform="scale(0.996264)"/>
     <use xlink:href="#CMR17-63" transform="translate(69.07243 0) scale(0.996264)"/>
     <use xlink:href="#CMR17-74" transform="translate(109.55809 0) scale(0.996264)"/>
     <use xlink:href="#CMR17-75" transform="translate(144.838858 0) scale(0.996264)"/>
     <use xlink:href="#CMR17-61" transform="translate(195.734228 0) scale(0.996264)"/>
     <use xlink:href="#CMR17-6c" transform="translate(241.424705 0) scale(0.996264)"/>
     <use xlink:href="#CMR17-76" transform="translate(296.37173 0) scale(0.996264)"/>
     <use xlink:href="#CMR17-73" transform="translate(344.664646 0) scale(0.996264)"/>
     <use xlink:href="#CMR17-2e" transform="translate(380.465983 0) scale(0.996264)"/>
     <use xlink:href="#CMR17-50" transform="translate(445.822702 0) scale(0.996264)"/>
     <use xlink:href="#CMR17-72" transform="translate(508.409003 0) scale(0.996264)"/>
     <use xlink:href="#CMR17-65" transform="translate(543.689771 0) scale(0.996264)"/>
     <use xlink:href="#CMR17-64" transform="translate(584.175431 0) scale(0.996264)"/>
     <use xlink:href="#CMR17-69" transform="translate(635.070801 0) scale(0.996264)"/>
     <use xlink:href="#CMR17-63" transform="translate(659.941859 0) scale(0.996264)"/>
     <use xlink:href="#CMR17-74" transform="translate(700.42752 0) scale(0.996264)"/>
     <use xlink:href="#CMR17-65" transform="translate(735.708288 0) scale(0.996264)"/>
     <use xlink:href="#CMR17-64" transform="translate(776.193948 0) scale(0.996264)"/>
     <use xlink:href="#CMR17-43" transform="translate(857.165284 0) scale(0.996264)"/>
     <use xlink:href="#CMR17-6f" transform="translate(923.675165 0) scale(0.996264)"/>
     <use xlink:href="#CMR17-6e" transform="translate(969.365642 0) scale(0.996264)"/>
     <use xlink:href="#CMR17-74" transform="translate(1017.658558 0) scale(0.996264)"/>
     <use xlink:href="#CMR17-72" transform="translate(1052.939325 0) scale(0.996264)"/>
     <use xlink:href="#CMR17-69" transform="translate(1088.220093 0) scale(0.996264)"/>
     <use xlink:href="#CMR17-62" transform="translate(1113.091152 0) scale(0.996264)"/>
     <use xlink:href="#CMR17-75" transform="translate(1163.986521 0) scale(0.996264)"/>
     <use xlink:href="#CMR17-74" transform="translate(1214.881891 0) scale(0.996264)"/>
     <use xlink:href="#CMR17-69" transform="translate(1250.162659 0) scale(0.996264)"/>
     <use xlink:href="#CMR17-6f" transform="translate(1275.033718 0) scale(0.996264)"/>
     <use xlink:href="#CMR17-6e" transform="translate(1320.724195 0) scale(0.996264)"/>
    </g>
   </g>
   <g id="legend_1">
    <g id="patch_5">
     <path d="M 665.540477 716.998723 
L 816.275358 716.998723 
Q 818.275358 716.998723 818.275358 714.998723 
L 818.275358 702.061545 
Q 818.275358 700.061545 816.275358 700.061545 
L 665.540477 700.061545 
Q 663.540477 700.061545 663.540477 702.061545 
L 663.540477 714.998723 
Q 663.540477 716.998723 665.540477 716.998723 
z
" style="fill: #ffffff; opacity: 0.8"/>
    </g>
    <g id="line2d_22">
     <path d="M 667.540477 707.561545 
L 677.540477 707.561545 
L 687.540477 707.561545 
" style="fill: none; stroke: #006e64; stroke-width: 1.5; stroke-linecap: round"/>
    </g>
    <g id="text_23">
     <!-- Actual -->
     <g style="fill: #262626" transform="translate(695.540477 711.061545) scale(0.1 -0.1)">
      <use xlink:href="#CMR17-41" transform="scale(0.996264)"/>
      <use xlink:href="#CMR17-63" transform="translate(69.07243 0) scale(0.996264)"/>
      <use xlink:href="#CMR17-74" transform="translate(109.55809 0) scale(0.996264)"/>
      <use xlink:href="#CMR17-75" transform="translate(144.838858 0) scale(0.996264)"/>
      <use xlink:href="#CMR17-61" transform="translate(195.734228 0) scale(0.996264)"/>
      <use xlink:href="#CMR17-6c" transform="translate(241.424705 0) scale(0.996264)"/>
     </g>
    </g>
    <g id="line2d_23">
     <path d="M 744.598243 707.561545 
L 754.598243 707.561545 
L 764.598243 707.561545 
" style="fill: none; stroke: #734848; stroke-width: 1.5; stroke-linecap: round"/>
    </g>
    <g id="text_24">
     <!-- Predicted -->
     <g style="fill: #262626" transform="translate(772.598243 711.061545) scale(0.1 -0.1)">
      <use xlink:href="#CMR17-50" transform="scale(0.996264)"/>
      <use xlink:href="#CMR17-72" transform="translate(62.586301 0) scale(0.996264)"/>
      <use xlink:href="#CMR17-65" transform="translate(97.867068 0) scale(0.996264)"/>
      <use xlink:href="#CMR17-64" transform="translate(138.352729 0) scale(0.996264)"/>
      <use xlink:href="#CMR17-69" transform="translate(189.248099 0) scale(0.996264)"/>
      <use xlink:href="#CMR17-63" transform="translate(214.119157 0) scale(0.996264)"/>
      <use xlink:href="#CMR17-74" transform="translate(254.604818 0) scale(0.996264)"/>
      <use xlink:href="#CMR17-65" transform="translate(289.885585 0) scale(0.996264)"/>
      <use xlink:href="#CMR17-64" transform="translate(330.371246 0) scale(0.996264)"/>
     </g>
    </g>
   </g>
  </g>
 </g>
 <defs>
  <clipPath id="pf2939a12f6">
   <rect x="44.816075" y="17.30242" width="1392.183685" height="616.144659"/>
  </clipPath>
 </defs>
</svg>
