<?xml version="1.0" encoding="utf-8" standalone="no"?>
<!DOCTYPE svg PUBLIC "-//W3C//DTD SVG 1.1//EN"
  "http://www.w3.org/Graphics/SVG/1.1/DTD/svg11.dtd">
<svg xmlns:xlink="http://www.w3.org/1999/xlink" width="720pt" height="360pt" viewBox="0 0 720 360" xmlns="http://www.w3.org/2000/svg" version="1.1">
 <metadata>
  <rdf:RDF xmlns:dc="http://purl.org/dc/elements/1.1/" xmlns:cc="http://creativecommons.org/ns#" xmlns:rdf="http://www.w3.org/1999/02/22-rdf-syntax-ns#">
   <cc:Work>
    <dc:type rdf:resource="http://purl.org/dc/dcmitype/StillImage"/>
    <dc:date>2023-10-17T10:37:13.435468</dc:date>
    <dc:format>image/svg+xml</dc:format>
    <dc:creator>
     <cc:Agent>
      <dc:title>Matplotlib v3.6.3, https://matplotlib.org/</dc:title>
     </cc:Agent>
    </dc:creator>
   </cc:Work>
  </rdf:RDF>
 </metadata>
 <defs>
  <style type="text/css">*{stroke-linejoin: round; stroke-linecap: butt}</style>
 </defs>
 <g id="figure_1">
  <g id="patch_1">
   <path d="M 0 360 
L 720 360 
L 720 0 
L 0 0 
z
" style="fill: #ffffff"/>
  </g>
  <g id="axes_1">
   <g id="patch_2">
    <path d="M 37.067331 306.17528 
L 716.94236 306.17528 
L 716.94236 17.30242 
L 37.067331 17.30242 
z
" style="fill: #ffffff"/>
   </g>
   <g id="matplotlib.axis_1">
    <g id="xtick_1">
     <g id="line2d_1">
      <path d="M 78.469811 306.17528 
L 78.469811 17.30242 
" clip-path="url(#pb03fbddab3)" style="fill: none; stroke: #cccccc; stroke-opacity: 0.5; stroke-width: 0.8; stroke-linecap: round"/>
     </g>
     <g id="text_1">
      <!-- $\mathdefault{2014}$ -->
      <g transform="translate(68.507141 316.593778) scale(0.1 -0.1)">
       <defs>
        <path id="CMR17-32" d="M 2669 989 
L 2554 989 
C 2490 536 2438 459 2413 420 
C 2381 369 1920 369 1830 369 
L 602 369 
C 832 619 1280 1072 1824 1597 
C 2214 1967 2669 2402 2669 3035 
C 2669 3790 2067 4224 1395 4224 
C 691 4224 262 3604 262 3030 
C 262 2780 448 2748 525 2748 
C 589 2748 781 2787 781 3010 
C 781 3207 614 3264 525 3264 
C 486 3264 448 3258 422 3245 
C 544 3790 915 4058 1306 4058 
C 1862 4058 2227 3617 2227 3035 
C 2227 2479 1901 2000 1536 1584 
L 262 146 
L 262 0 
L 2515 0 
L 2669 989 
z
" transform="scale(0.015625)"/>
        <path id="CMR17-30" d="M 2688 2025 
C 2688 2416 2682 3080 2413 3591 
C 2176 4039 1798 4198 1466 4198 
C 1158 4198 768 4058 525 3597 
C 269 3118 243 2524 243 2025 
C 243 1661 250 1106 448 619 
C 723 -39 1216 -128 1466 -128 
C 1760 -128 2208 -7 2470 600 
C 2662 1042 2688 1559 2688 2025 
z
M 1466 -26 
C 1056 -26 813 325 723 812 
C 653 1188 653 1738 653 2096 
C 653 2588 653 2997 736 3387 
C 858 3929 1216 4096 1466 4096 
C 1728 4096 2067 3923 2189 3400 
C 2272 3036 2278 2607 2278 2096 
C 2278 1680 2278 1169 2202 792 
C 2067 95 1690 -26 1466 -26 
z
" transform="scale(0.015625)"/>
        <path id="CMR17-31" d="M 1702 4058 
C 1702 4192 1696 4192 1606 4192 
C 1357 3916 979 3827 621 3827 
C 602 3827 570 3827 563 3808 
C 557 3795 557 3782 557 3648 
C 755 3648 1088 3686 1344 3839 
L 1344 461 
C 1344 236 1331 160 781 160 
L 589 160 
L 589 0 
C 896 0 1216 0 1523 0 
C 1830 0 2150 0 2458 0 
L 2458 160 
L 2266 160 
C 1715 160 1702 230 1702 458 
L 1702 4058 
z
" transform="scale(0.015625)"/>
        <path id="CMR17-34" d="M 2150 4122 
C 2150 4256 2144 4256 2029 4256 
L 128 1254 
L 128 1088 
L 1779 1088 
L 1779 457 
C 1779 224 1766 160 1318 160 
L 1197 160 
L 1197 0 
C 1402 0 1747 0 1965 0 
C 2182 0 2528 0 2733 0 
L 2733 160 
L 2611 160 
C 2163 160 2150 224 2150 457 
L 2150 1088 
L 2803 1088 
L 2803 1254 
L 2150 1254 
L 2150 4122 
z
M 1798 3703 
L 1798 1254 
L 256 1254 
L 1798 3703 
z
" transform="scale(0.015625)"/>
       </defs>
       <use xlink:href="#CMR17-32" transform="scale(0.996264)"/>
       <use xlink:href="#CMR17-30" transform="translate(45.690477 0) scale(0.996264)"/>
       <use xlink:href="#CMR17-31" transform="translate(91.380954 0) scale(0.996264)"/>
       <use xlink:href="#CMR17-34" transform="translate(137.071431 0) scale(0.996264)"/>
      </g>
     </g>
    </g>
    <g id="xtick_2">
     <g id="line2d_2">
      <path d="M 141.292116 306.17528 
L 141.292116 17.30242 
" clip-path="url(#pb03fbddab3)" style="fill: none; stroke: #cccccc; stroke-opacity: 0.5; stroke-width: 0.8; stroke-linecap: round"/>
     </g>
     <g id="text_2">
      <!-- $\mathdefault{2015}$ -->
      <g transform="translate(131.329446 316.593778) scale(0.1 -0.1)">
       <defs>
        <path id="CMR17-35" d="M 730 3692 
C 794 3666 1056 3584 1325 3584 
C 1920 3584 2246 3911 2432 4100 
C 2432 4157 2432 4192 2394 4192 
C 2387 4192 2374 4192 2323 4163 
C 2099 4058 1837 3973 1517 3973 
C 1325 3973 1037 3999 723 4139 
C 653 4171 640 4171 634 4171 
C 602 4171 595 4164 595 4037 
L 595 2203 
C 595 2089 595 2057 659 2057 
C 691 2057 704 2070 736 2114 
C 941 2401 1222 2522 1542 2522 
C 1766 2522 2246 2382 2246 1289 
C 2246 1085 2246 715 2054 421 
C 1894 159 1645 25 1370 25 
C 947 25 518 320 403 814 
C 429 807 480 795 506 795 
C 589 795 749 840 749 1038 
C 749 1210 627 1280 506 1280 
C 358 1280 262 1190 262 1011 
C 262 454 704 -128 1382 -128 
C 2042 -128 2669 440 2669 1264 
C 2669 2030 2170 2624 1549 2624 
C 1222 2624 947 2503 730 2274 
L 730 3692 
z
" transform="scale(0.015625)"/>
       </defs>
       <use xlink:href="#CMR17-32" transform="scale(0.996264)"/>
       <use xlink:href="#CMR17-30" transform="translate(45.690477 0) scale(0.996264)"/>
       <use xlink:href="#CMR17-31" transform="translate(91.380954 0) scale(0.996264)"/>
       <use xlink:href="#CMR17-35" transform="translate(137.071431 0) scale(0.996264)"/>
      </g>
     </g>
    </g>
    <g id="xtick_3">
     <g id="line2d_3">
      <path d="M 204.114421 306.17528 
L 204.114421 17.30242 
" clip-path="url(#pb03fbddab3)" style="fill: none; stroke: #cccccc; stroke-opacity: 0.5; stroke-width: 0.8; stroke-linecap: round"/>
     </g>
     <g id="text_3">
      <!-- $\mathdefault{2016}$ -->
      <g transform="translate(194.15175 316.593778) scale(0.1 -0.1)">
       <defs>
        <path id="CMR17-36" d="M 678 2176 
C 678 3690 1395 4032 1811 4032 
C 1946 4032 2272 4009 2400 3776 
C 2298 3776 2106 3776 2106 3553 
C 2106 3381 2246 3323 2336 3323 
C 2394 3323 2566 3348 2566 3560 
C 2566 3954 2246 4179 1805 4179 
C 1043 4179 243 3390 243 1984 
C 243 253 966 -128 1478 -128 
C 2099 -128 2688 427 2688 1283 
C 2688 2081 2170 2662 1517 2662 
C 1126 2662 838 2407 678 1960 
L 678 2176 
z
M 1478 25 
C 691 25 691 1200 691 1436 
C 691 1896 909 2560 1504 2560 
C 1613 2560 1926 2560 2138 2120 
C 2253 1870 2253 1609 2253 1289 
C 2253 944 2253 690 2118 434 
C 1978 171 1773 25 1478 25 
z
" transform="scale(0.015625)"/>
       </defs>
       <use xlink:href="#CMR17-32" transform="scale(0.996264)"/>
       <use xlink:href="#CMR17-30" transform="translate(45.690477 0) scale(0.996264)"/>
       <use xlink:href="#CMR17-31" transform="translate(91.380954 0) scale(0.996264)"/>
       <use xlink:href="#CMR17-36" transform="translate(137.071431 0) scale(0.996264)"/>
      </g>
     </g>
    </g>
    <g id="xtick_4">
     <g id="line2d_4">
      <path d="M 267.108841 306.17528 
L 267.108841 17.30242 
" clip-path="url(#pb03fbddab3)" style="fill: none; stroke: #cccccc; stroke-opacity: 0.5; stroke-width: 0.8; stroke-linecap: round"/>
     </g>
     <g id="text_4">
      <!-- $\mathdefault{2017}$ -->
      <g transform="translate(257.146171 316.593778) scale(0.1 -0.1)">
       <defs>
        <path id="CMR17-37" d="M 2886 3941 
L 2886 4081 
L 1382 4081 
C 634 4081 621 4165 595 4288 
L 480 4288 
L 294 3094 
L 410 3094 
C 429 3215 474 3540 550 3661 
C 589 3712 1062 3712 1171 3712 
L 2579 3712 
L 1869 2661 
C 1395 1954 1069 999 1069 165 
C 1069 89 1069 -128 1299 -128 
C 1530 -128 1530 89 1530 171 
L 1530 465 
C 1530 1508 1709 2196 2003 2636 
L 2886 3941 
z
" transform="scale(0.015625)"/>
       </defs>
       <use xlink:href="#CMR17-32" transform="scale(0.996264)"/>
       <use xlink:href="#CMR17-30" transform="translate(45.690477 0) scale(0.996264)"/>
       <use xlink:href="#CMR17-31" transform="translate(91.380954 0) scale(0.996264)"/>
       <use xlink:href="#CMR17-37" transform="translate(137.071431 0) scale(0.996264)"/>
      </g>
     </g>
    </g>
    <g id="xtick_5">
     <g id="line2d_5">
      <path d="M 329.931146 306.17528 
L 329.931146 17.30242 
" clip-path="url(#pb03fbddab3)" style="fill: none; stroke: #cccccc; stroke-opacity: 0.5; stroke-width: 0.8; stroke-linecap: round"/>
     </g>
     <g id="text_5">
      <!-- $\mathdefault{2018}$ -->
      <g transform="translate(319.968475 316.593778) scale(0.1 -0.1)">
       <defs>
        <path id="CMR17-38" d="M 1741 2264 
C 2144 2467 2554 2773 2554 3263 
C 2554 3841 1990 4179 1472 4179 
C 890 4179 378 3759 378 3180 
C 378 3021 416 2747 666 2505 
C 730 2442 998 2251 1171 2130 
C 883 1983 211 1634 211 934 
C 211 279 838 -128 1459 -128 
C 2144 -128 2720 362 2720 1010 
C 2720 1590 2330 1857 2074 2029 
L 1741 2264 
z
M 902 2822 
C 851 2854 595 3051 595 3351 
C 595 3739 998 4032 1459 4032 
C 1965 4032 2336 3676 2336 3262 
C 2336 2669 1670 2331 1638 2331 
C 1632 2331 1626 2331 1574 2370 
L 902 2822 
z
M 2080 1519 
C 2176 1449 2483 1240 2483 851 
C 2483 381 2010 25 1472 25 
C 890 25 448 438 448 940 
C 448 1443 838 1862 1280 2060 
L 2080 1519 
z
" transform="scale(0.015625)"/>
       </defs>
       <use xlink:href="#CMR17-32" transform="scale(0.996264)"/>
       <use xlink:href="#CMR17-30" transform="translate(45.690477 0) scale(0.996264)"/>
       <use xlink:href="#CMR17-31" transform="translate(91.380954 0) scale(0.996264)"/>
       <use xlink:href="#CMR17-38" transform="translate(137.071431 0) scale(0.996264)"/>
      </g>
     </g>
    </g>
    <g id="xtick_6">
     <g id="line2d_6">
      <path d="M 392.75345 306.17528 
L 392.75345 17.30242 
" clip-path="url(#pb03fbddab3)" style="fill: none; stroke: #cccccc; stroke-opacity: 0.5; stroke-width: 0.8; stroke-linecap: round"/>
     </g>
     <g id="text_6">
      <!-- $\mathdefault{2019}$ -->
      <g transform="translate(382.79078 316.593778) scale(0.1 -0.1)">
       <defs>
        <path id="CMR17-39" d="M 2253 1864 
C 2253 464 1670 31 1190 31 
C 1043 31 685 31 538 294 
C 704 268 826 357 826 518 
C 826 692 685 749 595 749 
C 538 749 365 723 365 506 
C 365 71 742 -128 1203 -128 
C 1939 -128 2688 674 2688 2073 
C 2688 3817 1971 4179 1485 4179 
C 851 4179 243 3628 243 2778 
C 243 1991 762 1408 1414 1408 
C 1952 1408 2189 1903 2253 2112 
L 2253 1864 
z
M 1427 1510 
C 1254 1510 1011 1542 813 1922 
C 678 2169 678 2461 678 2771 
C 678 3146 678 3405 858 3684 
C 947 3817 1114 4032 1485 4032 
C 2240 4032 2240 2885 2240 2632 
C 2240 2182 2035 1510 1427 1510 
z
" transform="scale(0.015625)"/>
       </defs>
       <use xlink:href="#CMR17-32" transform="scale(0.996264)"/>
       <use xlink:href="#CMR17-30" transform="translate(45.690477 0) scale(0.996264)"/>
       <use xlink:href="#CMR17-31" transform="translate(91.380954 0) scale(0.996264)"/>
       <use xlink:href="#CMR17-39" transform="translate(137.071431 0) scale(0.996264)"/>
      </g>
     </g>
    </g>
    <g id="xtick_7">
     <g id="line2d_7">
      <path d="M 455.575755 306.17528 
L 455.575755 17.30242 
" clip-path="url(#pb03fbddab3)" style="fill: none; stroke: #cccccc; stroke-opacity: 0.5; stroke-width: 0.8; stroke-linecap: round"/>
     </g>
     <g id="text_7">
      <!-- $\mathdefault{2020}$ -->
      <g transform="translate(445.613085 316.593778) scale(0.1 -0.1)">
       <use xlink:href="#CMR17-32" transform="scale(0.996264)"/>
       <use xlink:href="#CMR17-30" transform="translate(45.690477 0) scale(0.996264)"/>
       <use xlink:href="#CMR17-32" transform="translate(91.380954 0) scale(0.996264)"/>
       <use xlink:href="#CMR17-30" transform="translate(137.071431 0) scale(0.996264)"/>
      </g>
     </g>
    </g>
    <g id="xtick_8">
     <g id="line2d_8">
      <path d="M 518.570176 306.17528 
L 518.570176 17.30242 
" clip-path="url(#pb03fbddab3)" style="fill: none; stroke: #cccccc; stroke-opacity: 0.5; stroke-width: 0.8; stroke-linecap: round"/>
     </g>
     <g id="text_8">
      <!-- $\mathdefault{2021}$ -->
      <g transform="translate(508.607505 316.593778) scale(0.1 -0.1)">
       <use xlink:href="#CMR17-32" transform="scale(0.996264)"/>
       <use xlink:href="#CMR17-30" transform="translate(45.690477 0) scale(0.996264)"/>
       <use xlink:href="#CMR17-32" transform="translate(91.380954 0) scale(0.996264)"/>
       <use xlink:href="#CMR17-31" transform="translate(137.071431 0) scale(0.996264)"/>
      </g>
     </g>
    </g>
    <g id="xtick_9">
     <g id="line2d_9">
      <path d="M 581.39248 306.17528 
L 581.39248 17.30242 
" clip-path="url(#pb03fbddab3)" style="fill: none; stroke: #cccccc; stroke-opacity: 0.5; stroke-width: 0.8; stroke-linecap: round"/>
     </g>
     <g id="text_9">
      <!-- $\mathdefault{2022}$ -->
      <g transform="translate(571.42981 316.593778) scale(0.1 -0.1)">
       <use xlink:href="#CMR17-32" transform="scale(0.996264)"/>
       <use xlink:href="#CMR17-30" transform="translate(45.690477 0) scale(0.996264)"/>
       <use xlink:href="#CMR17-32" transform="translate(91.380954 0) scale(0.996264)"/>
       <use xlink:href="#CMR17-32" transform="translate(137.071431 0) scale(0.996264)"/>
      </g>
     </g>
    </g>
    <g id="xtick_10">
     <g id="line2d_10">
      <path d="M 644.214785 306.17528 
L 644.214785 17.30242 
" clip-path="url(#pb03fbddab3)" style="fill: none; stroke: #cccccc; stroke-opacity: 0.5; stroke-width: 0.8; stroke-linecap: round"/>
     </g>
     <g id="text_10">
      <!-- $\mathdefault{2023}$ -->
      <g transform="translate(634.252114 316.593778) scale(0.1 -0.1)">
       <defs>
        <path id="CMR17-33" d="M 1414 2157 
C 1984 2157 2234 1662 2234 1090 
C 2234 320 1824 25 1453 25 
C 1114 25 563 194 390 693 
C 422 680 454 680 486 680 
C 640 680 755 782 755 948 
C 755 1133 614 1216 486 1216 
C 378 1216 211 1165 211 926 
C 211 335 787 -128 1466 -128 
C 2176 -128 2720 430 2720 1085 
C 2720 1707 2208 2157 1600 2227 
C 2086 2328 2554 2756 2554 3329 
C 2554 3820 2048 4179 1472 4179 
C 890 4179 378 3829 378 3329 
C 378 3110 544 3072 627 3072 
C 762 3072 877 3155 877 3321 
C 877 3486 762 3569 627 3569 
C 602 3569 570 3569 544 3557 
C 730 3959 1235 4032 1459 4032 
C 1683 4032 2106 3925 2106 3320 
C 2106 3143 2080 2828 1862 2550 
C 1670 2304 1453 2304 1242 2284 
C 1210 2284 1062 2269 1037 2269 
C 992 2263 966 2257 966 2208 
C 966 2163 973 2157 1101 2157 
L 1414 2157 
z
" transform="scale(0.015625)"/>
       </defs>
       <use xlink:href="#CMR17-32" transform="scale(0.996264)"/>
       <use xlink:href="#CMR17-30" transform="translate(45.690477 0) scale(0.996264)"/>
       <use xlink:href="#CMR17-32" transform="translate(91.380954 0) scale(0.996264)"/>
       <use xlink:href="#CMR17-33" transform="translate(137.071431 0) scale(0.996264)"/>
      </g>
     </g>
    </g>
    <g id="xtick_11">
     <g id="line2d_11">
      <path d="M 707.037089 306.17528 
L 707.037089 17.30242 
" clip-path="url(#pb03fbddab3)" style="fill: none; stroke: #cccccc; stroke-opacity: 0.5; stroke-width: 0.8; stroke-linecap: round"/>
     </g>
     <g id="text_11">
      <!-- $\mathdefault{2024}$ -->
      <g transform="translate(697.074419 316.593778) scale(0.1 -0.1)">
       <use xlink:href="#CMR17-32" transform="scale(0.996264)"/>
       <use xlink:href="#CMR17-30" transform="translate(45.690477 0) scale(0.996264)"/>
       <use xlink:href="#CMR17-32" transform="translate(91.380954 0) scale(0.996264)"/>
       <use xlink:href="#CMR17-34" transform="translate(137.071431 0) scale(0.996264)"/>
      </g>
     </g>
    </g>
    <g id="text_12">
     <!-- Date -->
     <g style="fill: #696969" transform="translate(366.557892 329.449455) scale(0.1 -0.1)">
      <defs>
       <path id="CMR17-44" d="M 333 4352 
L 333 4186 
C 774 4186 845 4186 845 3900 
L 845 452 
C 845 166 774 166 333 166 
L 333 0 
L 2368 0 
C 3398 0 4224 943 4224 2141 
C 4224 3346 3411 4352 2368 4352 
L 333 4352 
z
M 1523 166 
C 1267 166 1254 197 1254 414 
L 1254 3938 
C 1254 4155 1267 4186 1523 4186 
L 2240 4186 
C 2771 4186 3750 3874 3750 2141 
C 3750 1242 3488 879 3366 707 
C 3213 510 2848 166 2240 166 
L 1523 166 
z
" transform="scale(0.015625)"/>
       <path id="CMR17-61" d="M 2304 1653 
C 2304 2072 2304 2294 2035 2543 
C 1798 2752 1523 2816 1306 2816 
C 800 2816 435 2407 435 1971 
C 435 1728 627 1728 666 1728 
C 749 1728 896 1778 896 1954 
C 896 2112 774 2181 666 2181 
C 640 2181 608 2174 589 2168 
C 723 2592 1069 2714 1293 2714 
C 1613 2714 1965 2429 1965 1885 
L 1965 1600 
C 1587 1600 1133 1549 774 1357 
C 371 1133 256 813 256 570 
C 256 77 832 -64 1171 -64 
C 1523 -64 1850 139 1990 511 
C 2003 233 2182 -18 2464 -18 
C 2598 -18 2938 70 2938 567 
L 2938 920 
L 2822 920 
L 2822 562 
C 2822 178 2650 128 2566 128 
C 2304 128 2304 458 2304 738 
L 2304 1653 
z
M 1965 870 
C 1965 317 1568 38 1216 38 
C 896 38 646 275 646 570 
C 646 761 730 1100 1101 1305 
C 1408 1478 1760 1504 1965 1504 
L 1965 870 
z
" transform="scale(0.015625)"/>
       <path id="CMR17-74" d="M 966 2560 
L 1862 2560 
L 1862 2725 
L 966 2725 
L 966 3904 
L 851 3904 
C 838 3245 614 2668 70 2668 
L 70 2560 
L 627 2560 
L 627 771 
C 627 650 627 -64 1370 -64 
C 1747 -64 1965 306 1965 777 
L 1965 1140 
L 1850 1140 
L 1850 783 
C 1850 344 1677 51 1408 51 
C 1222 51 966 178 966 758 
L 966 2560 
z
" transform="scale(0.015625)"/>
       <path id="CMR17-65" d="M 2438 1472 
C 2464 1498 2464 1511 2464 1576 
C 2464 2238 2118 2816 1389 2816 
C 710 2816 173 2169 173 1383 
C 173 551 781 -64 1459 -64 
C 2176 -64 2458 607 2458 740 
C 2458 784 2419 784 2406 784 
C 2362 784 2355 771 2330 696 
C 2189 265 1837 51 1504 51 
C 1229 51 954 203 781 480 
C 582 803 582 1176 582 1472 
L 2438 1472 
z
M 589 1568 
C 634 2505 1126 2714 1382 2714 
C 1818 2714 2112 2297 2118 1568 
L 589 1568 
z
" transform="scale(0.015625)"/>
      </defs>
      <use xlink:href="#CMR17-44" transform="scale(0.996264)"/>
      <use xlink:href="#CMR17-61" transform="translate(70.393556 0) scale(0.996264)"/>
      <use xlink:href="#CMR17-74" transform="translate(116.084033 0) scale(0.996264)"/>
      <use xlink:href="#CMR17-65" transform="translate(151.364801 0) scale(0.996264)"/>
     </g>
    </g>
   </g>
   <g id="matplotlib.axis_2">
    <g id="ytick_1">
     <g id="line2d_12">
      <path d="M 37.067331 273.156881 
L 716.94236 273.156881 
" clip-path="url(#pb03fbddab3)" style="fill: none; stroke: #cccccc; stroke-opacity: 0.5; stroke-width: 0.8; stroke-linecap: round"/>
     </g>
     <g id="text_13">
      <!-- $\mathdefault{−25}$ -->
      <g transform="translate(15.855917 276.61613) scale(0.1 -0.1)">
       <defs>
        <path id="CMSY10-0" d="M 4218 1472 
C 4326 1472 4442 1472 4442 1600 
C 4442 1728 4326 1728 4218 1728 
L 755 1728 
C 646 1728 531 1728 531 1600 
C 531 1472 646 1472 755 1472 
L 4218 1472 
z
" transform="scale(0.015625)"/>
       </defs>
       <use xlink:href="#CMSY10-0" transform="scale(0.996264)"/>
       <use xlink:href="#CMR17-32" transform="translate(77.487468 0) scale(0.996264)"/>
       <use xlink:href="#CMR17-35" transform="translate(123.177945 0) scale(0.996264)"/>
      </g>
     </g>
    </g>
    <g id="ytick_2">
     <g id="line2d_13">
      <path d="M 37.067331 236.977434 
L 716.94236 236.977434 
" clip-path="url(#pb03fbddab3)" style="fill: none; stroke: #cccccc; stroke-opacity: 0.5; stroke-width: 0.8; stroke-linecap: round"/>
     </g>
     <g id="text_14">
      <!-- $\mathdefault{−20}$ -->
      <g transform="translate(15.855917 240.436683) scale(0.1 -0.1)">
       <use xlink:href="#CMSY10-0" transform="scale(0.996264)"/>
       <use xlink:href="#CMR17-32" transform="translate(77.487468 0) scale(0.996264)"/>
       <use xlink:href="#CMR17-30" transform="translate(123.177945 0) scale(0.996264)"/>
      </g>
     </g>
    </g>
    <g id="ytick_3">
     <g id="line2d_14">
      <path d="M 37.067331 200.797987 
L 716.94236 200.797987 
" clip-path="url(#pb03fbddab3)" style="fill: none; stroke: #cccccc; stroke-opacity: 0.5; stroke-width: 0.8; stroke-linecap: round"/>
     </g>
     <g id="text_15">
      <!-- $\mathdefault{−15}$ -->
      <g transform="translate(15.855917 204.257236) scale(0.1 -0.1)">
       <use xlink:href="#CMSY10-0" transform="scale(0.996264)"/>
       <use xlink:href="#CMR17-31" transform="translate(77.487468 0) scale(0.996264)"/>
       <use xlink:href="#CMR17-35" transform="translate(123.177945 0) scale(0.996264)"/>
      </g>
     </g>
    </g>
    <g id="ytick_4">
     <g id="line2d_15">
      <path d="M 37.067331 164.61854 
L 716.94236 164.61854 
" clip-path="url(#pb03fbddab3)" style="fill: none; stroke: #cccccc; stroke-opacity: 0.5; stroke-width: 0.8; stroke-linecap: round"/>
     </g>
     <g id="text_16">
      <!-- $\mathdefault{−10}$ -->
      <g transform="translate(15.855917 168.077789) scale(0.1 -0.1)">
       <use xlink:href="#CMSY10-0" transform="scale(0.996264)"/>
       <use xlink:href="#CMR17-31" transform="translate(77.487468 0) scale(0.996264)"/>
       <use xlink:href="#CMR17-30" transform="translate(123.177945 0) scale(0.996264)"/>
      </g>
     </g>
    </g>
    <g id="ytick_5">
     <g id="line2d_16">
      <path d="M 37.067331 128.439093 
L 716.94236 128.439093 
" clip-path="url(#pb03fbddab3)" style="fill: none; stroke: #cccccc; stroke-opacity: 0.5; stroke-width: 0.8; stroke-linecap: round"/>
     </g>
     <g id="text_17">
      <!-- $\mathdefault{−5}$ -->
      <g transform="translate(20.837252 131.898342) scale(0.1 -0.1)">
       <use xlink:href="#CMSY10-0" transform="scale(0.996264)"/>
       <use xlink:href="#CMR17-35" transform="translate(77.487468 0) scale(0.996264)"/>
      </g>
     </g>
    </g>
    <g id="ytick_6">
     <g id="line2d_17">
      <path d="M 37.067331 92.259646 
L 716.94236 92.259646 
" clip-path="url(#pb03fbddab3)" style="fill: none; stroke: #cccccc; stroke-opacity: 0.5; stroke-width: 0.8; stroke-linecap: round"/>
     </g>
     <g id="text_18">
      <!-- $\mathdefault{0}$ -->
      <g transform="translate(28.585996 95.718896) scale(0.1 -0.1)">
       <use xlink:href="#CMR17-30" transform="scale(0.996264)"/>
      </g>
     </g>
    </g>
    <g id="ytick_7">
     <g id="line2d_18">
      <path d="M 37.067331 56.0802 
L 716.94236 56.0802 
" clip-path="url(#pb03fbddab3)" style="fill: none; stroke: #cccccc; stroke-opacity: 0.5; stroke-width: 0.8; stroke-linecap: round"/>
     </g>
     <g id="text_19">
      <!-- $\mathdefault{5}$ -->
      <g transform="translate(28.585996 59.539449) scale(0.1 -0.1)">
       <use xlink:href="#CMR17-35" transform="scale(0.996264)"/>
      </g>
     </g>
    </g>
    <g id="ytick_8">
     <g id="line2d_19">
      <path d="M 37.067331 19.900753 
L 716.94236 19.900753 
" clip-path="url(#pb03fbddab3)" style="fill: none; stroke: #cccccc; stroke-opacity: 0.5; stroke-width: 0.8; stroke-linecap: round"/>
     </g>
     <g id="text_20">
      <!-- $\mathdefault{10}$ -->
      <g transform="translate(23.60466 23.360002) scale(0.1 -0.1)">
       <use xlink:href="#CMR17-31" transform="scale(0.996264)"/>
       <use xlink:href="#CMR17-30" transform="translate(45.690477 0) scale(0.996264)"/>
      </g>
     </g>
    </g>
    <g id="text_21">
     <!-- Total Contribution -->
     <g style="fill: #696969" transform="translate(9.918738 202.987039) rotate(-90) scale(0.1 -0.1)">
      <defs>
       <path id="CMR17-54" d="M 3981 4326 
L 288 4326 
L 179 2918 
L 294 2918 
C 378 3976 467 4160 1453 4160 
C 1568 4160 1754 4160 1805 4154 
C 1926 4135 1926 4058 1926 3912 
L 1926 459 
C 1926 230 1907 160 1376 160 
L 1197 160 
L 1197 0 
C 1504 0 1824 0 2138 0 
C 2451 0 2771 0 3078 0 
L 3078 160 
L 2899 160 
C 2368 160 2349 230 2349 459 
L 2349 3912 
C 2349 4052 2349 4129 2464 4154 
C 2515 4160 2701 4160 2816 4160 
C 3795 4160 3891 3976 3974 2918 
L 4090 2918 
L 3981 4326 
z
" transform="scale(0.015625)"/>
       <path id="CMR17-6f" d="M 2758 1356 
C 2758 2176 2163 2816 1466 2816 
C 768 2816 173 2176 173 1356 
C 173 551 768 -64 1466 -64 
C 2163 -64 2758 551 2758 1356 
z
M 1466 51 
C 1165 51 909 230 762 480 
C 602 767 582 1126 582 1408 
C 582 1677 595 2010 762 2298 
C 890 2509 1139 2714 1466 2714 
C 1754 2714 1997 2554 2150 2330 
C 2349 2029 2349 1607 2349 1408 
C 2349 1158 2336 775 2163 467 
C 1984 173 1709 51 1466 51 
z
" transform="scale(0.015625)"/>
       <path id="CMR17-6c" d="M 979 4396 
L 218 4326 
L 218 4160 
C 595 4160 653 4122 653 3817 
L 653 426 
C 653 184 627 153 218 153 
L 218 -13 
C 371 0 653 0 813 0 
C 979 0 1261 0 1414 -13 
L 1414 153 
C 1005 153 979 178 979 426 
L 979 4396 
z
" transform="scale(0.015625)"/>
       <path id="CMR17-43" d="M 3974 4289 
C 3974 4403 3968 4410 3930 4410 
C 3904 4410 3898 4403 3853 4327 
L 3571 3792 
C 3258 4187 2874 4416 2381 4416 
C 1286 4416 294 3456 294 2148 
C 294 826 1286 -128 2387 -128 
C 3366 -128 3974 730 3974 1461 
C 3974 1524 3974 1550 3917 1550 
C 3866 1550 3866 1531 3859 1474 
C 3808 585 3168 38 2477 38 
C 1824 38 781 495 781 2147 
C 781 3805 1843 4250 2464 4250 
C 3187 4250 3712 3628 3834 2745 
C 3846 2668 3846 2655 3904 2655 
C 3974 2655 3974 2668 3974 2783 
L 3974 4289 
z
" transform="scale(0.015625)"/>
       <path id="CMR17-6e" d="M 2656 1933 
C 2656 2259 2592 2790 1837 2790 
C 1331 2790 1069 2400 973 2144 
L 966 2144 
L 966 2790 
L 211 2720 
L 211 2554 
C 589 2554 646 2515 646 2208 
L 646 428 
C 646 184 621 153 211 153 
L 211 -13 
C 365 0 646 0 813 0 
C 979 0 1267 0 1421 -13 
L 1421 153 
C 1011 153 986 178 986 428 
L 986 1658 
C 986 2247 1344 2688 1792 2688 
C 2266 2688 2317 2266 2317 1958 
L 2317 428 
C 2317 184 2291 153 1882 153 
L 1882 -13 
C 2035 0 2317 0 2483 0 
C 2650 0 2938 0 3091 -13 
L 3091 153 
C 2682 153 2656 178 2656 428 
L 2656 1933 
z
" transform="scale(0.015625)"/>
       <path id="CMR17-72" d="M 960 1497 
C 960 2112 1222 2688 1702 2688 
C 1747 2688 1792 2682 1837 2662 
C 1837 2662 1696 2617 1696 2452 
C 1696 2298 1818 2234 1914 2234 
C 1990 2234 2131 2279 2131 2458 
C 2131 2663 1926 2790 1709 2790 
C 1222 2790 1011 2317 947 2093 
L 941 2093 
L 941 2790 
L 198 2720 
L 198 2554 
C 576 2554 634 2515 634 2208 
L 634 428 
C 634 184 608 153 198 153 
L 198 -13 
C 352 0 646 0 813 0 
C 998 0 1325 0 1498 -13 
L 1498 153 
C 1037 153 960 153 960 440 
L 960 1497 
z
" transform="scale(0.015625)"/>
       <path id="CMR17-69" d="M 992 3909 
C 992 4049 877 4170 730 4170 
C 589 4170 467 4056 467 3909 
C 467 3769 582 3648 730 3648 
C 870 3648 992 3763 992 3909 
z
M 243 2706 
L 243 2541 
C 602 2541 653 2502 653 2197 
L 653 427 
C 653 184 627 153 218 153 
L 218 -13 
C 371 0 646 0 806 0 
C 960 0 1222 0 1370 -13 
L 1370 153 
C 992 153 979 191 979 420 
L 979 2776 
L 243 2706 
z
" transform="scale(0.015625)"/>
       <path id="CMR17-62" d="M 960 4396 
L 198 4326 
L 198 4160 
C 576 4160 634 4122 634 3817 
L 634 -13 
L 749 -13 
L 934 441 
C 1120 141 1395 -64 1766 -64 
C 2406 -64 3053 500 3053 1370 
C 3053 2188 2477 2790 1830 2790 
C 1434 2790 1152 2579 960 2330 
L 960 4396 
z
M 973 2004 
C 973 2118 973 2138 1062 2272 
C 1312 2657 1670 2688 1792 2688 
C 1984 2688 2643 2585 2643 1376 
C 2643 108 1888 38 1734 38 
C 1536 38 1248 114 1043 486 
C 973 608 973 621 973 735 
L 973 2004 
z
" transform="scale(0.015625)"/>
       <path id="CMR17-75" d="M 1882 2693 
L 1882 2528 
C 2259 2528 2317 2489 2317 2186 
L 2317 1032 
C 2317 500 2029 38 1555 38 
C 1030 38 986 348 986 678 
L 986 2763 
L 211 2693 
L 211 2528 
C 467 2528 640 2528 646 2274 
L 646 1058 
C 646 633 646 361 813 183 
C 896 101 1056 -64 1517 -64 
C 2061 -64 2272 377 2323 506 
L 2330 506 
L 2330 -63 
L 3091 -63 
L 3091 128 
C 2714 128 2656 166 2656 473 
L 2656 2763 
L 1882 2693 
z
" transform="scale(0.015625)"/>
      </defs>
      <use xlink:href="#CMR17-54" transform="scale(0.996264)"/>
      <use xlink:href="#CMR17-6f" transform="translate(58.702625 0) scale(0.996264)"/>
      <use xlink:href="#CMR17-74" transform="translate(104.393102 0) scale(0.996264)"/>
      <use xlink:href="#CMR17-61" transform="translate(139.67387 0) scale(0.996264)"/>
      <use xlink:href="#CMR17-6c" transform="translate(185.364347 0) scale(0.996264)"/>
      <use xlink:href="#CMR17-43" transform="translate(240.311372 0) scale(0.996264)"/>
      <use xlink:href="#CMR17-6f" transform="translate(306.821253 0) scale(0.996264)"/>
      <use xlink:href="#CMR17-6e" transform="translate(352.51173 0) scale(0.996264)"/>
      <use xlink:href="#CMR17-74" transform="translate(400.804646 0) scale(0.996264)"/>
      <use xlink:href="#CMR17-72" transform="translate(436.085413 0) scale(0.996264)"/>
      <use xlink:href="#CMR17-69" transform="translate(471.366181 0) scale(0.996264)"/>
      <use xlink:href="#CMR17-62" transform="translate(496.23724 0) scale(0.996264)"/>
      <use xlink:href="#CMR17-75" transform="translate(547.132609 0) scale(0.996264)"/>
      <use xlink:href="#CMR17-74" transform="translate(598.027979 0) scale(0.996264)"/>
      <use xlink:href="#CMR17-69" transform="translate(633.308747 0) scale(0.996264)"/>
      <use xlink:href="#CMR17-6f" transform="translate(658.179805 0) scale(0.996264)"/>
      <use xlink:href="#CMR17-6e" transform="translate(703.870283 0) scale(0.996264)"/>
     </g>
    </g>
   </g>
   <g id="line2d_20">
    <path d="M 67.970741 86.912079 
L 93.960243 86.912079 
L 99.12372 83.697527 
L 99.12372 83.697527 
L 104.459313 83.697527 
L 104.459313 83.697527 
L 109.62279 86.912079 
L 114.958383 83.697527 
L 114.958383 83.697527 
L 120.293976 83.697527 
L 120.293976 83.697527 
L 125.457453 80.107294 
L 125.457453 80.107294 
L 141.292116 80.107294 
L 141.292116 80.107294 
L 146.627709 76.947612 
L 146.627709 76.947612 
L 161.946024 76.947612 
L 161.946024 76.947612 
L 172.445095 70.321928 
L 172.445095 70.321928 
L 183.116281 70.409305 
L 183.116281 70.409305 
L 188.279758 63.835464 
L 188.279758 63.835464 
L 193.615351 63.873963 
L 193.615351 63.873963 
L 198.778828 53.429613 
L 198.778828 53.429613 
L 204.114421 53.429613 
L 204.114421 53.429613 
L 209.450014 50.238517 
L 209.450014 50.238517 
L 214.441375 47.036564 
L 214.441375 47.036564 
L 224.940445 40.674505 
L 224.940445 40.674505 
L 230.276038 36.57966 
L 230.276038 36.57966 
L 235.439515 39.645743 
L 235.439515 39.645743 
L 240.775108 36.541144 
L 240.775108 36.541144 
L 246.110701 30.433004 
L 246.110701 30.433004 
L 251.274178 33.69266 
L 251.274178 33.69266 
L 256.609771 32.656134 
L 256.609771 32.656134 
L 261.773248 35.8485 
L 261.773248 35.8485 
L 267.108841 47.811579 
L 267.108841 47.811579 
L 272.444434 44.574691 
L 272.444434 44.574691 
L 277.263679 44.57407 
L 277.263679 44.57407 
L 282.599272 47.549446 
L 282.599272 47.549446 
L 287.76275 47.756902 
L 287.76275 47.756902 
L 293.098343 41.219721 
L 293.098343 41.219721 
L 298.26182 44.400114 
L 298.26182 44.400114 
L 303.597413 38.406667 
L 303.597413 38.406667 
L 308.933006 48.187579 
L 308.933006 48.187579 
L 314.096483 39.703639 
L 314.096483 39.703639 
L 319.432076 46.097249 
L 319.432076 46.097249 
L 324.595553 49.590853 
L 324.595553 49.590853 
L 329.931146 52.985856 
L 329.931146 52.985856 
L 335.266739 52.958304 
L 335.266739 52.958304 
L 340.085984 46.403461 
L 340.085984 46.403461 
L 345.421577 66.053265 
L 345.421577 66.053265 
L 350.585054 61.777173 
L 350.585054 61.777173 
L 355.920647 54.604304 
L 355.920647 54.604304 
L 361.084124 54.604304 
L 361.084124 54.604304 
L 366.419717 61.316059 
L 366.419717 61.316059 
L 371.75531 55.663989 
L 371.75531 55.663989 
L 376.918787 61.956999 
L 376.918787 61.956999 
L 382.25438 61.956999 
L 382.25438 61.956999 
L 387.417857 65.188833 
L 387.417857 65.188833 
L 392.75345 62.607414 
L 392.75345 62.607414 
L 398.089043 65.821831 
L 398.089043 65.821831 
L 402.908289 69.106626 
L 402.908289 69.106626 
L 408.243882 63.432107 
L 408.243882 63.432107 
L 413.407359 59.995979 
L 413.407359 59.995979 
L 418.742952 60.217689 
L 418.742952 60.217689 
L 423.906429 66.832234 
L 423.906429 66.832234 
L 429.242022 65.543935 
L 429.242022 65.543935 
L 434.577615 64.506956 
L 434.577615 64.506956 
L 439.741092 61.384249 
L 439.741092 61.384249 
L 460.911348 61.384249 
L 460.911348 61.384249 
L 465.902709 57.917993 
L 465.902709 57.917993 
L 471.238302 57.917993 
L 471.238302 57.917993 
L 476.401779 55.01828 
L 476.401779 55.01828 
L 486.900849 55.01828 
L 486.900849 55.01828 
L 492.236442 58.662391 
L 492.236442 58.662391 
L 497.572035 58.662391 
L 497.572035 58.662391 
L 502.735513 65.387355 
L 502.735513 65.387355 
L 508.071106 67.549577 
L 508.071106 67.549577 
L 513.234583 74.189012 
L 513.234583 74.189012 
L 518.570176 77.713532 
L 518.570176 77.713532 
L 528.725014 77.713532 
L 528.725014 77.713532 
L 534.060607 74.374373 
L 534.060607 74.374373 
L 549.723154 74.374373 
L 549.723154 74.374373 
L 555.058747 82.96549 
L 555.058747 82.96549 
L 560.39434 80.065777 
L 560.39434 80.065777 
L 565.557817 80.065777 
L 565.557817 80.065777 
L 570.89341 82.96549 
L 570.89341 82.96549 
L 576.056887 85.45423 
L 576.056887 85.45423 
L 581.39248 82.272978 
L 581.39248 82.272978 
L 586.728073 78.228713 
L 586.728073 78.228713 
L 591.547319 74.891968 
L 591.547319 74.891968 
L 602.046389 74.891968 
L 602.046389 74.891968 
L 607.381982 78.228713 
L 607.381982 78.228713 
L 612.545459 76.196002 
L 612.545459 76.196002 
L 617.881052 78.358225 
L 617.881052 78.358225 
L 623.216645 81.539477 
L 623.216645 81.539477 
L 628.380122 81.539477 
L 628.380122 81.539477 
L 633.715715 84.878637 
L 633.715715 84.878637 
L 644.214785 84.878637 
L 644.214785 84.878637 
L 649.550378 81.539477 
L 649.550378 81.539477 
L 654.369623 84.878637 
L 654.369623 84.878637 
L 664.868693 84.878637 
L 664.868693 84.878637 
L 670.204286 88.215381 
L 686.038949 88.215381 
L 686.038949 88.215381 
" clip-path="url(#pb03fbddab3)" style="fill: none; stroke: #006e64; stroke-width: 1.5; stroke-linecap: round"/>
   </g>
   <g id="line2d_21">
    <path d="M 67.970741 95.268391 
L 73.134218 88.23792 
L 78.469811 84.475283 
L 83.805404 84.501905 
L 88.62465 85.750258 
L 93.960243 87.390953 
L 99.12372 98.427179 
L 99.12372 98.427179 
L 104.459313 86.52621 
L 104.459313 86.52621 
L 109.62279 90.637201 
L 114.958383 89.136878 
L 114.958383 89.136878 
L 120.293976 86.687709 
L 120.293976 86.687709 
L 125.457453 96.833872 
L 125.457453 96.833872 
L 130.793046 91.108751 
L 130.793046 91.108751 
L 135.956523 96.946745 
L 135.956523 96.946745 
L 141.292116 98.071444 
L 141.292116 98.071444 
L 146.627709 106.697892 
L 146.627709 106.697892 
L 151.446954 99.599791 
L 151.446954 99.599791 
L 156.782547 97.16074 
L 156.782547 97.16074 
L 161.946024 102.601743 
L 161.946024 102.601743 
L 167.281617 101.228343 
L 167.281617 101.228343 
L 172.445095 91.700488 
L 172.445095 91.700488 
L 177.780688 77.613009 
L 177.780688 77.613009 
L 183.116281 72.477944 
L 183.116281 72.477944 
L 188.279758 69.882703 
L 188.279758 69.882703 
L 193.615351 57.897876 
L 193.615351 57.897876 
L 198.778828 42.299366 
L 198.778828 42.299366 
L 204.114421 59.692781 
L 204.114421 59.692781 
L 209.450014 69.312547 
L 209.450014 69.312547 
L 214.441375 71.395194 
L 214.441375 71.395194 
L 219.776968 93.799802 
L 219.776968 93.799802 
L 224.940445 60.620003 
L 224.940445 60.620003 
L 230.276038 68.747053 
L 230.276038 68.747053 
L 235.439515 74.417638 
L 235.439515 74.417638 
L 240.775108 98.575193 
L 240.775108 98.575193 
L 246.110701 65.21816 
L 246.110701 65.21816 
L 251.274178 66.395801 
L 251.274178 66.395801 
L 256.609771 119.256314 
L 256.609771 119.256314 
L 261.773248 131.136782 
L 261.773248 131.136782 
L 267.108841 79.136726 
L 267.108841 79.136726 
L 272.444434 109.669727 
L 272.444434 109.669727 
L 277.263679 88.184238 
L 277.263679 88.184238 
L 282.599272 74.715251 
L 282.599272 74.715251 
L 287.76275 87.939948 
L 287.76275 87.939948 
L 293.098343 63.456843 
L 293.098343 63.456843 
L 298.26182 75.332364 
L 298.26182 75.332364 
L 303.597413 117.109145 
L 303.597413 117.109145 
L 308.933006 78.24859 
L 308.933006 78.24859 
L 314.096483 117.460265 
L 314.096483 117.460265 
L 319.432076 51.864309 
L 319.432076 51.864309 
L 324.595553 73.763974 
L 324.595553 73.763974 
L 329.931146 60.01252 
L 329.931146 60.01252 
L 335.266739 84.431709 
L 335.266739 84.431709 
L 340.085984 119.268225 
L 340.085984 119.268225 
L 345.421577 87.159688 
L 345.421577 87.159688 
L 350.585054 94.35665 
L 350.585054 94.35665 
L 355.920647 77.477327 
L 355.920647 77.477327 
L 361.084124 49.826317 
L 361.084124 49.826317 
L 366.419717 54.813531 
L 366.419717 54.813531 
L 371.75531 68.408003 
L 371.75531 68.408003 
L 376.918787 128.820243 
L 376.918787 128.820243 
L 382.25438 66.796786 
L 382.25438 66.796786 
L 387.417857 81.243208 
L 387.417857 81.243208 
L 392.75345 100.738876 
L 392.75345 100.738876 
L 398.089043 92.277612 
L 398.089043 92.277612 
L 402.908289 67.159615 
L 402.908289 67.159615 
L 408.243882 87.165253 
L 408.243882 87.165253 
L 413.407359 76.774662 
L 413.407359 76.774662 
L 418.742952 72.759924 
L 418.742952 72.759924 
L 423.906429 89.190308 
L 423.906429 89.190308 
L 429.242022 88.693559 
L 429.242022 88.693559 
L 434.577615 110.263637 
L 434.577615 110.263637 
L 439.741092 108.094473 
L 439.741092 108.094473 
L 445.076685 95.120189 
L 445.076685 95.120189 
L 450.240162 105.328802 
L 450.240162 105.328802 
L 455.575755 112.66863 
L 455.575755 112.66863 
L 460.911348 125.323287 
L 460.911348 125.323287 
L 465.902709 163.071767 
L 465.902709 163.071767 
L 471.238302 293.044695 
L 471.238302 293.044695 
L 476.401779 232.524168 
L 476.401779 232.524168 
L 481.737372 187.700729 
L 481.737372 187.700729 
L 486.900849 180.655025 
L 486.900849 180.655025 
L 492.236442 130.622633 
L 492.236442 130.622633 
L 497.572035 131.710933 
L 497.572035 131.710933 
L 502.735513 108.86464 
L 502.735513 108.86464 
L 508.071106 104.544577 
L 508.071106 104.544577 
L 513.234583 97.335391 
L 513.234583 97.335391 
L 518.570176 68.376802 
L 518.570176 68.376802 
L 523.905769 72.361239 
L 523.905769 72.361239 
L 528.725014 83.313698 
L 528.725014 83.313698 
L 534.060607 78.101853 
L 534.060607 78.101853 
L 539.224084 90.222903 
L 539.224084 90.222903 
L 544.559677 71.599242 
L 544.559677 71.599242 
L 549.723154 64.616755 
L 549.723154 64.616755 
L 555.058747 79.553529 
L 555.058747 79.553529 
L 560.39434 81.123959 
L 560.39434 81.123959 
L 565.557817 73.428077 
L 565.557817 73.428077 
L 570.89341 87.56203 
L 570.89341 87.56203 
L 576.056887 94.37333 
L 576.056887 94.37333 
L 581.39248 110.054033 
L 581.39248 110.054033 
L 586.728073 96.86316 
L 586.728073 96.86316 
L 591.547319 111.652797 
L 591.547319 111.652797 
L 596.882912 102.633546 
L 596.882912 102.633546 
L 602.046389 114.349339 
L 602.046389 114.349339 
L 607.381982 109.576248 
L 607.381982 109.576248 
L 612.545459 119.294743 
L 612.545459 119.294743 
L 617.881052 110.39182 
L 617.881052 110.39182 
L 623.216645 117.872218 
L 623.216645 117.872218 
L 628.380122 115.702974 
L 628.380122 115.702974 
L 633.715715 107.452409 
L 633.715715 107.452409 
L 638.879192 112.840358 
L 638.879192 112.840358 
L 644.214785 102.267481 
L 644.214785 102.267481 
L 649.550378 109.392315 
L 649.550378 109.392315 
L 654.369623 98.481606 
L 654.369623 98.481606 
L 659.705216 101.038525 
L 659.705216 101.038525 
L 664.868693 99.709535 
L 664.868693 99.709535 
L 670.204286 101.305173 
L 675.367763 104.536574 
L 680.703356 106.498028 
L 686.038949 100.312698 
L 686.038949 100.312698 
" clip-path="url(#pb03fbddab3)" style="fill: none; stroke: #c17150; stroke-width: 1.5; stroke-linecap: round"/>
   </g>
   <g id="line2d_22">
    <path d="M 67.970741 91.378632 
L 93.960243 91.378632 
L 99.12372 90.497617 
L 99.12372 90.497617 
L 104.459313 90.497617 
L 104.459313 90.497617 
L 109.62279 91.378632 
L 114.958383 90.497617 
L 114.958383 90.497617 
L 120.293976 90.497617 
L 120.293976 90.497617 
L 125.457453 89.616602 
L 125.457453 89.616602 
L 141.292116 89.616602 
L 141.292116 89.616602 
L 146.627709 88.735588 
L 146.627709 88.735588 
L 161.946024 88.735588 
L 161.946024 88.735588 
L 172.445095 86.973558 
L 172.445095 86.973558 
L 183.116281 86.973558 
L 183.116281 86.973558 
L 188.279758 85.211529 
L 188.279758 85.211529 
L 193.615351 85.211529 
L 193.615351 85.211529 
L 198.778828 82.568485 
L 198.778828 82.568485 
L 204.114421 82.568485 
L 204.114421 82.568485 
L 209.450014 80.263722 
L 209.450014 80.263722 
L 214.441375 79.374499 
L 214.441375 79.374499 
L 219.776968 77.743814 
L 219.776968 77.743814 
L 224.940445 76.525783 
L 224.940445 76.525783 
L 230.276038 75.953721 
L 230.276038 75.953721 
L 235.439515 76.91045 
L 235.439515 76.91045 
L 240.775108 75.969284 
L 240.775108 75.969284 
L 246.110701 74.490298 
L 246.110701 74.490298 
L 251.274178 75.443922 
L 251.274178 75.443922 
L 256.609771 75.440832 
L 256.609771 75.440832 
L 261.773248 76.335918 
L 261.773248 76.335918 
L 267.108841 80.393477 
L 267.108841 80.393477 
L 272.444434 79.287549 
L 272.444434 79.287549 
L 277.263679 79.287871 
L 277.263679 79.287871 
L 282.599272 80.08554 
L 282.599272 80.08554 
L 287.76275 80.124356 
L 287.76275 80.124356 
L 293.098343 78.372004 
L 293.098343 78.372004 
L 298.26182 79.254255 
L 298.26182 79.254255 
L 303.597413 77.454408 
L 303.597413 77.454408 
L 308.933006 79.797729 
L 308.933006 79.797729 
L 314.096483 77.189634 
L 314.096483 77.189634 
L 319.432076 79.006651 
L 319.432076 79.006651 
L 329.931146 80.701068 
L 329.931146 80.701068 
L 335.266739 80.351513 
L 335.266739 80.351513 
L 340.085984 77.960321 
L 340.085984 77.960321 
L 345.421577 84.136233 
L 345.421577 84.136233 
L 350.585054 82.660191 
L 350.585054 82.660191 
L 355.920647 78.82739 
L 355.920647 78.82739 
L 361.084124 79.044812 
L 361.084124 79.044812 
L 371.75531 80.849496 
L 371.75531 80.849496 
L 376.918787 79.805047 
L 376.918787 79.805047 
L 382.25438 80.126288 
L 382.25438 80.126288 
L 387.417857 78.424843 
L 387.417857 78.424843 
L 392.75345 81.294672 
L 392.75345 81.294672 
L 398.089043 79.721544 
L 398.089043 79.721544 
L 402.908289 80.68559 
L 402.908289 80.68559 
L 408.243882 78.886054 
L 408.243882 78.886054 
L 413.407359 77.349269 
L 413.407359 77.349269 
L 418.742952 77.816195 
L 418.742952 77.816195 
L 423.906429 83.822579 
L 423.906429 83.822579 
L 429.242022 84.489933 
L 429.242022 84.489933 
L 434.577615 82.729241 
L 434.577615 82.729241 
L 439.741092 81.686578 
L 439.741092 81.686578 
L 445.076685 81.594334 
L 445.076685 81.594334 
L 450.240162 81.913048 
L 450.240162 81.913048 
L 455.575755 81.913048 
L 455.575755 81.913048 
L 465.902709 80.05725 
L 465.902709 80.05725 
L 471.238302 80.149444 
L 471.238302 80.149444 
L 476.401779 79.248216 
L 476.401779 79.248216 
L 481.737372 79.27402 
L 481.737372 79.27402 
L 486.900849 79.135834 
L 486.900849 79.135834 
L 492.236442 80.080829 
L 492.236442 80.080829 
L 497.572035 81.60424 
L 497.572035 81.60424 
L 502.735513 83.525919 
L 502.735513 83.525919 
L 508.071106 83.634343 
L 508.071106 83.634343 
L 513.234583 85.985591 
L 513.234583 85.985591 
L 518.570176 86.866605 
L 518.570176 86.866605 
L 523.905769 86.866605 
L 523.905769 86.866605 
L 539.224084 87.623751 
L 539.224084 87.623751 
L 544.559677 87.386446 
L 544.559677 87.386446 
L 549.723154 87.386446 
L 549.723154 87.386446 
L 555.058747 89.379442 
L 555.058747 89.379442 
L 560.39434 88.44723 
L 560.39434 88.44723 
L 565.557817 88.44723 
L 565.557817 88.44723 
L 570.89341 89.348552 
L 570.89341 89.348552 
L 576.056887 89.655225 
L 576.056887 89.655225 
L 581.39248 88.977525 
L 581.39248 88.977525 
L 591.547319 87.223559 
L 591.547319 87.223559 
L 596.882912 87.140145 
L 596.882912 87.140145 
L 602.046389 86.397638 
L 602.046389 86.397638 
L 607.381982 87.718492 
L 607.381982 87.718492 
L 617.881052 87.835018 
L 617.881052 87.835018 
L 623.216645 88.727615 
L 623.216645 88.727615 
L 628.380122 88.724843 
L 628.380122 88.724843 
L 633.715715 90.055884 
L 633.715715 90.055884 
L 638.879192 89.677267 
L 638.879192 89.677267 
L 644.214785 89.677267 
L 644.214785 89.677267 
L 649.550378 88.313332 
L 649.550378 88.313332 
L 654.369623 89.560959 
L 654.369623 89.560959 
L 659.705216 89.560959 
L 659.705216 89.560959 
L 664.868693 89.985591 
L 664.868693 89.985591 
L 670.204286 90.95002 
L 686.038949 91.007038 
L 686.038949 91.007038 
" clip-path="url(#pb03fbddab3)" style="fill: none; stroke: #7cab53; stroke-width: 1.5; stroke-linecap: round"/>
   </g>
   <g id="patch_3">
    <path d="M 37.067331 306.17528 
L 37.067331 17.30242 
" style="fill: none; stroke: #808080; stroke-width: 0.8; stroke-linejoin: miter; stroke-linecap: square"/>
   </g>
   <g id="patch_4">
    <path d="M 37.067331 306.17528 
L 716.94236 306.17528 
" style="fill: none; stroke: #808080; stroke-width: 0.8; stroke-linejoin: miter; stroke-linecap: square"/>
   </g>
   <g id="text_22">
    <!-- Source: ELCON A/S -->
    <g style="fill: #808080" transform="translate(624.206607 351.996869) scale(0.1 -0.1)">
     <defs>
      <path id="CMR17-53" d="M 2803 4290 
C 2803 4404 2797 4411 2758 4411 
C 2720 4411 2707 4385 2682 4328 
L 2490 3907 
C 2246 4257 1875 4416 1472 4416 
C 819 4416 294 3901 294 3253 
C 294 3056 339 2776 557 2510 
C 794 2218 1018 2167 1530 2033 
C 1722 1982 2042 1899 2106 1874 
C 2470 1722 2662 1341 2662 985 
C 2662 527 2336 38 1779 38 
C 1094 38 454 419 410 1311 
C 403 1413 397 1419 352 1419 
C 301 1419 294 1413 294 1285 
L 294 -1 
C 294 -115 301 -122 339 -122 
C 384 -122 397 -90 486 108 
C 493 127 493 140 614 381 
C 934 -39 1472 -128 1779 -128 
C 2477 -128 2970 451 2970 1124 
C 2970 1454 2848 1708 2778 1823 
C 2509 2230 2221 2306 1914 2382 
C 1869 2402 1856 2402 1498 2490 
C 1152 2579 1005 2624 845 2796 
C 666 2992 602 3196 602 3399 
C 602 3812 934 4263 1478 4263 
C 2157 4263 2579 3786 2675 2993 
C 2694 2878 2701 2872 2746 2872 
C 2803 2872 2803 2891 2803 2999 
L 2803 4290 
z
" transform="scale(0.015625)"/>
      <path id="CMR17-63" d="M 2234 2240 
C 2112 2240 1933 2240 1933 2017 
C 1933 1838 2080 1787 2163 1787 
C 2208 1787 2394 1807 2394 2024 
C 2394 2467 1958 2803 1466 2803 
C 787 2803 211 2178 211 1363 
C 211 516 813 -64 1466 -64 
C 2259 -64 2458 677 2458 748 
C 2458 774 2451 793 2406 793 
C 2362 793 2355 787 2330 703 
C 2163 180 1798 51 1523 51 
C 1114 51 621 427 621 1369 
C 621 2338 1094 2688 1472 2688 
C 1722 2688 2093 2573 2234 2240 
z
" transform="scale(0.015625)"/>
      <path id="CMR17-3a" d="M 1062 2491 
C 1062 2650 934 2752 800 2752 
C 672 2752 538 2650 538 2491 
C 538 2332 666 2230 800 2230 
C 928 2230 1062 2332 1062 2491 
z
M 1062 261 
C 1062 420 934 522 800 522 
C 672 522 538 420 538 261 
C 538 102 666 0 800 0 
C 928 0 1062 102 1062 261 
z
" transform="scale(0.015625)"/>
      <path id="CMR17-45" d="M 3885 1615 
L 3770 1615 
C 3629 676 3546 166 2419 166 
L 1530 166 
C 1274 166 1261 197 1261 414 
L 1261 2176 
L 1862 2176 
C 2464 2176 2522 1960 2522 1430 
L 2637 1430 
L 2637 3081 
L 2522 3081 
C 2522 2557 2464 2342 1862 2342 
L 1261 2342 
L 1261 3913 
C 1261 4128 1274 4160 1530 4160 
L 2406 4160 
C 3398 4160 3514 3769 3603 2929 
L 3718 2929 
L 3565 4325 
L 326 4325 
L 326 4160 
C 768 4160 838 4160 838 3874 
L 838 451 
C 838 166 768 166 326 166 
L 326 0 
L 3654 0 
L 3885 1615 
z
" transform="scale(0.015625)"/>
      <path id="CMR17-4c" d="M 3469 1615 
L 3354 1615 
C 3302 983 3219 166 2125 166 
L 1530 166 
C 1274 166 1261 197 1261 414 
L 1261 3898 
C 1261 4129 1274 4192 1760 4192 
L 1901 4192 
L 1901 4352 
C 1638 4352 1331 4352 1069 4352 
C 870 4352 512 4352 326 4352 
L 326 4192 
C 768 4192 838 4192 838 3905 
L 838 452 
C 838 166 768 166 326 166 
L 326 0 
L 3315 0 
L 3469 1615 
z
" transform="scale(0.015625)"/>
      <path id="CMR17-4f" d="M 4307 2135 
C 4307 3437 3366 4416 2304 4416 
C 1216 4416 294 3424 294 2135 
C 294 845 1229 -128 2298 -128 
C 3392 -128 4307 864 4307 2135 
z
M 2304 -13 
C 1574 -13 781 711 781 2217 
C 781 3716 1651 4301 2298 4301 
C 2976 4301 3821 3698 3821 2217 
C 3821 686 3008 -13 2304 -13 
z
" transform="scale(0.015625)"/>
      <path id="CMR17-4e" d="M 1312 4250 
C 1267 4320 1261 4320 1139 4320 
L 326 4320 
L 326 4160 
L 448 4160 
C 704 4160 819 4129 838 4122 
L 838 610 
C 838 451 838 153 326 153 
L 326 -13 
C 474 0 742 0 902 0 
C 1062 0 1331 0 1478 -13 
L 1478 153 
C 966 153 966 451 966 610 
L 966 4033 
C 1011 3995 1011 3982 1056 3919 
L 3430 76 
C 3475 0 3494 0 3526 0 
C 3590 0 3590 19 3590 139 
L 3590 3705 
C 3590 3863 3590 4160 4102 4160 
L 4102 4326 
C 3955 4320 3686 4320 3526 4320 
C 3366 4320 3098 4320 2950 4326 
L 2950 4160 
C 3462 4160 3462 3862 3462 3703 
L 3462 763 
L 1312 4250 
z
" transform="scale(0.015625)"/>
      <path id="CMR17-41" d="M 2323 4378 
C 2291 4461 2278 4480 2214 4480 
C 2150 4480 2138 4461 2106 4378 
L 749 566 
C 627 223 371 153 147 153 
L 147 -13 
C 262 0 518 0 640 0 
C 800 0 1056 0 1210 -13 
L 1210 153 
C 909 153 864 361 864 439 
C 864 497 877 530 890 569 
L 1229 1536 
L 2906 1536 
L 3290 442 
C 3322 365 3322 352 3322 327 
C 3322 153 3046 153 2925 153 
L 2925 0 
C 3110 0 3443 0 3642 0 
C 3808 0 4128 0 4282 -13 
L 4282 153 
C 3942 153 3827 153 3744 387 
L 2323 4378 
z
M 2067 3893 
L 2848 1702 
L 1286 1702 
L 2067 3893 
z
" transform="scale(0.015625)"/>
      <path id="CMR17-2f" d="M 2605 4545 
C 2637 4627 2637 4640 2637 4653 
C 2637 4729 2579 4768 2528 4768 
C 2451 4768 2426 4717 2400 4640 
L 326 -1377 
C 294 -1460 294 -1473 294 -1486 
C 294 -1562 352 -1600 403 -1600 
C 480 -1600 506 -1549 531 -1473 
L 2605 4545 
z
" transform="scale(0.015625)"/>
     </defs>
     <use xlink:href="#CMR17-53" transform="scale(0.996264)"/>
     <use xlink:href="#CMR17-6f" transform="translate(50.89537 0) scale(0.996264)"/>
     <use xlink:href="#CMR17-75" transform="translate(96.585847 0) scale(0.996264)"/>
     <use xlink:href="#CMR17-72" transform="translate(147.481217 0) scale(0.996264)"/>
     <use xlink:href="#CMR17-63" transform="translate(182.761984 0) scale(0.996264)"/>
     <use xlink:href="#CMR17-65" transform="translate(223.247645 0) scale(0.996264)"/>
     <use xlink:href="#CMR17-3a" transform="translate(263.733305 0) scale(0.996264)"/>
     <use xlink:href="#CMR17-45" transform="translate(329.090024 0) scale(0.996264)"/>
     <use xlink:href="#CMR17-4c" transform="translate(391.676325 0) scale(0.996264)"/>
     <use xlink:href="#CMR17-43" transform="translate(449.057733 0) scale(0.996264)"/>
     <use xlink:href="#CMR17-4f" transform="translate(515.567613 0) scale(0.996264)"/>
     <use xlink:href="#CMR17-4e" transform="translate(587.282402 0) scale(0.996264)"/>
     <use xlink:href="#CMR17-41" transform="translate(686.430798 0) scale(0.996264)"/>
     <use xlink:href="#CMR17-2f" transform="translate(755.503228 0) scale(0.996264)"/>
     <use xlink:href="#CMR17-53" transform="translate(801.193705 0) scale(0.996264)"/>
    </g>
   </g>
   <g id="text_23">
    <!-- Actual vs. Predicted Total Contribution -->
    <g style="fill: #262626" transform="translate(273.491318 11.30242) scale(0.12 -0.12)">
     <defs>
      <path id="CMR17-76" d="M 2502 2163 
C 2560 2304 2662 2560 3034 2560 
L 3034 2726 
C 2912 2726 2752 2726 2630 2726 
C 2496 2726 2285 2726 2157 2732 
L 2157 2566 
C 2317 2553 2406 2477 2406 2311 
C 2406 2253 2406 2240 2368 2151 
L 1664 377 
L 902 2286 
C 864 2369 864 2381 864 2407 
C 864 2560 1075 2560 1171 2560 
L 1171 2732 
C 1018 2726 736 2726 576 2726 
C 403 2726 205 2726 64 2732 
L 64 2560 
C 307 2560 442 2560 518 2362 
L 1446 44 
C 1485 -51 1491 -64 1549 -64 
C 1606 -64 1613 -51 1651 44 
L 2502 2163 
z
" transform="scale(0.015625)"/>
      <path id="CMR17-73" d="M 1978 2697 
C 1978 2813 1971 2819 1933 2819 
C 1907 2819 1901 2813 1824 2717 
C 1805 2691 1747 2626 1728 2601 
C 1523 2819 1235 2819 1126 2819 
C 416 2819 160 2447 160 2076 
C 160 1498 813 1365 998 1325 
C 1402 1243 1542 1217 1677 1101 
C 1760 1025 1901 884 1901 654 
C 1901 384 1747 38 1158 38 
C 602 38 403 460 288 1021 
C 269 1110 269 1117 218 1117 
C 166 1117 160 1110 160 983 
L 160 63 
C 160 -51 166 -58 205 -58 
C 237 -58 243 -51 275 0 
C 314 57 410 211 448 276 
C 576 103 800 -64 1158 -64 
C 1792 -64 2131 283 2131 784 
C 2131 1112 1958 1285 1875 1362 
C 1683 1561 1459 1606 1190 1657 
C 838 1735 390 1825 390 2217 
C 390 2383 480 2737 1126 2737 
C 1811 2737 1850 2094 1862 1888 
C 1869 1856 1901 1849 1920 1849 
C 1978 1849 1978 1869 1978 1978 
L 1978 2697 
z
" transform="scale(0.015625)"/>
      <path id="CMR17-2e" d="M 1062 261 
C 1062 420 934 522 800 522 
C 672 522 538 420 538 261 
C 538 102 666 0 800 0 
C 928 0 1062 102 1062 261 
z
" transform="scale(0.015625)"/>
      <path id="CMR17-50" d="M 1267 2042 
L 2291 2042 
C 3117 2042 3718 2578 3718 3184 
C 3718 3791 3130 4352 2291 4352 
L 333 4352 
L 333 4186 
C 774 4186 845 4186 845 3899 
L 845 446 
C 845 160 774 160 333 160 
L 333 0 
C 518 0 858 0 1056 0 
C 1254 0 1594 0 1779 0 
L 1779 160 
C 1338 160 1267 160 1267 446 
L 1267 2042 
z
M 1254 2176 
L 1254 3938 
C 1254 4155 1267 4186 1523 4186 
L 2170 4186 
C 2995 4186 3232 3714 3232 3184 
C 3232 2604 2950 2176 2170 2176 
L 1254 2176 
z
" transform="scale(0.015625)"/>
      <path id="CMR17-64" d="M 1869 4326 
L 1869 4160 
C 2246 4160 2304 4122 2304 3820 
L 2304 2345 
C 2278 2377 2016 2790 1498 2790 
C 845 2790 211 2208 211 1364 
C 211 525 806 -64 1434 -64 
C 1978 -64 2259 337 2291 380 
L 2291 -63 
L 3066 -63 
L 3066 128 
C 2688 128 2630 166 2630 473 
L 2630 4396 
L 1869 4326 
z
M 2291 755 
C 2291 563 2176 390 2029 262 
C 1811 70 1594 38 1472 38 
C 1286 38 621 134 621 1356 
C 621 2612 1363 2688 1530 2688 
C 1824 2688 2061 2522 2208 2291 
C 2291 2157 2291 2138 2291 2023 
L 2291 755 
z
" transform="scale(0.015625)"/>
     </defs>
     <use xlink:href="#CMR17-41" transform="scale(0.996264)"/>
     <use xlink:href="#CMR17-63" transform="translate(69.07243 0) scale(0.996264)"/>
     <use xlink:href="#CMR17-74" transform="translate(109.55809 0) scale(0.996264)"/>
     <use xlink:href="#CMR17-75" transform="translate(144.838858 0) scale(0.996264)"/>
     <use xlink:href="#CMR17-61" transform="translate(195.734228 0) scale(0.996264)"/>
     <use xlink:href="#CMR17-6c" transform="translate(241.424705 0) scale(0.996264)"/>
     <use xlink:href="#CMR17-76" transform="translate(296.37173 0) scale(0.996264)"/>
     <use xlink:href="#CMR17-73" transform="translate(344.664646 0) scale(0.996264)"/>
     <use xlink:href="#CMR17-2e" transform="translate(380.465983 0) scale(0.996264)"/>
     <use xlink:href="#CMR17-50" transform="translate(445.822702 0) scale(0.996264)"/>
     <use xlink:href="#CMR17-72" transform="translate(508.409003 0) scale(0.996264)"/>
     <use xlink:href="#CMR17-65" transform="translate(543.689771 0) scale(0.996264)"/>
     <use xlink:href="#CMR17-64" transform="translate(584.175431 0) scale(0.996264)"/>
     <use xlink:href="#CMR17-69" transform="translate(635.070801 0) scale(0.996264)"/>
     <use xlink:href="#CMR17-63" transform="translate(659.941859 0) scale(0.996264)"/>
     <use xlink:href="#CMR17-74" transform="translate(700.42752 0) scale(0.996264)"/>
     <use xlink:href="#CMR17-65" transform="translate(735.708288 0) scale(0.996264)"/>
     <use xlink:href="#CMR17-64" transform="translate(776.193948 0) scale(0.996264)"/>
     <use xlink:href="#CMR17-54" transform="translate(857.165284 0) scale(0.996264)"/>
     <use xlink:href="#CMR17-6f" transform="translate(915.867909 0) scale(0.996264)"/>
     <use xlink:href="#CMR17-74" transform="translate(961.558386 0) scale(0.996264)"/>
     <use xlink:href="#CMR17-61" transform="translate(996.839154 0) scale(0.996264)"/>
     <use xlink:href="#CMR17-6c" transform="translate(1042.529631 0) scale(0.996264)"/>
     <use xlink:href="#CMR17-43" transform="translate(1097.476656 0) scale(0.996264)"/>
     <use xlink:href="#CMR17-6f" transform="translate(1163.986537 0) scale(0.996264)"/>
     <use xlink:href="#CMR17-6e" transform="translate(1209.677014 0) scale(0.996264)"/>
     <use xlink:href="#CMR17-74" transform="translate(1257.96993 0) scale(0.996264)"/>
     <use xlink:href="#CMR17-72" transform="translate(1293.250697 0) scale(0.996264)"/>
     <use xlink:href="#CMR17-69" transform="translate(1328.531465 0) scale(0.996264)"/>
     <use xlink:href="#CMR17-62" transform="translate(1353.402524 0) scale(0.996264)"/>
     <use xlink:href="#CMR17-75" transform="translate(1404.297894 0) scale(0.996264)"/>
     <use xlink:href="#CMR17-74" transform="translate(1455.193263 0) scale(0.996264)"/>
     <use xlink:href="#CMR17-69" transform="translate(1490.474031 0) scale(0.996264)"/>
     <use xlink:href="#CMR17-6f" transform="translate(1515.34509 0) scale(0.996264)"/>
     <use xlink:href="#CMR17-6e" transform="translate(1561.035567 0) scale(0.996264)"/>
    </g>
   </g>
   <g id="legend_1">
    <g id="patch_5">
     <path d="M 261.932367 356.999744 
L 492.077323 356.999744 
Q 494.077323 356.999744 494.077323 354.999744 
L 494.077323 342.062566 
Q 494.077323 340.062566 492.077323 340.062566 
L 261.932367 340.062566 
Q 259.932367 340.062566 259.932367 342.062566 
L 259.932367 354.999744 
Q 259.932367 356.999744 261.932367 356.999744 
z
" style="fill: #ffffff; opacity: 0.8"/>
    </g>
    <g id="line2d_23">
     <path d="M 263.932367 347.562566 
L 273.932367 347.562566 
L 283.932367 347.562566 
" style="fill: none; stroke: #006e64; stroke-width: 1.5; stroke-linecap: round"/>
    </g>
    <g id="text_24">
     <!-- Actual -->
     <g style="fill: #262626" transform="translate(291.932367 351.062566) scale(0.1 -0.1)">
      <use xlink:href="#CMR17-41" transform="scale(0.996264)"/>
      <use xlink:href="#CMR17-63" transform="translate(69.07243 0) scale(0.996264)"/>
      <use xlink:href="#CMR17-74" transform="translate(109.55809 0) scale(0.996264)"/>
      <use xlink:href="#CMR17-75" transform="translate(144.838858 0) scale(0.996264)"/>
      <use xlink:href="#CMR17-61" transform="translate(195.734228 0) scale(0.996264)"/>
      <use xlink:href="#CMR17-6c" transform="translate(241.424705 0) scale(0.996264)"/>
     </g>
    </g>
    <g id="line2d_24">
     <path d="M 340.990133 347.562566 
L 350.990133 347.562566 
L 360.990133 347.562566 
" style="fill: none; stroke: #c17150; stroke-width: 1.5; stroke-linecap: round"/>
    </g>
    <g id="text_25">
     <!-- Predicted -->
     <g style="fill: #262626" transform="translate(368.990133 351.062566) scale(0.1 -0.1)">
      <use xlink:href="#CMR17-50" transform="scale(0.996264)"/>
      <use xlink:href="#CMR17-72" transform="translate(62.586301 0) scale(0.996264)"/>
      <use xlink:href="#CMR17-65" transform="translate(97.867068 0) scale(0.996264)"/>
      <use xlink:href="#CMR17-64" transform="translate(138.352729 0) scale(0.996264)"/>
      <use xlink:href="#CMR17-69" transform="translate(189.248099 0) scale(0.996264)"/>
      <use xlink:href="#CMR17-63" transform="translate(214.119157 0) scale(0.996264)"/>
      <use xlink:href="#CMR17-74" transform="translate(254.604818 0) scale(0.996264)"/>
      <use xlink:href="#CMR17-65" transform="translate(289.885585 0) scale(0.996264)"/>
      <use xlink:href="#CMR17-64" transform="translate(330.371246 0) scale(0.996264)"/>
     </g>
    </g>
    <g id="line2d_25">
     <path d="M 430.667249 347.562566 
L 440.667249 347.562566 
L 450.667249 347.562566 
" style="fill: none; stroke: #7cab53; stroke-width: 1.5; stroke-linecap: round"/>
    </g>
    <g id="text_26">
     <!-- Budget -->
     <g style="fill: #262626" transform="translate(458.667249 351.062566) scale(0.1 -0.1)">
      <defs>
       <path id="CMR17-42" d="M 333 4352 
L 333 4186 
C 774 4186 845 4186 845 3900 
L 845 452 
C 845 166 774 166 333 166 
L 333 0 
L 2534 0 
C 3354 0 3885 583 3885 1164 
C 3885 1741 3360 2233 2675 2233 
C 3290 2356 3718 2771 3718 3264 
C 3718 3802 3194 4352 2368 4352 
L 333 4352 
z
M 1248 2304 
L 1248 3937 
C 1248 4155 1261 4186 1517 4186 
L 2336 4186 
C 2970 4186 3251 3674 3251 3277 
C 3251 2791 2861 2304 2170 2304 
L 1248 2304 
z
M 1517 166 
C 1261 166 1248 197 1248 413 
L 1248 2202 
L 2432 2202 
C 3091 2202 3411 1625 3411 1162 
C 3411 699 3046 166 2349 166 
L 1517 166 
z
" transform="scale(0.015625)"/>
       <path id="CMR17-67" d="M 710 1164 
C 832 1068 1043 960 1299 960 
C 1805 960 2240 1357 2240 1888 
C 2240 2054 2189 2310 1997 2509 
C 2176 2692 2438 2752 2586 2752 
C 2611 2752 2650 2752 2682 2734 
C 2656 2728 2598 2703 2598 2605 
C 2598 2527 2656 2471 2739 2471 
C 2835 2471 2886 2533 2886 2614 
C 2886 2731 2790 2854 2586 2854 
C 2330 2854 2106 2738 1926 2580 
C 1734 2753 1504 2816 1299 2816 
C 794 2816 358 2419 358 1888 
C 358 1522 570 1292 634 1228 
C 442 1004 442 743 442 711 
C 442 545 506 302 723 168 
C 390 85 128 -169 128 -486 
C 128 -943 736 -1280 1466 -1280 
C 2170 -1280 2803 -956 2803 -479 
C 2803 384 1856 384 1363 384 
C 1216 384 954 384 922 391 
C 723 423 589 602 589 826 
C 589 883 589 1024 710 1164 
z
M 1299 1068 
C 736 1068 736 1760 736 1889 
C 736 2016 736 2708 1299 2708 
C 1862 2708 1862 2016 1862 1889 
C 1862 1760 1862 1068 1299 1068 
z
M 1466 -1171 
C 826 -1171 384 -835 384 -486 
C 384 -289 493 -105 634 -4 
C 794 104 858 104 1293 104 
C 1818 104 2547 104 2547 -486 
C 2547 -835 2106 -1171 1466 -1171 
z
" transform="scale(0.015625)"/>
      </defs>
      <use xlink:href="#CMR17-42" transform="scale(0.996264)"/>
      <use xlink:href="#CMR17-75" transform="translate(65.188754 0) scale(0.996264)"/>
      <use xlink:href="#CMR17-64" transform="translate(116.084124 0) scale(0.996264)"/>
      <use xlink:href="#CMR17-67" transform="translate(166.979494 0) scale(0.996264)"/>
      <use xlink:href="#CMR17-65" transform="translate(212.669971 0) scale(0.996264)"/>
      <use xlink:href="#CMR17-74" transform="translate(253.155632 0) scale(0.996264)"/>
     </g>
    </g>
   </g>
  </g>
 </g>
 <defs>
  <clipPath id="pb03fbddab3">
   <rect x="37.067331" y="17.30242" width="679.875029" height="288.87286"/>
  </clipPath>
 </defs>
</svg>
