<?xml version="1.0" encoding="utf-8" standalone="no"?>
<!DOCTYPE svg PUBLIC "-//W3C//DTD SVG 1.1//EN"
  "http://www.w3.org/Graphics/SVG/1.1/DTD/svg11.dtd">
<svg xmlns:xlink="http://www.w3.org/1999/xlink" width="720pt" height="360pt" viewBox="0 0 720 360" xmlns="http://www.w3.org/2000/svg" version="1.1">
 <metadata>
  <rdf:RDF xmlns:dc="http://purl.org/dc/elements/1.1/" xmlns:cc="http://creativecommons.org/ns#" xmlns:rdf="http://www.w3.org/1999/02/22-rdf-syntax-ns#">
   <cc:Work>
    <dc:type rdf:resource="http://purl.org/dc/dcmitype/StillImage"/>
    <dc:date>2023-10-17T20:45:29.067111</dc:date>
    <dc:format>image/svg+xml</dc:format>
    <dc:creator>
     <cc:Agent>
      <dc:title>Matplotlib v3.6.3, https://matplotlib.org/</dc:title>
     </cc:Agent>
    </dc:creator>
   </cc:Work>
  </rdf:RDF>
 </metadata>
 <defs>
  <style type="text/css">*{stroke-linejoin: round; stroke-linecap: butt}</style>
 </defs>
 <g id="figure_1">
  <g id="patch_1">
   <path d="M 0 360 
L 720 360 
L 720 0 
L 0 0 
z
" style="fill: #ffffff"/>
  </g>
  <g id="axes_1">
   <g id="patch_2">
    <path d="M 32.085996 305.243042 
L 716.99976 305.243042 
L 716.99976 17.30242 
L 32.085996 17.30242 
z
" style="fill: #ffffff"/>
   </g>
   <g id="matplotlib.axis_1">
    <g id="xtick_1">
     <g id="line2d_1">
      <path d="M 84.018867 305.243042 
L 84.018867 17.30242 
" clip-path="url(#pe9c852b80f)" style="fill: none; stroke: #cccccc; stroke-opacity: 0.5; stroke-width: 0.8; stroke-linecap: round"/>
     </g>
     <g id="text_1">
      <!-- $\mathdefault{2014}$ -->
      <g transform="translate(74.056197 315.66154) scale(0.1 -0.1)">
       <defs>
        <path id="CMR17-32" d="M 2669 989 
L 2554 989 
C 2490 536 2438 459 2413 420 
C 2381 369 1920 369 1830 369 
L 602 369 
C 832 619 1280 1072 1824 1597 
C 2214 1967 2669 2402 2669 3035 
C 2669 3790 2067 4224 1395 4224 
C 691 4224 262 3604 262 3030 
C 262 2780 448 2748 525 2748 
C 589 2748 781 2787 781 3010 
C 781 3207 614 3264 525 3264 
C 486 3264 448 3258 422 3245 
C 544 3790 915 4058 1306 4058 
C 1862 4058 2227 3617 2227 3035 
C 2227 2479 1901 2000 1536 1584 
L 262 146 
L 262 0 
L 2515 0 
L 2669 989 
z
" transform="scale(0.015625)"/>
        <path id="CMR17-30" d="M 2688 2025 
C 2688 2416 2682 3080 2413 3591 
C 2176 4039 1798 4198 1466 4198 
C 1158 4198 768 4058 525 3597 
C 269 3118 243 2524 243 2025 
C 243 1661 250 1106 448 619 
C 723 -39 1216 -128 1466 -128 
C 1760 -128 2208 -7 2470 600 
C 2662 1042 2688 1559 2688 2025 
z
M 1466 -26 
C 1056 -26 813 325 723 812 
C 653 1188 653 1738 653 2096 
C 653 2588 653 2997 736 3387 
C 858 3929 1216 4096 1466 4096 
C 1728 4096 2067 3923 2189 3400 
C 2272 3036 2278 2607 2278 2096 
C 2278 1680 2278 1169 2202 792 
C 2067 95 1690 -26 1466 -26 
z
" transform="scale(0.015625)"/>
        <path id="CMR17-31" d="M 1702 4058 
C 1702 4192 1696 4192 1606 4192 
C 1357 3916 979 3827 621 3827 
C 602 3827 570 3827 563 3808 
C 557 3795 557 3782 557 3648 
C 755 3648 1088 3686 1344 3839 
L 1344 461 
C 1344 236 1331 160 781 160 
L 589 160 
L 589 0 
C 896 0 1216 0 1523 0 
C 1830 0 2150 0 2458 0 
L 2458 160 
L 2266 160 
C 1715 160 1702 230 1702 458 
L 1702 4058 
z
" transform="scale(0.015625)"/>
        <path id="CMR17-34" d="M 2150 4122 
C 2150 4256 2144 4256 2029 4256 
L 128 1254 
L 128 1088 
L 1779 1088 
L 1779 457 
C 1779 224 1766 160 1318 160 
L 1197 160 
L 1197 0 
C 1402 0 1747 0 1965 0 
C 2182 0 2528 0 2733 0 
L 2733 160 
L 2611 160 
C 2163 160 2150 224 2150 457 
L 2150 1088 
L 2803 1088 
L 2803 1254 
L 2150 1254 
L 2150 4122 
z
M 1798 3703 
L 1798 1254 
L 256 1254 
L 1798 3703 
z
" transform="scale(0.015625)"/>
       </defs>
       <use xlink:href="#CMR17-32" transform="scale(0.996264)"/>
       <use xlink:href="#CMR17-30" transform="translate(45.690477 0) scale(0.996264)"/>
       <use xlink:href="#CMR17-31" transform="translate(91.380954 0) scale(0.996264)"/>
       <use xlink:href="#CMR17-34" transform="translate(137.071431 0) scale(0.996264)"/>
      </g>
     </g>
    </g>
    <g id="xtick_2">
     <g id="line2d_2">
      <path d="M 146.249656 305.243042 
L 146.249656 17.30242 
" clip-path="url(#pe9c852b80f)" style="fill: none; stroke: #cccccc; stroke-opacity: 0.5; stroke-width: 0.8; stroke-linecap: round"/>
     </g>
     <g id="text_2">
      <!-- $\mathdefault{2015}$ -->
      <g transform="translate(136.286986 315.66154) scale(0.1 -0.1)">
       <defs>
        <path id="CMR17-35" d="M 730 3692 
C 794 3666 1056 3584 1325 3584 
C 1920 3584 2246 3911 2432 4100 
C 2432 4157 2432 4192 2394 4192 
C 2387 4192 2374 4192 2323 4163 
C 2099 4058 1837 3973 1517 3973 
C 1325 3973 1037 3999 723 4139 
C 653 4171 640 4171 634 4171 
C 602 4171 595 4164 595 4037 
L 595 2203 
C 595 2089 595 2057 659 2057 
C 691 2057 704 2070 736 2114 
C 941 2401 1222 2522 1542 2522 
C 1766 2522 2246 2382 2246 1289 
C 2246 1085 2246 715 2054 421 
C 1894 159 1645 25 1370 25 
C 947 25 518 320 403 814 
C 429 807 480 795 506 795 
C 589 795 749 840 749 1038 
C 749 1210 627 1280 506 1280 
C 358 1280 262 1190 262 1011 
C 262 454 704 -128 1382 -128 
C 2042 -128 2669 440 2669 1264 
C 2669 2030 2170 2624 1549 2624 
C 1222 2624 947 2503 730 2274 
L 730 3692 
z
" transform="scale(0.015625)"/>
       </defs>
       <use xlink:href="#CMR17-32" transform="scale(0.996264)"/>
       <use xlink:href="#CMR17-30" transform="translate(45.690477 0) scale(0.996264)"/>
       <use xlink:href="#CMR17-31" transform="translate(91.380954 0) scale(0.996264)"/>
       <use xlink:href="#CMR17-35" transform="translate(137.071431 0) scale(0.996264)"/>
      </g>
     </g>
    </g>
    <g id="xtick_3">
     <g id="line2d_3">
      <path d="M 208.480445 305.243042 
L 208.480445 17.30242 
" clip-path="url(#pe9c852b80f)" style="fill: none; stroke: #cccccc; stroke-opacity: 0.5; stroke-width: 0.8; stroke-linecap: round"/>
     </g>
     <g id="text_3">
      <!-- $\mathdefault{2016}$ -->
      <g transform="translate(198.517774 315.66154) scale(0.1 -0.1)">
       <defs>
        <path id="CMR17-36" d="M 678 2176 
C 678 3690 1395 4032 1811 4032 
C 1946 4032 2272 4009 2400 3776 
C 2298 3776 2106 3776 2106 3553 
C 2106 3381 2246 3323 2336 3323 
C 2394 3323 2566 3348 2566 3560 
C 2566 3954 2246 4179 1805 4179 
C 1043 4179 243 3390 243 1984 
C 243 253 966 -128 1478 -128 
C 2099 -128 2688 427 2688 1283 
C 2688 2081 2170 2662 1517 2662 
C 1126 2662 838 2407 678 1960 
L 678 2176 
z
M 1478 25 
C 691 25 691 1200 691 1436 
C 691 1896 909 2560 1504 2560 
C 1613 2560 1926 2560 2138 2120 
C 2253 1870 2253 1609 2253 1289 
C 2253 944 2253 690 2118 434 
C 1978 171 1773 25 1478 25 
z
" transform="scale(0.015625)"/>
       </defs>
       <use xlink:href="#CMR17-32" transform="scale(0.996264)"/>
       <use xlink:href="#CMR17-30" transform="translate(45.690477 0) scale(0.996264)"/>
       <use xlink:href="#CMR17-31" transform="translate(91.380954 0) scale(0.996264)"/>
       <use xlink:href="#CMR17-36" transform="translate(137.071431 0) scale(0.996264)"/>
      </g>
     </g>
    </g>
    <g id="xtick_4">
     <g id="line2d_4">
      <path d="M 270.881729 305.243042 
L 270.881729 17.30242 
" clip-path="url(#pe9c852b80f)" style="fill: none; stroke: #cccccc; stroke-opacity: 0.5; stroke-width: 0.8; stroke-linecap: round"/>
     </g>
     <g id="text_4">
      <!-- $\mathdefault{2017}$ -->
      <g transform="translate(260.919058 315.66154) scale(0.1 -0.1)">
       <defs>
        <path id="CMR17-37" d="M 2886 3941 
L 2886 4081 
L 1382 4081 
C 634 4081 621 4165 595 4288 
L 480 4288 
L 294 3094 
L 410 3094 
C 429 3215 474 3540 550 3661 
C 589 3712 1062 3712 1171 3712 
L 2579 3712 
L 1869 2661 
C 1395 1954 1069 999 1069 165 
C 1069 89 1069 -128 1299 -128 
C 1530 -128 1530 89 1530 171 
L 1530 465 
C 1530 1508 1709 2196 2003 2636 
L 2886 3941 
z
" transform="scale(0.015625)"/>
       </defs>
       <use xlink:href="#CMR17-32" transform="scale(0.996264)"/>
       <use xlink:href="#CMR17-30" transform="translate(45.690477 0) scale(0.996264)"/>
       <use xlink:href="#CMR17-31" transform="translate(91.380954 0) scale(0.996264)"/>
       <use xlink:href="#CMR17-37" transform="translate(137.071431 0) scale(0.996264)"/>
      </g>
     </g>
    </g>
    <g id="xtick_5">
     <g id="line2d_5">
      <path d="M 333.112517 305.243042 
L 333.112517 17.30242 
" clip-path="url(#pe9c852b80f)" style="fill: none; stroke: #cccccc; stroke-opacity: 0.5; stroke-width: 0.8; stroke-linecap: round"/>
     </g>
     <g id="text_5">
      <!-- $\mathdefault{2018}$ -->
      <g transform="translate(323.149847 315.66154) scale(0.1 -0.1)">
       <defs>
        <path id="CMR17-38" d="M 1741 2264 
C 2144 2467 2554 2773 2554 3263 
C 2554 3841 1990 4179 1472 4179 
C 890 4179 378 3759 378 3180 
C 378 3021 416 2747 666 2505 
C 730 2442 998 2251 1171 2130 
C 883 1983 211 1634 211 934 
C 211 279 838 -128 1459 -128 
C 2144 -128 2720 362 2720 1010 
C 2720 1590 2330 1857 2074 2029 
L 1741 2264 
z
M 902 2822 
C 851 2854 595 3051 595 3351 
C 595 3739 998 4032 1459 4032 
C 1965 4032 2336 3676 2336 3262 
C 2336 2669 1670 2331 1638 2331 
C 1632 2331 1626 2331 1574 2370 
L 902 2822 
z
M 2080 1519 
C 2176 1449 2483 1240 2483 851 
C 2483 381 2010 25 1472 25 
C 890 25 448 438 448 940 
C 448 1443 838 1862 1280 2060 
L 2080 1519 
z
" transform="scale(0.015625)"/>
       </defs>
       <use xlink:href="#CMR17-32" transform="scale(0.996264)"/>
       <use xlink:href="#CMR17-30" transform="translate(45.690477 0) scale(0.996264)"/>
       <use xlink:href="#CMR17-31" transform="translate(91.380954 0) scale(0.996264)"/>
       <use xlink:href="#CMR17-38" transform="translate(137.071431 0) scale(0.996264)"/>
      </g>
     </g>
    </g>
    <g id="xtick_6">
     <g id="line2d_6">
      <path d="M 395.343306 305.243042 
L 395.343306 17.30242 
" clip-path="url(#pe9c852b80f)" style="fill: none; stroke: #cccccc; stroke-opacity: 0.5; stroke-width: 0.8; stroke-linecap: round"/>
     </g>
     <g id="text_6">
      <!-- $\mathdefault{2019}$ -->
      <g transform="translate(385.380635 315.66154) scale(0.1 -0.1)">
       <defs>
        <path id="CMR17-39" d="M 2253 1864 
C 2253 464 1670 31 1190 31 
C 1043 31 685 31 538 294 
C 704 268 826 357 826 518 
C 826 692 685 749 595 749 
C 538 749 365 723 365 506 
C 365 71 742 -128 1203 -128 
C 1939 -128 2688 674 2688 2073 
C 2688 3817 1971 4179 1485 4179 
C 851 4179 243 3628 243 2778 
C 243 1991 762 1408 1414 1408 
C 1952 1408 2189 1903 2253 2112 
L 2253 1864 
z
M 1427 1510 
C 1254 1510 1011 1542 813 1922 
C 678 2169 678 2461 678 2771 
C 678 3146 678 3405 858 3684 
C 947 3817 1114 4032 1485 4032 
C 2240 4032 2240 2885 2240 2632 
C 2240 2182 2035 1510 1427 1510 
z
" transform="scale(0.015625)"/>
       </defs>
       <use xlink:href="#CMR17-32" transform="scale(0.996264)"/>
       <use xlink:href="#CMR17-30" transform="translate(45.690477 0) scale(0.996264)"/>
       <use xlink:href="#CMR17-31" transform="translate(91.380954 0) scale(0.996264)"/>
       <use xlink:href="#CMR17-39" transform="translate(137.071431 0) scale(0.996264)"/>
      </g>
     </g>
    </g>
    <g id="xtick_7">
     <g id="line2d_7">
      <path d="M 457.574094 305.243042 
L 457.574094 17.30242 
" clip-path="url(#pe9c852b80f)" style="fill: none; stroke: #cccccc; stroke-opacity: 0.5; stroke-width: 0.8; stroke-linecap: round"/>
     </g>
     <g id="text_7">
      <!-- $\mathdefault{2020}$ -->
      <g transform="translate(447.611424 315.66154) scale(0.1 -0.1)">
       <use xlink:href="#CMR17-32" transform="scale(0.996264)"/>
       <use xlink:href="#CMR17-30" transform="translate(45.690477 0) scale(0.996264)"/>
       <use xlink:href="#CMR17-32" transform="translate(91.380954 0) scale(0.996264)"/>
       <use xlink:href="#CMR17-30" transform="translate(137.071431 0) scale(0.996264)"/>
      </g>
     </g>
    </g>
    <g id="xtick_8">
     <g id="line2d_8">
      <path d="M 519.975378 305.243042 
L 519.975378 17.30242 
" clip-path="url(#pe9c852b80f)" style="fill: none; stroke: #cccccc; stroke-opacity: 0.5; stroke-width: 0.8; stroke-linecap: round"/>
     </g>
     <g id="text_8">
      <!-- $\mathdefault{2021}$ -->
      <g transform="translate(510.012708 315.66154) scale(0.1 -0.1)">
       <use xlink:href="#CMR17-32" transform="scale(0.996264)"/>
       <use xlink:href="#CMR17-30" transform="translate(45.690477 0) scale(0.996264)"/>
       <use xlink:href="#CMR17-32" transform="translate(91.380954 0) scale(0.996264)"/>
       <use xlink:href="#CMR17-31" transform="translate(137.071431 0) scale(0.996264)"/>
      </g>
     </g>
    </g>
    <g id="xtick_9">
     <g id="line2d_9">
      <path d="M 582.206167 305.243042 
L 582.206167 17.30242 
" clip-path="url(#pe9c852b80f)" style="fill: none; stroke: #cccccc; stroke-opacity: 0.5; stroke-width: 0.8; stroke-linecap: round"/>
     </g>
     <g id="text_9">
      <!-- $\mathdefault{2022}$ -->
      <g transform="translate(572.243496 315.66154) scale(0.1 -0.1)">
       <use xlink:href="#CMR17-32" transform="scale(0.996264)"/>
       <use xlink:href="#CMR17-30" transform="translate(45.690477 0) scale(0.996264)"/>
       <use xlink:href="#CMR17-32" transform="translate(91.380954 0) scale(0.996264)"/>
       <use xlink:href="#CMR17-32" transform="translate(137.071431 0) scale(0.996264)"/>
      </g>
     </g>
    </g>
    <g id="xtick_10">
     <g id="line2d_10">
      <path d="M 644.436956 305.243042 
L 644.436956 17.30242 
" clip-path="url(#pe9c852b80f)" style="fill: none; stroke: #cccccc; stroke-opacity: 0.5; stroke-width: 0.8; stroke-linecap: round"/>
     </g>
     <g id="text_10">
      <!-- $\mathdefault{2023}$ -->
      <g transform="translate(634.474285 315.66154) scale(0.1 -0.1)">
       <defs>
        <path id="CMR17-33" d="M 1414 2157 
C 1984 2157 2234 1662 2234 1090 
C 2234 320 1824 25 1453 25 
C 1114 25 563 194 390 693 
C 422 680 454 680 486 680 
C 640 680 755 782 755 948 
C 755 1133 614 1216 486 1216 
C 378 1216 211 1165 211 926 
C 211 335 787 -128 1466 -128 
C 2176 -128 2720 430 2720 1085 
C 2720 1707 2208 2157 1600 2227 
C 2086 2328 2554 2756 2554 3329 
C 2554 3820 2048 4179 1472 4179 
C 890 4179 378 3829 378 3329 
C 378 3110 544 3072 627 3072 
C 762 3072 877 3155 877 3321 
C 877 3486 762 3569 627 3569 
C 602 3569 570 3569 544 3557 
C 730 3959 1235 4032 1459 4032 
C 1683 4032 2106 3925 2106 3320 
C 2106 3143 2080 2828 1862 2550 
C 1670 2304 1453 2304 1242 2284 
C 1210 2284 1062 2269 1037 2269 
C 992 2263 966 2257 966 2208 
C 966 2163 973 2157 1101 2157 
L 1414 2157 
z
" transform="scale(0.015625)"/>
       </defs>
       <use xlink:href="#CMR17-32" transform="scale(0.996264)"/>
       <use xlink:href="#CMR17-30" transform="translate(45.690477 0) scale(0.996264)"/>
       <use xlink:href="#CMR17-32" transform="translate(91.380954 0) scale(0.996264)"/>
       <use xlink:href="#CMR17-33" transform="translate(137.071431 0) scale(0.996264)"/>
      </g>
     </g>
    </g>
    <g id="xtick_11">
     <g id="line2d_11">
      <path d="M 706.667744 305.243042 
L 706.667744 17.30242 
" clip-path="url(#pe9c852b80f)" style="fill: none; stroke: #cccccc; stroke-opacity: 0.5; stroke-width: 0.8; stroke-linecap: round"/>
     </g>
     <g id="text_11">
      <!-- $\mathdefault{2024}$ -->
      <g transform="translate(696.705074 315.66154) scale(0.1 -0.1)">
       <use xlink:href="#CMR17-32" transform="scale(0.996264)"/>
       <use xlink:href="#CMR17-30" transform="translate(45.690477 0) scale(0.996264)"/>
       <use xlink:href="#CMR17-32" transform="translate(91.380954 0) scale(0.996264)"/>
       <use xlink:href="#CMR17-34" transform="translate(137.071431 0) scale(0.996264)"/>
      </g>
     </g>
    </g>
    <g id="text_12">
     <!-- Date -->
     <g style="fill: #696969" transform="translate(364.095924 328.517217) scale(0.1 -0.1)">
      <defs>
       <path id="CMR17-44" d="M 333 4352 
L 333 4186 
C 774 4186 845 4186 845 3900 
L 845 452 
C 845 166 774 166 333 166 
L 333 0 
L 2368 0 
C 3398 0 4224 943 4224 2141 
C 4224 3346 3411 4352 2368 4352 
L 333 4352 
z
M 1523 166 
C 1267 166 1254 197 1254 414 
L 1254 3938 
C 1254 4155 1267 4186 1523 4186 
L 2240 4186 
C 2771 4186 3750 3874 3750 2141 
C 3750 1242 3488 879 3366 707 
C 3213 510 2848 166 2240 166 
L 1523 166 
z
" transform="scale(0.015625)"/>
       <path id="CMR17-61" d="M 2304 1653 
C 2304 2072 2304 2294 2035 2543 
C 1798 2752 1523 2816 1306 2816 
C 800 2816 435 2407 435 1971 
C 435 1728 627 1728 666 1728 
C 749 1728 896 1778 896 1954 
C 896 2112 774 2181 666 2181 
C 640 2181 608 2174 589 2168 
C 723 2592 1069 2714 1293 2714 
C 1613 2714 1965 2429 1965 1885 
L 1965 1600 
C 1587 1600 1133 1549 774 1357 
C 371 1133 256 813 256 570 
C 256 77 832 -64 1171 -64 
C 1523 -64 1850 139 1990 511 
C 2003 233 2182 -18 2464 -18 
C 2598 -18 2938 70 2938 567 
L 2938 920 
L 2822 920 
L 2822 562 
C 2822 178 2650 128 2566 128 
C 2304 128 2304 458 2304 738 
L 2304 1653 
z
M 1965 870 
C 1965 317 1568 38 1216 38 
C 896 38 646 275 646 570 
C 646 761 730 1100 1101 1305 
C 1408 1478 1760 1504 1965 1504 
L 1965 870 
z
" transform="scale(0.015625)"/>
       <path id="CMR17-74" d="M 966 2560 
L 1862 2560 
L 1862 2725 
L 966 2725 
L 966 3904 
L 851 3904 
C 838 3245 614 2668 70 2668 
L 70 2560 
L 627 2560 
L 627 771 
C 627 650 627 -64 1370 -64 
C 1747 -64 1965 306 1965 777 
L 1965 1140 
L 1850 1140 
L 1850 783 
C 1850 344 1677 51 1408 51 
C 1222 51 966 178 966 758 
L 966 2560 
z
" transform="scale(0.015625)"/>
       <path id="CMR17-65" d="M 2438 1472 
C 2464 1498 2464 1511 2464 1576 
C 2464 2238 2118 2816 1389 2816 
C 710 2816 173 2169 173 1383 
C 173 551 781 -64 1459 -64 
C 2176 -64 2458 607 2458 740 
C 2458 784 2419 784 2406 784 
C 2362 784 2355 771 2330 696 
C 2189 265 1837 51 1504 51 
C 1229 51 954 203 781 480 
C 582 803 582 1176 582 1472 
L 2438 1472 
z
M 589 1568 
C 634 2505 1126 2714 1382 2714 
C 1818 2714 2112 2297 2118 1568 
L 589 1568 
z
" transform="scale(0.015625)"/>
      </defs>
      <use xlink:href="#CMR17-44" transform="scale(0.996264)"/>
      <use xlink:href="#CMR17-61" transform="translate(70.393556 0) scale(0.996264)"/>
      <use xlink:href="#CMR17-74" transform="translate(116.084033 0) scale(0.996264)"/>
      <use xlink:href="#CMR17-65" transform="translate(151.364801 0) scale(0.996264)"/>
     </g>
    </g>
   </g>
   <g id="matplotlib.axis_2">
    <g id="ytick_1">
     <g id="line2d_12">
      <path d="M 32.085996 268.480729 
L 716.99976 268.480729 
" clip-path="url(#pe9c852b80f)" style="fill: none; stroke: #cccccc; stroke-opacity: 0.5; stroke-width: 0.8; stroke-linecap: round"/>
     </g>
     <g id="text_13">
      <!-- $\mathdefault{−2}$ -->
      <g transform="translate(15.855917 271.939978) scale(0.1 -0.1)">
       <defs>
        <path id="CMSY10-0" d="M 4218 1472 
C 4326 1472 4442 1472 4442 1600 
C 4442 1728 4326 1728 4218 1728 
L 755 1728 
C 646 1728 531 1728 531 1600 
C 531 1472 646 1472 755 1472 
L 4218 1472 
z
" transform="scale(0.015625)"/>
       </defs>
       <use xlink:href="#CMSY10-0" transform="scale(0.996264)"/>
       <use xlink:href="#CMR17-32" transform="translate(77.487468 0) scale(0.996264)"/>
      </g>
     </g>
    </g>
    <g id="ytick_2">
     <g id="line2d_13">
      <path d="M 32.085996 218.22694 
L 716.99976 218.22694 
" clip-path="url(#pe9c852b80f)" style="fill: none; stroke: #cccccc; stroke-opacity: 0.5; stroke-width: 0.8; stroke-linecap: round"/>
     </g>
     <g id="text_14">
      <!-- $\mathdefault{0}$ -->
      <g transform="translate(23.60466 221.686189) scale(0.1 -0.1)">
       <use xlink:href="#CMR17-30" transform="scale(0.996264)"/>
      </g>
     </g>
    </g>
    <g id="ytick_3">
     <g id="line2d_14">
      <path d="M 32.085996 167.97315 
L 716.99976 167.97315 
" clip-path="url(#pe9c852b80f)" style="fill: none; stroke: #cccccc; stroke-opacity: 0.5; stroke-width: 0.8; stroke-linecap: round"/>
     </g>
     <g id="text_15">
      <!-- $\mathdefault{2}$ -->
      <g transform="translate(23.60466 171.432399) scale(0.1 -0.1)">
       <use xlink:href="#CMR17-32" transform="scale(0.996264)"/>
      </g>
     </g>
    </g>
    <g id="ytick_4">
     <g id="line2d_15">
      <path d="M 32.085996 117.719361 
L 716.99976 117.719361 
" clip-path="url(#pe9c852b80f)" style="fill: none; stroke: #cccccc; stroke-opacity: 0.5; stroke-width: 0.8; stroke-linecap: round"/>
     </g>
     <g id="text_16">
      <!-- $\mathdefault{4}$ -->
      <g transform="translate(23.60466 121.17861) scale(0.1 -0.1)">
       <use xlink:href="#CMR17-34" transform="scale(0.996264)"/>
      </g>
     </g>
    </g>
    <g id="ytick_5">
     <g id="line2d_16">
      <path d="M 32.085996 67.465571 
L 716.99976 67.465571 
" clip-path="url(#pe9c852b80f)" style="fill: none; stroke: #cccccc; stroke-opacity: 0.5; stroke-width: 0.8; stroke-linecap: round"/>
     </g>
     <g id="text_17">
      <!-- $\mathdefault{6}$ -->
      <g transform="translate(23.60466 70.92482) scale(0.1 -0.1)">
       <use xlink:href="#CMR17-36" transform="scale(0.996264)"/>
      </g>
     </g>
    </g>
    <g id="text_18">
     <!-- Total Contribution -->
     <g style="fill: #696969" transform="translate(9.918738 202.52092) rotate(-90) scale(0.1 -0.1)">
      <defs>
       <path id="CMR17-54" d="M 3981 4326 
L 288 4326 
L 179 2918 
L 294 2918 
C 378 3976 467 4160 1453 4160 
C 1568 4160 1754 4160 1805 4154 
C 1926 4135 1926 4058 1926 3912 
L 1926 459 
C 1926 230 1907 160 1376 160 
L 1197 160 
L 1197 0 
C 1504 0 1824 0 2138 0 
C 2451 0 2771 0 3078 0 
L 3078 160 
L 2899 160 
C 2368 160 2349 230 2349 459 
L 2349 3912 
C 2349 4052 2349 4129 2464 4154 
C 2515 4160 2701 4160 2816 4160 
C 3795 4160 3891 3976 3974 2918 
L 4090 2918 
L 3981 4326 
z
" transform="scale(0.015625)"/>
       <path id="CMR17-6f" d="M 2758 1356 
C 2758 2176 2163 2816 1466 2816 
C 768 2816 173 2176 173 1356 
C 173 551 768 -64 1466 -64 
C 2163 -64 2758 551 2758 1356 
z
M 1466 51 
C 1165 51 909 230 762 480 
C 602 767 582 1126 582 1408 
C 582 1677 595 2010 762 2298 
C 890 2509 1139 2714 1466 2714 
C 1754 2714 1997 2554 2150 2330 
C 2349 2029 2349 1607 2349 1408 
C 2349 1158 2336 775 2163 467 
C 1984 173 1709 51 1466 51 
z
" transform="scale(0.015625)"/>
       <path id="CMR17-6c" d="M 979 4396 
L 218 4326 
L 218 4160 
C 595 4160 653 4122 653 3817 
L 653 426 
C 653 184 627 153 218 153 
L 218 -13 
C 371 0 653 0 813 0 
C 979 0 1261 0 1414 -13 
L 1414 153 
C 1005 153 979 178 979 426 
L 979 4396 
z
" transform="scale(0.015625)"/>
       <path id="CMR17-43" d="M 3974 4289 
C 3974 4403 3968 4410 3930 4410 
C 3904 4410 3898 4403 3853 4327 
L 3571 3792 
C 3258 4187 2874 4416 2381 4416 
C 1286 4416 294 3456 294 2148 
C 294 826 1286 -128 2387 -128 
C 3366 -128 3974 730 3974 1461 
C 3974 1524 3974 1550 3917 1550 
C 3866 1550 3866 1531 3859 1474 
C 3808 585 3168 38 2477 38 
C 1824 38 781 495 781 2147 
C 781 3805 1843 4250 2464 4250 
C 3187 4250 3712 3628 3834 2745 
C 3846 2668 3846 2655 3904 2655 
C 3974 2655 3974 2668 3974 2783 
L 3974 4289 
z
" transform="scale(0.015625)"/>
       <path id="CMR17-6e" d="M 2656 1933 
C 2656 2259 2592 2790 1837 2790 
C 1331 2790 1069 2400 973 2144 
L 966 2144 
L 966 2790 
L 211 2720 
L 211 2554 
C 589 2554 646 2515 646 2208 
L 646 428 
C 646 184 621 153 211 153 
L 211 -13 
C 365 0 646 0 813 0 
C 979 0 1267 0 1421 -13 
L 1421 153 
C 1011 153 986 178 986 428 
L 986 1658 
C 986 2247 1344 2688 1792 2688 
C 2266 2688 2317 2266 2317 1958 
L 2317 428 
C 2317 184 2291 153 1882 153 
L 1882 -13 
C 2035 0 2317 0 2483 0 
C 2650 0 2938 0 3091 -13 
L 3091 153 
C 2682 153 2656 178 2656 428 
L 2656 1933 
z
" transform="scale(0.015625)"/>
       <path id="CMR17-72" d="M 960 1497 
C 960 2112 1222 2688 1702 2688 
C 1747 2688 1792 2682 1837 2662 
C 1837 2662 1696 2617 1696 2452 
C 1696 2298 1818 2234 1914 2234 
C 1990 2234 2131 2279 2131 2458 
C 2131 2663 1926 2790 1709 2790 
C 1222 2790 1011 2317 947 2093 
L 941 2093 
L 941 2790 
L 198 2720 
L 198 2554 
C 576 2554 634 2515 634 2208 
L 634 428 
C 634 184 608 153 198 153 
L 198 -13 
C 352 0 646 0 813 0 
C 998 0 1325 0 1498 -13 
L 1498 153 
C 1037 153 960 153 960 440 
L 960 1497 
z
" transform="scale(0.015625)"/>
       <path id="CMR17-69" d="M 992 3909 
C 992 4049 877 4170 730 4170 
C 589 4170 467 4056 467 3909 
C 467 3769 582 3648 730 3648 
C 870 3648 992 3763 992 3909 
z
M 243 2706 
L 243 2541 
C 602 2541 653 2502 653 2197 
L 653 427 
C 653 184 627 153 218 153 
L 218 -13 
C 371 0 646 0 806 0 
C 960 0 1222 0 1370 -13 
L 1370 153 
C 992 153 979 191 979 420 
L 979 2776 
L 243 2706 
z
" transform="scale(0.015625)"/>
       <path id="CMR17-62" d="M 960 4396 
L 198 4326 
L 198 4160 
C 576 4160 634 4122 634 3817 
L 634 -13 
L 749 -13 
L 934 441 
C 1120 141 1395 -64 1766 -64 
C 2406 -64 3053 500 3053 1370 
C 3053 2188 2477 2790 1830 2790 
C 1434 2790 1152 2579 960 2330 
L 960 4396 
z
M 973 2004 
C 973 2118 973 2138 1062 2272 
C 1312 2657 1670 2688 1792 2688 
C 1984 2688 2643 2585 2643 1376 
C 2643 108 1888 38 1734 38 
C 1536 38 1248 114 1043 486 
C 973 608 973 621 973 735 
L 973 2004 
z
" transform="scale(0.015625)"/>
       <path id="CMR17-75" d="M 1882 2693 
L 1882 2528 
C 2259 2528 2317 2489 2317 2186 
L 2317 1032 
C 2317 500 2029 38 1555 38 
C 1030 38 986 348 986 678 
L 986 2763 
L 211 2693 
L 211 2528 
C 467 2528 640 2528 646 2274 
L 646 1058 
C 646 633 646 361 813 183 
C 896 101 1056 -64 1517 -64 
C 2061 -64 2272 377 2323 506 
L 2330 506 
L 2330 -63 
L 3091 -63 
L 3091 128 
C 2714 128 2656 166 2656 473 
L 2656 2763 
L 1882 2693 
z
" transform="scale(0.015625)"/>
      </defs>
      <use xlink:href="#CMR17-54" transform="scale(0.996264)"/>
      <use xlink:href="#CMR17-6f" transform="translate(58.702625 0) scale(0.996264)"/>
      <use xlink:href="#CMR17-74" transform="translate(104.393102 0) scale(0.996264)"/>
      <use xlink:href="#CMR17-61" transform="translate(139.67387 0) scale(0.996264)"/>
      <use xlink:href="#CMR17-6c" transform="translate(185.364347 0) scale(0.996264)"/>
      <use xlink:href="#CMR17-43" transform="translate(240.311372 0) scale(0.996264)"/>
      <use xlink:href="#CMR17-6f" transform="translate(306.821253 0) scale(0.996264)"/>
      <use xlink:href="#CMR17-6e" transform="translate(352.51173 0) scale(0.996264)"/>
      <use xlink:href="#CMR17-74" transform="translate(400.804646 0) scale(0.996264)"/>
      <use xlink:href="#CMR17-72" transform="translate(436.085413 0) scale(0.996264)"/>
      <use xlink:href="#CMR17-69" transform="translate(471.366181 0) scale(0.996264)"/>
      <use xlink:href="#CMR17-62" transform="translate(496.23724 0) scale(0.996264)"/>
      <use xlink:href="#CMR17-75" transform="translate(547.132609 0) scale(0.996264)"/>
      <use xlink:href="#CMR17-74" transform="translate(598.027979 0) scale(0.996264)"/>
      <use xlink:href="#CMR17-69" transform="translate(633.308747 0) scale(0.996264)"/>
      <use xlink:href="#CMR17-6f" transform="translate(658.179805 0) scale(0.996264)"/>
      <use xlink:href="#CMR17-6e" transform="translate(703.870283 0) scale(0.996264)"/>
     </g>
    </g>
   </g>
   <g id="line2d_17">
    <path d="M 63.21844 218.244704 
L 68.333299 218.294443 
L 73.618654 219.120349 
L 73.618654 219.120349 
L 78.733513 216.880795 
L 78.733513 216.880795 
L 84.018867 217.980903 
L 84.018867 217.980903 
L 89.304222 209.636228 
L 89.304222 209.636228 
L 94.078091 211.941329 
L 94.078091 211.941329 
L 99.363446 213.919592 
L 99.363446 213.919592 
L 104.478305 193.139032 
L 104.478305 193.139032 
L 109.763659 205.098188 
L 109.763659 205.098188 
L 114.878519 216.308383 
L 114.878519 216.308383 
L 120.163873 200.846744 
L 120.163873 200.846744 
L 125.449228 207.963106 
L 125.449228 207.963106 
L 130.564087 204.511102 
L 130.564087 204.511102 
L 135.849442 187.233015 
L 135.849442 187.233015 
L 140.964301 173.859884 
L 140.964301 173.859884 
L 146.249656 99.087374 
L 146.249656 99.087374 
L 151.535011 205.982506 
L 151.535011 205.982506 
L 156.308879 210.533508 
L 156.308879 210.533508 
L 161.594234 178.376611 
L 161.594234 178.376611 
L 166.709093 219.84039 
L 166.709093 219.84039 
L 171.994448 234.858963 
L 171.994448 234.858963 
L 177.109307 194.497488 
L 177.109307 194.497488 
L 182.394662 132.987517 
L 182.394662 132.987517 
L 187.680017 198.528749 
L 187.680017 198.528749 
L 192.794876 194.427048 
L 192.794876 194.427048 
L 198.080231 207.391653 
L 198.080231 207.391653 
L 203.19509 245.784692 
L 203.19509 245.784692 
L 208.480445 162.521646 
L 208.480445 162.521646 
L 213.765799 255.505133 
L 213.765799 255.505133 
L 218.710163 30.39063 
L 218.710163 30.39063 
L 223.995518 181.903126 
L 223.995518 181.903126 
L 229.110377 266.765405 
L 229.110377 266.765405 
L 234.395732 212.786986 
L 234.395732 212.786986 
L 239.510591 191.034412 
L 239.510591 191.034412 
L 244.795946 175.170902 
L 244.795946 175.170902 
L 250.081301 56.350213 
L 250.081301 56.350213 
L 255.19616 98.093295 
L 255.19616 98.093295 
L 260.481515 120.450521 
L 260.481515 120.450521 
L 265.596374 200.552473 
L 265.596374 200.552473 
L 270.881729 175.900411 
L 270.881729 175.900411 
L 276.167083 148.748611 
L 276.167083 148.748611 
L 280.940952 219.453254 
L 280.940952 219.453254 
L 286.226307 152.309881 
L 286.226307 152.309881 
L 291.341166 154.155626 
L 291.341166 154.155626 
L 296.626521 140.202851 
L 296.626521 140.202851 
L 301.74138 163.079552 
L 301.74138 163.079552 
L 307.026735 191.174666 
L 307.026735 191.174666 
L 312.312089 248.107478 
L 312.312089 248.107478 
L 317.426949 194.006196 
L 317.426949 194.006196 
L 322.712303 129.570704 
L 322.712303 129.570704 
L 327.827163 91.005254 
L 327.827163 91.005254 
L 333.112517 197.315386 
L 333.112517 197.315386 
L 338.397872 188.218016 
L 338.397872 188.218016 
L 343.171741 139.303422 
L 343.171741 139.303422 
L 348.457095 243.095906 
L 348.457095 243.095906 
L 353.571955 218.938429 
L 353.571955 218.938429 
L 358.857309 216.113821 
L 358.857309 216.113821 
L 363.972169 166.282416 
L 363.972169 166.282416 
L 369.257523 164.186692 
L 369.257523 164.186692 
L 374.542878 84.753127 
L 374.542878 84.753127 
L 379.657737 232.675613 
L 379.657737 232.675613 
L 384.943092 228.586191 
L 384.943092 228.586191 
L 390.057951 101.037787 
L 390.057951 101.037787 
L 395.343306 81.685666 
L 395.343306 81.685666 
L 400.62866 119.293903 
L 400.62866 119.293903 
L 405.402529 182.84086 
L 405.402529 182.84086 
L 410.687884 108.005525 
L 410.687884 108.005525 
L 415.802743 134.724344 
L 415.802743 134.724344 
L 421.088098 121.849774 
L 421.088098 121.849774 
L 426.202957 172.609034 
L 426.202957 172.609034 
L 431.488312 185.058708 
L 431.488312 185.058708 
L 436.773666 141.190706 
L 436.773666 141.190706 
L 441.888526 158.337631 
L 441.888526 158.337631 
L 447.17388 215.006277 
L 447.17388 215.006277 
L 452.28874 115.526981 
L 452.28874 115.526981 
L 457.574094 254.035123 
L 457.574094 254.035123 
L 462.859449 289.874113 
L 462.859449 289.874113 
L 467.803813 252.444598 
L 467.803813 252.444598 
L 473.089168 275.70446 
L 473.089168 275.70446 
L 478.204027 269.498958 
L 478.204027 269.498958 
L 483.489382 281.101778 
L 483.489382 281.101778 
L 488.604241 242.651953 
L 488.604241 242.651953 
L 493.889596 200.630488 
L 493.889596 200.630488 
L 499.17495 241.539734 
L 499.17495 241.539734 
L 504.28981 181.99363 
L 504.28981 181.99363 
L 509.575164 91.637816 
L 509.575164 91.637816 
L 514.690024 265.155055 
L 514.690024 265.155055 
L 519.975378 204.632945 
L 519.975378 204.632945 
L 525.260733 228.764756 
L 525.260733 228.764756 
L 530.034602 271.504861 
L 530.034602 271.504861 
L 535.319956 109.546225 
L 535.319956 109.546225 
L 540.434816 141.51699 
L 540.434816 141.51699 
L 550.83503 188.441188 
L 550.83503 188.441188 
L 556.120384 180.055593 
L 556.120384 180.055593 
L 561.405739 292.154832 
L 561.405739 292.154832 
L 566.520598 161.622362 
L 566.520598 161.622362 
L 571.805953 218.974554 
L 571.805953 218.974554 
L 576.920812 187.542098 
L 576.920812 187.542098 
L 582.206167 207.486717 
L 582.206167 207.486717 
L 587.491522 174.507688 
L 587.491522 174.507688 
L 592.26539 253.171172 
L 592.26539 253.171172 
L 597.550745 109.793653 
L 597.550745 109.793653 
L 602.665604 255.549586 
L 602.665604 255.549586 
L 607.950959 254.833561 
L 607.950959 254.833561 
L 613.065818 225.69722 
L 613.065818 225.69722 
L 618.351173 198.928688 
L 618.351173 198.928688 
L 623.636528 173.774203 
L 623.636528 173.774203 
L 628.751387 138.35505 
L 628.751387 138.35505 
L 634.036742 200.599296 
L 634.036742 200.599296 
L 639.151601 206.150312 
L 639.151601 206.150312 
L 644.436956 230.035257 
L 644.436956 230.035257 
L 649.72231 221.732157 
L 649.72231 221.732157 
L 654.496179 210.090334 
L 654.496179 210.090334 
L 659.781534 204.433786 
L 659.781534 204.433786 
L 664.896393 235.530303 
L 664.896393 235.530303 
L 670.181748 232.205054 
L 670.181748 232.205054 
L 675.296607 217.531297 
L 675.296607 217.531297 
L 680.581962 214.233068 
L 680.581962 214.233068 
L 685.867316 220.100965 
L 685.867316 220.100965 
" clip-path="url(#pe9c852b80f)" style="fill: none; stroke: #006e64; stroke-width: 1.5; stroke-linecap: round"/>
   </g>
   <g id="line2d_18">
    <path d="M 63.21844 216.102537 
L 68.333299 216.09344 
L 73.618654 214.507486 
L 73.618654 214.507486 
L 78.733513 213.807289 
L 84.018867 213.655732 
L 84.018867 213.655732 
L 89.304222 211.163318 
L 89.304222 211.163318 
L 94.078091 209.999855 
L 94.078091 209.999855 
L 99.363446 210.777882 
L 99.363446 210.777882 
L 104.478305 208.093861 
L 104.478305 208.093861 
L 109.763659 206.519255 
L 109.763659 206.519255 
L 114.878519 209.431666 
L 114.878519 209.431666 
L 120.163873 210.324973 
L 120.163873 210.324973 
L 125.449228 205.936649 
L 125.449228 205.936649 
L 130.564087 202.630198 
L 130.564087 202.630198 
L 135.849442 199.74696 
L 135.849442 199.74696 
L 140.964301 206.293047 
L 140.964301 206.293047 
L 146.249656 207.580781 
L 146.249656 207.580781 
L 151.535011 217.185226 
L 151.535011 217.185226 
L 156.308879 183.08964 
L 156.308879 183.08964 
L 161.594234 219.520365 
L 161.594234 219.520365 
L 166.709093 206.75254 
L 166.709093 206.75254 
L 171.994448 200.084843 
L 171.994448 200.084843 
L 177.109307 194.337148 
L 177.109307 194.337148 
L 182.394662 200.58423 
L 182.394662 200.58423 
L 187.680017 183.330498 
L 187.680017 183.330498 
L 192.794876 188.650334 
L 192.794876 188.650334 
L 198.080231 171.028675 
L 198.080231 171.028675 
L 203.19509 159.500953 
L 203.19509 159.500953 
L 208.480445 151.643071 
L 208.480445 151.643071 
L 213.765799 168.922068 
L 213.765799 168.922068 
L 218.710163 143.352917 
L 218.710163 143.352917 
L 223.995518 173.575735 
L 223.995518 173.575735 
L 229.110377 146.358975 
L 229.110377 146.358975 
L 234.395732 160.655542 
L 234.395732 160.655542 
L 239.510591 145.651502 
L 239.510591 145.651502 
L 244.795946 171.737789 
L 244.795946 171.737789 
L 250.081301 164.361831 
L 250.081301 164.361831 
L 255.19616 148.462995 
L 255.19616 148.462995 
L 260.481515 178.437318 
L 260.481515 178.437318 
L 265.596374 181.265852 
L 265.596374 181.265852 
L 270.881729 163.08395 
L 270.881729 163.08395 
L 276.167083 190.241516 
L 276.167083 190.241516 
L 280.940952 170.249514 
L 280.940952 170.249514 
L 286.226307 160.944958 
L 286.226307 160.944958 
L 291.341166 184.81269 
L 291.341166 184.81269 
L 296.626521 161.542073 
L 296.626521 161.542073 
L 301.74138 168.91441 
L 301.74138 168.91441 
L 307.026735 185.021091 
L 307.026735 185.021091 
L 312.312089 167.86211 
L 312.312089 167.86211 
L 317.426949 163.597929 
L 317.426949 163.597929 
L 322.712303 157.937683 
L 322.712303 157.937683 
L 327.827163 165.076755 
L 327.827163 165.076755 
L 333.112517 201.353677 
L 333.112517 201.353677 
L 338.397872 176.393529 
L 338.397872 176.393529 
L 343.171741 208.018863 
L 343.171741 208.018863 
L 348.457095 182.151631 
L 348.457095 182.151631 
L 353.571955 181.468216 
L 353.571955 181.468216 
L 358.857309 181.283248 
L 358.857309 181.283248 
L 363.972169 180.064392 
L 363.972169 180.064392 
L 369.257523 176.120541 
L 369.257523 176.120541 
L 374.542878 175.292889 
L 374.542878 175.292889 
L 379.657737 193.333853 
L 379.657737 193.333853 
L 384.943092 170.953815 
L 384.943092 170.953815 
L 390.057951 190.669348 
L 390.057951 190.669348 
L 395.343306 195.943275 
L 395.343306 195.943275 
L 400.62866 184.201926 
L 400.62866 184.201926 
L 405.402529 199.080326 
L 405.402529 199.080326 
L 410.687884 179.21532 
L 410.687884 179.21532 
L 421.088098 199.066273 
L 421.088098 199.066273 
L 426.202957 203.536602 
L 426.202957 203.536602 
L 431.488312 214.552963 
L 431.488312 214.552963 
L 436.773666 194.817233 
L 436.773666 194.817233 
L 441.888526 201.071459 
L 441.888526 201.071459 
L 447.17388 202.797085 
L 447.17388 202.797085 
L 452.28874 204.878873 
L 452.28874 204.878873 
L 457.574094 220.121522 
L 457.574094 220.121522 
L 462.859449 199.089187 
L 462.859449 199.089187 
L 467.803813 206.848349 
L 467.803813 206.848349 
L 473.089168 246.069261 
L 473.089168 246.069261 
L 478.204027 235.338434 
L 478.204027 235.338434 
L 483.489382 215.112895 
L 483.489382 215.112895 
L 493.889596 215.134195 
L 493.889596 215.134195 
L 499.17495 204.580151 
L 499.17495 204.580151 
L 504.28981 201.931423 
L 504.28981 201.931423 
L 509.575164 192.729847 
L 509.575164 192.729847 
L 514.690024 219.462499 
L 514.690024 219.462499 
L 519.975378 196.631635 
L 519.975378 196.631635 
L 525.260733 207.455387 
L 525.260733 207.455387 
L 530.034602 196.940172 
L 530.034602 196.940172 
L 535.319956 162.026274 
L 535.319956 162.026274 
L 540.434816 177.690282 
L 540.434816 177.690282 
L 545.72017 188.305342 
L 545.72017 188.305342 
L 550.83503 174.72003 
L 550.83503 174.72003 
L 556.120384 182.932473 
L 556.120384 182.932473 
L 561.405739 176.801474 
L 561.405739 176.801474 
L 566.520598 170.498376 
L 566.520598 170.498376 
L 571.805953 192.684041 
L 571.805953 192.684041 
L 576.920812 186.630316 
L 576.920812 186.630316 
L 582.206167 214.444939 
L 582.206167 214.444939 
L 587.491522 176.604867 
L 587.491522 176.604867 
L 592.26539 218.096919 
L 592.26539 218.096919 
L 597.550745 193.140855 
L 597.550745 193.140855 
L 602.665604 217.565809 
L 602.665604 217.565809 
L 607.950959 201.264828 
L 607.950959 201.264828 
L 613.065818 220.67579 
L 613.065818 220.67579 
L 618.351173 212.280885 
L 618.351173 212.280885 
L 623.636528 218.731899 
L 623.636528 218.731899 
L 628.751387 217.9635 
L 628.751387 217.9635 
L 634.036742 227.605963 
L 634.036742 227.605963 
L 639.151601 227.050809 
L 639.151601 227.050809 
L 644.436956 221.167138 
L 644.436956 221.167138 
L 649.72231 216.563623 
L 649.72231 216.563623 
L 654.496179 217.23719 
L 654.496179 217.23719 
L 659.781534 218.95437 
L 659.781534 218.95437 
L 664.896393 214.44193 
L 664.896393 214.44193 
L 670.181748 222.506558 
L 670.181748 222.506558 
L 675.296607 220.099385 
L 675.296607 220.099385 
L 680.581962 219.963183 
L 680.581962 219.963183 
L 685.867316 218.544423 
L 685.867316 218.544423 
" clip-path="url(#pe9c852b80f)" style="fill: none; stroke: #c17150; stroke-width: 1.5; stroke-linecap: round"/>
   </g>
   <g id="patch_3">
    <path d="M 32.085996 305.243042 
L 32.085996 17.30242 
" style="fill: none; stroke: #808080; stroke-width: 0.8; stroke-linejoin: miter; stroke-linecap: square"/>
   </g>
   <g id="patch_4">
    <path d="M 32.085996 305.243042 
L 716.99976 305.243042 
" style="fill: none; stroke: #808080; stroke-width: 0.8; stroke-linejoin: miter; stroke-linecap: square"/>
   </g>
   <g id="text_19">
    <!-- Source: ELCON A/S -->
    <g style="fill: #808080" transform="translate(624.264008 350.924795) scale(0.1 -0.1)">
     <defs>
      <path id="CMR17-53" d="M 2803 4290 
C 2803 4404 2797 4411 2758 4411 
C 2720 4411 2707 4385 2682 4328 
L 2490 3907 
C 2246 4257 1875 4416 1472 4416 
C 819 4416 294 3901 294 3253 
C 294 3056 339 2776 557 2510 
C 794 2218 1018 2167 1530 2033 
C 1722 1982 2042 1899 2106 1874 
C 2470 1722 2662 1341 2662 985 
C 2662 527 2336 38 1779 38 
C 1094 38 454 419 410 1311 
C 403 1413 397 1419 352 1419 
C 301 1419 294 1413 294 1285 
L 294 -1 
C 294 -115 301 -122 339 -122 
C 384 -122 397 -90 486 108 
C 493 127 493 140 614 381 
C 934 -39 1472 -128 1779 -128 
C 2477 -128 2970 451 2970 1124 
C 2970 1454 2848 1708 2778 1823 
C 2509 2230 2221 2306 1914 2382 
C 1869 2402 1856 2402 1498 2490 
C 1152 2579 1005 2624 845 2796 
C 666 2992 602 3196 602 3399 
C 602 3812 934 4263 1478 4263 
C 2157 4263 2579 3786 2675 2993 
C 2694 2878 2701 2872 2746 2872 
C 2803 2872 2803 2891 2803 2999 
L 2803 4290 
z
" transform="scale(0.015625)"/>
      <path id="CMR17-63" d="M 2234 2240 
C 2112 2240 1933 2240 1933 2017 
C 1933 1838 2080 1787 2163 1787 
C 2208 1787 2394 1807 2394 2024 
C 2394 2467 1958 2803 1466 2803 
C 787 2803 211 2178 211 1363 
C 211 516 813 -64 1466 -64 
C 2259 -64 2458 677 2458 748 
C 2458 774 2451 793 2406 793 
C 2362 793 2355 787 2330 703 
C 2163 180 1798 51 1523 51 
C 1114 51 621 427 621 1369 
C 621 2338 1094 2688 1472 2688 
C 1722 2688 2093 2573 2234 2240 
z
" transform="scale(0.015625)"/>
      <path id="CMR17-3a" d="M 1062 2491 
C 1062 2650 934 2752 800 2752 
C 672 2752 538 2650 538 2491 
C 538 2332 666 2230 800 2230 
C 928 2230 1062 2332 1062 2491 
z
M 1062 261 
C 1062 420 934 522 800 522 
C 672 522 538 420 538 261 
C 538 102 666 0 800 0 
C 928 0 1062 102 1062 261 
z
" transform="scale(0.015625)"/>
      <path id="CMR17-45" d="M 3885 1615 
L 3770 1615 
C 3629 676 3546 166 2419 166 
L 1530 166 
C 1274 166 1261 197 1261 414 
L 1261 2176 
L 1862 2176 
C 2464 2176 2522 1960 2522 1430 
L 2637 1430 
L 2637 3081 
L 2522 3081 
C 2522 2557 2464 2342 1862 2342 
L 1261 2342 
L 1261 3913 
C 1261 4128 1274 4160 1530 4160 
L 2406 4160 
C 3398 4160 3514 3769 3603 2929 
L 3718 2929 
L 3565 4325 
L 326 4325 
L 326 4160 
C 768 4160 838 4160 838 3874 
L 838 451 
C 838 166 768 166 326 166 
L 326 0 
L 3654 0 
L 3885 1615 
z
" transform="scale(0.015625)"/>
      <path id="CMR17-4c" d="M 3469 1615 
L 3354 1615 
C 3302 983 3219 166 2125 166 
L 1530 166 
C 1274 166 1261 197 1261 414 
L 1261 3898 
C 1261 4129 1274 4192 1760 4192 
L 1901 4192 
L 1901 4352 
C 1638 4352 1331 4352 1069 4352 
C 870 4352 512 4352 326 4352 
L 326 4192 
C 768 4192 838 4192 838 3905 
L 838 452 
C 838 166 768 166 326 166 
L 326 0 
L 3315 0 
L 3469 1615 
z
" transform="scale(0.015625)"/>
      <path id="CMR17-4f" d="M 4307 2135 
C 4307 3437 3366 4416 2304 4416 
C 1216 4416 294 3424 294 2135 
C 294 845 1229 -128 2298 -128 
C 3392 -128 4307 864 4307 2135 
z
M 2304 -13 
C 1574 -13 781 711 781 2217 
C 781 3716 1651 4301 2298 4301 
C 2976 4301 3821 3698 3821 2217 
C 3821 686 3008 -13 2304 -13 
z
" transform="scale(0.015625)"/>
      <path id="CMR17-4e" d="M 1312 4250 
C 1267 4320 1261 4320 1139 4320 
L 326 4320 
L 326 4160 
L 448 4160 
C 704 4160 819 4129 838 4122 
L 838 610 
C 838 451 838 153 326 153 
L 326 -13 
C 474 0 742 0 902 0 
C 1062 0 1331 0 1478 -13 
L 1478 153 
C 966 153 966 451 966 610 
L 966 4033 
C 1011 3995 1011 3982 1056 3919 
L 3430 76 
C 3475 0 3494 0 3526 0 
C 3590 0 3590 19 3590 139 
L 3590 3705 
C 3590 3863 3590 4160 4102 4160 
L 4102 4326 
C 3955 4320 3686 4320 3526 4320 
C 3366 4320 3098 4320 2950 4326 
L 2950 4160 
C 3462 4160 3462 3862 3462 3703 
L 3462 763 
L 1312 4250 
z
" transform="scale(0.015625)"/>
      <path id="CMR17-41" d="M 2323 4378 
C 2291 4461 2278 4480 2214 4480 
C 2150 4480 2138 4461 2106 4378 
L 749 566 
C 627 223 371 153 147 153 
L 147 -13 
C 262 0 518 0 640 0 
C 800 0 1056 0 1210 -13 
L 1210 153 
C 909 153 864 361 864 439 
C 864 497 877 530 890 569 
L 1229 1536 
L 2906 1536 
L 3290 442 
C 3322 365 3322 352 3322 327 
C 3322 153 3046 153 2925 153 
L 2925 0 
C 3110 0 3443 0 3642 0 
C 3808 0 4128 0 4282 -13 
L 4282 153 
C 3942 153 3827 153 3744 387 
L 2323 4378 
z
M 2067 3893 
L 2848 1702 
L 1286 1702 
L 2067 3893 
z
" transform="scale(0.015625)"/>
      <path id="CMR17-2f" d="M 2605 4545 
C 2637 4627 2637 4640 2637 4653 
C 2637 4729 2579 4768 2528 4768 
C 2451 4768 2426 4717 2400 4640 
L 326 -1377 
C 294 -1460 294 -1473 294 -1486 
C 294 -1562 352 -1600 403 -1600 
C 480 -1600 506 -1549 531 -1473 
L 2605 4545 
z
" transform="scale(0.015625)"/>
     </defs>
     <use xlink:href="#CMR17-53" transform="scale(0.996264)"/>
     <use xlink:href="#CMR17-6f" transform="translate(50.89537 0) scale(0.996264)"/>
     <use xlink:href="#CMR17-75" transform="translate(96.585847 0) scale(0.996264)"/>
     <use xlink:href="#CMR17-72" transform="translate(147.481217 0) scale(0.996264)"/>
     <use xlink:href="#CMR17-63" transform="translate(182.761984 0) scale(0.996264)"/>
     <use xlink:href="#CMR17-65" transform="translate(223.247645 0) scale(0.996264)"/>
     <use xlink:href="#CMR17-3a" transform="translate(263.733305 0) scale(0.996264)"/>
     <use xlink:href="#CMR17-45" transform="translate(329.090024 0) scale(0.996264)"/>
     <use xlink:href="#CMR17-4c" transform="translate(391.676325 0) scale(0.996264)"/>
     <use xlink:href="#CMR17-43" transform="translate(449.057733 0) scale(0.996264)"/>
     <use xlink:href="#CMR17-4f" transform="translate(515.567613 0) scale(0.996264)"/>
     <use xlink:href="#CMR17-4e" transform="translate(587.282402 0) scale(0.996264)"/>
     <use xlink:href="#CMR17-41" transform="translate(686.430798 0) scale(0.996264)"/>
     <use xlink:href="#CMR17-2f" transform="translate(755.503228 0) scale(0.996264)"/>
     <use xlink:href="#CMR17-53" transform="translate(801.193705 0) scale(0.996264)"/>
    </g>
   </g>
   <g id="text_20">
    <!-- Actual vs. Predicted Total Contribution -->
    <g style="fill: #262626" transform="translate(271.029351 11.30242) scale(0.12 -0.12)">
     <defs>
      <path id="CMR17-76" d="M 2502 2163 
C 2560 2304 2662 2560 3034 2560 
L 3034 2726 
C 2912 2726 2752 2726 2630 2726 
C 2496 2726 2285 2726 2157 2732 
L 2157 2566 
C 2317 2553 2406 2477 2406 2311 
C 2406 2253 2406 2240 2368 2151 
L 1664 377 
L 902 2286 
C 864 2369 864 2381 864 2407 
C 864 2560 1075 2560 1171 2560 
L 1171 2732 
C 1018 2726 736 2726 576 2726 
C 403 2726 205 2726 64 2732 
L 64 2560 
C 307 2560 442 2560 518 2362 
L 1446 44 
C 1485 -51 1491 -64 1549 -64 
C 1606 -64 1613 -51 1651 44 
L 2502 2163 
z
" transform="scale(0.015625)"/>
      <path id="CMR17-73" d="M 1978 2697 
C 1978 2813 1971 2819 1933 2819 
C 1907 2819 1901 2813 1824 2717 
C 1805 2691 1747 2626 1728 2601 
C 1523 2819 1235 2819 1126 2819 
C 416 2819 160 2447 160 2076 
C 160 1498 813 1365 998 1325 
C 1402 1243 1542 1217 1677 1101 
C 1760 1025 1901 884 1901 654 
C 1901 384 1747 38 1158 38 
C 602 38 403 460 288 1021 
C 269 1110 269 1117 218 1117 
C 166 1117 160 1110 160 983 
L 160 63 
C 160 -51 166 -58 205 -58 
C 237 -58 243 -51 275 0 
C 314 57 410 211 448 276 
C 576 103 800 -64 1158 -64 
C 1792 -64 2131 283 2131 784 
C 2131 1112 1958 1285 1875 1362 
C 1683 1561 1459 1606 1190 1657 
C 838 1735 390 1825 390 2217 
C 390 2383 480 2737 1126 2737 
C 1811 2737 1850 2094 1862 1888 
C 1869 1856 1901 1849 1920 1849 
C 1978 1849 1978 1869 1978 1978 
L 1978 2697 
z
" transform="scale(0.015625)"/>
      <path id="CMR17-2e" d="M 1062 261 
C 1062 420 934 522 800 522 
C 672 522 538 420 538 261 
C 538 102 666 0 800 0 
C 928 0 1062 102 1062 261 
z
" transform="scale(0.015625)"/>
      <path id="CMR17-50" d="M 1267 2042 
L 2291 2042 
C 3117 2042 3718 2578 3718 3184 
C 3718 3791 3130 4352 2291 4352 
L 333 4352 
L 333 4186 
C 774 4186 845 4186 845 3899 
L 845 446 
C 845 160 774 160 333 160 
L 333 0 
C 518 0 858 0 1056 0 
C 1254 0 1594 0 1779 0 
L 1779 160 
C 1338 160 1267 160 1267 446 
L 1267 2042 
z
M 1254 2176 
L 1254 3938 
C 1254 4155 1267 4186 1523 4186 
L 2170 4186 
C 2995 4186 3232 3714 3232 3184 
C 3232 2604 2950 2176 2170 2176 
L 1254 2176 
z
" transform="scale(0.015625)"/>
      <path id="CMR17-64" d="M 1869 4326 
L 1869 4160 
C 2246 4160 2304 4122 2304 3820 
L 2304 2345 
C 2278 2377 2016 2790 1498 2790 
C 845 2790 211 2208 211 1364 
C 211 525 806 -64 1434 -64 
C 1978 -64 2259 337 2291 380 
L 2291 -63 
L 3066 -63 
L 3066 128 
C 2688 128 2630 166 2630 473 
L 2630 4396 
L 1869 4326 
z
M 2291 755 
C 2291 563 2176 390 2029 262 
C 1811 70 1594 38 1472 38 
C 1286 38 621 134 621 1356 
C 621 2612 1363 2688 1530 2688 
C 1824 2688 2061 2522 2208 2291 
C 2291 2157 2291 2138 2291 2023 
L 2291 755 
z
" transform="scale(0.015625)"/>
     </defs>
     <use xlink:href="#CMR17-41" transform="scale(0.996264)"/>
     <use xlink:href="#CMR17-63" transform="translate(69.07243 0) scale(0.996264)"/>
     <use xlink:href="#CMR17-74" transform="translate(109.55809 0) scale(0.996264)"/>
     <use xlink:href="#CMR17-75" transform="translate(144.838858 0) scale(0.996264)"/>
     <use xlink:href="#CMR17-61" transform="translate(195.734228 0) scale(0.996264)"/>
     <use xlink:href="#CMR17-6c" transform="translate(241.424705 0) scale(0.996264)"/>
     <use xlink:href="#CMR17-76" transform="translate(296.37173 0) scale(0.996264)"/>
     <use xlink:href="#CMR17-73" transform="translate(344.664646 0) scale(0.996264)"/>
     <use xlink:href="#CMR17-2e" transform="translate(380.465983 0) scale(0.996264)"/>
     <use xlink:href="#CMR17-50" transform="translate(445.822702 0) scale(0.996264)"/>
     <use xlink:href="#CMR17-72" transform="translate(508.409003 0) scale(0.996264)"/>
     <use xlink:href="#CMR17-65" transform="translate(543.689771 0) scale(0.996264)"/>
     <use xlink:href="#CMR17-64" transform="translate(584.175431 0) scale(0.996264)"/>
     <use xlink:href="#CMR17-69" transform="translate(635.070801 0) scale(0.996264)"/>
     <use xlink:href="#CMR17-63" transform="translate(659.941859 0) scale(0.996264)"/>
     <use xlink:href="#CMR17-74" transform="translate(700.42752 0) scale(0.996264)"/>
     <use xlink:href="#CMR17-65" transform="translate(735.708288 0) scale(0.996264)"/>
     <use xlink:href="#CMR17-64" transform="translate(776.193948 0) scale(0.996264)"/>
     <use xlink:href="#CMR17-54" transform="translate(857.165284 0) scale(0.996264)"/>
     <use xlink:href="#CMR17-6f" transform="translate(915.867909 0) scale(0.996264)"/>
     <use xlink:href="#CMR17-74" transform="translate(961.558386 0) scale(0.996264)"/>
     <use xlink:href="#CMR17-61" transform="translate(996.839154 0) scale(0.996264)"/>
     <use xlink:href="#CMR17-6c" transform="translate(1042.529631 0) scale(0.996264)"/>
     <use xlink:href="#CMR17-43" transform="translate(1097.476656 0) scale(0.996264)"/>
     <use xlink:href="#CMR17-6f" transform="translate(1163.986537 0) scale(0.996264)"/>
     <use xlink:href="#CMR17-6e" transform="translate(1209.677014 0) scale(0.996264)"/>
     <use xlink:href="#CMR17-74" transform="translate(1257.96993 0) scale(0.996264)"/>
     <use xlink:href="#CMR17-72" transform="translate(1293.250697 0) scale(0.996264)"/>
     <use xlink:href="#CMR17-69" transform="translate(1328.531465 0) scale(0.996264)"/>
     <use xlink:href="#CMR17-62" transform="translate(1353.402524 0) scale(0.996264)"/>
     <use xlink:href="#CMR17-75" transform="translate(1404.297894 0) scale(0.996264)"/>
     <use xlink:href="#CMR17-74" transform="translate(1455.193263 0) scale(0.996264)"/>
     <use xlink:href="#CMR17-69" transform="translate(1490.474031 0) scale(0.996264)"/>
     <use xlink:href="#CMR17-6f" transform="translate(1515.34509 0) scale(0.996264)"/>
     <use xlink:href="#CMR17-6e" transform="translate(1561.035567 0) scale(0.996264)"/>
    </g>
   </g>
   <g id="legend_1">
    <g id="patch_5">
     <path d="M 249.638871 356.999744 
L 499.446885 356.999744 
Q 501.446885 356.999744 501.446885 354.999744 
L 501.446885 341.037104 
Q 501.446885 339.037104 499.446885 339.037104 
L 249.638871 339.037104 
Q 247.638871 339.037104 247.638871 341.037104 
L 247.638871 354.999744 
Q 247.638871 356.999744 249.638871 356.999744 
z
" style="fill: #ffffff; opacity: 0.8"/>
    </g>
    <g id="line2d_19">
     <path d="M 251.638871 347.009084 
L 261.638871 347.009084 
L 271.638871 347.009084 
" style="fill: none; stroke: #006e64; stroke-width: 1.5; stroke-linecap: round"/>
    </g>
    <g id="text_21">
     <!-- Actual -->
     <g style="fill: #262626" transform="translate(279.638871 350.509084) scale(0.1 -0.1)">
      <use xlink:href="#CMR17-41" transform="scale(0.996264)"/>
      <use xlink:href="#CMR17-63" transform="translate(69.07243 0) scale(0.996264)"/>
      <use xlink:href="#CMR17-74" transform="translate(109.55809 0) scale(0.996264)"/>
      <use xlink:href="#CMR17-75" transform="translate(144.838858 0) scale(0.996264)"/>
      <use xlink:href="#CMR17-61" transform="translate(195.734228 0) scale(0.996264)"/>
      <use xlink:href="#CMR17-6c" transform="translate(241.424705 0) scale(0.996264)"/>
     </g>
    </g>
    <g id="line2d_20">
     <path d="M 328.696637 347.009084 
L 338.696637 347.009084 
L 348.696637 347.009084 
" style="fill: none; stroke: #c17150; stroke-width: 1.5; stroke-linecap: round"/>
    </g>
    <g id="text_22">
     <!-- Predicted (incl. lag and budget) -->
     <g style="fill: #262626" transform="translate(356.696637 350.509084) scale(0.1 -0.1)">
      <defs>
       <path id="CMR17-28" d="M 1958 -1561 
C 1958 -1555 1958 -1542 1939 -1523 
C 1645 -1224 858 -407 858 1581 
C 858 3569 1632 4379 1946 4697 
C 1946 4704 1958 4717 1958 4736 
C 1958 4755 1939 4768 1914 4768 
C 1843 4768 1299 4296 986 3594 
C 666 2887 576 2199 576 1588 
C 576 1128 621 351 1005 -471 
C 1312 -1135 1837 -1600 1914 -1600 
C 1946 -1600 1958 -1587 1958 -1561 
z
" transform="scale(0.015625)"/>
       <path id="CMR17-67" d="M 710 1164 
C 832 1068 1043 960 1299 960 
C 1805 960 2240 1357 2240 1888 
C 2240 2054 2189 2310 1997 2509 
C 2176 2692 2438 2752 2586 2752 
C 2611 2752 2650 2752 2682 2734 
C 2656 2728 2598 2703 2598 2605 
C 2598 2527 2656 2471 2739 2471 
C 2835 2471 2886 2533 2886 2614 
C 2886 2731 2790 2854 2586 2854 
C 2330 2854 2106 2738 1926 2580 
C 1734 2753 1504 2816 1299 2816 
C 794 2816 358 2419 358 1888 
C 358 1522 570 1292 634 1228 
C 442 1004 442 743 442 711 
C 442 545 506 302 723 168 
C 390 85 128 -169 128 -486 
C 128 -943 736 -1280 1466 -1280 
C 2170 -1280 2803 -956 2803 -479 
C 2803 384 1856 384 1363 384 
C 1216 384 954 384 922 391 
C 723 423 589 602 589 826 
C 589 883 589 1024 710 1164 
z
M 1299 1068 
C 736 1068 736 1760 736 1889 
C 736 2016 736 2708 1299 2708 
C 1862 2708 1862 2016 1862 1889 
C 1862 1760 1862 1068 1299 1068 
z
M 1466 -1171 
C 826 -1171 384 -835 384 -486 
C 384 -289 493 -105 634 -4 
C 794 104 858 104 1293 104 
C 1818 104 2547 104 2547 -486 
C 2547 -835 2106 -1171 1466 -1171 
z
" transform="scale(0.015625)"/>
       <path id="CMR17-29" d="M 1683 1581 
C 1683 2040 1638 2817 1254 3639 
C 947 4303 422 4768 346 4768 
C 326 4768 301 4761 301 4729 
C 301 4717 307 4710 314 4697 
C 621 4378 1402 3568 1402 1584 
C 1402 -407 627 -1217 314 -1537 
C 307 -1549 301 -1556 301 -1568 
C 301 -1600 326 -1600 346 -1600 
C 416 -1600 960 -1128 1274 -426 
C 1594 281 1683 969 1683 1581 
z
" transform="scale(0.015625)"/>
      </defs>
      <use xlink:href="#CMR17-50" transform="scale(0.996264)"/>
      <use xlink:href="#CMR17-72" transform="translate(62.586301 0) scale(0.996264)"/>
      <use xlink:href="#CMR17-65" transform="translate(97.867068 0) scale(0.996264)"/>
      <use xlink:href="#CMR17-64" transform="translate(138.352729 0) scale(0.996264)"/>
      <use xlink:href="#CMR17-69" transform="translate(189.248099 0) scale(0.996264)"/>
      <use xlink:href="#CMR17-63" transform="translate(214.119157 0) scale(0.996264)"/>
      <use xlink:href="#CMR17-74" transform="translate(254.604818 0) scale(0.996264)"/>
      <use xlink:href="#CMR17-65" transform="translate(289.885585 0) scale(0.996264)"/>
      <use xlink:href="#CMR17-64" transform="translate(330.371246 0) scale(0.996264)"/>
      <use xlink:href="#CMR17-28" transform="translate(411.342582 0) scale(0.996264)"/>
      <use xlink:href="#CMR17-69" transform="translate(446.62335 0) scale(0.996264)"/>
      <use xlink:href="#CMR17-6e" transform="translate(471.494408 0) scale(0.996264)"/>
      <use xlink:href="#CMR17-63" transform="translate(522.389778 0) scale(0.996264)"/>
      <use xlink:href="#CMR17-6c" transform="translate(562.875438 0) scale(0.996264)"/>
      <use xlink:href="#CMR17-2e" transform="translate(587.746497 0) scale(0.996264)"/>
      <use xlink:href="#CMR17-6c" transform="translate(653.103216 0) scale(0.996264)"/>
      <use xlink:href="#CMR17-61" transform="translate(677.974274 0) scale(0.996264)"/>
      <use xlink:href="#CMR17-67" transform="translate(723.664751 0) scale(0.996264)"/>
      <use xlink:href="#CMR17-61" transform="translate(799.431195 0) scale(0.996264)"/>
      <use xlink:href="#CMR17-6e" transform="translate(845.121672 0) scale(0.996264)"/>
      <use xlink:href="#CMR17-64" transform="translate(896.017042 0) scale(0.996264)"/>
      <use xlink:href="#CMR17-62" transform="translate(976.988378 0) scale(0.996264)"/>
      <use xlink:href="#CMR17-75" transform="translate(1027.883748 0) scale(0.996264)"/>
      <use xlink:href="#CMR17-64" transform="translate(1078.779117 0) scale(0.996264)"/>
      <use xlink:href="#CMR17-67" transform="translate(1129.674487 0) scale(0.996264)"/>
      <use xlink:href="#CMR17-65" transform="translate(1175.364964 0) scale(0.996264)"/>
      <use xlink:href="#CMR17-74" transform="translate(1215.850625 0) scale(0.996264)"/>
      <use xlink:href="#CMR17-29" transform="translate(1251.131393 0) scale(0.996264)"/>
     </g>
    </g>
   </g>
  </g>
 </g>
 <defs>
  <clipPath id="pe9c852b80f">
   <rect x="32.085996" y="17.30242" width="684.913764" height="287.940622"/>
  </clipPath>
 </defs>
</svg>
