<?xml version="1.0" encoding="utf-8" standalone="no"?>
<!DOCTYPE svg PUBLIC "-//W3C//DTD SVG 1.1//EN"
  "http://www.w3.org/Graphics/SVG/1.1/DTD/svg11.dtd">
<svg xmlns:xlink="http://www.w3.org/1999/xlink" width="720pt" height="360pt" viewBox="0 0 720 360" xmlns="http://www.w3.org/2000/svg" version="1.1">
 <metadata>
  <rdf:RDF xmlns:dc="http://purl.org/dc/elements/1.1/" xmlns:cc="http://creativecommons.org/ns#" xmlns:rdf="http://www.w3.org/1999/02/22-rdf-syntax-ns#">
   <cc:Work>
    <dc:type rdf:resource="http://purl.org/dc/dcmitype/StillImage"/>
    <dc:date>2023-10-20T12:38:46.929618</dc:date>
    <dc:format>image/svg+xml</dc:format>
    <dc:creator>
     <cc:Agent>
      <dc:title>Matplotlib v3.6.3, https://matplotlib.org/</dc:title>
     </cc:Agent>
    </dc:creator>
   </cc:Work>
  </rdf:RDF>
 </metadata>
 <defs>
  <style type="text/css">*{stroke-linejoin: round; stroke-linecap: butt}</style>
 </defs>
 <g id="figure_1">
  <g id="patch_1">
   <path d="M 0 360 
L 720 360 
L 720 0 
L 0 0 
z
" style="fill: #ffffff"/>
  </g>
  <g id="axes_1">
   <g id="patch_2">
    <path d="M 39.834739 305.243042 
L 716.99976 305.243042 
L 716.99976 17.30242 
L 39.834739 17.30242 
z
" style="fill: #ffffff"/>
   </g>
   <g id="matplotlib.axis_1">
    <g id="xtick_1">
     <g id="line2d_1">
      <path d="M 91.180071 305.243042 
L 91.180071 17.30242 
" clip-path="url(#p58945a29c9)" style="fill: none; stroke: #cccccc; stroke-opacity: 0.5; stroke-width: 0.8; stroke-linecap: round"/>
     </g>
     <g id="text_1">
      <!-- $\mathdefault{2014}$ -->
      <g transform="translate(81.2174 315.66154) scale(0.1 -0.1)">
       <defs>
        <path id="CMR17-32" d="M 2669 989 
L 2554 989 
C 2490 536 2438 459 2413 420 
C 2381 369 1920 369 1830 369 
L 602 369 
C 832 619 1280 1072 1824 1597 
C 2214 1967 2669 2402 2669 3035 
C 2669 3790 2067 4224 1395 4224 
C 691 4224 262 3604 262 3030 
C 262 2780 448 2748 525 2748 
C 589 2748 781 2787 781 3010 
C 781 3207 614 3264 525 3264 
C 486 3264 448 3258 422 3245 
C 544 3790 915 4058 1306 4058 
C 1862 4058 2227 3617 2227 3035 
C 2227 2479 1901 2000 1536 1584 
L 262 146 
L 262 0 
L 2515 0 
L 2669 989 
z
" transform="scale(0.015625)"/>
        <path id="CMR17-30" d="M 2688 2025 
C 2688 2416 2682 3080 2413 3591 
C 2176 4039 1798 4198 1466 4198 
C 1158 4198 768 4058 525 3597 
C 269 3118 243 2524 243 2025 
C 243 1661 250 1106 448 619 
C 723 -39 1216 -128 1466 -128 
C 1760 -128 2208 -7 2470 600 
C 2662 1042 2688 1559 2688 2025 
z
M 1466 -26 
C 1056 -26 813 325 723 812 
C 653 1188 653 1738 653 2096 
C 653 2588 653 2997 736 3387 
C 858 3929 1216 4096 1466 4096 
C 1728 4096 2067 3923 2189 3400 
C 2272 3036 2278 2607 2278 2096 
C 2278 1680 2278 1169 2202 792 
C 2067 95 1690 -26 1466 -26 
z
" transform="scale(0.015625)"/>
        <path id="CMR17-31" d="M 1702 4058 
C 1702 4192 1696 4192 1606 4192 
C 1357 3916 979 3827 621 3827 
C 602 3827 570 3827 563 3808 
C 557 3795 557 3782 557 3648 
C 755 3648 1088 3686 1344 3839 
L 1344 461 
C 1344 236 1331 160 781 160 
L 589 160 
L 589 0 
C 896 0 1216 0 1523 0 
C 1830 0 2150 0 2458 0 
L 2458 160 
L 2266 160 
C 1715 160 1702 230 1702 458 
L 1702 4058 
z
" transform="scale(0.015625)"/>
        <path id="CMR17-34" d="M 2150 4122 
C 2150 4256 2144 4256 2029 4256 
L 128 1254 
L 128 1088 
L 1779 1088 
L 1779 457 
C 1779 224 1766 160 1318 160 
L 1197 160 
L 1197 0 
C 1402 0 1747 0 1965 0 
C 2182 0 2528 0 2733 0 
L 2733 160 
L 2611 160 
C 2163 160 2150 224 2150 457 
L 2150 1088 
L 2803 1088 
L 2803 1254 
L 2150 1254 
L 2150 4122 
z
M 1798 3703 
L 1798 1254 
L 256 1254 
L 1798 3703 
z
" transform="scale(0.015625)"/>
       </defs>
       <use xlink:href="#CMR17-32" transform="scale(0.996264)"/>
       <use xlink:href="#CMR17-30" transform="translate(45.690477 0) scale(0.996264)"/>
       <use xlink:href="#CMR17-31" transform="translate(91.380954 0) scale(0.996264)"/>
       <use xlink:href="#CMR17-34" transform="translate(137.071431 0) scale(0.996264)"/>
      </g>
     </g>
    </g>
    <g id="xtick_2">
     <g id="line2d_2">
      <path d="M 152.706814 305.243042 
L 152.706814 17.30242 
" clip-path="url(#p58945a29c9)" style="fill: none; stroke: #cccccc; stroke-opacity: 0.5; stroke-width: 0.8; stroke-linecap: round"/>
     </g>
     <g id="text_2">
      <!-- $\mathdefault{2015}$ -->
      <g transform="translate(142.744143 315.66154) scale(0.1 -0.1)">
       <defs>
        <path id="CMR17-35" d="M 730 3692 
C 794 3666 1056 3584 1325 3584 
C 1920 3584 2246 3911 2432 4100 
C 2432 4157 2432 4192 2394 4192 
C 2387 4192 2374 4192 2323 4163 
C 2099 4058 1837 3973 1517 3973 
C 1325 3973 1037 3999 723 4139 
C 653 4171 640 4171 634 4171 
C 602 4171 595 4164 595 4037 
L 595 2203 
C 595 2089 595 2057 659 2057 
C 691 2057 704 2070 736 2114 
C 941 2401 1222 2522 1542 2522 
C 1766 2522 2246 2382 2246 1289 
C 2246 1085 2246 715 2054 421 
C 1894 159 1645 25 1370 25 
C 947 25 518 320 403 814 
C 429 807 480 795 506 795 
C 589 795 749 840 749 1038 
C 749 1210 627 1280 506 1280 
C 358 1280 262 1190 262 1011 
C 262 454 704 -128 1382 -128 
C 2042 -128 2669 440 2669 1264 
C 2669 2030 2170 2624 1549 2624 
C 1222 2624 947 2503 730 2274 
L 730 3692 
z
" transform="scale(0.015625)"/>
       </defs>
       <use xlink:href="#CMR17-32" transform="scale(0.996264)"/>
       <use xlink:href="#CMR17-30" transform="translate(45.690477 0) scale(0.996264)"/>
       <use xlink:href="#CMR17-31" transform="translate(91.380954 0) scale(0.996264)"/>
       <use xlink:href="#CMR17-35" transform="translate(137.071431 0) scale(0.996264)"/>
      </g>
     </g>
    </g>
    <g id="xtick_3">
     <g id="line2d_3">
      <path d="M 214.233557 305.243042 
L 214.233557 17.30242 
" clip-path="url(#p58945a29c9)" style="fill: none; stroke: #cccccc; stroke-opacity: 0.5; stroke-width: 0.8; stroke-linecap: round"/>
     </g>
     <g id="text_3">
      <!-- $\mathdefault{2016}$ -->
      <g transform="translate(204.270887 315.66154) scale(0.1 -0.1)">
       <defs>
        <path id="CMR17-36" d="M 678 2176 
C 678 3690 1395 4032 1811 4032 
C 1946 4032 2272 4009 2400 3776 
C 2298 3776 2106 3776 2106 3553 
C 2106 3381 2246 3323 2336 3323 
C 2394 3323 2566 3348 2566 3560 
C 2566 3954 2246 4179 1805 4179 
C 1043 4179 243 3390 243 1984 
C 243 253 966 -128 1478 -128 
C 2099 -128 2688 427 2688 1283 
C 2688 2081 2170 2662 1517 2662 
C 1126 2662 838 2407 678 1960 
L 678 2176 
z
M 1478 25 
C 691 25 691 1200 691 1436 
C 691 1896 909 2560 1504 2560 
C 1613 2560 1926 2560 2138 2120 
C 2253 1870 2253 1609 2253 1289 
C 2253 944 2253 690 2118 434 
C 1978 171 1773 25 1478 25 
z
" transform="scale(0.015625)"/>
       </defs>
       <use xlink:href="#CMR17-32" transform="scale(0.996264)"/>
       <use xlink:href="#CMR17-30" transform="translate(45.690477 0) scale(0.996264)"/>
       <use xlink:href="#CMR17-31" transform="translate(91.380954 0) scale(0.996264)"/>
       <use xlink:href="#CMR17-36" transform="translate(137.071431 0) scale(0.996264)"/>
      </g>
     </g>
    </g>
    <g id="xtick_4">
     <g id="line2d_4">
      <path d="M 275.928867 305.243042 
L 275.928867 17.30242 
" clip-path="url(#p58945a29c9)" style="fill: none; stroke: #cccccc; stroke-opacity: 0.5; stroke-width: 0.8; stroke-linecap: round"/>
     </g>
     <g id="text_4">
      <!-- $\mathdefault{2017}$ -->
      <g transform="translate(265.966196 315.66154) scale(0.1 -0.1)">
       <defs>
        <path id="CMR17-37" d="M 2886 3941 
L 2886 4081 
L 1382 4081 
C 634 4081 621 4165 595 4288 
L 480 4288 
L 294 3094 
L 410 3094 
C 429 3215 474 3540 550 3661 
C 589 3712 1062 3712 1171 3712 
L 2579 3712 
L 1869 2661 
C 1395 1954 1069 999 1069 165 
C 1069 89 1069 -128 1299 -128 
C 1530 -128 1530 89 1530 171 
L 1530 465 
C 1530 1508 1709 2196 2003 2636 
L 2886 3941 
z
" transform="scale(0.015625)"/>
       </defs>
       <use xlink:href="#CMR17-32" transform="scale(0.996264)"/>
       <use xlink:href="#CMR17-30" transform="translate(45.690477 0) scale(0.996264)"/>
       <use xlink:href="#CMR17-31" transform="translate(91.380954 0) scale(0.996264)"/>
       <use xlink:href="#CMR17-37" transform="translate(137.071431 0) scale(0.996264)"/>
      </g>
     </g>
    </g>
    <g id="xtick_5">
     <g id="line2d_5">
      <path d="M 337.45561 305.243042 
L 337.45561 17.30242 
" clip-path="url(#p58945a29c9)" style="fill: none; stroke: #cccccc; stroke-opacity: 0.5; stroke-width: 0.8; stroke-linecap: round"/>
     </g>
     <g id="text_5">
      <!-- $\mathdefault{2018}$ -->
      <g transform="translate(327.492939 315.66154) scale(0.1 -0.1)">
       <defs>
        <path id="CMR17-38" d="M 1741 2264 
C 2144 2467 2554 2773 2554 3263 
C 2554 3841 1990 4179 1472 4179 
C 890 4179 378 3759 378 3180 
C 378 3021 416 2747 666 2505 
C 730 2442 998 2251 1171 2130 
C 883 1983 211 1634 211 934 
C 211 279 838 -128 1459 -128 
C 2144 -128 2720 362 2720 1010 
C 2720 1590 2330 1857 2074 2029 
L 1741 2264 
z
M 902 2822 
C 851 2854 595 3051 595 3351 
C 595 3739 998 4032 1459 4032 
C 1965 4032 2336 3676 2336 3262 
C 2336 2669 1670 2331 1638 2331 
C 1632 2331 1626 2331 1574 2370 
L 902 2822 
z
M 2080 1519 
C 2176 1449 2483 1240 2483 851 
C 2483 381 2010 25 1472 25 
C 890 25 448 438 448 940 
C 448 1443 838 1862 1280 2060 
L 2080 1519 
z
" transform="scale(0.015625)"/>
       </defs>
       <use xlink:href="#CMR17-32" transform="scale(0.996264)"/>
       <use xlink:href="#CMR17-30" transform="translate(45.690477 0) scale(0.996264)"/>
       <use xlink:href="#CMR17-31" transform="translate(91.380954 0) scale(0.996264)"/>
       <use xlink:href="#CMR17-38" transform="translate(137.071431 0) scale(0.996264)"/>
      </g>
     </g>
    </g>
    <g id="xtick_6">
     <g id="line2d_6">
      <path d="M 398.982353 305.243042 
L 398.982353 17.30242 
" clip-path="url(#p58945a29c9)" style="fill: none; stroke: #cccccc; stroke-opacity: 0.5; stroke-width: 0.8; stroke-linecap: round"/>
     </g>
     <g id="text_6">
      <!-- $\mathdefault{2019}$ -->
      <g transform="translate(389.019682 315.66154) scale(0.1 -0.1)">
       <defs>
        <path id="CMR17-39" d="M 2253 1864 
C 2253 464 1670 31 1190 31 
C 1043 31 685 31 538 294 
C 704 268 826 357 826 518 
C 826 692 685 749 595 749 
C 538 749 365 723 365 506 
C 365 71 742 -128 1203 -128 
C 1939 -128 2688 674 2688 2073 
C 2688 3817 1971 4179 1485 4179 
C 851 4179 243 3628 243 2778 
C 243 1991 762 1408 1414 1408 
C 1952 1408 2189 1903 2253 2112 
L 2253 1864 
z
M 1427 1510 
C 1254 1510 1011 1542 813 1922 
C 678 2169 678 2461 678 2771 
C 678 3146 678 3405 858 3684 
C 947 3817 1114 4032 1485 4032 
C 2240 4032 2240 2885 2240 2632 
C 2240 2182 2035 1510 1427 1510 
z
" transform="scale(0.015625)"/>
       </defs>
       <use xlink:href="#CMR17-32" transform="scale(0.996264)"/>
       <use xlink:href="#CMR17-30" transform="translate(45.690477 0) scale(0.996264)"/>
       <use xlink:href="#CMR17-31" transform="translate(91.380954 0) scale(0.996264)"/>
       <use xlink:href="#CMR17-39" transform="translate(137.071431 0) scale(0.996264)"/>
      </g>
     </g>
    </g>
    <g id="xtick_7">
     <g id="line2d_7">
      <path d="M 460.509096 305.243042 
L 460.509096 17.30242 
" clip-path="url(#p58945a29c9)" style="fill: none; stroke: #cccccc; stroke-opacity: 0.5; stroke-width: 0.8; stroke-linecap: round"/>
     </g>
     <g id="text_7">
      <!-- $\mathdefault{2020}$ -->
      <g transform="translate(450.546426 315.66154) scale(0.1 -0.1)">
       <use xlink:href="#CMR17-32" transform="scale(0.996264)"/>
       <use xlink:href="#CMR17-30" transform="translate(45.690477 0) scale(0.996264)"/>
       <use xlink:href="#CMR17-32" transform="translate(91.380954 0) scale(0.996264)"/>
       <use xlink:href="#CMR17-30" transform="translate(137.071431 0) scale(0.996264)"/>
      </g>
     </g>
    </g>
    <g id="xtick_8">
     <g id="line2d_8">
      <path d="M 522.204406 305.243042 
L 522.204406 17.30242 
" clip-path="url(#p58945a29c9)" style="fill: none; stroke: #cccccc; stroke-opacity: 0.5; stroke-width: 0.8; stroke-linecap: round"/>
     </g>
     <g id="text_8">
      <!-- $\mathdefault{2021}$ -->
      <g transform="translate(512.241735 315.66154) scale(0.1 -0.1)">
       <use xlink:href="#CMR17-32" transform="scale(0.996264)"/>
       <use xlink:href="#CMR17-30" transform="translate(45.690477 0) scale(0.996264)"/>
       <use xlink:href="#CMR17-32" transform="translate(91.380954 0) scale(0.996264)"/>
       <use xlink:href="#CMR17-31" transform="translate(137.071431 0) scale(0.996264)"/>
      </g>
     </g>
    </g>
    <g id="xtick_9">
     <g id="line2d_9">
      <path d="M 583.731149 305.243042 
L 583.731149 17.30242 
" clip-path="url(#p58945a29c9)" style="fill: none; stroke: #cccccc; stroke-opacity: 0.5; stroke-width: 0.8; stroke-linecap: round"/>
     </g>
     <g id="text_9">
      <!-- $\mathdefault{2022}$ -->
      <g transform="translate(573.768478 315.66154) scale(0.1 -0.1)">
       <use xlink:href="#CMR17-32" transform="scale(0.996264)"/>
       <use xlink:href="#CMR17-30" transform="translate(45.690477 0) scale(0.996264)"/>
       <use xlink:href="#CMR17-32" transform="translate(91.380954 0) scale(0.996264)"/>
       <use xlink:href="#CMR17-32" transform="translate(137.071431 0) scale(0.996264)"/>
      </g>
     </g>
    </g>
    <g id="xtick_10">
     <g id="line2d_10">
      <path d="M 645.257892 305.243042 
L 645.257892 17.30242 
" clip-path="url(#p58945a29c9)" style="fill: none; stroke: #cccccc; stroke-opacity: 0.5; stroke-width: 0.8; stroke-linecap: round"/>
     </g>
     <g id="text_10">
      <!-- $\mathdefault{2023}$ -->
      <g transform="translate(635.295221 315.66154) scale(0.1 -0.1)">
       <defs>
        <path id="CMR17-33" d="M 1414 2157 
C 1984 2157 2234 1662 2234 1090 
C 2234 320 1824 25 1453 25 
C 1114 25 563 194 390 693 
C 422 680 454 680 486 680 
C 640 680 755 782 755 948 
C 755 1133 614 1216 486 1216 
C 378 1216 211 1165 211 926 
C 211 335 787 -128 1466 -128 
C 2176 -128 2720 430 2720 1085 
C 2720 1707 2208 2157 1600 2227 
C 2086 2328 2554 2756 2554 3329 
C 2554 3820 2048 4179 1472 4179 
C 890 4179 378 3829 378 3329 
C 378 3110 544 3072 627 3072 
C 762 3072 877 3155 877 3321 
C 877 3486 762 3569 627 3569 
C 602 3569 570 3569 544 3557 
C 730 3959 1235 4032 1459 4032 
C 1683 4032 2106 3925 2106 3320 
C 2106 3143 2080 2828 1862 2550 
C 1670 2304 1453 2304 1242 2284 
C 1210 2284 1062 2269 1037 2269 
C 992 2263 966 2257 966 2208 
C 966 2163 973 2157 1101 2157 
L 1414 2157 
z
" transform="scale(0.015625)"/>
       </defs>
       <use xlink:href="#CMR17-32" transform="scale(0.996264)"/>
       <use xlink:href="#CMR17-30" transform="translate(45.690477 0) scale(0.996264)"/>
       <use xlink:href="#CMR17-32" transform="translate(91.380954 0) scale(0.996264)"/>
       <use xlink:href="#CMR17-33" transform="translate(137.071431 0) scale(0.996264)"/>
      </g>
     </g>
    </g>
    <g id="xtick_11">
     <g id="line2d_11">
      <path d="M 706.784635 305.243042 
L 706.784635 17.30242 
" clip-path="url(#p58945a29c9)" style="fill: none; stroke: #cccccc; stroke-opacity: 0.5; stroke-width: 0.8; stroke-linecap: round"/>
     </g>
     <g id="text_11">
      <!-- $\mathdefault{2024}$ -->
      <g transform="translate(696.821964 315.66154) scale(0.1 -0.1)">
       <use xlink:href="#CMR17-32" transform="scale(0.996264)"/>
       <use xlink:href="#CMR17-30" transform="translate(45.690477 0) scale(0.996264)"/>
       <use xlink:href="#CMR17-32" transform="translate(91.380954 0) scale(0.996264)"/>
       <use xlink:href="#CMR17-34" transform="translate(137.071431 0) scale(0.996264)"/>
      </g>
     </g>
    </g>
    <g id="text_12">
     <!-- Date -->
     <g style="fill: #696969" transform="translate(367.970296 328.517217) scale(0.1 -0.1)">
      <defs>
       <path id="CMR17-44" d="M 333 4352 
L 333 4186 
C 774 4186 845 4186 845 3900 
L 845 452 
C 845 166 774 166 333 166 
L 333 0 
L 2368 0 
C 3398 0 4224 943 4224 2141 
C 4224 3346 3411 4352 2368 4352 
L 333 4352 
z
M 1523 166 
C 1267 166 1254 197 1254 414 
L 1254 3938 
C 1254 4155 1267 4186 1523 4186 
L 2240 4186 
C 2771 4186 3750 3874 3750 2141 
C 3750 1242 3488 879 3366 707 
C 3213 510 2848 166 2240 166 
L 1523 166 
z
" transform="scale(0.015625)"/>
       <path id="CMR17-61" d="M 2304 1653 
C 2304 2072 2304 2294 2035 2543 
C 1798 2752 1523 2816 1306 2816 
C 800 2816 435 2407 435 1971 
C 435 1728 627 1728 666 1728 
C 749 1728 896 1778 896 1954 
C 896 2112 774 2181 666 2181 
C 640 2181 608 2174 589 2168 
C 723 2592 1069 2714 1293 2714 
C 1613 2714 1965 2429 1965 1885 
L 1965 1600 
C 1587 1600 1133 1549 774 1357 
C 371 1133 256 813 256 570 
C 256 77 832 -64 1171 -64 
C 1523 -64 1850 139 1990 511 
C 2003 233 2182 -18 2464 -18 
C 2598 -18 2938 70 2938 567 
L 2938 920 
L 2822 920 
L 2822 562 
C 2822 178 2650 128 2566 128 
C 2304 128 2304 458 2304 738 
L 2304 1653 
z
M 1965 870 
C 1965 317 1568 38 1216 38 
C 896 38 646 275 646 570 
C 646 761 730 1100 1101 1305 
C 1408 1478 1760 1504 1965 1504 
L 1965 870 
z
" transform="scale(0.015625)"/>
       <path id="CMR17-74" d="M 966 2560 
L 1862 2560 
L 1862 2725 
L 966 2725 
L 966 3904 
L 851 3904 
C 838 3245 614 2668 70 2668 
L 70 2560 
L 627 2560 
L 627 771 
C 627 650 627 -64 1370 -64 
C 1747 -64 1965 306 1965 777 
L 1965 1140 
L 1850 1140 
L 1850 783 
C 1850 344 1677 51 1408 51 
C 1222 51 966 178 966 758 
L 966 2560 
z
" transform="scale(0.015625)"/>
       <path id="CMR17-65" d="M 2438 1472 
C 2464 1498 2464 1511 2464 1576 
C 2464 2238 2118 2816 1389 2816 
C 710 2816 173 2169 173 1383 
C 173 551 781 -64 1459 -64 
C 2176 -64 2458 607 2458 740 
C 2458 784 2419 784 2406 784 
C 2362 784 2355 771 2330 696 
C 2189 265 1837 51 1504 51 
C 1229 51 954 203 781 480 
C 582 803 582 1176 582 1472 
L 2438 1472 
z
M 589 1568 
C 634 2505 1126 2714 1382 2714 
C 1818 2714 2112 2297 2118 1568 
L 589 1568 
z
" transform="scale(0.015625)"/>
      </defs>
      <use xlink:href="#CMR17-44" transform="scale(0.996264)"/>
      <use xlink:href="#CMR17-61" transform="translate(70.393556 0) scale(0.996264)"/>
      <use xlink:href="#CMR17-74" transform="translate(116.084033 0) scale(0.996264)"/>
      <use xlink:href="#CMR17-65" transform="translate(151.364801 0) scale(0.996264)"/>
     </g>
    </g>
   </g>
   <g id="matplotlib.axis_2">
    <g id="ytick_1">
     <g id="line2d_12">
      <path d="M 39.834739 285.462594 
L 716.99976 285.462594 
" clip-path="url(#p58945a29c9)" style="fill: none; stroke: #cccccc; stroke-opacity: 0.5; stroke-width: 0.8; stroke-linecap: round"/>
     </g>
     <g id="text_13">
      <!-- $\mathdefault{−7.5}$ -->
      <g transform="translate(15.855917 288.921844) scale(0.1 -0.1)">
       <defs>
        <path id="CMSY10-0" d="M 4218 1472 
C 4326 1472 4442 1472 4442 1600 
C 4442 1728 4326 1728 4218 1728 
L 755 1728 
C 646 1728 531 1728 531 1600 
C 531 1472 646 1472 755 1472 
L 4218 1472 
z
" transform="scale(0.015625)"/>
        <path id="CMMI12-3a" d="M 1178 307 
C 1178 492 1024 619 870 619 
C 685 619 557 466 557 313 
C 557 128 710 0 864 0 
C 1050 0 1178 153 1178 307 
z
" transform="scale(0.015625)"/>
       </defs>
       <use xlink:href="#CMSY10-0" transform="scale(0.996264)"/>
       <use xlink:href="#CMR17-37" transform="translate(77.487468 0) scale(0.996264)"/>
       <use xlink:href="#CMMI12-3a" transform="translate(123.177945 0) scale(0.996264)"/>
       <use xlink:href="#CMR17-35" transform="translate(150.275122 0) scale(0.996264)"/>
      </g>
     </g>
    </g>
    <g id="ytick_2">
     <g id="line2d_13">
      <path d="M 39.834739 251.661266 
L 716.99976 251.661266 
" clip-path="url(#p58945a29c9)" style="fill: none; stroke: #cccccc; stroke-opacity: 0.5; stroke-width: 0.8; stroke-linecap: round"/>
     </g>
     <g id="text_14">
      <!-- $\mathdefault{−5.0}$ -->
      <g transform="translate(15.855917 255.120515) scale(0.1 -0.1)">
       <use xlink:href="#CMSY10-0" transform="scale(0.996264)"/>
       <use xlink:href="#CMR17-35" transform="translate(77.487468 0) scale(0.996264)"/>
       <use xlink:href="#CMMI12-3a" transform="translate(123.177945 0) scale(0.996264)"/>
       <use xlink:href="#CMR17-30" transform="translate(150.275122 0) scale(0.996264)"/>
      </g>
     </g>
    </g>
    <g id="ytick_3">
     <g id="line2d_14">
      <path d="M 39.834739 217.859938 
L 716.99976 217.859938 
" clip-path="url(#p58945a29c9)" style="fill: none; stroke: #cccccc; stroke-opacity: 0.5; stroke-width: 0.8; stroke-linecap: round"/>
     </g>
     <g id="text_15">
      <!-- $\mathdefault{−2.5}$ -->
      <g transform="translate(15.855917 221.319187) scale(0.1 -0.1)">
       <use xlink:href="#CMSY10-0" transform="scale(0.996264)"/>
       <use xlink:href="#CMR17-32" transform="translate(77.487468 0) scale(0.996264)"/>
       <use xlink:href="#CMMI12-3a" transform="translate(123.177945 0) scale(0.996264)"/>
       <use xlink:href="#CMR17-35" transform="translate(150.275122 0) scale(0.996264)"/>
      </g>
     </g>
    </g>
    <g id="ytick_4">
     <g id="line2d_15">
      <path d="M 39.834739 184.058609 
L 716.99976 184.058609 
" clip-path="url(#p58945a29c9)" style="fill: none; stroke: #cccccc; stroke-opacity: 0.5; stroke-width: 0.8; stroke-linecap: round"/>
     </g>
     <g id="text_16">
      <!-- $\mathdefault{0.0}$ -->
      <g transform="translate(23.60466 187.517859) scale(0.1 -0.1)">
       <use xlink:href="#CMR17-30" transform="scale(0.996264)"/>
       <use xlink:href="#CMMI12-3a" transform="translate(45.690477 0) scale(0.996264)"/>
       <use xlink:href="#CMR17-30" transform="translate(72.787654 0) scale(0.996264)"/>
      </g>
     </g>
    </g>
    <g id="ytick_5">
     <g id="line2d_16">
      <path d="M 39.834739 150.257281 
L 716.99976 150.257281 
" clip-path="url(#p58945a29c9)" style="fill: none; stroke: #cccccc; stroke-opacity: 0.5; stroke-width: 0.8; stroke-linecap: round"/>
     </g>
     <g id="text_17">
      <!-- $\mathdefault{2.5}$ -->
      <g transform="translate(23.60466 153.71653) scale(0.1 -0.1)">
       <use xlink:href="#CMR17-32" transform="scale(0.996264)"/>
       <use xlink:href="#CMMI12-3a" transform="translate(45.690477 0) scale(0.996264)"/>
       <use xlink:href="#CMR17-35" transform="translate(72.787654 0) scale(0.996264)"/>
      </g>
     </g>
    </g>
    <g id="ytick_6">
     <g id="line2d_17">
      <path d="M 39.834739 116.455953 
L 716.99976 116.455953 
" clip-path="url(#p58945a29c9)" style="fill: none; stroke: #cccccc; stroke-opacity: 0.5; stroke-width: 0.8; stroke-linecap: round"/>
     </g>
     <g id="text_18">
      <!-- $\mathdefault{5.0}$ -->
      <g transform="translate(23.60466 119.915202) scale(0.1 -0.1)">
       <use xlink:href="#CMR17-35" transform="scale(0.996264)"/>
       <use xlink:href="#CMMI12-3a" transform="translate(45.690477 0) scale(0.996264)"/>
       <use xlink:href="#CMR17-30" transform="translate(72.787654 0) scale(0.996264)"/>
      </g>
     </g>
    </g>
    <g id="ytick_7">
     <g id="line2d_18">
      <path d="M 39.834739 82.654625 
L 716.99976 82.654625 
" clip-path="url(#p58945a29c9)" style="fill: none; stroke: #cccccc; stroke-opacity: 0.5; stroke-width: 0.8; stroke-linecap: round"/>
     </g>
     <g id="text_19">
      <!-- $\mathdefault{7.5}$ -->
      <g transform="translate(23.60466 86.113874) scale(0.1 -0.1)">
       <use xlink:href="#CMR17-37" transform="scale(0.996264)"/>
       <use xlink:href="#CMMI12-3a" transform="translate(45.690477 0) scale(0.996264)"/>
       <use xlink:href="#CMR17-35" transform="translate(72.787654 0) scale(0.996264)"/>
      </g>
     </g>
    </g>
    <g id="ytick_8">
     <g id="line2d_19">
      <path d="M 39.834739 48.853296 
L 716.99976 48.853296 
" clip-path="url(#p58945a29c9)" style="fill: none; stroke: #cccccc; stroke-opacity: 0.5; stroke-width: 0.8; stroke-linecap: round"/>
     </g>
     <g id="text_20">
      <!-- $\mathdefault{10.0}$ -->
      <g transform="translate(18.623325 52.312545) scale(0.1 -0.1)">
       <use xlink:href="#CMR17-31" transform="scale(0.996264)"/>
       <use xlink:href="#CMR17-30" transform="translate(45.690477 0) scale(0.996264)"/>
       <use xlink:href="#CMMI12-3a" transform="translate(91.380954 0) scale(0.996264)"/>
       <use xlink:href="#CMR17-30" transform="translate(118.478131 0) scale(0.996264)"/>
      </g>
     </g>
    </g>
    <g id="text_21">
     <!-- Total Contribution -->
     <g style="fill: #696969" transform="translate(9.918738 202.52092) rotate(-90) scale(0.1 -0.1)">
      <defs>
       <path id="CMR17-54" d="M 3981 4326 
L 288 4326 
L 179 2918 
L 294 2918 
C 378 3976 467 4160 1453 4160 
C 1568 4160 1754 4160 1805 4154 
C 1926 4135 1926 4058 1926 3912 
L 1926 459 
C 1926 230 1907 160 1376 160 
L 1197 160 
L 1197 0 
C 1504 0 1824 0 2138 0 
C 2451 0 2771 0 3078 0 
L 3078 160 
L 2899 160 
C 2368 160 2349 230 2349 459 
L 2349 3912 
C 2349 4052 2349 4129 2464 4154 
C 2515 4160 2701 4160 2816 4160 
C 3795 4160 3891 3976 3974 2918 
L 4090 2918 
L 3981 4326 
z
" transform="scale(0.015625)"/>
       <path id="CMR17-6f" d="M 2758 1356 
C 2758 2176 2163 2816 1466 2816 
C 768 2816 173 2176 173 1356 
C 173 551 768 -64 1466 -64 
C 2163 -64 2758 551 2758 1356 
z
M 1466 51 
C 1165 51 909 230 762 480 
C 602 767 582 1126 582 1408 
C 582 1677 595 2010 762 2298 
C 890 2509 1139 2714 1466 2714 
C 1754 2714 1997 2554 2150 2330 
C 2349 2029 2349 1607 2349 1408 
C 2349 1158 2336 775 2163 467 
C 1984 173 1709 51 1466 51 
z
" transform="scale(0.015625)"/>
       <path id="CMR17-6c" d="M 979 4396 
L 218 4326 
L 218 4160 
C 595 4160 653 4122 653 3817 
L 653 426 
C 653 184 627 153 218 153 
L 218 -13 
C 371 0 653 0 813 0 
C 979 0 1261 0 1414 -13 
L 1414 153 
C 1005 153 979 178 979 426 
L 979 4396 
z
" transform="scale(0.015625)"/>
       <path id="CMR17-43" d="M 3974 4289 
C 3974 4403 3968 4410 3930 4410 
C 3904 4410 3898 4403 3853 4327 
L 3571 3792 
C 3258 4187 2874 4416 2381 4416 
C 1286 4416 294 3456 294 2148 
C 294 826 1286 -128 2387 -128 
C 3366 -128 3974 730 3974 1461 
C 3974 1524 3974 1550 3917 1550 
C 3866 1550 3866 1531 3859 1474 
C 3808 585 3168 38 2477 38 
C 1824 38 781 495 781 2147 
C 781 3805 1843 4250 2464 4250 
C 3187 4250 3712 3628 3834 2745 
C 3846 2668 3846 2655 3904 2655 
C 3974 2655 3974 2668 3974 2783 
L 3974 4289 
z
" transform="scale(0.015625)"/>
       <path id="CMR17-6e" d="M 2656 1933 
C 2656 2259 2592 2790 1837 2790 
C 1331 2790 1069 2400 973 2144 
L 966 2144 
L 966 2790 
L 211 2720 
L 211 2554 
C 589 2554 646 2515 646 2208 
L 646 428 
C 646 184 621 153 211 153 
L 211 -13 
C 365 0 646 0 813 0 
C 979 0 1267 0 1421 -13 
L 1421 153 
C 1011 153 986 178 986 428 
L 986 1658 
C 986 2247 1344 2688 1792 2688 
C 2266 2688 2317 2266 2317 1958 
L 2317 428 
C 2317 184 2291 153 1882 153 
L 1882 -13 
C 2035 0 2317 0 2483 0 
C 2650 0 2938 0 3091 -13 
L 3091 153 
C 2682 153 2656 178 2656 428 
L 2656 1933 
z
" transform="scale(0.015625)"/>
       <path id="CMR17-72" d="M 960 1497 
C 960 2112 1222 2688 1702 2688 
C 1747 2688 1792 2682 1837 2662 
C 1837 2662 1696 2617 1696 2452 
C 1696 2298 1818 2234 1914 2234 
C 1990 2234 2131 2279 2131 2458 
C 2131 2663 1926 2790 1709 2790 
C 1222 2790 1011 2317 947 2093 
L 941 2093 
L 941 2790 
L 198 2720 
L 198 2554 
C 576 2554 634 2515 634 2208 
L 634 428 
C 634 184 608 153 198 153 
L 198 -13 
C 352 0 646 0 813 0 
C 998 0 1325 0 1498 -13 
L 1498 153 
C 1037 153 960 153 960 440 
L 960 1497 
z
" transform="scale(0.015625)"/>
       <path id="CMR17-69" d="M 992 3909 
C 992 4049 877 4170 730 4170 
C 589 4170 467 4056 467 3909 
C 467 3769 582 3648 730 3648 
C 870 3648 992 3763 992 3909 
z
M 243 2706 
L 243 2541 
C 602 2541 653 2502 653 2197 
L 653 427 
C 653 184 627 153 218 153 
L 218 -13 
C 371 0 646 0 806 0 
C 960 0 1222 0 1370 -13 
L 1370 153 
C 992 153 979 191 979 420 
L 979 2776 
L 243 2706 
z
" transform="scale(0.015625)"/>
       <path id="CMR17-62" d="M 960 4396 
L 198 4326 
L 198 4160 
C 576 4160 634 4122 634 3817 
L 634 -13 
L 749 -13 
L 934 441 
C 1120 141 1395 -64 1766 -64 
C 2406 -64 3053 500 3053 1370 
C 3053 2188 2477 2790 1830 2790 
C 1434 2790 1152 2579 960 2330 
L 960 4396 
z
M 973 2004 
C 973 2118 973 2138 1062 2272 
C 1312 2657 1670 2688 1792 2688 
C 1984 2688 2643 2585 2643 1376 
C 2643 108 1888 38 1734 38 
C 1536 38 1248 114 1043 486 
C 973 608 973 621 973 735 
L 973 2004 
z
" transform="scale(0.015625)"/>
       <path id="CMR17-75" d="M 1882 2693 
L 1882 2528 
C 2259 2528 2317 2489 2317 2186 
L 2317 1032 
C 2317 500 2029 38 1555 38 
C 1030 38 986 348 986 678 
L 986 2763 
L 211 2693 
L 211 2528 
C 467 2528 640 2528 646 2274 
L 646 1058 
C 646 633 646 361 813 183 
C 896 101 1056 -64 1517 -64 
C 2061 -64 2272 377 2323 506 
L 2330 506 
L 2330 -63 
L 3091 -63 
L 3091 128 
C 2714 128 2656 166 2656 473 
L 2656 2763 
L 1882 2693 
z
" transform="scale(0.015625)"/>
      </defs>
      <use xlink:href="#CMR17-54" transform="scale(0.996264)"/>
      <use xlink:href="#CMR17-6f" transform="translate(58.702625 0) scale(0.996264)"/>
      <use xlink:href="#CMR17-74" transform="translate(104.393102 0) scale(0.996264)"/>
      <use xlink:href="#CMR17-61" transform="translate(139.67387 0) scale(0.996264)"/>
      <use xlink:href="#CMR17-6c" transform="translate(185.364347 0) scale(0.996264)"/>
      <use xlink:href="#CMR17-43" transform="translate(240.311372 0) scale(0.996264)"/>
      <use xlink:href="#CMR17-6f" transform="translate(306.821253 0) scale(0.996264)"/>
      <use xlink:href="#CMR17-6e" transform="translate(352.51173 0) scale(0.996264)"/>
      <use xlink:href="#CMR17-74" transform="translate(400.804646 0) scale(0.996264)"/>
      <use xlink:href="#CMR17-72" transform="translate(436.085413 0) scale(0.996264)"/>
      <use xlink:href="#CMR17-69" transform="translate(471.366181 0) scale(0.996264)"/>
      <use xlink:href="#CMR17-62" transform="translate(496.23724 0) scale(0.996264)"/>
      <use xlink:href="#CMR17-75" transform="translate(547.132609 0) scale(0.996264)"/>
      <use xlink:href="#CMR17-74" transform="translate(598.027979 0) scale(0.996264)"/>
      <use xlink:href="#CMR17-69" transform="translate(633.308747 0) scale(0.996264)"/>
      <use xlink:href="#CMR17-6f" transform="translate(658.179805 0) scale(0.996264)"/>
      <use xlink:href="#CMR17-6e" transform="translate(703.870283 0) scale(0.996264)"/>
     </g>
    </g>
   </g>
   <g id="line2d_20">
    <path d="M 70.614968 184.068168 
L 75.67196 184.094932 
L 80.897519 184.539344 
L 80.897519 184.539344 
L 85.954512 183.334263 
L 85.954512 183.334263 
L 91.180071 183.92622 
L 91.180071 183.92622 
L 96.40563 179.436033 
L 96.40563 179.436033 
L 101.12549 180.676385 
L 101.12549 180.676385 
L 106.351049 181.740868 
L 106.351049 181.740868 
L 111.408041 170.559056 
L 111.408041 170.559056 
L 116.6336 176.994159 
L 116.6336 176.994159 
L 121.690593 183.026253 
L 121.690593 183.026253 
L 126.916152 174.7065 
L 126.916152 174.7065 
L 132.141711 178.535743 
L 132.141711 178.535743 
L 137.198703 176.678254 
L 137.198703 176.678254 
L 142.424262 167.381088 
L 142.424262 167.381088 
L 147.481255 160.185139 
L 147.481255 160.185139 
L 152.706814 119.950798 
L 152.706814 119.950798 
L 157.932373 177.470002 
L 157.932373 177.470002 
L 162.652233 179.918851 
L 162.652233 179.918851 
L 167.877792 162.615545 
L 167.877792 162.615545 
L 172.934784 184.926791 
L 172.934784 184.926791 
L 178.160343 193.008135 
L 178.160343 193.008135 
L 183.217336 171.290028 
L 183.217336 171.290028 
L 188.442895 138.192126 
L 188.442895 138.192126 
L 193.668454 173.45921 
L 193.668454 173.45921 
L 198.725446 171.252125 
L 198.725446 171.252125 
L 203.951005 178.22825 
L 203.951005 178.22825 
L 209.007998 198.887161 
L 209.007998 198.887161 
L 214.233557 154.084147 
L 214.233557 154.084147 
L 219.459116 204.117633 
L 219.459116 204.117633 
L 224.347542 82.985766 
L 224.347542 82.985766 
L 229.573101 164.513128 
L 229.573101 164.513128 
L 234.630094 210.176673 
L 234.630094 210.176673 
L 239.855653 181.131425 
L 239.855653 181.131425 
L 244.912645 169.426582 
L 244.912645 169.426582 
L 250.138204 160.890585 
L 250.138204 160.890585 
L 255.363763 96.954358 
L 255.363763 96.954358 
L 260.420756 119.415894 
L 260.420756 119.415894 
L 265.646315 131.446094 
L 265.646315 131.446094 
L 270.703308 174.548155 
L 270.703308 174.548155 
L 275.928867 161.283127 
L 275.928867 161.283127 
L 281.154426 146.673014 
L 281.154426 146.673014 
L 285.874285 184.718477 
L 285.874285 184.718477 
L 291.099844 148.589298 
L 291.099844 148.589298 
L 296.156837 149.582475 
L 296.156837 149.582475 
L 301.382396 142.074626 
L 301.382396 142.074626 
L 306.439389 154.38435 
L 306.439389 154.38435 
L 311.664948 169.502051 
L 311.664948 169.502051 
L 316.890507 200.137029 
L 316.890507 200.137029 
L 321.947499 171.025669 
L 321.947499 171.025669 
L 327.173058 136.353574 
L 327.173058 136.353574 
L 332.230051 115.60189 
L 332.230051 115.60189 
L 337.45561 172.806311 
L 337.45561 172.806311 
L 342.681169 167.911107 
L 342.681169 167.911107 
L 347.401029 141.590652 
L 347.401029 141.590652 
L 352.626588 197.440352 
L 352.626588 197.440352 
L 357.68358 184.441455 
L 357.68358 184.441455 
L 362.909139 182.921561 
L 362.909139 182.921561 
L 367.966132 156.10778 
L 367.966132 156.10778 
L 373.191691 154.980091 
L 373.191691 154.980091 
L 378.41725 112.237683 
L 378.41725 112.237683 
L 383.474242 191.833296 
L 383.474242 191.833296 
L 388.699801 189.632819 
L 388.699801 189.632819 
L 393.756794 121.000296 
L 393.756794 121.000296 
L 398.982353 110.587112 
L 398.982353 110.587112 
L 404.207912 130.82373 
L 404.207912 130.82373 
L 408.927772 165.017713 
L 408.927772 165.017713 
L 414.153331 124.749566 
L 414.153331 124.749566 
L 419.210323 139.126696 
L 419.210323 139.126696 
L 424.435882 132.199018 
L 424.435882 132.199018 
L 429.492875 159.51207 
L 429.492875 159.51207 
L 434.718434 166.211115 
L 434.718434 166.211115 
L 439.943993 142.606181 
L 439.943993 142.606181 
L 445.000985 151.83277 
L 445.000985 151.83277 
L 450.226544 182.325603 
L 450.226544 182.325603 
L 455.283537 128.796786 
L 455.283537 128.796786 
L 460.509096 203.326635 
L 460.509096 203.326635 
L 465.734655 222.611239 
L 465.734655 222.611239 
L 470.623081 202.47079 
L 470.623081 202.47079 
L 475.84864 214.986689 
L 475.84864 214.986689 
L 480.905633 211.647571 
L 480.905633 211.647571 
L 486.131192 217.890932 
L 486.131192 217.890932 
L 491.188184 197.201465 
L 491.188184 197.201465 
L 496.413743 174.590134 
L 496.413743 174.590134 
L 501.639302 196.602991 
L 501.639302 196.602991 
L 506.696295 164.561827 
L 506.696295 164.561827 
L 511.921854 115.942265 
L 511.921854 115.942265 
L 516.978847 209.31016 
L 516.978847 209.31016 
L 522.204406 176.743817 
L 522.204406 176.743817 
L 527.429965 189.728903 
L 527.429965 189.728903 
L 532.149824 212.726927 
L 532.149824 212.726927 
L 537.375383 125.578601 
L 537.375383 125.578601 
L 542.432376 142.781751 
L 542.432376 142.781751 
L 552.714928 168.031194 
L 552.714928 168.031194 
L 557.940487 163.518989 
L 557.940487 163.518989 
L 563.166046 223.83847 
L 563.166046 223.83847 
L 568.223038 153.600251 
L 568.223038 153.600251 
L 573.448597 184.460893 
L 573.448597 184.460893 
L 578.50559 167.547402 
L 578.50559 167.547402 
L 583.731149 178.279403 
L 583.731149 178.279403 
L 588.956708 160.533716 
L 588.956708 160.533716 
L 593.676567 202.861752 
L 593.676567 202.861752 
L 598.902126 125.71174 
L 598.902126 125.71174 
L 603.959119 204.141553 
L 603.959119 204.141553 
L 609.184678 203.756267 
L 609.184678 203.756267 
L 614.241671 188.078293 
L 614.241671 188.078293 
L 619.46723 173.674413 
L 619.46723 173.674413 
L 624.692789 160.139036 
L 624.692789 160.139036 
L 629.749781 141.080343 
L 629.749781 141.080343 
L 634.97534 174.57335 
L 634.97534 174.57335 
L 640.032333 177.560297 
L 640.032333 177.560297 
L 645.257892 190.412547 
L 645.257892 190.412547 
L 650.483451 185.944732 
L 650.483451 185.944732 
L 655.203311 179.680383 
L 655.203311 179.680383 
L 660.42887 176.636651 
L 660.42887 176.636651 
L 665.485862 193.369376 
L 665.485862 193.369376 
L 670.711421 191.580093 
L 670.711421 191.580093 
L 675.768414 183.684291 
L 675.768414 183.684291 
L 680.993973 181.909547 
L 680.993973 181.909547 
L 686.219532 185.067004 
L 686.219532 185.067004 
" clip-path="url(#p58945a29c9)" style="fill: none; stroke: #006e64; stroke-width: 1.5; stroke-linecap: round"/>
   </g>
   <g id="line2d_21">
    <path d="M 70.614968 184.058609 
L 80.897519 197.69149 
L 80.897519 197.69149 
L 85.954512 197.094182 
L 91.180071 196.929212 
L 91.180071 196.929212 
L 96.40563 195.152375 
L 96.40563 195.152375 
L 101.12549 198.663284 
L 101.12549 198.663284 
L 106.351049 192.79948 
L 106.351049 192.79948 
L 111.408041 189.165519 
L 111.408041 189.165519 
L 116.6336 183.523905 
L 116.6336 183.523905 
L 121.690593 182.403683 
L 121.690593 182.403683 
L 126.916152 176.284376 
L 126.916152 176.284376 
L 132.141711 185.547451 
L 132.141711 185.547451 
L 137.198703 177.432739 
L 137.198703 177.432739 
L 142.424262 160.749636 
L 142.424262 160.749636 
L 147.481255 131.674339 
L 147.481255 131.674339 
L 152.706814 129.162511 
L 152.706814 129.162511 
L 157.932373 93.324731 
L 157.932373 93.324731 
L 162.652233 111.470288 
L 162.652233 111.470288 
L 167.877792 73.100015 
L 167.877792 73.100015 
L 172.934784 54.281629 
L 172.934784 54.281629 
L 178.160343 70.358234 
L 178.160343 70.358234 
L 183.217336 77.397479 
L 183.217336 77.397479 
L 188.442895 54.72589 
L 188.442895 54.72589 
L 193.668454 60.399979 
L 193.668454 60.399979 
L 198.725446 30.39063 
L 198.725446 30.39063 
L 203.951005 87.996653 
L 203.951005 87.996653 
L 209.007998 59.276694 
L 209.007998 59.276694 
L 214.233557 137.804231 
L 214.233557 137.804231 
L 219.459116 153.002162 
L 219.459116 153.002162 
L 224.347542 222.027662 
L 224.347542 222.027662 
L 229.573101 251.371344 
L 229.573101 251.371344 
L 239.855653 146.100307 
L 239.855653 146.100307 
L 244.912645 120.938663 
L 244.912645 120.938663 
L 250.138204 193.557443 
L 250.138204 193.557443 
L 255.363763 194.600335 
L 255.363763 194.600335 
L 260.420756 135.526642 
L 260.420756 135.526642 
L 265.646315 187.868644 
L 265.646315 187.868644 
L 270.703308 282.954124 
L 270.703308 282.954124 
L 275.928867 155.787194 
L 275.928867 155.787194 
L 281.154426 257.888137 
L 281.154426 257.888137 
L 285.874285 219.146973 
L 285.874285 219.146973 
L 291.099844 172.962351 
L 291.099844 172.962351 
L 296.156837 236.365109 
L 296.156837 236.365109 
L 301.382396 213.179696 
L 301.382396 213.179696 
L 306.439389 230.055093 
L 306.439389 230.055093 
L 311.664948 227.515832 
L 311.664948 227.515832 
L 316.890507 192.074183 
L 316.890507 192.074183 
L 321.947499 256.475663 
L 321.947499 256.475663 
L 327.173058 94.461249 
L 327.173058 94.461249 
L 332.230051 150.268672 
L 332.230051 150.268672 
L 337.45561 132.955563 
L 337.45561 132.955563 
L 347.401029 269.184799 
L 347.401029 269.184799 
L 352.626588 212.541379 
L 352.626588 212.541379 
L 357.68358 238.626532 
L 357.68358 238.626532 
L 362.909139 148.812122 
L 362.909139 148.812122 
L 367.966132 139.527415 
L 367.966132 139.527415 
L 373.191691 103.418563 
L 373.191691 103.418563 
L 378.41725 154.20729 
L 378.41725 154.20729 
L 383.474242 258.29326 
L 383.474242 258.29326 
L 388.699801 137.519937 
L 388.699801 137.519937 
L 393.756794 254.80937 
L 393.756794 254.80937 
L 398.982353 245.225893 
L 398.982353 245.225893 
L 404.207912 234.925965 
L 404.207912 234.925965 
L 408.927772 186.336161 
L 408.927772 186.336161 
L 414.153331 139.143521 
L 414.153331 139.143521 
L 419.210323 130.3392 
L 419.210323 130.3392 
L 424.435882 107.301587 
L 424.435882 107.301587 
L 429.492875 117.023147 
L 429.492875 117.023147 
L 434.718434 150.19485 
L 434.718434 150.19485 
L 439.943993 184.573595 
L 439.943993 184.573595 
L 445.000985 205.98412 
L 445.000985 205.98412 
L 450.226544 173.610518 
L 450.226544 173.610518 
L 455.283537 218.021095 
L 455.283537 218.021095 
L 460.509096 267.324147 
L 460.509096 267.324147 
L 465.734655 262.91063 
L 465.734655 262.91063 
L 470.623081 288.590655 
L 470.623081 288.590655 
L 475.84864 168.879506 
L 475.84864 168.879506 
L 480.905633 154.096479 
L 480.905633 154.096479 
L 486.131192 196.176377 
L 486.131192 196.176377 
L 491.188184 234.071009 
L 491.188184 234.071009 
L 496.413743 204.393396 
L 496.413743 204.393396 
L 501.639302 260.92729 
L 501.639302 260.92729 
L 506.696295 229.913378 
L 506.696295 229.913378 
L 511.921854 204.006203 
L 511.921854 204.006203 
L 516.978847 222.228661 
L 516.978847 222.228661 
L 522.204406 139.601929 
L 522.204406 139.601929 
L 527.429965 111.028898 
L 527.429965 111.028898 
L 532.149824 129.110265 
L 532.149824 129.110265 
L 537.375383 160.534773 
L 537.375383 160.534773 
L 542.432376 177.292198 
L 542.432376 177.292198 
L 547.657935 120.462541 
L 547.657935 120.462541 
L 552.714928 111.943518 
L 552.714928 111.943518 
L 557.940487 137.168441 
L 557.940487 137.168441 
L 563.166046 154.941469 
L 563.166046 154.941469 
L 568.223038 143.716871 
L 568.223038 143.716871 
L 573.448597 153.985012 
L 573.448597 153.985012 
L 578.50559 229.747381 
L 578.50559 229.747381 
L 583.731149 292.154832 
L 583.731149 292.154832 
L 588.956708 244.813637 
L 588.956708 244.813637 
L 593.676567 205.494402 
L 593.676567 205.494402 
L 598.902126 185.543967 
L 598.902126 185.543967 
L 603.959119 194.807374 
L 603.959119 194.807374 
L 609.184678 191.21269 
L 609.184678 191.21269 
L 614.241671 206.817615 
L 614.241671 206.817615 
L 619.46723 211.39053 
L 619.46723 211.39053 
L 624.692789 228.335837 
L 624.692789 228.335837 
L 629.749781 202.0104 
L 629.749781 202.0104 
L 634.97534 203.16406 
L 634.97534 203.16406 
L 640.032333 263.914826 
L 640.032333 263.914826 
L 645.257892 214.602686 
L 645.257892 214.602686 
L 650.483451 193.540153 
L 650.483451 193.540153 
L 655.203311 185.381762 
L 655.203311 185.381762 
L 660.42887 195.251551 
L 660.42887 195.251551 
L 665.485862 201.246304 
L 665.485862 201.246304 
L 670.711421 217.640039 
L 670.711421 217.640039 
L 675.768414 216.829583 
L 675.768414 216.829583 
L 680.993973 207.738982 
L 680.993973 207.738982 
L 686.219532 192.693657 
L 686.219532 192.693657 
" clip-path="url(#p58945a29c9)" style="fill: none; stroke: #c17150; stroke-width: 1.5; stroke-linecap: round"/>
   </g>
   <g id="patch_3">
    <path d="M 39.834739 305.243042 
L 39.834739 17.30242 
" style="fill: none; stroke: #808080; stroke-width: 0.8; stroke-linejoin: miter; stroke-linecap: square"/>
   </g>
   <g id="patch_4">
    <path d="M 39.834739 305.243042 
L 716.99976 305.243042 
" style="fill: none; stroke: #808080; stroke-width: 0.8; stroke-linejoin: miter; stroke-linecap: square"/>
   </g>
   <g id="text_22">
    <!-- Actual vs. Predicted Total Contribution -->
    <g style="fill: #262626" transform="translate(274.903723 11.30242) scale(0.12 -0.12)">
     <defs>
      <path id="CMR17-41" d="M 2323 4378 
C 2291 4461 2278 4480 2214 4480 
C 2150 4480 2138 4461 2106 4378 
L 749 566 
C 627 223 371 153 147 153 
L 147 -13 
C 262 0 518 0 640 0 
C 800 0 1056 0 1210 -13 
L 1210 153 
C 909 153 864 361 864 439 
C 864 497 877 530 890 569 
L 1229 1536 
L 2906 1536 
L 3290 442 
C 3322 365 3322 352 3322 327 
C 3322 153 3046 153 2925 153 
L 2925 0 
C 3110 0 3443 0 3642 0 
C 3808 0 4128 0 4282 -13 
L 4282 153 
C 3942 153 3827 153 3744 387 
L 2323 4378 
z
M 2067 3893 
L 2848 1702 
L 1286 1702 
L 2067 3893 
z
" transform="scale(0.015625)"/>
      <path id="CMR17-63" d="M 2234 2240 
C 2112 2240 1933 2240 1933 2017 
C 1933 1838 2080 1787 2163 1787 
C 2208 1787 2394 1807 2394 2024 
C 2394 2467 1958 2803 1466 2803 
C 787 2803 211 2178 211 1363 
C 211 516 813 -64 1466 -64 
C 2259 -64 2458 677 2458 748 
C 2458 774 2451 793 2406 793 
C 2362 793 2355 787 2330 703 
C 2163 180 1798 51 1523 51 
C 1114 51 621 427 621 1369 
C 621 2338 1094 2688 1472 2688 
C 1722 2688 2093 2573 2234 2240 
z
" transform="scale(0.015625)"/>
      <path id="CMR17-76" d="M 2502 2163 
C 2560 2304 2662 2560 3034 2560 
L 3034 2726 
C 2912 2726 2752 2726 2630 2726 
C 2496 2726 2285 2726 2157 2732 
L 2157 2566 
C 2317 2553 2406 2477 2406 2311 
C 2406 2253 2406 2240 2368 2151 
L 1664 377 
L 902 2286 
C 864 2369 864 2381 864 2407 
C 864 2560 1075 2560 1171 2560 
L 1171 2732 
C 1018 2726 736 2726 576 2726 
C 403 2726 205 2726 64 2732 
L 64 2560 
C 307 2560 442 2560 518 2362 
L 1446 44 
C 1485 -51 1491 -64 1549 -64 
C 1606 -64 1613 -51 1651 44 
L 2502 2163 
z
" transform="scale(0.015625)"/>
      <path id="CMR17-73" d="M 1978 2697 
C 1978 2813 1971 2819 1933 2819 
C 1907 2819 1901 2813 1824 2717 
C 1805 2691 1747 2626 1728 2601 
C 1523 2819 1235 2819 1126 2819 
C 416 2819 160 2447 160 2076 
C 160 1498 813 1365 998 1325 
C 1402 1243 1542 1217 1677 1101 
C 1760 1025 1901 884 1901 654 
C 1901 384 1747 38 1158 38 
C 602 38 403 460 288 1021 
C 269 1110 269 1117 218 1117 
C 166 1117 160 1110 160 983 
L 160 63 
C 160 -51 166 -58 205 -58 
C 237 -58 243 -51 275 0 
C 314 57 410 211 448 276 
C 576 103 800 -64 1158 -64 
C 1792 -64 2131 283 2131 784 
C 2131 1112 1958 1285 1875 1362 
C 1683 1561 1459 1606 1190 1657 
C 838 1735 390 1825 390 2217 
C 390 2383 480 2737 1126 2737 
C 1811 2737 1850 2094 1862 1888 
C 1869 1856 1901 1849 1920 1849 
C 1978 1849 1978 1869 1978 1978 
L 1978 2697 
z
" transform="scale(0.015625)"/>
      <path id="CMR17-2e" d="M 1062 261 
C 1062 420 934 522 800 522 
C 672 522 538 420 538 261 
C 538 102 666 0 800 0 
C 928 0 1062 102 1062 261 
z
" transform="scale(0.015625)"/>
      <path id="CMR17-50" d="M 1267 2042 
L 2291 2042 
C 3117 2042 3718 2578 3718 3184 
C 3718 3791 3130 4352 2291 4352 
L 333 4352 
L 333 4186 
C 774 4186 845 4186 845 3899 
L 845 446 
C 845 160 774 160 333 160 
L 333 0 
C 518 0 858 0 1056 0 
C 1254 0 1594 0 1779 0 
L 1779 160 
C 1338 160 1267 160 1267 446 
L 1267 2042 
z
M 1254 2176 
L 1254 3938 
C 1254 4155 1267 4186 1523 4186 
L 2170 4186 
C 2995 4186 3232 3714 3232 3184 
C 3232 2604 2950 2176 2170 2176 
L 1254 2176 
z
" transform="scale(0.015625)"/>
      <path id="CMR17-64" d="M 1869 4326 
L 1869 4160 
C 2246 4160 2304 4122 2304 3820 
L 2304 2345 
C 2278 2377 2016 2790 1498 2790 
C 845 2790 211 2208 211 1364 
C 211 525 806 -64 1434 -64 
C 1978 -64 2259 337 2291 380 
L 2291 -63 
L 3066 -63 
L 3066 128 
C 2688 128 2630 166 2630 473 
L 2630 4396 
L 1869 4326 
z
M 2291 755 
C 2291 563 2176 390 2029 262 
C 1811 70 1594 38 1472 38 
C 1286 38 621 134 621 1356 
C 621 2612 1363 2688 1530 2688 
C 1824 2688 2061 2522 2208 2291 
C 2291 2157 2291 2138 2291 2023 
L 2291 755 
z
" transform="scale(0.015625)"/>
     </defs>
     <use xlink:href="#CMR17-41" transform="scale(0.996264)"/>
     <use xlink:href="#CMR17-63" transform="translate(69.07243 0) scale(0.996264)"/>
     <use xlink:href="#CMR17-74" transform="translate(109.55809 0) scale(0.996264)"/>
     <use xlink:href="#CMR17-75" transform="translate(144.838858 0) scale(0.996264)"/>
     <use xlink:href="#CMR17-61" transform="translate(195.734228 0) scale(0.996264)"/>
     <use xlink:href="#CMR17-6c" transform="translate(241.424705 0) scale(0.996264)"/>
     <use xlink:href="#CMR17-76" transform="translate(296.37173 0) scale(0.996264)"/>
     <use xlink:href="#CMR17-73" transform="translate(344.664646 0) scale(0.996264)"/>
     <use xlink:href="#CMR17-2e" transform="translate(380.465983 0) scale(0.996264)"/>
     <use xlink:href="#CMR17-50" transform="translate(445.822702 0) scale(0.996264)"/>
     <use xlink:href="#CMR17-72" transform="translate(508.409003 0) scale(0.996264)"/>
     <use xlink:href="#CMR17-65" transform="translate(543.689771 0) scale(0.996264)"/>
     <use xlink:href="#CMR17-64" transform="translate(584.175431 0) scale(0.996264)"/>
     <use xlink:href="#CMR17-69" transform="translate(635.070801 0) scale(0.996264)"/>
     <use xlink:href="#CMR17-63" transform="translate(659.941859 0) scale(0.996264)"/>
     <use xlink:href="#CMR17-74" transform="translate(700.42752 0) scale(0.996264)"/>
     <use xlink:href="#CMR17-65" transform="translate(735.708288 0) scale(0.996264)"/>
     <use xlink:href="#CMR17-64" transform="translate(776.193948 0) scale(0.996264)"/>
     <use xlink:href="#CMR17-54" transform="translate(857.165284 0) scale(0.996264)"/>
     <use xlink:href="#CMR17-6f" transform="translate(915.867909 0) scale(0.996264)"/>
     <use xlink:href="#CMR17-74" transform="translate(961.558386 0) scale(0.996264)"/>
     <use xlink:href="#CMR17-61" transform="translate(996.839154 0) scale(0.996264)"/>
     <use xlink:href="#CMR17-6c" transform="translate(1042.529631 0) scale(0.996264)"/>
     <use xlink:href="#CMR17-43" transform="translate(1097.476656 0) scale(0.996264)"/>
     <use xlink:href="#CMR17-6f" transform="translate(1163.986537 0) scale(0.996264)"/>
     <use xlink:href="#CMR17-6e" transform="translate(1209.677014 0) scale(0.996264)"/>
     <use xlink:href="#CMR17-74" transform="translate(1257.96993 0) scale(0.996264)"/>
     <use xlink:href="#CMR17-72" transform="translate(1293.250697 0) scale(0.996264)"/>
     <use xlink:href="#CMR17-69" transform="translate(1328.531465 0) scale(0.996264)"/>
     <use xlink:href="#CMR17-62" transform="translate(1353.402524 0) scale(0.996264)"/>
     <use xlink:href="#CMR17-75" transform="translate(1404.297894 0) scale(0.996264)"/>
     <use xlink:href="#CMR17-74" transform="translate(1455.193263 0) scale(0.996264)"/>
     <use xlink:href="#CMR17-69" transform="translate(1490.474031 0) scale(0.996264)"/>
     <use xlink:href="#CMR17-6f" transform="translate(1515.34509 0) scale(0.996264)"/>
     <use xlink:href="#CMR17-6e" transform="translate(1561.035567 0) scale(0.996264)"/>
    </g>
   </g>
   <g id="legend_1">
    <g id="patch_5">
     <path d="M 249.666553 356.999744 
L 507.167946 356.999744 
Q 509.167946 356.999744 509.167946 354.999744 
L 509.167946 341.037104 
Q 509.167946 339.037104 507.167946 339.037104 
L 249.666553 339.037104 
Q 247.666553 339.037104 247.666553 341.037104 
L 247.666553 354.999744 
Q 247.666553 356.999744 249.666553 356.999744 
z
" style="fill: #ffffff; opacity: 0.8"/>
    </g>
    <g id="line2d_22">
     <path d="M 251.666553 347.009084 
L 261.666553 347.009084 
L 271.666553 347.009084 
" style="fill: none; stroke: #006e64; stroke-width: 1.5; stroke-linecap: round"/>
    </g>
    <g id="text_23">
     <!-- Actual -->
     <g style="fill: #262626" transform="translate(279.666553 350.509084) scale(0.1 -0.1)">
      <use xlink:href="#CMR17-41" transform="scale(0.996264)"/>
      <use xlink:href="#CMR17-63" transform="translate(69.07243 0) scale(0.996264)"/>
      <use xlink:href="#CMR17-74" transform="translate(109.55809 0) scale(0.996264)"/>
      <use xlink:href="#CMR17-75" transform="translate(144.838858 0) scale(0.996264)"/>
      <use xlink:href="#CMR17-61" transform="translate(195.734228 0) scale(0.996264)"/>
      <use xlink:href="#CMR17-6c" transform="translate(241.424705 0) scale(0.996264)"/>
     </g>
    </g>
    <g id="line2d_23">
     <path d="M 328.72432 347.009084 
L 338.72432 347.009084 
L 348.72432 347.009084 
" style="fill: none; stroke: #c17150; stroke-width: 1.5; stroke-linecap: round"/>
    </g>
    <g id="text_24">
     <!-- Predicted (Forecast Combination) -->
     <g style="fill: #262626" transform="translate(356.72432 350.509084) scale(0.1 -0.1)">
      <defs>
       <path id="CMR17-28" d="M 1958 -1561 
C 1958 -1555 1958 -1542 1939 -1523 
C 1645 -1224 858 -407 858 1581 
C 858 3569 1632 4379 1946 4697 
C 1946 4704 1958 4717 1958 4736 
C 1958 4755 1939 4768 1914 4768 
C 1843 4768 1299 4296 986 3594 
C 666 2887 576 2199 576 1588 
C 576 1128 621 351 1005 -471 
C 1312 -1135 1837 -1600 1914 -1600 
C 1946 -1600 1958 -1587 1958 -1561 
z
" transform="scale(0.015625)"/>
       <path id="CMR17-46" d="M 3482 4325 
L 326 4325 
L 326 4160 
C 768 4160 838 4160 838 3874 
L 838 446 
C 838 160 768 160 326 160 
L 326 0 
C 512 0 870 0 1069 0 
C 1331 0 1638 0 1901 0 
L 1901 160 
L 1760 160 
C 1274 160 1261 223 1261 452 
L 1261 2075 
L 1837 2075 
C 2432 2075 2490 1865 2490 1332 
L 2605 1332 
L 2605 2987 
L 2490 2987 
C 2490 2450 2432 2240 1837 2240 
L 1261 2240 
L 1261 3911 
C 1261 4128 1274 4160 1530 4160 
L 2355 4160 
C 3322 4160 3430 3765 3520 2916 
L 3635 2916 
L 3482 4325 
z
" transform="scale(0.015625)"/>
       <path id="CMR17-6d" d="M 4326 1933 
C 4326 2252 4269 2790 3507 2790 
C 3072 2790 2771 2496 2656 2151 
L 2650 2151 
C 2573 2676 2195 2790 1837 2790 
C 1331 2790 1069 2400 973 2144 
L 966 2144 
L 966 2790 
L 211 2720 
L 211 2554 
C 589 2554 646 2515 646 2208 
L 646 428 
C 646 184 621 153 211 153 
L 211 -13 
C 365 0 646 0 813 0 
C 979 0 1267 0 1421 -13 
L 1421 153 
C 1011 153 986 178 986 428 
L 986 1658 
C 986 2247 1344 2688 1792 2688 
C 2266 2688 2317 2266 2317 1958 
L 2317 428 
C 2317 184 2291 153 1882 153 
L 1882 -13 
C 2035 0 2317 0 2483 0 
C 2650 0 2938 0 3091 -13 
L 3091 153 
C 2682 153 2656 178 2656 428 
L 2656 1658 
C 2656 2247 3014 2688 3462 2688 
C 3936 2688 3987 2266 3987 1958 
L 3987 428 
C 3987 184 3962 153 3552 153 
L 3552 -13 
C 3706 0 3987 0 4154 0 
C 4320 0 4608 0 4762 -13 
L 4762 153 
C 4352 153 4326 178 4326 428 
L 4326 1933 
z
" transform="scale(0.015625)"/>
       <path id="CMR17-29" d="M 1683 1581 
C 1683 2040 1638 2817 1254 3639 
C 947 4303 422 4768 346 4768 
C 326 4768 301 4761 301 4729 
C 301 4717 307 4710 314 4697 
C 621 4378 1402 3568 1402 1584 
C 1402 -407 627 -1217 314 -1537 
C 307 -1549 301 -1556 301 -1568 
C 301 -1600 326 -1600 346 -1600 
C 416 -1600 960 -1128 1274 -426 
C 1594 281 1683 969 1683 1581 
z
" transform="scale(0.015625)"/>
      </defs>
      <use xlink:href="#CMR17-50" transform="scale(0.996264)"/>
      <use xlink:href="#CMR17-72" transform="translate(62.586301 0) scale(0.996264)"/>
      <use xlink:href="#CMR17-65" transform="translate(97.867068 0) scale(0.996264)"/>
      <use xlink:href="#CMR17-64" transform="translate(138.352729 0) scale(0.996264)"/>
      <use xlink:href="#CMR17-69" transform="translate(189.248099 0) scale(0.996264)"/>
      <use xlink:href="#CMR17-63" transform="translate(214.119157 0) scale(0.996264)"/>
      <use xlink:href="#CMR17-74" transform="translate(254.604818 0) scale(0.996264)"/>
      <use xlink:href="#CMR17-65" transform="translate(289.885585 0) scale(0.996264)"/>
      <use xlink:href="#CMR17-64" transform="translate(330.371246 0) scale(0.996264)"/>
      <use xlink:href="#CMR17-28" transform="translate(411.342582 0) scale(0.996264)"/>
      <use xlink:href="#CMR17-46" transform="translate(446.62335 0) scale(0.996264)"/>
      <use xlink:href="#CMR17-6f" transform="translate(498.799941 0) scale(0.996264)"/>
      <use xlink:href="#CMR17-72" transform="translate(544.490418 0) scale(0.996264)"/>
      <use xlink:href="#CMR17-65" transform="translate(579.771186 0) scale(0.996264)"/>
      <use xlink:href="#CMR17-63" transform="translate(620.256846 0) scale(0.996264)"/>
      <use xlink:href="#CMR17-61" transform="translate(660.742507 0) scale(0.996264)"/>
      <use xlink:href="#CMR17-73" transform="translate(706.432984 0) scale(0.996264)"/>
      <use xlink:href="#CMR17-74" transform="translate(742.234321 0) scale(0.996264)"/>
      <use xlink:href="#CMR17-43" transform="translate(807.591056 0) scale(0.996264)"/>
      <use xlink:href="#CMR17-6f" transform="translate(874.100936 0) scale(0.996264)"/>
      <use xlink:href="#CMR17-6d" transform="translate(919.791413 0) scale(0.996264)"/>
      <use xlink:href="#CMR17-62" transform="translate(994.108549 0) scale(0.996264)"/>
      <use xlink:href="#CMR17-69" transform="translate(1045.003919 0) scale(0.996264)"/>
      <use xlink:href="#CMR17-6e" transform="translate(1069.874978 0) scale(0.996264)"/>
      <use xlink:href="#CMR17-61" transform="translate(1120.770347 0) scale(0.996264)"/>
      <use xlink:href="#CMR17-74" transform="translate(1166.460824 0) scale(0.996264)"/>
      <use xlink:href="#CMR17-69" transform="translate(1201.741592 0) scale(0.996264)"/>
      <use xlink:href="#CMR17-6f" transform="translate(1226.612651 0) scale(0.996264)"/>
      <use xlink:href="#CMR17-6e" transform="translate(1272.303128 0) scale(0.996264)"/>
      <use xlink:href="#CMR17-29" transform="translate(1323.198498 0) scale(0.996264)"/>
     </g>
    </g>
   </g>
  </g>
 </g>
 <defs>
  <clipPath id="p58945a29c9">
   <rect x="39.834739" y="17.30242" width="677.165021" height="287.940622"/>
  </clipPath>
 </defs>
</svg>
