<?xml version="1.0" encoding="utf-8" standalone="no"?>
<!DOCTYPE svg PUBLIC "-//W3C//DTD SVG 1.1//EN"
  "http://www.w3.org/Graphics/SVG/1.1/DTD/svg11.dtd">
<svg xmlns:xlink="http://www.w3.org/1999/xlink" width="720pt" height="360pt" viewBox="0 0 720 360" xmlns="http://www.w3.org/2000/svg" version="1.1">
 <metadata>
  <rdf:RDF xmlns:dc="http://purl.org/dc/elements/1.1/" xmlns:cc="http://creativecommons.org/ns#" xmlns:rdf="http://www.w3.org/1999/02/22-rdf-syntax-ns#">
   <cc:Work>
    <dc:type rdf:resource="http://purl.org/dc/dcmitype/StillImage"/>
    <dc:date>2023-10-17T10:37:14.345695</dc:date>
    <dc:format>image/svg+xml</dc:format>
    <dc:creator>
     <cc:Agent>
      <dc:title>Matplotlib v3.6.3, https://matplotlib.org/</dc:title>
     </cc:Agent>
    </dc:creator>
   </cc:Work>
  </rdf:RDF>
 </metadata>
 <defs>
  <style type="text/css">*{stroke-linejoin: round; stroke-linecap: butt}</style>
 </defs>
 <g id="figure_1">
  <g id="patch_1">
   <path d="M 0 360 
L 720 360 
L 720 0 
L 0 0 
z
" style="fill: #ffffff"/>
  </g>
  <g id="axes_1">
   <g id="patch_2">
    <path d="M 24.337252 306.17528 
L 716.99976 306.17528 
L 716.99976 17.30242 
L 24.337252 17.30242 
z
" style="fill: #ffffff"/>
   </g>
   <g id="matplotlib.axis_1">
    <g id="xtick_1">
     <g id="line2d_1">
      <path d="M 66.518454 306.17528 
L 66.518454 17.30242 
" clip-path="url(#p7dbf8bd1db)" style="fill: none; stroke: #cccccc; stroke-opacity: 0.5; stroke-width: 0.8; stroke-linecap: round"/>
     </g>
     <g id="text_1">
      <!-- $\mathdefault{2014}$ -->
      <g transform="translate(56.555784 316.593778) scale(0.1 -0.1)">
       <defs>
        <path id="CMR17-32" d="M 2669 989 
L 2554 989 
C 2490 536 2438 459 2413 420 
C 2381 369 1920 369 1830 369 
L 602 369 
C 832 619 1280 1072 1824 1597 
C 2214 1967 2669 2402 2669 3035 
C 2669 3790 2067 4224 1395 4224 
C 691 4224 262 3604 262 3030 
C 262 2780 448 2748 525 2748 
C 589 2748 781 2787 781 3010 
C 781 3207 614 3264 525 3264 
C 486 3264 448 3258 422 3245 
C 544 3790 915 4058 1306 4058 
C 1862 4058 2227 3617 2227 3035 
C 2227 2479 1901 2000 1536 1584 
L 262 146 
L 262 0 
L 2515 0 
L 2669 989 
z
" transform="scale(0.015625)"/>
        <path id="CMR17-30" d="M 2688 2025 
C 2688 2416 2682 3080 2413 3591 
C 2176 4039 1798 4198 1466 4198 
C 1158 4198 768 4058 525 3597 
C 269 3118 243 2524 243 2025 
C 243 1661 250 1106 448 619 
C 723 -39 1216 -128 1466 -128 
C 1760 -128 2208 -7 2470 600 
C 2662 1042 2688 1559 2688 2025 
z
M 1466 -26 
C 1056 -26 813 325 723 812 
C 653 1188 653 1738 653 2096 
C 653 2588 653 2997 736 3387 
C 858 3929 1216 4096 1466 4096 
C 1728 4096 2067 3923 2189 3400 
C 2272 3036 2278 2607 2278 2096 
C 2278 1680 2278 1169 2202 792 
C 2067 95 1690 -26 1466 -26 
z
" transform="scale(0.015625)"/>
        <path id="CMR17-31" d="M 1702 4058 
C 1702 4192 1696 4192 1606 4192 
C 1357 3916 979 3827 621 3827 
C 602 3827 570 3827 563 3808 
C 557 3795 557 3782 557 3648 
C 755 3648 1088 3686 1344 3839 
L 1344 461 
C 1344 236 1331 160 781 160 
L 589 160 
L 589 0 
C 896 0 1216 0 1523 0 
C 1830 0 2150 0 2458 0 
L 2458 160 
L 2266 160 
C 1715 160 1702 230 1702 458 
L 1702 4058 
z
" transform="scale(0.015625)"/>
        <path id="CMR17-34" d="M 2150 4122 
C 2150 4256 2144 4256 2029 4256 
L 128 1254 
L 128 1088 
L 1779 1088 
L 1779 457 
C 1779 224 1766 160 1318 160 
L 1197 160 
L 1197 0 
C 1402 0 1747 0 1965 0 
C 2182 0 2528 0 2733 0 
L 2733 160 
L 2611 160 
C 2163 160 2150 224 2150 457 
L 2150 1088 
L 2803 1088 
L 2803 1254 
L 2150 1254 
L 2150 4122 
z
M 1798 3703 
L 1798 1254 
L 256 1254 
L 1798 3703 
z
" transform="scale(0.015625)"/>
       </defs>
       <use xlink:href="#CMR17-32" transform="scale(0.996264)"/>
       <use xlink:href="#CMR17-30" transform="translate(45.690477 0) scale(0.996264)"/>
       <use xlink:href="#CMR17-31" transform="translate(91.380954 0) scale(0.996264)"/>
       <use xlink:href="#CMR17-34" transform="translate(137.071431 0) scale(0.996264)"/>
      </g>
     </g>
    </g>
    <g id="xtick_2">
     <g id="line2d_2">
      <path d="M 130.522357 306.17528 
L 130.522357 17.30242 
" clip-path="url(#p7dbf8bd1db)" style="fill: none; stroke: #cccccc; stroke-opacity: 0.5; stroke-width: 0.8; stroke-linecap: round"/>
     </g>
     <g id="text_2">
      <!-- $\mathdefault{2015}$ -->
      <g transform="translate(120.559686 316.593778) scale(0.1 -0.1)">
       <defs>
        <path id="CMR17-35" d="M 730 3692 
C 794 3666 1056 3584 1325 3584 
C 1920 3584 2246 3911 2432 4100 
C 2432 4157 2432 4192 2394 4192 
C 2387 4192 2374 4192 2323 4163 
C 2099 4058 1837 3973 1517 3973 
C 1325 3973 1037 3999 723 4139 
C 653 4171 640 4171 634 4171 
C 602 4171 595 4164 595 4037 
L 595 2203 
C 595 2089 595 2057 659 2057 
C 691 2057 704 2070 736 2114 
C 941 2401 1222 2522 1542 2522 
C 1766 2522 2246 2382 2246 1289 
C 2246 1085 2246 715 2054 421 
C 1894 159 1645 25 1370 25 
C 947 25 518 320 403 814 
C 429 807 480 795 506 795 
C 589 795 749 840 749 1038 
C 749 1210 627 1280 506 1280 
C 358 1280 262 1190 262 1011 
C 262 454 704 -128 1382 -128 
C 2042 -128 2669 440 2669 1264 
C 2669 2030 2170 2624 1549 2624 
C 1222 2624 947 2503 730 2274 
L 730 3692 
z
" transform="scale(0.015625)"/>
       </defs>
       <use xlink:href="#CMR17-32" transform="scale(0.996264)"/>
       <use xlink:href="#CMR17-30" transform="translate(45.690477 0) scale(0.996264)"/>
       <use xlink:href="#CMR17-31" transform="translate(91.380954 0) scale(0.996264)"/>
       <use xlink:href="#CMR17-35" transform="translate(137.071431 0) scale(0.996264)"/>
      </g>
     </g>
    </g>
    <g id="xtick_3">
     <g id="line2d_3">
      <path d="M 194.526259 306.17528 
L 194.526259 17.30242 
" clip-path="url(#p7dbf8bd1db)" style="fill: none; stroke: #cccccc; stroke-opacity: 0.5; stroke-width: 0.8; stroke-linecap: round"/>
     </g>
     <g id="text_3">
      <!-- $\mathdefault{2016}$ -->
      <g transform="translate(184.563589 316.593778) scale(0.1 -0.1)">
       <defs>
        <path id="CMR17-36" d="M 678 2176 
C 678 3690 1395 4032 1811 4032 
C 1946 4032 2272 4009 2400 3776 
C 2298 3776 2106 3776 2106 3553 
C 2106 3381 2246 3323 2336 3323 
C 2394 3323 2566 3348 2566 3560 
C 2566 3954 2246 4179 1805 4179 
C 1043 4179 243 3390 243 1984 
C 243 253 966 -128 1478 -128 
C 2099 -128 2688 427 2688 1283 
C 2688 2081 2170 2662 1517 2662 
C 1126 2662 838 2407 678 1960 
L 678 2176 
z
M 1478 25 
C 691 25 691 1200 691 1436 
C 691 1896 909 2560 1504 2560 
C 1613 2560 1926 2560 2138 2120 
C 2253 1870 2253 1609 2253 1289 
C 2253 944 2253 690 2118 434 
C 1978 171 1773 25 1478 25 
z
" transform="scale(0.015625)"/>
       </defs>
       <use xlink:href="#CMR17-32" transform="scale(0.996264)"/>
       <use xlink:href="#CMR17-30" transform="translate(45.690477 0) scale(0.996264)"/>
       <use xlink:href="#CMR17-31" transform="translate(91.380954 0) scale(0.996264)"/>
       <use xlink:href="#CMR17-36" transform="translate(137.071431 0) scale(0.996264)"/>
      </g>
     </g>
    </g>
    <g id="xtick_4">
     <g id="line2d_4">
      <path d="M 258.705515 306.17528 
L 258.705515 17.30242 
" clip-path="url(#p7dbf8bd1db)" style="fill: none; stroke: #cccccc; stroke-opacity: 0.5; stroke-width: 0.8; stroke-linecap: round"/>
     </g>
     <g id="text_4">
      <!-- $\mathdefault{2017}$ -->
      <g transform="translate(248.742844 316.593778) scale(0.1 -0.1)">
       <defs>
        <path id="CMR17-37" d="M 2886 3941 
L 2886 4081 
L 1382 4081 
C 634 4081 621 4165 595 4288 
L 480 4288 
L 294 3094 
L 410 3094 
C 429 3215 474 3540 550 3661 
C 589 3712 1062 3712 1171 3712 
L 2579 3712 
L 1869 2661 
C 1395 1954 1069 999 1069 165 
C 1069 89 1069 -128 1299 -128 
C 1530 -128 1530 89 1530 171 
L 1530 465 
C 1530 1508 1709 2196 2003 2636 
L 2886 3941 
z
" transform="scale(0.015625)"/>
       </defs>
       <use xlink:href="#CMR17-32" transform="scale(0.996264)"/>
       <use xlink:href="#CMR17-30" transform="translate(45.690477 0) scale(0.996264)"/>
       <use xlink:href="#CMR17-31" transform="translate(91.380954 0) scale(0.996264)"/>
       <use xlink:href="#CMR17-37" transform="translate(137.071431 0) scale(0.996264)"/>
      </g>
     </g>
    </g>
    <g id="xtick_5">
     <g id="line2d_5">
      <path d="M 322.709417 306.17528 
L 322.709417 17.30242 
" clip-path="url(#p7dbf8bd1db)" style="fill: none; stroke: #cccccc; stroke-opacity: 0.5; stroke-width: 0.8; stroke-linecap: round"/>
     </g>
     <g id="text_5">
      <!-- $\mathdefault{2018}$ -->
      <g transform="translate(312.746747 316.593778) scale(0.1 -0.1)">
       <defs>
        <path id="CMR17-38" d="M 1741 2264 
C 2144 2467 2554 2773 2554 3263 
C 2554 3841 1990 4179 1472 4179 
C 890 4179 378 3759 378 3180 
C 378 3021 416 2747 666 2505 
C 730 2442 998 2251 1171 2130 
C 883 1983 211 1634 211 934 
C 211 279 838 -128 1459 -128 
C 2144 -128 2720 362 2720 1010 
C 2720 1590 2330 1857 2074 2029 
L 1741 2264 
z
M 902 2822 
C 851 2854 595 3051 595 3351 
C 595 3739 998 4032 1459 4032 
C 1965 4032 2336 3676 2336 3262 
C 2336 2669 1670 2331 1638 2331 
C 1632 2331 1626 2331 1574 2370 
L 902 2822 
z
M 2080 1519 
C 2176 1449 2483 1240 2483 851 
C 2483 381 2010 25 1472 25 
C 890 25 448 438 448 940 
C 448 1443 838 1862 1280 2060 
L 2080 1519 
z
" transform="scale(0.015625)"/>
       </defs>
       <use xlink:href="#CMR17-32" transform="scale(0.996264)"/>
       <use xlink:href="#CMR17-30" transform="translate(45.690477 0) scale(0.996264)"/>
       <use xlink:href="#CMR17-31" transform="translate(91.380954 0) scale(0.996264)"/>
       <use xlink:href="#CMR17-38" transform="translate(137.071431 0) scale(0.996264)"/>
      </g>
     </g>
    </g>
    <g id="xtick_6">
     <g id="line2d_6">
      <path d="M 386.71332 306.17528 
L 386.71332 17.30242 
" clip-path="url(#p7dbf8bd1db)" style="fill: none; stroke: #cccccc; stroke-opacity: 0.5; stroke-width: 0.8; stroke-linecap: round"/>
     </g>
     <g id="text_6">
      <!-- $\mathdefault{2019}$ -->
      <g transform="translate(376.750649 316.593778) scale(0.1 -0.1)">
       <defs>
        <path id="CMR17-39" d="M 2253 1864 
C 2253 464 1670 31 1190 31 
C 1043 31 685 31 538 294 
C 704 268 826 357 826 518 
C 826 692 685 749 595 749 
C 538 749 365 723 365 506 
C 365 71 742 -128 1203 -128 
C 1939 -128 2688 674 2688 2073 
C 2688 3817 1971 4179 1485 4179 
C 851 4179 243 3628 243 2778 
C 243 1991 762 1408 1414 1408 
C 1952 1408 2189 1903 2253 2112 
L 2253 1864 
z
M 1427 1510 
C 1254 1510 1011 1542 813 1922 
C 678 2169 678 2461 678 2771 
C 678 3146 678 3405 858 3684 
C 947 3817 1114 4032 1485 4032 
C 2240 4032 2240 2885 2240 2632 
C 2240 2182 2035 1510 1427 1510 
z
" transform="scale(0.015625)"/>
       </defs>
       <use xlink:href="#CMR17-32" transform="scale(0.996264)"/>
       <use xlink:href="#CMR17-30" transform="translate(45.690477 0) scale(0.996264)"/>
       <use xlink:href="#CMR17-31" transform="translate(91.380954 0) scale(0.996264)"/>
       <use xlink:href="#CMR17-39" transform="translate(137.071431 0) scale(0.996264)"/>
      </g>
     </g>
    </g>
    <g id="xtick_7">
     <g id="line2d_7">
      <path d="M 450.717222 306.17528 
L 450.717222 17.30242 
" clip-path="url(#p7dbf8bd1db)" style="fill: none; stroke: #cccccc; stroke-opacity: 0.5; stroke-width: 0.8; stroke-linecap: round"/>
     </g>
     <g id="text_7">
      <!-- $\mathdefault{2020}$ -->
      <g transform="translate(440.754552 316.593778) scale(0.1 -0.1)">
       <use xlink:href="#CMR17-32" transform="scale(0.996264)"/>
       <use xlink:href="#CMR17-30" transform="translate(45.690477 0) scale(0.996264)"/>
       <use xlink:href="#CMR17-32" transform="translate(91.380954 0) scale(0.996264)"/>
       <use xlink:href="#CMR17-30" transform="translate(137.071431 0) scale(0.996264)"/>
      </g>
     </g>
    </g>
    <g id="xtick_8">
     <g id="line2d_8">
      <path d="M 514.896478 306.17528 
L 514.896478 17.30242 
" clip-path="url(#p7dbf8bd1db)" style="fill: none; stroke: #cccccc; stroke-opacity: 0.5; stroke-width: 0.8; stroke-linecap: round"/>
     </g>
     <g id="text_8">
      <!-- $\mathdefault{2021}$ -->
      <g transform="translate(504.933808 316.593778) scale(0.1 -0.1)">
       <use xlink:href="#CMR17-32" transform="scale(0.996264)"/>
       <use xlink:href="#CMR17-30" transform="translate(45.690477 0) scale(0.996264)"/>
       <use xlink:href="#CMR17-32" transform="translate(91.380954 0) scale(0.996264)"/>
       <use xlink:href="#CMR17-31" transform="translate(137.071431 0) scale(0.996264)"/>
      </g>
     </g>
    </g>
    <g id="xtick_9">
     <g id="line2d_9">
      <path d="M 578.900381 306.17528 
L 578.900381 17.30242 
" clip-path="url(#p7dbf8bd1db)" style="fill: none; stroke: #cccccc; stroke-opacity: 0.5; stroke-width: 0.8; stroke-linecap: round"/>
     </g>
     <g id="text_9">
      <!-- $\mathdefault{2022}$ -->
      <g transform="translate(568.93771 316.593778) scale(0.1 -0.1)">
       <use xlink:href="#CMR17-32" transform="scale(0.996264)"/>
       <use xlink:href="#CMR17-30" transform="translate(45.690477 0) scale(0.996264)"/>
       <use xlink:href="#CMR17-32" transform="translate(91.380954 0) scale(0.996264)"/>
       <use xlink:href="#CMR17-32" transform="translate(137.071431 0) scale(0.996264)"/>
      </g>
     </g>
    </g>
    <g id="xtick_10">
     <g id="line2d_10">
      <path d="M 642.904283 306.17528 
L 642.904283 17.30242 
" clip-path="url(#p7dbf8bd1db)" style="fill: none; stroke: #cccccc; stroke-opacity: 0.5; stroke-width: 0.8; stroke-linecap: round"/>
     </g>
     <g id="text_10">
      <!-- $\mathdefault{2023}$ -->
      <g transform="translate(632.941613 316.593778) scale(0.1 -0.1)">
       <defs>
        <path id="CMR17-33" d="M 1414 2157 
C 1984 2157 2234 1662 2234 1090 
C 2234 320 1824 25 1453 25 
C 1114 25 563 194 390 693 
C 422 680 454 680 486 680 
C 640 680 755 782 755 948 
C 755 1133 614 1216 486 1216 
C 378 1216 211 1165 211 926 
C 211 335 787 -128 1466 -128 
C 2176 -128 2720 430 2720 1085 
C 2720 1707 2208 2157 1600 2227 
C 2086 2328 2554 2756 2554 3329 
C 2554 3820 2048 4179 1472 4179 
C 890 4179 378 3829 378 3329 
C 378 3110 544 3072 627 3072 
C 762 3072 877 3155 877 3321 
C 877 3486 762 3569 627 3569 
C 602 3569 570 3569 544 3557 
C 730 3959 1235 4032 1459 4032 
C 1683 4032 2106 3925 2106 3320 
C 2106 3143 2080 2828 1862 2550 
C 1670 2304 1453 2304 1242 2284 
C 1210 2284 1062 2269 1037 2269 
C 992 2263 966 2257 966 2208 
C 966 2163 973 2157 1101 2157 
L 1414 2157 
z
" transform="scale(0.015625)"/>
       </defs>
       <use xlink:href="#CMR17-32" transform="scale(0.996264)"/>
       <use xlink:href="#CMR17-30" transform="translate(45.690477 0) scale(0.996264)"/>
       <use xlink:href="#CMR17-32" transform="translate(91.380954 0) scale(0.996264)"/>
       <use xlink:href="#CMR17-33" transform="translate(137.071431 0) scale(0.996264)"/>
      </g>
     </g>
    </g>
    <g id="xtick_11">
     <g id="line2d_11">
      <path d="M 706.908186 306.17528 
L 706.908186 17.30242 
" clip-path="url(#p7dbf8bd1db)" style="fill: none; stroke: #cccccc; stroke-opacity: 0.5; stroke-width: 0.8; stroke-linecap: round"/>
     </g>
     <g id="text_11">
      <!-- $\mathdefault{2024}$ -->
      <g transform="translate(696.945515 316.593778) scale(0.1 -0.1)">
       <use xlink:href="#CMR17-32" transform="scale(0.996264)"/>
       <use xlink:href="#CMR17-30" transform="translate(45.690477 0) scale(0.996264)"/>
       <use xlink:href="#CMR17-32" transform="translate(91.380954 0) scale(0.996264)"/>
       <use xlink:href="#CMR17-34" transform="translate(137.071431 0) scale(0.996264)"/>
      </g>
     </g>
    </g>
    <g id="text_12">
     <!-- Date -->
     <g style="fill: #696969" transform="translate(360.221552 329.449455) scale(0.1 -0.1)">
      <defs>
       <path id="CMR17-44" d="M 333 4352 
L 333 4186 
C 774 4186 845 4186 845 3900 
L 845 452 
C 845 166 774 166 333 166 
L 333 0 
L 2368 0 
C 3398 0 4224 943 4224 2141 
C 4224 3346 3411 4352 2368 4352 
L 333 4352 
z
M 1523 166 
C 1267 166 1254 197 1254 414 
L 1254 3938 
C 1254 4155 1267 4186 1523 4186 
L 2240 4186 
C 2771 4186 3750 3874 3750 2141 
C 3750 1242 3488 879 3366 707 
C 3213 510 2848 166 2240 166 
L 1523 166 
z
" transform="scale(0.015625)"/>
       <path id="CMR17-61" d="M 2304 1653 
C 2304 2072 2304 2294 2035 2543 
C 1798 2752 1523 2816 1306 2816 
C 800 2816 435 2407 435 1971 
C 435 1728 627 1728 666 1728 
C 749 1728 896 1778 896 1954 
C 896 2112 774 2181 666 2181 
C 640 2181 608 2174 589 2168 
C 723 2592 1069 2714 1293 2714 
C 1613 2714 1965 2429 1965 1885 
L 1965 1600 
C 1587 1600 1133 1549 774 1357 
C 371 1133 256 813 256 570 
C 256 77 832 -64 1171 -64 
C 1523 -64 1850 139 1990 511 
C 2003 233 2182 -18 2464 -18 
C 2598 -18 2938 70 2938 567 
L 2938 920 
L 2822 920 
L 2822 562 
C 2822 178 2650 128 2566 128 
C 2304 128 2304 458 2304 738 
L 2304 1653 
z
M 1965 870 
C 1965 317 1568 38 1216 38 
C 896 38 646 275 646 570 
C 646 761 730 1100 1101 1305 
C 1408 1478 1760 1504 1965 1504 
L 1965 870 
z
" transform="scale(0.015625)"/>
       <path id="CMR17-74" d="M 966 2560 
L 1862 2560 
L 1862 2725 
L 966 2725 
L 966 3904 
L 851 3904 
C 838 3245 614 2668 70 2668 
L 70 2560 
L 627 2560 
L 627 771 
C 627 650 627 -64 1370 -64 
C 1747 -64 1965 306 1965 777 
L 1965 1140 
L 1850 1140 
L 1850 783 
C 1850 344 1677 51 1408 51 
C 1222 51 966 178 966 758 
L 966 2560 
z
" transform="scale(0.015625)"/>
       <path id="CMR17-65" d="M 2438 1472 
C 2464 1498 2464 1511 2464 1576 
C 2464 2238 2118 2816 1389 2816 
C 710 2816 173 2169 173 1383 
C 173 551 781 -64 1459 -64 
C 2176 -64 2458 607 2458 740 
C 2458 784 2419 784 2406 784 
C 2362 784 2355 771 2330 696 
C 2189 265 1837 51 1504 51 
C 1229 51 954 203 781 480 
C 582 803 582 1176 582 1472 
L 2438 1472 
z
M 589 1568 
C 634 2505 1126 2714 1382 2714 
C 1818 2714 2112 2297 2118 1568 
L 589 1568 
z
" transform="scale(0.015625)"/>
      </defs>
      <use xlink:href="#CMR17-44" transform="scale(0.996264)"/>
      <use xlink:href="#CMR17-61" transform="translate(70.393556 0) scale(0.996264)"/>
      <use xlink:href="#CMR17-74" transform="translate(116.084033 0) scale(0.996264)"/>
      <use xlink:href="#CMR17-65" transform="translate(151.364801 0) scale(0.996264)"/>
     </g>
    </g>
   </g>
   <g id="matplotlib.axis_2">
    <g id="ytick_1">
     <g id="line2d_12">
      <path d="M 24.337252 275.075111 
L 716.99976 275.075111 
" clip-path="url(#p7dbf8bd1db)" style="fill: none; stroke: #cccccc; stroke-opacity: 0.5; stroke-width: 0.8; stroke-linecap: round"/>
     </g>
     <g id="text_13">
      <!-- $\mathdefault{0}$ -->
      <g transform="translate(15.855917 278.53436) scale(0.1 -0.1)">
       <use xlink:href="#CMR17-30" transform="scale(0.996264)"/>
      </g>
     </g>
    </g>
    <g id="ytick_2">
     <g id="line2d_13">
      <path d="M 24.337252 217.811667 
L 716.99976 217.811667 
" clip-path="url(#p7dbf8bd1db)" style="fill: none; stroke: #cccccc; stroke-opacity: 0.5; stroke-width: 0.8; stroke-linecap: round"/>
     </g>
     <g id="text_14">
      <!-- $\mathdefault{2}$ -->
      <g transform="translate(15.855917 221.270917) scale(0.1 -0.1)">
       <use xlink:href="#CMR17-32" transform="scale(0.996264)"/>
      </g>
     </g>
    </g>
    <g id="ytick_3">
     <g id="line2d_14">
      <path d="M 24.337252 160.548224 
L 716.99976 160.548224 
" clip-path="url(#p7dbf8bd1db)" style="fill: none; stroke: #cccccc; stroke-opacity: 0.5; stroke-width: 0.8; stroke-linecap: round"/>
     </g>
     <g id="text_15">
      <!-- $\mathdefault{4}$ -->
      <g transform="translate(15.855917 164.007473) scale(0.1 -0.1)">
       <use xlink:href="#CMR17-34" transform="scale(0.996264)"/>
      </g>
     </g>
    </g>
    <g id="ytick_4">
     <g id="line2d_15">
      <path d="M 24.337252 103.28478 
L 716.99976 103.28478 
" clip-path="url(#p7dbf8bd1db)" style="fill: none; stroke: #cccccc; stroke-opacity: 0.5; stroke-width: 0.8; stroke-linecap: round"/>
     </g>
     <g id="text_16">
      <!-- $\mathdefault{6}$ -->
      <g transform="translate(15.855917 106.744029) scale(0.1 -0.1)">
       <use xlink:href="#CMR17-36" transform="scale(0.996264)"/>
      </g>
     </g>
    </g>
    <g id="ytick_5">
     <g id="line2d_16">
      <path d="M 24.337252 46.021336 
L 716.99976 46.021336 
" clip-path="url(#p7dbf8bd1db)" style="fill: none; stroke: #cccccc; stroke-opacity: 0.5; stroke-width: 0.8; stroke-linecap: round"/>
     </g>
     <g id="text_17">
      <!-- $\mathdefault{8}$ -->
      <g transform="translate(15.855917 49.480585) scale(0.1 -0.1)">
       <use xlink:href="#CMR17-38" transform="scale(0.996264)"/>
      </g>
     </g>
    </g>
    <g id="text_18">
     <!-- Total Contribution -->
     <g style="fill: #696969" transform="translate(9.918738 202.987039) rotate(-90) scale(0.1 -0.1)">
      <defs>
       <path id="CMR17-54" d="M 3981 4326 
L 288 4326 
L 179 2918 
L 294 2918 
C 378 3976 467 4160 1453 4160 
C 1568 4160 1754 4160 1805 4154 
C 1926 4135 1926 4058 1926 3912 
L 1926 459 
C 1926 230 1907 160 1376 160 
L 1197 160 
L 1197 0 
C 1504 0 1824 0 2138 0 
C 2451 0 2771 0 3078 0 
L 3078 160 
L 2899 160 
C 2368 160 2349 230 2349 459 
L 2349 3912 
C 2349 4052 2349 4129 2464 4154 
C 2515 4160 2701 4160 2816 4160 
C 3795 4160 3891 3976 3974 2918 
L 4090 2918 
L 3981 4326 
z
" transform="scale(0.015625)"/>
       <path id="CMR17-6f" d="M 2758 1356 
C 2758 2176 2163 2816 1466 2816 
C 768 2816 173 2176 173 1356 
C 173 551 768 -64 1466 -64 
C 2163 -64 2758 551 2758 1356 
z
M 1466 51 
C 1165 51 909 230 762 480 
C 602 767 582 1126 582 1408 
C 582 1677 595 2010 762 2298 
C 890 2509 1139 2714 1466 2714 
C 1754 2714 1997 2554 2150 2330 
C 2349 2029 2349 1607 2349 1408 
C 2349 1158 2336 775 2163 467 
C 1984 173 1709 51 1466 51 
z
" transform="scale(0.015625)"/>
       <path id="CMR17-6c" d="M 979 4396 
L 218 4326 
L 218 4160 
C 595 4160 653 4122 653 3817 
L 653 426 
C 653 184 627 153 218 153 
L 218 -13 
C 371 0 653 0 813 0 
C 979 0 1261 0 1414 -13 
L 1414 153 
C 1005 153 979 178 979 426 
L 979 4396 
z
" transform="scale(0.015625)"/>
       <path id="CMR17-43" d="M 3974 4289 
C 3974 4403 3968 4410 3930 4410 
C 3904 4410 3898 4403 3853 4327 
L 3571 3792 
C 3258 4187 2874 4416 2381 4416 
C 1286 4416 294 3456 294 2148 
C 294 826 1286 -128 2387 -128 
C 3366 -128 3974 730 3974 1461 
C 3974 1524 3974 1550 3917 1550 
C 3866 1550 3866 1531 3859 1474 
C 3808 585 3168 38 2477 38 
C 1824 38 781 495 781 2147 
C 781 3805 1843 4250 2464 4250 
C 3187 4250 3712 3628 3834 2745 
C 3846 2668 3846 2655 3904 2655 
C 3974 2655 3974 2668 3974 2783 
L 3974 4289 
z
" transform="scale(0.015625)"/>
       <path id="CMR17-6e" d="M 2656 1933 
C 2656 2259 2592 2790 1837 2790 
C 1331 2790 1069 2400 973 2144 
L 966 2144 
L 966 2790 
L 211 2720 
L 211 2554 
C 589 2554 646 2515 646 2208 
L 646 428 
C 646 184 621 153 211 153 
L 211 -13 
C 365 0 646 0 813 0 
C 979 0 1267 0 1421 -13 
L 1421 153 
C 1011 153 986 178 986 428 
L 986 1658 
C 986 2247 1344 2688 1792 2688 
C 2266 2688 2317 2266 2317 1958 
L 2317 428 
C 2317 184 2291 153 1882 153 
L 1882 -13 
C 2035 0 2317 0 2483 0 
C 2650 0 2938 0 3091 -13 
L 3091 153 
C 2682 153 2656 178 2656 428 
L 2656 1933 
z
" transform="scale(0.015625)"/>
       <path id="CMR17-72" d="M 960 1497 
C 960 2112 1222 2688 1702 2688 
C 1747 2688 1792 2682 1837 2662 
C 1837 2662 1696 2617 1696 2452 
C 1696 2298 1818 2234 1914 2234 
C 1990 2234 2131 2279 2131 2458 
C 2131 2663 1926 2790 1709 2790 
C 1222 2790 1011 2317 947 2093 
L 941 2093 
L 941 2790 
L 198 2720 
L 198 2554 
C 576 2554 634 2515 634 2208 
L 634 428 
C 634 184 608 153 198 153 
L 198 -13 
C 352 0 646 0 813 0 
C 998 0 1325 0 1498 -13 
L 1498 153 
C 1037 153 960 153 960 440 
L 960 1497 
z
" transform="scale(0.015625)"/>
       <path id="CMR17-69" d="M 992 3909 
C 992 4049 877 4170 730 4170 
C 589 4170 467 4056 467 3909 
C 467 3769 582 3648 730 3648 
C 870 3648 992 3763 992 3909 
z
M 243 2706 
L 243 2541 
C 602 2541 653 2502 653 2197 
L 653 427 
C 653 184 627 153 218 153 
L 218 -13 
C 371 0 646 0 806 0 
C 960 0 1222 0 1370 -13 
L 1370 153 
C 992 153 979 191 979 420 
L 979 2776 
L 243 2706 
z
" transform="scale(0.015625)"/>
       <path id="CMR17-62" d="M 960 4396 
L 198 4326 
L 198 4160 
C 576 4160 634 4122 634 3817 
L 634 -13 
L 749 -13 
L 934 441 
C 1120 141 1395 -64 1766 -64 
C 2406 -64 3053 500 3053 1370 
C 3053 2188 2477 2790 1830 2790 
C 1434 2790 1152 2579 960 2330 
L 960 4396 
z
M 973 2004 
C 973 2118 973 2138 1062 2272 
C 1312 2657 1670 2688 1792 2688 
C 1984 2688 2643 2585 2643 1376 
C 2643 108 1888 38 1734 38 
C 1536 38 1248 114 1043 486 
C 973 608 973 621 973 735 
L 973 2004 
z
" transform="scale(0.015625)"/>
       <path id="CMR17-75" d="M 1882 2693 
L 1882 2528 
C 2259 2528 2317 2489 2317 2186 
L 2317 1032 
C 2317 500 2029 38 1555 38 
C 1030 38 986 348 986 678 
L 986 2763 
L 211 2693 
L 211 2528 
C 467 2528 640 2528 646 2274 
L 646 1058 
C 646 633 646 361 813 183 
C 896 101 1056 -64 1517 -64 
C 2061 -64 2272 377 2323 506 
L 2330 506 
L 2330 -63 
L 3091 -63 
L 3091 128 
C 2714 128 2656 166 2656 473 
L 2656 2763 
L 1882 2693 
z
" transform="scale(0.015625)"/>
      </defs>
      <use xlink:href="#CMR17-54" transform="scale(0.996264)"/>
      <use xlink:href="#CMR17-6f" transform="translate(58.702625 0) scale(0.996264)"/>
      <use xlink:href="#CMR17-74" transform="translate(104.393102 0) scale(0.996264)"/>
      <use xlink:href="#CMR17-61" transform="translate(139.67387 0) scale(0.996264)"/>
      <use xlink:href="#CMR17-6c" transform="translate(185.364347 0) scale(0.996264)"/>
      <use xlink:href="#CMR17-43" transform="translate(240.311372 0) scale(0.996264)"/>
      <use xlink:href="#CMR17-6f" transform="translate(306.821253 0) scale(0.996264)"/>
      <use xlink:href="#CMR17-6e" transform="translate(352.51173 0) scale(0.996264)"/>
      <use xlink:href="#CMR17-74" transform="translate(400.804646 0) scale(0.996264)"/>
      <use xlink:href="#CMR17-72" transform="translate(436.085413 0) scale(0.996264)"/>
      <use xlink:href="#CMR17-69" transform="translate(471.366181 0) scale(0.996264)"/>
      <use xlink:href="#CMR17-62" transform="translate(496.23724 0) scale(0.996264)"/>
      <use xlink:href="#CMR17-75" transform="translate(547.132609 0) scale(0.996264)"/>
      <use xlink:href="#CMR17-74" transform="translate(598.027979 0) scale(0.996264)"/>
      <use xlink:href="#CMR17-69" transform="translate(633.308747 0) scale(0.996264)"/>
      <use xlink:href="#CMR17-6f" transform="translate(658.179805 0) scale(0.996264)"/>
      <use xlink:href="#CMR17-6e" transform="translate(703.870283 0) scale(0.996264)"/>
     </g>
    </g>
   </g>
   <g id="line2d_17">
    <path d="M 55.821911 253.9153 
L 82.300238 253.9153 
L 87.560833 241.195624 
L 87.560833 241.195624 
L 92.996781 241.195624 
L 92.996781 241.195624 
L 98.257376 253.9153 
L 103.693323 241.195624 
L 109.129271 241.195624 
L 109.129271 241.195624 
L 114.389866 226.989415 
L 114.389866 226.989415 
L 130.522357 226.989415 
L 130.522357 226.989415 
L 135.958304 214.486856 
L 135.958304 214.486856 
L 151.564735 214.486856 
L 151.564735 214.486856 
L 157.000683 200.901545 
L 157.000683 200.901545 
L 162.261278 188.269658 
L 162.261278 188.269658 
L 167.697226 188.269658 
L 167.697226 188.269658 
L 173.133174 188.615401 
L 173.133174 188.615401 
L 178.393769 162.60334 
L 178.393769 162.60334 
L 183.829717 162.755677 
L 183.829717 162.755677 
L 189.090311 121.428386 
L 189.090311 121.428386 
L 194.526259 121.428386 
L 194.526259 121.428386 
L 199.962207 108.801523 
L 199.962207 108.801523 
L 205.047449 96.1317 
L 205.047449 96.1317 
L 210.483396 83.54928 
L 210.483396 83.54928 
L 215.743991 70.957642 
L 215.743991 70.957642 
L 221.179939 54.754731 
L 221.179939 54.754731 
L 226.440534 66.886931 
L 226.440534 66.886931 
L 231.876482 54.602328 
L 231.876482 54.602328 
L 237.31243 30.433004 
L 237.31243 30.433004 
L 242.573024 43.331151 
L 242.573024 43.331151 
L 248.008972 39.229715 
L 248.008972 39.229715 
L 253.269567 51.861602 
L 253.269567 51.861602 
L 258.705515 99.198362 
L 258.705515 99.198362 
L 264.141463 86.390306 
L 264.141463 86.390306 
L 269.051351 86.387846 
L 269.051351 86.387846 
L 274.487299 98.161127 
L 274.487299 98.161127 
L 279.747894 98.98201 
L 279.747894 98.98201 
L 285.183842 73.115011 
L 285.183842 73.115011 
L 290.444436 85.699519 
L 290.444436 85.699519 
L 295.880384 61.984024 
L 295.880384 61.984024 
L 301.316332 100.686156 
L 301.316332 100.686156 
L 306.576927 67.116018 
L 306.576927 67.116018 
L 312.012875 92.41492 
L 312.012875 92.41492 
L 317.273469 106.238777 
L 317.273469 106.238777 
L 322.709417 119.672482 
L 322.709417 119.672482 
L 328.145365 119.56346 
L 328.145365 119.56346 
L 333.055254 93.626573 
L 333.055254 93.626573 
L 338.491202 171.378968 
L 338.491202 171.378968 
L 343.751796 154.45888 
L 343.751796 154.45888 
L 349.187744 126.076524 
L 349.187744 126.076524 
L 354.448339 126.076524 
L 354.448339 126.076524 
L 359.884287 152.634298 
L 359.884287 152.634298 
L 365.320235 130.269596 
L 365.320235 130.269596 
L 370.580829 155.170436 
L 370.580829 155.170436 
L 376.016777 155.170436 
L 376.016777 155.170436 
L 381.277372 167.958492 
L 381.277372 167.958492 
L 386.71332 157.744063 
L 386.71332 157.744063 
L 392.149268 170.463207 
L 392.149268 170.463207 
L 397.059156 183.460823 
L 397.059156 183.460823 
L 402.495104 161.007296 
L 402.495104 161.007296 
L 407.755699 147.410865 
L 407.755699 147.410865 
L 413.191647 148.288152 
L 413.191647 148.288152 
L 418.452241 174.461274 
L 418.452241 174.461274 
L 423.888189 169.363598 
L 423.888189 169.363598 
L 429.324137 165.260369 
L 429.324137 165.260369 
L 434.584732 152.904118 
L 434.584732 152.904118 
L 456.15317 152.904118 
L 456.15317 152.904118 
L 461.238412 139.188474 
L 461.238412 139.188474 
L 466.67436 139.188474 
L 466.67436 139.188474 
L 471.934955 127.714587 
L 471.934955 127.714587 
L 482.631497 127.714587 
L 482.631497 127.714587 
L 488.067445 142.133985 
L 488.067445 142.133985 
L 493.503393 142.133985 
L 493.503393 142.133985 
L 498.763988 168.744024 
L 498.763988 168.744024 
L 504.199936 177.299733 
L 504.199936 177.299733 
L 509.46053 203.571341 
L 509.46053 203.571341 
L 514.896478 217.517529 
L 514.896478 217.517529 
L 525.242314 217.517529 
L 525.242314 217.517529 
L 530.678262 204.304794 
L 530.678262 204.304794 
L 546.6354 204.304794 
L 546.6354 204.304794 
L 552.071348 238.299025 
L 552.071348 238.299025 
L 557.507295 226.825139 
L 557.507295 226.825139 
L 562.76789 226.825139 
L 562.76789 226.825139 
L 568.203838 238.299025 
L 568.203838 238.299025 
L 573.464433 248.146731 
L 573.464433 248.146731 
L 578.900381 235.558819 
L 578.900381 235.558819 
L 584.336329 219.556049 
L 584.336329 219.556049 
L 589.246217 206.352871 
L 589.246217 206.352871 
L 599.94276 206.352871 
L 599.94276 206.352871 
L 605.378707 219.556049 
L 605.378707 219.556049 
L 610.639302 211.512806 
L 610.639302 211.512806 
L 616.07525 220.068515 
L 616.07525 220.068515 
L 621.511198 232.656428 
L 621.511198 232.656428 
L 626.771793 232.656428 
L 626.771793 232.656428 
L 632.207741 245.869163 
L 632.207741 245.869163 
L 642.904283 245.869163 
L 642.904283 245.869163 
L 648.340231 232.656428 
L 648.340231 232.656428 
L 653.25012 245.869163 
L 663.946662 245.869163 
L 663.946662 245.869163 
L 669.38261 259.072342 
L 685.515101 259.072342 
L 685.515101 259.072342 
" clip-path="url(#p7dbf8bd1db)" style="fill: none; stroke: #006e64; stroke-width: 1.5; stroke-linecap: round"/>
   </g>
   <g id="line2d_18">
    <path d="M 55.821911 273.135665 
L 61.082506 273.597503 
L 66.518454 272.525139 
L 71.954402 272.575441 
L 76.86429 272.775021 
L 82.300238 273.323621 
L 87.560833 272.584543 
L 92.996781 271.594932 
L 92.996781 271.594932 
L 98.257376 275.428355 
L 103.693323 276.1552 
L 103.693323 276.1552 
L 109.129271 271.479491 
L 109.129271 271.479491 
L 114.389866 272.927459 
L 114.389866 272.927459 
L 119.825814 273.112002 
L 119.825814 273.112002 
L 125.086409 272.984921 
L 125.086409 272.984921 
L 130.522357 278.558572 
L 130.522357 278.558572 
L 135.958304 276.167482 
L 135.958304 276.167482 
L 140.868193 271.336279 
L 140.868193 271.336279 
L 146.304141 281.181109 
L 146.304141 281.181109 
L 151.564735 280.108616 
L 151.564735 280.108616 
L 157.000683 282.313699 
L 157.000683 282.313699 
L 162.261278 275.310683 
L 162.261278 275.310683 
L 167.697226 275.752237 
L 167.697226 275.752237 
L 173.133174 269.084371 
L 173.133174 269.084371 
L 178.393769 266.09449 
L 178.393769 266.09449 
L 183.829717 265.984334 
L 183.829717 265.984334 
L 189.090311 259.095497 
L 189.090311 259.095497 
L 194.526259 266.256565 
L 194.526259 266.256565 
L 199.962207 264.648745 
L 199.962207 264.648745 
L 205.047449 256.933675 
L 205.047449 256.933675 
L 210.483396 262.77143 
L 210.483396 262.77143 
L 215.743991 259.203455 
L 215.743991 259.203455 
L 221.179939 261.763399 
L 221.179939 261.763399 
L 226.440534 257.355186 
L 226.440534 257.355186 
L 231.876482 272.781674 
L 231.876482 272.781674 
L 237.31243 253.293077 
L 237.31243 253.293077 
L 242.573024 258.175892 
L 242.573024 258.175892 
L 248.008972 268.283138 
L 248.008972 268.283138 
L 253.269567 263.307502 
L 253.269567 263.307502 
L 264.141463 265.518255 
L 264.141463 265.518255 
L 269.051351 261.447238 
L 269.051351 261.447238 
L 274.487299 265.629182 
L 274.487299 265.629182 
L 279.747894 263.799743 
L 279.747894 263.799743 
L 285.183842 260.577689 
L 285.183842 260.577689 
L 290.444436 257.613775 
L 290.444436 257.613775 
L 295.880384 270.329405 
L 295.880384 270.329405 
L 301.316332 262.059133 
L 301.316332 262.059133 
L 306.576927 263.149825 
L 306.576927 263.149825 
L 312.012875 261.551367 
L 312.012875 261.551367 
L 317.273469 261.996652 
L 317.273469 261.996652 
L 322.709417 271.22987 
L 322.709417 271.22987 
L 328.145365 263.610393 
L 328.145365 263.610393 
L 333.055254 275.191251 
L 333.055254 275.191251 
L 338.491202 259.376111 
L 338.491202 259.376111 
L 343.751796 264.238576 
L 343.751796 264.238576 
L 349.187744 268.670205 
L 349.187744 268.670205 
L 354.448339 260.483738 
L 354.448339 260.483738 
L 359.884287 265.792099 
L 359.884287 265.792099 
L 365.320235 267.83434 
L 365.320235 267.83434 
L 370.580829 272.581429 
L 370.580829 272.581429 
L 376.016777 269.817255 
L 376.016777 269.817255 
L 381.277372 267.982889 
L 381.277372 267.982889 
L 386.71332 261.634658 
L 386.71332 261.634658 
L 392.149268 266.157172 
L 392.149268 266.157172 
L 397.059156 261.592772 
L 397.059156 261.592772 
L 402.495104 258.776583 
L 402.495104 258.776583 
L 407.755699 265.971148 
L 407.755699 265.971148 
L 413.191647 263.09496 
L 413.191647 263.09496 
L 418.452241 268.727907 
L 418.452241 268.727907 
L 423.888189 268.920192 
L 423.888189 268.920192 
L 429.324137 264.62599 
L 429.324137 264.62599 
L 434.584732 265.927153 
L 434.584732 265.927153 
L 440.02068 264.818393 
L 440.02068 264.818393 
L 445.281275 263.475566 
L 445.281275 263.475566 
L 450.717222 264.489572 
L 450.717222 264.489572 
L 461.238412 266.839589 
L 461.238412 266.839589 
L 466.67436 293.044695 
L 466.67436 293.044695 
L 471.934955 292.228067 
L 471.934955 292.228067 
L 477.370902 282.379829 
L 477.370902 282.379829 
L 482.631497 280.992188 
L 482.631497 280.992188 
L 488.067445 273.791834 
L 488.067445 273.791834 
L 493.503393 271.162865 
L 493.503393 271.162865 
L 498.763988 269.114436 
L 498.763988 269.114436 
L 509.46053 274.444715 
L 509.46053 274.444715 
L 514.896478 269.768991 
L 514.896478 269.768991 
L 520.332426 270.162833 
L 520.332426 270.162833 
L 525.242314 271.566863 
L 525.242314 271.566863 
L 530.678262 269.50516 
L 530.678262 269.50516 
L 535.938857 272.643701 
L 535.938857 272.643701 
L 541.374805 270.60091 
L 541.374805 270.60091 
L 546.6354 270.740297 
L 546.6354 270.740297 
L 552.071348 272.439397 
L 552.071348 272.439397 
L 557.507295 271.032461 
L 557.507295 271.032461 
L 562.76789 269.396469 
L 562.76789 269.396469 
L 568.203838 273.900665 
L 568.203838 273.900665 
L 573.464433 274.449434 
L 573.464433 274.449434 
L 578.900381 276.121092 
L 578.900381 276.121092 
L 584.336329 263.586645 
L 584.336329 263.586645 
L 589.246217 274.374988 
L 589.246217 274.374988 
L 594.682165 274.89127 
L 594.682165 274.89127 
L 599.94276 272.128384 
L 599.94276 272.128384 
L 605.378707 273.54897 
L 605.378707 273.54897 
L 610.639302 277.004902 
L 610.639302 277.004902 
L 616.07525 272.209453 
L 616.07525 272.209453 
L 621.511198 275.869434 
L 621.511198 275.869434 
L 626.771793 276.902121 
L 626.771793 276.902121 
L 632.207741 278.952773 
L 632.207741 278.952773 
L 637.468335 275.354322 
L 637.468335 275.354322 
L 642.904283 273.59631 
L 642.904283 273.59631 
L 648.340231 274.223753 
L 648.340231 274.223753 
L 653.25012 275.301173 
L 653.25012 275.301173 
L 658.686067 273.889397 
L 658.686067 273.889397 
L 663.946662 274.804631 
L 663.946662 274.804631 
L 669.38261 275.513458 
L 674.643205 274.322204 
L 680.079153 276.507707 
L 685.515101 274.576923 
L 685.515101 274.576923 
" clip-path="url(#p7dbf8bd1db)" style="fill: none; stroke: #c17150; stroke-width: 1.5; stroke-linecap: round"/>
   </g>
   <g id="line2d_19">
    <path d="M 55.821911 271.58902 
L 82.300238 271.58902 
L 87.560833 268.10293 
L 87.560833 268.10293 
L 92.996781 268.10293 
L 92.996781 268.10293 
L 98.257376 271.58902 
L 103.693323 268.10293 
L 103.693323 268.10293 
L 109.129271 268.10293 
L 109.129271 268.10293 
L 114.389866 264.616839 
L 114.389866 264.616839 
L 130.522357 264.616839 
L 130.522357 264.616839 
L 135.958304 261.130748 
L 135.958304 261.130748 
L 151.564735 261.130748 
L 151.564735 261.130748 
L 162.261278 254.158566 
L 162.261278 254.158566 
L 173.133174 254.158566 
L 173.133174 254.158566 
L 178.393769 247.186384 
L 178.393769 247.186384 
L 183.829717 247.186384 
L 183.829717 247.186384 
L 189.090311 236.728112 
L 189.090311 236.728112 
L 194.526259 236.728112 
L 194.526259 236.728112 
L 199.962207 227.608385 
L 199.962207 227.608385 
L 205.047449 224.089816 
L 205.047449 224.089816 
L 210.483396 217.63735 
L 210.483396 217.63735 
L 215.743991 212.817719 
L 215.743991 212.817719 
L 221.179939 210.554125 
L 221.179939 210.554125 
L 226.440534 214.339808 
L 226.440534 214.339808 
L 231.876482 210.615708 
L 231.876482 210.615708 
L 237.31243 204.763501 
L 237.31243 204.763501 
L 242.573024 208.536899 
L 242.573024 208.536899 
L 248.008972 208.524673 
L 248.008972 208.524673 
L 253.269567 212.066443 
L 253.269567 212.066443 
L 258.705515 228.121814 
L 258.705515 228.121814 
L 264.141463 223.745763 
L 264.141463 223.745763 
L 269.051351 223.747039 
L 269.051351 223.747039 
L 274.487299 226.903336 
L 274.487299 226.903336 
L 279.747894 227.05693 
L 279.747894 227.05693 
L 285.183842 220.123037 
L 285.183842 220.123037 
L 290.444436 223.614023 
L 290.444436 223.614023 
L 295.880384 216.492199 
L 295.880384 216.492199 
L 301.316332 225.764495 
L 301.316332 225.764495 
L 306.576927 215.444512 
L 306.576927 215.444512 
L 312.012875 222.634276 
L 312.012875 222.634276 
L 317.273469 225.845863 
L 317.273469 225.845863 
L 322.709417 229.338923 
L 322.709417 229.338923 
L 328.145365 227.955768 
L 328.145365 227.955768 
L 333.055254 218.494048 
L 333.055254 218.494048 
L 338.491202 242.931542 
L 338.491202 242.931542 
L 343.751796 237.090985 
L 343.751796 237.090985 
L 349.187744 221.924958 
L 349.187744 221.924958 
L 354.448339 222.785278 
L 354.448339 222.785278 
L 359.884287 226.186985 
L 359.884287 226.186985 
L 365.320235 229.926238 
L 365.320235 229.926238 
L 370.580829 225.793455 
L 370.580829 225.793455 
L 376.016777 227.064572 
L 376.016777 227.064572 
L 381.277372 220.332119 
L 381.277372 220.332119 
L 386.71332 231.687756 
L 386.71332 231.687756 
L 392.149268 225.463042 
L 392.149268 225.463042 
L 397.059156 229.277679 
L 397.059156 229.277679 
L 402.495104 222.157085 
L 402.495104 222.157085 
L 407.755699 216.076174 
L 407.755699 216.076174 
L 413.191647 217.923755 
L 413.191647 217.923755 
L 418.452241 241.690443 
L 418.452241 241.690443 
L 423.888189 244.331098 
L 423.888189 244.331098 
L 429.324137 237.364211 
L 429.324137 237.364211 
L 434.584732 233.23849 
L 434.584732 233.23849 
L 440.02068 232.87349 
L 440.02068 232.87349 
L 445.281275 234.13461 
L 445.281275 234.13461 
L 450.717222 234.13461 
L 450.717222 234.13461 
L 461.238412 226.791398 
L 461.238412 226.791398 
L 466.67436 227.1562 
L 466.67436 227.1562 
L 471.934955 223.590126 
L 471.934955 223.590126 
L 477.370902 223.692231 
L 477.370902 223.692231 
L 482.631497 223.145442 
L 482.631497 223.145442 
L 488.067445 226.884697 
L 488.067445 226.884697 
L 493.503393 232.912687 
L 493.503393 232.912687 
L 498.763988 240.516589 
L 498.763988 240.516589 
L 504.199936 240.945613 
L 504.199936 240.945613 
L 509.46053 250.249273 
L 509.46053 250.249273 
L 514.896478 253.735364 
L 514.896478 253.735364 
L 520.332426 253.735364 
L 520.332426 253.735364 
L 525.242314 254.613584 
L 525.242314 254.613584 
L 535.938857 256.731317 
L 535.938857 256.731317 
L 541.374805 255.792323 
L 541.374805 255.792323 
L 546.6354 255.792323 
L 546.6354 255.792323 
L 552.071348 263.678416 
L 552.071348 263.678416 
L 557.507295 259.989746 
L 557.507295 259.989746 
L 562.76789 259.989746 
L 562.76789 259.989746 
L 568.203838 263.556188 
L 568.203838 263.556188 
L 573.464433 264.769664 
L 573.464433 264.769664 
L 578.900381 262.08807 
L 578.900381 262.08807 
L 584.336329 258.633887 
L 584.336329 258.633887 
L 589.246217 255.147796 
L 589.246217 255.147796 
L 594.682165 254.817733 
L 594.682165 254.817733 
L 599.94276 251.879704 
L 599.94276 251.879704 
L 605.378707 257.106199 
L 605.378707 257.106199 
L 610.639302 257.122584 
L 610.639302 257.122584 
L 616.07525 257.567279 
L 616.07525 257.567279 
L 621.511198 261.099199 
L 621.511198 261.099199 
L 626.771793 261.088233 
L 626.771793 261.088233 
L 632.207741 266.355035 
L 637.468335 264.856883 
L 637.468335 264.856883 
L 642.904283 264.856883 
L 642.904283 264.856883 
L 648.340231 259.459924 
L 648.340231 259.459924 
L 653.25012 264.396662 
L 653.25012 264.396662 
L 658.686067 264.396662 
L 658.686067 264.396662 
L 663.946662 266.07689 
L 663.946662 266.07689 
L 669.38261 269.893044 
L 680.079153 269.925958 
L 685.515101 270.11866 
L 685.515101 270.11866 
" clip-path="url(#p7dbf8bd1db)" style="fill: none; stroke: #7cab53; stroke-width: 1.5; stroke-linecap: round"/>
   </g>
   <g id="patch_3">
    <path d="M 24.337252 306.17528 
L 24.337252 17.30242 
" style="fill: none; stroke: #808080; stroke-width: 0.8; stroke-linejoin: miter; stroke-linecap: square"/>
   </g>
   <g id="patch_4">
    <path d="M 24.337252 306.17528 
L 716.99976 306.17528 
" style="fill: none; stroke: #808080; stroke-width: 0.8; stroke-linejoin: miter; stroke-linecap: square"/>
   </g>
   <g id="text_19">
    <!-- Source: ELCON A/S -->
    <g style="fill: #808080" transform="translate(624.264008 351.996869) scale(0.1 -0.1)">
     <defs>
      <path id="CMR17-53" d="M 2803 4290 
C 2803 4404 2797 4411 2758 4411 
C 2720 4411 2707 4385 2682 4328 
L 2490 3907 
C 2246 4257 1875 4416 1472 4416 
C 819 4416 294 3901 294 3253 
C 294 3056 339 2776 557 2510 
C 794 2218 1018 2167 1530 2033 
C 1722 1982 2042 1899 2106 1874 
C 2470 1722 2662 1341 2662 985 
C 2662 527 2336 38 1779 38 
C 1094 38 454 419 410 1311 
C 403 1413 397 1419 352 1419 
C 301 1419 294 1413 294 1285 
L 294 -1 
C 294 -115 301 -122 339 -122 
C 384 -122 397 -90 486 108 
C 493 127 493 140 614 381 
C 934 -39 1472 -128 1779 -128 
C 2477 -128 2970 451 2970 1124 
C 2970 1454 2848 1708 2778 1823 
C 2509 2230 2221 2306 1914 2382 
C 1869 2402 1856 2402 1498 2490 
C 1152 2579 1005 2624 845 2796 
C 666 2992 602 3196 602 3399 
C 602 3812 934 4263 1478 4263 
C 2157 4263 2579 3786 2675 2993 
C 2694 2878 2701 2872 2746 2872 
C 2803 2872 2803 2891 2803 2999 
L 2803 4290 
z
" transform="scale(0.015625)"/>
      <path id="CMR17-63" d="M 2234 2240 
C 2112 2240 1933 2240 1933 2017 
C 1933 1838 2080 1787 2163 1787 
C 2208 1787 2394 1807 2394 2024 
C 2394 2467 1958 2803 1466 2803 
C 787 2803 211 2178 211 1363 
C 211 516 813 -64 1466 -64 
C 2259 -64 2458 677 2458 748 
C 2458 774 2451 793 2406 793 
C 2362 793 2355 787 2330 703 
C 2163 180 1798 51 1523 51 
C 1114 51 621 427 621 1369 
C 621 2338 1094 2688 1472 2688 
C 1722 2688 2093 2573 2234 2240 
z
" transform="scale(0.015625)"/>
      <path id="CMR17-3a" d="M 1062 2491 
C 1062 2650 934 2752 800 2752 
C 672 2752 538 2650 538 2491 
C 538 2332 666 2230 800 2230 
C 928 2230 1062 2332 1062 2491 
z
M 1062 261 
C 1062 420 934 522 800 522 
C 672 522 538 420 538 261 
C 538 102 666 0 800 0 
C 928 0 1062 102 1062 261 
z
" transform="scale(0.015625)"/>
      <path id="CMR17-45" d="M 3885 1615 
L 3770 1615 
C 3629 676 3546 166 2419 166 
L 1530 166 
C 1274 166 1261 197 1261 414 
L 1261 2176 
L 1862 2176 
C 2464 2176 2522 1960 2522 1430 
L 2637 1430 
L 2637 3081 
L 2522 3081 
C 2522 2557 2464 2342 1862 2342 
L 1261 2342 
L 1261 3913 
C 1261 4128 1274 4160 1530 4160 
L 2406 4160 
C 3398 4160 3514 3769 3603 2929 
L 3718 2929 
L 3565 4325 
L 326 4325 
L 326 4160 
C 768 4160 838 4160 838 3874 
L 838 451 
C 838 166 768 166 326 166 
L 326 0 
L 3654 0 
L 3885 1615 
z
" transform="scale(0.015625)"/>
      <path id="CMR17-4c" d="M 3469 1615 
L 3354 1615 
C 3302 983 3219 166 2125 166 
L 1530 166 
C 1274 166 1261 197 1261 414 
L 1261 3898 
C 1261 4129 1274 4192 1760 4192 
L 1901 4192 
L 1901 4352 
C 1638 4352 1331 4352 1069 4352 
C 870 4352 512 4352 326 4352 
L 326 4192 
C 768 4192 838 4192 838 3905 
L 838 452 
C 838 166 768 166 326 166 
L 326 0 
L 3315 0 
L 3469 1615 
z
" transform="scale(0.015625)"/>
      <path id="CMR17-4f" d="M 4307 2135 
C 4307 3437 3366 4416 2304 4416 
C 1216 4416 294 3424 294 2135 
C 294 845 1229 -128 2298 -128 
C 3392 -128 4307 864 4307 2135 
z
M 2304 -13 
C 1574 -13 781 711 781 2217 
C 781 3716 1651 4301 2298 4301 
C 2976 4301 3821 3698 3821 2217 
C 3821 686 3008 -13 2304 -13 
z
" transform="scale(0.015625)"/>
      <path id="CMR17-4e" d="M 1312 4250 
C 1267 4320 1261 4320 1139 4320 
L 326 4320 
L 326 4160 
L 448 4160 
C 704 4160 819 4129 838 4122 
L 838 610 
C 838 451 838 153 326 153 
L 326 -13 
C 474 0 742 0 902 0 
C 1062 0 1331 0 1478 -13 
L 1478 153 
C 966 153 966 451 966 610 
L 966 4033 
C 1011 3995 1011 3982 1056 3919 
L 3430 76 
C 3475 0 3494 0 3526 0 
C 3590 0 3590 19 3590 139 
L 3590 3705 
C 3590 3863 3590 4160 4102 4160 
L 4102 4326 
C 3955 4320 3686 4320 3526 4320 
C 3366 4320 3098 4320 2950 4326 
L 2950 4160 
C 3462 4160 3462 3862 3462 3703 
L 3462 763 
L 1312 4250 
z
" transform="scale(0.015625)"/>
      <path id="CMR17-41" d="M 2323 4378 
C 2291 4461 2278 4480 2214 4480 
C 2150 4480 2138 4461 2106 4378 
L 749 566 
C 627 223 371 153 147 153 
L 147 -13 
C 262 0 518 0 640 0 
C 800 0 1056 0 1210 -13 
L 1210 153 
C 909 153 864 361 864 439 
C 864 497 877 530 890 569 
L 1229 1536 
L 2906 1536 
L 3290 442 
C 3322 365 3322 352 3322 327 
C 3322 153 3046 153 2925 153 
L 2925 0 
C 3110 0 3443 0 3642 0 
C 3808 0 4128 0 4282 -13 
L 4282 153 
C 3942 153 3827 153 3744 387 
L 2323 4378 
z
M 2067 3893 
L 2848 1702 
L 1286 1702 
L 2067 3893 
z
" transform="scale(0.015625)"/>
      <path id="CMR17-2f" d="M 2605 4545 
C 2637 4627 2637 4640 2637 4653 
C 2637 4729 2579 4768 2528 4768 
C 2451 4768 2426 4717 2400 4640 
L 326 -1377 
C 294 -1460 294 -1473 294 -1486 
C 294 -1562 352 -1600 403 -1600 
C 480 -1600 506 -1549 531 -1473 
L 2605 4545 
z
" transform="scale(0.015625)"/>
     </defs>
     <use xlink:href="#CMR17-53" transform="scale(0.996264)"/>
     <use xlink:href="#CMR17-6f" transform="translate(50.89537 0) scale(0.996264)"/>
     <use xlink:href="#CMR17-75" transform="translate(96.585847 0) scale(0.996264)"/>
     <use xlink:href="#CMR17-72" transform="translate(147.481217 0) scale(0.996264)"/>
     <use xlink:href="#CMR17-63" transform="translate(182.761984 0) scale(0.996264)"/>
     <use xlink:href="#CMR17-65" transform="translate(223.247645 0) scale(0.996264)"/>
     <use xlink:href="#CMR17-3a" transform="translate(263.733305 0) scale(0.996264)"/>
     <use xlink:href="#CMR17-45" transform="translate(329.090024 0) scale(0.996264)"/>
     <use xlink:href="#CMR17-4c" transform="translate(391.676325 0) scale(0.996264)"/>
     <use xlink:href="#CMR17-43" transform="translate(449.057733 0) scale(0.996264)"/>
     <use xlink:href="#CMR17-4f" transform="translate(515.567613 0) scale(0.996264)"/>
     <use xlink:href="#CMR17-4e" transform="translate(587.282402 0) scale(0.996264)"/>
     <use xlink:href="#CMR17-41" transform="translate(686.430798 0) scale(0.996264)"/>
     <use xlink:href="#CMR17-2f" transform="translate(755.503228 0) scale(0.996264)"/>
     <use xlink:href="#CMR17-53" transform="translate(801.193705 0) scale(0.996264)"/>
    </g>
   </g>
   <g id="text_20">
    <!-- Actual vs. Predicted Contribution -->
    <g style="fill: #262626" transform="translate(282.60037 11.30242) scale(0.12 -0.12)">
     <defs>
      <path id="CMR17-76" d="M 2502 2163 
C 2560 2304 2662 2560 3034 2560 
L 3034 2726 
C 2912 2726 2752 2726 2630 2726 
C 2496 2726 2285 2726 2157 2732 
L 2157 2566 
C 2317 2553 2406 2477 2406 2311 
C 2406 2253 2406 2240 2368 2151 
L 1664 377 
L 902 2286 
C 864 2369 864 2381 864 2407 
C 864 2560 1075 2560 1171 2560 
L 1171 2732 
C 1018 2726 736 2726 576 2726 
C 403 2726 205 2726 64 2732 
L 64 2560 
C 307 2560 442 2560 518 2362 
L 1446 44 
C 1485 -51 1491 -64 1549 -64 
C 1606 -64 1613 -51 1651 44 
L 2502 2163 
z
" transform="scale(0.015625)"/>
      <path id="CMR17-73" d="M 1978 2697 
C 1978 2813 1971 2819 1933 2819 
C 1907 2819 1901 2813 1824 2717 
C 1805 2691 1747 2626 1728 2601 
C 1523 2819 1235 2819 1126 2819 
C 416 2819 160 2447 160 2076 
C 160 1498 813 1365 998 1325 
C 1402 1243 1542 1217 1677 1101 
C 1760 1025 1901 884 1901 654 
C 1901 384 1747 38 1158 38 
C 602 38 403 460 288 1021 
C 269 1110 269 1117 218 1117 
C 166 1117 160 1110 160 983 
L 160 63 
C 160 -51 166 -58 205 -58 
C 237 -58 243 -51 275 0 
C 314 57 410 211 448 276 
C 576 103 800 -64 1158 -64 
C 1792 -64 2131 283 2131 784 
C 2131 1112 1958 1285 1875 1362 
C 1683 1561 1459 1606 1190 1657 
C 838 1735 390 1825 390 2217 
C 390 2383 480 2737 1126 2737 
C 1811 2737 1850 2094 1862 1888 
C 1869 1856 1901 1849 1920 1849 
C 1978 1849 1978 1869 1978 1978 
L 1978 2697 
z
" transform="scale(0.015625)"/>
      <path id="CMR17-2e" d="M 1062 261 
C 1062 420 934 522 800 522 
C 672 522 538 420 538 261 
C 538 102 666 0 800 0 
C 928 0 1062 102 1062 261 
z
" transform="scale(0.015625)"/>
      <path id="CMR17-50" d="M 1267 2042 
L 2291 2042 
C 3117 2042 3718 2578 3718 3184 
C 3718 3791 3130 4352 2291 4352 
L 333 4352 
L 333 4186 
C 774 4186 845 4186 845 3899 
L 845 446 
C 845 160 774 160 333 160 
L 333 0 
C 518 0 858 0 1056 0 
C 1254 0 1594 0 1779 0 
L 1779 160 
C 1338 160 1267 160 1267 446 
L 1267 2042 
z
M 1254 2176 
L 1254 3938 
C 1254 4155 1267 4186 1523 4186 
L 2170 4186 
C 2995 4186 3232 3714 3232 3184 
C 3232 2604 2950 2176 2170 2176 
L 1254 2176 
z
" transform="scale(0.015625)"/>
      <path id="CMR17-64" d="M 1869 4326 
L 1869 4160 
C 2246 4160 2304 4122 2304 3820 
L 2304 2345 
C 2278 2377 2016 2790 1498 2790 
C 845 2790 211 2208 211 1364 
C 211 525 806 -64 1434 -64 
C 1978 -64 2259 337 2291 380 
L 2291 -63 
L 3066 -63 
L 3066 128 
C 2688 128 2630 166 2630 473 
L 2630 4396 
L 1869 4326 
z
M 2291 755 
C 2291 563 2176 390 2029 262 
C 1811 70 1594 38 1472 38 
C 1286 38 621 134 621 1356 
C 621 2612 1363 2688 1530 2688 
C 1824 2688 2061 2522 2208 2291 
C 2291 2157 2291 2138 2291 2023 
L 2291 755 
z
" transform="scale(0.015625)"/>
     </defs>
     <use xlink:href="#CMR17-41" transform="scale(0.996264)"/>
     <use xlink:href="#CMR17-63" transform="translate(69.07243 0) scale(0.996264)"/>
     <use xlink:href="#CMR17-74" transform="translate(109.55809 0) scale(0.996264)"/>
     <use xlink:href="#CMR17-75" transform="translate(144.838858 0) scale(0.996264)"/>
     <use xlink:href="#CMR17-61" transform="translate(195.734228 0) scale(0.996264)"/>
     <use xlink:href="#CMR17-6c" transform="translate(241.424705 0) scale(0.996264)"/>
     <use xlink:href="#CMR17-76" transform="translate(296.37173 0) scale(0.996264)"/>
     <use xlink:href="#CMR17-73" transform="translate(344.664646 0) scale(0.996264)"/>
     <use xlink:href="#CMR17-2e" transform="translate(380.465983 0) scale(0.996264)"/>
     <use xlink:href="#CMR17-50" transform="translate(445.822702 0) scale(0.996264)"/>
     <use xlink:href="#CMR17-72" transform="translate(508.409003 0) scale(0.996264)"/>
     <use xlink:href="#CMR17-65" transform="translate(543.689771 0) scale(0.996264)"/>
     <use xlink:href="#CMR17-64" transform="translate(584.175431 0) scale(0.996264)"/>
     <use xlink:href="#CMR17-69" transform="translate(635.070801 0) scale(0.996264)"/>
     <use xlink:href="#CMR17-63" transform="translate(659.941859 0) scale(0.996264)"/>
     <use xlink:href="#CMR17-74" transform="translate(700.42752 0) scale(0.996264)"/>
     <use xlink:href="#CMR17-65" transform="translate(735.708288 0) scale(0.996264)"/>
     <use xlink:href="#CMR17-64" transform="translate(776.193948 0) scale(0.996264)"/>
     <use xlink:href="#CMR17-43" transform="translate(857.165284 0) scale(0.996264)"/>
     <use xlink:href="#CMR17-6f" transform="translate(923.675165 0) scale(0.996264)"/>
     <use xlink:href="#CMR17-6e" transform="translate(969.365642 0) scale(0.996264)"/>
     <use xlink:href="#CMR17-74" transform="translate(1017.658558 0) scale(0.996264)"/>
     <use xlink:href="#CMR17-72" transform="translate(1052.939325 0) scale(0.996264)"/>
     <use xlink:href="#CMR17-69" transform="translate(1088.220093 0) scale(0.996264)"/>
     <use xlink:href="#CMR17-62" transform="translate(1113.091152 0) scale(0.996264)"/>
     <use xlink:href="#CMR17-75" transform="translate(1163.986521 0) scale(0.996264)"/>
     <use xlink:href="#CMR17-74" transform="translate(1214.881891 0) scale(0.996264)"/>
     <use xlink:href="#CMR17-69" transform="translate(1250.162659 0) scale(0.996264)"/>
     <use xlink:href="#CMR17-6f" transform="translate(1275.033718 0) scale(0.996264)"/>
     <use xlink:href="#CMR17-6e" transform="translate(1320.724195 0) scale(0.996264)"/>
    </g>
   </g>
   <g id="legend_1">
    <g id="patch_5">
     <path d="M 255.596028 356.999744 
L 485.740984 356.999744 
Q 487.740984 356.999744 487.740984 354.999744 
L 487.740984 342.062566 
Q 487.740984 340.062566 485.740984 340.062566 
L 255.596028 340.062566 
Q 253.596028 340.062566 253.596028 342.062566 
L 253.596028 354.999744 
Q 253.596028 356.999744 255.596028 356.999744 
z
" style="fill: #ffffff; opacity: 0.8"/>
    </g>
    <g id="line2d_20">
     <path d="M 257.596028 347.562566 
L 267.596028 347.562566 
L 277.596028 347.562566 
" style="fill: none; stroke: #006e64; stroke-width: 1.5; stroke-linecap: round"/>
    </g>
    <g id="text_21">
     <!-- Actual -->
     <g style="fill: #262626" transform="translate(285.596028 351.062566) scale(0.1 -0.1)">
      <use xlink:href="#CMR17-41" transform="scale(0.996264)"/>
      <use xlink:href="#CMR17-63" transform="translate(69.07243 0) scale(0.996264)"/>
      <use xlink:href="#CMR17-74" transform="translate(109.55809 0) scale(0.996264)"/>
      <use xlink:href="#CMR17-75" transform="translate(144.838858 0) scale(0.996264)"/>
      <use xlink:href="#CMR17-61" transform="translate(195.734228 0) scale(0.996264)"/>
      <use xlink:href="#CMR17-6c" transform="translate(241.424705 0) scale(0.996264)"/>
     </g>
    </g>
    <g id="line2d_21">
     <path d="M 334.653794 347.562566 
L 344.653794 347.562566 
L 354.653794 347.562566 
" style="fill: none; stroke: #c17150; stroke-width: 1.5; stroke-linecap: round"/>
    </g>
    <g id="text_22">
     <!-- Predicted -->
     <g style="fill: #262626" transform="translate(362.653794 351.062566) scale(0.1 -0.1)">
      <use xlink:href="#CMR17-50" transform="scale(0.996264)"/>
      <use xlink:href="#CMR17-72" transform="translate(62.586301 0) scale(0.996264)"/>
      <use xlink:href="#CMR17-65" transform="translate(97.867068 0) scale(0.996264)"/>
      <use xlink:href="#CMR17-64" transform="translate(138.352729 0) scale(0.996264)"/>
      <use xlink:href="#CMR17-69" transform="translate(189.248099 0) scale(0.996264)"/>
      <use xlink:href="#CMR17-63" transform="translate(214.119157 0) scale(0.996264)"/>
      <use xlink:href="#CMR17-74" transform="translate(254.604818 0) scale(0.996264)"/>
      <use xlink:href="#CMR17-65" transform="translate(289.885585 0) scale(0.996264)"/>
      <use xlink:href="#CMR17-64" transform="translate(330.371246 0) scale(0.996264)"/>
     </g>
    </g>
    <g id="line2d_22">
     <path d="M 424.330909 347.562566 
L 434.330909 347.562566 
L 444.330909 347.562566 
" style="fill: none; stroke: #7cab53; stroke-width: 1.5; stroke-linecap: round"/>
    </g>
    <g id="text_23">
     <!-- Budget -->
     <g style="fill: #262626" transform="translate(452.330909 351.062566) scale(0.1 -0.1)">
      <defs>
       <path id="CMR17-42" d="M 333 4352 
L 333 4186 
C 774 4186 845 4186 845 3900 
L 845 452 
C 845 166 774 166 333 166 
L 333 0 
L 2534 0 
C 3354 0 3885 583 3885 1164 
C 3885 1741 3360 2233 2675 2233 
C 3290 2356 3718 2771 3718 3264 
C 3718 3802 3194 4352 2368 4352 
L 333 4352 
z
M 1248 2304 
L 1248 3937 
C 1248 4155 1261 4186 1517 4186 
L 2336 4186 
C 2970 4186 3251 3674 3251 3277 
C 3251 2791 2861 2304 2170 2304 
L 1248 2304 
z
M 1517 166 
C 1261 166 1248 197 1248 413 
L 1248 2202 
L 2432 2202 
C 3091 2202 3411 1625 3411 1162 
C 3411 699 3046 166 2349 166 
L 1517 166 
z
" transform="scale(0.015625)"/>
       <path id="CMR17-67" d="M 710 1164 
C 832 1068 1043 960 1299 960 
C 1805 960 2240 1357 2240 1888 
C 2240 2054 2189 2310 1997 2509 
C 2176 2692 2438 2752 2586 2752 
C 2611 2752 2650 2752 2682 2734 
C 2656 2728 2598 2703 2598 2605 
C 2598 2527 2656 2471 2739 2471 
C 2835 2471 2886 2533 2886 2614 
C 2886 2731 2790 2854 2586 2854 
C 2330 2854 2106 2738 1926 2580 
C 1734 2753 1504 2816 1299 2816 
C 794 2816 358 2419 358 1888 
C 358 1522 570 1292 634 1228 
C 442 1004 442 743 442 711 
C 442 545 506 302 723 168 
C 390 85 128 -169 128 -486 
C 128 -943 736 -1280 1466 -1280 
C 2170 -1280 2803 -956 2803 -479 
C 2803 384 1856 384 1363 384 
C 1216 384 954 384 922 391 
C 723 423 589 602 589 826 
C 589 883 589 1024 710 1164 
z
M 1299 1068 
C 736 1068 736 1760 736 1889 
C 736 2016 736 2708 1299 2708 
C 1862 2708 1862 2016 1862 1889 
C 1862 1760 1862 1068 1299 1068 
z
M 1466 -1171 
C 826 -1171 384 -835 384 -486 
C 384 -289 493 -105 634 -4 
C 794 104 858 104 1293 104 
C 1818 104 2547 104 2547 -486 
C 2547 -835 2106 -1171 1466 -1171 
z
" transform="scale(0.015625)"/>
      </defs>
      <use xlink:href="#CMR17-42" transform="scale(0.996264)"/>
      <use xlink:href="#CMR17-75" transform="translate(65.188754 0) scale(0.996264)"/>
      <use xlink:href="#CMR17-64" transform="translate(116.084124 0) scale(0.996264)"/>
      <use xlink:href="#CMR17-67" transform="translate(166.979494 0) scale(0.996264)"/>
      <use xlink:href="#CMR17-65" transform="translate(212.669971 0) scale(0.996264)"/>
      <use xlink:href="#CMR17-74" transform="translate(253.155632 0) scale(0.996264)"/>
     </g>
    </g>
   </g>
  </g>
 </g>
 <defs>
  <clipPath id="p7dbf8bd1db">
   <rect x="24.337252" y="17.30242" width="692.662508" height="288.87286"/>
  </clipPath>
 </defs>
</svg>
