<?xml version="1.0" encoding="utf-8" standalone="no"?>
<!DOCTYPE svg PUBLIC "-//W3C//DTD SVG 1.1//EN"
  "http://www.w3.org/Graphics/SVG/1.1/DTD/svg11.dtd">
<svg xmlns:xlink="http://www.w3.org/1999/xlink" width="1440pt" height="720pt" viewBox="0 0 1440 720" xmlns="http://www.w3.org/2000/svg" version="1.1">
 <metadata>
  <rdf:RDF xmlns:dc="http://purl.org/dc/elements/1.1/" xmlns:cc="http://creativecommons.org/ns#" xmlns:rdf="http://www.w3.org/1999/02/22-rdf-syntax-ns#">
   <cc:Work>
    <dc:type rdf:resource="http://purl.org/dc/dcmitype/StillImage"/>
    <dc:date>2023-11-20T18:56:42.615106</dc:date>
    <dc:format>image/svg+xml</dc:format>
    <dc:creator>
     <cc:Agent>
      <dc:title>Matplotlib v3.8.0, https://matplotlib.org/</dc:title>
     </cc:Agent>
    </dc:creator>
   </cc:Work>
  </rdf:RDF>
 </metadata>
 <defs>
  <style type="text/css">*{stroke-linejoin: round; stroke-linecap: butt}</style>
 </defs>
 <g id="figure_1">
  <g id="patch_1">
   <path d="M 0 720 
L 1440 720 
L 1440 0 
L 0 0 
z
" style="fill: #ffffff"/>
  </g>
  <g id="axes_1">
   <g id="patch_2">
    <path d="M 52.848453 612.426839 
L 1436.99976 612.426839 
L 1436.99976 25.604645 
L 52.848453 25.604645 
z
" style="fill: #ffffff"/>
   </g>
   <g id="matplotlib.axis_1">
    <g id="xtick_1">
     <g id="line2d_1">
      <path d="M 92.322413 612.426839 
L 92.322413 25.604645 
" clip-path="url(#p0dc625cd58)" style="fill: none; stroke: #cccccc; stroke-opacity: 0.5; stroke-width: 0.8; stroke-linecap: round"/>
     </g>
     <g id="text_1">
      <!-- $\mathdefault{2015}$ -->
      <g transform="translate(74.046222 629.763836) scale(0.2 -0.2)">
       <defs>
        <path id="CMR17-32" d="M 2669 989 
L 2554 989 
C 2490 536 2438 459 2413 420 
C 2381 369 1920 369 1830 369 
L 602 369 
C 832 619 1280 1072 1824 1597 
C 2214 1967 2669 2402 2669 3035 
C 2669 3790 2067 4224 1395 4224 
C 691 4224 262 3604 262 3030 
C 262 2780 448 2748 525 2748 
C 589 2748 781 2787 781 3010 
C 781 3207 614 3264 525 3264 
C 486 3264 448 3258 422 3245 
C 544 3790 915 4058 1306 4058 
C 1862 4058 2227 3617 2227 3035 
C 2227 2479 1901 2000 1536 1584 
L 262 146 
L 262 0 
L 2515 0 
L 2669 989 
z
" transform="scale(0.015625)"/>
        <path id="CMR17-30" d="M 2688 2025 
C 2688 2416 2682 3080 2413 3591 
C 2176 4039 1798 4198 1466 4198 
C 1158 4198 768 4058 525 3597 
C 269 3118 243 2524 243 2025 
C 243 1661 250 1106 448 619 
C 723 -39 1216 -128 1466 -128 
C 1760 -128 2208 -7 2470 600 
C 2662 1042 2688 1559 2688 2025 
z
M 1466 -26 
C 1056 -26 813 325 723 812 
C 653 1188 653 1738 653 2096 
C 653 2588 653 2997 736 3387 
C 858 3929 1216 4096 1466 4096 
C 1728 4096 2067 3923 2189 3400 
C 2272 3036 2278 2607 2278 2096 
C 2278 1680 2278 1169 2202 792 
C 2067 95 1690 -26 1466 -26 
z
" transform="scale(0.015625)"/>
        <path id="CMR17-31" d="M 1702 4058 
C 1702 4192 1696 4192 1606 4192 
C 1357 3916 979 3827 621 3827 
C 602 3827 570 3827 563 3808 
C 557 3795 557 3782 557 3648 
C 755 3648 1088 3686 1344 3839 
L 1344 461 
C 1344 236 1331 160 781 160 
L 589 160 
L 589 0 
C 896 0 1216 0 1523 0 
C 1830 0 2150 0 2458 0 
L 2458 160 
L 2266 160 
C 1715 160 1702 230 1702 458 
L 1702 4058 
z
" transform="scale(0.015625)"/>
        <path id="CMR17-35" d="M 730 3692 
C 794 3666 1056 3584 1325 3584 
C 1920 3584 2246 3911 2432 4100 
C 2432 4157 2432 4192 2394 4192 
C 2387 4192 2374 4192 2323 4163 
C 2099 4058 1837 3973 1517 3973 
C 1325 3973 1037 3999 723 4139 
C 653 4171 640 4171 634 4171 
C 602 4171 595 4164 595 4037 
L 595 2203 
C 595 2089 595 2057 659 2057 
C 691 2057 704 2070 736 2114 
C 941 2401 1222 2522 1542 2522 
C 1766 2522 2246 2382 2246 1289 
C 2246 1085 2246 715 2054 421 
C 1894 159 1645 25 1370 25 
C 947 25 518 320 403 814 
C 429 807 480 795 506 795 
C 589 795 749 840 749 1038 
C 749 1210 627 1280 506 1280 
C 358 1280 262 1190 262 1011 
C 262 454 704 -128 1382 -128 
C 2042 -128 2669 440 2669 1264 
C 2669 2030 2170 2624 1549 2624 
C 1222 2624 947 2503 730 2274 
L 730 3692 
z
" transform="scale(0.015625)"/>
       </defs>
       <use xlink:href="#CMR17-32" transform="scale(0.996264)"/>
       <use xlink:href="#CMR17-30" transform="translate(45.690477 0) scale(0.996264)"/>
       <use xlink:href="#CMR17-31" transform="translate(91.380954 0) scale(0.996264)"/>
       <use xlink:href="#CMR17-35" transform="translate(137.071431 0) scale(0.996264)"/>
      </g>
     </g>
    </g>
    <g id="xtick_2">
     <g id="line2d_2">
      <path d="M 237.345011 612.426839 
L 237.345011 25.604645 
" clip-path="url(#p0dc625cd58)" style="fill: none; stroke: #cccccc; stroke-opacity: 0.5; stroke-width: 0.8; stroke-linecap: round"/>
     </g>
     <g id="text_2">
      <!-- $\mathdefault{2016}$ -->
      <g transform="translate(219.06882 629.763836) scale(0.2 -0.2)">
       <defs>
        <path id="CMR17-36" d="M 678 2176 
C 678 3690 1395 4032 1811 4032 
C 1946 4032 2272 4009 2400 3776 
C 2298 3776 2106 3776 2106 3553 
C 2106 3381 2246 3323 2336 3323 
C 2394 3323 2566 3348 2566 3560 
C 2566 3954 2246 4179 1805 4179 
C 1043 4179 243 3390 243 1984 
C 243 253 966 -128 1478 -128 
C 2099 -128 2688 427 2688 1283 
C 2688 2081 2170 2662 1517 2662 
C 1126 2662 838 2407 678 1960 
L 678 2176 
z
M 1478 25 
C 691 25 691 1200 691 1436 
C 691 1896 909 2560 1504 2560 
C 1613 2560 1926 2560 2138 2120 
C 2253 1870 2253 1609 2253 1289 
C 2253 944 2253 690 2118 434 
C 1978 171 1773 25 1478 25 
z
" transform="scale(0.015625)"/>
       </defs>
       <use xlink:href="#CMR17-32" transform="scale(0.996264)"/>
       <use xlink:href="#CMR17-30" transform="translate(45.690477 0) scale(0.996264)"/>
       <use xlink:href="#CMR17-31" transform="translate(91.380954 0) scale(0.996264)"/>
       <use xlink:href="#CMR17-36" transform="translate(137.071431 0) scale(0.996264)"/>
      </g>
     </g>
    </g>
    <g id="xtick_3">
     <g id="line2d_3">
      <path d="M 382.764932 612.426839 
L 382.764932 25.604645 
" clip-path="url(#p0dc625cd58)" style="fill: none; stroke: #cccccc; stroke-opacity: 0.5; stroke-width: 0.8; stroke-linecap: round"/>
     </g>
     <g id="text_3">
      <!-- $\mathdefault{2017}$ -->
      <g transform="translate(364.488741 629.763836) scale(0.2 -0.2)">
       <defs>
        <path id="CMR17-37" d="M 2886 3941 
L 2886 4081 
L 1382 4081 
C 634 4081 621 4165 595 4288 
L 480 4288 
L 294 3094 
L 410 3094 
C 429 3215 474 3540 550 3661 
C 589 3712 1062 3712 1171 3712 
L 2579 3712 
L 1869 2661 
C 1395 1954 1069 999 1069 165 
C 1069 89 1069 -128 1299 -128 
C 1530 -128 1530 89 1530 171 
L 1530 465 
C 1530 1508 1709 2196 2003 2636 
L 2886 3941 
z
" transform="scale(0.015625)"/>
       </defs>
       <use xlink:href="#CMR17-32" transform="scale(0.996264)"/>
       <use xlink:href="#CMR17-30" transform="translate(45.690477 0) scale(0.996264)"/>
       <use xlink:href="#CMR17-31" transform="translate(91.380954 0) scale(0.996264)"/>
       <use xlink:href="#CMR17-37" transform="translate(137.071431 0) scale(0.996264)"/>
      </g>
     </g>
    </g>
    <g id="xtick_4">
     <g id="line2d_4">
      <path d="M 527.787531 612.426839 
L 527.787531 25.604645 
" clip-path="url(#p0dc625cd58)" style="fill: none; stroke: #cccccc; stroke-opacity: 0.5; stroke-width: 0.8; stroke-linecap: round"/>
     </g>
     <g id="text_4">
      <!-- $\mathdefault{2018}$ -->
      <g transform="translate(509.51134 629.763836) scale(0.2 -0.2)">
       <defs>
        <path id="CMR17-38" d="M 1741 2264 
C 2144 2467 2554 2773 2554 3263 
C 2554 3841 1990 4179 1472 4179 
C 890 4179 378 3759 378 3180 
C 378 3021 416 2747 666 2505 
C 730 2442 998 2251 1171 2130 
C 883 1983 211 1634 211 934 
C 211 279 838 -128 1459 -128 
C 2144 -128 2720 362 2720 1010 
C 2720 1590 2330 1857 2074 2029 
L 1741 2264 
z
M 902 2822 
C 851 2854 595 3051 595 3351 
C 595 3739 998 4032 1459 4032 
C 1965 4032 2336 3676 2336 3262 
C 2336 2669 1670 2331 1638 2331 
C 1632 2331 1626 2331 1574 2370 
L 902 2822 
z
M 2080 1519 
C 2176 1449 2483 1240 2483 851 
C 2483 381 2010 25 1472 25 
C 890 25 448 438 448 940 
C 448 1443 838 1862 1280 2060 
L 2080 1519 
z
" transform="scale(0.015625)"/>
       </defs>
       <use xlink:href="#CMR17-32" transform="scale(0.996264)"/>
       <use xlink:href="#CMR17-30" transform="translate(45.690477 0) scale(0.996264)"/>
       <use xlink:href="#CMR17-31" transform="translate(91.380954 0) scale(0.996264)"/>
       <use xlink:href="#CMR17-38" transform="translate(137.071431 0) scale(0.996264)"/>
      </g>
     </g>
    </g>
    <g id="xtick_5">
     <g id="line2d_5">
      <path d="M 672.810129 612.426839 
L 672.810129 25.604645 
" clip-path="url(#p0dc625cd58)" style="fill: none; stroke: #cccccc; stroke-opacity: 0.5; stroke-width: 0.8; stroke-linecap: round"/>
     </g>
     <g id="text_5">
      <!-- $\mathdefault{2019}$ -->
      <g transform="translate(654.533939 629.763836) scale(0.2 -0.2)">
       <defs>
        <path id="CMR17-39" d="M 2253 1864 
C 2253 464 1670 31 1190 31 
C 1043 31 685 31 538 294 
C 704 268 826 357 826 518 
C 826 692 685 749 595 749 
C 538 749 365 723 365 506 
C 365 71 742 -128 1203 -128 
C 1939 -128 2688 674 2688 2073 
C 2688 3817 1971 4179 1485 4179 
C 851 4179 243 3628 243 2778 
C 243 1991 762 1408 1414 1408 
C 1952 1408 2189 1903 2253 2112 
L 2253 1864 
z
M 1427 1510 
C 1254 1510 1011 1542 813 1922 
C 678 2169 678 2461 678 2771 
C 678 3146 678 3405 858 3684 
C 947 3817 1114 4032 1485 4032 
C 2240 4032 2240 2885 2240 2632 
C 2240 2182 2035 1510 1427 1510 
z
" transform="scale(0.015625)"/>
       </defs>
       <use xlink:href="#CMR17-32" transform="scale(0.996264)"/>
       <use xlink:href="#CMR17-30" transform="translate(45.690477 0) scale(0.996264)"/>
       <use xlink:href="#CMR17-31" transform="translate(91.380954 0) scale(0.996264)"/>
       <use xlink:href="#CMR17-39" transform="translate(137.071431 0) scale(0.996264)"/>
      </g>
     </g>
    </g>
    <g id="xtick_6">
     <g id="line2d_6">
      <path d="M 817.832728 612.426839 
L 817.832728 25.604645 
" clip-path="url(#p0dc625cd58)" style="fill: none; stroke: #cccccc; stroke-opacity: 0.5; stroke-width: 0.8; stroke-linecap: round"/>
     </g>
     <g id="text_6">
      <!-- $\mathdefault{2020}$ -->
      <g transform="translate(799.556537 629.763836) scale(0.2 -0.2)">
       <use xlink:href="#CMR17-32" transform="scale(0.996264)"/>
       <use xlink:href="#CMR17-30" transform="translate(45.690477 0) scale(0.996264)"/>
       <use xlink:href="#CMR17-32" transform="translate(91.380954 0) scale(0.996264)"/>
       <use xlink:href="#CMR17-30" transform="translate(137.071431 0) scale(0.996264)"/>
      </g>
     </g>
    </g>
    <g id="xtick_7">
     <g id="line2d_7">
      <path d="M 963.252649 612.426839 
L 963.252649 25.604645 
" clip-path="url(#p0dc625cd58)" style="fill: none; stroke: #cccccc; stroke-opacity: 0.5; stroke-width: 0.8; stroke-linecap: round"/>
     </g>
     <g id="text_7">
      <!-- $\mathdefault{2021}$ -->
      <g transform="translate(944.976458 629.763836) scale(0.2 -0.2)">
       <use xlink:href="#CMR17-32" transform="scale(0.996264)"/>
       <use xlink:href="#CMR17-30" transform="translate(45.690477 0) scale(0.996264)"/>
       <use xlink:href="#CMR17-32" transform="translate(91.380954 0) scale(0.996264)"/>
       <use xlink:href="#CMR17-31" transform="translate(137.071431 0) scale(0.996264)"/>
      </g>
     </g>
    </g>
    <g id="xtick_8">
     <g id="line2d_8">
      <path d="M 1108.275248 612.426839 
L 1108.275248 25.604645 
" clip-path="url(#p0dc625cd58)" style="fill: none; stroke: #cccccc; stroke-opacity: 0.5; stroke-width: 0.8; stroke-linecap: round"/>
     </g>
     <g id="text_8">
      <!-- $\mathdefault{2022}$ -->
      <g transform="translate(1089.999057 629.763836) scale(0.2 -0.2)">
       <use xlink:href="#CMR17-32" transform="scale(0.996264)"/>
       <use xlink:href="#CMR17-30" transform="translate(45.690477 0) scale(0.996264)"/>
       <use xlink:href="#CMR17-32" transform="translate(91.380954 0) scale(0.996264)"/>
       <use xlink:href="#CMR17-32" transform="translate(137.071431 0) scale(0.996264)"/>
      </g>
     </g>
    </g>
    <g id="xtick_9">
     <g id="line2d_9">
      <path d="M 1253.297846 612.426839 
L 1253.297846 25.604645 
" clip-path="url(#p0dc625cd58)" style="fill: none; stroke: #cccccc; stroke-opacity: 0.5; stroke-width: 0.8; stroke-linecap: round"/>
     </g>
     <g id="text_9">
      <!-- $\mathdefault{2023}$ -->
      <g transform="translate(1235.021655 629.763836) scale(0.2 -0.2)">
       <defs>
        <path id="CMR17-33" d="M 1414 2157 
C 1984 2157 2234 1662 2234 1090 
C 2234 320 1824 25 1453 25 
C 1114 25 563 194 390 693 
C 422 680 454 680 486 680 
C 640 680 755 782 755 948 
C 755 1133 614 1216 486 1216 
C 378 1216 211 1165 211 926 
C 211 335 787 -128 1466 -128 
C 2176 -128 2720 430 2720 1085 
C 2720 1707 2208 2157 1600 2227 
C 2086 2328 2554 2756 2554 3329 
C 2554 3820 2048 4179 1472 4179 
C 890 4179 378 3829 378 3329 
C 378 3110 544 3072 627 3072 
C 762 3072 877 3155 877 3321 
C 877 3486 762 3569 627 3569 
C 602 3569 570 3569 544 3557 
C 730 3959 1235 4032 1459 4032 
C 1683 4032 2106 3925 2106 3320 
C 2106 3143 2080 2828 1862 2550 
C 1670 2304 1453 2304 1242 2284 
C 1210 2284 1062 2269 1037 2269 
C 992 2263 966 2257 966 2208 
C 966 2163 973 2157 1101 2157 
L 1414 2157 
z
" transform="scale(0.015625)"/>
       </defs>
       <use xlink:href="#CMR17-32" transform="scale(0.996264)"/>
       <use xlink:href="#CMR17-30" transform="translate(45.690477 0) scale(0.996264)"/>
       <use xlink:href="#CMR17-32" transform="translate(91.380954 0) scale(0.996264)"/>
       <use xlink:href="#CMR17-33" transform="translate(137.071431 0) scale(0.996264)"/>
      </g>
     </g>
    </g>
    <g id="xtick_10">
     <g id="line2d_10">
      <path d="M 1398.320445 612.426839 
L 1398.320445 25.604645 
" clip-path="url(#p0dc625cd58)" style="fill: none; stroke: #cccccc; stroke-opacity: 0.5; stroke-width: 0.8; stroke-linecap: round"/>
     </g>
     <g id="text_10">
      <!-- $\mathdefault{2024}$ -->
      <g transform="translate(1380.044254 629.763836) scale(0.2 -0.2)">
       <defs>
        <path id="CMR17-34" d="M 2150 4122 
C 2150 4256 2144 4256 2029 4256 
L 128 1254 
L 128 1088 
L 1779 1088 
L 1779 457 
C 1779 224 1766 160 1318 160 
L 1197 160 
L 1197 0 
C 1402 0 1747 0 1965 0 
C 2182 0 2528 0 2733 0 
L 2733 160 
L 2611 160 
C 2163 160 2150 224 2150 457 
L 2150 1088 
L 2803 1088 
L 2803 1254 
L 2150 1254 
L 2150 4122 
z
M 1798 3703 
L 1798 1254 
L 256 1254 
L 1798 3703 
z
" transform="scale(0.015625)"/>
       </defs>
       <use xlink:href="#CMR17-32" transform="scale(0.996264)"/>
       <use xlink:href="#CMR17-30" transform="translate(45.690477 0) scale(0.996264)"/>
       <use xlink:href="#CMR17-32" transform="translate(91.380954 0) scale(0.996264)"/>
       <use xlink:href="#CMR17-34" transform="translate(137.071431 0) scale(0.996264)"/>
      </g>
     </g>
    </g>
    <g id="text_11">
     <!-- Date -->
     <g style="fill: #696969" transform="translate(725.73907 651.476466) scale(0.2 -0.2)">
      <defs>
       <path id="CMR17-44" d="M 333 4352 
L 333 4186 
C 774 4186 845 4186 845 3900 
L 845 452 
C 845 166 774 166 333 166 
L 333 0 
L 2368 0 
C 3398 0 4224 943 4224 2141 
C 4224 3346 3411 4352 2368 4352 
L 333 4352 
z
M 1523 166 
C 1267 166 1254 197 1254 414 
L 1254 3938 
C 1254 4155 1267 4186 1523 4186 
L 2240 4186 
C 2771 4186 3750 3874 3750 2141 
C 3750 1242 3488 879 3366 707 
C 3213 510 2848 166 2240 166 
L 1523 166 
z
" transform="scale(0.015625)"/>
       <path id="CMR17-61" d="M 2304 1653 
C 2304 2072 2304 2294 2035 2543 
C 1798 2752 1523 2816 1306 2816 
C 800 2816 435 2407 435 1971 
C 435 1728 627 1728 666 1728 
C 749 1728 896 1778 896 1954 
C 896 2112 774 2181 666 2181 
C 640 2181 608 2174 589 2168 
C 723 2592 1069 2714 1293 2714 
C 1613 2714 1965 2429 1965 1885 
L 1965 1600 
C 1587 1600 1133 1549 774 1357 
C 371 1133 256 813 256 570 
C 256 77 832 -64 1171 -64 
C 1523 -64 1850 139 1990 511 
C 2003 233 2182 -18 2464 -18 
C 2598 -18 2938 70 2938 567 
L 2938 920 
L 2822 920 
L 2822 562 
C 2822 178 2650 128 2566 128 
C 2304 128 2304 458 2304 738 
L 2304 1653 
z
M 1965 870 
C 1965 317 1568 38 1216 38 
C 896 38 646 275 646 570 
C 646 761 730 1100 1101 1305 
C 1408 1478 1760 1504 1965 1504 
L 1965 870 
z
" transform="scale(0.015625)"/>
       <path id="CMR17-74" d="M 966 2560 
L 1862 2560 
L 1862 2725 
L 966 2725 
L 966 3904 
L 851 3904 
C 838 3245 614 2668 70 2668 
L 70 2560 
L 627 2560 
L 627 771 
C 627 650 627 -64 1370 -64 
C 1747 -64 1965 306 1965 777 
L 1965 1140 
L 1850 1140 
L 1850 783 
C 1850 344 1677 51 1408 51 
C 1222 51 966 178 966 758 
L 966 2560 
z
" transform="scale(0.015625)"/>
       <path id="CMR17-65" d="M 2438 1472 
C 2464 1498 2464 1511 2464 1576 
C 2464 2238 2118 2816 1389 2816 
C 710 2816 173 2169 173 1383 
C 173 551 781 -64 1459 -64 
C 2176 -64 2458 607 2458 740 
C 2458 784 2419 784 2406 784 
C 2362 784 2355 771 2330 696 
C 2189 265 1837 51 1504 51 
C 1229 51 954 203 781 480 
C 582 803 582 1176 582 1472 
L 2438 1472 
z
M 589 1568 
C 634 2505 1126 2714 1382 2714 
C 1818 2714 2112 2297 2118 1568 
L 589 1568 
z
" transform="scale(0.015625)"/>
      </defs>
      <use xlink:href="#CMR17-44" transform="scale(0.996264)"/>
      <use xlink:href="#CMR17-61" transform="translate(70.393556 0) scale(0.996264)"/>
      <use xlink:href="#CMR17-74" transform="translate(116.084033 0) scale(0.996264)"/>
      <use xlink:href="#CMR17-65" transform="translate(151.364801 0) scale(0.996264)"/>
     </g>
    </g>
   </g>
   <g id="matplotlib.axis_2">
    <g id="ytick_1">
     <g id="line2d_11">
      <path d="M 52.848453 612.426839 
L 1436.99976 612.426839 
" clip-path="url(#p0dc625cd58)" style="fill: none; stroke: #cccccc; stroke-opacity: 0.5; stroke-width: 0.8; stroke-linecap: round"/>
     </g>
     <g id="text_12">
      <!-- $\mathdefault{−5}$ -->
      <g transform="translate(24.71287 619.345338) scale(0.2 -0.2)">
       <defs>
        <path id="CMSY10-0" d="M 4218 1472 
C 4326 1472 4442 1472 4442 1600 
C 4442 1728 4326 1728 4218 1728 
L 755 1728 
C 646 1728 531 1728 531 1600 
C 531 1472 646 1472 755 1472 
L 4218 1472 
z
" transform="scale(0.015625)"/>
       </defs>
       <use xlink:href="#CMSY10-0" transform="scale(0.996264)"/>
       <use xlink:href="#CMR17-35" transform="translate(77.487468 0) scale(0.996264)"/>
      </g>
     </g>
    </g>
    <g id="ytick_2">
     <g id="line2d_12">
      <path d="M 52.848453 495.0624 
L 1436.99976 495.0624 
" clip-path="url(#p0dc625cd58)" style="fill: none; stroke: #cccccc; stroke-opacity: 0.5; stroke-width: 0.8; stroke-linecap: round"/>
     </g>
     <g id="text_13">
      <!-- $\mathdefault{0}$ -->
      <g transform="translate(40.210358 501.980899) scale(0.2 -0.2)">
       <use xlink:href="#CMR17-30" transform="scale(0.996264)"/>
      </g>
     </g>
    </g>
    <g id="ytick_3">
     <g id="line2d_13">
      <path d="M 52.848453 377.697962 
L 1436.99976 377.697962 
" clip-path="url(#p0dc625cd58)" style="fill: none; stroke: #cccccc; stroke-opacity: 0.5; stroke-width: 0.8; stroke-linecap: round"/>
     </g>
     <g id="text_14">
      <!-- $\mathdefault{5}$ -->
      <g transform="translate(40.210358 384.61646) scale(0.2 -0.2)">
       <use xlink:href="#CMR17-35" transform="scale(0.996264)"/>
      </g>
     </g>
    </g>
    <g id="ytick_4">
     <g id="line2d_14">
      <path d="M 52.848453 260.333523 
L 1436.99976 260.333523 
" clip-path="url(#p0dc625cd58)" style="fill: none; stroke: #cccccc; stroke-opacity: 0.5; stroke-width: 0.8; stroke-linecap: round"/>
     </g>
     <g id="text_15">
      <!-- $\mathdefault{10}$ -->
      <g transform="translate(31.072262 267.252021) scale(0.2 -0.2)">
       <use xlink:href="#CMR17-31" transform="scale(0.996264)"/>
       <use xlink:href="#CMR17-30" transform="translate(45.690477 0) scale(0.996264)"/>
      </g>
     </g>
    </g>
    <g id="ytick_5">
     <g id="line2d_15">
      <path d="M 52.848453 142.969084 
L 1436.99976 142.969084 
" clip-path="url(#p0dc625cd58)" style="fill: none; stroke: #cccccc; stroke-opacity: 0.5; stroke-width: 0.8; stroke-linecap: round"/>
     </g>
     <g id="text_16">
      <!-- $\mathdefault{15}$ -->
      <g transform="translate(31.072262 149.887582) scale(0.2 -0.2)">
       <use xlink:href="#CMR17-31" transform="scale(0.996264)"/>
       <use xlink:href="#CMR17-35" transform="translate(45.690477 0) scale(0.996264)"/>
      </g>
     </g>
    </g>
    <g id="ytick_6">
     <g id="line2d_16">
      <path d="M 52.848453 25.604645 
L 1436.99976 25.604645 
" clip-path="url(#p0dc625cd58)" style="fill: none; stroke: #cccccc; stroke-opacity: 0.5; stroke-width: 0.8; stroke-linecap: round"/>
     </g>
     <g id="text_17">
      <!-- $\mathdefault{20}$ -->
      <g transform="translate(31.072262 32.523144) scale(0.2 -0.2)">
       <use xlink:href="#CMR17-32" transform="scale(0.996264)"/>
       <use xlink:href="#CMR17-30" transform="translate(45.690477 0) scale(0.996264)"/>
      </g>
     </g>
    </g>
    <g id="text_18">
     <!-- Total Contribution -->
     <g style="fill: #696969" transform="translate(16.837237 394.492272) rotate(-90) scale(0.2 -0.2)">
      <defs>
       <path id="CMR17-54" d="M 3981 4326 
L 288 4326 
L 179 2918 
L 294 2918 
C 378 3976 467 4160 1453 4160 
C 1568 4160 1754 4160 1805 4154 
C 1926 4135 1926 4058 1926 3912 
L 1926 459 
C 1926 230 1907 160 1376 160 
L 1197 160 
L 1197 0 
C 1504 0 1824 0 2138 0 
C 2451 0 2771 0 3078 0 
L 3078 160 
L 2899 160 
C 2368 160 2349 230 2349 459 
L 2349 3912 
C 2349 4052 2349 4129 2464 4154 
C 2515 4160 2701 4160 2816 4160 
C 3795 4160 3891 3976 3974 2918 
L 4090 2918 
L 3981 4326 
z
" transform="scale(0.015625)"/>
       <path id="CMR17-6f" d="M 2758 1356 
C 2758 2176 2163 2816 1466 2816 
C 768 2816 173 2176 173 1356 
C 173 551 768 -64 1466 -64 
C 2163 -64 2758 551 2758 1356 
z
M 1466 51 
C 1165 51 909 230 762 480 
C 602 767 582 1126 582 1408 
C 582 1677 595 2010 762 2298 
C 890 2509 1139 2714 1466 2714 
C 1754 2714 1997 2554 2150 2330 
C 2349 2029 2349 1607 2349 1408 
C 2349 1158 2336 775 2163 467 
C 1984 173 1709 51 1466 51 
z
" transform="scale(0.015625)"/>
       <path id="CMR17-6c" d="M 979 4396 
L 218 4326 
L 218 4160 
C 595 4160 653 4122 653 3817 
L 653 426 
C 653 184 627 153 218 153 
L 218 -13 
C 371 0 653 0 813 0 
C 979 0 1261 0 1414 -13 
L 1414 153 
C 1005 153 979 178 979 426 
L 979 4396 
z
" transform="scale(0.015625)"/>
       <path id="CMR17-43" d="M 3974 4289 
C 3974 4403 3968 4410 3930 4410 
C 3904 4410 3898 4403 3853 4327 
L 3571 3792 
C 3258 4187 2874 4416 2381 4416 
C 1286 4416 294 3456 294 2148 
C 294 826 1286 -128 2387 -128 
C 3366 -128 3974 730 3974 1461 
C 3974 1524 3974 1550 3917 1550 
C 3866 1550 3866 1531 3859 1474 
C 3808 585 3168 38 2477 38 
C 1824 38 781 495 781 2147 
C 781 3805 1843 4250 2464 4250 
C 3187 4250 3712 3628 3834 2745 
C 3846 2668 3846 2655 3904 2655 
C 3974 2655 3974 2668 3974 2783 
L 3974 4289 
z
" transform="scale(0.015625)"/>
       <path id="CMR17-6e" d="M 2656 1933 
C 2656 2259 2592 2790 1837 2790 
C 1331 2790 1069 2400 973 2144 
L 966 2144 
L 966 2790 
L 211 2720 
L 211 2554 
C 589 2554 646 2515 646 2208 
L 646 428 
C 646 184 621 153 211 153 
L 211 -13 
C 365 0 646 0 813 0 
C 979 0 1267 0 1421 -13 
L 1421 153 
C 1011 153 986 178 986 428 
L 986 1658 
C 986 2247 1344 2688 1792 2688 
C 2266 2688 2317 2266 2317 1958 
L 2317 428 
C 2317 184 2291 153 1882 153 
L 1882 -13 
C 2035 0 2317 0 2483 0 
C 2650 0 2938 0 3091 -13 
L 3091 153 
C 2682 153 2656 178 2656 428 
L 2656 1933 
z
" transform="scale(0.015625)"/>
       <path id="CMR17-72" d="M 960 1497 
C 960 2112 1222 2688 1702 2688 
C 1747 2688 1792 2682 1837 2662 
C 1837 2662 1696 2617 1696 2452 
C 1696 2298 1818 2234 1914 2234 
C 1990 2234 2131 2279 2131 2458 
C 2131 2663 1926 2790 1709 2790 
C 1222 2790 1011 2317 947 2093 
L 941 2093 
L 941 2790 
L 198 2720 
L 198 2554 
C 576 2554 634 2515 634 2208 
L 634 428 
C 634 184 608 153 198 153 
L 198 -13 
C 352 0 646 0 813 0 
C 998 0 1325 0 1498 -13 
L 1498 153 
C 1037 153 960 153 960 440 
L 960 1497 
z
" transform="scale(0.015625)"/>
       <path id="CMR17-69" d="M 992 3909 
C 992 4049 877 4170 730 4170 
C 589 4170 467 4056 467 3909 
C 467 3769 582 3648 730 3648 
C 870 3648 992 3763 992 3909 
z
M 243 2706 
L 243 2541 
C 602 2541 653 2502 653 2197 
L 653 427 
C 653 184 627 153 218 153 
L 218 -13 
C 371 0 646 0 806 0 
C 960 0 1222 0 1370 -13 
L 1370 153 
C 992 153 979 191 979 420 
L 979 2776 
L 243 2706 
z
" transform="scale(0.015625)"/>
       <path id="CMR17-62" d="M 960 4396 
L 198 4326 
L 198 4160 
C 576 4160 634 4122 634 3817 
L 634 -13 
L 749 -13 
L 934 441 
C 1120 141 1395 -64 1766 -64 
C 2406 -64 3053 500 3053 1370 
C 3053 2188 2477 2790 1830 2790 
C 1434 2790 1152 2579 960 2330 
L 960 4396 
z
M 973 2004 
C 973 2118 973 2138 1062 2272 
C 1312 2657 1670 2688 1792 2688 
C 1984 2688 2643 2585 2643 1376 
C 2643 108 1888 38 1734 38 
C 1536 38 1248 114 1043 486 
C 973 608 973 621 973 735 
L 973 2004 
z
" transform="scale(0.015625)"/>
       <path id="CMR17-75" d="M 1882 2693 
L 1882 2528 
C 2259 2528 2317 2489 2317 2186 
L 2317 1032 
C 2317 500 2029 38 1555 38 
C 1030 38 986 348 986 678 
L 986 2763 
L 211 2693 
L 211 2528 
C 467 2528 640 2528 646 2274 
L 646 1058 
C 646 633 646 361 813 183 
C 896 101 1056 -64 1517 -64 
C 2061 -64 2272 377 2323 506 
L 2330 506 
L 2330 -63 
L 3091 -63 
L 3091 128 
C 2714 128 2656 166 2656 473 
L 2656 2763 
L 1882 2693 
z
" transform="scale(0.015625)"/>
      </defs>
      <use xlink:href="#CMR17-54" transform="scale(0.996264)"/>
      <use xlink:href="#CMR17-6f" transform="translate(58.702625 0) scale(0.996264)"/>
      <use xlink:href="#CMR17-74" transform="translate(104.393102 0) scale(0.996264)"/>
      <use xlink:href="#CMR17-61" transform="translate(139.67387 0) scale(0.996264)"/>
      <use xlink:href="#CMR17-6c" transform="translate(185.364347 0) scale(0.996264)"/>
      <use xlink:href="#CMR17-43" transform="translate(240.311372 0) scale(0.996264)"/>
      <use xlink:href="#CMR17-6f" transform="translate(306.821253 0) scale(0.996264)"/>
      <use xlink:href="#CMR17-6e" transform="translate(352.51173 0) scale(0.996264)"/>
      <use xlink:href="#CMR17-74" transform="translate(400.804646 0) scale(0.996264)"/>
      <use xlink:href="#CMR17-72" transform="translate(436.085413 0) scale(0.996264)"/>
      <use xlink:href="#CMR17-69" transform="translate(471.366181 0) scale(0.996264)"/>
      <use xlink:href="#CMR17-62" transform="translate(496.23724 0) scale(0.996264)"/>
      <use xlink:href="#CMR17-75" transform="translate(547.132609 0) scale(0.996264)"/>
      <use xlink:href="#CMR17-74" transform="translate(598.027979 0) scale(0.996264)"/>
      <use xlink:href="#CMR17-69" transform="translate(633.308747 0) scale(0.996264)"/>
      <use xlink:href="#CMR17-6f" transform="translate(658.179805 0) scale(0.996264)"/>
      <use xlink:href="#CMR17-6e" transform="translate(703.870283 0) scale(0.996264)"/>
     </g>
    </g>
   </g>
   <g id="line2d_17">
    <path d="M 115.764422 484.699571 
L 140.001075 484.699571 
L 152.318063 464.184278 
L 152.318063 464.184278 
L 164.237729 474.259118 
L 164.237729 474.259118 
L 176.554717 463.85307 
L 176.554717 463.85307 
L 200.79137 463.85307 
L 200.79137 463.85307 
L 213.108358 464.218683 
L 213.108358 464.218683 
L 225.028023 442.02377 
L 225.028023 442.02377 
L 237.345011 432.003774 
L 237.345011 432.003774 
L 249.661999 432.003774 
L 249.661999 432.003774 
L 261.184343 421.864066 
L 261.184343 421.864066 
L 273.50133 442.379359 
L 273.50133 442.379359 
L 285.420996 421.864066 
L 285.420996 421.864066 
L 297.737984 431.938906 
L 297.737984 431.938906 
L 309.65765 431.599579 
L 309.65765 431.599579 
L 321.974637 442.379359 
L 321.974637 442.379359 
L 334.291625 421.159126 
L 334.291625 421.159126 
L 346.211291 398.897348 
L 346.211291 398.897348 
L 358.528279 374.803917 
L 358.528279 374.803917 
L 370.447944 394.983559 
L 370.447944 394.983559 
L 395.08192 395.572794 
L 395.08192 395.572794 
L 406.206941 395.58569 
L 406.206941 395.58569 
L 418.523929 394.902964 
L 418.523929 394.902964 
L 430.443595 374.826241 
L 430.443595 374.826241 
L 442.760583 382.688429 
L 442.760583 382.688429 
L 454.680248 392.79845 
L 454.680248 392.79845 
L 466.997236 384.510906 
L 466.997236 384.510906 
L 479.314224 413.533515 
L 479.314224 413.533515 
L 491.23389 376.860997 
L 491.23389 376.860997 
L 503.550877 376.080754 
L 503.550877 376.080754 
L 515.470543 387.835214 
L 515.470543 387.835214 
L 527.787531 377.77584 
L 527.787531 377.77584 
L 540.104519 388.102934 
L 540.104519 388.102934 
L 551.22954 388.102934 
L 551.22954 388.102934 
L 563.546528 408.549479 
L 563.546528 408.549479 
L 575.466193 398.542379 
L 575.466193 398.542379 
L 587.783181 377.002354 
L 587.783181 377.002354 
L 599.702847 377.002354 
L 599.702847 377.002354 
L 612.019835 397.225053 
L 612.019835 397.225053 
L 624.336823 409.695208 
L 624.336823 409.695208 
L 636.256488 397.156378 
L 636.256488 397.156378 
L 648.573476 376.74185 
L 648.573476 376.74185 
L 660.493142 407.552998 
L 660.493142 407.552998 
L 672.810129 395.770827 
L 672.810129 395.770827 
L 685.127117 397.575325 
L 685.127117 397.575325 
L 696.252139 408.309657 
L 696.252139 408.309657 
L 708.569126 408.48904 
L 708.569126 408.48904 
L 720.488792 397.575325 
L 720.488792 397.575325 
L 732.80578 398.325248 
L 732.80578 398.325248 
L 744.725446 418.622211 
L 744.725446 418.622211 
L 757.042433 424.501772 
L 757.042433 424.501772 
L 769.359421 407.254107 
L 769.359421 407.254107 
L 781.279087 397.087399 
L 781.279087 397.087399 
L 793.596075 397.098207 
L 793.596075 397.098207 
L 805.51574 408.422633 
L 805.51574 408.422633 
L 817.832728 387.272166 
L 817.832728 387.272166 
L 830.149716 398.503068 
L 830.149716 398.503068 
L 841.672059 386.717879 
L 841.672059 386.717879 
L 853.989047 386.709965 
L 853.989047 386.709965 
L 865.908713 407.08151 
L 865.908713 407.08151 
L 878.225701 408.580659 
L 878.225701 408.580659 
L 890.145366 408.444324 
L 890.145366 408.444324 
L 902.462354 411.223829 
L 902.462354 411.223829 
L 914.779342 400.827209 
L 914.779342 400.827209 
L 926.699008 400.360986 
L 926.699008 400.360986 
L 939.015996 401.469699 
L 939.015996 401.469699 
L 950.935661 392.797727 
L 950.935661 392.797727 
L 963.252649 423.596086 
L 963.252649 423.596086 
L 975.569637 436.008292 
L 975.569637 436.008292 
L 986.694658 425.952393 
L 986.694658 425.952393 
L 999.011646 383.104625 
L 999.011646 383.104625 
L 1010.931312 393.846871 
L 1010.931312 393.846871 
L 1023.248299 385.760107 
L 1023.248299 385.760107 
L 1035.167965 385.760107 
L 1035.167965 385.760107 
L 1047.484953 375.696016 
L 1047.484953 375.696016 
L 1059.801941 385.717694 
L 1059.801941 385.717694 
L 1071.721606 385.717694 
L 1071.721606 385.717694 
L 1084.038594 396.024491 
L 1084.038594 396.024491 
L 1095.95826 396.024491 
L 1095.95826 396.024491 
L 1108.275248 406.887334 
L 1108.275248 406.887334 
L 1120.592235 405.748762 
L 1120.592235 405.748762 
L 1131.717257 394.418459 
L 1131.717257 394.418459 
L 1144.034245 384.408307 
L 1144.034245 384.408307 
L 1155.95391 394.703709 
L 1155.95391 394.703709 
L 1168.270898 396.083362 
L 1168.270898 396.083362 
L 1180.190564 384.408307 
L 1180.190564 384.408307 
L 1216.744205 384.408307 
L 1216.744205 384.408307 
L 1229.061193 422.881854 
L 1229.061193 422.881854 
L 1240.980858 405.308444 
L 1240.980858 405.308444 
L 1253.297846 422.074804 
L 1253.297846 422.074804 
L 1265.614834 430.389216 
L 1265.614834 430.389216 
L 1276.739855 440.982426 
L 1276.739855 440.982426 
L 1289.056843 440.982426 
L 1289.056843 440.982426 
L 1300.976509 451.046517 
L 1300.976509 451.046517 
L 1313.293497 451.046517 
L 1313.293497 451.046517 
L 1325.213162 462.721572 
L 1325.213162 462.721572 
L 1349.847138 462.721572 
L 1349.847138 462.721572 
L 1361.766804 483.732097 
L 1374.083792 486.975637 
L 1374.083792 486.975637 
" clip-path="url(#p0dc625cd58)" style="fill: none; stroke-dasharray: 5.55,2.4; stroke-dashoffset: 0; stroke: #006e64; stroke-width: 1.5"/>
   </g>
   <g id="line2d_18">
    <path d="M 115.764422 481.229629 
L 140.001075 486.642712 
L 152.318063 452.942553 
L 152.318063 452.942553 
L 164.237729 447.826982 
L 164.237729 447.826982 
L 176.554717 415.142365 
L 176.554717 415.142365 
L 188.871704 458.602539 
L 188.871704 458.602539 
L 200.79137 435.47485 
L 200.79137 435.47485 
L 213.108358 461.458282 
L 213.108358 461.458282 
L 225.028023 429.567461 
L 225.028023 429.567461 
L 237.345011 492.01578 
L 237.345011 492.01578 
L 249.661999 435.32373 
L 249.661999 435.32373 
L 261.184343 480.383872 
L 261.184343 480.383872 
L 273.50133 452.690931 
L 273.50133 452.690931 
L 285.420996 431.607013 
L 285.420996 431.607013 
L 297.737984 444.976504 
L 297.737984 444.976504 
L 309.65765 444.748132 
L 309.65765 444.748132 
L 321.974637 438.87569 
L 321.974637 438.87569 
L 334.291625 409.917055 
L 334.291625 409.917055 
L 346.211291 386.181118 
L 346.211291 386.181118 
L 358.528279 389.16977 
L 358.528279 389.16977 
L 370.447944 385.715843 
L 370.447944 385.715843 
L 382.764932 406.172573 
L 382.764932 406.172573 
L 395.08192 444.333563 
L 395.08192 444.333563 
L 406.206941 430.225346 
L 406.206941 430.225346 
L 418.523929 413.500749 
L 418.523929 413.500749 
L 430.443595 407.12974 
L 430.443595 407.12974 
L 442.760583 370.054884 
L 442.760583 370.054884 
L 454.680248 362.920198 
L 454.680248 362.920198 
L 466.997236 337.276009 
L 466.997236 337.276009 
L 479.314224 354.901887 
L 479.314224 354.901887 
L 491.23389 361.919879 
L 491.23389 361.919879 
L 503.550877 334.429597 
L 503.550877 334.429597 
L 515.470543 351.28118 
L 515.470543 351.28118 
L 527.787531 340.859928 
L 527.787531 340.859928 
L 540.104519 376.028777 
L 540.104519 376.028777 
L 563.546528 438.867126 
L 563.546528 438.867126 
L 575.466193 416.810093 
L 575.466193 416.810093 
L 587.783181 371.139339 
L 587.783181 371.139339 
L 599.702847 314.71164 
L 599.702847 314.71164 
L 612.019835 353.330655 
L 612.019835 353.330655 
L 624.336823 346.714797 
L 624.336823 346.714797 
L 636.256488 297.63504 
L 636.256488 297.63504 
L 648.573476 305.311299 
L 648.573476 305.311299 
L 660.493142 334.872755 
L 660.493142 334.872755 
L 672.810129 343.221827 
L 672.810129 343.221827 
L 685.127117 332.557145 
L 685.127117 332.557145 
L 696.252139 310.778821 
L 696.252139 310.778821 
L 708.569126 296.912146 
L 708.569126 296.912146 
L 720.488792 296.498495 
L 720.488792 296.498495 
L 732.80578 309.812532 
L 732.80578 309.812532 
L 744.725446 329.123534 
L 744.725446 329.123534 
L 757.042433 340.53902 
L 757.042433 340.53902 
L 769.359421 307.609094 
L 769.359421 307.609094 
L 781.279087 324.025648 
L 781.279087 324.025648 
L 793.596075 305.157166 
L 793.596075 305.157166 
L 805.51574 254.613109 
L 805.51574 254.613109 
L 817.832728 271.671941 
L 817.832728 271.671941 
L 830.149716 298.30965 
L 830.149716 298.30965 
L 841.672059 315.677067 
L 841.672059 315.677067 
L 853.989047 427.521869 
L 853.989047 427.521869 
L 865.908713 458.309146 
L 865.908713 458.309146 
L 878.225701 458.099652 
L 878.225701 458.099652 
L 890.145366 469.622354 
L 890.145366 469.622354 
L 902.462354 450.982381 
L 902.462354 450.982381 
L 914.779342 420.50962 
L 914.779342 420.50962 
L 926.699008 395.01038 
L 926.699008 395.01038 
L 939.015996 359.331279 
L 939.015996 359.331279 
L 950.935661 313.521675 
L 950.935661 313.521675 
L 963.252649 419.806309 
L 963.252649 419.806309 
L 975.569637 414.035097 
L 975.569637 414.035097 
L 986.694658 423.063302 
L 986.694658 423.063302 
L 999.011646 375.99834 
L 999.011646 375.99834 
L 1010.931312 356.365997 
L 1010.931312 356.365997 
L 1023.248299 403.021089 
L 1023.248299 403.021089 
L 1035.167965 373.53827 
L 1035.167965 373.53827 
L 1047.484953 364.086948 
L 1047.484953 364.086948 
L 1059.801941 409.210415 
L 1059.801941 409.210415 
L 1071.721606 479.676963 
L 1071.721606 479.676963 
L 1084.038594 465.701747 
L 1084.038594 465.701747 
L 1095.95826 474.805332 
L 1095.95826 474.805332 
L 1108.275248 397.586348 
L 1108.275248 397.586348 
L 1120.592235 389.945848 
L 1120.592235 389.945848 
L 1131.717257 432.2843 
L 1131.717257 432.2843 
L 1144.034245 413.690662 
L 1144.034245 413.690662 
L 1155.95391 425.956452 
L 1155.95391 425.956452 
L 1168.270898 433.491148 
L 1168.270898 433.491148 
L 1180.190564 384.966243 
L 1180.190564 384.966243 
L 1192.507552 354.658318 
L 1192.507552 354.658318 
L 1204.824539 294.849237 
L 1204.824539 294.849237 
L 1216.744205 229.314274 
L 1216.744205 229.314274 
L 1229.061193 312.427598 
L 1229.061193 312.427598 
L 1240.980858 180.264907 
L 1240.980858 180.264907 
L 1253.297846 222.10746 
L 1253.297846 222.10746 
L 1265.614834 371.163892 
L 1265.614834 371.163892 
L 1276.739855 420.437111 
L 1276.739855 420.437111 
L 1289.056843 408.050258 
L 1289.056843 408.050258 
L 1300.976509 425.691597 
L 1300.976509 425.691597 
L 1313.293497 426.755765 
L 1313.293497 426.755765 
L 1325.213162 456.605768 
L 1325.213162 456.605768 
L 1337.53015 447.312707 
L 1337.53015 447.312707 
L 1349.847138 446.77321 
L 1349.847138 446.77321 
L 1361.766804 470.658485 
L 1374.083792 491.832262 
L 1374.083792 491.832262 
" clip-path="url(#p0dc625cd58)" style="fill: none; stroke: #734848; stroke-width: 1.5; stroke-linecap: round"/>
   </g>
   <g id="line2d_19">
    <path d="M 115.764422 481.222347 
L 140.001075 485.592723 
L 152.318063 454.412754 
L 152.318063 454.412754 
L 164.237729 444.772221 
L 164.237729 444.772221 
L 176.554717 415.048787 
L 176.554717 415.048787 
L 188.871704 461.04553 
L 188.871704 461.04553 
L 200.79137 434.12413 
L 200.79137 434.12413 
L 213.108358 460.936563 
L 213.108358 460.936563 
L 225.028023 429.51966 
L 225.028023 429.51966 
L 237.345011 494.024183 
L 237.345011 494.024183 
L 249.661999 442.650198 
L 249.661999 442.650198 
L 261.184343 481.79951 
L 261.184343 481.79951 
L 273.50133 455.877958 
L 273.50133 455.877958 
L 285.420996 433.108332 
L 285.420996 433.108332 
L 297.737984 446.564376 
L 297.737984 446.564376 
L 309.65765 444.487399 
L 309.65765 444.487399 
L 321.974637 436.249124 
L 321.974637 436.249124 
L 334.291625 408.607869 
L 334.291625 408.607869 
L 346.211291 383.547802 
L 346.211291 383.547802 
L 358.528279 385.410567 
L 358.528279 385.410567 
L 370.447944 378.757414 
L 370.447944 378.757414 
L 382.764932 398.024827 
L 382.764932 398.024827 
L 395.08192 442.82362 
L 395.08192 442.82362 
L 406.206941 430.876687 
L 406.206941 430.876687 
L 418.523929 403.348328 
L 418.523929 403.348328 
L 430.443595 394.407103 
L 430.443595 394.407103 
L 442.760583 357.762212 
L 442.760583 357.762212 
L 454.680248 350.229192 
L 454.680248 350.229192 
L 466.997236 325.942184 
L 466.997236 325.942184 
L 479.314224 364.077444 
L 479.314224 364.077444 
L 491.23389 370.649268 
L 491.23389 370.649268 
L 503.550877 340.209153 
L 503.550877 340.209153 
L 515.470543 350.079599 
L 515.470543 350.079599 
L 527.787531 335.850693 
L 527.787531 335.850693 
L 540.104519 325.151606 
L 540.104519 325.151606 
L 551.22954 342.852192 
L 551.22954 342.852192 
L 563.546528 449.204533 
L 563.546528 449.204533 
L 575.466193 424.552234 
L 575.466193 424.552234 
L 587.783181 379.187263 
L 587.783181 379.187263 
L 599.702847 321.850662 
L 599.702847 321.850662 
L 612.019835 380.925825 
L 612.019835 380.925825 
L 624.336823 385.741834 
L 624.336823 385.741834 
L 636.256488 333.619161 
L 636.256488 333.619161 
L 648.573476 334.040456 
L 648.573476 334.040456 
L 660.493142 382.112629 
L 660.493142 382.112629 
L 672.810129 393.034472 
L 672.810129 393.034472 
L 685.127117 391.635624 
L 685.127117 391.635624 
L 696.252139 372.731981 
L 696.252139 372.731981 
L 708.569126 371.363799 
L 708.569126 371.363799 
L 720.488792 369.501074 
L 720.488792 369.501074 
L 732.80578 397.096775 
L 732.80578 397.096775 
L 744.725446 319.209971 
L 744.725446 319.209971 
L 757.042433 387.759812 
L 757.042433 387.759812 
L 769.359421 292.573025 
L 769.359421 292.573025 
L 781.279087 317.601327 
L 781.279087 317.601327 
L 793.596075 292.963661 
L 793.596075 292.963661 
L 805.51574 243.515074 
L 805.51574 243.515074 
L 817.832728 257.232999 
L 817.832728 257.232999 
L 830.149716 289.531958 
L 830.149716 289.531958 
L 841.672059 315.297965 
L 841.672059 315.297965 
L 853.989047 422.028211 
L 853.989047 422.028211 
L 865.908713 447.787492 
L 865.908713 447.787492 
L 878.225701 450.268963 
L 878.225701 450.268963 
L 890.145366 460.500936 
L 890.145366 460.500936 
L 902.462354 435.63311 
L 902.462354 435.63311 
L 914.779342 388.355406 
L 914.779342 388.355406 
L 926.699008 375.680627 
L 926.699008 375.680627 
L 939.015996 329.817294 
L 939.015996 329.817294 
L 950.935661 300.73334 
L 950.935661 300.73334 
L 963.252649 422.440944 
L 963.252649 422.440944 
L 975.569637 418.999745 
L 975.569637 418.999745 
L 986.694658 420.212051 
L 986.694658 420.212051 
L 999.011646 426.415025 
L 999.011646 426.415025 
L 1010.931312 411.588426 
L 1010.931312 411.588426 
L 1035.167965 344.36195 
L 1035.167965 344.36195 
L 1047.484953 338.472646 
L 1047.484953 338.472646 
L 1059.801941 380.822354 
L 1059.801941 380.822354 
L 1071.721606 452.417889 
L 1071.721606 452.417889 
L 1084.038594 436.847725 
L 1084.038594 436.847725 
L 1095.95826 485.374691 
L 1095.95826 485.374691 
L 1108.275248 458.619101 
L 1108.275248 458.619101 
L 1120.592235 449.186909 
L 1120.592235 449.186909 
L 1131.717257 498.92375 
L 1131.717257 498.92375 
L 1144.034245 425.814884 
L 1144.034245 425.814884 
L 1155.95391 504.162871 
L 1155.95391 504.162871 
L 1168.270898 502.144591 
L 1168.270898 502.144591 
L 1180.190564 474.3503 
L 1180.190564 474.3503 
L 1192.507552 474.088981 
L 1192.507552 474.088981 
L 1204.824539 429.30414 
L 1204.824539 429.30414 
L 1216.744205 378.012447 
L 1216.744205 378.012447 
L 1229.061193 416.19102 
L 1229.061193 416.19102 
L 1240.980858 332.829381 
L 1240.980858 332.829381 
L 1253.297846 325.334328 
L 1253.297846 325.334328 
L 1265.614834 372.13482 
L 1265.614834 372.13482 
L 1276.739855 340.731534 
L 1276.739855 340.731534 
L 1289.056843 342.134701 
L 1289.056843 342.134701 
L 1300.976509 512.718148 
L 1300.976509 512.718148 
L 1313.293497 501.264591 
L 1313.293497 501.264591 
L 1325.213162 536.450757 
L 1325.213162 536.450757 
L 1337.53015 527.926138 
L 1337.53015 527.926138 
L 1349.847138 528.996816 
L 1349.847138 528.996816 
L 1361.766804 500.619208 
L 1374.083792 538.071129 
L 1374.083792 538.071129 
" clip-path="url(#p0dc625cd58)" style="fill: none; stroke: #004e4a; stroke-width: 1.5; stroke-linecap: round"/>
   </g>
   <g id="line2d_20">
    <path d="M 115.764422 480.567326 
L 128.08141 481.857615 
L 140.001075 483.939748 
L 152.318063 455.977467 
L 152.318063 455.977467 
L 164.237729 445.017345 
L 164.237729 445.017345 
L 176.554717 419.597986 
L 176.554717 419.597986 
L 188.871704 468.214952 
L 188.871704 468.214952 
L 200.79137 433.118798 
L 200.79137 433.118798 
L 213.108358 467.108486 
L 213.108358 467.108486 
L 225.028023 445.577424 
L 225.028023 445.577424 
L 237.345011 504.722019 
L 237.345011 504.722019 
L 249.661999 455.591736 
L 249.661999 455.591736 
L 261.184343 497.435244 
L 261.184343 497.435244 
L 273.50133 463.631465 
L 273.50133 463.631465 
L 285.420996 453.052216 
L 285.420996 453.052216 
L 297.737984 460.967234 
L 297.737984 460.967234 
L 309.65765 457.047675 
L 309.65765 457.047675 
L 321.974637 448.057046 
L 321.974637 448.057046 
L 334.291625 427.71166 
L 334.291625 427.71166 
L 346.211291 395.823465 
L 346.211291 395.823465 
L 358.528279 403.253216 
L 358.528279 403.253216 
L 370.447944 396.750026 
L 370.447944 396.750026 
L 382.764932 409.172572 
L 382.764932 409.172572 
L 395.08192 454.015993 
L 395.08192 454.015993 
L 406.206941 441.91016 
L 406.206941 441.91016 
L 418.523929 413.435214 
L 418.523929 413.435214 
L 430.443595 408.891996 
L 430.443595 408.891996 
L 442.760583 373.630837 
L 442.760583 373.630837 
L 454.680248 363.126191 
L 454.680248 363.126191 
L 466.997236 343.465632 
L 466.997236 343.465632 
L 479.314224 321.686336 
L 479.314224 321.686336 
L 491.23389 316.792334 
L 491.23389 316.792334 
L 503.550877 288.074418 
L 503.550877 288.074418 
L 515.470543 338.583627 
L 515.470543 338.583627 
L 527.787531 332.013009 
L 527.787531 332.013009 
L 540.104519 364.693671 
L 540.104519 364.693671 
L 551.22954 335.074112 
L 551.22954 335.074112 
L 563.546528 430.896775 
L 563.546528 430.896775 
L 575.466193 403.492497 
L 575.466193 403.492497 
L 587.783181 373.542287 
L 587.783181 373.542287 
L 599.702847 320.93455 
L 599.702847 320.93455 
L 612.019835 360.897194 
L 612.019835 360.897194 
L 624.336823 385.208438 
L 624.336823 385.208438 
L 636.256488 342.991088 
L 636.256488 342.991088 
L 648.573476 342.439092 
L 648.573476 342.439092 
L 660.493142 394.467048 
L 660.493142 394.467048 
L 672.810129 434.803356 
L 672.810129 434.803356 
L 685.127117 417.698312 
L 685.127117 417.698312 
L 696.252139 405.82084 
L 696.252139 405.82084 
L 708.569126 388.032726 
L 708.569126 388.032726 
L 720.488792 361.998522 
L 720.488792 361.998522 
L 732.80578 370.382626 
L 732.80578 370.382626 
L 744.725446 307.321113 
L 744.725446 307.321113 
L 757.042433 416.69595 
L 757.042433 416.69595 
L 769.359421 266.454891 
L 769.359421 266.454891 
L 781.279087 286.664794 
L 781.279087 286.664794 
L 793.596075 264.079707 
L 793.596075 264.079707 
L 805.51574 239.941145 
L 805.51574 239.941145 
L 817.832728 229.201715 
L 817.832728 229.201715 
L 830.149716 281.305501 
L 830.149716 281.305501 
L 841.672059 302.940365 
L 841.672059 302.940365 
L 853.989047 402.790772 
L 853.989047 402.790772 
L 865.908713 382.688235 
L 865.908713 382.688235 
L 878.225701 375.359471 
L 878.225701 375.359471 
L 890.145366 385.030357 
L 890.145366 385.030357 
L 902.462354 333.713355 
L 902.462354 333.713355 
L 914.779342 301.989993 
L 914.779342 301.989993 
L 926.699008 284.096258 
L 926.699008 284.096258 
L 939.015996 272.389409 
L 939.015996 272.389409 
L 950.935661 208.368024 
L 950.935661 208.368024 
L 963.252649 422.366733 
L 963.252649 422.366733 
L 975.569637 415.982182 
L 975.569637 415.982182 
L 986.694658 437.476884 
L 986.694658 437.476884 
L 999.011646 370.12007 
L 999.011646 370.12007 
L 1010.931312 328.335936 
L 1010.931312 328.335936 
L 1023.248299 344.326802 
L 1023.248299 344.326802 
L 1035.167965 322.210116 
L 1035.167965 322.210116 
L 1047.484953 334.93015 
L 1047.484953 334.93015 
L 1059.801941 388.403383 
L 1059.801941 388.403383 
L 1071.721606 444.215034 
L 1071.721606 444.215034 
L 1084.038594 447.807981 
L 1084.038594 447.807981 
L 1095.95826 419.037131 
L 1095.95826 419.037131 
L 1108.275248 471.594247 
L 1108.275248 471.594247 
L 1120.592235 467.728275 
L 1120.592235 467.728275 
L 1131.717257 552.71167 
L 1131.717257 552.71167 
L 1144.034245 455.21138 
L 1144.034245 455.21138 
L 1155.95391 509.458702 
L 1155.95391 509.458702 
L 1168.270898 392.846719 
L 1168.270898 392.846719 
L 1180.190564 377.871887 
L 1180.190564 377.871887 
L 1192.507552 452.171563 
L 1192.507552 452.171563 
L 1204.824539 424.43599 
L 1204.824539 424.43599 
L 1216.744205 388.851048 
L 1216.744205 388.851048 
L 1229.061193 419.081825 
L 1229.061193 419.081825 
L 1240.980858 435.908313 
L 1240.980858 435.908313 
L 1253.297846 409.562474 
L 1253.297846 409.562474 
L 1265.614834 393.24684 
L 1265.614834 393.24684 
L 1276.739855 416.203271 
L 1276.739855 416.203271 
L 1289.056843 393.599549 
L 1289.056843 393.599549 
L 1300.976509 499.907436 
L 1300.976509 499.907436 
L 1313.293497 466.396757 
L 1313.293497 466.396757 
L 1325.213162 505.81293 
L 1325.213162 505.81293 
L 1337.53015 497.614816 
L 1337.53015 497.614816 
L 1349.847138 492.923754 
L 1349.847138 492.923754 
L 1361.766804 470.259052 
L 1374.083792 581.20902 
L 1374.083792 581.20902 
" clip-path="url(#p0dc625cd58)" style="fill: none; stroke: #c17150; stroke-width: 1.5; stroke-linecap: round"/>
   </g>
   <g id="line2d_21">
    <path d="M 115.764422 480.632954 
L 128.08141 481.573516 
L 140.001075 483.643359 
L 152.318063 456.806884 
L 152.318063 456.806884 
L 164.237729 445.544149 
L 164.237729 445.544149 
L 176.554717 421.559437 
L 176.554717 421.559437 
L 188.871704 467.977286 
L 188.871704 467.977286 
L 200.79137 436.181954 
L 200.79137 436.181954 
L 213.108358 467.426844 
L 213.108358 467.426844 
L 225.028023 445.263241 
L 225.028023 445.263241 
L 237.345011 506.392368 
L 237.345011 506.392368 
L 249.661999 453.361009 
L 249.661999 453.361009 
L 261.184343 493.193224 
L 261.184343 493.193224 
L 273.50133 459.903406 
L 273.50133 459.903406 
L 285.420996 450.443701 
L 285.420996 450.443701 
L 297.737984 457.89544 
L 297.737984 457.89544 
L 309.65765 453.743608 
L 309.65765 453.743608 
L 321.974637 444.044408 
L 321.974637 444.044408 
L 334.291625 423.841411 
L 334.291625 423.841411 
L 346.211291 392.887149 
L 346.211291 392.887149 
L 358.528279 399.177735 
L 358.528279 399.177735 
L 370.447944 394.024232 
L 370.447944 394.024232 
L 382.764932 406.155446 
L 382.764932 406.155446 
L 395.08192 451.325081 
L 395.08192 451.325081 
L 406.206941 438.388222 
L 406.206941 438.388222 
L 418.523929 409.7734 
L 418.523929 409.7734 
L 430.443595 404.909185 
L 430.443595 404.909185 
L 442.760583 370.604738 
L 442.760583 370.604738 
L 454.680248 360.193239 
L 454.680248 360.193239 
L 466.997236 341.110371 
L 466.997236 341.110371 
L 479.314224 322.395756 
L 479.314224 322.395756 
L 491.23389 316.441921 
L 491.23389 316.441921 
L 503.550877 287.152963 
L 503.550877 287.152963 
L 515.470543 337.599872 
L 515.470543 337.599872 
L 527.787531 330.127487 
L 527.787531 330.127487 
L 540.104519 363.649617 
L 540.104519 363.649617 
L 551.22954 329.705893 
L 551.22954 329.705893 
L 563.546528 427.280627 
L 563.546528 427.280627 
L 575.466193 399.903931 
L 575.466193 399.903931 
L 587.783181 369.098972 
L 587.783181 369.098972 
L 599.702847 316.258285 
L 599.702847 316.258285 
L 612.019835 351.577621 
L 612.019835 351.577621 
L 624.336823 368.47825 
L 624.336823 368.47825 
L 636.256488 324.32621 
L 636.256488 324.32621 
L 648.573476 323.042251 
L 648.573476 323.042251 
L 660.493142 379.986268 
L 660.493142 379.986268 
L 672.810129 481.728931 
L 672.810129 481.728931 
L 685.127117 482.763134 
L 685.127117 482.763134 
L 696.252139 466.50845 
L 696.252139 466.50845 
L 708.569126 441.35536 
L 708.569126 441.35536 
L 720.488792 423.511268 
L 720.488792 423.511268 
L 732.80578 424.884093 
L 732.80578 424.884093 
L 744.725446 320.074968 
L 744.725446 320.074968 
L 757.042433 453.243545 
L 757.042433 453.243545 
L 769.359421 281.585515 
L 769.359421 281.585515 
L 781.279087 302.528738 
L 781.279087 302.528738 
L 793.596075 281.593684 
L 793.596075 281.593684 
L 805.51574 238.14804 
L 805.51574 238.14804 
L 817.832728 222.863375 
L 817.832728 222.863375 
L 830.149716 276.181782 
L 830.149716 276.181782 
L 841.672059 296.640915 
L 841.672059 296.640915 
L 853.989047 393.328447 
L 853.989047 393.328447 
L 865.908713 371.386559 
L 865.908713 371.386559 
L 878.225701 363.942273 
L 878.225701 363.942273 
L 890.145366 375.515078 
L 890.145366 375.515078 
L 902.462354 324.953275 
L 902.462354 324.953275 
L 914.779342 292.451158 
L 914.779342 292.451158 
L 926.699008 277.300164 
L 926.699008 277.300164 
L 939.015996 265.039149 
L 939.015996 265.039149 
L 950.935661 202.244442 
L 950.935661 202.244442 
L 963.252649 422.145902 
L 963.252649 422.145902 
L 975.569637 416.209578 
L 975.569637 416.209578 
L 986.694658 437.699151 
L 986.694658 437.699151 
L 999.011646 372.251257 
L 999.011646 372.251257 
L 1010.931312 333.229384 
L 1010.931312 333.229384 
L 1023.248299 349.954222 
L 1023.248299 349.954222 
L 1035.167965 325.692295 
L 1035.167965 325.692295 
L 1047.484953 339.212022 
L 1047.484953 339.212022 
L 1059.801941 396.06884 
L 1059.801941 396.06884 
L 1071.721606 454.393616 
L 1071.721606 454.393616 
L 1084.038594 496.205017 
L 1084.038594 496.205017 
L 1095.95826 460.959117 
L 1095.95826 460.959117 
L 1108.275248 509.600145 
L 1108.275248 509.600145 
L 1120.592235 493.574242 
L 1120.592235 493.574242 
L 1131.717257 545.354898 
L 1131.717257 545.354898 
L 1144.034245 459.644416 
L 1144.034245 459.644416 
L 1155.95391 539.659062 
L 1155.95391 539.659062 
L 1168.270898 504.429502 
L 1168.270898 504.429502 
L 1180.190564 488.991 
L 1180.190564 488.991 
L 1192.507552 525.092533 
L 1192.507552 525.092533 
L 1216.744205 469.057948 
L 1216.744205 469.057948 
L 1229.061193 493.901363 
L 1229.061193 493.901363 
L 1240.980858 468.195576 
L 1240.980858 468.195576 
L 1253.297846 419.164402 
L 1253.297846 419.164402 
L 1265.614834 440.18862 
L 1265.614834 440.18862 
L 1276.739855 462.260793 
L 1276.739855 462.260793 
L 1289.056843 438.976819 
L 1289.056843 438.976819 
L 1300.976509 476.430228 
L 1300.976509 476.430228 
L 1313.293497 454.515735 
L 1313.293497 454.515735 
L 1325.213162 494.911056 
L 1325.213162 494.911056 
L 1337.53015 486.73056 
L 1337.53015 486.73056 
L 1349.847138 482.061401 
L 1349.847138 482.061401 
L 1361.766804 470.248329 
L 1374.083792 559.142222 
L 1374.083792 559.142222 
" clip-path="url(#p0dc625cd58)" style="fill: none; stroke: #c8f0e6; stroke-width: 1.5; stroke-linecap: round"/>
   </g>
   <g id="patch_3">
    <path d="M 52.848453 612.426839 
L 52.848453 25.604645 
" style="fill: none; stroke: #808080; stroke-width: 0.8; stroke-linejoin: miter; stroke-linecap: square"/>
   </g>
   <g id="patch_4">
    <path d="M 52.848453 612.426839 
L 1436.99976 612.426839 
" style="fill: none; stroke: #808080; stroke-width: 0.8; stroke-linejoin: miter; stroke-linecap: square"/>
   </g>
   <g id="text_19">
    <!-- Out of Sample -->
    <g style="fill: #262626" transform="translate(675.208391 19.604645) scale(0.24 -0.24)">
     <defs>
      <path id="CMR17-4f" d="M 4307 2135 
C 4307 3437 3366 4416 2304 4416 
C 1216 4416 294 3424 294 2135 
C 294 845 1229 -128 2298 -128 
C 3392 -128 4307 864 4307 2135 
z
M 2304 -13 
C 1574 -13 781 711 781 2217 
C 781 3716 1651 4301 2298 4301 
C 2976 4301 3821 3698 3821 2217 
C 3821 686 3008 -13 2304 -13 
z
" transform="scale(0.015625)"/>
      <path id="CMR17-66" d="M 979 2560 
L 1709 2560 
L 1709 2725 
L 966 2725 
L 966 3494 
C 966 4022 1235 4352 1510 4352 
C 1594 4352 1690 4327 1754 4282 
C 1702 4269 1568 4225 1568 4067 
C 1568 3901 1696 3850 1786 3850 
C 1875 3850 2003 3901 2003 4067 
C 2003 4308 1773 4454 1517 4454 
C 1152 4454 653 4156 653 3481 
L 653 2725 
L 141 2725 
L 141 2560 
L 653 2560 
L 653 427 
C 653 184 627 153 218 153 
L 218 -13 
C 371 0 666 0 832 0 
C 1018 0 1344 0 1517 -13 
L 1517 153 
C 1056 153 979 153 979 439 
L 979 2560 
z
" transform="scale(0.015625)"/>
      <path id="CMR17-53" d="M 2803 4290 
C 2803 4404 2797 4411 2758 4411 
C 2720 4411 2707 4385 2682 4328 
L 2490 3907 
C 2246 4257 1875 4416 1472 4416 
C 819 4416 294 3901 294 3253 
C 294 3056 339 2776 557 2510 
C 794 2218 1018 2167 1530 2033 
C 1722 1982 2042 1899 2106 1874 
C 2470 1722 2662 1341 2662 985 
C 2662 527 2336 38 1779 38 
C 1094 38 454 419 410 1311 
C 403 1413 397 1419 352 1419 
C 301 1419 294 1413 294 1285 
L 294 -1 
C 294 -115 301 -122 339 -122 
C 384 -122 397 -90 486 108 
C 493 127 493 140 614 381 
C 934 -39 1472 -128 1779 -128 
C 2477 -128 2970 451 2970 1124 
C 2970 1454 2848 1708 2778 1823 
C 2509 2230 2221 2306 1914 2382 
C 1869 2402 1856 2402 1498 2490 
C 1152 2579 1005 2624 845 2796 
C 666 2992 602 3196 602 3399 
C 602 3812 934 4263 1478 4263 
C 2157 4263 2579 3786 2675 2993 
C 2694 2878 2701 2872 2746 2872 
C 2803 2872 2803 2891 2803 2999 
L 2803 4290 
z
" transform="scale(0.015625)"/>
      <path id="CMR17-6d" d="M 4326 1933 
C 4326 2252 4269 2790 3507 2790 
C 3072 2790 2771 2496 2656 2151 
L 2650 2151 
C 2573 2676 2195 2790 1837 2790 
C 1331 2790 1069 2400 973 2144 
L 966 2144 
L 966 2790 
L 211 2720 
L 211 2554 
C 589 2554 646 2515 646 2208 
L 646 428 
C 646 184 621 153 211 153 
L 211 -13 
C 365 0 646 0 813 0 
C 979 0 1267 0 1421 -13 
L 1421 153 
C 1011 153 986 178 986 428 
L 986 1658 
C 986 2247 1344 2688 1792 2688 
C 2266 2688 2317 2266 2317 1958 
L 2317 428 
C 2317 184 2291 153 1882 153 
L 1882 -13 
C 2035 0 2317 0 2483 0 
C 2650 0 2938 0 3091 -13 
L 3091 153 
C 2682 153 2656 178 2656 428 
L 2656 1658 
C 2656 2247 3014 2688 3462 2688 
C 3936 2688 3987 2266 3987 1958 
L 3987 428 
C 3987 184 3962 153 3552 153 
L 3552 -13 
C 3706 0 3987 0 4154 0 
C 4320 0 4608 0 4762 -13 
L 4762 153 
C 4352 153 4326 178 4326 428 
L 4326 1933 
z
" transform="scale(0.015625)"/>
      <path id="CMR17-70" d="M 1408 -1063 
C 998 -1063 973 -1037 973 -789 
L 973 402 
C 1158 134 1427 -38 1766 -38 
C 2406 -38 3053 523 3053 1388 
C 3053 2191 2496 2802 1837 2802 
C 1453 2802 1139 2592 960 2338 
L 960 2802 
L 198 2732 
L 198 2567 
C 576 2567 634 2528 634 2223 
L 634 -789 
C 634 -1031 608 -1063 198 -1063 
L 198 -1228 
C 352 -1216 634 -1216 800 -1216 
C 966 -1216 1254 -1216 1408 -1228 
L 1408 -1063 
z
M 973 2012 
C 973 2102 973 2235 1222 2471 
C 1254 2497 1472 2688 1792 2688 
C 2259 2688 2643 2108 2643 1382 
C 2643 656 2234 64 1728 64 
C 1498 64 1248 172 1056 472 
C 973 612 973 650 973 752 
L 973 2012 
z
" transform="scale(0.015625)"/>
     </defs>
     <use xlink:href="#CMR17-4f" transform="scale(0.996264)"/>
     <use xlink:href="#CMR17-75" transform="translate(71.714788 0) scale(0.996264)"/>
     <use xlink:href="#CMR17-74" transform="translate(122.610158 0) scale(0.996264)"/>
     <use xlink:href="#CMR17-6f" transform="translate(187.966892 0) scale(0.996264)"/>
     <use xlink:href="#CMR17-66" transform="translate(233.657369 0) scale(0.996264)"/>
     <use xlink:href="#CMR17-53" transform="translate(291.206848 0) scale(0.996264)"/>
     <use xlink:href="#CMR17-61" transform="translate(342.102218 0) scale(0.996264)"/>
     <use xlink:href="#CMR17-6d" transform="translate(387.792695 0) scale(0.996264)"/>
     <use xlink:href="#CMR17-70" transform="translate(464.712285 0) scale(0.996264)"/>
     <use xlink:href="#CMR17-6c" transform="translate(515.607655 0) scale(0.996264)"/>
     <use xlink:href="#CMR17-65" transform="translate(540.478713 0) scale(0.996264)"/>
    </g>
   </g>
   <g id="legend_1">
    <g id="patch_5">
     <path d="M 151.665736 716.999724 
L 1338.182477 716.999724 
Q 1342.182477 716.999724 1342.182477 712.999724 
L 1342.182477 685.109059 
Q 1342.182477 681.109059 1338.182477 681.109059 
L 151.665736 681.109059 
Q 147.665736 681.109059 147.665736 685.109059 
L 147.665736 712.999724 
Q 147.665736 716.999724 151.665736 716.999724 
z
" style="fill: #ffffff; opacity: 0.8"/>
    </g>
    <g id="line2d_22">
     <path d="M 155.665736 697.035081 
L 175.665736 697.035081 
L 195.665736 697.035081 
" style="fill: none; stroke-dasharray: 5.55,2.4; stroke-dashoffset: 0; stroke: #006e64; stroke-width: 1.5"/>
    </g>
    <g id="text_20">
     <!-- Actual -->
     <g style="fill: #262626" transform="translate(211.665736 704.035081) scale(0.2 -0.2)">
      <defs>
       <path id="CMR17-41" d="M 2323 4378 
C 2291 4461 2278 4480 2214 4480 
C 2150 4480 2138 4461 2106 4378 
L 749 566 
C 627 223 371 153 147 153 
L 147 -13 
C 262 0 518 0 640 0 
C 800 0 1056 0 1210 -13 
L 1210 153 
C 909 153 864 361 864 439 
C 864 497 877 530 890 569 
L 1229 1536 
L 2906 1536 
L 3290 442 
C 3322 365 3322 352 3322 327 
C 3322 153 3046 153 2925 153 
L 2925 0 
C 3110 0 3443 0 3642 0 
C 3808 0 4128 0 4282 -13 
L 4282 153 
C 3942 153 3827 153 3744 387 
L 2323 4378 
z
M 2067 3893 
L 2848 1702 
L 1286 1702 
L 2067 3893 
z
" transform="scale(0.015625)"/>
       <path id="CMR17-63" d="M 2234 2240 
C 2112 2240 1933 2240 1933 2017 
C 1933 1838 2080 1787 2163 1787 
C 2208 1787 2394 1807 2394 2024 
C 2394 2467 1958 2803 1466 2803 
C 787 2803 211 2178 211 1363 
C 211 516 813 -64 1466 -64 
C 2259 -64 2458 677 2458 748 
C 2458 774 2451 793 2406 793 
C 2362 793 2355 787 2330 703 
C 2163 180 1798 51 1523 51 
C 1114 51 621 427 621 1369 
C 621 2338 1094 2688 1472 2688 
C 1722 2688 2093 2573 2234 2240 
z
" transform="scale(0.015625)"/>
      </defs>
      <use xlink:href="#CMR17-41" transform="scale(0.996264)"/>
      <use xlink:href="#CMR17-63" transform="translate(69.07243 0) scale(0.996264)"/>
      <use xlink:href="#CMR17-74" transform="translate(109.55809 0) scale(0.996264)"/>
      <use xlink:href="#CMR17-75" transform="translate(144.838858 0) scale(0.996264)"/>
      <use xlink:href="#CMR17-61" transform="translate(195.734228 0) scale(0.996264)"/>
      <use xlink:href="#CMR17-6c" transform="translate(241.424705 0) scale(0.996264)"/>
     </g>
    </g>
    <g id="line2d_23">
     <path d="M 304.924862 697.035081 
L 324.924862 697.035081 
L 344.924862 697.035081 
" style="fill: none; stroke: #734848; stroke-width: 1.5; stroke-linecap: round"/>
    </g>
    <g id="text_21">
     <!-- Predicted (2 clusters) -->
     <g style="fill: #262626" transform="translate(360.924862 704.035081) scale(0.2 -0.2)">
      <defs>
       <path id="CMR17-50" d="M 1267 2042 
L 2291 2042 
C 3117 2042 3718 2578 3718 3184 
C 3718 3791 3130 4352 2291 4352 
L 333 4352 
L 333 4186 
C 774 4186 845 4186 845 3899 
L 845 446 
C 845 160 774 160 333 160 
L 333 0 
C 518 0 858 0 1056 0 
C 1254 0 1594 0 1779 0 
L 1779 160 
C 1338 160 1267 160 1267 446 
L 1267 2042 
z
M 1254 2176 
L 1254 3938 
C 1254 4155 1267 4186 1523 4186 
L 2170 4186 
C 2995 4186 3232 3714 3232 3184 
C 3232 2604 2950 2176 2170 2176 
L 1254 2176 
z
" transform="scale(0.015625)"/>
       <path id="CMR17-64" d="M 1869 4326 
L 1869 4160 
C 2246 4160 2304 4122 2304 3820 
L 2304 2345 
C 2278 2377 2016 2790 1498 2790 
C 845 2790 211 2208 211 1364 
C 211 525 806 -64 1434 -64 
C 1978 -64 2259 337 2291 380 
L 2291 -63 
L 3066 -63 
L 3066 128 
C 2688 128 2630 166 2630 473 
L 2630 4396 
L 1869 4326 
z
M 2291 755 
C 2291 563 2176 390 2029 262 
C 1811 70 1594 38 1472 38 
C 1286 38 621 134 621 1356 
C 621 2612 1363 2688 1530 2688 
C 1824 2688 2061 2522 2208 2291 
C 2291 2157 2291 2138 2291 2023 
L 2291 755 
z
" transform="scale(0.015625)"/>
       <path id="CMR17-28" d="M 1958 -1561 
C 1958 -1555 1958 -1542 1939 -1523 
C 1645 -1224 858 -407 858 1581 
C 858 3569 1632 4379 1946 4697 
C 1946 4704 1958 4717 1958 4736 
C 1958 4755 1939 4768 1914 4768 
C 1843 4768 1299 4296 986 3594 
C 666 2887 576 2199 576 1588 
C 576 1128 621 351 1005 -471 
C 1312 -1135 1837 -1600 1914 -1600 
C 1946 -1600 1958 -1587 1958 -1561 
z
" transform="scale(0.015625)"/>
       <path id="CMR17-73" d="M 1978 2697 
C 1978 2813 1971 2819 1933 2819 
C 1907 2819 1901 2813 1824 2717 
C 1805 2691 1747 2626 1728 2601 
C 1523 2819 1235 2819 1126 2819 
C 416 2819 160 2447 160 2076 
C 160 1498 813 1365 998 1325 
C 1402 1243 1542 1217 1677 1101 
C 1760 1025 1901 884 1901 654 
C 1901 384 1747 38 1158 38 
C 602 38 403 460 288 1021 
C 269 1110 269 1117 218 1117 
C 166 1117 160 1110 160 983 
L 160 63 
C 160 -51 166 -58 205 -58 
C 237 -58 243 -51 275 0 
C 314 57 410 211 448 276 
C 576 103 800 -64 1158 -64 
C 1792 -64 2131 283 2131 784 
C 2131 1112 1958 1285 1875 1362 
C 1683 1561 1459 1606 1190 1657 
C 838 1735 390 1825 390 2217 
C 390 2383 480 2737 1126 2737 
C 1811 2737 1850 2094 1862 1888 
C 1869 1856 1901 1849 1920 1849 
C 1978 1849 1978 1869 1978 1978 
L 1978 2697 
z
" transform="scale(0.015625)"/>
       <path id="CMR17-29" d="M 1683 1581 
C 1683 2040 1638 2817 1254 3639 
C 947 4303 422 4768 346 4768 
C 326 4768 301 4761 301 4729 
C 301 4717 307 4710 314 4697 
C 621 4378 1402 3568 1402 1584 
C 1402 -407 627 -1217 314 -1537 
C 307 -1549 301 -1556 301 -1568 
C 301 -1600 326 -1600 346 -1600 
C 416 -1600 960 -1128 1274 -426 
C 1594 281 1683 969 1683 1581 
z
" transform="scale(0.015625)"/>
      </defs>
      <use xlink:href="#CMR17-50" transform="scale(0.996264)"/>
      <use xlink:href="#CMR17-72" transform="translate(62.586301 0) scale(0.996264)"/>
      <use xlink:href="#CMR17-65" transform="translate(97.867068 0) scale(0.996264)"/>
      <use xlink:href="#CMR17-64" transform="translate(138.352729 0) scale(0.996264)"/>
      <use xlink:href="#CMR17-69" transform="translate(189.248099 0) scale(0.996264)"/>
      <use xlink:href="#CMR17-63" transform="translate(214.119157 0) scale(0.996264)"/>
      <use xlink:href="#CMR17-74" transform="translate(254.604818 0) scale(0.996264)"/>
      <use xlink:href="#CMR17-65" transform="translate(289.885585 0) scale(0.996264)"/>
      <use xlink:href="#CMR17-64" transform="translate(330.371246 0) scale(0.996264)"/>
      <use xlink:href="#CMR17-28" transform="translate(411.342582 0) scale(0.996264)"/>
      <use xlink:href="#CMR17-32" transform="translate(446.62335 0) scale(0.996264)"/>
      <use xlink:href="#CMR17-63" transform="translate(522.389793 0) scale(0.996264)"/>
      <use xlink:href="#CMR17-6c" transform="translate(562.875454 0) scale(0.996264)"/>
      <use xlink:href="#CMR17-75" transform="translate(587.746512 0) scale(0.996264)"/>
      <use xlink:href="#CMR17-73" transform="translate(638.641882 0) scale(0.996264)"/>
      <use xlink:href="#CMR17-74" transform="translate(674.44322 0) scale(0.996264)"/>
      <use xlink:href="#CMR17-65" transform="translate(709.723987 0) scale(0.996264)"/>
      <use xlink:href="#CMR17-72" transform="translate(750.209648 0) scale(0.996264)"/>
      <use xlink:href="#CMR17-73" transform="translate(785.490416 0) scale(0.996264)"/>
      <use xlink:href="#CMR17-29" transform="translate(821.291753 0) scale(0.996264)"/>
     </g>
    </g>
    <g id="line2d_24">
     <path d="M 572.239265 697.035081 
L 592.239265 697.035081 
L 612.239265 697.035081 
" style="fill: none; stroke: #004e4a; stroke-width: 1.5; stroke-linecap: round"/>
    </g>
    <g id="text_22">
     <!-- Predicted (3 clusters) -->
     <g style="fill: #262626" transform="translate(628.239265 704.035081) scale(0.2 -0.2)">
      <use xlink:href="#CMR17-50" transform="scale(0.996264)"/>
      <use xlink:href="#CMR17-72" transform="translate(62.586301 0) scale(0.996264)"/>
      <use xlink:href="#CMR17-65" transform="translate(97.867068 0) scale(0.996264)"/>
      <use xlink:href="#CMR17-64" transform="translate(138.352729 0) scale(0.996264)"/>
      <use xlink:href="#CMR17-69" transform="translate(189.248099 0) scale(0.996264)"/>
      <use xlink:href="#CMR17-63" transform="translate(214.119157 0) scale(0.996264)"/>
      <use xlink:href="#CMR17-74" transform="translate(254.604818 0) scale(0.996264)"/>
      <use xlink:href="#CMR17-65" transform="translate(289.885585 0) scale(0.996264)"/>
      <use xlink:href="#CMR17-64" transform="translate(330.371246 0) scale(0.996264)"/>
      <use xlink:href="#CMR17-28" transform="translate(411.342582 0) scale(0.996264)"/>
      <use xlink:href="#CMR17-33" transform="translate(446.62335 0) scale(0.996264)"/>
      <use xlink:href="#CMR17-63" transform="translate(522.389793 0) scale(0.996264)"/>
      <use xlink:href="#CMR17-6c" transform="translate(562.875454 0) scale(0.996264)"/>
      <use xlink:href="#CMR17-75" transform="translate(587.746512 0) scale(0.996264)"/>
      <use xlink:href="#CMR17-73" transform="translate(638.641882 0) scale(0.996264)"/>
      <use xlink:href="#CMR17-74" transform="translate(674.44322 0) scale(0.996264)"/>
      <use xlink:href="#CMR17-65" transform="translate(709.723987 0) scale(0.996264)"/>
      <use xlink:href="#CMR17-72" transform="translate(750.209648 0) scale(0.996264)"/>
      <use xlink:href="#CMR17-73" transform="translate(785.490416 0) scale(0.996264)"/>
      <use xlink:href="#CMR17-29" transform="translate(821.291753 0) scale(0.996264)"/>
     </g>
    </g>
    <g id="line2d_25">
     <path d="M 839.553669 697.035081 
L 859.553669 697.035081 
L 879.553669 697.035081 
" style="fill: none; stroke: #c17150; stroke-width: 1.5; stroke-linecap: round"/>
    </g>
    <g id="text_23">
     <!-- Predicted (4 clusters) -->
     <g style="fill: #262626" transform="translate(895.553669 704.035081) scale(0.2 -0.2)">
      <use xlink:href="#CMR17-50" transform="scale(0.996264)"/>
      <use xlink:href="#CMR17-72" transform="translate(62.586301 0) scale(0.996264)"/>
      <use xlink:href="#CMR17-65" transform="translate(97.867068 0) scale(0.996264)"/>
      <use xlink:href="#CMR17-64" transform="translate(138.352729 0) scale(0.996264)"/>
      <use xlink:href="#CMR17-69" transform="translate(189.248099 0) scale(0.996264)"/>
      <use xlink:href="#CMR17-63" transform="translate(214.119157 0) scale(0.996264)"/>
      <use xlink:href="#CMR17-74" transform="translate(254.604818 0) scale(0.996264)"/>
      <use xlink:href="#CMR17-65" transform="translate(289.885585 0) scale(0.996264)"/>
      <use xlink:href="#CMR17-64" transform="translate(330.371246 0) scale(0.996264)"/>
      <use xlink:href="#CMR17-28" transform="translate(411.342582 0) scale(0.996264)"/>
      <use xlink:href="#CMR17-34" transform="translate(446.62335 0) scale(0.996264)"/>
      <use xlink:href="#CMR17-63" transform="translate(522.389793 0) scale(0.996264)"/>
      <use xlink:href="#CMR17-6c" transform="translate(562.875454 0) scale(0.996264)"/>
      <use xlink:href="#CMR17-75" transform="translate(587.746512 0) scale(0.996264)"/>
      <use xlink:href="#CMR17-73" transform="translate(638.641882 0) scale(0.996264)"/>
      <use xlink:href="#CMR17-74" transform="translate(674.44322 0) scale(0.996264)"/>
      <use xlink:href="#CMR17-65" transform="translate(709.723987 0) scale(0.996264)"/>
      <use xlink:href="#CMR17-72" transform="translate(750.209648 0) scale(0.996264)"/>
      <use xlink:href="#CMR17-73" transform="translate(785.490416 0) scale(0.996264)"/>
      <use xlink:href="#CMR17-29" transform="translate(821.291753 0) scale(0.996264)"/>
     </g>
    </g>
    <g id="line2d_26">
     <path d="M 1106.868073 697.035081 
L 1126.868073 697.035081 
L 1146.868073 697.035081 
" style="fill: none; stroke: #c8f0e6; stroke-width: 1.5; stroke-linecap: round"/>
    </g>
    <g id="text_24">
     <!-- Predicted (5 clusters) -->
     <g style="fill: #262626" transform="translate(1162.868073 704.035081) scale(0.2 -0.2)">
      <use xlink:href="#CMR17-50" transform="scale(0.996264)"/>
      <use xlink:href="#CMR17-72" transform="translate(62.586301 0) scale(0.996264)"/>
      <use xlink:href="#CMR17-65" transform="translate(97.867068 0) scale(0.996264)"/>
      <use xlink:href="#CMR17-64" transform="translate(138.352729 0) scale(0.996264)"/>
      <use xlink:href="#CMR17-69" transform="translate(189.248099 0) scale(0.996264)"/>
      <use xlink:href="#CMR17-63" transform="translate(214.119157 0) scale(0.996264)"/>
      <use xlink:href="#CMR17-74" transform="translate(254.604818 0) scale(0.996264)"/>
      <use xlink:href="#CMR17-65" transform="translate(289.885585 0) scale(0.996264)"/>
      <use xlink:href="#CMR17-64" transform="translate(330.371246 0) scale(0.996264)"/>
      <use xlink:href="#CMR17-28" transform="translate(411.342582 0) scale(0.996264)"/>
      <use xlink:href="#CMR17-35" transform="translate(446.62335 0) scale(0.996264)"/>
      <use xlink:href="#CMR17-63" transform="translate(522.389793 0) scale(0.996264)"/>
      <use xlink:href="#CMR17-6c" transform="translate(562.875454 0) scale(0.996264)"/>
      <use xlink:href="#CMR17-75" transform="translate(587.746512 0) scale(0.996264)"/>
      <use xlink:href="#CMR17-73" transform="translate(638.641882 0) scale(0.996264)"/>
      <use xlink:href="#CMR17-74" transform="translate(674.44322 0) scale(0.996264)"/>
      <use xlink:href="#CMR17-65" transform="translate(709.723987 0) scale(0.996264)"/>
      <use xlink:href="#CMR17-72" transform="translate(750.209648 0) scale(0.996264)"/>
      <use xlink:href="#CMR17-73" transform="translate(785.490416 0) scale(0.996264)"/>
      <use xlink:href="#CMR17-29" transform="translate(821.291753 0) scale(0.996264)"/>
     </g>
    </g>
   </g>
  </g>
 </g>
 <defs>
  <clipPath id="p0dc625cd58">
   <rect x="52.848453" y="25.604645" width="1384.151307" height="586.822194"/>
  </clipPath>
 </defs>
</svg>
