<?xml version="1.0" encoding="utf-8" standalone="no"?>
<!DOCTYPE svg PUBLIC "-//W3C//DTD SVG 1.1//EN"
  "http://www.w3.org/Graphics/SVG/1.1/DTD/svg11.dtd">
<svg xmlns:xlink="http://www.w3.org/1999/xlink" width="1440pt" height="720pt" viewBox="0 0 1440 720" xmlns="http://www.w3.org/2000/svg" version="1.1">
 <metadata>
  <rdf:RDF xmlns:dc="http://purl.org/dc/elements/1.1/" xmlns:cc="http://creativecommons.org/ns#" xmlns:rdf="http://www.w3.org/1999/02/22-rdf-syntax-ns#">
   <cc:Work>
    <dc:type rdf:resource="http://purl.org/dc/dcmitype/StillImage"/>
    <dc:date>2023-10-30T08:21:36.347236</dc:date>
    <dc:format>image/svg+xml</dc:format>
    <dc:creator>
     <cc:Agent>
      <dc:title>Matplotlib v3.6.3, https://matplotlib.org/</dc:title>
     </cc:Agent>
    </dc:creator>
   </cc:Work>
  </rdf:RDF>
 </metadata>
 <defs>
  <style type="text/css">*{stroke-linejoin: round; stroke-linecap: butt}</style>
 </defs>
 <g id="figure_1">
  <g id="patch_1">
   <path d="M 0 720 
L 1440 720 
L 1440 0 
L 0 0 
z
" style="fill: #ffffff"/>
  </g>
  <g id="axes_1">
   <g id="patch_2">
    <path d="M 32.085996 618.913373 
L 1436.99976 618.913373 
L 1436.99976 17.30242 
L 32.085996 17.30242 
z
" style="fill: #ffffff"/>
   </g>
   <g id="matplotlib.axis_1">
    <g id="xtick_1">
     <g id="line2d_1">
      <path d="M 83.057358 618.913373 
L 83.057358 17.30242 
" clip-path="url(#pfb9a1d984a)" style="fill: none; stroke: #cccccc; stroke-opacity: 0.5; stroke-width: 0.8; stroke-linecap: round"/>
     </g>
     <g id="text_1">
      <!-- $\mathdefault{2015}$ -->
      <g transform="translate(73.094687 629.331871) scale(0.1 -0.1)">
       <defs>
        <path id="CMR17-32" d="M 2669 989 
L 2554 989 
C 2490 536 2438 459 2413 420 
C 2381 369 1920 369 1830 369 
L 602 369 
C 832 619 1280 1072 1824 1597 
C 2214 1967 2669 2402 2669 3035 
C 2669 3790 2067 4224 1395 4224 
C 691 4224 262 3604 262 3030 
C 262 2780 448 2748 525 2748 
C 589 2748 781 2787 781 3010 
C 781 3207 614 3264 525 3264 
C 486 3264 448 3258 422 3245 
C 544 3790 915 4058 1306 4058 
C 1862 4058 2227 3617 2227 3035 
C 2227 2479 1901 2000 1536 1584 
L 262 146 
L 262 0 
L 2515 0 
L 2669 989 
z
" transform="scale(0.015625)"/>
        <path id="CMR17-30" d="M 2688 2025 
C 2688 2416 2682 3080 2413 3591 
C 2176 4039 1798 4198 1466 4198 
C 1158 4198 768 4058 525 3597 
C 269 3118 243 2524 243 2025 
C 243 1661 250 1106 448 619 
C 723 -39 1216 -128 1466 -128 
C 1760 -128 2208 -7 2470 600 
C 2662 1042 2688 1559 2688 2025 
z
M 1466 -26 
C 1056 -26 813 325 723 812 
C 653 1188 653 1738 653 2096 
C 653 2588 653 2997 736 3387 
C 858 3929 1216 4096 1466 4096 
C 1728 4096 2067 3923 2189 3400 
C 2272 3036 2278 2607 2278 2096 
C 2278 1680 2278 1169 2202 792 
C 2067 95 1690 -26 1466 -26 
z
" transform="scale(0.015625)"/>
        <path id="CMR17-31" d="M 1702 4058 
C 1702 4192 1696 4192 1606 4192 
C 1357 3916 979 3827 621 3827 
C 602 3827 570 3827 563 3808 
C 557 3795 557 3782 557 3648 
C 755 3648 1088 3686 1344 3839 
L 1344 461 
C 1344 236 1331 160 781 160 
L 589 160 
L 589 0 
C 896 0 1216 0 1523 0 
C 1830 0 2150 0 2458 0 
L 2458 160 
L 2266 160 
C 1715 160 1702 230 1702 458 
L 1702 4058 
z
" transform="scale(0.015625)"/>
        <path id="CMR17-35" d="M 730 3692 
C 794 3666 1056 3584 1325 3584 
C 1920 3584 2246 3911 2432 4100 
C 2432 4157 2432 4192 2394 4192 
C 2387 4192 2374 4192 2323 4163 
C 2099 4058 1837 3973 1517 3973 
C 1325 3973 1037 3999 723 4139 
C 653 4171 640 4171 634 4171 
C 602 4171 595 4164 595 4037 
L 595 2203 
C 595 2089 595 2057 659 2057 
C 691 2057 704 2070 736 2114 
C 941 2401 1222 2522 1542 2522 
C 1766 2522 2246 2382 2246 1289 
C 2246 1085 2246 715 2054 421 
C 1894 159 1645 25 1370 25 
C 947 25 518 320 403 814 
C 429 807 480 795 506 795 
C 589 795 749 840 749 1038 
C 749 1210 627 1280 506 1280 
C 358 1280 262 1190 262 1011 
C 262 454 704 -128 1382 -128 
C 2042 -128 2669 440 2669 1264 
C 2669 2030 2170 2624 1549 2624 
C 1222 2624 947 2503 730 2274 
L 730 3692 
z
" transform="scale(0.015625)"/>
       </defs>
       <use xlink:href="#CMR17-32" transform="scale(0.996264)"/>
       <use xlink:href="#CMR17-30" transform="translate(45.690477 0) scale(0.996264)"/>
       <use xlink:href="#CMR17-31" transform="translate(91.380954 0) scale(0.996264)"/>
       <use xlink:href="#CMR17-35" transform="translate(137.071431 0) scale(0.996264)"/>
      </g>
     </g>
    </g>
    <g id="xtick_2">
     <g id="line2d_2">
      <path d="M 234.807335 618.913373 
L 234.807335 17.30242 
" clip-path="url(#pfb9a1d984a)" style="fill: none; stroke: #cccccc; stroke-opacity: 0.5; stroke-width: 0.8; stroke-linecap: round"/>
     </g>
     <g id="text_2">
      <!-- $\mathdefault{2016}$ -->
      <g transform="translate(224.844665 629.331871) scale(0.1 -0.1)">
       <defs>
        <path id="CMR17-36" d="M 678 2176 
C 678 3690 1395 4032 1811 4032 
C 1946 4032 2272 4009 2400 3776 
C 2298 3776 2106 3776 2106 3553 
C 2106 3381 2246 3323 2336 3323 
C 2394 3323 2566 3348 2566 3560 
C 2566 3954 2246 4179 1805 4179 
C 1043 4179 243 3390 243 1984 
C 243 253 966 -128 1478 -128 
C 2099 -128 2688 427 2688 1283 
C 2688 2081 2170 2662 1517 2662 
C 1126 2662 838 2407 678 1960 
L 678 2176 
z
M 1478 25 
C 691 25 691 1200 691 1436 
C 691 1896 909 2560 1504 2560 
C 1613 2560 1926 2560 2138 2120 
C 2253 1870 2253 1609 2253 1289 
C 2253 944 2253 690 2118 434 
C 1978 171 1773 25 1478 25 
z
" transform="scale(0.015625)"/>
       </defs>
       <use xlink:href="#CMR17-32" transform="scale(0.996264)"/>
       <use xlink:href="#CMR17-30" transform="translate(45.690477 0) scale(0.996264)"/>
       <use xlink:href="#CMR17-31" transform="translate(91.380954 0) scale(0.996264)"/>
       <use xlink:href="#CMR17-36" transform="translate(137.071431 0) scale(0.996264)"/>
      </g>
     </g>
    </g>
    <g id="xtick_3">
     <g id="line2d_3">
      <path d="M 386.973066 618.913373 
L 386.973066 17.30242 
" clip-path="url(#pfb9a1d984a)" style="fill: none; stroke: #cccccc; stroke-opacity: 0.5; stroke-width: 0.8; stroke-linecap: round"/>
     </g>
     <g id="text_3">
      <!-- $\mathdefault{2017}$ -->
      <g transform="translate(377.010396 629.331871) scale(0.1 -0.1)">
       <defs>
        <path id="CMR17-37" d="M 2886 3941 
L 2886 4081 
L 1382 4081 
C 634 4081 621 4165 595 4288 
L 480 4288 
L 294 3094 
L 410 3094 
C 429 3215 474 3540 550 3661 
C 589 3712 1062 3712 1171 3712 
L 2579 3712 
L 1869 2661 
C 1395 1954 1069 999 1069 165 
C 1069 89 1069 -128 1299 -128 
C 1530 -128 1530 89 1530 171 
L 1530 465 
C 1530 1508 1709 2196 2003 2636 
L 2886 3941 
z
" transform="scale(0.015625)"/>
       </defs>
       <use xlink:href="#CMR17-32" transform="scale(0.996264)"/>
       <use xlink:href="#CMR17-30" transform="translate(45.690477 0) scale(0.996264)"/>
       <use xlink:href="#CMR17-31" transform="translate(91.380954 0) scale(0.996264)"/>
       <use xlink:href="#CMR17-37" transform="translate(137.071431 0) scale(0.996264)"/>
      </g>
     </g>
    </g>
    <g id="xtick_4">
     <g id="line2d_4">
      <path d="M 538.723044 618.913373 
L 538.723044 17.30242 
" clip-path="url(#pfb9a1d984a)" style="fill: none; stroke: #cccccc; stroke-opacity: 0.5; stroke-width: 0.8; stroke-linecap: round"/>
     </g>
     <g id="text_4">
      <!-- $\mathdefault{2018}$ -->
      <g transform="translate(528.760373 629.331871) scale(0.1 -0.1)">
       <defs>
        <path id="CMR17-38" d="M 1741 2264 
C 2144 2467 2554 2773 2554 3263 
C 2554 3841 1990 4179 1472 4179 
C 890 4179 378 3759 378 3180 
C 378 3021 416 2747 666 2505 
C 730 2442 998 2251 1171 2130 
C 883 1983 211 1634 211 934 
C 211 279 838 -128 1459 -128 
C 2144 -128 2720 362 2720 1010 
C 2720 1590 2330 1857 2074 2029 
L 1741 2264 
z
M 902 2822 
C 851 2854 595 3051 595 3351 
C 595 3739 998 4032 1459 4032 
C 1965 4032 2336 3676 2336 3262 
C 2336 2669 1670 2331 1638 2331 
C 1632 2331 1626 2331 1574 2370 
L 902 2822 
z
M 2080 1519 
C 2176 1449 2483 1240 2483 851 
C 2483 381 2010 25 1472 25 
C 890 25 448 438 448 940 
C 448 1443 838 1862 1280 2060 
L 2080 1519 
z
" transform="scale(0.015625)"/>
       </defs>
       <use xlink:href="#CMR17-32" transform="scale(0.996264)"/>
       <use xlink:href="#CMR17-30" transform="translate(45.690477 0) scale(0.996264)"/>
       <use xlink:href="#CMR17-31" transform="translate(91.380954 0) scale(0.996264)"/>
       <use xlink:href="#CMR17-38" transform="translate(137.071431 0) scale(0.996264)"/>
      </g>
     </g>
    </g>
    <g id="xtick_5">
     <g id="line2d_5">
      <path d="M 690.473021 618.913373 
L 690.473021 17.30242 
" clip-path="url(#pfb9a1d984a)" style="fill: none; stroke: #cccccc; stroke-opacity: 0.5; stroke-width: 0.8; stroke-linecap: round"/>
     </g>
     <g id="text_5">
      <!-- $\mathdefault{2019}$ -->
      <g transform="translate(680.510351 629.331871) scale(0.1 -0.1)">
       <defs>
        <path id="CMR17-39" d="M 2253 1864 
C 2253 464 1670 31 1190 31 
C 1043 31 685 31 538 294 
C 704 268 826 357 826 518 
C 826 692 685 749 595 749 
C 538 749 365 723 365 506 
C 365 71 742 -128 1203 -128 
C 1939 -128 2688 674 2688 2073 
C 2688 3817 1971 4179 1485 4179 
C 851 4179 243 3628 243 2778 
C 243 1991 762 1408 1414 1408 
C 1952 1408 2189 1903 2253 2112 
L 2253 1864 
z
M 1427 1510 
C 1254 1510 1011 1542 813 1922 
C 678 2169 678 2461 678 2771 
C 678 3146 678 3405 858 3684 
C 947 3817 1114 4032 1485 4032 
C 2240 4032 2240 2885 2240 2632 
C 2240 2182 2035 1510 1427 1510 
z
" transform="scale(0.015625)"/>
       </defs>
       <use xlink:href="#CMR17-32" transform="scale(0.996264)"/>
       <use xlink:href="#CMR17-30" transform="translate(45.690477 0) scale(0.996264)"/>
       <use xlink:href="#CMR17-31" transform="translate(91.380954 0) scale(0.996264)"/>
       <use xlink:href="#CMR17-39" transform="translate(137.071431 0) scale(0.996264)"/>
      </g>
     </g>
    </g>
    <g id="xtick_6">
     <g id="line2d_6">
      <path d="M 842.222999 618.913373 
L 842.222999 17.30242 
" clip-path="url(#pfb9a1d984a)" style="fill: none; stroke: #cccccc; stroke-opacity: 0.5; stroke-width: 0.8; stroke-linecap: round"/>
     </g>
     <g id="text_6">
      <!-- $\mathdefault{2020}$ -->
      <g transform="translate(832.260328 629.331871) scale(0.1 -0.1)">
       <use xlink:href="#CMR17-32" transform="scale(0.996264)"/>
       <use xlink:href="#CMR17-30" transform="translate(45.690477 0) scale(0.996264)"/>
       <use xlink:href="#CMR17-32" transform="translate(91.380954 0) scale(0.996264)"/>
       <use xlink:href="#CMR17-30" transform="translate(137.071431 0) scale(0.996264)"/>
      </g>
     </g>
    </g>
    <g id="xtick_7">
     <g id="line2d_7">
      <path d="M 994.38873 618.913373 
L 994.38873 17.30242 
" clip-path="url(#pfb9a1d984a)" style="fill: none; stroke: #cccccc; stroke-opacity: 0.5; stroke-width: 0.8; stroke-linecap: round"/>
     </g>
     <g id="text_7">
      <!-- $\mathdefault{2021}$ -->
      <g transform="translate(984.426059 629.331871) scale(0.1 -0.1)">
       <use xlink:href="#CMR17-32" transform="scale(0.996264)"/>
       <use xlink:href="#CMR17-30" transform="translate(45.690477 0) scale(0.996264)"/>
       <use xlink:href="#CMR17-32" transform="translate(91.380954 0) scale(0.996264)"/>
       <use xlink:href="#CMR17-31" transform="translate(137.071431 0) scale(0.996264)"/>
      </g>
     </g>
    </g>
    <g id="xtick_8">
     <g id="line2d_8">
      <path d="M 1146.138707 618.913373 
L 1146.138707 17.30242 
" clip-path="url(#pfb9a1d984a)" style="fill: none; stroke: #cccccc; stroke-opacity: 0.5; stroke-width: 0.8; stroke-linecap: round"/>
     </g>
     <g id="text_8">
      <!-- $\mathdefault{2022}$ -->
      <g transform="translate(1136.176037 629.331871) scale(0.1 -0.1)">
       <use xlink:href="#CMR17-32" transform="scale(0.996264)"/>
       <use xlink:href="#CMR17-30" transform="translate(45.690477 0) scale(0.996264)"/>
       <use xlink:href="#CMR17-32" transform="translate(91.380954 0) scale(0.996264)"/>
       <use xlink:href="#CMR17-32" transform="translate(137.071431 0) scale(0.996264)"/>
      </g>
     </g>
    </g>
    <g id="xtick_9">
     <g id="line2d_9">
      <path d="M 1297.888685 618.913373 
L 1297.888685 17.30242 
" clip-path="url(#pfb9a1d984a)" style="fill: none; stroke: #cccccc; stroke-opacity: 0.5; stroke-width: 0.8; stroke-linecap: round"/>
     </g>
     <g id="text_9">
      <!-- $\mathdefault{2023}$ -->
      <g transform="translate(1287.926014 629.331871) scale(0.1 -0.1)">
       <defs>
        <path id="CMR17-33" d="M 1414 2157 
C 1984 2157 2234 1662 2234 1090 
C 2234 320 1824 25 1453 25 
C 1114 25 563 194 390 693 
C 422 680 454 680 486 680 
C 640 680 755 782 755 948 
C 755 1133 614 1216 486 1216 
C 378 1216 211 1165 211 926 
C 211 335 787 -128 1466 -128 
C 2176 -128 2720 430 2720 1085 
C 2720 1707 2208 2157 1600 2227 
C 2086 2328 2554 2756 2554 3329 
C 2554 3820 2048 4179 1472 4179 
C 890 4179 378 3829 378 3329 
C 378 3110 544 3072 627 3072 
C 762 3072 877 3155 877 3321 
C 877 3486 762 3569 627 3569 
C 602 3569 570 3569 544 3557 
C 730 3959 1235 4032 1459 4032 
C 1683 4032 2106 3925 2106 3320 
C 2106 3143 2080 2828 1862 2550 
C 1670 2304 1453 2304 1242 2284 
C 1210 2284 1062 2269 1037 2269 
C 992 2263 966 2257 966 2208 
C 966 2163 973 2157 1101 2157 
L 1414 2157 
z
" transform="scale(0.015625)"/>
       </defs>
       <use xlink:href="#CMR17-32" transform="scale(0.996264)"/>
       <use xlink:href="#CMR17-30" transform="translate(45.690477 0) scale(0.996264)"/>
       <use xlink:href="#CMR17-32" transform="translate(91.380954 0) scale(0.996264)"/>
       <use xlink:href="#CMR17-33" transform="translate(137.071431 0) scale(0.996264)"/>
      </g>
     </g>
    </g>
    <g id="text_10">
     <!-- Date -->
     <g style="fill: #696969" transform="translate(724.095924 642.187548) scale(0.1 -0.1)">
      <defs>
       <path id="CMR17-44" d="M 333 4352 
L 333 4186 
C 774 4186 845 4186 845 3900 
L 845 452 
C 845 166 774 166 333 166 
L 333 0 
L 2368 0 
C 3398 0 4224 943 4224 2141 
C 4224 3346 3411 4352 2368 4352 
L 333 4352 
z
M 1523 166 
C 1267 166 1254 197 1254 414 
L 1254 3938 
C 1254 4155 1267 4186 1523 4186 
L 2240 4186 
C 2771 4186 3750 3874 3750 2141 
C 3750 1242 3488 879 3366 707 
C 3213 510 2848 166 2240 166 
L 1523 166 
z
" transform="scale(0.015625)"/>
       <path id="CMR17-61" d="M 2304 1653 
C 2304 2072 2304 2294 2035 2543 
C 1798 2752 1523 2816 1306 2816 
C 800 2816 435 2407 435 1971 
C 435 1728 627 1728 666 1728 
C 749 1728 896 1778 896 1954 
C 896 2112 774 2181 666 2181 
C 640 2181 608 2174 589 2168 
C 723 2592 1069 2714 1293 2714 
C 1613 2714 1965 2429 1965 1885 
L 1965 1600 
C 1587 1600 1133 1549 774 1357 
C 371 1133 256 813 256 570 
C 256 77 832 -64 1171 -64 
C 1523 -64 1850 139 1990 511 
C 2003 233 2182 -18 2464 -18 
C 2598 -18 2938 70 2938 567 
L 2938 920 
L 2822 920 
L 2822 562 
C 2822 178 2650 128 2566 128 
C 2304 128 2304 458 2304 738 
L 2304 1653 
z
M 1965 870 
C 1965 317 1568 38 1216 38 
C 896 38 646 275 646 570 
C 646 761 730 1100 1101 1305 
C 1408 1478 1760 1504 1965 1504 
L 1965 870 
z
" transform="scale(0.015625)"/>
       <path id="CMR17-74" d="M 966 2560 
L 1862 2560 
L 1862 2725 
L 966 2725 
L 966 3904 
L 851 3904 
C 838 3245 614 2668 70 2668 
L 70 2560 
L 627 2560 
L 627 771 
C 627 650 627 -64 1370 -64 
C 1747 -64 1965 306 1965 777 
L 1965 1140 
L 1850 1140 
L 1850 783 
C 1850 344 1677 51 1408 51 
C 1222 51 966 178 966 758 
L 966 2560 
z
" transform="scale(0.015625)"/>
       <path id="CMR17-65" d="M 2438 1472 
C 2464 1498 2464 1511 2464 1576 
C 2464 2238 2118 2816 1389 2816 
C 710 2816 173 2169 173 1383 
C 173 551 781 -64 1459 -64 
C 2176 -64 2458 607 2458 740 
C 2458 784 2419 784 2406 784 
C 2362 784 2355 771 2330 696 
C 2189 265 1837 51 1504 51 
C 1229 51 954 203 781 480 
C 582 803 582 1176 582 1472 
L 2438 1472 
z
M 589 1568 
C 634 2505 1126 2714 1382 2714 
C 1818 2714 2112 2297 2118 1568 
L 589 1568 
z
" transform="scale(0.015625)"/>
      </defs>
      <use xlink:href="#CMR17-44" transform="scale(0.996264)"/>
      <use xlink:href="#CMR17-61" transform="translate(70.393556 0) scale(0.996264)"/>
      <use xlink:href="#CMR17-74" transform="translate(116.084033 0) scale(0.996264)"/>
      <use xlink:href="#CMR17-65" transform="translate(151.364801 0) scale(0.996264)"/>
     </g>
    </g>
   </g>
   <g id="matplotlib.axis_2">
    <g id="ytick_1">
     <g id="line2d_10">
      <path d="M 32.085996 563.448433 
L 1436.99976 563.448433 
" clip-path="url(#pfb9a1d984a)" style="fill: none; stroke: #cccccc; stroke-opacity: 0.5; stroke-width: 0.8; stroke-linecap: round"/>
     </g>
     <g id="text_11">
      <!-- $\mathdefault{−3}$ -->
      <g transform="translate(15.855917 566.907682) scale(0.1 -0.1)">
       <defs>
        <path id="CMSY10-0" d="M 4218 1472 
C 4326 1472 4442 1472 4442 1600 
C 4442 1728 4326 1728 4218 1728 
L 755 1728 
C 646 1728 531 1728 531 1600 
C 531 1472 646 1472 755 1472 
L 4218 1472 
z
" transform="scale(0.015625)"/>
       </defs>
       <use xlink:href="#CMSY10-0" transform="scale(0.996264)"/>
       <use xlink:href="#CMR17-33" transform="translate(77.487468 0) scale(0.996264)"/>
      </g>
     </g>
    </g>
    <g id="ytick_2">
     <g id="line2d_11">
      <path d="M 32.085996 480.14635 
L 1436.99976 480.14635 
" clip-path="url(#pfb9a1d984a)" style="fill: none; stroke: #cccccc; stroke-opacity: 0.5; stroke-width: 0.8; stroke-linecap: round"/>
     </g>
     <g id="text_12">
      <!-- $\mathdefault{−2}$ -->
      <g transform="translate(15.855917 483.605599) scale(0.1 -0.1)">
       <use xlink:href="#CMSY10-0" transform="scale(0.996264)"/>
       <use xlink:href="#CMR17-32" transform="translate(77.487468 0) scale(0.996264)"/>
      </g>
     </g>
    </g>
    <g id="ytick_3">
     <g id="line2d_12">
      <path d="M 32.085996 396.844267 
L 1436.99976 396.844267 
" clip-path="url(#pfb9a1d984a)" style="fill: none; stroke: #cccccc; stroke-opacity: 0.5; stroke-width: 0.8; stroke-linecap: round"/>
     </g>
     <g id="text_13">
      <!-- $\mathdefault{−1}$ -->
      <g transform="translate(15.855917 400.303516) scale(0.1 -0.1)">
       <use xlink:href="#CMSY10-0" transform="scale(0.996264)"/>
       <use xlink:href="#CMR17-31" transform="translate(77.487468 0) scale(0.996264)"/>
      </g>
     </g>
    </g>
    <g id="ytick_4">
     <g id="line2d_13">
      <path d="M 32.085996 313.542184 
L 1436.99976 313.542184 
" clip-path="url(#pfb9a1d984a)" style="fill: none; stroke: #cccccc; stroke-opacity: 0.5; stroke-width: 0.8; stroke-linecap: round"/>
     </g>
     <g id="text_14">
      <!-- $\mathdefault{0}$ -->
      <g transform="translate(23.60466 317.001433) scale(0.1 -0.1)">
       <use xlink:href="#CMR17-30" transform="scale(0.996264)"/>
      </g>
     </g>
    </g>
    <g id="ytick_5">
     <g id="line2d_14">
      <path d="M 32.085996 230.2401 
L 1436.99976 230.2401 
" clip-path="url(#pfb9a1d984a)" style="fill: none; stroke: #cccccc; stroke-opacity: 0.5; stroke-width: 0.8; stroke-linecap: round"/>
     </g>
     <g id="text_15">
      <!-- $\mathdefault{1}$ -->
      <g transform="translate(23.60466 233.69935) scale(0.1 -0.1)">
       <use xlink:href="#CMR17-31" transform="scale(0.996264)"/>
      </g>
     </g>
    </g>
    <g id="ytick_6">
     <g id="line2d_15">
      <path d="M 32.085996 146.938017 
L 1436.99976 146.938017 
" clip-path="url(#pfb9a1d984a)" style="fill: none; stroke: #cccccc; stroke-opacity: 0.5; stroke-width: 0.8; stroke-linecap: round"/>
     </g>
     <g id="text_16">
      <!-- $\mathdefault{2}$ -->
      <g transform="translate(23.60466 150.397266) scale(0.1 -0.1)">
       <use xlink:href="#CMR17-32" transform="scale(0.996264)"/>
      </g>
     </g>
    </g>
    <g id="ytick_7">
     <g id="line2d_16">
      <path d="M 32.085996 63.635934 
L 1436.99976 63.635934 
" clip-path="url(#pfb9a1d984a)" style="fill: none; stroke: #cccccc; stroke-opacity: 0.5; stroke-width: 0.8; stroke-linecap: round"/>
     </g>
     <g id="text_17">
      <!-- $\mathdefault{3}$ -->
      <g transform="translate(23.60466 67.095183) scale(0.1 -0.1)">
       <use xlink:href="#CMR17-33" transform="scale(0.996264)"/>
      </g>
     </g>
    </g>
    <g id="text_18">
     <!-- Total Contribution -->
     <g style="fill: #696969" transform="translate(9.918738 359.356086) rotate(-90) scale(0.1 -0.1)">
      <defs>
       <path id="CMR17-54" d="M 3981 4326 
L 288 4326 
L 179 2918 
L 294 2918 
C 378 3976 467 4160 1453 4160 
C 1568 4160 1754 4160 1805 4154 
C 1926 4135 1926 4058 1926 3912 
L 1926 459 
C 1926 230 1907 160 1376 160 
L 1197 160 
L 1197 0 
C 1504 0 1824 0 2138 0 
C 2451 0 2771 0 3078 0 
L 3078 160 
L 2899 160 
C 2368 160 2349 230 2349 459 
L 2349 3912 
C 2349 4052 2349 4129 2464 4154 
C 2515 4160 2701 4160 2816 4160 
C 3795 4160 3891 3976 3974 2918 
L 4090 2918 
L 3981 4326 
z
" transform="scale(0.015625)"/>
       <path id="CMR17-6f" d="M 2758 1356 
C 2758 2176 2163 2816 1466 2816 
C 768 2816 173 2176 173 1356 
C 173 551 768 -64 1466 -64 
C 2163 -64 2758 551 2758 1356 
z
M 1466 51 
C 1165 51 909 230 762 480 
C 602 767 582 1126 582 1408 
C 582 1677 595 2010 762 2298 
C 890 2509 1139 2714 1466 2714 
C 1754 2714 1997 2554 2150 2330 
C 2349 2029 2349 1607 2349 1408 
C 2349 1158 2336 775 2163 467 
C 1984 173 1709 51 1466 51 
z
" transform="scale(0.015625)"/>
       <path id="CMR17-6c" d="M 979 4396 
L 218 4326 
L 218 4160 
C 595 4160 653 4122 653 3817 
L 653 426 
C 653 184 627 153 218 153 
L 218 -13 
C 371 0 653 0 813 0 
C 979 0 1261 0 1414 -13 
L 1414 153 
C 1005 153 979 178 979 426 
L 979 4396 
z
" transform="scale(0.015625)"/>
       <path id="CMR17-43" d="M 3974 4289 
C 3974 4403 3968 4410 3930 4410 
C 3904 4410 3898 4403 3853 4327 
L 3571 3792 
C 3258 4187 2874 4416 2381 4416 
C 1286 4416 294 3456 294 2148 
C 294 826 1286 -128 2387 -128 
C 3366 -128 3974 730 3974 1461 
C 3974 1524 3974 1550 3917 1550 
C 3866 1550 3866 1531 3859 1474 
C 3808 585 3168 38 2477 38 
C 1824 38 781 495 781 2147 
C 781 3805 1843 4250 2464 4250 
C 3187 4250 3712 3628 3834 2745 
C 3846 2668 3846 2655 3904 2655 
C 3974 2655 3974 2668 3974 2783 
L 3974 4289 
z
" transform="scale(0.015625)"/>
       <path id="CMR17-6e" d="M 2656 1933 
C 2656 2259 2592 2790 1837 2790 
C 1331 2790 1069 2400 973 2144 
L 966 2144 
L 966 2790 
L 211 2720 
L 211 2554 
C 589 2554 646 2515 646 2208 
L 646 428 
C 646 184 621 153 211 153 
L 211 -13 
C 365 0 646 0 813 0 
C 979 0 1267 0 1421 -13 
L 1421 153 
C 1011 153 986 178 986 428 
L 986 1658 
C 986 2247 1344 2688 1792 2688 
C 2266 2688 2317 2266 2317 1958 
L 2317 428 
C 2317 184 2291 153 1882 153 
L 1882 -13 
C 2035 0 2317 0 2483 0 
C 2650 0 2938 0 3091 -13 
L 3091 153 
C 2682 153 2656 178 2656 428 
L 2656 1933 
z
" transform="scale(0.015625)"/>
       <path id="CMR17-72" d="M 960 1497 
C 960 2112 1222 2688 1702 2688 
C 1747 2688 1792 2682 1837 2662 
C 1837 2662 1696 2617 1696 2452 
C 1696 2298 1818 2234 1914 2234 
C 1990 2234 2131 2279 2131 2458 
C 2131 2663 1926 2790 1709 2790 
C 1222 2790 1011 2317 947 2093 
L 941 2093 
L 941 2790 
L 198 2720 
L 198 2554 
C 576 2554 634 2515 634 2208 
L 634 428 
C 634 184 608 153 198 153 
L 198 -13 
C 352 0 646 0 813 0 
C 998 0 1325 0 1498 -13 
L 1498 153 
C 1037 153 960 153 960 440 
L 960 1497 
z
" transform="scale(0.015625)"/>
       <path id="CMR17-69" d="M 992 3909 
C 992 4049 877 4170 730 4170 
C 589 4170 467 4056 467 3909 
C 467 3769 582 3648 730 3648 
C 870 3648 992 3763 992 3909 
z
M 243 2706 
L 243 2541 
C 602 2541 653 2502 653 2197 
L 653 427 
C 653 184 627 153 218 153 
L 218 -13 
C 371 0 646 0 806 0 
C 960 0 1222 0 1370 -13 
L 1370 153 
C 992 153 979 191 979 420 
L 979 2776 
L 243 2706 
z
" transform="scale(0.015625)"/>
       <path id="CMR17-62" d="M 960 4396 
L 198 4326 
L 198 4160 
C 576 4160 634 4122 634 3817 
L 634 -13 
L 749 -13 
L 934 441 
C 1120 141 1395 -64 1766 -64 
C 2406 -64 3053 500 3053 1370 
C 3053 2188 2477 2790 1830 2790 
C 1434 2790 1152 2579 960 2330 
L 960 4396 
z
M 973 2004 
C 973 2118 973 2138 1062 2272 
C 1312 2657 1670 2688 1792 2688 
C 1984 2688 2643 2585 2643 1376 
C 2643 108 1888 38 1734 38 
C 1536 38 1248 114 1043 486 
C 973 608 973 621 973 735 
L 973 2004 
z
" transform="scale(0.015625)"/>
       <path id="CMR17-75" d="M 1882 2693 
L 1882 2528 
C 2259 2528 2317 2489 2317 2186 
L 2317 1032 
C 2317 500 2029 38 1555 38 
C 1030 38 986 348 986 678 
L 986 2763 
L 211 2693 
L 211 2528 
C 467 2528 640 2528 646 2274 
L 646 1058 
C 646 633 646 361 813 183 
C 896 101 1056 -64 1517 -64 
C 2061 -64 2272 377 2323 506 
L 2330 506 
L 2330 -63 
L 3091 -63 
L 3091 128 
C 2714 128 2656 166 2656 473 
L 2656 2763 
L 1882 2693 
z
" transform="scale(0.015625)"/>
      </defs>
      <use xlink:href="#CMR17-54" transform="scale(0.996264)"/>
      <use xlink:href="#CMR17-6f" transform="translate(58.702625 0) scale(0.996264)"/>
      <use xlink:href="#CMR17-74" transform="translate(104.393102 0) scale(0.996264)"/>
      <use xlink:href="#CMR17-61" transform="translate(139.67387 0) scale(0.996264)"/>
      <use xlink:href="#CMR17-6c" transform="translate(185.364347 0) scale(0.996264)"/>
      <use xlink:href="#CMR17-43" transform="translate(240.311372 0) scale(0.996264)"/>
      <use xlink:href="#CMR17-6f" transform="translate(306.821253 0) scale(0.996264)"/>
      <use xlink:href="#CMR17-6e" transform="translate(352.51173 0) scale(0.996264)"/>
      <use xlink:href="#CMR17-74" transform="translate(400.804646 0) scale(0.996264)"/>
      <use xlink:href="#CMR17-72" transform="translate(436.085413 0) scale(0.996264)"/>
      <use xlink:href="#CMR17-69" transform="translate(471.366181 0) scale(0.996264)"/>
      <use xlink:href="#CMR17-62" transform="translate(496.23724 0) scale(0.996264)"/>
      <use xlink:href="#CMR17-75" transform="translate(547.132609 0) scale(0.996264)"/>
      <use xlink:href="#CMR17-74" transform="translate(598.027979 0) scale(0.996264)"/>
      <use xlink:href="#CMR17-69" transform="translate(633.308747 0) scale(0.996264)"/>
      <use xlink:href="#CMR17-6f" transform="translate(658.179805 0) scale(0.996264)"/>
      <use xlink:href="#CMR17-6e" transform="translate(703.870283 0) scale(0.996264)"/>
     </g>
    </g>
   </g>
   <g id="line2d_17">
    <path d="M 95.945712 308.391598 
L 107.586806 315.560877 
L 120.475161 296.025443 
L 145.836116 313.784638 
L 158.308717 304.370393 
L 171.197071 311.323766 
L 171.197071 311.323766 
L 184.085425 303.008628 
L 184.085425 303.008628 
L 196.558026 312.971968 
L 196.558026 312.971968 
L 209.44638 385.636382 
L 209.44638 385.636382 
L 221.918981 106.202216 
L 221.918981 106.202216 
L 234.807335 302.466679 
L 234.807335 302.466679 
L 247.69569 296.964069 
L 247.69569 296.964069 
L 259.752537 310.113601 
L 259.752537 310.113601 
L 272.640892 309.184176 
L 272.640892 309.184176 
L 285.113492 312.162425 
L 285.113492 312.162425 
L 298.001847 328.551837 
L 298.001847 328.551837 
L 310.474448 315.356094 
L 310.474448 315.356094 
L 323.362802 345.169126 
L 323.362802 345.169126 
L 336.251156 331.678972 
L 336.251156 331.678972 
L 348.723757 286.227016 
L 348.723757 286.227016 
L 361.612111 253.83635 
L 361.612111 253.83635 
L 374.084712 282.236718 
L 374.084712 282.236718 
L 386.973066 317.981099 
L 386.973066 317.981099 
L 399.861421 202.068627 
L 399.861421 202.068627 
L 411.502515 364.744027 
L 411.502515 364.744027 
L 424.390869 241.196505 
L 424.390869 241.196505 
L 436.86347 292.609438 
L 436.86347 292.609438 
L 449.751824 280.850461 
L 449.751824 280.850461 
L 462.224425 401.12776 
L 462.224425 401.12776 
L 475.112779 318.173614 
L 475.112779 318.173614 
L 488.001134 351.066831 
L 488.001134 351.066831 
L 500.473734 279.69168 
L 500.473734 279.69168 
L 513.362089 373.374612 
L 513.362089 373.374612 
L 525.83469 303.897393 
L 525.83469 303.897393 
L 538.723044 44.648372 
L 538.723044 44.648372 
L 551.611398 306.310075 
L 551.611398 306.310075 
L 563.252492 313.715793 
L 563.252492 313.715793 
L 576.140847 327.735602 
L 576.140847 327.735602 
L 588.613447 287.256433 
L 588.613447 287.256433 
L 601.501802 330.746793 
L 601.501802 330.746793 
L 613.974403 264.191975 
L 613.974403 264.191975 
L 626.862757 377.427268 
L 626.862757 377.427268 
L 639.751111 307.143192 
L 639.751111 307.143192 
L 652.223712 345.074157 
L 652.223712 345.074157 
L 665.112066 309.670029 
L 665.112066 309.670029 
L 677.584667 308.07053 
L 677.584667 308.07053 
L 690.473021 297.679926 
L 690.473021 297.679926 
L 703.361376 323.58614 
L 703.361376 323.58614 
L 715.00247 331.998594 
L 715.00247 331.998594 
L 727.890824 262.876072 
L 727.890824 262.876072 
L 740.363425 290.679111 
L 740.363425 290.679111 
L 753.251779 320.548703 
L 753.251779 320.548703 
L 765.72438 295.351203 
L 765.72438 295.351203 
L 778.612734 325.736234 
L 778.612734 325.736234 
L 791.501089 314.034577 
L 791.501089 314.034577 
L 803.973689 312.625711 
L 803.973689 312.625711 
L 816.862044 302.883795 
L 816.862044 302.883795 
L 829.334645 324.383315 
L 842.222999 313.886314 
L 842.222999 313.886314 
L 855.111353 309.714213 
L 855.111353 309.714213 
L 867.168201 230.490693 
L 867.168201 230.490693 
L 880.056555 296.593625 
L 880.056555 296.593625 
L 892.529156 306.204774 
L 892.529156 306.204774 
L 905.41751 335.326533 
L 905.41751 335.326533 
L 917.890111 221.695533 
L 917.890111 221.695533 
L 930.778465 375.449234 
L 930.778465 375.449234 
L 943.666819 270.834958 
L 943.666819 270.834958 
L 956.13942 325.07165 
L 956.13942 325.07165 
L 969.027775 294.301581 
L 969.027775 294.301581 
L 981.500375 310.619985 
L 981.500375 310.619985 
L 994.38873 303.353698 
L 994.38873 303.353698 
L 1007.277084 254.67516 
L 1007.277084 254.67516 
L 1018.918178 329.735068 
L 1018.918178 329.735068 
L 1031.806532 296.957626 
L 1031.806532 296.957626 
L 1044.279133 305.723659 
L 1044.279133 305.723659 
L 1057.167488 238.667972 
L 1057.167488 238.667972 
L 1069.640088 250.22642 
L 1069.640088 250.22642 
L 1082.528443 337.066973 
L 1082.528443 337.066973 
L 1095.416797 591.56742 
L 1095.416797 591.56742 
L 1107.889398 192.672027 
L 1107.889398 192.672027 
L 1120.777752 332.339738 
L 1120.777752 332.339738 
L 1133.250353 316.686926 
L 1133.250353 316.686926 
L 1146.138707 326.577336 
L 1146.138707 326.577336 
L 1159.027061 313.282404 
L 1159.027061 313.282404 
L 1170.668156 285.686024 
L 1170.668156 285.686024 
L 1183.55651 300.114103 
L 1183.55651 300.114103 
L 1196.029111 534.770425 
L 1196.029111 534.770425 
L 1208.917465 313.008996 
L 1208.917465 313.008996 
L 1221.390066 304.807584 
L 1221.390066 304.807584 
L 1247.166774 276.752646 
L 1247.166774 276.752646 
L 1259.639375 179.334678 
L 1259.639375 179.334678 
L 1272.52773 286.117017 
L 1272.52773 286.117017 
L 1285.00033 294.253021 
L 1285.00033 294.253021 
L 1297.888685 322.962812 
L 1310.777039 315.706513 
L 1322.418133 313.542183 
L 1335.306487 304.50736 
L 1335.306487 304.50736 
L 1347.779088 309.208018 
L 1360.667443 313.812499 
L 1373.140043 313.912389 
L 1373.140043 313.912389 
" clip-path="url(#pfb9a1d984a)" style="fill: none; stroke: #006e64; stroke-width: 1.5; stroke-linecap: round"/>
   </g>
   <g id="line2d_18">
    <path d="M 95.945712 307.701166 
L 107.586806 309.473437 
L 120.475161 312.215984 
L 145.836116 309.179894 
L 158.308717 308.372199 
L 171.197071 301.171814 
L 171.197071 301.171814 
L 184.085425 301.355036 
L 184.085425 301.355036 
L 196.558026 307.093071 
L 196.558026 307.093071 
L 209.44638 303.299541 
L 209.44638 303.299541 
L 221.918981 307.81003 
L 221.918981 307.81003 
L 234.807335 287.592135 
L 234.807335 287.592135 
L 247.69569 304.190349 
L 247.69569 304.190349 
L 259.752537 305.65591 
L 259.752537 305.65591 
L 272.640892 315.302257 
L 272.640892 315.302257 
L 285.113492 283.052845 
L 285.113492 283.052845 
L 298.001847 304.116375 
L 298.001847 304.116375 
L 310.474448 296.606655 
L 310.474448 296.606655 
L 323.362802 298.855367 
L 323.362802 298.855367 
L 336.251156 300.020285 
L 336.251156 300.020285 
L 348.723757 304.286039 
L 348.723757 304.286039 
L 361.612111 298.800121 
L 361.612111 298.800121 
L 374.084712 301.917349 
L 374.084712 301.917349 
L 386.973066 308.730224 
L 386.973066 308.730224 
L 399.861421 310.943334 
L 399.861421 310.943334 
L 411.502515 284.295121 
L 411.502515 284.295121 
L 424.390869 308.010496 
L 424.390869 308.010496 
L 436.86347 305.613915 
L 436.86347 305.613915 
L 449.751824 288.498678 
L 449.751824 288.498678 
L 462.224425 295.97972 
L 462.224425 295.97972 
L 475.112779 294.150271 
L 475.112779 294.150271 
L 488.001134 304.116048 
L 488.001134 304.116048 
L 500.473734 296.899026 
L 500.473734 296.899026 
L 513.362089 291.784671 
L 513.362089 291.784671 
L 525.83469 294.929972 
L 525.83469 294.929972 
L 538.723044 281.595979 
L 538.723044 281.595979 
L 551.611398 298.446695 
L 551.611398 298.446695 
L 563.252492 309.277309 
L 563.252492 309.277309 
L 576.140847 307.448166 
L 576.140847 307.448166 
L 588.613447 303.319549 
L 588.613447 303.319549 
L 601.501802 302.129273 
L 601.501802 302.129273 
L 613.974403 292.239985 
L 613.974403 292.239985 
L 626.862757 293.275289 
L 626.862757 293.275289 
L 639.751111 285.911974 
L 639.751111 285.911974 
L 652.223712 306.962912 
L 652.223712 306.962912 
L 665.112066 294.664739 
L 665.112066 294.664739 
L 677.584667 309.311051 
L 677.584667 309.311051 
L 690.473021 303.167406 
L 690.473021 303.167406 
L 703.361376 307.814623 
L 703.361376 307.814623 
L 715.00247 297.208309 
L 715.00247 297.208309 
L 727.890824 289.194858 
L 727.890824 289.194858 
L 740.363425 295.601049 
L 740.363425 295.601049 
L 753.251779 309.082426 
L 753.251779 309.082426 
L 765.72438 312.609229 
L 765.72438 312.609229 
L 778.612734 313.187205 
L 778.612734 313.187205 
L 791.501089 303.765677 
L 791.501089 303.765677 
L 803.973689 297.202295 
L 803.973689 297.202295 
L 816.862044 305.720486 
L 816.862044 305.720486 
L 829.334645 311.407915 
L 842.222999 319.430616 
L 842.222999 319.430616 
L 855.111353 305.828821 
L 855.111353 305.828821 
L 867.168201 310.620137 
L 867.168201 310.620137 
L 880.056555 322.059345 
L 880.056555 322.059345 
L 892.529156 320.687834 
L 892.529156 320.687834 
L 905.41751 314.87606 
L 905.41751 314.87606 
L 917.890111 310.998513 
L 917.890111 310.998513 
L 930.778465 304.354454 
L 930.778465 304.354454 
L 943.666819 314.543236 
L 943.666819 314.543236 
L 956.13942 312.593664 
L 956.13942 312.593664 
L 969.027775 302.255932 
L 969.027775 302.255932 
L 981.500375 308.36563 
L 981.500375 308.36563 
L 994.38873 307.253308 
L 994.38873 307.253308 
L 1007.277084 312.223453 
L 1007.277084 312.223453 
L 1018.918178 302.277304 
L 1018.918178 302.277304 
L 1031.806532 301.246654 
L 1031.806532 301.246654 
L 1044.279133 300.589073 
L 1044.279133 300.589073 
L 1057.167488 304.436971 
L 1057.167488 304.436971 
L 1069.640088 292.26436 
L 1069.640088 292.26436 
L 1082.528443 297.271707 
L 1082.528443 297.271707 
L 1095.416797 303.687462 
L 1095.416797 303.687462 
L 1107.889398 287.495078 
L 1107.889398 287.495078 
L 1120.777752 309.874278 
L 1120.777752 309.874278 
L 1133.250353 306.353185 
L 1133.250353 306.353185 
L 1146.138707 317.975109 
L 1146.138707 317.975109 
L 1159.027061 306.603766 
L 1159.027061 306.603766 
L 1170.668156 312.405297 
L 1170.668156 312.405297 
L 1183.55651 311.661484 
L 1183.55651 311.661484 
L 1196.029111 310.783254 
L 1196.029111 310.783254 
L 1208.917465 305.328151 
L 1208.917465 305.328151 
L 1221.390066 310.877226 
L 1221.390066 310.877226 
L 1247.166774 311.026568 
L 1247.166774 311.026568 
L 1259.639375 317.157156 
L 1259.639375 317.157156 
L 1272.52773 314.030591 
L 1272.52773 314.030591 
L 1285.00033 315.853576 
L 1285.00033 315.853576 
L 1297.888685 313.911989 
L 1310.777039 314.336711 
L 1322.418133 314.154611 
L 1335.306487 312.840968 
L 1335.306487 312.840968 
L 1347.779088 310.82137 
L 1347.779088 310.82137 
L 1360.667443 314.792292 
L 1373.140043 314.597916 
L 1373.140043 314.597916 
" clip-path="url(#pfb9a1d984a)" style="fill: none; stroke: #734848; stroke-width: 1.5; stroke-linecap: round"/>
   </g>
   <g id="line2d_19">
    <path d="M 95.945712 318.67267 
L 107.586806 310.749017 
L 120.475161 312.10455 
L 145.836116 308.895813 
L 158.308717 308.196939 
L 171.197071 304.529761 
L 171.197071 304.529761 
L 184.085425 289.675126 
L 184.085425 289.675126 
L 196.558026 308.820574 
L 196.558026 308.820574 
L 209.44638 300.211562 
L 209.44638 300.211562 
L 221.918981 302.935887 
L 221.918981 302.935887 
L 234.807335 287.306889 
L 234.807335 287.306889 
L 247.69569 300.906173 
L 247.69569 300.906173 
L 259.752537 310.173676 
L 259.752537 310.173676 
L 272.640892 316.108738 
L 285.113492 288.864046 
L 285.113492 288.864046 
L 298.001847 299.642869 
L 298.001847 299.642869 
L 310.474448 300.489946 
L 310.474448 300.489946 
L 323.362802 292.374762 
L 323.362802 292.374762 
L 336.251156 299.410935 
L 336.251156 299.410935 
L 348.723757 293.535811 
L 348.723757 293.535811 
L 361.612111 300.841466 
L 361.612111 300.841466 
L 374.084712 301.778118 
L 374.084712 301.778118 
L 386.973066 306.20448 
L 386.973066 306.20448 
L 399.861421 316.340084 
L 399.861421 316.340084 
L 411.502515 287.973244 
L 411.502515 287.973244 
L 424.390869 303.011711 
L 424.390869 303.011711 
L 436.86347 306.043945 
L 436.86347 306.043945 
L 449.751824 282.963146 
L 449.751824 282.963146 
L 462.224425 303.764367 
L 462.224425 303.764367 
L 475.112779 300.253609 
L 475.112779 300.253609 
L 488.001134 302.808492 
L 488.001134 302.808492 
L 500.473734 298.740636 
L 500.473734 298.740636 
L 513.362089 291.983155 
L 513.362089 291.983155 
L 525.83469 296.098273 
L 525.83469 296.098273 
L 538.723044 288.235202 
L 538.723044 288.235202 
L 551.611398 300.604879 
L 551.611398 300.604879 
L 563.252492 308.110034 
L 563.252492 308.110034 
L 576.140847 306.018527 
L 576.140847 306.018527 
L 588.613447 311.191671 
L 588.613447 311.191671 
L 601.501802 294.022986 
L 601.501802 294.022986 
L 613.974403 303.877626 
L 613.974403 303.877626 
L 626.862757 294.11248 
L 626.862757 294.11248 
L 639.751111 287.692918 
L 639.751111 287.692918 
L 652.223712 312.320067 
L 652.223712 312.320067 
L 665.112066 296.303297 
L 665.112066 296.303297 
L 677.584667 313.488034 
L 677.584667 313.488034 
L 690.473021 299.943013 
L 690.473021 299.943013 
L 703.361376 305.092025 
L 703.361376 305.092025 
L 715.00247 294.207892 
L 715.00247 294.207892 
L 727.890824 295.684918 
L 727.890824 295.684918 
L 740.363425 292.873416 
L 740.363425 292.873416 
L 753.251779 319.176921 
L 753.251779 319.176921 
L 765.72438 307.777887 
L 765.72438 307.777887 
L 778.612734 311.741364 
L 778.612734 311.741364 
L 791.501089 313.058095 
L 791.501089 313.058095 
L 803.973689 300.221451 
L 803.973689 300.221451 
L 816.862044 303.065359 
L 816.862044 303.065359 
L 829.334645 311.627078 
L 842.222999 316.490364 
L 842.222999 316.490364 
L 855.111353 312.412826 
L 855.111353 312.412826 
L 867.168201 315.774974 
L 867.168201 315.774974 
L 880.056555 328.220553 
L 880.056555 328.220553 
L 892.529156 321.477759 
L 892.529156 321.477759 
L 905.41751 321.25949 
L 905.41751 321.25949 
L 917.890111 308.441547 
L 917.890111 308.441547 
L 930.778465 303.360528 
L 930.778465 303.360528 
L 943.666819 305.796372 
L 943.666819 305.796372 
L 956.13942 318.353187 
L 956.13942 318.353187 
L 969.027775 300.226965 
L 969.027775 300.226965 
L 981.500375 325.228238 
L 981.500375 325.228238 
L 994.38873 308.617117 
L 994.38873 308.617117 
L 1007.277084 338.469544 
L 1007.277084 338.469544 
L 1018.918178 301.899588 
L 1018.918178 301.899588 
L 1031.806532 298.032255 
L 1031.806532 298.032255 
L 1044.279133 302.34884 
L 1044.279133 302.34884 
L 1057.167488 310.29196 
L 1057.167488 310.29196 
L 1069.640088 295.746618 
L 1069.640088 295.746618 
L 1082.528443 297.758312 
L 1082.528443 297.758312 
L 1095.416797 308.570134 
L 1095.416797 308.570134 
L 1107.889398 295.532264 
L 1107.889398 295.532264 
L 1120.777752 311.181384 
L 1120.777752 311.181384 
L 1133.250353 302.270723 
L 1133.250353 302.270723 
L 1146.138707 309.044981 
L 1146.138707 309.044981 
L 1159.027061 305.03367 
L 1159.027061 305.03367 
L 1170.668156 315.376172 
L 1170.668156 315.376172 
L 1183.55651 307.770408 
L 1183.55651 307.770408 
L 1196.029111 309.635675 
L 1196.029111 309.635675 
L 1208.917465 318.144823 
L 1208.917465 318.144823 
L 1221.390066 309.859128 
L 1221.390066 309.859128 
L 1247.166774 323.597942 
L 1247.166774 323.597942 
L 1259.639375 306.440813 
L 1259.639375 306.440813 
L 1272.52773 311.997379 
L 1272.52773 311.997379 
L 1285.00033 317.544985 
L 1285.00033 317.544985 
L 1297.888685 315.760193 
L 1310.777039 317.023909 
L 1322.418133 314.471267 
L 1335.306487 316.878151 
L 1335.306487 316.878151 
L 1347.779088 311.156368 
L 1347.779088 311.156368 
L 1360.667443 315.324301 
L 1373.140043 316.482755 
L 1373.140043 316.482755 
" clip-path="url(#pfb9a1d984a)" style="fill: none; stroke: #004e4a; stroke-width: 1.5; stroke-linecap: round"/>
   </g>
   <g id="line2d_20">
    <path d="M 95.945712 318.133386 
L 107.586806 310.669562 
L 120.475161 312.212987 
L 145.836116 301.50627 
L 158.308717 307.366063 
L 171.197071 343.203197 
L 171.197071 343.203197 
L 184.085425 302.555069 
L 184.085425 302.555069 
L 196.558026 307.890601 
L 196.558026 307.890601 
L 209.44638 291.37948 
L 209.44638 291.37948 
L 221.918981 286.858205 
L 221.918981 286.858205 
L 234.807335 286.091468 
L 234.807335 286.091468 
L 247.69569 299.517978 
L 247.69569 299.517978 
L 259.752537 300.81934 
L 259.752537 300.81934 
L 272.640892 307.752942 
L 272.640892 307.752942 
L 285.113492 287.100619 
L 285.113492 287.100619 
L 298.001847 299.234473 
L 298.001847 299.234473 
L 310.474448 289.666011 
L 310.474448 289.666011 
L 323.362802 295.009637 
L 323.362802 295.009637 
L 336.251156 301.616847 
L 336.251156 301.616847 
L 348.723757 300.98801 
L 348.723757 300.98801 
L 361.612111 306.799904 
L 361.612111 306.799904 
L 374.084712 305.760843 
L 374.084712 305.760843 
L 386.973066 304.344119 
L 386.973066 304.344119 
L 399.861421 307.260836 
L 399.861421 307.260836 
L 411.502515 291.772003 
L 411.502515 291.772003 
L 424.390869 295.772781 
L 424.390869 295.772781 
L 436.86347 301.611155 
L 436.86347 301.611155 
L 449.751824 289.482841 
L 449.751824 289.482841 
L 462.224425 294.740538 
L 462.224425 294.740538 
L 475.112779 294.713142 
L 475.112779 294.713142 
L 488.001134 303.052586 
L 488.001134 303.052586 
L 500.473734 296.731669 
L 500.473734 296.731669 
L 513.362089 298.37545 
L 513.362089 298.37545 
L 525.83469 306.729419 
L 525.83469 306.729419 
L 538.723044 281.967635 
L 538.723044 281.967635 
L 551.611398 311.493092 
L 551.611398 311.493092 
L 563.252492 314.352873 
L 563.252492 314.352873 
L 576.140847 304.219569 
L 576.140847 304.219569 
L 588.613447 308.068254 
L 588.613447 308.068254 
L 601.501802 284.953131 
L 601.501802 284.953131 
L 613.974403 305.014231 
L 613.974403 305.014231 
L 626.862757 290.574811 
L 626.862757 290.574811 
L 639.751111 304.643977 
L 639.751111 304.643977 
L 652.223712 307.467758 
L 652.223712 307.467758 
L 665.112066 293.480754 
L 665.112066 293.480754 
L 677.584667 306.877159 
L 677.584667 306.877159 
L 690.473021 298.987854 
L 690.473021 298.987854 
L 703.361376 307.19578 
L 703.361376 307.19578 
L 715.00247 305.56434 
L 715.00247 305.56434 
L 727.890824 278.09318 
L 727.890824 278.09318 
L 740.363425 300.612383 
L 740.363425 300.612383 
L 753.251779 306.580434 
L 753.251779 306.580434 
L 765.72438 290.438393 
L 765.72438 290.438393 
L 778.612734 309.699412 
L 778.612734 309.699412 
L 791.501089 301.823113 
L 791.501089 301.823113 
L 803.973689 293.036077 
L 803.973689 293.036077 
L 816.862044 308.3548 
L 816.862044 308.3548 
L 829.334645 311.346129 
L 842.222999 316.637448 
L 855.111353 309.674726 
L 855.111353 309.674726 
L 867.168201 311.636802 
L 867.168201 311.636802 
L 880.056555 311.154886 
L 880.056555 311.154886 
L 892.529156 314.313035 
L 892.529156 314.313035 
L 905.41751 309.0571 
L 905.41751 309.0571 
L 917.890111 301.816971 
L 917.890111 301.816971 
L 930.778465 301.366129 
L 930.778465 301.366129 
L 943.666819 300.634105 
L 943.666819 300.634105 
L 956.13942 304.389652 
L 956.13942 304.389652 
L 969.027775 294.242198 
L 969.027775 294.242198 
L 981.500375 315.548766 
L 981.500375 315.548766 
L 994.38873 308.864317 
L 994.38873 308.864317 
L 1007.277084 332.461719 
L 1007.277084 332.461719 
L 1018.918178 310.180806 
L 1018.918178 310.180806 
L 1031.806532 298.990216 
L 1031.806532 298.990216 
L 1044.279133 304.679243 
L 1044.279133 304.679243 
L 1057.167488 310.397305 
L 1057.167488 310.397305 
L 1069.640088 298.563268 
L 1069.640088 298.563268 
L 1082.528443 291.793057 
L 1082.528443 291.793057 
L 1095.416797 296.552738 
L 1095.416797 296.552738 
L 1107.889398 289.537518 
L 1107.889398 289.537518 
L 1120.777752 308.635247 
L 1120.777752 308.635247 
L 1133.250353 299.335769 
L 1133.250353 299.335769 
L 1146.138707 306.164929 
L 1146.138707 306.164929 
L 1159.027061 307.530945 
L 1170.668156 312.857394 
L 1170.668156 312.857394 
L 1183.55651 303.188716 
L 1183.55651 303.188716 
L 1196.029111 310.25472 
L 1196.029111 310.25472 
L 1208.917465 314.0059 
L 1208.917465 314.0059 
L 1221.390066 319.20639 
L 1221.390066 319.20639 
L 1247.166774 324.240387 
L 1247.166774 324.240387 
L 1259.639375 304.544694 
L 1259.639375 304.544694 
L 1272.52773 304.42565 
L 1272.52773 304.42565 
L 1285.00033 314.214757 
L 1285.00033 314.214757 
L 1297.888685 316.217831 
L 1310.777039 313.821766 
L 1322.418133 314.872457 
L 1335.306487 304.810308 
L 1335.306487 304.810308 
L 1347.779088 310.1402 
L 1347.779088 310.1402 
L 1360.667443 315.378172 
L 1373.140043 316.312869 
L 1373.140043 316.312869 
" clip-path="url(#pfb9a1d984a)" style="fill: none; stroke: #c17150; stroke-width: 1.5; stroke-linecap: round"/>
   </g>
   <g id="line2d_21">
    <path d="M 95.945712 321.637948 
L 107.586806 311.560755 
L 120.475161 312.754393 
L 145.836116 304.545583 
L 158.308717 307.974837 
L 171.197071 341.302548 
L 171.197071 341.302548 
L 184.085425 291.491523 
L 184.085425 291.491523 
L 196.558026 307.515925 
L 196.558026 307.515925 
L 209.44638 293.416557 
L 209.44638 293.416557 
L 221.918981 287.086697 
L 221.918981 287.086697 
L 234.807335 287.375305 
L 234.807335 287.375305 
L 247.69569 303.272778 
L 247.69569 303.272778 
L 259.752537 300.814587 
L 259.752537 300.814587 
L 272.640892 302.651026 
L 272.640892 302.651026 
L 285.113492 283.664416 
L 285.113492 283.664416 
L 298.001847 295.296082 
L 298.001847 295.296082 
L 310.474448 300.509952 
L 310.474448 300.509952 
L 323.362802 296.354506 
L 323.362802 296.354506 
L 336.251156 304.066869 
L 336.251156 304.066869 
L 348.723757 287.926258 
L 348.723757 287.926258 
L 361.612111 295.712442 
L 361.612111 295.712442 
L 374.084712 306.488998 
L 374.084712 306.488998 
L 386.973066 305.191649 
L 386.973066 305.191649 
L 399.861421 299.253081 
L 399.861421 299.253081 
L 411.502515 287.714808 
L 411.502515 287.714808 
L 424.390869 311.182092 
L 424.390869 311.182092 
L 436.86347 302.447184 
L 436.86347 302.447184 
L 449.751824 279.8036 
L 449.751824 279.8036 
L 462.224425 295.510679 
L 462.224425 295.510679 
L 475.112779 283.198964 
L 475.112779 283.198964 
L 488.001134 301.37368 
L 488.001134 301.37368 
L 500.473734 288.743448 
L 500.473734 288.743448 
L 513.362089 307.347907 
L 513.362089 307.347907 
L 525.83469 310.397994 
L 525.83469 310.397994 
L 538.723044 294.810311 
L 538.723044 294.810311 
L 551.611398 296.312967 
L 551.611398 296.312967 
L 563.252492 310.818516 
L 563.252492 310.818516 
L 576.140847 308.829658 
L 576.140847 308.829658 
L 588.613447 311.937449 
L 588.613447 311.937449 
L 601.501802 297.323117 
L 601.501802 297.323117 
L 613.974403 312.955878 
L 613.974403 312.955878 
L 626.862757 290.907996 
L 626.862757 290.907996 
L 639.751111 289.810325 
L 639.751111 289.810325 
L 652.223712 313.753871 
L 652.223712 313.753871 
L 665.112066 282.039318 
L 665.112066 282.039318 
L 677.584667 314.179993 
L 677.584667 314.179993 
L 690.473021 299.748 
L 690.473021 299.748 
L 703.361376 309.197861 
L 703.361376 309.197861 
L 715.00247 326.892924 
L 715.00247 326.892924 
L 727.890824 281.653524 
L 727.890824 281.653524 
L 740.363425 279.528302 
L 740.363425 279.528302 
L 753.251779 305.588452 
L 753.251779 305.588452 
L 765.72438 288.829875 
L 765.72438 288.829875 
L 778.612734 288.925599 
L 778.612734 288.925599 
L 791.501089 299.133731 
L 791.501089 299.133731 
L 803.973689 298.281179 
L 803.973689 298.281179 
L 816.862044 306.499682 
L 816.862044 306.499682 
L 829.334645 311.481573 
L 842.222999 310.289476 
L 855.111353 327.98474 
L 855.111353 327.98474 
L 867.168201 321.722066 
L 867.168201 321.722066 
L 880.056555 324.013673 
L 880.056555 324.013673 
L 892.529156 315.735829 
L 892.529156 315.735829 
L 905.41751 312.197349 
L 905.41751 312.197349 
L 917.890111 309.172018 
L 917.890111 309.172018 
L 930.778465 304.656111 
L 930.778465 304.656111 
L 943.666819 304.412787 
L 943.666819 304.412787 
L 956.13942 308.846023 
L 956.13942 308.846023 
L 969.027775 296.649438 
L 969.027775 296.649438 
L 981.500375 304.586458 
L 981.500375 304.586458 
L 994.38873 304.673259 
L 1007.277084 337.423445 
L 1007.277084 337.423445 
L 1018.918178 291.676927 
L 1018.918178 291.676927 
L 1031.806532 297.567205 
L 1031.806532 297.567205 
L 1044.279133 305.230209 
L 1044.279133 305.230209 
L 1057.167488 309.838574 
L 1057.167488 309.838574 
L 1069.640088 297.379748 
L 1069.640088 297.379748 
L 1082.528443 298.101282 
L 1082.528443 298.101282 
L 1095.416797 305.944348 
L 1095.416797 305.944348 
L 1107.889398 299.158476 
L 1107.889398 299.158476 
L 1120.777752 307.198216 
L 1120.777752 307.198216 
L 1133.250353 311.400122 
L 1133.250353 311.400122 
L 1146.138707 303.258075 
L 1146.138707 303.258075 
L 1159.027061 307.112013 
L 1159.027061 307.112013 
L 1170.668156 314.068694 
L 1170.668156 314.068694 
L 1183.55651 308.777856 
L 1183.55651 308.777856 
L 1196.029111 300.212013 
L 1196.029111 300.212013 
L 1208.917465 311.379674 
L 1208.917465 311.379674 
L 1221.390066 305.159717 
L 1221.390066 305.159717 
L 1247.166774 325.19813 
L 1247.166774 325.19813 
L 1259.639375 308.282436 
L 1259.639375 308.282436 
L 1272.52773 310.1082 
L 1272.52773 310.1082 
L 1285.00033 323.463544 
L 1285.00033 323.463544 
L 1297.888685 316.125713 
L 1310.777039 313.834928 
L 1322.418133 314.859915 
L 1335.306487 308.747952 
L 1335.306487 308.747952 
L 1347.779088 306.984749 
L 1347.779088 306.984749 
L 1360.667443 315.245406 
L 1373.140043 316.082108 
L 1373.140043 316.082108 
" clip-path="url(#pfb9a1d984a)" style="fill: none; stroke: #c8f0e6; stroke-width: 1.5; stroke-linecap: round"/>
   </g>
   <g id="line2d_22">
    <path d="M 95.945712 320.764154 
L 107.586806 309.065948 
L 120.475161 309.938493 
L 145.836116 308.853072 
L 158.308717 308.98212 
L 171.197071 347.724884 
L 171.197071 347.724884 
L 184.085425 287.041568 
L 184.085425 287.041568 
L 196.558026 307.451653 
L 196.558026 307.451653 
L 209.44638 295.77967 
L 209.44638 295.77967 
L 221.918981 287.05163 
L 221.918981 287.05163 
L 234.807335 291.305654 
L 234.807335 291.305654 
L 247.69569 309.21364 
L 247.69569 309.21364 
L 259.752537 301.366303 
L 259.752537 301.366303 
L 272.640892 303.245493 
L 272.640892 303.245493 
L 285.113492 287.001251 
L 285.113492 287.001251 
L 298.001847 300.937789 
L 298.001847 300.937789 
L 310.474448 303.363693 
L 310.474448 303.363693 
L 323.362802 308.628039 
L 323.362802 308.628039 
L 336.251156 307.908708 
L 336.251156 307.908708 
L 348.723757 272.845093 
L 348.723757 272.845093 
L 361.612111 283.35295 
L 361.612111 283.35295 
L 374.084712 302.34285 
L 374.084712 302.34285 
L 386.973066 298.588876 
L 386.973066 298.588876 
L 399.861421 292.669547 
L 399.861421 292.669547 
L 411.502515 291.494896 
L 411.502515 291.494896 
L 424.390869 331.916508 
L 424.390869 331.916508 
L 436.86347 293.561857 
L 436.86347 293.561857 
L 449.751824 278.956597 
L 449.751824 278.956597 
L 462.224425 301.739214 
L 462.224425 301.739214 
L 475.112779 285.711178 
L 475.112779 285.711178 
L 488.001134 297.888135 
L 488.001134 297.888135 
L 500.473734 289.677784 
L 500.473734 289.677784 
L 513.362089 307.198311 
L 513.362089 307.198311 
L 525.83469 312.515611 
L 525.83469 312.515611 
L 538.723044 276.201176 
L 538.723044 276.201176 
L 551.611398 299.715688 
L 551.611398 299.715688 
L 563.252492 305.592251 
L 563.252492 305.592251 
L 576.140847 341.777338 
L 576.140847 341.777338 
L 588.613447 299.540351 
L 588.613447 299.540351 
L 601.501802 302.501089 
L 601.501802 302.501089 
L 613.974403 305.788193 
L 613.974403 305.788193 
L 626.862757 289.581515 
L 626.862757 289.581515 
L 639.751111 295.368122 
L 639.751111 295.368122 
L 652.223712 311.710669 
L 652.223712 311.710669 
L 665.112066 292.684048 
L 665.112066 292.684048 
L 677.584667 299.190028 
L 677.584667 299.190028 
L 690.473021 299.157542 
L 690.473021 299.157542 
L 703.361376 306.277869 
L 703.361376 306.277869 
L 715.00247 325.732647 
L 715.00247 325.732647 
L 727.890824 286.427592 
L 727.890824 286.427592 
L 740.363425 278.58693 
L 740.363425 278.58693 
L 753.251779 303.675367 
L 753.251779 303.675367 
L 765.72438 289.10316 
L 765.72438 289.10316 
L 778.612734 288.887406 
L 778.612734 288.887406 
L 791.501089 305.451923 
L 791.501089 305.451923 
L 803.973689 290.084831 
L 803.973689 290.084831 
L 816.862044 308.397498 
L 816.862044 308.397498 
L 829.334645 311.400675 
L 842.222999 311.310285 
L 842.222999 311.310285 
L 855.111353 329.641767 
L 855.111353 329.641767 
L 867.168201 327.277552 
L 867.168201 327.277552 
L 880.056555 338.645687 
L 880.056555 338.645687 
L 892.529156 320.455182 
L 892.529156 320.455182 
L 905.41751 302.069047 
L 905.41751 302.069047 
L 917.890111 305.736431 
L 917.890111 305.736431 
L 930.778465 294.049441 
L 930.778465 294.049441 
L 943.666819 306.73977 
L 943.666819 306.73977 
L 956.13942 306.176608 
L 956.13942 306.176608 
L 969.027775 293.624611 
L 969.027775 293.624611 
L 981.500375 311.677827 
L 981.500375 311.677827 
L 994.38873 312.991106 
L 1007.277084 340.940808 
L 1007.277084 340.940808 
L 1018.918178 290.724088 
L 1018.918178 290.724088 
L 1031.806532 293.366722 
L 1031.806532 293.366722 
L 1044.279133 306.552821 
L 1044.279133 306.552821 
L 1057.167488 313.415632 
L 1057.167488 313.415632 
L 1069.640088 286.809065 
L 1069.640088 286.809065 
L 1082.528443 293.238032 
L 1082.528443 293.238032 
L 1095.416797 298.279885 
L 1095.416797 298.279885 
L 1107.889398 292.878297 
L 1107.889398 292.878297 
L 1120.777752 299.17655 
L 1120.777752 299.17655 
L 1133.250353 307.066246 
L 1133.250353 307.066246 
L 1146.138707 290.996431 
L 1146.138707 290.996431 
L 1159.027061 311.163633 
L 1159.027061 311.163633 
L 1170.668156 312.361927 
L 1170.668156 312.361927 
L 1183.55651 305.309268 
L 1183.55651 305.309268 
L 1196.029111 303.77911 
L 1196.029111 303.77911 
L 1208.917465 295.896528 
L 1208.917465 295.896528 
L 1221.390066 307.452313 
L 1221.390066 307.452313 
L 1247.166774 318.629275 
L 1247.166774 318.629275 
L 1259.639375 313.445753 
L 1259.639375 313.445753 
L 1272.52773 320.443551 
L 1272.52773 320.443551 
L 1285.00033 306.839646 
L 1285.00033 306.839646 
L 1297.888685 314.625502 
L 1310.777039 310.783191 
L 1322.418133 312.885899 
L 1335.306487 304.306102 
L 1335.306487 304.306102 
L 1347.779088 310.046821 
L 1347.779088 310.046821 
L 1360.667443 313.623072 
L 1373.140043 314.736541 
L 1373.140043 314.736541 
" clip-path="url(#pfb9a1d984a)" style="fill: none; stroke: #ffbb00; stroke-width: 1.5; stroke-linecap: round"/>
   </g>
   <g id="line2d_23">
    <path d="M 95.945712 312.404147 
L 107.586806 310.331634 
L 120.475161 311.959542 
L 145.836116 309.576706 
L 158.308717 306.337168 
L 171.197071 348.371668 
L 171.197071 348.371668 
L 184.085425 309.128595 
L 184.085425 309.128595 
L 196.558026 305.539617 
L 196.558026 305.539617 
L 209.44638 286.841838 
L 209.44638 286.841838 
L 221.918981 280.639585 
L 221.918981 280.639585 
L 234.807335 293.352104 
L 234.807335 293.352104 
L 247.69569 300.340136 
L 247.69569 300.340136 
L 259.752537 309.46694 
L 259.752537 309.46694 
L 272.640892 302.452093 
L 272.640892 302.452093 
L 285.113492 303.345321 
L 285.113492 303.345321 
L 298.001847 285.300863 
L 298.001847 285.300863 
L 310.474448 298.690965 
L 310.474448 298.690965 
L 323.362802 287.27745 
L 323.362802 287.27745 
L 336.251156 316.614593 
L 336.251156 316.614593 
L 348.723757 294.017007 
L 348.723757 294.017007 
L 361.612111 298.231824 
L 361.612111 298.231824 
L 374.084712 301.203898 
L 374.084712 301.203898 
L 386.973066 306.609265 
L 386.973066 306.609265 
L 399.861421 291.694771 
L 399.861421 291.694771 
L 411.502515 284.129511 
L 411.502515 284.129511 
L 424.390869 314.988345 
L 424.390869 314.988345 
L 436.86347 295.846969 
L 436.86347 295.846969 
L 449.751824 273.321918 
L 449.751824 273.321918 
L 462.224425 310.760995 
L 462.224425 310.760995 
L 475.112779 281.750348 
L 475.112779 281.750348 
L 488.001134 322.302927 
L 488.001134 322.302927 
L 500.473734 298.916232 
L 500.473734 298.916232 
L 513.362089 297.768573 
L 513.362089 297.768573 
L 525.83469 301.457456 
L 525.83469 301.457456 
L 538.723044 301.866535 
L 538.723044 301.866535 
L 551.611398 296.861294 
L 551.611398 296.861294 
L 563.252492 313.078444 
L 563.252492 313.078444 
L 576.140847 329.057058 
L 576.140847 329.057058 
L 588.613447 297.256735 
L 588.613447 297.256735 
L 601.501802 303.336029 
L 601.501802 303.336029 
L 613.974403 301.62255 
L 613.974403 301.62255 
L 626.862757 292.852746 
L 626.862757 292.852746 
L 639.751111 289.791329 
L 639.751111 289.791329 
L 652.223712 310.265675 
L 652.223712 310.265675 
L 665.112066 287.885212 
L 665.112066 287.885212 
L 677.584667 291.474478 
L 677.584667 291.474478 
L 690.473021 298.177816 
L 690.473021 298.177816 
L 703.361376 307.966214 
L 703.361376 307.966214 
L 715.00247 332.50578 
L 715.00247 332.50578 
L 727.890824 292.536563 
L 727.890824 292.536563 
L 740.363425 280.111545 
L 740.363425 280.111545 
L 753.251779 309.457858 
L 753.251779 309.457858 
L 765.72438 304.81948 
L 765.72438 304.81948 
L 778.612734 288.121178 
L 778.612734 288.121178 
L 791.501089 300.02682 
L 791.501089 300.02682 
L 803.973689 304.17641 
L 803.973689 304.17641 
L 816.862044 312.705262 
L 816.862044 312.705262 
L 829.334645 312.70757 
L 842.222999 304.258665 
L 842.222999 304.258665 
L 855.111353 324.581519 
L 855.111353 324.581519 
L 867.168201 326.160077 
L 867.168201 326.160077 
L 880.056555 335.191095 
L 880.056555 335.191095 
L 892.529156 320.166186 
L 892.529156 320.166186 
L 905.41751 301.263505 
L 905.41751 301.263505 
L 917.890111 307.262836 
L 917.890111 307.262836 
L 930.778465 298.141373 
L 930.778465 298.141373 
L 943.666819 299.094065 
L 943.666819 299.094065 
L 956.13942 316.268843 
L 956.13942 316.268843 
L 969.027775 318.570271 
L 969.027775 318.570271 
L 981.500375 308.213731 
L 981.500375 308.213731 
L 994.38873 301.400079 
L 994.38873 301.400079 
L 1007.277084 340.087002 
L 1007.277084 340.087002 
L 1018.918178 294.314212 
L 1018.918178 294.314212 
L 1031.806532 302.302907 
L 1031.806532 302.302907 
L 1044.279133 312.497534 
L 1044.279133 312.497534 
L 1057.167488 314.663177 
L 1057.167488 314.663177 
L 1069.640088 291.395663 
L 1069.640088 291.395663 
L 1082.528443 287.272648 
L 1082.528443 287.272648 
L 1095.416797 302.85897 
L 1095.416797 302.85897 
L 1107.889398 291.123044 
L 1107.889398 291.123044 
L 1120.777752 306.495839 
L 1120.777752 306.495839 
L 1133.250353 315.097569 
L 1133.250353 315.097569 
L 1146.138707 303.910221 
L 1146.138707 303.910221 
L 1159.027061 305.78935 
L 1159.027061 305.78935 
L 1170.668156 302.749419 
L 1170.668156 302.749419 
L 1183.55651 294.006838 
L 1183.55651 294.006838 
L 1196.029111 303.474097 
L 1196.029111 303.474097 
L 1208.917465 308.870016 
L 1208.917465 308.870016 
L 1221.390066 311.979196 
L 1221.390066 311.979196 
L 1247.166774 317.49859 
L 1247.166774 317.49859 
L 1259.639375 314.33865 
L 1259.639375 314.33865 
L 1272.52773 317.37689 
L 1272.52773 317.37689 
L 1285.00033 308.802321 
L 1285.00033 308.802321 
L 1297.888685 313.025964 
L 1310.777039 315.461041 
L 1322.418133 311.438919 
L 1335.306487 316.640255 
L 1335.306487 316.640255 
L 1347.779088 314.097192 
L 1347.779088 314.097192 
L 1360.667443 312.768089 
L 1373.140043 314.462629 
L 1373.140043 314.462629 
" clip-path="url(#pfb9a1d984a)" style="fill: none; stroke: #dcfae9; stroke-width: 1.5; stroke-linecap: round"/>
   </g>
   <g id="line2d_24">
    <path d="M 95.945712 284.692399 
L 107.586806 305.945691 
L 120.475161 313.045833 
L 145.836116 311.41075 
L 158.308717 304.243689 
L 171.197071 336.235358 
L 171.197071 336.235358 
L 184.085425 277.798832 
L 184.085425 277.798832 
L 196.558026 303.144371 
L 196.558026 303.144371 
L 209.44638 285.876901 
L 209.44638 285.876901 
L 221.918981 279.344782 
L 221.918981 279.344782 
L 234.807335 289.599538 
L 234.807335 289.599538 
L 247.69569 299.456317 
L 247.69569 299.456317 
L 259.752537 305.233377 
L 259.752537 305.233377 
L 272.640892 304.760186 
L 272.640892 304.760186 
L 285.113492 293.571795 
L 285.113492 293.571795 
L 298.001847 281.430949 
L 298.001847 281.430949 
L 310.474448 294.033303 
L 310.474448 294.033303 
L 323.362802 296.278588 
L 323.362802 296.278588 
L 336.251156 307.207953 
L 336.251156 307.207953 
L 348.723757 280.386589 
L 348.723757 280.386589 
L 361.612111 316.702401 
L 361.612111 316.702401 
L 374.084712 306.963099 
L 374.084712 306.963099 
L 386.973066 308.408062 
L 386.973066 308.408062 
L 399.861421 306.202356 
L 399.861421 306.202356 
L 411.502515 275.820282 
L 411.502515 275.820282 
L 424.390869 305.213157 
L 424.390869 305.213157 
L 436.86347 289.367044 
L 436.86347 289.367044 
L 449.751824 297.394099 
L 449.751824 297.394099 
L 462.224425 304.666333 
L 462.224425 304.666333 
L 475.112779 273.060271 
L 475.112779 273.060271 
L 488.001134 292.118748 
L 488.001134 292.118748 
L 500.473734 298.0666 
L 500.473734 298.0666 
L 513.362089 307.203849 
L 513.362089 307.203849 
L 525.83469 294.196914 
L 525.83469 294.196914 
L 538.723044 302.423897 
L 538.723044 302.423897 
L 551.611398 304.330338 
L 551.611398 304.330338 
L 563.252492 308.467662 
L 563.252492 308.467662 
L 576.140847 318.390278 
L 576.140847 318.390278 
L 588.613447 312.783828 
L 588.613447 312.783828 
L 601.501802 311.223083 
L 601.501802 311.223083 
L 613.974403 297.641602 
L 613.974403 297.641602 
L 626.862757 287.609063 
L 626.862757 287.609063 
L 639.751111 283.566405 
L 639.751111 283.566405 
L 652.223712 293.339176 
L 652.223712 293.339176 
L 665.112066 284.710183 
L 665.112066 284.710183 
L 677.584667 325.723673 
L 677.584667 325.723673 
L 690.473021 291.41092 
L 690.473021 291.41092 
L 703.361376 318.077355 
L 703.361376 318.077355 
L 715.00247 332.747553 
L 715.00247 332.747553 
L 727.890824 288.788323 
L 727.890824 288.788323 
L 740.363425 292.484576 
L 740.363425 292.484576 
L 765.72438 298.234255 
L 765.72438 298.234255 
L 778.612734 305.76298 
L 778.612734 305.76298 
L 791.501089 302.721108 
L 791.501089 302.721108 
L 803.973689 305.270713 
L 803.973689 305.270713 
L 816.862044 304.947746 
L 816.862044 304.947746 
L 829.334645 312.572282 
L 842.222999 311.569959 
L 842.222999 311.569959 
L 855.111353 324.225907 
L 855.111353 324.225907 
L 867.168201 356.799277 
L 867.168201 356.799277 
L 880.056555 327.796765 
L 880.056555 327.796765 
L 892.529156 322.26801 
L 892.529156 322.26801 
L 905.41751 317.409928 
L 905.41751 317.409928 
L 917.890111 316.165587 
L 917.890111 316.165587 
L 930.778465 300.591472 
L 930.778465 300.591472 
L 943.666819 298.355173 
L 943.666819 298.355173 
L 956.13942 306.935624 
L 956.13942 306.935624 
L 969.027775 323.106182 
L 969.027775 323.106182 
L 981.500375 323.084307 
L 981.500375 323.084307 
L 994.38873 299.967016 
L 994.38873 299.967016 
L 1007.277084 346.98263 
L 1007.277084 346.98263 
L 1018.918178 294.22545 
L 1018.918178 294.22545 
L 1031.806532 297.820927 
L 1031.806532 297.820927 
L 1044.279133 310.989574 
L 1044.279133 310.989574 
L 1057.167488 311.917989 
L 1057.167488 311.917989 
L 1082.528443 291.737216 
L 1082.528443 291.737216 
L 1095.416797 301.094124 
L 1095.416797 301.094124 
L 1107.889398 289.467392 
L 1107.889398 289.467392 
L 1120.777752 305.994804 
L 1120.777752 305.994804 
L 1133.250353 330.976604 
L 1133.250353 330.976604 
L 1146.138707 310.24786 
L 1146.138707 310.24786 
L 1159.027061 315.523787 
L 1170.668156 310.363814 
L 1170.668156 310.363814 
L 1183.55651 291.57907 
L 1183.55651 291.57907 
L 1196.029111 295.771266 
L 1196.029111 295.771266 
L 1208.917465 317.562361 
L 1208.917465 317.562361 
L 1221.390066 310.230045 
L 1221.390066 310.230045 
L 1247.166774 315.218865 
L 1247.166774 315.218865 
L 1259.639375 308.802513 
L 1259.639375 308.802513 
L 1272.52773 308.726561 
L 1272.52773 308.726561 
L 1285.00033 307.509753 
L 1285.00033 307.509753 
L 1297.888685 312.428179 
L 1310.777039 311.421239 
L 1322.418133 311.052302 
L 1335.306487 306.143274 
L 1335.306487 306.143274 
L 1347.779088 309.411102 
L 1347.779088 309.411102 
L 1360.667443 311.881484 
L 1373.140043 313.134617 
L 1373.140043 313.134617 
" clip-path="url(#pfb9a1d984a)" style="fill: none; stroke: #a1d9cc; stroke-width: 1.5; stroke-linecap: round"/>
   </g>
   <g id="patch_3">
    <path d="M 32.085996 618.913373 
L 32.085996 17.30242 
" style="fill: none; stroke: #808080; stroke-width: 0.8; stroke-linejoin: miter; stroke-linecap: square"/>
   </g>
   <g id="patch_4">
    <path d="M 32.085996 618.913373 
L 1436.99976 618.913373 
" style="fill: none; stroke: #808080; stroke-width: 0.8; stroke-linejoin: miter; stroke-linecap: square"/>
   </g>
   <g id="text_19">
    <!-- Out of Sample -->
    <g style="fill: #262626" transform="translate(697.311357 11.30242) scale(0.12 -0.12)">
     <defs>
      <path id="CMR17-4f" d="M 4307 2135 
C 4307 3437 3366 4416 2304 4416 
C 1216 4416 294 3424 294 2135 
C 294 845 1229 -128 2298 -128 
C 3392 -128 4307 864 4307 2135 
z
M 2304 -13 
C 1574 -13 781 711 781 2217 
C 781 3716 1651 4301 2298 4301 
C 2976 4301 3821 3698 3821 2217 
C 3821 686 3008 -13 2304 -13 
z
" transform="scale(0.015625)"/>
      <path id="CMR17-66" d="M 979 2560 
L 1709 2560 
L 1709 2725 
L 966 2725 
L 966 3494 
C 966 4022 1235 4352 1510 4352 
C 1594 4352 1690 4327 1754 4282 
C 1702 4269 1568 4225 1568 4067 
C 1568 3901 1696 3850 1786 3850 
C 1875 3850 2003 3901 2003 4067 
C 2003 4308 1773 4454 1517 4454 
C 1152 4454 653 4156 653 3481 
L 653 2725 
L 141 2725 
L 141 2560 
L 653 2560 
L 653 427 
C 653 184 627 153 218 153 
L 218 -13 
C 371 0 666 0 832 0 
C 1018 0 1344 0 1517 -13 
L 1517 153 
C 1056 153 979 153 979 439 
L 979 2560 
z
" transform="scale(0.015625)"/>
      <path id="CMR17-53" d="M 2803 4290 
C 2803 4404 2797 4411 2758 4411 
C 2720 4411 2707 4385 2682 4328 
L 2490 3907 
C 2246 4257 1875 4416 1472 4416 
C 819 4416 294 3901 294 3253 
C 294 3056 339 2776 557 2510 
C 794 2218 1018 2167 1530 2033 
C 1722 1982 2042 1899 2106 1874 
C 2470 1722 2662 1341 2662 985 
C 2662 527 2336 38 1779 38 
C 1094 38 454 419 410 1311 
C 403 1413 397 1419 352 1419 
C 301 1419 294 1413 294 1285 
L 294 -1 
C 294 -115 301 -122 339 -122 
C 384 -122 397 -90 486 108 
C 493 127 493 140 614 381 
C 934 -39 1472 -128 1779 -128 
C 2477 -128 2970 451 2970 1124 
C 2970 1454 2848 1708 2778 1823 
C 2509 2230 2221 2306 1914 2382 
C 1869 2402 1856 2402 1498 2490 
C 1152 2579 1005 2624 845 2796 
C 666 2992 602 3196 602 3399 
C 602 3812 934 4263 1478 4263 
C 2157 4263 2579 3786 2675 2993 
C 2694 2878 2701 2872 2746 2872 
C 2803 2872 2803 2891 2803 2999 
L 2803 4290 
z
" transform="scale(0.015625)"/>
      <path id="CMR17-6d" d="M 4326 1933 
C 4326 2252 4269 2790 3507 2790 
C 3072 2790 2771 2496 2656 2151 
L 2650 2151 
C 2573 2676 2195 2790 1837 2790 
C 1331 2790 1069 2400 973 2144 
L 966 2144 
L 966 2790 
L 211 2720 
L 211 2554 
C 589 2554 646 2515 646 2208 
L 646 428 
C 646 184 621 153 211 153 
L 211 -13 
C 365 0 646 0 813 0 
C 979 0 1267 0 1421 -13 
L 1421 153 
C 1011 153 986 178 986 428 
L 986 1658 
C 986 2247 1344 2688 1792 2688 
C 2266 2688 2317 2266 2317 1958 
L 2317 428 
C 2317 184 2291 153 1882 153 
L 1882 -13 
C 2035 0 2317 0 2483 0 
C 2650 0 2938 0 3091 -13 
L 3091 153 
C 2682 153 2656 178 2656 428 
L 2656 1658 
C 2656 2247 3014 2688 3462 2688 
C 3936 2688 3987 2266 3987 1958 
L 3987 428 
C 3987 184 3962 153 3552 153 
L 3552 -13 
C 3706 0 3987 0 4154 0 
C 4320 0 4608 0 4762 -13 
L 4762 153 
C 4352 153 4326 178 4326 428 
L 4326 1933 
z
" transform="scale(0.015625)"/>
      <path id="CMR17-70" d="M 1408 -1063 
C 998 -1063 973 -1037 973 -789 
L 973 402 
C 1158 134 1427 -38 1766 -38 
C 2406 -38 3053 523 3053 1388 
C 3053 2191 2496 2802 1837 2802 
C 1453 2802 1139 2592 960 2338 
L 960 2802 
L 198 2732 
L 198 2567 
C 576 2567 634 2528 634 2223 
L 634 -789 
C 634 -1031 608 -1063 198 -1063 
L 198 -1228 
C 352 -1216 634 -1216 800 -1216 
C 966 -1216 1254 -1216 1408 -1228 
L 1408 -1063 
z
M 973 2012 
C 973 2102 973 2235 1222 2471 
C 1254 2497 1472 2688 1792 2688 
C 2259 2688 2643 2108 2643 1382 
C 2643 656 2234 64 1728 64 
C 1498 64 1248 172 1056 472 
C 973 612 973 650 973 752 
L 973 2012 
z
" transform="scale(0.015625)"/>
     </defs>
     <use xlink:href="#CMR17-4f" transform="scale(0.996264)"/>
     <use xlink:href="#CMR17-75" transform="translate(71.714788 0) scale(0.996264)"/>
     <use xlink:href="#CMR17-74" transform="translate(122.610158 0) scale(0.996264)"/>
     <use xlink:href="#CMR17-6f" transform="translate(187.966892 0) scale(0.996264)"/>
     <use xlink:href="#CMR17-66" transform="translate(233.657369 0) scale(0.996264)"/>
     <use xlink:href="#CMR17-53" transform="translate(291.206848 0) scale(0.996264)"/>
     <use xlink:href="#CMR17-61" transform="translate(342.102218 0) scale(0.996264)"/>
     <use xlink:href="#CMR17-6d" transform="translate(387.792695 0) scale(0.996264)"/>
     <use xlink:href="#CMR17-70" transform="translate(464.712285 0) scale(0.996264)"/>
     <use xlink:href="#CMR17-6c" transform="translate(515.607655 0) scale(0.996264)"/>
     <use xlink:href="#CMR17-65" transform="translate(540.478713 0) scale(0.996264)"/>
    </g>
   </g>
   <g id="legend_1">
    <g id="patch_5">
     <path d="M 453.876202 716.999748 
L 1015.209553 716.999748 
Q 1017.209553 716.999748 1017.209553 714.999748 
L 1017.209553 686.074468 
Q 1017.209553 684.074468 1015.209553 684.074468 
L 453.876202 684.074468 
Q 451.876202 684.074468 451.876202 686.074468 
L 451.876202 714.999748 
Q 451.876202 716.999748 453.876202 716.999748 
z
" style="fill: #ffffff; opacity: 0.8"/>
    </g>
    <g id="line2d_25">
     <path d="M 455.876202 692.046448 
L 465.876202 692.046448 
L 475.876202 692.046448 
" style="fill: none; stroke: #006e64; stroke-width: 1.5; stroke-linecap: round"/>
    </g>
    <g id="text_20">
     <!-- Actual -->
     <g style="fill: #262626" transform="translate(483.876202 695.546448) scale(0.1 -0.1)">
      <defs>
       <path id="CMR17-41" d="M 2323 4378 
C 2291 4461 2278 4480 2214 4480 
C 2150 4480 2138 4461 2106 4378 
L 749 566 
C 627 223 371 153 147 153 
L 147 -13 
C 262 0 518 0 640 0 
C 800 0 1056 0 1210 -13 
L 1210 153 
C 909 153 864 361 864 439 
C 864 497 877 530 890 569 
L 1229 1536 
L 2906 1536 
L 3290 442 
C 3322 365 3322 352 3322 327 
C 3322 153 3046 153 2925 153 
L 2925 0 
C 3110 0 3443 0 3642 0 
C 3808 0 4128 0 4282 -13 
L 4282 153 
C 3942 153 3827 153 3744 387 
L 2323 4378 
z
M 2067 3893 
L 2848 1702 
L 1286 1702 
L 2067 3893 
z
" transform="scale(0.015625)"/>
       <path id="CMR17-63" d="M 2234 2240 
C 2112 2240 1933 2240 1933 2017 
C 1933 1838 2080 1787 2163 1787 
C 2208 1787 2394 1807 2394 2024 
C 2394 2467 1958 2803 1466 2803 
C 787 2803 211 2178 211 1363 
C 211 516 813 -64 1466 -64 
C 2259 -64 2458 677 2458 748 
C 2458 774 2451 793 2406 793 
C 2362 793 2355 787 2330 703 
C 2163 180 1798 51 1523 51 
C 1114 51 621 427 621 1369 
C 621 2338 1094 2688 1472 2688 
C 1722 2688 2093 2573 2234 2240 
z
" transform="scale(0.015625)"/>
      </defs>
      <use xlink:href="#CMR17-41" transform="scale(0.996264)"/>
      <use xlink:href="#CMR17-63" transform="translate(69.07243 0) scale(0.996264)"/>
      <use xlink:href="#CMR17-74" transform="translate(109.55809 0) scale(0.996264)"/>
      <use xlink:href="#CMR17-75" transform="translate(144.838858 0) scale(0.996264)"/>
      <use xlink:href="#CMR17-61" transform="translate(195.734228 0) scale(0.996264)"/>
      <use xlink:href="#CMR17-6c" transform="translate(241.424705 0) scale(0.996264)"/>
     </g>
    </g>
    <g id="line2d_26">
     <path d="M 455.876202 706.455606 
L 465.876202 706.455606 
L 475.876202 706.455606 
" style="fill: none; stroke: #734848; stroke-width: 1.5; stroke-linecap: round"/>
    </g>
    <g id="text_21">
     <!-- Predicted (2 clusters) -->
     <g style="fill: #262626" transform="translate(483.876202 709.955606) scale(0.1 -0.1)">
      <defs>
       <path id="CMR17-50" d="M 1267 2042 
L 2291 2042 
C 3117 2042 3718 2578 3718 3184 
C 3718 3791 3130 4352 2291 4352 
L 333 4352 
L 333 4186 
C 774 4186 845 4186 845 3899 
L 845 446 
C 845 160 774 160 333 160 
L 333 0 
C 518 0 858 0 1056 0 
C 1254 0 1594 0 1779 0 
L 1779 160 
C 1338 160 1267 160 1267 446 
L 1267 2042 
z
M 1254 2176 
L 1254 3938 
C 1254 4155 1267 4186 1523 4186 
L 2170 4186 
C 2995 4186 3232 3714 3232 3184 
C 3232 2604 2950 2176 2170 2176 
L 1254 2176 
z
" transform="scale(0.015625)"/>
       <path id="CMR17-64" d="M 1869 4326 
L 1869 4160 
C 2246 4160 2304 4122 2304 3820 
L 2304 2345 
C 2278 2377 2016 2790 1498 2790 
C 845 2790 211 2208 211 1364 
C 211 525 806 -64 1434 -64 
C 1978 -64 2259 337 2291 380 
L 2291 -63 
L 3066 -63 
L 3066 128 
C 2688 128 2630 166 2630 473 
L 2630 4396 
L 1869 4326 
z
M 2291 755 
C 2291 563 2176 390 2029 262 
C 1811 70 1594 38 1472 38 
C 1286 38 621 134 621 1356 
C 621 2612 1363 2688 1530 2688 
C 1824 2688 2061 2522 2208 2291 
C 2291 2157 2291 2138 2291 2023 
L 2291 755 
z
" transform="scale(0.015625)"/>
       <path id="CMR17-28" d="M 1958 -1561 
C 1958 -1555 1958 -1542 1939 -1523 
C 1645 -1224 858 -407 858 1581 
C 858 3569 1632 4379 1946 4697 
C 1946 4704 1958 4717 1958 4736 
C 1958 4755 1939 4768 1914 4768 
C 1843 4768 1299 4296 986 3594 
C 666 2887 576 2199 576 1588 
C 576 1128 621 351 1005 -471 
C 1312 -1135 1837 -1600 1914 -1600 
C 1946 -1600 1958 -1587 1958 -1561 
z
" transform="scale(0.015625)"/>
       <path id="CMR17-73" d="M 1978 2697 
C 1978 2813 1971 2819 1933 2819 
C 1907 2819 1901 2813 1824 2717 
C 1805 2691 1747 2626 1728 2601 
C 1523 2819 1235 2819 1126 2819 
C 416 2819 160 2447 160 2076 
C 160 1498 813 1365 998 1325 
C 1402 1243 1542 1217 1677 1101 
C 1760 1025 1901 884 1901 654 
C 1901 384 1747 38 1158 38 
C 602 38 403 460 288 1021 
C 269 1110 269 1117 218 1117 
C 166 1117 160 1110 160 983 
L 160 63 
C 160 -51 166 -58 205 -58 
C 237 -58 243 -51 275 0 
C 314 57 410 211 448 276 
C 576 103 800 -64 1158 -64 
C 1792 -64 2131 283 2131 784 
C 2131 1112 1958 1285 1875 1362 
C 1683 1561 1459 1606 1190 1657 
C 838 1735 390 1825 390 2217 
C 390 2383 480 2737 1126 2737 
C 1811 2737 1850 2094 1862 1888 
C 1869 1856 1901 1849 1920 1849 
C 1978 1849 1978 1869 1978 1978 
L 1978 2697 
z
" transform="scale(0.015625)"/>
       <path id="CMR17-29" d="M 1683 1581 
C 1683 2040 1638 2817 1254 3639 
C 947 4303 422 4768 346 4768 
C 326 4768 301 4761 301 4729 
C 301 4717 307 4710 314 4697 
C 621 4378 1402 3568 1402 1584 
C 1402 -407 627 -1217 314 -1537 
C 307 -1549 301 -1556 301 -1568 
C 301 -1600 326 -1600 346 -1600 
C 416 -1600 960 -1128 1274 -426 
C 1594 281 1683 969 1683 1581 
z
" transform="scale(0.015625)"/>
      </defs>
      <use xlink:href="#CMR17-50" transform="scale(0.996264)"/>
      <use xlink:href="#CMR17-72" transform="translate(62.586301 0) scale(0.996264)"/>
      <use xlink:href="#CMR17-65" transform="translate(97.867068 0) scale(0.996264)"/>
      <use xlink:href="#CMR17-64" transform="translate(138.352729 0) scale(0.996264)"/>
      <use xlink:href="#CMR17-69" transform="translate(189.248099 0) scale(0.996264)"/>
      <use xlink:href="#CMR17-63" transform="translate(214.119157 0) scale(0.996264)"/>
      <use xlink:href="#CMR17-74" transform="translate(254.604818 0) scale(0.996264)"/>
      <use xlink:href="#CMR17-65" transform="translate(289.885585 0) scale(0.996264)"/>
      <use xlink:href="#CMR17-64" transform="translate(330.371246 0) scale(0.996264)"/>
      <use xlink:href="#CMR17-28" transform="translate(411.342582 0) scale(0.996264)"/>
      <use xlink:href="#CMR17-32" transform="translate(446.62335 0) scale(0.996264)"/>
      <use xlink:href="#CMR17-63" transform="translate(522.389793 0) scale(0.996264)"/>
      <use xlink:href="#CMR17-6c" transform="translate(562.875454 0) scale(0.996264)"/>
      <use xlink:href="#CMR17-75" transform="translate(587.746512 0) scale(0.996264)"/>
      <use xlink:href="#CMR17-73" transform="translate(638.641882 0) scale(0.996264)"/>
      <use xlink:href="#CMR17-74" transform="translate(674.44322 0) scale(0.996264)"/>
      <use xlink:href="#CMR17-65" transform="translate(709.723987 0) scale(0.996264)"/>
      <use xlink:href="#CMR17-72" transform="translate(750.209648 0) scale(0.996264)"/>
      <use xlink:href="#CMR17-73" transform="translate(785.490416 0) scale(0.996264)"/>
      <use xlink:href="#CMR17-29" transform="translate(821.291753 0) scale(0.996264)"/>
     </g>
    </g>
    <g id="line2d_27">
     <path d="M 597.718873 692.046448 
L 607.718873 692.046448 
L 617.718873 692.046448 
" style="fill: none; stroke: #004e4a; stroke-width: 1.5; stroke-linecap: round"/>
    </g>
    <g id="text_22">
     <!-- Predicted (4 clusters) -->
     <g style="fill: #262626" transform="translate(625.718873 695.546448) scale(0.1 -0.1)">
      <defs>
       <path id="CMR17-34" d="M 2150 4122 
C 2150 4256 2144 4256 2029 4256 
L 128 1254 
L 128 1088 
L 1779 1088 
L 1779 457 
C 1779 224 1766 160 1318 160 
L 1197 160 
L 1197 0 
C 1402 0 1747 0 1965 0 
C 2182 0 2528 0 2733 0 
L 2733 160 
L 2611 160 
C 2163 160 2150 224 2150 457 
L 2150 1088 
L 2803 1088 
L 2803 1254 
L 2150 1254 
L 2150 4122 
z
M 1798 3703 
L 1798 1254 
L 256 1254 
L 1798 3703 
z
" transform="scale(0.015625)"/>
      </defs>
      <use xlink:href="#CMR17-50" transform="scale(0.996264)"/>
      <use xlink:href="#CMR17-72" transform="translate(62.586301 0) scale(0.996264)"/>
      <use xlink:href="#CMR17-65" transform="translate(97.867068 0) scale(0.996264)"/>
      <use xlink:href="#CMR17-64" transform="translate(138.352729 0) scale(0.996264)"/>
      <use xlink:href="#CMR17-69" transform="translate(189.248099 0) scale(0.996264)"/>
      <use xlink:href="#CMR17-63" transform="translate(214.119157 0) scale(0.996264)"/>
      <use xlink:href="#CMR17-74" transform="translate(254.604818 0) scale(0.996264)"/>
      <use xlink:href="#CMR17-65" transform="translate(289.885585 0) scale(0.996264)"/>
      <use xlink:href="#CMR17-64" transform="translate(330.371246 0) scale(0.996264)"/>
      <use xlink:href="#CMR17-28" transform="translate(411.342582 0) scale(0.996264)"/>
      <use xlink:href="#CMR17-34" transform="translate(446.62335 0) scale(0.996264)"/>
      <use xlink:href="#CMR17-63" transform="translate(522.389793 0) scale(0.996264)"/>
      <use xlink:href="#CMR17-6c" transform="translate(562.875454 0) scale(0.996264)"/>
      <use xlink:href="#CMR17-75" transform="translate(587.746512 0) scale(0.996264)"/>
      <use xlink:href="#CMR17-73" transform="translate(638.641882 0) scale(0.996264)"/>
      <use xlink:href="#CMR17-74" transform="translate(674.44322 0) scale(0.996264)"/>
      <use xlink:href="#CMR17-65" transform="translate(709.723987 0) scale(0.996264)"/>
      <use xlink:href="#CMR17-72" transform="translate(750.209648 0) scale(0.996264)"/>
      <use xlink:href="#CMR17-73" transform="translate(785.490416 0) scale(0.996264)"/>
      <use xlink:href="#CMR17-29" transform="translate(821.291753 0) scale(0.996264)"/>
     </g>
    </g>
    <g id="line2d_28">
     <path d="M 597.718873 707.009088 
L 607.718873 707.009088 
L 617.718873 707.009088 
" style="fill: none; stroke: #c17150; stroke-width: 1.5; stroke-linecap: round"/>
    </g>
    <g id="text_23">
     <!-- Predicted (6 clusters) -->
     <g style="fill: #262626" transform="translate(625.718873 710.509088) scale(0.1 -0.1)">
      <use xlink:href="#CMR17-50" transform="scale(0.996264)"/>
      <use xlink:href="#CMR17-72" transform="translate(62.586301 0) scale(0.996264)"/>
      <use xlink:href="#CMR17-65" transform="translate(97.867068 0) scale(0.996264)"/>
      <use xlink:href="#CMR17-64" transform="translate(138.352729 0) scale(0.996264)"/>
      <use xlink:href="#CMR17-69" transform="translate(189.248099 0) scale(0.996264)"/>
      <use xlink:href="#CMR17-63" transform="translate(214.119157 0) scale(0.996264)"/>
      <use xlink:href="#CMR17-74" transform="translate(254.604818 0) scale(0.996264)"/>
      <use xlink:href="#CMR17-65" transform="translate(289.885585 0) scale(0.996264)"/>
      <use xlink:href="#CMR17-64" transform="translate(330.371246 0) scale(0.996264)"/>
      <use xlink:href="#CMR17-28" transform="translate(411.342582 0) scale(0.996264)"/>
      <use xlink:href="#CMR17-36" transform="translate(446.62335 0) scale(0.996264)"/>
      <use xlink:href="#CMR17-63" transform="translate(522.389793 0) scale(0.996264)"/>
      <use xlink:href="#CMR17-6c" transform="translate(562.875454 0) scale(0.996264)"/>
      <use xlink:href="#CMR17-75" transform="translate(587.746512 0) scale(0.996264)"/>
      <use xlink:href="#CMR17-73" transform="translate(638.641882 0) scale(0.996264)"/>
      <use xlink:href="#CMR17-74" transform="translate(674.44322 0) scale(0.996264)"/>
      <use xlink:href="#CMR17-65" transform="translate(709.723987 0) scale(0.996264)"/>
      <use xlink:href="#CMR17-72" transform="translate(750.209648 0) scale(0.996264)"/>
      <use xlink:href="#CMR17-73" transform="translate(785.490416 0) scale(0.996264)"/>
      <use xlink:href="#CMR17-29" transform="translate(821.291753 0) scale(0.996264)"/>
     </g>
    </g>
    <g id="line2d_29">
     <path d="M 739.561543 692.046448 
L 749.561543 692.046448 
L 759.561543 692.046448 
" style="fill: none; stroke: #c8f0e6; stroke-width: 1.5; stroke-linecap: round"/>
    </g>
    <g id="text_24">
     <!-- Predicted (8 clusters) -->
     <g style="fill: #262626" transform="translate(767.561543 695.546448) scale(0.1 -0.1)">
      <use xlink:href="#CMR17-50" transform="scale(0.996264)"/>
      <use xlink:href="#CMR17-72" transform="translate(62.586301 0) scale(0.996264)"/>
      <use xlink:href="#CMR17-65" transform="translate(97.867068 0) scale(0.996264)"/>
      <use xlink:href="#CMR17-64" transform="translate(138.352729 0) scale(0.996264)"/>
      <use xlink:href="#CMR17-69" transform="translate(189.248099 0) scale(0.996264)"/>
      <use xlink:href="#CMR17-63" transform="translate(214.119157 0) scale(0.996264)"/>
      <use xlink:href="#CMR17-74" transform="translate(254.604818 0) scale(0.996264)"/>
      <use xlink:href="#CMR17-65" transform="translate(289.885585 0) scale(0.996264)"/>
      <use xlink:href="#CMR17-64" transform="translate(330.371246 0) scale(0.996264)"/>
      <use xlink:href="#CMR17-28" transform="translate(411.342582 0) scale(0.996264)"/>
      <use xlink:href="#CMR17-38" transform="translate(446.62335 0) scale(0.996264)"/>
      <use xlink:href="#CMR17-63" transform="translate(522.389793 0) scale(0.996264)"/>
      <use xlink:href="#CMR17-6c" transform="translate(562.875454 0) scale(0.996264)"/>
      <use xlink:href="#CMR17-75" transform="translate(587.746512 0) scale(0.996264)"/>
      <use xlink:href="#CMR17-73" transform="translate(638.641882 0) scale(0.996264)"/>
      <use xlink:href="#CMR17-74" transform="translate(674.44322 0) scale(0.996264)"/>
      <use xlink:href="#CMR17-65" transform="translate(709.723987 0) scale(0.996264)"/>
      <use xlink:href="#CMR17-72" transform="translate(750.209648 0) scale(0.996264)"/>
      <use xlink:href="#CMR17-73" transform="translate(785.490416 0) scale(0.996264)"/>
      <use xlink:href="#CMR17-29" transform="translate(821.291753 0) scale(0.996264)"/>
     </g>
    </g>
    <g id="line2d_30">
     <path d="M 739.561543 707.009088 
L 749.561543 707.009088 
L 759.561543 707.009088 
" style="fill: none; stroke: #ffbb00; stroke-width: 1.5; stroke-linecap: round"/>
    </g>
    <g id="text_25">
     <!-- Predicted (10 clusters) -->
     <g style="fill: #262626" transform="translate(767.561543 710.509088) scale(0.1 -0.1)">
      <use xlink:href="#CMR17-50" transform="scale(0.996264)"/>
      <use xlink:href="#CMR17-72" transform="translate(62.586301 0) scale(0.996264)"/>
      <use xlink:href="#CMR17-65" transform="translate(97.867068 0) scale(0.996264)"/>
      <use xlink:href="#CMR17-64" transform="translate(138.352729 0) scale(0.996264)"/>
      <use xlink:href="#CMR17-69" transform="translate(189.248099 0) scale(0.996264)"/>
      <use xlink:href="#CMR17-63" transform="translate(214.119157 0) scale(0.996264)"/>
      <use xlink:href="#CMR17-74" transform="translate(254.604818 0) scale(0.996264)"/>
      <use xlink:href="#CMR17-65" transform="translate(289.885585 0) scale(0.996264)"/>
      <use xlink:href="#CMR17-64" transform="translate(330.371246 0) scale(0.996264)"/>
      <use xlink:href="#CMR17-28" transform="translate(411.342582 0) scale(0.996264)"/>
      <use xlink:href="#CMR17-31" transform="translate(446.62335 0) scale(0.996264)"/>
      <use xlink:href="#CMR17-30" transform="translate(492.313827 0) scale(0.996264)"/>
      <use xlink:href="#CMR17-63" transform="translate(568.08027 0) scale(0.996264)"/>
      <use xlink:href="#CMR17-6c" transform="translate(608.565931 0) scale(0.996264)"/>
      <use xlink:href="#CMR17-75" transform="translate(633.436989 0) scale(0.996264)"/>
      <use xlink:href="#CMR17-73" transform="translate(684.332359 0) scale(0.996264)"/>
      <use xlink:href="#CMR17-74" transform="translate(720.133697 0) scale(0.996264)"/>
      <use xlink:href="#CMR17-65" transform="translate(755.414464 0) scale(0.996264)"/>
      <use xlink:href="#CMR17-72" transform="translate(795.900125 0) scale(0.996264)"/>
      <use xlink:href="#CMR17-73" transform="translate(831.180893 0) scale(0.996264)"/>
      <use xlink:href="#CMR17-29" transform="translate(866.98223 0) scale(0.996264)"/>
     </g>
    </g>
    <g id="line2d_31">
     <path d="M 886.385548 692.046448 
L 896.385548 692.046448 
L 906.385548 692.046448 
" style="fill: none; stroke: #dcfae9; stroke-width: 1.5; stroke-linecap: round"/>
    </g>
    <g id="text_26">
     <!-- Predicted (12 clusters) -->
     <g style="fill: #262626" transform="translate(914.385548 695.546448) scale(0.1 -0.1)">
      <use xlink:href="#CMR17-50" transform="scale(0.996264)"/>
      <use xlink:href="#CMR17-72" transform="translate(62.586301 0) scale(0.996264)"/>
      <use xlink:href="#CMR17-65" transform="translate(97.867068 0) scale(0.996264)"/>
      <use xlink:href="#CMR17-64" transform="translate(138.352729 0) scale(0.996264)"/>
      <use xlink:href="#CMR17-69" transform="translate(189.248099 0) scale(0.996264)"/>
      <use xlink:href="#CMR17-63" transform="translate(214.119157 0) scale(0.996264)"/>
      <use xlink:href="#CMR17-74" transform="translate(254.604818 0) scale(0.996264)"/>
      <use xlink:href="#CMR17-65" transform="translate(289.885585 0) scale(0.996264)"/>
      <use xlink:href="#CMR17-64" transform="translate(330.371246 0) scale(0.996264)"/>
      <use xlink:href="#CMR17-28" transform="translate(411.342582 0) scale(0.996264)"/>
      <use xlink:href="#CMR17-31" transform="translate(446.62335 0) scale(0.996264)"/>
      <use xlink:href="#CMR17-32" transform="translate(492.313827 0) scale(0.996264)"/>
      <use xlink:href="#CMR17-63" transform="translate(568.08027 0) scale(0.996264)"/>
      <use xlink:href="#CMR17-6c" transform="translate(608.565931 0) scale(0.996264)"/>
      <use xlink:href="#CMR17-75" transform="translate(633.436989 0) scale(0.996264)"/>
      <use xlink:href="#CMR17-73" transform="translate(684.332359 0) scale(0.996264)"/>
      <use xlink:href="#CMR17-74" transform="translate(720.133697 0) scale(0.996264)"/>
      <use xlink:href="#CMR17-65" transform="translate(755.414464 0) scale(0.996264)"/>
      <use xlink:href="#CMR17-72" transform="translate(795.900125 0) scale(0.996264)"/>
      <use xlink:href="#CMR17-73" transform="translate(831.180893 0) scale(0.996264)"/>
      <use xlink:href="#CMR17-29" transform="translate(866.98223 0) scale(0.996264)"/>
     </g>
    </g>
    <g id="line2d_32">
     <path d="M 886.385548 707.009088 
L 896.385548 707.009088 
L 906.385548 707.009088 
" style="fill: none; stroke: #a1d9cc; stroke-width: 1.5; stroke-linecap: round"/>
    </g>
    <g id="text_27">
     <!-- Predicted (14 clusters) -->
     <g style="fill: #262626" transform="translate(914.385548 710.509088) scale(0.1 -0.1)">
      <use xlink:href="#CMR17-50" transform="scale(0.996264)"/>
      <use xlink:href="#CMR17-72" transform="translate(62.586301 0) scale(0.996264)"/>
      <use xlink:href="#CMR17-65" transform="translate(97.867068 0) scale(0.996264)"/>
      <use xlink:href="#CMR17-64" transform="translate(138.352729 0) scale(0.996264)"/>
      <use xlink:href="#CMR17-69" transform="translate(189.248099 0) scale(0.996264)"/>
      <use xlink:href="#CMR17-63" transform="translate(214.119157 0) scale(0.996264)"/>
      <use xlink:href="#CMR17-74" transform="translate(254.604818 0) scale(0.996264)"/>
      <use xlink:href="#CMR17-65" transform="translate(289.885585 0) scale(0.996264)"/>
      <use xlink:href="#CMR17-64" transform="translate(330.371246 0) scale(0.996264)"/>
      <use xlink:href="#CMR17-28" transform="translate(411.342582 0) scale(0.996264)"/>
      <use xlink:href="#CMR17-31" transform="translate(446.62335 0) scale(0.996264)"/>
      <use xlink:href="#CMR17-34" transform="translate(492.313827 0) scale(0.996264)"/>
      <use xlink:href="#CMR17-63" transform="translate(568.08027 0) scale(0.996264)"/>
      <use xlink:href="#CMR17-6c" transform="translate(608.565931 0) scale(0.996264)"/>
      <use xlink:href="#CMR17-75" transform="translate(633.436989 0) scale(0.996264)"/>
      <use xlink:href="#CMR17-73" transform="translate(684.332359 0) scale(0.996264)"/>
      <use xlink:href="#CMR17-74" transform="translate(720.133697 0) scale(0.996264)"/>
      <use xlink:href="#CMR17-65" transform="translate(755.414464 0) scale(0.996264)"/>
      <use xlink:href="#CMR17-72" transform="translate(795.900125 0) scale(0.996264)"/>
      <use xlink:href="#CMR17-73" transform="translate(831.180893 0) scale(0.996264)"/>
      <use xlink:href="#CMR17-29" transform="translate(866.98223 0) scale(0.996264)"/>
     </g>
    </g>
   </g>
  </g>
 </g>
 <defs>
  <clipPath id="pfb9a1d984a">
   <rect x="32.085996" y="17.30242" width="1404.913764" height="601.610953"/>
  </clipPath>
 </defs>
</svg>
