<?xml version="1.0" encoding="utf-8" standalone="no"?>
<!DOCTYPE svg PUBLIC "-//W3C//DTD SVG 1.1//EN"
  "http://www.w3.org/Graphics/SVG/1.1/DTD/svg11.dtd">
<svg xmlns:xlink="http://www.w3.org/1999/xlink" width="1440pt" height="720pt" viewBox="0 0 1440 720" xmlns="http://www.w3.org/2000/svg" version="1.1">
 <metadata>
  <rdf:RDF xmlns:dc="http://purl.org/dc/elements/1.1/" xmlns:cc="http://creativecommons.org/ns#" xmlns:rdf="http://www.w3.org/1999/02/22-rdf-syntax-ns#">
   <cc:Work>
    <dc:type rdf:resource="http://purl.org/dc/dcmitype/StillImage"/>
    <dc:date>2023-10-30T09:11:13.284794</dc:date>
    <dc:format>image/svg+xml</dc:format>
    <dc:creator>
     <cc:Agent>
      <dc:title>Matplotlib v3.8.0, https://matplotlib.org/</dc:title>
     </cc:Agent>
    </dc:creator>
   </cc:Work>
  </rdf:RDF>
 </metadata>
 <defs>
  <style type="text/css">*{stroke-linejoin: round; stroke-linecap: butt}</style>
 </defs>
 <g id="figure_1">
  <g id="patch_1">
   <path d="M 0 720 
L 1440 720 
L 1440 0 
L 0 0 
z
" style="fill: #ffffff"/>
  </g>
  <g id="axes_1">
   <g id="patch_2">
    <path d="M 39.885756 615.83472 
L 1429.2 615.83472 
L 1429.2 25.10218 
L 39.885756 25.10218 
z
" style="fill: #ffffff"/>
   </g>
   <g id="matplotlib.axis_1">
    <g id="xtick_1">
     <g id="line2d_1">
      <path d="M 78.556192 615.83472 
L 78.556192 25.10218 
" clip-path="url(#p62dbde21a5)" style="fill: none; stroke: #cccccc; stroke-opacity: 0.5; stroke-width: 0.8; stroke-linecap: round"/>
     </g>
     <g id="text_1">
      <!-- $\mathdefault{2015}$ -->
      <g transform="translate(68.593521 626.253218) scale(0.1 -0.1)">
       <defs>
        <path id="CMR17-32" d="M 2669 989 
L 2554 989 
C 2490 536 2438 459 2413 420 
C 2381 369 1920 369 1830 369 
L 602 369 
C 832 619 1280 1072 1824 1597 
C 2214 1967 2669 2402 2669 3035 
C 2669 3790 2067 4224 1395 4224 
C 691 4224 262 3604 262 3030 
C 262 2780 448 2748 525 2748 
C 589 2748 781 2787 781 3010 
C 781 3207 614 3264 525 3264 
C 486 3264 448 3258 422 3245 
C 544 3790 915 4058 1306 4058 
C 1862 4058 2227 3617 2227 3035 
C 2227 2479 1901 2000 1536 1584 
L 262 146 
L 262 0 
L 2515 0 
L 2669 989 
z
" transform="scale(0.015625)"/>
        <path id="CMR17-30" d="M 2688 2025 
C 2688 2416 2682 3080 2413 3591 
C 2176 4039 1798 4198 1466 4198 
C 1158 4198 768 4058 525 3597 
C 269 3118 243 2524 243 2025 
C 243 1661 250 1106 448 619 
C 723 -39 1216 -128 1466 -128 
C 1760 -128 2208 -7 2470 600 
C 2662 1042 2688 1559 2688 2025 
z
M 1466 -26 
C 1056 -26 813 325 723 812 
C 653 1188 653 1738 653 2096 
C 653 2588 653 2997 736 3387 
C 858 3929 1216 4096 1466 4096 
C 1728 4096 2067 3923 2189 3400 
C 2272 3036 2278 2607 2278 2096 
C 2278 1680 2278 1169 2202 792 
C 2067 95 1690 -26 1466 -26 
z
" transform="scale(0.015625)"/>
        <path id="CMR17-31" d="M 1702 4058 
C 1702 4192 1696 4192 1606 4192 
C 1357 3916 979 3827 621 3827 
C 602 3827 570 3827 563 3808 
C 557 3795 557 3782 557 3648 
C 755 3648 1088 3686 1344 3839 
L 1344 461 
C 1344 236 1331 160 781 160 
L 589 160 
L 589 0 
C 896 0 1216 0 1523 0 
C 1830 0 2150 0 2458 0 
L 2458 160 
L 2266 160 
C 1715 160 1702 230 1702 458 
L 1702 4058 
z
" transform="scale(0.015625)"/>
        <path id="CMR17-35" d="M 730 3692 
C 794 3666 1056 3584 1325 3584 
C 1920 3584 2246 3911 2432 4100 
C 2432 4157 2432 4192 2394 4192 
C 2387 4192 2374 4192 2323 4163 
C 2099 4058 1837 3973 1517 3973 
C 1325 3973 1037 3999 723 4139 
C 653 4171 640 4171 634 4171 
C 602 4171 595 4164 595 4037 
L 595 2203 
C 595 2089 595 2057 659 2057 
C 691 2057 704 2070 736 2114 
C 941 2401 1222 2522 1542 2522 
C 1766 2522 2246 2382 2246 1289 
C 2246 1085 2246 715 2054 421 
C 1894 159 1645 25 1370 25 
C 947 25 518 320 403 814 
C 429 807 480 795 506 795 
C 589 795 749 840 749 1038 
C 749 1210 627 1280 506 1280 
C 358 1280 262 1190 262 1011 
C 262 454 704 -128 1382 -128 
C 2042 -128 2669 440 2669 1264 
C 2669 2030 2170 2624 1549 2624 
C 1222 2624 947 2503 730 2274 
L 730 3692 
z
" transform="scale(0.015625)"/>
       </defs>
       <use xlink:href="#CMR17-32" transform="scale(0.996264)"/>
       <use xlink:href="#CMR17-30" transform="translate(45.690477 0) scale(0.996264)"/>
       <use xlink:href="#CMR17-31" transform="translate(91.380954 0) scale(0.996264)"/>
       <use xlink:href="#CMR17-35" transform="translate(137.071431 0) scale(0.996264)"/>
      </g>
     </g>
    </g>
    <g id="xtick_2">
     <g id="line2d_2">
      <path d="M 230.001568 615.83472 
L 230.001568 25.10218 
" clip-path="url(#p62dbde21a5)" style="fill: none; stroke: #cccccc; stroke-opacity: 0.5; stroke-width: 0.8; stroke-linecap: round"/>
     </g>
     <g id="text_2">
      <!-- $\mathdefault{2016}$ -->
      <g transform="translate(220.038898 626.253218) scale(0.1 -0.1)">
       <defs>
        <path id="CMR17-36" d="M 678 2176 
C 678 3690 1395 4032 1811 4032 
C 1946 4032 2272 4009 2400 3776 
C 2298 3776 2106 3776 2106 3553 
C 2106 3381 2246 3323 2336 3323 
C 2394 3323 2566 3348 2566 3560 
C 2566 3954 2246 4179 1805 4179 
C 1043 4179 243 3390 243 1984 
C 243 253 966 -128 1478 -128 
C 2099 -128 2688 427 2688 1283 
C 2688 2081 2170 2662 1517 2662 
C 1126 2662 838 2407 678 1960 
L 678 2176 
z
M 1478 25 
C 691 25 691 1200 691 1436 
C 691 1896 909 2560 1504 2560 
C 1613 2560 1926 2560 2138 2120 
C 2253 1870 2253 1609 2253 1289 
C 2253 944 2253 690 2118 434 
C 1978 171 1773 25 1478 25 
z
" transform="scale(0.015625)"/>
       </defs>
       <use xlink:href="#CMR17-32" transform="scale(0.996264)"/>
       <use xlink:href="#CMR17-30" transform="translate(45.690477 0) scale(0.996264)"/>
       <use xlink:href="#CMR17-31" transform="translate(91.380954 0) scale(0.996264)"/>
       <use xlink:href="#CMR17-36" transform="translate(137.071431 0) scale(0.996264)"/>
      </g>
     </g>
    </g>
    <g id="xtick_3">
     <g id="line2d_3">
      <path d="M 381.861864 615.83472 
L 381.861864 25.10218 
" clip-path="url(#p62dbde21a5)" style="fill: none; stroke: #cccccc; stroke-opacity: 0.5; stroke-width: 0.8; stroke-linecap: round"/>
     </g>
     <g id="text_3">
      <!-- $\mathdefault{2017}$ -->
      <g transform="translate(371.899193 626.253218) scale(0.1 -0.1)">
       <defs>
        <path id="CMR17-37" d="M 2886 3941 
L 2886 4081 
L 1382 4081 
C 634 4081 621 4165 595 4288 
L 480 4288 
L 294 3094 
L 410 3094 
C 429 3215 474 3540 550 3661 
C 589 3712 1062 3712 1171 3712 
L 2579 3712 
L 1869 2661 
C 1395 1954 1069 999 1069 165 
C 1069 89 1069 -128 1299 -128 
C 1530 -128 1530 89 1530 171 
L 1530 465 
C 1530 1508 1709 2196 2003 2636 
L 2886 3941 
z
" transform="scale(0.015625)"/>
       </defs>
       <use xlink:href="#CMR17-32" transform="scale(0.996264)"/>
       <use xlink:href="#CMR17-30" transform="translate(45.690477 0) scale(0.996264)"/>
       <use xlink:href="#CMR17-31" transform="translate(91.380954 0) scale(0.996264)"/>
       <use xlink:href="#CMR17-37" transform="translate(137.071431 0) scale(0.996264)"/>
      </g>
     </g>
    </g>
    <g id="xtick_4">
     <g id="line2d_4">
      <path d="M 533.30724 615.83472 
L 533.30724 25.10218 
" clip-path="url(#p62dbde21a5)" style="fill: none; stroke: #cccccc; stroke-opacity: 0.5; stroke-width: 0.8; stroke-linecap: round"/>
     </g>
     <g id="text_4">
      <!-- $\mathdefault{2018}$ -->
      <g transform="translate(523.34457 626.253218) scale(0.1 -0.1)">
       <defs>
        <path id="CMR17-38" d="M 1741 2264 
C 2144 2467 2554 2773 2554 3263 
C 2554 3841 1990 4179 1472 4179 
C 890 4179 378 3759 378 3180 
C 378 3021 416 2747 666 2505 
C 730 2442 998 2251 1171 2130 
C 883 1983 211 1634 211 934 
C 211 279 838 -128 1459 -128 
C 2144 -128 2720 362 2720 1010 
C 2720 1590 2330 1857 2074 2029 
L 1741 2264 
z
M 902 2822 
C 851 2854 595 3051 595 3351 
C 595 3739 998 4032 1459 4032 
C 1965 4032 2336 3676 2336 3262 
C 2336 2669 1670 2331 1638 2331 
C 1632 2331 1626 2331 1574 2370 
L 902 2822 
z
M 2080 1519 
C 2176 1449 2483 1240 2483 851 
C 2483 381 2010 25 1472 25 
C 890 25 448 438 448 940 
C 448 1443 838 1862 1280 2060 
L 2080 1519 
z
" transform="scale(0.015625)"/>
       </defs>
       <use xlink:href="#CMR17-32" transform="scale(0.996264)"/>
       <use xlink:href="#CMR17-30" transform="translate(45.690477 0) scale(0.996264)"/>
       <use xlink:href="#CMR17-31" transform="translate(91.380954 0) scale(0.996264)"/>
       <use xlink:href="#CMR17-38" transform="translate(137.071431 0) scale(0.996264)"/>
      </g>
     </g>
    </g>
    <g id="xtick_5">
     <g id="line2d_5">
      <path d="M 684.752617 615.83472 
L 684.752617 25.10218 
" clip-path="url(#p62dbde21a5)" style="fill: none; stroke: #cccccc; stroke-opacity: 0.5; stroke-width: 0.8; stroke-linecap: round"/>
     </g>
     <g id="text_5">
      <!-- $\mathdefault{2019}$ -->
      <g transform="translate(674.789947 626.253218) scale(0.1 -0.1)">
       <defs>
        <path id="CMR17-39" d="M 2253 1864 
C 2253 464 1670 31 1190 31 
C 1043 31 685 31 538 294 
C 704 268 826 357 826 518 
C 826 692 685 749 595 749 
C 538 749 365 723 365 506 
C 365 71 742 -128 1203 -128 
C 1939 -128 2688 674 2688 2073 
C 2688 3817 1971 4179 1485 4179 
C 851 4179 243 3628 243 2778 
C 243 1991 762 1408 1414 1408 
C 1952 1408 2189 1903 2253 2112 
L 2253 1864 
z
M 1427 1510 
C 1254 1510 1011 1542 813 1922 
C 678 2169 678 2461 678 2771 
C 678 3146 678 3405 858 3684 
C 947 3817 1114 4032 1485 4032 
C 2240 4032 2240 2885 2240 2632 
C 2240 2182 2035 1510 1427 1510 
z
" transform="scale(0.015625)"/>
       </defs>
       <use xlink:href="#CMR17-32" transform="scale(0.996264)"/>
       <use xlink:href="#CMR17-30" transform="translate(45.690477 0) scale(0.996264)"/>
       <use xlink:href="#CMR17-31" transform="translate(91.380954 0) scale(0.996264)"/>
       <use xlink:href="#CMR17-39" transform="translate(137.071431 0) scale(0.996264)"/>
      </g>
     </g>
    </g>
    <g id="xtick_6">
     <g id="line2d_6">
      <path d="M 836.197994 615.83472 
L 836.197994 25.10218 
" clip-path="url(#p62dbde21a5)" style="fill: none; stroke: #cccccc; stroke-opacity: 0.5; stroke-width: 0.8; stroke-linecap: round"/>
     </g>
     <g id="text_6">
      <!-- $\mathdefault{2020}$ -->
      <g transform="translate(826.235323 626.253218) scale(0.1 -0.1)">
       <use xlink:href="#CMR17-32" transform="scale(0.996264)"/>
       <use xlink:href="#CMR17-30" transform="translate(45.690477 0) scale(0.996264)"/>
       <use xlink:href="#CMR17-32" transform="translate(91.380954 0) scale(0.996264)"/>
       <use xlink:href="#CMR17-30" transform="translate(137.071431 0) scale(0.996264)"/>
      </g>
     </g>
    </g>
    <g id="xtick_7">
     <g id="line2d_7">
      <path d="M 988.058289 615.83472 
L 988.058289 25.10218 
" clip-path="url(#p62dbde21a5)" style="fill: none; stroke: #cccccc; stroke-opacity: 0.5; stroke-width: 0.8; stroke-linecap: round"/>
     </g>
     <g id="text_7">
      <!-- $\mathdefault{2021}$ -->
      <g transform="translate(978.095619 626.253218) scale(0.1 -0.1)">
       <use xlink:href="#CMR17-32" transform="scale(0.996264)"/>
       <use xlink:href="#CMR17-30" transform="translate(45.690477 0) scale(0.996264)"/>
       <use xlink:href="#CMR17-32" transform="translate(91.380954 0) scale(0.996264)"/>
       <use xlink:href="#CMR17-31" transform="translate(137.071431 0) scale(0.996264)"/>
      </g>
     </g>
    </g>
    <g id="xtick_8">
     <g id="line2d_8">
      <path d="M 1139.503666 615.83472 
L 1139.503666 25.10218 
" clip-path="url(#p62dbde21a5)" style="fill: none; stroke: #cccccc; stroke-opacity: 0.5; stroke-width: 0.8; stroke-linecap: round"/>
     </g>
     <g id="text_8">
      <!-- $\mathdefault{2022}$ -->
      <g transform="translate(1129.540995 626.253218) scale(0.1 -0.1)">
       <use xlink:href="#CMR17-32" transform="scale(0.996264)"/>
       <use xlink:href="#CMR17-30" transform="translate(45.690477 0) scale(0.996264)"/>
       <use xlink:href="#CMR17-32" transform="translate(91.380954 0) scale(0.996264)"/>
       <use xlink:href="#CMR17-32" transform="translate(137.071431 0) scale(0.996264)"/>
      </g>
     </g>
    </g>
    <g id="xtick_9">
     <g id="line2d_9">
      <path d="M 1290.949042 615.83472 
L 1290.949042 25.10218 
" clip-path="url(#p62dbde21a5)" style="fill: none; stroke: #cccccc; stroke-opacity: 0.5; stroke-width: 0.8; stroke-linecap: round"/>
     </g>
     <g id="text_9">
      <!-- $\mathdefault{2023}$ -->
      <g transform="translate(1280.986372 626.253218) scale(0.1 -0.1)">
       <defs>
        <path id="CMR17-33" d="M 1414 2157 
C 1984 2157 2234 1662 2234 1090 
C 2234 320 1824 25 1453 25 
C 1114 25 563 194 390 693 
C 422 680 454 680 486 680 
C 640 680 755 782 755 948 
C 755 1133 614 1216 486 1216 
C 378 1216 211 1165 211 926 
C 211 335 787 -128 1466 -128 
C 2176 -128 2720 430 2720 1085 
C 2720 1707 2208 2157 1600 2227 
C 2086 2328 2554 2756 2554 3329 
C 2554 3820 2048 4179 1472 4179 
C 890 4179 378 3829 378 3329 
C 378 3110 544 3072 627 3072 
C 762 3072 877 3155 877 3321 
C 877 3486 762 3569 627 3569 
C 602 3569 570 3569 544 3557 
C 730 3959 1235 4032 1459 4032 
C 1683 4032 2106 3925 2106 3320 
C 2106 3143 2080 2828 1862 2550 
C 1670 2304 1453 2304 1242 2284 
C 1210 2284 1062 2269 1037 2269 
C 992 2263 966 2257 966 2208 
C 966 2163 973 2157 1101 2157 
L 1414 2157 
z
" transform="scale(0.015625)"/>
       </defs>
       <use xlink:href="#CMR17-32" transform="scale(0.996264)"/>
       <use xlink:href="#CMR17-30" transform="translate(45.690477 0) scale(0.996264)"/>
       <use xlink:href="#CMR17-32" transform="translate(91.380954 0) scale(0.996264)"/>
       <use xlink:href="#CMR17-33" transform="translate(137.071431 0) scale(0.996264)"/>
      </g>
     </g>
    </g>
    <g id="text_10">
     <!-- Date -->
     <g style="fill: #696969" transform="translate(724.095924 639.108895) scale(0.1 -0.1)">
      <defs>
       <path id="CMR17-44" d="M 333 4352 
L 333 4186 
C 774 4186 845 4186 845 3900 
L 845 452 
C 845 166 774 166 333 166 
L 333 0 
L 2368 0 
C 3398 0 4224 943 4224 2141 
C 4224 3346 3411 4352 2368 4352 
L 333 4352 
z
M 1523 166 
C 1267 166 1254 197 1254 414 
L 1254 3938 
C 1254 4155 1267 4186 1523 4186 
L 2240 4186 
C 2771 4186 3750 3874 3750 2141 
C 3750 1242 3488 879 3366 707 
C 3213 510 2848 166 2240 166 
L 1523 166 
z
" transform="scale(0.015625)"/>
       <path id="CMR17-61" d="M 2304 1653 
C 2304 2072 2304 2294 2035 2543 
C 1798 2752 1523 2816 1306 2816 
C 800 2816 435 2407 435 1971 
C 435 1728 627 1728 666 1728 
C 749 1728 896 1778 896 1954 
C 896 2112 774 2181 666 2181 
C 640 2181 608 2174 589 2168 
C 723 2592 1069 2714 1293 2714 
C 1613 2714 1965 2429 1965 1885 
L 1965 1600 
C 1587 1600 1133 1549 774 1357 
C 371 1133 256 813 256 570 
C 256 77 832 -64 1171 -64 
C 1523 -64 1850 139 1990 511 
C 2003 233 2182 -18 2464 -18 
C 2598 -18 2938 70 2938 567 
L 2938 920 
L 2822 920 
L 2822 562 
C 2822 178 2650 128 2566 128 
C 2304 128 2304 458 2304 738 
L 2304 1653 
z
M 1965 870 
C 1965 317 1568 38 1216 38 
C 896 38 646 275 646 570 
C 646 761 730 1100 1101 1305 
C 1408 1478 1760 1504 1965 1504 
L 1965 870 
z
" transform="scale(0.015625)"/>
       <path id="CMR17-74" d="M 966 2560 
L 1862 2560 
L 1862 2725 
L 966 2725 
L 966 3904 
L 851 3904 
C 838 3245 614 2668 70 2668 
L 70 2560 
L 627 2560 
L 627 771 
C 627 650 627 -64 1370 -64 
C 1747 -64 1965 306 1965 777 
L 1965 1140 
L 1850 1140 
L 1850 783 
C 1850 344 1677 51 1408 51 
C 1222 51 966 178 966 758 
L 966 2560 
z
" transform="scale(0.015625)"/>
       <path id="CMR17-65" d="M 2438 1472 
C 2464 1498 2464 1511 2464 1576 
C 2464 2238 2118 2816 1389 2816 
C 710 2816 173 2169 173 1383 
C 173 551 781 -64 1459 -64 
C 2176 -64 2458 607 2458 740 
C 2458 784 2419 784 2406 784 
C 2362 784 2355 771 2330 696 
C 2189 265 1837 51 1504 51 
C 1229 51 954 203 781 480 
C 582 803 582 1176 582 1472 
L 2438 1472 
z
M 589 1568 
C 634 2505 1126 2714 1382 2714 
C 1818 2714 2112 2297 2118 1568 
L 589 1568 
z
" transform="scale(0.015625)"/>
      </defs>
      <use xlink:href="#CMR17-44" transform="scale(0.996264)"/>
      <use xlink:href="#CMR17-61" transform="translate(70.393556 0) scale(0.996264)"/>
      <use xlink:href="#CMR17-74" transform="translate(116.084033 0) scale(0.996264)"/>
      <use xlink:href="#CMR17-65" transform="translate(151.364801 0) scale(0.996264)"/>
     </g>
    </g>
   </g>
   <g id="matplotlib.axis_2">
    <g id="ytick_1">
     <g id="line2d_10">
      <path d="M 39.885756 585.55966 
L 1429.2 585.55966 
" clip-path="url(#p62dbde21a5)" style="fill: none; stroke: #cccccc; stroke-opacity: 0.5; stroke-width: 0.8; stroke-linecap: round"/>
     </g>
     <g id="text_11">
      <!-- $\mathdefault{−3}$ -->
      <g transform="translate(23.655677 589.018909) scale(0.1 -0.1)">
       <defs>
        <path id="CMSY10-0" d="M 4218 1472 
C 4326 1472 4442 1472 4442 1600 
C 4442 1728 4326 1728 4218 1728 
L 755 1728 
C 646 1728 531 1728 531 1600 
C 531 1472 646 1472 755 1472 
L 4218 1472 
z
" transform="scale(0.015625)"/>
       </defs>
       <use xlink:href="#CMSY10-0" transform="scale(0.996264)"/>
       <use xlink:href="#CMR17-33" transform="translate(77.487468 0) scale(0.996264)"/>
      </g>
     </g>
    </g>
    <g id="ytick_2">
     <g id="line2d_11">
      <path d="M 39.885756 511.132305 
L 1429.2 511.132305 
" clip-path="url(#p62dbde21a5)" style="fill: none; stroke: #cccccc; stroke-opacity: 0.5; stroke-width: 0.8; stroke-linecap: round"/>
     </g>
     <g id="text_12">
      <!-- $\mathdefault{−2}$ -->
      <g transform="translate(23.655677 514.591554) scale(0.1 -0.1)">
       <use xlink:href="#CMSY10-0" transform="scale(0.996264)"/>
       <use xlink:href="#CMR17-32" transform="translate(77.487468 0) scale(0.996264)"/>
      </g>
     </g>
    </g>
    <g id="ytick_3">
     <g id="line2d_12">
      <path d="M 39.885756 436.70495 
L 1429.2 436.70495 
" clip-path="url(#p62dbde21a5)" style="fill: none; stroke: #cccccc; stroke-opacity: 0.5; stroke-width: 0.8; stroke-linecap: round"/>
     </g>
     <g id="text_13">
      <!-- $\mathdefault{−1}$ -->
      <g transform="translate(23.655677 440.1642) scale(0.1 -0.1)">
       <use xlink:href="#CMSY10-0" transform="scale(0.996264)"/>
       <use xlink:href="#CMR17-31" transform="translate(77.487468 0) scale(0.996264)"/>
      </g>
     </g>
    </g>
    <g id="ytick_4">
     <g id="line2d_13">
      <path d="M 39.885756 362.277596 
L 1429.2 362.277596 
" clip-path="url(#p62dbde21a5)" style="fill: none; stroke: #cccccc; stroke-opacity: 0.5; stroke-width: 0.8; stroke-linecap: round"/>
     </g>
     <g id="text_14">
      <!-- $\mathdefault{0}$ -->
      <g transform="translate(31.40442 365.736845) scale(0.1 -0.1)">
       <use xlink:href="#CMR17-30" transform="scale(0.996264)"/>
      </g>
     </g>
    </g>
    <g id="ytick_5">
     <g id="line2d_14">
      <path d="M 39.885756 287.850241 
L 1429.2 287.850241 
" clip-path="url(#p62dbde21a5)" style="fill: none; stroke: #cccccc; stroke-opacity: 0.5; stroke-width: 0.8; stroke-linecap: round"/>
     </g>
     <g id="text_15">
      <!-- $\mathdefault{1}$ -->
      <g transform="translate(31.40442 291.30949) scale(0.1 -0.1)">
       <use xlink:href="#CMR17-31" transform="scale(0.996264)"/>
      </g>
     </g>
    </g>
    <g id="ytick_6">
     <g id="line2d_15">
      <path d="M 39.885756 213.422886 
L 1429.2 213.422886 
" clip-path="url(#p62dbde21a5)" style="fill: none; stroke: #cccccc; stroke-opacity: 0.5; stroke-width: 0.8; stroke-linecap: round"/>
     </g>
     <g id="text_16">
      <!-- $\mathdefault{2}$ -->
      <g transform="translate(31.40442 216.882136) scale(0.1 -0.1)">
       <use xlink:href="#CMR17-32" transform="scale(0.996264)"/>
      </g>
     </g>
    </g>
    <g id="ytick_7">
     <g id="line2d_16">
      <path d="M 39.885756 138.995532 
L 1429.2 138.995532 
" clip-path="url(#p62dbde21a5)" style="fill: none; stroke: #cccccc; stroke-opacity: 0.5; stroke-width: 0.8; stroke-linecap: round"/>
     </g>
     <g id="text_17">
      <!-- $\mathdefault{3}$ -->
      <g transform="translate(31.40442 142.454781) scale(0.1 -0.1)">
       <use xlink:href="#CMR17-33" transform="scale(0.996264)"/>
      </g>
     </g>
    </g>
    <g id="ytick_8">
     <g id="line2d_17">
      <path d="M 39.885756 64.568177 
L 1429.2 64.568177 
" clip-path="url(#p62dbde21a5)" style="fill: none; stroke: #cccccc; stroke-opacity: 0.5; stroke-width: 0.8; stroke-linecap: round"/>
     </g>
     <g id="text_18">
      <!-- $\mathdefault{4}$ -->
      <g transform="translate(31.40442 68.027426) scale(0.1 -0.1)">
       <defs>
        <path id="CMR17-34" d="M 2150 4122 
C 2150 4256 2144 4256 2029 4256 
L 128 1254 
L 128 1088 
L 1779 1088 
L 1779 457 
C 1779 224 1766 160 1318 160 
L 1197 160 
L 1197 0 
C 1402 0 1747 0 1965 0 
C 2182 0 2528 0 2733 0 
L 2733 160 
L 2611 160 
C 2163 160 2150 224 2150 457 
L 2150 1088 
L 2803 1088 
L 2803 1254 
L 2150 1254 
L 2150 4122 
z
M 1798 3703 
L 1798 1254 
L 256 1254 
L 1798 3703 
z
" transform="scale(0.015625)"/>
       </defs>
       <use xlink:href="#CMR17-34" transform="scale(0.996264)"/>
      </g>
     </g>
    </g>
    <g id="text_19">
     <!-- Total Contribution -->
     <g style="fill: #696969" transform="translate(17.718498 361.716639) rotate(-90) scale(0.1 -0.1)">
      <defs>
       <path id="CMR17-54" d="M 3981 4326 
L 288 4326 
L 179 2918 
L 294 2918 
C 378 3976 467 4160 1453 4160 
C 1568 4160 1754 4160 1805 4154 
C 1926 4135 1926 4058 1926 3912 
L 1926 459 
C 1926 230 1907 160 1376 160 
L 1197 160 
L 1197 0 
C 1504 0 1824 0 2138 0 
C 2451 0 2771 0 3078 0 
L 3078 160 
L 2899 160 
C 2368 160 2349 230 2349 459 
L 2349 3912 
C 2349 4052 2349 4129 2464 4154 
C 2515 4160 2701 4160 2816 4160 
C 3795 4160 3891 3976 3974 2918 
L 4090 2918 
L 3981 4326 
z
" transform="scale(0.015625)"/>
       <path id="CMR17-6f" d="M 2758 1356 
C 2758 2176 2163 2816 1466 2816 
C 768 2816 173 2176 173 1356 
C 173 551 768 -64 1466 -64 
C 2163 -64 2758 551 2758 1356 
z
M 1466 51 
C 1165 51 909 230 762 480 
C 602 767 582 1126 582 1408 
C 582 1677 595 2010 762 2298 
C 890 2509 1139 2714 1466 2714 
C 1754 2714 1997 2554 2150 2330 
C 2349 2029 2349 1607 2349 1408 
C 2349 1158 2336 775 2163 467 
C 1984 173 1709 51 1466 51 
z
" transform="scale(0.015625)"/>
       <path id="CMR17-6c" d="M 979 4396 
L 218 4326 
L 218 4160 
C 595 4160 653 4122 653 3817 
L 653 426 
C 653 184 627 153 218 153 
L 218 -13 
C 371 0 653 0 813 0 
C 979 0 1261 0 1414 -13 
L 1414 153 
C 1005 153 979 178 979 426 
L 979 4396 
z
" transform="scale(0.015625)"/>
       <path id="CMR17-43" d="M 3974 4289 
C 3974 4403 3968 4410 3930 4410 
C 3904 4410 3898 4403 3853 4327 
L 3571 3792 
C 3258 4187 2874 4416 2381 4416 
C 1286 4416 294 3456 294 2148 
C 294 826 1286 -128 2387 -128 
C 3366 -128 3974 730 3974 1461 
C 3974 1524 3974 1550 3917 1550 
C 3866 1550 3866 1531 3859 1474 
C 3808 585 3168 38 2477 38 
C 1824 38 781 495 781 2147 
C 781 3805 1843 4250 2464 4250 
C 3187 4250 3712 3628 3834 2745 
C 3846 2668 3846 2655 3904 2655 
C 3974 2655 3974 2668 3974 2783 
L 3974 4289 
z
" transform="scale(0.015625)"/>
       <path id="CMR17-6e" d="M 2656 1933 
C 2656 2259 2592 2790 1837 2790 
C 1331 2790 1069 2400 973 2144 
L 966 2144 
L 966 2790 
L 211 2720 
L 211 2554 
C 589 2554 646 2515 646 2208 
L 646 428 
C 646 184 621 153 211 153 
L 211 -13 
C 365 0 646 0 813 0 
C 979 0 1267 0 1421 -13 
L 1421 153 
C 1011 153 986 178 986 428 
L 986 1658 
C 986 2247 1344 2688 1792 2688 
C 2266 2688 2317 2266 2317 1958 
L 2317 428 
C 2317 184 2291 153 1882 153 
L 1882 -13 
C 2035 0 2317 0 2483 0 
C 2650 0 2938 0 3091 -13 
L 3091 153 
C 2682 153 2656 178 2656 428 
L 2656 1933 
z
" transform="scale(0.015625)"/>
       <path id="CMR17-72" d="M 960 1497 
C 960 2112 1222 2688 1702 2688 
C 1747 2688 1792 2682 1837 2662 
C 1837 2662 1696 2617 1696 2452 
C 1696 2298 1818 2234 1914 2234 
C 1990 2234 2131 2279 2131 2458 
C 2131 2663 1926 2790 1709 2790 
C 1222 2790 1011 2317 947 2093 
L 941 2093 
L 941 2790 
L 198 2720 
L 198 2554 
C 576 2554 634 2515 634 2208 
L 634 428 
C 634 184 608 153 198 153 
L 198 -13 
C 352 0 646 0 813 0 
C 998 0 1325 0 1498 -13 
L 1498 153 
C 1037 153 960 153 960 440 
L 960 1497 
z
" transform="scale(0.015625)"/>
       <path id="CMR17-69" d="M 992 3909 
C 992 4049 877 4170 730 4170 
C 589 4170 467 4056 467 3909 
C 467 3769 582 3648 730 3648 
C 870 3648 992 3763 992 3909 
z
M 243 2706 
L 243 2541 
C 602 2541 653 2502 653 2197 
L 653 427 
C 653 184 627 153 218 153 
L 218 -13 
C 371 0 646 0 806 0 
C 960 0 1222 0 1370 -13 
L 1370 153 
C 992 153 979 191 979 420 
L 979 2776 
L 243 2706 
z
" transform="scale(0.015625)"/>
       <path id="CMR17-62" d="M 960 4396 
L 198 4326 
L 198 4160 
C 576 4160 634 4122 634 3817 
L 634 -13 
L 749 -13 
L 934 441 
C 1120 141 1395 -64 1766 -64 
C 2406 -64 3053 500 3053 1370 
C 3053 2188 2477 2790 1830 2790 
C 1434 2790 1152 2579 960 2330 
L 960 4396 
z
M 973 2004 
C 973 2118 973 2138 1062 2272 
C 1312 2657 1670 2688 1792 2688 
C 1984 2688 2643 2585 2643 1376 
C 2643 108 1888 38 1734 38 
C 1536 38 1248 114 1043 486 
C 973 608 973 621 973 735 
L 973 2004 
z
" transform="scale(0.015625)"/>
       <path id="CMR17-75" d="M 1882 2693 
L 1882 2528 
C 2259 2528 2317 2489 2317 2186 
L 2317 1032 
C 2317 500 2029 38 1555 38 
C 1030 38 986 348 986 678 
L 986 2763 
L 211 2693 
L 211 2528 
C 467 2528 640 2528 646 2274 
L 646 1058 
C 646 633 646 361 813 183 
C 896 101 1056 -64 1517 -64 
C 2061 -64 2272 377 2323 506 
L 2330 506 
L 2330 -63 
L 3091 -63 
L 3091 128 
C 2714 128 2656 166 2656 473 
L 2656 2763 
L 1882 2693 
z
" transform="scale(0.015625)"/>
      </defs>
      <use xlink:href="#CMR17-54" transform="scale(0.996264)"/>
      <use xlink:href="#CMR17-6f" transform="translate(58.702625 0) scale(0.996264)"/>
      <use xlink:href="#CMR17-74" transform="translate(104.393102 0) scale(0.996264)"/>
      <use xlink:href="#CMR17-61" transform="translate(139.67387 0) scale(0.996264)"/>
      <use xlink:href="#CMR17-6c" transform="translate(185.364347 0) scale(0.996264)"/>
      <use xlink:href="#CMR17-43" transform="translate(240.311372 0) scale(0.996264)"/>
      <use xlink:href="#CMR17-6f" transform="translate(306.821253 0) scale(0.996264)"/>
      <use xlink:href="#CMR17-6e" transform="translate(352.51173 0) scale(0.996264)"/>
      <use xlink:href="#CMR17-74" transform="translate(400.804646 0) scale(0.996264)"/>
      <use xlink:href="#CMR17-72" transform="translate(436.085413 0) scale(0.996264)"/>
      <use xlink:href="#CMR17-69" transform="translate(471.366181 0) scale(0.996264)"/>
      <use xlink:href="#CMR17-62" transform="translate(496.23724 0) scale(0.996264)"/>
      <use xlink:href="#CMR17-75" transform="translate(547.132609 0) scale(0.996264)"/>
      <use xlink:href="#CMR17-74" transform="translate(598.027979 0) scale(0.996264)"/>
      <use xlink:href="#CMR17-69" transform="translate(633.308747 0) scale(0.996264)"/>
      <use xlink:href="#CMR17-6f" transform="translate(658.179805 0) scale(0.996264)"/>
      <use xlink:href="#CMR17-6e" transform="translate(703.870283 0) scale(0.996264)"/>
     </g>
    </g>
   </g>
   <g id="line2d_18">
    <path d="M 103.036403 364.081224 
L 115.898887 400.331821 
L 115.898887 400.331821 
L 128.346452 368.755227 
L 128.346452 368.755227 
L 141.208936 282.786164 
L 141.208936 282.786164 
L 166.518986 326.422186 
L 166.518986 326.422186 
L 179.38147 351.715163 
L 179.38147 351.715163 
L 191.829035 81.807687 
L 191.829035 81.807687 
L 204.691519 363.281144 
L 204.691519 363.281144 
L 230.001568 363.513515 
L 230.001568 363.513515 
L 242.864052 498.164542 
L 242.864052 498.164542 
L 254.896699 245.403111 
L 254.896699 245.403111 
L 267.759183 407.674294 
L 267.759183 407.674294 
L 280.206748 367.536409 
L 280.206748 367.536409 
L 293.069232 351.504331 
L 293.069232 351.504331 
L 305.516797 360.935482 
L 305.516797 360.935482 
L 318.379281 338.602459 
L 318.379281 338.602459 
L 331.241765 51.953659 
L 331.241765 51.953659 
L 343.68933 356.076568 
L 343.68933 356.076568 
L 356.551814 327.679146 
L 356.551814 327.679146 
L 368.99938 386.023281 
L 368.99938 386.023281 
L 381.861864 344.325344 
L 381.861864 344.325344 
L 394.724348 309.847804 
L 394.724348 309.847804 
L 406.342075 359.992707 
L 406.342075 359.992707 
L 419.204559 323.322789 
L 419.204559 323.322789 
L 431.652125 370.585013 
L 431.652125 370.585013 
L 444.514609 379.94776 
L 444.514609 379.94776 
L 456.962174 367.552012 
L 456.962174 367.552012 
L 469.824658 310.486724 
L 469.824658 310.486724 
L 482.687142 458.290714 
L 482.687142 458.290714 
L 495.134707 363.551706 
L 495.134707 363.551706 
L 507.997191 388.23847 
L 507.997191 388.23847 
L 520.444756 376.535334 
L 520.444756 376.535334 
L 533.30724 385.696619 
L 533.30724 385.696619 
L 546.169724 285.758448 
L 546.169724 285.758448 
L 557.787452 334.572498 
L 557.787452 334.572498 
L 570.649936 344.775204 
L 583.097501 373.289855 
L 583.097501 373.289855 
L 595.959985 331.919267 
L 595.959985 331.919267 
L 608.40755 362.913281 
L 608.40755 362.913281 
L 621.270034 299.162489 
L 621.270034 299.162489 
L 634.132519 343.987292 
L 634.132519 343.987292 
L 646.580084 588.983241 
L 646.580084 588.983241 
L 659.442568 357.428025 
L 659.442568 357.428025 
L 671.890133 296.542065 
L 671.890133 296.542065 
L 684.752617 352.50732 
L 684.752617 352.50732 
L 697.615101 359.960342 
L 697.615101 359.960342 
L 709.232829 362.334883 
L 709.232829 362.334883 
L 722.095313 314.4913 
L 722.095313 314.4913 
L 734.542878 337.846316 
L 734.542878 337.846316 
L 747.405362 358.948664 
L 747.405362 358.948664 
L 759.852927 365.357058 
L 759.852927 365.357058 
L 772.715411 349.186828 
L 772.715411 349.186828 
L 785.577895 356.589531 
L 785.577895 356.589531 
L 798.02546 351.630539 
L 798.02546 351.630539 
L 810.887944 488.454214 
L 810.887944 488.454214 
L 823.33551 418.439593 
L 823.33551 418.439593 
L 836.197994 350.759172 
L 836.197994 350.759172 
L 849.060478 365.668642 
L 849.060478 365.668642 
L 861.093124 425.721104 
L 861.093124 425.721104 
L 873.955608 398.291465 
L 873.955608 398.291465 
L 886.403173 350.669367 
L 886.403173 350.669367 
L 899.265657 537.153902 
L 899.265657 537.153902 
L 911.713223 449.266724 
L 911.713223 449.266724 
L 924.575707 362.720694 
L 937.438191 399.262955 
L 937.438191 399.262955 
L 949.885756 263.319666 
L 949.885756 263.319666 
L 962.74824 315.896944 
L 962.74824 315.896944 
L 975.195805 353.923527 
L 975.195805 353.923527 
L 988.058289 355.651985 
L 988.058289 355.651985 
L 1000.920773 403.005964 
L 1000.920773 403.005964 
L 1012.538501 372.562087 
L 1012.538501 372.562087 
L 1025.400985 343.049713 
L 1025.400985 343.049713 
L 1037.84855 369.307038 
L 1037.84855 369.307038 
L 1050.711034 350.771113 
L 1050.711034 350.771113 
L 1063.158599 372.548539 
L 1063.158599 372.548539 
L 1076.021083 362.292228 
L 1088.883567 311.934407 
L 1088.883567 311.934407 
L 1101.331133 334.134484 
L 1101.331133 334.134484 
L 1114.193617 370.406462 
L 1114.193617 370.406462 
L 1126.641182 373.406722 
L 1126.641182 373.406722 
L 1139.503666 369.169603 
L 1139.503666 369.169603 
L 1152.36615 363.505665 
L 1163.983877 352.040403 
L 1163.983877 352.040403 
L 1176.846361 356.950632 
L 1176.846361 356.950632 
L 1189.293927 362.634188 
L 1189.293927 362.634188 
L 1202.156411 366.241048 
L 1202.156411 366.241048 
L 1214.603976 310.642303 
L 1214.603976 310.642303 
L 1227.46646 358.474956 
L 1227.46646 358.474956 
L 1240.328944 321.225518 
L 1240.328944 321.225518 
L 1252.776509 350.106027 
L 1252.776509 350.106027 
L 1265.638993 363.061865 
L 1265.638993 363.061865 
L 1278.086558 376.704945 
L 1303.811527 355.753618 
L 1303.811527 355.753618 
L 1328.291738 362.277526 
L 1353.601787 353.298389 
L 1366.049353 363.527241 
L 1366.049353 363.527241 
" clip-path="url(#p62dbde21a5)" style="fill: none; stroke: #006e64; stroke-width: 1.5; stroke-linecap: round"/>
   </g>
   <g id="line2d_19">
    <path d="M 103.036403 358.759231 
L 115.898887 346.098253 
L 115.898887 346.098253 
L 128.346452 391.345549 
L 128.346452 391.345549 
L 141.208936 350.099993 
L 141.208936 350.099993 
L 166.518986 355.126329 
L 191.829035 346.362651 
L 191.829035 346.362651 
L 204.691519 352.55785 
L 204.691519 352.55785 
L 230.001568 337.04872 
L 230.001568 337.04872 
L 242.864052 346.254399 
L 242.864052 346.254399 
L 254.896699 340.789963 
L 254.896699 340.789963 
L 267.759183 342.671304 
L 267.759183 342.671304 
L 280.206748 346.109072 
L 280.206748 346.109072 
L 293.069232 338.771357 
L 293.069232 338.771357 
L 305.516797 356.501422 
L 305.516797 356.501422 
L 318.379281 354.944049 
L 318.379281 354.944049 
L 331.241765 351.41739 
L 331.241765 351.41739 
L 343.68933 351.989052 
L 343.68933 351.989052 
L 356.551814 348.201913 
L 356.551814 348.201913 
L 368.99938 347.477411 
L 368.99938 347.477411 
L 381.861864 345.060646 
L 381.861864 345.060646 
L 394.724348 351.590211 
L 394.724348 351.590211 
L 406.342075 356.103569 
L 406.342075 356.103569 
L 419.204559 337.773839 
L 419.204559 337.773839 
L 431.652125 354.737876 
L 431.652125 354.737876 
L 444.514609 348.459909 
L 444.514609 348.459909 
L 456.962174 351.401426 
L 456.962174 351.401426 
L 469.824658 345.197443 
L 469.824658 345.197443 
L 482.687142 338.131242 
L 482.687142 338.131242 
L 495.134707 345.239956 
L 495.134707 345.239956 
L 507.997191 322.361568 
L 507.997191 322.361568 
L 520.444756 327.365359 
L 520.444756 327.365359 
L 533.30724 348.739689 
L 533.30724 348.739689 
L 546.169724 345.738068 
L 546.169724 345.738068 
L 557.787452 355.884505 
L 557.787452 355.884505 
L 570.649936 360.460824 
L 583.097501 343.385195 
L 583.097501 343.385195 
L 595.959985 338.68618 
L 595.959985 338.68618 
L 608.40755 348.585891 
L 608.40755 348.585891 
L 621.270034 339.492438 
L 621.270034 339.492438 
L 634.132519 346.061519 
L 634.132519 346.061519 
L 646.580084 367.644343 
L 646.580084 367.644343 
L 659.442568 347.383472 
L 659.442568 347.383472 
L 671.890133 352.690342 
L 671.890133 352.690342 
L 684.752617 347.804891 
L 684.752617 347.804891 
L 697.615101 352.501149 
L 697.615101 352.501149 
L 709.232829 350.628261 
L 709.232829 350.628261 
L 722.095313 350.115891 
L 722.095313 350.115891 
L 734.542878 354.519735 
L 734.542878 354.519735 
L 747.405362 351.869494 
L 747.405362 351.869494 
L 759.852927 344.143588 
L 759.852927 344.143588 
L 772.715411 348.349357 
L 772.715411 348.349357 
L 785.577895 348.674977 
L 785.577895 348.674977 
L 798.02546 358.214241 
L 798.02546 358.214241 
L 810.887944 359.622559 
L 810.887944 359.622559 
L 823.33551 342.346505 
L 823.33551 342.346505 
L 836.197994 354.195524 
L 836.197994 354.195524 
L 849.060478 348.029876 
L 849.060478 348.029876 
L 861.093124 353.498096 
L 861.093124 353.498096 
L 873.955608 365.770621 
L 873.955608 365.770621 
L 886.403173 367.008947 
L 886.403173 367.008947 
L 899.265657 364.24931 
L 899.265657 364.24931 
L 911.713223 357.722923 
L 911.713223 357.722923 
L 924.575707 359.832639 
L 937.438191 357.618889 
L 937.438191 357.618889 
L 949.885756 359.152732 
L 949.885756 359.152732 
L 962.74824 342.336114 
L 962.74824 342.336114 
L 975.195805 349.977732 
L 975.195805 349.977732 
L 988.058289 338.303071 
L 988.058289 338.303071 
L 1000.920773 347.99607 
L 1000.920773 347.99607 
L 1012.538501 350.137129 
L 1012.538501 350.137129 
L 1025.400985 346.880159 
L 1025.400985 346.880159 
L 1037.84855 346.130341 
L 1037.84855 346.130341 
L 1050.711034 353.942471 
L 1050.711034 353.942471 
L 1063.158599 344.817816 
L 1063.158599 344.817816 
L 1076.021083 360.394737 
L 1088.883567 342.080099 
L 1088.883567 342.080099 
L 1101.331133 355.185573 
L 1101.331133 355.185573 
L 1114.193617 355.152212 
L 1114.193617 355.152212 
L 1126.641182 359.399697 
L 1126.641182 359.399697 
L 1139.503666 358.090568 
L 1139.503666 358.090568 
L 1152.36615 358.639077 
L 1163.983877 356.699608 
L 1163.983877 356.699608 
L 1176.846361 346.634181 
L 1176.846361 346.634181 
L 1189.293927 359.182998 
L 1189.293927 359.182998 
L 1202.156411 362.082746 
L 1202.156411 362.082746 
L 1214.603976 358.794534 
L 1214.603976 358.794534 
L 1227.46646 369.256054 
L 1227.46646 369.256054 
L 1240.328944 360.078352 
L 1240.328944 360.078352 
L 1252.776509 364.324058 
L 1252.776509 364.324058 
L 1278.086558 361.195554 
L 1303.811527 362.43487 
L 1303.811527 362.43487 
L 1328.291738 365.498378 
L 1353.601787 361.617472 
L 1366.049353 360.629521 
L 1366.049353 360.629521 
" clip-path="url(#p62dbde21a5)" style="fill: none; stroke: #734848; stroke-width: 1.5; stroke-linecap: round"/>
   </g>
   <g id="line2d_20">
    <path d="M 103.036403 360.628455 
L 115.898887 347.371758 
L 115.898887 347.371758 
L 128.346452 415.150033 
L 128.346452 415.150033 
L 141.208936 352.378863 
L 141.208936 352.378863 
L 166.518986 357.661034 
L 166.518986 357.661034 
L 179.38147 355.597579 
L 179.38147 355.597579 
L 191.829035 345.064185 
L 191.829035 345.064185 
L 204.691519 354.654231 
L 204.691519 354.654231 
L 230.001568 337.925331 
L 230.001568 337.925331 
L 242.864052 317.962377 
L 242.864052 317.962377 
L 254.896699 332.47455 
L 254.896699 332.47455 
L 267.759183 339.643785 
L 267.759183 339.643785 
L 280.206748 346.391988 
L 280.206748 346.391988 
L 293.069232 341.446124 
L 293.069232 341.446124 
L 305.516797 355.732784 
L 305.516797 355.732784 
L 318.379281 357.705738 
L 318.379281 357.705738 
L 331.241765 349.936748 
L 331.241765 349.936748 
L 343.68933 352.077228 
L 343.68933 352.077228 
L 356.551814 348.70793 
L 356.551814 348.70793 
L 368.99938 348.967498 
L 368.99938 348.967498 
L 381.861864 351.9739 
L 381.861864 351.9739 
L 394.724348 347.958819 
L 394.724348 347.958819 
L 406.342075 356.637821 
L 406.342075 356.637821 
L 419.204559 342.844417 
L 419.204559 342.844417 
L 431.652125 353.702946 
L 431.652125 353.702946 
L 444.514609 345.226598 
L 444.514609 345.226598 
L 456.962174 351.421653 
L 456.962174 351.421653 
L 469.824658 344.740355 
L 469.824658 344.740355 
L 482.687142 340.649965 
L 482.687142 340.649965 
L 495.134707 351.851374 
L 495.134707 351.851374 
L 507.997191 332.110455 
L 507.997191 332.110455 
L 520.444756 326.669665 
L 520.444756 326.669665 
L 533.30724 353.730537 
L 533.30724 353.730537 
L 546.169724 349.388003 
L 546.169724 349.388003 
L 557.787452 354.14238 
L 557.787452 354.14238 
L 570.649936 359.98796 
L 583.097501 346.755347 
L 583.097501 346.755347 
L 595.959985 335.419127 
L 595.959985 335.419127 
L 608.40755 367.986406 
L 608.40755 367.986406 
L 621.270034 348.423195 
L 621.270034 348.423195 
L 634.132519 349.995206 
L 634.132519 349.995206 
L 646.580084 363.635776 
L 646.580084 363.635776 
L 659.442568 355.488188 
L 659.442568 355.488188 
L 671.890133 358.989862 
L 671.890133 358.989862 
L 684.752617 355.556813 
L 684.752617 355.556813 
L 697.615101 354.187234 
L 697.615101 354.187234 
L 709.232829 357.383859 
L 709.232829 357.383859 
L 722.095313 358.06995 
L 722.095313 358.06995 
L 734.542878 352.561492 
L 734.542878 352.561492 
L 747.405362 355.452402 
L 747.405362 355.452402 
L 759.852927 346.242091 
L 759.852927 346.242091 
L 772.715411 368.34236 
L 772.715411 368.34236 
L 785.577895 359.019417 
L 785.577895 359.019417 
L 798.02546 351.628203 
L 798.02546 351.628203 
L 810.887944 355.23543 
L 810.887944 355.23543 
L 823.33551 343.417852 
L 823.33551 343.417852 
L 836.197994 358.964923 
L 836.197994 358.964923 
L 849.060478 350.516283 
L 849.060478 350.516283 
L 861.093124 360.038239 
L 861.093124 360.038239 
L 873.955608 373.13411 
L 873.955608 373.13411 
L 886.403173 357.285721 
L 886.403173 357.285721 
L 899.265657 359.747275 
L 899.265657 359.747275 
L 911.713223 349.332732 
L 911.713223 349.332732 
L 924.575707 360.266037 
L 937.438191 364.300114 
L 937.438191 364.300114 
L 949.885756 361.7195 
L 949.885756 361.7195 
L 962.74824 353.722564 
L 962.74824 353.722564 
L 975.195805 349.846183 
L 975.195805 349.846183 
L 988.058289 344.388542 
L 988.058289 344.388542 
L 1000.920773 349.439976 
L 1000.920773 349.439976 
L 1012.538501 348.150042 
L 1012.538501 348.150042 
L 1025.400985 344.796853 
L 1025.400985 344.796853 
L 1037.84855 346.921458 
L 1037.84855 346.921458 
L 1050.711034 353.70174 
L 1050.711034 353.70174 
L 1063.158599 337.174391 
L 1063.158599 337.174391 
L 1076.021083 358.842848 
L 1088.883567 342.378376 
L 1088.883567 342.378376 
L 1101.331133 353.083571 
L 1101.331133 353.083571 
L 1114.193617 355.946987 
L 1114.193617 355.946987 
L 1126.641182 354.612739 
L 1126.641182 354.612739 
L 1139.503666 362.781195 
L 1139.503666 362.781195 
L 1152.36615 358.276047 
L 1163.983877 358.653185 
L 1163.983877 358.653185 
L 1176.846361 356.060566 
L 1176.846361 356.060566 
L 1189.293927 362.084495 
L 1189.293927 362.084495 
L 1202.156411 360.009738 
L 1202.156411 360.009738 
L 1214.603976 366.248127 
L 1214.603976 366.248127 
L 1227.46646 356.425349 
L 1227.46646 356.425349 
L 1240.328944 364.070466 
L 1240.328944 364.070466 
L 1252.776509 360.615405 
L 1252.776509 360.615405 
L 1265.638993 363.508284 
L 1265.638993 363.508284 
L 1278.086558 366.918715 
L 1303.811527 361.216918 
L 1303.811527 361.216918 
L 1328.291738 368.38221 
L 1353.601787 361.84158 
L 1366.049353 362.79323 
L 1366.049353 362.79323 
" clip-path="url(#p62dbde21a5)" style="fill: none; stroke: #004e4a; stroke-width: 1.5; stroke-linecap: round"/>
   </g>
   <g id="line2d_21">
    <path d="M 103.036403 360.454485 
L 115.898887 356.807124 
L 115.898887 356.807124 
L 128.346452 427.391595 
L 128.346452 427.391595 
L 141.208936 351.257978 
L 141.208936 351.257978 
L 166.518986 357.773833 
L 179.38147 352.612549 
L 179.38147 352.612549 
L 191.829035 343.575889 
L 191.829035 343.575889 
L 204.691519 353.930055 
L 204.691519 353.930055 
L 230.001568 335.408657 
L 230.001568 335.408657 
L 242.864052 316.329105 
L 242.864052 316.329105 
L 254.896699 343.112771 
L 254.896699 343.112771 
L 267.759183 338.619947 
L 267.759183 338.619947 
L 280.206748 346.273357 
L 280.206748 346.273357 
L 293.069232 344.30195 
L 293.069232 344.30195 
L 305.516797 355.921738 
L 305.516797 355.921738 
L 318.379281 352.887312 
L 318.379281 352.887312 
L 331.241765 354.910842 
L 331.241765 354.910842 
L 343.68933 352.283646 
L 343.68933 352.283646 
L 356.551814 350.627465 
L 356.551814 350.627465 
L 368.99938 353.090061 
L 368.99938 353.090061 
L 381.861864 355.118337 
L 381.861864 355.118337 
L 406.342075 356.609273 
L 406.342075 356.609273 
L 419.204559 340.482082 
L 419.204559 340.482082 
L 431.652125 353.81214 
L 431.652125 353.81214 
L 444.514609 346.537393 
L 444.514609 346.537393 
L 456.962174 347.870677 
L 456.962174 347.870677 
L 469.824658 345.958681 
L 469.824658 345.958681 
L 482.687142 336.684048 
L 482.687142 336.684048 
L 495.134707 349.162678 
L 495.134707 349.162678 
L 507.997191 328.898689 
L 507.997191 328.898689 
L 520.444756 321.749758 
L 520.444756 321.749758 
L 533.30724 349.792844 
L 533.30724 349.792844 
L 546.169724 352.012224 
L 546.169724 352.012224 
L 557.787452 355.881061 
L 557.787452 355.881061 
L 570.649936 360.762289 
L 583.097501 343.028873 
L 583.097501 343.028873 
L 595.959985 333.951686 
L 595.959985 333.951686 
L 608.40755 363.419055 
L 608.40755 363.419055 
L 621.270034 331.536775 
L 621.270034 331.536775 
L 634.132519 356.147388 
L 634.132519 356.147388 
L 646.580084 349.314174 
L 646.580084 349.314174 
L 659.442568 345.54684 
L 659.442568 345.54684 
L 671.890133 361.899634 
L 671.890133 361.899634 
L 684.752617 353.579299 
L 684.752617 353.579299 
L 697.615101 349.115377 
L 697.615101 349.115377 
L 709.232829 331.909214 
L 709.232829 331.909214 
L 722.095313 351.379977 
L 722.095313 351.379977 
L 734.542878 367.911721 
L 734.542878 367.911721 
L 747.405362 344.168143 
L 747.405362 344.168143 
L 759.852927 358.44039 
L 759.852927 358.44039 
L 772.715411 356.811084 
L 772.715411 356.811084 
L 785.577895 354.024267 
L 785.577895 354.024267 
L 798.02546 362.996394 
L 798.02546 362.996394 
L 810.887944 347.065736 
L 810.887944 347.065736 
L 823.33551 347.484673 
L 823.33551 347.484673 
L 836.197994 354.303786 
L 836.197994 354.303786 
L 849.060478 351.120409 
L 849.060478 351.120409 
L 861.093124 357.427333 
L 861.093124 357.427333 
L 873.955608 368.216724 
L 873.955608 368.216724 
L 886.403173 353.47582 
L 886.403173 353.47582 
L 899.265657 356.20968 
L 899.265657 356.20968 
L 911.713223 370.844774 
L 911.713223 370.844774 
L 924.575707 360.525953 
L 937.438191 359.648353 
L 937.438191 359.648353 
L 949.885756 358.023345 
L 949.885756 358.023345 
L 962.74824 343.403442 
L 962.74824 343.403442 
L 975.195805 352.227173 
L 975.195805 352.227173 
L 988.058289 371.62266 
L 988.058289 371.62266 
L 1000.920773 355.643891 
L 1000.920773 355.643891 
L 1012.538501 345.777586 
L 1012.538501 345.777586 
L 1025.400985 344.967638 
L 1025.400985 344.967638 
L 1037.84855 356.316297 
L 1037.84855 356.316297 
L 1050.711034 352.7862 
L 1050.711034 352.7862 
L 1063.158599 338.44781 
L 1063.158599 338.44781 
L 1076.021083 358.745113 
L 1088.883567 332.257713 
L 1088.883567 332.257713 
L 1101.331133 345.84344 
L 1101.331133 345.84344 
L 1114.193617 354.6537 
L 1114.193617 354.6537 
L 1126.641182 350.858233 
L 1126.641182 350.858233 
L 1139.503666 361.422032 
L 1139.503666 361.422032 
L 1152.36615 358.615836 
L 1163.983877 359.947191 
L 1163.983877 359.947191 
L 1176.846361 358.422798 
L 1176.846361 358.422798 
L 1189.293927 358.521201 
L 1189.293927 358.521201 
L 1202.156411 362.349627 
L 1202.156411 362.349627 
L 1214.603976 368.22348 
L 1214.603976 368.22348 
L 1227.46646 353.251354 
L 1227.46646 353.251354 
L 1240.328944 365.918165 
L 1252.776509 361.079429 
L 1252.776509 361.079429 
L 1265.638993 361.505534 
L 1278.086558 353.021996 
L 1303.811527 356.588263 
L 1328.291738 359.840991 
L 1353.601787 362.514892 
L 1366.049353 359.6437 
L 1366.049353 359.6437 
" clip-path="url(#p62dbde21a5)" style="fill: none; stroke: #c17150; stroke-width: 1.5; stroke-linecap: round"/>
   </g>
   <g id="line2d_22">
    <path d="M 103.036403 359.615594 
L 115.898887 354.63377 
L 115.898887 354.63377 
L 128.346452 426.116952 
L 128.346452 426.116952 
L 141.208936 350.841265 
L 141.208936 350.841265 
L 166.518986 360.354233 
L 166.518986 360.354233 
L 179.38147 352.243052 
L 179.38147 352.243052 
L 191.829035 329.929828 
L 191.829035 329.929828 
L 204.691519 355.339113 
L 204.691519 355.339113 
L 230.001568 338.535829 
L 230.001568 338.535829 
L 242.864052 311.036712 
L 242.864052 311.036712 
L 254.896699 344.007396 
L 254.896699 344.007396 
L 267.759183 342.735974 
L 267.759183 342.735974 
L 280.206748 347.766478 
L 280.206748 347.766478 
L 293.069232 334.040343 
L 293.069232 334.040343 
L 305.516797 354.889637 
L 305.516797 354.889637 
L 318.379281 353.368467 
L 318.379281 353.368467 
L 331.241765 367.61956 
L 331.241765 367.61956 
L 343.68933 352.708326 
L 343.68933 352.708326 
L 356.551814 350.230755 
L 356.551814 350.230755 
L 368.99938 356.461279 
L 368.99938 356.461279 
L 381.861864 341.504184 
L 381.861864 341.504184 
L 394.724348 344.76716 
L 394.724348 344.76716 
L 406.342075 357.464617 
L 406.342075 357.464617 
L 419.204559 335.997742 
L 419.204559 335.997742 
L 431.652125 351.843614 
L 431.652125 351.843614 
L 444.514609 335.089777 
L 444.514609 335.089777 
L 456.962174 347.637106 
L 456.962174 347.637106 
L 469.824658 348.108909 
L 469.824658 348.108909 
L 482.687142 342.434533 
L 482.687142 342.434533 
L 495.134707 357.569967 
L 495.134707 357.569967 
L 507.997191 334.472434 
L 507.997191 334.472434 
L 520.444756 333.279923 
L 520.444756 333.279923 
L 533.30724 355.206511 
L 533.30724 355.206511 
L 546.169724 338.995436 
L 546.169724 338.995436 
L 557.787452 350.014097 
L 557.787452 350.014097 
L 570.649936 361.526161 
L 583.097501 354.786891 
L 583.097501 354.786891 
L 595.959985 325.901983 
L 595.959985 325.901983 
L 608.40755 361.375037 
L 608.40755 361.375037 
L 621.270034 329.059617 
L 621.270034 329.059617 
L 634.132519 360.276589 
L 634.132519 360.276589 
L 646.580084 357.841536 
L 646.580084 357.841536 
L 659.442568 353.764476 
L 659.442568 353.764476 
L 671.890133 360.623928 
L 671.890133 360.623928 
L 684.752617 362.209759 
L 684.752617 362.209759 
L 697.615101 348.664964 
L 697.615101 348.664964 
L 709.232829 352.313431 
L 709.232829 352.313431 
L 722.095313 365.776137 
L 722.095313 365.776137 
L 734.542878 347.517804 
L 734.542878 347.517804 
L 747.405362 349.18381 
L 747.405362 349.18381 
L 759.852927 363.626891 
L 759.852927 363.626891 
L 772.715411 364.34006 
L 772.715411 364.34006 
L 785.577895 354.622005 
L 785.577895 354.622005 
L 798.02546 342.740473 
L 798.02546 342.740473 
L 810.887944 352.09152 
L 810.887944 352.09152 
L 823.33551 346.340349 
L 823.33551 346.340349 
L 836.197994 359.566059 
L 836.197994 359.566059 
L 849.060478 357.744015 
L 849.060478 357.744015 
L 861.093124 357.112143 
L 861.093124 357.112143 
L 873.955608 387.142443 
L 873.955608 387.142443 
L 886.403173 350.466738 
L 886.403173 350.466738 
L 899.265657 367.629712 
L 899.265657 367.629712 
L 911.713223 361.101999 
L 911.713223 361.101999 
L 924.575707 359.542846 
L 937.438191 363.743275 
L 937.438191 363.743275 
L 949.885756 363.783692 
L 949.885756 363.783692 
L 962.74824 346.940476 
L 962.74824 346.940476 
L 975.195805 351.394786 
L 975.195805 351.394786 
L 988.058289 363.87135 
L 988.058289 363.87135 
L 1000.920773 355.369561 
L 1000.920773 355.369561 
L 1012.538501 342.102515 
L 1012.538501 342.102515 
L 1025.400985 343.068205 
L 1025.400985 343.068205 
L 1037.84855 352.832241 
L 1037.84855 352.832241 
L 1050.711034 363.652679 
L 1050.711034 363.652679 
L 1063.158599 353.536294 
L 1063.158599 353.536294 
L 1076.021083 353.183081 
L 1088.883567 342.81849 
L 1088.883567 342.81849 
L 1101.331133 340.725397 
L 1101.331133 340.725397 
L 1114.193617 354.976785 
L 1114.193617 354.976785 
L 1126.641182 349.133874 
L 1126.641182 349.133874 
L 1139.503666 358.536029 
L 1139.503666 358.536029 
L 1152.36615 359.596798 
L 1163.983877 358.726095 
L 1163.983877 358.726095 
L 1176.846361 355.87535 
L 1176.846361 355.87535 
L 1189.293927 353.765922 
L 1189.293927 353.765922 
L 1202.156411 366.751249 
L 1202.156411 366.751249 
L 1214.603976 364.576086 
L 1214.603976 364.576086 
L 1227.46646 351.614863 
L 1227.46646 351.614863 
L 1240.328944 364.260705 
L 1240.328944 364.260705 
L 1252.776509 365.480116 
L 1252.776509 365.480116 
L 1265.638993 371.139625 
L 1265.638993 371.139625 
L 1278.086558 351.030306 
L 1303.811527 358.907711 
L 1303.811527 358.907711 
L 1328.291738 360.160527 
L 1353.601787 360.492001 
L 1366.049353 359.840676 
L 1366.049353 359.840676 
" clip-path="url(#p62dbde21a5)" style="fill: none; stroke: #c8f0e6; stroke-width: 1.5; stroke-linecap: round"/>
   </g>
   <g id="line2d_23">
    <path d="M 103.036403 359.648615 
L 115.898887 352.256866 
L 115.898887 352.256866 
L 128.346452 426.579446 
L 128.346452 426.579446 
L 141.208936 350.706132 
L 141.208936 350.706132 
L 166.518986 360.190542 
L 166.518986 360.190542 
L 179.38147 351.952437 
L 179.38147 351.952437 
L 191.829035 329.536649 
L 191.829035 329.536649 
L 204.691519 355.436405 
L 230.001568 338.79617 
L 230.001568 338.79617 
L 242.864052 309.691808 
L 242.864052 309.691808 
L 254.896699 343.421207 
L 254.896699 343.421207 
L 267.759183 342.826655 
L 267.759183 342.826655 
L 280.206748 347.917863 
L 280.206748 347.917863 
L 293.069232 334.225939 
L 293.069232 334.225939 
L 305.516797 354.94357 
L 305.516797 354.94357 
L 318.379281 352.974445 
L 318.379281 352.974445 
L 331.241765 370.057564 
L 331.241765 370.057564 
L 343.68933 352.803885 
L 343.68933 352.803885 
L 356.551814 349.910102 
L 356.551814 349.910102 
L 368.99938 347.909129 
L 368.99938 347.909129 
L 381.861864 347.533145 
L 381.861864 347.533145 
L 394.724348 352.976429 
L 394.724348 352.976429 
L 406.342075 357.532742 
L 406.342075 357.532742 
L 419.204559 335.807973 
L 419.204559 335.807973 
L 431.652125 351.020591 
L 431.652125 351.020591 
L 444.514609 335.102833 
L 444.514609 335.102833 
L 456.962174 348.009754 
L 456.962174 348.009754 
L 469.824658 348.201677 
L 469.824658 348.201677 
L 482.687142 343.521067 
L 482.687142 343.521067 
L 495.134707 357.230356 
L 495.134707 357.230356 
L 507.997191 332.266141 
L 507.997191 332.266141 
L 520.444756 330.201205 
L 520.444756 330.201205 
L 533.30724 350.160373 
L 533.30724 350.160373 
L 546.169724 341.165267 
L 546.169724 341.165267 
L 557.787452 352.828342 
L 557.787452 352.828342 
L 570.649936 361.527262 
L 583.097501 337.682256 
L 583.097501 337.682256 
L 595.959985 304.167544 
L 595.959985 304.167544 
L 608.40755 365.896965 
L 608.40755 365.896965 
L 621.270034 326.904922 
L 621.270034 326.904922 
L 634.132519 358.405083 
L 634.132519 358.405083 
L 646.580084 358.123006 
L 646.580084 358.123006 
L 659.442568 346.670227 
L 659.442568 346.670227 
L 671.890133 371.120436 
L 671.890133 371.120436 
L 684.752617 361.111676 
L 684.752617 361.111676 
L 697.615101 372.540285 
L 697.615101 372.540285 
L 709.232829 345.455349 
L 709.232829 345.455349 
L 722.095313 363.192377 
L 722.095313 363.192377 
L 734.542878 344.338967 
L 734.542878 344.338967 
L 747.405362 347.006022 
L 747.405362 347.006022 
L 759.852927 364.491886 
L 759.852927 364.491886 
L 772.715411 362.338809 
L 772.715411 362.338809 
L 798.02546 351.987647 
L 798.02546 351.987647 
L 810.887944 349.519881 
L 810.887944 349.519881 
L 823.33551 346.358119 
L 823.33551 346.358119 
L 836.197994 359.780693 
L 836.197994 359.780693 
L 849.060478 359.823541 
L 849.060478 359.823541 
L 861.093124 356.940135 
L 861.093124 356.940135 
L 873.955608 384.306703 
L 873.955608 384.306703 
L 886.403173 350.363771 
L 886.403173 350.363771 
L 899.265657 367.585446 
L 899.265657 367.585446 
L 911.713223 359.465977 
L 911.713223 359.465977 
L 924.575707 359.533357 
L 937.438191 363.518242 
L 937.438191 363.518242 
L 949.885756 362.57076 
L 949.885756 362.57076 
L 962.74824 352.360295 
L 962.74824 352.360295 
L 975.195805 351.444401 
L 975.195805 351.444401 
L 988.058289 360.431954 
L 988.058289 360.431954 
L 1000.920773 355.768209 
L 1000.920773 355.768209 
L 1012.538501 342.336456 
L 1012.538501 342.336456 
L 1025.400985 343.004716 
L 1025.400985 343.004716 
L 1050.711034 363.943959 
L 1050.711034 363.943959 
L 1063.158599 354.235425 
L 1063.158599 354.235425 
L 1076.021083 353.165218 
L 1088.883567 343.234842 
L 1088.883567 343.234842 
L 1101.331133 339.588929 
L 1101.331133 339.588929 
L 1114.193617 355.139091 
L 1114.193617 355.139091 
L 1126.641182 349.85243 
L 1126.641182 349.85243 
L 1139.503666 355.394519 
L 1139.503666 355.394519 
L 1152.36615 359.620047 
L 1163.983877 358.658357 
L 1163.983877 358.658357 
L 1176.846361 355.782231 
L 1176.846361 355.782231 
L 1189.293927 353.894282 
L 1189.293927 353.894282 
L 1202.156411 365.286775 
L 1202.156411 365.286775 
L 1214.603976 367.546107 
L 1214.603976 367.546107 
L 1227.46646 349.776065 
L 1227.46646 349.776065 
L 1240.328944 364.248192 
L 1240.328944 364.248192 
L 1252.776509 365.821742 
L 1252.776509 365.821742 
L 1265.638993 371.164939 
L 1265.638993 371.164939 
L 1278.086558 351.481508 
L 1303.811527 359.647102 
L 1303.811527 359.647102 
L 1328.291738 360.637624 
L 1366.049353 360.493263 
L 1366.049353 360.493263 
" clip-path="url(#p62dbde21a5)" style="fill: none; stroke: #ffbb00; stroke-width: 1.5; stroke-linecap: round"/>
   </g>
   <g id="line2d_24">
    <path d="M 103.036403 359.4646 
L 115.898887 347.864578 
L 115.898887 347.864578 
L 128.346452 438.640116 
L 128.346452 438.640116 
L 141.208936 350.528233 
L 141.208936 350.528233 
L 166.518986 361.786305 
L 166.518986 361.786305 
L 179.38147 353.596647 
L 179.38147 353.596647 
L 191.829035 334.367731 
L 191.829035 334.367731 
L 204.691519 355.148799 
L 204.691519 355.148799 
L 230.001568 337.270689 
L 230.001568 337.270689 
L 242.864052 324.861019 
L 242.864052 324.861019 
L 254.896699 331.096348 
L 254.896699 331.096348 
L 267.759183 344.206113 
L 267.759183 344.206113 
L 280.206748 347.680916 
L 280.206748 347.680916 
L 293.069232 334.875749 
L 293.069232 334.875749 
L 305.516797 354.599168 
L 305.516797 354.599168 
L 318.379281 348.698041 
L 318.379281 348.698041 
L 331.241765 344.409927 
L 331.241765 344.409927 
L 343.68933 351.02744 
L 343.68933 351.02744 
L 356.551814 354.068506 
L 356.551814 354.068506 
L 368.99938 357.776255 
L 368.99938 357.776255 
L 381.861864 350.427627 
L 381.861864 350.427627 
L 394.724348 342.635911 
L 394.724348 342.635911 
L 406.342075 357.353217 
L 406.342075 357.353217 
L 419.204559 342.10624 
L 419.204559 342.10624 
L 431.652125 349.591276 
L 431.652125 349.591276 
L 444.514609 337.869337 
L 444.514609 337.869337 
L 456.962174 343.829462 
L 456.962174 343.829462 
L 469.824658 348.09572 
L 469.824658 348.09572 
L 482.687142 343.360334 
L 482.687142 343.360334 
L 495.134707 361.067159 
L 495.134707 361.067159 
L 507.997191 320.383756 
L 507.997191 320.383756 
L 520.444756 338.957165 
L 520.444756 338.957165 
L 533.30724 357.585124 
L 533.30724 357.585124 
L 546.169724 353.62367 
L 546.169724 353.62367 
L 557.787452 356.012933 
L 557.787452 356.012933 
L 570.649936 361.319579 
L 583.097501 342.936025 
L 583.097501 342.936025 
L 595.959985 318.000523 
L 595.959985 318.000523 
L 608.40755 376.732687 
L 608.40755 376.732687 
L 621.270034 331.577943 
L 621.270034 331.577943 
L 634.132519 352.647666 
L 634.132519 352.647666 
L 646.580084 358.23013 
L 646.580084 358.23013 
L 659.442568 356.402736 
L 659.442568 356.402736 
L 671.890133 352.313844 
L 671.890133 352.313844 
L 684.752617 336.772046 
L 684.752617 336.772046 
L 697.615101 360.767733 
L 697.615101 360.767733 
L 709.232829 343.281404 
L 709.232829 343.281404 
L 722.095313 354.358058 
L 722.095313 354.358058 
L 734.542878 337.84215 
L 734.542878 337.84215 
L 747.405362 351.827056 
L 747.405362 351.827056 
L 759.852927 365.924037 
L 759.852927 365.924037 
L 772.715411 365.774872 
L 772.715411 365.774872 
L 785.577895 354.814535 
L 785.577895 354.814535 
L 798.02546 358.562102 
L 798.02546 358.562102 
L 810.887944 350.22889 
L 810.887944 350.22889 
L 823.33551 346.571647 
L 823.33551 346.571647 
L 836.197994 359.451197 
L 836.197994 359.451197 
L 849.060478 361.761105 
L 849.060478 361.761105 
L 861.093124 368.206177 
L 861.093124 368.206177 
L 873.955608 357.482381 
L 873.955608 357.482381 
L 886.403173 354.743193 
L 886.403173 354.743193 
L 899.265657 366.600812 
L 899.265657 366.600812 
L 911.713223 369.01917 
L 911.713223 369.01917 
L 924.575707 359.560846 
L 937.438191 359.173378 
L 937.438191 359.173378 
L 949.885756 356.539428 
L 949.885756 356.539428 
L 962.74824 351.408522 
L 962.74824 351.408522 
L 975.195805 351.464717 
L 975.195805 351.464717 
L 988.058289 374.084996 
L 988.058289 374.084996 
L 1000.920773 361.26837 
L 1000.920773 361.26837 
L 1012.538501 345.000192 
L 1012.538501 345.000192 
L 1025.400985 345.990727 
L 1025.400985 345.990727 
L 1037.84855 366.521218 
L 1037.84855 366.521218 
L 1050.711034 351.985648 
L 1050.711034 351.985648 
L 1063.158599 365.759426 
L 1063.158599 365.759426 
L 1076.021083 352.630586 
L 1088.883567 344.039831 
L 1088.883567 344.039831 
L 1101.331133 342.644059 
L 1101.331133 342.644059 
L 1114.193617 359.326276 
L 1114.193617 359.326276 
L 1126.641182 368.719919 
L 1126.641182 368.719919 
L 1139.503666 374.232558 
L 1139.503666 374.232558 
L 1152.36615 359.922223 
L 1163.983877 359.31034 
L 1163.983877 359.31034 
L 1176.846361 357.319718 
L 1176.846361 357.319718 
L 1189.293927 356.117776 
L 1189.293927 356.117776 
L 1202.156411 347.957662 
L 1202.156411 347.957662 
L 1214.603976 363.059439 
L 1214.603976 363.059439 
L 1227.46646 357.735447 
L 1227.46646 357.735447 
L 1240.328944 366.139986 
L 1240.328944 366.139986 
L 1252.776509 346.462048 
L 1252.776509 346.462048 
L 1265.638993 372.364914 
L 1265.638993 372.364914 
L 1278.086558 352.006959 
L 1303.811527 359.662345 
L 1303.811527 359.662345 
L 1328.291738 360.908649 
L 1366.049353 360.344078 
L 1366.049353 360.344078 
" clip-path="url(#p62dbde21a5)" style="fill: none; stroke: #dcfae9; stroke-width: 1.5; stroke-linecap: round"/>
   </g>
   <g id="line2d_25">
    <path d="M 103.036403 360.155315 
L 115.898887 337.734552 
L 115.898887 337.734552 
L 128.346452 455.79677 
L 128.346452 455.79677 
L 141.208936 350.114583 
L 141.208936 350.114583 
L 166.518986 360.14794 
L 166.518986 360.14794 
L 179.38147 357.032204 
L 179.38147 357.032204 
L 191.829035 348.319562 
L 191.829035 348.319562 
L 204.691519 353.505801 
L 230.001568 333.206327 
L 230.001568 333.206327 
L 242.864052 333.695342 
L 242.864052 333.695342 
L 254.896699 347.673722 
L 254.896699 347.673722 
L 267.759183 341.301098 
L 267.759183 341.301098 
L 280.206748 344.500747 
L 280.206748 344.500747 
L 293.069232 335.583095 
L 293.069232 335.583095 
L 305.516797 357.022699 
L 305.516797 357.022699 
L 318.379281 358.453813 
L 318.379281 358.453813 
L 331.241765 360.384158 
L 331.241765 360.384158 
L 343.68933 354.581992 
L 343.68933 354.581992 
L 356.551814 356.605582 
L 356.551814 356.605582 
L 368.99938 355.849785 
L 368.99938 355.849785 
L 381.861864 340.667511 
L 381.861864 340.667511 
L 394.724348 343.033815 
L 394.724348 343.033815 
L 406.342075 358.76121 
L 406.342075 358.76121 
L 419.204559 333.002569 
L 419.204559 333.002569 
L 431.652125 336.246752 
L 431.652125 336.246752 
L 444.514609 343.52018 
L 444.514609 343.52018 
L 456.962174 338.514699 
L 456.962174 338.514699 
L 469.824658 345.80565 
L 469.824658 345.80565 
L 482.687142 333.739179 
L 482.687142 333.739179 
L 495.134707 370.394299 
L 495.134707 370.394299 
L 507.997191 352.150659 
L 507.997191 352.150659 
L 520.444756 323.194413 
L 520.444756 323.194413 
L 533.30724 337.390759 
L 533.30724 337.390759 
L 546.169724 353.251593 
L 546.169724 353.251593 
L 557.787452 345.829657 
L 557.787452 345.829657 
L 570.649936 345.019706 
L 583.097501 342.691182 
L 583.097501 342.691182 
L 595.959985 312.712129 
L 595.959985 312.712129 
L 608.40755 326.127619 
L 608.40755 326.127619 
L 621.270034 317.194641 
L 621.270034 317.194641 
L 634.132519 370.52906 
L 634.132519 370.52906 
L 646.580084 357.583407 
L 646.580084 357.583407 
L 659.442568 333.691394 
L 659.442568 333.691394 
L 671.890133 355.294195 
L 671.890133 355.294195 
L 684.752617 327.107221 
L 684.752617 327.107221 
L 697.615101 377.062792 
L 697.615101 377.062792 
L 709.232829 323.554594 
L 709.232829 323.554594 
L 722.095313 349.996629 
L 722.095313 349.996629 
L 734.542878 310.524306 
L 734.542878 310.524306 
L 747.405362 342.389806 
L 747.405362 342.389806 
L 759.852927 367.76342 
L 759.852927 367.76342 
L 772.715411 367.152844 
L 772.715411 367.152844 
L 785.577895 356.313429 
L 785.577895 356.313429 
L 798.02546 373.165756 
L 798.02546 373.165756 
L 810.887944 350.908334 
L 810.887944 350.908334 
L 823.33551 346.871744 
L 823.33551 346.871744 
L 836.197994 355.863297 
L 836.197994 355.863297 
L 849.060478 373.074242 
L 849.060478 373.074242 
L 861.093124 370.146295 
L 861.093124 370.146295 
L 873.955608 363.345624 
L 873.955608 363.345624 
L 886.403173 352.852894 
L 886.403173 352.852894 
L 899.265657 361.96753 
L 899.265657 361.96753 
L 911.713223 383.932133 
L 911.713223 383.932133 
L 924.575707 359.625687 
L 937.438191 358.675101 
L 937.438191 358.675101 
L 949.885756 356.739117 
L 949.885756 356.739117 
L 962.74824 346.759574 
L 962.74824 346.759574 
L 975.195805 349.802683 
L 975.195805 349.802683 
L 988.058289 388.568431 
L 988.058289 388.568431 
L 1000.920773 353.254988 
L 1000.920773 353.254988 
L 1012.538501 352.060753 
L 1012.538501 352.060753 
L 1025.400985 347.169641 
L 1025.400985 347.169641 
L 1037.84855 361.279658 
L 1037.84855 361.279658 
L 1063.158599 347.333159 
L 1063.158599 347.333159 
L 1076.021083 354.359845 
L 1088.883567 343.989493 
L 1088.883567 343.989493 
L 1101.331133 342.724685 
L 1101.331133 342.724685 
L 1114.193617 347.943215 
L 1114.193617 347.943215 
L 1126.641182 360.64568 
L 1126.641182 360.64568 
L 1139.503666 364.567951 
L 1139.503666 364.567951 
L 1152.36615 358.86735 
L 1163.983877 358.5921 
L 1163.983877 358.5921 
L 1176.846361 355.072255 
L 1176.846361 355.072255 
L 1189.293927 354.325048 
L 1189.293927 354.325048 
L 1202.156411 360.841305 
L 1202.156411 360.841305 
L 1214.603976 348.786755 
L 1214.603976 348.786755 
L 1227.46646 350.020223 
L 1240.328944 365.405628 
L 1240.328944 365.405628 
L 1252.776509 346.164268 
L 1252.776509 346.164268 
L 1265.638993 372.954041 
L 1265.638993 372.954041 
L 1278.086558 352.25004 
L 1303.811527 360.333309 
L 1303.811527 360.333309 
L 1328.291738 361.773907 
L 1353.601787 360.516877 
L 1366.049353 359.182316 
L 1366.049353 359.182316 
" clip-path="url(#p62dbde21a5)" style="fill: none; stroke: #a1d9cc; stroke-width: 1.5; stroke-linecap: round"/>
   </g>
   <g id="patch_3">
    <path d="M 39.885756 615.83472 
L 39.885756 25.10218 
" style="fill: none; stroke: #808080; stroke-width: 0.8; stroke-linejoin: miter; stroke-linecap: square"/>
   </g>
   <g id="patch_4">
    <path d="M 39.885756 615.83472 
L 1429.2 615.83472 
" style="fill: none; stroke: #808080; stroke-width: 0.8; stroke-linejoin: miter; stroke-linecap: square"/>
   </g>
   <g id="text_20">
    <!-- Out of Sample -->
    <g style="fill: #262626" transform="translate(697.311357 19.10218) scale(0.12 -0.12)">
     <defs>
      <path id="CMR17-4f" d="M 4307 2135 
C 4307 3437 3366 4416 2304 4416 
C 1216 4416 294 3424 294 2135 
C 294 845 1229 -128 2298 -128 
C 3392 -128 4307 864 4307 2135 
z
M 2304 -13 
C 1574 -13 781 711 781 2217 
C 781 3716 1651 4301 2298 4301 
C 2976 4301 3821 3698 3821 2217 
C 3821 686 3008 -13 2304 -13 
z
" transform="scale(0.015625)"/>
      <path id="CMR17-66" d="M 979 2560 
L 1709 2560 
L 1709 2725 
L 966 2725 
L 966 3494 
C 966 4022 1235 4352 1510 4352 
C 1594 4352 1690 4327 1754 4282 
C 1702 4269 1568 4225 1568 4067 
C 1568 3901 1696 3850 1786 3850 
C 1875 3850 2003 3901 2003 4067 
C 2003 4308 1773 4454 1517 4454 
C 1152 4454 653 4156 653 3481 
L 653 2725 
L 141 2725 
L 141 2560 
L 653 2560 
L 653 427 
C 653 184 627 153 218 153 
L 218 -13 
C 371 0 666 0 832 0 
C 1018 0 1344 0 1517 -13 
L 1517 153 
C 1056 153 979 153 979 439 
L 979 2560 
z
" transform="scale(0.015625)"/>
      <path id="CMR17-53" d="M 2803 4290 
C 2803 4404 2797 4411 2758 4411 
C 2720 4411 2707 4385 2682 4328 
L 2490 3907 
C 2246 4257 1875 4416 1472 4416 
C 819 4416 294 3901 294 3253 
C 294 3056 339 2776 557 2510 
C 794 2218 1018 2167 1530 2033 
C 1722 1982 2042 1899 2106 1874 
C 2470 1722 2662 1341 2662 985 
C 2662 527 2336 38 1779 38 
C 1094 38 454 419 410 1311 
C 403 1413 397 1419 352 1419 
C 301 1419 294 1413 294 1285 
L 294 -1 
C 294 -115 301 -122 339 -122 
C 384 -122 397 -90 486 108 
C 493 127 493 140 614 381 
C 934 -39 1472 -128 1779 -128 
C 2477 -128 2970 451 2970 1124 
C 2970 1454 2848 1708 2778 1823 
C 2509 2230 2221 2306 1914 2382 
C 1869 2402 1856 2402 1498 2490 
C 1152 2579 1005 2624 845 2796 
C 666 2992 602 3196 602 3399 
C 602 3812 934 4263 1478 4263 
C 2157 4263 2579 3786 2675 2993 
C 2694 2878 2701 2872 2746 2872 
C 2803 2872 2803 2891 2803 2999 
L 2803 4290 
z
" transform="scale(0.015625)"/>
      <path id="CMR17-6d" d="M 4326 1933 
C 4326 2252 4269 2790 3507 2790 
C 3072 2790 2771 2496 2656 2151 
L 2650 2151 
C 2573 2676 2195 2790 1837 2790 
C 1331 2790 1069 2400 973 2144 
L 966 2144 
L 966 2790 
L 211 2720 
L 211 2554 
C 589 2554 646 2515 646 2208 
L 646 428 
C 646 184 621 153 211 153 
L 211 -13 
C 365 0 646 0 813 0 
C 979 0 1267 0 1421 -13 
L 1421 153 
C 1011 153 986 178 986 428 
L 986 1658 
C 986 2247 1344 2688 1792 2688 
C 2266 2688 2317 2266 2317 1958 
L 2317 428 
C 2317 184 2291 153 1882 153 
L 1882 -13 
C 2035 0 2317 0 2483 0 
C 2650 0 2938 0 3091 -13 
L 3091 153 
C 2682 153 2656 178 2656 428 
L 2656 1658 
C 2656 2247 3014 2688 3462 2688 
C 3936 2688 3987 2266 3987 1958 
L 3987 428 
C 3987 184 3962 153 3552 153 
L 3552 -13 
C 3706 0 3987 0 4154 0 
C 4320 0 4608 0 4762 -13 
L 4762 153 
C 4352 153 4326 178 4326 428 
L 4326 1933 
z
" transform="scale(0.015625)"/>
      <path id="CMR17-70" d="M 1408 -1063 
C 998 -1063 973 -1037 973 -789 
L 973 402 
C 1158 134 1427 -38 1766 -38 
C 2406 -38 3053 523 3053 1388 
C 3053 2191 2496 2802 1837 2802 
C 1453 2802 1139 2592 960 2338 
L 960 2802 
L 198 2732 
L 198 2567 
C 576 2567 634 2528 634 2223 
L 634 -789 
C 634 -1031 608 -1063 198 -1063 
L 198 -1228 
C 352 -1216 634 -1216 800 -1216 
C 966 -1216 1254 -1216 1408 -1228 
L 1408 -1063 
z
M 973 2012 
C 973 2102 973 2235 1222 2471 
C 1254 2497 1472 2688 1792 2688 
C 2259 2688 2643 2108 2643 1382 
C 2643 656 2234 64 1728 64 
C 1498 64 1248 172 1056 472 
C 973 612 973 650 973 752 
L 973 2012 
z
" transform="scale(0.015625)"/>
     </defs>
     <use xlink:href="#CMR17-4f" transform="scale(0.996264)"/>
     <use xlink:href="#CMR17-75" transform="translate(71.714788 0) scale(0.996264)"/>
     <use xlink:href="#CMR17-74" transform="translate(122.610158 0) scale(0.996264)"/>
     <use xlink:href="#CMR17-6f" transform="translate(187.966892 0) scale(0.996264)"/>
     <use xlink:href="#CMR17-66" transform="translate(233.657369 0) scale(0.996264)"/>
     <use xlink:href="#CMR17-53" transform="translate(291.206848 0) scale(0.996264)"/>
     <use xlink:href="#CMR17-61" transform="translate(342.102218 0) scale(0.996264)"/>
     <use xlink:href="#CMR17-6d" transform="translate(387.792695 0) scale(0.996264)"/>
     <use xlink:href="#CMR17-70" transform="translate(464.712285 0) scale(0.996264)"/>
     <use xlink:href="#CMR17-6c" transform="translate(515.607655 0) scale(0.996264)"/>
     <use xlink:href="#CMR17-65" transform="translate(540.478713 0) scale(0.996264)"/>
    </g>
   </g>
   <g id="legend_1">
    <g id="patch_5">
     <path d="M 453.876202 712.833254 
L 1015.209553 712.833254 
Q 1017.209553 712.833254 1017.209553 710.833254 
L 1017.209553 681.907974 
Q 1017.209553 679.907974 1015.209553 679.907974 
L 453.876202 679.907974 
Q 451.876202 679.907974 451.876202 681.907974 
L 451.876202 710.833254 
Q 451.876202 712.833254 453.876202 712.833254 
z
" style="fill: #ffffff; opacity: 0.8"/>
    </g>
    <g id="line2d_26">
     <path d="M 455.876202 687.879954 
L 465.876202 687.879954 
L 475.876202 687.879954 
" style="fill: none; stroke: #006e64; stroke-width: 1.5; stroke-linecap: round"/>
    </g>
    <g id="text_21">
     <!-- Actual -->
     <g style="fill: #262626" transform="translate(483.876202 691.379954) scale(0.1 -0.1)">
      <defs>
       <path id="CMR17-41" d="M 2323 4378 
C 2291 4461 2278 4480 2214 4480 
C 2150 4480 2138 4461 2106 4378 
L 749 566 
C 627 223 371 153 147 153 
L 147 -13 
C 262 0 518 0 640 0 
C 800 0 1056 0 1210 -13 
L 1210 153 
C 909 153 864 361 864 439 
C 864 497 877 530 890 569 
L 1229 1536 
L 2906 1536 
L 3290 442 
C 3322 365 3322 352 3322 327 
C 3322 153 3046 153 2925 153 
L 2925 0 
C 3110 0 3443 0 3642 0 
C 3808 0 4128 0 4282 -13 
L 4282 153 
C 3942 153 3827 153 3744 387 
L 2323 4378 
z
M 2067 3893 
L 2848 1702 
L 1286 1702 
L 2067 3893 
z
" transform="scale(0.015625)"/>
       <path id="CMR17-63" d="M 2234 2240 
C 2112 2240 1933 2240 1933 2017 
C 1933 1838 2080 1787 2163 1787 
C 2208 1787 2394 1807 2394 2024 
C 2394 2467 1958 2803 1466 2803 
C 787 2803 211 2178 211 1363 
C 211 516 813 -64 1466 -64 
C 2259 -64 2458 677 2458 748 
C 2458 774 2451 793 2406 793 
C 2362 793 2355 787 2330 703 
C 2163 180 1798 51 1523 51 
C 1114 51 621 427 621 1369 
C 621 2338 1094 2688 1472 2688 
C 1722 2688 2093 2573 2234 2240 
z
" transform="scale(0.015625)"/>
      </defs>
      <use xlink:href="#CMR17-41" transform="scale(0.996264)"/>
      <use xlink:href="#CMR17-63" transform="translate(69.07243 0) scale(0.996264)"/>
      <use xlink:href="#CMR17-74" transform="translate(109.55809 0) scale(0.996264)"/>
      <use xlink:href="#CMR17-75" transform="translate(144.838858 0) scale(0.996264)"/>
      <use xlink:href="#CMR17-61" transform="translate(195.734228 0) scale(0.996264)"/>
      <use xlink:href="#CMR17-6c" transform="translate(241.424705 0) scale(0.996264)"/>
     </g>
    </g>
    <g id="line2d_27">
     <path d="M 455.876202 702.289112 
L 465.876202 702.289112 
L 475.876202 702.289112 
" style="fill: none; stroke: #734848; stroke-width: 1.5; stroke-linecap: round"/>
    </g>
    <g id="text_22">
     <!-- Predicted (2 clusters) -->
     <g style="fill: #262626" transform="translate(483.876202 705.789112) scale(0.1 -0.1)">
      <defs>
       <path id="CMR17-50" d="M 1267 2042 
L 2291 2042 
C 3117 2042 3718 2578 3718 3184 
C 3718 3791 3130 4352 2291 4352 
L 333 4352 
L 333 4186 
C 774 4186 845 4186 845 3899 
L 845 446 
C 845 160 774 160 333 160 
L 333 0 
C 518 0 858 0 1056 0 
C 1254 0 1594 0 1779 0 
L 1779 160 
C 1338 160 1267 160 1267 446 
L 1267 2042 
z
M 1254 2176 
L 1254 3938 
C 1254 4155 1267 4186 1523 4186 
L 2170 4186 
C 2995 4186 3232 3714 3232 3184 
C 3232 2604 2950 2176 2170 2176 
L 1254 2176 
z
" transform="scale(0.015625)"/>
       <path id="CMR17-64" d="M 1869 4326 
L 1869 4160 
C 2246 4160 2304 4122 2304 3820 
L 2304 2345 
C 2278 2377 2016 2790 1498 2790 
C 845 2790 211 2208 211 1364 
C 211 525 806 -64 1434 -64 
C 1978 -64 2259 337 2291 380 
L 2291 -63 
L 3066 -63 
L 3066 128 
C 2688 128 2630 166 2630 473 
L 2630 4396 
L 1869 4326 
z
M 2291 755 
C 2291 563 2176 390 2029 262 
C 1811 70 1594 38 1472 38 
C 1286 38 621 134 621 1356 
C 621 2612 1363 2688 1530 2688 
C 1824 2688 2061 2522 2208 2291 
C 2291 2157 2291 2138 2291 2023 
L 2291 755 
z
" transform="scale(0.015625)"/>
       <path id="CMR17-28" d="M 1958 -1561 
C 1958 -1555 1958 -1542 1939 -1523 
C 1645 -1224 858 -407 858 1581 
C 858 3569 1632 4379 1946 4697 
C 1946 4704 1958 4717 1958 4736 
C 1958 4755 1939 4768 1914 4768 
C 1843 4768 1299 4296 986 3594 
C 666 2887 576 2199 576 1588 
C 576 1128 621 351 1005 -471 
C 1312 -1135 1837 -1600 1914 -1600 
C 1946 -1600 1958 -1587 1958 -1561 
z
" transform="scale(0.015625)"/>
       <path id="CMR17-73" d="M 1978 2697 
C 1978 2813 1971 2819 1933 2819 
C 1907 2819 1901 2813 1824 2717 
C 1805 2691 1747 2626 1728 2601 
C 1523 2819 1235 2819 1126 2819 
C 416 2819 160 2447 160 2076 
C 160 1498 813 1365 998 1325 
C 1402 1243 1542 1217 1677 1101 
C 1760 1025 1901 884 1901 654 
C 1901 384 1747 38 1158 38 
C 602 38 403 460 288 1021 
C 269 1110 269 1117 218 1117 
C 166 1117 160 1110 160 983 
L 160 63 
C 160 -51 166 -58 205 -58 
C 237 -58 243 -51 275 0 
C 314 57 410 211 448 276 
C 576 103 800 -64 1158 -64 
C 1792 -64 2131 283 2131 784 
C 2131 1112 1958 1285 1875 1362 
C 1683 1561 1459 1606 1190 1657 
C 838 1735 390 1825 390 2217 
C 390 2383 480 2737 1126 2737 
C 1811 2737 1850 2094 1862 1888 
C 1869 1856 1901 1849 1920 1849 
C 1978 1849 1978 1869 1978 1978 
L 1978 2697 
z
" transform="scale(0.015625)"/>
       <path id="CMR17-29" d="M 1683 1581 
C 1683 2040 1638 2817 1254 3639 
C 947 4303 422 4768 346 4768 
C 326 4768 301 4761 301 4729 
C 301 4717 307 4710 314 4697 
C 621 4378 1402 3568 1402 1584 
C 1402 -407 627 -1217 314 -1537 
C 307 -1549 301 -1556 301 -1568 
C 301 -1600 326 -1600 346 -1600 
C 416 -1600 960 -1128 1274 -426 
C 1594 281 1683 969 1683 1581 
z
" transform="scale(0.015625)"/>
      </defs>
      <use xlink:href="#CMR17-50" transform="scale(0.996264)"/>
      <use xlink:href="#CMR17-72" transform="translate(62.586301 0) scale(0.996264)"/>
      <use xlink:href="#CMR17-65" transform="translate(97.867068 0) scale(0.996264)"/>
      <use xlink:href="#CMR17-64" transform="translate(138.352729 0) scale(0.996264)"/>
      <use xlink:href="#CMR17-69" transform="translate(189.248099 0) scale(0.996264)"/>
      <use xlink:href="#CMR17-63" transform="translate(214.119157 0) scale(0.996264)"/>
      <use xlink:href="#CMR17-74" transform="translate(254.604818 0) scale(0.996264)"/>
      <use xlink:href="#CMR17-65" transform="translate(289.885585 0) scale(0.996264)"/>
      <use xlink:href="#CMR17-64" transform="translate(330.371246 0) scale(0.996264)"/>
      <use xlink:href="#CMR17-28" transform="translate(411.342582 0) scale(0.996264)"/>
      <use xlink:href="#CMR17-32" transform="translate(446.62335 0) scale(0.996264)"/>
      <use xlink:href="#CMR17-63" transform="translate(522.389793 0) scale(0.996264)"/>
      <use xlink:href="#CMR17-6c" transform="translate(562.875454 0) scale(0.996264)"/>
      <use xlink:href="#CMR17-75" transform="translate(587.746512 0) scale(0.996264)"/>
      <use xlink:href="#CMR17-73" transform="translate(638.641882 0) scale(0.996264)"/>
      <use xlink:href="#CMR17-74" transform="translate(674.44322 0) scale(0.996264)"/>
      <use xlink:href="#CMR17-65" transform="translate(709.723987 0) scale(0.996264)"/>
      <use xlink:href="#CMR17-72" transform="translate(750.209648 0) scale(0.996264)"/>
      <use xlink:href="#CMR17-73" transform="translate(785.490416 0) scale(0.996264)"/>
      <use xlink:href="#CMR17-29" transform="translate(821.291753 0) scale(0.996264)"/>
     </g>
    </g>
    <g id="line2d_28">
     <path d="M 597.718873 687.879954 
L 607.718873 687.879954 
L 617.718873 687.879954 
" style="fill: none; stroke: #004e4a; stroke-width: 1.5; stroke-linecap: round"/>
    </g>
    <g id="text_23">
     <!-- Predicted (4 clusters) -->
     <g style="fill: #262626" transform="translate(625.718873 691.379954) scale(0.1 -0.1)">
      <use xlink:href="#CMR17-50" transform="scale(0.996264)"/>
      <use xlink:href="#CMR17-72" transform="translate(62.586301 0) scale(0.996264)"/>
      <use xlink:href="#CMR17-65" transform="translate(97.867068 0) scale(0.996264)"/>
      <use xlink:href="#CMR17-64" transform="translate(138.352729 0) scale(0.996264)"/>
      <use xlink:href="#CMR17-69" transform="translate(189.248099 0) scale(0.996264)"/>
      <use xlink:href="#CMR17-63" transform="translate(214.119157 0) scale(0.996264)"/>
      <use xlink:href="#CMR17-74" transform="translate(254.604818 0) scale(0.996264)"/>
      <use xlink:href="#CMR17-65" transform="translate(289.885585 0) scale(0.996264)"/>
      <use xlink:href="#CMR17-64" transform="translate(330.371246 0) scale(0.996264)"/>
      <use xlink:href="#CMR17-28" transform="translate(411.342582 0) scale(0.996264)"/>
      <use xlink:href="#CMR17-34" transform="translate(446.62335 0) scale(0.996264)"/>
      <use xlink:href="#CMR17-63" transform="translate(522.389793 0) scale(0.996264)"/>
      <use xlink:href="#CMR17-6c" transform="translate(562.875454 0) scale(0.996264)"/>
      <use xlink:href="#CMR17-75" transform="translate(587.746512 0) scale(0.996264)"/>
      <use xlink:href="#CMR17-73" transform="translate(638.641882 0) scale(0.996264)"/>
      <use xlink:href="#CMR17-74" transform="translate(674.44322 0) scale(0.996264)"/>
      <use xlink:href="#CMR17-65" transform="translate(709.723987 0) scale(0.996264)"/>
      <use xlink:href="#CMR17-72" transform="translate(750.209648 0) scale(0.996264)"/>
      <use xlink:href="#CMR17-73" transform="translate(785.490416 0) scale(0.996264)"/>
      <use xlink:href="#CMR17-29" transform="translate(821.291753 0) scale(0.996264)"/>
     </g>
    </g>
    <g id="line2d_29">
     <path d="M 597.718873 702.842594 
L 607.718873 702.842594 
L 617.718873 702.842594 
" style="fill: none; stroke: #c17150; stroke-width: 1.5; stroke-linecap: round"/>
    </g>
    <g id="text_24">
     <!-- Predicted (6 clusters) -->
     <g style="fill: #262626" transform="translate(625.718873 706.342594) scale(0.1 -0.1)">
      <use xlink:href="#CMR17-50" transform="scale(0.996264)"/>
      <use xlink:href="#CMR17-72" transform="translate(62.586301 0) scale(0.996264)"/>
      <use xlink:href="#CMR17-65" transform="translate(97.867068 0) scale(0.996264)"/>
      <use xlink:href="#CMR17-64" transform="translate(138.352729 0) scale(0.996264)"/>
      <use xlink:href="#CMR17-69" transform="translate(189.248099 0) scale(0.996264)"/>
      <use xlink:href="#CMR17-63" transform="translate(214.119157 0) scale(0.996264)"/>
      <use xlink:href="#CMR17-74" transform="translate(254.604818 0) scale(0.996264)"/>
      <use xlink:href="#CMR17-65" transform="translate(289.885585 0) scale(0.996264)"/>
      <use xlink:href="#CMR17-64" transform="translate(330.371246 0) scale(0.996264)"/>
      <use xlink:href="#CMR17-28" transform="translate(411.342582 0) scale(0.996264)"/>
      <use xlink:href="#CMR17-36" transform="translate(446.62335 0) scale(0.996264)"/>
      <use xlink:href="#CMR17-63" transform="translate(522.389793 0) scale(0.996264)"/>
      <use xlink:href="#CMR17-6c" transform="translate(562.875454 0) scale(0.996264)"/>
      <use xlink:href="#CMR17-75" transform="translate(587.746512 0) scale(0.996264)"/>
      <use xlink:href="#CMR17-73" transform="translate(638.641882 0) scale(0.996264)"/>
      <use xlink:href="#CMR17-74" transform="translate(674.44322 0) scale(0.996264)"/>
      <use xlink:href="#CMR17-65" transform="translate(709.723987 0) scale(0.996264)"/>
      <use xlink:href="#CMR17-72" transform="translate(750.209648 0) scale(0.996264)"/>
      <use xlink:href="#CMR17-73" transform="translate(785.490416 0) scale(0.996264)"/>
      <use xlink:href="#CMR17-29" transform="translate(821.291753 0) scale(0.996264)"/>
     </g>
    </g>
    <g id="line2d_30">
     <path d="M 739.561543 687.879954 
L 749.561543 687.879954 
L 759.561543 687.879954 
" style="fill: none; stroke: #c8f0e6; stroke-width: 1.5; stroke-linecap: round"/>
    </g>
    <g id="text_25">
     <!-- Predicted (8 clusters) -->
     <g style="fill: #262626" transform="translate(767.561543 691.379954) scale(0.1 -0.1)">
      <use xlink:href="#CMR17-50" transform="scale(0.996264)"/>
      <use xlink:href="#CMR17-72" transform="translate(62.586301 0) scale(0.996264)"/>
      <use xlink:href="#CMR17-65" transform="translate(97.867068 0) scale(0.996264)"/>
      <use xlink:href="#CMR17-64" transform="translate(138.352729 0) scale(0.996264)"/>
      <use xlink:href="#CMR17-69" transform="translate(189.248099 0) scale(0.996264)"/>
      <use xlink:href="#CMR17-63" transform="translate(214.119157 0) scale(0.996264)"/>
      <use xlink:href="#CMR17-74" transform="translate(254.604818 0) scale(0.996264)"/>
      <use xlink:href="#CMR17-65" transform="translate(289.885585 0) scale(0.996264)"/>
      <use xlink:href="#CMR17-64" transform="translate(330.371246 0) scale(0.996264)"/>
      <use xlink:href="#CMR17-28" transform="translate(411.342582 0) scale(0.996264)"/>
      <use xlink:href="#CMR17-38" transform="translate(446.62335 0) scale(0.996264)"/>
      <use xlink:href="#CMR17-63" transform="translate(522.389793 0) scale(0.996264)"/>
      <use xlink:href="#CMR17-6c" transform="translate(562.875454 0) scale(0.996264)"/>
      <use xlink:href="#CMR17-75" transform="translate(587.746512 0) scale(0.996264)"/>
      <use xlink:href="#CMR17-73" transform="translate(638.641882 0) scale(0.996264)"/>
      <use xlink:href="#CMR17-74" transform="translate(674.44322 0) scale(0.996264)"/>
      <use xlink:href="#CMR17-65" transform="translate(709.723987 0) scale(0.996264)"/>
      <use xlink:href="#CMR17-72" transform="translate(750.209648 0) scale(0.996264)"/>
      <use xlink:href="#CMR17-73" transform="translate(785.490416 0) scale(0.996264)"/>
      <use xlink:href="#CMR17-29" transform="translate(821.291753 0) scale(0.996264)"/>
     </g>
    </g>
    <g id="line2d_31">
     <path d="M 739.561543 702.842594 
L 749.561543 702.842594 
L 759.561543 702.842594 
" style="fill: none; stroke: #ffbb00; stroke-width: 1.5; stroke-linecap: round"/>
    </g>
    <g id="text_26">
     <!-- Predicted (10 clusters) -->
     <g style="fill: #262626" transform="translate(767.561543 706.342594) scale(0.1 -0.1)">
      <use xlink:href="#CMR17-50" transform="scale(0.996264)"/>
      <use xlink:href="#CMR17-72" transform="translate(62.586301 0) scale(0.996264)"/>
      <use xlink:href="#CMR17-65" transform="translate(97.867068 0) scale(0.996264)"/>
      <use xlink:href="#CMR17-64" transform="translate(138.352729 0) scale(0.996264)"/>
      <use xlink:href="#CMR17-69" transform="translate(189.248099 0) scale(0.996264)"/>
      <use xlink:href="#CMR17-63" transform="translate(214.119157 0) scale(0.996264)"/>
      <use xlink:href="#CMR17-74" transform="translate(254.604818 0) scale(0.996264)"/>
      <use xlink:href="#CMR17-65" transform="translate(289.885585 0) scale(0.996264)"/>
      <use xlink:href="#CMR17-64" transform="translate(330.371246 0) scale(0.996264)"/>
      <use xlink:href="#CMR17-28" transform="translate(411.342582 0) scale(0.996264)"/>
      <use xlink:href="#CMR17-31" transform="translate(446.62335 0) scale(0.996264)"/>
      <use xlink:href="#CMR17-30" transform="translate(492.313827 0) scale(0.996264)"/>
      <use xlink:href="#CMR17-63" transform="translate(568.08027 0) scale(0.996264)"/>
      <use xlink:href="#CMR17-6c" transform="translate(608.565931 0) scale(0.996264)"/>
      <use xlink:href="#CMR17-75" transform="translate(633.436989 0) scale(0.996264)"/>
      <use xlink:href="#CMR17-73" transform="translate(684.332359 0) scale(0.996264)"/>
      <use xlink:href="#CMR17-74" transform="translate(720.133697 0) scale(0.996264)"/>
      <use xlink:href="#CMR17-65" transform="translate(755.414464 0) scale(0.996264)"/>
      <use xlink:href="#CMR17-72" transform="translate(795.900125 0) scale(0.996264)"/>
      <use xlink:href="#CMR17-73" transform="translate(831.180893 0) scale(0.996264)"/>
      <use xlink:href="#CMR17-29" transform="translate(866.98223 0) scale(0.996264)"/>
     </g>
    </g>
    <g id="line2d_32">
     <path d="M 886.385548 687.879954 
L 896.385548 687.879954 
L 906.385548 687.879954 
" style="fill: none; stroke: #dcfae9; stroke-width: 1.5; stroke-linecap: round"/>
    </g>
    <g id="text_27">
     <!-- Predicted (12 clusters) -->
     <g style="fill: #262626" transform="translate(914.385548 691.379954) scale(0.1 -0.1)">
      <use xlink:href="#CMR17-50" transform="scale(0.996264)"/>
      <use xlink:href="#CMR17-72" transform="translate(62.586301 0) scale(0.996264)"/>
      <use xlink:href="#CMR17-65" transform="translate(97.867068 0) scale(0.996264)"/>
      <use xlink:href="#CMR17-64" transform="translate(138.352729 0) scale(0.996264)"/>
      <use xlink:href="#CMR17-69" transform="translate(189.248099 0) scale(0.996264)"/>
      <use xlink:href="#CMR17-63" transform="translate(214.119157 0) scale(0.996264)"/>
      <use xlink:href="#CMR17-74" transform="translate(254.604818 0) scale(0.996264)"/>
      <use xlink:href="#CMR17-65" transform="translate(289.885585 0) scale(0.996264)"/>
      <use xlink:href="#CMR17-64" transform="translate(330.371246 0) scale(0.996264)"/>
      <use xlink:href="#CMR17-28" transform="translate(411.342582 0) scale(0.996264)"/>
      <use xlink:href="#CMR17-31" transform="translate(446.62335 0) scale(0.996264)"/>
      <use xlink:href="#CMR17-32" transform="translate(492.313827 0) scale(0.996264)"/>
      <use xlink:href="#CMR17-63" transform="translate(568.08027 0) scale(0.996264)"/>
      <use xlink:href="#CMR17-6c" transform="translate(608.565931 0) scale(0.996264)"/>
      <use xlink:href="#CMR17-75" transform="translate(633.436989 0) scale(0.996264)"/>
      <use xlink:href="#CMR17-73" transform="translate(684.332359 0) scale(0.996264)"/>
      <use xlink:href="#CMR17-74" transform="translate(720.133697 0) scale(0.996264)"/>
      <use xlink:href="#CMR17-65" transform="translate(755.414464 0) scale(0.996264)"/>
      <use xlink:href="#CMR17-72" transform="translate(795.900125 0) scale(0.996264)"/>
      <use xlink:href="#CMR17-73" transform="translate(831.180893 0) scale(0.996264)"/>
      <use xlink:href="#CMR17-29" transform="translate(866.98223 0) scale(0.996264)"/>
     </g>
    </g>
    <g id="line2d_33">
     <path d="M 886.385548 702.842594 
L 896.385548 702.842594 
L 906.385548 702.842594 
" style="fill: none; stroke: #a1d9cc; stroke-width: 1.5; stroke-linecap: round"/>
    </g>
    <g id="text_28">
     <!-- Predicted (14 clusters) -->
     <g style="fill: #262626" transform="translate(914.385548 706.342594) scale(0.1 -0.1)">
      <use xlink:href="#CMR17-50" transform="scale(0.996264)"/>
      <use xlink:href="#CMR17-72" transform="translate(62.586301 0) scale(0.996264)"/>
      <use xlink:href="#CMR17-65" transform="translate(97.867068 0) scale(0.996264)"/>
      <use xlink:href="#CMR17-64" transform="translate(138.352729 0) scale(0.996264)"/>
      <use xlink:href="#CMR17-69" transform="translate(189.248099 0) scale(0.996264)"/>
      <use xlink:href="#CMR17-63" transform="translate(214.119157 0) scale(0.996264)"/>
      <use xlink:href="#CMR17-74" transform="translate(254.604818 0) scale(0.996264)"/>
      <use xlink:href="#CMR17-65" transform="translate(289.885585 0) scale(0.996264)"/>
      <use xlink:href="#CMR17-64" transform="translate(330.371246 0) scale(0.996264)"/>
      <use xlink:href="#CMR17-28" transform="translate(411.342582 0) scale(0.996264)"/>
      <use xlink:href="#CMR17-31" transform="translate(446.62335 0) scale(0.996264)"/>
      <use xlink:href="#CMR17-34" transform="translate(492.313827 0) scale(0.996264)"/>
      <use xlink:href="#CMR17-63" transform="translate(568.08027 0) scale(0.996264)"/>
      <use xlink:href="#CMR17-6c" transform="translate(608.565931 0) scale(0.996264)"/>
      <use xlink:href="#CMR17-75" transform="translate(633.436989 0) scale(0.996264)"/>
      <use xlink:href="#CMR17-73" transform="translate(684.332359 0) scale(0.996264)"/>
      <use xlink:href="#CMR17-74" transform="translate(720.133697 0) scale(0.996264)"/>
      <use xlink:href="#CMR17-65" transform="translate(755.414464 0) scale(0.996264)"/>
      <use xlink:href="#CMR17-72" transform="translate(795.900125 0) scale(0.996264)"/>
      <use xlink:href="#CMR17-73" transform="translate(831.180893 0) scale(0.996264)"/>
      <use xlink:href="#CMR17-29" transform="translate(866.98223 0) scale(0.996264)"/>
     </g>
    </g>
   </g>
  </g>
 </g>
 <defs>
  <clipPath id="p62dbde21a5">
   <rect x="39.885756" y="25.10218" width="1389.314244" height="590.73254"/>
  </clipPath>
 </defs>
</svg>
