<?xml version="1.0" encoding="utf-8" standalone="no"?>
<!DOCTYPE svg PUBLIC "-//W3C//DTD SVG 1.1//EN"
  "http://www.w3.org/Graphics/SVG/1.1/DTD/svg11.dtd">
<svg xmlns:xlink="http://www.w3.org/1999/xlink" width="1440pt" height="720pt" viewBox="0 0 1440 720" xmlns="http://www.w3.org/2000/svg" version="1.1">
 <metadata>
  <rdf:RDF xmlns:dc="http://purl.org/dc/elements/1.1/" xmlns:cc="http://creativecommons.org/ns#" xmlns:rdf="http://www.w3.org/1999/02/22-rdf-syntax-ns#">
   <cc:Work>
    <dc:type rdf:resource="http://purl.org/dc/dcmitype/StillImage"/>
    <dc:date>2023-11-20T15:50:33.889167</dc:date>
    <dc:format>image/svg+xml</dc:format>
    <dc:creator>
     <cc:Agent>
      <dc:title>Matplotlib v3.8.0, https://matplotlib.org/</dc:title>
     </cc:Agent>
    </dc:creator>
   </cc:Work>
  </rdf:RDF>
 </metadata>
 <defs>
  <style type="text/css">*{stroke-linejoin: round; stroke-linecap: butt}</style>
 </defs>
 <g id="figure_1">
  <g id="patch_1">
   <path d="M 0 720 
L 1440 720 
L 1440 0 
L 0 0 
z
" style="fill: #ffffff"/>
  </g>
  <g id="axes_1">
   <g id="patch_2">
    <path d="M 86.005744 568.267679 
L 1418.4 568.267679 
L 1418.4 44.204405 
L 86.005744 44.204405 
z
" style="fill: #ffffff"/>
   </g>
   <g id="matplotlib.axis_1">
    <g id="xtick_1">
     <g id="line2d_1">
      <path d="M 146.569119 568.267679 
L 146.569119 44.204405 
" clip-path="url(#pfa2cc7a43b)" style="fill: none; stroke: #cccccc; stroke-opacity: 0.5; stroke-width: 0.8; stroke-linecap: round"/>
     </g>
     <g id="text_1">
      <!-- $\mathdefault{2015}$ -->
      <g transform="translate(128.292929 585.604675) scale(0.2 -0.2)">
       <defs>
        <path id="CMR17-32" d="M 2669 989 
L 2554 989 
C 2490 536 2438 459 2413 420 
C 2381 369 1920 369 1830 369 
L 602 369 
C 832 619 1280 1072 1824 1597 
C 2214 1967 2669 2402 2669 3035 
C 2669 3790 2067 4224 1395 4224 
C 691 4224 262 3604 262 3030 
C 262 2780 448 2748 525 2748 
C 589 2748 781 2787 781 3010 
C 781 3207 614 3264 525 3264 
C 486 3264 448 3258 422 3245 
C 544 3790 915 4058 1306 4058 
C 1862 4058 2227 3617 2227 3035 
C 2227 2479 1901 2000 1536 1584 
L 262 146 
L 262 0 
L 2515 0 
L 2669 989 
z
" transform="scale(0.015625)"/>
        <path id="CMR17-30" d="M 2688 2025 
C 2688 2416 2682 3080 2413 3591 
C 2176 4039 1798 4198 1466 4198 
C 1158 4198 768 4058 525 3597 
C 269 3118 243 2524 243 2025 
C 243 1661 250 1106 448 619 
C 723 -39 1216 -128 1466 -128 
C 1760 -128 2208 -7 2470 600 
C 2662 1042 2688 1559 2688 2025 
z
M 1466 -26 
C 1056 -26 813 325 723 812 
C 653 1188 653 1738 653 2096 
C 653 2588 653 2997 736 3387 
C 858 3929 1216 4096 1466 4096 
C 1728 4096 2067 3923 2189 3400 
C 2272 3036 2278 2607 2278 2096 
C 2278 1680 2278 1169 2202 792 
C 2067 95 1690 -26 1466 -26 
z
" transform="scale(0.015625)"/>
        <path id="CMR17-31" d="M 1702 4058 
C 1702 4192 1696 4192 1606 4192 
C 1357 3916 979 3827 621 3827 
C 602 3827 570 3827 563 3808 
C 557 3795 557 3782 557 3648 
C 755 3648 1088 3686 1344 3839 
L 1344 461 
C 1344 236 1331 160 781 160 
L 589 160 
L 589 0 
C 896 0 1216 0 1523 0 
C 1830 0 2150 0 2458 0 
L 2458 160 
L 2266 160 
C 1715 160 1702 230 1702 458 
L 1702 4058 
z
" transform="scale(0.015625)"/>
        <path id="CMR17-35" d="M 730 3692 
C 794 3666 1056 3584 1325 3584 
C 1920 3584 2246 3911 2432 4100 
C 2432 4157 2432 4192 2394 4192 
C 2387 4192 2374 4192 2323 4163 
C 2099 4058 1837 3973 1517 3973 
C 1325 3973 1037 3999 723 4139 
C 653 4171 640 4171 634 4171 
C 602 4171 595 4164 595 4037 
L 595 2203 
C 595 2089 595 2057 659 2057 
C 691 2057 704 2070 736 2114 
C 941 2401 1222 2522 1542 2522 
C 1766 2522 2246 2382 2246 1289 
C 2246 1085 2246 715 2054 421 
C 1894 159 1645 25 1370 25 
C 947 25 518 320 403 814 
C 429 807 480 795 506 795 
C 589 795 749 840 749 1038 
C 749 1210 627 1280 506 1280 
C 358 1280 262 1190 262 1011 
C 262 454 704 -128 1382 -128 
C 2042 -128 2669 440 2669 1264 
C 2669 2030 2170 2624 1549 2624 
C 1222 2624 947 2503 730 2274 
L 730 3692 
z
" transform="scale(0.015625)"/>
       </defs>
       <use xlink:href="#CMR17-32" transform="scale(0.996264)"/>
       <use xlink:href="#CMR17-30" transform="translate(45.690477 0) scale(0.996264)"/>
       <use xlink:href="#CMR17-31" transform="translate(91.380954 0) scale(0.996264)"/>
       <use xlink:href="#CMR17-35" transform="translate(137.071431 0) scale(0.996264)"/>
      </g>
     </g>
    </g>
    <g id="xtick_2">
     <g id="line2d_2">
      <path d="M 284.945532 568.267679 
L 284.945532 44.204405 
" clip-path="url(#pfa2cc7a43b)" style="fill: none; stroke: #cccccc; stroke-opacity: 0.5; stroke-width: 0.8; stroke-linecap: round"/>
     </g>
     <g id="text_2">
      <!-- $\mathdefault{2016}$ -->
      <g transform="translate(266.669341 585.604675) scale(0.2 -0.2)">
       <defs>
        <path id="CMR17-36" d="M 678 2176 
C 678 3690 1395 4032 1811 4032 
C 1946 4032 2272 4009 2400 3776 
C 2298 3776 2106 3776 2106 3553 
C 2106 3381 2246 3323 2336 3323 
C 2394 3323 2566 3348 2566 3560 
C 2566 3954 2246 4179 1805 4179 
C 1043 4179 243 3390 243 1984 
C 243 253 966 -128 1478 -128 
C 2099 -128 2688 427 2688 1283 
C 2688 2081 2170 2662 1517 2662 
C 1126 2662 838 2407 678 1960 
L 678 2176 
z
M 1478 25 
C 691 25 691 1200 691 1436 
C 691 1896 909 2560 1504 2560 
C 1613 2560 1926 2560 2138 2120 
C 2253 1870 2253 1609 2253 1289 
C 2253 944 2253 690 2118 434 
C 1978 171 1773 25 1478 25 
z
" transform="scale(0.015625)"/>
       </defs>
       <use xlink:href="#CMR17-32" transform="scale(0.996264)"/>
       <use xlink:href="#CMR17-30" transform="translate(45.690477 0) scale(0.996264)"/>
       <use xlink:href="#CMR17-31" transform="translate(91.380954 0) scale(0.996264)"/>
       <use xlink:href="#CMR17-36" transform="translate(137.071431 0) scale(0.996264)"/>
      </g>
     </g>
    </g>
    <g id="xtick_3">
     <g id="line2d_3">
      <path d="M 423.701059 568.267679 
L 423.701059 44.204405 
" clip-path="url(#pfa2cc7a43b)" style="fill: none; stroke: #cccccc; stroke-opacity: 0.5; stroke-width: 0.8; stroke-linecap: round"/>
     </g>
     <g id="text_3">
      <!-- $\mathdefault{2017}$ -->
      <g transform="translate(405.424868 585.604675) scale(0.2 -0.2)">
       <defs>
        <path id="CMR17-37" d="M 2886 3941 
L 2886 4081 
L 1382 4081 
C 634 4081 621 4165 595 4288 
L 480 4288 
L 294 3094 
L 410 3094 
C 429 3215 474 3540 550 3661 
C 589 3712 1062 3712 1171 3712 
L 2579 3712 
L 1869 2661 
C 1395 1954 1069 999 1069 165 
C 1069 89 1069 -128 1299 -128 
C 1530 -128 1530 89 1530 171 
L 1530 465 
C 1530 1508 1709 2196 2003 2636 
L 2886 3941 
z
" transform="scale(0.015625)"/>
       </defs>
       <use xlink:href="#CMR17-32" transform="scale(0.996264)"/>
       <use xlink:href="#CMR17-30" transform="translate(45.690477 0) scale(0.996264)"/>
       <use xlink:href="#CMR17-31" transform="translate(91.380954 0) scale(0.996264)"/>
       <use xlink:href="#CMR17-37" transform="translate(137.071431 0) scale(0.996264)"/>
      </g>
     </g>
    </g>
    <g id="xtick_4">
     <g id="line2d_4">
      <path d="M 562.077472 568.267679 
L 562.077472 44.204405 
" clip-path="url(#pfa2cc7a43b)" style="fill: none; stroke: #cccccc; stroke-opacity: 0.5; stroke-width: 0.8; stroke-linecap: round"/>
     </g>
     <g id="text_4">
      <!-- $\mathdefault{2018}$ -->
      <g transform="translate(543.801281 585.604675) scale(0.2 -0.2)">
       <defs>
        <path id="CMR17-38" d="M 1741 2264 
C 2144 2467 2554 2773 2554 3263 
C 2554 3841 1990 4179 1472 4179 
C 890 4179 378 3759 378 3180 
C 378 3021 416 2747 666 2505 
C 730 2442 998 2251 1171 2130 
C 883 1983 211 1634 211 934 
C 211 279 838 -128 1459 -128 
C 2144 -128 2720 362 2720 1010 
C 2720 1590 2330 1857 2074 2029 
L 1741 2264 
z
M 902 2822 
C 851 2854 595 3051 595 3351 
C 595 3739 998 4032 1459 4032 
C 1965 4032 2336 3676 2336 3262 
C 2336 2669 1670 2331 1638 2331 
C 1632 2331 1626 2331 1574 2370 
L 902 2822 
z
M 2080 1519 
C 2176 1449 2483 1240 2483 851 
C 2483 381 2010 25 1472 25 
C 890 25 448 438 448 940 
C 448 1443 838 1862 1280 2060 
L 2080 1519 
z
" transform="scale(0.015625)"/>
       </defs>
       <use xlink:href="#CMR17-32" transform="scale(0.996264)"/>
       <use xlink:href="#CMR17-30" transform="translate(45.690477 0) scale(0.996264)"/>
       <use xlink:href="#CMR17-31" transform="translate(91.380954 0) scale(0.996264)"/>
       <use xlink:href="#CMR17-38" transform="translate(137.071431 0) scale(0.996264)"/>
      </g>
     </g>
    </g>
    <g id="xtick_5">
     <g id="line2d_5">
      <path d="M 700.453885 568.267679 
L 700.453885 44.204405 
" clip-path="url(#pfa2cc7a43b)" style="fill: none; stroke: #cccccc; stroke-opacity: 0.5; stroke-width: 0.8; stroke-linecap: round"/>
     </g>
     <g id="text_5">
      <!-- $\mathdefault{2019}$ -->
      <g transform="translate(682.177694 585.604675) scale(0.2 -0.2)">
       <defs>
        <path id="CMR17-39" d="M 2253 1864 
C 2253 464 1670 31 1190 31 
C 1043 31 685 31 538 294 
C 704 268 826 357 826 518 
C 826 692 685 749 595 749 
C 538 749 365 723 365 506 
C 365 71 742 -128 1203 -128 
C 1939 -128 2688 674 2688 2073 
C 2688 3817 1971 4179 1485 4179 
C 851 4179 243 3628 243 2778 
C 243 1991 762 1408 1414 1408 
C 1952 1408 2189 1903 2253 2112 
L 2253 1864 
z
M 1427 1510 
C 1254 1510 1011 1542 813 1922 
C 678 2169 678 2461 678 2771 
C 678 3146 678 3405 858 3684 
C 947 3817 1114 4032 1485 4032 
C 2240 4032 2240 2885 2240 2632 
C 2240 2182 2035 1510 1427 1510 
z
" transform="scale(0.015625)"/>
       </defs>
       <use xlink:href="#CMR17-32" transform="scale(0.996264)"/>
       <use xlink:href="#CMR17-30" transform="translate(45.690477 0) scale(0.996264)"/>
       <use xlink:href="#CMR17-31" transform="translate(91.380954 0) scale(0.996264)"/>
       <use xlink:href="#CMR17-39" transform="translate(137.071431 0) scale(0.996264)"/>
      </g>
     </g>
    </g>
    <g id="xtick_6">
     <g id="line2d_6">
      <path d="M 838.830298 568.267679 
L 838.830298 44.204405 
" clip-path="url(#pfa2cc7a43b)" style="fill: none; stroke: #cccccc; stroke-opacity: 0.5; stroke-width: 0.8; stroke-linecap: round"/>
     </g>
     <g id="text_6">
      <!-- $\mathdefault{2020}$ -->
      <g transform="translate(820.554107 585.604675) scale(0.2 -0.2)">
       <use xlink:href="#CMR17-32" transform="scale(0.996264)"/>
       <use xlink:href="#CMR17-30" transform="translate(45.690477 0) scale(0.996264)"/>
       <use xlink:href="#CMR17-32" transform="translate(91.380954 0) scale(0.996264)"/>
       <use xlink:href="#CMR17-30" transform="translate(137.071431 0) scale(0.996264)"/>
      </g>
     </g>
    </g>
    <g id="xtick_7">
     <g id="line2d_7">
      <path d="M 977.585824 568.267679 
L 977.585824 44.204405 
" clip-path="url(#pfa2cc7a43b)" style="fill: none; stroke: #cccccc; stroke-opacity: 0.5; stroke-width: 0.8; stroke-linecap: round"/>
     </g>
     <g id="text_7">
      <!-- $\mathdefault{2021}$ -->
      <g transform="translate(959.309633 585.604675) scale(0.2 -0.2)">
       <use xlink:href="#CMR17-32" transform="scale(0.996264)"/>
       <use xlink:href="#CMR17-30" transform="translate(45.690477 0) scale(0.996264)"/>
       <use xlink:href="#CMR17-32" transform="translate(91.380954 0) scale(0.996264)"/>
       <use xlink:href="#CMR17-31" transform="translate(137.071431 0) scale(0.996264)"/>
      </g>
     </g>
    </g>
    <g id="xtick_8">
     <g id="line2d_8">
      <path d="M 1115.962237 568.267679 
L 1115.962237 44.204405 
" clip-path="url(#pfa2cc7a43b)" style="fill: none; stroke: #cccccc; stroke-opacity: 0.5; stroke-width: 0.8; stroke-linecap: round"/>
     </g>
     <g id="text_8">
      <!-- $\mathdefault{2022}$ -->
      <g transform="translate(1097.686046 585.604675) scale(0.2 -0.2)">
       <use xlink:href="#CMR17-32" transform="scale(0.996264)"/>
       <use xlink:href="#CMR17-30" transform="translate(45.690477 0) scale(0.996264)"/>
       <use xlink:href="#CMR17-32" transform="translate(91.380954 0) scale(0.996264)"/>
       <use xlink:href="#CMR17-32" transform="translate(137.071431 0) scale(0.996264)"/>
      </g>
     </g>
    </g>
    <g id="xtick_9">
     <g id="line2d_9">
      <path d="M 1254.33865 568.267679 
L 1254.33865 44.204405 
" clip-path="url(#pfa2cc7a43b)" style="fill: none; stroke: #cccccc; stroke-opacity: 0.5; stroke-width: 0.8; stroke-linecap: round"/>
     </g>
     <g id="text_9">
      <!-- $\mathdefault{2023}$ -->
      <g transform="translate(1236.062459 585.604675) scale(0.2 -0.2)">
       <defs>
        <path id="CMR17-33" d="M 1414 2157 
C 1984 2157 2234 1662 2234 1090 
C 2234 320 1824 25 1453 25 
C 1114 25 563 194 390 693 
C 422 680 454 680 486 680 
C 640 680 755 782 755 948 
C 755 1133 614 1216 486 1216 
C 378 1216 211 1165 211 926 
C 211 335 787 -128 1466 -128 
C 2176 -128 2720 430 2720 1085 
C 2720 1707 2208 2157 1600 2227 
C 2086 2328 2554 2756 2554 3329 
C 2554 3820 2048 4179 1472 4179 
C 890 4179 378 3829 378 3329 
C 378 3110 544 3072 627 3072 
C 762 3072 877 3155 877 3321 
C 877 3486 762 3569 627 3569 
C 602 3569 570 3569 544 3557 
C 730 3959 1235 4032 1459 4032 
C 1683 4032 2106 3925 2106 3320 
C 2106 3143 2080 2828 1862 2550 
C 1670 2304 1453 2304 1242 2284 
C 1210 2284 1062 2269 1037 2269 
C 992 2263 966 2257 966 2208 
C 966 2163 973 2157 1101 2157 
L 1414 2157 
z
" transform="scale(0.015625)"/>
       </defs>
       <use xlink:href="#CMR17-32" transform="scale(0.996264)"/>
       <use xlink:href="#CMR17-30" transform="translate(45.690477 0) scale(0.996264)"/>
       <use xlink:href="#CMR17-32" transform="translate(91.380954 0) scale(0.996264)"/>
       <use xlink:href="#CMR17-33" transform="translate(137.071431 0) scale(0.996264)"/>
      </g>
     </g>
    </g>
    <g id="xtick_10">
     <g id="line2d_10">
      <path d="M 1392.715063 568.267679 
L 1392.715063 44.204405 
" clip-path="url(#pfa2cc7a43b)" style="fill: none; stroke: #cccccc; stroke-opacity: 0.5; stroke-width: 0.8; stroke-linecap: round"/>
     </g>
     <g id="text_10">
      <!-- $\mathdefault{2024}$ -->
      <g transform="translate(1374.438872 585.604675) scale(0.2 -0.2)">
       <defs>
        <path id="CMR17-34" d="M 2150 4122 
C 2150 4256 2144 4256 2029 4256 
L 128 1254 
L 128 1088 
L 1779 1088 
L 1779 457 
C 1779 224 1766 160 1318 160 
L 1197 160 
L 1197 0 
C 1402 0 1747 0 1965 0 
C 2182 0 2528 0 2733 0 
L 2733 160 
L 2611 160 
C 2163 160 2150 224 2150 457 
L 2150 1088 
L 2803 1088 
L 2803 1254 
L 2150 1254 
L 2150 4122 
z
M 1798 3703 
L 1798 1254 
L 256 1254 
L 1798 3703 
z
" transform="scale(0.015625)"/>
       </defs>
       <use xlink:href="#CMR17-32" transform="scale(0.996264)"/>
       <use xlink:href="#CMR17-30" transform="translate(45.690477 0) scale(0.996264)"/>
       <use xlink:href="#CMR17-32" transform="translate(91.380954 0) scale(0.996264)"/>
       <use xlink:href="#CMR17-34" transform="translate(137.071431 0) scale(0.996264)"/>
      </g>
     </g>
    </g>
    <g id="text_11">
     <!-- Date -->
     <g style="fill: #696969" transform="translate(733.017835 607.317306) scale(0.2 -0.2)">
      <defs>
       <path id="CMR17-44" d="M 333 4352 
L 333 4186 
C 774 4186 845 4186 845 3900 
L 845 452 
C 845 166 774 166 333 166 
L 333 0 
L 2368 0 
C 3398 0 4224 943 4224 2141 
C 4224 3346 3411 4352 2368 4352 
L 333 4352 
z
M 1523 166 
C 1267 166 1254 197 1254 414 
L 1254 3938 
C 1254 4155 1267 4186 1523 4186 
L 2240 4186 
C 2771 4186 3750 3874 3750 2141 
C 3750 1242 3488 879 3366 707 
C 3213 510 2848 166 2240 166 
L 1523 166 
z
" transform="scale(0.015625)"/>
       <path id="CMR17-61" d="M 2304 1653 
C 2304 2072 2304 2294 2035 2543 
C 1798 2752 1523 2816 1306 2816 
C 800 2816 435 2407 435 1971 
C 435 1728 627 1728 666 1728 
C 749 1728 896 1778 896 1954 
C 896 2112 774 2181 666 2181 
C 640 2181 608 2174 589 2168 
C 723 2592 1069 2714 1293 2714 
C 1613 2714 1965 2429 1965 1885 
L 1965 1600 
C 1587 1600 1133 1549 774 1357 
C 371 1133 256 813 256 570 
C 256 77 832 -64 1171 -64 
C 1523 -64 1850 139 1990 511 
C 2003 233 2182 -18 2464 -18 
C 2598 -18 2938 70 2938 567 
L 2938 920 
L 2822 920 
L 2822 562 
C 2822 178 2650 128 2566 128 
C 2304 128 2304 458 2304 738 
L 2304 1653 
z
M 1965 870 
C 1965 317 1568 38 1216 38 
C 896 38 646 275 646 570 
C 646 761 730 1100 1101 1305 
C 1408 1478 1760 1504 1965 1504 
L 1965 870 
z
" transform="scale(0.015625)"/>
       <path id="CMR17-74" d="M 966 2560 
L 1862 2560 
L 1862 2725 
L 966 2725 
L 966 3904 
L 851 3904 
C 838 3245 614 2668 70 2668 
L 70 2560 
L 627 2560 
L 627 771 
C 627 650 627 -64 1370 -64 
C 1747 -64 1965 306 1965 777 
L 1965 1140 
L 1850 1140 
L 1850 783 
C 1850 344 1677 51 1408 51 
C 1222 51 966 178 966 758 
L 966 2560 
z
" transform="scale(0.015625)"/>
       <path id="CMR17-65" d="M 2438 1472 
C 2464 1498 2464 1511 2464 1576 
C 2464 2238 2118 2816 1389 2816 
C 710 2816 173 2169 173 1383 
C 173 551 781 -64 1459 -64 
C 2176 -64 2458 607 2458 740 
C 2458 784 2419 784 2406 784 
C 2362 784 2355 771 2330 696 
C 2189 265 1837 51 1504 51 
C 1229 51 954 203 781 480 
C 582 803 582 1176 582 1472 
L 2438 1472 
z
M 589 1568 
C 634 2505 1126 2714 1382 2714 
C 1818 2714 2112 2297 2118 1568 
L 589 1568 
z
" transform="scale(0.015625)"/>
      </defs>
      <use xlink:href="#CMR17-44" transform="scale(0.996264)"/>
      <use xlink:href="#CMR17-61" transform="translate(70.393556 0) scale(0.996264)"/>
      <use xlink:href="#CMR17-74" transform="translate(116.084033 0) scale(0.996264)"/>
      <use xlink:href="#CMR17-65" transform="translate(151.364801 0) scale(0.996264)"/>
     </g>
    </g>
   </g>
   <g id="matplotlib.axis_2">
    <g id="ytick_1">
     <g id="line2d_11">
      <path d="M 86.005744 518.885926 
L 1418.4 518.885926 
" clip-path="url(#pfa2cc7a43b)" style="fill: none; stroke: #cccccc; stroke-opacity: 0.5; stroke-width: 0.8; stroke-linecap: round"/>
     </g>
     <g id="text_12">
      <!-- $\mathdefault{−2.5}$ -->
      <g transform="translate(43.31263 525.804424) scale(0.2 -0.2)">
       <defs>
        <path id="CMSY10-0" d="M 4218 1472 
C 4326 1472 4442 1472 4442 1600 
C 4442 1728 4326 1728 4218 1728 
L 755 1728 
C 646 1728 531 1728 531 1600 
C 531 1472 646 1472 755 1472 
L 4218 1472 
z
" transform="scale(0.015625)"/>
        <path id="CMMI12-3a" d="M 1178 307 
C 1178 492 1024 619 870 619 
C 685 619 557 466 557 313 
C 557 128 710 0 864 0 
C 1050 0 1178 153 1178 307 
z
" transform="scale(0.015625)"/>
       </defs>
       <use xlink:href="#CMSY10-0" transform="scale(0.996264)"/>
       <use xlink:href="#CMR17-32" transform="translate(77.487468 0) scale(0.996264)"/>
       <use xlink:href="#CMMI12-3a" transform="translate(123.177945 0) scale(0.996264)"/>
       <use xlink:href="#CMR17-35" transform="translate(150.275122 0) scale(0.996264)"/>
      </g>
     </g>
    </g>
    <g id="ytick_2">
     <g id="line2d_12">
      <path d="M 86.005744 446.892423 
L 1418.4 446.892423 
" clip-path="url(#pfa2cc7a43b)" style="fill: none; stroke: #cccccc; stroke-opacity: 0.5; stroke-width: 0.8; stroke-linecap: round"/>
     </g>
     <g id="text_13">
      <!-- $\mathdefault{0.0}$ -->
      <g transform="translate(58.810118 453.810922) scale(0.2 -0.2)">
       <use xlink:href="#CMR17-30" transform="scale(0.996264)"/>
       <use xlink:href="#CMMI12-3a" transform="translate(45.690477 0) scale(0.996264)"/>
       <use xlink:href="#CMR17-30" transform="translate(72.787654 0) scale(0.996264)"/>
      </g>
     </g>
    </g>
    <g id="ytick_3">
     <g id="line2d_13">
      <path d="M 86.005744 374.89892 
L 1418.4 374.89892 
" clip-path="url(#pfa2cc7a43b)" style="fill: none; stroke: #cccccc; stroke-opacity: 0.5; stroke-width: 0.8; stroke-linecap: round"/>
     </g>
     <g id="text_14">
      <!-- $\mathdefault{2.5}$ -->
      <g transform="translate(58.810118 381.817419) scale(0.2 -0.2)">
       <use xlink:href="#CMR17-32" transform="scale(0.996264)"/>
       <use xlink:href="#CMMI12-3a" transform="translate(45.690477 0) scale(0.996264)"/>
       <use xlink:href="#CMR17-35" transform="translate(72.787654 0) scale(0.996264)"/>
      </g>
     </g>
    </g>
    <g id="ytick_4">
     <g id="line2d_14">
      <path d="M 86.005744 302.905418 
L 1418.4 302.905418 
" clip-path="url(#pfa2cc7a43b)" style="fill: none; stroke: #cccccc; stroke-opacity: 0.5; stroke-width: 0.8; stroke-linecap: round"/>
     </g>
     <g id="text_15">
      <!-- $\mathdefault{5.0}$ -->
      <g transform="translate(58.810118 309.823916) scale(0.2 -0.2)">
       <use xlink:href="#CMR17-35" transform="scale(0.996264)"/>
       <use xlink:href="#CMMI12-3a" transform="translate(45.690477 0) scale(0.996264)"/>
       <use xlink:href="#CMR17-30" transform="translate(72.787654 0) scale(0.996264)"/>
      </g>
     </g>
    </g>
    <g id="ytick_5">
     <g id="line2d_15">
      <path d="M 86.005744 230.911915 
L 1418.4 230.911915 
" clip-path="url(#pfa2cc7a43b)" style="fill: none; stroke: #cccccc; stroke-opacity: 0.5; stroke-width: 0.8; stroke-linecap: round"/>
     </g>
     <g id="text_16">
      <!-- $\mathdefault{7.5}$ -->
      <g transform="translate(58.810118 237.830413) scale(0.2 -0.2)">
       <use xlink:href="#CMR17-37" transform="scale(0.996264)"/>
       <use xlink:href="#CMMI12-3a" transform="translate(45.690477 0) scale(0.996264)"/>
       <use xlink:href="#CMR17-35" transform="translate(72.787654 0) scale(0.996264)"/>
      </g>
     </g>
    </g>
    <g id="ytick_6">
     <g id="line2d_16">
      <path d="M 86.005744 158.918412 
L 1418.4 158.918412 
" clip-path="url(#pfa2cc7a43b)" style="fill: none; stroke: #cccccc; stroke-opacity: 0.5; stroke-width: 0.8; stroke-linecap: round"/>
     </g>
     <g id="text_17">
      <!-- $\mathdefault{10.0}$ -->
      <g transform="translate(49.672022 165.83691) scale(0.2 -0.2)">
       <use xlink:href="#CMR17-31" transform="scale(0.996264)"/>
       <use xlink:href="#CMR17-30" transform="translate(45.690477 0) scale(0.996264)"/>
       <use xlink:href="#CMMI12-3a" transform="translate(91.380954 0) scale(0.996264)"/>
       <use xlink:href="#CMR17-30" transform="translate(118.478131 0) scale(0.996264)"/>
      </g>
     </g>
    </g>
    <g id="ytick_7">
     <g id="line2d_17">
      <path d="M 86.005744 86.924909 
L 1418.4 86.924909 
" clip-path="url(#pfa2cc7a43b)" style="fill: none; stroke: #cccccc; stroke-opacity: 0.5; stroke-width: 0.8; stroke-linecap: round"/>
     </g>
     <g id="text_18">
      <!-- $\mathdefault{12.5}$ -->
      <g transform="translate(49.672022 93.843408) scale(0.2 -0.2)">
       <use xlink:href="#CMR17-31" transform="scale(0.996264)"/>
       <use xlink:href="#CMR17-32" transform="translate(45.690477 0) scale(0.996264)"/>
       <use xlink:href="#CMMI12-3a" transform="translate(91.380954 0) scale(0.996264)"/>
       <use xlink:href="#CMR17-35" transform="translate(118.478131 0) scale(0.996264)"/>
      </g>
     </g>
    </g>
    <g id="text_19">
     <!-- Total Contribution -->
     <g style="fill: #696969" transform="translate(35.436997 381.712572) rotate(-90) scale(0.2 -0.2)">
      <defs>
       <path id="CMR17-54" d="M 3981 4326 
L 288 4326 
L 179 2918 
L 294 2918 
C 378 3976 467 4160 1453 4160 
C 1568 4160 1754 4160 1805 4154 
C 1926 4135 1926 4058 1926 3912 
L 1926 459 
C 1926 230 1907 160 1376 160 
L 1197 160 
L 1197 0 
C 1504 0 1824 0 2138 0 
C 2451 0 2771 0 3078 0 
L 3078 160 
L 2899 160 
C 2368 160 2349 230 2349 459 
L 2349 3912 
C 2349 4052 2349 4129 2464 4154 
C 2515 4160 2701 4160 2816 4160 
C 3795 4160 3891 3976 3974 2918 
L 4090 2918 
L 3981 4326 
z
" transform="scale(0.015625)"/>
       <path id="CMR17-6f" d="M 2758 1356 
C 2758 2176 2163 2816 1466 2816 
C 768 2816 173 2176 173 1356 
C 173 551 768 -64 1466 -64 
C 2163 -64 2758 551 2758 1356 
z
M 1466 51 
C 1165 51 909 230 762 480 
C 602 767 582 1126 582 1408 
C 582 1677 595 2010 762 2298 
C 890 2509 1139 2714 1466 2714 
C 1754 2714 1997 2554 2150 2330 
C 2349 2029 2349 1607 2349 1408 
C 2349 1158 2336 775 2163 467 
C 1984 173 1709 51 1466 51 
z
" transform="scale(0.015625)"/>
       <path id="CMR17-6c" d="M 979 4396 
L 218 4326 
L 218 4160 
C 595 4160 653 4122 653 3817 
L 653 426 
C 653 184 627 153 218 153 
L 218 -13 
C 371 0 653 0 813 0 
C 979 0 1261 0 1414 -13 
L 1414 153 
C 1005 153 979 178 979 426 
L 979 4396 
z
" transform="scale(0.015625)"/>
       <path id="CMR17-43" d="M 3974 4289 
C 3974 4403 3968 4410 3930 4410 
C 3904 4410 3898 4403 3853 4327 
L 3571 3792 
C 3258 4187 2874 4416 2381 4416 
C 1286 4416 294 3456 294 2148 
C 294 826 1286 -128 2387 -128 
C 3366 -128 3974 730 3974 1461 
C 3974 1524 3974 1550 3917 1550 
C 3866 1550 3866 1531 3859 1474 
C 3808 585 3168 38 2477 38 
C 1824 38 781 495 781 2147 
C 781 3805 1843 4250 2464 4250 
C 3187 4250 3712 3628 3834 2745 
C 3846 2668 3846 2655 3904 2655 
C 3974 2655 3974 2668 3974 2783 
L 3974 4289 
z
" transform="scale(0.015625)"/>
       <path id="CMR17-6e" d="M 2656 1933 
C 2656 2259 2592 2790 1837 2790 
C 1331 2790 1069 2400 973 2144 
L 966 2144 
L 966 2790 
L 211 2720 
L 211 2554 
C 589 2554 646 2515 646 2208 
L 646 428 
C 646 184 621 153 211 153 
L 211 -13 
C 365 0 646 0 813 0 
C 979 0 1267 0 1421 -13 
L 1421 153 
C 1011 153 986 178 986 428 
L 986 1658 
C 986 2247 1344 2688 1792 2688 
C 2266 2688 2317 2266 2317 1958 
L 2317 428 
C 2317 184 2291 153 1882 153 
L 1882 -13 
C 2035 0 2317 0 2483 0 
C 2650 0 2938 0 3091 -13 
L 3091 153 
C 2682 153 2656 178 2656 428 
L 2656 1933 
z
" transform="scale(0.015625)"/>
       <path id="CMR17-72" d="M 960 1497 
C 960 2112 1222 2688 1702 2688 
C 1747 2688 1792 2682 1837 2662 
C 1837 2662 1696 2617 1696 2452 
C 1696 2298 1818 2234 1914 2234 
C 1990 2234 2131 2279 2131 2458 
C 2131 2663 1926 2790 1709 2790 
C 1222 2790 1011 2317 947 2093 
L 941 2093 
L 941 2790 
L 198 2720 
L 198 2554 
C 576 2554 634 2515 634 2208 
L 634 428 
C 634 184 608 153 198 153 
L 198 -13 
C 352 0 646 0 813 0 
C 998 0 1325 0 1498 -13 
L 1498 153 
C 1037 153 960 153 960 440 
L 960 1497 
z
" transform="scale(0.015625)"/>
       <path id="CMR17-69" d="M 992 3909 
C 992 4049 877 4170 730 4170 
C 589 4170 467 4056 467 3909 
C 467 3769 582 3648 730 3648 
C 870 3648 992 3763 992 3909 
z
M 243 2706 
L 243 2541 
C 602 2541 653 2502 653 2197 
L 653 427 
C 653 184 627 153 218 153 
L 218 -13 
C 371 0 646 0 806 0 
C 960 0 1222 0 1370 -13 
L 1370 153 
C 992 153 979 191 979 420 
L 979 2776 
L 243 2706 
z
" transform="scale(0.015625)"/>
       <path id="CMR17-62" d="M 960 4396 
L 198 4326 
L 198 4160 
C 576 4160 634 4122 634 3817 
L 634 -13 
L 749 -13 
L 934 441 
C 1120 141 1395 -64 1766 -64 
C 2406 -64 3053 500 3053 1370 
C 3053 2188 2477 2790 1830 2790 
C 1434 2790 1152 2579 960 2330 
L 960 4396 
z
M 973 2004 
C 973 2118 973 2138 1062 2272 
C 1312 2657 1670 2688 1792 2688 
C 1984 2688 2643 2585 2643 1376 
C 2643 108 1888 38 1734 38 
C 1536 38 1248 114 1043 486 
C 973 608 973 621 973 735 
L 973 2004 
z
" transform="scale(0.015625)"/>
       <path id="CMR17-75" d="M 1882 2693 
L 1882 2528 
C 2259 2528 2317 2489 2317 2186 
L 2317 1032 
C 2317 500 2029 38 1555 38 
C 1030 38 986 348 986 678 
L 986 2763 
L 211 2693 
L 211 2528 
C 467 2528 640 2528 646 2274 
L 646 1058 
C 646 633 646 361 813 183 
C 896 101 1056 -64 1517 -64 
C 2061 -64 2272 377 2323 506 
L 2330 506 
L 2330 -63 
L 3091 -63 
L 3091 128 
C 2714 128 2656 166 2656 473 
L 2656 2763 
L 1882 2693 
z
" transform="scale(0.015625)"/>
      </defs>
      <use xlink:href="#CMR17-54" transform="scale(0.996264)"/>
      <use xlink:href="#CMR17-6f" transform="translate(58.702625 0) scale(0.996264)"/>
      <use xlink:href="#CMR17-74" transform="translate(104.393102 0) scale(0.996264)"/>
      <use xlink:href="#CMR17-61" transform="translate(139.67387 0) scale(0.996264)"/>
      <use xlink:href="#CMR17-6c" transform="translate(185.364347 0) scale(0.996264)"/>
      <use xlink:href="#CMR17-43" transform="translate(240.311372 0) scale(0.996264)"/>
      <use xlink:href="#CMR17-6f" transform="translate(306.821253 0) scale(0.996264)"/>
      <use xlink:href="#CMR17-6e" transform="translate(352.51173 0) scale(0.996264)"/>
      <use xlink:href="#CMR17-74" transform="translate(400.804646 0) scale(0.996264)"/>
      <use xlink:href="#CMR17-72" transform="translate(436.085413 0) scale(0.996264)"/>
      <use xlink:href="#CMR17-69" transform="translate(471.366181 0) scale(0.996264)"/>
      <use xlink:href="#CMR17-62" transform="translate(496.23724 0) scale(0.996264)"/>
      <use xlink:href="#CMR17-75" transform="translate(547.132609 0) scale(0.996264)"/>
      <use xlink:href="#CMR17-74" transform="translate(598.027979 0) scale(0.996264)"/>
      <use xlink:href="#CMR17-69" transform="translate(633.308747 0) scale(0.996264)"/>
      <use xlink:href="#CMR17-6f" transform="translate(658.179805 0) scale(0.996264)"/>
      <use xlink:href="#CMR17-6e" transform="translate(703.870283 0) scale(0.996264)"/>
     </g>
    </g>
   </g>
   <g id="line2d_18">
    <path d="M 146.569119 433.752673 
L 180.689331 399.059122 
L 180.689331 399.059122 
L 192.062735 394.23085 
L 192.062735 394.23085 
L 203.815252 399.072754 
L 203.815252 399.072754 
L 215.188656 419.505299 
L 215.188656 419.505299 
L 226.941173 399.602014 
L 226.941173 399.602014 
L 238.69369 397.02883 
L 238.69369 397.02883 
L 250.067094 408.864824 
L 250.067094 408.864824 
L 261.819611 387.40864 
L 261.819611 387.40864 
L 273.193015 395.494132 
L 273.193015 395.494132 
L 284.945532 419.289665 
L 296.69805 302.304158 
L 296.69805 302.304158 
L 307.69234 340.871247 
L 307.69234 340.871247 
L 319.444857 372.450095 
L 319.444857 372.450095 
L 330.818261 354.098182 
L 330.818261 354.098182 
L 342.570778 292.27989 
L 342.570778 292.27989 
L 353.944182 359.471207 
L 353.944182 359.471207 
L 365.696699 374.356506 
L 365.696699 374.356506 
L 377.449217 354.183544 
L 377.449217 354.183544 
L 388.82262 378.949102 
L 388.82262 378.949102 
L 400.575138 368.240094 
L 400.575138 368.240094 
L 411.948542 357.428648 
L 411.948542 357.428648 
L 423.701059 359.647104 
L 423.701059 359.647104 
L 435.453576 341.385663 
L 435.453576 341.385663 
L 446.068753 366.720011 
L 446.068753 366.720011 
L 457.82127 371.586547 
L 457.82127 371.586547 
L 469.194674 368.376917 
L 469.194674 368.376917 
L 480.947191 306.718332 
L 480.947191 306.718332 
L 492.320595 336.804462 
L 492.320595 336.804462 
L 504.073112 339.966657 
L 504.073112 339.966657 
L 515.82563 378.427065 
L 515.82563 378.427065 
L 527.199033 300.247695 
L 527.199033 300.247695 
L 538.951551 394.022417 
L 538.951551 394.022417 
L 550.324954 300.881086 
L 550.324954 300.881086 
L 562.077472 361.634004 
L 562.077472 361.634004 
L 573.829989 415.490541 
L 573.829989 415.490541 
L 584.445166 363.420397 
L 584.445166 363.420397 
L 596.197683 420.465489 
L 596.197683 420.465489 
L 607.571087 381.186796 
L 607.571087 381.186796 
L 619.323604 368.062642 
L 619.323604 368.062642 
L 630.697008 364.396061 
L 630.697008 364.396061 
L 642.449525 400.496157 
L 642.449525 400.496157 
L 654.202043 264.810183 
L 654.202043 264.810183 
L 665.575446 372.230278 
L 665.575446 372.230278 
L 677.327964 386.585818 
L 677.327964 386.585818 
L 688.701367 399.19702 
L 688.701367 399.19702 
L 700.453885 389.874543 
L 700.453885 389.874543 
L 712.206402 346.580428 
L 712.206402 346.580428 
L 722.821579 390.592944 
L 722.821579 390.592944 
L 734.574096 396.048332 
L 734.574096 396.048332 
L 745.9475 391.522281 
L 745.9475 391.522281 
L 757.700017 325.286841 
L 757.700017 325.286841 
L 769.073421 420.324635 
L 769.073421 420.324635 
L 780.825938 368.66581 
L 780.825938 368.66581 
L 792.578456 391.469489 
L 792.578456 391.469489 
L 803.951859 419.480143 
L 803.951859 419.480143 
L 815.704377 358.733345 
L 815.704377 358.733345 
L 827.07778 407.492652 
L 827.07778 407.492652 
L 838.830298 419.991015 
L 838.830298 419.991015 
L 850.582815 420.992413 
L 850.582815 420.992413 
L 861.577105 325.113525 
L 861.577105 325.113525 
L 873.329623 418.962661 
L 873.329623 418.962661 
L 884.703026 420.40272 
L 884.703026 420.40272 
L 907.828947 431.978666 
L 919.581465 421.339195 
L 919.581465 421.339195 
L 931.333982 392.272464 
L 931.333982 392.272464 
L 942.707386 383.214108 
L 942.707386 383.214108 
L 954.459903 402.566564 
L 954.459903 402.566564 
L 965.833307 421.816382 
L 965.833307 421.816382 
L 977.585824 348.101183 
L 977.585824 348.101183 
L 989.338341 376.360917 
L 989.338341 376.360917 
L 999.953518 391.431294 
L 999.953518 391.431294 
L 1011.706036 382.675939 
L 1011.706036 382.675939 
L 1034.831957 371.951661 
L 1034.831957 371.951661 
L 1046.20536 378.548346 
L 1046.20536 378.548346 
L 1057.957878 421.679695 
L 1057.957878 421.679695 
L 1069.710395 433.706253 
L 1069.710395 433.706253 
L 1081.083799 376.884422 
L 1081.083799 376.884422 
L 1092.836316 431.302138 
L 1104.20972 354.31745 
L 1104.20972 354.31745 
L 1115.962237 406.146144 
L 1115.962237 406.146144 
L 1127.714754 423.456535 
L 1127.714754 423.456535 
L 1138.329931 356.98798 
L 1138.329931 356.98798 
L 1150.082449 387.761702 
L 1150.082449 387.761702 
L 1161.455852 412.121091 
L 1161.455852 412.121091 
L 1173.20837 414.941451 
L 1173.20837 414.941451 
L 1184.581773 401.417319 
L 1184.581773 401.417319 
L 1196.334291 423.66281 
L 1196.334291 423.66281 
L 1208.086808 421.225306 
L 1208.086808 421.225306 
L 1219.460212 430.644603 
L 1231.212729 434.096806 
L 1242.586133 317.925833 
L 1242.586133 317.925833 
L 1254.33865 434.16979 
L 1266.091167 380.025371 
L 1266.091167 380.025371 
L 1276.706344 405.210795 
L 1276.706344 405.210795 
L 1288.458862 422.704359 
L 1288.458862 422.704359 
L 1299.832265 418.305534 
L 1299.832265 418.305534 
L 1322.958186 435.669527 
L 1334.710704 434.228233 
L 1357.836625 435.39858 
L 1357.836625 435.39858 
" clip-path="url(#pfa2cc7a43b)" style="fill: none; stroke: #006e64; stroke-width: 1.5; stroke-linecap: round"/>
   </g>
   <g id="line2d_19">
    <path d="M 146.569119 346.443182 
L 180.689331 374.001076 
L 180.689331 374.001076 
L 192.062735 448.563488 
L 192.062735 448.563488 
L 203.815252 336.606305 
L 203.815252 336.606305 
L 215.188656 325.767917 
L 215.188656 325.767917 
L 226.941173 399.477911 
L 226.941173 399.477911 
L 238.69369 368.345819 
L 238.69369 368.345819 
L 250.067094 426.377014 
L 250.067094 426.377014 
L 261.819611 356.668296 
L 261.819611 356.668296 
L 273.193015 338.833805 
L 273.193015 338.833805 
L 284.945532 422.613537 
L 284.945532 422.613537 
L 296.69805 141.984636 
L 296.69805 141.984636 
L 307.69234 285.615617 
L 307.69234 285.615617 
L 319.444857 370.57584 
L 319.444857 370.57584 
L 330.818261 405.129023 
L 330.818261 405.129023 
L 342.570778 402.127643 
L 342.570778 402.127643 
L 353.944182 346.629804 
L 353.944182 346.629804 
L 365.696699 372.209195 
L 365.696699 372.209195 
L 377.449217 388.191338 
L 377.449217 388.191338 
L 388.82262 387.602212 
L 388.82262 387.602212 
L 400.575138 380.115875 
L 400.575138 380.115875 
L 411.948542 242.249191 
L 411.948542 242.249191 
L 423.701059 284.470035 
L 423.701059 284.470035 
L 435.453576 358.516059 
L 435.453576 358.516059 
L 446.068753 376.162012 
L 446.068753 376.162012 
L 457.82127 388.489239 
L 457.82127 388.489239 
L 469.194674 411.11385 
L 469.194674 411.11385 
L 480.947191 74.933049 
L 480.947191 74.933049 
L 492.320595 327.556475 
L 492.320595 327.556475 
L 504.073112 136.338315 
L 504.073112 136.338315 
L 515.82563 364.765796 
L 515.82563 364.765796 
L 527.199033 359.435393 
L 527.199033 359.435393 
L 538.951551 399.902495 
L 538.951551 399.902495 
L 550.324954 336.802838 
L 550.324954 336.802838 
L 562.077472 131.381392 
L 562.077472 131.381392 
L 573.829989 433.606306 
L 573.829989 433.606306 
L 584.445166 328.307309 
L 584.445166 328.307309 
L 596.197683 392.628121 
L 596.197683 392.628121 
L 607.571087 254.365072 
L 607.571087 254.365072 
L 619.323604 335.337754 
L 619.323604 335.337754 
L 630.697008 350.618652 
L 630.697008 350.618652 
L 642.449525 450.386454 
L 642.449525 450.386454 
L 654.202043 85.114247 
L 654.202043 85.114247 
L 665.575446 268.070048 
L 665.575446 268.070048 
L 677.327964 440.603241 
L 677.327964 440.603241 
L 688.701367 287.87037 
L 688.701367 287.87037 
L 700.453885 377.996733 
L 700.453885 377.996733 
L 712.206402 279.090174 
L 712.206402 279.090174 
L 722.821579 357.608929 
L 722.821579 357.608929 
L 734.574096 368.044505 
L 734.574096 368.044505 
L 745.9475 375.265714 
L 745.9475 375.265714 
L 757.700017 313.930972 
L 757.700017 313.930972 
L 769.073421 405.980333 
L 769.073421 405.980333 
L 780.825938 368.220733 
L 780.825938 368.220733 
L 792.578456 345.826438 
L 792.578456 345.826438 
L 803.951859 440.729349 
L 803.951859 440.729349 
L 815.704377 336.810097 
L 815.704377 336.810097 
L 827.07778 396.963601 
L 827.07778 396.963601 
L 838.830298 410.573923 
L 838.830298 410.573923 
L 850.582815 433.948265 
L 850.582815 433.948265 
L 861.577105 363.977419 
L 861.577105 363.977419 
L 873.329623 421.024277 
L 873.329623 421.024277 
L 884.703026 403.135155 
L 884.703026 403.135155 
L 907.828947 414.754348 
L 919.581465 424.785682 
L 919.581465 424.785682 
L 931.333982 356.165799 
L 931.333982 356.165799 
L 942.707386 380.083249 
L 942.707386 380.083249 
L 954.459903 383.969559 
L 954.459903 383.969559 
L 965.833307 411.183638 
L 965.833307 411.183638 
L 977.585824 225.667052 
L 977.585824 225.667052 
L 989.338341 342.05377 
L 989.338341 342.05377 
L 999.953518 384.916086 
L 999.953518 384.916086 
L 1011.706036 394.040866 
L 1011.706036 394.040866 
L 1034.831957 390.85234 
L 1034.831957 390.85234 
L 1046.20536 350.259582 
L 1046.20536 350.259582 
L 1057.957878 415.893858 
L 1057.957878 415.893858 
L 1069.710395 425.109001 
L 1069.710395 425.109001 
L 1081.083799 388.400153 
L 1081.083799 388.400153 
L 1092.836316 434.346804 
L 1104.20972 366.870405 
L 1104.20972 366.870405 
L 1115.962237 392.793497 
L 1115.962237 392.793497 
L 1127.714754 465.872362 
L 1127.714754 465.872362 
L 1138.329931 446.671684 
L 1138.329931 446.671684 
L 1150.082449 531.109521 
L 1150.082449 531.109521 
L 1161.455852 446.712359 
L 1161.455852 446.712359 
L 1173.20837 544.446621 
L 1173.20837 544.446621 
L 1184.581773 353.771579 
L 1184.581773 353.771579 
L 1196.334291 440.738224 
L 1196.334291 440.738224 
L 1208.086808 439.011015 
L 1208.086808 439.011015 
L 1219.460212 418.244663 
L 1231.212729 445.299392 
L 1242.586133 149.132489 
L 1242.586133 149.132489 
L 1254.33865 443.96976 
L 1266.091167 352.287205 
L 1266.091167 352.287205 
L 1276.706344 395.702353 
L 1276.706344 395.702353 
L 1288.458862 437.703911 
L 1288.458862 437.703911 
L 1299.832265 388.550029 
L 1299.832265 388.550029 
L 1334.710704 442.639542 
L 1357.836625 429.787565 
L 1357.836625 429.787565 
" clip-path="url(#pfa2cc7a43b)" style="fill: none; stroke: #734848; stroke-width: 1.5; stroke-linecap: round"/>
   </g>
   <g id="line2d_20">
    <path d="M 146.569119 337.312592 
L 180.689331 364.081139 
L 180.689331 364.081139 
L 192.062735 440.486837 
L 192.062735 440.486837 
L 203.815252 324.51143 
L 203.815252 324.51143 
L 215.188656 314.142483 
L 215.188656 314.142483 
L 226.941173 392.7135 
L 226.941173 392.7135 
L 238.69369 362.140437 
L 238.69369 362.140437 
L 250.067094 421.301796 
L 250.067094 421.301796 
L 261.819611 348.168857 
L 261.819611 348.168857 
L 273.193015 333.591276 
L 273.193015 333.591276 
L 284.945532 420.008876 
L 284.945532 420.008876 
L 296.69805 128.905401 
L 296.69805 128.905401 
L 307.69234 279.59147 
L 307.69234 279.59147 
L 319.444857 361.817836 
L 319.444857 361.817836 
L 330.818261 403.251532 
L 330.818261 403.251532 
L 342.570778 388.884655 
L 342.570778 388.884655 
L 353.944182 341.421353 
L 353.944182 341.421353 
L 365.696699 370.241895 
L 365.696699 370.241895 
L 377.449217 383.911338 
L 377.449217 383.911338 
L 388.82262 383.544131 
L 388.82262 383.544131 
L 400.575138 381.46169 
L 400.575138 381.46169 
L 411.948542 233.139971 
L 411.948542 233.139971 
L 423.701059 286.174981 
L 423.701059 286.174981 
L 435.453576 349.132052 
L 435.453576 349.132052 
L 446.068753 376.888391 
L 446.068753 376.888391 
L 457.82127 383.00175 
L 457.82127 383.00175 
L 469.194674 403.313073 
L 469.194674 403.313073 
L 480.947191 71.708593 
L 480.947191 71.708593 
L 492.320595 326.710323 
L 492.320595 326.710323 
L 504.073112 138.712443 
L 504.073112 138.712443 
L 515.82563 361.653512 
L 515.82563 361.653512 
L 527.199033 351.585343 
L 527.199033 351.585343 
L 538.951551 392.463715 
L 538.951551 392.463715 
L 550.324954 327.680345 
L 550.324954 327.680345 
L 562.077472 123.429969 
L 562.077472 123.429969 
L 573.829989 432.777399 
L 573.829989 432.777399 
L 584.445166 318.309161 
L 584.445166 318.309161 
L 596.197683 385.749553 
L 596.197683 385.749553 
L 607.571087 244.573649 
L 607.571087 244.573649 
L 619.323604 333.07539 
L 619.323604 333.07539 
L 630.697008 355.142663 
L 630.697008 355.142663 
L 642.449525 434.126696 
L 642.449525 434.126696 
L 654.202043 115.200295 
L 654.202043 115.200295 
L 677.327964 441.09445 
L 677.327964 441.09445 
L 688.701367 297.175349 
L 688.701367 297.175349 
L 700.453885 374.320513 
L 700.453885 374.320513 
L 712.206402 280.263906 
L 712.206402 280.263906 
L 722.821579 353.383614 
L 722.821579 353.383614 
L 734.574096 369.644104 
L 734.574096 369.644104 
L 745.9475 365.253788 
L 745.9475 365.253788 
L 757.700017 305.564372 
L 757.700017 305.564372 
L 769.073421 405.214411 
L 769.073421 405.214411 
L 780.825938 364.742934 
L 780.825938 364.742934 
L 792.578456 364.612259 
L 792.578456 364.612259 
L 803.951859 441.761932 
L 803.951859 441.761932 
L 815.704377 327.910099 
L 815.704377 327.910099 
L 827.07778 399.038136 
L 827.07778 399.038136 
L 838.830298 417.152055 
L 850.582815 435.520181 
L 861.577105 362.822712 
L 861.577105 362.822712 
L 873.329623 427.200177 
L 873.329623 427.200177 
L 884.703026 398.830331 
L 884.703026 398.830331 
L 907.828947 420.674714 
L 919.581465 429.721084 
L 919.581465 429.721084 
L 931.333982 361.64687 
L 931.333982 361.64687 
L 942.707386 413.061714 
L 942.707386 413.061714 
L 954.459903 379.328913 
L 954.459903 379.328913 
L 965.833307 410.842169 
L 965.833307 410.842169 
L 977.585824 255.478707 
L 977.585824 255.478707 
L 999.953518 402.785443 
L 999.953518 402.785443 
L 1011.706036 404.40991 
L 1011.706036 404.40991 
L 1034.831957 399.182387 
L 1034.831957 399.182387 
L 1046.20536 379.136757 
L 1046.20536 379.136757 
L 1057.957878 420.928234 
L 1057.957878 420.928234 
L 1069.710395 438.989711 
L 1069.710395 438.989711 
L 1081.083799 390.105263 
L 1081.083799 390.105263 
L 1092.836316 425.091197 
L 1104.20972 368.247883 
L 1104.20972 368.247883 
L 1115.962237 395.573396 
L 1115.962237 395.573396 
L 1127.714754 479.400541 
L 1127.714754 479.400541 
L 1138.329931 459.100008 
L 1138.329931 459.100008 
L 1150.082449 528.343495 
L 1150.082449 528.343495 
L 1161.455852 448.276856 
L 1161.455852 448.276856 
L 1173.20837 534.560015 
L 1173.20837 534.560015 
L 1184.581773 360.681677 
L 1184.581773 360.681677 
L 1196.334291 447.737323 
L 1196.334291 447.737323 
L 1208.086808 435.429765 
L 1208.086808 435.429765 
L 1219.460212 421.43714 
L 1231.212729 444.793703 
L 1242.586133 199.820273 
L 1242.586133 199.820273 
L 1254.33865 442.670523 
L 1266.091167 335.883098 
L 1266.091167 335.883098 
L 1276.706344 382.778195 
L 1276.706344 382.778195 
L 1288.458862 441.388527 
L 1288.458862 441.388527 
L 1299.832265 399.816947 
L 1299.832265 399.816947 
L 1322.958186 409.312897 
L 1334.710704 442.057702 
L 1357.836625 434.063102 
L 1357.836625 434.063102 
" clip-path="url(#pfa2cc7a43b)" style="fill: none; stroke: #004e4a; stroke-width: 1.5; stroke-linecap: round"/>
   </g>
   <g id="line2d_21">
    <path d="M 146.569119 337.259467 
L 180.689331 364.084634 
L 180.689331 364.084634 
L 192.062735 440.297877 
L 192.062735 440.297877 
L 203.815252 324.431534 
L 203.815252 324.431534 
L 215.188656 314.091331 
L 215.188656 314.091331 
L 226.941173 392.708959 
L 226.941173 392.708959 
L 238.69369 362.143066 
L 238.69369 362.143066 
L 250.067094 421.27749 
L 250.067094 421.27749 
L 261.819611 348.110002 
L 261.819611 348.110002 
L 273.193015 333.555559 
L 273.193015 333.555559 
L 284.945532 420.000553 
L 284.945532 420.000553 
L 296.69805 128.952903 
L 296.69805 128.952903 
L 307.69234 279.60267 
L 307.69234 279.60267 
L 319.444857 361.847761 
L 319.444857 361.847761 
L 330.818261 403.279586 
L 330.818261 403.279586 
L 342.570778 388.717915 
L 342.570778 388.717915 
L 353.944182 341.286126 
L 353.944182 341.286126 
L 365.696699 370.081896 
L 365.696699 370.081896 
L 377.449217 383.950874 
L 377.449217 383.950874 
L 388.82262 383.590252 
L 388.82262 383.590252 
L 400.575138 381.23426 
L 400.575138 381.23426 
L 411.948542 232.959557 
L 411.948542 232.959557 
L 423.701059 285.675709 
L 423.701059 285.675709 
L 435.453576 348.989432 
L 435.453576 348.989432 
L 446.068753 376.05286 
L 446.068753 376.05286 
L 457.82127 382.989231 
L 457.82127 382.989231 
L 469.194674 403.253368 
L 469.194674 403.253368 
L 480.947191 70.854594 
L 480.947191 70.854594 
L 492.320595 337.775389 
L 492.320595 337.775389 
L 504.073112 149.91412 
L 504.073112 149.91412 
L 515.82563 361.839498 
L 515.82563 361.839498 
L 527.199033 351.602697 
L 527.199033 351.602697 
L 538.951551 392.471595 
L 538.951551 392.471595 
L 550.324954 327.620825 
L 550.324954 327.620825 
L 562.077472 123.396853 
L 562.077472 123.396853 
L 573.829989 432.745372 
L 573.829989 432.745372 
L 584.445166 318.433508 
L 584.445166 318.433508 
L 596.197683 385.759653 
L 596.197683 385.759653 
L 607.571087 244.836984 
L 607.571087 244.836984 
L 619.323604 333.01791 
L 619.323604 333.01791 
L 630.697008 355.402827 
L 630.697008 355.402827 
L 642.449525 433.990835 
L 642.449525 433.990835 
L 654.202043 113.109523 
L 654.202043 113.109523 
L 665.575446 292.374002 
L 665.575446 292.374002 
L 677.327964 441.247551 
L 677.327964 441.247551 
L 688.701367 304.531184 
L 688.701367 304.531184 
L 700.453885 374.389195 
L 700.453885 374.389195 
L 712.206402 288.336196 
L 712.206402 288.336196 
L 722.821579 353.948926 
L 722.821579 353.948926 
L 734.574096 370.017391 
L 734.574096 370.017391 
L 745.9475 365.465137 
L 745.9475 365.465137 
L 757.700017 305.560632 
L 757.700017 305.560632 
L 769.073421 405.124438 
L 769.073421 405.124438 
L 780.825938 365.347004 
L 780.825938 365.347004 
L 792.578456 364.967678 
L 792.578456 364.967678 
L 803.951859 441.796092 
L 803.951859 441.796092 
L 815.704377 327.883876 
L 815.704377 327.883876 
L 827.07778 398.995232 
L 827.07778 398.995232 
L 838.830298 417.153701 
L 838.830298 417.153701 
L 850.582815 435.523617 
L 850.582815 435.523617 
L 861.577105 362.993713 
L 861.577105 362.993713 
L 873.329623 427.410132 
L 873.329623 427.410132 
L 884.703026 398.831269 
L 884.703026 398.831269 
L 907.828947 420.240852 
L 919.581465 430.046555 
L 919.581465 430.046555 
L 931.333982 361.329197 
L 931.333982 361.329197 
L 942.707386 411.339026 
L 942.707386 411.339026 
L 954.459903 379.297861 
L 954.459903 379.297861 
L 965.833307 410.974246 
L 977.585824 255.120713 
L 977.585824 255.120713 
L 999.953518 403.408967 
L 999.953518 403.408967 
L 1011.706036 404.469286 
L 1011.706036 404.469286 
L 1034.831957 398.834515 
L 1034.831957 398.834515 
L 1046.20536 378.84908 
L 1046.20536 378.84908 
L 1057.957878 421.061039 
L 1057.957878 421.061039 
L 1069.710395 439.138261 
L 1069.710395 439.138261 
L 1081.083799 390.328069 
L 1081.083799 390.328069 
L 1092.836316 425.309356 
L 1104.20972 368.307804 
L 1104.20972 368.307804 
L 1115.962237 395.768051 
L 1115.962237 395.768051 
L 1127.714754 479.618305 
L 1138.329931 458.588266 
L 1138.329931 458.588266 
L 1150.082449 528.510155 
L 1150.082449 528.510155 
L 1161.455852 448.327771 
L 1161.455852 448.327771 
L 1173.20837 534.651013 
L 1173.20837 534.651013 
L 1184.581773 361.360837 
L 1184.581773 361.360837 
L 1196.334291 447.905235 
L 1196.334291 447.905235 
L 1208.086808 435.443144 
L 1208.086808 435.443144 
L 1219.460212 421.496785 
L 1231.212729 444.788584 
L 1242.586133 199.643252 
L 1242.586133 199.643252 
L 1254.33865 442.658098 
L 1266.091167 336.862916 
L 1266.091167 336.862916 
L 1276.706344 382.169766 
L 1276.706344 382.169766 
L 1288.458862 441.552768 
L 1288.458862 441.552768 
L 1299.832265 399.992278 
L 1299.832265 399.992278 
L 1322.958186 409.178191 
L 1334.710704 442.050258 
L 1357.836625 434.266373 
L 1357.836625 434.266373 
" clip-path="url(#pfa2cc7a43b)" style="fill: none; stroke: #c17150; stroke-width: 1.5; stroke-linecap: round"/>
   </g>
   <g id="line2d_22">
    <path d="M 146.569119 333.510899 
L 180.689331 360.78606 
L 180.689331 360.78606 
L 192.062735 440.509976 
L 192.062735 440.509976 
L 203.815252 320.44892 
L 203.815252 320.44892 
L 215.188656 309.799149 
L 215.188656 309.799149 
L 226.941173 391.149303 
L 226.941173 391.149303 
L 238.69369 360.850522 
L 238.69369 360.850522 
L 250.067094 421.366139 
L 250.067094 421.366139 
L 261.819611 348.61106 
L 261.819611 348.61106 
L 273.193015 332.644149 
L 273.193015 332.644149 
L 284.945532 420.20758 
L 284.945532 420.20758 
L 296.69805 126.966742 
L 296.69805 126.966742 
L 307.69234 278.065708 
L 307.69234 278.065708 
L 319.444857 358.979556 
L 319.444857 358.979556 
L 330.818261 404.360065 
L 330.818261 404.360065 
L 342.570778 394.629141 
L 342.570778 394.629141 
L 353.944182 343.76497 
L 353.944182 343.76497 
L 365.696699 378.684721 
L 365.696699 378.684721 
L 377.449217 384.445728 
L 377.449217 384.445728 
L 388.82262 389.247354 
L 388.82262 389.247354 
L 400.575138 378.889014 
L 400.575138 378.889014 
L 411.948542 238.082253 
L 411.948542 238.082253 
L 423.701059 296.760333 
L 423.701059 296.760333 
L 435.453576 352.477667 
L 435.453576 352.477667 
L 446.068753 367.369289 
L 446.068753 367.369289 
L 457.82127 381.282114 
L 457.82127 381.282114 
L 469.194674 404.592033 
L 469.194674 404.592033 
L 480.947191 68.025463 
L 480.947191 68.025463 
L 492.320595 327.07534 
L 492.320595 327.07534 
L 504.073112 136.878331 
L 504.073112 136.878331 
L 515.82563 364.401684 
L 515.82563 364.401684 
L 527.199033 353.237829 
L 527.199033 353.237829 
L 538.951551 392.71676 
L 538.951551 392.71676 
L 550.324954 331.874695 
L 550.324954 331.874695 
L 562.077472 123.208019 
L 562.077472 123.208019 
L 573.829989 435.102588 
L 573.829989 435.102588 
L 584.445166 324.752118 
L 584.445166 324.752118 
L 596.197683 385.312896 
L 596.197683 385.312896 
L 607.571087 237.732416 
L 607.571087 237.732416 
L 619.323604 332.513257 
L 619.323604 332.513257 
L 630.697008 361.880251 
L 630.697008 361.880251 
L 642.449525 437.023775 
L 642.449525 437.023775 
L 654.202043 130.535802 
L 654.202043 130.535802 
L 665.575446 268.828851 
L 665.575446 268.828851 
L 677.327964 440.432688 
L 677.327964 440.432688 
L 688.701367 312.405257 
L 688.701367 312.405257 
L 700.453885 377.939479 
L 700.453885 377.939479 
L 712.206402 291.758225 
L 712.206402 291.758225 
L 722.821579 359.52929 
L 722.821579 359.52929 
L 734.574096 362.529533 
L 734.574096 362.529533 
L 745.9475 383.103017 
L 745.9475 383.103017 
L 757.700017 318.915111 
L 757.700017 318.915111 
L 769.073421 405.435885 
L 769.073421 405.435885 
L 780.825938 382.740273 
L 780.825938 382.740273 
L 792.578456 361.256551 
L 792.578456 361.256551 
L 803.951859 442.071264 
L 803.951859 442.071264 
L 815.704377 330.025316 
L 815.704377 330.025316 
L 827.07778 405.102207 
L 827.07778 405.102207 
L 838.830298 445.365991 
L 838.830298 445.365991 
L 850.582815 437.39477 
L 861.577105 402.341953 
L 861.577105 402.341953 
L 873.329623 422.873208 
L 873.329623 422.873208 
L 884.703026 401.527353 
L 884.703026 401.527353 
L 907.828947 418.678034 
L 919.581465 447.742121 
L 919.581465 447.742121 
L 931.333982 360.155583 
L 931.333982 360.155583 
L 942.707386 405.288566 
L 942.707386 405.288566 
L 954.459903 380.312809 
L 954.459903 380.312809 
L 965.833307 410.420412 
L 965.833307 410.420412 
L 977.585824 271.173028 
L 977.585824 271.173028 
L 989.338341 331.79369 
L 989.338341 331.79369 
L 999.953518 409.417944 
L 999.953518 409.417944 
L 1011.706036 393.410359 
L 1011.706036 393.410359 
L 1034.831957 375.253847 
L 1034.831957 375.253847 
L 1046.20536 368.023283 
L 1046.20536 368.023283 
L 1057.957878 417.767131 
L 1057.957878 417.767131 
L 1069.710395 453.336464 
L 1069.710395 453.336464 
L 1081.083799 369.03406 
L 1081.083799 369.03406 
L 1092.836316 421.825376 
L 1104.20972 361.02453 
L 1104.20972 361.02453 
L 1115.962237 392.009376 
L 1115.962237 392.009376 
L 1127.714754 491.096393 
L 1127.714754 491.096393 
L 1138.329931 446.019468 
L 1138.329931 446.019468 
L 1150.082449 520.757595 
L 1150.082449 520.757595 
L 1161.455852 442.397462 
L 1161.455852 442.397462 
L 1173.20837 521.69069 
L 1173.20837 521.69069 
L 1184.581773 375.954789 
L 1184.581773 375.954789 
L 1196.334291 438.541319 
L 1196.334291 438.541319 
L 1208.086808 430.972644 
L 1208.086808 430.972644 
L 1219.460212 421.112196 
L 1231.212729 445.551877 
L 1242.586133 182.815641 
L 1242.586133 182.815641 
L 1254.33865 443.088824 
L 1266.091167 329.130172 
L 1266.091167 329.130172 
L 1276.706344 362.908042 
L 1276.706344 362.908042 
L 1288.458862 444.009662 
L 1288.458862 444.009662 
L 1299.832265 384.422242 
L 1299.832265 384.422242 
L 1322.958186 410.938744 
L 1334.710704 442.926467 
L 1357.836625 433.505636 
L 1357.836625 433.505636 
" clip-path="url(#pfa2cc7a43b)" style="fill: none; stroke: #c8f0e6; stroke-width: 1.5; stroke-linecap: round"/>
   </g>
   <g id="patch_3">
    <path d="M 86.005744 568.267679 
L 86.005744 44.204405 
" style="fill: none; stroke: #808080; stroke-width: 0.8; stroke-linejoin: miter; stroke-linecap: square"/>
   </g>
   <g id="patch_4">
    <path d="M 86.005744 568.267679 
L 1418.4 568.267679 
" style="fill: none; stroke: #808080; stroke-width: 0.8; stroke-linejoin: miter; stroke-linecap: square"/>
   </g>
   <g id="text_20">
    <!-- Out of Sample -->
    <g style="fill: #262626" transform="translate(682.487156 38.204405) scale(0.24 -0.24)">
     <defs>
      <path id="CMR17-4f" d="M 4307 2135 
C 4307 3437 3366 4416 2304 4416 
C 1216 4416 294 3424 294 2135 
C 294 845 1229 -128 2298 -128 
C 3392 -128 4307 864 4307 2135 
z
M 2304 -13 
C 1574 -13 781 711 781 2217 
C 781 3716 1651 4301 2298 4301 
C 2976 4301 3821 3698 3821 2217 
C 3821 686 3008 -13 2304 -13 
z
" transform="scale(0.015625)"/>
      <path id="CMR17-66" d="M 979 2560 
L 1709 2560 
L 1709 2725 
L 966 2725 
L 966 3494 
C 966 4022 1235 4352 1510 4352 
C 1594 4352 1690 4327 1754 4282 
C 1702 4269 1568 4225 1568 4067 
C 1568 3901 1696 3850 1786 3850 
C 1875 3850 2003 3901 2003 4067 
C 2003 4308 1773 4454 1517 4454 
C 1152 4454 653 4156 653 3481 
L 653 2725 
L 141 2725 
L 141 2560 
L 653 2560 
L 653 427 
C 653 184 627 153 218 153 
L 218 -13 
C 371 0 666 0 832 0 
C 1018 0 1344 0 1517 -13 
L 1517 153 
C 1056 153 979 153 979 439 
L 979 2560 
z
" transform="scale(0.015625)"/>
      <path id="CMR17-53" d="M 2803 4290 
C 2803 4404 2797 4411 2758 4411 
C 2720 4411 2707 4385 2682 4328 
L 2490 3907 
C 2246 4257 1875 4416 1472 4416 
C 819 4416 294 3901 294 3253 
C 294 3056 339 2776 557 2510 
C 794 2218 1018 2167 1530 2033 
C 1722 1982 2042 1899 2106 1874 
C 2470 1722 2662 1341 2662 985 
C 2662 527 2336 38 1779 38 
C 1094 38 454 419 410 1311 
C 403 1413 397 1419 352 1419 
C 301 1419 294 1413 294 1285 
L 294 -1 
C 294 -115 301 -122 339 -122 
C 384 -122 397 -90 486 108 
C 493 127 493 140 614 381 
C 934 -39 1472 -128 1779 -128 
C 2477 -128 2970 451 2970 1124 
C 2970 1454 2848 1708 2778 1823 
C 2509 2230 2221 2306 1914 2382 
C 1869 2402 1856 2402 1498 2490 
C 1152 2579 1005 2624 845 2796 
C 666 2992 602 3196 602 3399 
C 602 3812 934 4263 1478 4263 
C 2157 4263 2579 3786 2675 2993 
C 2694 2878 2701 2872 2746 2872 
C 2803 2872 2803 2891 2803 2999 
L 2803 4290 
z
" transform="scale(0.015625)"/>
      <path id="CMR17-6d" d="M 4326 1933 
C 4326 2252 4269 2790 3507 2790 
C 3072 2790 2771 2496 2656 2151 
L 2650 2151 
C 2573 2676 2195 2790 1837 2790 
C 1331 2790 1069 2400 973 2144 
L 966 2144 
L 966 2790 
L 211 2720 
L 211 2554 
C 589 2554 646 2515 646 2208 
L 646 428 
C 646 184 621 153 211 153 
L 211 -13 
C 365 0 646 0 813 0 
C 979 0 1267 0 1421 -13 
L 1421 153 
C 1011 153 986 178 986 428 
L 986 1658 
C 986 2247 1344 2688 1792 2688 
C 2266 2688 2317 2266 2317 1958 
L 2317 428 
C 2317 184 2291 153 1882 153 
L 1882 -13 
C 2035 0 2317 0 2483 0 
C 2650 0 2938 0 3091 -13 
L 3091 153 
C 2682 153 2656 178 2656 428 
L 2656 1658 
C 2656 2247 3014 2688 3462 2688 
C 3936 2688 3987 2266 3987 1958 
L 3987 428 
C 3987 184 3962 153 3552 153 
L 3552 -13 
C 3706 0 3987 0 4154 0 
C 4320 0 4608 0 4762 -13 
L 4762 153 
C 4352 153 4326 178 4326 428 
L 4326 1933 
z
" transform="scale(0.015625)"/>
      <path id="CMR17-70" d="M 1408 -1063 
C 998 -1063 973 -1037 973 -789 
L 973 402 
C 1158 134 1427 -38 1766 -38 
C 2406 -38 3053 523 3053 1388 
C 3053 2191 2496 2802 1837 2802 
C 1453 2802 1139 2592 960 2338 
L 960 2802 
L 198 2732 
L 198 2567 
C 576 2567 634 2528 634 2223 
L 634 -789 
C 634 -1031 608 -1063 198 -1063 
L 198 -1228 
C 352 -1216 634 -1216 800 -1216 
C 966 -1216 1254 -1216 1408 -1228 
L 1408 -1063 
z
M 973 2012 
C 973 2102 973 2235 1222 2471 
C 1254 2497 1472 2688 1792 2688 
C 2259 2688 2643 2108 2643 1382 
C 2643 656 2234 64 1728 64 
C 1498 64 1248 172 1056 472 
C 973 612 973 650 973 752 
L 973 2012 
z
" transform="scale(0.015625)"/>
     </defs>
     <use xlink:href="#CMR17-4f" transform="scale(0.996264)"/>
     <use xlink:href="#CMR17-75" transform="translate(71.714788 0) scale(0.996264)"/>
     <use xlink:href="#CMR17-74" transform="translate(122.610158 0) scale(0.996264)"/>
     <use xlink:href="#CMR17-6f" transform="translate(187.966892 0) scale(0.996264)"/>
     <use xlink:href="#CMR17-66" transform="translate(233.657369 0) scale(0.996264)"/>
     <use xlink:href="#CMR17-53" transform="translate(291.206848 0) scale(0.996264)"/>
     <use xlink:href="#CMR17-61" transform="translate(342.102218 0) scale(0.996264)"/>
     <use xlink:href="#CMR17-6d" transform="translate(387.792695 0) scale(0.996264)"/>
     <use xlink:href="#CMR17-70" transform="translate(464.712285 0) scale(0.996264)"/>
     <use xlink:href="#CMR17-6c" transform="translate(515.607655 0) scale(0.996264)"/>
     <use xlink:href="#CMR17-65" transform="translate(540.478713 0) scale(0.996264)"/>
    </g>
   </g>
   <g id="legend_1">
    <g id="patch_5">
     <path d="M 233.574064 695.366327 
L 1270.83168 695.366327 
Q 1274.83168 695.366327 1274.83168 691.366327 
L 1274.83168 634.674006 
Q 1274.83168 630.674006 1270.83168 630.674006 
L 233.574064 630.674006 
Q 229.574064 630.674006 229.574064 634.674006 
L 229.574064 691.366327 
Q 229.574064 695.366327 233.574064 695.366327 
z
" style="fill: #ffffff; opacity: 0.8"/>
    </g>
    <g id="line2d_23">
     <path d="M 237.574064 646.600028 
L 257.574064 646.600028 
L 277.574064 646.600028 
" style="fill: none; stroke: #006e64; stroke-width: 1.5; stroke-linecap: round"/>
    </g>
    <g id="text_21">
     <!-- Actual -->
     <g style="fill: #262626" transform="translate(293.574064 653.600028) scale(0.2 -0.2)">
      <defs>
       <path id="CMR17-41" d="M 2323 4378 
C 2291 4461 2278 4480 2214 4480 
C 2150 4480 2138 4461 2106 4378 
L 749 566 
C 627 223 371 153 147 153 
L 147 -13 
C 262 0 518 0 640 0 
C 800 0 1056 0 1210 -13 
L 1210 153 
C 909 153 864 361 864 439 
C 864 497 877 530 890 569 
L 1229 1536 
L 2906 1536 
L 3290 442 
C 3322 365 3322 352 3322 327 
C 3322 153 3046 153 2925 153 
L 2925 0 
C 3110 0 3443 0 3642 0 
C 3808 0 4128 0 4282 -13 
L 4282 153 
C 3942 153 3827 153 3744 387 
L 2323 4378 
z
M 2067 3893 
L 2848 1702 
L 1286 1702 
L 2067 3893 
z
" transform="scale(0.015625)"/>
       <path id="CMR17-63" d="M 2234 2240 
C 2112 2240 1933 2240 1933 2017 
C 1933 1838 2080 1787 2163 1787 
C 2208 1787 2394 1807 2394 2024 
C 2394 2467 1958 2803 1466 2803 
C 787 2803 211 2178 211 1363 
C 211 516 813 -64 1466 -64 
C 2259 -64 2458 677 2458 748 
C 2458 774 2451 793 2406 793 
C 2362 793 2355 787 2330 703 
C 2163 180 1798 51 1523 51 
C 1114 51 621 427 621 1369 
C 621 2338 1094 2688 1472 2688 
C 1722 2688 2093 2573 2234 2240 
z
" transform="scale(0.015625)"/>
      </defs>
      <use xlink:href="#CMR17-41" transform="scale(0.996264)"/>
      <use xlink:href="#CMR17-63" transform="translate(69.07243 0) scale(0.996264)"/>
      <use xlink:href="#CMR17-74" transform="translate(109.55809 0) scale(0.996264)"/>
      <use xlink:href="#CMR17-75" transform="translate(144.838858 0) scale(0.996264)"/>
      <use xlink:href="#CMR17-61" transform="translate(195.734228 0) scale(0.996264)"/>
      <use xlink:href="#CMR17-6c" transform="translate(241.424705 0) scale(0.996264)"/>
     </g>
    </g>
    <g id="line2d_24">
     <path d="M 237.574064 675.401684 
L 257.574064 675.401684 
L 277.574064 675.401684 
" style="fill: none; stroke: #734848; stroke-width: 1.5; stroke-linecap: round"/>
    </g>
    <g id="text_22">
     <!-- Predicted (2 clusters) -->
     <g style="fill: #262626" transform="translate(293.574064 682.401684) scale(0.2 -0.2)">
      <defs>
       <path id="CMR17-50" d="M 1267 2042 
L 2291 2042 
C 3117 2042 3718 2578 3718 3184 
C 3718 3791 3130 4352 2291 4352 
L 333 4352 
L 333 4186 
C 774 4186 845 4186 845 3899 
L 845 446 
C 845 160 774 160 333 160 
L 333 0 
C 518 0 858 0 1056 0 
C 1254 0 1594 0 1779 0 
L 1779 160 
C 1338 160 1267 160 1267 446 
L 1267 2042 
z
M 1254 2176 
L 1254 3938 
C 1254 4155 1267 4186 1523 4186 
L 2170 4186 
C 2995 4186 3232 3714 3232 3184 
C 3232 2604 2950 2176 2170 2176 
L 1254 2176 
z
" transform="scale(0.015625)"/>
       <path id="CMR17-64" d="M 1869 4326 
L 1869 4160 
C 2246 4160 2304 4122 2304 3820 
L 2304 2345 
C 2278 2377 2016 2790 1498 2790 
C 845 2790 211 2208 211 1364 
C 211 525 806 -64 1434 -64 
C 1978 -64 2259 337 2291 380 
L 2291 -63 
L 3066 -63 
L 3066 128 
C 2688 128 2630 166 2630 473 
L 2630 4396 
L 1869 4326 
z
M 2291 755 
C 2291 563 2176 390 2029 262 
C 1811 70 1594 38 1472 38 
C 1286 38 621 134 621 1356 
C 621 2612 1363 2688 1530 2688 
C 1824 2688 2061 2522 2208 2291 
C 2291 2157 2291 2138 2291 2023 
L 2291 755 
z
" transform="scale(0.015625)"/>
       <path id="CMR17-28" d="M 1958 -1561 
C 1958 -1555 1958 -1542 1939 -1523 
C 1645 -1224 858 -407 858 1581 
C 858 3569 1632 4379 1946 4697 
C 1946 4704 1958 4717 1958 4736 
C 1958 4755 1939 4768 1914 4768 
C 1843 4768 1299 4296 986 3594 
C 666 2887 576 2199 576 1588 
C 576 1128 621 351 1005 -471 
C 1312 -1135 1837 -1600 1914 -1600 
C 1946 -1600 1958 -1587 1958 -1561 
z
" transform="scale(0.015625)"/>
       <path id="CMR17-73" d="M 1978 2697 
C 1978 2813 1971 2819 1933 2819 
C 1907 2819 1901 2813 1824 2717 
C 1805 2691 1747 2626 1728 2601 
C 1523 2819 1235 2819 1126 2819 
C 416 2819 160 2447 160 2076 
C 160 1498 813 1365 998 1325 
C 1402 1243 1542 1217 1677 1101 
C 1760 1025 1901 884 1901 654 
C 1901 384 1747 38 1158 38 
C 602 38 403 460 288 1021 
C 269 1110 269 1117 218 1117 
C 166 1117 160 1110 160 983 
L 160 63 
C 160 -51 166 -58 205 -58 
C 237 -58 243 -51 275 0 
C 314 57 410 211 448 276 
C 576 103 800 -64 1158 -64 
C 1792 -64 2131 283 2131 784 
C 2131 1112 1958 1285 1875 1362 
C 1683 1561 1459 1606 1190 1657 
C 838 1735 390 1825 390 2217 
C 390 2383 480 2737 1126 2737 
C 1811 2737 1850 2094 1862 1888 
C 1869 1856 1901 1849 1920 1849 
C 1978 1849 1978 1869 1978 1978 
L 1978 2697 
z
" transform="scale(0.015625)"/>
       <path id="CMR17-29" d="M 1683 1581 
C 1683 2040 1638 2817 1254 3639 
C 947 4303 422 4768 346 4768 
C 326 4768 301 4761 301 4729 
C 301 4717 307 4710 314 4697 
C 621 4378 1402 3568 1402 1584 
C 1402 -407 627 -1217 314 -1537 
C 307 -1549 301 -1556 301 -1568 
C 301 -1600 326 -1600 346 -1600 
C 416 -1600 960 -1128 1274 -426 
C 1594 281 1683 969 1683 1581 
z
" transform="scale(0.015625)"/>
      </defs>
      <use xlink:href="#CMR17-50" transform="scale(0.996264)"/>
      <use xlink:href="#CMR17-72" transform="translate(62.586301 0) scale(0.996264)"/>
      <use xlink:href="#CMR17-65" transform="translate(97.867068 0) scale(0.996264)"/>
      <use xlink:href="#CMR17-64" transform="translate(138.352729 0) scale(0.996264)"/>
      <use xlink:href="#CMR17-69" transform="translate(189.248099 0) scale(0.996264)"/>
      <use xlink:href="#CMR17-63" transform="translate(214.119157 0) scale(0.996264)"/>
      <use xlink:href="#CMR17-74" transform="translate(254.604818 0) scale(0.996264)"/>
      <use xlink:href="#CMR17-65" transform="translate(289.885585 0) scale(0.996264)"/>
      <use xlink:href="#CMR17-64" transform="translate(330.371246 0) scale(0.996264)"/>
      <use xlink:href="#CMR17-28" transform="translate(411.342582 0) scale(0.996264)"/>
      <use xlink:href="#CMR17-32" transform="translate(446.62335 0) scale(0.996264)"/>
      <use xlink:href="#CMR17-63" transform="translate(522.389793 0) scale(0.996264)"/>
      <use xlink:href="#CMR17-6c" transform="translate(562.875454 0) scale(0.996264)"/>
      <use xlink:href="#CMR17-75" transform="translate(587.746512 0) scale(0.996264)"/>
      <use xlink:href="#CMR17-73" transform="translate(638.641882 0) scale(0.996264)"/>
      <use xlink:href="#CMR17-74" transform="translate(674.44322 0) scale(0.996264)"/>
      <use xlink:href="#CMR17-65" transform="translate(709.723987 0) scale(0.996264)"/>
      <use xlink:href="#CMR17-72" transform="translate(750.209648 0) scale(0.996264)"/>
      <use xlink:href="#CMR17-73" transform="translate(785.490416 0) scale(0.996264)"/>
      <use xlink:href="#CMR17-29" transform="translate(821.291753 0) scale(0.996264)"/>
     </g>
    </g>
    <g id="line2d_25">
     <path d="M 504.888468 646.600028 
L 524.888468 646.600028 
L 544.888468 646.600028 
" style="fill: none; stroke: #004e4a; stroke-width: 1.5; stroke-linecap: round"/>
    </g>
    <g id="text_23">
     <!-- Predicted (3 clusters) -->
     <g style="fill: #262626" transform="translate(560.888468 653.600028) scale(0.2 -0.2)">
      <use xlink:href="#CMR17-50" transform="scale(0.996264)"/>
      <use xlink:href="#CMR17-72" transform="translate(62.586301 0) scale(0.996264)"/>
      <use xlink:href="#CMR17-65" transform="translate(97.867068 0) scale(0.996264)"/>
      <use xlink:href="#CMR17-64" transform="translate(138.352729 0) scale(0.996264)"/>
      <use xlink:href="#CMR17-69" transform="translate(189.248099 0) scale(0.996264)"/>
      <use xlink:href="#CMR17-63" transform="translate(214.119157 0) scale(0.996264)"/>
      <use xlink:href="#CMR17-74" transform="translate(254.604818 0) scale(0.996264)"/>
      <use xlink:href="#CMR17-65" transform="translate(289.885585 0) scale(0.996264)"/>
      <use xlink:href="#CMR17-64" transform="translate(330.371246 0) scale(0.996264)"/>
      <use xlink:href="#CMR17-28" transform="translate(411.342582 0) scale(0.996264)"/>
      <use xlink:href="#CMR17-33" transform="translate(446.62335 0) scale(0.996264)"/>
      <use xlink:href="#CMR17-63" transform="translate(522.389793 0) scale(0.996264)"/>
      <use xlink:href="#CMR17-6c" transform="translate(562.875454 0) scale(0.996264)"/>
      <use xlink:href="#CMR17-75" transform="translate(587.746512 0) scale(0.996264)"/>
      <use xlink:href="#CMR17-73" transform="translate(638.641882 0) scale(0.996264)"/>
      <use xlink:href="#CMR17-74" transform="translate(674.44322 0) scale(0.996264)"/>
      <use xlink:href="#CMR17-65" transform="translate(709.723987 0) scale(0.996264)"/>
      <use xlink:href="#CMR17-72" transform="translate(750.209648 0) scale(0.996264)"/>
      <use xlink:href="#CMR17-73" transform="translate(785.490416 0) scale(0.996264)"/>
      <use xlink:href="#CMR17-29" transform="translate(821.291753 0) scale(0.996264)"/>
     </g>
    </g>
    <g id="line2d_26">
     <path d="M 772.202872 646.600028 
L 792.202872 646.600028 
L 812.202872 646.600028 
" style="fill: none; stroke: #c17150; stroke-width: 1.5; stroke-linecap: round"/>
    </g>
    <g id="text_24">
     <!-- Predicted (4 clusters) -->
     <g style="fill: #262626" transform="translate(828.202872 653.600028) scale(0.2 -0.2)">
      <use xlink:href="#CMR17-50" transform="scale(0.996264)"/>
      <use xlink:href="#CMR17-72" transform="translate(62.586301 0) scale(0.996264)"/>
      <use xlink:href="#CMR17-65" transform="translate(97.867068 0) scale(0.996264)"/>
      <use xlink:href="#CMR17-64" transform="translate(138.352729 0) scale(0.996264)"/>
      <use xlink:href="#CMR17-69" transform="translate(189.248099 0) scale(0.996264)"/>
      <use xlink:href="#CMR17-63" transform="translate(214.119157 0) scale(0.996264)"/>
      <use xlink:href="#CMR17-74" transform="translate(254.604818 0) scale(0.996264)"/>
      <use xlink:href="#CMR17-65" transform="translate(289.885585 0) scale(0.996264)"/>
      <use xlink:href="#CMR17-64" transform="translate(330.371246 0) scale(0.996264)"/>
      <use xlink:href="#CMR17-28" transform="translate(411.342582 0) scale(0.996264)"/>
      <use xlink:href="#CMR17-34" transform="translate(446.62335 0) scale(0.996264)"/>
      <use xlink:href="#CMR17-63" transform="translate(522.389793 0) scale(0.996264)"/>
      <use xlink:href="#CMR17-6c" transform="translate(562.875454 0) scale(0.996264)"/>
      <use xlink:href="#CMR17-75" transform="translate(587.746512 0) scale(0.996264)"/>
      <use xlink:href="#CMR17-73" transform="translate(638.641882 0) scale(0.996264)"/>
      <use xlink:href="#CMR17-74" transform="translate(674.44322 0) scale(0.996264)"/>
      <use xlink:href="#CMR17-65" transform="translate(709.723987 0) scale(0.996264)"/>
      <use xlink:href="#CMR17-72" transform="translate(750.209648 0) scale(0.996264)"/>
      <use xlink:href="#CMR17-73" transform="translate(785.490416 0) scale(0.996264)"/>
      <use xlink:href="#CMR17-29" transform="translate(821.291753 0) scale(0.996264)"/>
     </g>
    </g>
    <g id="line2d_27">
     <path d="M 1039.517276 646.600028 
L 1059.517276 646.600028 
L 1079.517276 646.600028 
" style="fill: none; stroke: #c8f0e6; stroke-width: 1.5; stroke-linecap: round"/>
    </g>
    <g id="text_25">
     <!-- Predicted (5 clusters) -->
     <g style="fill: #262626" transform="translate(1095.517276 653.600028) scale(0.2 -0.2)">
      <use xlink:href="#CMR17-50" transform="scale(0.996264)"/>
      <use xlink:href="#CMR17-72" transform="translate(62.586301 0) scale(0.996264)"/>
      <use xlink:href="#CMR17-65" transform="translate(97.867068 0) scale(0.996264)"/>
      <use xlink:href="#CMR17-64" transform="translate(138.352729 0) scale(0.996264)"/>
      <use xlink:href="#CMR17-69" transform="translate(189.248099 0) scale(0.996264)"/>
      <use xlink:href="#CMR17-63" transform="translate(214.119157 0) scale(0.996264)"/>
      <use xlink:href="#CMR17-74" transform="translate(254.604818 0) scale(0.996264)"/>
      <use xlink:href="#CMR17-65" transform="translate(289.885585 0) scale(0.996264)"/>
      <use xlink:href="#CMR17-64" transform="translate(330.371246 0) scale(0.996264)"/>
      <use xlink:href="#CMR17-28" transform="translate(411.342582 0) scale(0.996264)"/>
      <use xlink:href="#CMR17-35" transform="translate(446.62335 0) scale(0.996264)"/>
      <use xlink:href="#CMR17-63" transform="translate(522.389793 0) scale(0.996264)"/>
      <use xlink:href="#CMR17-6c" transform="translate(562.875454 0) scale(0.996264)"/>
      <use xlink:href="#CMR17-75" transform="translate(587.746512 0) scale(0.996264)"/>
      <use xlink:href="#CMR17-73" transform="translate(638.641882 0) scale(0.996264)"/>
      <use xlink:href="#CMR17-74" transform="translate(674.44322 0) scale(0.996264)"/>
      <use xlink:href="#CMR17-65" transform="translate(709.723987 0) scale(0.996264)"/>
      <use xlink:href="#CMR17-72" transform="translate(750.209648 0) scale(0.996264)"/>
      <use xlink:href="#CMR17-73" transform="translate(785.490416 0) scale(0.996264)"/>
      <use xlink:href="#CMR17-29" transform="translate(821.291753 0) scale(0.996264)"/>
     </g>
    </g>
   </g>
  </g>
 </g>
 <defs>
  <clipPath id="pfa2cc7a43b">
   <rect x="86.005744" y="44.204405" width="1332.394256" height="524.063273"/>
  </clipPath>
 </defs>
</svg>
