<?xml version="1.0" encoding="utf-8" standalone="no"?>
<!DOCTYPE svg PUBLIC "-//W3C//DTD SVG 1.1//EN"
  "http://www.w3.org/Graphics/SVG/1.1/DTD/svg11.dtd">
<svg xmlns:xlink="http://www.w3.org/1999/xlink" width="1440pt" height="720pt" viewBox="0 0 1440 720" xmlns="http://www.w3.org/2000/svg" version="1.1">
 <metadata>
  <rdf:RDF xmlns:dc="http://purl.org/dc/elements/1.1/" xmlns:cc="http://creativecommons.org/ns#" xmlns:rdf="http://www.w3.org/1999/02/22-rdf-syntax-ns#">
   <cc:Work>
    <dc:type rdf:resource="http://purl.org/dc/dcmitype/StillImage"/>
    <dc:date>2023-10-23T20:03:38.613021</dc:date>
    <dc:format>image/svg+xml</dc:format>
    <dc:creator>
     <cc:Agent>
      <dc:title>Matplotlib v3.6.3, https://matplotlib.org/</dc:title>
     </cc:Agent>
    </dc:creator>
   </cc:Work>
  </rdf:RDF>
 </metadata>
 <defs>
  <style type="text/css">*{stroke-linejoin: round; stroke-linecap: butt}</style>
 </defs>
 <g id="figure_1">
  <g id="patch_1">
   <path d="M 0 720 
L 1440 720 
L 1440 0 
L 0 0 
z
" style="fill: #ffffff"/>
  </g>
  <g id="axes_1">
   <g id="patch_2">
    <path d="M 32.085996 618.912296 
L 1436.99976 618.912296 
L 1436.99976 17.30242 
L 32.085996 17.30242 
z
" style="fill: #ffffff"/>
   </g>
   <g id="matplotlib.axis_1">
    <g id="xtick_1">
     <g id="line2d_1">
      <path d="M 128.386871 618.912296 
L 128.386871 17.30242 
" clip-path="url(#p9f30fb1a30)" style="fill: none; stroke: #cccccc; stroke-opacity: 0.5; stroke-width: 0.8; stroke-linecap: round"/>
     </g>
     <g id="text_1">
      <!-- $\mathdefault{2014}$ -->
      <g transform="translate(118.424201 629.330794) scale(0.1 -0.1)">
       <defs>
        <path id="CMR17-32" d="M 2669 989 
L 2554 989 
C 2490 536 2438 459 2413 420 
C 2381 369 1920 369 1830 369 
L 602 369 
C 832 619 1280 1072 1824 1597 
C 2214 1967 2669 2402 2669 3035 
C 2669 3790 2067 4224 1395 4224 
C 691 4224 262 3604 262 3030 
C 262 2780 448 2748 525 2748 
C 589 2748 781 2787 781 3010 
C 781 3207 614 3264 525 3264 
C 486 3264 448 3258 422 3245 
C 544 3790 915 4058 1306 4058 
C 1862 4058 2227 3617 2227 3035 
C 2227 2479 1901 2000 1536 1584 
L 262 146 
L 262 0 
L 2515 0 
L 2669 989 
z
" transform="scale(0.015625)"/>
        <path id="CMR17-30" d="M 2688 2025 
C 2688 2416 2682 3080 2413 3591 
C 2176 4039 1798 4198 1466 4198 
C 1158 4198 768 4058 525 3597 
C 269 3118 243 2524 243 2025 
C 243 1661 250 1106 448 619 
C 723 -39 1216 -128 1466 -128 
C 1760 -128 2208 -7 2470 600 
C 2662 1042 2688 1559 2688 2025 
z
M 1466 -26 
C 1056 -26 813 325 723 812 
C 653 1188 653 1738 653 2096 
C 653 2588 653 2997 736 3387 
C 858 3929 1216 4096 1466 4096 
C 1728 4096 2067 3923 2189 3400 
C 2272 3036 2278 2607 2278 2096 
C 2278 1680 2278 1169 2202 792 
C 2067 95 1690 -26 1466 -26 
z
" transform="scale(0.015625)"/>
        <path id="CMR17-31" d="M 1702 4058 
C 1702 4192 1696 4192 1606 4192 
C 1357 3916 979 3827 621 3827 
C 602 3827 570 3827 563 3808 
C 557 3795 557 3782 557 3648 
C 755 3648 1088 3686 1344 3839 
L 1344 461 
C 1344 236 1331 160 781 160 
L 589 160 
L 589 0 
C 896 0 1216 0 1523 0 
C 1830 0 2150 0 2458 0 
L 2458 160 
L 2266 160 
C 1715 160 1702 230 1702 458 
L 1702 4058 
z
" transform="scale(0.015625)"/>
        <path id="CMR17-34" d="M 2150 4122 
C 2150 4256 2144 4256 2029 4256 
L 128 1254 
L 128 1088 
L 1779 1088 
L 1779 457 
C 1779 224 1766 160 1318 160 
L 1197 160 
L 1197 0 
C 1402 0 1747 0 1965 0 
C 2182 0 2528 0 2733 0 
L 2733 160 
L 2611 160 
C 2163 160 2150 224 2150 457 
L 2150 1088 
L 2803 1088 
L 2803 1254 
L 2150 1254 
L 2150 4122 
z
M 1798 3703 
L 1798 1254 
L 256 1254 
L 1798 3703 
z
" transform="scale(0.015625)"/>
       </defs>
       <use xlink:href="#CMR17-32" transform="scale(0.996264)"/>
       <use xlink:href="#CMR17-30" transform="translate(45.690477 0) scale(0.996264)"/>
       <use xlink:href="#CMR17-31" transform="translate(91.380954 0) scale(0.996264)"/>
       <use xlink:href="#CMR17-34" transform="translate(137.071431 0) scale(0.996264)"/>
      </g>
     </g>
    </g>
    <g id="xtick_2">
     <g id="line2d_2">
      <path d="M 257.093644 618.912296 
L 257.093644 17.30242 
" clip-path="url(#p9f30fb1a30)" style="fill: none; stroke: #cccccc; stroke-opacity: 0.5; stroke-width: 0.8; stroke-linecap: round"/>
     </g>
     <g id="text_2">
      <!-- $\mathdefault{2015}$ -->
      <g transform="translate(247.130974 629.330794) scale(0.1 -0.1)">
       <defs>
        <path id="CMR17-35" d="M 730 3692 
C 794 3666 1056 3584 1325 3584 
C 1920 3584 2246 3911 2432 4100 
C 2432 4157 2432 4192 2394 4192 
C 2387 4192 2374 4192 2323 4163 
C 2099 4058 1837 3973 1517 3973 
C 1325 3973 1037 3999 723 4139 
C 653 4171 640 4171 634 4171 
C 602 4171 595 4164 595 4037 
L 595 2203 
C 595 2089 595 2057 659 2057 
C 691 2057 704 2070 736 2114 
C 941 2401 1222 2522 1542 2522 
C 1766 2522 2246 2382 2246 1289 
C 2246 1085 2246 715 2054 421 
C 1894 159 1645 25 1370 25 
C 947 25 518 320 403 814 
C 429 807 480 795 506 795 
C 589 795 749 840 749 1038 
C 749 1210 627 1280 506 1280 
C 358 1280 262 1190 262 1011 
C 262 454 704 -128 1382 -128 
C 2042 -128 2669 440 2669 1264 
C 2669 2030 2170 2624 1549 2624 
C 1222 2624 947 2503 730 2274 
L 730 3692 
z
" transform="scale(0.015625)"/>
       </defs>
       <use xlink:href="#CMR17-32" transform="scale(0.996264)"/>
       <use xlink:href="#CMR17-30" transform="translate(45.690477 0) scale(0.996264)"/>
       <use xlink:href="#CMR17-31" transform="translate(91.380954 0) scale(0.996264)"/>
       <use xlink:href="#CMR17-35" transform="translate(137.071431 0) scale(0.996264)"/>
      </g>
     </g>
    </g>
    <g id="xtick_3">
     <g id="line2d_3">
      <path d="M 385.800417 618.912296 
L 385.800417 17.30242 
" clip-path="url(#p9f30fb1a30)" style="fill: none; stroke: #cccccc; stroke-opacity: 0.5; stroke-width: 0.8; stroke-linecap: round"/>
     </g>
     <g id="text_3">
      <!-- $\mathdefault{2016}$ -->
      <g transform="translate(375.837746 629.330794) scale(0.1 -0.1)">
       <defs>
        <path id="CMR17-36" d="M 678 2176 
C 678 3690 1395 4032 1811 4032 
C 1946 4032 2272 4009 2400 3776 
C 2298 3776 2106 3776 2106 3553 
C 2106 3381 2246 3323 2336 3323 
C 2394 3323 2566 3348 2566 3560 
C 2566 3954 2246 4179 1805 4179 
C 1043 4179 243 3390 243 1984 
C 243 253 966 -128 1478 -128 
C 2099 -128 2688 427 2688 1283 
C 2688 2081 2170 2662 1517 2662 
C 1126 2662 838 2407 678 1960 
L 678 2176 
z
M 1478 25 
C 691 25 691 1200 691 1436 
C 691 1896 909 2560 1504 2560 
C 1613 2560 1926 2560 2138 2120 
C 2253 1870 2253 1609 2253 1289 
C 2253 944 2253 690 2118 434 
C 1978 171 1773 25 1478 25 
z
" transform="scale(0.015625)"/>
       </defs>
       <use xlink:href="#CMR17-32" transform="scale(0.996264)"/>
       <use xlink:href="#CMR17-30" transform="translate(45.690477 0) scale(0.996264)"/>
       <use xlink:href="#CMR17-31" transform="translate(91.380954 0) scale(0.996264)"/>
       <use xlink:href="#CMR17-36" transform="translate(137.071431 0) scale(0.996264)"/>
      </g>
     </g>
    </g>
    <g id="xtick_4">
     <g id="line2d_4">
      <path d="M 514.859811 618.912296 
L 514.859811 17.30242 
" clip-path="url(#p9f30fb1a30)" style="fill: none; stroke: #cccccc; stroke-opacity: 0.5; stroke-width: 0.8; stroke-linecap: round"/>
     </g>
     <g id="text_4">
      <!-- $\mathdefault{2017}$ -->
      <g transform="translate(504.89714 629.330794) scale(0.1 -0.1)">
       <defs>
        <path id="CMR17-37" d="M 2886 3941 
L 2886 4081 
L 1382 4081 
C 634 4081 621 4165 595 4288 
L 480 4288 
L 294 3094 
L 410 3094 
C 429 3215 474 3540 550 3661 
C 589 3712 1062 3712 1171 3712 
L 2579 3712 
L 1869 2661 
C 1395 1954 1069 999 1069 165 
C 1069 89 1069 -128 1299 -128 
C 1530 -128 1530 89 1530 171 
L 1530 465 
C 1530 1508 1709 2196 2003 2636 
L 2886 3941 
z
" transform="scale(0.015625)"/>
       </defs>
       <use xlink:href="#CMR17-32" transform="scale(0.996264)"/>
       <use xlink:href="#CMR17-30" transform="translate(45.690477 0) scale(0.996264)"/>
       <use xlink:href="#CMR17-31" transform="translate(91.380954 0) scale(0.996264)"/>
       <use xlink:href="#CMR17-37" transform="translate(137.071431 0) scale(0.996264)"/>
      </g>
     </g>
    </g>
    <g id="xtick_5">
     <g id="line2d_5">
      <path d="M 643.566584 618.912296 
L 643.566584 17.30242 
" clip-path="url(#p9f30fb1a30)" style="fill: none; stroke: #cccccc; stroke-opacity: 0.5; stroke-width: 0.8; stroke-linecap: round"/>
     </g>
     <g id="text_5">
      <!-- $\mathdefault{2018}$ -->
      <g transform="translate(633.603913 629.330794) scale(0.1 -0.1)">
       <defs>
        <path id="CMR17-38" d="M 1741 2264 
C 2144 2467 2554 2773 2554 3263 
C 2554 3841 1990 4179 1472 4179 
C 890 4179 378 3759 378 3180 
C 378 3021 416 2747 666 2505 
C 730 2442 998 2251 1171 2130 
C 883 1983 211 1634 211 934 
C 211 279 838 -128 1459 -128 
C 2144 -128 2720 362 2720 1010 
C 2720 1590 2330 1857 2074 2029 
L 1741 2264 
z
M 902 2822 
C 851 2854 595 3051 595 3351 
C 595 3739 998 4032 1459 4032 
C 1965 4032 2336 3676 2336 3262 
C 2336 2669 1670 2331 1638 2331 
C 1632 2331 1626 2331 1574 2370 
L 902 2822 
z
M 2080 1519 
C 2176 1449 2483 1240 2483 851 
C 2483 381 2010 25 1472 25 
C 890 25 448 438 448 940 
C 448 1443 838 1862 1280 2060 
L 2080 1519 
z
" transform="scale(0.015625)"/>
       </defs>
       <use xlink:href="#CMR17-32" transform="scale(0.996264)"/>
       <use xlink:href="#CMR17-30" transform="translate(45.690477 0) scale(0.996264)"/>
       <use xlink:href="#CMR17-31" transform="translate(91.380954 0) scale(0.996264)"/>
       <use xlink:href="#CMR17-38" transform="translate(137.071431 0) scale(0.996264)"/>
      </g>
     </g>
    </g>
    <g id="xtick_6">
     <g id="line2d_6">
      <path d="M 772.273356 618.912296 
L 772.273356 17.30242 
" clip-path="url(#p9f30fb1a30)" style="fill: none; stroke: #cccccc; stroke-opacity: 0.5; stroke-width: 0.8; stroke-linecap: round"/>
     </g>
     <g id="text_6">
      <!-- $\mathdefault{2019}$ -->
      <g transform="translate(762.310686 629.330794) scale(0.1 -0.1)">
       <defs>
        <path id="CMR17-39" d="M 2253 1864 
C 2253 464 1670 31 1190 31 
C 1043 31 685 31 538 294 
C 704 268 826 357 826 518 
C 826 692 685 749 595 749 
C 538 749 365 723 365 506 
C 365 71 742 -128 1203 -128 
C 1939 -128 2688 674 2688 2073 
C 2688 3817 1971 4179 1485 4179 
C 851 4179 243 3628 243 2778 
C 243 1991 762 1408 1414 1408 
C 1952 1408 2189 1903 2253 2112 
L 2253 1864 
z
M 1427 1510 
C 1254 1510 1011 1542 813 1922 
C 678 2169 678 2461 678 2771 
C 678 3146 678 3405 858 3684 
C 947 3817 1114 4032 1485 4032 
C 2240 4032 2240 2885 2240 2632 
C 2240 2182 2035 1510 1427 1510 
z
" transform="scale(0.015625)"/>
       </defs>
       <use xlink:href="#CMR17-32" transform="scale(0.996264)"/>
       <use xlink:href="#CMR17-30" transform="translate(45.690477 0) scale(0.996264)"/>
       <use xlink:href="#CMR17-31" transform="translate(91.380954 0) scale(0.996264)"/>
       <use xlink:href="#CMR17-39" transform="translate(137.071431 0) scale(0.996264)"/>
      </g>
     </g>
    </g>
    <g id="xtick_7">
     <g id="line2d_7">
      <path d="M 900.980129 618.912296 
L 900.980129 17.30242 
" clip-path="url(#p9f30fb1a30)" style="fill: none; stroke: #cccccc; stroke-opacity: 0.5; stroke-width: 0.8; stroke-linecap: round"/>
     </g>
     <g id="text_7">
      <!-- $\mathdefault{2020}$ -->
      <g transform="translate(891.017459 629.330794) scale(0.1 -0.1)">
       <use xlink:href="#CMR17-32" transform="scale(0.996264)"/>
       <use xlink:href="#CMR17-30" transform="translate(45.690477 0) scale(0.996264)"/>
       <use xlink:href="#CMR17-32" transform="translate(91.380954 0) scale(0.996264)"/>
       <use xlink:href="#CMR17-30" transform="translate(137.071431 0) scale(0.996264)"/>
      </g>
     </g>
    </g>
    <g id="xtick_8">
     <g id="line2d_8">
      <path d="M 1030.039523 618.912296 
L 1030.039523 17.30242 
" clip-path="url(#p9f30fb1a30)" style="fill: none; stroke: #cccccc; stroke-opacity: 0.5; stroke-width: 0.8; stroke-linecap: round"/>
     </g>
     <g id="text_8">
      <!-- $\mathdefault{2021}$ -->
      <g transform="translate(1020.076853 629.330794) scale(0.1 -0.1)">
       <use xlink:href="#CMR17-32" transform="scale(0.996264)"/>
       <use xlink:href="#CMR17-30" transform="translate(45.690477 0) scale(0.996264)"/>
       <use xlink:href="#CMR17-32" transform="translate(91.380954 0) scale(0.996264)"/>
       <use xlink:href="#CMR17-31" transform="translate(137.071431 0) scale(0.996264)"/>
      </g>
     </g>
    </g>
    <g id="xtick_9">
     <g id="line2d_9">
      <path d="M 1158.746296 618.912296 
L 1158.746296 17.30242 
" clip-path="url(#p9f30fb1a30)" style="fill: none; stroke: #cccccc; stroke-opacity: 0.5; stroke-width: 0.8; stroke-linecap: round"/>
     </g>
     <g id="text_9">
      <!-- $\mathdefault{2022}$ -->
      <g transform="translate(1148.783625 629.330794) scale(0.1 -0.1)">
       <use xlink:href="#CMR17-32" transform="scale(0.996264)"/>
       <use xlink:href="#CMR17-30" transform="translate(45.690477 0) scale(0.996264)"/>
       <use xlink:href="#CMR17-32" transform="translate(91.380954 0) scale(0.996264)"/>
       <use xlink:href="#CMR17-32" transform="translate(137.071431 0) scale(0.996264)"/>
      </g>
     </g>
    </g>
    <g id="xtick_10">
     <g id="line2d_10">
      <path d="M 1287.453069 618.912296 
L 1287.453069 17.30242 
" clip-path="url(#p9f30fb1a30)" style="fill: none; stroke: #cccccc; stroke-opacity: 0.5; stroke-width: 0.8; stroke-linecap: round"/>
     </g>
     <g id="text_10">
      <!-- $\mathdefault{2023}$ -->
      <g transform="translate(1277.490398 629.330794) scale(0.1 -0.1)">
       <defs>
        <path id="CMR17-33" d="M 1414 2157 
C 1984 2157 2234 1662 2234 1090 
C 2234 320 1824 25 1453 25 
C 1114 25 563 194 390 693 
C 422 680 454 680 486 680 
C 640 680 755 782 755 948 
C 755 1133 614 1216 486 1216 
C 378 1216 211 1165 211 926 
C 211 335 787 -128 1466 -128 
C 2176 -128 2720 430 2720 1085 
C 2720 1707 2208 2157 1600 2227 
C 2086 2328 2554 2756 2554 3329 
C 2554 3820 2048 4179 1472 4179 
C 890 4179 378 3829 378 3329 
C 378 3110 544 3072 627 3072 
C 762 3072 877 3155 877 3321 
C 877 3486 762 3569 627 3569 
C 602 3569 570 3569 544 3557 
C 730 3959 1235 4032 1459 4032 
C 1683 4032 2106 3925 2106 3320 
C 2106 3143 2080 2828 1862 2550 
C 1670 2304 1453 2304 1242 2284 
C 1210 2284 1062 2269 1037 2269 
C 992 2263 966 2257 966 2208 
C 966 2163 973 2157 1101 2157 
L 1414 2157 
z
" transform="scale(0.015625)"/>
       </defs>
       <use xlink:href="#CMR17-32" transform="scale(0.996264)"/>
       <use xlink:href="#CMR17-30" transform="translate(45.690477 0) scale(0.996264)"/>
       <use xlink:href="#CMR17-32" transform="translate(91.380954 0) scale(0.996264)"/>
       <use xlink:href="#CMR17-33" transform="translate(137.071431 0) scale(0.996264)"/>
      </g>
     </g>
    </g>
    <g id="xtick_11">
     <g id="line2d_11">
      <path d="M 1416.159841 618.912296 
L 1416.159841 17.30242 
" clip-path="url(#p9f30fb1a30)" style="fill: none; stroke: #cccccc; stroke-opacity: 0.5; stroke-width: 0.8; stroke-linecap: round"/>
     </g>
     <g id="text_11">
      <!-- $\mathdefault{2024}$ -->
      <g transform="translate(1406.197171 629.330794) scale(0.1 -0.1)">
       <use xlink:href="#CMR17-32" transform="scale(0.996264)"/>
       <use xlink:href="#CMR17-30" transform="translate(45.690477 0) scale(0.996264)"/>
       <use xlink:href="#CMR17-32" transform="translate(91.380954 0) scale(0.996264)"/>
       <use xlink:href="#CMR17-34" transform="translate(137.071431 0) scale(0.996264)"/>
      </g>
     </g>
    </g>
    <g id="text_12">
     <!-- Date -->
     <g style="fill: #696969" transform="translate(724.095924 642.186471) scale(0.1 -0.1)">
      <defs>
       <path id="CMR17-44" d="M 333 4352 
L 333 4186 
C 774 4186 845 4186 845 3900 
L 845 452 
C 845 166 774 166 333 166 
L 333 0 
L 2368 0 
C 3398 0 4224 943 4224 2141 
C 4224 3346 3411 4352 2368 4352 
L 333 4352 
z
M 1523 166 
C 1267 166 1254 197 1254 414 
L 1254 3938 
C 1254 4155 1267 4186 1523 4186 
L 2240 4186 
C 2771 4186 3750 3874 3750 2141 
C 3750 1242 3488 879 3366 707 
C 3213 510 2848 166 2240 166 
L 1523 166 
z
" transform="scale(0.015625)"/>
       <path id="CMR17-61" d="M 2304 1653 
C 2304 2072 2304 2294 2035 2543 
C 1798 2752 1523 2816 1306 2816 
C 800 2816 435 2407 435 1971 
C 435 1728 627 1728 666 1728 
C 749 1728 896 1778 896 1954 
C 896 2112 774 2181 666 2181 
C 640 2181 608 2174 589 2168 
C 723 2592 1069 2714 1293 2714 
C 1613 2714 1965 2429 1965 1885 
L 1965 1600 
C 1587 1600 1133 1549 774 1357 
C 371 1133 256 813 256 570 
C 256 77 832 -64 1171 -64 
C 1523 -64 1850 139 1990 511 
C 2003 233 2182 -18 2464 -18 
C 2598 -18 2938 70 2938 567 
L 2938 920 
L 2822 920 
L 2822 562 
C 2822 178 2650 128 2566 128 
C 2304 128 2304 458 2304 738 
L 2304 1653 
z
M 1965 870 
C 1965 317 1568 38 1216 38 
C 896 38 646 275 646 570 
C 646 761 730 1100 1101 1305 
C 1408 1478 1760 1504 1965 1504 
L 1965 870 
z
" transform="scale(0.015625)"/>
       <path id="CMR17-74" d="M 966 2560 
L 1862 2560 
L 1862 2725 
L 966 2725 
L 966 3904 
L 851 3904 
C 838 3245 614 2668 70 2668 
L 70 2560 
L 627 2560 
L 627 771 
C 627 650 627 -64 1370 -64 
C 1747 -64 1965 306 1965 777 
L 1965 1140 
L 1850 1140 
L 1850 783 
C 1850 344 1677 51 1408 51 
C 1222 51 966 178 966 758 
L 966 2560 
z
" transform="scale(0.015625)"/>
       <path id="CMR17-65" d="M 2438 1472 
C 2464 1498 2464 1511 2464 1576 
C 2464 2238 2118 2816 1389 2816 
C 710 2816 173 2169 173 1383 
C 173 551 781 -64 1459 -64 
C 2176 -64 2458 607 2458 740 
C 2458 784 2419 784 2406 784 
C 2362 784 2355 771 2330 696 
C 2189 265 1837 51 1504 51 
C 1229 51 954 203 781 480 
C 582 803 582 1176 582 1472 
L 2438 1472 
z
M 589 1568 
C 634 2505 1126 2714 1382 2714 
C 1818 2714 2112 2297 2118 1568 
L 589 1568 
z
" transform="scale(0.015625)"/>
      </defs>
      <use xlink:href="#CMR17-44" transform="scale(0.996264)"/>
      <use xlink:href="#CMR17-61" transform="translate(70.393556 0) scale(0.996264)"/>
      <use xlink:href="#CMR17-74" transform="translate(116.084033 0) scale(0.996264)"/>
      <use xlink:href="#CMR17-65" transform="translate(151.364801 0) scale(0.996264)"/>
     </g>
    </g>
   </g>
   <g id="matplotlib.axis_2">
    <g id="ytick_1">
     <g id="line2d_12">
      <path d="M 32.085996 571.378927 
L 1436.99976 571.378927 
" clip-path="url(#p9f30fb1a30)" style="fill: none; stroke: #cccccc; stroke-opacity: 0.5; stroke-width: 0.8; stroke-linecap: round"/>
     </g>
     <g id="text_13">
      <!-- $\mathdefault{−4}$ -->
      <g transform="translate(15.855917 574.838177) scale(0.1 -0.1)">
       <defs>
        <path id="CMSY10-0" d="M 4218 1472 
C 4326 1472 4442 1472 4442 1600 
C 4442 1728 4326 1728 4218 1728 
L 755 1728 
C 646 1728 531 1728 531 1600 
C 531 1472 646 1472 755 1472 
L 4218 1472 
z
" transform="scale(0.015625)"/>
       </defs>
       <use xlink:href="#CMSY10-0" transform="scale(0.996264)"/>
       <use xlink:href="#CMR17-34" transform="translate(77.487468 0) scale(0.996264)"/>
      </g>
     </g>
    </g>
    <g id="ytick_2">
     <g id="line2d_13">
      <path d="M 32.085996 492.305278 
L 1436.99976 492.305278 
" clip-path="url(#p9f30fb1a30)" style="fill: none; stroke: #cccccc; stroke-opacity: 0.5; stroke-width: 0.8; stroke-linecap: round"/>
     </g>
     <g id="text_14">
      <!-- $\mathdefault{−3}$ -->
      <g transform="translate(15.855917 495.764527) scale(0.1 -0.1)">
       <use xlink:href="#CMSY10-0" transform="scale(0.996264)"/>
       <use xlink:href="#CMR17-33" transform="translate(77.487468 0) scale(0.996264)"/>
      </g>
     </g>
    </g>
    <g id="ytick_3">
     <g id="line2d_14">
      <path d="M 32.085996 413.231628 
L 1436.99976 413.231628 
" clip-path="url(#p9f30fb1a30)" style="fill: none; stroke: #cccccc; stroke-opacity: 0.5; stroke-width: 0.8; stroke-linecap: round"/>
     </g>
     <g id="text_15">
      <!-- $\mathdefault{−2}$ -->
      <g transform="translate(15.855917 416.690877) scale(0.1 -0.1)">
       <use xlink:href="#CMSY10-0" transform="scale(0.996264)"/>
       <use xlink:href="#CMR17-32" transform="translate(77.487468 0) scale(0.996264)"/>
      </g>
     </g>
    </g>
    <g id="ytick_4">
     <g id="line2d_15">
      <path d="M 32.085996 334.157979 
L 1436.99976 334.157979 
" clip-path="url(#p9f30fb1a30)" style="fill: none; stroke: #cccccc; stroke-opacity: 0.5; stroke-width: 0.8; stroke-linecap: round"/>
     </g>
     <g id="text_16">
      <!-- $\mathdefault{−1}$ -->
      <g transform="translate(15.855917 337.617228) scale(0.1 -0.1)">
       <use xlink:href="#CMSY10-0" transform="scale(0.996264)"/>
       <use xlink:href="#CMR17-31" transform="translate(77.487468 0) scale(0.996264)"/>
      </g>
     </g>
    </g>
    <g id="ytick_5">
     <g id="line2d_16">
      <path d="M 32.085996 255.084329 
L 1436.99976 255.084329 
" clip-path="url(#p9f30fb1a30)" style="fill: none; stroke: #cccccc; stroke-opacity: 0.5; stroke-width: 0.8; stroke-linecap: round"/>
     </g>
     <g id="text_17">
      <!-- $\mathdefault{0}$ -->
      <g transform="translate(23.60466 258.543578) scale(0.1 -0.1)">
       <use xlink:href="#CMR17-30" transform="scale(0.996264)"/>
      </g>
     </g>
    </g>
    <g id="ytick_6">
     <g id="line2d_17">
      <path d="M 32.085996 176.010679 
L 1436.99976 176.010679 
" clip-path="url(#p9f30fb1a30)" style="fill: none; stroke: #cccccc; stroke-opacity: 0.5; stroke-width: 0.8; stroke-linecap: round"/>
     </g>
     <g id="text_18">
      <!-- $\mathdefault{1}$ -->
      <g transform="translate(23.60466 179.469929) scale(0.1 -0.1)">
       <use xlink:href="#CMR17-31" transform="scale(0.996264)"/>
      </g>
     </g>
    </g>
    <g id="ytick_7">
     <g id="line2d_18">
      <path d="M 32.085996 96.93703 
L 1436.99976 96.93703 
" clip-path="url(#p9f30fb1a30)" style="fill: none; stroke: #cccccc; stroke-opacity: 0.5; stroke-width: 0.8; stroke-linecap: round"/>
     </g>
     <g id="text_19">
      <!-- $\mathdefault{2}$ -->
      <g transform="translate(23.60466 100.396279) scale(0.1 -0.1)">
       <use xlink:href="#CMR17-32" transform="scale(0.996264)"/>
      </g>
     </g>
    </g>
    <g id="ytick_8">
     <g id="line2d_19">
      <path d="M 32.085996 17.86338 
L 1436.99976 17.86338 
" clip-path="url(#p9f30fb1a30)" style="fill: none; stroke: #cccccc; stroke-opacity: 0.5; stroke-width: 0.8; stroke-linecap: round"/>
     </g>
     <g id="text_20">
      <!-- $\mathdefault{3}$ -->
      <g transform="translate(23.60466 21.322629) scale(0.1 -0.1)">
       <use xlink:href="#CMR17-33" transform="scale(0.996264)"/>
      </g>
     </g>
    </g>
    <g id="text_21">
     <!-- Total Contribution -->
     <g style="fill: #696969" transform="translate(9.918738 359.355547) rotate(-90) scale(0.1 -0.1)">
      <defs>
       <path id="CMR17-54" d="M 3981 4326 
L 288 4326 
L 179 2918 
L 294 2918 
C 378 3976 467 4160 1453 4160 
C 1568 4160 1754 4160 1805 4154 
C 1926 4135 1926 4058 1926 3912 
L 1926 459 
C 1926 230 1907 160 1376 160 
L 1197 160 
L 1197 0 
C 1504 0 1824 0 2138 0 
C 2451 0 2771 0 3078 0 
L 3078 160 
L 2899 160 
C 2368 160 2349 230 2349 459 
L 2349 3912 
C 2349 4052 2349 4129 2464 4154 
C 2515 4160 2701 4160 2816 4160 
C 3795 4160 3891 3976 3974 2918 
L 4090 2918 
L 3981 4326 
z
" transform="scale(0.015625)"/>
       <path id="CMR17-6f" d="M 2758 1356 
C 2758 2176 2163 2816 1466 2816 
C 768 2816 173 2176 173 1356 
C 173 551 768 -64 1466 -64 
C 2163 -64 2758 551 2758 1356 
z
M 1466 51 
C 1165 51 909 230 762 480 
C 602 767 582 1126 582 1408 
C 582 1677 595 2010 762 2298 
C 890 2509 1139 2714 1466 2714 
C 1754 2714 1997 2554 2150 2330 
C 2349 2029 2349 1607 2349 1408 
C 2349 1158 2336 775 2163 467 
C 1984 173 1709 51 1466 51 
z
" transform="scale(0.015625)"/>
       <path id="CMR17-6c" d="M 979 4396 
L 218 4326 
L 218 4160 
C 595 4160 653 4122 653 3817 
L 653 426 
C 653 184 627 153 218 153 
L 218 -13 
C 371 0 653 0 813 0 
C 979 0 1261 0 1414 -13 
L 1414 153 
C 1005 153 979 178 979 426 
L 979 4396 
z
" transform="scale(0.015625)"/>
       <path id="CMR17-43" d="M 3974 4289 
C 3974 4403 3968 4410 3930 4410 
C 3904 4410 3898 4403 3853 4327 
L 3571 3792 
C 3258 4187 2874 4416 2381 4416 
C 1286 4416 294 3456 294 2148 
C 294 826 1286 -128 2387 -128 
C 3366 -128 3974 730 3974 1461 
C 3974 1524 3974 1550 3917 1550 
C 3866 1550 3866 1531 3859 1474 
C 3808 585 3168 38 2477 38 
C 1824 38 781 495 781 2147 
C 781 3805 1843 4250 2464 4250 
C 3187 4250 3712 3628 3834 2745 
C 3846 2668 3846 2655 3904 2655 
C 3974 2655 3974 2668 3974 2783 
L 3974 4289 
z
" transform="scale(0.015625)"/>
       <path id="CMR17-6e" d="M 2656 1933 
C 2656 2259 2592 2790 1837 2790 
C 1331 2790 1069 2400 973 2144 
L 966 2144 
L 966 2790 
L 211 2720 
L 211 2554 
C 589 2554 646 2515 646 2208 
L 646 428 
C 646 184 621 153 211 153 
L 211 -13 
C 365 0 646 0 813 0 
C 979 0 1267 0 1421 -13 
L 1421 153 
C 1011 153 986 178 986 428 
L 986 1658 
C 986 2247 1344 2688 1792 2688 
C 2266 2688 2317 2266 2317 1958 
L 2317 428 
C 2317 184 2291 153 1882 153 
L 1882 -13 
C 2035 0 2317 0 2483 0 
C 2650 0 2938 0 3091 -13 
L 3091 153 
C 2682 153 2656 178 2656 428 
L 2656 1933 
z
" transform="scale(0.015625)"/>
       <path id="CMR17-72" d="M 960 1497 
C 960 2112 1222 2688 1702 2688 
C 1747 2688 1792 2682 1837 2662 
C 1837 2662 1696 2617 1696 2452 
C 1696 2298 1818 2234 1914 2234 
C 1990 2234 2131 2279 2131 2458 
C 2131 2663 1926 2790 1709 2790 
C 1222 2790 1011 2317 947 2093 
L 941 2093 
L 941 2790 
L 198 2720 
L 198 2554 
C 576 2554 634 2515 634 2208 
L 634 428 
C 634 184 608 153 198 153 
L 198 -13 
C 352 0 646 0 813 0 
C 998 0 1325 0 1498 -13 
L 1498 153 
C 1037 153 960 153 960 440 
L 960 1497 
z
" transform="scale(0.015625)"/>
       <path id="CMR17-69" d="M 992 3909 
C 992 4049 877 4170 730 4170 
C 589 4170 467 4056 467 3909 
C 467 3769 582 3648 730 3648 
C 870 3648 992 3763 992 3909 
z
M 243 2706 
L 243 2541 
C 602 2541 653 2502 653 2197 
L 653 427 
C 653 184 627 153 218 153 
L 218 -13 
C 371 0 646 0 806 0 
C 960 0 1222 0 1370 -13 
L 1370 153 
C 992 153 979 191 979 420 
L 979 2776 
L 243 2706 
z
" transform="scale(0.015625)"/>
       <path id="CMR17-62" d="M 960 4396 
L 198 4326 
L 198 4160 
C 576 4160 634 4122 634 3817 
L 634 -13 
L 749 -13 
L 934 441 
C 1120 141 1395 -64 1766 -64 
C 2406 -64 3053 500 3053 1370 
C 3053 2188 2477 2790 1830 2790 
C 1434 2790 1152 2579 960 2330 
L 960 4396 
z
M 973 2004 
C 973 2118 973 2138 1062 2272 
C 1312 2657 1670 2688 1792 2688 
C 1984 2688 2643 2585 2643 1376 
C 2643 108 1888 38 1734 38 
C 1536 38 1248 114 1043 486 
C 973 608 973 621 973 735 
L 973 2004 
z
" transform="scale(0.015625)"/>
       <path id="CMR17-75" d="M 1882 2693 
L 1882 2528 
C 2259 2528 2317 2489 2317 2186 
L 2317 1032 
C 2317 500 2029 38 1555 38 
C 1030 38 986 348 986 678 
L 986 2763 
L 211 2693 
L 211 2528 
C 467 2528 640 2528 646 2274 
L 646 1058 
C 646 633 646 361 813 183 
C 896 101 1056 -64 1517 -64 
C 2061 -64 2272 377 2323 506 
L 2330 506 
L 2330 -63 
L 3091 -63 
L 3091 128 
C 2714 128 2656 166 2656 473 
L 2656 2763 
L 1882 2693 
z
" transform="scale(0.015625)"/>
      </defs>
      <use xlink:href="#CMR17-54" transform="scale(0.996264)"/>
      <use xlink:href="#CMR17-6f" transform="translate(58.702625 0) scale(0.996264)"/>
      <use xlink:href="#CMR17-74" transform="translate(104.393102 0) scale(0.996264)"/>
      <use xlink:href="#CMR17-61" transform="translate(139.67387 0) scale(0.996264)"/>
      <use xlink:href="#CMR17-6c" transform="translate(185.364347 0) scale(0.996264)"/>
      <use xlink:href="#CMR17-43" transform="translate(240.311372 0) scale(0.996264)"/>
      <use xlink:href="#CMR17-6f" transform="translate(306.821253 0) scale(0.996264)"/>
      <use xlink:href="#CMR17-6e" transform="translate(352.51173 0) scale(0.996264)"/>
      <use xlink:href="#CMR17-74" transform="translate(400.804646 0) scale(0.996264)"/>
      <use xlink:href="#CMR17-72" transform="translate(436.085413 0) scale(0.996264)"/>
      <use xlink:href="#CMR17-69" transform="translate(471.366181 0) scale(0.996264)"/>
      <use xlink:href="#CMR17-62" transform="translate(496.23724 0) scale(0.996264)"/>
      <use xlink:href="#CMR17-75" transform="translate(547.132609 0) scale(0.996264)"/>
      <use xlink:href="#CMR17-74" transform="translate(598.027979 0) scale(0.996264)"/>
      <use xlink:href="#CMR17-69" transform="translate(633.308747 0) scale(0.996264)"/>
      <use xlink:href="#CMR17-6f" transform="translate(658.179805 0) scale(0.996264)"/>
      <use xlink:href="#CMR17-6e" transform="translate(703.870283 0) scale(0.996264)"/>
     </g>
    </g>
   </g>
   <g id="line2d_20">
    <path d="M 95.945712 255.296761 
L 160.122788 239.581077 
L 170.701427 233.038489 
L 181.632687 252.762046 
L 203.142586 239.675003 
L 214.073846 248.596602 
L 224.652485 253.367419 
L 235.583745 254.387408 
L 246.162384 260.232095 
L 257.093644 44.648323 
L 257.093644 44.648323 
L 268.024904 236.82581 
L 268.024904 236.82581 
L 277.898301 250.38532 
L 277.898301 250.38532 
L 288.829561 221.478288 
L 288.829561 221.478288 
L 299.4082 245.20062 
L 299.4082 245.20062 
L 310.33946 341.19045 
L 310.33946 341.19045 
L 320.918099 273.907795 
L 320.918099 273.907795 
L 331.849359 237.801151 
L 331.849359 237.801151 
L 342.780619 230.385641 
L 342.780619 230.385641 
L 353.359258 591.566392 
L 353.359258 591.566392 
L 364.290518 235.102289 
L 364.290518 235.102289 
L 374.869157 522.393869 
L 374.869157 522.393869 
L 385.800417 240.956779 
L 385.800417 240.956779 
L 396.731677 225.831378 
L 396.731677 225.831378 
L 406.957695 165.772484 
L 406.957695 165.772484 
L 417.888955 238.585464 
L 417.888955 238.585464 
L 428.467594 261.81058 
L 428.467594 261.81058 
L 439.398854 260.520771 
L 439.398854 260.520771 
L 449.977493 265.412542 
L 449.977493 265.412542 
L 460.908753 242.23221 
L 460.908753 242.23221 
L 471.840013 231.507089 
L 471.840013 231.507089 
L 482.418652 269.977228 
L 482.418652 269.977228 
L 493.349912 125.082863 
L 493.349912 125.082863 
L 503.928551 268.289796 
L 503.928551 268.289796 
L 514.859811 232.956794 
L 514.859811 232.956794 
L 525.791071 383.238799 
L 525.791071 383.238799 
L 535.664467 293.206071 
L 535.664467 293.206071 
L 546.595728 206.850772 
L 546.595728 206.850772 
L 557.174366 240.626137 
L 557.174366 240.626137 
L 568.105627 264.722014 
L 568.105627 264.722014 
L 578.684265 221.073758 
L 578.684265 221.073758 
L 589.615526 315.948705 
L 589.615526 315.948705 
L 600.546786 166.48822 
L 600.546786 166.48822 
L 611.125425 238.858754 
L 611.125425 238.858754 
L 622.056685 265.263068 
L 622.056685 265.263068 
L 632.635324 196.062731 
L 632.635324 196.062731 
L 643.566584 329.678338 
L 643.566584 329.678338 
L 654.497844 133.044688 
L 654.497844 133.044688 
L 664.37124 182.977406 
L 664.37124 182.977406 
L 675.3025 354.754669 
L 675.3025 354.754669 
L 685.881139 253.574128 
L 685.881139 253.574128 
L 696.812399 226.423278 
L 696.812399 226.423278 
L 707.391038 258.397408 
L 707.391038 258.397408 
L 718.322298 297.846479 
L 718.322298 297.846479 
L 729.253558 78.702916 
L 729.253558 78.702916 
L 739.832197 204.531274 
L 739.832197 204.531274 
L 750.763457 234.717959 
L 750.763457 234.717959 
L 761.342096 220.732933 
L 761.342096 220.732933 
L 772.273356 225.626331 
L 772.273356 225.626331 
L 783.204617 187.959321 
L 783.204617 187.959321 
L 793.078013 212.550015 
L 793.078013 212.550015 
L 804.009273 251.438668 
L 804.009273 251.438668 
L 814.587912 223.127682 
L 814.587912 223.127682 
L 825.519172 201.788693 
L 825.519172 201.788693 
L 836.097811 208.943838 
L 836.097811 208.943838 
L 847.029071 237.455348 
L 847.029071 237.455348 
L 857.960331 139.28061 
L 857.960331 139.28061 
L 868.53897 254.394562 
L 868.53897 254.394562 
L 879.47023 228.409209 
L 879.47023 228.409209 
L 890.048869 210.376882 
L 890.048869 210.376882 
L 900.980129 369.614701 
L 900.980129 369.614701 
L 911.911389 267.439206 
L 911.911389 267.439206 
L 922.137407 264.697329 
L 922.137407 264.697329 
L 933.068667 216.448842 
L 933.068667 216.448842 
L 943.647306 246.440067 
L 943.647306 246.440067 
L 954.578566 208.747041 
L 954.578566 208.747041 
L 965.157205 390.161305 
L 965.157205 390.161305 
L 976.088465 201.054932 
L 976.088465 201.054932 
L 987.019725 272.20092 
L 987.019725 272.20092 
L 997.598364 249.319438 
L 997.598364 249.319438 
L 1008.529624 207.151936 
L 1008.529624 207.151936 
L 1019.108263 351.580137 
L 1019.108263 351.580137 
L 1030.039523 276.368958 
L 1030.039523 276.368958 
L 1040.970783 216.02163 
L 1040.970783 216.02163 
L 1050.84418 283.5899 
L 1050.84418 283.5899 
L 1061.77544 115.595708 
L 1061.77544 115.595708 
L 1072.354079 160.442047 
L 1072.354079 160.442047 
L 1083.285339 267.805721 
L 1083.285339 267.805721 
L 1093.863978 164.970682 
L 1093.863978 164.970682 
L 1104.795238 247.042879 
L 1104.795238 247.042879 
L 1115.726498 230.662289 
L 1115.726498 230.662289 
L 1126.305137 149.427199 
L 1126.305137 149.427199 
L 1137.236397 250.488351 
L 1137.236397 250.488351 
L 1147.815036 250.246038 
L 1147.815036 250.246038 
L 1158.746296 283.086828 
L 1158.746296 283.086828 
L 1169.677556 179.904277 
L 1169.677556 179.904277 
L 1179.550952 209.189408 
L 1179.550952 209.189408 
L 1190.482213 188.475421 
L 1190.482213 188.475421 
L 1201.060851 216.831779 
L 1201.060851 216.831779 
L 1211.992112 252.869803 
L 1211.992112 252.869803 
L 1222.57075 256.6362 
L 1222.57075 256.6362 
L 1233.502011 245.996288 
L 1233.502011 245.996288 
L 1244.433271 162.245007 
L 1244.433271 162.245007 
L 1255.01191 233.584717 
L 1255.01191 233.584717 
L 1265.94317 246.719161 
L 1265.94317 246.719161 
L 1276.521809 266.016218 
L 1276.521809 266.016218 
L 1287.453069 259.423809 
L 1287.453069 259.423809 
L 1298.384329 267.551033 
L 1298.384329 267.551033 
L 1308.257725 255.084328 
L 1319.188985 202.59861 
L 1319.188985 202.59861 
L 1329.767624 249.916267 
L 1329.767624 249.916267 
L 1340.698884 250.382104 
L 1340.698884 250.382104 
L 1351.277523 255.483029 
L 1351.277523 255.483029 
L 1373.140043 260.981835 
L 1373.140043 260.981835 
" clip-path="url(#p9f30fb1a30)" style="fill: none; stroke: #006e64; stroke-width: 1.5; stroke-linecap: round"/>
   </g>
   <g id="line2d_21">
    <path d="M 95.945712 250.503347 
L 160.122788 250.010854 
L 170.701427 250.464411 
L 181.632687 252.174338 
L 203.142586 249.753832 
L 214.073846 250.630711 
L 224.652485 248.632793 
L 235.583745 251.217483 
L 246.162384 251.763442 
L 257.093644 244.134586 
L 257.093644 244.134586 
L 268.024904 241.336427 
L 268.024904 241.336427 
L 277.898301 242.874952 
L 277.898301 242.874952 
L 288.829561 222.792287 
L 288.829561 222.792287 
L 299.4082 254.250587 
L 299.4082 254.250587 
L 310.33946 206.672673 
L 310.33946 206.672673 
L 320.918099 231.08964 
L 320.918099 231.08964 
L 331.849359 212.371045 
L 331.849359 212.371045 
L 342.780619 245.652568 
L 342.780619 245.652568 
L 353.359258 226.220981 
L 353.359258 226.220981 
L 364.290518 175.746797 
L 364.290518 175.746797 
L 374.869157 173.957767 
L 374.869157 173.957767 
L 385.800417 202.493931 
L 385.800417 202.493931 
L 396.731677 205.969543 
L 396.731677 205.969543 
L 406.957695 231.876876 
L 406.957695 231.876876 
L 417.888955 227.824132 
L 417.888955 227.824132 
L 428.467594 232.203637 
L 428.467594 232.203637 
L 439.398854 236.217722 
L 439.398854 236.217722 
L 449.977493 206.071708 
L 449.977493 206.071708 
L 460.908753 211.203409 
L 460.908753 211.203409 
L 471.840013 224.644142 
L 471.840013 224.644142 
L 482.418652 203.460194 
L 482.418652 203.460194 
L 493.349912 222.206537 
L 493.349912 222.206537 
L 503.928551 229.303424 
L 503.928551 229.303424 
L 514.859811 198.833036 
L 514.859811 198.833036 
L 525.791071 217.150338 
L 525.791071 217.150338 
L 535.664467 243.274036 
L 535.664467 243.274036 
L 546.595728 226.873907 
L 546.595728 226.873907 
L 557.174366 218.162871 
L 557.174366 218.162871 
L 568.105627 225.742974 
L 568.105627 225.742974 
L 578.684265 210.495828 
L 578.684265 210.495828 
L 589.615526 232.68666 
L 589.615526 232.68666 
L 600.546786 238.726117 
L 600.546786 238.726117 
L 611.125425 240.692958 
L 611.125425 240.692958 
L 622.056685 214.821539 
L 622.056685 214.821539 
L 632.635324 235.613538 
L 632.635324 235.613538 
L 643.566584 196.638649 
L 643.566584 196.638649 
L 654.497844 229.010897 
L 654.497844 229.010897 
L 664.37124 214.087638 
L 664.37124 214.087638 
L 675.3025 252.491227 
L 675.3025 252.491227 
L 685.881139 241.988036 
L 685.881139 241.988036 
L 696.812399 234.370809 
L 696.812399 234.370809 
L 707.391038 220.988226 
L 707.391038 220.988226 
L 718.322298 229.522865 
L 718.322298 229.522865 
L 729.253558 233.705364 
L 729.253558 233.705364 
L 739.832197 237.057852 
L 739.832197 237.057852 
L 750.763457 231.431922 
L 750.763457 231.431922 
L 761.342096 228.086366 
L 761.342096 228.086366 
L 772.273356 222.770054 
L 772.273356 222.770054 
L 783.204617 221.596402 
L 783.204617 221.596402 
L 793.078013 243.273006 
L 793.078013 243.273006 
L 804.009273 240.800635 
L 804.009273 240.800635 
L 814.587912 234.424088 
L 814.587912 234.424088 
L 825.519172 240.955552 
L 825.519172 240.955552 
L 836.097811 221.088856 
L 836.097811 221.088856 
L 847.029071 242.824257 
L 847.029071 242.824257 
L 857.960331 254.678235 
L 857.960331 254.678235 
L 868.53897 240.975101 
L 868.53897 240.975101 
L 879.47023 241.005571 
L 879.47023 241.005571 
L 890.048869 251.86856 
L 890.048869 251.86856 
L 900.980129 240.704786 
L 900.980129 240.704786 
L 911.911389 235.857085 
L 911.911389 235.857085 
L 922.137407 267.353045 
L 922.137407 267.353045 
L 933.068667 268.096211 
L 933.068667 268.096211 
L 943.647306 279.811809 
L 943.647306 279.811809 
L 954.578566 260.938871 
L 954.578566 260.938871 
L 965.157205 270.398251 
L 965.157205 270.398251 
L 976.088465 266.136977 
L 976.088465 266.136977 
L 987.019725 253.432215 
L 987.019725 253.432215 
L 997.598364 257.951316 
L 997.598364 257.951316 
L 1008.529624 255.649283 
L 1008.529624 255.649283 
L 1019.108263 242.666375 
L 1019.108263 242.666375 
L 1030.039523 236.877474 
L 1030.039523 236.877474 
L 1040.970783 233.151839 
L 1040.970783 233.151839 
L 1050.84418 236.940042 
L 1050.84418 236.940042 
L 1061.77544 222.261211 
L 1061.77544 222.261211 
L 1072.354079 232.98022 
L 1072.354079 232.98022 
L 1083.285339 205.925109 
L 1083.285339 205.925109 
L 1093.863978 238.338199 
L 1093.863978 238.338199 
L 1104.795238 252.320657 
L 1104.795238 252.320657 
L 1115.726498 211.578658 
L 1115.726498 211.578658 
L 1126.305137 230.043544 
L 1126.305137 230.043544 
L 1137.236397 236.406627 
L 1137.236397 236.406627 
L 1147.815036 250.089908 
L 1147.815036 250.089908 
L 1158.746296 265.076093 
L 1158.746296 265.076093 
L 1169.677556 244.42321 
L 1169.677556 244.42321 
L 1179.550952 235.465407 
L 1179.550952 235.465407 
L 1190.482213 243.665943 
L 1190.482213 243.665943 
L 1201.060851 228.348647 
L 1201.060851 228.348647 
L 1211.992112 239.609038 
L 1211.992112 239.609038 
L 1222.57075 262.423927 
L 1222.57075 262.423927 
L 1233.502011 262.820497 
L 1233.502011 262.820497 
L 1244.433271 276.412933 
L 1244.433271 276.412933 
L 1255.01191 248.372518 
L 1255.01191 248.372518 
L 1265.94317 266.428344 
L 1265.94317 266.428344 
L 1276.521809 280.583356 
L 1276.521809 280.583356 
L 1287.453069 259.249927 
L 1287.453069 259.249927 
L 1298.384329 260.546995 
L 1298.384329 260.546995 
L 1308.257725 259.020404 
L 1319.188985 259.255271 
L 1319.188985 259.255271 
L 1329.767624 258.519704 
L 1329.767624 258.519704 
L 1340.698884 258.518873 
L 1340.698884 258.518873 
L 1351.277523 267.690304 
L 1351.277523 267.690304 
L 1373.140043 260.940411 
L 1373.140043 260.940411 
" clip-path="url(#p9f30fb1a30)" style="fill: none; stroke: #734848; stroke-width: 1.5; stroke-linecap: round"/>
   </g>
   <g id="line2d_22">
    <path d="M 95.945712 250.629414 
L 160.122788 249.927361 
L 170.701427 250.174842 
L 181.632687 252.142269 
L 203.142586 249.828295 
L 214.073846 251.801968 
L 224.652485 248.474024 
L 235.583745 251.129754 
L 246.162384 251.655516 
L 257.093644 240.925275 
L 257.093644 240.925275 
L 268.024904 240.157686 
L 268.024904 240.157686 
L 277.898301 242.995363 
L 277.898301 242.995363 
L 288.829561 215.924697 
L 288.829561 215.924697 
L 299.4082 252.937883 
L 299.4082 252.937883 
L 310.33946 192.800741 
L 310.33946 192.800741 
L 320.918099 235.029806 
L 320.918099 235.029806 
L 331.849359 200.042912 
L 331.849359 200.042912 
L 342.780619 243.036311 
L 342.780619 243.036311 
L 353.359258 225.560106 
L 353.359258 225.560106 
L 364.290518 164.586846 
L 364.290518 164.586846 
L 374.869157 183.142785 
L 374.869157 183.142785 
L 385.800417 200.841666 
L 385.800417 200.841666 
L 396.731677 196.884121 
L 396.731677 196.884121 
L 406.957695 257.837106 
L 406.957695 257.837106 
L 417.888955 236.295786 
L 417.888955 236.295786 
L 428.467594 230.496259 
L 428.467594 230.496259 
L 439.398854 237.712412 
L 439.398854 237.712412 
L 449.977493 207.198506 
L 449.977493 207.198506 
L 460.908753 217.011624 
L 460.908753 217.011624 
L 471.840013 221.337183 
L 471.840013 221.337183 
L 482.418652 219.547577 
L 482.418652 219.547577 
L 493.349912 230.518607 
L 493.349912 230.518607 
L 503.928551 236.686262 
L 503.928551 236.686262 
L 514.859811 211.077728 
L 514.859811 211.077728 
L 525.791071 227.266636 
L 525.791071 227.266636 
L 535.664467 243.0179 
L 535.664467 243.0179 
L 546.595728 231.158058 
L 546.595728 231.158058 
L 557.174366 233.418757 
L 557.174366 233.418757 
L 568.105627 228.640647 
L 568.105627 228.640647 
L 578.684265 206.937865 
L 578.684265 206.937865 
L 589.615526 230.728192 
L 589.615526 230.728192 
L 600.546786 220.712382 
L 600.546786 220.712382 
L 611.125425 237.914171 
L 611.125425 237.914171 
L 622.056685 206.154208 
L 622.056685 206.154208 
L 632.635324 237.247564 
L 632.635324 237.247564 
L 643.566584 186.2943 
L 643.566584 186.2943 
L 654.497844 215.888251 
L 654.497844 215.888251 
L 664.37124 193.61453 
L 664.37124 193.61453 
L 675.3025 255.354104 
L 675.3025 255.354104 
L 685.881139 243.583976 
L 685.881139 243.583976 
L 696.812399 230.237361 
L 696.812399 230.237361 
L 707.391038 217.677955 
L 707.391038 217.677955 
L 718.322298 238.143764 
L 718.322298 238.143764 
L 729.253558 235.324673 
L 729.253558 235.324673 
L 739.832197 235.452663 
L 739.832197 235.452663 
L 750.763457 233.654406 
L 750.763457 233.654406 
L 761.342096 227.573412 
L 761.342096 227.573412 
L 772.273356 222.966121 
L 772.273356 222.966121 
L 783.204617 212.452103 
L 783.204617 212.452103 
L 793.078013 242.17538 
L 793.078013 242.17538 
L 804.009273 231.339958 
L 804.009273 231.339958 
L 814.587912 242.389754 
L 814.587912 242.389754 
L 825.519172 252.413844 
L 825.519172 252.413844 
L 836.097811 211.73512 
L 836.097811 211.73512 
L 847.029071 251.131848 
L 847.029071 251.131848 
L 857.960331 239.530204 
L 857.960331 239.530204 
L 868.53897 241.556985 
L 868.53897 241.556985 
L 879.47023 239.281219 
L 879.47023 239.281219 
L 890.048869 250.445835 
L 890.048869 250.445835 
L 900.980129 244.127768 
L 900.980129 244.127768 
L 911.911389 229.332095 
L 911.911389 229.332095 
L 922.137407 267.48653 
L 922.137407 267.48653 
L 933.068667 270.016876 
L 933.068667 270.016876 
L 943.647306 297.069844 
L 943.647306 297.069844 
L 954.578566 246.032525 
L 954.578566 246.032525 
L 965.157205 260.433524 
L 965.157205 260.433524 
L 976.088465 265.073672 
L 976.088465 265.073672 
L 987.019725 225.46218 
L 987.019725 225.46218 
L 997.598364 249.686997 
L 997.598364 249.686997 
L 1008.529624 257.913574 
L 1008.529624 257.913574 
L 1019.108263 231.48707 
L 1019.108263 231.48707 
L 1030.039523 231.948522 
L 1030.039523 231.948522 
L 1040.970783 224.026716 
L 1040.970783 224.026716 
L 1050.84418 241.246499 
L 1050.84418 241.246499 
L 1061.77544 222.8113 
L 1061.77544 222.8113 
L 1072.354079 217.62467 
L 1072.354079 217.62467 
L 1083.285339 213.37115 
L 1083.285339 213.37115 
L 1093.863978 232.659399 
L 1093.863978 232.659399 
L 1104.795238 253.003645 
L 1104.795238 253.003645 
L 1115.726498 209.260583 
L 1115.726498 209.260583 
L 1126.305137 229.584692 
L 1126.305137 229.584692 
L 1137.236397 220.256231 
L 1137.236397 220.256231 
L 1147.815036 247.035177 
L 1147.815036 247.035177 
L 1158.746296 260.724059 
L 1158.746296 260.724059 
L 1169.677556 248.548133 
L 1169.677556 248.548133 
L 1179.550952 238.615322 
L 1179.550952 238.615322 
L 1190.482213 246.118237 
L 1190.482213 246.118237 
L 1201.060851 232.236753 
L 1201.060851 232.236753 
L 1211.992112 231.770004 
L 1211.992112 231.770004 
L 1222.57075 253.259466 
L 1222.57075 253.259466 
L 1233.502011 270.963597 
L 1233.502011 270.963597 
L 1244.433271 272.377332 
L 1244.433271 272.377332 
L 1255.01191 272.779631 
L 1255.01191 272.779631 
L 1265.94317 259.203359 
L 1265.94317 259.203359 
L 1276.521809 273.505472 
L 1276.521809 273.505472 
L 1287.453069 256.07757 
L 1287.453069 256.07757 
L 1298.384329 260.459889 
L 1298.384329 260.459889 
L 1308.257725 258.034055 
L 1319.188985 256.659071 
L 1319.188985 256.659071 
L 1329.767624 263.66864 
L 1329.767624 263.66864 
L 1340.698884 255.190598 
L 1340.698884 255.190598 
L 1351.277523 266.242537 
L 1351.277523 266.242537 
L 1373.140043 263.891659 
L 1373.140043 263.891659 
" clip-path="url(#p9f30fb1a30)" style="fill: none; stroke: #004e4a; stroke-width: 1.5; stroke-linecap: round"/>
   </g>
   <g id="line2d_23">
    <path d="M 95.945712 250.897467 
L 160.122788 249.962667 
L 170.701427 250.342482 
L 181.632687 252.667849 
L 203.142586 249.53589 
L 214.073846 245.234185 
L 224.652485 248.68173 
L 235.583745 251.554446 
L 246.162384 251.901875 
L 257.093644 244.198227 
L 257.093644 244.198227 
L 268.024904 240.934887 
L 268.024904 240.934887 
L 277.898301 243.753151 
L 277.898301 243.753151 
L 288.829561 213.675635 
L 288.829561 213.675635 
L 299.4082 252.440825 
L 299.4082 252.440825 
L 310.33946 193.18704 
L 310.33946 193.18704 
L 320.918099 229.018852 
L 320.918099 229.018852 
L 331.849359 197.810688 
L 331.849359 197.810688 
L 342.780619 244.212742 
L 342.780619 244.212742 
L 353.359258 226.872405 
L 353.359258 226.872405 
L 364.290518 189.990422 
L 364.290518 189.990422 
L 374.869157 191.880399 
L 374.869157 191.880399 
L 385.800417 198.603443 
L 385.800417 198.603443 
L 396.731677 198.341539 
L 396.731677 198.341539 
L 406.957695 222.729332 
L 406.957695 222.729332 
L 417.888955 226.640281 
L 417.888955 226.640281 
L 428.467594 228.787609 
L 428.467594 228.787609 
L 439.398854 237.742136 
L 439.398854 237.742136 
L 449.977493 221.578406 
L 449.977493 221.578406 
L 460.908753 218.208838 
L 460.908753 218.208838 
L 471.840013 220.565155 
L 471.840013 220.565155 
L 482.418652 218.958835 
L 482.418652 218.958835 
L 493.349912 237.493283 
L 493.349912 237.493283 
L 503.928551 226.704932 
L 503.928551 226.704932 
L 514.859811 228.564834 
L 514.859811 228.564834 
L 525.791071 217.253536 
L 525.791071 217.253536 
L 535.664467 256.378864 
L 535.664467 256.378864 
L 546.595728 227.768848 
L 546.595728 227.768848 
L 557.174366 238.298247 
L 557.174366 238.298247 
L 568.105627 226.24534 
L 568.105627 226.24534 
L 578.684265 203.137762 
L 578.684265 203.137762 
L 589.615526 221.645507 
L 589.615526 221.645507 
L 600.546786 221.602857 
L 600.546786 221.602857 
L 611.125425 228.65347 
L 611.125425 228.65347 
L 622.056685 225.055707 
L 622.056685 225.055707 
L 632.635324 236.67794 
L 632.635324 236.67794 
L 643.566584 204.390377 
L 643.566584 204.390377 
L 654.497844 211.901335 
L 654.497844 211.901335 
L 664.37124 193.083143 
L 664.37124 193.083143 
L 675.3025 252.783128 
L 675.3025 252.783128 
L 685.881139 239.761763 
L 685.881139 239.761763 
L 696.812399 230.617802 
L 696.812399 230.617802 
L 707.391038 214.225231 
L 707.391038 214.225231 
L 718.322298 220.395767 
L 718.322298 220.395767 
L 729.253558 228.603751 
L 729.253558 228.603751 
L 739.832197 243.248685 
L 739.832197 243.248685 
L 750.763457 232.983954 
L 750.763457 232.983954 
L 761.342096 226.560594 
L 761.342096 226.560594 
L 772.273356 220.372063 
L 772.273356 220.372063 
L 783.204617 207.75329 
L 783.204617 207.75329 
L 793.078013 240.602257 
L 793.078013 240.602257 
L 804.009273 223.799785 
L 804.009273 223.799785 
L 814.587912 256.444351 
L 814.587912 256.444351 
L 825.519172 265.967927 
L 825.519172 265.967927 
L 836.097811 237.418365 
L 836.097811 237.418365 
L 847.029071 254.49401 
L 847.029071 254.49401 
L 857.960331 277.97312 
L 857.960331 277.97312 
L 868.53897 240.95797 
L 868.53897 240.95797 
L 879.47023 238.146037 
L 879.47023 238.146037 
L 890.048869 249.298359 
L 890.048869 249.298359 
L 900.980129 259.968436 
L 900.980129 259.968436 
L 911.911389 234.323119 
L 911.911389 234.323119 
L 922.137407 273.797673 
L 922.137407 273.797673 
L 933.068667 286.680229 
L 933.068667 286.680229 
L 943.647306 304.728128 
L 943.647306 304.728128 
L 954.578566 254.763715 
L 954.578566 254.763715 
L 965.157205 277.470305 
L 965.157205 277.470305 
L 976.088465 273.430302 
L 976.088465 273.430302 
L 987.019725 267.962677 
L 987.019725 267.962677 
L 997.598364 253.308643 
L 997.598364 253.308643 
L 1008.529624 257.258912 
L 1008.529624 257.258912 
L 1019.108263 247.621844 
L 1019.108263 247.621844 
L 1030.039523 233.010004 
L 1030.039523 233.010004 
L 1040.970783 207.831794 
L 1040.970783 207.831794 
L 1050.84418 236.079897 
L 1050.84418 236.079897 
L 1061.77544 213.162501 
L 1061.77544 213.162501 
L 1072.354079 234.527805 
L 1072.354079 234.527805 
L 1083.285339 211.265976 
L 1083.285339 211.265976 
L 1093.863978 227.263542 
L 1093.863978 227.263542 
L 1104.795238 246.490898 
L 1104.795238 246.490898 
L 1115.726498 205.806122 
L 1115.726498 205.806122 
L 1126.305137 211.455515 
L 1126.305137 211.455515 
L 1137.236397 213.164626 
L 1137.236397 213.164626 
L 1147.815036 245.19968 
L 1147.815036 245.19968 
L 1158.746296 263.63637 
L 1158.746296 263.63637 
L 1169.677556 247.425655 
L 1169.677556 247.425655 
L 1179.550952 244.761188 
L 1179.550952 244.761188 
L 1190.482213 247.374651 
L 1190.482213 247.374651 
L 1201.060851 241.918161 
L 1201.060851 241.918161 
L 1211.992112 213.419663 
L 1211.992112 213.419663 
L 1222.57075 272.079174 
L 1233.502011 249.92684 
L 1233.502011 249.92684 
L 1244.433271 282.406469 
L 1244.433271 282.406469 
L 1255.01191 265.713294 
L 1255.01191 265.713294 
L 1265.94317 273.570255 
L 1265.94317 273.570255 
L 1276.521809 279.337517 
L 1276.521809 279.337517 
L 1287.453069 256.585303 
L 1287.453069 256.585303 
L 1298.384329 253.840097 
L 1298.384329 253.840097 
L 1308.257725 251.673412 
L 1319.188985 253.587407 
L 1319.188985 253.587407 
L 1329.767624 266.342362 
L 1329.767624 266.342362 
L 1340.698884 248.263129 
L 1340.698884 248.263129 
L 1351.277523 261.208889 
L 1351.277523 261.208889 
L 1373.140043 261.197463 
L 1373.140043 261.197463 
" clip-path="url(#p9f30fb1a30)" style="fill: none; stroke: #c17150; stroke-width: 1.5; stroke-linecap: round"/>
   </g>
   <g id="line2d_24">
    <path d="M 95.945712 249.877257 
L 160.122788 249.106608 
L 170.701427 249.223516 
L 181.632687 252.214953 
L 203.142586 248.845479 
L 214.073846 249.667981 
L 224.652485 247.740147 
L 235.583745 251.021168 
L 246.162384 251.408602 
L 257.093644 240.78405 
L 257.093644 240.78405 
L 268.024904 238.597229 
L 268.024904 238.597229 
L 277.898301 240.950671 
L 277.898301 240.950671 
L 288.829561 208.99517 
L 288.829561 208.99517 
L 299.4082 267.560031 
L 299.4082 267.560031 
L 310.33946 193.39592 
L 310.33946 193.39592 
L 320.918099 246.479427 
L 320.918099 246.479427 
L 331.849359 199.063374 
L 331.849359 199.063374 
L 342.780619 235.024514 
L 342.780619 235.024514 
L 353.359258 230.887308 
L 353.359258 230.887308 
L 364.290518 152.171981 
L 364.290518 152.171981 
L 374.869157 198.65259 
L 374.869157 198.65259 
L 385.800417 193.409884 
L 385.800417 193.409884 
L 396.731677 195.012006 
L 396.731677 195.012006 
L 406.957695 216.277921 
L 406.957695 216.277921 
L 417.888955 229.991732 
L 417.888955 229.991732 
L 428.467594 229.699947 
L 428.467594 229.699947 
L 439.398854 236.251326 
L 439.398854 236.251326 
L 449.977493 232.02498 
L 449.977493 232.02498 
L 460.908753 234.175098 
L 460.908753 234.175098 
L 471.840013 219.835167 
L 471.840013 219.835167 
L 482.418652 215.979243 
L 482.418652 215.979243 
L 493.349912 234.388003 
L 493.349912 234.388003 
L 503.928551 232.83143 
L 503.928551 232.83143 
L 514.859811 209.905759 
L 514.859811 209.905759 
L 525.791071 207.192538 
L 525.791071 207.192538 
L 535.664467 252.877764 
L 535.664467 252.877764 
L 546.595728 231.827331 
L 546.595728 231.827331 
L 557.174366 238.733227 
L 557.174366 238.733227 
L 568.105627 228.571679 
L 568.105627 228.571679 
L 578.684265 195.583951 
L 578.684265 195.583951 
L 589.615526 218.738176 
L 589.615526 218.738176 
L 600.546786 212.804883 
L 600.546786 212.804883 
L 611.125425 225.376933 
L 611.125425 225.376933 
L 622.056685 226.974387 
L 622.056685 226.974387 
L 632.635324 244.928483 
L 632.635324 244.928483 
L 643.566584 202.999988 
L 643.566584 202.999988 
L 654.497844 234.919357 
L 654.497844 234.919357 
L 664.37124 182.220586 
L 664.37124 182.220586 
L 675.3025 264.112528 
L 675.3025 264.112528 
L 696.812399 227.553311 
L 696.812399 227.553311 
L 707.391038 212.411522 
L 707.391038 212.411522 
L 718.322298 224.470017 
L 718.322298 224.470017 
L 729.253558 232.811309 
L 729.253558 232.811309 
L 739.832197 242.325411 
L 739.832197 242.325411 
L 750.763457 236.540766 
L 750.763457 236.540766 
L 761.342096 214.963761 
L 761.342096 214.963761 
L 772.273356 196.057471 
L 772.273356 196.057471 
L 783.204617 194.40907 
L 783.204617 194.40907 
L 793.078013 246.417995 
L 793.078013 246.417995 
L 804.009273 227.718825 
L 804.009273 227.718825 
L 814.587912 259.304221 
L 814.587912 259.304221 
L 825.519172 261.579815 
L 825.519172 261.579815 
L 836.097811 224.800402 
L 836.097811 224.800402 
L 847.029071 253.379915 
L 847.029071 253.379915 
L 857.960331 252.556151 
L 857.960331 252.556151 
L 868.53897 232.604368 
L 868.53897 232.604368 
L 879.47023 238.26694 
L 879.47023 238.26694 
L 890.048869 244.715022 
L 890.048869 244.715022 
L 900.980129 248.153638 
L 900.980129 248.153638 
L 911.911389 219.480819 
L 911.911389 219.480819 
L 922.137407 259.701276 
L 922.137407 259.701276 
L 933.068667 265.76364 
L 933.068667 265.76364 
L 943.647306 329.607657 
L 943.647306 329.607657 
L 954.578566 253.932248 
L 954.578566 253.932248 
L 965.157205 269.236179 
L 965.157205 269.236179 
L 976.088465 292.068723 
L 976.088465 292.068723 
L 987.019725 266.475541 
L 987.019725 266.475541 
L 997.598364 251.877245 
L 997.598364 251.877245 
L 1008.529624 256.929974 
L 1008.529624 256.929974 
L 1019.108263 251.105561 
L 1019.108263 251.105561 
L 1030.039523 228.508169 
L 1030.039523 228.508169 
L 1040.970783 207.833082 
L 1040.970783 207.833082 
L 1050.84418 220.255163 
L 1050.84418 220.255163 
L 1061.77544 212.931841 
L 1061.77544 212.931841 
L 1072.354079 224.024602 
L 1072.354079 224.024602 
L 1083.285339 203.212763 
L 1083.285339 203.212763 
L 1093.863978 231.585937 
L 1093.863978 231.585937 
L 1104.795238 252.72861 
L 1104.795238 252.72861 
L 1115.726498 217.730078 
L 1115.726498 217.730078 
L 1126.305137 208.825058 
L 1126.305137 208.825058 
L 1137.236397 217.835842 
L 1137.236397 217.835842 
L 1147.815036 248.766669 
L 1147.815036 248.766669 
L 1158.746296 256.773923 
L 1158.746296 256.773923 
L 1169.677556 246.703669 
L 1169.677556 246.703669 
L 1179.550952 248.293012 
L 1179.550952 248.293012 
L 1190.482213 247.993249 
L 1190.482213 247.993249 
L 1201.060851 228.130971 
L 1201.060851 228.130971 
L 1211.992112 227.762587 
L 1211.992112 227.762587 
L 1222.57075 250.822668 
L 1222.57075 250.822668 
L 1233.502011 248.528571 
L 1233.502011 248.528571 
L 1244.433271 272.750022 
L 1244.433271 272.750022 
L 1255.01191 261.696301 
L 1255.01191 261.696301 
L 1265.94317 293.193081 
L 1265.94317 293.193081 
L 1287.453069 256.287457 
L 1287.453069 256.287457 
L 1298.384329 254.818224 
L 1298.384329 254.818224 
L 1308.257725 253.843397 
L 1319.188985 254.503948 
L 1319.188985 254.503948 
L 1329.767624 261.038807 
L 1329.767624 261.038807 
L 1340.698884 255.54035 
L 1340.698884 255.54035 
L 1351.277523 264.008198 
L 1351.277523 264.008198 
L 1373.140043 258.915935 
L 1373.140043 258.915935 
" clip-path="url(#p9f30fb1a30)" style="fill: none; stroke: #c8f0e6; stroke-width: 1.5; stroke-linecap: round"/>
   </g>
   <g id="line2d_25">
    <path d="M 95.945712 249.704487 
L 170.701427 249.096535 
L 181.632687 252.252492 
L 203.142586 248.654598 
L 214.073846 248.63153 
L 224.652485 247.659572 
L 235.583745 250.999467 
L 246.162384 251.421588 
L 257.093644 241.721728 
L 257.093644 241.721728 
L 268.024904 238.448871 
L 268.024904 238.448871 
L 277.898301 241.031204 
L 277.898301 241.031204 
L 288.829561 210.417186 
L 288.829561 210.417186 
L 299.4082 271.946061 
L 299.4082 271.946061 
L 310.33946 194.735638 
L 310.33946 194.735638 
L 320.918099 247.171699 
L 320.918099 247.171699 
L 331.849359 199.939168 
L 331.849359 199.939168 
L 342.780619 237.641036 
L 342.780619 237.641036 
L 353.359258 230.244636 
L 353.359258 230.244636 
L 364.290518 211.893211 
L 364.290518 211.893211 
L 374.869157 197.860875 
L 374.869157 197.860875 
L 385.800417 193.052673 
L 385.800417 193.052673 
L 396.731677 194.555976 
L 396.731677 194.555976 
L 406.957695 224.055141 
L 406.957695 224.055141 
L 417.888955 241.150059 
L 417.888955 241.150059 
L 428.467594 227.677135 
L 428.467594 227.677135 
L 439.398854 236.455483 
L 439.398854 236.455483 
L 449.977493 217.832734 
L 449.977493 217.832734 
L 460.908753 225.029922 
L 460.908753 225.029922 
L 471.840013 220.54677 
L 471.840013 220.54677 
L 482.418652 224.838234 
L 482.418652 224.838234 
L 493.349912 230.921192 
L 493.349912 230.921192 
L 503.928551 263.076834 
L 503.928551 263.076834 
L 514.859811 210.450715 
L 514.859811 210.450715 
L 525.791071 205.68157 
L 525.791071 205.68157 
L 535.664467 253.560013 
L 535.664467 253.560013 
L 546.595728 231.886092 
L 546.595728 231.886092 
L 557.174366 239.208799 
L 557.174366 239.208799 
L 568.105627 228.596567 
L 568.105627 228.596567 
L 578.684265 195.715742 
L 578.684265 195.715742 
L 589.615526 218.328265 
L 589.615526 218.328265 
L 600.546786 215.247039 
L 600.546786 215.247039 
L 611.125425 224.262717 
L 611.125425 224.262717 
L 622.056685 231.478733 
L 622.056685 231.478733 
L 632.635324 245.09399 
L 632.635324 245.09399 
L 643.566584 204.245711 
L 643.566584 204.245711 
L 654.497844 225.252674 
L 654.497844 225.252674 
L 664.37124 171.845651 
L 664.37124 171.845651 
L 675.3025 261.853765 
L 675.3025 261.853765 
L 685.881139 246.83336 
L 685.881139 246.83336 
L 696.812399 224.065148 
L 696.812399 224.065148 
L 707.391038 212.264867 
L 707.391038 212.264867 
L 718.322298 221.410299 
L 718.322298 221.410299 
L 729.253558 230.928286 
L 729.253558 230.928286 
L 739.832197 239.616646 
L 739.832197 239.616646 
L 750.763457 235.634408 
L 750.763457 235.634408 
L 761.342096 215.022286 
L 761.342096 215.022286 
L 772.273356 198.98038 
L 772.273356 198.98038 
L 783.204617 192.585302 
L 783.204617 192.585302 
L 793.078013 244.12369 
L 793.078013 244.12369 
L 804.009273 225.974569 
L 804.009273 225.974569 
L 814.587912 265.586386 
L 814.587912 265.586386 
L 825.519172 262.211023 
L 825.519172 262.211023 
L 836.097811 221.792609 
L 836.097811 221.792609 
L 847.029071 262.460231 
L 847.029071 262.460231 
L 857.960331 247.773903 
L 857.960331 247.773903 
L 868.53897 229.759911 
L 868.53897 229.759911 
L 879.47023 238.248428 
L 879.47023 238.248428 
L 890.048869 245.351059 
L 890.048869 245.351059 
L 900.980129 253.699524 
L 900.980129 253.699524 
L 911.911389 219.885464 
L 911.911389 219.885464 
L 922.137407 258.687352 
L 922.137407 258.687352 
L 933.068667 264.416823 
L 933.068667 264.416823 
L 943.647306 309.748632 
L 943.647306 309.748632 
L 954.578566 252.947114 
L 954.578566 252.947114 
L 965.157205 303.660218 
L 965.157205 303.660218 
L 976.088465 294.816358 
L 976.088465 294.816358 
L 987.019725 294.759182 
L 987.019725 294.759182 
L 997.598364 255.189333 
L 997.598364 255.189333 
L 1008.529624 257.42792 
L 1008.529624 257.42792 
L 1019.108263 255.145471 
L 1019.108263 255.145471 
L 1030.039523 224.956149 
L 1030.039523 224.956149 
L 1040.970783 208.302612 
L 1040.970783 208.302612 
L 1050.84418 224.627223 
L 1050.84418 224.627223 
L 1061.77544 212.261041 
L 1061.77544 212.261041 
L 1072.354079 219.905412 
L 1072.354079 219.905412 
L 1083.285339 200.446021 
L 1083.285339 200.446021 
L 1093.863978 231.862563 
L 1093.863978 231.862563 
L 1104.795238 251.791455 
L 1104.795238 251.791455 
L 1115.726498 217.667394 
L 1115.726498 217.667394 
L 1126.305137 218.17978 
L 1126.305137 218.17978 
L 1137.236397 220.83668 
L 1137.236397 220.83668 
L 1147.815036 249.494775 
L 1147.815036 249.494775 
L 1158.746296 256.448323 
L 1158.746296 256.448323 
L 1169.677556 247.632534 
L 1169.677556 247.632534 
L 1179.550952 247.811874 
L 1179.550952 247.811874 
L 1190.482213 248.560887 
L 1190.482213 248.560887 
L 1201.060851 227.762913 
L 1201.060851 227.762913 
L 1211.992112 228.166895 
L 1211.992112 228.166895 
L 1222.57075 249.418779 
L 1222.57075 249.418779 
L 1233.502011 250.843396 
L 1233.502011 250.843396 
L 1244.433271 273.109113 
L 1244.433271 273.109113 
L 1255.01191 261.19364 
L 1255.01191 261.19364 
L 1265.94317 292.210495 
L 1265.94317 292.210495 
L 1276.521809 275.052454 
L 1276.521809 275.052454 
L 1287.453069 256.304016 
L 1287.453069 256.304016 
L 1298.384329 254.823921 
L 1298.384329 254.823921 
L 1308.257725 253.828457 
L 1319.188985 254.389473 
L 1319.188985 254.389473 
L 1329.767624 261.514415 
L 1329.767624 261.514415 
L 1340.698884 255.488294 
L 1340.698884 255.488294 
L 1351.277523 263.681248 
L 1351.277523 263.681248 
L 1373.140043 259.540386 
L 1373.140043 259.540386 
" clip-path="url(#p9f30fb1a30)" style="fill: none; stroke: #ffbb00; stroke-width: 1.5; stroke-linecap: round"/>
   </g>
   <g id="line2d_26">
    <path d="M 95.945712 249.857981 
L 160.122788 249.904942 
L 170.701427 249.413698 
L 181.632687 252.328954 
L 203.142586 249.864304 
L 214.073846 251.148937 
L 224.652485 247.680148 
L 235.583745 251.543322 
L 246.162384 251.13475 
L 257.093644 247.946321 
L 257.093644 247.946321 
L 268.024904 242.387922 
L 268.024904 242.387922 
L 277.898301 245.312299 
L 277.898301 245.312299 
L 288.829561 210.204116 
L 288.829561 210.204116 
L 299.4082 255.344131 
L 299.4082 255.344131 
L 310.33946 194.496576 
L 310.33946 194.496576 
L 320.918099 244.086049 
L 320.918099 244.086049 
L 331.849359 192.722295 
L 331.849359 192.722295 
L 342.780619 236.035407 
L 342.780619 236.035407 
L 353.359258 219.546077 
L 353.359258 219.546077 
L 364.290518 203.636771 
L 364.290518 203.636771 
L 374.869157 193.465484 
L 374.869157 193.465484 
L 385.800417 194.483298 
L 385.800417 194.483298 
L 396.731677 198.080624 
L 396.731677 198.080624 
L 406.957695 191.739287 
L 406.957695 191.739287 
L 417.888955 221.550146 
L 417.888955 221.550146 
L 428.467594 234.251346 
L 428.467594 234.251346 
L 439.398854 235.772002 
L 439.398854 235.772002 
L 449.977493 217.737586 
L 449.977493 217.737586 
L 460.908753 255.613167 
L 460.908753 255.613167 
L 471.840013 228.827376 
L 471.840013 228.827376 
L 482.418652 219.248995 
L 482.418652 219.248995 
L 493.349912 234.849899 
L 493.349912 234.849899 
L 503.928551 266.278821 
L 503.928551 266.278821 
L 514.859811 219.833957 
L 514.859811 219.833957 
L 525.791071 225.243252 
L 525.791071 225.243252 
L 535.664467 273.330441 
L 535.664467 273.330441 
L 546.595728 227.657619 
L 546.595728 227.657619 
L 557.174366 248.42773 
L 557.174366 248.42773 
L 568.105627 217.036333 
L 568.105627 217.036333 
L 578.684265 211.722071 
L 578.684265 211.722071 
L 589.615526 243.100563 
L 589.615526 243.100563 
L 600.546786 238.469777 
L 600.546786 238.469777 
L 611.125425 252.385381 
L 611.125425 252.385381 
L 622.056685 212.124711 
L 622.056685 212.124711 
L 632.635324 240.214196 
L 632.635324 240.214196 
L 643.566584 186.752831 
L 643.566584 186.752831 
L 654.497844 219.290348 
L 654.497844 219.290348 
L 664.37124 176.747605 
L 664.37124 176.747605 
L 675.3025 229.194114 
L 675.3025 229.194114 
L 685.881139 245.097223 
L 685.881139 245.097223 
L 696.812399 235.424435 
L 696.812399 235.424435 
L 707.391038 218.653905 
L 707.391038 218.653905 
L 718.322298 234.726797 
L 718.322298 234.726797 
L 729.253558 229.14669 
L 729.253558 229.14669 
L 739.832197 242.951872 
L 739.832197 242.951872 
L 750.763457 230.097632 
L 750.763457 230.097632 
L 761.342096 228.720123 
L 761.342096 228.720123 
L 772.273356 212.356006 
L 772.273356 212.356006 
L 783.204617 210.6278 
L 783.204617 210.6278 
L 793.078013 238.806382 
L 793.078013 238.806382 
L 804.009273 244.333004 
L 804.009273 244.333004 
L 814.587912 260.723231 
L 814.587912 260.723231 
L 825.519172 260.04458 
L 825.519172 260.04458 
L 836.097811 222.078041 
L 836.097811 222.078041 
L 847.029071 263.092685 
L 847.029071 263.092685 
L 857.960331 255.581315 
L 857.960331 255.581315 
L 868.53897 235.291946 
L 868.53897 235.291946 
L 879.47023 234.962864 
L 879.47023 234.962864 
L 890.048869 247.532128 
L 890.048869 247.532128 
L 900.980129 210.852464 
L 900.980129 210.852464 
L 911.911389 237.40224 
L 911.911389 237.40224 
L 922.137407 263.526295 
L 922.137407 263.526295 
L 933.068667 257.180798 
L 933.068667 257.180798 
L 943.647306 275.914393 
L 943.647306 275.914393 
L 954.578566 249.108221 
L 954.578566 249.108221 
L 965.157205 306.230495 
L 965.157205 306.230495 
L 976.088465 289.297563 
L 976.088465 289.297563 
L 987.019725 290.73775 
L 987.019725 290.73775 
L 997.598364 245.833211 
L 997.598364 245.833211 
L 1008.529624 251.248389 
L 1008.529624 251.248389 
L 1019.108263 252.135989 
L 1019.108263 252.135989 
L 1030.039523 253.247546 
L 1030.039523 253.247546 
L 1040.970783 206.172862 
L 1040.970783 206.172862 
L 1050.84418 220.97625 
L 1050.84418 220.97625 
L 1061.77544 207.037141 
L 1061.77544 207.037141 
L 1072.354079 234.18808 
L 1072.354079 234.18808 
L 1083.285339 194.749417 
L 1083.285339 194.749417 
L 1093.863978 232.898806 
L 1093.863978 232.898806 
L 1104.795238 251.974557 
L 1104.795238 251.974557 
L 1115.726498 223.097704 
L 1115.726498 223.097704 
L 1126.305137 212.846034 
L 1126.305137 212.846034 
L 1137.236397 205.497728 
L 1137.236397 205.497728 
L 1147.815036 247.56225 
L 1147.815036 247.56225 
L 1158.746296 258.905959 
L 1158.746296 258.905959 
L 1169.677556 246.068666 
L 1169.677556 246.068666 
L 1179.550952 262.971526 
L 1179.550952 262.971526 
L 1190.482213 247.590416 
L 1190.482213 247.590416 
L 1201.060851 239.371574 
L 1201.060851 239.371574 
L 1211.992112 221.997659 
L 1211.992112 221.997659 
L 1222.57075 280.62182 
L 1222.57075 280.62182 
L 1233.502011 265.426474 
L 1233.502011 265.426474 
L 1244.433271 264.211969 
L 1244.433271 264.211969 
L 1255.01191 282.157379 
L 1255.01191 282.157379 
L 1265.94317 269.471128 
L 1265.94317 269.471128 
L 1276.521809 271.981391 
L 1276.521809 271.981391 
L 1287.453069 256.248697 
L 1287.453069 256.248697 
L 1298.384329 250.227774 
L 1298.384329 250.227774 
L 1308.257725 257.890974 
L 1319.188985 249.70807 
L 1319.188985 249.70807 
L 1329.767624 273.389727 
L 1329.767624 273.389727 
L 1340.698884 249.297111 
L 1340.698884 249.297111 
L 1351.277523 262.410643 
L 1351.277523 262.410643 
L 1373.140043 262.636393 
L 1373.140043 262.636393 
" clip-path="url(#p9f30fb1a30)" style="fill: none; stroke: #dcfae9; stroke-width: 1.5; stroke-linecap: round"/>
   </g>
   <g id="line2d_27">
    <path d="M 95.945712 246.620345 
L 160.122788 249.21075 
L 170.701427 246.182526 
L 181.632687 251.967486 
L 203.142586 246.800672 
L 214.073846 249.674946 
L 224.652485 247.588603 
L 235.583745 251.627818 
L 246.162384 250.967625 
L 257.093644 247.215224 
L 257.093644 247.215224 
L 268.024904 237.396227 
L 268.024904 237.396227 
L 277.898301 239.022949 
L 277.898301 239.022949 
L 288.829561 195.474461 
L 288.829561 195.474461 
L 299.4082 244.333486 
L 299.4082 244.333486 
L 310.33946 171.405086 
L 310.33946 171.405086 
L 320.918099 237.803557 
L 320.918099 237.803557 
L 331.849359 175.768189 
L 331.849359 175.768189 
L 342.780619 229.269412 
L 342.780619 229.269412 
L 353.359258 227.789734 
L 353.359258 227.789734 
L 364.290518 219.988277 
L 364.290518 219.988277 
L 374.869157 199.602718 
L 374.869157 199.602718 
L 385.800417 197.526849 
L 385.800417 197.526849 
L 396.731677 185.409898 
L 396.731677 185.409898 
L 406.957695 195.169672 
L 406.957695 195.169672 
L 417.888955 230.984281 
L 417.888955 230.984281 
L 428.467594 222.53471 
L 428.467594 222.53471 
L 439.398854 231.611886 
L 439.398854 231.611886 
L 449.977493 210.975703 
L 449.977493 210.975703 
L 460.908753 243.603254 
L 460.908753 243.603254 
L 471.840013 230.327763 
L 471.840013 230.327763 
L 482.418652 226.18671 
L 482.418652 226.18671 
L 493.349912 226.167307 
L 493.349912 226.167307 
L 503.928551 269.337064 
L 503.928551 269.337064 
L 514.859811 214.394005 
L 514.859811 214.394005 
L 525.791071 219.574922 
L 525.791071 219.574922 
L 535.664467 288.917794 
L 535.664467 288.917794 
L 546.595728 234.771547 
L 546.595728 234.771547 
L 557.174366 233.118231 
L 557.174366 233.118231 
L 568.105627 213.582521 
L 568.105627 213.582521 
L 578.684265 193.989104 
L 578.684265 193.989104 
L 589.615526 237.69668 
L 589.615526 237.69668 
L 600.546786 226.089525 
L 600.546786 226.089525 
L 611.125425 225.751915 
L 611.125425 225.751915 
L 622.056685 221.486533 
L 622.056685 221.486533 
L 632.635324 260.734414 
L 632.635324 260.734414 
L 643.566584 204.49735 
L 643.566584 204.49735 
L 654.497844 234.840904 
L 654.497844 234.840904 
L 664.37124 163.209237 
L 664.37124 163.209237 
L 675.3025 234.071592 
L 675.3025 234.071592 
L 685.881139 224.753418 
L 685.881139 224.753418 
L 696.812399 228.586552 
L 696.812399 228.586552 
L 707.391038 210.019407 
L 707.391038 210.019407 
L 718.322298 250.083942 
L 718.322298 250.083942 
L 729.253558 223.769493 
L 729.253558 223.769493 
L 739.832197 238.966962 
L 739.832197 238.966962 
L 750.763457 242.433438 
L 750.763457 242.433438 
L 761.342096 222.710937 
L 761.342096 222.710937 
L 772.273356 192.254752 
L 772.273356 192.254752 
L 783.204617 251.226933 
L 783.204617 251.226933 
L 793.078013 234.283618 
L 793.078013 234.283618 
L 804.009273 242.712019 
L 804.009273 242.712019 
L 814.587912 247.944651 
L 814.587912 247.944651 
L 825.519172 226.785925 
L 825.519172 226.785925 
L 836.097811 225.126684 
L 836.097811 225.126684 
L 847.029071 234.503746 
L 847.029071 234.503746 
L 857.960331 222.269439 
L 857.960331 222.269439 
L 868.53897 226.291986 
L 868.53897 226.291986 
L 879.47023 231.441981 
L 879.47023 231.441981 
L 890.048869 254.52835 
L 890.048869 254.52835 
L 900.980129 224.724117 
L 900.980129 224.724117 
L 911.911389 222.592764 
L 911.911389 222.592764 
L 922.137407 258.542044 
L 922.137407 258.542044 
L 933.068667 260.418421 
L 933.068667 260.418421 
L 943.647306 275.303715 
L 943.647306 275.303715 
L 954.578566 251.159753 
L 954.578566 251.159753 
L 965.157205 310.934661 
L 965.157205 310.934661 
L 976.088465 270.682558 
L 976.088465 270.682558 
L 987.019725 283.611638 
L 987.019725 283.611638 
L 997.598364 237.481923 
L 997.598364 237.481923 
L 1008.529624 250.975641 
L 1008.529624 250.975641 
L 1019.108263 266.599265 
L 1019.108263 266.599265 
L 1030.039523 252.548735 
L 1030.039523 252.548735 
L 1040.970783 189.925032 
L 1040.970783 189.925032 
L 1050.84418 234.673412 
L 1050.84418 234.673412 
L 1061.77544 202.819706 
L 1061.77544 202.819706 
L 1072.354079 232.500634 
L 1072.354079 232.500634 
L 1083.285339 198.922336 
L 1083.285339 198.922336 
L 1093.863978 231.053088 
L 1093.863978 231.053088 
L 1104.795238 252.493725 
L 1104.795238 252.493725 
L 1115.726498 241.142979 
L 1115.726498 241.142979 
L 1126.305137 207.289172 
L 1126.305137 207.289172 
L 1137.236397 178.065801 
L 1137.236397 178.065801 
L 1147.815036 259.61126 
L 1147.815036 259.61126 
L 1158.746296 232.370808 
L 1158.746296 232.370808 
L 1190.482213 254.25375 
L 1190.482213 254.25375 
L 1201.060851 239.264671 
L 1201.060851 239.264671 
L 1211.992112 238.778683 
L 1211.992112 238.778683 
L 1222.57075 251.413068 
L 1222.57075 251.413068 
L 1233.502011 271.322363 
L 1233.502011 271.322363 
L 1244.433271 281.173258 
L 1244.433271 281.173258 
L 1255.01191 279.002769 
L 1255.01191 279.002769 
L 1265.94317 269.529046 
L 1265.94317 269.529046 
L 1276.521809 276.454582 
L 1276.521809 276.454582 
L 1287.453069 258.025815 
L 1287.453069 258.025815 
L 1298.384329 254.421976 
L 1298.384329 254.421976 
L 1308.257725 254.162625 
L 1319.188985 251.121967 
L 1319.188985 251.121967 
L 1329.767624 267.989417 
L 1329.767624 267.989417 
L 1340.698884 248.467299 
L 1340.698884 248.467299 
L 1351.277523 262.268676 
L 1373.140043 265.876499 
L 1373.140043 265.876499 
" clip-path="url(#p9f30fb1a30)" style="fill: none; stroke: #a1d9cc; stroke-width: 1.5; stroke-linecap: round"/>
   </g>
   <g id="patch_3">
    <path d="M 32.085996 618.912296 
L 32.085996 17.30242 
" style="fill: none; stroke: #808080; stroke-width: 0.8; stroke-linejoin: miter; stroke-linecap: square"/>
   </g>
   <g id="patch_4">
    <path d="M 32.085996 618.912296 
L 1436.99976 618.912296 
" style="fill: none; stroke: #808080; stroke-width: 0.8; stroke-linejoin: miter; stroke-linecap: square"/>
   </g>
   <g id="text_22">
    <!-- Actual vs. Predicted Total Contribution -->
    <g style="fill: #262626" transform="translate(631.029351 11.30242) scale(0.12 -0.12)">
     <defs>
      <path id="CMR17-41" d="M 2323 4378 
C 2291 4461 2278 4480 2214 4480 
C 2150 4480 2138 4461 2106 4378 
L 749 566 
C 627 223 371 153 147 153 
L 147 -13 
C 262 0 518 0 640 0 
C 800 0 1056 0 1210 -13 
L 1210 153 
C 909 153 864 361 864 439 
C 864 497 877 530 890 569 
L 1229 1536 
L 2906 1536 
L 3290 442 
C 3322 365 3322 352 3322 327 
C 3322 153 3046 153 2925 153 
L 2925 0 
C 3110 0 3443 0 3642 0 
C 3808 0 4128 0 4282 -13 
L 4282 153 
C 3942 153 3827 153 3744 387 
L 2323 4378 
z
M 2067 3893 
L 2848 1702 
L 1286 1702 
L 2067 3893 
z
" transform="scale(0.015625)"/>
      <path id="CMR17-63" d="M 2234 2240 
C 2112 2240 1933 2240 1933 2017 
C 1933 1838 2080 1787 2163 1787 
C 2208 1787 2394 1807 2394 2024 
C 2394 2467 1958 2803 1466 2803 
C 787 2803 211 2178 211 1363 
C 211 516 813 -64 1466 -64 
C 2259 -64 2458 677 2458 748 
C 2458 774 2451 793 2406 793 
C 2362 793 2355 787 2330 703 
C 2163 180 1798 51 1523 51 
C 1114 51 621 427 621 1369 
C 621 2338 1094 2688 1472 2688 
C 1722 2688 2093 2573 2234 2240 
z
" transform="scale(0.015625)"/>
      <path id="CMR17-76" d="M 2502 2163 
C 2560 2304 2662 2560 3034 2560 
L 3034 2726 
C 2912 2726 2752 2726 2630 2726 
C 2496 2726 2285 2726 2157 2732 
L 2157 2566 
C 2317 2553 2406 2477 2406 2311 
C 2406 2253 2406 2240 2368 2151 
L 1664 377 
L 902 2286 
C 864 2369 864 2381 864 2407 
C 864 2560 1075 2560 1171 2560 
L 1171 2732 
C 1018 2726 736 2726 576 2726 
C 403 2726 205 2726 64 2732 
L 64 2560 
C 307 2560 442 2560 518 2362 
L 1446 44 
C 1485 -51 1491 -64 1549 -64 
C 1606 -64 1613 -51 1651 44 
L 2502 2163 
z
" transform="scale(0.015625)"/>
      <path id="CMR17-73" d="M 1978 2697 
C 1978 2813 1971 2819 1933 2819 
C 1907 2819 1901 2813 1824 2717 
C 1805 2691 1747 2626 1728 2601 
C 1523 2819 1235 2819 1126 2819 
C 416 2819 160 2447 160 2076 
C 160 1498 813 1365 998 1325 
C 1402 1243 1542 1217 1677 1101 
C 1760 1025 1901 884 1901 654 
C 1901 384 1747 38 1158 38 
C 602 38 403 460 288 1021 
C 269 1110 269 1117 218 1117 
C 166 1117 160 1110 160 983 
L 160 63 
C 160 -51 166 -58 205 -58 
C 237 -58 243 -51 275 0 
C 314 57 410 211 448 276 
C 576 103 800 -64 1158 -64 
C 1792 -64 2131 283 2131 784 
C 2131 1112 1958 1285 1875 1362 
C 1683 1561 1459 1606 1190 1657 
C 838 1735 390 1825 390 2217 
C 390 2383 480 2737 1126 2737 
C 1811 2737 1850 2094 1862 1888 
C 1869 1856 1901 1849 1920 1849 
C 1978 1849 1978 1869 1978 1978 
L 1978 2697 
z
" transform="scale(0.015625)"/>
      <path id="CMR17-2e" d="M 1062 261 
C 1062 420 934 522 800 522 
C 672 522 538 420 538 261 
C 538 102 666 0 800 0 
C 928 0 1062 102 1062 261 
z
" transform="scale(0.015625)"/>
      <path id="CMR17-50" d="M 1267 2042 
L 2291 2042 
C 3117 2042 3718 2578 3718 3184 
C 3718 3791 3130 4352 2291 4352 
L 333 4352 
L 333 4186 
C 774 4186 845 4186 845 3899 
L 845 446 
C 845 160 774 160 333 160 
L 333 0 
C 518 0 858 0 1056 0 
C 1254 0 1594 0 1779 0 
L 1779 160 
C 1338 160 1267 160 1267 446 
L 1267 2042 
z
M 1254 2176 
L 1254 3938 
C 1254 4155 1267 4186 1523 4186 
L 2170 4186 
C 2995 4186 3232 3714 3232 3184 
C 3232 2604 2950 2176 2170 2176 
L 1254 2176 
z
" transform="scale(0.015625)"/>
      <path id="CMR17-64" d="M 1869 4326 
L 1869 4160 
C 2246 4160 2304 4122 2304 3820 
L 2304 2345 
C 2278 2377 2016 2790 1498 2790 
C 845 2790 211 2208 211 1364 
C 211 525 806 -64 1434 -64 
C 1978 -64 2259 337 2291 380 
L 2291 -63 
L 3066 -63 
L 3066 128 
C 2688 128 2630 166 2630 473 
L 2630 4396 
L 1869 4326 
z
M 2291 755 
C 2291 563 2176 390 2029 262 
C 1811 70 1594 38 1472 38 
C 1286 38 621 134 621 1356 
C 621 2612 1363 2688 1530 2688 
C 1824 2688 2061 2522 2208 2291 
C 2291 2157 2291 2138 2291 2023 
L 2291 755 
z
" transform="scale(0.015625)"/>
     </defs>
     <use xlink:href="#CMR17-41" transform="scale(0.996264)"/>
     <use xlink:href="#CMR17-63" transform="translate(69.07243 0) scale(0.996264)"/>
     <use xlink:href="#CMR17-74" transform="translate(109.55809 0) scale(0.996264)"/>
     <use xlink:href="#CMR17-75" transform="translate(144.838858 0) scale(0.996264)"/>
     <use xlink:href="#CMR17-61" transform="translate(195.734228 0) scale(0.996264)"/>
     <use xlink:href="#CMR17-6c" transform="translate(241.424705 0) scale(0.996264)"/>
     <use xlink:href="#CMR17-76" transform="translate(296.37173 0) scale(0.996264)"/>
     <use xlink:href="#CMR17-73" transform="translate(344.664646 0) scale(0.996264)"/>
     <use xlink:href="#CMR17-2e" transform="translate(380.465983 0) scale(0.996264)"/>
     <use xlink:href="#CMR17-50" transform="translate(445.822702 0) scale(0.996264)"/>
     <use xlink:href="#CMR17-72" transform="translate(508.409003 0) scale(0.996264)"/>
     <use xlink:href="#CMR17-65" transform="translate(543.689771 0) scale(0.996264)"/>
     <use xlink:href="#CMR17-64" transform="translate(584.175431 0) scale(0.996264)"/>
     <use xlink:href="#CMR17-69" transform="translate(635.070801 0) scale(0.996264)"/>
     <use xlink:href="#CMR17-63" transform="translate(659.941859 0) scale(0.996264)"/>
     <use xlink:href="#CMR17-74" transform="translate(700.42752 0) scale(0.996264)"/>
     <use xlink:href="#CMR17-65" transform="translate(735.708288 0) scale(0.996264)"/>
     <use xlink:href="#CMR17-64" transform="translate(776.193948 0) scale(0.996264)"/>
     <use xlink:href="#CMR17-54" transform="translate(857.165284 0) scale(0.996264)"/>
     <use xlink:href="#CMR17-6f" transform="translate(915.867909 0) scale(0.996264)"/>
     <use xlink:href="#CMR17-74" transform="translate(961.558386 0) scale(0.996264)"/>
     <use xlink:href="#CMR17-61" transform="translate(996.839154 0) scale(0.996264)"/>
     <use xlink:href="#CMR17-6c" transform="translate(1042.529631 0) scale(0.996264)"/>
     <use xlink:href="#CMR17-43" transform="translate(1097.476656 0) scale(0.996264)"/>
     <use xlink:href="#CMR17-6f" transform="translate(1163.986537 0) scale(0.996264)"/>
     <use xlink:href="#CMR17-6e" transform="translate(1209.677014 0) scale(0.996264)"/>
     <use xlink:href="#CMR17-74" transform="translate(1257.96993 0) scale(0.996264)"/>
     <use xlink:href="#CMR17-72" transform="translate(1293.250697 0) scale(0.996264)"/>
     <use xlink:href="#CMR17-69" transform="translate(1328.531465 0) scale(0.996264)"/>
     <use xlink:href="#CMR17-62" transform="translate(1353.402524 0) scale(0.996264)"/>
     <use xlink:href="#CMR17-75" transform="translate(1404.297894 0) scale(0.996264)"/>
     <use xlink:href="#CMR17-74" transform="translate(1455.193263 0) scale(0.996264)"/>
     <use xlink:href="#CMR17-69" transform="translate(1490.474031 0) scale(0.996264)"/>
     <use xlink:href="#CMR17-6f" transform="translate(1515.34509 0) scale(0.996264)"/>
     <use xlink:href="#CMR17-6e" transform="translate(1561.035567 0) scale(0.996264)"/>
    </g>
   </g>
   <g id="legend_1">
    <g id="patch_5">
     <path d="M 453.876202 716.998563 
L 1015.209553 716.998563 
Q 1017.209553 716.998563 1017.209553 714.998563 
L 1017.209553 686.073283 
Q 1017.209553 684.073283 1015.209553 684.073283 
L 453.876202 684.073283 
Q 451.876202 684.073283 451.876202 686.073283 
L 451.876202 714.998563 
Q 451.876202 716.998563 453.876202 716.998563 
z
" style="fill: #ffffff; opacity: 0.8"/>
    </g>
    <g id="line2d_28">
     <path d="M 455.876202 692.045263 
L 465.876202 692.045263 
L 475.876202 692.045263 
" style="fill: none; stroke: #006e64; stroke-width: 1.5; stroke-linecap: round"/>
    </g>
    <g id="text_23">
     <!-- Actual -->
     <g style="fill: #262626" transform="translate(483.876202 695.545263) scale(0.1 -0.1)">
      <use xlink:href="#CMR17-41" transform="scale(0.996264)"/>
      <use xlink:href="#CMR17-63" transform="translate(69.07243 0) scale(0.996264)"/>
      <use xlink:href="#CMR17-74" transform="translate(109.55809 0) scale(0.996264)"/>
      <use xlink:href="#CMR17-75" transform="translate(144.838858 0) scale(0.996264)"/>
      <use xlink:href="#CMR17-61" transform="translate(195.734228 0) scale(0.996264)"/>
      <use xlink:href="#CMR17-6c" transform="translate(241.424705 0) scale(0.996264)"/>
     </g>
    </g>
    <g id="line2d_29">
     <path d="M 455.876202 706.454422 
L 465.876202 706.454422 
L 475.876202 706.454422 
" style="fill: none; stroke: #734848; stroke-width: 1.5; stroke-linecap: round"/>
    </g>
    <g id="text_24">
     <!-- Predicted (2 clusters) -->
     <g style="fill: #262626" transform="translate(483.876202 709.954422) scale(0.1 -0.1)">
      <defs>
       <path id="CMR17-28" d="M 1958 -1561 
C 1958 -1555 1958 -1542 1939 -1523 
C 1645 -1224 858 -407 858 1581 
C 858 3569 1632 4379 1946 4697 
C 1946 4704 1958 4717 1958 4736 
C 1958 4755 1939 4768 1914 4768 
C 1843 4768 1299 4296 986 3594 
C 666 2887 576 2199 576 1588 
C 576 1128 621 351 1005 -471 
C 1312 -1135 1837 -1600 1914 -1600 
C 1946 -1600 1958 -1587 1958 -1561 
z
" transform="scale(0.015625)"/>
       <path id="CMR17-29" d="M 1683 1581 
C 1683 2040 1638 2817 1254 3639 
C 947 4303 422 4768 346 4768 
C 326 4768 301 4761 301 4729 
C 301 4717 307 4710 314 4697 
C 621 4378 1402 3568 1402 1584 
C 1402 -407 627 -1217 314 -1537 
C 307 -1549 301 -1556 301 -1568 
C 301 -1600 326 -1600 346 -1600 
C 416 -1600 960 -1128 1274 -426 
C 1594 281 1683 969 1683 1581 
z
" transform="scale(0.015625)"/>
      </defs>
      <use xlink:href="#CMR17-50" transform="scale(0.996264)"/>
      <use xlink:href="#CMR17-72" transform="translate(62.586301 0) scale(0.996264)"/>
      <use xlink:href="#CMR17-65" transform="translate(97.867068 0) scale(0.996264)"/>
      <use xlink:href="#CMR17-64" transform="translate(138.352729 0) scale(0.996264)"/>
      <use xlink:href="#CMR17-69" transform="translate(189.248099 0) scale(0.996264)"/>
      <use xlink:href="#CMR17-63" transform="translate(214.119157 0) scale(0.996264)"/>
      <use xlink:href="#CMR17-74" transform="translate(254.604818 0) scale(0.996264)"/>
      <use xlink:href="#CMR17-65" transform="translate(289.885585 0) scale(0.996264)"/>
      <use xlink:href="#CMR17-64" transform="translate(330.371246 0) scale(0.996264)"/>
      <use xlink:href="#CMR17-28" transform="translate(411.342582 0) scale(0.996264)"/>
      <use xlink:href="#CMR17-32" transform="translate(446.62335 0) scale(0.996264)"/>
      <use xlink:href="#CMR17-63" transform="translate(522.389793 0) scale(0.996264)"/>
      <use xlink:href="#CMR17-6c" transform="translate(562.875454 0) scale(0.996264)"/>
      <use xlink:href="#CMR17-75" transform="translate(587.746512 0) scale(0.996264)"/>
      <use xlink:href="#CMR17-73" transform="translate(638.641882 0) scale(0.996264)"/>
      <use xlink:href="#CMR17-74" transform="translate(674.44322 0) scale(0.996264)"/>
      <use xlink:href="#CMR17-65" transform="translate(709.723987 0) scale(0.996264)"/>
      <use xlink:href="#CMR17-72" transform="translate(750.209648 0) scale(0.996264)"/>
      <use xlink:href="#CMR17-73" transform="translate(785.490416 0) scale(0.996264)"/>
      <use xlink:href="#CMR17-29" transform="translate(821.291753 0) scale(0.996264)"/>
     </g>
    </g>
    <g id="line2d_30">
     <path d="M 597.718873 692.045263 
L 607.718873 692.045263 
L 617.718873 692.045263 
" style="fill: none; stroke: #004e4a; stroke-width: 1.5; stroke-linecap: round"/>
    </g>
    <g id="text_25">
     <!-- Predicted (4 clusters) -->
     <g style="fill: #262626" transform="translate(625.718873 695.545263) scale(0.1 -0.1)">
      <use xlink:href="#CMR17-50" transform="scale(0.996264)"/>
      <use xlink:href="#CMR17-72" transform="translate(62.586301 0) scale(0.996264)"/>
      <use xlink:href="#CMR17-65" transform="translate(97.867068 0) scale(0.996264)"/>
      <use xlink:href="#CMR17-64" transform="translate(138.352729 0) scale(0.996264)"/>
      <use xlink:href="#CMR17-69" transform="translate(189.248099 0) scale(0.996264)"/>
      <use xlink:href="#CMR17-63" transform="translate(214.119157 0) scale(0.996264)"/>
      <use xlink:href="#CMR17-74" transform="translate(254.604818 0) scale(0.996264)"/>
      <use xlink:href="#CMR17-65" transform="translate(289.885585 0) scale(0.996264)"/>
      <use xlink:href="#CMR17-64" transform="translate(330.371246 0) scale(0.996264)"/>
      <use xlink:href="#CMR17-28" transform="translate(411.342582 0) scale(0.996264)"/>
      <use xlink:href="#CMR17-34" transform="translate(446.62335 0) scale(0.996264)"/>
      <use xlink:href="#CMR17-63" transform="translate(522.389793 0) scale(0.996264)"/>
      <use xlink:href="#CMR17-6c" transform="translate(562.875454 0) scale(0.996264)"/>
      <use xlink:href="#CMR17-75" transform="translate(587.746512 0) scale(0.996264)"/>
      <use xlink:href="#CMR17-73" transform="translate(638.641882 0) scale(0.996264)"/>
      <use xlink:href="#CMR17-74" transform="translate(674.44322 0) scale(0.996264)"/>
      <use xlink:href="#CMR17-65" transform="translate(709.723987 0) scale(0.996264)"/>
      <use xlink:href="#CMR17-72" transform="translate(750.209648 0) scale(0.996264)"/>
      <use xlink:href="#CMR17-73" transform="translate(785.490416 0) scale(0.996264)"/>
      <use xlink:href="#CMR17-29" transform="translate(821.291753 0) scale(0.996264)"/>
     </g>
    </g>
    <g id="line2d_31">
     <path d="M 597.718873 707.007903 
L 607.718873 707.007903 
L 617.718873 707.007903 
" style="fill: none; stroke: #c17150; stroke-width: 1.5; stroke-linecap: round"/>
    </g>
    <g id="text_26">
     <!-- Predicted (6 clusters) -->
     <g style="fill: #262626" transform="translate(625.718873 710.507903) scale(0.1 -0.1)">
      <use xlink:href="#CMR17-50" transform="scale(0.996264)"/>
      <use xlink:href="#CMR17-72" transform="translate(62.586301 0) scale(0.996264)"/>
      <use xlink:href="#CMR17-65" transform="translate(97.867068 0) scale(0.996264)"/>
      <use xlink:href="#CMR17-64" transform="translate(138.352729 0) scale(0.996264)"/>
      <use xlink:href="#CMR17-69" transform="translate(189.248099 0) scale(0.996264)"/>
      <use xlink:href="#CMR17-63" transform="translate(214.119157 0) scale(0.996264)"/>
      <use xlink:href="#CMR17-74" transform="translate(254.604818 0) scale(0.996264)"/>
      <use xlink:href="#CMR17-65" transform="translate(289.885585 0) scale(0.996264)"/>
      <use xlink:href="#CMR17-64" transform="translate(330.371246 0) scale(0.996264)"/>
      <use xlink:href="#CMR17-28" transform="translate(411.342582 0) scale(0.996264)"/>
      <use xlink:href="#CMR17-36" transform="translate(446.62335 0) scale(0.996264)"/>
      <use xlink:href="#CMR17-63" transform="translate(522.389793 0) scale(0.996264)"/>
      <use xlink:href="#CMR17-6c" transform="translate(562.875454 0) scale(0.996264)"/>
      <use xlink:href="#CMR17-75" transform="translate(587.746512 0) scale(0.996264)"/>
      <use xlink:href="#CMR17-73" transform="translate(638.641882 0) scale(0.996264)"/>
      <use xlink:href="#CMR17-74" transform="translate(674.44322 0) scale(0.996264)"/>
      <use xlink:href="#CMR17-65" transform="translate(709.723987 0) scale(0.996264)"/>
      <use xlink:href="#CMR17-72" transform="translate(750.209648 0) scale(0.996264)"/>
      <use xlink:href="#CMR17-73" transform="translate(785.490416 0) scale(0.996264)"/>
      <use xlink:href="#CMR17-29" transform="translate(821.291753 0) scale(0.996264)"/>
     </g>
    </g>
    <g id="line2d_32">
     <path d="M 739.561543 692.045263 
L 749.561543 692.045263 
L 759.561543 692.045263 
" style="fill: none; stroke: #c8f0e6; stroke-width: 1.5; stroke-linecap: round"/>
    </g>
    <g id="text_27">
     <!-- Predicted (8 clusters) -->
     <g style="fill: #262626" transform="translate(767.561543 695.545263) scale(0.1 -0.1)">
      <use xlink:href="#CMR17-50" transform="scale(0.996264)"/>
      <use xlink:href="#CMR17-72" transform="translate(62.586301 0) scale(0.996264)"/>
      <use xlink:href="#CMR17-65" transform="translate(97.867068 0) scale(0.996264)"/>
      <use xlink:href="#CMR17-64" transform="translate(138.352729 0) scale(0.996264)"/>
      <use xlink:href="#CMR17-69" transform="translate(189.248099 0) scale(0.996264)"/>
      <use xlink:href="#CMR17-63" transform="translate(214.119157 0) scale(0.996264)"/>
      <use xlink:href="#CMR17-74" transform="translate(254.604818 0) scale(0.996264)"/>
      <use xlink:href="#CMR17-65" transform="translate(289.885585 0) scale(0.996264)"/>
      <use xlink:href="#CMR17-64" transform="translate(330.371246 0) scale(0.996264)"/>
      <use xlink:href="#CMR17-28" transform="translate(411.342582 0) scale(0.996264)"/>
      <use xlink:href="#CMR17-38" transform="translate(446.62335 0) scale(0.996264)"/>
      <use xlink:href="#CMR17-63" transform="translate(522.389793 0) scale(0.996264)"/>
      <use xlink:href="#CMR17-6c" transform="translate(562.875454 0) scale(0.996264)"/>
      <use xlink:href="#CMR17-75" transform="translate(587.746512 0) scale(0.996264)"/>
      <use xlink:href="#CMR17-73" transform="translate(638.641882 0) scale(0.996264)"/>
      <use xlink:href="#CMR17-74" transform="translate(674.44322 0) scale(0.996264)"/>
      <use xlink:href="#CMR17-65" transform="translate(709.723987 0) scale(0.996264)"/>
      <use xlink:href="#CMR17-72" transform="translate(750.209648 0) scale(0.996264)"/>
      <use xlink:href="#CMR17-73" transform="translate(785.490416 0) scale(0.996264)"/>
      <use xlink:href="#CMR17-29" transform="translate(821.291753 0) scale(0.996264)"/>
     </g>
    </g>
    <g id="line2d_33">
     <path d="M 739.561543 707.007903 
L 749.561543 707.007903 
L 759.561543 707.007903 
" style="fill: none; stroke: #ffbb00; stroke-width: 1.5; stroke-linecap: round"/>
    </g>
    <g id="text_28">
     <!-- Predicted (10 clusters) -->
     <g style="fill: #262626" transform="translate(767.561543 710.507903) scale(0.1 -0.1)">
      <use xlink:href="#CMR17-50" transform="scale(0.996264)"/>
      <use xlink:href="#CMR17-72" transform="translate(62.586301 0) scale(0.996264)"/>
      <use xlink:href="#CMR17-65" transform="translate(97.867068 0) scale(0.996264)"/>
      <use xlink:href="#CMR17-64" transform="translate(138.352729 0) scale(0.996264)"/>
      <use xlink:href="#CMR17-69" transform="translate(189.248099 0) scale(0.996264)"/>
      <use xlink:href="#CMR17-63" transform="translate(214.119157 0) scale(0.996264)"/>
      <use xlink:href="#CMR17-74" transform="translate(254.604818 0) scale(0.996264)"/>
      <use xlink:href="#CMR17-65" transform="translate(289.885585 0) scale(0.996264)"/>
      <use xlink:href="#CMR17-64" transform="translate(330.371246 0) scale(0.996264)"/>
      <use xlink:href="#CMR17-28" transform="translate(411.342582 0) scale(0.996264)"/>
      <use xlink:href="#CMR17-31" transform="translate(446.62335 0) scale(0.996264)"/>
      <use xlink:href="#CMR17-30" transform="translate(492.313827 0) scale(0.996264)"/>
      <use xlink:href="#CMR17-63" transform="translate(568.08027 0) scale(0.996264)"/>
      <use xlink:href="#CMR17-6c" transform="translate(608.565931 0) scale(0.996264)"/>
      <use xlink:href="#CMR17-75" transform="translate(633.436989 0) scale(0.996264)"/>
      <use xlink:href="#CMR17-73" transform="translate(684.332359 0) scale(0.996264)"/>
      <use xlink:href="#CMR17-74" transform="translate(720.133697 0) scale(0.996264)"/>
      <use xlink:href="#CMR17-65" transform="translate(755.414464 0) scale(0.996264)"/>
      <use xlink:href="#CMR17-72" transform="translate(795.900125 0) scale(0.996264)"/>
      <use xlink:href="#CMR17-73" transform="translate(831.180893 0) scale(0.996264)"/>
      <use xlink:href="#CMR17-29" transform="translate(866.98223 0) scale(0.996264)"/>
     </g>
    </g>
    <g id="line2d_34">
     <path d="M 886.385548 692.045263 
L 896.385548 692.045263 
L 906.385548 692.045263 
" style="fill: none; stroke: #dcfae9; stroke-width: 1.5; stroke-linecap: round"/>
    </g>
    <g id="text_29">
     <!-- Predicted (12 clusters) -->
     <g style="fill: #262626" transform="translate(914.385548 695.545263) scale(0.1 -0.1)">
      <use xlink:href="#CMR17-50" transform="scale(0.996264)"/>
      <use xlink:href="#CMR17-72" transform="translate(62.586301 0) scale(0.996264)"/>
      <use xlink:href="#CMR17-65" transform="translate(97.867068 0) scale(0.996264)"/>
      <use xlink:href="#CMR17-64" transform="translate(138.352729 0) scale(0.996264)"/>
      <use xlink:href="#CMR17-69" transform="translate(189.248099 0) scale(0.996264)"/>
      <use xlink:href="#CMR17-63" transform="translate(214.119157 0) scale(0.996264)"/>
      <use xlink:href="#CMR17-74" transform="translate(254.604818 0) scale(0.996264)"/>
      <use xlink:href="#CMR17-65" transform="translate(289.885585 0) scale(0.996264)"/>
      <use xlink:href="#CMR17-64" transform="translate(330.371246 0) scale(0.996264)"/>
      <use xlink:href="#CMR17-28" transform="translate(411.342582 0) scale(0.996264)"/>
      <use xlink:href="#CMR17-31" transform="translate(446.62335 0) scale(0.996264)"/>
      <use xlink:href="#CMR17-32" transform="translate(492.313827 0) scale(0.996264)"/>
      <use xlink:href="#CMR17-63" transform="translate(568.08027 0) scale(0.996264)"/>
      <use xlink:href="#CMR17-6c" transform="translate(608.565931 0) scale(0.996264)"/>
      <use xlink:href="#CMR17-75" transform="translate(633.436989 0) scale(0.996264)"/>
      <use xlink:href="#CMR17-73" transform="translate(684.332359 0) scale(0.996264)"/>
      <use xlink:href="#CMR17-74" transform="translate(720.133697 0) scale(0.996264)"/>
      <use xlink:href="#CMR17-65" transform="translate(755.414464 0) scale(0.996264)"/>
      <use xlink:href="#CMR17-72" transform="translate(795.900125 0) scale(0.996264)"/>
      <use xlink:href="#CMR17-73" transform="translate(831.180893 0) scale(0.996264)"/>
      <use xlink:href="#CMR17-29" transform="translate(866.98223 0) scale(0.996264)"/>
     </g>
    </g>
    <g id="line2d_35">
     <path d="M 886.385548 707.007903 
L 896.385548 707.007903 
L 906.385548 707.007903 
" style="fill: none; stroke: #a1d9cc; stroke-width: 1.5; stroke-linecap: round"/>
    </g>
    <g id="text_30">
     <!-- Predicted (14 clusters) -->
     <g style="fill: #262626" transform="translate(914.385548 710.507903) scale(0.1 -0.1)">
      <use xlink:href="#CMR17-50" transform="scale(0.996264)"/>
      <use xlink:href="#CMR17-72" transform="translate(62.586301 0) scale(0.996264)"/>
      <use xlink:href="#CMR17-65" transform="translate(97.867068 0) scale(0.996264)"/>
      <use xlink:href="#CMR17-64" transform="translate(138.352729 0) scale(0.996264)"/>
      <use xlink:href="#CMR17-69" transform="translate(189.248099 0) scale(0.996264)"/>
      <use xlink:href="#CMR17-63" transform="translate(214.119157 0) scale(0.996264)"/>
      <use xlink:href="#CMR17-74" transform="translate(254.604818 0) scale(0.996264)"/>
      <use xlink:href="#CMR17-65" transform="translate(289.885585 0) scale(0.996264)"/>
      <use xlink:href="#CMR17-64" transform="translate(330.371246 0) scale(0.996264)"/>
      <use xlink:href="#CMR17-28" transform="translate(411.342582 0) scale(0.996264)"/>
      <use xlink:href="#CMR17-31" transform="translate(446.62335 0) scale(0.996264)"/>
      <use xlink:href="#CMR17-34" transform="translate(492.313827 0) scale(0.996264)"/>
      <use xlink:href="#CMR17-63" transform="translate(568.08027 0) scale(0.996264)"/>
      <use xlink:href="#CMR17-6c" transform="translate(608.565931 0) scale(0.996264)"/>
      <use xlink:href="#CMR17-75" transform="translate(633.436989 0) scale(0.996264)"/>
      <use xlink:href="#CMR17-73" transform="translate(684.332359 0) scale(0.996264)"/>
      <use xlink:href="#CMR17-74" transform="translate(720.133697 0) scale(0.996264)"/>
      <use xlink:href="#CMR17-65" transform="translate(755.414464 0) scale(0.996264)"/>
      <use xlink:href="#CMR17-72" transform="translate(795.900125 0) scale(0.996264)"/>
      <use xlink:href="#CMR17-73" transform="translate(831.180893 0) scale(0.996264)"/>
      <use xlink:href="#CMR17-29" transform="translate(866.98223 0) scale(0.996264)"/>
     </g>
    </g>
   </g>
  </g>
 </g>
 <defs>
  <clipPath id="p9f30fb1a30">
   <rect x="32.085996" y="17.30242" width="1404.913764" height="601.609876"/>
  </clipPath>
 </defs>
</svg>
