<?xml version="1.0" encoding="utf-8" standalone="no"?>
<!DOCTYPE svg PUBLIC "-//W3C//DTD SVG 1.1//EN"
  "http://www.w3.org/Graphics/SVG/1.1/DTD/svg11.dtd">
<svg xmlns:xlink="http://www.w3.org/1999/xlink" width="1440pt" height="720pt" viewBox="0 0 1440 720" xmlns="http://www.w3.org/2000/svg" version="1.1">
 <metadata>
  <rdf:RDF xmlns:dc="http://purl.org/dc/elements/1.1/" xmlns:cc="http://creativecommons.org/ns#" xmlns:rdf="http://www.w3.org/1999/02/22-rdf-syntax-ns#">
   <cc:Work>
    <dc:type rdf:resource="http://purl.org/dc/dcmitype/StillImage"/>
    <dc:date>2023-11-02T11:37:49.711509</dc:date>
    <dc:format>image/svg+xml</dc:format>
    <dc:creator>
     <cc:Agent>
      <dc:title>Matplotlib v3.8.0, https://matplotlib.org/</dc:title>
     </cc:Agent>
    </dc:creator>
   </cc:Work>
  </rdf:RDF>
 </metadata>
 <defs>
  <style type="text/css">*{stroke-linejoin: round; stroke-linecap: butt}</style>
 </defs>
 <g id="figure_1">
  <g id="patch_1">
   <path d="M 0 720 
L 1440 720 
L 1440 0 
L 0 0 
z
" style="fill: #ffffff"/>
  </g>
  <g id="axes_1">
   <g id="patch_2">
    <path d="M 39.281258 620.772952 
L 1436.99976 620.772952 
L 1436.99976 17.30242 
L 39.281258 17.30242 
z
" style="fill: #ffffff"/>
   </g>
   <g id="matplotlib.axis_1">
    <g id="xtick_1">
     <g id="line2d_1">
      <path d="M 102.813917 620.772952 
L 102.813917 17.30242 
" clip-path="url(#pe3a539045a)" style="fill: none; stroke: #cccccc; stroke-opacity: 0.5; stroke-width: 0.8; stroke-linecap: round"/>
     </g>
     <g id="text_1">
      <!-- $\mathdefault{2015}$ -->
      <g transform="translate(92.851246 631.19145) scale(0.1 -0.1)">
       <defs>
        <path id="CMR17-32" d="M 2669 989 
L 2554 989 
C 2490 536 2438 459 2413 420 
C 2381 369 1920 369 1830 369 
L 602 369 
C 832 619 1280 1072 1824 1597 
C 2214 1967 2669 2402 2669 3035 
C 2669 3790 2067 4224 1395 4224 
C 691 4224 262 3604 262 3030 
C 262 2780 448 2748 525 2748 
C 589 2748 781 2787 781 3010 
C 781 3207 614 3264 525 3264 
C 486 3264 448 3258 422 3245 
C 544 3790 915 4058 1306 4058 
C 1862 4058 2227 3617 2227 3035 
C 2227 2479 1901 2000 1536 1584 
L 262 146 
L 262 0 
L 2515 0 
L 2669 989 
z
" transform="scale(0.015625)"/>
        <path id="CMR17-30" d="M 2688 2025 
C 2688 2416 2682 3080 2413 3591 
C 2176 4039 1798 4198 1466 4198 
C 1158 4198 768 4058 525 3597 
C 269 3118 243 2524 243 2025 
C 243 1661 250 1106 448 619 
C 723 -39 1216 -128 1466 -128 
C 1760 -128 2208 -7 2470 600 
C 2662 1042 2688 1559 2688 2025 
z
M 1466 -26 
C 1056 -26 813 325 723 812 
C 653 1188 653 1738 653 2096 
C 653 2588 653 2997 736 3387 
C 858 3929 1216 4096 1466 4096 
C 1728 4096 2067 3923 2189 3400 
C 2272 3036 2278 2607 2278 2096 
C 2278 1680 2278 1169 2202 792 
C 2067 95 1690 -26 1466 -26 
z
" transform="scale(0.015625)"/>
        <path id="CMR17-31" d="M 1702 4058 
C 1702 4192 1696 4192 1606 4192 
C 1357 3916 979 3827 621 3827 
C 602 3827 570 3827 563 3808 
C 557 3795 557 3782 557 3648 
C 755 3648 1088 3686 1344 3839 
L 1344 461 
C 1344 236 1331 160 781 160 
L 589 160 
L 589 0 
C 896 0 1216 0 1523 0 
C 1830 0 2150 0 2458 0 
L 2458 160 
L 2266 160 
C 1715 160 1702 230 1702 458 
L 1702 4058 
z
" transform="scale(0.015625)"/>
        <path id="CMR17-35" d="M 730 3692 
C 794 3666 1056 3584 1325 3584 
C 1920 3584 2246 3911 2432 4100 
C 2432 4157 2432 4192 2394 4192 
C 2387 4192 2374 4192 2323 4163 
C 2099 4058 1837 3973 1517 3973 
C 1325 3973 1037 3999 723 4139 
C 653 4171 640 4171 634 4171 
C 602 4171 595 4164 595 4037 
L 595 2203 
C 595 2089 595 2057 659 2057 
C 691 2057 704 2070 736 2114 
C 941 2401 1222 2522 1542 2522 
C 1766 2522 2246 2382 2246 1289 
C 2246 1085 2246 715 2054 421 
C 1894 159 1645 25 1370 25 
C 947 25 518 320 403 814 
C 429 807 480 795 506 795 
C 589 795 749 840 749 1038 
C 749 1210 627 1280 506 1280 
C 358 1280 262 1190 262 1011 
C 262 454 704 -128 1382 -128 
C 2042 -128 2669 440 2669 1264 
C 2669 2030 2170 2624 1549 2624 
C 1222 2624 947 2503 730 2274 
L 730 3692 
z
" transform="scale(0.015625)"/>
       </defs>
       <use xlink:href="#CMR17-32" transform="scale(0.996264)"/>
       <use xlink:href="#CMR17-30" transform="translate(45.690477 0) scale(0.996264)"/>
       <use xlink:href="#CMR17-31" transform="translate(91.380954 0) scale(0.996264)"/>
       <use xlink:href="#CMR17-35" transform="translate(137.071431 0) scale(0.996264)"/>
      </g>
     </g>
    </g>
    <g id="xtick_2">
     <g id="line2d_2">
      <path d="M 249.35054 620.772952 
L 249.35054 17.30242 
" clip-path="url(#pe3a539045a)" style="fill: none; stroke: #cccccc; stroke-opacity: 0.5; stroke-width: 0.8; stroke-linecap: round"/>
     </g>
     <g id="text_2">
      <!-- $\mathdefault{2016}$ -->
      <g transform="translate(239.38787 631.19145) scale(0.1 -0.1)">
       <defs>
        <path id="CMR17-36" d="M 678 2176 
C 678 3690 1395 4032 1811 4032 
C 1946 4032 2272 4009 2400 3776 
C 2298 3776 2106 3776 2106 3553 
C 2106 3381 2246 3323 2336 3323 
C 2394 3323 2566 3348 2566 3560 
C 2566 3954 2246 4179 1805 4179 
C 1043 4179 243 3390 243 1984 
C 243 253 966 -128 1478 -128 
C 2099 -128 2688 427 2688 1283 
C 2688 2081 2170 2662 1517 2662 
C 1126 2662 838 2407 678 1960 
L 678 2176 
z
M 1478 25 
C 691 25 691 1200 691 1436 
C 691 1896 909 2560 1504 2560 
C 1613 2560 1926 2560 2138 2120 
C 2253 1870 2253 1609 2253 1289 
C 2253 944 2253 690 2118 434 
C 1978 171 1773 25 1478 25 
z
" transform="scale(0.015625)"/>
       </defs>
       <use xlink:href="#CMR17-32" transform="scale(0.996264)"/>
       <use xlink:href="#CMR17-30" transform="translate(45.690477 0) scale(0.996264)"/>
       <use xlink:href="#CMR17-31" transform="translate(91.380954 0) scale(0.996264)"/>
       <use xlink:href="#CMR17-36" transform="translate(137.071431 0) scale(0.996264)"/>
      </g>
     </g>
    </g>
    <g id="xtick_3">
     <g id="line2d_3">
      <path d="M 396.288633 620.772952 
L 396.288633 17.30242 
" clip-path="url(#pe3a539045a)" style="fill: none; stroke: #cccccc; stroke-opacity: 0.5; stroke-width: 0.8; stroke-linecap: round"/>
     </g>
     <g id="text_3">
      <!-- $\mathdefault{2017}$ -->
      <g transform="translate(386.325963 631.19145) scale(0.1 -0.1)">
       <defs>
        <path id="CMR17-37" d="M 2886 3941 
L 2886 4081 
L 1382 4081 
C 634 4081 621 4165 595 4288 
L 480 4288 
L 294 3094 
L 410 3094 
C 429 3215 474 3540 550 3661 
C 589 3712 1062 3712 1171 3712 
L 2579 3712 
L 1869 2661 
C 1395 1954 1069 999 1069 165 
C 1069 89 1069 -128 1299 -128 
C 1530 -128 1530 89 1530 171 
L 1530 465 
C 1530 1508 1709 2196 2003 2636 
L 2886 3941 
z
" transform="scale(0.015625)"/>
       </defs>
       <use xlink:href="#CMR17-32" transform="scale(0.996264)"/>
       <use xlink:href="#CMR17-30" transform="translate(45.690477 0) scale(0.996264)"/>
       <use xlink:href="#CMR17-31" transform="translate(91.380954 0) scale(0.996264)"/>
       <use xlink:href="#CMR17-37" transform="translate(137.071431 0) scale(0.996264)"/>
      </g>
     </g>
    </g>
    <g id="xtick_4">
     <g id="line2d_4">
      <path d="M 542.825256 620.772952 
L 542.825256 17.30242 
" clip-path="url(#pe3a539045a)" style="fill: none; stroke: #cccccc; stroke-opacity: 0.5; stroke-width: 0.8; stroke-linecap: round"/>
     </g>
     <g id="text_4">
      <!-- $\mathdefault{2018}$ -->
      <g transform="translate(532.862586 631.19145) scale(0.1 -0.1)">
       <defs>
        <path id="CMR17-38" d="M 1741 2264 
C 2144 2467 2554 2773 2554 3263 
C 2554 3841 1990 4179 1472 4179 
C 890 4179 378 3759 378 3180 
C 378 3021 416 2747 666 2505 
C 730 2442 998 2251 1171 2130 
C 883 1983 211 1634 211 934 
C 211 279 838 -128 1459 -128 
C 2144 -128 2720 362 2720 1010 
C 2720 1590 2330 1857 2074 2029 
L 1741 2264 
z
M 902 2822 
C 851 2854 595 3051 595 3351 
C 595 3739 998 4032 1459 4032 
C 1965 4032 2336 3676 2336 3262 
C 2336 2669 1670 2331 1638 2331 
C 1632 2331 1626 2331 1574 2370 
L 902 2822 
z
M 2080 1519 
C 2176 1449 2483 1240 2483 851 
C 2483 381 2010 25 1472 25 
C 890 25 448 438 448 940 
C 448 1443 838 1862 1280 2060 
L 2080 1519 
z
" transform="scale(0.015625)"/>
       </defs>
       <use xlink:href="#CMR17-32" transform="scale(0.996264)"/>
       <use xlink:href="#CMR17-30" transform="translate(45.690477 0) scale(0.996264)"/>
       <use xlink:href="#CMR17-31" transform="translate(91.380954 0) scale(0.996264)"/>
       <use xlink:href="#CMR17-38" transform="translate(137.071431 0) scale(0.996264)"/>
      </g>
     </g>
    </g>
    <g id="xtick_5">
     <g id="line2d_5">
      <path d="M 689.36188 620.772952 
L 689.36188 17.30242 
" clip-path="url(#pe3a539045a)" style="fill: none; stroke: #cccccc; stroke-opacity: 0.5; stroke-width: 0.8; stroke-linecap: round"/>
     </g>
     <g id="text_5">
      <!-- $\mathdefault{2019}$ -->
      <g transform="translate(679.399209 631.19145) scale(0.1 -0.1)">
       <defs>
        <path id="CMR17-39" d="M 2253 1864 
C 2253 464 1670 31 1190 31 
C 1043 31 685 31 538 294 
C 704 268 826 357 826 518 
C 826 692 685 749 595 749 
C 538 749 365 723 365 506 
C 365 71 742 -128 1203 -128 
C 1939 -128 2688 674 2688 2073 
C 2688 3817 1971 4179 1485 4179 
C 851 4179 243 3628 243 2778 
C 243 1991 762 1408 1414 1408 
C 1952 1408 2189 1903 2253 2112 
L 2253 1864 
z
M 1427 1510 
C 1254 1510 1011 1542 813 1922 
C 678 2169 678 2461 678 2771 
C 678 3146 678 3405 858 3684 
C 947 3817 1114 4032 1485 4032 
C 2240 4032 2240 2885 2240 2632 
C 2240 2182 2035 1510 1427 1510 
z
" transform="scale(0.015625)"/>
       </defs>
       <use xlink:href="#CMR17-32" transform="scale(0.996264)"/>
       <use xlink:href="#CMR17-30" transform="translate(45.690477 0) scale(0.996264)"/>
       <use xlink:href="#CMR17-31" transform="translate(91.380954 0) scale(0.996264)"/>
       <use xlink:href="#CMR17-39" transform="translate(137.071431 0) scale(0.996264)"/>
      </g>
     </g>
    </g>
    <g id="xtick_6">
     <g id="line2d_6">
      <path d="M 835.898503 620.772952 
L 835.898503 17.30242 
" clip-path="url(#pe3a539045a)" style="fill: none; stroke: #cccccc; stroke-opacity: 0.5; stroke-width: 0.8; stroke-linecap: round"/>
     </g>
     <g id="text_6">
      <!-- $\mathdefault{2020}$ -->
      <g transform="translate(825.935832 631.19145) scale(0.1 -0.1)">
       <use xlink:href="#CMR17-32" transform="scale(0.996264)"/>
       <use xlink:href="#CMR17-30" transform="translate(45.690477 0) scale(0.996264)"/>
       <use xlink:href="#CMR17-32" transform="translate(91.380954 0) scale(0.996264)"/>
       <use xlink:href="#CMR17-30" transform="translate(137.071431 0) scale(0.996264)"/>
      </g>
     </g>
    </g>
    <g id="xtick_7">
     <g id="line2d_7">
      <path d="M 982.836596 620.772952 
L 982.836596 17.30242 
" clip-path="url(#pe3a539045a)" style="fill: none; stroke: #cccccc; stroke-opacity: 0.5; stroke-width: 0.8; stroke-linecap: round"/>
     </g>
     <g id="text_7">
      <!-- $\mathdefault{2021}$ -->
      <g transform="translate(972.873925 631.19145) scale(0.1 -0.1)">
       <use xlink:href="#CMR17-32" transform="scale(0.996264)"/>
       <use xlink:href="#CMR17-30" transform="translate(45.690477 0) scale(0.996264)"/>
       <use xlink:href="#CMR17-32" transform="translate(91.380954 0) scale(0.996264)"/>
       <use xlink:href="#CMR17-31" transform="translate(137.071431 0) scale(0.996264)"/>
      </g>
     </g>
    </g>
    <g id="xtick_8">
     <g id="line2d_8">
      <path d="M 1129.373219 620.772952 
L 1129.373219 17.30242 
" clip-path="url(#pe3a539045a)" style="fill: none; stroke: #cccccc; stroke-opacity: 0.5; stroke-width: 0.8; stroke-linecap: round"/>
     </g>
     <g id="text_8">
      <!-- $\mathdefault{2022}$ -->
      <g transform="translate(1119.410549 631.19145) scale(0.1 -0.1)">
       <use xlink:href="#CMR17-32" transform="scale(0.996264)"/>
       <use xlink:href="#CMR17-30" transform="translate(45.690477 0) scale(0.996264)"/>
       <use xlink:href="#CMR17-32" transform="translate(91.380954 0) scale(0.996264)"/>
       <use xlink:href="#CMR17-32" transform="translate(137.071431 0) scale(0.996264)"/>
      </g>
     </g>
    </g>
    <g id="xtick_9">
     <g id="line2d_9">
      <path d="M 1275.909842 620.772952 
L 1275.909842 17.30242 
" clip-path="url(#pe3a539045a)" style="fill: none; stroke: #cccccc; stroke-opacity: 0.5; stroke-width: 0.8; stroke-linecap: round"/>
     </g>
     <g id="text_9">
      <!-- $\mathdefault{2023}$ -->
      <g transform="translate(1265.947172 631.19145) scale(0.1 -0.1)">
       <defs>
        <path id="CMR17-33" d="M 1414 2157 
C 1984 2157 2234 1662 2234 1090 
C 2234 320 1824 25 1453 25 
C 1114 25 563 194 390 693 
C 422 680 454 680 486 680 
C 640 680 755 782 755 948 
C 755 1133 614 1216 486 1216 
C 378 1216 211 1165 211 926 
C 211 335 787 -128 1466 -128 
C 2176 -128 2720 430 2720 1085 
C 2720 1707 2208 2157 1600 2227 
C 2086 2328 2554 2756 2554 3329 
C 2554 3820 2048 4179 1472 4179 
C 890 4179 378 3829 378 3329 
C 378 3110 544 3072 627 3072 
C 762 3072 877 3155 877 3321 
C 877 3486 762 3569 627 3569 
C 602 3569 570 3569 544 3557 
C 730 3959 1235 4032 1459 4032 
C 1683 4032 2106 3925 2106 3320 
C 2106 3143 2080 2828 1862 2550 
C 1670 2304 1453 2304 1242 2284 
C 1210 2284 1062 2269 1037 2269 
C 992 2263 966 2257 966 2208 
C 966 2163 973 2157 1101 2157 
L 1414 2157 
z
" transform="scale(0.015625)"/>
       </defs>
       <use xlink:href="#CMR17-32" transform="scale(0.996264)"/>
       <use xlink:href="#CMR17-30" transform="translate(45.690477 0) scale(0.996264)"/>
       <use xlink:href="#CMR17-32" transform="translate(91.380954 0) scale(0.996264)"/>
       <use xlink:href="#CMR17-33" transform="translate(137.071431 0) scale(0.996264)"/>
      </g>
     </g>
    </g>
    <g id="xtick_10">
     <g id="line2d_10">
      <path d="M 1422.446465 620.772952 
L 1422.446465 17.30242 
" clip-path="url(#pe3a539045a)" style="fill: none; stroke: #cccccc; stroke-opacity: 0.5; stroke-width: 0.8; stroke-linecap: round"/>
     </g>
     <g id="text_10">
      <!-- $\mathdefault{2024}$ -->
      <g transform="translate(1412.483795 631.19145) scale(0.1 -0.1)">
       <defs>
        <path id="CMR17-34" d="M 2150 4122 
C 2150 4256 2144 4256 2029 4256 
L 128 1254 
L 128 1088 
L 1779 1088 
L 1779 457 
C 1779 224 1766 160 1318 160 
L 1197 160 
L 1197 0 
C 1402 0 1747 0 1965 0 
C 2182 0 2528 0 2733 0 
L 2733 160 
L 2611 160 
C 2163 160 2150 224 2150 457 
L 2150 1088 
L 2803 1088 
L 2803 1254 
L 2150 1254 
L 2150 4122 
z
M 1798 3703 
L 1798 1254 
L 256 1254 
L 1798 3703 
z
" transform="scale(0.015625)"/>
       </defs>
       <use xlink:href="#CMR17-32" transform="scale(0.996264)"/>
       <use xlink:href="#CMR17-30" transform="translate(45.690477 0) scale(0.996264)"/>
       <use xlink:href="#CMR17-32" transform="translate(91.380954 0) scale(0.996264)"/>
       <use xlink:href="#CMR17-34" transform="translate(137.071431 0) scale(0.996264)"/>
      </g>
     </g>
    </g>
    <g id="text_11">
     <!-- Date -->
     <g style="fill: #696969" transform="translate(727.693555 644.047127) scale(0.1 -0.1)">
      <defs>
       <path id="CMR17-44" d="M 333 4352 
L 333 4186 
C 774 4186 845 4186 845 3900 
L 845 452 
C 845 166 774 166 333 166 
L 333 0 
L 2368 0 
C 3398 0 4224 943 4224 2141 
C 4224 3346 3411 4352 2368 4352 
L 333 4352 
z
M 1523 166 
C 1267 166 1254 197 1254 414 
L 1254 3938 
C 1254 4155 1267 4186 1523 4186 
L 2240 4186 
C 2771 4186 3750 3874 3750 2141 
C 3750 1242 3488 879 3366 707 
C 3213 510 2848 166 2240 166 
L 1523 166 
z
" transform="scale(0.015625)"/>
       <path id="CMR17-61" d="M 2304 1653 
C 2304 2072 2304 2294 2035 2543 
C 1798 2752 1523 2816 1306 2816 
C 800 2816 435 2407 435 1971 
C 435 1728 627 1728 666 1728 
C 749 1728 896 1778 896 1954 
C 896 2112 774 2181 666 2181 
C 640 2181 608 2174 589 2168 
C 723 2592 1069 2714 1293 2714 
C 1613 2714 1965 2429 1965 1885 
L 1965 1600 
C 1587 1600 1133 1549 774 1357 
C 371 1133 256 813 256 570 
C 256 77 832 -64 1171 -64 
C 1523 -64 1850 139 1990 511 
C 2003 233 2182 -18 2464 -18 
C 2598 -18 2938 70 2938 567 
L 2938 920 
L 2822 920 
L 2822 562 
C 2822 178 2650 128 2566 128 
C 2304 128 2304 458 2304 738 
L 2304 1653 
z
M 1965 870 
C 1965 317 1568 38 1216 38 
C 896 38 646 275 646 570 
C 646 761 730 1100 1101 1305 
C 1408 1478 1760 1504 1965 1504 
L 1965 870 
z
" transform="scale(0.015625)"/>
       <path id="CMR17-74" d="M 966 2560 
L 1862 2560 
L 1862 2725 
L 966 2725 
L 966 3904 
L 851 3904 
C 838 3245 614 2668 70 2668 
L 70 2560 
L 627 2560 
L 627 771 
C 627 650 627 -64 1370 -64 
C 1747 -64 1965 306 1965 777 
L 1965 1140 
L 1850 1140 
L 1850 783 
C 1850 344 1677 51 1408 51 
C 1222 51 966 178 966 758 
L 966 2560 
z
" transform="scale(0.015625)"/>
       <path id="CMR17-65" d="M 2438 1472 
C 2464 1498 2464 1511 2464 1576 
C 2464 2238 2118 2816 1389 2816 
C 710 2816 173 2169 173 1383 
C 173 551 781 -64 1459 -64 
C 2176 -64 2458 607 2458 740 
C 2458 784 2419 784 2406 784 
C 2362 784 2355 771 2330 696 
C 2189 265 1837 51 1504 51 
C 1229 51 954 203 781 480 
C 582 803 582 1176 582 1472 
L 2438 1472 
z
M 589 1568 
C 634 2505 1126 2714 1382 2714 
C 1818 2714 2112 2297 2118 1568 
L 589 1568 
z
" transform="scale(0.015625)"/>
      </defs>
      <use xlink:href="#CMR17-44" transform="scale(0.996264)"/>
      <use xlink:href="#CMR17-61" transform="translate(70.393556 0) scale(0.996264)"/>
      <use xlink:href="#CMR17-74" transform="translate(116.084033 0) scale(0.996264)"/>
      <use xlink:href="#CMR17-65" transform="translate(151.364801 0) scale(0.996264)"/>
     </g>
    </g>
   </g>
   <g id="matplotlib.axis_2">
    <g id="ytick_1">
     <g id="line2d_11">
      <path d="M 39.281258 593.342473 
L 1436.99976 593.342473 
" clip-path="url(#pe3a539045a)" style="fill: none; stroke: #cccccc; stroke-opacity: 0.5; stroke-width: 0.8; stroke-linecap: round"/>
     </g>
     <g id="text_12">
      <!-- $\mathdefault{0}$ -->
      <g transform="translate(30.799922 596.801722) scale(0.1 -0.1)">
       <use xlink:href="#CMR17-30" transform="scale(0.996264)"/>
      </g>
     </g>
    </g>
    <g id="ytick_2">
     <g id="line2d_12">
      <path d="M 39.281258 515.856413 
L 1436.99976 515.856413 
" clip-path="url(#pe3a539045a)" style="fill: none; stroke: #cccccc; stroke-opacity: 0.5; stroke-width: 0.8; stroke-linecap: round"/>
     </g>
     <g id="text_13">
      <!-- $\mathdefault{200}$ -->
      <g transform="translate(20.837252 519.315662) scale(0.1 -0.1)">
       <use xlink:href="#CMR17-32" transform="scale(0.996264)"/>
       <use xlink:href="#CMR17-30" transform="translate(45.690477 0) scale(0.996264)"/>
       <use xlink:href="#CMR17-30" transform="translate(91.380954 0) scale(0.996264)"/>
      </g>
     </g>
    </g>
    <g id="ytick_3">
     <g id="line2d_13">
      <path d="M 39.281258 438.370352 
L 1436.99976 438.370352 
" clip-path="url(#pe3a539045a)" style="fill: none; stroke: #cccccc; stroke-opacity: 0.5; stroke-width: 0.8; stroke-linecap: round"/>
     </g>
     <g id="text_14">
      <!-- $\mathdefault{400}$ -->
      <g transform="translate(20.837252 441.829602) scale(0.1 -0.1)">
       <use xlink:href="#CMR17-34" transform="scale(0.996264)"/>
       <use xlink:href="#CMR17-30" transform="translate(45.690477 0) scale(0.996264)"/>
       <use xlink:href="#CMR17-30" transform="translate(91.380954 0) scale(0.996264)"/>
      </g>
     </g>
    </g>
    <g id="ytick_4">
     <g id="line2d_14">
      <path d="M 39.281258 360.884292 
L 1436.99976 360.884292 
" clip-path="url(#pe3a539045a)" style="fill: none; stroke: #cccccc; stroke-opacity: 0.5; stroke-width: 0.8; stroke-linecap: round"/>
     </g>
     <g id="text_15">
      <!-- $\mathdefault{600}$ -->
      <g transform="translate(20.837252 364.343541) scale(0.1 -0.1)">
       <use xlink:href="#CMR17-36" transform="scale(0.996264)"/>
       <use xlink:href="#CMR17-30" transform="translate(45.690477 0) scale(0.996264)"/>
       <use xlink:href="#CMR17-30" transform="translate(91.380954 0) scale(0.996264)"/>
      </g>
     </g>
    </g>
    <g id="ytick_5">
     <g id="line2d_15">
      <path d="M 39.281258 283.398232 
L 1436.99976 283.398232 
" clip-path="url(#pe3a539045a)" style="fill: none; stroke: #cccccc; stroke-opacity: 0.5; stroke-width: 0.8; stroke-linecap: round"/>
     </g>
     <g id="text_16">
      <!-- $\mathdefault{800}$ -->
      <g transform="translate(20.837252 286.857481) scale(0.1 -0.1)">
       <use xlink:href="#CMR17-38" transform="scale(0.996264)"/>
       <use xlink:href="#CMR17-30" transform="translate(45.690477 0) scale(0.996264)"/>
       <use xlink:href="#CMR17-30" transform="translate(91.380954 0) scale(0.996264)"/>
      </g>
     </g>
    </g>
    <g id="ytick_6">
     <g id="line2d_16">
      <path d="M 39.281258 205.912171 
L 1436.99976 205.912171 
" clip-path="url(#pe3a539045a)" style="fill: none; stroke: #cccccc; stroke-opacity: 0.5; stroke-width: 0.8; stroke-linecap: round"/>
     </g>
     <g id="text_17">
      <!-- $\mathdefault{1000}$ -->
      <g transform="translate(15.855917 209.371421) scale(0.1 -0.1)">
       <use xlink:href="#CMR17-31" transform="scale(0.996264)"/>
       <use xlink:href="#CMR17-30" transform="translate(45.690477 0) scale(0.996264)"/>
       <use xlink:href="#CMR17-30" transform="translate(91.380954 0) scale(0.996264)"/>
       <use xlink:href="#CMR17-30" transform="translate(137.071431 0) scale(0.996264)"/>
      </g>
     </g>
    </g>
    <g id="ytick_7">
     <g id="line2d_17">
      <path d="M 39.281258 128.426111 
L 1436.99976 128.426111 
" clip-path="url(#pe3a539045a)" style="fill: none; stroke: #cccccc; stroke-opacity: 0.5; stroke-width: 0.8; stroke-linecap: round"/>
     </g>
     <g id="text_18">
      <!-- $\mathdefault{1200}$ -->
      <g transform="translate(15.855917 131.88536) scale(0.1 -0.1)">
       <use xlink:href="#CMR17-31" transform="scale(0.996264)"/>
       <use xlink:href="#CMR17-32" transform="translate(45.690477 0) scale(0.996264)"/>
       <use xlink:href="#CMR17-30" transform="translate(91.380954 0) scale(0.996264)"/>
       <use xlink:href="#CMR17-30" transform="translate(137.071431 0) scale(0.996264)"/>
      </g>
     </g>
    </g>
    <g id="ytick_8">
     <g id="line2d_18">
      <path d="M 39.281258 50.940051 
L 1436.99976 50.940051 
" clip-path="url(#pe3a539045a)" style="fill: none; stroke: #cccccc; stroke-opacity: 0.5; stroke-width: 0.8; stroke-linecap: round"/>
     </g>
     <g id="text_19">
      <!-- $\mathdefault{1400}$ -->
      <g transform="translate(15.855917 54.3993) scale(0.1 -0.1)">
       <use xlink:href="#CMR17-31" transform="scale(0.996264)"/>
       <use xlink:href="#CMR17-34" transform="translate(45.690477 0) scale(0.996264)"/>
       <use xlink:href="#CMR17-30" transform="translate(91.380954 0) scale(0.996264)"/>
       <use xlink:href="#CMR17-30" transform="translate(137.071431 0) scale(0.996264)"/>
      </g>
     </g>
    </g>
    <g id="text_20">
     <!-- Total Contribution -->
     <g style="fill: #696969" transform="translate(9.918738 360.285875) rotate(-90) scale(0.1 -0.1)">
      <defs>
       <path id="CMR17-54" d="M 3981 4326 
L 288 4326 
L 179 2918 
L 294 2918 
C 378 3976 467 4160 1453 4160 
C 1568 4160 1754 4160 1805 4154 
C 1926 4135 1926 4058 1926 3912 
L 1926 459 
C 1926 230 1907 160 1376 160 
L 1197 160 
L 1197 0 
C 1504 0 1824 0 2138 0 
C 2451 0 2771 0 3078 0 
L 3078 160 
L 2899 160 
C 2368 160 2349 230 2349 459 
L 2349 3912 
C 2349 4052 2349 4129 2464 4154 
C 2515 4160 2701 4160 2816 4160 
C 3795 4160 3891 3976 3974 2918 
L 4090 2918 
L 3981 4326 
z
" transform="scale(0.015625)"/>
       <path id="CMR17-6f" d="M 2758 1356 
C 2758 2176 2163 2816 1466 2816 
C 768 2816 173 2176 173 1356 
C 173 551 768 -64 1466 -64 
C 2163 -64 2758 551 2758 1356 
z
M 1466 51 
C 1165 51 909 230 762 480 
C 602 767 582 1126 582 1408 
C 582 1677 595 2010 762 2298 
C 890 2509 1139 2714 1466 2714 
C 1754 2714 1997 2554 2150 2330 
C 2349 2029 2349 1607 2349 1408 
C 2349 1158 2336 775 2163 467 
C 1984 173 1709 51 1466 51 
z
" transform="scale(0.015625)"/>
       <path id="CMR17-6c" d="M 979 4396 
L 218 4326 
L 218 4160 
C 595 4160 653 4122 653 3817 
L 653 426 
C 653 184 627 153 218 153 
L 218 -13 
C 371 0 653 0 813 0 
C 979 0 1261 0 1414 -13 
L 1414 153 
C 1005 153 979 178 979 426 
L 979 4396 
z
" transform="scale(0.015625)"/>
       <path id="CMR17-43" d="M 3974 4289 
C 3974 4403 3968 4410 3930 4410 
C 3904 4410 3898 4403 3853 4327 
L 3571 3792 
C 3258 4187 2874 4416 2381 4416 
C 1286 4416 294 3456 294 2148 
C 294 826 1286 -128 2387 -128 
C 3366 -128 3974 730 3974 1461 
C 3974 1524 3974 1550 3917 1550 
C 3866 1550 3866 1531 3859 1474 
C 3808 585 3168 38 2477 38 
C 1824 38 781 495 781 2147 
C 781 3805 1843 4250 2464 4250 
C 3187 4250 3712 3628 3834 2745 
C 3846 2668 3846 2655 3904 2655 
C 3974 2655 3974 2668 3974 2783 
L 3974 4289 
z
" transform="scale(0.015625)"/>
       <path id="CMR17-6e" d="M 2656 1933 
C 2656 2259 2592 2790 1837 2790 
C 1331 2790 1069 2400 973 2144 
L 966 2144 
L 966 2790 
L 211 2720 
L 211 2554 
C 589 2554 646 2515 646 2208 
L 646 428 
C 646 184 621 153 211 153 
L 211 -13 
C 365 0 646 0 813 0 
C 979 0 1267 0 1421 -13 
L 1421 153 
C 1011 153 986 178 986 428 
L 986 1658 
C 986 2247 1344 2688 1792 2688 
C 2266 2688 2317 2266 2317 1958 
L 2317 428 
C 2317 184 2291 153 1882 153 
L 1882 -13 
C 2035 0 2317 0 2483 0 
C 2650 0 2938 0 3091 -13 
L 3091 153 
C 2682 153 2656 178 2656 428 
L 2656 1933 
z
" transform="scale(0.015625)"/>
       <path id="CMR17-72" d="M 960 1497 
C 960 2112 1222 2688 1702 2688 
C 1747 2688 1792 2682 1837 2662 
C 1837 2662 1696 2617 1696 2452 
C 1696 2298 1818 2234 1914 2234 
C 1990 2234 2131 2279 2131 2458 
C 2131 2663 1926 2790 1709 2790 
C 1222 2790 1011 2317 947 2093 
L 941 2093 
L 941 2790 
L 198 2720 
L 198 2554 
C 576 2554 634 2515 634 2208 
L 634 428 
C 634 184 608 153 198 153 
L 198 -13 
C 352 0 646 0 813 0 
C 998 0 1325 0 1498 -13 
L 1498 153 
C 1037 153 960 153 960 440 
L 960 1497 
z
" transform="scale(0.015625)"/>
       <path id="CMR17-69" d="M 992 3909 
C 992 4049 877 4170 730 4170 
C 589 4170 467 4056 467 3909 
C 467 3769 582 3648 730 3648 
C 870 3648 992 3763 992 3909 
z
M 243 2706 
L 243 2541 
C 602 2541 653 2502 653 2197 
L 653 427 
C 653 184 627 153 218 153 
L 218 -13 
C 371 0 646 0 806 0 
C 960 0 1222 0 1370 -13 
L 1370 153 
C 992 153 979 191 979 420 
L 979 2776 
L 243 2706 
z
" transform="scale(0.015625)"/>
       <path id="CMR17-62" d="M 960 4396 
L 198 4326 
L 198 4160 
C 576 4160 634 4122 634 3817 
L 634 -13 
L 749 -13 
L 934 441 
C 1120 141 1395 -64 1766 -64 
C 2406 -64 3053 500 3053 1370 
C 3053 2188 2477 2790 1830 2790 
C 1434 2790 1152 2579 960 2330 
L 960 4396 
z
M 973 2004 
C 973 2118 973 2138 1062 2272 
C 1312 2657 1670 2688 1792 2688 
C 1984 2688 2643 2585 2643 1376 
C 2643 108 1888 38 1734 38 
C 1536 38 1248 114 1043 486 
C 973 608 973 621 973 735 
L 973 2004 
z
" transform="scale(0.015625)"/>
       <path id="CMR17-75" d="M 1882 2693 
L 1882 2528 
C 2259 2528 2317 2489 2317 2186 
L 2317 1032 
C 2317 500 2029 38 1555 38 
C 1030 38 986 348 986 678 
L 986 2763 
L 211 2693 
L 211 2528 
C 467 2528 640 2528 646 2274 
L 646 1058 
C 646 633 646 361 813 183 
C 896 101 1056 -64 1517 -64 
C 2061 -64 2272 377 2323 506 
L 2330 506 
L 2330 -63 
L 3091 -63 
L 3091 128 
C 2714 128 2656 166 2656 473 
L 2656 2763 
L 1882 2693 
z
" transform="scale(0.015625)"/>
      </defs>
      <use xlink:href="#CMR17-54" transform="scale(0.996264)"/>
      <use xlink:href="#CMR17-6f" transform="translate(58.702625 0) scale(0.996264)"/>
      <use xlink:href="#CMR17-74" transform="translate(104.393102 0) scale(0.996264)"/>
      <use xlink:href="#CMR17-61" transform="translate(139.67387 0) scale(0.996264)"/>
      <use xlink:href="#CMR17-6c" transform="translate(185.364347 0) scale(0.996264)"/>
      <use xlink:href="#CMR17-43" transform="translate(240.311372 0) scale(0.996264)"/>
      <use xlink:href="#CMR17-6f" transform="translate(306.821253 0) scale(0.996264)"/>
      <use xlink:href="#CMR17-6e" transform="translate(352.51173 0) scale(0.996264)"/>
      <use xlink:href="#CMR17-74" transform="translate(400.804646 0) scale(0.996264)"/>
      <use xlink:href="#CMR17-72" transform="translate(436.085413 0) scale(0.996264)"/>
      <use xlink:href="#CMR17-69" transform="translate(471.366181 0) scale(0.996264)"/>
      <use xlink:href="#CMR17-62" transform="translate(496.23724 0) scale(0.996264)"/>
      <use xlink:href="#CMR17-75" transform="translate(547.132609 0) scale(0.996264)"/>
      <use xlink:href="#CMR17-74" transform="translate(598.027979 0) scale(0.996264)"/>
      <use xlink:href="#CMR17-69" transform="translate(633.308747 0) scale(0.996264)"/>
      <use xlink:href="#CMR17-6f" transform="translate(658.179805 0) scale(0.996264)"/>
      <use xlink:href="#CMR17-6e" transform="translate(703.870283 0) scale(0.996264)"/>
     </g>
    </g>
   </g>
   <g id="line2d_19">
    <path d="M 102.813917 583.894619 
L 115.259493 571.923531 
L 115.259493 571.923531 
L 126.500659 559.779359 
L 126.500659 559.779359 
L 138.946235 546.656079 
L 138.946235 546.656079 
L 175.480023 506.627316 
L 175.480023 506.627316 
L 187.925599 492.640115 
L 187.925599 492.640115 
L 200.371176 479.195848 
L 200.371176 479.195848 
L 212.415282 464.330523 
L 212.415282 464.330523 
L 224.860858 451.93088 
L 224.860858 451.93088 
L 236.904964 435.01893 
L 236.904964 435.01893 
L 249.35054 418.063251 
L 249.35054 418.063251 
L 261.796116 403.637409 
L 261.796116 403.637409 
L 273.438752 384.800138 
L 273.438752 384.800138 
L 285.884328 374.429262 
L 285.884328 374.429262 
L 297.928434 348.773325 
L 297.928434 348.773325 
L 310.37401 336.692131 
L 310.37401 336.692131 
L 334.863693 294.101508 
L 334.863693 294.101508 
L 347.309269 281.145057 
L 347.309269 281.145057 
L 359.353375 257.922269 
L 359.353375 257.922269 
L 371.798951 232.753047 
L 371.798951 232.753047 
L 383.843057 207.717164 
L 383.843057 207.717164 
L 396.288633 235.833832 
L 396.288633 235.833832 
L 408.73421 215.631007 
L 408.73421 215.631007 
L 419.975375 197.024727 
L 419.975375 197.024727 
L 432.420951 187.004602 
L 432.420951 187.004602 
L 444.465057 163.561584 
L 444.465057 163.561584 
L 456.910634 127.308209 
L 456.910634 127.308209 
L 468.95474 129.251371 
L 468.95474 129.251371 
L 481.400316 96.085947 
L 481.400316 96.085947 
L 493.845892 102.574273 
L 493.845892 102.574273 
L 505.889998 165.144877 
L 505.889998 165.144877 
L 518.335574 48.587105 
L 518.335574 48.587105 
L 530.37968 44.732899 
L 530.37968 44.732899 
L 542.825256 118.202589 
L 542.825256 118.202589 
L 555.270833 97.951953 
L 555.270833 97.951953 
L 566.511998 82.896948 
L 566.511998 82.896948 
L 578.957574 279.020734 
L 578.957574 279.020734 
L 591.00168 224.436532 
L 591.00168 224.436532 
L 603.447257 261.610574 
L 603.447257 261.610574 
L 615.491363 254.370481 
L 615.491363 254.370481 
L 627.936939 331.996698 
L 627.936939 331.996698 
L 640.382515 335.823943 
L 640.382515 335.823943 
L 652.426621 283.708462 
L 652.426621 283.708462 
L 664.872197 265.725134 
L 664.872197 265.725134 
L 676.916303 255.275114 
L 676.916303 255.275114 
L 689.36188 332.427528 
L 689.36188 332.427528 
L 701.807456 343.385033 
L 701.807456 343.385033 
L 713.048621 347.585615 
L 713.048621 347.585615 
L 725.494198 377.690851 
L 725.494198 377.690851 
L 737.538304 352.225735 
L 737.538304 352.225735 
L 749.98388 369.15096 
L 749.98388 369.15096 
L 762.027986 475.353146 
L 762.027986 475.353146 
L 774.473562 498.200285 
L 774.473562 498.200285 
L 786.919138 412.35903 
L 786.919138 412.35903 
L 798.963244 481.604021 
L 798.963244 481.604021 
L 811.40882 525.294159 
L 811.40882 525.294159 
L 823.452926 527.434269 
L 823.452926 527.434269 
L 835.898503 517.119931 
L 835.898503 517.119931 
L 848.344079 514.791986 
L 848.344079 514.791986 
L 859.986715 506.636075 
L 859.986715 506.636075 
L 872.432291 540.03012 
L 872.432291 540.03012 
L 884.476397 509.667662 
L 884.476397 509.667662 
L 896.921973 527.866683 
L 896.921973 527.866683 
L 908.966079 509.870541 
L 908.966079 509.870541 
L 921.411655 560.430488 
L 921.411655 560.430488 
L 933.857231 510.856827 
L 933.857231 510.856827 
L 945.901338 539.161427 
L 945.901338 539.161427 
L 958.346914 518.270509 
L 958.346914 518.270509 
L 970.39102 526.786485 
L 970.39102 526.786485 
L 982.836596 453.650248 
L 982.836596 453.650248 
L 995.282172 447.197248 
L 995.282172 447.197248 
L 1006.523338 570.952541 
L 1006.523338 570.952541 
L 1018.968914 563.40169 
L 1018.968914 563.40169 
L 1031.01302 561.285293 
L 1031.01302 561.285293 
L 1043.458596 558.527944 
L 1043.458596 558.527944 
L 1055.502702 551.163375 
L 1055.502702 551.163375 
L 1067.948278 531.092865 
L 1067.948278 531.092865 
L 1080.393855 520.049416 
L 1080.393855 520.049416 
L 1092.437961 513.146318 
L 1092.437961 513.146318 
L 1104.883537 528.865036 
L 1104.883537 528.865036 
L 1116.927643 507.513027 
L 1116.927643 507.513027 
L 1129.373219 508.699118 
L 1129.373219 508.699118 
L 1141.818795 518.011784 
L 1141.818795 518.011784 
L 1153.059961 505.93761 
L 1153.059961 505.93761 
L 1165.505537 503.1803 
L 1165.505537 503.1803 
L 1177.549643 500.221018 
L 1177.549643 500.221018 
L 1189.995219 520.801262 
L 1189.995219 520.801262 
L 1202.039325 550.189559 
L 1202.039325 550.189559 
L 1214.484901 512.848946 
L 1214.484901 512.848946 
L 1226.930478 510.393499 
L 1226.930478 510.393499 
L 1238.974584 541.619798 
L 1238.974584 541.619798 
L 1251.42016 513.880842 
L 1251.42016 513.880842 
L 1263.464266 513.899141 
L 1263.464266 513.899141 
L 1275.909842 569.858685 
L 1275.909842 569.858685 
L 1288.355418 541.499486 
L 1288.355418 541.499486 
L 1299.596584 546.684992 
L 1299.596584 546.684992 
L 1312.04216 531.379646 
L 1312.04216 531.379646 
L 1324.086266 533.404438 
L 1324.086266 533.404438 
L 1336.531842 562.858389 
L 1336.531842 562.858389 
L 1348.575948 573.292433 
L 1348.575948 573.292433 
L 1361.021525 572.864063 
L 1361.021525 572.864063 
L 1373.467101 579.364855 
L 1373.467101 579.364855 
" clip-path="url(#pe3a539045a)" style="fill: none; stroke: #006e64; stroke-width: 1.5; stroke-linecap: round"/>
   </g>
   <g id="line2d_20">
    <path d="M 102.813917 590.476004 
L 115.259493 586.567182 
L 115.259493 586.567182 
L 126.500659 581.876595 
L 126.500659 581.876595 
L 138.946235 576.925421 
L 138.946235 576.925421 
L 163.435917 566.241307 
L 163.435917 566.241307 
L 175.480023 560.768957 
L 175.480023 560.768957 
L 187.925599 553.733077 
L 187.925599 553.733077 
L 200.371176 546.176021 
L 200.371176 546.176021 
L 212.415282 535.752496 
L 212.415282 535.752496 
L 224.860858 533.407203 
L 224.860858 533.407203 
L 236.904964 514.905445 
L 236.904964 514.905445 
L 249.35054 502.136627 
L 249.35054 502.136627 
L 261.796116 490.670749 
L 261.796116 490.670749 
L 273.438752 471.908404 
L 273.438752 471.908404 
L 285.884328 474.253697 
L 285.884328 474.253697 
L 297.928434 447.934295 
L 297.928434 447.934295 
L 310.37401 467.217817 
L 310.37401 467.217817 
L 322.418116 450.540177 
L 322.418116 450.540177 
L 334.863693 436.468418 
L 334.863693 436.468418 
L 347.309269 441.419592 
L 347.309269 441.419592 
L 359.353375 419.009013 
L 359.353375 419.009013 
L 371.798951 407.021959 
L 371.798951 407.021959 
L 383.843057 399.725491 
L 383.843057 399.725491 
L 396.288633 414.579015 
L 396.288633 414.579015 
L 408.73421 401.549608 
L 408.73421 401.549608 
L 419.975375 395.034905 
L 419.975375 395.034905 
L 432.420951 398.683139 
L 432.420951 398.683139 
L 444.465057 366.37021 
L 444.465057 366.37021 
L 456.910634 335.881399 
L 456.910634 335.881399 
L 468.95474 364.024917 
L 468.95474 364.024917 
L 481.400316 344.220219 
L 481.400316 344.220219 
L 493.845892 374.448442 
L 493.845892 374.448442 
L 505.889998 350.734922 
L 505.889998 350.734922 
L 518.335574 355.946685 
L 518.335574 355.946685 
L 530.37968 356.728449 
L 530.37968 356.728449 
L 542.825256 396.598433 
L 542.825256 396.598433 
L 555.270833 389.301966 
L 555.270833 389.301966 
L 566.511998 365.067269 
L 566.511998 365.067269 
L 578.957574 419.269601 
L 578.957574 419.269601 
L 591.00168 409.888428 
L 591.00168 409.888428 
L 603.447257 407.803723 
L 603.447257 407.803723 
L 615.491363 434.383713 
L 615.491363 434.383713 
L 627.936939 433.601948 
L 627.936939 433.601948 
L 640.382515 426.044892 
L 640.382515 426.044892 
L 652.426621 421.875482 
L 652.426621 421.875482 
L 664.872197 400.767844 
L 664.872197 400.767844 
L 676.916303 411.973133 
L 676.916303 411.973133 
L 689.36188 420.051365 
L 689.36188 420.051365 
L 701.807456 411.451957 
L 701.807456 411.451957 
L 713.048621 422.657247 
L 713.048621 422.657247 
L 725.494198 429.17195 
L 725.494198 429.17195 
L 737.538304 410.149016 
L 737.538304 410.149016 
L 749.98388 432.559596 
L 749.98388 432.559596 
L 762.027986 450.019001 
L 762.027986 450.019001 
L 774.473562 450.019001 
L 774.473562 450.019001 
L 786.919138 444.286062 
L 786.919138 444.286062 
L 798.963244 445.589002 
L 798.963244 445.589002 
L 811.40882 452.88547 
L 811.40882 452.88547 
L 823.452926 447.152531 
L 823.452926 447.152531 
L 835.898503 450.019001 
L 835.898503 450.019001 
L 848.344079 447.673707 
L 848.344079 447.673707 
L 859.986715 433.080772 
L 859.986715 433.080772 
L 872.432291 466.175465 
L 872.432291 466.175465 
L 884.476397 447.152531 
L 884.476397 447.152531 
L 896.921973 462.787819 
L 896.921973 462.787819 
L 908.966079 459.139585 
L 908.966079 459.139585 
L 921.411655 465.914877 
L 921.411655 465.914877 
L 933.857231 430.214302 
L 933.857231 430.214302 
L 945.901338 447.152531 
L 945.901338 447.152531 
L 958.346914 450.019001 
L 958.346914 450.019001 
L 970.39102 455.491351 
L 970.39102 455.491351 
L 982.836596 493.016042 
L 982.836596 493.016042 
L 995.282172 489.628397 
L 995.282172 489.628397 
L 1006.523338 507.34839 
L 1006.523338 507.34839 
L 1018.968914 494.318983 
L 1018.968914 494.318983 
L 1043.458596 487.543692 
L 1043.458596 487.543692 
L 1055.502702 478.944283 
L 1055.502702 478.944283 
L 1067.948278 488.064868 
L 1067.948278 488.064868 
L 1080.393855 479.204871 
L 1080.393855 479.204871 
L 1092.437961 481.810753 
L 1092.437961 481.810753 
L 1104.883537 480.247224 
L 1104.883537 480.247224 
L 1116.927643 472.950756 
L 1116.927643 472.950756 
L 1129.373219 485.458986 
L 1129.373219 485.458986 
L 1141.818795 497.185452 
L 1141.818795 497.185452 
L 1153.059961 481.550164 
L 1153.059961 481.550164 
L 1165.505537 470.866051 
L 1165.505537 470.866051 
L 1177.549643 478.162519 
L 1177.549643 478.162519 
L 1189.995219 484.677222 
L 1189.995219 484.677222 
L 1202.039325 494.579571 
L 1202.039325 494.579571 
L 1214.484901 498.227805 
L 1214.484901 498.227805 
L 1226.930478 498.748981 
L 1226.930478 498.748981 
L 1238.974584 501.615451 
L 1238.974584 501.615451 
L 1251.42016 515.68721 
L 1251.42016 515.68721 
L 1263.464266 503.178979 
L 1263.464266 503.178979 
L 1275.909842 536.273672 
L 1275.909842 536.273672 
L 1288.355418 543.830728 
L 1288.355418 543.830728 
L 1299.596584 555.036018 
L 1299.596584 555.036018 
L 1312.04216 543.309552 
L 1312.04216 543.309552 
L 1324.086266 548.521314 
L 1324.086266 548.521314 
L 1336.531842 563.896014 
L 1336.531842 563.896014 
L 1348.575948 577.446597 
L 1348.575948 577.446597 
L 1361.021525 581.094831 
L 1361.021525 581.094831 
L 1373.467101 593.342473 
L 1373.467101 593.342473 
" clip-path="url(#pe3a539045a)" style="fill: none; stroke: #734848; stroke-width: 1.5; stroke-linecap: round"/>
   </g>
   <g id="line2d_21">
    <path d="M 102.813917 584.571446 
L 115.259493 575.690695 
L 115.259493 575.690695 
L 126.500659 563.840762 
L 126.500659 563.840762 
L 138.946235 552.297127 
L 138.946235 552.297127 
L 150.990341 541.540393 
L 150.990341 541.540393 
L 163.435917 530.125639 
L 163.435917 530.125639 
L 175.480023 520.416384 
L 175.480023 520.416384 
L 187.925599 508.153438 
L 187.925599 508.153438 
L 200.371176 498.072411 
L 200.371176 498.072411 
L 212.415282 484.14101 
L 212.415282 484.14101 
L 224.860858 480.779764 
L 224.860858 480.779764 
L 236.904964 457.029584 
L 236.904964 457.029584 
L 249.35054 441.474644 
L 249.35054 441.474644 
L 261.796116 432.855636 
L 261.796116 432.855636 
L 273.438752 408.576923 
L 273.438752 408.576923 
L 285.884328 425.390752 
L 285.884328 425.390752 
L 297.928434 378.764802 
L 297.928434 378.764802 
L 310.37401 419.864968 
L 310.37401 419.864968 
L 322.418116 393.4535 
L 322.418116 393.4535 
L 334.863693 371.113276 
L 334.863693 371.113276 
L 347.309269 390.201986 
L 347.309269 390.201986 
L 359.353375 369.910156 
L 359.353375 369.910156 
L 371.798951 348.704804 
L 371.798951 348.704804 
L 383.843057 327.944044 
L 383.843057 327.944044 
L 396.288633 361.466343 
L 396.288633 361.466343 
L 408.73421 358.011619 
L 408.73421 358.011619 
L 419.975375 345.931965 
L 419.975375 345.931965 
L 432.420951 349.615698 
L 432.420951 349.615698 
L 444.465057 313.401323 
L 444.465057 313.401323 
L 456.910634 256.739622 
L 456.910634 256.739622 
L 468.95474 291.840466 
L 468.95474 291.840466 
L 481.400316 284.21008 
L 481.400316 284.21008 
L 493.845892 341.542166 
L 493.845892 341.542166 
L 505.889998 298.562622 
L 505.889998 298.562622 
L 518.335574 281.536329 
L 518.335574 281.536329 
L 530.37968 279.315775 
L 530.37968 279.315775 
L 542.825256 372.317366 
L 542.825256 372.317366 
L 555.270833 354.435043 
L 555.270833 354.435043 
L 566.511998 325.244214 
L 566.511998 325.244214 
L 578.957574 392.921606 
L 578.957574 392.921606 
L 591.00168 374.532308 
L 591.00168 374.532308 
L 603.447257 394.941548 
L 603.447257 394.941548 
L 615.491363 434.881709 
L 615.491363 434.881709 
L 627.936939 447.24091 
L 627.936939 447.24091 
L 640.382515 439.03226 
L 640.382515 439.03226 
L 652.426621 384.513534 
L 652.426621 384.513534 
L 664.872197 363.221012 
L 664.872197 363.221012 
L 676.916303 373.398897 
L 676.916303 373.398897 
L 689.36188 403.377103 
L 689.36188 403.377103 
L 701.807456 390.03787 
L 701.807456 390.03787 
L 713.048621 398.067585 
L 713.048621 398.067585 
L 725.494198 432.947563 
L 725.494198 432.947563 
L 737.538304 412.435617 
L 737.538304 412.435617 
L 749.98388 428.189551 
L 749.98388 428.189551 
L 762.027986 442.827275 
L 762.027986 442.827275 
L 774.473562 461.420911 
L 774.473562 461.420911 
L 786.919138 438.491525 
L 786.919138 438.491525 
L 798.963244 442.487583 
L 798.963244 442.487583 
L 811.40882 459.116586 
L 811.40882 459.116586 
L 823.452926 452.832357 
L 823.452926 452.832357 
L 835.898503 457.29712 
L 835.898503 457.29712 
L 848.344079 455.998543 
L 848.344079 455.998543 
L 859.986715 445.227575 
L 859.986715 445.227575 
L 872.432291 477.446784 
L 872.432291 477.446784 
L 884.476397 450.617542 
L 884.476397 450.617542 
L 896.921973 443.390879 
L 896.921973 443.390879 
L 908.966079 442.61277 
L 908.966079 442.61277 
L 921.411655 480.876477 
L 921.411655 480.876477 
L 933.857231 453.417797 
L 933.857231 453.417797 
L 945.901338 474.349304 
L 945.901338 474.349304 
L 958.346914 471.25072 
L 958.346914 471.25072 
L 970.39102 454.521964 
L 970.39102 454.521964 
L 982.836596 476.221795 
L 982.836596 476.221795 
L 995.282172 465.107387 
L 995.282172 465.107387 
L 1006.523338 520.29604 
L 1006.523338 520.29604 
L 1018.968914 507.713984 
L 1018.968914 507.713984 
L 1031.01302 509.533686 
L 1031.01302 509.533686 
L 1043.458596 507.644378 
L 1043.458596 507.644378 
L 1055.502702 503.396373 
L 1055.502702 503.396373 
L 1067.948278 498.237658 
L 1067.948278 498.237658 
L 1080.393855 501.18744 
L 1080.393855 501.18744 
L 1092.437961 493.987359 
L 1092.437961 493.987359 
L 1104.883537 503.804124 
L 1104.883537 503.804124 
L 1116.927643 493.044225 
L 1116.927643 493.044225 
L 1129.373219 512.902156 
L 1129.373219 512.902156 
L 1141.818795 519.087066 
L 1141.818795 519.087066 
L 1153.059961 505.117716 
L 1153.059961 505.117716 
L 1165.505537 499.864155 
L 1165.505537 499.864155 
L 1177.549643 507.689624 
L 1177.549643 507.689624 
L 1189.995219 509.807829 
L 1189.995219 509.807829 
L 1202.039325 536.41708 
L 1202.039325 536.41708 
L 1214.484901 540.119578 
L 1214.484901 540.119578 
L 1226.930478 533.28945 
L 1226.930478 533.28945 
L 1238.974584 530.460698 
L 1238.974584 530.460698 
L 1251.42016 538.636983 
L 1251.42016 538.636983 
L 1263.464266 534.377584 
L 1263.464266 534.377584 
L 1275.909842 558.016822 
L 1275.909842 558.016822 
L 1288.355418 555.459006 
L 1288.355418 555.459006 
L 1299.596584 566.036012 
L 1299.596584 566.036012 
L 1312.04216 558.313819 
L 1312.04216 558.313819 
L 1324.086266 562.394368 
L 1324.086266 562.394368 
L 1336.531842 564.21981 
L 1336.531842 564.21981 
L 1348.575948 578.6185 
L 1348.575948 578.6185 
L 1361.021525 578.141727 
L 1361.021525 578.141727 
L 1373.467101 593.342473 
L 1373.467101 593.342473 
" clip-path="url(#pe3a539045a)" style="fill: none; stroke: #004e4a; stroke-width: 1.5; stroke-linecap: round"/>
   </g>
   <g id="line2d_22">
    <path d="M 102.813917 584.791941 
L 115.259493 575.243755 
L 115.259493 575.243755 
L 126.500659 563.375351 
L 126.500659 563.375351 
L 138.946235 551.46174 
L 138.946235 551.46174 
L 150.990341 540.182104 
L 150.990341 540.182104 
L 175.480023 515.374881 
L 175.480023 515.374881 
L 187.925599 502.048492 
L 187.925599 502.048492 
L 200.371176 488.895569 
L 200.371176 488.895569 
L 212.415282 475.74795 
L 212.415282 475.74795 
L 224.860858 483.925287 
L 224.860858 483.925287 
L 236.904964 451.002882 
L 236.904964 451.002882 
L 249.35054 434.677694 
L 249.35054 434.677694 
L 261.796116 425.810679 
L 261.796116 425.810679 
L 273.438752 400.102881 
L 273.438752 400.102881 
L 285.884328 418.068033 
L 285.884328 418.068033 
L 297.928434 370.709042 
L 297.928434 370.709042 
L 310.37401 418.012858 
L 310.37401 418.012858 
L 322.418116 395.027103 
L 322.418116 395.027103 
L 334.863693 369.986447 
L 334.863693 369.986447 
L 347.309269 382.866255 
L 347.309269 382.866255 
L 359.353375 355.620833 
L 359.353375 355.620833 
L 371.798951 345.906964 
L 371.798951 345.906964 
L 383.843057 323.026893 
L 383.843057 323.026893 
L 396.288633 364.083804 
L 396.288633 364.083804 
L 408.73421 357.308615 
L 408.73421 357.308615 
L 419.975375 340.136942 
L 419.975375 340.136942 
L 432.420951 347.115665 
L 432.420951 347.115665 
L 444.465057 307.825831 
L 444.465057 307.825831 
L 456.910634 251.695408 
L 456.910634 251.695408 
L 468.95474 281.756016 
L 468.95474 281.756016 
L 481.400316 285.261723 
L 481.400316 285.261723 
L 493.845892 335.937682 
L 493.845892 335.937682 
L 505.889998 303.606163 
L 505.889998 303.606163 
L 518.335574 275.911074 
L 518.335574 275.911074 
L 530.37968 273.30704 
L 530.37968 273.30704 
L 542.825256 360.128076 
L 542.825256 360.128076 
L 555.270833 341.861652 
L 555.270833 341.861652 
L 566.511998 311.120829 
L 566.511998 311.120829 
L 578.957574 386.349461 
L 578.957574 386.349461 
L 591.00168 363.837359 
L 591.00168 363.837359 
L 603.447257 386.695532 
L 603.447257 386.695532 
L 615.491363 425.05961 
L 615.491363 425.05961 
L 627.936939 432.530505 
L 627.936939 432.530505 
L 640.382515 420.166375 
L 640.382515 420.166375 
L 652.426621 372.488936 
L 652.426621 372.488936 
L 664.872197 351.250573 
L 664.872197 351.250573 
L 676.916303 362.212011 
L 676.916303 362.212011 
L 689.36188 389.313794 
L 689.36188 389.313794 
L 701.807456 379.045105 
L 701.807456 379.045105 
L 713.048621 392.756598 
L 713.048621 392.756598 
L 725.494198 425.630015 
L 725.494198 425.630015 
L 737.538304 406.446119 
L 737.538304 406.446119 
L 749.98388 429.131685 
L 749.98388 429.131685 
L 762.027986 440.137845 
L 762.027986 440.137845 
L 774.473562 458.600393 
L 774.473562 458.600393 
L 786.919138 437.289058 
L 786.919138 437.289058 
L 798.963244 438.437883 
L 798.963244 438.437883 
L 811.40882 449.543919 
L 811.40882 449.543919 
L 823.452926 443.616608 
L 823.452926 443.616608 
L 835.898503 445.443618 
L 835.898503 445.443618 
L 848.344079 444.205625 
L 848.344079 444.205625 
L 859.986715 431.93002 
L 859.986715 431.93002 
L 872.432291 463.671612 
L 872.432291 463.671612 
L 884.476397 441.740874 
L 884.476397 441.740874 
L 896.921973 439.001295 
L 896.921973 439.001295 
L 908.966079 431.914523 
L 908.966079 431.914523 
L 921.411655 462.16024 
L 921.411655 462.16024 
L 933.857231 433.84705 
L 933.857231 433.84705 
L 945.901338 451.040521 
L 945.901338 451.040521 
L 958.346914 448.114283 
L 958.346914 448.114283 
L 970.39102 442.8603 
L 970.39102 442.8603 
L 982.836596 477.221315 
L 982.836596 477.221315 
L 995.282172 465.310504 
L 995.282172 465.310504 
L 1006.523338 512.791729 
L 1006.523338 512.791729 
L 1018.968914 500.255345 
L 1018.968914 500.255345 
L 1031.01302 501.081757 
L 1031.01302 501.081757 
L 1043.458596 500.839936 
L 1043.458596 500.839936 
L 1055.502702 495.693618 
L 1055.502702 495.693618 
L 1067.948278 494.658877 
L 1067.948278 494.658877 
L 1080.393855 493.803414 
L 1080.393855 493.803414 
L 1092.437961 490.501144 
L 1092.437961 490.501144 
L 1104.883537 496.042268 
L 1104.883537 496.042268 
L 1116.927643 489.730088 
L 1116.927643 489.730088 
L 1129.373219 501.657532 
L 1129.373219 501.657532 
L 1141.818795 508.743373 
L 1141.818795 508.743373 
L 1153.059961 497.197468 
L 1153.059961 497.197468 
L 1165.505537 487.813439 
L 1165.505537 487.813439 
L 1177.549643 500.320873 
L 1177.549643 500.320873 
L 1189.995219 508.120787 
L 1189.995219 508.120787 
L 1202.039325 530.09735 
L 1202.039325 530.09735 
L 1214.484901 532.652342 
L 1214.484901 532.652342 
L 1226.930478 529.052607 
L 1226.930478 529.052607 
L 1238.974584 528.719573 
L 1238.974584 528.719573 
L 1251.42016 536.482041 
L 1251.42016 536.482041 
L 1263.464266 533.46326 
L 1263.464266 533.46326 
L 1275.909842 560.511518 
L 1275.909842 560.511518 
L 1288.355418 556.426394 
L 1288.355418 556.426394 
L 1299.596584 573.266521 
L 1299.596584 573.266521 
L 1312.04216 564.525001 
L 1312.04216 564.525001 
L 1324.086266 571.340863 
L 1324.086266 571.340863 
L 1336.531842 566.42507 
L 1336.531842 566.42507 
L 1348.575948 581.36787 
L 1348.575948 581.36787 
L 1361.021525 580.720518 
L 1361.021525 580.720518 
L 1373.467101 593.342473 
L 1373.467101 593.342473 
" clip-path="url(#pe3a539045a)" style="fill: none; stroke: #c17150; stroke-width: 1.5; stroke-linecap: round"/>
   </g>
   <g id="line2d_23">
    <path d="M 102.813917 584.235107 
L 115.259493 574.926792 
L 115.259493 574.926792 
L 126.500659 562.493841 
L 126.500659 562.493841 
L 138.946235 550.279804 
L 138.946235 550.279804 
L 150.990341 538.846635 
L 150.990341 538.846635 
L 163.435917 526.641737 
L 163.435917 526.641737 
L 175.480023 516.143017 
L 175.480023 516.143017 
L 187.925599 503.267228 
L 187.925599 503.267228 
L 200.371176 492.338933 
L 200.371176 492.338933 
L 212.415282 478.333337 
L 212.415282 478.333337 
L 224.860858 477.979621 
L 224.860858 477.979621 
L 236.904964 451.348527 
L 236.904964 451.348527 
L 249.35054 435.384039 
L 249.35054 435.384039 
L 261.796116 426.50615 
L 261.796116 426.50615 
L 273.438752 401.242526 
L 273.438752 401.242526 
L 285.884328 419.506652 
L 285.884328 419.506652 
L 297.928434 371.207393 
L 297.928434 371.207393 
L 310.37401 415.487641 
L 310.37401 415.487641 
L 322.418116 390.68871 
L 322.418116 390.68871 
L 334.863693 366.150805 
L 334.863693 366.150805 
L 347.309269 384.39351 
L 347.309269 384.39351 
L 359.353375 363.954696 
L 359.353375 363.954696 
L 371.798951 343.968917 
L 371.798951 343.968917 
L 383.843057 323.499042 
L 383.843057 323.499042 
L 396.288633 358.895252 
L 396.288633 358.895252 
L 408.73421 355.178664 
L 408.73421 355.178664 
L 419.975375 343.024864 
L 419.975375 343.024864 
L 432.420951 346.580179 
L 432.420951 346.580179 
L 444.465057 310.498933 
L 444.465057 310.498933 
L 456.910634 253.248387 
L 456.910634 253.248387 
L 468.95474 287.939242 
L 468.95474 287.939242 
L 481.400316 284.007417 
L 481.400316 284.007417 
L 493.845892 341.148843 
L 493.845892 341.148843 
L 505.889998 299.942358 
L 505.889998 299.942358 
L 518.335574 277.907856 
L 518.335574 277.907856 
L 530.37968 275.039737 
L 530.37968 275.039737 
L 542.825256 366.648927 
L 542.825256 366.648927 
L 555.270833 348.109683 
L 555.270833 348.109683 
L 566.511998 319.874384 
L 566.511998 319.874384 
L 578.957574 390.976835 
L 578.957574 390.976835 
L 591.00168 372.012255 
L 591.00168 372.012255 
L 603.447257 394.032617 
L 603.447257 394.032617 
L 615.491363 431.620055 
L 615.491363 431.620055 
L 627.936939 442.209768 
L 627.936939 442.209768 
L 640.382515 432.644498 
L 640.382515 432.644498 
L 652.426621 379.910092 
L 652.426621 379.910092 
L 664.872197 358.610705 
L 664.872197 358.610705 
L 676.916303 368.120815 
L 676.916303 368.120815 
L 689.36188 396.505358 
L 689.36188 396.505358 
L 701.807456 384.561182 
L 701.807456 384.561182 
L 713.048621 397.604124 
L 713.048621 397.604124 
L 725.494198 427.989505 
L 725.494198 427.989505 
L 737.538304 406.394349 
L 737.538304 406.394349 
L 749.98388 427.128804 
L 749.98388 427.128804 
L 762.027986 439.273949 
L 762.027986 439.273949 
L 774.473562 460.915994 
L 774.473562 460.915994 
L 786.919138 437.14347 
L 786.919138 437.14347 
L 798.963244 441.975895 
L 798.963244 441.975895 
L 811.40882 458.541039 
L 811.40882 458.541039 
L 823.452926 453.825936 
L 823.452926 453.825936 
L 835.898503 457.478412 
L 835.898503 457.478412 
L 848.344079 457.029932 
L 848.344079 457.029932 
L 859.986715 447.111789 
L 859.986715 447.111789 
L 872.432291 477.452732 
L 872.432291 477.452732 
L 884.476397 452.643535 
L 884.476397 452.643535 
L 896.921973 440.842237 
L 896.921973 440.842237 
L 908.966079 439.368396 
L 908.966079 439.368396 
L 921.411655 477.969765 
L 921.411655 477.969765 
L 933.857231 453.839029 
L 933.857231 453.839029 
L 945.901338 473.904264 
L 945.901338 473.904264 
L 958.346914 470.000217 
L 958.346914 470.000217 
L 970.39102 452.361545 
L 970.39102 452.361545 
L 982.836596 476.56401 
L 982.836596 476.56401 
L 995.282172 464.693423 
L 995.282172 464.693423 
L 1006.523338 520.143711 
L 1006.523338 520.143711 
L 1018.968914 508.459365 
L 1018.968914 508.459365 
L 1031.01302 510.891553 
L 1031.01302 510.891553 
L 1043.458596 510.363099 
L 1043.458596 510.363099 
L 1055.502702 506.753143 
L 1055.502702 506.753143 
L 1067.948278 502.58759 
L 1067.948278 502.58759 
L 1080.393855 506.338862 
L 1080.393855 506.338862 
L 1092.437961 498.884849 
L 1092.437961 498.884849 
L 1104.883537 509.952977 
L 1104.883537 509.952977 
L 1116.927643 497.794947 
L 1116.927643 497.794947 
L 1129.373219 517.285156 
L 1129.373219 517.285156 
L 1141.818795 523.484867 
L 1141.818795 523.484867 
L 1153.059961 508.722687 
L 1153.059961 508.722687 
L 1165.505537 504.245086 
L 1165.505537 504.245086 
L 1177.549643 509.675763 
L 1177.549643 509.675763 
L 1189.995219 512.112187 
L 1189.995219 512.112187 
L 1202.039325 538.331663 
L 1202.039325 538.331663 
L 1214.484901 541.000675 
L 1214.484901 541.000675 
L 1226.930478 535.18047 
L 1226.930478 535.18047 
L 1238.974584 532.525587 
L 1238.974584 532.525587 
L 1251.42016 540.817285 
L 1251.42016 540.817285 
L 1263.464266 535.708402 
L 1263.464266 535.708402 
L 1275.909842 559.261031 
L 1275.909842 559.261031 
L 1288.355418 556.001851 
L 1288.355418 556.001851 
L 1299.596584 566.276957 
L 1299.596584 566.276957 
L 1312.04216 558.434347 
L 1312.04216 558.434347 
L 1324.086266 562.111657 
L 1324.086266 562.111657 
L 1336.531842 564.522637 
L 1336.531842 564.522637 
L 1348.575948 578.124586 
L 1348.575948 578.124586 
L 1361.021525 577.641422 
L 1361.021525 577.641422 
L 1373.467101 593.342473 
L 1373.467101 593.342473 
" clip-path="url(#pe3a539045a)" style="fill: none; stroke: #c8f0e6; stroke-width: 1.5; stroke-linecap: round"/>
   </g>
   <g id="line2d_24">
    <path d="M 102.813917 585.196586 
L 115.259493 576.166139 
L 115.259493 576.166139 
L 126.500659 564.410595 
L 126.500659 564.410595 
L 138.946235 552.601189 
L 138.946235 552.601189 
L 150.990341 541.436186 
L 150.990341 541.436186 
L 163.435917 529.668763 
L 163.435917 529.668763 
L 175.480023 519.600165 
L 175.480023 519.600165 
L 187.925599 507.096664 
L 187.925599 507.096664 
L 200.371176 496.513882 
L 200.371176 496.513882 
L 212.415282 482.862183 
L 212.415282 482.862183 
L 224.860858 481.493098 
L 224.860858 481.493098 
L 236.904964 456.262714 
L 236.904964 456.262714 
L 249.35054 440.680951 
L 249.35054 440.680951 
L 261.796116 431.601095 
L 261.796116 431.601095 
L 273.438752 407.343105 
L 273.438752 407.343105 
L 285.884328 424.968096 
L 285.884328 424.968096 
L 297.928434 377.768949 
L 297.928434 377.768949 
L 310.37401 419.458481 
L 310.37401 419.458481 
L 322.418116 393.941492 
L 322.418116 393.941492 
L 334.863693 370.801497 
L 334.863693 370.801497 
L 347.309269 388.903317 
L 347.309269 388.903317 
L 359.353375 368.95442 
L 359.353375 368.95442 
L 371.798951 348.7142 
L 371.798951 348.7142 
L 383.843057 327.978648 
L 383.843057 327.978648 
L 396.288633 362.471391 
L 396.288633 362.471391 
L 408.73421 358.985624 
L 408.73421 358.985624 
L 419.975375 346.865397 
L 419.975375 346.865397 
L 432.420951 350.49787 
L 432.420951 350.49787 
L 444.465057 314.032237 
L 444.465057 314.032237 
L 456.910634 257.659332 
L 456.910634 257.659332 
L 468.95474 291.930181 
L 468.95474 291.930181 
L 481.400316 287.626905 
L 481.400316 287.626905 
L 493.845892 344.635616 
L 493.845892 344.635616 
L 505.889998 302.483207 
L 505.889998 302.483207 
L 518.335574 281.495608 
L 518.335574 281.495608 
L 530.37968 278.788862 
L 530.37968 278.788862 
L 542.825256 370.126539 
L 542.825256 370.126539 
L 555.270833 351.606711 
L 555.270833 351.606711 
L 566.511998 322.614147 
L 566.511998 322.614147 
L 578.957574 392.278673 
L 578.957574 392.278673 
L 591.00168 373.260991 
L 591.00168 373.260991 
L 603.447257 394.493022 
L 603.447257 394.493022 
L 615.491363 433.157005 
L 615.491363 433.157005 
L 627.936939 443.320209 
L 627.936939 443.320209 
L 640.382515 433.697387 
L 640.382515 433.697387 
L 652.426621 381.055019 
L 652.426621 381.055019 
L 664.872197 359.819614 
L 664.872197 359.819614 
L 676.916303 369.577922 
L 676.916303 369.577922 
L 689.36188 397.728495 
L 689.36188 397.728495 
L 701.807456 384.878155 
L 701.807456 384.878155 
L 713.048621 397.916937 
L 713.048621 397.916937 
L 725.494198 428.973814 
L 725.494198 428.973814 
L 737.538304 407.549572 
L 737.538304 407.549572 
L 749.98388 428.225318 
L 749.98388 428.225318 
L 762.027986 439.953335 
L 762.027986 439.953335 
L 774.473562 461.056086 
L 774.473562 461.056086 
L 786.919138 437.22256 
L 786.919138 437.22256 
L 798.963244 442.386889 
L 798.963244 442.386889 
L 811.40882 458.429542 
L 811.40882 458.429542 
L 823.452926 453.965335 
L 823.452926 453.965335 
L 835.898503 457.67311 
L 835.898503 457.67311 
L 848.344079 457.287805 
L 848.344079 457.287805 
L 859.986715 447.258743 
L 859.986715 447.258743 
L 872.432291 477.373228 
L 872.432291 477.373228 
L 884.476397 452.538147 
L 884.476397 452.538147 
L 896.921973 440.910449 
L 896.921973 440.910449 
L 908.966079 440.398505 
L 908.966079 440.398505 
L 921.411655 477.899578 
L 921.411655 477.899578 
L 933.857231 453.619958 
L 933.857231 453.619958 
L 945.901338 473.774745 
L 945.901338 473.774745 
L 958.346914 469.956425 
L 958.346914 469.956425 
L 970.39102 452.161824 
L 970.39102 452.161824 
L 982.836596 476.391949 
L 982.836596 476.391949 
L 995.282172 464.414207 
L 995.282172 464.414207 
L 1006.523338 520.0911 
L 1006.523338 520.0911 
L 1018.968914 508.401533 
L 1018.968914 508.401533 
L 1031.01302 510.834637 
L 1031.01302 510.834637 
L 1043.458596 510.146374 
L 1043.458596 510.146374 
L 1055.502702 506.499004 
L 1055.502702 506.499004 
L 1067.948278 502.248405 
L 1067.948278 502.248405 
L 1080.393855 506.056336 
L 1080.393855 506.056336 
L 1092.437961 498.600568 
L 1092.437961 498.600568 
L 1104.883537 509.613101 
L 1104.883537 509.613101 
L 1116.927643 497.501063 
L 1116.927643 497.501063 
L 1129.373219 517.238609 
L 1129.373219 517.238609 
L 1141.818795 523.23455 
L 1141.818795 523.23455 
L 1153.059961 508.463259 
L 1153.059961 508.463259 
L 1165.505537 503.814197 
L 1165.505537 503.814197 
L 1177.549643 509.419283 
L 1177.549643 509.419283 
L 1189.995219 511.628586 
L 1189.995219 511.628586 
L 1202.039325 537.874514 
L 1202.039325 537.874514 
L 1214.484901 540.73334 
L 1214.484901 540.73334 
L 1226.930478 534.916087 
L 1226.930478 534.916087 
L 1238.974584 532.22098 
L 1238.974584 532.22098 
L 1251.42016 540.450874 
L 1251.42016 540.450874 
L 1263.464266 535.486984 
L 1263.464266 535.486984 
L 1275.909842 558.930419 
L 1275.909842 558.930419 
L 1288.355418 555.917594 
L 1288.355418 555.917594 
L 1299.596584 566.374478 
L 1299.596584 566.374478 
L 1312.04216 558.590467 
L 1312.04216 558.590467 
L 1324.086266 562.449877 
L 1324.086266 562.449877 
L 1336.531842 565.111681 
L 1336.531842 565.111681 
L 1348.575948 578.340521 
L 1348.575948 578.340521 
L 1361.021525 577.861112 
L 1361.021525 577.861112 
L 1373.467101 593.342473 
L 1373.467101 593.342473 
" clip-path="url(#pe3a539045a)" style="fill: none; stroke: #ffbb00; stroke-width: 1.5; stroke-linecap: round"/>
   </g>
   <g id="patch_3">
    <path d="M 39.281258 620.772952 
L 39.281258 17.30242 
" style="fill: none; stroke: #808080; stroke-width: 0.8; stroke-linejoin: miter; stroke-linecap: square"/>
   </g>
   <g id="patch_4">
    <path d="M 39.281258 620.772952 
L 1436.99976 620.772952 
" style="fill: none; stroke: #808080; stroke-width: 0.8; stroke-linejoin: miter; stroke-linecap: square"/>
   </g>
   <g id="text_21">
    <!-- Out of Sample -->
    <g style="fill: #262626" transform="translate(700.908988 11.30242) scale(0.12 -0.12)">
     <defs>
      <path id="CMR17-4f" d="M 4307 2135 
C 4307 3437 3366 4416 2304 4416 
C 1216 4416 294 3424 294 2135 
C 294 845 1229 -128 2298 -128 
C 3392 -128 4307 864 4307 2135 
z
M 2304 -13 
C 1574 -13 781 711 781 2217 
C 781 3716 1651 4301 2298 4301 
C 2976 4301 3821 3698 3821 2217 
C 3821 686 3008 -13 2304 -13 
z
" transform="scale(0.015625)"/>
      <path id="CMR17-66" d="M 979 2560 
L 1709 2560 
L 1709 2725 
L 966 2725 
L 966 3494 
C 966 4022 1235 4352 1510 4352 
C 1594 4352 1690 4327 1754 4282 
C 1702 4269 1568 4225 1568 4067 
C 1568 3901 1696 3850 1786 3850 
C 1875 3850 2003 3901 2003 4067 
C 2003 4308 1773 4454 1517 4454 
C 1152 4454 653 4156 653 3481 
L 653 2725 
L 141 2725 
L 141 2560 
L 653 2560 
L 653 427 
C 653 184 627 153 218 153 
L 218 -13 
C 371 0 666 0 832 0 
C 1018 0 1344 0 1517 -13 
L 1517 153 
C 1056 153 979 153 979 439 
L 979 2560 
z
" transform="scale(0.015625)"/>
      <path id="CMR17-53" d="M 2803 4290 
C 2803 4404 2797 4411 2758 4411 
C 2720 4411 2707 4385 2682 4328 
L 2490 3907 
C 2246 4257 1875 4416 1472 4416 
C 819 4416 294 3901 294 3253 
C 294 3056 339 2776 557 2510 
C 794 2218 1018 2167 1530 2033 
C 1722 1982 2042 1899 2106 1874 
C 2470 1722 2662 1341 2662 985 
C 2662 527 2336 38 1779 38 
C 1094 38 454 419 410 1311 
C 403 1413 397 1419 352 1419 
C 301 1419 294 1413 294 1285 
L 294 -1 
C 294 -115 301 -122 339 -122 
C 384 -122 397 -90 486 108 
C 493 127 493 140 614 381 
C 934 -39 1472 -128 1779 -128 
C 2477 -128 2970 451 2970 1124 
C 2970 1454 2848 1708 2778 1823 
C 2509 2230 2221 2306 1914 2382 
C 1869 2402 1856 2402 1498 2490 
C 1152 2579 1005 2624 845 2796 
C 666 2992 602 3196 602 3399 
C 602 3812 934 4263 1478 4263 
C 2157 4263 2579 3786 2675 2993 
C 2694 2878 2701 2872 2746 2872 
C 2803 2872 2803 2891 2803 2999 
L 2803 4290 
z
" transform="scale(0.015625)"/>
      <path id="CMR17-6d" d="M 4326 1933 
C 4326 2252 4269 2790 3507 2790 
C 3072 2790 2771 2496 2656 2151 
L 2650 2151 
C 2573 2676 2195 2790 1837 2790 
C 1331 2790 1069 2400 973 2144 
L 966 2144 
L 966 2790 
L 211 2720 
L 211 2554 
C 589 2554 646 2515 646 2208 
L 646 428 
C 646 184 621 153 211 153 
L 211 -13 
C 365 0 646 0 813 0 
C 979 0 1267 0 1421 -13 
L 1421 153 
C 1011 153 986 178 986 428 
L 986 1658 
C 986 2247 1344 2688 1792 2688 
C 2266 2688 2317 2266 2317 1958 
L 2317 428 
C 2317 184 2291 153 1882 153 
L 1882 -13 
C 2035 0 2317 0 2483 0 
C 2650 0 2938 0 3091 -13 
L 3091 153 
C 2682 153 2656 178 2656 428 
L 2656 1658 
C 2656 2247 3014 2688 3462 2688 
C 3936 2688 3987 2266 3987 1958 
L 3987 428 
C 3987 184 3962 153 3552 153 
L 3552 -13 
C 3706 0 3987 0 4154 0 
C 4320 0 4608 0 4762 -13 
L 4762 153 
C 4352 153 4326 178 4326 428 
L 4326 1933 
z
" transform="scale(0.015625)"/>
      <path id="CMR17-70" d="M 1408 -1063 
C 998 -1063 973 -1037 973 -789 
L 973 402 
C 1158 134 1427 -38 1766 -38 
C 2406 -38 3053 523 3053 1388 
C 3053 2191 2496 2802 1837 2802 
C 1453 2802 1139 2592 960 2338 
L 960 2802 
L 198 2732 
L 198 2567 
C 576 2567 634 2528 634 2223 
L 634 -789 
C 634 -1031 608 -1063 198 -1063 
L 198 -1228 
C 352 -1216 634 -1216 800 -1216 
C 966 -1216 1254 -1216 1408 -1228 
L 1408 -1063 
z
M 973 2012 
C 973 2102 973 2235 1222 2471 
C 1254 2497 1472 2688 1792 2688 
C 2259 2688 2643 2108 2643 1382 
C 2643 656 2234 64 1728 64 
C 1498 64 1248 172 1056 472 
C 973 612 973 650 973 752 
L 973 2012 
z
" transform="scale(0.015625)"/>
     </defs>
     <use xlink:href="#CMR17-4f" transform="scale(0.996264)"/>
     <use xlink:href="#CMR17-75" transform="translate(71.714788 0) scale(0.996264)"/>
     <use xlink:href="#CMR17-74" transform="translate(122.610158 0) scale(0.996264)"/>
     <use xlink:href="#CMR17-6f" transform="translate(187.966892 0) scale(0.996264)"/>
     <use xlink:href="#CMR17-66" transform="translate(233.657369 0) scale(0.996264)"/>
     <use xlink:href="#CMR17-53" transform="translate(291.206848 0) scale(0.996264)"/>
     <use xlink:href="#CMR17-61" transform="translate(342.102218 0) scale(0.996264)"/>
     <use xlink:href="#CMR17-6d" transform="translate(387.792695 0) scale(0.996264)"/>
     <use xlink:href="#CMR17-70" transform="translate(464.712285 0) scale(0.996264)"/>
     <use xlink:href="#CMR17-6c" transform="translate(515.607655 0) scale(0.996264)"/>
     <use xlink:href="#CMR17-65" transform="translate(540.478713 0) scale(0.996264)"/>
    </g>
   </g>
   <g id="legend_1">
    <g id="patch_5">
     <path d="M 560.490091 716.994362 
L 915.790927 716.994362 
Q 917.790927 716.994362 917.790927 714.994362 
L 917.790927 688.120005 
Q 917.790927 686.120005 915.790927 686.120005 
L 560.490091 686.120005 
Q 558.490091 686.120005 558.490091 688.120005 
L 558.490091 714.994362 
Q 558.490091 716.994362 560.490091 716.994362 
z
" style="fill: #ffffff; opacity: 0.8"/>
    </g>
    <g id="line2d_25">
     <path d="M 562.490091 693.620005 
L 572.490091 693.620005 
L 582.490091 693.620005 
" style="fill: none; stroke: #006e64; stroke-width: 1.5; stroke-linecap: round"/>
    </g>
    <g id="text_22">
     <!-- Actual -->
     <g style="fill: #262626" transform="translate(590.490091 697.120005) scale(0.1 -0.1)">
      <defs>
       <path id="CMR17-41" d="M 2323 4378 
C 2291 4461 2278 4480 2214 4480 
C 2150 4480 2138 4461 2106 4378 
L 749 566 
C 627 223 371 153 147 153 
L 147 -13 
C 262 0 518 0 640 0 
C 800 0 1056 0 1210 -13 
L 1210 153 
C 909 153 864 361 864 439 
C 864 497 877 530 890 569 
L 1229 1536 
L 2906 1536 
L 3290 442 
C 3322 365 3322 352 3322 327 
C 3322 153 3046 153 2925 153 
L 2925 0 
C 3110 0 3443 0 3642 0 
C 3808 0 4128 0 4282 -13 
L 4282 153 
C 3942 153 3827 153 3744 387 
L 2323 4378 
z
M 2067 3893 
L 2848 1702 
L 1286 1702 
L 2067 3893 
z
" transform="scale(0.015625)"/>
       <path id="CMR17-63" d="M 2234 2240 
C 2112 2240 1933 2240 1933 2017 
C 1933 1838 2080 1787 2163 1787 
C 2208 1787 2394 1807 2394 2024 
C 2394 2467 1958 2803 1466 2803 
C 787 2803 211 2178 211 1363 
C 211 516 813 -64 1466 -64 
C 2259 -64 2458 677 2458 748 
C 2458 774 2451 793 2406 793 
C 2362 793 2355 787 2330 703 
C 2163 180 1798 51 1523 51 
C 1114 51 621 427 621 1369 
C 621 2338 1094 2688 1472 2688 
C 1722 2688 2093 2573 2234 2240 
z
" transform="scale(0.015625)"/>
      </defs>
      <use xlink:href="#CMR17-41" transform="scale(0.996264)"/>
      <use xlink:href="#CMR17-63" transform="translate(69.07243 0) scale(0.996264)"/>
      <use xlink:href="#CMR17-74" transform="translate(109.55809 0) scale(0.996264)"/>
      <use xlink:href="#CMR17-75" transform="translate(144.838858 0) scale(0.996264)"/>
      <use xlink:href="#CMR17-61" transform="translate(195.734228 0) scale(0.996264)"/>
      <use xlink:href="#CMR17-6c" transform="translate(241.424705 0) scale(0.996264)"/>
     </g>
    </g>
    <g id="line2d_26">
     <path d="M 562.490091 707.557183 
L 572.490091 707.557183 
L 582.490091 707.557183 
" style="fill: none; stroke: #734848; stroke-width: 1.5; stroke-linecap: round"/>
    </g>
    <g id="text_23">
     <!-- Elastic Net -->
     <g style="fill: #262626" transform="translate(590.490091 711.057183) scale(0.1 -0.1)">
      <defs>
       <path id="CMR17-45" d="M 3885 1615 
L 3770 1615 
C 3629 676 3546 166 2419 166 
L 1530 166 
C 1274 166 1261 197 1261 414 
L 1261 2176 
L 1862 2176 
C 2464 2176 2522 1960 2522 1430 
L 2637 1430 
L 2637 3081 
L 2522 3081 
C 2522 2557 2464 2342 1862 2342 
L 1261 2342 
L 1261 3913 
C 1261 4128 1274 4160 1530 4160 
L 2406 4160 
C 3398 4160 3514 3769 3603 2929 
L 3718 2929 
L 3565 4325 
L 326 4325 
L 326 4160 
C 768 4160 838 4160 838 3874 
L 838 451 
C 838 166 768 166 326 166 
L 326 0 
L 3654 0 
L 3885 1615 
z
" transform="scale(0.015625)"/>
       <path id="CMR17-73" d="M 1978 2697 
C 1978 2813 1971 2819 1933 2819 
C 1907 2819 1901 2813 1824 2717 
C 1805 2691 1747 2626 1728 2601 
C 1523 2819 1235 2819 1126 2819 
C 416 2819 160 2447 160 2076 
C 160 1498 813 1365 998 1325 
C 1402 1243 1542 1217 1677 1101 
C 1760 1025 1901 884 1901 654 
C 1901 384 1747 38 1158 38 
C 602 38 403 460 288 1021 
C 269 1110 269 1117 218 1117 
C 166 1117 160 1110 160 983 
L 160 63 
C 160 -51 166 -58 205 -58 
C 237 -58 243 -51 275 0 
C 314 57 410 211 448 276 
C 576 103 800 -64 1158 -64 
C 1792 -64 2131 283 2131 784 
C 2131 1112 1958 1285 1875 1362 
C 1683 1561 1459 1606 1190 1657 
C 838 1735 390 1825 390 2217 
C 390 2383 480 2737 1126 2737 
C 1811 2737 1850 2094 1862 1888 
C 1869 1856 1901 1849 1920 1849 
C 1978 1849 1978 1869 1978 1978 
L 1978 2697 
z
" transform="scale(0.015625)"/>
       <path id="CMR17-4e" d="M 1312 4250 
C 1267 4320 1261 4320 1139 4320 
L 326 4320 
L 326 4160 
L 448 4160 
C 704 4160 819 4129 838 4122 
L 838 610 
C 838 451 838 153 326 153 
L 326 -13 
C 474 0 742 0 902 0 
C 1062 0 1331 0 1478 -13 
L 1478 153 
C 966 153 966 451 966 610 
L 966 4033 
C 1011 3995 1011 3982 1056 3919 
L 3430 76 
C 3475 0 3494 0 3526 0 
C 3590 0 3590 19 3590 139 
L 3590 3705 
C 3590 3863 3590 4160 4102 4160 
L 4102 4326 
C 3955 4320 3686 4320 3526 4320 
C 3366 4320 3098 4320 2950 4326 
L 2950 4160 
C 3462 4160 3462 3862 3462 3703 
L 3462 763 
L 1312 4250 
z
" transform="scale(0.015625)"/>
      </defs>
      <use xlink:href="#CMR17-45" transform="scale(0.996264)"/>
      <use xlink:href="#CMR17-6c" transform="translate(62.586301 0) scale(0.996264)"/>
      <use xlink:href="#CMR17-61" transform="translate(87.457359 0) scale(0.996264)"/>
      <use xlink:href="#CMR17-73" transform="translate(133.147836 0) scale(0.996264)"/>
      <use xlink:href="#CMR17-74" transform="translate(168.949174 0) scale(0.996264)"/>
      <use xlink:href="#CMR17-69" transform="translate(204.229942 0) scale(0.996264)"/>
      <use xlink:href="#CMR17-63" transform="translate(229.101 0) scale(0.996264)"/>
      <use xlink:href="#CMR17-4e" transform="translate(299.662627 0) scale(0.996264)"/>
      <use xlink:href="#CMR17-65" transform="translate(368.735057 0) scale(0.996264)"/>
      <use xlink:href="#CMR17-74" transform="translate(409.220717 0) scale(0.996264)"/>
     </g>
    </g>
    <g id="line2d_27">
     <path d="M 659.113387 693.620005 
L 669.113387 693.620005 
L 679.113387 693.620005 
" style="fill: none; stroke: #004e4a; stroke-width: 1.5; stroke-linecap: round"/>
    </g>
    <g id="text_24">
     <!-- Full Random Forest -->
     <g style="fill: #262626" transform="translate(687.113387 697.120005) scale(0.1 -0.1)">
      <defs>
       <path id="CMR17-46" d="M 3482 4325 
L 326 4325 
L 326 4160 
C 768 4160 838 4160 838 3874 
L 838 446 
C 838 160 768 160 326 160 
L 326 0 
C 512 0 870 0 1069 0 
C 1331 0 1638 0 1901 0 
L 1901 160 
L 1760 160 
C 1274 160 1261 223 1261 452 
L 1261 2075 
L 1837 2075 
C 2432 2075 2490 1865 2490 1332 
L 2605 1332 
L 2605 2987 
L 2490 2987 
C 2490 2450 2432 2240 1837 2240 
L 1261 2240 
L 1261 3911 
C 1261 4128 1274 4160 1530 4160 
L 2355 4160 
C 3322 4160 3430 3765 3520 2916 
L 3635 2916 
L 3482 4325 
z
" transform="scale(0.015625)"/>
       <path id="CMR17-52" d="M 2509 2146 
C 3117 2268 3629 2676 3629 3186 
C 3629 3785 2950 4326 2054 4326 
L 333 4326 
L 333 4160 
C 774 4160 845 4160 845 3873 
L 845 415 
C 845 128 774 128 333 128 
L 333 -26 
C 518 -26 851 -26 1050 -26 
C 1248 -26 1581 -26 1766 -26 
L 1766 128 
C 1325 128 1254 128 1254 417 
L 1254 2112 
L 2003 2112 
C 2368 2112 2573 1964 2662 1881 
C 2918 1632 2918 1459 2918 1024 
C 2918 595 2918 377 3110 160 
C 3354 -102 3680 -128 3821 -128 
C 4294 -128 4365 396 4365 503 
C 4365 540 4365 585 4307 585 
C 4256 585 4250 547 4250 522 
C 4218 112 4032 -26 3834 -26 
C 3482 -26 3443 375 3405 764 
C 3386 898 3373 993 3360 1133 
C 3322 1452 3270 1917 2509 2146 
z
M 1984 2214 
L 1254 2214 
L 1254 3913 
C 1254 4129 1267 4160 1523 4160 
L 1990 4160 
C 2522 4160 3142 3977 3142 3190 
C 3142 2372 2464 2214 1984 2214 
z
" transform="scale(0.015625)"/>
       <path id="CMR17-64" d="M 1869 4326 
L 1869 4160 
C 2246 4160 2304 4122 2304 3820 
L 2304 2345 
C 2278 2377 2016 2790 1498 2790 
C 845 2790 211 2208 211 1364 
C 211 525 806 -64 1434 -64 
C 1978 -64 2259 337 2291 380 
L 2291 -63 
L 3066 -63 
L 3066 128 
C 2688 128 2630 166 2630 473 
L 2630 4396 
L 1869 4326 
z
M 2291 755 
C 2291 563 2176 390 2029 262 
C 1811 70 1594 38 1472 38 
C 1286 38 621 134 621 1356 
C 621 2612 1363 2688 1530 2688 
C 1824 2688 2061 2522 2208 2291 
C 2291 2157 2291 2138 2291 2023 
L 2291 755 
z
" transform="scale(0.015625)"/>
      </defs>
      <use xlink:href="#CMR17-46" transform="scale(0.996264)"/>
      <use xlink:href="#CMR17-75" transform="translate(52.176591 0) scale(0.996264)"/>
      <use xlink:href="#CMR17-6c" transform="translate(103.071961 0) scale(0.996264)"/>
      <use xlink:href="#CMR17-6c" transform="translate(127.943019 0) scale(0.996264)"/>
      <use xlink:href="#CMR17-52" transform="translate(182.890044 0) scale(0.996264)"/>
      <use xlink:href="#CMR17-61" transform="translate(250.681146 0) scale(0.996264)"/>
      <use xlink:href="#CMR17-6e" transform="translate(296.371623 0) scale(0.996264)"/>
      <use xlink:href="#CMR17-64" transform="translate(347.266993 0) scale(0.996264)"/>
      <use xlink:href="#CMR17-6f" transform="translate(398.162363 0) scale(0.996264)"/>
      <use xlink:href="#CMR17-6d" transform="translate(443.85284 0) scale(0.996264)"/>
      <use xlink:href="#CMR17-46" transform="translate(550.848396 0) scale(0.996264)"/>
      <use xlink:href="#CMR17-6f" transform="translate(603.024987 0) scale(0.996264)"/>
      <use xlink:href="#CMR17-72" transform="translate(648.715465 0) scale(0.996264)"/>
      <use xlink:href="#CMR17-65" transform="translate(683.996232 0) scale(0.996264)"/>
      <use xlink:href="#CMR17-73" transform="translate(724.481893 0) scale(0.996264)"/>
      <use xlink:href="#CMR17-74" transform="translate(760.28323 0) scale(0.996264)"/>
     </g>
    </g>
    <g id="line2d_28">
     <path d="M 659.113387 707.557183 
L 669.113387 707.557183 
L 679.113387 707.557183 
" style="fill: none; stroke: #c17150; stroke-width: 1.5; stroke-linecap: round"/>
    </g>
    <g id="text_25">
     <!-- Sparse Random Forest -->
     <g style="fill: #262626" transform="translate(687.113387 711.057183) scale(0.1 -0.1)">
      <use xlink:href="#CMR17-53" transform="scale(0.996264)"/>
      <use xlink:href="#CMR17-70" transform="translate(50.89537 0) scale(0.996264)"/>
      <use xlink:href="#CMR17-61" transform="translate(101.79074 0) scale(0.996264)"/>
      <use xlink:href="#CMR17-72" transform="translate(147.481217 0) scale(0.996264)"/>
      <use xlink:href="#CMR17-73" transform="translate(182.761984 0) scale(0.996264)"/>
      <use xlink:href="#CMR17-65" transform="translate(218.563322 0) scale(0.996264)"/>
      <use xlink:href="#CMR17-52" transform="translate(289.124949 0) scale(0.996264)"/>
      <use xlink:href="#CMR17-61" transform="translate(356.916051 0) scale(0.996264)"/>
      <use xlink:href="#CMR17-6e" transform="translate(402.606528 0) scale(0.996264)"/>
      <use xlink:href="#CMR17-64" transform="translate(453.501898 0) scale(0.996264)"/>
      <use xlink:href="#CMR17-6f" transform="translate(504.397268 0) scale(0.996264)"/>
      <use xlink:href="#CMR17-6d" transform="translate(550.087745 0) scale(0.996264)"/>
      <use xlink:href="#CMR17-46" transform="translate(657.083301 0) scale(0.996264)"/>
      <use xlink:href="#CMR17-6f" transform="translate(709.259892 0) scale(0.996264)"/>
      <use xlink:href="#CMR17-72" transform="translate(754.950369 0) scale(0.996264)"/>
      <use xlink:href="#CMR17-65" transform="translate(790.231137 0) scale(0.996264)"/>
      <use xlink:href="#CMR17-73" transform="translate(830.716797 0) scale(0.996264)"/>
      <use xlink:href="#CMR17-74" transform="translate(866.518135 0) scale(0.996264)"/>
     </g>
    </g>
    <g id="line2d_29">
     <path d="M 805.522308 693.620005 
L 815.522308 693.620005 
L 825.522308 693.620005 
" style="fill: none; stroke: #c8f0e6; stroke-width: 1.5; stroke-linecap: round"/>
    </g>
    <g id="text_26">
     <!-- Gradient Boosting -->
     <g style="fill: #262626" transform="translate(833.522308 697.120005) scale(0.1 -0.1)">
      <defs>
       <path id="CMR17-47" d="M 3974 1233 
C 3974 1473 3994 1505 4390 1505 
L 4390 1670 
C 4237 1664 3891 1664 3718 1664 
C 3539 1664 3040 1664 2797 1664 
L 2797 1505 
L 2989 1505 
C 3539 1505 3552 1434 3552 1201 
L 3552 774 
C 3552 63 2720 63 2522 63 
C 1862 63 781 511 781 2160 
C 781 3808 1843 4250 2464 4250 
C 3187 4250 3712 3626 3834 2741 
C 3846 2664 3846 2651 3904 2651 
C 3974 2651 3974 2664 3974 2779 
L 3974 4288 
C 3974 4402 3968 4409 3930 4409 
C 3904 4409 3898 4402 3853 4326 
L 3571 3791 
C 3258 4187 2874 4416 2381 4416 
C 1286 4416 294 3456 294 2148 
C 294 845 1267 -128 2394 -128 
C 2912 -128 3418 56 3616 417 
C 3725 158 3904 -20 3936 -20 
C 3968 -20 3974 -13 3974 100 
L 3974 1233 
z
" transform="scale(0.015625)"/>
       <path id="CMR17-42" d="M 333 4352 
L 333 4186 
C 774 4186 845 4186 845 3900 
L 845 452 
C 845 166 774 166 333 166 
L 333 0 
L 2534 0 
C 3354 0 3885 583 3885 1164 
C 3885 1741 3360 2233 2675 2233 
C 3290 2356 3718 2771 3718 3264 
C 3718 3802 3194 4352 2368 4352 
L 333 4352 
z
M 1248 2304 
L 1248 3937 
C 1248 4155 1261 4186 1517 4186 
L 2336 4186 
C 2970 4186 3251 3674 3251 3277 
C 3251 2791 2861 2304 2170 2304 
L 1248 2304 
z
M 1517 166 
C 1261 166 1248 197 1248 413 
L 1248 2202 
L 2432 2202 
C 3091 2202 3411 1625 3411 1162 
C 3411 699 3046 166 2349 166 
L 1517 166 
z
" transform="scale(0.015625)"/>
       <path id="CMR17-67" d="M 710 1164 
C 832 1068 1043 960 1299 960 
C 1805 960 2240 1357 2240 1888 
C 2240 2054 2189 2310 1997 2509 
C 2176 2692 2438 2752 2586 2752 
C 2611 2752 2650 2752 2682 2734 
C 2656 2728 2598 2703 2598 2605 
C 2598 2527 2656 2471 2739 2471 
C 2835 2471 2886 2533 2886 2614 
C 2886 2731 2790 2854 2586 2854 
C 2330 2854 2106 2738 1926 2580 
C 1734 2753 1504 2816 1299 2816 
C 794 2816 358 2419 358 1888 
C 358 1522 570 1292 634 1228 
C 442 1004 442 743 442 711 
C 442 545 506 302 723 168 
C 390 85 128 -169 128 -486 
C 128 -943 736 -1280 1466 -1280 
C 2170 -1280 2803 -956 2803 -479 
C 2803 384 1856 384 1363 384 
C 1216 384 954 384 922 391 
C 723 423 589 602 589 826 
C 589 883 589 1024 710 1164 
z
M 1299 1068 
C 736 1068 736 1760 736 1889 
C 736 2016 736 2708 1299 2708 
C 1862 2708 1862 2016 1862 1889 
C 1862 1760 1862 1068 1299 1068 
z
M 1466 -1171 
C 826 -1171 384 -835 384 -486 
C 384 -289 493 -105 634 -4 
C 794 104 858 104 1293 104 
C 1818 104 2547 104 2547 -486 
C 2547 -835 2106 -1171 1466 -1171 
z
" transform="scale(0.015625)"/>
      </defs>
      <use xlink:href="#CMR17-47" transform="scale(0.996264)"/>
      <use xlink:href="#CMR17-72" transform="translate(72.355346 0) scale(0.996264)"/>
      <use xlink:href="#CMR17-61" transform="translate(107.636114 0) scale(0.996264)"/>
      <use xlink:href="#CMR17-64" transform="translate(153.326591 0) scale(0.996264)"/>
      <use xlink:href="#CMR17-69" transform="translate(204.221961 0) scale(0.996264)"/>
      <use xlink:href="#CMR17-65" transform="translate(229.093019 0) scale(0.996264)"/>
      <use xlink:href="#CMR17-6e" transform="translate(269.57868 0) scale(0.996264)"/>
      <use xlink:href="#CMR17-74" transform="translate(317.871595 0) scale(0.996264)"/>
      <use xlink:href="#CMR17-42" transform="translate(383.22833 0) scale(0.996264)"/>
      <use xlink:href="#CMR17-6f" transform="translate(448.417084 0) scale(0.996264)"/>
      <use xlink:href="#CMR17-6f" transform="translate(496.71 0) scale(0.996264)"/>
      <use xlink:href="#CMR17-73" transform="translate(542.400477 0) scale(0.996264)"/>
      <use xlink:href="#CMR17-74" transform="translate(578.201815 0) scale(0.996264)"/>
      <use xlink:href="#CMR17-69" transform="translate(613.482582 0) scale(0.996264)"/>
      <use xlink:href="#CMR17-6e" transform="translate(638.353641 0) scale(0.996264)"/>
      <use xlink:href="#CMR17-67" transform="translate(689.249011 0) scale(0.996264)"/>
     </g>
    </g>
    <g id="line2d_30">
     <path d="M 805.522308 707.557183 
L 815.522308 707.557183 
L 825.522308 707.557183 
" style="fill: none; stroke: #ffbb00; stroke-width: 1.5; stroke-linecap: round"/>
    </g>
    <g id="text_27">
     <!-- XGBoost -->
     <g style="fill: #262626" transform="translate(833.522308 711.057183) scale(0.1 -0.1)">
      <defs>
       <path id="CMR17-58" d="M 2336 2398 
L 3283 3753 
C 3379 3886 3571 4160 4096 4160 
L 4096 4332 
C 3949 4319 3706 4319 3552 4319 
C 3341 4319 3078 4319 2918 4332 
L 2918 4166 
C 3123 4147 3174 4020 3174 3918 
C 3174 3843 3142 3792 3098 3728 
L 2253 2513 
L 1306 3887 
C 1261 3956 1254 3975 1254 3994 
C 1254 4052 1325 4160 1536 4160 
L 1536 4319 
C 1331 4319 1018 4319 806 4319 
C 640 4319 320 4319 166 4332 
L 166 4160 
C 518 4160 634 4148 774 3951 
L 2010 2163 
L 896 549 
C 621 153 205 153 83 153 
L 83 -13 
C 230 0 474 0 627 0 
C 800 0 1101 0 1261 -13 
L 1261 153 
C 1062 172 1005 299 1005 401 
C 1005 483 1037 528 1069 572 
L 2093 2048 
L 3206 422 
C 3258 352 3258 333 3258 314 
C 3258 263 3200 153 2976 153 
L 2976 0 
C 3181 0 3494 0 3706 0 
C 3872 0 4192 0 4346 -13 
L 4346 153 
C 3936 153 3872 184 3744 363 
L 2336 2398 
z
" transform="scale(0.015625)"/>
      </defs>
      <use xlink:href="#CMR17-58" transform="scale(0.996264)"/>
      <use xlink:href="#CMR17-47" transform="translate(66.469976 0) scale(0.996264)"/>
      <use xlink:href="#CMR17-42" transform="translate(138.825322 0) scale(0.996264)"/>
      <use xlink:href="#CMR17-6f" transform="translate(204.014076 0) scale(0.996264)"/>
      <use xlink:href="#CMR17-6f" transform="translate(252.306992 0) scale(0.996264)"/>
      <use xlink:href="#CMR17-73" transform="translate(297.997469 0) scale(0.996264)"/>
      <use xlink:href="#CMR17-74" transform="translate(333.798807 0) scale(0.996264)"/>
     </g>
    </g>
   </g>
  </g>
 </g>
 <defs>
  <clipPath id="pe3a539045a">
   <rect x="39.281258" y="17.30242" width="1397.718502" height="603.470532"/>
  </clipPath>
 </defs>
</svg>
