<?xml version="1.0" encoding="utf-8" standalone="no"?>
<!DOCTYPE svg PUBLIC "-//W3C//DTD SVG 1.1//EN"
  "http://www.w3.org/Graphics/SVG/1.1/DTD/svg11.dtd">
<svg xmlns:xlink="http://www.w3.org/1999/xlink" width="1440pt" height="720pt" viewBox="0 0 1440 720" xmlns="http://www.w3.org/2000/svg" version="1.1">
 <metadata>
  <rdf:RDF xmlns:dc="http://purl.org/dc/elements/1.1/" xmlns:cc="http://creativecommons.org/ns#" xmlns:rdf="http://www.w3.org/1999/02/22-rdf-syntax-ns#">
   <cc:Work>
    <dc:type rdf:resource="http://purl.org/dc/dcmitype/StillImage"/>
    <dc:date>2023-12-03T18:35:08.959954</dc:date>
    <dc:format>image/svg+xml</dc:format>
    <dc:creator>
     <cc:Agent>
      <dc:title>Matplotlib v3.8.0, https://matplotlib.org/</dc:title>
     </cc:Agent>
    </dc:creator>
   </cc:Work>
  </rdf:RDF>
 </metadata>
 <defs>
  <style type="text/css">*{stroke-linejoin: round; stroke-linecap: butt}</style>
 </defs>
 <g id="figure_1">
  <g id="patch_1">
   <path d="M 0 720 
L 1440 720 
L 1440 0 
L 0 0 
z
" style="fill: #ffffff"/>
  </g>
  <g id="axes_1">
   <g id="patch_2">
    <path d="M 37.350966 614.258685 
L 1436.99976 614.258685 
L 1436.99976 25.604645 
L 37.350966 25.604645 
z
" style="fill: #ffffff"/>
   </g>
   <g id="matplotlib.axis_1">
    <g id="xtick_1">
     <g id="line2d_1">
      <path d="M 88.105764 614.258685 
L 88.105764 25.604645 
" clip-path="url(#pf97f2b4894)" style="fill: none; stroke: #cccccc; stroke-opacity: 0.35; stroke-width: 0.8; stroke-linecap: round"/>
     </g>
     <g id="text_1">
      <!-- $\mathdefault{0}$ -->
      <g transform="translate(83.536716 631.595682) scale(0.2 -0.2)">
       <defs>
        <path id="CMR17-30" d="M 2688 2025 
C 2688 2416 2682 3080 2413 3591 
C 2176 4039 1798 4198 1466 4198 
C 1158 4198 768 4058 525 3597 
C 269 3118 243 2524 243 2025 
C 243 1661 250 1106 448 619 
C 723 -39 1216 -128 1466 -128 
C 1760 -128 2208 -7 2470 600 
C 2662 1042 2688 1559 2688 2025 
z
M 1466 -26 
C 1056 -26 813 325 723 812 
C 653 1188 653 1738 653 2096 
C 653 2588 653 2997 736 3387 
C 858 3929 1216 4096 1466 4096 
C 1728 4096 2067 3923 2189 3400 
C 2272 3036 2278 2607 2278 2096 
C 2278 1680 2278 1169 2202 792 
C 2067 95 1690 -26 1466 -26 
z
" transform="scale(0.015625)"/>
       </defs>
       <use xlink:href="#CMR17-30" transform="scale(0.996264)"/>
      </g>
     </g>
    </g>
    <g id="xtick_2">
     <g id="line2d_2">
      <path d="M 345.417795 614.258685 
L 345.417795 25.604645 
" clip-path="url(#pf97f2b4894)" style="fill: none; stroke: #cccccc; stroke-opacity: 0.35; stroke-width: 0.8; stroke-linecap: round"/>
     </g>
     <g id="text_2">
      <!-- $\mathdefault{200}$ -->
      <g transform="translate(331.710652 631.595682) scale(0.2 -0.2)">
       <defs>
        <path id="CMR17-32" d="M 2669 989 
L 2554 989 
C 2490 536 2438 459 2413 420 
C 2381 369 1920 369 1830 369 
L 602 369 
C 832 619 1280 1072 1824 1597 
C 2214 1967 2669 2402 2669 3035 
C 2669 3790 2067 4224 1395 4224 
C 691 4224 262 3604 262 3030 
C 262 2780 448 2748 525 2748 
C 589 2748 781 2787 781 3010 
C 781 3207 614 3264 525 3264 
C 486 3264 448 3258 422 3245 
C 544 3790 915 4058 1306 4058 
C 1862 4058 2227 3617 2227 3035 
C 2227 2479 1901 2000 1536 1584 
L 262 146 
L 262 0 
L 2515 0 
L 2669 989 
z
" transform="scale(0.015625)"/>
       </defs>
       <use xlink:href="#CMR17-32" transform="scale(0.996264)"/>
       <use xlink:href="#CMR17-30" transform="translate(45.690477 0) scale(0.996264)"/>
       <use xlink:href="#CMR17-30" transform="translate(91.380954 0) scale(0.996264)"/>
      </g>
     </g>
    </g>
    <g id="xtick_3">
     <g id="line2d_3">
      <path d="M 602.729827 614.258685 
L 602.729827 25.604645 
" clip-path="url(#pf97f2b4894)" style="fill: none; stroke: #cccccc; stroke-opacity: 0.35; stroke-width: 0.8; stroke-linecap: round"/>
     </g>
     <g id="text_3">
      <!-- $\mathdefault{400}$ -->
      <g transform="translate(589.022683 631.595682) scale(0.2 -0.2)">
       <defs>
        <path id="CMR17-34" d="M 2150 4122 
C 2150 4256 2144 4256 2029 4256 
L 128 1254 
L 128 1088 
L 1779 1088 
L 1779 457 
C 1779 224 1766 160 1318 160 
L 1197 160 
L 1197 0 
C 1402 0 1747 0 1965 0 
C 2182 0 2528 0 2733 0 
L 2733 160 
L 2611 160 
C 2163 160 2150 224 2150 457 
L 2150 1088 
L 2803 1088 
L 2803 1254 
L 2150 1254 
L 2150 4122 
z
M 1798 3703 
L 1798 1254 
L 256 1254 
L 1798 3703 
z
" transform="scale(0.015625)"/>
       </defs>
       <use xlink:href="#CMR17-34" transform="scale(0.996264)"/>
       <use xlink:href="#CMR17-30" transform="translate(45.690477 0) scale(0.996264)"/>
       <use xlink:href="#CMR17-30" transform="translate(91.380954 0) scale(0.996264)"/>
      </g>
     </g>
    </g>
    <g id="xtick_4">
     <g id="line2d_4">
      <path d="M 860.041858 614.258685 
L 860.041858 25.604645 
" clip-path="url(#pf97f2b4894)" style="fill: none; stroke: #cccccc; stroke-opacity: 0.35; stroke-width: 0.8; stroke-linecap: round"/>
     </g>
     <g id="text_4">
      <!-- $\mathdefault{600}$ -->
      <g transform="translate(846.334715 631.595682) scale(0.2 -0.2)">
       <defs>
        <path id="CMR17-36" d="M 678 2176 
C 678 3690 1395 4032 1811 4032 
C 1946 4032 2272 4009 2400 3776 
C 2298 3776 2106 3776 2106 3553 
C 2106 3381 2246 3323 2336 3323 
C 2394 3323 2566 3348 2566 3560 
C 2566 3954 2246 4179 1805 4179 
C 1043 4179 243 3390 243 1984 
C 243 253 966 -128 1478 -128 
C 2099 -128 2688 427 2688 1283 
C 2688 2081 2170 2662 1517 2662 
C 1126 2662 838 2407 678 1960 
L 678 2176 
z
M 1478 25 
C 691 25 691 1200 691 1436 
C 691 1896 909 2560 1504 2560 
C 1613 2560 1926 2560 2138 2120 
C 2253 1870 2253 1609 2253 1289 
C 2253 944 2253 690 2118 434 
C 1978 171 1773 25 1478 25 
z
" transform="scale(0.015625)"/>
       </defs>
       <use xlink:href="#CMR17-36" transform="scale(0.996264)"/>
       <use xlink:href="#CMR17-30" transform="translate(45.690477 0) scale(0.996264)"/>
       <use xlink:href="#CMR17-30" transform="translate(91.380954 0) scale(0.996264)"/>
      </g>
     </g>
    </g>
    <g id="xtick_5">
     <g id="line2d_5">
      <path d="M 1117.353889 614.258685 
L 1117.353889 25.604645 
" clip-path="url(#pf97f2b4894)" style="fill: none; stroke: #cccccc; stroke-opacity: 0.35; stroke-width: 0.8; stroke-linecap: round"/>
     </g>
     <g id="text_5">
      <!-- $\mathdefault{800}$ -->
      <g transform="translate(1103.646746 631.595682) scale(0.2 -0.2)">
       <defs>
        <path id="CMR17-38" d="M 1741 2264 
C 2144 2467 2554 2773 2554 3263 
C 2554 3841 1990 4179 1472 4179 
C 890 4179 378 3759 378 3180 
C 378 3021 416 2747 666 2505 
C 730 2442 998 2251 1171 2130 
C 883 1983 211 1634 211 934 
C 211 279 838 -128 1459 -128 
C 2144 -128 2720 362 2720 1010 
C 2720 1590 2330 1857 2074 2029 
L 1741 2264 
z
M 902 2822 
C 851 2854 595 3051 595 3351 
C 595 3739 998 4032 1459 4032 
C 1965 4032 2336 3676 2336 3262 
C 2336 2669 1670 2331 1638 2331 
C 1632 2331 1626 2331 1574 2370 
L 902 2822 
z
M 2080 1519 
C 2176 1449 2483 1240 2483 851 
C 2483 381 2010 25 1472 25 
C 890 25 448 438 448 940 
C 448 1443 838 1862 1280 2060 
L 2080 1519 
z
" transform="scale(0.015625)"/>
       </defs>
       <use xlink:href="#CMR17-38" transform="scale(0.996264)"/>
       <use xlink:href="#CMR17-30" transform="translate(45.690477 0) scale(0.996264)"/>
       <use xlink:href="#CMR17-30" transform="translate(91.380954 0) scale(0.996264)"/>
      </g>
     </g>
    </g>
    <g id="xtick_6">
     <g id="line2d_6">
      <path d="M 1374.66592 614.258685 
L 1374.66592 25.604645 
" clip-path="url(#pf97f2b4894)" style="fill: none; stroke: #cccccc; stroke-opacity: 0.35; stroke-width: 0.8; stroke-linecap: round"/>
     </g>
     <g id="text_6">
      <!-- $\mathdefault{1000}$ -->
      <g transform="translate(1356.38973 631.595682) scale(0.2 -0.2)">
       <defs>
        <path id="CMR17-31" d="M 1702 4058 
C 1702 4192 1696 4192 1606 4192 
C 1357 3916 979 3827 621 3827 
C 602 3827 570 3827 563 3808 
C 557 3795 557 3782 557 3648 
C 755 3648 1088 3686 1344 3839 
L 1344 461 
C 1344 236 1331 160 781 160 
L 589 160 
L 589 0 
C 896 0 1216 0 1523 0 
C 1830 0 2150 0 2458 0 
L 2458 160 
L 2266 160 
C 1715 160 1702 230 1702 458 
L 1702 4058 
z
" transform="scale(0.015625)"/>
       </defs>
       <use xlink:href="#CMR17-31" transform="scale(0.996264)"/>
       <use xlink:href="#CMR17-30" transform="translate(45.690477 0) scale(0.996264)"/>
       <use xlink:href="#CMR17-30" transform="translate(91.380954 0) scale(0.996264)"/>
       <use xlink:href="#CMR17-30" transform="translate(137.071431 0) scale(0.996264)"/>
      </g>
     </g>
    </g>
    <g id="text_7">
     <!-- Epoch -->
     <g style="fill: #696969" transform="translate(711.859827 653.308312) scale(0.2 -0.2)">
      <defs>
       <path id="CMR17-45" d="M 3885 1615 
L 3770 1615 
C 3629 676 3546 166 2419 166 
L 1530 166 
C 1274 166 1261 197 1261 414 
L 1261 2176 
L 1862 2176 
C 2464 2176 2522 1960 2522 1430 
L 2637 1430 
L 2637 3081 
L 2522 3081 
C 2522 2557 2464 2342 1862 2342 
L 1261 2342 
L 1261 3913 
C 1261 4128 1274 4160 1530 4160 
L 2406 4160 
C 3398 4160 3514 3769 3603 2929 
L 3718 2929 
L 3565 4325 
L 326 4325 
L 326 4160 
C 768 4160 838 4160 838 3874 
L 838 451 
C 838 166 768 166 326 166 
L 326 0 
L 3654 0 
L 3885 1615 
z
" transform="scale(0.015625)"/>
       <path id="CMR17-70" d="M 1408 -1063 
C 998 -1063 973 -1037 973 -789 
L 973 402 
C 1158 134 1427 -38 1766 -38 
C 2406 -38 3053 523 3053 1388 
C 3053 2191 2496 2802 1837 2802 
C 1453 2802 1139 2592 960 2338 
L 960 2802 
L 198 2732 
L 198 2567 
C 576 2567 634 2528 634 2223 
L 634 -789 
C 634 -1031 608 -1063 198 -1063 
L 198 -1228 
C 352 -1216 634 -1216 800 -1216 
C 966 -1216 1254 -1216 1408 -1228 
L 1408 -1063 
z
M 973 2012 
C 973 2102 973 2235 1222 2471 
C 1254 2497 1472 2688 1792 2688 
C 2259 2688 2643 2108 2643 1382 
C 2643 656 2234 64 1728 64 
C 1498 64 1248 172 1056 472 
C 973 612 973 650 973 752 
L 973 2012 
z
" transform="scale(0.015625)"/>
       <path id="CMR17-6f" d="M 2758 1356 
C 2758 2176 2163 2816 1466 2816 
C 768 2816 173 2176 173 1356 
C 173 551 768 -64 1466 -64 
C 2163 -64 2758 551 2758 1356 
z
M 1466 51 
C 1165 51 909 230 762 480 
C 602 767 582 1126 582 1408 
C 582 1677 595 2010 762 2298 
C 890 2509 1139 2714 1466 2714 
C 1754 2714 1997 2554 2150 2330 
C 2349 2029 2349 1607 2349 1408 
C 2349 1158 2336 775 2163 467 
C 1984 173 1709 51 1466 51 
z
" transform="scale(0.015625)"/>
       <path id="CMR17-63" d="M 2234 2240 
C 2112 2240 1933 2240 1933 2017 
C 1933 1838 2080 1787 2163 1787 
C 2208 1787 2394 1807 2394 2024 
C 2394 2467 1958 2803 1466 2803 
C 787 2803 211 2178 211 1363 
C 211 516 813 -64 1466 -64 
C 2259 -64 2458 677 2458 748 
C 2458 774 2451 793 2406 793 
C 2362 793 2355 787 2330 703 
C 2163 180 1798 51 1523 51 
C 1114 51 621 427 621 1369 
C 621 2338 1094 2688 1472 2688 
C 1722 2688 2093 2573 2234 2240 
z
" transform="scale(0.015625)"/>
       <path id="CMR17-68" d="M 2656 1933 
C 2656 2259 2592 2790 1837 2790 
C 1312 2790 1056 2368 979 2157 
L 973 2157 
L 973 4396 
L 211 4326 
L 211 4160 
C 589 4160 646 4122 646 3817 
L 646 426 
C 646 184 621 153 211 153 
L 211 -13 
C 365 0 646 0 813 0 
C 979 0 1267 0 1421 -13 
L 1421 153 
C 1011 153 986 178 986 428 
L 986 1658 
C 986 2247 1344 2688 1792 2688 
C 2266 2688 2317 2266 2317 1958 
L 2317 428 
C 2317 184 2291 153 1882 153 
L 1882 -13 
C 2035 0 2317 0 2483 0 
C 2650 0 2938 0 3091 -13 
L 3091 153 
C 2682 153 2656 178 2656 428 
L 2656 1933 
z
" transform="scale(0.015625)"/>
      </defs>
      <use xlink:href="#CMR17-45" transform="scale(0.996264)"/>
      <use xlink:href="#CMR17-70" transform="translate(62.586301 0) scale(0.996264)"/>
      <use xlink:href="#CMR17-6f" transform="translate(116.084109 0) scale(0.996264)"/>
      <use xlink:href="#CMR17-63" transform="translate(164.377025 0) scale(0.996264)"/>
      <use xlink:href="#CMR17-68" transform="translate(202.260231 0) scale(0.996264)"/>
     </g>
    </g>
   </g>
   <g id="matplotlib.axis_2">
    <g id="ytick_1">
     <g id="line2d_7">
      <path d="M 37.350966 542.91213 
L 1436.99976 542.91213 
" clip-path="url(#pf97f2b4894)" style="fill: none; stroke: #cccccc; stroke-opacity: 0.35; stroke-width: 0.8; stroke-linecap: round"/>
     </g>
     <g id="text_8">
      <!-- $\mathdefault{1}$ -->
      <g transform="translate(24.71287 549.830629) scale(0.2 -0.2)">
       <use xlink:href="#CMR17-31" transform="scale(0.996264)"/>
      </g>
     </g>
    </g>
    <g id="ytick_2">
     <g id="line2d_8">
      <path d="M 37.350966 465.327714 
L 1436.99976 465.327714 
" clip-path="url(#pf97f2b4894)" style="fill: none; stroke: #cccccc; stroke-opacity: 0.35; stroke-width: 0.8; stroke-linecap: round"/>
     </g>
     <g id="text_9">
      <!-- $\mathdefault{2}$ -->
      <g transform="translate(24.71287 472.246212) scale(0.2 -0.2)">
       <use xlink:href="#CMR17-32" transform="scale(0.996264)"/>
      </g>
     </g>
    </g>
    <g id="ytick_3">
     <g id="line2d_9">
      <path d="M 37.350966 387.743297 
L 1436.99976 387.743297 
" clip-path="url(#pf97f2b4894)" style="fill: none; stroke: #cccccc; stroke-opacity: 0.35; stroke-width: 0.8; stroke-linecap: round"/>
     </g>
     <g id="text_10">
      <!-- $\mathdefault{3}$ -->
      <g transform="translate(24.71287 394.661796) scale(0.2 -0.2)">
       <defs>
        <path id="CMR17-33" d="M 1414 2157 
C 1984 2157 2234 1662 2234 1090 
C 2234 320 1824 25 1453 25 
C 1114 25 563 194 390 693 
C 422 680 454 680 486 680 
C 640 680 755 782 755 948 
C 755 1133 614 1216 486 1216 
C 378 1216 211 1165 211 926 
C 211 335 787 -128 1466 -128 
C 2176 -128 2720 430 2720 1085 
C 2720 1707 2208 2157 1600 2227 
C 2086 2328 2554 2756 2554 3329 
C 2554 3820 2048 4179 1472 4179 
C 890 4179 378 3829 378 3329 
C 378 3110 544 3072 627 3072 
C 762 3072 877 3155 877 3321 
C 877 3486 762 3569 627 3569 
C 602 3569 570 3569 544 3557 
C 730 3959 1235 4032 1459 4032 
C 1683 4032 2106 3925 2106 3320 
C 2106 3143 2080 2828 1862 2550 
C 1670 2304 1453 2304 1242 2284 
C 1210 2284 1062 2269 1037 2269 
C 992 2263 966 2257 966 2208 
C 966 2163 973 2157 1101 2157 
L 1414 2157 
z
" transform="scale(0.015625)"/>
       </defs>
       <use xlink:href="#CMR17-33" transform="scale(0.996264)"/>
      </g>
     </g>
    </g>
    <g id="ytick_4">
     <g id="line2d_10">
      <path d="M 37.350966 310.158881 
L 1436.99976 310.158881 
" clip-path="url(#pf97f2b4894)" style="fill: none; stroke: #cccccc; stroke-opacity: 0.35; stroke-width: 0.8; stroke-linecap: round"/>
     </g>
     <g id="text_11">
      <!-- $\mathdefault{4}$ -->
      <g transform="translate(24.71287 317.077379) scale(0.2 -0.2)">
       <use xlink:href="#CMR17-34" transform="scale(0.996264)"/>
      </g>
     </g>
    </g>
    <g id="ytick_5">
     <g id="line2d_11">
      <path d="M 37.350966 232.574464 
L 1436.99976 232.574464 
" clip-path="url(#pf97f2b4894)" style="fill: none; stroke: #cccccc; stroke-opacity: 0.35; stroke-width: 0.8; stroke-linecap: round"/>
     </g>
     <g id="text_12">
      <!-- $\mathdefault{5}$ -->
      <g transform="translate(24.71287 239.492963) scale(0.2 -0.2)">
       <defs>
        <path id="CMR17-35" d="M 730 3692 
C 794 3666 1056 3584 1325 3584 
C 1920 3584 2246 3911 2432 4100 
C 2432 4157 2432 4192 2394 4192 
C 2387 4192 2374 4192 2323 4163 
C 2099 4058 1837 3973 1517 3973 
C 1325 3973 1037 3999 723 4139 
C 653 4171 640 4171 634 4171 
C 602 4171 595 4164 595 4037 
L 595 2203 
C 595 2089 595 2057 659 2057 
C 691 2057 704 2070 736 2114 
C 941 2401 1222 2522 1542 2522 
C 1766 2522 2246 2382 2246 1289 
C 2246 1085 2246 715 2054 421 
C 1894 159 1645 25 1370 25 
C 947 25 518 320 403 814 
C 429 807 480 795 506 795 
C 589 795 749 840 749 1038 
C 749 1210 627 1280 506 1280 
C 358 1280 262 1190 262 1011 
C 262 454 704 -128 1382 -128 
C 2042 -128 2669 440 2669 1264 
C 2669 2030 2170 2624 1549 2624 
C 1222 2624 947 2503 730 2274 
L 730 3692 
z
" transform="scale(0.015625)"/>
       </defs>
       <use xlink:href="#CMR17-35" transform="scale(0.996264)"/>
      </g>
     </g>
    </g>
    <g id="ytick_6">
     <g id="line2d_12">
      <path d="M 37.350966 154.990048 
L 1436.99976 154.990048 
" clip-path="url(#pf97f2b4894)" style="fill: none; stroke: #cccccc; stroke-opacity: 0.35; stroke-width: 0.8; stroke-linecap: round"/>
     </g>
     <g id="text_13">
      <!-- $\mathdefault{6}$ -->
      <g transform="translate(24.71287 161.908546) scale(0.2 -0.2)">
       <use xlink:href="#CMR17-36" transform="scale(0.996264)"/>
      </g>
     </g>
    </g>
    <g id="ytick_7">
     <g id="line2d_13">
      <path d="M 37.350966 77.405632 
L 1436.99976 77.405632 
" clip-path="url(#pf97f2b4894)" style="fill: none; stroke: #cccccc; stroke-opacity: 0.35; stroke-width: 0.8; stroke-linecap: round"/>
     </g>
     <g id="text_14">
      <!-- $\mathdefault{7}$ -->
      <g transform="translate(24.71287 84.32413) scale(0.2 -0.2)">
       <defs>
        <path id="CMR17-37" d="M 2886 3941 
L 2886 4081 
L 1382 4081 
C 634 4081 621 4165 595 4288 
L 480 4288 
L 294 3094 
L 410 3094 
C 429 3215 474 3540 550 3661 
C 589 3712 1062 3712 1171 3712 
L 2579 3712 
L 1869 2661 
C 1395 1954 1069 999 1069 165 
C 1069 89 1069 -128 1299 -128 
C 1530 -128 1530 89 1530 171 
L 1530 465 
C 1530 1508 1709 2196 2003 2636 
L 2886 3941 
z
" transform="scale(0.015625)"/>
       </defs>
       <use xlink:href="#CMR17-37" transform="scale(0.996264)"/>
      </g>
     </g>
    </g>
    <g id="text_15">
     <!-- Loss -->
     <g style="fill: #696969" transform="translate(16.837237 337.399121) rotate(-90) scale(0.2 -0.2)">
      <defs>
       <path id="CMR17-4c" d="M 3469 1615 
L 3354 1615 
C 3302 983 3219 166 2125 166 
L 1530 166 
C 1274 166 1261 197 1261 414 
L 1261 3898 
C 1261 4129 1274 4192 1760 4192 
L 1901 4192 
L 1901 4352 
C 1638 4352 1331 4352 1069 4352 
C 870 4352 512 4352 326 4352 
L 326 4192 
C 768 4192 838 4192 838 3905 
L 838 452 
C 838 166 768 166 326 166 
L 326 0 
L 3315 0 
L 3469 1615 
z
" transform="scale(0.015625)"/>
       <path id="CMR17-73" d="M 1978 2697 
C 1978 2813 1971 2819 1933 2819 
C 1907 2819 1901 2813 1824 2717 
C 1805 2691 1747 2626 1728 2601 
C 1523 2819 1235 2819 1126 2819 
C 416 2819 160 2447 160 2076 
C 160 1498 813 1365 998 1325 
C 1402 1243 1542 1217 1677 1101 
C 1760 1025 1901 884 1901 654 
C 1901 384 1747 38 1158 38 
C 602 38 403 460 288 1021 
C 269 1110 269 1117 218 1117 
C 166 1117 160 1110 160 983 
L 160 63 
C 160 -51 166 -58 205 -58 
C 237 -58 243 -51 275 0 
C 314 57 410 211 448 276 
C 576 103 800 -64 1158 -64 
C 1792 -64 2131 283 2131 784 
C 2131 1112 1958 1285 1875 1362 
C 1683 1561 1459 1606 1190 1657 
C 838 1735 390 1825 390 2217 
C 390 2383 480 2737 1126 2737 
C 1811 2737 1850 2094 1862 1888 
C 1869 1856 1901 1849 1920 1849 
C 1978 1849 1978 1869 1978 1978 
L 1978 2697 
z
" transform="scale(0.015625)"/>
      </defs>
      <use xlink:href="#CMR17-4c" transform="scale(0.996264)"/>
      <use xlink:href="#CMR17-6f" transform="translate(57.381408 0) scale(0.996264)"/>
      <use xlink:href="#CMR17-73" transform="translate(103.071885 0) scale(0.996264)"/>
      <use xlink:href="#CMR17-73" transform="translate(138.873223 0) scale(0.996264)"/>
     </g>
    </g>
   </g>
   <g id="line2d_14">
    <path d="M 100.971366 294.303766 
L 103.544486 352.80317 
L 104.831046 379.23559 
L 106.117606 401.23919 
L 107.404166 415.347162 
L 108.690726 424.90235 
L 109.977287 431.807386 
L 111.263847 436.399277 
L 112.550407 440.478431 
L 115.123527 446.177958 
L 117.696648 450.372346 
L 118.983208 451.579046 
L 121.556328 455.020681 
L 122.842888 456.027297 
L 124.129448 457.394966 
L 125.416009 458.234197 
L 127.989129 460.459353 
L 130.562249 461.871169 
L 133.135369 463.495695 
L 135.70849 464.035171 
L 136.99505 464.73265 
L 138.28161 464.815436 
L 140.85473 464.49632 
L 142.141291 464.801142 
L 143.427851 464.494657 
L 144.714411 464.369372 
L 146.000971 465.183526 
L 148.574091 467.211718 
L 149.860651 469.148572 
L 151.147212 471.301344 
L 152.433772 471.393033 
L 153.720332 472.55316 
L 155.006892 474.590462 
L 156.293452 475.131227 
L 157.580012 477.169304 
L 158.866573 478.315858 
L 160.153133 477.207275 
L 161.439693 478.425815 
L 164.012813 479.157705 
L 165.299373 481.541396 
L 166.585934 482.64417 
L 167.872494 481.968727 
L 169.159054 484.613997 
L 170.445614 485.274047 
L 171.732174 485.554626 
L 173.018734 487.94638 
L 174.305294 488.244012 
L 175.591855 486.345493 
L 176.878415 484.970447 
L 178.164975 484.597256 
L 179.451535 484.490089 
L 180.738095 485.277137 
L 182.024655 485.08745 
L 183.311216 484.754812 
L 184.597776 484.774779 
L 187.170896 485.152496 
L 188.457456 486.843477 
L 189.744016 486.469698 
L 191.030576 484.34359 
L 192.317137 484.499674 
L 193.603697 484.998026 
L 194.890257 485.283121 
L 196.176817 484.971739 
L 198.749937 485.621069 
L 201.323058 482.699949 
L 202.609618 484.914786 
L 203.896178 487.864065 
L 205.182738 488.294187 
L 206.469298 488.41057 
L 207.755859 488.652458 
L 209.042419 489.434414 
L 211.615539 489.585155 
L 214.188659 493.525818 
L 216.76178 493.573546 
L 218.04834 493.865349 
L 219.3349 492.123767 
L 220.62146 492.22948 
L 221.90802 492.470776 
L 223.19458 488.349596 
L 224.481141 475.449196 
L 225.767701 470.321157 
L 227.054261 467.026207 
L 228.340821 464.216685 
L 230.913941 459.799984 
L 232.200501 459.918815 
L 233.487062 457.798624 
L 234.773622 457.732005 
L 236.060182 462.154119 
L 237.346742 474.473762 
L 238.633302 479.602118 
L 239.919862 482.973784 
L 241.206423 485.890468 
L 242.492983 488.477403 
L 243.779543 490.767632 
L 245.066103 492.502693 
L 246.352663 494.610328 
L 247.639223 494.775244 
L 248.925784 494.797696 
L 250.212344 495.726391 
L 251.498904 495.908191 
L 252.785464 494.81108 
L 255.358584 495.591877 
L 256.645144 495.632841 
L 260.504825 496.122283 
L 261.791385 495.34442 
L 264.364505 495.719396 
L 265.651066 497.086422 
L 266.937626 496.704559 
L 268.224186 496.634684 
L 269.510746 496.805773 
L 270.797306 496.348872 
L 272.083866 494.76044 
L 273.370426 493.830552 
L 274.656987 494.607327 
L 275.943547 494.148498 
L 278.516667 494.210568 
L 279.803227 494.633014 
L 281.089787 494.225241 
L 282.376348 494.011134 
L 283.662908 494.351217 
L 284.949468 495.893843 
L 286.236028 496.515774 
L 287.522588 496.758232 
L 288.809148 497.135351 
L 290.095709 496.915315 
L 292.668829 496.804626 
L 293.955389 496.540633 
L 295.241949 496.817349 
L 297.815069 497.090589 
L 299.10163 497.553123 
L 301.67475 494.404503 
L 302.96131 493.088839 
L 304.24787 491.286238 
L 305.53443 490.546444 
L 306.820991 491.139648 
L 308.107551 491.27026 
L 309.394111 490.729348 
L 310.680671 490.327636 
L 311.967231 490.085009 
L 313.253791 491.564051 
L 315.826912 494.034724 
L 317.113472 495.748854 
L 318.400032 496.641981 
L 319.686592 496.734976 
L 322.259712 496.460318 
L 323.546273 495.132274 
L 324.832833 495.413074 
L 326.119393 495.548974 
L 327.405953 495.843413 
L 328.692513 496.286054 
L 329.979073 496.440304 
L 332.552194 496.21141 
L 333.838754 495.833762 
L 335.125314 496.793717 
L 336.411874 498.273226 
L 345.417795 498.682705 
L 346.704355 499.051925 
L 347.990916 499.042855 
L 349.277476 499.385048 
L 350.564036 499.360366 
L 351.850596 499.179984 
L 353.137156 498.80972 
L 355.710277 498.833104 
L 356.996837 499.012005 
L 358.283397 498.933577 
L 360.856517 499.180761 
L 362.143077 498.909819 
L 363.429637 497.103301 
L 364.716198 497.150866 
L 366.002758 497.487621 
L 368.575878 497.779229 
L 371.148998 497.981359 
L 372.435559 497.810154 
L 373.722119 497.791457 
L 375.008679 497.964184 
L 376.295239 499.910827 
L 377.581799 500.077729 
L 381.44148 500.204189 
L 382.72804 500.126802 
L 384.0146 500.269099 
L 386.58772 500.780486 
L 387.87428 500.604004 
L 390.447401 496.98808 
L 391.733961 496.627542 
L 396.880202 496.662857 
L 399.453322 496.307635 
L 400.739882 496.611489 
L 403.313002 500.218213 
L 404.599562 500.810122 
L 405.886123 500.680409 
L 407.172683 500.704833 
L 408.459243 500.960756 
L 409.745803 500.898783 
L 412.318923 501.243781 
L 413.605484 501.281211 
L 414.892044 501.049065 
L 416.178604 500.022019 
L 417.465164 499.688285 
L 420.038284 499.300063 
L 421.324844 498.456884 
L 422.611405 498.330346 
L 426.471085 497.358243 
L 427.757645 497.581944 
L 429.044205 498.443163 
L 430.330766 498.613719 
L 431.617326 498.651076 
L 432.903886 498.885621 
L 434.190446 499.498179 
L 440.623247 499.933417 
L 441.909807 499.299391 
L 443.196367 499.475638 
L 444.482927 499.829818 
L 445.769487 499.915241 
L 448.342608 499.773797 
L 449.629168 500.123493 
L 452.202288 500.236278 
L 453.488848 500.181383 
L 454.775409 501.115771 
L 456.061969 500.837805 
L 459.921649 500.550493 
L 461.208209 500.620907 
L 462.494769 500.45804 
L 467.64101 500.645863 
L 468.92757 500.91197 
L 471.500691 501.233947 
L 472.787251 501.549925 
L 474.073811 501.573001 
L 475.360371 500.999175 
L 477.933491 501.180952 
L 479.220052 501.370101 
L 481.793172 501.01237 
L 483.079732 500.734367 
L 485.652852 500.58466 
L 486.939412 500.757118 
L 488.225973 501.343961 
L 490.799093 501.078274 
L 497.231894 501.829781 
L 498.518454 501.815331 
L 499.805014 501.919768 
L 502.378134 501.919805 
L 503.664695 502.264498 
L 507.524375 502.269549 
L 511.384055 502.264046 
L 512.670616 502.152341 
L 513.957176 502.422031 
L 515.243736 502.395907 
L 517.816856 502.101164 
L 519.103416 502.199501 
L 520.389977 502.416637 
L 521.676537 502.361578 
L 522.963097 502.686324 
L 524.249657 502.758368 
L 525.536217 502.648483 
L 526.822777 502.41626 
L 529.395898 502.132744 
L 530.682458 502.289565 
L 534.542138 502.183441 
L 537.115259 501.761877 
L 538.401819 501.795828 
L 539.688379 502.054542 
L 540.974939 502.122 
L 542.261499 501.859925 
L 544.83462 501.656338 
L 552.55398 501.783315 
L 553.840541 502.054949 
L 555.127101 502.468072 
L 556.413661 502.456581 
L 557.700221 502.635142 
L 558.986781 501.905532 
L 560.273341 501.933525 
L 562.846462 501.7226 
L 564.133022 501.861915 
L 565.419582 501.580431 
L 566.706142 501.019552 
L 567.992702 500.652474 
L 570.565823 500.504237 
L 571.852383 501.269836 
L 573.138943 501.163578 
L 574.425503 501.544838 
L 575.712063 501.702118 
L 576.998623 501.60328 
L 578.285184 501.890706 
L 580.858304 502.898846 
L 583.431424 503.388863 
L 586.004545 503.582 
L 587.291105 503.420912 
L 588.577665 503.6016 
L 596.297026 503.32561 
L 597.583586 502.79131 
L 600.156706 503.273768 
L 601.443266 502.988449 
L 604.016387 503.262658 
L 605.302947 503.411395 
L 606.589507 503.444766 
L 607.876067 502.873398 
L 609.162627 502.452198 
L 610.449187 502.83448 
L 611.735748 502.498522 
L 613.022308 502.02744 
L 614.308868 502.152868 
L 616.881988 502.120153 
L 619.455109 502.166157 
L 620.741669 502.515149 
L 622.028229 502.700059 
L 624.601349 502.733605 
L 625.887909 502.972028 
L 628.46103 503.139654 
L 629.74759 502.984908 
L 633.60727 503.080705 
L 634.89383 503.257439 
L 641.326631 503.162537 
L 642.613191 502.012467 
L 643.899752 501.604992 
L 647.759432 501.47788 
L 650.332552 501.385707 
L 651.619112 501.669259 
L 652.905673 501.401428 
L 654.192233 501.269229 
L 655.478793 502.711147 
L 656.765353 502.93138 
L 658.051913 502.896044 
L 659.338473 502.97621 
L 660.625034 502.015293 
L 661.911594 500.792183 
L 663.198154 501.102076 
L 667.057834 501.377803 
L 668.344395 500.935127 
L 669.630955 501.015612 
L 670.917515 500.922244 
L 672.204075 501.107939 
L 673.490635 501.859554 
L 674.777195 503.360581 
L 678.636876 503.026369 
L 679.923436 503.083247 
L 681.209996 503.612568 
L 682.496556 503.579427 
L 683.783116 503.830821 
L 685.069677 503.837578 
L 686.356237 504.064285 
L 687.642797 504.046326 
L 692.789037 504.326279 
L 694.075598 504.081677 
L 696.648718 504.408151 
L 697.935278 504.167785 
L 699.221838 503.308997 
L 701.794959 503.263485 
L 703.081519 502.958166 
L 704.368079 503.170648 
L 705.654639 503.240415 
L 706.941199 502.899175 
L 708.227759 502.718155 
L 709.51432 502.761692 
L 710.80088 502.984097 
L 712.08744 503.758793 
L 713.374 503.841952 
L 714.66056 503.588194 
L 715.94712 503.906651 
L 717.23368 503.83394 
L 718.520241 503.951668 
L 719.806801 504.478841 
L 721.093361 504.507957 
L 722.379921 504.386523 
L 723.666481 504.61984 
L 724.953041 504.72974 
L 726.239602 504.668343 
L 727.526162 504.956054 
L 728.812722 504.933585 
L 731.385842 504.573668 
L 733.958963 504.745618 
L 741.678323 503.53989 
L 744.251444 503.73647 
L 745.538004 503.572714 
L 746.824564 503.527404 
L 750.684245 503.901362 
L 751.970805 503.97135 
L 754.543925 504.455685 
L 755.830485 504.457566 
L 758.403605 504.749898 
L 759.690166 504.694453 
L 762.263286 498.181781 
L 763.549846 488.97565 
L 764.836406 486.478607 
L 766.122966 484.490782 
L 769.982647 477.670947 
L 771.269207 476.122464 
L 772.555767 476.028907 
L 773.842327 479.049455 
L 775.128888 482.414191 
L 776.415448 491.534109 
L 777.702008 494.191692 
L 781.561688 500.278163 
L 784.134809 501.78907 
L 785.421369 499.293754 
L 787.994489 493.154109 
L 789.281049 492.799955 
L 791.85417 492.70792 
L 793.14073 492.867401 
L 794.42729 492.824756 
L 795.71385 494.080337 
L 797.00041 494.858274 
L 798.28697 497.716696 
L 800.860091 504.055906 
L 802.146651 504.507506 
L 803.433211 504.092952 
L 806.006331 503.778971 
L 807.292891 504.339071 
L 808.579452 504.141971 
L 809.866012 504.282764 
L 811.152572 504.053634 
L 815.012252 503.988151 
L 816.298813 504.51482 
L 817.585373 504.590266 
L 818.871933 503.713229 
L 824.018173 497.386689 
L 827.877854 491.950558 
L 829.164414 490.138406 
L 831.737534 489.227698 
L 833.024095 490.496351 
L 838.170335 496.304422 
L 839.456895 497.86215 
L 840.743455 498.82343 
L 842.030016 500.068516 
L 843.316576 500.5327 
L 844.603136 501.900847 
L 847.176256 501.811155 
L 848.462816 501.68348 
L 852.322497 502.390408 
L 853.609057 503.001921 
L 854.895617 503.404295 
L 856.182177 503.341906 
L 857.468738 503.402979 
L 858.755298 503.714945 
L 860.041858 503.783886 
L 861.328418 504.103878 
L 863.901538 503.964845 
L 870.334339 504.02113 
L 871.620899 503.993991 
L 874.19402 504.461333 
L 875.48058 504.428031 
L 878.0537 504.750174 
L 879.34026 504.766642 
L 880.62682 504.53465 
L 883.199941 504.672587 
L 884.486501 504.729588 
L 885.773061 504.940828 
L 888.346181 504.800482 
L 889.632741 504.693044 
L 892.205862 504.867279 
L 896.065542 505.13879 
L 897.352102 505.290522 
L 898.638663 505.175582 
L 902.498343 505.290934 
L 903.784903 505.152573 
L 906.358023 505.246966 
L 912.790824 504.552168 
L 914.077384 504.709711 
L 915.363945 504.647737 
L 916.650505 504.711165 
L 917.937065 503.818061 
L 919.223625 500.594316 
L 920.510185 498.2694 
L 921.796745 497.423213 
L 923.083306 497.541379 
L 924.369866 497.150523 
L 926.942986 495.33 
L 928.229546 494.830084 
L 929.516106 493.632104 
L 930.802666 493.835278 
L 932.089227 496.979573 
L 933.375787 499.513375 
L 934.662347 500.439445 
L 935.948907 500.562275 
L 937.235467 500.860221 
L 938.522027 501.875456 
L 939.808588 502.731088 
L 941.095148 503.084865 
L 942.381708 504.174452 
L 943.668268 505.023164 
L 944.954828 505.134524 
L 948.814509 505.123456 
L 951.387629 505.080515 
L 952.674189 504.954143 
L 953.960749 505.000216 
L 955.247309 505.236012 
L 956.53387 504.98224 
L 957.82043 504.999465 
L 959.10699 505.181566 
L 960.39355 505.482463 
L 961.68011 505.278329 
L 962.96667 505.26228 
L 964.253231 505.403268 
L 965.539791 505.658024 
L 966.826351 505.691549 
L 968.112911 505.541211 
L 969.399471 505.693296 
L 970.686031 505.723188 
L 971.972591 504.992561 
L 973.259152 504.920969 
L 975.832272 505.123984 
L 978.405392 505.0031 
L 980.978513 505.424576 
L 983.551633 505.573522 
L 984.838193 506.165027 
L 989.984434 506.282614 
L 991.270994 505.441973 
L 993.844114 502.17827 
L 995.130674 501.148408 
L 1000.276915 500.094379 
L 1001.563475 499.53292 
L 1002.850035 498.280464 
L 1004.136595 498.052891 
L 1005.423156 498.772019 
L 1006.709716 499.344901 
L 1010.569396 499.562928 
L 1011.855956 499.45172 
L 1013.142516 499.558997 
L 1014.429077 499.98093 
L 1017.002197 502.144397 
L 1019.575317 503.603845 
L 1020.861877 504.586034 
L 1022.148438 504.622593 
L 1024.721558 505.077766 
L 1026.008118 505.053084 
L 1027.294678 505.380539 
L 1032.440919 505.644891 
L 1033.727479 505.454538 
L 1035.014039 505.615096 
L 1036.300599 505.647494 
L 1037.587159 505.475813 
L 1038.87372 505.706554 
L 1040.16028 505.402569 
L 1041.44684 505.287669 
L 1042.7334 504.979044 
L 1044.01996 501.31062 
L 1045.30652 498.98455 
L 1046.593081 498.652398 
L 1047.879641 497.603939 
L 1049.166201 497.719796 
L 1050.452761 497.982107 
L 1053.025881 497.673193 
L 1054.312441 497.574277 
L 1055.599002 497.708721 
L 1056.885562 501.461439 
L 1058.172122 503.813801 
L 1059.458682 504.168889 
L 1060.745242 505.144725 
L 1063.318363 504.822611 
L 1069.751163 505.411817 
L 1071.037723 505.421666 
L 1072.324284 505.281765 
L 1078.757084 505.260107 
L 1080.043645 500.973609 
L 1081.330205 497.102727 
L 1082.616765 494.380664 
L 1083.903325 493.208507 
L 1091.622686 489.140386 
L 1092.909246 492.567349 
L 1094.195806 495.184781 
L 1095.482366 497.231563 
L 1096.768927 498.048598 
L 1099.342047 498.23404 
L 1105.774848 500.400055 
L 1107.061408 501.199467 
L 1108.347968 501.444359 
L 1109.634528 501.302745 
L 1112.207649 502.164761 
L 1113.494209 502.365845 
L 1114.780769 502.355461 
L 1116.067329 502.600873 
L 1117.353889 503.025681 
L 1118.640449 502.103732 
L 1119.927009 500.823987 
L 1122.50013 500.902748 
L 1123.78669 500.700974 
L 1126.35981 500.586788 
L 1127.64637 500.29545 
L 1128.932931 499.295636 
L 1130.219491 499.342345 
L 1131.506051 500.231247 
L 1132.792611 501.975372 
L 1134.079171 502.156318 
L 1135.365731 502.756615 
L 1136.652291 503.010737 
L 1137.938852 502.987962 
L 1139.225412 503.265281 
L 1140.511972 503.728074 
L 1141.798532 504.33678 
L 1143.085092 504.253018 
L 1144.371652 504.377574 
L 1145.658213 504.13299 
L 1148.231333 503.948128 
L 1153.377574 504.577817 
L 1154.664134 504.959799 
L 1157.237254 505.231477 
L 1158.523814 505.403778 
L 1171.389416 505.679262 
L 1172.675976 505.931411 
L 1173.962536 505.921212 
L 1175.249096 506.143952 
L 1177.822216 505.813265 
L 1179.108777 505.805614 
L 1181.681897 505.483427 
L 1184.255017 505.154028 
L 1188.114698 505.115398 
L 1189.401258 505.442317 
L 1190.687818 505.598533 
L 1191.974378 505.580683 
L 1193.260938 505.919945 
L 1194.547499 505.861436 
L 1197.120619 506.396414 
L 1200.980299 506.423128 
L 1202.266859 506.026355 
L 1203.55342 505.791714 
L 1204.83998 505.80945 
L 1206.12654 505.202503 
L 1207.4131 505.39767 
L 1208.69966 505.441176 
L 1209.98622 505.620841 
L 1215.132461 505.80257 
L 1216.419021 505.9916 
L 1217.705581 505.875799 
L 1218.992141 506.126177 
L 1220.278702 506.032692 
L 1221.565262 505.770871 
L 1225.424942 505.494806 
L 1226.711502 505.149036 
L 1229.284623 505.255114 
L 1231.857743 505.720357 
L 1233.144303 505.707012 
L 1234.430863 505.91706 
L 1237.003984 505.983511 
L 1238.290544 506.181798 
L 1239.577104 506.573001 
L 1240.863664 506.782943 
L 1243.436784 506.485732 
L 1246.009905 506.664143 
L 1247.296465 506.650442 
L 1248.583025 506.382961 
L 1251.156145 506.359706 
L 1252.442706 505.677951 
L 1253.729266 505.361696 
L 1256.302386 505.707878 
L 1264.021747 505.033398 
L 1265.308307 505.759002 
L 1266.594867 506.026877 
L 1269.167988 505.773447 
L 1271.741108 505.900227 
L 1273.027668 506.232492 
L 1274.314228 506.360199 
L 1275.600788 506.648005 
L 1278.173909 506.833517 
L 1280.747029 506.824625 
L 1282.033589 506.602859 
L 1283.320149 506.516833 
L 1284.606709 506.27006 
L 1285.89327 506.189678 
L 1287.17983 506.280092 
L 1292.32607 506.225411 
L 1293.612631 506.231748 
L 1296.185751 506.638423 
L 1297.472311 506.978049 
L 1298.758871 506.661936 
L 1305.191672 506.368451 
L 1306.478232 506.568243 
L 1307.764792 506.587867 
L 1309.051352 506.43163 
L 1310.337913 506.474437 
L 1311.624473 506.689734 
L 1312.911033 506.67942 
L 1314.197593 506.819957 
L 1315.484153 506.716814 
L 1318.057274 506.240909 
L 1319.343834 506.136931 
L 1320.630394 506.196287 
L 1323.203514 505.869919 
L 1324.490074 505.024389 
L 1327.063195 505.008724 
L 1328.349755 505.36366 
L 1330.922875 505.775206 
L 1332.209435 505.557534 
L 1334.782556 505.544618 
L 1336.069116 504.532554 
L 1341.215356 504.143641 
L 1342.501917 504.24666 
L 1343.788477 504.143224 
L 1345.075037 504.389849 
L 1346.361597 504.368062 
L 1347.648157 504.787168 
L 1348.934717 505.968725 
L 1350.221277 506.776821 
L 1354.080958 507.20722 
L 1356.654078 507.115703 
L 1359.227199 506.81647 
L 1360.513759 506.340752 
L 1361.800319 506.204027 
L 1363.086879 506.247952 
L 1364.373439 506.097366 
L 1365.659999 505.679146 
L 1366.946559 504.133534 
L 1368.23312 502.767105 
L 1370.80624 502.203051 
L 1372.0928 502.439057 
L 1373.37936 502.475946 
L 1373.37936 502.475946 
" clip-path="url(#pf97f2b4894)" style="fill: none; stroke: #006e64; stroke-width: 1.5; stroke-linecap: round"/>
   </g>
   <g id="line2d_15">
    <path d="M 100.971366 52.361647 
L 102.257926 85.732004 
L 103.544486 126.49609 
L 104.831046 157.168599 
L 106.117606 183.71146 
L 107.404166 202.073783 
L 108.690726 208.426805 
L 109.977287 216.515096 
L 111.263847 232.20004 
L 112.550407 240.376057 
L 113.836967 251.70865 
L 115.123527 257.84268 
L 116.410087 256.401183 
L 117.696648 254.735148 
L 118.983208 251.179032 
L 120.269768 251.275426 
L 121.556328 253.039284 
L 122.842888 248.701324 
L 124.129448 252.089882 
L 125.416009 253.576313 
L 127.989129 252.894881 
L 130.562249 262.250691 
L 131.848809 269.158326 
L 133.135369 271.280811 
L 134.42193 275.762394 
L 135.70849 280.90313 
L 136.99505 277.740842 
L 138.28161 276.32102 
L 139.56817 275.366479 
L 140.85473 277.117977 
L 142.141291 274.20569 
L 143.427851 271.831827 
L 144.714411 273.540854 
L 146.000971 295.643897 
L 147.287531 310.379756 
L 149.860651 360.457846 
L 151.147212 386.757929 
L 152.433772 390.626499 
L 153.720332 418.745391 
L 155.006892 443.745764 
L 156.293452 472.291092 
L 157.580012 496.728488 
L 158.866573 492.107584 
L 160.153133 474.575508 
L 161.439693 477.072991 
L 162.726253 481.064625 
L 164.012813 478.451117 
L 165.299373 509.145871 
L 166.585934 501.926102 
L 167.872494 504.97436 
L 169.159054 505.316406 
L 170.445614 502.833542 
L 171.732174 514.836617 
L 173.018734 547.281133 
L 174.305294 510.866614 
L 175.591855 483.685742 
L 176.878415 469.331146 
L 178.164975 467.024373 
L 179.451535 475.636243 
L 180.738095 471.762488 
L 183.311216 472.858949 
L 184.597776 472.346533 
L 185.884336 467.935223 
L 187.170896 507.979045 
L 188.457456 494.309983 
L 189.744016 487.643847 
L 191.030576 462.32099 
L 192.317137 458.927768 
L 193.603697 466.462279 
L 194.890257 464.252096 
L 196.176817 470.707794 
L 197.463377 468.636921 
L 198.749937 472.638041 
L 200.036498 466.906181 
L 201.323058 509.413107 
L 202.609618 535.358577 
L 203.896178 558.674667 
L 205.182738 559.541299 
L 206.469298 561.430864 
L 207.755859 563.045626 
L 211.615539 552.34552 
L 212.902099 559.506379 
L 214.188659 555.764762 
L 216.76178 562.947862 
L 218.04834 561.453274 
L 219.3349 560.268212 
L 220.62146 564.443184 
L 221.90802 565.562383 
L 223.19458 480.186824 
L 224.481141 446.198534 
L 225.767701 407.617406 
L 227.054261 380.32367 
L 229.627381 318.666368 
L 230.913941 291.653408 
L 232.200501 259.803754 
L 234.773622 259.994876 
L 236.060182 352.384798 
L 238.633302 423.93248 
L 241.206423 485.492024 
L 242.492983 516.843918 
L 245.066103 568.424432 
L 246.352663 566.701794 
L 247.639223 565.993318 
L 248.925784 561.971797 
L 250.212344 563.891247 
L 251.498904 563.34153 
L 252.785464 560.030439 
L 254.072024 558.132168 
L 255.358584 554.933846 
L 256.645144 553.774526 
L 257.931705 556.056758 
L 259.218265 555.285545 
L 260.504825 558.058474 
L 261.791385 556.997193 
L 263.077945 556.973673 
L 264.364505 558.003433 
L 265.651066 559.97538 
L 266.937626 553.139255 
L 268.224186 556.8497 
L 269.510746 560.924848 
L 270.797306 535.910995 
L 272.083866 508.61631 
L 273.370426 507.683407 
L 274.656987 513.3605 
L 275.943547 512.285874 
L 277.230107 513.142092 
L 278.516667 517.717166 
L 281.089787 496.966872 
L 282.376348 494.996645 
L 284.949468 550.744213 
L 286.236028 551.063375 
L 287.522588 551.017146 
L 288.809148 549.794787 
L 290.095709 551.03178 
L 291.382269 545.992303 
L 292.668829 565.253337 
L 293.955389 574.209755 
L 295.241949 577.424405 
L 296.528509 577.81728 
L 297.815069 579.527733 
L 299.10163 579.561015 
L 300.38819 548.77065 
L 302.96131 493.457655 
L 304.24787 469.921524 
L 305.53443 468.593295 
L 306.820991 468.892042 
L 308.107551 463.07108 
L 310.680671 460.661036 
L 311.967231 454.660474 
L 314.540352 509.542129 
L 315.826912 533.0849 
L 317.113472 561.292493 
L 318.400032 538.11803 
L 319.686592 537.975395 
L 320.973152 541.95874 
L 322.259712 542.21239 
L 323.546273 544.406673 
L 324.832833 550.440862 
L 326.119393 550.369264 
L 327.405953 554.515775 
L 328.692513 557.678963 
L 329.979073 556.494045 
L 331.265634 580.063834 
L 332.552194 578.881646 
L 333.838754 572.541144 
L 335.125314 573.752189 
L 336.411874 574.167808 
L 337.698434 574.71757 
L 338.984994 576.614297 
L 340.271555 569.526299 
L 342.844675 571.701519 
L 344.131235 571.840166 
L 345.417795 569.756732 
L 346.704355 571.37521 
L 347.990916 572.112635 
L 349.277476 571.733624 
L 350.564036 565.118178 
L 351.850596 562.415452 
L 353.137156 564.717384 
L 354.423716 563.494073 
L 355.710277 563.719581 
L 356.996837 563.767093 
L 358.283397 568.553465 
L 359.569957 573.800658 
L 360.856517 574.42077 
L 362.143077 561.632452 
L 363.429637 538.691207 
L 364.716198 541.739743 
L 366.002758 543.431615 
L 367.289318 539.147014 
L 368.575878 538.568454 
L 369.862438 535.387223 
L 371.148998 533.400218 
L 372.435559 528.726835 
L 373.722119 526.081778 
L 375.008679 532.31911 
L 376.295239 560.73632 
L 377.581799 558.731715 
L 380.154919 562.162719 
L 381.44148 561.482122 
L 382.72804 559.876312 
L 384.0146 562.999092 
L 385.30116 568.442844 
L 386.58772 568.369884 
L 389.160841 515.904398 
L 390.447401 489.533477 
L 391.733961 488.205647 
L 393.020521 489.401076 
L 394.307081 486.989681 
L 395.593641 490.42364 
L 396.880202 486.217981 
L 398.166762 484.019595 
L 399.453322 484.358851 
L 402.026442 543.306304 
L 403.313002 568.214795 
L 404.599562 567.622753 
L 405.886123 571.467363 
L 407.172683 570.946039 
L 408.459243 569.155346 
L 409.745803 571.754737 
L 411.032363 575.097986 
L 412.318923 575.498299 
L 413.605484 577.879819 
L 414.892044 570.889013 
L 416.178604 574.599531 
L 417.465164 572.814173 
L 418.751724 569.653016 
L 420.038284 575.4322 
L 421.324844 579.471979 
L 422.611405 574.903703 
L 423.897965 567.424964 
L 425.184525 565.133732 
L 426.471085 562.322236 
L 427.757645 565.15902 
L 429.044205 566.314854 
L 430.330766 570.253065 
L 431.617326 567.987018 
L 432.903886 560.560869 
L 434.190446 557.073321 
L 435.477006 554.229814 
L 436.763566 556.633895 
L 438.050127 556.193669 
L 439.336687 556.562188 
L 440.623247 556.677361 
L 441.909807 550.48415 
L 443.196367 547.629878 
L 444.482927 552.174005 
L 445.769487 552.359592 
L 447.056048 547.615901 
L 448.342608 555.71422 
L 449.629168 559.173485 
L 450.915728 562.200789 
L 452.202288 558.686829 
L 453.488848 555.929984 
L 454.775409 555.128326 
L 456.061969 557.028304 
L 457.348529 553.736097 
L 458.635089 560.550314 
L 459.921649 569.244255 
L 461.208209 566.040385 
L 463.78133 562.025487 
L 465.06789 567.884167 
L 466.35445 573.07099 
L 467.64101 577.535774 
L 468.92757 572.396797 
L 470.21413 576.912716 
L 471.500691 575.596013 
L 472.787251 571.48751 
L 474.073811 571.363466 
L 475.360371 574.927158 
L 476.646931 574.802773 
L 477.933491 573.515352 
L 479.220052 575.5009 
L 480.506612 572.166181 
L 481.793172 575.356719 
L 483.079732 574.51719 
L 484.366292 572.363979 
L 485.652852 574.064248 
L 486.939412 572.754395 
L 488.225973 574.500086 
L 489.512533 577.361546 
L 490.799093 576.566427 
L 492.085653 575.996952 
L 493.372213 579.246835 
L 495.945334 581.39165 
L 497.231894 583.468829 
L 498.518454 582.26187 
L 499.805014 585.001184 
L 501.091574 582.690627 
L 502.378134 580.855494 
L 503.664695 579.394103 
L 504.951255 580.10936 
L 506.237815 577.194161 
L 507.524375 579.246528 
L 508.810935 577.090676 
L 510.097495 576.615377 
L 511.384055 579.381545 
L 512.670616 578.557624 
L 513.957176 578.452723 
L 515.243736 576.224605 
L 516.530296 577.514767 
L 517.816856 576.108455 
L 519.103416 581.007718 
L 520.389977 581.253356 
L 521.676537 581.100025 
L 522.963097 580.413198 
L 524.249657 580.638356 
L 525.536217 580.202564 
L 526.822777 575.074218 
L 528.109337 576.961799 
L 529.395898 579.862703 
L 530.682458 579.427291 
L 531.969018 573.569864 
L 533.255578 570.283473 
L 534.542138 568.21342 
L 535.828698 567.328704 
L 537.115259 563.205584 
L 538.401819 564.348805 
L 539.688379 570.21812 
L 540.974939 572.722815 
L 542.261499 570.624524 
L 543.548059 563.603739 
L 544.83462 570.264682 
L 546.12118 573.053659 
L 547.40774 576.578551 
L 548.6943 572.966753 
L 549.98086 572.935178 
L 551.26742 573.033175 
L 552.55398 573.323904 
L 553.840541 572.921625 
L 555.127101 571.745282 
L 556.413661 580.681578 
L 557.700221 574.106965 
L 558.986781 569.493152 
L 560.273341 570.710295 
L 562.846462 575.422519 
L 564.133022 575.860467 
L 565.419582 573.007589 
L 566.706142 572.715041 
L 567.992702 574.793388 
L 569.279262 574.314851 
L 570.565823 578.617006 
L 571.852383 578.748994 
L 573.138943 577.881397 
L 574.425503 574.362711 
L 575.712063 575.811386 
L 576.998623 570.562267 
L 578.285184 573.317116 
L 579.571744 568.144703 
L 580.858304 567.302235 
L 582.144864 566.690721 
L 583.431424 566.925112 
L 584.717984 567.362542 
L 586.004545 566.798085 
L 587.291105 565.94959 
L 588.577665 563.258288 
L 589.864225 565.806581 
L 591.150785 566.951054 
L 592.437345 566.062498 
L 593.723905 565.537476 
L 595.010466 562.017473 
L 596.297026 562.398409 
L 597.583586 566.649764 
L 598.870146 566.949926 
L 600.156706 572.90871 
L 601.443266 576.55539 
L 602.729827 576.765565 
L 604.016387 575.641745 
L 605.302947 580.242487 
L 606.589507 579.023412 
L 607.876067 577.091006 
L 609.162627 576.119418 
L 610.449187 574.960011 
L 611.735748 571.773812 
L 613.022308 572.556241 
L 614.308868 565.596342 
L 615.595428 568.55099 
L 616.881988 566.237135 
L 618.168548 568.427388 
L 619.455109 571.16854 
L 620.741669 576.935644 
L 622.028229 576.545868 
L 623.314789 572.792311 
L 624.601349 572.775704 
L 625.887909 574.890977 
L 627.17447 579.905475 
L 628.46103 576.951952 
L 629.74759 577.072485 
L 631.03415 575.644095 
L 632.32071 575.774058 
L 633.60727 573.95202 
L 634.89383 576.481521 
L 636.180391 579.955055 
L 637.466951 581.179978 
L 638.753511 577.709888 
L 640.040071 576.7946 
L 641.326631 575.645916 
L 642.613191 572.528036 
L 643.899752 573.586267 
L 645.186312 573.83953 
L 646.472872 574.960791 
L 647.759432 572.740457 
L 649.045992 567.757112 
L 650.332552 568.276666 
L 651.619112 571.526373 
L 652.905673 572.092318 
L 654.192233 576.753848 
L 655.478793 582.173268 
L 656.765353 581.631759 
L 658.051913 575.069931 
L 660.625034 578.374596 
L 661.911594 581.327191 
L 663.198154 583.256592 
L 664.484714 581.962962 
L 665.771274 579.976002 
L 667.057834 579.441742 
L 668.344395 554.208631 
L 669.630955 554.07041 
L 670.917515 560.725228 
L 672.204075 557.30844 
L 673.490635 555.660481 
L 674.777195 556.30315 
L 676.063755 556.334223 
L 677.350316 555.502876 
L 678.636876 555.820448 
L 679.923436 556.864722 
L 681.209996 580.433905 
L 682.496556 578.323143 
L 683.783116 578.476623 
L 685.069677 580.578822 
L 686.356237 580.961368 
L 687.642797 584.332144 
L 688.929357 582.326413 
L 690.215917 583.470469 
L 691.502477 585.927618 
L 692.789037 580.57849 
L 694.075598 582.111778 
L 695.362158 586.086876 
L 696.648718 585.071478 
L 697.935278 585.749084 
L 699.221838 585.045857 
L 700.508398 584.605964 
L 701.794959 585.417617 
L 703.081519 583.01101 
L 704.368079 581.207798 
L 705.654639 582.421294 
L 706.941199 578.690341 
L 709.51432 569.246365 
L 710.80088 568.268127 
L 712.08744 570.613771 
L 713.374 569.025283 
L 714.66056 567.775706 
L 715.94712 567.810697 
L 717.23368 570.348934 
L 718.520241 569.391044 
L 719.806801 572.77188 
L 721.093361 575.35836 
L 722.379921 578.36824 
L 723.666481 578.920744 
L 724.953041 577.389004 
L 726.239602 578.924725 
L 727.526162 579.974737 
L 728.812722 579.927196 
L 730.099282 577.53277 
L 731.385842 581.713415 
L 733.958963 582.029958 
L 735.245523 583.116698 
L 736.532083 582.375024 
L 737.818643 581.291406 
L 739.105203 580.052867 
L 740.391763 580.037243 
L 741.678323 580.53192 
L 742.964884 580.595317 
L 744.251444 577.969663 
L 745.538004 577.364984 
L 746.824564 577.947182 
L 748.111124 576.455868 
L 749.397684 578.674564 
L 750.684245 579.91888 
L 751.970805 576.928603 
L 753.257365 573.580505 
L 754.543925 575.588166 
L 755.830485 575.626533 
L 757.117045 575.187647 
L 758.403605 576.70158 
L 759.690166 578.529931 
L 760.976726 579.848813 
L 762.263286 579.261474 
L 763.549846 550.057431 
L 764.836406 524.339889 
L 766.122966 501.264079 
L 768.696087 447.751833 
L 769.982647 425.753882 
L 771.269207 415.975913 
L 772.555767 410.364693 
L 773.842327 411.332113 
L 775.128888 407.534277 
L 776.415448 434.44884 
L 777.702008 464.665426 
L 781.561688 548.051172 
L 782.848248 571.225124 
L 784.134809 578.703085 
L 785.421369 584.729677 
L 786.707929 582.485232 
L 787.994489 582.830351 
L 789.281049 587.082163 
L 790.567609 585.26894 
L 791.85417 584.251968 
L 793.14073 585.511148 
L 794.42729 580.735381 
L 795.71385 580.743461 
L 797.00041 575.249328 
L 798.28697 570.968625 
L 799.57353 574.055107 
L 800.860091 572.448358 
L 802.146651 565.669405 
L 803.433211 566.010651 
L 804.719771 568.467527 
L 806.006331 568.347258 
L 807.292891 566.433139 
L 808.579452 569.410906 
L 809.866012 574.919723 
L 811.152572 576.494412 
L 812.439132 571.481032 
L 815.012252 577.740889 
L 816.298813 577.41162 
L 817.585373 574.998357 
L 818.871933 543.286195 
L 820.158493 517.849022 
L 821.445053 485.563754 
L 825.304734 400.169891 
L 827.877854 343.169593 
L 829.164414 327.01606 
L 830.450974 294.094255 
L 831.737534 295.812668 
L 833.024095 324.191163 
L 834.310655 345.105622 
L 835.597215 367.854166 
L 836.883775 399.615325 
L 839.456895 450.397255 
L 840.743455 461.978254 
L 842.030016 476.0477 
L 844.603136 530.503062 
L 845.889696 532.601222 
L 847.176256 531.272162 
L 848.462816 537.867806 
L 849.749377 527.188302 
L 851.035937 523.410617 
L 852.322497 528.576427 
L 853.609057 541.348212 
L 854.895617 543.304059 
L 856.182177 549.158862 
L 857.468738 550.781971 
L 858.755298 548.680486 
L 860.041858 560.17605 
L 861.328418 554.282244 
L 862.614978 565.499868 
L 863.901538 569.628229 
L 865.188098 567.996337 
L 866.474659 573.762929 
L 867.761219 568.697313 
L 869.047779 566.731951 
L 870.334339 556.143455 
L 871.620899 560.387026 
L 872.907459 561.524765 
L 874.19402 560.94831 
L 875.48058 557.442635 
L 876.76714 560.675715 
L 878.0537 560.686478 
L 879.34026 559.45798 
L 880.62682 564.966097 
L 881.91338 567.028745 
L 883.199941 575.922106 
L 884.486501 572.025788 
L 885.773061 570.716398 
L 887.059621 575.393658 
L 888.346181 576.042871 
L 889.632741 573.730873 
L 890.919302 570.394855 
L 893.492422 569.653524 
L 894.778982 571.165919 
L 896.065542 565.848511 
L 897.352102 566.078382 
L 898.638663 567.271496 
L 899.925223 568.675914 
L 903.784903 569.827862 
L 905.071463 568.967869 
L 906.358023 568.784104 
L 907.644584 565.512336 
L 908.931144 570.85925 
L 910.217704 573.345217 
L 911.504264 573.379876 
L 912.790824 573.57486 
L 914.077384 571.263851 
L 915.363945 571.923706 
L 916.650505 571.668975 
L 917.937065 572.855012 
L 919.223625 569.783069 
L 920.510185 572.957311 
L 921.796745 572.434814 
L 923.083306 571.160313 
L 924.369866 570.55983 
L 926.942986 572.816358 
L 928.229546 574.33783 
L 929.516106 574.115059 
L 930.802666 575.444065 
L 932.089227 577.457474 
L 933.375787 573.981673 
L 934.662347 576.619993 
L 935.948907 576.617233 
L 937.235467 573.962571 
L 938.522027 575.045298 
L 939.808588 572.31792 
L 941.095148 566.362176 
L 942.381708 568.687175 
L 943.668268 568.124191 
L 944.954828 568.739902 
L 946.241388 564.578175 
L 947.527948 561.170202 
L 948.814509 557.0469 
L 950.101069 558.661749 
L 951.387629 558.249649 
L 952.674189 562.204981 
L 953.960749 569.398726 
L 955.247309 568.457763 
L 956.53387 568.055771 
L 957.82043 568.240028 
L 959.10699 577.121086 
L 960.39355 574.617544 
L 961.68011 578.017632 
L 962.96667 573.557621 
L 964.253231 571.609344 
L 965.539791 570.017757 
L 966.826351 563.144798 
L 968.112911 568.308222 
L 969.399471 567.567177 
L 970.686031 564.473559 
L 971.972591 563.446673 
L 973.259152 568.191054 
L 974.545712 568.264469 
L 975.832272 571.872185 
L 977.118832 569.4164 
L 978.405392 565.673264 
L 979.691952 568.869322 
L 980.978513 568.239378 
L 982.265073 570.49165 
L 983.551633 573.892451 
L 984.838193 574.388076 
L 986.124753 574.636326 
L 987.411313 574.325936 
L 989.984434 580.013336 
L 991.270994 555.829669 
L 992.557554 528.906666 
L 993.844114 498.923416 
L 996.417234 480.950632 
L 997.703795 478.745181 
L 998.990355 474.071526 
L 1000.276915 472.836012 
L 1001.563475 469.812758 
L 1002.850035 467.155535 
L 1004.136595 498.440199 
L 1006.709716 555.759854 
L 1007.996276 559.387865 
L 1009.282836 566.746456 
L 1010.569396 566.45743 
L 1011.855956 570.782237 
L 1013.142516 574.426327 
L 1014.429077 574.132919 
L 1015.715637 574.68933 
L 1017.002197 571.038125 
L 1018.288757 572.09941 
L 1019.575317 566.475971 
L 1020.861877 564.675983 
L 1022.148438 560.968889 
L 1023.434998 561.734475 
L 1024.721558 563.898926 
L 1026.008118 564.410719 
L 1027.294678 567.299508 
L 1028.581238 568.396625 
L 1029.867798 564.891681 
L 1031.154359 565.429128 
L 1032.440919 570.525013 
L 1033.727479 569.987447 
L 1035.014039 573.711863 
L 1036.300599 569.856235 
L 1037.587159 567.335595 
L 1038.87372 561.346821 
L 1041.44684 551.993574 
L 1042.7334 559.375912 
L 1044.01996 532.009436 
L 1045.30652 502.27193 
L 1046.593081 501.345223 
L 1047.879641 497.102761 
L 1049.166201 498.309647 
L 1050.452761 494.203713 
L 1053.025881 504.905859 
L 1054.312441 508.347368 
L 1055.599002 504.048025 
L 1056.885562 530.135131 
L 1058.172122 561.736414 
L 1059.458682 563.544875 
L 1060.745242 569.042087 
L 1062.031802 566.743513 
L 1063.318363 571.455011 
L 1064.604923 570.443813 
L 1065.891483 562.346449 
L 1067.178043 559.728518 
L 1068.464603 562.210151 
L 1069.751163 559.224426 
L 1071.037723 554.82399 
L 1072.324284 560.628953 
L 1073.610844 556.610055 
L 1074.897404 559.837746 
L 1077.470524 553.495004 
L 1078.757084 553.051075 
L 1080.043645 557.85967 
L 1082.616765 539.796351 
L 1083.903325 542.898798 
L 1085.189885 539.318748 
L 1086.476445 538.528425 
L 1087.763006 539.082737 
L 1089.049566 540.24498 
L 1090.336126 534.386084 
L 1091.622686 531.283847 
L 1092.909246 519.397896 
L 1094.195806 523.638074 
L 1095.482366 538.69774 
L 1096.768927 538.198291 
L 1098.055487 535.193701 
L 1099.342047 536.5324 
L 1101.915167 538.08366 
L 1103.201727 541.253267 
L 1104.488288 551.327604 
L 1105.774848 558.338051 
L 1107.061408 562.969025 
L 1108.347968 554.593781 
L 1109.634528 546.992153 
L 1110.921088 553.763148 
L 1112.207649 557.22999 
L 1113.494209 554.523729 
L 1114.780769 552.280285 
L 1116.067329 558.475534 
L 1117.353889 556.547612 
L 1118.640449 561.525001 
L 1119.927009 559.32623 
L 1121.21357 563.200769 
L 1122.50013 565.074111 
L 1125.07325 555.610214 
L 1126.35981 554.244782 
L 1127.64637 551.646914 
L 1128.932931 546.221667 
L 1130.219491 546.519229 
L 1131.506051 542.645277 
L 1132.792611 540.051988 
L 1134.079171 536.033358 
L 1135.365731 529.849161 
L 1136.652291 521.396181 
L 1137.938852 518.463102 
L 1139.225412 517.521652 
L 1140.511972 521.697214 
L 1141.798532 516.878372 
L 1143.085092 510.145449 
L 1144.371652 510.077127 
L 1145.658213 516.63517 
L 1146.944773 524.128288 
L 1149.517893 546.734752 
L 1150.804453 550.201291 
L 1152.091013 556.181653 
L 1153.377574 554.20373 
L 1154.664134 563.53255 
L 1155.950694 571.112356 
L 1157.237254 576.623495 
L 1158.523814 576.164537 
L 1159.810374 572.935232 
L 1161.096934 573.525947 
L 1162.383495 569.198902 
L 1163.670055 572.00706 
L 1164.956615 568.919737 
L 1166.243175 574.037855 
L 1167.529735 567.190735 
L 1168.816295 563.63093 
L 1171.389416 555.094527 
L 1172.675976 551.606 
L 1173.962536 552.322223 
L 1175.249096 554.378032 
L 1176.535656 555.862636 
L 1177.822216 560.417333 
L 1179.108777 559.30146 
L 1180.395337 566.43203 
L 1181.681897 566.81455 
L 1182.968457 569.449207 
L 1185.541577 579.412394 
L 1186.828138 579.276679 
L 1188.114698 585.2177 
L 1189.401258 584.728743 
L 1190.687818 581.473556 
L 1191.974378 578.996585 
L 1193.260938 580.150994 
L 1194.547499 581.638252 
L 1195.834059 580.569179 
L 1197.120619 572.803551 
L 1198.407179 574.05707 
L 1199.693739 570.318096 
L 1200.980299 538.021807 
L 1202.266859 534.570665 
L 1203.55342 537.96134 
L 1204.83998 538.243014 
L 1207.4131 534.769945 
L 1208.69966 531.094198 
L 1209.98622 539.489573 
L 1211.272781 539.244048 
L 1212.559341 537.714643 
L 1213.845901 568.996988 
L 1215.132461 573.644614 
L 1216.419021 570.855032 
L 1217.705581 574.615135 
L 1218.992141 576.201034 
L 1220.278702 580.216712 
L 1221.565262 582.757374 
L 1222.851822 572.466369 
L 1224.138382 571.129607 
L 1225.424942 575.848106 
L 1226.711502 574.340885 
L 1227.998063 575.607592 
L 1229.284623 577.184037 
L 1230.571183 575.59537 
L 1233.144303 575.815929 
L 1234.430863 573.245428 
L 1235.717424 579.888596 
L 1237.003984 582.889161 
L 1238.290544 579.532157 
L 1239.577104 579.476751 
L 1240.863664 577.193324 
L 1242.150224 572.319149 
L 1243.436784 573.218555 
L 1244.723345 572.610881 
L 1246.009905 570.850618 
L 1247.296465 571.496245 
L 1248.583025 566.72766 
L 1249.869585 563.289919 
L 1251.156145 564.001141 
L 1252.442706 567.363196 
L 1253.729266 569.151119 
L 1255.015826 573.184302 
L 1256.302386 571.135936 
L 1257.588946 572.962787 
L 1258.875506 573.583311 
L 1260.162066 576.198927 
L 1261.448627 582.852103 
L 1262.735187 585.671556 
L 1264.021747 587.501683 
L 1265.308307 583.729918 
L 1266.594867 579.54813 
L 1267.881427 577.498288 
L 1269.167988 579.478327 
L 1270.454548 578.973899 
L 1271.741108 579.864247 
L 1273.027668 581.644508 
L 1274.314228 580.045728 
L 1275.600788 576.040077 
L 1276.887349 576.518957 
L 1278.173909 579.769369 
L 1279.460469 582.062479 
L 1280.747029 583.339348 
L 1282.033589 583.615772 
L 1284.606709 580.215763 
L 1285.89327 580.868456 
L 1287.17983 582.965282 
L 1288.46639 581.252839 
L 1289.75295 578.534621 
L 1291.03951 572.362438 
L 1292.32607 575.055055 
L 1293.612631 572.933265 
L 1294.899191 573.454294 
L 1296.185751 571.245117 
L 1297.472311 572.580303 
L 1298.758871 573.615407 
L 1300.045431 567.858097 
L 1301.331992 573.20126 
L 1302.618552 575.174685 
L 1303.905112 581.639657 
L 1305.191672 577.421472 
L 1306.478232 581.10624 
L 1307.764792 574.268672 
L 1309.051352 576.924109 
L 1311.624473 571.616537 
L 1312.911033 577.497979 
L 1314.197593 572.310316 
L 1315.484153 573.041378 
L 1316.770713 561.447511 
L 1318.057274 563.40009 
L 1319.343834 559.562731 
L 1320.630394 560.361998 
L 1321.916954 557.590896 
L 1323.203514 555.918275 
L 1324.490074 555.40213 
L 1325.776634 551.38876 
L 1327.063195 552.460983 
L 1328.349755 552.020006 
L 1329.636315 560.471148 
L 1330.922875 559.46137 
L 1332.209435 563.219676 
L 1333.495995 565.710646 
L 1334.782556 564.912777 
L 1336.069116 567.745157 
L 1337.355676 568.13865 
L 1338.642236 570.910173 
L 1339.928796 568.364385 
L 1341.215356 568.643377 
L 1342.501917 567.211484 
L 1343.788477 568.092992 
L 1345.075037 568.359728 
L 1346.361597 566.783986 
L 1347.648157 571.709618 
L 1348.934717 558.721968 
L 1350.221277 560.48433 
L 1352.794398 563.181765 
L 1354.080958 563.492213 
L 1355.367518 563.534605 
L 1356.654078 564.891598 
L 1357.940638 565.25194 
L 1359.227199 567.536722 
L 1360.513759 561.08571 
L 1361.800319 576.986304 
L 1363.086879 576.778772 
L 1364.373439 567.023809 
L 1365.659999 540.445897 
L 1366.946559 510.59948 
L 1368.23312 484.093986 
L 1369.51968 481.141018 
L 1370.80624 481.719983 
L 1372.0928 482.100626 
L 1373.37936 480.968681 
L 1373.37936 480.968681 
" clip-path="url(#pf97f2b4894)" style="fill: none; stroke: #734848; stroke-width: 1.5; stroke-linecap: round"/>
   </g>
   <g id="patch_3">
    <path d="M 37.350966 614.258685 
L 37.350966 25.604645 
" style="fill: none; stroke: #808080; stroke-width: 0.8; stroke-linejoin: miter; stroke-linecap: square"/>
   </g>
   <g id="patch_4">
    <path d="M 37.350966 614.258685 
L 1436.99976 614.258685 
" style="fill: none; stroke: #808080; stroke-width: 0.8; stroke-linejoin: miter; stroke-linecap: square"/>
   </g>
   <g id="text_16">
    <!-- Loss of LSTM -->
    <g style="fill: #262626" transform="translate(669.079678 19.604645) scale(0.24 -0.24)">
     <defs>
      <path id="CMR17-66" d="M 979 2560 
L 1709 2560 
L 1709 2725 
L 966 2725 
L 966 3494 
C 966 4022 1235 4352 1510 4352 
C 1594 4352 1690 4327 1754 4282 
C 1702 4269 1568 4225 1568 4067 
C 1568 3901 1696 3850 1786 3850 
C 1875 3850 2003 3901 2003 4067 
C 2003 4308 1773 4454 1517 4454 
C 1152 4454 653 4156 653 3481 
L 653 2725 
L 141 2725 
L 141 2560 
L 653 2560 
L 653 427 
C 653 184 627 153 218 153 
L 218 -13 
C 371 0 666 0 832 0 
C 1018 0 1344 0 1517 -13 
L 1517 153 
C 1056 153 979 153 979 439 
L 979 2560 
z
" transform="scale(0.015625)"/>
      <path id="CMR17-53" d="M 2803 4290 
C 2803 4404 2797 4411 2758 4411 
C 2720 4411 2707 4385 2682 4328 
L 2490 3907 
C 2246 4257 1875 4416 1472 4416 
C 819 4416 294 3901 294 3253 
C 294 3056 339 2776 557 2510 
C 794 2218 1018 2167 1530 2033 
C 1722 1982 2042 1899 2106 1874 
C 2470 1722 2662 1341 2662 985 
C 2662 527 2336 38 1779 38 
C 1094 38 454 419 410 1311 
C 403 1413 397 1419 352 1419 
C 301 1419 294 1413 294 1285 
L 294 -1 
C 294 -115 301 -122 339 -122 
C 384 -122 397 -90 486 108 
C 493 127 493 140 614 381 
C 934 -39 1472 -128 1779 -128 
C 2477 -128 2970 451 2970 1124 
C 2970 1454 2848 1708 2778 1823 
C 2509 2230 2221 2306 1914 2382 
C 1869 2402 1856 2402 1498 2490 
C 1152 2579 1005 2624 845 2796 
C 666 2992 602 3196 602 3399 
C 602 3812 934 4263 1478 4263 
C 2157 4263 2579 3786 2675 2993 
C 2694 2878 2701 2872 2746 2872 
C 2803 2872 2803 2891 2803 2999 
L 2803 4290 
z
" transform="scale(0.015625)"/>
      <path id="CMR17-54" d="M 3981 4326 
L 288 4326 
L 179 2918 
L 294 2918 
C 378 3976 467 4160 1453 4160 
C 1568 4160 1754 4160 1805 4154 
C 1926 4135 1926 4058 1926 3912 
L 1926 459 
C 1926 230 1907 160 1376 160 
L 1197 160 
L 1197 0 
C 1504 0 1824 0 2138 0 
C 2451 0 2771 0 3078 0 
L 3078 160 
L 2899 160 
C 2368 160 2349 230 2349 459 
L 2349 3912 
C 2349 4052 2349 4129 2464 4154 
C 2515 4160 2701 4160 2816 4160 
C 3795 4160 3891 3976 3974 2918 
L 4090 2918 
L 3981 4326 
z
" transform="scale(0.015625)"/>
      <path id="CMR17-4d" d="M 1338 4224 
C 1299 4320 1293 4320 1158 4320 
L 339 4320 
L 339 4160 
C 781 4160 851 4160 851 3875 
L 851 610 
C 851 451 851 153 339 153 
L 339 -13 
C 486 0 755 0 915 0 
C 1075 0 1344 0 1491 -13 
L 1491 153 
C 979 153 979 451 979 610 
L 979 4135 
L 986 4135 
L 2490 89 
C 2515 25 2528 -13 2579 -13 
C 2630 -13 2643 25 2669 89 
L 4186 4166 
L 4192 4166 
L 4192 438 
C 4192 153 4122 153 3680 153 
L 3680 -13 
C 3853 0 4198 0 4384 0 
C 4570 0 4922 0 5094 -13 
L 5094 153 
C 4653 153 4582 153 4582 438 
L 4582 3875 
C 4582 4160 4653 4160 5094 4160 
L 5094 4320 
L 4282 4320 
C 4147 4320 4141 4314 4102 4218 
L 2720 502 
L 1338 4224 
z
" transform="scale(0.015625)"/>
     </defs>
     <use xlink:href="#CMR17-4c" transform="scale(0.996264)"/>
     <use xlink:href="#CMR17-6f" transform="translate(57.381408 0) scale(0.996264)"/>
     <use xlink:href="#CMR17-73" transform="translate(103.071885 0) scale(0.996264)"/>
     <use xlink:href="#CMR17-73" transform="translate(138.873223 0) scale(0.996264)"/>
     <use xlink:href="#CMR17-6f" transform="translate(204.750527 0) scale(0.996264)"/>
     <use xlink:href="#CMR17-66" transform="translate(250.441004 0) scale(0.996264)"/>
     <use xlink:href="#CMR17-4c" transform="translate(307.990482 0) scale(0.996264)"/>
     <use xlink:href="#CMR17-53" transform="translate(365.37189 0) scale(0.996264)"/>
     <use xlink:href="#CMR17-54" transform="translate(416.26726 0) scale(0.996264)"/>
     <use xlink:href="#CMR17-4d" transform="translate(482.777141 0) scale(0.996264)"/>
    </g>
   </g>
   <g id="legend_1">
    <g id="patch_5">
     <path d="M 582.483549 716.999722 
L 891.867177 716.999722 
Q 895.867177 716.999722 895.867177 712.999722 
L 895.867177 687.124089 
Q 895.867177 683.124089 891.867177 683.124089 
L 582.483549 683.124089 
Q 578.483549 683.124089 578.483549 687.124089 
L 578.483549 712.999722 
Q 578.483549 716.999722 582.483549 716.999722 
z
" style="fill: #ffffff; opacity: 0.8"/>
    </g>
    <g id="line2d_16">
     <path d="M 586.483549 698.124089 
L 606.483549 698.124089 
L 626.483549 698.124089 
" style="fill: none; stroke: #006e64; stroke-width: 1.5; stroke-linecap: round"/>
    </g>
    <g id="text_17">
     <!-- Training -->
     <g style="fill: #262626" transform="translate(642.483549 705.124089) scale(0.2 -0.2)">
      <defs>
       <path id="CMR17-72" d="M 960 1497 
C 960 2112 1222 2688 1702 2688 
C 1747 2688 1792 2682 1837 2662 
C 1837 2662 1696 2617 1696 2452 
C 1696 2298 1818 2234 1914 2234 
C 1990 2234 2131 2279 2131 2458 
C 2131 2663 1926 2790 1709 2790 
C 1222 2790 1011 2317 947 2093 
L 941 2093 
L 941 2790 
L 198 2720 
L 198 2554 
C 576 2554 634 2515 634 2208 
L 634 428 
C 634 184 608 153 198 153 
L 198 -13 
C 352 0 646 0 813 0 
C 998 0 1325 0 1498 -13 
L 1498 153 
C 1037 153 960 153 960 440 
L 960 1497 
z
" transform="scale(0.015625)"/>
       <path id="CMR17-61" d="M 2304 1653 
C 2304 2072 2304 2294 2035 2543 
C 1798 2752 1523 2816 1306 2816 
C 800 2816 435 2407 435 1971 
C 435 1728 627 1728 666 1728 
C 749 1728 896 1778 896 1954 
C 896 2112 774 2181 666 2181 
C 640 2181 608 2174 589 2168 
C 723 2592 1069 2714 1293 2714 
C 1613 2714 1965 2429 1965 1885 
L 1965 1600 
C 1587 1600 1133 1549 774 1357 
C 371 1133 256 813 256 570 
C 256 77 832 -64 1171 -64 
C 1523 -64 1850 139 1990 511 
C 2003 233 2182 -18 2464 -18 
C 2598 -18 2938 70 2938 567 
L 2938 920 
L 2822 920 
L 2822 562 
C 2822 178 2650 128 2566 128 
C 2304 128 2304 458 2304 738 
L 2304 1653 
z
M 1965 870 
C 1965 317 1568 38 1216 38 
C 896 38 646 275 646 570 
C 646 761 730 1100 1101 1305 
C 1408 1478 1760 1504 1965 1504 
L 1965 870 
z
" transform="scale(0.015625)"/>
       <path id="CMR17-69" d="M 992 3909 
C 992 4049 877 4170 730 4170 
C 589 4170 467 4056 467 3909 
C 467 3769 582 3648 730 3648 
C 870 3648 992 3763 992 3909 
z
M 243 2706 
L 243 2541 
C 602 2541 653 2502 653 2197 
L 653 427 
C 653 184 627 153 218 153 
L 218 -13 
C 371 0 646 0 806 0 
C 960 0 1222 0 1370 -13 
L 1370 153 
C 992 153 979 191 979 420 
L 979 2776 
L 243 2706 
z
" transform="scale(0.015625)"/>
       <path id="CMR17-6e" d="M 2656 1933 
C 2656 2259 2592 2790 1837 2790 
C 1331 2790 1069 2400 973 2144 
L 966 2144 
L 966 2790 
L 211 2720 
L 211 2554 
C 589 2554 646 2515 646 2208 
L 646 428 
C 646 184 621 153 211 153 
L 211 -13 
C 365 0 646 0 813 0 
C 979 0 1267 0 1421 -13 
L 1421 153 
C 1011 153 986 178 986 428 
L 986 1658 
C 986 2247 1344 2688 1792 2688 
C 2266 2688 2317 2266 2317 1958 
L 2317 428 
C 2317 184 2291 153 1882 153 
L 1882 -13 
C 2035 0 2317 0 2483 0 
C 2650 0 2938 0 3091 -13 
L 3091 153 
C 2682 153 2656 178 2656 428 
L 2656 1933 
z
" transform="scale(0.015625)"/>
       <path id="CMR17-67" d="M 710 1164 
C 832 1068 1043 960 1299 960 
C 1805 960 2240 1357 2240 1888 
C 2240 2054 2189 2310 1997 2509 
C 2176 2692 2438 2752 2586 2752 
C 2611 2752 2650 2752 2682 2734 
C 2656 2728 2598 2703 2598 2605 
C 2598 2527 2656 2471 2739 2471 
C 2835 2471 2886 2533 2886 2614 
C 2886 2731 2790 2854 2586 2854 
C 2330 2854 2106 2738 1926 2580 
C 1734 2753 1504 2816 1299 2816 
C 794 2816 358 2419 358 1888 
C 358 1522 570 1292 634 1228 
C 442 1004 442 743 442 711 
C 442 545 506 302 723 168 
C 390 85 128 -169 128 -486 
C 128 -943 736 -1280 1466 -1280 
C 2170 -1280 2803 -956 2803 -479 
C 2803 384 1856 384 1363 384 
C 1216 384 954 384 922 391 
C 723 423 589 602 589 826 
C 589 883 589 1024 710 1164 
z
M 1299 1068 
C 736 1068 736 1760 736 1889 
C 736 2016 736 2708 1299 2708 
C 1862 2708 1862 2016 1862 1889 
C 1862 1760 1862 1068 1299 1068 
z
M 1466 -1171 
C 826 -1171 384 -835 384 -486 
C 384 -289 493 -105 634 -4 
C 794 104 858 104 1293 104 
C 1818 104 2547 104 2547 -486 
C 2547 -835 2106 -1171 1466 -1171 
z
" transform="scale(0.015625)"/>
      </defs>
      <use xlink:href="#CMR17-54" transform="scale(0.996264)"/>
      <use xlink:href="#CMR17-72" transform="translate(58.702625 0) scale(0.996264)"/>
      <use xlink:href="#CMR17-61" transform="translate(93.983393 0) scale(0.996264)"/>
      <use xlink:href="#CMR17-69" transform="translate(139.67387 0) scale(0.996264)"/>
      <use xlink:href="#CMR17-6e" transform="translate(164.544929 0) scale(0.996264)"/>
      <use xlink:href="#CMR17-69" transform="translate(215.440298 0) scale(0.996264)"/>
      <use xlink:href="#CMR17-6e" transform="translate(240.311357 0) scale(0.996264)"/>
      <use xlink:href="#CMR17-67" transform="translate(291.206727 0) scale(0.996264)"/>
     </g>
    </g>
    <g id="line2d_17">
     <path d="M 749.862956 698.124089 
L 769.862956 698.124089 
L 789.862956 698.124089 
" style="fill: none; stroke: #734848; stroke-width: 1.5; stroke-linecap: round"/>
    </g>
    <g id="text_18">
     <!-- Validation -->
     <g style="fill: #262626" transform="translate(805.862956 705.124089) scale(0.2 -0.2)">
      <defs>
       <path id="CMR17-56" d="M 3776 3745 
C 3834 3886 3936 4160 4365 4160 
L 4365 4332 
C 4218 4319 4051 4319 3891 4319 
C 3738 4319 3475 4319 3328 4332 
L 3328 4160 
C 3648 4160 3661 3936 3661 3898 
C 3661 3827 3642 3783 3622 3732 
L 2362 446 
L 1043 3886 
C 1024 3931 1011 3963 1011 3994 
C 1011 4160 1267 4160 1402 4160 
L 1402 4319 
C 1197 4319 896 4319 685 4319 
C 518 4319 218 4319 64 4332 
L 64 4160 
C 435 4160 506 4135 582 3931 
L 2106 -26 
C 2138 -115 2144 -128 2214 -128 
C 2285 -128 2291 -115 2323 -26 
L 3776 3745 
z
" transform="scale(0.015625)"/>
       <path id="CMR17-6c" d="M 979 4396 
L 218 4326 
L 218 4160 
C 595 4160 653 4122 653 3817 
L 653 426 
C 653 184 627 153 218 153 
L 218 -13 
C 371 0 653 0 813 0 
C 979 0 1261 0 1414 -13 
L 1414 153 
C 1005 153 979 178 979 426 
L 979 4396 
z
" transform="scale(0.015625)"/>
       <path id="CMR17-64" d="M 1869 4326 
L 1869 4160 
C 2246 4160 2304 4122 2304 3820 
L 2304 2345 
C 2278 2377 2016 2790 1498 2790 
C 845 2790 211 2208 211 1364 
C 211 525 806 -64 1434 -64 
C 1978 -64 2259 337 2291 380 
L 2291 -63 
L 3066 -63 
L 3066 128 
C 2688 128 2630 166 2630 473 
L 2630 4396 
L 1869 4326 
z
M 2291 755 
C 2291 563 2176 390 2029 262 
C 1811 70 1594 38 1472 38 
C 1286 38 621 134 621 1356 
C 621 2612 1363 2688 1530 2688 
C 1824 2688 2061 2522 2208 2291 
C 2291 2157 2291 2138 2291 2023 
L 2291 755 
z
" transform="scale(0.015625)"/>
       <path id="CMR17-74" d="M 966 2560 
L 1862 2560 
L 1862 2725 
L 966 2725 
L 966 3904 
L 851 3904 
C 838 3245 614 2668 70 2668 
L 70 2560 
L 627 2560 
L 627 771 
C 627 650 627 -64 1370 -64 
C 1747 -64 1965 306 1965 777 
L 1965 1140 
L 1850 1140 
L 1850 783 
C 1850 344 1677 51 1408 51 
C 1222 51 966 178 966 758 
L 966 2560 
z
" transform="scale(0.015625)"/>
      </defs>
      <use xlink:href="#CMR17-56" transform="scale(0.996264)"/>
      <use xlink:href="#CMR17-61" transform="translate(61.265174 0) scale(0.996264)"/>
      <use xlink:href="#CMR17-6c" transform="translate(106.955652 0) scale(0.996264)"/>
      <use xlink:href="#CMR17-69" transform="translate(131.82671 0) scale(0.996264)"/>
      <use xlink:href="#CMR17-64" transform="translate(156.697768 0) scale(0.996264)"/>
      <use xlink:href="#CMR17-61" transform="translate(207.593138 0) scale(0.996264)"/>
      <use xlink:href="#CMR17-74" transform="translate(253.283615 0) scale(0.996264)"/>
      <use xlink:href="#CMR17-69" transform="translate(288.564383 0) scale(0.996264)"/>
      <use xlink:href="#CMR17-6f" transform="translate(313.435442 0) scale(0.996264)"/>
      <use xlink:href="#CMR17-6e" transform="translate(359.125919 0) scale(0.996264)"/>
     </g>
    </g>
   </g>
  </g>
 </g>
 <defs>
  <clipPath id="pf97f2b4894">
   <rect x="37.350966" y="25.604645" width="1399.648794" height="588.65404"/>
  </clipPath>
 </defs>
</svg>
