<?xml version="1.0" encoding="utf-8" standalone="no"?>
<!DOCTYPE svg PUBLIC "-//W3C//DTD SVG 1.1//EN"
  "http://www.w3.org/Graphics/SVG/1.1/DTD/svg11.dtd">
<svg xmlns:xlink="http://www.w3.org/1999/xlink" width="1440pt" height="720pt" viewBox="0 0 1440 720" xmlns="http://www.w3.org/2000/svg" version="1.1">
 <metadata>
  <rdf:RDF xmlns:dc="http://purl.org/dc/elements/1.1/" xmlns:cc="http://creativecommons.org/ns#" xmlns:rdf="http://www.w3.org/1999/02/22-rdf-syntax-ns#">
   <cc:Work>
    <dc:type rdf:resource="http://purl.org/dc/dcmitype/StillImage"/>
    <dc:date>2023-12-02T23:41:12.059471</dc:date>
    <dc:format>image/svg+xml</dc:format>
    <dc:creator>
     <cc:Agent>
      <dc:title>Matplotlib v3.8.0, https://matplotlib.org/</dc:title>
     </cc:Agent>
    </dc:creator>
   </cc:Work>
  </rdf:RDF>
 </metadata>
 <defs>
  <style type="text/css">*{stroke-linejoin: round; stroke-linecap: butt}</style>
 </defs>
 <g id="figure_1">
  <g id="patch_1">
   <path d="M 0 720 
L 1440 720 
L 1440 0 
L 0 0 
z
" style="fill: #ffffff"/>
  </g>
  <g id="axes_1">
   <g id="patch_2">
    <path d="M 46.489061 588.917225 
L 1423.292617 588.917225 
L 1423.292617 25.604645 
L 46.489061 25.604645 
z
" style="fill: #ffffff"/>
   </g>
   <g id="matplotlib.axis_1">
    <g id="xtick_1">
     <g id="line2d_1">
      <path d="M 46.489061 588.917225 
L 46.489061 25.604645 
" clip-path="url(#p944878bf3d)" style="fill: none; stroke: #cccccc; stroke-opacity: 0.35; stroke-width: 0.8; stroke-linecap: round"/>
     </g>
     <g id="text_1">
      <!-- $\mathdefault{0}$ -->
      <g transform="translate(41.920014 606.254222) scale(0.2 -0.2)">
       <defs>
        <path id="CMR17-30" d="M 2688 2025 
C 2688 2416 2682 3080 2413 3591 
C 2176 4039 1798 4198 1466 4198 
C 1158 4198 768 4058 525 3597 
C 269 3118 243 2524 243 2025 
C 243 1661 250 1106 448 619 
C 723 -39 1216 -128 1466 -128 
C 1760 -128 2208 -7 2470 600 
C 2662 1042 2688 1559 2688 2025 
z
M 1466 -26 
C 1056 -26 813 325 723 812 
C 653 1188 653 1738 653 2096 
C 653 2588 653 2997 736 3387 
C 858 3929 1216 4096 1466 4096 
C 1728 4096 2067 3923 2189 3400 
C 2272 3036 2278 2607 2278 2096 
C 2278 1680 2278 1169 2202 792 
C 2067 95 1690 -26 1466 -26 
z
" transform="scale(0.015625)"/>
       </defs>
       <use xlink:href="#CMR17-30" transform="scale(0.996264)"/>
      </g>
     </g>
    </g>
    <g id="xtick_2">
     <g id="line2d_2">
      <path d="M 321.849772 588.917225 
L 321.849772 25.604645 
" clip-path="url(#p944878bf3d)" style="fill: none; stroke: #cccccc; stroke-opacity: 0.35; stroke-width: 0.8; stroke-linecap: round"/>
     </g>
     <g id="text_2">
      <!-- $\mathdefault{50}$ -->
      <g transform="translate(312.711677 606.254222) scale(0.2 -0.2)">
       <defs>
        <path id="CMR17-35" d="M 730 3692 
C 794 3666 1056 3584 1325 3584 
C 1920 3584 2246 3911 2432 4100 
C 2432 4157 2432 4192 2394 4192 
C 2387 4192 2374 4192 2323 4163 
C 2099 4058 1837 3973 1517 3973 
C 1325 3973 1037 3999 723 4139 
C 653 4171 640 4171 634 4171 
C 602 4171 595 4164 595 4037 
L 595 2203 
C 595 2089 595 2057 659 2057 
C 691 2057 704 2070 736 2114 
C 941 2401 1222 2522 1542 2522 
C 1766 2522 2246 2382 2246 1289 
C 2246 1085 2246 715 2054 421 
C 1894 159 1645 25 1370 25 
C 947 25 518 320 403 814 
C 429 807 480 795 506 795 
C 589 795 749 840 749 1038 
C 749 1210 627 1280 506 1280 
C 358 1280 262 1190 262 1011 
C 262 454 704 -128 1382 -128 
C 2042 -128 2669 440 2669 1264 
C 2669 2030 2170 2624 1549 2624 
C 1222 2624 947 2503 730 2274 
L 730 3692 
z
" transform="scale(0.015625)"/>
       </defs>
       <use xlink:href="#CMR17-35" transform="scale(0.996264)"/>
       <use xlink:href="#CMR17-30" transform="translate(45.690477 0) scale(0.996264)"/>
      </g>
     </g>
    </g>
    <g id="xtick_3">
     <g id="line2d_3">
      <path d="M 597.210483 588.917225 
L 597.210483 25.604645 
" clip-path="url(#p944878bf3d)" style="fill: none; stroke: #cccccc; stroke-opacity: 0.35; stroke-width: 0.8; stroke-linecap: round"/>
     </g>
     <g id="text_3">
      <!-- $\mathdefault{100}$ -->
      <g transform="translate(583.50334 606.254222) scale(0.2 -0.2)">
       <defs>
        <path id="CMR17-31" d="M 1702 4058 
C 1702 4192 1696 4192 1606 4192 
C 1357 3916 979 3827 621 3827 
C 602 3827 570 3827 563 3808 
C 557 3795 557 3782 557 3648 
C 755 3648 1088 3686 1344 3839 
L 1344 461 
C 1344 236 1331 160 781 160 
L 589 160 
L 589 0 
C 896 0 1216 0 1523 0 
C 1830 0 2150 0 2458 0 
L 2458 160 
L 2266 160 
C 1715 160 1702 230 1702 458 
L 1702 4058 
z
" transform="scale(0.015625)"/>
       </defs>
       <use xlink:href="#CMR17-31" transform="scale(0.996264)"/>
       <use xlink:href="#CMR17-30" transform="translate(45.690477 0) scale(0.996264)"/>
       <use xlink:href="#CMR17-30" transform="translate(91.380954 0) scale(0.996264)"/>
      </g>
     </g>
    </g>
    <g id="xtick_4">
     <g id="line2d_4">
      <path d="M 872.571195 588.917225 
L 872.571195 25.604645 
" clip-path="url(#p944878bf3d)" style="fill: none; stroke: #cccccc; stroke-opacity: 0.35; stroke-width: 0.8; stroke-linecap: round"/>
     </g>
     <g id="text_4">
      <!-- $\mathdefault{150}$ -->
      <g transform="translate(858.864051 606.254222) scale(0.2 -0.2)">
       <use xlink:href="#CMR17-31" transform="scale(0.996264)"/>
       <use xlink:href="#CMR17-35" transform="translate(45.690477 0) scale(0.996264)"/>
       <use xlink:href="#CMR17-30" transform="translate(91.380954 0) scale(0.996264)"/>
      </g>
     </g>
    </g>
    <g id="xtick_5">
     <g id="line2d_5">
      <path d="M 1147.931906 588.917225 
L 1147.931906 25.604645 
" clip-path="url(#p944878bf3d)" style="fill: none; stroke: #cccccc; stroke-opacity: 0.35; stroke-width: 0.8; stroke-linecap: round"/>
     </g>
     <g id="text_5">
      <!-- $\mathdefault{200}$ -->
      <g transform="translate(1134.224763 606.254222) scale(0.2 -0.2)">
       <defs>
        <path id="CMR17-32" d="M 2669 989 
L 2554 989 
C 2490 536 2438 459 2413 420 
C 2381 369 1920 369 1830 369 
L 602 369 
C 832 619 1280 1072 1824 1597 
C 2214 1967 2669 2402 2669 3035 
C 2669 3790 2067 4224 1395 4224 
C 691 4224 262 3604 262 3030 
C 262 2780 448 2748 525 2748 
C 589 2748 781 2787 781 3010 
C 781 3207 614 3264 525 3264 
C 486 3264 448 3258 422 3245 
C 544 3790 915 4058 1306 4058 
C 1862 4058 2227 3617 2227 3035 
C 2227 2479 1901 2000 1536 1584 
L 262 146 
L 262 0 
L 2515 0 
L 2669 989 
z
" transform="scale(0.015625)"/>
       </defs>
       <use xlink:href="#CMR17-32" transform="scale(0.996264)"/>
       <use xlink:href="#CMR17-30" transform="translate(45.690477 0) scale(0.996264)"/>
       <use xlink:href="#CMR17-30" transform="translate(91.380954 0) scale(0.996264)"/>
      </g>
     </g>
    </g>
    <g id="xtick_6">
     <g id="line2d_6">
      <path d="M 1423.292617 588.917225 
L 1423.292617 25.604645 
" clip-path="url(#p944878bf3d)" style="fill: none; stroke: #cccccc; stroke-opacity: 0.35; stroke-width: 0.8; stroke-linecap: round"/>
     </g>
     <g id="text_6">
      <!-- $\mathdefault{250}$ -->
      <g transform="translate(1409.585474 606.254222) scale(0.2 -0.2)">
       <use xlink:href="#CMR17-32" transform="scale(0.996264)"/>
       <use xlink:href="#CMR17-35" transform="translate(45.690477 0) scale(0.996264)"/>
       <use xlink:href="#CMR17-30" transform="translate(91.380954 0) scale(0.996264)"/>
      </g>
     </g>
    </g>
    <g id="text_7">
     <!-- Epoch -->
     <g style="fill: #696969" transform="translate(709.575303 627.966852) scale(0.2 -0.2)">
      <defs>
       <path id="CMR17-45" d="M 3885 1615 
L 3770 1615 
C 3629 676 3546 166 2419 166 
L 1530 166 
C 1274 166 1261 197 1261 414 
L 1261 2176 
L 1862 2176 
C 2464 2176 2522 1960 2522 1430 
L 2637 1430 
L 2637 3081 
L 2522 3081 
C 2522 2557 2464 2342 1862 2342 
L 1261 2342 
L 1261 3913 
C 1261 4128 1274 4160 1530 4160 
L 2406 4160 
C 3398 4160 3514 3769 3603 2929 
L 3718 2929 
L 3565 4325 
L 326 4325 
L 326 4160 
C 768 4160 838 4160 838 3874 
L 838 451 
C 838 166 768 166 326 166 
L 326 0 
L 3654 0 
L 3885 1615 
z
" transform="scale(0.015625)"/>
       <path id="CMR17-70" d="M 1408 -1063 
C 998 -1063 973 -1037 973 -789 
L 973 402 
C 1158 134 1427 -38 1766 -38 
C 2406 -38 3053 523 3053 1388 
C 3053 2191 2496 2802 1837 2802 
C 1453 2802 1139 2592 960 2338 
L 960 2802 
L 198 2732 
L 198 2567 
C 576 2567 634 2528 634 2223 
L 634 -789 
C 634 -1031 608 -1063 198 -1063 
L 198 -1228 
C 352 -1216 634 -1216 800 -1216 
C 966 -1216 1254 -1216 1408 -1228 
L 1408 -1063 
z
M 973 2012 
C 973 2102 973 2235 1222 2471 
C 1254 2497 1472 2688 1792 2688 
C 2259 2688 2643 2108 2643 1382 
C 2643 656 2234 64 1728 64 
C 1498 64 1248 172 1056 472 
C 973 612 973 650 973 752 
L 973 2012 
z
" transform="scale(0.015625)"/>
       <path id="CMR17-6f" d="M 2758 1356 
C 2758 2176 2163 2816 1466 2816 
C 768 2816 173 2176 173 1356 
C 173 551 768 -64 1466 -64 
C 2163 -64 2758 551 2758 1356 
z
M 1466 51 
C 1165 51 909 230 762 480 
C 602 767 582 1126 582 1408 
C 582 1677 595 2010 762 2298 
C 890 2509 1139 2714 1466 2714 
C 1754 2714 1997 2554 2150 2330 
C 2349 2029 2349 1607 2349 1408 
C 2349 1158 2336 775 2163 467 
C 1984 173 1709 51 1466 51 
z
" transform="scale(0.015625)"/>
       <path id="CMR17-63" d="M 2234 2240 
C 2112 2240 1933 2240 1933 2017 
C 1933 1838 2080 1787 2163 1787 
C 2208 1787 2394 1807 2394 2024 
C 2394 2467 1958 2803 1466 2803 
C 787 2803 211 2178 211 1363 
C 211 516 813 -64 1466 -64 
C 2259 -64 2458 677 2458 748 
C 2458 774 2451 793 2406 793 
C 2362 793 2355 787 2330 703 
C 2163 180 1798 51 1523 51 
C 1114 51 621 427 621 1369 
C 621 2338 1094 2688 1472 2688 
C 1722 2688 2093 2573 2234 2240 
z
" transform="scale(0.015625)"/>
       <path id="CMR17-68" d="M 2656 1933 
C 2656 2259 2592 2790 1837 2790 
C 1312 2790 1056 2368 979 2157 
L 973 2157 
L 973 4396 
L 211 4326 
L 211 4160 
C 589 4160 646 4122 646 3817 
L 646 426 
C 646 184 621 153 211 153 
L 211 -13 
C 365 0 646 0 813 0 
C 979 0 1267 0 1421 -13 
L 1421 153 
C 1011 153 986 178 986 428 
L 986 1658 
C 986 2247 1344 2688 1792 2688 
C 2266 2688 2317 2266 2317 1958 
L 2317 428 
C 2317 184 2291 153 1882 153 
L 1882 -13 
C 2035 0 2317 0 2483 0 
C 2650 0 2938 0 3091 -13 
L 3091 153 
C 2682 153 2656 178 2656 428 
L 2656 1933 
z
" transform="scale(0.015625)"/>
      </defs>
      <use xlink:href="#CMR17-45" transform="scale(0.996264)"/>
      <use xlink:href="#CMR17-70" transform="translate(62.586301 0) scale(0.996264)"/>
      <use xlink:href="#CMR17-6f" transform="translate(116.084109 0) scale(0.996264)"/>
      <use xlink:href="#CMR17-63" transform="translate(164.377025 0) scale(0.996264)"/>
      <use xlink:href="#CMR17-68" transform="translate(202.260231 0) scale(0.996264)"/>
     </g>
    </g>
   </g>
   <g id="matplotlib.axis_2">
    <g id="ytick_1">
     <g id="line2d_7">
      <path d="M 46.489061 587.999665 
L 1423.292617 587.999665 
" clip-path="url(#p944878bf3d)" style="fill: none; stroke: #cccccc; stroke-opacity: 0.35; stroke-width: 0.8; stroke-linecap: round"/>
     </g>
     <g id="text_8">
      <!-- $\mathdefault{0}$ -->
      <g transform="translate(33.850966 594.918164) scale(0.2 -0.2)">
       <use xlink:href="#CMR17-30" transform="scale(0.996264)"/>
      </g>
     </g>
    </g>
    <g id="ytick_2">
     <g id="line2d_8">
      <path d="M 46.489061 479.997052 
L 1423.292617 479.997052 
" clip-path="url(#p944878bf3d)" style="fill: none; stroke: #cccccc; stroke-opacity: 0.35; stroke-width: 0.8; stroke-linecap: round"/>
     </g>
     <g id="text_9">
      <!-- $\mathdefault{2}$ -->
      <g transform="translate(33.850966 486.915551) scale(0.2 -0.2)">
       <use xlink:href="#CMR17-32" transform="scale(0.996264)"/>
      </g>
     </g>
    </g>
    <g id="ytick_3">
     <g id="line2d_9">
      <path d="M 46.489061 371.994439 
L 1423.292617 371.994439 
" clip-path="url(#p944878bf3d)" style="fill: none; stroke: #cccccc; stroke-opacity: 0.35; stroke-width: 0.8; stroke-linecap: round"/>
     </g>
     <g id="text_10">
      <!-- $\mathdefault{4}$ -->
      <g transform="translate(33.850966 378.912937) scale(0.2 -0.2)">
       <defs>
        <path id="CMR17-34" d="M 2150 4122 
C 2150 4256 2144 4256 2029 4256 
L 128 1254 
L 128 1088 
L 1779 1088 
L 1779 457 
C 1779 224 1766 160 1318 160 
L 1197 160 
L 1197 0 
C 1402 0 1747 0 1965 0 
C 2182 0 2528 0 2733 0 
L 2733 160 
L 2611 160 
C 2163 160 2150 224 2150 457 
L 2150 1088 
L 2803 1088 
L 2803 1254 
L 2150 1254 
L 2150 4122 
z
M 1798 3703 
L 1798 1254 
L 256 1254 
L 1798 3703 
z
" transform="scale(0.015625)"/>
       </defs>
       <use xlink:href="#CMR17-34" transform="scale(0.996264)"/>
      </g>
     </g>
    </g>
    <g id="ytick_4">
     <g id="line2d_10">
      <path d="M 46.489061 263.991826 
L 1423.292617 263.991826 
" clip-path="url(#p944878bf3d)" style="fill: none; stroke: #cccccc; stroke-opacity: 0.35; stroke-width: 0.8; stroke-linecap: round"/>
     </g>
     <g id="text_11">
      <!-- $\mathdefault{6}$ -->
      <g transform="translate(33.850966 270.910324) scale(0.2 -0.2)">
       <defs>
        <path id="CMR17-36" d="M 678 2176 
C 678 3690 1395 4032 1811 4032 
C 1946 4032 2272 4009 2400 3776 
C 2298 3776 2106 3776 2106 3553 
C 2106 3381 2246 3323 2336 3323 
C 2394 3323 2566 3348 2566 3560 
C 2566 3954 2246 4179 1805 4179 
C 1043 4179 243 3390 243 1984 
C 243 253 966 -128 1478 -128 
C 2099 -128 2688 427 2688 1283 
C 2688 2081 2170 2662 1517 2662 
C 1126 2662 838 2407 678 1960 
L 678 2176 
z
M 1478 25 
C 691 25 691 1200 691 1436 
C 691 1896 909 2560 1504 2560 
C 1613 2560 1926 2560 2138 2120 
C 2253 1870 2253 1609 2253 1289 
C 2253 944 2253 690 2118 434 
C 1978 171 1773 25 1478 25 
z
" transform="scale(0.015625)"/>
       </defs>
       <use xlink:href="#CMR17-36" transform="scale(0.996264)"/>
      </g>
     </g>
    </g>
    <g id="ytick_5">
     <g id="line2d_11">
      <path d="M 46.489061 155.989213 
L 1423.292617 155.989213 
" clip-path="url(#p944878bf3d)" style="fill: none; stroke: #cccccc; stroke-opacity: 0.35; stroke-width: 0.8; stroke-linecap: round"/>
     </g>
     <g id="text_12">
      <!-- $\mathdefault{8}$ -->
      <g transform="translate(33.850966 162.907711) scale(0.2 -0.2)">
       <defs>
        <path id="CMR17-38" d="M 1741 2264 
C 2144 2467 2554 2773 2554 3263 
C 2554 3841 1990 4179 1472 4179 
C 890 4179 378 3759 378 3180 
C 378 3021 416 2747 666 2505 
C 730 2442 998 2251 1171 2130 
C 883 1983 211 1634 211 934 
C 211 279 838 -128 1459 -128 
C 2144 -128 2720 362 2720 1010 
C 2720 1590 2330 1857 2074 2029 
L 1741 2264 
z
M 902 2822 
C 851 2854 595 3051 595 3351 
C 595 3739 998 4032 1459 4032 
C 1965 4032 2336 3676 2336 3262 
C 2336 2669 1670 2331 1638 2331 
C 1632 2331 1626 2331 1574 2370 
L 902 2822 
z
M 2080 1519 
C 2176 1449 2483 1240 2483 851 
C 2483 381 2010 25 1472 25 
C 890 25 448 438 448 940 
C 448 1443 838 1862 1280 2060 
L 2080 1519 
z
" transform="scale(0.015625)"/>
       </defs>
       <use xlink:href="#CMR17-38" transform="scale(0.996264)"/>
      </g>
     </g>
    </g>
    <g id="ytick_6">
     <g id="line2d_12">
      <path d="M 46.489061 47.9866 
L 1423.292617 47.9866 
" clip-path="url(#p944878bf3d)" style="fill: none; stroke: #cccccc; stroke-opacity: 0.35; stroke-width: 0.8; stroke-linecap: round"/>
     </g>
     <g id="text_13">
      <!-- $\mathdefault{10}$ -->
      <g transform="translate(24.71287 54.905098) scale(0.2 -0.2)">
       <use xlink:href="#CMR17-31" transform="scale(0.996264)"/>
       <use xlink:href="#CMR17-30" transform="translate(45.690477 0) scale(0.996264)"/>
      </g>
     </g>
    </g>
    <g id="text_14">
     <!-- Loss -->
     <g style="fill: #696969" transform="translate(16.837237 324.728391) rotate(-90) scale(0.2 -0.2)">
      <defs>
       <path id="CMR17-4c" d="M 3469 1615 
L 3354 1615 
C 3302 983 3219 166 2125 166 
L 1530 166 
C 1274 166 1261 197 1261 414 
L 1261 3898 
C 1261 4129 1274 4192 1760 4192 
L 1901 4192 
L 1901 4352 
C 1638 4352 1331 4352 1069 4352 
C 870 4352 512 4352 326 4352 
L 326 4192 
C 768 4192 838 4192 838 3905 
L 838 452 
C 838 166 768 166 326 166 
L 326 0 
L 3315 0 
L 3469 1615 
z
" transform="scale(0.015625)"/>
       <path id="CMR17-73" d="M 1978 2697 
C 1978 2813 1971 2819 1933 2819 
C 1907 2819 1901 2813 1824 2717 
C 1805 2691 1747 2626 1728 2601 
C 1523 2819 1235 2819 1126 2819 
C 416 2819 160 2447 160 2076 
C 160 1498 813 1365 998 1325 
C 1402 1243 1542 1217 1677 1101 
C 1760 1025 1901 884 1901 654 
C 1901 384 1747 38 1158 38 
C 602 38 403 460 288 1021 
C 269 1110 269 1117 218 1117 
C 166 1117 160 1110 160 983 
L 160 63 
C 160 -51 166 -58 205 -58 
C 237 -58 243 -51 275 0 
C 314 57 410 211 448 276 
C 576 103 800 -64 1158 -64 
C 1792 -64 2131 283 2131 784 
C 2131 1112 1958 1285 1875 1362 
C 1683 1561 1459 1606 1190 1657 
C 838 1735 390 1825 390 2217 
C 390 2383 480 2737 1126 2737 
C 1811 2737 1850 2094 1862 1888 
C 1869 1856 1901 1849 1920 1849 
C 1978 1849 1978 1869 1978 1978 
L 1978 2697 
z
" transform="scale(0.015625)"/>
      </defs>
      <use xlink:href="#CMR17-4c" transform="scale(0.996264)"/>
      <use xlink:href="#CMR17-6f" transform="translate(57.381408 0) scale(0.996264)"/>
      <use xlink:href="#CMR17-73" transform="translate(103.071885 0) scale(0.996264)"/>
      <use xlink:href="#CMR17-73" transform="translate(138.873223 0) scale(0.996264)"/>
     </g>
    </g>
   </g>
   <g id="line2d_13">
    <path d="M 101.561203 253.242006 
L 107.068418 281.015056 
L 112.575632 306.749567 
L 118.082846 316.462297 
L 123.59006 321.53813 
L 129.097275 327.848839 
L 134.604489 328.098627 
L 140.111703 320.062335 
L 145.618917 320.955872 
L 151.126131 322.791693 
L 156.633346 324.422185 
L 162.14056 324.469477 
L 167.647774 332.472641 
L 173.154988 354.977169 
L 178.662203 372.990964 
L 189.676631 401.550564 
L 195.183845 425.797463 
L 200.691059 436.52555 
L 206.198274 448.130691 
L 211.705488 464.079303 
L 217.212702 485.224792 
L 222.719916 500.34312 
L 228.227131 495.315371 
L 233.734345 496.932101 
L 239.241559 503.358974 
L 244.748773 510.026138 
L 250.255987 510.914416 
L 255.763202 519.10061 
L 261.270416 528.717498 
L 266.77763 528.034576 
L 272.284844 524.850717 
L 277.792059 523.704534 
L 283.299273 528.995221 
L 288.806487 508.300856 
L 294.313701 500.04986 
L 299.820915 503.818802 
L 305.32813 504.733968 
L 310.835344 508.152866 
L 316.342558 508.231133 
L 321.849772 509.717357 
L 327.356987 513.902895 
L 332.864201 513.016023 
L 338.371415 506.749281 
L 343.878629 527.698204 
L 349.385843 535.007458 
L 354.893058 531.513497 
L 360.400272 535.623072 
L 365.907486 529.272201 
L 371.4147 526.601749 
L 376.921915 532.207192 
L 382.429129 530.459235 
L 387.936343 535.156906 
L 393.443557 543.678229 
L 398.950771 543.840545 
L 409.9652 546.924584 
L 415.472414 547.639796 
L 420.979628 551.035817 
L 426.486843 548.709369 
L 431.994057 545.994709 
L 437.501271 547.413082 
L 443.008485 544.909943 
L 448.515699 543.12541 
L 454.022914 543.127428 
L 459.530128 540.459552 
L 465.037342 541.106034 
L 470.544556 533.412021 
L 476.051771 537.549761 
L 481.558985 542.036933 
L 492.573413 536.341822 
L 498.080627 536.559911 
L 503.587842 532.928656 
L 509.095056 511.064266 
L 514.60227 492.444134 
L 520.109484 472.996972 
L 525.616699 459.385274 
L 531.123913 437.075735 
L 536.631127 436.97945 
L 542.138341 418.437614 
L 547.645555 402.04569 
L 553.15277 383.717431 
L 558.659984 386.83717 
L 564.167198 410.146373 
L 569.674412 429.855059 
L 575.181627 450.740729 
L 580.688841 467.863525 
L 586.196055 490.227718 
L 591.703269 488.045811 
L 597.210483 510.72919 
L 602.717698 532.489365 
L 608.224912 552.723963 
L 613.732126 551.504994 
L 619.23934 550.744271 
L 624.746555 552.697001 
L 630.253769 550.442023 
L 635.760983 551.169214 
L 641.268197 544.51966 
L 646.775411 546.949415 
L 652.282626 544.877611 
L 657.78984 542.943475 
L 663.297054 543.572787 
L 668.804268 535.053725 
L 674.311483 533.59484 
L 679.818697 533.802064 
L 685.325911 535.508278 
L 690.833125 535.398081 
L 696.340339 520.62029 
L 701.847554 499.795447 
L 707.354768 482.028476 
L 718.369196 440.459449 
L 723.876411 446.360793 
L 729.383625 446.104861 
L 734.890839 444.625716 
L 740.398053 444.565098 
L 745.905267 444.146171 
L 751.412482 465.973523 
L 756.919696 486.011531 
L 762.42691 503.425767 
L 767.934124 523.233272 
L 773.441339 540.099084 
L 778.948553 545.831711 
L 784.455767 548.221743 
L 789.962981 549.038644 
L 795.470195 549.013293 
L 800.97741 548.544947 
L 806.484624 547.728726 
L 811.991838 545.392673 
L 817.499052 547.081683 
L 823.006267 548.557841 
L 828.513481 551.137314 
L 834.020695 549.556854 
L 839.527909 528.32484 
L 845.035123 525.676368 
L 850.542338 522.902403 
L 856.049552 524.417814 
L 861.556766 523.659355 
L 867.06398 525.282886 
L 878.078409 485.446072 
L 883.585623 467.165041 
L 889.092837 452.193459 
L 894.600051 469.954678 
L 900.107266 467.716926 
L 905.61448 464.424937 
L 911.121694 463.017335 
L 916.628908 461.987953 
L 922.136123 463.70993 
L 927.643337 481.694595 
L 938.657765 520.703074 
L 944.164979 527.238301 
L 949.672194 528.757826 
L 955.179408 532.911674 
L 960.686622 538.533356 
L 966.193836 537.204396 
L 971.701051 534.356954 
L 977.208265 530.520056 
L 982.715479 532.856133 
L 988.222693 528.199883 
L 993.729908 527.208026 
L 999.237122 533.218457 
L 1004.744336 532.845879 
L 1010.25155 533.536426 
L 1015.758764 534.020095 
L 1021.265979 536.101561 
L 1026.773193 541.119656 
L 1032.280407 541.480653 
L 1037.787621 542.000727 
L 1043.294836 544.162979 
L 1048.80205 544.080279 
L 1054.309264 544.351463 
L 1059.816478 545.81701 
L 1065.323692 545.200509 
L 1070.830907 545.316796 
L 1076.338121 547.726105 
L 1081.845335 541.652408 
L 1087.352549 542.756834 
L 1092.859764 543.442057 
L 1098.366978 542.816063 
L 1103.874192 538.487033 
L 1109.381406 543.043182 
L 1114.88862 540.722089 
L 1120.395835 541.650087 
L 1125.903049 537.629101 
L 1131.410263 538.120246 
L 1136.917477 542.720726 
L 1142.424692 540.979766 
L 1147.931906 541.901857 
L 1153.43912 544.996032 
L 1158.946334 550.695573 
L 1164.453548 547.325428 
L 1169.960763 550.952951 
L 1175.467977 548.102408 
L 1180.975191 550.381646 
L 1186.482405 547.827195 
L 1191.98962 549.499723 
L 1197.496834 552.512966 
L 1203.004048 551.903756 
L 1208.511262 550.473229 
L 1214.018476 550.076083 
L 1219.525691 552.485106 
L 1225.032905 549.368493 
L 1230.540119 550.486104 
L 1236.047333 536.76045 
L 1241.554548 533.873031 
L 1247.061762 533.41936 
L 1252.568976 534.934058 
L 1258.07619 535.786953 
L 1263.583404 534.877352 
L 1269.090619 533.206905 
L 1274.597833 535.124327 
L 1280.105047 538.640136 
L 1285.612261 537.265548 
L 1291.119476 552.664136 
L 1296.62669 542.735425 
L 1302.133904 541.696577 
L 1307.641118 542.483302 
L 1313.148332 542.154218 
L 1318.655547 543.295099 
L 1324.162761 542.006949 
L 1329.669975 540.60269 
L 1335.177189 537.748467 
L 1340.684404 540.657296 
L 1346.191618 540.998917 
L 1351.698832 554.037856 
L 1357.206046 554.017572 
L 1362.71326 550.831182 
L 1368.220475 547.325816 
L 1373.727689 548.319285 
L 1379.234903 549.965799 
L 1384.742117 547.307907 
L 1390.249332 549.348592 
L 1395.756546 550.77111 
L 1401.26376 549.782826 
L 1406.770974 548.369296 
L 1412.278188 545.383798 
L 1417.785403 545.998194 
L 1417.785403 545.998194 
" clip-path="url(#p944878bf3d)" style="fill: none; stroke-dasharray: 5.55,2.4; stroke-dashoffset: 0; stroke: #006e64; stroke-width: 1.5"/>
   </g>
   <g id="line2d_14">
    <path d="M 101.561203 232.332122 
L 107.068418 259.847229 
L 112.575632 280.190768 
L 118.082846 304.746372 
L 123.59006 320.424637 
L 129.097275 327.129133 
L 134.604489 332.244808 
L 140.111703 334.117122 
L 145.618917 339.803426 
L 151.126131 343.177434 
L 156.633346 343.274104 
L 162.14056 345.034906 
L 167.647774 349.350013 
L 173.154988 352.507199 
L 178.662203 354.335308 
L 184.169417 366.343251 
L 189.676631 387.536294 
L 195.183845 400.345261 
L 200.691059 419.045202 
L 206.198274 436.468494 
L 211.705488 444.445356 
L 217.212702 460.647074 
L 222.719916 481.729096 
L 228.227131 492.797208 
L 233.734345 510.174479 
L 239.241559 517.207812 
L 244.748773 515.239502 
L 250.255987 518.53817 
L 261.270416 524.418779 
L 266.77763 537.865224 
L 272.284844 539.177386 
L 277.792059 534.960899 
L 283.299273 533.252321 
L 288.806487 534.467782 
L 294.313701 533.784261 
L 299.820915 535.953481 
L 305.32813 538.953609 
L 310.835344 534.702424 
L 316.342558 533.070446 
L 321.849772 530.002188 
L 327.356987 530.703361 
L 332.864201 528.642748 
L 338.371415 531.852944 
L 343.878629 531.426819 
L 349.385843 527.302969 
L 354.893058 530.150672 
L 360.400272 528.870843 
L 365.907486 533.292674 
L 371.4147 532.88323 
L 376.921915 536.096351 
L 382.429129 536.689419 
L 387.936343 541.368216 
L 398.950771 545.996724 
L 404.457986 551.413818 
L 409.9652 549.606662 
L 415.472414 550.294493 
L 420.979628 543.853704 
L 426.486843 544.922242 
L 431.994057 544.661153 
L 437.501271 542.012111 
L 443.008485 541.807508 
L 448.515699 538.714077 
L 454.022914 537.013249 
L 459.530128 538.884054 
L 465.037342 538.372412 
L 470.544556 534.310379 
L 476.051771 540.390271 
L 481.558985 541.617613 
L 487.066199 540.526825 
L 492.573413 532.590421 
L 498.080627 515.78318 
L 503.587842 518.259158 
L 509.095056 517.316112 
L 514.60227 515.342079 
L 520.109484 518.35737 
L 525.616699 524.991143 
L 531.123913 525.886974 
L 536.631127 501.02062 
L 542.138341 500.113787 
L 547.645555 509.781228 
L 553.15277 528.351607 
L 558.659984 530.226652 
L 564.167198 527.831185 
L 569.674412 524.959072 
L 575.181627 523.510912 
L 580.688841 521.439718 
L 586.196055 501.31903 
L 591.703269 523.291678 
L 597.210483 524.406886 
L 602.717698 523.201099 
L 608.224912 525.088417 
L 613.732126 523.281518 
L 619.23934 524.841662 
L 624.746555 528.02947 
L 630.253769 526.268511 
L 635.760983 525.047677 
L 641.268197 543.84483 
L 646.775411 545.926005 
L 652.282626 546.57627 
L 657.78984 549.53385 
L 663.297054 548.844838 
L 668.804268 551.126191 
L 674.311483 552.291123 
L 679.818697 552.946254 
L 690.833125 555.391746 
L 696.340339 555.803283 
L 701.847554 555.6396 
L 707.354768 555.029152 
L 712.861982 551.045928 
L 718.369196 550.767307 
L 723.876411 550.102575 
L 729.383625 550.378976 
L 734.890839 548.438556 
L 740.398053 548.526554 
L 745.905267 546.780447 
L 751.412482 548.309931 
L 756.919696 549.288071 
L 762.42691 549.728484 
L 767.934124 553.050818 
L 773.441339 554.924716 
L 778.948553 553.89476 
L 784.455767 552.66892 
L 789.962981 555.123727 
L 795.470195 557.047777 
L 800.97741 559.77638 
L 806.484624 558.817703 
L 811.991838 556.213195 
L 817.499052 557.613679 
L 823.006267 558.539803 
L 828.513481 556.006286 
L 834.020695 558.498419 
L 839.527909 559.645484 
L 845.035123 559.895451 
L 850.542338 557.138966 
L 856.049552 555.520293 
L 861.556766 556.610998 
L 867.06398 556.742658 
L 878.078409 557.260588 
L 883.585623 558.788098 
L 889.092837 556.717741 
L 894.600051 556.640724 
L 905.61448 555.776333 
L 911.121694 557.946053 
L 916.628908 557.581352 
L 922.136123 559.317336 
L 927.643337 557.128369 
L 933.150551 554.36672 
L 938.657765 554.179121 
L 944.164979 555.900537 
L 949.672194 558.767356 
L 955.179408 558.796424 
L 960.686622 559.503184 
L 966.193836 560.414069 
L 971.701051 558.253017 
L 977.208265 558.958227 
L 982.715479 557.479314 
L 988.222693 560.674892 
L 993.729908 556.122563 
L 999.237122 555.7925 
L 1004.744336 555.80497 
L 1010.25155 556.0672 
L 1015.758764 555.475212 
L 1021.265979 551.656107 
L 1026.773193 549.48847 
L 1032.280407 546.705042 
L 1037.787621 550.557132 
L 1043.294836 547.793198 
L 1048.80205 552.607865 
L 1054.309264 553.530288 
L 1059.816478 551.802869 
L 1065.323692 552.250825 
L 1070.830907 555.114021 
L 1081.845335 559.452259 
L 1087.352549 560.830531 
L 1092.859764 560.159131 
L 1098.366978 561.230998 
L 1103.874192 558.552548 
L 1109.381406 556.178172 
L 1120.395835 550.741305 
L 1125.903049 550.158018 
L 1136.917477 550.75066 
L 1142.424692 548.189785 
L 1147.931906 546.038181 
L 1153.43912 547.118606 
L 1158.946334 549.548755 
L 1164.453548 549.896319 
L 1169.960763 554.776968 
L 1175.467977 558.279066 
L 1180.975191 556.559783 
L 1186.482405 558.006794 
L 1191.98962 556.64899 
L 1197.496834 560.848418 
L 1208.511262 562.064629 
L 1214.018476 563.312108 
L 1225.032905 561.537534 
L 1230.540119 560.904935 
L 1236.047333 562.180771 
L 1241.554548 559.158139 
L 1247.061762 559.19489 
L 1252.568976 556.46662 
L 1258.07619 558.381926 
L 1263.583404 557.063846 
L 1269.090619 556.049333 
L 1274.597833 556.22266 
L 1280.105047 556.677239 
L 1285.612261 555.232563 
L 1291.119476 555.544967 
L 1296.62669 556.729665 
L 1302.133904 559.057451 
L 1307.641118 560.681183 
L 1313.148332 558.674115 
L 1318.655547 555.817877 
L 1324.162761 555.518737 
L 1329.669975 555.568076 
L 1335.177189 552.395239 
L 1340.684404 551.532354 
L 1346.191618 552.205836 
L 1351.698832 554.415894 
L 1357.206046 554.84871 
L 1362.71326 554.343566 
L 1368.220475 553.706342 
L 1373.727689 554.409297 
L 1379.234903 554.929986 
L 1384.742117 557.524542 
L 1390.249332 561.114493 
L 1395.756546 563.042173 
L 1401.26376 561.316662 
L 1406.770974 558.578027 
L 1412.278188 556.620739 
L 1417.785403 557.874573 
L 1417.785403 557.874573 
" clip-path="url(#p944878bf3d)" style="fill: none; stroke-dasharray: 5.55,2.4; stroke-dashoffset: 0; stroke: #734848; stroke-width: 1.5"/>
   </g>
   <g id="line2d_15">
    <path d="M 101.561203 213.428977 
L 107.068418 250.468865 
L 112.575632 282.850639 
L 118.082846 326.363652 
L 123.59006 361.686269 
L 129.097275 395.896354 
L 134.604489 413.020672 
L 140.111703 419.732871 
L 145.618917 435.241181 
L 151.126131 452.614723 
L 156.633346 469.122029 
L 162.14056 461.7998 
L 167.647774 472.68724 
L 173.154988 467.239727 
L 178.662203 475.164649 
L 184.169417 462.116486 
L 189.676631 461.091832 
L 195.183845 470.500014 
L 200.691059 459.402786 
L 206.198274 458.820717 
L 211.705488 455.404359 
L 217.212702 474.533623 
L 222.719916 480.700468 
L 228.227131 484.623779 
L 233.734345 479.414333 
L 239.241559 495.071895 
L 244.748773 506.184848 
L 250.255987 514.411882 
L 255.763202 529.150522 
L 261.270416 529.279191 
L 266.77763 532.99605 
L 272.284844 530.147889 
L 277.792059 524.65744 
L 283.299273 527.507695 
L 288.806487 514.388371 
L 294.313701 509.891698 
L 299.820915 486.008145 
L 305.32813 484.587558 
L 310.835344 481.660372 
L 316.342558 484.853157 
L 321.849772 487.282843 
L 327.356987 493.417197 
L 332.864201 497.185491 
L 338.371415 497.626589 
L 343.878629 513.138836 
L 349.385843 512.076968 
L 354.893058 537.50566 
L 360.400272 539.253463 
L 365.907486 544.089743 
L 371.4147 541.405489 
L 376.921915 537.893902 
L 382.429129 537.92516 
L 387.936343 537.493656 
L 393.443557 540.055224 
L 398.950771 544.397353 
L 404.457986 547.989828 
L 409.9652 542.625139 
L 415.472414 541.904994 
L 420.979628 543.807494 
L 426.486843 537.68823 
L 431.994057 539.206315 
L 437.501271 535.779816 
L 443.008485 532.669779 
L 448.515699 527.983304 
L 454.022914 527.891757 
L 459.530128 528.36662 
L 465.037342 530.263741 
L 470.544556 531.093762 
L 476.051771 528.504013 
L 481.558985 534.979291 
L 487.066199 535.956421 
L 492.573413 533.734557 
L 498.080627 530.053683 
L 503.587842 531.294579 
L 509.095056 529.202964 
L 514.60227 530.781053 
L 520.109484 535.540202 
L 525.616699 536.010524 
L 531.123913 537.828883 
L 536.631127 533.991864 
L 542.138341 532.601176 
L 547.645555 538.266305 
L 553.15277 546.805626 
L 558.659984 550.856172 
L 564.167198 551.572995 
L 569.674412 551.589296 
L 575.181627 548.098585 
L 580.688841 547.7761 
L 586.196055 540.083859 
L 591.703269 546.404083 
L 597.210483 546.404989 
L 602.717698 543.759037 
L 608.224912 544.600225 
L 613.732126 541.420532 
L 619.23934 539.529995 
L 624.746555 533.848573 
L 630.253769 534.564977 
L 635.760983 534.261542 
L 641.268197 542.348079 
L 646.775411 536.542718 
L 652.282626 536.007994 
L 657.78984 537.109143 
L 663.297054 533.386016 
L 668.804268 516.343701 
L 674.311483 518.831865 
L 679.818697 522.743999 
L 685.325911 522.704097 
L 690.833125 523.97635 
L 696.340339 525.448773 
L 701.847554 529.668586 
L 707.354768 532.568632 
L 712.861982 531.234731 
L 718.369196 534.34145 
L 723.876411 549.588876 
L 729.383625 549.997396 
L 734.890839 551.625174 
L 740.398053 549.1933 
L 745.905267 547.892838 
L 751.412482 547.996348 
L 756.919696 544.439938 
L 762.42691 542.951801 
L 767.934124 543.538139 
L 773.441339 538.982874 
L 778.948553 543.700456 
L 784.455767 544.150761 
L 789.962981 543.569589 
L 795.470195 543.221916 
L 800.97741 537.590776 
L 806.484624 531.590371 
L 811.991838 534.941764 
L 817.499052 536.320431 
L 823.006267 538.670214 
L 828.513481 541.14967 
L 834.020695 536.41794 
L 839.527909 536.303882 
L 845.035123 533.633747 
L 850.542338 535.756102 
L 856.049552 538.129727 
L 861.556766 541.911448 
L 867.06398 542.480281 
L 872.571195 538.767965 
L 878.078409 537.968436 
L 883.585623 539.394892 
L 889.092837 541.67989 
L 894.600051 540.977224 
L 900.107266 540.4061 
L 905.61448 542.471665 
L 911.121694 546.003992 
L 916.628908 546.425094 
L 922.136123 544.320214 
L 927.643337 548.076054 
L 933.150551 547.875618 
L 938.657765 544.899187 
L 944.164979 538.519044 
L 949.672194 538.286321 
L 955.179408 537.175815 
L 960.686622 532.654789 
L 966.193836 530.067573 
L 971.701051 527.616247 
L 977.208265 527.046796 
L 982.715479 526.262948 
L 988.222693 519.923754 
L 993.729908 519.741235 
L 999.237122 523.264249 
L 1004.744336 525.274617 
L 1010.25155 526.578487 
L 1015.758764 529.636096 
L 1021.265979 529.732258 
L 1026.773193 528.303712 
L 1032.280407 527.726172 
L 1037.787621 527.740244 
L 1043.294836 536.095333 
L 1048.80205 540.434889 
L 1054.309264 546.897508 
L 1059.816478 525.611647 
L 1065.323692 528.834122 
L 1070.830907 528.274916 
L 1076.338121 528.119947 
L 1081.845335 531.446504 
L 1087.352549 536.739197 
L 1092.859764 537.585709 
L 1098.366978 537.491235 
L 1103.874192 538.444031 
L 1109.381406 537.990996 
L 1114.88862 556.769489 
L 1120.395835 555.94302 
L 1125.903049 558.693478 
L 1131.410263 561.693138 
L 1147.931906 562.809255 
L 1153.43912 561.429737 
L 1164.453548 554.806396 
L 1169.960763 555.695075 
L 1175.467977 556.422807 
L 1180.975191 551.323136 
L 1186.482405 552.370827 
L 1191.98962 553.843262 
L 1197.496834 548.553763 
L 1203.004048 545.194957 
L 1208.511262 546.26964 
L 1214.018476 546.190639 
L 1219.525691 547.513312 
L 1225.032905 545.25502 
L 1230.540119 542.423135 
L 1236.047333 547.303553 
L 1241.554548 545.317838 
L 1247.061762 544.426381 
L 1252.568976 547.503625 
L 1258.07619 544.646561 
L 1263.583404 542.267148 
L 1269.090619 544.731552 
L 1274.597833 536.444782 
L 1280.105047 535.817624 
L 1285.612261 539.51323 
L 1291.119476 539.206884 
L 1296.62669 535.121388 
L 1302.133904 533.381816 
L 1307.641118 528.706828 
L 1313.148332 530.240711 
L 1318.655547 527.607823 
L 1324.162761 526.085111 
L 1329.669975 535.896742 
L 1335.177189 541.096724 
L 1340.684404 536.043845 
L 1346.191618 531.770638 
L 1351.698832 533.346077 
L 1357.206046 534.701563 
L 1362.71326 539.481893 
L 1368.220475 536.627124 
L 1373.727689 535.105987 
L 1379.234903 536.51312 
L 1384.742117 537.498939 
L 1390.249332 537.986338 
L 1395.756546 539.915357 
L 1401.26376 539.763159 
L 1406.770974 541.851262 
L 1412.278188 535.092276 
L 1417.785403 534.04416 
L 1417.785403 534.04416 
" clip-path="url(#p944878bf3d)" style="fill: none; stroke-dasharray: 5.55,2.4; stroke-dashoffset: 0; stroke: #004e4a; stroke-width: 1.5"/>
   </g>
   <g id="line2d_16">
    <path d="M 101.561203 126.732138 
L 107.068418 152.570202 
L 112.575632 179.149397 
L 118.082846 207.179369 
L 123.59006 224.374791 
L 129.097275 247.002737 
L 134.604489 278.797942 
L 140.111703 298.415447 
L 145.618917 320.714805 
L 151.126131 345.569792 
L 156.633346 372.088055 
L 162.14056 393.507039 
L 167.647774 405.286428 
L 173.154988 420.871399 
L 178.662203 445.648965 
L 184.169417 446.433109 
L 189.676631 459.54392 
L 195.183845 480.87299 
L 200.691059 487.916329 
L 206.198274 486.978471 
L 211.705488 483.81072 
L 217.212702 487.947031 
L 222.719916 497.224409 
L 233.734345 500.0601 
L 239.241559 515.853609 
L 244.748773 514.035914 
L 250.255987 514.427316 
L 255.763202 516.350655 
L 261.270416 519.827045 
L 266.77763 524.63193 
L 272.284844 524.345183 
L 277.792059 523.344727 
L 283.299273 528.048065 
L 288.806487 526.814241 
L 294.313701 531.818491 
L 299.820915 533.04009 
L 305.32813 532.523922 
L 310.835344 541.295349 
L 316.342558 541.378404 
L 321.849772 542.969456 
L 327.356987 535.327369 
L 332.864201 532.220664 
L 338.371415 525.902797 
L 343.878629 525.855316 
L 349.385843 526.158231 
L 354.893058 529.63784 
L 360.400272 523.701906 
L 365.907486 516.452628 
L 371.4147 517.996527 
L 376.921915 518.632441 
L 382.429129 525.802703 
L 387.936343 525.808024 
L 393.443557 531.565752 
L 398.950771 534.748193 
L 404.457986 534.426666 
L 409.9652 532.803324 
L 415.472414 534.772096 
L 420.979628 541.378719 
L 426.486843 541.613242 
L 437.501271 537.562883 
L 443.008485 542.279835 
L 448.515699 540.123212 
L 454.022914 534.075935 
L 459.530128 530.768545 
L 465.037342 522.148211 
L 470.544556 525.709305 
L 476.051771 522.412552 
L 481.558985 521.25951 
L 487.066199 521.975371 
L 492.573413 523.707263 
L 498.080627 523.316735 
L 503.587842 527.76194 
L 509.095056 531.457008 
L 514.60227 534.469053 
L 520.109484 545.624177 
L 525.616699 544.525835 
L 531.123913 547.776344 
L 536.631127 546.178636 
L 542.138341 544.164085 
L 547.645555 545.445921 
L 553.15277 547.746541 
L 558.659984 547.410982 
L 564.167198 547.704914 
L 569.674412 545.416087 
L 575.181627 544.783265 
L 580.688841 547.474969 
L 586.196055 545.796949 
L 591.703269 545.007154 
L 597.210483 548.75469 
L 602.717698 544.848594 
L 608.224912 541.816256 
L 613.732126 536.187561 
L 619.23934 539.293649 
L 624.746555 543.701246 
L 630.253769 541.497996 
L 635.760983 542.053212 
L 641.268197 534.845595 
L 646.775411 534.826908 
L 652.282626 534.33112 
L 657.78984 536.696366 
L 668.804268 544.941276 
L 674.311483 543.965301 
L 679.818697 541.196417 
L 685.325911 541.344306 
L 690.833125 539.927843 
L 696.340339 547.925724 
L 701.847554 551.334335 
L 707.354768 550.417426 
L 712.861982 550.603066 
L 718.369196 546.773218 
L 723.876411 546.546027 
L 729.383625 548.773302 
L 734.890839 546.244038 
L 740.398053 539.760558 
L 745.905267 537.635817 
L 751.412482 538.991601 
L 756.919696 538.438909 
L 762.42691 538.163312 
L 767.934124 534.395484 
L 773.441339 537.44193 
L 778.948553 537.08245 
L 784.455767 537.382694 
L 789.962981 543.059611 
L 795.470195 551.749692 
L 806.484624 553.688884 
L 811.991838 553.749941 
L 817.499052 555.998614 
L 823.006267 559.102172 
L 828.513481 551.101418 
L 834.020695 536.864543 
L 839.527909 535.958289 
L 845.035123 532.448099 
L 850.542338 525.703159 
L 856.049552 528.684332 
L 861.556766 525.579029 
L 867.06398 505.442369 
L 872.571195 502.330488 
L 878.078409 500.508689 
L 883.585623 505.880282 
L 889.092837 522.639519 
L 894.600051 522.229382 
L 900.107266 519.17426 
L 905.61448 523.851195 
L 911.121694 520.648676 
L 916.628908 522.905599 
L 922.136123 543.568435 
L 927.643337 543.44514 
L 933.150551 543.596787 
L 938.657765 542.213161 
L 944.164979 540.146836 
L 949.672194 536.355245 
L 955.179408 541.629623 
L 960.686622 542.995771 
L 966.193836 543.751254 
L 971.701051 541.204602 
L 977.208265 542.573084 
L 982.715479 543.122907 
L 988.222693 545.472097 
L 993.729908 547.44308 
L 999.237122 549.576148 
L 1004.744336 555.320795 
L 1010.25155 553.295813 
L 1015.758764 553.830469 
L 1021.265979 552.554159 
L 1026.773193 553.570103 
L 1032.280407 551.886733 
L 1037.787621 551.414412 
L 1043.294836 551.228966 
L 1048.80205 552.619036 
L 1054.309264 550.801568 
L 1059.816478 548.757919 
L 1065.323692 551.157704 
L 1070.830907 547.907246 
L 1076.338121 547.247063 
L 1081.845335 549.421242 
L 1087.352549 547.638087 
L 1092.859764 545.264998 
L 1098.366978 546.107972 
L 1103.874192 543.851613 
L 1109.381406 545.707717 
L 1114.88862 545.936276 
L 1120.395835 543.529392 
L 1125.903049 542.634767 
L 1131.410263 541.358285 
L 1136.917477 540.404147 
L 1142.424692 539.334314 
L 1147.931906 544.275903 
L 1153.43912 542.945434 
L 1158.946334 545.051811 
L 1164.453548 542.773857 
L 1169.960763 543.627976 
L 1175.467977 540.117396 
L 1180.975191 543.475476 
L 1186.482405 547.128691 
L 1191.98962 548.009354 
L 1197.496834 550.651884 
L 1203.004048 548.905487 
L 1208.511262 551.413374 
L 1214.018476 550.058144 
L 1219.525691 550.427057 
L 1225.032905 529.165114 
L 1230.540119 534.190719 
L 1236.047333 534.632967 
L 1241.554548 531.09521 
L 1247.061762 526.63682 
L 1252.568976 525.267999 
L 1258.07619 527.414647 
L 1263.583404 525.368565 
L 1269.090619 523.901177 
L 1274.597833 522.867404 
L 1280.105047 542.879524 
L 1285.612261 541.480649 
L 1291.119476 541.226821 
L 1296.62669 544.434943 
L 1302.133904 548.211933 
L 1307.641118 547.972492 
L 1313.148332 541.547091 
L 1318.655547 540.676259 
L 1324.162761 542.352406 
L 1329.669975 544.855398 
L 1335.177189 545.524873 
L 1340.684404 549.42793 
L 1346.191618 549.169053 
L 1351.698832 548.030513 
L 1357.206046 548.927054 
L 1362.71326 549.980437 
L 1368.220475 556.466891 
L 1373.727689 556.526068 
L 1379.234903 557.508175 
L 1384.742117 557.510335 
L 1390.249332 555.601697 
L 1395.756546 554.71087 
L 1401.26376 555.580071 
L 1406.770974 555.274179 
L 1412.278188 552.30839 
L 1417.785403 551.921305 
L 1417.785403 551.921305 
" clip-path="url(#p944878bf3d)" style="fill: none; stroke-dasharray: 5.55,2.4; stroke-dashoffset: 0; stroke: #c17150; stroke-width: 1.5"/>
   </g>
   <g id="line2d_17">
    <path d="M 101.561203 51.209762 
L 107.068418 71.204876 
L 112.575632 86.656803 
L 118.082846 107.397572 
L 123.59006 129.332567 
L 129.097275 159.424222 
L 134.604489 179.043244 
L 140.111703 206.306584 
L 145.618917 230.997946 
L 151.126131 253.521966 
L 156.633346 278.581736 
L 162.14056 292.167081 
L 167.647774 306.47306 
L 173.154988 316.220476 
L 178.662203 321.798185 
L 184.169417 338.154112 
L 189.676631 356.461066 
L 195.183845 369.636705 
L 200.691059 379.870507 
L 206.198274 387.730199 
L 211.705488 408.297868 
L 222.719916 442.706445 
L 228.227131 461.916979 
L 233.734345 477.041467 
L 239.241559 477.996862 
L 244.748773 481.856008 
L 250.255987 490.147435 
L 255.763202 499.868093 
L 261.270416 513.375249 
L 266.77763 509.786127 
L 272.284844 512.572228 
L 277.792059 514.668136 
L 283.299273 504.162051 
L 288.806487 505.296729 
L 294.313701 501.82045 
L 299.820915 501.60318 
L 305.32813 494.006986 
L 310.835344 494.606769 
L 316.342558 476.081258 
L 321.849772 474.95437 
L 327.356987 476.341131 
L 332.864201 466.752686 
L 338.371415 477.137384 
L 349.385843 490.264189 
L 354.893058 497.420173 
L 360.400272 504.323746 
L 365.907486 495.866045 
L 371.4147 516.615341 
L 376.921915 522.666533 
L 382.429129 517.581243 
L 387.936343 525.83743 
L 393.443557 527.258622 
L 398.950771 519.688407 
L 404.457986 525.26717 
L 409.9652 525.140786 
L 415.472414 525.905789 
L 420.979628 524.174193 
L 426.486843 522.945466 
L 431.994057 519.251905 
L 437.501271 522.881472 
L 443.008485 524.328307 
L 448.515699 524.45373 
L 454.022914 526.776529 
L 459.530128 512.106322 
L 465.037342 513.470703 
L 470.544556 511.448109 
L 476.051771 520.944962 
L 481.558985 516.874839 
L 487.066199 514.841116 
L 492.573413 515.870081 
L 498.080627 517.042946 
L 503.587842 515.654807 
L 509.095056 521.587891 
L 514.60227 537.423576 
L 520.109484 535.060173 
L 525.616699 538.643575 
L 531.123913 539.437299 
L 536.631127 543.088562 
L 542.138341 542.863857 
L 547.645555 544.106886 
L 553.15277 544.871458 
L 558.659984 547.199726 
L 564.167198 545.157017 
L 569.674412 543.386543 
L 575.181627 540.647717 
L 580.688841 538.372171 
L 586.196055 539.43067 
L 591.703269 538.128106 
L 597.210483 539.949408 
L 602.717698 536.214045 
L 608.224912 535.25407 
L 613.732126 531.93169 
L 619.23934 531.1386 
L 624.746555 525.37294 
L 630.253769 527.006472 
L 635.760983 527.911666 
L 641.268197 524.700242 
L 646.775411 524.587636 
L 652.282626 524.590912 
L 657.78984 527.090999 
L 663.297054 523.419103 
L 668.804268 526.310691 
L 674.311483 525.673732 
L 679.818697 532.8107 
L 685.325911 534.828692 
L 690.833125 535.464794 
L 696.340339 536.866866 
L 701.847554 534.426605 
L 707.354768 539.402475 
L 712.861982 540.063789 
L 718.369196 538.000795 
L 723.876411 538.276961 
L 729.383625 538.984833 
L 734.890839 538.101852 
L 740.398053 540.018896 
L 745.905267 536.250998 
L 751.412482 538.570673 
L 756.919696 543.445234 
L 762.42691 540.313754 
L 767.934124 539.685897 
L 773.441339 541.952551 
L 778.948553 539.515052 
L 784.455767 541.596861 
L 789.962981 537.573126 
L 795.470195 531.029446 
L 800.97741 534.890683 
L 806.484624 533.758649 
L 811.991838 534.950218 
L 817.499052 536.938143 
L 823.006267 531.189286 
L 828.513481 533.839657 
L 834.020695 536.743854 
L 839.527909 537.869579 
L 845.035123 542.85734 
L 850.542338 549.911455 
L 856.049552 543.773333 
L 861.556766 543.168417 
L 867.06398 537.601513 
L 872.571195 534.72363 
L 878.078409 537.860036 
L 883.585623 537.75694 
L 889.092837 537.366336 
L 894.600051 527.507019 
L 900.107266 520.435764 
L 905.61448 510.991614 
L 911.121694 515.966052 
L 916.628908 515.50482 
L 922.136123 519.982547 
L 927.643337 519.865995 
L 933.150551 522.50772 
L 938.657765 523.488416 
L 944.164979 523.214519 
L 949.672194 532.128481 
L 955.179408 538.781145 
L 960.686622 548.101275 
L 966.193836 546.992879 
L 971.701051 550.899411 
L 977.208265 552.467494 
L 982.715479 556.485999 
L 988.222693 555.074141 
L 993.729908 555.798192 
L 999.237122 554.280737 
L 1004.744336 552.354378 
L 1010.25155 552.820958 
L 1015.758764 550.787669 
L 1021.265979 554.525199 
L 1026.773193 553.089868 
L 1032.280407 551.200141 
L 1037.787621 544.452519 
L 1043.294836 546.616183 
L 1048.80205 544.931406 
L 1054.309264 541.256768 
L 1059.816478 538.677323 
L 1065.323692 537.416077 
L 1070.830907 539.846174 
L 1076.338121 534.207008 
L 1081.845335 532.411456 
L 1087.352549 531.04072 
L 1092.859764 532.34063 
L 1098.366978 532.044863 
L 1103.874192 532.631259 
L 1109.381406 536.28767 
L 1114.88862 540.761546 
L 1120.395835 542.657253 
L 1125.903049 539.703111 
L 1131.410263 545.156552 
L 1136.917477 540.087275 
L 1142.424692 538.195322 
L 1147.931906 544.027213 
L 1153.43912 544.740839 
L 1158.946334 546.485642 
L 1164.453548 547.682185 
L 1169.960763 546.961403 
L 1175.467977 543.205752 
L 1180.975191 540.049626 
L 1186.482405 539.29587 
L 1191.98962 546.662248 
L 1197.496834 550.754304 
L 1203.004048 550.340823 
L 1208.511262 547.590998 
L 1214.018476 544.477537 
L 1219.525691 540.249209 
L 1225.032905 534.149592 
L 1230.540119 534.20015 
L 1236.047333 536.516872 
L 1241.554548 534.961384 
L 1247.061762 534.352245 
L 1252.568976 534.862379 
L 1258.07619 531.949595 
L 1263.583404 532.747201 
L 1269.090619 533.771498 
L 1274.597833 539.786975 
L 1280.105047 542.234791 
L 1285.612261 544.991314 
L 1291.119476 543.751262 
L 1296.62669 546.959005 
L 1302.133904 547.789499 
L 1307.641118 546.08514 
L 1313.148332 548.340228 
L 1318.655547 550.840849 
L 1324.162761 552.737738 
L 1329.669975 550.146401 
L 1335.177189 554.144256 
L 1340.684404 554.690848 
L 1346.191618 554.34425 
L 1351.698832 552.526058 
L 1357.206046 553.068228 
L 1362.71326 551.049446 
L 1368.220475 548.255513 
L 1373.727689 547.314094 
L 1379.234903 546.146202 
L 1384.742117 548.755824 
L 1390.249332 548.772317 
L 1395.756546 533.495916 
L 1401.26376 531.511775 
L 1406.770974 532.581303 
L 1412.278188 531.186824 
L 1417.785403 533.458202 
L 1417.785403 533.458202 
" clip-path="url(#p944878bf3d)" style="fill: none; stroke-dasharray: 5.55,2.4; stroke-dashoffset: 0; stroke: #ffbb00; stroke-width: 1.5"/>
   </g>
   <g id="line2d_18">
    <path d="M 101.561203 71.051943 
L 107.068418 70.767644 
L 112.575632 69.525076 
L 118.082846 70.01202 
L 123.59006 69.471619 
L 129.097275 70.713008 
L 134.604489 63.882109 
L 140.111703 64.014288 
L 145.618917 63.353758 
L 151.126131 60.870136 
L 156.633346 67.666314 
L 162.14056 68.117672 
L 167.647774 69.237455 
L 173.154988 67.23968 
L 184.169417 65.96306 
L 189.676631 72.279406 
L 200.691059 73.430403 
L 206.198274 75.178832 
L 222.719916 69.789006 
L 228.227131 70.27901 
L 233.734345 69.706478 
L 239.241559 64.856817 
L 244.748773 65.993378 
L 250.255987 65.405535 
L 255.763202 65.933649 
L 261.270416 67.186723 
L 266.77763 67.45499 
L 272.284844 69.373739 
L 277.792059 69.492373 
L 283.299273 71.384357 
L 288.806487 72.986903 
L 294.313701 78.352282 
L 299.820915 78.527855 
L 305.32813 78.191969 
L 310.835344 76.642061 
L 316.342558 76.30618 
L 321.849772 77.968336 
L 327.356987 76.10496 
L 332.864201 77.530059 
L 338.371415 77.537897 
L 343.878629 75.121523 
L 349.385843 70.805934 
L 354.893058 70.582734 
L 360.400272 69.179163 
L 365.907486 70.008096 
L 371.4147 70.081488 
L 376.921915 67.697806 
L 382.429129 69.196477 
L 387.936343 69.482042 
L 393.443557 63.486395 
L 398.950771 64.768773 
L 404.457986 67.2814 
L 409.9652 66.376829 
L 415.472414 68.690745 
L 420.979628 66.922242 
L 431.994057 67.365664 
L 437.501271 67.224524 
L 443.008485 66.643072 
L 448.515699 72.474162 
L 454.022914 73.666215 
L 459.530128 74.718229 
L 465.037342 75.617109 
L 470.544556 75.543779 
L 476.051771 77.299119 
L 481.558985 74.835901 
L 487.066199 76.521866 
L 492.573413 75.451579 
L 498.080627 75.54982 
L 503.587842 74.117058 
L 509.095056 72.10114 
L 514.60227 72.876776 
L 520.109484 69.297452 
L 525.616699 69.290623 
L 531.123913 68.747698 
L 536.631127 70.823222 
L 542.138341 68.015698 
L 547.645555 69.001983 
L 553.15277 68.830901 
L 558.659984 69.018937 
L 564.167198 69.865138 
L 569.674412 69.837436 
L 575.181627 72.143339 
L 580.688841 71.262447 
L 586.196055 71.76443 
L 591.703269 70.597113 
L 597.210483 73.976016 
L 602.717698 73.66295 
L 608.224912 73.800139 
L 613.732126 74.453516 
L 619.23934 74.426035 
L 635.760983 71.259733 
L 641.268197 68.2548 
L 646.775411 69.878837 
L 652.282626 69.864942 
L 657.78984 70.533166 
L 663.297054 69.311027 
L 668.804268 69.716592 
L 679.818697 70.957616 
L 685.325911 73.154323 
L 690.833125 71.809281 
L 696.340339 75.080483 
L 701.847554 74.569364 
L 707.354768 72.014749 
L 712.861982 71.424929 
L 718.369196 73.16056 
L 723.876411 73.364329 
L 729.383625 72.427287 
L 734.890839 71.937757 
L 740.398053 72.156651 
L 745.905267 71.60165 
L 756.919696 71.985652 
L 762.42691 73.898478 
L 767.934124 72.307226 
L 773.441339 71.742563 
L 778.948553 65.175826 
L 789.962981 64.487389 
L 795.470195 63.351904 
L 800.97741 66.693856 
L 806.484624 67.244238 
L 811.991838 67.102892 
L 817.499052 67.751783 
L 823.006267 68.701771 
L 828.513481 68.501046 
L 834.020695 75.069019 
L 839.527909 76.958902 
L 845.035123 78.299963 
L 850.542338 76.519836 
L 856.049552 74.980877 
L 861.556766 72.157347 
L 867.06398 72.367393 
L 872.571195 71.021053 
L 878.078409 70.208733 
L 883.585623 70.581606 
L 889.092837 70.589326 
L 894.600051 62.805812 
L 900.107266 60.355623 
L 905.61448 62.498601 
L 911.121694 64.414584 
L 916.628908 67.235591 
L 922.136123 67.072842 
L 927.643337 67.343787 
L 933.150551 69.316481 
L 938.657765 69.381093 
L 944.164979 67.527841 
L 949.672194 74.42223 
L 955.179408 73.900384 
L 960.686622 72.92619 
L 966.193836 72.613711 
L 971.701051 71.256139 
L 977.208265 70.738346 
L 982.715479 71.577682 
L 988.222693 71.551422 
L 993.729908 71.905034 
L 999.237122 73.329041 
L 1004.744336 73.754722 
L 1010.25155 76.17603 
L 1015.758764 77.440496 
L 1021.265979 76.747908 
L 1026.773193 77.739611 
L 1032.280407 76.917069 
L 1037.787621 76.505602 
L 1043.294836 76.98167 
L 1048.80205 73.776058 
L 1054.309264 74.274245 
L 1059.816478 72.866868 
L 1070.830907 73.463785 
L 1076.338121 72.486445 
L 1081.845335 70.219481 
L 1087.352549 69.583584 
L 1092.859764 70.126638 
L 1098.366978 66.221177 
L 1103.874192 67.551897 
L 1109.381406 67.066482 
L 1114.88862 66.088895 
L 1120.395835 63.9706 
L 1125.903049 63.701355 
L 1131.410263 65.698007 
L 1136.917477 68.192378 
L 1142.424692 70.4272 
L 1147.931906 70.534319 
L 1153.43912 74.32505 
L 1158.946334 76.201749 
L 1164.453548 76.69457 
L 1169.960763 76.748732 
L 1175.467977 78.551941 
L 1180.975191 77.761061 
L 1186.482405 77.763517 
L 1191.98962 76.632276 
L 1197.496834 76.623145 
L 1203.004048 75.431994 
L 1208.511262 74.916446 
L 1214.018476 71.743779 
L 1219.525691 71.763941 
L 1225.032905 74.020234 
L 1230.540119 74.435254 
L 1236.047333 75.097282 
L 1241.554548 75.089124 
L 1247.061762 73.371369 
L 1252.568976 72.961674 
L 1258.07619 73.081158 
L 1269.090619 72.304636 
L 1274.597833 69.686439 
L 1280.105047 69.930651 
L 1285.612261 67.273758 
L 1291.119476 67.994011 
L 1296.62669 67.113305 
L 1302.133904 68.85285 
L 1307.641118 68.225229 
L 1313.148332 66.936275 
L 1318.655547 65.147764 
L 1324.162761 68.34133 
L 1329.669975 70.529849 
L 1335.177189 70.302406 
L 1340.684404 72.068752 
L 1346.191618 72.026203 
L 1351.698832 72.993696 
L 1357.206046 73.168527 
L 1362.71326 74.27802 
L 1368.220475 76.023987 
L 1373.727689 75.916817 
L 1379.234903 74.288119 
L 1384.742117 71.179574 
L 1390.249332 70.687392 
L 1395.756546 71.029633 
L 1401.26376 69.928575 
L 1406.770974 69.912523 
L 1412.278188 67.997106 
L 1417.785403 67.820287 
L 1417.785403 67.820287 
" clip-path="url(#p944878bf3d)" style="fill: none; stroke-dasharray: 5.55,2.4; stroke-dashoffset: 0; stroke: #a1d9cc; stroke-width: 1.5"/>
   </g>
   <g id="patch_3">
    <path d="M 46.489061 588.917225 
L 46.489061 25.604645 
" style="fill: none; stroke: #808080; stroke-width: 0.8; stroke-linejoin: miter; stroke-linecap: square"/>
   </g>
   <g id="patch_4">
    <path d="M 46.489061 588.917225 
L 1423.292617 588.917225 
" style="fill: none; stroke: #808080; stroke-width: 0.8; stroke-linejoin: miter; stroke-linecap: square"/>
   </g>
   <g id="text_15">
    <!-- Rolling Validation Loss of LSTM -->
    <g style="fill: #262626" transform="translate(576.212696 19.604645) scale(0.24 -0.24)">
     <defs>
      <path id="CMR17-52" d="M 2509 2146 
C 3117 2268 3629 2676 3629 3186 
C 3629 3785 2950 4326 2054 4326 
L 333 4326 
L 333 4160 
C 774 4160 845 4160 845 3873 
L 845 415 
C 845 128 774 128 333 128 
L 333 -26 
C 518 -26 851 -26 1050 -26 
C 1248 -26 1581 -26 1766 -26 
L 1766 128 
C 1325 128 1254 128 1254 417 
L 1254 2112 
L 2003 2112 
C 2368 2112 2573 1964 2662 1881 
C 2918 1632 2918 1459 2918 1024 
C 2918 595 2918 377 3110 160 
C 3354 -102 3680 -128 3821 -128 
C 4294 -128 4365 396 4365 503 
C 4365 540 4365 585 4307 585 
C 4256 585 4250 547 4250 522 
C 4218 112 4032 -26 3834 -26 
C 3482 -26 3443 375 3405 764 
C 3386 898 3373 993 3360 1133 
C 3322 1452 3270 1917 2509 2146 
z
M 1984 2214 
L 1254 2214 
L 1254 3913 
C 1254 4129 1267 4160 1523 4160 
L 1990 4160 
C 2522 4160 3142 3977 3142 3190 
C 3142 2372 2464 2214 1984 2214 
z
" transform="scale(0.015625)"/>
      <path id="CMR17-6c" d="M 979 4396 
L 218 4326 
L 218 4160 
C 595 4160 653 4122 653 3817 
L 653 426 
C 653 184 627 153 218 153 
L 218 -13 
C 371 0 653 0 813 0 
C 979 0 1261 0 1414 -13 
L 1414 153 
C 1005 153 979 178 979 426 
L 979 4396 
z
" transform="scale(0.015625)"/>
      <path id="CMR17-69" d="M 992 3909 
C 992 4049 877 4170 730 4170 
C 589 4170 467 4056 467 3909 
C 467 3769 582 3648 730 3648 
C 870 3648 992 3763 992 3909 
z
M 243 2706 
L 243 2541 
C 602 2541 653 2502 653 2197 
L 653 427 
C 653 184 627 153 218 153 
L 218 -13 
C 371 0 646 0 806 0 
C 960 0 1222 0 1370 -13 
L 1370 153 
C 992 153 979 191 979 420 
L 979 2776 
L 243 2706 
z
" transform="scale(0.015625)"/>
      <path id="CMR17-6e" d="M 2656 1933 
C 2656 2259 2592 2790 1837 2790 
C 1331 2790 1069 2400 973 2144 
L 966 2144 
L 966 2790 
L 211 2720 
L 211 2554 
C 589 2554 646 2515 646 2208 
L 646 428 
C 646 184 621 153 211 153 
L 211 -13 
C 365 0 646 0 813 0 
C 979 0 1267 0 1421 -13 
L 1421 153 
C 1011 153 986 178 986 428 
L 986 1658 
C 986 2247 1344 2688 1792 2688 
C 2266 2688 2317 2266 2317 1958 
L 2317 428 
C 2317 184 2291 153 1882 153 
L 1882 -13 
C 2035 0 2317 0 2483 0 
C 2650 0 2938 0 3091 -13 
L 3091 153 
C 2682 153 2656 178 2656 428 
L 2656 1933 
z
" transform="scale(0.015625)"/>
      <path id="CMR17-67" d="M 710 1164 
C 832 1068 1043 960 1299 960 
C 1805 960 2240 1357 2240 1888 
C 2240 2054 2189 2310 1997 2509 
C 2176 2692 2438 2752 2586 2752 
C 2611 2752 2650 2752 2682 2734 
C 2656 2728 2598 2703 2598 2605 
C 2598 2527 2656 2471 2739 2471 
C 2835 2471 2886 2533 2886 2614 
C 2886 2731 2790 2854 2586 2854 
C 2330 2854 2106 2738 1926 2580 
C 1734 2753 1504 2816 1299 2816 
C 794 2816 358 2419 358 1888 
C 358 1522 570 1292 634 1228 
C 442 1004 442 743 442 711 
C 442 545 506 302 723 168 
C 390 85 128 -169 128 -486 
C 128 -943 736 -1280 1466 -1280 
C 2170 -1280 2803 -956 2803 -479 
C 2803 384 1856 384 1363 384 
C 1216 384 954 384 922 391 
C 723 423 589 602 589 826 
C 589 883 589 1024 710 1164 
z
M 1299 1068 
C 736 1068 736 1760 736 1889 
C 736 2016 736 2708 1299 2708 
C 1862 2708 1862 2016 1862 1889 
C 1862 1760 1862 1068 1299 1068 
z
M 1466 -1171 
C 826 -1171 384 -835 384 -486 
C 384 -289 493 -105 634 -4 
C 794 104 858 104 1293 104 
C 1818 104 2547 104 2547 -486 
C 2547 -835 2106 -1171 1466 -1171 
z
" transform="scale(0.015625)"/>
      <path id="CMR17-56" d="M 3776 3745 
C 3834 3886 3936 4160 4365 4160 
L 4365 4332 
C 4218 4319 4051 4319 3891 4319 
C 3738 4319 3475 4319 3328 4332 
L 3328 4160 
C 3648 4160 3661 3936 3661 3898 
C 3661 3827 3642 3783 3622 3732 
L 2362 446 
L 1043 3886 
C 1024 3931 1011 3963 1011 3994 
C 1011 4160 1267 4160 1402 4160 
L 1402 4319 
C 1197 4319 896 4319 685 4319 
C 518 4319 218 4319 64 4332 
L 64 4160 
C 435 4160 506 4135 582 3931 
L 2106 -26 
C 2138 -115 2144 -128 2214 -128 
C 2285 -128 2291 -115 2323 -26 
L 3776 3745 
z
" transform="scale(0.015625)"/>
      <path id="CMR17-61" d="M 2304 1653 
C 2304 2072 2304 2294 2035 2543 
C 1798 2752 1523 2816 1306 2816 
C 800 2816 435 2407 435 1971 
C 435 1728 627 1728 666 1728 
C 749 1728 896 1778 896 1954 
C 896 2112 774 2181 666 2181 
C 640 2181 608 2174 589 2168 
C 723 2592 1069 2714 1293 2714 
C 1613 2714 1965 2429 1965 1885 
L 1965 1600 
C 1587 1600 1133 1549 774 1357 
C 371 1133 256 813 256 570 
C 256 77 832 -64 1171 -64 
C 1523 -64 1850 139 1990 511 
C 2003 233 2182 -18 2464 -18 
C 2598 -18 2938 70 2938 567 
L 2938 920 
L 2822 920 
L 2822 562 
C 2822 178 2650 128 2566 128 
C 2304 128 2304 458 2304 738 
L 2304 1653 
z
M 1965 870 
C 1965 317 1568 38 1216 38 
C 896 38 646 275 646 570 
C 646 761 730 1100 1101 1305 
C 1408 1478 1760 1504 1965 1504 
L 1965 870 
z
" transform="scale(0.015625)"/>
      <path id="CMR17-64" d="M 1869 4326 
L 1869 4160 
C 2246 4160 2304 4122 2304 3820 
L 2304 2345 
C 2278 2377 2016 2790 1498 2790 
C 845 2790 211 2208 211 1364 
C 211 525 806 -64 1434 -64 
C 1978 -64 2259 337 2291 380 
L 2291 -63 
L 3066 -63 
L 3066 128 
C 2688 128 2630 166 2630 473 
L 2630 4396 
L 1869 4326 
z
M 2291 755 
C 2291 563 2176 390 2029 262 
C 1811 70 1594 38 1472 38 
C 1286 38 621 134 621 1356 
C 621 2612 1363 2688 1530 2688 
C 1824 2688 2061 2522 2208 2291 
C 2291 2157 2291 2138 2291 2023 
L 2291 755 
z
" transform="scale(0.015625)"/>
      <path id="CMR17-74" d="M 966 2560 
L 1862 2560 
L 1862 2725 
L 966 2725 
L 966 3904 
L 851 3904 
C 838 3245 614 2668 70 2668 
L 70 2560 
L 627 2560 
L 627 771 
C 627 650 627 -64 1370 -64 
C 1747 -64 1965 306 1965 777 
L 1965 1140 
L 1850 1140 
L 1850 783 
C 1850 344 1677 51 1408 51 
C 1222 51 966 178 966 758 
L 966 2560 
z
" transform="scale(0.015625)"/>
      <path id="CMR17-66" d="M 979 2560 
L 1709 2560 
L 1709 2725 
L 966 2725 
L 966 3494 
C 966 4022 1235 4352 1510 4352 
C 1594 4352 1690 4327 1754 4282 
C 1702 4269 1568 4225 1568 4067 
C 1568 3901 1696 3850 1786 3850 
C 1875 3850 2003 3901 2003 4067 
C 2003 4308 1773 4454 1517 4454 
C 1152 4454 653 4156 653 3481 
L 653 2725 
L 141 2725 
L 141 2560 
L 653 2560 
L 653 427 
C 653 184 627 153 218 153 
L 218 -13 
C 371 0 666 0 832 0 
C 1018 0 1344 0 1517 -13 
L 1517 153 
C 1056 153 979 153 979 439 
L 979 2560 
z
" transform="scale(0.015625)"/>
      <path id="CMR17-53" d="M 2803 4290 
C 2803 4404 2797 4411 2758 4411 
C 2720 4411 2707 4385 2682 4328 
L 2490 3907 
C 2246 4257 1875 4416 1472 4416 
C 819 4416 294 3901 294 3253 
C 294 3056 339 2776 557 2510 
C 794 2218 1018 2167 1530 2033 
C 1722 1982 2042 1899 2106 1874 
C 2470 1722 2662 1341 2662 985 
C 2662 527 2336 38 1779 38 
C 1094 38 454 419 410 1311 
C 403 1413 397 1419 352 1419 
C 301 1419 294 1413 294 1285 
L 294 -1 
C 294 -115 301 -122 339 -122 
C 384 -122 397 -90 486 108 
C 493 127 493 140 614 381 
C 934 -39 1472 -128 1779 -128 
C 2477 -128 2970 451 2970 1124 
C 2970 1454 2848 1708 2778 1823 
C 2509 2230 2221 2306 1914 2382 
C 1869 2402 1856 2402 1498 2490 
C 1152 2579 1005 2624 845 2796 
C 666 2992 602 3196 602 3399 
C 602 3812 934 4263 1478 4263 
C 2157 4263 2579 3786 2675 2993 
C 2694 2878 2701 2872 2746 2872 
C 2803 2872 2803 2891 2803 2999 
L 2803 4290 
z
" transform="scale(0.015625)"/>
      <path id="CMR17-54" d="M 3981 4326 
L 288 4326 
L 179 2918 
L 294 2918 
C 378 3976 467 4160 1453 4160 
C 1568 4160 1754 4160 1805 4154 
C 1926 4135 1926 4058 1926 3912 
L 1926 459 
C 1926 230 1907 160 1376 160 
L 1197 160 
L 1197 0 
C 1504 0 1824 0 2138 0 
C 2451 0 2771 0 3078 0 
L 3078 160 
L 2899 160 
C 2368 160 2349 230 2349 459 
L 2349 3912 
C 2349 4052 2349 4129 2464 4154 
C 2515 4160 2701 4160 2816 4160 
C 3795 4160 3891 3976 3974 2918 
L 4090 2918 
L 3981 4326 
z
" transform="scale(0.015625)"/>
      <path id="CMR17-4d" d="M 1338 4224 
C 1299 4320 1293 4320 1158 4320 
L 339 4320 
L 339 4160 
C 781 4160 851 4160 851 3875 
L 851 610 
C 851 451 851 153 339 153 
L 339 -13 
C 486 0 755 0 915 0 
C 1075 0 1344 0 1491 -13 
L 1491 153 
C 979 153 979 451 979 610 
L 979 4135 
L 986 4135 
L 2490 89 
C 2515 25 2528 -13 2579 -13 
C 2630 -13 2643 25 2669 89 
L 4186 4166 
L 4192 4166 
L 4192 438 
C 4192 153 4122 153 3680 153 
L 3680 -13 
C 3853 0 4198 0 4384 0 
C 4570 0 4922 0 5094 -13 
L 5094 153 
C 4653 153 4582 153 4582 438 
L 4582 3875 
C 4582 4160 4653 4160 5094 4160 
L 5094 4320 
L 4282 4320 
C 4147 4320 4141 4314 4102 4218 
L 2720 502 
L 1338 4224 
z
" transform="scale(0.015625)"/>
     </defs>
     <use xlink:href="#CMR17-52" transform="scale(0.996264)"/>
     <use xlink:href="#CMR17-6f" transform="translate(67.791102 0) scale(0.996264)"/>
     <use xlink:href="#CMR17-6c" transform="translate(113.481579 0) scale(0.996264)"/>
     <use xlink:href="#CMR17-6c" transform="translate(138.352638 0) scale(0.996264)"/>
     <use xlink:href="#CMR17-69" transform="translate(163.223696 0) scale(0.996264)"/>
     <use xlink:href="#CMR17-6e" transform="translate(188.094755 0) scale(0.996264)"/>
     <use xlink:href="#CMR17-67" transform="translate(238.990124 0) scale(0.996264)"/>
     <use xlink:href="#CMR17-56" transform="translate(314.756568 0) scale(0.996264)"/>
     <use xlink:href="#CMR17-61" transform="translate(376.021742 0) scale(0.996264)"/>
     <use xlink:href="#CMR17-6c" transform="translate(421.712219 0) scale(0.996264)"/>
     <use xlink:href="#CMR17-69" transform="translate(446.583278 0) scale(0.996264)"/>
     <use xlink:href="#CMR17-64" transform="translate(471.454336 0) scale(0.996264)"/>
     <use xlink:href="#CMR17-61" transform="translate(522.349706 0) scale(0.996264)"/>
     <use xlink:href="#CMR17-74" transform="translate(568.040183 0) scale(0.996264)"/>
     <use xlink:href="#CMR17-69" transform="translate(603.320951 0) scale(0.996264)"/>
     <use xlink:href="#CMR17-6f" transform="translate(628.192009 0) scale(0.996264)"/>
     <use xlink:href="#CMR17-6e" transform="translate(673.882487 0) scale(0.996264)"/>
     <use xlink:href="#CMR17-4c" transform="translate(754.853823 0) scale(0.996264)"/>
     <use xlink:href="#CMR17-6f" transform="translate(812.235231 0) scale(0.996264)"/>
     <use xlink:href="#CMR17-73" transform="translate(857.925708 0) scale(0.996264)"/>
     <use xlink:href="#CMR17-73" transform="translate(893.727045 0) scale(0.996264)"/>
     <use xlink:href="#CMR17-6f" transform="translate(959.604349 0) scale(0.996264)"/>
     <use xlink:href="#CMR17-66" transform="translate(1005.294826 0) scale(0.996264)"/>
     <use xlink:href="#CMR17-4c" transform="translate(1062.844305 0) scale(0.996264)"/>
     <use xlink:href="#CMR17-53" transform="translate(1120.225713 0) scale(0.996264)"/>
     <use xlink:href="#CMR17-54" transform="translate(1171.121083 0) scale(0.996264)"/>
     <use xlink:href="#CMR17-4d" transform="translate(1237.630963 0) scale(0.996264)"/>
    </g>
   </g>
   <g id="legend_1">
    <g id="patch_5">
     <path d="M 452.744378 716.99975 
L 1017.0373 716.99975 
Q 1021.0373 716.99975 1021.0373 712.99975 
L 1021.0373 659.248483 
Q 1021.0373 655.248483 1017.0373 655.248483 
L 452.744378 655.248483 
Q 448.744378 655.248483 448.744378 659.248483 
L 448.744378 712.99975 
Q 448.744378 716.99975 452.744378 716.99975 
z
" style="fill: #ffffff; opacity: 0.8"/>
    </g>
    <g id="line2d_19">
     <path d="M 456.744378 670.248483 
L 476.744378 670.248483 
L 496.744378 670.248483 
" style="fill: none; stroke-dasharray: 5.55,2.4; stroke-dashoffset: 0; stroke: #006e64; stroke-width: 1.5"/>
    </g>
    <g id="text_16">
     <!-- 4 batch size -->
     <g style="fill: #262626" transform="translate(512.744378 677.248483) scale(0.2 -0.2)">
      <defs>
       <path id="CMR17-62" d="M 960 4396 
L 198 4326 
L 198 4160 
C 576 4160 634 4122 634 3817 
L 634 -13 
L 749 -13 
L 934 441 
C 1120 141 1395 -64 1766 -64 
C 2406 -64 3053 500 3053 1370 
C 3053 2188 2477 2790 1830 2790 
C 1434 2790 1152 2579 960 2330 
L 960 4396 
z
M 973 2004 
C 973 2118 973 2138 1062 2272 
C 1312 2657 1670 2688 1792 2688 
C 1984 2688 2643 2585 2643 1376 
C 2643 108 1888 38 1734 38 
C 1536 38 1248 114 1043 486 
C 973 608 973 621 973 735 
L 973 2004 
z
" transform="scale(0.015625)"/>
       <path id="CMR17-7a" d="M 2310 2605 
C 2362 2670 2362 2682 2362 2695 
C 2362 2752 2336 2752 2221 2752 
L 275 2752 
L 211 1760 
L 326 1760 
C 371 2381 442 2650 1178 2650 
L 1958 2650 
L 128 96 
C 128 0 134 0 269 0 
L 2291 0 
L 2381 1152 
L 2266 1152 
C 2214 442 2131 115 1350 115 
L 531 115 
L 2310 2605 
z
" transform="scale(0.015625)"/>
       <path id="CMR17-65" d="M 2438 1472 
C 2464 1498 2464 1511 2464 1576 
C 2464 2238 2118 2816 1389 2816 
C 710 2816 173 2169 173 1383 
C 173 551 781 -64 1459 -64 
C 2176 -64 2458 607 2458 740 
C 2458 784 2419 784 2406 784 
C 2362 784 2355 771 2330 696 
C 2189 265 1837 51 1504 51 
C 1229 51 954 203 781 480 
C 582 803 582 1176 582 1472 
L 2438 1472 
z
M 589 1568 
C 634 2505 1126 2714 1382 2714 
C 1818 2714 2112 2297 2118 1568 
L 589 1568 
z
" transform="scale(0.015625)"/>
      </defs>
      <use xlink:href="#CMR17-34" transform="scale(0.996264)"/>
      <use xlink:href="#CMR17-62" transform="translate(75.766443 0) scale(0.996264)"/>
      <use xlink:href="#CMR17-61" transform="translate(126.661813 0) scale(0.996264)"/>
      <use xlink:href="#CMR17-74" transform="translate(172.35229 0) scale(0.996264)"/>
      <use xlink:href="#CMR17-63" transform="translate(207.633058 0) scale(0.996264)"/>
      <use xlink:href="#CMR17-68" transform="translate(245.516265 0) scale(0.996264)"/>
      <use xlink:href="#CMR17-73" transform="translate(326.487601 0) scale(0.996264)"/>
      <use xlink:href="#CMR17-69" transform="translate(362.288938 0) scale(0.996264)"/>
      <use xlink:href="#CMR17-7a" transform="translate(387.159997 0) scale(0.996264)"/>
      <use xlink:href="#CMR17-65" transform="translate(427.645657 0) scale(0.996264)"/>
     </g>
    </g>
    <g id="line2d_20">
     <path d="M 456.744378 698.124117 
L 476.744378 698.124117 
L 496.744378 698.124117 
" style="fill: none; stroke-dasharray: 5.55,2.4; stroke-dashoffset: 0; stroke: #734848; stroke-width: 1.5"/>
    </g>
    <g id="text_17">
     <!-- 8 batch size -->
     <g style="fill: #262626" transform="translate(512.744378 705.124117) scale(0.2 -0.2)">
      <use xlink:href="#CMR17-38" transform="scale(0.996264)"/>
      <use xlink:href="#CMR17-62" transform="translate(75.766443 0) scale(0.996264)"/>
      <use xlink:href="#CMR17-61" transform="translate(126.661813 0) scale(0.996264)"/>
      <use xlink:href="#CMR17-74" transform="translate(172.35229 0) scale(0.996264)"/>
      <use xlink:href="#CMR17-63" transform="translate(207.633058 0) scale(0.996264)"/>
      <use xlink:href="#CMR17-68" transform="translate(245.516265 0) scale(0.996264)"/>
      <use xlink:href="#CMR17-73" transform="translate(326.487601 0) scale(0.996264)"/>
      <use xlink:href="#CMR17-69" transform="translate(362.288938 0) scale(0.996264)"/>
      <use xlink:href="#CMR17-7a" transform="translate(387.159997 0) scale(0.996264)"/>
      <use xlink:href="#CMR17-65" transform="translate(427.645657 0) scale(0.996264)"/>
     </g>
    </g>
    <g id="line2d_21">
     <path d="M 646.37059 670.248483 
L 666.37059 670.248483 
L 686.37059 670.248483 
" style="fill: none; stroke-dasharray: 5.55,2.4; stroke-dashoffset: 0; stroke: #004e4a; stroke-width: 1.5"/>
    </g>
    <g id="text_18">
     <!-- 16 batch size -->
     <g style="fill: #262626" transform="translate(702.37059 677.248483) scale(0.2 -0.2)">
      <use xlink:href="#CMR17-31" transform="scale(0.996264)"/>
      <use xlink:href="#CMR17-36" transform="translate(45.690477 0) scale(0.996264)"/>
      <use xlink:href="#CMR17-62" transform="translate(121.456921 0) scale(0.996264)"/>
      <use xlink:href="#CMR17-61" transform="translate(172.35229 0) scale(0.996264)"/>
      <use xlink:href="#CMR17-74" transform="translate(218.042767 0) scale(0.996264)"/>
      <use xlink:href="#CMR17-63" transform="translate(253.323535 0) scale(0.996264)"/>
      <use xlink:href="#CMR17-68" transform="translate(291.206742 0) scale(0.996264)"/>
      <use xlink:href="#CMR17-73" transform="translate(372.178078 0) scale(0.996264)"/>
      <use xlink:href="#CMR17-69" transform="translate(407.979416 0) scale(0.996264)"/>
      <use xlink:href="#CMR17-7a" transform="translate(432.850474 0) scale(0.996264)"/>
      <use xlink:href="#CMR17-65" transform="translate(473.336135 0) scale(0.996264)"/>
     </g>
    </g>
    <g id="line2d_22">
     <path d="M 646.37059 698.124117 
L 666.37059 698.124117 
L 686.37059 698.124117 
" style="fill: none; stroke-dasharray: 5.55,2.4; stroke-dashoffset: 0; stroke: #c17150; stroke-width: 1.5"/>
    </g>
    <g id="text_19">
     <!-- 32 batch size -->
     <g style="fill: #262626" transform="translate(702.37059 705.124117) scale(0.2 -0.2)">
      <defs>
       <path id="CMR17-33" d="M 1414 2157 
C 1984 2157 2234 1662 2234 1090 
C 2234 320 1824 25 1453 25 
C 1114 25 563 194 390 693 
C 422 680 454 680 486 680 
C 640 680 755 782 755 948 
C 755 1133 614 1216 486 1216 
C 378 1216 211 1165 211 926 
C 211 335 787 -128 1466 -128 
C 2176 -128 2720 430 2720 1085 
C 2720 1707 2208 2157 1600 2227 
C 2086 2328 2554 2756 2554 3329 
C 2554 3820 2048 4179 1472 4179 
C 890 4179 378 3829 378 3329 
C 378 3110 544 3072 627 3072 
C 762 3072 877 3155 877 3321 
C 877 3486 762 3569 627 3569 
C 602 3569 570 3569 544 3557 
C 730 3959 1235 4032 1459 4032 
C 1683 4032 2106 3925 2106 3320 
C 2106 3143 2080 2828 1862 2550 
C 1670 2304 1453 2304 1242 2284 
C 1210 2284 1062 2269 1037 2269 
C 992 2263 966 2257 966 2208 
C 966 2163 973 2157 1101 2157 
L 1414 2157 
z
" transform="scale(0.015625)"/>
      </defs>
      <use xlink:href="#CMR17-33" transform="scale(0.996264)"/>
      <use xlink:href="#CMR17-32" transform="translate(45.690477 0) scale(0.996264)"/>
      <use xlink:href="#CMR17-62" transform="translate(121.456921 0) scale(0.996264)"/>
      <use xlink:href="#CMR17-61" transform="translate(172.35229 0) scale(0.996264)"/>
      <use xlink:href="#CMR17-74" transform="translate(218.042767 0) scale(0.996264)"/>
      <use xlink:href="#CMR17-63" transform="translate(253.323535 0) scale(0.996264)"/>
      <use xlink:href="#CMR17-68" transform="translate(291.206742 0) scale(0.996264)"/>
      <use xlink:href="#CMR17-73" transform="translate(372.178078 0) scale(0.996264)"/>
      <use xlink:href="#CMR17-69" transform="translate(407.979416 0) scale(0.996264)"/>
      <use xlink:href="#CMR17-7a" transform="translate(432.850474 0) scale(0.996264)"/>
      <use xlink:href="#CMR17-65" transform="translate(473.336135 0) scale(0.996264)"/>
     </g>
    </g>
    <g id="line2d_23">
     <path d="M 845.134897 670.248483 
L 865.134897 670.248483 
L 885.134897 670.248483 
" style="fill: none; stroke-dasharray: 5.55,2.4; stroke-dashoffset: 0; stroke: #ffbb00; stroke-width: 1.5"/>
    </g>
    <g id="text_20">
     <!-- 64 batch size -->
     <g style="fill: #262626" transform="translate(901.134897 677.248483) scale(0.2 -0.2)">
      <use xlink:href="#CMR17-36" transform="scale(0.996264)"/>
      <use xlink:href="#CMR17-34" transform="translate(45.690477 0) scale(0.996264)"/>
      <use xlink:href="#CMR17-62" transform="translate(121.456921 0) scale(0.996264)"/>
      <use xlink:href="#CMR17-61" transform="translate(172.35229 0) scale(0.996264)"/>
      <use xlink:href="#CMR17-74" transform="translate(218.042767 0) scale(0.996264)"/>
      <use xlink:href="#CMR17-63" transform="translate(253.323535 0) scale(0.996264)"/>
      <use xlink:href="#CMR17-68" transform="translate(291.206742 0) scale(0.996264)"/>
      <use xlink:href="#CMR17-73" transform="translate(372.178078 0) scale(0.996264)"/>
      <use xlink:href="#CMR17-69" transform="translate(407.979416 0) scale(0.996264)"/>
      <use xlink:href="#CMR17-7a" transform="translate(432.850474 0) scale(0.996264)"/>
      <use xlink:href="#CMR17-65" transform="translate(473.336135 0) scale(0.996264)"/>
     </g>
    </g>
    <g id="line2d_24">
     <path d="M 845.134897 698.124117 
L 865.134897 698.124117 
L 885.134897 698.124117 
" style="fill: none; stroke-dasharray: 5.55,2.4; stroke-dashoffset: 0; stroke: #a1d9cc; stroke-width: 1.5"/>
    </g>
    <g id="text_21">
     <!-- 128 batch size -->
     <g style="fill: #262626" transform="translate(901.134897 705.124117) scale(0.2 -0.2)">
      <use xlink:href="#CMR17-31" transform="scale(0.996264)"/>
      <use xlink:href="#CMR17-32" transform="translate(45.690477 0) scale(0.996264)"/>
      <use xlink:href="#CMR17-38" transform="translate(91.380954 0) scale(0.996264)"/>
      <use xlink:href="#CMR17-62" transform="translate(167.147398 0) scale(0.996264)"/>
      <use xlink:href="#CMR17-61" transform="translate(218.042767 0) scale(0.996264)"/>
      <use xlink:href="#CMR17-74" transform="translate(263.733245 0) scale(0.996264)"/>
      <use xlink:href="#CMR17-63" transform="translate(299.014012 0) scale(0.996264)"/>
      <use xlink:href="#CMR17-68" transform="translate(336.897219 0) scale(0.996264)"/>
      <use xlink:href="#CMR17-73" transform="translate(417.868555 0) scale(0.996264)"/>
      <use xlink:href="#CMR17-69" transform="translate(453.669893 0) scale(0.996264)"/>
      <use xlink:href="#CMR17-7a" transform="translate(478.540951 0) scale(0.996264)"/>
      <use xlink:href="#CMR17-65" transform="translate(519.026612 0) scale(0.996264)"/>
     </g>
    </g>
   </g>
  </g>
 </g>
 <defs>
  <clipPath id="p944878bf3d">
   <rect x="46.489061" y="25.604645" width="1376.803556" height="563.31258"/>
  </clipPath>
 </defs>
</svg>
