<?xml version="1.0" encoding="utf-8" standalone="no"?>
<!DOCTYPE svg PUBLIC "-//W3C//DTD SVG 1.1//EN"
  "http://www.w3.org/Graphics/SVG/1.1/DTD/svg11.dtd">
<svg xmlns:xlink="http://www.w3.org/1999/xlink" width="1440pt" height="720pt" viewBox="0 0 1440 720" xmlns="http://www.w3.org/2000/svg" version="1.1">
 <metadata>
  <rdf:RDF xmlns:dc="http://purl.org/dc/elements/1.1/" xmlns:cc="http://creativecommons.org/ns#" xmlns:rdf="http://www.w3.org/1999/02/22-rdf-syntax-ns#">
   <cc:Work>
    <dc:type rdf:resource="http://purl.org/dc/dcmitype/StillImage"/>
    <dc:date>2023-11-20T21:42:18.518734</dc:date>
    <dc:format>image/svg+xml</dc:format>
    <dc:creator>
     <cc:Agent>
      <dc:title>Matplotlib v3.8.0, https://matplotlib.org/</dc:title>
     </cc:Agent>
    </dc:creator>
   </cc:Work>
  </rdf:RDF>
 </metadata>
 <defs>
  <style type="text/css">*{stroke-linejoin: round; stroke-linecap: butt}</style>
 </defs>
 <g id="figure_1">
  <g id="patch_1">
   <path d="M 0 720 
L 1440 720 
L 1440 0 
L 0 0 
z
" style="fill: #ffffff"/>
  </g>
  <g id="axes_1">
   <g id="patch_2">
    <path d="M 79.322783 614.255294 
L 1436.99976 614.255294 
L 1436.99976 25.604645 
L 79.322783 25.604645 
z
" style="fill: #ffffff"/>
   </g>
   <g id="matplotlib.axis_1">
    <g id="xtick_1">
     <g id="line2d_1">
      <path d="M 141.035373 614.255294 
L 141.035373 25.604645 
" clip-path="url(#pcaea2dc01c)" style="fill: none; stroke: #cccccc; stroke-opacity: 0.35; stroke-width: 0.8; stroke-linecap: round"/>
     </g>
     <g id="text_1">
      <!-- $\mathdefault{0}$ -->
      <g transform="translate(136.466325 631.59229) scale(0.2 -0.2)">
       <defs>
        <path id="CMR17-30" d="M 2688 2025 
C 2688 2416 2682 3080 2413 3591 
C 2176 4039 1798 4198 1466 4198 
C 1158 4198 768 4058 525 3597 
C 269 3118 243 2524 243 2025 
C 243 1661 250 1106 448 619 
C 723 -39 1216 -128 1466 -128 
C 1760 -128 2208 -7 2470 600 
C 2662 1042 2688 1559 2688 2025 
z
M 1466 -26 
C 1056 -26 813 325 723 812 
C 653 1188 653 1738 653 2096 
C 653 2588 653 2997 736 3387 
C 858 3929 1216 4096 1466 4096 
C 1728 4096 2067 3923 2189 3400 
C 2272 3036 2278 2607 2278 2096 
C 2278 1680 2278 1169 2202 792 
C 2067 95 1690 -26 1466 -26 
z
" transform="scale(0.015625)"/>
       </defs>
       <use xlink:href="#CMR17-30" transform="scale(0.996264)"/>
      </g>
     </g>
    </g>
    <g id="xtick_2">
     <g id="line2d_2">
      <path d="M 388.877099 614.255294 
L 388.877099 25.604645 
" clip-path="url(#pcaea2dc01c)" style="fill: none; stroke: #cccccc; stroke-opacity: 0.35; stroke-width: 0.8; stroke-linecap: round"/>
     </g>
     <g id="text_2">
      <!-- $\mathdefault{50}$ -->
      <g transform="translate(379.739004 631.59229) scale(0.2 -0.2)">
       <defs>
        <path id="CMR17-35" d="M 730 3692 
C 794 3666 1056 3584 1325 3584 
C 1920 3584 2246 3911 2432 4100 
C 2432 4157 2432 4192 2394 4192 
C 2387 4192 2374 4192 2323 4163 
C 2099 4058 1837 3973 1517 3973 
C 1325 3973 1037 3999 723 4139 
C 653 4171 640 4171 634 4171 
C 602 4171 595 4164 595 4037 
L 595 2203 
C 595 2089 595 2057 659 2057 
C 691 2057 704 2070 736 2114 
C 941 2401 1222 2522 1542 2522 
C 1766 2522 2246 2382 2246 1289 
C 2246 1085 2246 715 2054 421 
C 1894 159 1645 25 1370 25 
C 947 25 518 320 403 814 
C 429 807 480 795 506 795 
C 589 795 749 840 749 1038 
C 749 1210 627 1280 506 1280 
C 358 1280 262 1190 262 1011 
C 262 454 704 -128 1382 -128 
C 2042 -128 2669 440 2669 1264 
C 2669 2030 2170 2624 1549 2624 
C 1222 2624 947 2503 730 2274 
L 730 3692 
z
" transform="scale(0.015625)"/>
       </defs>
       <use xlink:href="#CMR17-35" transform="scale(0.996264)"/>
       <use xlink:href="#CMR17-30" transform="translate(45.690477 0) scale(0.996264)"/>
      </g>
     </g>
    </g>
    <g id="xtick_3">
     <g id="line2d_3">
      <path d="M 636.718826 614.255294 
L 636.718826 25.604645 
" clip-path="url(#pcaea2dc01c)" style="fill: none; stroke: #cccccc; stroke-opacity: 0.35; stroke-width: 0.8; stroke-linecap: round"/>
     </g>
     <g id="text_3">
      <!-- $\mathdefault{100}$ -->
      <g transform="translate(623.011682 631.59229) scale(0.2 -0.2)">
       <defs>
        <path id="CMR17-31" d="M 1702 4058 
C 1702 4192 1696 4192 1606 4192 
C 1357 3916 979 3827 621 3827 
C 602 3827 570 3827 563 3808 
C 557 3795 557 3782 557 3648 
C 755 3648 1088 3686 1344 3839 
L 1344 461 
C 1344 236 1331 160 781 160 
L 589 160 
L 589 0 
C 896 0 1216 0 1523 0 
C 1830 0 2150 0 2458 0 
L 2458 160 
L 2266 160 
C 1715 160 1702 230 1702 458 
L 1702 4058 
z
" transform="scale(0.015625)"/>
       </defs>
       <use xlink:href="#CMR17-31" transform="scale(0.996264)"/>
       <use xlink:href="#CMR17-30" transform="translate(45.690477 0) scale(0.996264)"/>
       <use xlink:href="#CMR17-30" transform="translate(91.380954 0) scale(0.996264)"/>
      </g>
     </g>
    </g>
    <g id="xtick_4">
     <g id="line2d_4">
      <path d="M 884.560552 614.255294 
L 884.560552 25.604645 
" clip-path="url(#pcaea2dc01c)" style="fill: none; stroke: #cccccc; stroke-opacity: 0.35; stroke-width: 0.8; stroke-linecap: round"/>
     </g>
     <g id="text_4">
      <!-- $\mathdefault{150}$ -->
      <g transform="translate(870.853409 631.59229) scale(0.2 -0.2)">
       <use xlink:href="#CMR17-31" transform="scale(0.996264)"/>
       <use xlink:href="#CMR17-35" transform="translate(45.690477 0) scale(0.996264)"/>
       <use xlink:href="#CMR17-30" transform="translate(91.380954 0) scale(0.996264)"/>
      </g>
     </g>
    </g>
    <g id="xtick_5">
     <g id="line2d_5">
      <path d="M 1132.402278 614.255294 
L 1132.402278 25.604645 
" clip-path="url(#pcaea2dc01c)" style="fill: none; stroke: #cccccc; stroke-opacity: 0.35; stroke-width: 0.8; stroke-linecap: round"/>
     </g>
     <g id="text_5">
      <!-- $\mathdefault{200}$ -->
      <g transform="translate(1118.695135 631.59229) scale(0.2 -0.2)">
       <defs>
        <path id="CMR17-32" d="M 2669 989 
L 2554 989 
C 2490 536 2438 459 2413 420 
C 2381 369 1920 369 1830 369 
L 602 369 
C 832 619 1280 1072 1824 1597 
C 2214 1967 2669 2402 2669 3035 
C 2669 3790 2067 4224 1395 4224 
C 691 4224 262 3604 262 3030 
C 262 2780 448 2748 525 2748 
C 589 2748 781 2787 781 3010 
C 781 3207 614 3264 525 3264 
C 486 3264 448 3258 422 3245 
C 544 3790 915 4058 1306 4058 
C 1862 4058 2227 3617 2227 3035 
C 2227 2479 1901 2000 1536 1584 
L 262 146 
L 262 0 
L 2515 0 
L 2669 989 
z
" transform="scale(0.015625)"/>
       </defs>
       <use xlink:href="#CMR17-32" transform="scale(0.996264)"/>
       <use xlink:href="#CMR17-30" transform="translate(45.690477 0) scale(0.996264)"/>
       <use xlink:href="#CMR17-30" transform="translate(91.380954 0) scale(0.996264)"/>
      </g>
     </g>
    </g>
    <g id="xtick_6">
     <g id="line2d_6">
      <path d="M 1380.244005 614.255294 
L 1380.244005 25.604645 
" clip-path="url(#pcaea2dc01c)" style="fill: none; stroke: #cccccc; stroke-opacity: 0.35; stroke-width: 0.8; stroke-linecap: round"/>
     </g>
     <g id="text_6">
      <!-- $\mathdefault{250}$ -->
      <g transform="translate(1366.536862 631.59229) scale(0.2 -0.2)">
       <use xlink:href="#CMR17-32" transform="scale(0.996264)"/>
       <use xlink:href="#CMR17-35" transform="translate(45.690477 0) scale(0.996264)"/>
       <use xlink:href="#CMR17-30" transform="translate(91.380954 0) scale(0.996264)"/>
      </g>
     </g>
    </g>
    <g id="text_7">
     <!-- Epoch -->
     <g style="fill: #696969" transform="translate(732.845736 653.304921) scale(0.2 -0.2)">
      <defs>
       <path id="CMR17-45" d="M 3885 1615 
L 3770 1615 
C 3629 676 3546 166 2419 166 
L 1530 166 
C 1274 166 1261 197 1261 414 
L 1261 2176 
L 1862 2176 
C 2464 2176 2522 1960 2522 1430 
L 2637 1430 
L 2637 3081 
L 2522 3081 
C 2522 2557 2464 2342 1862 2342 
L 1261 2342 
L 1261 3913 
C 1261 4128 1274 4160 1530 4160 
L 2406 4160 
C 3398 4160 3514 3769 3603 2929 
L 3718 2929 
L 3565 4325 
L 326 4325 
L 326 4160 
C 768 4160 838 4160 838 3874 
L 838 451 
C 838 166 768 166 326 166 
L 326 0 
L 3654 0 
L 3885 1615 
z
" transform="scale(0.015625)"/>
       <path id="CMR17-70" d="M 1408 -1063 
C 998 -1063 973 -1037 973 -789 
L 973 402 
C 1158 134 1427 -38 1766 -38 
C 2406 -38 3053 523 3053 1388 
C 3053 2191 2496 2802 1837 2802 
C 1453 2802 1139 2592 960 2338 
L 960 2802 
L 198 2732 
L 198 2567 
C 576 2567 634 2528 634 2223 
L 634 -789 
C 634 -1031 608 -1063 198 -1063 
L 198 -1228 
C 352 -1216 634 -1216 800 -1216 
C 966 -1216 1254 -1216 1408 -1228 
L 1408 -1063 
z
M 973 2012 
C 973 2102 973 2235 1222 2471 
C 1254 2497 1472 2688 1792 2688 
C 2259 2688 2643 2108 2643 1382 
C 2643 656 2234 64 1728 64 
C 1498 64 1248 172 1056 472 
C 973 612 973 650 973 752 
L 973 2012 
z
" transform="scale(0.015625)"/>
       <path id="CMR17-6f" d="M 2758 1356 
C 2758 2176 2163 2816 1466 2816 
C 768 2816 173 2176 173 1356 
C 173 551 768 -64 1466 -64 
C 2163 -64 2758 551 2758 1356 
z
M 1466 51 
C 1165 51 909 230 762 480 
C 602 767 582 1126 582 1408 
C 582 1677 595 2010 762 2298 
C 890 2509 1139 2714 1466 2714 
C 1754 2714 1997 2554 2150 2330 
C 2349 2029 2349 1607 2349 1408 
C 2349 1158 2336 775 2163 467 
C 1984 173 1709 51 1466 51 
z
" transform="scale(0.015625)"/>
       <path id="CMR17-63" d="M 2234 2240 
C 2112 2240 1933 2240 1933 2017 
C 1933 1838 2080 1787 2163 1787 
C 2208 1787 2394 1807 2394 2024 
C 2394 2467 1958 2803 1466 2803 
C 787 2803 211 2178 211 1363 
C 211 516 813 -64 1466 -64 
C 2259 -64 2458 677 2458 748 
C 2458 774 2451 793 2406 793 
C 2362 793 2355 787 2330 703 
C 2163 180 1798 51 1523 51 
C 1114 51 621 427 621 1369 
C 621 2338 1094 2688 1472 2688 
C 1722 2688 2093 2573 2234 2240 
z
" transform="scale(0.015625)"/>
       <path id="CMR17-68" d="M 2656 1933 
C 2656 2259 2592 2790 1837 2790 
C 1312 2790 1056 2368 979 2157 
L 973 2157 
L 973 4396 
L 211 4326 
L 211 4160 
C 589 4160 646 4122 646 3817 
L 646 426 
C 646 184 621 153 211 153 
L 211 -13 
C 365 0 646 0 813 0 
C 979 0 1267 0 1421 -13 
L 1421 153 
C 1011 153 986 178 986 428 
L 986 1658 
C 986 2247 1344 2688 1792 2688 
C 2266 2688 2317 2266 2317 1958 
L 2317 428 
C 2317 184 2291 153 1882 153 
L 1882 -13 
C 2035 0 2317 0 2483 0 
C 2650 0 2938 0 3091 -13 
L 3091 153 
C 2682 153 2656 178 2656 428 
L 2656 1933 
z
" transform="scale(0.015625)"/>
      </defs>
      <use xlink:href="#CMR17-45" transform="scale(0.996264)"/>
      <use xlink:href="#CMR17-70" transform="translate(62.586301 0) scale(0.996264)"/>
      <use xlink:href="#CMR17-6f" transform="translate(116.084109 0) scale(0.996264)"/>
      <use xlink:href="#CMR17-63" transform="translate(164.377025 0) scale(0.996264)"/>
      <use xlink:href="#CMR17-68" transform="translate(202.260231 0) scale(0.996264)"/>
     </g>
    </g>
   </g>
   <g id="matplotlib.axis_2">
    <g id="ytick_1">
     <g id="line2d_7">
      <path d="M 79.322783 611.957511 
L 1436.99976 611.957511 
" clip-path="url(#pcaea2dc01c)" style="fill: none; stroke: #cccccc; stroke-opacity: 0.35; stroke-width: 0.8; stroke-linecap: round"/>
     </g>
     <g id="text_8">
      <!-- $\mathdefault{0.0000}$ -->
      <g transform="translate(24.71287 618.876009) scale(0.2 -0.2)">
       <defs>
        <path id="CMMI12-3a" d="M 1178 307 
C 1178 492 1024 619 870 619 
C 685 619 557 466 557 313 
C 557 128 710 0 864 0 
C 1050 0 1178 153 1178 307 
z
" transform="scale(0.015625)"/>
       </defs>
       <use xlink:href="#CMR17-30" transform="scale(0.996264)"/>
       <use xlink:href="#CMMI12-3a" transform="translate(45.690477 0) scale(0.996264)"/>
       <use xlink:href="#CMR17-30" transform="translate(72.787654 0) scale(0.996264)"/>
       <use xlink:href="#CMR17-30" transform="translate(118.478131 0) scale(0.996264)"/>
       <use xlink:href="#CMR17-30" transform="translate(164.168608 0) scale(0.996264)"/>
       <use xlink:href="#CMR17-30" transform="translate(209.859086 0) scale(0.996264)"/>
      </g>
     </g>
    </g>
    <g id="ytick_2">
     <g id="line2d_8">
      <path d="M 79.322783 536.176246 
L 1436.99976 536.176246 
" clip-path="url(#pcaea2dc01c)" style="fill: none; stroke: #cccccc; stroke-opacity: 0.35; stroke-width: 0.8; stroke-linecap: round"/>
     </g>
     <g id="text_9">
      <!-- $\mathdefault{0.0025}$ -->
      <g transform="translate(24.71287 543.094744) scale(0.2 -0.2)">
       <use xlink:href="#CMR17-30" transform="scale(0.996264)"/>
       <use xlink:href="#CMMI12-3a" transform="translate(45.690477 0) scale(0.996264)"/>
       <use xlink:href="#CMR17-30" transform="translate(72.787654 0) scale(0.996264)"/>
       <use xlink:href="#CMR17-30" transform="translate(118.478131 0) scale(0.996264)"/>
       <use xlink:href="#CMR17-32" transform="translate(164.168608 0) scale(0.996264)"/>
       <use xlink:href="#CMR17-35" transform="translate(209.859086 0) scale(0.996264)"/>
      </g>
     </g>
    </g>
    <g id="ytick_3">
     <g id="line2d_9">
      <path d="M 79.322783 460.394981 
L 1436.99976 460.394981 
" clip-path="url(#pcaea2dc01c)" style="fill: none; stroke: #cccccc; stroke-opacity: 0.35; stroke-width: 0.8; stroke-linecap: round"/>
     </g>
     <g id="text_10">
      <!-- $\mathdefault{0.0050}$ -->
      <g transform="translate(24.71287 467.313479) scale(0.2 -0.2)">
       <use xlink:href="#CMR17-30" transform="scale(0.996264)"/>
       <use xlink:href="#CMMI12-3a" transform="translate(45.690477 0) scale(0.996264)"/>
       <use xlink:href="#CMR17-30" transform="translate(72.787654 0) scale(0.996264)"/>
       <use xlink:href="#CMR17-30" transform="translate(118.478131 0) scale(0.996264)"/>
       <use xlink:href="#CMR17-35" transform="translate(164.168608 0) scale(0.996264)"/>
       <use xlink:href="#CMR17-30" transform="translate(209.859086 0) scale(0.996264)"/>
      </g>
     </g>
    </g>
    <g id="ytick_4">
     <g id="line2d_10">
      <path d="M 79.322783 384.613715 
L 1436.99976 384.613715 
" clip-path="url(#pcaea2dc01c)" style="fill: none; stroke: #cccccc; stroke-opacity: 0.35; stroke-width: 0.8; stroke-linecap: round"/>
     </g>
     <g id="text_11">
      <!-- $\mathdefault{0.0075}$ -->
      <g transform="translate(24.71287 391.532214) scale(0.2 -0.2)">
       <defs>
        <path id="CMR17-37" d="M 2886 3941 
L 2886 4081 
L 1382 4081 
C 634 4081 621 4165 595 4288 
L 480 4288 
L 294 3094 
L 410 3094 
C 429 3215 474 3540 550 3661 
C 589 3712 1062 3712 1171 3712 
L 2579 3712 
L 1869 2661 
C 1395 1954 1069 999 1069 165 
C 1069 89 1069 -128 1299 -128 
C 1530 -128 1530 89 1530 171 
L 1530 465 
C 1530 1508 1709 2196 2003 2636 
L 2886 3941 
z
" transform="scale(0.015625)"/>
       </defs>
       <use xlink:href="#CMR17-30" transform="scale(0.996264)"/>
       <use xlink:href="#CMMI12-3a" transform="translate(45.690477 0) scale(0.996264)"/>
       <use xlink:href="#CMR17-30" transform="translate(72.787654 0) scale(0.996264)"/>
       <use xlink:href="#CMR17-30" transform="translate(118.478131 0) scale(0.996264)"/>
       <use xlink:href="#CMR17-37" transform="translate(164.168608 0) scale(0.996264)"/>
       <use xlink:href="#CMR17-35" transform="translate(209.859086 0) scale(0.996264)"/>
      </g>
     </g>
    </g>
    <g id="ytick_5">
     <g id="line2d_11">
      <path d="M 79.322783 308.83245 
L 1436.99976 308.83245 
" clip-path="url(#pcaea2dc01c)" style="fill: none; stroke: #cccccc; stroke-opacity: 0.35; stroke-width: 0.8; stroke-linecap: round"/>
     </g>
     <g id="text_12">
      <!-- $\mathdefault{0.0100}$ -->
      <g transform="translate(24.71287 315.750949) scale(0.2 -0.2)">
       <use xlink:href="#CMR17-30" transform="scale(0.996264)"/>
       <use xlink:href="#CMMI12-3a" transform="translate(45.690477 0) scale(0.996264)"/>
       <use xlink:href="#CMR17-30" transform="translate(72.787654 0) scale(0.996264)"/>
       <use xlink:href="#CMR17-31" transform="translate(118.478131 0) scale(0.996264)"/>
       <use xlink:href="#CMR17-30" transform="translate(164.168608 0) scale(0.996264)"/>
       <use xlink:href="#CMR17-30" transform="translate(209.859086 0) scale(0.996264)"/>
      </g>
     </g>
    </g>
    <g id="ytick_6">
     <g id="line2d_12">
      <path d="M 79.322783 233.051185 
L 1436.99976 233.051185 
" clip-path="url(#pcaea2dc01c)" style="fill: none; stroke: #cccccc; stroke-opacity: 0.35; stroke-width: 0.8; stroke-linecap: round"/>
     </g>
     <g id="text_13">
      <!-- $\mathdefault{0.0125}$ -->
      <g transform="translate(24.71287 239.969683) scale(0.2 -0.2)">
       <use xlink:href="#CMR17-30" transform="scale(0.996264)"/>
       <use xlink:href="#CMMI12-3a" transform="translate(45.690477 0) scale(0.996264)"/>
       <use xlink:href="#CMR17-30" transform="translate(72.787654 0) scale(0.996264)"/>
       <use xlink:href="#CMR17-31" transform="translate(118.478131 0) scale(0.996264)"/>
       <use xlink:href="#CMR17-32" transform="translate(164.168608 0) scale(0.996264)"/>
       <use xlink:href="#CMR17-35" transform="translate(209.859086 0) scale(0.996264)"/>
      </g>
     </g>
    </g>
    <g id="ytick_7">
     <g id="line2d_13">
      <path d="M 79.322783 157.26992 
L 1436.99976 157.26992 
" clip-path="url(#pcaea2dc01c)" style="fill: none; stroke: #cccccc; stroke-opacity: 0.35; stroke-width: 0.8; stroke-linecap: round"/>
     </g>
     <g id="text_14">
      <!-- $\mathdefault{0.0150}$ -->
      <g transform="translate(24.71287 164.188418) scale(0.2 -0.2)">
       <use xlink:href="#CMR17-30" transform="scale(0.996264)"/>
       <use xlink:href="#CMMI12-3a" transform="translate(45.690477 0) scale(0.996264)"/>
       <use xlink:href="#CMR17-30" transform="translate(72.787654 0) scale(0.996264)"/>
       <use xlink:href="#CMR17-31" transform="translate(118.478131 0) scale(0.996264)"/>
       <use xlink:href="#CMR17-35" transform="translate(164.168608 0) scale(0.996264)"/>
       <use xlink:href="#CMR17-30" transform="translate(209.859086 0) scale(0.996264)"/>
      </g>
     </g>
    </g>
    <g id="ytick_8">
     <g id="line2d_14">
      <path d="M 79.322783 81.488655 
L 1436.99976 81.488655 
" clip-path="url(#pcaea2dc01c)" style="fill: none; stroke: #cccccc; stroke-opacity: 0.35; stroke-width: 0.8; stroke-linecap: round"/>
     </g>
     <g id="text_15">
      <!-- $\mathdefault{0.0175}$ -->
      <g transform="translate(24.71287 88.407153) scale(0.2 -0.2)">
       <use xlink:href="#CMR17-30" transform="scale(0.996264)"/>
       <use xlink:href="#CMMI12-3a" transform="translate(45.690477 0) scale(0.996264)"/>
       <use xlink:href="#CMR17-30" transform="translate(72.787654 0) scale(0.996264)"/>
       <use xlink:href="#CMR17-31" transform="translate(118.478131 0) scale(0.996264)"/>
       <use xlink:href="#CMR17-37" transform="translate(164.168608 0) scale(0.996264)"/>
       <use xlink:href="#CMR17-35" transform="translate(209.859086 0) scale(0.996264)"/>
      </g>
     </g>
    </g>
    <g id="text_16">
     <!-- Loss -->
     <g style="fill: #696969" transform="translate(16.837237 337.397425) rotate(-90) scale(0.2 -0.2)">
      <defs>
       <path id="CMR17-4c" d="M 3469 1615 
L 3354 1615 
C 3302 983 3219 166 2125 166 
L 1530 166 
C 1274 166 1261 197 1261 414 
L 1261 3898 
C 1261 4129 1274 4192 1760 4192 
L 1901 4192 
L 1901 4352 
C 1638 4352 1331 4352 1069 4352 
C 870 4352 512 4352 326 4352 
L 326 4192 
C 768 4192 838 4192 838 3905 
L 838 452 
C 838 166 768 166 326 166 
L 326 0 
L 3315 0 
L 3469 1615 
z
" transform="scale(0.015625)"/>
       <path id="CMR17-73" d="M 1978 2697 
C 1978 2813 1971 2819 1933 2819 
C 1907 2819 1901 2813 1824 2717 
C 1805 2691 1747 2626 1728 2601 
C 1523 2819 1235 2819 1126 2819 
C 416 2819 160 2447 160 2076 
C 160 1498 813 1365 998 1325 
C 1402 1243 1542 1217 1677 1101 
C 1760 1025 1901 884 1901 654 
C 1901 384 1747 38 1158 38 
C 602 38 403 460 288 1021 
C 269 1110 269 1117 218 1117 
C 166 1117 160 1110 160 983 
L 160 63 
C 160 -51 166 -58 205 -58 
C 237 -58 243 -51 275 0 
C 314 57 410 211 448 276 
C 576 103 800 -64 1158 -64 
C 1792 -64 2131 283 2131 784 
C 2131 1112 1958 1285 1875 1362 
C 1683 1561 1459 1606 1190 1657 
C 838 1735 390 1825 390 2217 
C 390 2383 480 2737 1126 2737 
C 1811 2737 1850 2094 1862 1888 
C 1869 1856 1901 1849 1920 1849 
C 1978 1849 1978 1869 1978 1978 
L 1978 2697 
z
" transform="scale(0.015625)"/>
      </defs>
      <use xlink:href="#CMR17-4c" transform="scale(0.996264)"/>
      <use xlink:href="#CMR17-6f" transform="translate(57.381408 0) scale(0.996264)"/>
      <use xlink:href="#CMR17-73" transform="translate(103.071885 0) scale(0.996264)"/>
      <use xlink:href="#CMR17-73" transform="translate(138.873223 0) scale(0.996264)"/>
     </g>
    </g>
   </g>
   <g id="line2d_15">
    <path d="M 141.035373 184.132703 
L 145.992207 223.806239 
L 150.949042 268.108174 
L 155.905876 271.747057 
L 160.862711 283.071755 
L 165.819545 292.618283 
L 170.77638 277.686914 
L 175.733214 289.80831 
L 180.690049 290.571726 
L 185.646884 284.262131 
L 190.603718 291.1633 
L 195.560553 296.719925 
L 200.517387 299.666535 
L 205.474222 296.755326 
L 210.431056 299.148812 
L 215.387891 286.526658 
L 220.344725 295.184569 
L 230.258394 293.038018 
L 235.215229 297.995982 
L 240.172063 294.774941 
L 245.128898 300.342152 
L 255.042567 293.238032 
L 259.999401 295.678268 
L 264.956236 301.884255 
L 269.91307 288.118786 
L 274.869905 282.017648 
L 279.82674 293.977931 
L 284.783574 300.982312 
L 289.740409 297.546351 
L 294.697243 301.49103 
L 299.654078 299.904548 
L 304.610912 301.694517 
L 309.567747 300.471336 
L 314.524581 302.99711 
L 319.481416 306.070307 
L 324.43825 301.37901 
L 329.395085 303.915089 
L 334.351919 304.104348 
L 339.308754 299.206854 
L 344.265588 292.836733 
L 349.222423 295.149365 
L 354.179257 293.034433 
L 359.136092 295.185021 
L 364.092927 304.650499 
L 369.049761 302.695014 
L 374.006596 305.861936 
L 378.96343 306.990459 
L 383.920265 301.102886 
L 388.877099 298.531067 
L 393.833934 305.885509 
L 398.790768 304.229466 
L 403.747603 306.798716 
L 408.704437 304.169984 
L 413.661272 303.099334 
L 418.618106 300.35288 
L 423.574941 308.912068 
L 428.531775 307.643718 
L 433.48861 304.951721 
L 438.445444 311.015002 
L 443.402279 299.94616 
L 448.359113 309.833801 
L 453.315948 312.682704 
L 458.272783 309.649652 
L 463.229617 309.197 
L 468.186452 312.161085 
L 473.143286 313.746607 
L 478.100121 307.297073 
L 483.056955 303.871303 
L 488.01379 310.166105 
L 492.970624 315.904224 
L 497.927459 307.402882 
L 502.884293 308.139393 
L 507.841128 318.851455 
L 512.797962 317.761608 
L 517.754797 314.538817 
L 522.711631 316.172049 
L 527.668466 315.113905 
L 532.6253 322.303395 
L 537.582135 320.948546 
L 542.53897 325.634902 
L 547.495804 307.101434 
L 552.452639 345.945834 
L 557.409473 331.757355 
L 562.366308 372.151226 
L 567.323142 407.798469 
L 572.279977 414.711198 
L 577.236811 420.899076 
L 582.193646 435.026378 
L 587.15048 452.798887 
L 592.107315 469.728498 
L 597.064149 450.608296 
L 602.020984 469.026499 
L 606.977818 454.923179 
L 611.934653 478.359731 
L 616.891487 481.745173 
L 621.848322 479.342075 
L 626.805156 488.767268 
L 631.761991 493.001241 
L 636.718826 493.937809 
L 641.67566 498.203246 
L 646.632495 492.159599 
L 651.589329 454.44272 
L 656.546164 495.881142 
L 661.502998 504.476352 
L 666.459833 497.40373 
L 671.416667 497.858217 
L 676.373502 508.758472 
L 681.330336 514.841593 
L 686.287171 512.940487 
L 691.244005 518.031693 
L 696.20084 519.240588 
L 701.157674 522.64112 
L 706.114509 523.616012 
L 711.071343 516.876287 
L 716.028178 518.1684 
L 720.985012 525.08036 
L 725.941847 520.619822 
L 730.898682 525.001596 
L 735.855516 502.524924 
L 740.812351 522.219198 
L 745.769185 526.284845 
L 750.72602 521.678382 
L 755.682854 534.398517 
L 760.639689 537.230799 
L 765.596523 539.748747 
L 770.553358 542.467132 
L 775.510192 533.531841 
L 780.467027 536.3471 
L 785.423861 535.642228 
L 790.380696 300.815186 
L 795.33753 293.7391 
L 800.294365 295.743198 
L 805.251199 307.032099 
L 810.208034 312.62548 
L 815.164869 319.837808 
L 820.121703 424.618389 
L 825.078538 523.275641 
L 830.035372 528.760199 
L 834.992207 534.77256 
L 839.949041 535.765335 
L 844.905876 547.320875 
L 849.86271 543.903398 
L 854.819545 543.408429 
L 859.776379 545.321794 
L 864.733214 548.471489 
L 869.690048 543.742003 
L 874.646883 525.906504 
L 879.603717 546.73657 
L 884.560552 549.906414 
L 889.517386 553.784084 
L 894.474221 548.072137 
L 899.431055 553.780198 
L 904.38789 554.026889 
L 909.344725 558.055981 
L 914.301559 467.013663 
L 919.258394 509.704448 
L 924.215228 538.955908 
L 929.172063 556.376998 
L 934.128897 559.16878 
L 939.085732 557.112824 
L 944.042566 557.134089 
L 948.999401 560.980585 
L 953.956235 559.280669 
L 958.91307 557.754946 
L 963.869904 553.286658 
L 968.826739 554.210219 
L 973.783573 563.303913 
L 978.740408 566.414918 
L 983.697242 507.605396 
L 988.654077 562.346468 
L 993.610912 568.193375 
L 998.567746 562.959583 
L 1003.524581 558.192141 
L 1008.481415 568.497907 
L 1013.43825 566.522148 
L 1018.395084 559.682113 
L 1023.351919 563.631132 
L 1028.308753 565.736389 
L 1033.265588 572.647933 
L 1038.222422 572.356486 
L 1043.179257 568.066521 
L 1048.136091 572.481633 
L 1053.092926 572.199318 
L 1058.04976 557.718359 
L 1063.006595 575.061409 
L 1067.963429 557.197291 
L 1072.920264 566.299295 
L 1077.877098 539.881325 
L 1082.833933 567.932202 
L 1087.790768 573.628488 
L 1092.747602 573.282302 
L 1097.704437 577.072124 
L 1102.661271 578.289976 
L 1107.618106 575.509399 
L 1112.57494 574.055178 
L 1117.531775 574.815727 
L 1122.488609 573.122131 
L 1127.445444 577.370018 
L 1132.402278 574.369266 
L 1137.359113 572.043735 
L 1142.315947 568.068282 
L 1147.272782 578.241508 
L 1152.229616 579.786378 
L 1157.186451 577.604923 
L 1162.143285 582.439301 
L 1167.10012 577.414397 
L 1172.056955 577.912196 
L 1177.013789 577.463067 
L 1181.970624 569.126422 
L 1186.927458 567.214803 
L 1191.884293 579.500005 
L 1196.841127 581.90841 
L 1201.797962 573.123292 
L 1206.754796 570.773381 
L 1211.711631 579.679401 
L 1216.668465 575.513697 
L 1221.6253 586.265891 
L 1226.582134 576.054259 
L 1231.538969 581.236261 
L 1236.495803 579.448533 
L 1241.452638 574.42837 
L 1246.409472 579.944173 
L 1251.366307 582.325911 
L 1256.323141 575.17195 
L 1261.279976 549.102664 
L 1266.236811 577.49447 
L 1271.193645 583.313499 
L 1276.15048 578.969649 
L 1281.107314 582.68683 
L 1286.064149 582.17885 
L 1291.020983 581.788292 
L 1295.977818 584.231612 
L 1300.934652 586.054626 
L 1305.891487 583.038158 
L 1310.848321 567.429745 
L 1315.805156 580.841561 
L 1320.76199 585.844803 
L 1325.718825 581.282309 
L 1330.675659 583.759437 
L 1335.632494 587.498446 
L 1340.589328 585.933308 
L 1345.546163 583.462429 
L 1350.502997 583.130329 
L 1355.459832 584.803951 
L 1360.416667 530.589218 
L 1365.373501 555.800519 
L 1370.330336 559.014322 
L 1375.28717 577.23407 
L 1375.28717 577.23407 
" clip-path="url(#pcaea2dc01c)" style="fill: none; stroke: #006e64; stroke-width: 1.5; stroke-linecap: round"/>
   </g>
   <g id="line2d_16">
    <path d="M 141.035373 183.429646 
L 145.992207 172.645199 
L 150.949042 64.243803 
L 155.905876 185.237541 
L 160.862711 150.681614 
L 165.819545 93.486314 
L 170.77638 124.058547 
L 175.733214 118.071489 
L 180.690049 174.303049 
L 185.646884 175.155983 
L 190.603718 192.026634 
L 195.560553 166.827582 
L 200.517387 181.32513 
L 205.474222 175.300581 
L 210.431056 143.343885 
L 215.387891 144.268158 
L 220.344725 173.908355 
L 225.30156 172.465821 
L 230.258394 194.122031 
L 235.215229 168.029477 
L 240.172063 184.231991 
L 245.128898 189.999753 
L 250.085732 170.747079 
L 255.042567 163.992116 
L 259.999401 155.733699 
L 264.956236 197.750836 
L 269.91307 189.925873 
L 274.869905 172.873304 
L 279.82674 174.652404 
L 284.783574 155.930721 
L 289.740409 193.667827 
L 294.697243 171.035964 
L 299.654078 182.533377 
L 304.610912 190.930859 
L 309.567747 172.555002 
L 314.524581 172.857099 
L 319.481416 156.702238 
L 324.43825 153.460392 
L 329.395085 191.398134 
L 334.351919 129.063346 
L 339.308754 194.556389 
L 344.265588 122.977028 
L 349.222423 185.780587 
L 354.179257 123.393036 
L 359.136092 102.513426 
L 364.092927 174.491291 
L 369.049761 121.017816 
L 374.006596 186.464928 
L 378.96343 146.760649 
L 383.920265 167.120165 
L 388.877099 184.274591 
L 393.833934 117.347766 
L 398.790768 81.42502 
L 403.747603 166.235047 
L 408.704437 167.820654 
L 413.661272 162.818509 
L 418.618106 192.184387 
L 423.574941 168.562444 
L 428.531775 188.895847 
L 433.48861 172.511527 
L 438.445444 52.361493 
L 443.402279 140.94145 
L 448.359113 183.771858 
L 453.315948 182.307446 
L 458.272783 185.407716 
L 463.229617 187.495011 
L 468.186452 185.512988 
L 473.143286 201.382832 
L 478.100121 194.709654 
L 483.056955 193.674292 
L 488.01379 158.736544 
L 492.970624 185.953387 
L 497.927459 207.286299 
L 502.884293 198.666895 
L 507.841128 112.376788 
L 512.797962 179.19978 
L 517.754797 188.820358 
L 522.711631 142.8265 
L 527.668466 145.560758 
L 532.6253 146.990701 
L 537.582135 215.802886 
L 542.53897 163.629436 
L 547.495804 184.733792 
L 552.452639 196.91309 
L 557.409473 188.355398 
L 562.366308 192.04617 
L 567.323142 259.865481 
L 572.279977 318.396348 
L 577.236811 293.296611 
L 582.193646 338.523751 
L 587.15048 315.128755 
L 592.107315 321.924849 
L 597.064149 326.269642 
L 602.020984 346.87533 
L 606.977818 353.419465 
L 611.934653 406.784873 
L 616.891487 308.900239 
L 621.848322 381.584705 
L 626.805156 387.940048 
L 631.761991 292.235306 
L 636.718826 263.948829 
L 641.67566 390.843027 
L 646.632495 364.897822 
L 651.589329 356.584298 
L 656.546164 323.918954 
L 661.502998 376.734075 
L 666.459833 394.502505 
L 671.416667 440.054298 
L 676.373502 316.517904 
L 681.330336 337.117184 
L 686.287171 346.597088 
L 691.244005 353.622134 
L 696.20084 341.153894 
L 701.157674 389.488432 
L 706.114509 350.751239 
L 711.071343 349.291626 
L 716.028178 406.559323 
L 720.985012 348.460626 
L 725.941847 352.048581 
L 730.898682 305.075851 
L 735.855516 310.054085 
L 740.812351 325.018569 
L 745.769185 316.316732 
L 750.72602 275.45265 
L 755.682854 334.006582 
L 760.639689 357.129631 
L 765.596523 443.883979 
L 770.553358 416.806059 
L 775.510192 446.067484 
L 780.467027 406.755682 
L 785.423861 339.900846 
L 790.380696 60.066165 
L 795.33753 148.378749 
L 800.294365 109.190161 
L 805.251199 166.409682 
L 810.208034 96.287422 
L 815.164869 148.695611 
L 820.121703 371.403818 
L 825.078538 399.858931 
L 830.035372 440.969905 
L 834.992207 318.21457 
L 839.949041 424.216214 
L 844.905876 419.197286 
L 849.86271 385.154847 
L 854.819545 440.418813 
L 859.776379 356.146129 
L 864.733214 426.160195 
L 869.690048 493.853936 
L 874.646883 339.526111 
L 879.603717 429.938073 
L 884.560552 401.877159 
L 889.517386 423.096301 
L 894.474221 465.671772 
L 899.431055 468.833754 
L 904.38789 443.721793 
L 909.344725 489.749316 
L 914.301559 440.497449 
L 919.258394 258.875542 
L 924.215228 501.675589 
L 929.172063 479.446627 
L 934.128897 419.428425 
L 939.085732 433.484769 
L 944.042566 522.842497 
L 948.999401 505.647757 
L 953.956235 537.892097 
L 958.91307 524.32552 
L 963.869904 494.668675 
L 968.826739 515.447749 
L 973.783573 503.680542 
L 978.740408 476.534925 
L 983.697242 431.806777 
L 988.654077 513.009737 
L 993.610912 452.610617 
L 998.567746 530.856817 
L 1003.524581 388.048976 
L 1008.481415 498.873732 
L 1013.43825 498.942742 
L 1018.395084 483.299853 
L 1023.351919 492.09241 
L 1028.308753 496.251388 
L 1033.265588 475.878758 
L 1038.222422 517.650528 
L 1043.179257 377.29166 
L 1048.136091 478.80363 
L 1053.092926 536.056796 
L 1058.04976 502.522122 
L 1063.006595 460.879084 
L 1067.963429 394.860767 
L 1072.920264 489.490455 
L 1077.877098 419.149646 
L 1082.833933 453.813274 
L 1087.790768 492.541236 
L 1092.747602 516.545246 
L 1097.704437 499.499438 
L 1102.661271 525.407279 
L 1107.618106 533.462485 
L 1112.57494 511.562348 
L 1117.531775 518.193617 
L 1122.488609 527.461127 
L 1127.445444 521.207995 
L 1132.402278 454.783281 
L 1137.359113 455.132792 
L 1142.315947 480.947062 
L 1147.272782 516.580436 
L 1152.229616 531.083489 
L 1157.186451 543.344444 
L 1162.143285 522.084396 
L 1167.10012 553.085454 
L 1172.056955 486.845292 
L 1177.013789 506.317877 
L 1181.970624 511.891278 
L 1186.927458 432.461462 
L 1191.884293 524.503818 
L 1196.841127 550.305194 
L 1201.797962 525.172054 
L 1206.754796 548.217038 
L 1211.711631 547.020147 
L 1216.668465 544.198635 
L 1221.6253 514.376929 
L 1226.582134 489.648603 
L 1231.538969 501.841642 
L 1236.495803 565.099878 
L 1241.452638 479.71815 
L 1246.409472 544.695263 
L 1251.366307 540.969979 
L 1256.323141 557.882616 
L 1261.279976 556.748076 
L 1266.236811 540.708436 
L 1271.193645 563.201443 
L 1276.15048 552.691961 
L 1281.107314 558.426389 
L 1286.064149 550.672356 
L 1291.020983 552.918964 
L 1295.977818 560.454135 
L 1300.934652 558.053359 
L 1305.891487 519.046149 
L 1310.848321 509.597807 
L 1315.805156 549.873285 
L 1320.76199 557.42452 
L 1325.718825 561.85494 
L 1330.675659 560.851422 
L 1335.632494 556.213588 
L 1340.589328 550.471297 
L 1345.546163 558.529633 
L 1350.502997 544.472304 
L 1355.459832 540.183408 
L 1360.416667 530.568652 
L 1365.373501 491.34342 
L 1370.330336 504.135741 
L 1375.28717 545.722325 
L 1375.28717 545.722325 
" clip-path="url(#pcaea2dc01c)" style="fill: none; stroke: #734848; stroke-width: 1.5; stroke-linecap: round"/>
   </g>
   <g id="patch_3">
    <path d="M 79.322783 614.255294 
L 79.322783 25.604645 
" style="fill: none; stroke: #808080; stroke-width: 0.8; stroke-linejoin: miter; stroke-linecap: square"/>
   </g>
   <g id="patch_4">
    <path d="M 79.322783 614.255294 
L 1436.99976 614.255294 
" style="fill: none; stroke: #808080; stroke-width: 0.8; stroke-linejoin: miter; stroke-linecap: square"/>
   </g>
   <g id="text_17">
    <!-- Loss of LSTM -->
    <g style="fill: #262626" transform="translate(690.065587 19.604645) scale(0.24 -0.24)">
     <defs>
      <path id="CMR17-66" d="M 979 2560 
L 1709 2560 
L 1709 2725 
L 966 2725 
L 966 3494 
C 966 4022 1235 4352 1510 4352 
C 1594 4352 1690 4327 1754 4282 
C 1702 4269 1568 4225 1568 4067 
C 1568 3901 1696 3850 1786 3850 
C 1875 3850 2003 3901 2003 4067 
C 2003 4308 1773 4454 1517 4454 
C 1152 4454 653 4156 653 3481 
L 653 2725 
L 141 2725 
L 141 2560 
L 653 2560 
L 653 427 
C 653 184 627 153 218 153 
L 218 -13 
C 371 0 666 0 832 0 
C 1018 0 1344 0 1517 -13 
L 1517 153 
C 1056 153 979 153 979 439 
L 979 2560 
z
" transform="scale(0.015625)"/>
      <path id="CMR17-53" d="M 2803 4290 
C 2803 4404 2797 4411 2758 4411 
C 2720 4411 2707 4385 2682 4328 
L 2490 3907 
C 2246 4257 1875 4416 1472 4416 
C 819 4416 294 3901 294 3253 
C 294 3056 339 2776 557 2510 
C 794 2218 1018 2167 1530 2033 
C 1722 1982 2042 1899 2106 1874 
C 2470 1722 2662 1341 2662 985 
C 2662 527 2336 38 1779 38 
C 1094 38 454 419 410 1311 
C 403 1413 397 1419 352 1419 
C 301 1419 294 1413 294 1285 
L 294 -1 
C 294 -115 301 -122 339 -122 
C 384 -122 397 -90 486 108 
C 493 127 493 140 614 381 
C 934 -39 1472 -128 1779 -128 
C 2477 -128 2970 451 2970 1124 
C 2970 1454 2848 1708 2778 1823 
C 2509 2230 2221 2306 1914 2382 
C 1869 2402 1856 2402 1498 2490 
C 1152 2579 1005 2624 845 2796 
C 666 2992 602 3196 602 3399 
C 602 3812 934 4263 1478 4263 
C 2157 4263 2579 3786 2675 2993 
C 2694 2878 2701 2872 2746 2872 
C 2803 2872 2803 2891 2803 2999 
L 2803 4290 
z
" transform="scale(0.015625)"/>
      <path id="CMR17-54" d="M 3981 4326 
L 288 4326 
L 179 2918 
L 294 2918 
C 378 3976 467 4160 1453 4160 
C 1568 4160 1754 4160 1805 4154 
C 1926 4135 1926 4058 1926 3912 
L 1926 459 
C 1926 230 1907 160 1376 160 
L 1197 160 
L 1197 0 
C 1504 0 1824 0 2138 0 
C 2451 0 2771 0 3078 0 
L 3078 160 
L 2899 160 
C 2368 160 2349 230 2349 459 
L 2349 3912 
C 2349 4052 2349 4129 2464 4154 
C 2515 4160 2701 4160 2816 4160 
C 3795 4160 3891 3976 3974 2918 
L 4090 2918 
L 3981 4326 
z
" transform="scale(0.015625)"/>
      <path id="CMR17-4d" d="M 1338 4224 
C 1299 4320 1293 4320 1158 4320 
L 339 4320 
L 339 4160 
C 781 4160 851 4160 851 3875 
L 851 610 
C 851 451 851 153 339 153 
L 339 -13 
C 486 0 755 0 915 0 
C 1075 0 1344 0 1491 -13 
L 1491 153 
C 979 153 979 451 979 610 
L 979 4135 
L 986 4135 
L 2490 89 
C 2515 25 2528 -13 2579 -13 
C 2630 -13 2643 25 2669 89 
L 4186 4166 
L 4192 4166 
L 4192 438 
C 4192 153 4122 153 3680 153 
L 3680 -13 
C 3853 0 4198 0 4384 0 
C 4570 0 4922 0 5094 -13 
L 5094 153 
C 4653 153 4582 153 4582 438 
L 4582 3875 
C 4582 4160 4653 4160 5094 4160 
L 5094 4320 
L 4282 4320 
C 4147 4320 4141 4314 4102 4218 
L 2720 502 
L 1338 4224 
z
" transform="scale(0.015625)"/>
     </defs>
     <use xlink:href="#CMR17-4c" transform="scale(0.996264)"/>
     <use xlink:href="#CMR17-6f" transform="translate(57.381408 0) scale(0.996264)"/>
     <use xlink:href="#CMR17-73" transform="translate(103.071885 0) scale(0.996264)"/>
     <use xlink:href="#CMR17-73" transform="translate(138.873223 0) scale(0.996264)"/>
     <use xlink:href="#CMR17-6f" transform="translate(204.750527 0) scale(0.996264)"/>
     <use xlink:href="#CMR17-66" transform="translate(250.441004 0) scale(0.996264)"/>
     <use xlink:href="#CMR17-4c" transform="translate(307.990482 0) scale(0.996264)"/>
     <use xlink:href="#CMR17-53" transform="translate(365.37189 0) scale(0.996264)"/>
     <use xlink:href="#CMR17-54" transform="translate(416.26726 0) scale(0.996264)"/>
     <use xlink:href="#CMR17-4d" transform="translate(482.777141 0) scale(0.996264)"/>
    </g>
   </g>
   <g id="legend_1">
    <g id="patch_5">
     <path d="M 615.615142 716.995992 
L 900.707401 716.995992 
Q 904.707401 716.995992 904.707401 712.995992 
L 904.707401 687.120358 
Q 904.707401 683.120358 900.707401 683.120358 
L 615.615142 683.120358 
Q 611.615142 683.120358 611.615142 687.120358 
L 611.615142 712.995992 
Q 611.615142 716.995992 615.615142 716.995992 
z
" style="fill: #ffffff; opacity: 0.8"/>
    </g>
    <g id="line2d_17">
     <path d="M 619.615142 698.120358 
L 639.615142 698.120358 
L 659.615142 698.120358 
" style="fill: none; stroke: #006e64; stroke-width: 1.5; stroke-linecap: round"/>
    </g>
    <g id="text_18">
     <!-- Train -->
     <g style="fill: #262626" transform="translate(675.615142 705.120358) scale(0.2 -0.2)">
      <defs>
       <path id="CMR17-72" d="M 960 1497 
C 960 2112 1222 2688 1702 2688 
C 1747 2688 1792 2682 1837 2662 
C 1837 2662 1696 2617 1696 2452 
C 1696 2298 1818 2234 1914 2234 
C 1990 2234 2131 2279 2131 2458 
C 2131 2663 1926 2790 1709 2790 
C 1222 2790 1011 2317 947 2093 
L 941 2093 
L 941 2790 
L 198 2720 
L 198 2554 
C 576 2554 634 2515 634 2208 
L 634 428 
C 634 184 608 153 198 153 
L 198 -13 
C 352 0 646 0 813 0 
C 998 0 1325 0 1498 -13 
L 1498 153 
C 1037 153 960 153 960 440 
L 960 1497 
z
" transform="scale(0.015625)"/>
       <path id="CMR17-61" d="M 2304 1653 
C 2304 2072 2304 2294 2035 2543 
C 1798 2752 1523 2816 1306 2816 
C 800 2816 435 2407 435 1971 
C 435 1728 627 1728 666 1728 
C 749 1728 896 1778 896 1954 
C 896 2112 774 2181 666 2181 
C 640 2181 608 2174 589 2168 
C 723 2592 1069 2714 1293 2714 
C 1613 2714 1965 2429 1965 1885 
L 1965 1600 
C 1587 1600 1133 1549 774 1357 
C 371 1133 256 813 256 570 
C 256 77 832 -64 1171 -64 
C 1523 -64 1850 139 1990 511 
C 2003 233 2182 -18 2464 -18 
C 2598 -18 2938 70 2938 567 
L 2938 920 
L 2822 920 
L 2822 562 
C 2822 178 2650 128 2566 128 
C 2304 128 2304 458 2304 738 
L 2304 1653 
z
M 1965 870 
C 1965 317 1568 38 1216 38 
C 896 38 646 275 646 570 
C 646 761 730 1100 1101 1305 
C 1408 1478 1760 1504 1965 1504 
L 1965 870 
z
" transform="scale(0.015625)"/>
       <path id="CMR17-69" d="M 992 3909 
C 992 4049 877 4170 730 4170 
C 589 4170 467 4056 467 3909 
C 467 3769 582 3648 730 3648 
C 870 3648 992 3763 992 3909 
z
M 243 2706 
L 243 2541 
C 602 2541 653 2502 653 2197 
L 653 427 
C 653 184 627 153 218 153 
L 218 -13 
C 371 0 646 0 806 0 
C 960 0 1222 0 1370 -13 
L 1370 153 
C 992 153 979 191 979 420 
L 979 2776 
L 243 2706 
z
" transform="scale(0.015625)"/>
       <path id="CMR17-6e" d="M 2656 1933 
C 2656 2259 2592 2790 1837 2790 
C 1331 2790 1069 2400 973 2144 
L 966 2144 
L 966 2790 
L 211 2720 
L 211 2554 
C 589 2554 646 2515 646 2208 
L 646 428 
C 646 184 621 153 211 153 
L 211 -13 
C 365 0 646 0 813 0 
C 979 0 1267 0 1421 -13 
L 1421 153 
C 1011 153 986 178 986 428 
L 986 1658 
C 986 2247 1344 2688 1792 2688 
C 2266 2688 2317 2266 2317 1958 
L 2317 428 
C 2317 184 2291 153 1882 153 
L 1882 -13 
C 2035 0 2317 0 2483 0 
C 2650 0 2938 0 3091 -13 
L 3091 153 
C 2682 153 2656 178 2656 428 
L 2656 1933 
z
" transform="scale(0.015625)"/>
      </defs>
      <use xlink:href="#CMR17-54" transform="scale(0.996264)"/>
      <use xlink:href="#CMR17-72" transform="translate(58.702625 0) scale(0.996264)"/>
      <use xlink:href="#CMR17-61" transform="translate(93.983393 0) scale(0.996264)"/>
      <use xlink:href="#CMR17-69" transform="translate(139.67387 0) scale(0.996264)"/>
      <use xlink:href="#CMR17-6e" transform="translate(164.544929 0) scale(0.996264)"/>
     </g>
    </g>
    <g id="line2d_18">
     <path d="M 758.70318 698.120358 
L 778.70318 698.120358 
L 798.70318 698.120358 
" style="fill: none; stroke: #734848; stroke-width: 1.5; stroke-linecap: round"/>
    </g>
    <g id="text_19">
     <!-- Validation -->
     <g style="fill: #262626" transform="translate(814.70318 705.120358) scale(0.2 -0.2)">
      <defs>
       <path id="CMR17-56" d="M 3776 3745 
C 3834 3886 3936 4160 4365 4160 
L 4365 4332 
C 4218 4319 4051 4319 3891 4319 
C 3738 4319 3475 4319 3328 4332 
L 3328 4160 
C 3648 4160 3661 3936 3661 3898 
C 3661 3827 3642 3783 3622 3732 
L 2362 446 
L 1043 3886 
C 1024 3931 1011 3963 1011 3994 
C 1011 4160 1267 4160 1402 4160 
L 1402 4319 
C 1197 4319 896 4319 685 4319 
C 518 4319 218 4319 64 4332 
L 64 4160 
C 435 4160 506 4135 582 3931 
L 2106 -26 
C 2138 -115 2144 -128 2214 -128 
C 2285 -128 2291 -115 2323 -26 
L 3776 3745 
z
" transform="scale(0.015625)"/>
       <path id="CMR17-6c" d="M 979 4396 
L 218 4326 
L 218 4160 
C 595 4160 653 4122 653 3817 
L 653 426 
C 653 184 627 153 218 153 
L 218 -13 
C 371 0 653 0 813 0 
C 979 0 1261 0 1414 -13 
L 1414 153 
C 1005 153 979 178 979 426 
L 979 4396 
z
" transform="scale(0.015625)"/>
       <path id="CMR17-64" d="M 1869 4326 
L 1869 4160 
C 2246 4160 2304 4122 2304 3820 
L 2304 2345 
C 2278 2377 2016 2790 1498 2790 
C 845 2790 211 2208 211 1364 
C 211 525 806 -64 1434 -64 
C 1978 -64 2259 337 2291 380 
L 2291 -63 
L 3066 -63 
L 3066 128 
C 2688 128 2630 166 2630 473 
L 2630 4396 
L 1869 4326 
z
M 2291 755 
C 2291 563 2176 390 2029 262 
C 1811 70 1594 38 1472 38 
C 1286 38 621 134 621 1356 
C 621 2612 1363 2688 1530 2688 
C 1824 2688 2061 2522 2208 2291 
C 2291 2157 2291 2138 2291 2023 
L 2291 755 
z
" transform="scale(0.015625)"/>
       <path id="CMR17-74" d="M 966 2560 
L 1862 2560 
L 1862 2725 
L 966 2725 
L 966 3904 
L 851 3904 
C 838 3245 614 2668 70 2668 
L 70 2560 
L 627 2560 
L 627 771 
C 627 650 627 -64 1370 -64 
C 1747 -64 1965 306 1965 777 
L 1965 1140 
L 1850 1140 
L 1850 783 
C 1850 344 1677 51 1408 51 
C 1222 51 966 178 966 758 
L 966 2560 
z
" transform="scale(0.015625)"/>
      </defs>
      <use xlink:href="#CMR17-56" transform="scale(0.996264)"/>
      <use xlink:href="#CMR17-61" transform="translate(61.265174 0) scale(0.996264)"/>
      <use xlink:href="#CMR17-6c" transform="translate(106.955652 0) scale(0.996264)"/>
      <use xlink:href="#CMR17-69" transform="translate(131.82671 0) scale(0.996264)"/>
      <use xlink:href="#CMR17-64" transform="translate(156.697768 0) scale(0.996264)"/>
      <use xlink:href="#CMR17-61" transform="translate(207.593138 0) scale(0.996264)"/>
      <use xlink:href="#CMR17-74" transform="translate(253.283615 0) scale(0.996264)"/>
      <use xlink:href="#CMR17-69" transform="translate(288.564383 0) scale(0.996264)"/>
      <use xlink:href="#CMR17-6f" transform="translate(313.435442 0) scale(0.996264)"/>
      <use xlink:href="#CMR17-6e" transform="translate(359.125919 0) scale(0.996264)"/>
     </g>
    </g>
   </g>
  </g>
 </g>
 <defs>
  <clipPath id="pcaea2dc01c">
   <rect x="79.322783" y="25.604645" width="1357.676977" height="588.650648"/>
  </clipPath>
 </defs>
</svg>
