<?xml version="1.0" encoding="utf-8" standalone="no"?>
<!DOCTYPE svg PUBLIC "-//W3C//DTD SVG 1.1//EN"
  "http://www.w3.org/Graphics/SVG/1.1/DTD/svg11.dtd">
<svg xmlns:xlink="http://www.w3.org/1999/xlink" width="1440pt" height="720pt" viewBox="0 0 1440 720" xmlns="http://www.w3.org/2000/svg" version="1.1">
 <metadata>
  <rdf:RDF xmlns:dc="http://purl.org/dc/elements/1.1/" xmlns:cc="http://creativecommons.org/ns#" xmlns:rdf="http://www.w3.org/1999/02/22-rdf-syntax-ns#">
   <cc:Work>
    <dc:type rdf:resource="http://purl.org/dc/dcmitype/StillImage"/>
    <dc:date>2023-11-25T13:31:49.363521</dc:date>
    <dc:format>image/svg+xml</dc:format>
    <dc:creator>
     <cc:Agent>
      <dc:title>Matplotlib v3.8.0, https://matplotlib.org/</dc:title>
     </cc:Agent>
    </dc:creator>
   </cc:Work>
  </rdf:RDF>
 </metadata>
 <defs>
  <style type="text/css">*{stroke-linejoin: round; stroke-linecap: butt}</style>
 </defs>
 <g id="figure_1">
  <g id="patch_1">
   <path d="M 0 720 
L 1440 720 
L 1440 0 
L 0 0 
z
" style="fill: #ffffff"/>
  </g>
  <g id="axes_1">
   <g id="patch_2">
    <path d="M 61.046592 614.258685 
L 1423.292617 614.258685 
L 1423.292617 25.604645 
L 61.046592 25.604645 
z
" style="fill: #ffffff"/>
   </g>
   <g id="matplotlib.axis_1">
    <g id="xtick_1">
     <g id="line2d_1">
      <path d="M 61.046592 614.258685 
L 61.046592 25.604645 
" clip-path="url(#pd5f506042a)" style="fill: none; stroke: #cccccc; stroke-opacity: 0.35; stroke-width: 0.8; stroke-linecap: round"/>
     </g>
     <g id="text_1">
      <!-- $\mathdefault{0}$ -->
      <g transform="translate(56.477544 631.595682) scale(0.2 -0.2)">
       <defs>
        <path id="CMR17-30" d="M 2688 2025 
C 2688 2416 2682 3080 2413 3591 
C 2176 4039 1798 4198 1466 4198 
C 1158 4198 768 4058 525 3597 
C 269 3118 243 2524 243 2025 
C 243 1661 250 1106 448 619 
C 723 -39 1216 -128 1466 -128 
C 1760 -128 2208 -7 2470 600 
C 2662 1042 2688 1559 2688 2025 
z
M 1466 -26 
C 1056 -26 813 325 723 812 
C 653 1188 653 1738 653 2096 
C 653 2588 653 2997 736 3387 
C 858 3929 1216 4096 1466 4096 
C 1728 4096 2067 3923 2189 3400 
C 2272 3036 2278 2607 2278 2096 
C 2278 1680 2278 1169 2202 792 
C 2067 95 1690 -26 1466 -26 
z
" transform="scale(0.015625)"/>
       </defs>
       <use xlink:href="#CMR17-30" transform="scale(0.996264)"/>
      </g>
     </g>
    </g>
    <g id="xtick_2">
     <g id="line2d_2">
      <path d="M 333.495797 614.258685 
L 333.495797 25.604645 
" clip-path="url(#pd5f506042a)" style="fill: none; stroke: #cccccc; stroke-opacity: 0.35; stroke-width: 0.8; stroke-linecap: round"/>
     </g>
     <g id="text_2">
      <!-- $\mathdefault{20}$ -->
      <g transform="translate(324.357702 631.595682) scale(0.2 -0.2)">
       <defs>
        <path id="CMR17-32" d="M 2669 989 
L 2554 989 
C 2490 536 2438 459 2413 420 
C 2381 369 1920 369 1830 369 
L 602 369 
C 832 619 1280 1072 1824 1597 
C 2214 1967 2669 2402 2669 3035 
C 2669 3790 2067 4224 1395 4224 
C 691 4224 262 3604 262 3030 
C 262 2780 448 2748 525 2748 
C 589 2748 781 2787 781 3010 
C 781 3207 614 3264 525 3264 
C 486 3264 448 3258 422 3245 
C 544 3790 915 4058 1306 4058 
C 1862 4058 2227 3617 2227 3035 
C 2227 2479 1901 2000 1536 1584 
L 262 146 
L 262 0 
L 2515 0 
L 2669 989 
z
" transform="scale(0.015625)"/>
       </defs>
       <use xlink:href="#CMR17-32" transform="scale(0.996264)"/>
       <use xlink:href="#CMR17-30" transform="translate(45.690477 0) scale(0.996264)"/>
      </g>
     </g>
    </g>
    <g id="xtick_3">
     <g id="line2d_3">
      <path d="M 605.945002 614.258685 
L 605.945002 25.604645 
" clip-path="url(#pd5f506042a)" style="fill: none; stroke: #cccccc; stroke-opacity: 0.35; stroke-width: 0.8; stroke-linecap: round"/>
     </g>
     <g id="text_3">
      <!-- $\mathdefault{40}$ -->
      <g transform="translate(596.806907 631.595682) scale(0.2 -0.2)">
       <defs>
        <path id="CMR17-34" d="M 2150 4122 
C 2150 4256 2144 4256 2029 4256 
L 128 1254 
L 128 1088 
L 1779 1088 
L 1779 457 
C 1779 224 1766 160 1318 160 
L 1197 160 
L 1197 0 
C 1402 0 1747 0 1965 0 
C 2182 0 2528 0 2733 0 
L 2733 160 
L 2611 160 
C 2163 160 2150 224 2150 457 
L 2150 1088 
L 2803 1088 
L 2803 1254 
L 2150 1254 
L 2150 4122 
z
M 1798 3703 
L 1798 1254 
L 256 1254 
L 1798 3703 
z
" transform="scale(0.015625)"/>
       </defs>
       <use xlink:href="#CMR17-34" transform="scale(0.996264)"/>
       <use xlink:href="#CMR17-30" transform="translate(45.690477 0) scale(0.996264)"/>
      </g>
     </g>
    </g>
    <g id="xtick_4">
     <g id="line2d_4">
      <path d="M 878.394207 614.258685 
L 878.394207 25.604645 
" clip-path="url(#pd5f506042a)" style="fill: none; stroke: #cccccc; stroke-opacity: 0.35; stroke-width: 0.8; stroke-linecap: round"/>
     </g>
     <g id="text_4">
      <!-- $\mathdefault{60}$ -->
      <g transform="translate(869.256112 631.595682) scale(0.2 -0.2)">
       <defs>
        <path id="CMR17-36" d="M 678 2176 
C 678 3690 1395 4032 1811 4032 
C 1946 4032 2272 4009 2400 3776 
C 2298 3776 2106 3776 2106 3553 
C 2106 3381 2246 3323 2336 3323 
C 2394 3323 2566 3348 2566 3560 
C 2566 3954 2246 4179 1805 4179 
C 1043 4179 243 3390 243 1984 
C 243 253 966 -128 1478 -128 
C 2099 -128 2688 427 2688 1283 
C 2688 2081 2170 2662 1517 2662 
C 1126 2662 838 2407 678 1960 
L 678 2176 
z
M 1478 25 
C 691 25 691 1200 691 1436 
C 691 1896 909 2560 1504 2560 
C 1613 2560 1926 2560 2138 2120 
C 2253 1870 2253 1609 2253 1289 
C 2253 944 2253 690 2118 434 
C 1978 171 1773 25 1478 25 
z
" transform="scale(0.015625)"/>
       </defs>
       <use xlink:href="#CMR17-36" transform="scale(0.996264)"/>
       <use xlink:href="#CMR17-30" transform="translate(45.690477 0) scale(0.996264)"/>
      </g>
     </g>
    </g>
    <g id="xtick_5">
     <g id="line2d_5">
      <path d="M 1150.843412 614.258685 
L 1150.843412 25.604645 
" clip-path="url(#pd5f506042a)" style="fill: none; stroke: #cccccc; stroke-opacity: 0.35; stroke-width: 0.8; stroke-linecap: round"/>
     </g>
     <g id="text_5">
      <!-- $\mathdefault{80}$ -->
      <g transform="translate(1141.705316 631.595682) scale(0.2 -0.2)">
       <defs>
        <path id="CMR17-38" d="M 1741 2264 
C 2144 2467 2554 2773 2554 3263 
C 2554 3841 1990 4179 1472 4179 
C 890 4179 378 3759 378 3180 
C 378 3021 416 2747 666 2505 
C 730 2442 998 2251 1171 2130 
C 883 1983 211 1634 211 934 
C 211 279 838 -128 1459 -128 
C 2144 -128 2720 362 2720 1010 
C 2720 1590 2330 1857 2074 2029 
L 1741 2264 
z
M 902 2822 
C 851 2854 595 3051 595 3351 
C 595 3739 998 4032 1459 4032 
C 1965 4032 2336 3676 2336 3262 
C 2336 2669 1670 2331 1638 2331 
C 1632 2331 1626 2331 1574 2370 
L 902 2822 
z
M 2080 1519 
C 2176 1449 2483 1240 2483 851 
C 2483 381 2010 25 1472 25 
C 890 25 448 438 448 940 
C 448 1443 838 1862 1280 2060 
L 2080 1519 
z
" transform="scale(0.015625)"/>
       </defs>
       <use xlink:href="#CMR17-38" transform="scale(0.996264)"/>
       <use xlink:href="#CMR17-30" transform="translate(45.690477 0) scale(0.996264)"/>
      </g>
     </g>
    </g>
    <g id="xtick_6">
     <g id="line2d_6">
      <path d="M 1423.292617 614.258685 
L 1423.292617 25.604645 
" clip-path="url(#pd5f506042a)" style="fill: none; stroke: #cccccc; stroke-opacity: 0.35; stroke-width: 0.8; stroke-linecap: round"/>
     </g>
     <g id="text_6">
      <!-- $\mathdefault{100}$ -->
      <g transform="translate(1409.585474 631.595682) scale(0.2 -0.2)">
       <defs>
        <path id="CMR17-31" d="M 1702 4058 
C 1702 4192 1696 4192 1606 4192 
C 1357 3916 979 3827 621 3827 
C 602 3827 570 3827 563 3808 
C 557 3795 557 3782 557 3648 
C 755 3648 1088 3686 1344 3839 
L 1344 461 
C 1344 236 1331 160 781 160 
L 589 160 
L 589 0 
C 896 0 1216 0 1523 0 
C 1830 0 2150 0 2458 0 
L 2458 160 
L 2266 160 
C 1715 160 1702 230 1702 458 
L 1702 4058 
z
" transform="scale(0.015625)"/>
       </defs>
       <use xlink:href="#CMR17-31" transform="scale(0.996264)"/>
       <use xlink:href="#CMR17-30" transform="translate(45.690477 0) scale(0.996264)"/>
       <use xlink:href="#CMR17-30" transform="translate(91.380954 0) scale(0.996264)"/>
      </g>
     </g>
    </g>
    <g id="text_7">
     <!-- Epoch -->
     <g style="fill: #696969" transform="translate(716.854069 653.308312) scale(0.2 -0.2)">
      <defs>
       <path id="CMR17-45" d="M 3885 1615 
L 3770 1615 
C 3629 676 3546 166 2419 166 
L 1530 166 
C 1274 166 1261 197 1261 414 
L 1261 2176 
L 1862 2176 
C 2464 2176 2522 1960 2522 1430 
L 2637 1430 
L 2637 3081 
L 2522 3081 
C 2522 2557 2464 2342 1862 2342 
L 1261 2342 
L 1261 3913 
C 1261 4128 1274 4160 1530 4160 
L 2406 4160 
C 3398 4160 3514 3769 3603 2929 
L 3718 2929 
L 3565 4325 
L 326 4325 
L 326 4160 
C 768 4160 838 4160 838 3874 
L 838 451 
C 838 166 768 166 326 166 
L 326 0 
L 3654 0 
L 3885 1615 
z
" transform="scale(0.015625)"/>
       <path id="CMR17-70" d="M 1408 -1063 
C 998 -1063 973 -1037 973 -789 
L 973 402 
C 1158 134 1427 -38 1766 -38 
C 2406 -38 3053 523 3053 1388 
C 3053 2191 2496 2802 1837 2802 
C 1453 2802 1139 2592 960 2338 
L 960 2802 
L 198 2732 
L 198 2567 
C 576 2567 634 2528 634 2223 
L 634 -789 
C 634 -1031 608 -1063 198 -1063 
L 198 -1228 
C 352 -1216 634 -1216 800 -1216 
C 966 -1216 1254 -1216 1408 -1228 
L 1408 -1063 
z
M 973 2012 
C 973 2102 973 2235 1222 2471 
C 1254 2497 1472 2688 1792 2688 
C 2259 2688 2643 2108 2643 1382 
C 2643 656 2234 64 1728 64 
C 1498 64 1248 172 1056 472 
C 973 612 973 650 973 752 
L 973 2012 
z
" transform="scale(0.015625)"/>
       <path id="CMR17-6f" d="M 2758 1356 
C 2758 2176 2163 2816 1466 2816 
C 768 2816 173 2176 173 1356 
C 173 551 768 -64 1466 -64 
C 2163 -64 2758 551 2758 1356 
z
M 1466 51 
C 1165 51 909 230 762 480 
C 602 767 582 1126 582 1408 
C 582 1677 595 2010 762 2298 
C 890 2509 1139 2714 1466 2714 
C 1754 2714 1997 2554 2150 2330 
C 2349 2029 2349 1607 2349 1408 
C 2349 1158 2336 775 2163 467 
C 1984 173 1709 51 1466 51 
z
" transform="scale(0.015625)"/>
       <path id="CMR17-63" d="M 2234 2240 
C 2112 2240 1933 2240 1933 2017 
C 1933 1838 2080 1787 2163 1787 
C 2208 1787 2394 1807 2394 2024 
C 2394 2467 1958 2803 1466 2803 
C 787 2803 211 2178 211 1363 
C 211 516 813 -64 1466 -64 
C 2259 -64 2458 677 2458 748 
C 2458 774 2451 793 2406 793 
C 2362 793 2355 787 2330 703 
C 2163 180 1798 51 1523 51 
C 1114 51 621 427 621 1369 
C 621 2338 1094 2688 1472 2688 
C 1722 2688 2093 2573 2234 2240 
z
" transform="scale(0.015625)"/>
       <path id="CMR17-68" d="M 2656 1933 
C 2656 2259 2592 2790 1837 2790 
C 1312 2790 1056 2368 979 2157 
L 973 2157 
L 973 4396 
L 211 4326 
L 211 4160 
C 589 4160 646 4122 646 3817 
L 646 426 
C 646 184 621 153 211 153 
L 211 -13 
C 365 0 646 0 813 0 
C 979 0 1267 0 1421 -13 
L 1421 153 
C 1011 153 986 178 986 428 
L 986 1658 
C 986 2247 1344 2688 1792 2688 
C 2266 2688 2317 2266 2317 1958 
L 2317 428 
C 2317 184 2291 153 1882 153 
L 1882 -13 
C 2035 0 2317 0 2483 0 
C 2650 0 2938 0 3091 -13 
L 3091 153 
C 2682 153 2656 178 2656 428 
L 2656 1933 
z
" transform="scale(0.015625)"/>
      </defs>
      <use xlink:href="#CMR17-45" transform="scale(0.996264)"/>
      <use xlink:href="#CMR17-70" transform="translate(62.586301 0) scale(0.996264)"/>
      <use xlink:href="#CMR17-6f" transform="translate(116.084109 0) scale(0.996264)"/>
      <use xlink:href="#CMR17-63" transform="translate(164.377025 0) scale(0.996264)"/>
      <use xlink:href="#CMR17-68" transform="translate(202.260231 0) scale(0.996264)"/>
     </g>
    </g>
   </g>
   <g id="matplotlib.axis_2">
    <g id="ytick_1">
     <g id="line2d_7">
      <path d="M 61.046592 600.25488 
L 1423.292617 600.25488 
" clip-path="url(#pd5f506042a)" style="fill: none; stroke: #cccccc; stroke-opacity: 0.35; stroke-width: 0.8; stroke-linecap: round"/>
     </g>
     <g id="text_8">
      <!-- $\mathdefault{8.5}$ -->
      <g transform="translate(33.850966 607.173379) scale(0.2 -0.2)">
       <defs>
        <path id="CMMI12-3a" d="M 1178 307 
C 1178 492 1024 619 870 619 
C 685 619 557 466 557 313 
C 557 128 710 0 864 0 
C 1050 0 1178 153 1178 307 
z
" transform="scale(0.015625)"/>
        <path id="CMR17-35" d="M 730 3692 
C 794 3666 1056 3584 1325 3584 
C 1920 3584 2246 3911 2432 4100 
C 2432 4157 2432 4192 2394 4192 
C 2387 4192 2374 4192 2323 4163 
C 2099 4058 1837 3973 1517 3973 
C 1325 3973 1037 3999 723 4139 
C 653 4171 640 4171 634 4171 
C 602 4171 595 4164 595 4037 
L 595 2203 
C 595 2089 595 2057 659 2057 
C 691 2057 704 2070 736 2114 
C 941 2401 1222 2522 1542 2522 
C 1766 2522 2246 2382 2246 1289 
C 2246 1085 2246 715 2054 421 
C 1894 159 1645 25 1370 25 
C 947 25 518 320 403 814 
C 429 807 480 795 506 795 
C 589 795 749 840 749 1038 
C 749 1210 627 1280 506 1280 
C 358 1280 262 1190 262 1011 
C 262 454 704 -128 1382 -128 
C 2042 -128 2669 440 2669 1264 
C 2669 2030 2170 2624 1549 2624 
C 1222 2624 947 2503 730 2274 
L 730 3692 
z
" transform="scale(0.015625)"/>
       </defs>
       <use xlink:href="#CMR17-38" transform="scale(0.996264)"/>
       <use xlink:href="#CMMI12-3a" transform="translate(45.690477 0) scale(0.996264)"/>
       <use xlink:href="#CMR17-35" transform="translate(72.787654 0) scale(0.996264)"/>
      </g>
     </g>
    </g>
    <g id="ytick_2">
     <g id="line2d_8">
      <path d="M 61.046592 528.71023 
L 1423.292617 528.71023 
" clip-path="url(#pd5f506042a)" style="fill: none; stroke: #cccccc; stroke-opacity: 0.35; stroke-width: 0.8; stroke-linecap: round"/>
     </g>
     <g id="text_9">
      <!-- $\mathdefault{9.0}$ -->
      <g transform="translate(33.850966 535.628728) scale(0.2 -0.2)">
       <defs>
        <path id="CMR17-39" d="M 2253 1864 
C 2253 464 1670 31 1190 31 
C 1043 31 685 31 538 294 
C 704 268 826 357 826 518 
C 826 692 685 749 595 749 
C 538 749 365 723 365 506 
C 365 71 742 -128 1203 -128 
C 1939 -128 2688 674 2688 2073 
C 2688 3817 1971 4179 1485 4179 
C 851 4179 243 3628 243 2778 
C 243 1991 762 1408 1414 1408 
C 1952 1408 2189 1903 2253 2112 
L 2253 1864 
z
M 1427 1510 
C 1254 1510 1011 1542 813 1922 
C 678 2169 678 2461 678 2771 
C 678 3146 678 3405 858 3684 
C 947 3817 1114 4032 1485 4032 
C 2240 4032 2240 2885 2240 2632 
C 2240 2182 2035 1510 1427 1510 
z
" transform="scale(0.015625)"/>
       </defs>
       <use xlink:href="#CMR17-39" transform="scale(0.996264)"/>
       <use xlink:href="#CMMI12-3a" transform="translate(45.690477 0) scale(0.996264)"/>
       <use xlink:href="#CMR17-30" transform="translate(72.787654 0) scale(0.996264)"/>
      </g>
     </g>
    </g>
    <g id="ytick_3">
     <g id="line2d_9">
      <path d="M 61.046592 457.165579 
L 1423.292617 457.165579 
" clip-path="url(#pd5f506042a)" style="fill: none; stroke: #cccccc; stroke-opacity: 0.35; stroke-width: 0.8; stroke-linecap: round"/>
     </g>
     <g id="text_10">
      <!-- $\mathdefault{9.5}$ -->
      <g transform="translate(33.850966 464.084077) scale(0.2 -0.2)">
       <use xlink:href="#CMR17-39" transform="scale(0.996264)"/>
       <use xlink:href="#CMMI12-3a" transform="translate(45.690477 0) scale(0.996264)"/>
       <use xlink:href="#CMR17-35" transform="translate(72.787654 0) scale(0.996264)"/>
      </g>
     </g>
    </g>
    <g id="ytick_4">
     <g id="line2d_10">
      <path d="M 61.046592 385.620928 
L 1423.292617 385.620928 
" clip-path="url(#pd5f506042a)" style="fill: none; stroke: #cccccc; stroke-opacity: 0.35; stroke-width: 0.8; stroke-linecap: round"/>
     </g>
     <g id="text_11">
      <!-- $\mathdefault{10.0}$ -->
      <g transform="translate(24.71287 392.539427) scale(0.2 -0.2)">
       <use xlink:href="#CMR17-31" transform="scale(0.996264)"/>
       <use xlink:href="#CMR17-30" transform="translate(45.690477 0) scale(0.996264)"/>
       <use xlink:href="#CMMI12-3a" transform="translate(91.380954 0) scale(0.996264)"/>
       <use xlink:href="#CMR17-30" transform="translate(118.478131 0) scale(0.996264)"/>
      </g>
     </g>
    </g>
    <g id="ytick_5">
     <g id="line2d_11">
      <path d="M 61.046592 314.076277 
L 1423.292617 314.076277 
" clip-path="url(#pd5f506042a)" style="fill: none; stroke: #cccccc; stroke-opacity: 0.35; stroke-width: 0.8; stroke-linecap: round"/>
     </g>
     <g id="text_12">
      <!-- $\mathdefault{10.5}$ -->
      <g transform="translate(24.71287 320.994776) scale(0.2 -0.2)">
       <use xlink:href="#CMR17-31" transform="scale(0.996264)"/>
       <use xlink:href="#CMR17-30" transform="translate(45.690477 0) scale(0.996264)"/>
       <use xlink:href="#CMMI12-3a" transform="translate(91.380954 0) scale(0.996264)"/>
       <use xlink:href="#CMR17-35" transform="translate(118.478131 0) scale(0.996264)"/>
      </g>
     </g>
    </g>
    <g id="ytick_6">
     <g id="line2d_12">
      <path d="M 61.046592 242.531627 
L 1423.292617 242.531627 
" clip-path="url(#pd5f506042a)" style="fill: none; stroke: #cccccc; stroke-opacity: 0.35; stroke-width: 0.8; stroke-linecap: round"/>
     </g>
     <g id="text_13">
      <!-- $\mathdefault{11.0}$ -->
      <g transform="translate(24.71287 249.450125) scale(0.2 -0.2)">
       <use xlink:href="#CMR17-31" transform="scale(0.996264)"/>
       <use xlink:href="#CMR17-31" transform="translate(45.690477 0) scale(0.996264)"/>
       <use xlink:href="#CMMI12-3a" transform="translate(91.380954 0) scale(0.996264)"/>
       <use xlink:href="#CMR17-30" transform="translate(118.478131 0) scale(0.996264)"/>
      </g>
     </g>
    </g>
    <g id="ytick_7">
     <g id="line2d_13">
      <path d="M 61.046592 170.986976 
L 1423.292617 170.986976 
" clip-path="url(#pd5f506042a)" style="fill: none; stroke: #cccccc; stroke-opacity: 0.35; stroke-width: 0.8; stroke-linecap: round"/>
     </g>
     <g id="text_14">
      <!-- $\mathdefault{11.5}$ -->
      <g transform="translate(24.71287 177.905474) scale(0.2 -0.2)">
       <use xlink:href="#CMR17-31" transform="scale(0.996264)"/>
       <use xlink:href="#CMR17-31" transform="translate(45.690477 0) scale(0.996264)"/>
       <use xlink:href="#CMMI12-3a" transform="translate(91.380954 0) scale(0.996264)"/>
       <use xlink:href="#CMR17-35" transform="translate(118.478131 0) scale(0.996264)"/>
      </g>
     </g>
    </g>
    <g id="ytick_8">
     <g id="line2d_14">
      <path d="M 61.046592 99.442325 
L 1423.292617 99.442325 
" clip-path="url(#pd5f506042a)" style="fill: none; stroke: #cccccc; stroke-opacity: 0.35; stroke-width: 0.8; stroke-linecap: round"/>
     </g>
     <g id="text_15">
      <!-- $\mathdefault{12.0}$ -->
      <g transform="translate(24.71287 106.360824) scale(0.2 -0.2)">
       <use xlink:href="#CMR17-31" transform="scale(0.996264)"/>
       <use xlink:href="#CMR17-32" transform="translate(45.690477 0) scale(0.996264)"/>
       <use xlink:href="#CMMI12-3a" transform="translate(91.380954 0) scale(0.996264)"/>
       <use xlink:href="#CMR17-30" transform="translate(118.478131 0) scale(0.996264)"/>
      </g>
     </g>
    </g>
    <g id="ytick_9">
     <g id="line2d_15">
      <path d="M 61.046592 27.897674 
L 1423.292617 27.897674 
" clip-path="url(#pd5f506042a)" style="fill: none; stroke: #cccccc; stroke-opacity: 0.35; stroke-width: 0.8; stroke-linecap: round"/>
     </g>
     <g id="text_16">
      <!-- $\mathdefault{12.5}$ -->
      <g transform="translate(24.71287 34.816173) scale(0.2 -0.2)">
       <use xlink:href="#CMR17-31" transform="scale(0.996264)"/>
       <use xlink:href="#CMR17-32" transform="translate(45.690477 0) scale(0.996264)"/>
       <use xlink:href="#CMMI12-3a" transform="translate(91.380954 0) scale(0.996264)"/>
       <use xlink:href="#CMR17-35" transform="translate(118.478131 0) scale(0.996264)"/>
      </g>
     </g>
    </g>
    <g id="text_17">
     <!-- Loss -->
     <g style="fill: #696969" transform="translate(16.837237 337.399121) rotate(-90) scale(0.2 -0.2)">
      <defs>
       <path id="CMR17-4c" d="M 3469 1615 
L 3354 1615 
C 3302 983 3219 166 2125 166 
L 1530 166 
C 1274 166 1261 197 1261 414 
L 1261 3898 
C 1261 4129 1274 4192 1760 4192 
L 1901 4192 
L 1901 4352 
C 1638 4352 1331 4352 1069 4352 
C 870 4352 512 4352 326 4352 
L 326 4192 
C 768 4192 838 4192 838 3905 
L 838 452 
C 838 166 768 166 326 166 
L 326 0 
L 3315 0 
L 3469 1615 
z
" transform="scale(0.015625)"/>
       <path id="CMR17-73" d="M 1978 2697 
C 1978 2813 1971 2819 1933 2819 
C 1907 2819 1901 2813 1824 2717 
C 1805 2691 1747 2626 1728 2601 
C 1523 2819 1235 2819 1126 2819 
C 416 2819 160 2447 160 2076 
C 160 1498 813 1365 998 1325 
C 1402 1243 1542 1217 1677 1101 
C 1760 1025 1901 884 1901 654 
C 1901 384 1747 38 1158 38 
C 602 38 403 460 288 1021 
C 269 1110 269 1117 218 1117 
C 166 1117 160 1110 160 983 
L 160 63 
C 160 -51 166 -58 205 -58 
C 237 -58 243 -51 275 0 
C 314 57 410 211 448 276 
C 576 103 800 -64 1158 -64 
C 1792 -64 2131 283 2131 784 
C 2131 1112 1958 1285 1875 1362 
C 1683 1561 1459 1606 1190 1657 
C 838 1735 390 1825 390 2217 
C 390 2383 480 2737 1126 2737 
C 1811 2737 1850 2094 1862 1888 
C 1869 1856 1901 1849 1920 1849 
C 1978 1849 1978 1869 1978 1978 
L 1978 2697 
z
" transform="scale(0.015625)"/>
      </defs>
      <use xlink:href="#CMR17-4c" transform="scale(0.996264)"/>
      <use xlink:href="#CMR17-6f" transform="translate(57.381408 0) scale(0.996264)"/>
      <use xlink:href="#CMR17-73" transform="translate(103.071885 0) scale(0.996264)"/>
      <use xlink:href="#CMR17-73" transform="translate(138.873223 0) scale(0.996264)"/>
     </g>
    </g>
   </g>
   <g id="line2d_16">
    <path d="M 61.046592 499.057616 
L 74.669052 429.621691 
L 88.291513 428.382902 
L 101.913973 582.869119 
L 115.536433 536.361439 
L 129.158893 434.165556 
L 142.781354 52.361647 
L 156.403814 168.155146 
L 170.026274 223.566607 
L 183.648734 275.957649 
L 197.271195 255.673191 
L 210.893655 465.418988 
L 224.516115 308.955867 
L 238.138575 373.752951 
L 251.761036 448.616732 
L 265.383496 251.471842 
L 279.005956 344.880891 
L 292.628416 402.457709 
L 306.250877 333.029153 
L 319.873337 318.659579 
L 333.495797 373.153752 
L 347.118257 391.979719 
L 360.740718 353.651623 
L 374.363178 353.547231 
L 387.985638 384.906148 
L 401.608098 395.838006 
L 415.230559 430.119363 
L 428.853019 347.025233 
L 442.475479 367.520249 
L 456.097939 345.169096 
L 469.7204 457.145656 
L 483.34286 434.176745 
L 496.96532 424.962517 
L 510.58778 381.349439 
L 524.21024 390.472785 
L 537.832701 389.760324 
L 551.455161 374.340823 
L 565.077621 430.752949 
L 578.700081 428.106023 
L 592.322542 388.261304 
L 605.945002 474.689439 
L 619.567462 414.152245 
L 633.189922 374.824985 
L 646.812383 428.238799 
L 660.434843 384.784698 
L 674.057303 414.547981 
L 687.679763 365.951771 
L 701.302224 342.072805 
L 714.924684 394.448291 
L 728.547144 384.292757 
L 742.169604 416.145116 
L 755.792065 414.295119 
L 769.414525 430.196599 
L 783.036985 404.444575 
L 796.659445 469.654725 
L 810.281906 371.162519 
L 823.904366 346.269105 
L 837.526826 271.657366 
L 851.149286 439.495297 
L 864.771747 437.597949 
L 878.394207 437.56397 
L 892.016667 396.710262 
L 905.639127 469.931467 
L 919.261588 366.061759 
L 932.884048 439.569122 
L 946.506508 469.008584 
L 960.128968 454.748453 
L 973.751429 453.456034 
L 987.373889 403.94049 
L 1000.996349 356.325841 
L 1014.618809 416.997858 
L 1028.24127 407.93319 
L 1041.86373 449.710055 
L 1055.48619 464.869598 
L 1069.10865 332.702602 
L 1082.731111 391.101731 
L 1096.353571 390.510448 
L 1109.976031 429.34836 
L 1123.598491 441.650419 
L 1137.220952 400.579602 
L 1150.843412 471.217063 
L 1164.465872 292.564084 
L 1178.088332 409.450632 
L 1191.710793 369.604958 
L 1205.333253 413.987128 
L 1218.955713 431.046066 
L 1232.578173 435.543808 
L 1246.200634 445.333081 
L 1259.823094 454.453015 
L 1273.445554 394.236777 
L 1287.068014 392.551352 
L 1300.690475 380.382479 
L 1314.312935 421.679275 
L 1327.935395 331.733323 
L 1341.557855 468.155296 
L 1355.180316 401.679338 
L 1368.802776 440.443289 
L 1382.425236 456.768615 
L 1396.047696 455.815438 
L 1409.670157 429.801682 
" clip-path="url(#pd5f506042a)" style="fill: none; stroke-dasharray: 5.55,2.4; stroke-dashoffset: 0; stroke: #006e64; stroke-width: 1.5"/>
   </g>
   <g id="line2d_17">
    <path d="M 61.046592 557.698553 
L 74.669052 562.877233 
L 88.291513 557.663892 
L 101.913973 561.507851 
L 115.536433 564.697071 
L 129.158893 565.937907 
L 142.781354 567.009805 
L 156.403814 565.918393 
L 170.026274 571.668706 
L 183.648734 550.950441 
L 197.271195 577.404145 
L 210.893655 572.900673 
L 224.516115 576.934175 
L 238.138575 542.734694 
L 251.761036 574.158157 
L 265.383496 543.985901 
L 279.005956 412.777541 
L 292.628416 296.003027 
L 306.250877 392.955003 
L 319.873337 330.478977 
L 333.495797 459.280582 
L 347.118257 310.678818 
L 360.740718 131.712389 
L 374.363178 431.414237 
L 387.985638 188.294273 
L 401.608098 178.351208 
L 415.230559 384.906557 
L 428.853019 388.777671 
L 442.475479 401.938749 
L 456.097939 363.398184 
L 469.7204 379.289976 
L 483.34286 323.362148 
L 496.96532 374.056985 
L 510.58778 454.300043 
L 524.21024 249.803066 
L 537.832701 420.687752 
L 551.455161 446.439504 
L 565.077621 391.086857 
L 578.700081 440.079075 
L 592.322542 321.743316 
L 605.945002 395.708777 
L 619.567462 312.952797 
L 633.189922 439.147459 
L 646.812383 348.929404 
L 660.434843 455.888854 
L 674.057303 228.191938 
L 687.679763 422.212563 
L 701.302224 429.494373 
L 714.924684 379.965728 
L 728.547144 230.269005 
L 742.169604 460.701955 
L 755.792065 385.129397 
L 769.414525 207.012163 
L 783.036985 332.367182 
L 796.659445 435.988396 
L 810.281906 267.080887 
L 823.904366 347.545421 
L 837.526826 427.451558 
L 851.149286 432.70379 
L 864.771747 459.154492 
L 878.394207 398.358842 
L 892.016667 420.176162 
L 905.639127 418.950882 
L 919.261588 343.582742 
L 932.884048 443.793533 
L 946.506508 470.333617 
L 960.128968 501.860244 
L 973.751429 444.341013 
L 987.373889 421.247514 
L 1000.996349 485.364887 
L 1014.618809 346.131007 
L 1028.24127 434.75875 
L 1041.86373 442.907221 
L 1055.48619 463.960225 
L 1069.10865 453.516213 
L 1082.731111 492.590066 
L 1096.353571 476.488262 
L 1109.976031 392.613578 
L 1123.598491 456.444385 
L 1137.220952 513.550823 
L 1150.843412 447.963359 
L 1164.465872 408.520517 
L 1178.088332 309.138314 
L 1191.710793 403.240447 
L 1205.333253 383.497465 
L 1218.955713 469.493156 
L 1232.578173 385.973679 
L 1246.200634 452.495488 
L 1259.823094 486.847395 
L 1273.445554 392.809809 
L 1287.068014 427.129511 
L 1300.690475 390.639266 
L 1314.312935 347.467775 
L 1327.935395 399.838621 
L 1341.557855 481.583291 
L 1355.180316 429.121017 
L 1368.802776 446.864169 
L 1382.425236 473.635417 
L 1396.047696 437.259527 
L 1409.670157 450.505756 
" clip-path="url(#pd5f506042a)" style="fill: none; stroke-dasharray: 5.55,2.4; stroke-dashoffset: 0; stroke: #734848; stroke-width: 1.5"/>
   </g>
   <g id="line2d_18">
    <path d="M 61.046592 582.58992 
L 74.669052 505.498692 
L 88.291513 582.793656 
L 101.913973 563.829864 
L 115.536433 554.092991 
L 129.158893 581.217536 
L 142.781354 513.214857 
L 156.403814 568.395426 
L 170.026274 566.450863 
L 183.648734 530.127237 
L 197.271195 515.603599 
L 210.893655 501.824082 
L 224.516115 394.540811 
L 238.138575 482.732563 
L 251.761036 463.844779 
L 265.383496 441.185361 
L 279.005956 436.07423 
L 292.628416 356.206165 
L 306.250877 266.523855 
L 319.873337 363.207412 
L 333.495797 302.667899 
L 347.118257 386.153807 
L 360.740718 398.463098 
L 374.363178 335.128326 
L 387.985638 397.609128 
L 401.608098 345.259843 
L 415.230559 355.916323 
L 428.853019 381.521789 
L 442.475479 395.863114 
L 456.097939 364.205212 
L 469.7204 381.64897 
L 483.34286 424.788803 
L 496.96532 377.020363 
L 510.58778 423.960623 
L 524.21024 420.583906 
L 537.832701 293.437295 
L 551.455161 367.586706 
L 565.077621 406.073915 
L 578.700081 432.295636 
L 592.322542 434.890298 
L 605.945002 438.580465 
L 619.567462 426.762159 
L 633.189922 329.773339 
L 646.812383 479.241628 
L 660.434843 420.441168 
L 674.057303 399.895116 
L 687.679763 350.749516 
L 701.302224 404.04188 
L 714.924684 445.949064 
L 728.547144 418.799684 
L 742.169604 374.359927 
L 755.792065 351.830284 
L 769.414525 379.538061 
L 783.036985 378.728031 
L 796.659445 476.994804 
L 810.281906 478.77848 
L 823.904366 485.104111 
L 837.526826 434.330809 
L 851.149286 358.826072 
L 864.771747 462.514015 
L 878.394207 429.489324 
L 892.016667 477.709039 
L 905.639127 400.275022 
L 919.261588 371.174528 
L 932.884048 361.354823 
L 946.506508 442.62352 
L 960.128968 394.350585 
L 973.751429 451.657347 
L 987.373889 445.321891 
L 1000.996349 398.458595 
L 1014.618809 420.419198 
L 1028.24127 281.390554 
L 1041.86373 462.011295 
L 1055.48619 446.277525 
L 1069.10865 402.946784 
L 1082.731111 442.498658 
L 1096.353571 481.134609 
L 1109.976031 451.871181 
L 1123.598491 470.309873 
L 1137.220952 437.00762 
L 1150.843412 396.504616 
L 1164.465872 470.231954 
L 1178.088332 390.239437 
L 1191.710793 467.178375 
L 1205.333253 452.478158 
L 1218.955713 440.792355 
L 1232.578173 359.765058 
L 1246.200634 350.697934 
L 1259.823094 450.195308 
L 1273.445554 433.737888 
L 1287.068014 465.158212 
L 1300.690475 448.581935 
L 1314.312935 463.90796 
L 1327.935395 435.672217 
L 1341.557855 455.140777 
L 1355.180316 450.239658 
L 1368.802776 412.605601 
L 1382.425236 437.041326 
L 1396.047696 460.221887 
L 1409.670157 478.071205 
" clip-path="url(#pd5f506042a)" style="fill: none; stroke-dasharray: 5.55,2.4; stroke-dashoffset: 0; stroke: #004e4a; stroke-width: 1.5"/>
   </g>
   <g id="line2d_19">
    <path d="M 61.046592 553.417784 
L 74.669052 478.131794 
L 88.291513 523.145367 
L 101.913973 558.868703 
L 115.536433 501.167024 
L 129.158893 546.244324 
L 142.781354 521.950791 
L 156.403814 558.825035 
L 170.026274 539.009866 
L 183.648734 514.649603 
L 197.271195 542.206455 
L 210.893655 563.180448 
L 224.516115 518.436931 
L 238.138575 551.694833 
L 251.761036 545.45681 
L 265.383496 533.875127 
L 279.005956 562.577292 
L 292.628416 520.360888 
L 306.250877 531.926606 
L 319.873337 538.396066 
L 333.495797 537.411366 
L 347.118257 587.501683 
L 360.740718 556.563883 
L 374.363178 562.866043 
L 387.985638 571.234762 
L 401.608098 560.915885 
L 415.230559 556.091593 
L 428.853019 509.111077 
L 442.475479 542.527138 
L 456.097939 525.04135 
L 469.7204 534.169472 
L 483.34286 576.714064 
L 496.96532 548.157365 
L 510.58778 546.468392 
L 524.21024 568.375912 
L 537.832701 539.054352 
L 551.455161 582.244812 
L 565.077621 561.92351 
L 578.700081 560.513053 
L 592.322542 577.717049 
L 605.945002 557.021572 
L 619.567462 549.900103 
L 633.189922 558.001496 
L 646.812383 572.29547 
L 660.434843 560.022341 
L 674.057303 572.057346 
L 687.679763 563.875169 
L 701.302224 563.303672 
L 714.924684 535.99395 
L 728.547144 560.215842 
L 742.169604 516.780572 
L 755.792065 540.127615 
L 769.414525 561.629028 
L 783.036985 565.842658 
L 796.659445 556.694067 
L 810.281906 554.29045 
L 823.904366 558.6984 
L 837.526826 534.124167 
L 851.149286 542.386993 
L 864.771747 545.203403 
L 878.394207 570.016987 
L 892.016667 547.410926 
L 905.639127 557.196924 
L 919.261588 529.272038 
L 932.884048 539.128859 
L 946.506508 565.325199 
L 960.128968 569.021098 
L 973.751429 566.023195 
L 987.373889 534.954393 
L 1000.996349 570.659171 
L 1014.618809 571.309269 
L 1028.24127 571.863163 
L 1041.86373 522.786203 
L 1055.48619 575.898848 
L 1069.10865 543.933773 
L 1082.731111 570.151537 
L 1096.353571 567.268262 
L 1109.976031 559.895023 
L 1123.598491 548.333263 
L 1137.220952 564.078086 
L 1150.843412 568.442641 
L 1164.465872 561.530094 
L 1178.088332 540.737866 
L 1191.710793 570.022582 
L 1205.333253 554.313921 
L 1218.955713 540.797909 
L 1232.578173 565.489771 
L 1246.200634 548.65299 
L 1259.823094 562.641429 
L 1273.445554 543.667539 
L 1287.068014 533.876491 
L 1300.690475 556.683014 
L 1314.312935 530.98803 
L 1327.935395 567.36665 
L 1341.557855 554.446697 
L 1355.180316 539.985559 
L 1368.802776 543.931999 
L 1382.425236 554.214168 
L 1396.047696 516.645476 
L 1409.670157 539.392774 
" clip-path="url(#pd5f506042a)" style="fill: none; stroke-dasharray: 5.55,2.4; stroke-dashoffset: 0; stroke: #c17150; stroke-width: 1.5"/>
   </g>
   <g id="line2d_20">
    <path d="M 61.046592 574.077236 
L 74.669052 544.336741 
L 88.291513 567.069029 
L 101.913973 405.407714 
L 115.536433 572.887845 
L 129.158893 415.19303 
L 142.781354 480.283231 
L 156.403814 531.353335 
L 170.026274 570.669405 
L 183.648734 536.304808 
L 197.271195 487.067097 
L 210.893655 556.522809 
L 224.516115 558.195952 
L 238.138575 510.664545 
L 251.761036 498.727109 
L 265.383496 514.570183 
L 279.005956 570.617823 
L 292.628416 534.923417 
L 306.250877 564.916773 
L 319.873337 533.153796 
L 333.495797 514.011104 
L 347.118257 504.099426 
L 360.740718 534.600961 
L 374.363178 555.297802 
L 387.985638 551.067524 
L 401.608098 503.473071 
L 415.230559 532.648755 
L 428.853019 522.378458 
L 442.475479 532.649165 
L 456.097939 501.34606 
L 469.7204 581.484044 
L 483.34286 536.376722 
L 496.96532 499.476414 
L 510.58778 550.252718 
L 524.21024 548.523898 
L 537.832701 501.722009 
L 551.455161 526.020728 
L 565.077621 544.486712 
L 578.700081 574.172758 
L 592.322542 468.506546 
L 605.945002 549.989349 
L 619.567462 526.679423 
L 633.189922 556.884975 
L 646.812383 506.76068 
L 660.434843 544.001048 
L 674.057303 480.687018 
L 687.679763 512.862652 
L 701.302224 545.971403 
L 714.924684 516.385655 
L 728.547144 534.19308 
L 742.169604 550.520044 
L 755.792065 539.697491 
L 769.414525 524.739772 
L 783.036985 504.594368 
L 796.659445 524.790945 
L 810.281906 548.997007 
L 823.904366 553.8621 
L 837.526826 551.048692 
L 851.149286 564.860824 
L 864.771747 537.382573 
L 878.394207 555.149469 
L 892.016667 546.356495 
L 905.639127 549.022116 
L 919.261588 554.824011 
L 932.884048 560.063279 
L 946.506508 504.709814 
L 960.128968 524.376105 
L 973.751429 567.849038 
L 987.373889 523.050936 
L 1000.996349 550.945664 
L 1014.618809 504.127809 
L 1028.24127 511.310276 
L 1041.86373 495.329649 
L 1055.48619 556.607141 
L 1069.10865 577.9811 
L 1082.731111 508.901883 
L 1096.353571 483.171693 
L 1109.976031 524.872958 
L 1123.598491 513.141577 
L 1137.220952 552.022748 
L 1150.843412 540.205806 
L 1164.465872 541.791888 
L 1178.088332 575.870874 
L 1191.710793 556.257939 
L 1205.333253 523.229154 
L 1218.955713 518.385621 
L 1232.578173 510.236877 
L 1246.200634 516.094312 
L 1259.823094 506.244859 
L 1273.445554 547.11658 
L 1287.068014 538.383648 
L 1300.690475 542.929969 
L 1314.312935 568.702053 
L 1327.935395 517.088018 
L 1341.557855 544.047854 
L 1355.180316 538.080023 
L 1368.802776 535.81778 
L 1382.425236 521.678006 
L 1396.047696 499.133761 
L 1409.670157 539.37599 
" clip-path="url(#pd5f506042a)" style="fill: none; stroke: #ffbb00; stroke-width: 1.5; stroke-linecap: round"/>
   </g>
   <g id="patch_3">
    <path d="M 61.046592 614.258685 
L 61.046592 25.604645 
" style="fill: none; stroke: #808080; stroke-width: 0.8; stroke-linejoin: miter; stroke-linecap: square"/>
   </g>
   <g id="patch_4">
    <path d="M 61.046592 614.258685 
L 1423.292617 614.258685 
" style="fill: none; stroke: #808080; stroke-width: 0.8; stroke-linejoin: miter; stroke-linecap: square"/>
   </g>
   <g id="text_18">
    <!-- Validation Loss of LSTM -->
    <g style="fill: #262626" transform="translate(621.262251 19.604645) scale(0.24 -0.24)">
     <defs>
      <path id="CMR17-56" d="M 3776 3745 
C 3834 3886 3936 4160 4365 4160 
L 4365 4332 
C 4218 4319 4051 4319 3891 4319 
C 3738 4319 3475 4319 3328 4332 
L 3328 4160 
C 3648 4160 3661 3936 3661 3898 
C 3661 3827 3642 3783 3622 3732 
L 2362 446 
L 1043 3886 
C 1024 3931 1011 3963 1011 3994 
C 1011 4160 1267 4160 1402 4160 
L 1402 4319 
C 1197 4319 896 4319 685 4319 
C 518 4319 218 4319 64 4332 
L 64 4160 
C 435 4160 506 4135 582 3931 
L 2106 -26 
C 2138 -115 2144 -128 2214 -128 
C 2285 -128 2291 -115 2323 -26 
L 3776 3745 
z
" transform="scale(0.015625)"/>
      <path id="CMR17-61" d="M 2304 1653 
C 2304 2072 2304 2294 2035 2543 
C 1798 2752 1523 2816 1306 2816 
C 800 2816 435 2407 435 1971 
C 435 1728 627 1728 666 1728 
C 749 1728 896 1778 896 1954 
C 896 2112 774 2181 666 2181 
C 640 2181 608 2174 589 2168 
C 723 2592 1069 2714 1293 2714 
C 1613 2714 1965 2429 1965 1885 
L 1965 1600 
C 1587 1600 1133 1549 774 1357 
C 371 1133 256 813 256 570 
C 256 77 832 -64 1171 -64 
C 1523 -64 1850 139 1990 511 
C 2003 233 2182 -18 2464 -18 
C 2598 -18 2938 70 2938 567 
L 2938 920 
L 2822 920 
L 2822 562 
C 2822 178 2650 128 2566 128 
C 2304 128 2304 458 2304 738 
L 2304 1653 
z
M 1965 870 
C 1965 317 1568 38 1216 38 
C 896 38 646 275 646 570 
C 646 761 730 1100 1101 1305 
C 1408 1478 1760 1504 1965 1504 
L 1965 870 
z
" transform="scale(0.015625)"/>
      <path id="CMR17-6c" d="M 979 4396 
L 218 4326 
L 218 4160 
C 595 4160 653 4122 653 3817 
L 653 426 
C 653 184 627 153 218 153 
L 218 -13 
C 371 0 653 0 813 0 
C 979 0 1261 0 1414 -13 
L 1414 153 
C 1005 153 979 178 979 426 
L 979 4396 
z
" transform="scale(0.015625)"/>
      <path id="CMR17-69" d="M 992 3909 
C 992 4049 877 4170 730 4170 
C 589 4170 467 4056 467 3909 
C 467 3769 582 3648 730 3648 
C 870 3648 992 3763 992 3909 
z
M 243 2706 
L 243 2541 
C 602 2541 653 2502 653 2197 
L 653 427 
C 653 184 627 153 218 153 
L 218 -13 
C 371 0 646 0 806 0 
C 960 0 1222 0 1370 -13 
L 1370 153 
C 992 153 979 191 979 420 
L 979 2776 
L 243 2706 
z
" transform="scale(0.015625)"/>
      <path id="CMR17-64" d="M 1869 4326 
L 1869 4160 
C 2246 4160 2304 4122 2304 3820 
L 2304 2345 
C 2278 2377 2016 2790 1498 2790 
C 845 2790 211 2208 211 1364 
C 211 525 806 -64 1434 -64 
C 1978 -64 2259 337 2291 380 
L 2291 -63 
L 3066 -63 
L 3066 128 
C 2688 128 2630 166 2630 473 
L 2630 4396 
L 1869 4326 
z
M 2291 755 
C 2291 563 2176 390 2029 262 
C 1811 70 1594 38 1472 38 
C 1286 38 621 134 621 1356 
C 621 2612 1363 2688 1530 2688 
C 1824 2688 2061 2522 2208 2291 
C 2291 2157 2291 2138 2291 2023 
L 2291 755 
z
" transform="scale(0.015625)"/>
      <path id="CMR17-74" d="M 966 2560 
L 1862 2560 
L 1862 2725 
L 966 2725 
L 966 3904 
L 851 3904 
C 838 3245 614 2668 70 2668 
L 70 2560 
L 627 2560 
L 627 771 
C 627 650 627 -64 1370 -64 
C 1747 -64 1965 306 1965 777 
L 1965 1140 
L 1850 1140 
L 1850 783 
C 1850 344 1677 51 1408 51 
C 1222 51 966 178 966 758 
L 966 2560 
z
" transform="scale(0.015625)"/>
      <path id="CMR17-6e" d="M 2656 1933 
C 2656 2259 2592 2790 1837 2790 
C 1331 2790 1069 2400 973 2144 
L 966 2144 
L 966 2790 
L 211 2720 
L 211 2554 
C 589 2554 646 2515 646 2208 
L 646 428 
C 646 184 621 153 211 153 
L 211 -13 
C 365 0 646 0 813 0 
C 979 0 1267 0 1421 -13 
L 1421 153 
C 1011 153 986 178 986 428 
L 986 1658 
C 986 2247 1344 2688 1792 2688 
C 2266 2688 2317 2266 2317 1958 
L 2317 428 
C 2317 184 2291 153 1882 153 
L 1882 -13 
C 2035 0 2317 0 2483 0 
C 2650 0 2938 0 3091 -13 
L 3091 153 
C 2682 153 2656 178 2656 428 
L 2656 1933 
z
" transform="scale(0.015625)"/>
      <path id="CMR17-66" d="M 979 2560 
L 1709 2560 
L 1709 2725 
L 966 2725 
L 966 3494 
C 966 4022 1235 4352 1510 4352 
C 1594 4352 1690 4327 1754 4282 
C 1702 4269 1568 4225 1568 4067 
C 1568 3901 1696 3850 1786 3850 
C 1875 3850 2003 3901 2003 4067 
C 2003 4308 1773 4454 1517 4454 
C 1152 4454 653 4156 653 3481 
L 653 2725 
L 141 2725 
L 141 2560 
L 653 2560 
L 653 427 
C 653 184 627 153 218 153 
L 218 -13 
C 371 0 666 0 832 0 
C 1018 0 1344 0 1517 -13 
L 1517 153 
C 1056 153 979 153 979 439 
L 979 2560 
z
" transform="scale(0.015625)"/>
      <path id="CMR17-53" d="M 2803 4290 
C 2803 4404 2797 4411 2758 4411 
C 2720 4411 2707 4385 2682 4328 
L 2490 3907 
C 2246 4257 1875 4416 1472 4416 
C 819 4416 294 3901 294 3253 
C 294 3056 339 2776 557 2510 
C 794 2218 1018 2167 1530 2033 
C 1722 1982 2042 1899 2106 1874 
C 2470 1722 2662 1341 2662 985 
C 2662 527 2336 38 1779 38 
C 1094 38 454 419 410 1311 
C 403 1413 397 1419 352 1419 
C 301 1419 294 1413 294 1285 
L 294 -1 
C 294 -115 301 -122 339 -122 
C 384 -122 397 -90 486 108 
C 493 127 493 140 614 381 
C 934 -39 1472 -128 1779 -128 
C 2477 -128 2970 451 2970 1124 
C 2970 1454 2848 1708 2778 1823 
C 2509 2230 2221 2306 1914 2382 
C 1869 2402 1856 2402 1498 2490 
C 1152 2579 1005 2624 845 2796 
C 666 2992 602 3196 602 3399 
C 602 3812 934 4263 1478 4263 
C 2157 4263 2579 3786 2675 2993 
C 2694 2878 2701 2872 2746 2872 
C 2803 2872 2803 2891 2803 2999 
L 2803 4290 
z
" transform="scale(0.015625)"/>
      <path id="CMR17-54" d="M 3981 4326 
L 288 4326 
L 179 2918 
L 294 2918 
C 378 3976 467 4160 1453 4160 
C 1568 4160 1754 4160 1805 4154 
C 1926 4135 1926 4058 1926 3912 
L 1926 459 
C 1926 230 1907 160 1376 160 
L 1197 160 
L 1197 0 
C 1504 0 1824 0 2138 0 
C 2451 0 2771 0 3078 0 
L 3078 160 
L 2899 160 
C 2368 160 2349 230 2349 459 
L 2349 3912 
C 2349 4052 2349 4129 2464 4154 
C 2515 4160 2701 4160 2816 4160 
C 3795 4160 3891 3976 3974 2918 
L 4090 2918 
L 3981 4326 
z
" transform="scale(0.015625)"/>
      <path id="CMR17-4d" d="M 1338 4224 
C 1299 4320 1293 4320 1158 4320 
L 339 4320 
L 339 4160 
C 781 4160 851 4160 851 3875 
L 851 610 
C 851 451 851 153 339 153 
L 339 -13 
C 486 0 755 0 915 0 
C 1075 0 1344 0 1491 -13 
L 1491 153 
C 979 153 979 451 979 610 
L 979 4135 
L 986 4135 
L 2490 89 
C 2515 25 2528 -13 2579 -13 
C 2630 -13 2643 25 2669 89 
L 4186 4166 
L 4192 4166 
L 4192 438 
C 4192 153 4122 153 3680 153 
L 3680 -13 
C 3853 0 4198 0 4384 0 
C 4570 0 4922 0 5094 -13 
L 5094 153 
C 4653 153 4582 153 4582 438 
L 4582 3875 
C 4582 4160 4653 4160 5094 4160 
L 5094 4320 
L 4282 4320 
C 4147 4320 4141 4314 4102 4218 
L 2720 502 
L 1338 4224 
z
" transform="scale(0.015625)"/>
     </defs>
     <use xlink:href="#CMR17-56" transform="scale(0.996264)"/>
     <use xlink:href="#CMR17-61" transform="translate(61.265174 0) scale(0.996264)"/>
     <use xlink:href="#CMR17-6c" transform="translate(106.955652 0) scale(0.996264)"/>
     <use xlink:href="#CMR17-69" transform="translate(131.82671 0) scale(0.996264)"/>
     <use xlink:href="#CMR17-64" transform="translate(156.697768 0) scale(0.996264)"/>
     <use xlink:href="#CMR17-61" transform="translate(207.593138 0) scale(0.996264)"/>
     <use xlink:href="#CMR17-74" transform="translate(253.283615 0) scale(0.996264)"/>
     <use xlink:href="#CMR17-69" transform="translate(288.564383 0) scale(0.996264)"/>
     <use xlink:href="#CMR17-6f" transform="translate(313.435442 0) scale(0.996264)"/>
     <use xlink:href="#CMR17-6e" transform="translate(359.125919 0) scale(0.996264)"/>
     <use xlink:href="#CMR17-4c" transform="translate(440.097255 0) scale(0.996264)"/>
     <use xlink:href="#CMR17-6f" transform="translate(497.478663 0) scale(0.996264)"/>
     <use xlink:href="#CMR17-73" transform="translate(543.16914 0) scale(0.996264)"/>
     <use xlink:href="#CMR17-73" transform="translate(578.970478 0) scale(0.996264)"/>
     <use xlink:href="#CMR17-6f" transform="translate(644.847782 0) scale(0.996264)"/>
     <use xlink:href="#CMR17-66" transform="translate(690.538259 0) scale(0.996264)"/>
     <use xlink:href="#CMR17-4c" transform="translate(748.087737 0) scale(0.996264)"/>
     <use xlink:href="#CMR17-53" transform="translate(805.469145 0) scale(0.996264)"/>
     <use xlink:href="#CMR17-54" transform="translate(856.364515 0) scale(0.996264)"/>
     <use xlink:href="#CMR17-4d" transform="translate(922.874396 0) scale(0.996264)"/>
    </g>
   </g>
   <g id="legend_1">
    <g id="patch_5">
     <path d="M 270.396932 716.999722 
L 1213.942277 716.999722 
Q 1217.942277 716.999722 1217.942277 712.999722 
L 1217.942277 687.124089 
Q 1217.942277 683.124089 1213.942277 683.124089 
L 270.396932 683.124089 
Q 266.396932 683.124089 266.396932 687.124089 
L 266.396932 712.999722 
Q 266.396932 716.999722 270.396932 716.999722 
z
" style="fill: #ffffff; opacity: 0.8"/>
    </g>
    <g id="line2d_21">
     <path d="M 274.396932 698.124089 
L 294.396932 698.124089 
L 314.396932 698.124089 
" style="fill: none; stroke-dasharray: 5.55,2.4; stroke-dashoffset: 0; stroke: #006e64; stroke-width: 1.5"/>
    </g>
    <g id="text_19">
     <!-- 4 batch size -->
     <g style="fill: #262626" transform="translate(330.396932 705.124089) scale(0.2 -0.2)">
      <defs>
       <path id="CMR17-62" d="M 960 4396 
L 198 4326 
L 198 4160 
C 576 4160 634 4122 634 3817 
L 634 -13 
L 749 -13 
L 934 441 
C 1120 141 1395 -64 1766 -64 
C 2406 -64 3053 500 3053 1370 
C 3053 2188 2477 2790 1830 2790 
C 1434 2790 1152 2579 960 2330 
L 960 4396 
z
M 973 2004 
C 973 2118 973 2138 1062 2272 
C 1312 2657 1670 2688 1792 2688 
C 1984 2688 2643 2585 2643 1376 
C 2643 108 1888 38 1734 38 
C 1536 38 1248 114 1043 486 
C 973 608 973 621 973 735 
L 973 2004 
z
" transform="scale(0.015625)"/>
       <path id="CMR17-7a" d="M 2310 2605 
C 2362 2670 2362 2682 2362 2695 
C 2362 2752 2336 2752 2221 2752 
L 275 2752 
L 211 1760 
L 326 1760 
C 371 2381 442 2650 1178 2650 
L 1958 2650 
L 128 96 
C 128 0 134 0 269 0 
L 2291 0 
L 2381 1152 
L 2266 1152 
C 2214 442 2131 115 1350 115 
L 531 115 
L 2310 2605 
z
" transform="scale(0.015625)"/>
       <path id="CMR17-65" d="M 2438 1472 
C 2464 1498 2464 1511 2464 1576 
C 2464 2238 2118 2816 1389 2816 
C 710 2816 173 2169 173 1383 
C 173 551 781 -64 1459 -64 
C 2176 -64 2458 607 2458 740 
C 2458 784 2419 784 2406 784 
C 2362 784 2355 771 2330 696 
C 2189 265 1837 51 1504 51 
C 1229 51 954 203 781 480 
C 582 803 582 1176 582 1472 
L 2438 1472 
z
M 589 1568 
C 634 2505 1126 2714 1382 2714 
C 1818 2714 2112 2297 2118 1568 
L 589 1568 
z
" transform="scale(0.015625)"/>
      </defs>
      <use xlink:href="#CMR17-34" transform="scale(0.996264)"/>
      <use xlink:href="#CMR17-62" transform="translate(75.766443 0) scale(0.996264)"/>
      <use xlink:href="#CMR17-61" transform="translate(126.661813 0) scale(0.996264)"/>
      <use xlink:href="#CMR17-74" transform="translate(172.35229 0) scale(0.996264)"/>
      <use xlink:href="#CMR17-63" transform="translate(207.633058 0) scale(0.996264)"/>
      <use xlink:href="#CMR17-68" transform="translate(245.516265 0) scale(0.996264)"/>
      <use xlink:href="#CMR17-73" transform="translate(326.487601 0) scale(0.996264)"/>
      <use xlink:href="#CMR17-69" transform="translate(362.288938 0) scale(0.996264)"/>
      <use xlink:href="#CMR17-7a" transform="translate(387.159997 0) scale(0.996264)"/>
      <use xlink:href="#CMR17-65" transform="translate(427.645657 0) scale(0.996264)"/>
     </g>
    </g>
    <g id="line2d_22">
     <path d="M 464.023143 698.124089 
L 484.023143 698.124089 
L 504.023143 698.124089 
" style="fill: none; stroke-dasharray: 5.55,2.4; stroke-dashoffset: 0; stroke: #734848; stroke-width: 1.5"/>
    </g>
    <g id="text_20">
     <!-- 8 batch size -->
     <g style="fill: #262626" transform="translate(520.023143 705.124089) scale(0.2 -0.2)">
      <use xlink:href="#CMR17-38" transform="scale(0.996264)"/>
      <use xlink:href="#CMR17-62" transform="translate(75.766443 0) scale(0.996264)"/>
      <use xlink:href="#CMR17-61" transform="translate(126.661813 0) scale(0.996264)"/>
      <use xlink:href="#CMR17-74" transform="translate(172.35229 0) scale(0.996264)"/>
      <use xlink:href="#CMR17-63" transform="translate(207.633058 0) scale(0.996264)"/>
      <use xlink:href="#CMR17-68" transform="translate(245.516265 0) scale(0.996264)"/>
      <use xlink:href="#CMR17-73" transform="translate(326.487601 0) scale(0.996264)"/>
      <use xlink:href="#CMR17-69" transform="translate(362.288938 0) scale(0.996264)"/>
      <use xlink:href="#CMR17-7a" transform="translate(387.159997 0) scale(0.996264)"/>
      <use xlink:href="#CMR17-65" transform="translate(427.645657 0) scale(0.996264)"/>
     </g>
    </g>
    <g id="line2d_23">
     <path d="M 653.649355 698.124089 
L 673.649355 698.124089 
L 693.649355 698.124089 
" style="fill: none; stroke-dasharray: 5.55,2.4; stroke-dashoffset: 0; stroke: #004e4a; stroke-width: 1.5"/>
    </g>
    <g id="text_21">
     <!-- 16 batch size -->
     <g style="fill: #262626" transform="translate(709.649355 705.124089) scale(0.2 -0.2)">
      <use xlink:href="#CMR17-31" transform="scale(0.996264)"/>
      <use xlink:href="#CMR17-36" transform="translate(45.690477 0) scale(0.996264)"/>
      <use xlink:href="#CMR17-62" transform="translate(121.456921 0) scale(0.996264)"/>
      <use xlink:href="#CMR17-61" transform="translate(172.35229 0) scale(0.996264)"/>
      <use xlink:href="#CMR17-74" transform="translate(218.042767 0) scale(0.996264)"/>
      <use xlink:href="#CMR17-63" transform="translate(253.323535 0) scale(0.996264)"/>
      <use xlink:href="#CMR17-68" transform="translate(291.206742 0) scale(0.996264)"/>
      <use xlink:href="#CMR17-73" transform="translate(372.178078 0) scale(0.996264)"/>
      <use xlink:href="#CMR17-69" transform="translate(407.979416 0) scale(0.996264)"/>
      <use xlink:href="#CMR17-7a" transform="translate(432.850474 0) scale(0.996264)"/>
      <use xlink:href="#CMR17-65" transform="translate(473.336135 0) scale(0.996264)"/>
     </g>
    </g>
    <g id="line2d_24">
     <path d="M 852.413663 698.124089 
L 872.413663 698.124089 
L 892.413663 698.124089 
" style="fill: none; stroke-dasharray: 5.55,2.4; stroke-dashoffset: 0; stroke: #c17150; stroke-width: 1.5"/>
    </g>
    <g id="text_22">
     <!-- 32 batch size -->
     <g style="fill: #262626" transform="translate(908.413663 705.124089) scale(0.2 -0.2)">
      <defs>
       <path id="CMR17-33" d="M 1414 2157 
C 1984 2157 2234 1662 2234 1090 
C 2234 320 1824 25 1453 25 
C 1114 25 563 194 390 693 
C 422 680 454 680 486 680 
C 640 680 755 782 755 948 
C 755 1133 614 1216 486 1216 
C 378 1216 211 1165 211 926 
C 211 335 787 -128 1466 -128 
C 2176 -128 2720 430 2720 1085 
C 2720 1707 2208 2157 1600 2227 
C 2086 2328 2554 2756 2554 3329 
C 2554 3820 2048 4179 1472 4179 
C 890 4179 378 3829 378 3329 
C 378 3110 544 3072 627 3072 
C 762 3072 877 3155 877 3321 
C 877 3486 762 3569 627 3569 
C 602 3569 570 3569 544 3557 
C 730 3959 1235 4032 1459 4032 
C 1683 4032 2106 3925 2106 3320 
C 2106 3143 2080 2828 1862 2550 
C 1670 2304 1453 2304 1242 2284 
C 1210 2284 1062 2269 1037 2269 
C 992 2263 966 2257 966 2208 
C 966 2163 973 2157 1101 2157 
L 1414 2157 
z
" transform="scale(0.015625)"/>
      </defs>
      <use xlink:href="#CMR17-33" transform="scale(0.996264)"/>
      <use xlink:href="#CMR17-32" transform="translate(45.690477 0) scale(0.996264)"/>
      <use xlink:href="#CMR17-62" transform="translate(121.456921 0) scale(0.996264)"/>
      <use xlink:href="#CMR17-61" transform="translate(172.35229 0) scale(0.996264)"/>
      <use xlink:href="#CMR17-74" transform="translate(218.042767 0) scale(0.996264)"/>
      <use xlink:href="#CMR17-63" transform="translate(253.323535 0) scale(0.996264)"/>
      <use xlink:href="#CMR17-68" transform="translate(291.206742 0) scale(0.996264)"/>
      <use xlink:href="#CMR17-73" transform="translate(372.178078 0) scale(0.996264)"/>
      <use xlink:href="#CMR17-69" transform="translate(407.979416 0) scale(0.996264)"/>
      <use xlink:href="#CMR17-7a" transform="translate(432.850474 0) scale(0.996264)"/>
      <use xlink:href="#CMR17-65" transform="translate(473.336135 0) scale(0.996264)"/>
     </g>
    </g>
    <g id="line2d_25">
     <path d="M 1051.17797 698.124089 
L 1071.17797 698.124089 
L 1091.17797 698.124089 
" style="fill: none; stroke: #ffbb00; stroke-width: 1.5; stroke-linecap: round"/>
    </g>
    <g id="text_23">
     <!-- 64 batch size -->
     <g style="fill: #262626" transform="translate(1107.17797 705.124089) scale(0.2 -0.2)">
      <use xlink:href="#CMR17-36" transform="scale(0.996264)"/>
      <use xlink:href="#CMR17-34" transform="translate(45.690477 0) scale(0.996264)"/>
      <use xlink:href="#CMR17-62" transform="translate(121.456921 0) scale(0.996264)"/>
      <use xlink:href="#CMR17-61" transform="translate(172.35229 0) scale(0.996264)"/>
      <use xlink:href="#CMR17-74" transform="translate(218.042767 0) scale(0.996264)"/>
      <use xlink:href="#CMR17-63" transform="translate(253.323535 0) scale(0.996264)"/>
      <use xlink:href="#CMR17-68" transform="translate(291.206742 0) scale(0.996264)"/>
      <use xlink:href="#CMR17-73" transform="translate(372.178078 0) scale(0.996264)"/>
      <use xlink:href="#CMR17-69" transform="translate(407.979416 0) scale(0.996264)"/>
      <use xlink:href="#CMR17-7a" transform="translate(432.850474 0) scale(0.996264)"/>
      <use xlink:href="#CMR17-65" transform="translate(473.336135 0) scale(0.996264)"/>
     </g>
    </g>
   </g>
  </g>
 </g>
 <defs>
  <clipPath id="pd5f506042a">
   <rect x="61.046592" y="25.604645" width="1362.246025" height="588.65404"/>
  </clipPath>
 </defs>
</svg>
