<?xml version="1.0" encoding="utf-8" standalone="no"?>
<!DOCTYPE svg PUBLIC "-//W3C//DTD SVG 1.1//EN"
  "http://www.w3.org/Graphics/SVG/1.1/DTD/svg11.dtd">
<svg xmlns:xlink="http://www.w3.org/1999/xlink" width="1440pt" height="720pt" viewBox="0 0 1440 720" xmlns="http://www.w3.org/2000/svg" version="1.1">
 <metadata>
  <rdf:RDF xmlns:dc="http://purl.org/dc/elements/1.1/" xmlns:cc="http://creativecommons.org/ns#" xmlns:rdf="http://www.w3.org/1999/02/22-rdf-syntax-ns#">
   <cc:Work>
    <dc:type rdf:resource="http://purl.org/dc/dcmitype/StillImage"/>
    <dc:date>2023-12-17T17:31:44.187762</dc:date>
    <dc:format>image/svg+xml</dc:format>
    <dc:creator>
     <cc:Agent>
      <dc:title>Matplotlib v3.8.0, https://matplotlib.org/</dc:title>
     </cc:Agent>
    </dc:creator>
   </cc:Work>
  </rdf:RDF>
 </metadata>
 <defs>
  <style type="text/css">*{stroke-linejoin: round; stroke-linecap: butt}</style>
 </defs>
 <g id="figure_1">
  <g id="patch_1">
   <path d="M 0 720 
L 1440 720 
L 1440 0 
L 0 0 
z
" style="fill: #ffffff"/>
  </g>
  <g id="axes_1">
   <g id="patch_2">
    <path d="M 37.350966 614.258685 
L 1436.99976 614.258685 
L 1436.99976 25.604645 
L 37.350966 25.604645 
z
" style="fill: #ffffff"/>
   </g>
   <g id="matplotlib.axis_1">
    <g id="xtick_1">
     <g id="line2d_1">
      <path d="M 74.950752 614.258685 
L 74.950752 25.604645 
" clip-path="url(#p27aa06f14e)" style="fill: none; stroke: #cccccc; stroke-opacity: 0.35; stroke-width: 0.8; stroke-linecap: round"/>
     </g>
     <g id="text_1">
      <!-- $\mathdefault{0}$ -->
      <g transform="translate(70.381704 631.595682) scale(0.2 -0.2)">
       <defs>
        <path id="CMR17-30" d="M 2688 2025 
C 2688 2416 2682 3080 2413 3591 
C 2176 4039 1798 4198 1466 4198 
C 1158 4198 768 4058 525 3597 
C 269 3118 243 2524 243 2025 
C 243 1661 250 1106 448 619 
C 723 -39 1216 -128 1466 -128 
C 1760 -128 2208 -7 2470 600 
C 2662 1042 2688 1559 2688 2025 
z
M 1466 -26 
C 1056 -26 813 325 723 812 
C 653 1188 653 1738 653 2096 
C 653 2588 653 2997 736 3387 
C 858 3929 1216 4096 1466 4096 
C 1728 4096 2067 3923 2189 3400 
C 2272 3036 2278 2607 2278 2096 
C 2278 1680 2278 1169 2202 792 
C 2067 95 1690 -26 1466 -26 
z
" transform="scale(0.015625)"/>
       </defs>
       <use xlink:href="#CMR17-30" transform="scale(0.996264)"/>
      </g>
     </g>
    </g>
    <g id="xtick_2">
     <g id="line2d_2">
      <path d="M 335.156886 614.258685 
L 335.156886 25.604645 
" clip-path="url(#p27aa06f14e)" style="fill: none; stroke: #cccccc; stroke-opacity: 0.35; stroke-width: 0.8; stroke-linecap: round"/>
     </g>
     <g id="text_2">
      <!-- $\mathdefault{100}$ -->
      <g transform="translate(321.449743 631.595682) scale(0.2 -0.2)">
       <defs>
        <path id="CMR17-31" d="M 1702 4058 
C 1702 4192 1696 4192 1606 4192 
C 1357 3916 979 3827 621 3827 
C 602 3827 570 3827 563 3808 
C 557 3795 557 3782 557 3648 
C 755 3648 1088 3686 1344 3839 
L 1344 461 
C 1344 236 1331 160 781 160 
L 589 160 
L 589 0 
C 896 0 1216 0 1523 0 
C 1830 0 2150 0 2458 0 
L 2458 160 
L 2266 160 
C 1715 160 1702 230 1702 458 
L 1702 4058 
z
" transform="scale(0.015625)"/>
       </defs>
       <use xlink:href="#CMR17-31" transform="scale(0.996264)"/>
       <use xlink:href="#CMR17-30" transform="translate(45.690477 0) scale(0.996264)"/>
       <use xlink:href="#CMR17-30" transform="translate(91.380954 0) scale(0.996264)"/>
      </g>
     </g>
    </g>
    <g id="xtick_3">
     <g id="line2d_3">
      <path d="M 595.36302 614.258685 
L 595.36302 25.604645 
" clip-path="url(#p27aa06f14e)" style="fill: none; stroke: #cccccc; stroke-opacity: 0.35; stroke-width: 0.8; stroke-linecap: round"/>
     </g>
     <g id="text_3">
      <!-- $\mathdefault{200}$ -->
      <g transform="translate(581.655877 631.595682) scale(0.2 -0.2)">
       <defs>
        <path id="CMR17-32" d="M 2669 989 
L 2554 989 
C 2490 536 2438 459 2413 420 
C 2381 369 1920 369 1830 369 
L 602 369 
C 832 619 1280 1072 1824 1597 
C 2214 1967 2669 2402 2669 3035 
C 2669 3790 2067 4224 1395 4224 
C 691 4224 262 3604 262 3030 
C 262 2780 448 2748 525 2748 
C 589 2748 781 2787 781 3010 
C 781 3207 614 3264 525 3264 
C 486 3264 448 3258 422 3245 
C 544 3790 915 4058 1306 4058 
C 1862 4058 2227 3617 2227 3035 
C 2227 2479 1901 2000 1536 1584 
L 262 146 
L 262 0 
L 2515 0 
L 2669 989 
z
" transform="scale(0.015625)"/>
       </defs>
       <use xlink:href="#CMR17-32" transform="scale(0.996264)"/>
       <use xlink:href="#CMR17-30" transform="translate(45.690477 0) scale(0.996264)"/>
       <use xlink:href="#CMR17-30" transform="translate(91.380954 0) scale(0.996264)"/>
      </g>
     </g>
    </g>
    <g id="xtick_4">
     <g id="line2d_4">
      <path d="M 855.569154 614.258685 
L 855.569154 25.604645 
" clip-path="url(#p27aa06f14e)" style="fill: none; stroke: #cccccc; stroke-opacity: 0.35; stroke-width: 0.8; stroke-linecap: round"/>
     </g>
     <g id="text_4">
      <!-- $\mathdefault{300}$ -->
      <g transform="translate(841.862011 631.595682) scale(0.2 -0.2)">
       <defs>
        <path id="CMR17-33" d="M 1414 2157 
C 1984 2157 2234 1662 2234 1090 
C 2234 320 1824 25 1453 25 
C 1114 25 563 194 390 693 
C 422 680 454 680 486 680 
C 640 680 755 782 755 948 
C 755 1133 614 1216 486 1216 
C 378 1216 211 1165 211 926 
C 211 335 787 -128 1466 -128 
C 2176 -128 2720 430 2720 1085 
C 2720 1707 2208 2157 1600 2227 
C 2086 2328 2554 2756 2554 3329 
C 2554 3820 2048 4179 1472 4179 
C 890 4179 378 3829 378 3329 
C 378 3110 544 3072 627 3072 
C 762 3072 877 3155 877 3321 
C 877 3486 762 3569 627 3569 
C 602 3569 570 3569 544 3557 
C 730 3959 1235 4032 1459 4032 
C 1683 4032 2106 3925 2106 3320 
C 2106 3143 2080 2828 1862 2550 
C 1670 2304 1453 2304 1242 2284 
C 1210 2284 1062 2269 1037 2269 
C 992 2263 966 2257 966 2208 
C 966 2163 973 2157 1101 2157 
L 1414 2157 
z
" transform="scale(0.015625)"/>
       </defs>
       <use xlink:href="#CMR17-33" transform="scale(0.996264)"/>
       <use xlink:href="#CMR17-30" transform="translate(45.690477 0) scale(0.996264)"/>
       <use xlink:href="#CMR17-30" transform="translate(91.380954 0) scale(0.996264)"/>
      </g>
     </g>
    </g>
    <g id="xtick_5">
     <g id="line2d_5">
      <path d="M 1115.775288 614.258685 
L 1115.775288 25.604645 
" clip-path="url(#p27aa06f14e)" style="fill: none; stroke: #cccccc; stroke-opacity: 0.35; stroke-width: 0.8; stroke-linecap: round"/>
     </g>
     <g id="text_5">
      <!-- $\mathdefault{400}$ -->
      <g transform="translate(1102.068145 631.595682) scale(0.2 -0.2)">
       <defs>
        <path id="CMR17-34" d="M 2150 4122 
C 2150 4256 2144 4256 2029 4256 
L 128 1254 
L 128 1088 
L 1779 1088 
L 1779 457 
C 1779 224 1766 160 1318 160 
L 1197 160 
L 1197 0 
C 1402 0 1747 0 1965 0 
C 2182 0 2528 0 2733 0 
L 2733 160 
L 2611 160 
C 2163 160 2150 224 2150 457 
L 2150 1088 
L 2803 1088 
L 2803 1254 
L 2150 1254 
L 2150 4122 
z
M 1798 3703 
L 1798 1254 
L 256 1254 
L 1798 3703 
z
" transform="scale(0.015625)"/>
       </defs>
       <use xlink:href="#CMR17-34" transform="scale(0.996264)"/>
       <use xlink:href="#CMR17-30" transform="translate(45.690477 0) scale(0.996264)"/>
       <use xlink:href="#CMR17-30" transform="translate(91.380954 0) scale(0.996264)"/>
      </g>
     </g>
    </g>
    <g id="xtick_6">
     <g id="line2d_6">
      <path d="M 1375.981422 614.258685 
L 1375.981422 25.604645 
" clip-path="url(#p27aa06f14e)" style="fill: none; stroke: #cccccc; stroke-opacity: 0.35; stroke-width: 0.8; stroke-linecap: round"/>
     </g>
     <g id="text_6">
      <!-- $\mathdefault{500}$ -->
      <g transform="translate(1362.274278 631.595682) scale(0.2 -0.2)">
       <defs>
        <path id="CMR17-35" d="M 730 3692 
C 794 3666 1056 3584 1325 3584 
C 1920 3584 2246 3911 2432 4100 
C 2432 4157 2432 4192 2394 4192 
C 2387 4192 2374 4192 2323 4163 
C 2099 4058 1837 3973 1517 3973 
C 1325 3973 1037 3999 723 4139 
C 653 4171 640 4171 634 4171 
C 602 4171 595 4164 595 4037 
L 595 2203 
C 595 2089 595 2057 659 2057 
C 691 2057 704 2070 736 2114 
C 941 2401 1222 2522 1542 2522 
C 1766 2522 2246 2382 2246 1289 
C 2246 1085 2246 715 2054 421 
C 1894 159 1645 25 1370 25 
C 947 25 518 320 403 814 
C 429 807 480 795 506 795 
C 589 795 749 840 749 1038 
C 749 1210 627 1280 506 1280 
C 358 1280 262 1190 262 1011 
C 262 454 704 -128 1382 -128 
C 2042 -128 2669 440 2669 1264 
C 2669 2030 2170 2624 1549 2624 
C 1222 2624 947 2503 730 2274 
L 730 3692 
z
" transform="scale(0.015625)"/>
       </defs>
       <use xlink:href="#CMR17-35" transform="scale(0.996264)"/>
       <use xlink:href="#CMR17-30" transform="translate(45.690477 0) scale(0.996264)"/>
       <use xlink:href="#CMR17-30" transform="translate(91.380954 0) scale(0.996264)"/>
      </g>
     </g>
    </g>
    <g id="text_7">
     <!-- Epoch -->
     <g style="fill: #696969" transform="translate(711.859827 653.308312) scale(0.2 -0.2)">
      <defs>
       <path id="CMR17-45" d="M 3885 1615 
L 3770 1615 
C 3629 676 3546 166 2419 166 
L 1530 166 
C 1274 166 1261 197 1261 414 
L 1261 2176 
L 1862 2176 
C 2464 2176 2522 1960 2522 1430 
L 2637 1430 
L 2637 3081 
L 2522 3081 
C 2522 2557 2464 2342 1862 2342 
L 1261 2342 
L 1261 3913 
C 1261 4128 1274 4160 1530 4160 
L 2406 4160 
C 3398 4160 3514 3769 3603 2929 
L 3718 2929 
L 3565 4325 
L 326 4325 
L 326 4160 
C 768 4160 838 4160 838 3874 
L 838 451 
C 838 166 768 166 326 166 
L 326 0 
L 3654 0 
L 3885 1615 
z
" transform="scale(0.015625)"/>
       <path id="CMR17-70" d="M 1408 -1063 
C 998 -1063 973 -1037 973 -789 
L 973 402 
C 1158 134 1427 -38 1766 -38 
C 2406 -38 3053 523 3053 1388 
C 3053 2191 2496 2802 1837 2802 
C 1453 2802 1139 2592 960 2338 
L 960 2802 
L 198 2732 
L 198 2567 
C 576 2567 634 2528 634 2223 
L 634 -789 
C 634 -1031 608 -1063 198 -1063 
L 198 -1228 
C 352 -1216 634 -1216 800 -1216 
C 966 -1216 1254 -1216 1408 -1228 
L 1408 -1063 
z
M 973 2012 
C 973 2102 973 2235 1222 2471 
C 1254 2497 1472 2688 1792 2688 
C 2259 2688 2643 2108 2643 1382 
C 2643 656 2234 64 1728 64 
C 1498 64 1248 172 1056 472 
C 973 612 973 650 973 752 
L 973 2012 
z
" transform="scale(0.015625)"/>
       <path id="CMR17-6f" d="M 2758 1356 
C 2758 2176 2163 2816 1466 2816 
C 768 2816 173 2176 173 1356 
C 173 551 768 -64 1466 -64 
C 2163 -64 2758 551 2758 1356 
z
M 1466 51 
C 1165 51 909 230 762 480 
C 602 767 582 1126 582 1408 
C 582 1677 595 2010 762 2298 
C 890 2509 1139 2714 1466 2714 
C 1754 2714 1997 2554 2150 2330 
C 2349 2029 2349 1607 2349 1408 
C 2349 1158 2336 775 2163 467 
C 1984 173 1709 51 1466 51 
z
" transform="scale(0.015625)"/>
       <path id="CMR17-63" d="M 2234 2240 
C 2112 2240 1933 2240 1933 2017 
C 1933 1838 2080 1787 2163 1787 
C 2208 1787 2394 1807 2394 2024 
C 2394 2467 1958 2803 1466 2803 
C 787 2803 211 2178 211 1363 
C 211 516 813 -64 1466 -64 
C 2259 -64 2458 677 2458 748 
C 2458 774 2451 793 2406 793 
C 2362 793 2355 787 2330 703 
C 2163 180 1798 51 1523 51 
C 1114 51 621 427 621 1369 
C 621 2338 1094 2688 1472 2688 
C 1722 2688 2093 2573 2234 2240 
z
" transform="scale(0.015625)"/>
       <path id="CMR17-68" d="M 2656 1933 
C 2656 2259 2592 2790 1837 2790 
C 1312 2790 1056 2368 979 2157 
L 973 2157 
L 973 4396 
L 211 4326 
L 211 4160 
C 589 4160 646 4122 646 3817 
L 646 426 
C 646 184 621 153 211 153 
L 211 -13 
C 365 0 646 0 813 0 
C 979 0 1267 0 1421 -13 
L 1421 153 
C 1011 153 986 178 986 428 
L 986 1658 
C 986 2247 1344 2688 1792 2688 
C 2266 2688 2317 2266 2317 1958 
L 2317 428 
C 2317 184 2291 153 1882 153 
L 1882 -13 
C 2035 0 2317 0 2483 0 
C 2650 0 2938 0 3091 -13 
L 3091 153 
C 2682 153 2656 178 2656 428 
L 2656 1933 
z
" transform="scale(0.015625)"/>
      </defs>
      <use xlink:href="#CMR17-45" transform="scale(0.996264)"/>
      <use xlink:href="#CMR17-70" transform="translate(62.586301 0) scale(0.996264)"/>
      <use xlink:href="#CMR17-6f" transform="translate(116.084109 0) scale(0.996264)"/>
      <use xlink:href="#CMR17-63" transform="translate(164.377025 0) scale(0.996264)"/>
      <use xlink:href="#CMR17-68" transform="translate(202.260231 0) scale(0.996264)"/>
     </g>
    </g>
   </g>
   <g id="matplotlib.axis_2">
    <g id="ytick_1">
     <g id="line2d_7">
      <path d="M 37.350966 538.818238 
L 1436.99976 538.818238 
" clip-path="url(#p27aa06f14e)" style="fill: none; stroke: #cccccc; stroke-opacity: 0.35; stroke-width: 0.8; stroke-linecap: round"/>
     </g>
     <g id="text_8">
      <!-- $\mathdefault{1}$ -->
      <g transform="translate(24.71287 545.736736) scale(0.2 -0.2)">
       <use xlink:href="#CMR17-31" transform="scale(0.996264)"/>
      </g>
     </g>
    </g>
    <g id="ytick_2">
     <g id="line2d_8">
      <path d="M 37.350966 434.877634 
L 1436.99976 434.877634 
" clip-path="url(#p27aa06f14e)" style="fill: none; stroke: #cccccc; stroke-opacity: 0.35; stroke-width: 0.8; stroke-linecap: round"/>
     </g>
     <g id="text_9">
      <!-- $\mathdefault{2}$ -->
      <g transform="translate(24.71287 441.796132) scale(0.2 -0.2)">
       <use xlink:href="#CMR17-32" transform="scale(0.996264)"/>
      </g>
     </g>
    </g>
    <g id="ytick_3">
     <g id="line2d_9">
      <path d="M 37.350966 330.93703 
L 1436.99976 330.93703 
" clip-path="url(#p27aa06f14e)" style="fill: none; stroke: #cccccc; stroke-opacity: 0.35; stroke-width: 0.8; stroke-linecap: round"/>
     </g>
     <g id="text_10">
      <!-- $\mathdefault{3}$ -->
      <g transform="translate(24.71287 337.855528) scale(0.2 -0.2)">
       <use xlink:href="#CMR17-33" transform="scale(0.996264)"/>
      </g>
     </g>
    </g>
    <g id="ytick_4">
     <g id="line2d_10">
      <path d="M 37.350966 226.996426 
L 1436.99976 226.996426 
" clip-path="url(#p27aa06f14e)" style="fill: none; stroke: #cccccc; stroke-opacity: 0.35; stroke-width: 0.8; stroke-linecap: round"/>
     </g>
     <g id="text_11">
      <!-- $\mathdefault{4}$ -->
      <g transform="translate(24.71287 233.914924) scale(0.2 -0.2)">
       <use xlink:href="#CMR17-34" transform="scale(0.996264)"/>
      </g>
     </g>
    </g>
    <g id="ytick_5">
     <g id="line2d_11">
      <path d="M 37.350966 123.055821 
L 1436.99976 123.055821 
" clip-path="url(#p27aa06f14e)" style="fill: none; stroke: #cccccc; stroke-opacity: 0.35; stroke-width: 0.8; stroke-linecap: round"/>
     </g>
     <g id="text_12">
      <!-- $\mathdefault{5}$ -->
      <g transform="translate(24.71287 129.97432) scale(0.2 -0.2)">
       <use xlink:href="#CMR17-35" transform="scale(0.996264)"/>
      </g>
     </g>
    </g>
    <g id="text_13">
     <!-- Loss -->
     <g style="fill: #696969" transform="translate(16.837237 337.399121) rotate(-90) scale(0.2 -0.2)">
      <defs>
       <path id="CMR17-4c" d="M 3469 1615 
L 3354 1615 
C 3302 983 3219 166 2125 166 
L 1530 166 
C 1274 166 1261 197 1261 414 
L 1261 3898 
C 1261 4129 1274 4192 1760 4192 
L 1901 4192 
L 1901 4352 
C 1638 4352 1331 4352 1069 4352 
C 870 4352 512 4352 326 4352 
L 326 4192 
C 768 4192 838 4192 838 3905 
L 838 452 
C 838 166 768 166 326 166 
L 326 0 
L 3315 0 
L 3469 1615 
z
" transform="scale(0.015625)"/>
       <path id="CMR17-73" d="M 1978 2697 
C 1978 2813 1971 2819 1933 2819 
C 1907 2819 1901 2813 1824 2717 
C 1805 2691 1747 2626 1728 2601 
C 1523 2819 1235 2819 1126 2819 
C 416 2819 160 2447 160 2076 
C 160 1498 813 1365 998 1325 
C 1402 1243 1542 1217 1677 1101 
C 1760 1025 1901 884 1901 654 
C 1901 384 1747 38 1158 38 
C 602 38 403 460 288 1021 
C 269 1110 269 1117 218 1117 
C 166 1117 160 1110 160 983 
L 160 63 
C 160 -51 166 -58 205 -58 
C 237 -58 243 -51 275 0 
C 314 57 410 211 448 276 
C 576 103 800 -64 1158 -64 
C 1792 -64 2131 283 2131 784 
C 2131 1112 1958 1285 1875 1362 
C 1683 1561 1459 1606 1190 1657 
C 838 1735 390 1825 390 2217 
C 390 2383 480 2737 1126 2737 
C 1811 2737 1850 2094 1862 1888 
C 1869 1856 1901 1849 1920 1849 
C 1978 1849 1978 1869 1978 1978 
L 1978 2697 
z
" transform="scale(0.015625)"/>
      </defs>
      <use xlink:href="#CMR17-4c" transform="scale(0.996264)"/>
      <use xlink:href="#CMR17-6f" transform="translate(57.381408 0) scale(0.996264)"/>
      <use xlink:href="#CMR17-73" transform="translate(103.071885 0) scale(0.996264)"/>
      <use xlink:href="#CMR17-73" transform="translate(138.873223 0) scale(0.996264)"/>
     </g>
    </g>
   </g>
   <g id="line2d_12">
    <path d="M 100.971366 276.341493 
L 103.573427 319.624078 
L 106.175488 353.588826 
L 108.77755 370.08719 
L 111.379611 378.026083 
L 113.981672 383.004767 
L 116.583734 387.178681 
L 119.185795 390.832897 
L 121.787856 389.762389 
L 124.389918 392.665232 
L 126.991979 395.274909 
L 129.59404 393.748793 
L 132.196102 396.489297 
L 134.798163 400.191384 
L 137.400224 403.296911 
L 140.002286 407.083797 
L 142.604347 410.291267 
L 145.206408 412.249474 
L 147.80847 419.874401 
L 153.012592 425.066095 
L 155.614654 430.667124 
L 158.216715 432.638196 
L 160.818776 433.375482 
L 163.420838 432.210431 
L 166.022899 430.723412 
L 168.62496 431.906614 
L 171.227022 433.476771 
L 176.431144 434.19711 
L 179.033206 434.455471 
L 181.635267 435.068129 
L 184.237328 435.433412 
L 186.83939 435.031397 
L 189.441451 436.719759 
L 192.043512 438.095658 
L 194.645574 437.723821 
L 197.247635 437.628387 
L 199.849696 437.981176 
L 202.451758 438.819094 
L 207.65588 439.173844 
L 210.257942 439.005878 
L 212.860003 439.788637 
L 215.462064 440.266115 
L 220.666187 441.54806 
L 223.268248 441.833757 
L 225.87031 441.774101 
L 231.074432 442.261971 
L 233.676494 442.661083 
L 241.482678 443.307048 
L 244.084739 444.031532 
L 246.686801 443.999282 
L 249.288862 444.451391 
L 251.890923 444.588788 
L 254.492985 444.352754 
L 257.095046 444.701506 
L 259.697107 444.628818 
L 262.299169 444.80827 
L 264.90123 444.333066 
L 267.503291 441.459768 
L 270.105353 439.192902 
L 272.707414 439.08313 
L 275.309475 438.760083 
L 277.911537 439.00151 
L 283.115659 439.737268 
L 285.717721 439.690675 
L 288.319782 440.527744 
L 290.921843 441.494257 
L 293.523905 445.105572 
L 296.125966 447.146096 
L 298.728027 447.708671 
L 301.330089 448.117277 
L 309.136273 448.502477 
L 311.738334 449.013835 
L 314.340395 448.446027 
L 316.942457 448.378613 
L 319.544518 448.193263 
L 324.748641 449.130094 
L 327.350702 448.496011 
L 329.952763 447.680109 
L 337.758947 447.247365 
L 340.361009 447.605196 
L 342.96307 447.42242 
L 345.565131 447.467931 
L 348.167193 447.349886 
L 350.769254 446.900276 
L 353.371315 447.548288 
L 355.973377 448.371668 
L 358.575438 448.534286 
L 361.177499 447.730686 
L 363.779561 445.888586 
L 366.381622 443.575785 
L 368.983683 441.837731 
L 371.585745 439.797503 
L 379.391929 434.710792 
L 381.99399 432.901539 
L 384.596051 431.972055 
L 387.198113 432.202018 
L 389.800174 433.58049 
L 392.402235 435.270763 
L 395.004297 436.614579 
L 397.606358 438.467042 
L 402.810481 441.349359 
L 405.412542 442.957652 
L 408.014604 444.805839 
L 410.616665 445.596637 
L 413.218726 445.611755 
L 421.02491 447.435205 
L 423.626972 447.835489 
L 428.831094 448.140424 
L 431.433156 448.523115 
L 434.035217 448.206341 
L 436.637278 448.114876 
L 439.23934 448.759854 
L 441.841401 449.273463 
L 447.045524 449.253023 
L 449.647585 449.009963 
L 454.851708 448.942566 
L 460.05583 449.627769 
L 465.259953 450.201094 
L 467.862014 449.865303 
L 475.668198 449.96622 
L 480.872321 451.172906 
L 483.474382 450.866246 
L 488.678505 451.247754 
L 491.280566 450.993801 
L 493.882628 450.588511 
L 501.688812 451.530143 
L 504.290873 451.528223 
L 506.892934 451.092875 
L 509.494996 450.862643 
L 514.699118 450.233931 
L 519.903241 450.524879 
L 522.505302 450.192007 
L 525.107364 450.064871 
L 527.709425 450.069151 
L 530.311486 449.703295 
L 532.913548 450.165096 
L 543.321793 450.760503 
L 545.923854 450.710529 
L 548.525916 451.015149 
L 551.127977 451.661302 
L 556.3321 451.734258 
L 558.934161 451.182684 
L 564.138284 451.248022 
L 566.740345 451.531621 
L 569.342407 451.228759 
L 571.944468 451.744438 
L 574.546529 451.67898 
L 577.148591 451.17026 
L 579.750652 450.97225 
L 582.352713 451.088162 
L 584.954775 451.956799 
L 587.556836 452.568956 
L 590.158897 452.908116 
L 605.771265 453.636909 
L 608.373327 454.095609 
L 610.975388 453.502736 
L 616.179511 452.797289 
L 618.781572 452.628928 
L 621.383633 452.612402 
L 623.985695 452.244494 
L 626.587756 452.44107 
L 629.189817 452.869625 
L 631.791879 453.027437 
L 634.39394 452.793202 
L 639.598063 452.945708 
L 642.200124 453.547787 
L 644.802185 453.903711 
L 647.404247 453.905189 
L 650.006308 454.177476 
L 652.608369 454.056747 
L 655.210431 453.564843 
L 660.414553 453.611632 
L 663.016615 453.968645 
L 665.618676 454.008976 
L 670.822799 453.333145 
L 673.42486 453.404399 
L 678.628983 453.203039 
L 681.231044 453.595526 
L 683.833105 453.861365 
L 686.435167 454.284581 
L 689.037228 454.453698 
L 691.639289 454.44894 
L 694.241351 454.283297 
L 696.843412 454.422579 
L 699.445473 454.446442 
L 702.047535 454.230711 
L 704.649596 454.420309 
L 707.251657 454.326329 
L 709.853719 453.756044 
L 712.45578 453.335249 
L 720.261964 453.844644 
L 722.864026 453.511876 
L 725.466087 453.404572 
L 728.068148 453.929008 
L 730.67021 453.478693 
L 733.272271 453.659565 
L 735.874332 453.719257 
L 738.476394 454.057686 
L 741.078455 453.864891 
L 743.680516 454.088449 
L 746.282578 453.96266 
L 748.884639 454.253049 
L 751.4867 454.735425 
L 754.088762 454.69842 
L 756.690823 454.87388 
L 759.292884 454.565221 
L 761.894946 454.64751 
L 764.497007 453.986804 
L 769.70113 453.48446 
L 772.303191 454.053616 
L 774.905252 453.605392 
L 777.507314 452.952828 
L 780.109375 452.871794 
L 782.711436 452.99041 
L 785.313498 452.800956 
L 787.915559 452.811223 
L 790.51762 453.395183 
L 793.119682 453.631952 
L 795.721743 453.424988 
L 798.323804 452.732003 
L 800.925866 453.177732 
L 806.129988 453.417321 
L 808.73205 453.261436 
L 813.936172 453.350531 
L 816.538234 453.028899 
L 821.742356 453.137301 
L 824.344418 453.49328 
L 832.150602 453.300173 
L 834.752663 453.703336 
L 837.354724 453.885992 
L 839.956786 453.827662 
L 845.160908 454.113561 
L 847.76297 453.75758 
L 858.171215 453.580827 
L 860.773276 453.657246 
L 863.375338 453.8764 
L 868.579461 453.47706 
L 871.181522 453.689124 
L 876.385645 454.317457 
L 878.987706 454.30875 
L 884.191829 454.660449 
L 889.395951 454.552553 
L 891.998013 454.643496 
L 894.600074 454.913423 
L 897.202135 454.71982 
L 899.804197 455.272988 
L 902.406258 455.118083 
L 905.008319 454.768306 
L 910.212442 455.14517 
L 912.814503 454.889447 
L 915.416565 454.79652 
L 918.018626 454.853714 
L 923.222749 454.754882 
L 925.82481 454.11507 
L 928.426871 454.398138 
L 931.028933 454.85743 
L 933.630994 454.642606 
L 938.835117 454.558139 
L 941.437178 454.740095 
L 946.641301 455.216928 
L 949.243362 455.04857 
L 951.845423 455.438773 
L 954.447485 455.06506 
L 957.049546 455.301855 
L 959.651607 455.297538 
L 962.253669 455.414756 
L 967.457791 455.318718 
L 977.866037 455.063111 
L 980.468098 455.319295 
L 983.070159 454.769473 
L 988.274282 453.902877 
L 1006.488711 454.329937 
L 1016.896957 455.529507 
L 1019.499018 455.646695 
L 1022.10108 455.630269 
L 1027.305202 454.979576 
L 1032.509325 454.452863 
L 1035.111386 454.702285 
L 1040.315509 454.734197 
L 1042.91757 454.199256 
L 1045.519632 454.014434 
L 1048.121693 453.291816 
L 1050.723754 453.759835 
L 1055.927877 454.07062 
L 1058.529938 454.244652 
L 1061.132 454.128364 
L 1063.734061 454.430245 
L 1066.336122 454.586547 
L 1068.938184 455.129228 
L 1071.540245 455.09469 
L 1074.142306 455.56336 
L 1084.550552 455.521165 
L 1087.152613 455.333864 
L 1089.754674 454.953228 
L 1092.356736 454.856362 
L 1094.958797 454.584303 
L 1105.367042 454.939867 
L 1107.969104 455.355487 
L 1113.173226 455.887301 
L 1115.775288 455.636047 
L 1123.581472 456.134477 
L 1128.785594 455.983371 
L 1131.387656 455.971368 
L 1133.989717 455.580964 
L 1136.591778 454.582489 
L 1139.19384 454.584965 
L 1141.795901 455.388548 
L 1144.397962 455.316793 
L 1147.000024 455.635184 
L 1149.602085 455.744547 
L 1152.204146 456.165556 
L 1154.806208 456.130635 
L 1157.408269 455.87394 
L 1160.01033 455.913091 
L 1162.612392 457.060299 
L 1167.816514 456.812662 
L 1170.418576 457.119425 
L 1173.020637 456.809043 
L 1175.622699 456.736354 
L 1178.22476 456.833093 
L 1180.826821 456.690604 
L 1183.428883 457.387837 
L 1186.030944 457.542343 
L 1188.633005 456.944755 
L 1191.235067 456.95349 
L 1199.041251 456.480803 
L 1206.847435 456.496468 
L 1209.449496 456.085665 
L 1212.051557 456.40584 
L 1214.653619 456.561065 
L 1217.25568 456.316352 
L 1219.857741 456.504883 
L 1222.459803 456.122576 
L 1225.061864 456.298072 
L 1227.663925 456.17923 
L 1230.265987 455.303541 
L 1232.868048 455.736772 
L 1235.470109 455.550214 
L 1238.072171 455.236011 
L 1240.674232 455.397874 
L 1243.276293 455.707584 
L 1245.878355 455.577236 
L 1251.082477 455.939303 
L 1253.684539 455.506741 
L 1256.2866 455.874146 
L 1258.888661 455.620411 
L 1261.490723 456.477134 
L 1264.092784 456.716897 
L 1269.296907 456.706396 
L 1274.501029 456.70157 
L 1277.103091 455.859029 
L 1279.705152 456.19311 
L 1282.307213 456.374647 
L 1284.909275 456.270524 
L 1287.511336 455.573164 
L 1290.113397 455.27478 
L 1292.715459 454.809931 
L 1297.919581 454.463877 
L 1300.521643 454.568501 
L 1303.123704 455.207402 
L 1308.327827 455.947073 
L 1310.929888 456.080496 
L 1313.531949 456.424849 
L 1316.134011 455.810343 
L 1318.736072 455.977416 
L 1321.338133 455.834744 
L 1323.940195 456.031821 
L 1326.542256 455.852699 
L 1329.144318 456.219755 
L 1334.34844 455.3846 
L 1339.552563 455.062991 
L 1342.154624 455.118938 
L 1344.756686 455.294732 
L 1347.358747 455.313829 
L 1349.960808 455.055195 
L 1352.56287 454.981442 
L 1355.164931 454.562442 
L 1357.766992 454.930931 
L 1360.369054 454.721837 
L 1362.971115 455.083542 
L 1365.573176 454.763485 
L 1368.175238 455.474604 
L 1370.777299 455.765099 
L 1373.37936 456.286001 
L 1373.37936 456.286001 
" clip-path="url(#p27aa06f14e)" style="fill: none; stroke: #006e64; stroke-width: 1.5; stroke-linecap: round"/>
   </g>
   <g id="line2d_13">
    <path d="M 100.971366 52.361647 
L 103.573427 105.029465 
L 106.175488 139.00986 
L 108.77755 148.93579 
L 111.379611 151.10142 
L 113.981672 170.915209 
L 116.583734 178.30997 
L 119.185795 210.471852 
L 121.787856 217.044065 
L 124.389918 220.206197 
L 126.991979 237.238012 
L 129.59404 239.580556 
L 132.196102 274.264191 
L 137.400224 352.293796 
L 140.002286 367.592046 
L 142.604347 394.249492 
L 145.206408 401.6462 
L 147.80847 438.653841 
L 150.410531 468.719139 
L 153.012592 489.243295 
L 155.614654 522.074327 
L 158.216715 526.043667 
L 160.818776 518.078199 
L 163.420838 486.007497 
L 166.022899 487.086668 
L 168.62496 496.39946 
L 171.227022 491.413236 
L 173.829083 490.668371 
L 176.431144 493.854478 
L 179.033206 496.637541 
L 181.635267 500.277727 
L 184.237328 502.987013 
L 186.83939 486.391595 
L 189.441451 505.005978 
L 192.043512 513.520659 
L 194.645574 513.362314 
L 197.247635 516.138114 
L 199.849696 507.561199 
L 202.451758 513.37558 
L 205.053819 510.765956 
L 207.65588 508.548611 
L 210.257942 500.982812 
L 212.860003 527.796698 
L 215.462064 547.290475 
L 218.064126 539.664586 
L 220.666187 537.483691 
L 223.268248 532.730807 
L 225.87031 548.232018 
L 228.472371 548.456016 
L 231.074432 542.64883 
L 233.676494 544.134008 
L 236.278555 541.103736 
L 238.880616 543.96724 
L 241.482678 538.499037 
L 244.084739 536.267297 
L 246.686801 531.937007 
L 249.288862 538.991027 
L 251.890923 536.50976 
L 254.492985 520.975817 
L 257.095046 532.067292 
L 259.697107 519.691309 
L 262.299169 517.055583 
L 264.90123 502.11216 
L 267.503291 491.2596 
L 270.105353 497.817042 
L 272.707414 507.47194 
L 275.309475 498.662135 
L 277.911537 494.487702 
L 280.513598 504.008173 
L 283.115659 495.127583 
L 285.717721 511.062736 
L 288.319782 507.082193 
L 290.921843 522.508869 
L 293.523905 529.626982 
L 296.125966 537.985968 
L 298.728027 538.595842 
L 301.330089 546.344718 
L 303.93215 547.532996 
L 306.534211 546.604289 
L 311.738334 532.011735 
L 314.340395 545.477252 
L 316.942457 544.663692 
L 319.544518 552.849601 
L 322.146579 547.887432 
L 324.748641 533.653789 
L 327.350702 493.057576 
L 329.952763 497.904836 
L 332.554825 493.154277 
L 335.156886 499.562031 
L 337.758947 495.227189 
L 340.361009 497.000034 
L 342.96307 499.801265 
L 345.565131 501.364597 
L 348.167193 504.452712 
L 350.769254 516.049441 
L 353.371315 553.30945 
L 355.973377 552.336735 
L 358.575438 565.271206 
L 361.177499 534.540604 
L 363.779561 507.325888 
L 366.381622 470.969509 
L 371.585745 395.057084 
L 376.789867 321.129794 
L 379.391929 290.722333 
L 381.99399 294.671396 
L 384.596051 290.45918 
L 387.198113 322.362528 
L 389.800174 357.543153 
L 395.004297 416.30756 
L 397.606358 439.464014 
L 402.810481 501.412441 
L 405.412542 519.61211 
L 408.014604 503.557458 
L 410.616665 488.259343 
L 413.218726 492.636348 
L 415.820788 474.209539 
L 418.422849 480.691362 
L 421.02491 480.702591 
L 423.626972 494.61727 
L 426.229033 494.05151 
L 428.831094 495.155243 
L 431.433156 510.266725 
L 434.035217 515.917532 
L 436.637278 534.046647 
L 439.23934 537.487867 
L 441.841401 551.489421 
L 444.443462 542.071681 
L 447.045524 548.872209 
L 449.647585 544.525767 
L 452.249646 547.09355 
L 454.851708 554.848265 
L 457.453769 550.752945 
L 460.05583 560.931433 
L 462.657892 557.083313 
L 465.259953 553.011291 
L 467.862014 548.282276 
L 470.464076 559.228969 
L 473.066137 554.65015 
L 475.668198 552.224612 
L 478.27026 551.638507 
L 480.872321 551.220634 
L 483.474382 543.130917 
L 486.076444 531.753145 
L 488.678505 528.496782 
L 491.280566 531.299161 
L 493.882628 543.039058 
L 496.484689 540.746488 
L 499.08675 544.029613 
L 501.688812 547.115319 
L 504.290873 542.082365 
L 506.892934 540.713165 
L 509.494996 540.419764 
L 512.097057 550.88223 
L 514.699118 555.198238 
L 517.30118 549.173344 
L 519.903241 537.634448 
L 522.505302 536.914494 
L 525.107364 538.811427 
L 530.311486 534.381319 
L 532.913548 535.862235 
L 535.515609 548.044626 
L 538.11767 533.270955 
L 540.719732 535.864972 
L 543.321793 539.365476 
L 545.923854 548.923405 
L 548.525916 551.876081 
L 551.127977 553.299538 
L 553.730039 556.902644 
L 556.3321 559.154277 
L 558.934161 545.052592 
L 561.536223 537.075712 
L 564.138284 537.166789 
L 566.740345 536.340034 
L 569.342407 538.054806 
L 571.944468 524.080373 
L 574.546529 520.989878 
L 577.148591 509.46788 
L 579.750652 505.15764 
L 582.352713 515.243715 
L 584.954775 516.145112 
L 587.556836 527.572831 
L 590.158897 540.996219 
L 592.760959 544.095884 
L 595.36302 534.469214 
L 597.965081 543.971569 
L 600.567143 534.480349 
L 603.169204 539.975063 
L 605.771265 544.138077 
L 608.373327 544.681185 
L 610.975388 555.091126 
L 613.577449 557.043323 
L 616.179511 550.409217 
L 618.781572 551.716522 
L 621.383633 559.904272 
L 623.985695 566.557538 
L 626.587756 570.779855 
L 629.189817 576.967746 
L 631.791879 578.376054 
L 634.39394 568.287884 
L 636.996001 572.085659 
L 639.598063 568.494734 
L 642.200124 574.61593 
L 644.802185 575.213171 
L 647.404247 579.220557 
L 650.006308 573.582501 
L 655.210431 569.775774 
L 657.812492 552.2575 
L 660.414553 560.675323 
L 663.016615 561.242216 
L 665.618676 551.541736 
L 668.220737 551.506076 
L 670.822799 541.637578 
L 673.42486 534.363222 
L 676.026921 537.262549 
L 678.628983 544.515715 
L 681.231044 544.251641 
L 683.833105 553.96497 
L 686.435167 542.875986 
L 689.037228 544.475509 
L 691.639289 553.807621 
L 694.241351 542.484998 
L 696.843412 538.966824 
L 699.445473 543.321956 
L 702.047535 540.069091 
L 704.649596 533.934637 
L 707.251657 529.558863 
L 709.853719 536.536615 
L 712.45578 545.558561 
L 715.057842 539.438552 
L 717.659903 534.435939 
L 720.261964 537.552497 
L 722.864026 540.851828 
L 725.466087 539.002773 
L 728.068148 540.865815 
L 730.67021 549.194848 
L 733.272271 551.811299 
L 735.874332 546.412106 
L 738.476394 540.275957 
L 741.078455 539.925894 
L 743.680516 541.103582 
L 746.282578 551.938547 
L 748.884639 553.773141 
L 751.4867 553.401257 
L 754.088762 556.875734 
L 756.690823 560.148023 
L 759.292884 561.61751 
L 761.894946 566.968737 
L 764.497007 572.73914 
L 767.099068 570.343471 
L 769.70113 574.996708 
L 772.303191 562.26904 
L 774.905252 567.550333 
L 777.507314 567.70203 
L 780.109375 566.919433 
L 782.711436 562.611751 
L 785.313498 565.245819 
L 787.915559 558.768123 
L 790.51762 561.441747 
L 793.119682 563.473815 
L 795.721743 553.272736 
L 798.323804 564.582853 
L 800.925866 563.425084 
L 803.527927 558.084991 
L 806.129988 556.899211 
L 808.73205 554.186786 
L 811.334111 548.49903 
L 813.936172 554.558068 
L 816.538234 540.736684 
L 819.140295 540.749395 
L 821.742356 550.907817 
L 824.344418 544.50557 
L 826.946479 547.551823 
L 829.54854 559.002374 
L 832.150602 563.037648 
L 834.752663 561.748703 
L 837.354724 557.558497 
L 839.956786 552.980643 
L 842.558847 561.961571 
L 845.160908 564.650709 
L 847.76297 564.239538 
L 850.365031 569.83637 
L 852.967092 570.573583 
L 855.569154 567.950177 
L 858.171215 566.060553 
L 860.773276 571.353387 
L 863.375338 580.258689 
L 865.977399 584.95611 
L 868.579461 587.501683 
L 871.181522 584.374131 
L 873.783583 580.458646 
L 876.385645 578.139795 
L 878.987706 572.198366 
L 881.589767 571.741785 
L 884.191829 560.004682 
L 886.79389 551.540602 
L 889.395951 552.191982 
L 891.998013 551.962125 
L 894.600074 544.990185 
L 897.202135 550.138798 
L 899.804197 555.027107 
L 902.406258 552.211577 
L 905.008319 544.811538 
L 907.610381 539.991659 
L 912.814503 559.598252 
L 915.416565 553.987113 
L 918.018626 552.037168 
L 920.620687 560.597304 
L 923.222749 561.082994 
L 925.82481 553.196257 
L 928.426871 550.93291 
L 931.028933 555.140028 
L 933.630994 553.305894 
L 936.233055 556.862638 
L 938.835117 556.332311 
L 941.437178 562.448137 
L 944.039239 565.641701 
L 946.641301 563.627889 
L 949.243362 558.735506 
L 951.845423 558.629345 
L 954.447485 568.491558 
L 957.049546 565.336051 
L 959.651607 570.424789 
L 962.253669 559.223146 
L 964.85573 558.648143 
L 967.457791 552.39119 
L 970.059853 555.045461 
L 972.661914 549.071084 
L 975.263975 544.578849 
L 977.866037 544.400488 
L 980.468098 544.906085 
L 983.070159 546.395654 
L 985.672221 538.738263 
L 988.274282 547.177234 
L 990.876343 536.606288 
L 993.478405 527.883602 
L 996.080466 526.121244 
L 998.682527 534.61887 
L 1001.284589 539.521623 
L 1003.88665 547.507892 
L 1006.488711 543.647758 
L 1009.090773 538.592027 
L 1011.692834 542.185087 
L 1014.294895 542.115358 
L 1016.896957 541.649015 
L 1019.499018 550.127725 
L 1022.10108 544.43911 
L 1024.703141 539.751797 
L 1027.305202 542.615746 
L 1029.907264 544.856752 
L 1032.509325 548.972809 
L 1035.111386 555.798357 
L 1037.713448 564.800963 
L 1040.315509 568.239985 
L 1042.91757 580.504969 
L 1045.519632 577.73245 
L 1048.121693 576.080325 
L 1050.723754 572.653903 
L 1053.325816 574.560815 
L 1055.927877 569.33285 
L 1058.529938 566.623131 
L 1061.132 570.725477 
L 1063.734061 569.490682 
L 1066.336122 556.896527 
L 1068.938184 540.755774 
L 1071.540245 549.919506 
L 1074.142306 552.84206 
L 1076.744368 552.234764 
L 1079.346429 544.591586 
L 1081.94849 545.486355 
L 1084.550552 540.325827 
L 1087.152613 543.453689 
L 1089.754674 533.346447 
L 1092.356736 542.580144 
L 1094.958797 547.499896 
L 1097.560858 550.219228 
L 1100.16292 553.328593 
L 1102.764981 552.838337 
L 1105.367042 558.578184 
L 1107.969104 562.476479 
L 1110.571165 568.131898 
L 1113.173226 565.760201 
L 1115.775288 573.240977 
L 1118.377349 576.182311 
L 1120.97941 581.929924 
L 1123.581472 576.424788 
L 1126.183533 574.421407 
L 1128.785594 579.385382 
L 1131.387656 576.778716 
L 1133.989717 574.911945 
L 1136.591778 573.805361 
L 1139.19384 573.892893 
L 1141.795901 567.523655 
L 1144.397962 554.535955 
L 1147.000024 559.902709 
L 1149.602085 554.720151 
L 1152.204146 557.094082 
L 1154.806208 550.175632 
L 1157.408269 553.046836 
L 1160.01033 542.800193 
L 1162.612392 542.726184 
L 1165.214453 540.737145 
L 1167.816514 548.539478 
L 1170.418576 543.876371 
L 1173.020637 536.536956 
L 1175.622699 541.344424 
L 1178.22476 524.855848 
L 1180.826821 535.400456 
L 1183.428883 534.005608 
L 1186.030944 534.683001 
L 1188.633005 530.158494 
L 1191.235067 524.473932 
L 1193.837128 516.531016 
L 1196.439189 529.760466 
L 1199.041251 537.38645 
L 1201.643312 539.449318 
L 1204.245373 553.973189 
L 1206.847435 555.151151 
L 1209.449496 559.398758 
L 1212.051557 561.07155 
L 1214.653619 561.072238 
L 1217.25568 569.133524 
L 1219.857741 561.741765 
L 1222.459803 556.878851 
L 1225.061864 551.062931 
L 1227.663925 551.039292 
L 1230.265987 554.624286 
L 1232.868048 553.574996 
L 1235.470109 542.928392 
L 1238.072171 545.493036 
L 1240.674232 541.755414 
L 1243.276293 544.438536 
L 1245.878355 556.831378 
L 1248.480416 564.942144 
L 1251.082477 567.261076 
L 1253.684539 560.101084 
L 1256.2866 556.627927 
L 1258.888661 550.933518 
L 1261.490723 554.765836 
L 1264.092784 558.254598 
L 1266.694845 568.693782 
L 1269.296907 564.522496 
L 1271.898968 565.646763 
L 1274.501029 527.697933 
L 1277.103091 530.169212 
L 1279.705152 532.988676 
L 1282.307213 529.374686 
L 1284.909275 524.720229 
L 1287.511336 520.370077 
L 1290.113397 515.645784 
L 1292.715459 513.231967 
L 1295.31752 512.861183 
L 1297.919581 509.017293 
L 1300.521643 538.241828 
L 1303.123704 531.48073 
L 1305.725765 531.749423 
L 1308.327827 540.5241 
L 1310.929888 551.98463 
L 1313.531949 550.755329 
L 1316.134011 555.748897 
L 1318.736072 552.97941 
L 1321.338133 556.260983 
L 1323.940195 554.853797 
L 1326.542256 563.672784 
L 1329.144318 573.214555 
L 1331.746379 569.516734 
L 1334.34844 557.479003 
L 1336.950502 554.275278 
L 1339.552563 562.212368 
L 1342.154624 564.100792 
L 1347.358747 549.300161 
L 1349.960808 554.346135 
L 1352.56287 546.441569 
L 1355.164931 543.099333 
L 1357.766992 547.137054 
L 1360.369054 557.134969 
L 1362.971115 558.269306 
L 1365.573176 562.238682 
L 1368.175238 550.55047 
L 1370.777299 561.171419 
L 1373.37936 570.783253 
L 1373.37936 570.783253 
" clip-path="url(#p27aa06f14e)" style="fill: none; stroke: #734848; stroke-width: 1.5; stroke-linecap: round"/>
   </g>
   <g id="patch_3">
    <path d="M 37.350966 614.258685 
L 37.350966 25.604645 
" style="fill: none; stroke: #808080; stroke-width: 0.8; stroke-linejoin: miter; stroke-linecap: square"/>
   </g>
   <g id="patch_4">
    <path d="M 37.350966 614.258685 
L 1436.99976 614.258685 
" style="fill: none; stroke: #808080; stroke-width: 0.8; stroke-linejoin: miter; stroke-linecap: square"/>
   </g>
   <g id="text_14">
    <!-- Loss of LSTM -->
    <g style="fill: #262626" transform="translate(669.079678 19.604645) scale(0.24 -0.24)">
     <defs>
      <path id="CMR17-66" d="M 979 2560 
L 1709 2560 
L 1709 2725 
L 966 2725 
L 966 3494 
C 966 4022 1235 4352 1510 4352 
C 1594 4352 1690 4327 1754 4282 
C 1702 4269 1568 4225 1568 4067 
C 1568 3901 1696 3850 1786 3850 
C 1875 3850 2003 3901 2003 4067 
C 2003 4308 1773 4454 1517 4454 
C 1152 4454 653 4156 653 3481 
L 653 2725 
L 141 2725 
L 141 2560 
L 653 2560 
L 653 427 
C 653 184 627 153 218 153 
L 218 -13 
C 371 0 666 0 832 0 
C 1018 0 1344 0 1517 -13 
L 1517 153 
C 1056 153 979 153 979 439 
L 979 2560 
z
" transform="scale(0.015625)"/>
      <path id="CMR17-53" d="M 2803 4290 
C 2803 4404 2797 4411 2758 4411 
C 2720 4411 2707 4385 2682 4328 
L 2490 3907 
C 2246 4257 1875 4416 1472 4416 
C 819 4416 294 3901 294 3253 
C 294 3056 339 2776 557 2510 
C 794 2218 1018 2167 1530 2033 
C 1722 1982 2042 1899 2106 1874 
C 2470 1722 2662 1341 2662 985 
C 2662 527 2336 38 1779 38 
C 1094 38 454 419 410 1311 
C 403 1413 397 1419 352 1419 
C 301 1419 294 1413 294 1285 
L 294 -1 
C 294 -115 301 -122 339 -122 
C 384 -122 397 -90 486 108 
C 493 127 493 140 614 381 
C 934 -39 1472 -128 1779 -128 
C 2477 -128 2970 451 2970 1124 
C 2970 1454 2848 1708 2778 1823 
C 2509 2230 2221 2306 1914 2382 
C 1869 2402 1856 2402 1498 2490 
C 1152 2579 1005 2624 845 2796 
C 666 2992 602 3196 602 3399 
C 602 3812 934 4263 1478 4263 
C 2157 4263 2579 3786 2675 2993 
C 2694 2878 2701 2872 2746 2872 
C 2803 2872 2803 2891 2803 2999 
L 2803 4290 
z
" transform="scale(0.015625)"/>
      <path id="CMR17-54" d="M 3981 4326 
L 288 4326 
L 179 2918 
L 294 2918 
C 378 3976 467 4160 1453 4160 
C 1568 4160 1754 4160 1805 4154 
C 1926 4135 1926 4058 1926 3912 
L 1926 459 
C 1926 230 1907 160 1376 160 
L 1197 160 
L 1197 0 
C 1504 0 1824 0 2138 0 
C 2451 0 2771 0 3078 0 
L 3078 160 
L 2899 160 
C 2368 160 2349 230 2349 459 
L 2349 3912 
C 2349 4052 2349 4129 2464 4154 
C 2515 4160 2701 4160 2816 4160 
C 3795 4160 3891 3976 3974 2918 
L 4090 2918 
L 3981 4326 
z
" transform="scale(0.015625)"/>
      <path id="CMR17-4d" d="M 1338 4224 
C 1299 4320 1293 4320 1158 4320 
L 339 4320 
L 339 4160 
C 781 4160 851 4160 851 3875 
L 851 610 
C 851 451 851 153 339 153 
L 339 -13 
C 486 0 755 0 915 0 
C 1075 0 1344 0 1491 -13 
L 1491 153 
C 979 153 979 451 979 610 
L 979 4135 
L 986 4135 
L 2490 89 
C 2515 25 2528 -13 2579 -13 
C 2630 -13 2643 25 2669 89 
L 4186 4166 
L 4192 4166 
L 4192 438 
C 4192 153 4122 153 3680 153 
L 3680 -13 
C 3853 0 4198 0 4384 0 
C 4570 0 4922 0 5094 -13 
L 5094 153 
C 4653 153 4582 153 4582 438 
L 4582 3875 
C 4582 4160 4653 4160 5094 4160 
L 5094 4320 
L 4282 4320 
C 4147 4320 4141 4314 4102 4218 
L 2720 502 
L 1338 4224 
z
" transform="scale(0.015625)"/>
     </defs>
     <use xlink:href="#CMR17-4c" transform="scale(0.996264)"/>
     <use xlink:href="#CMR17-6f" transform="translate(57.381408 0) scale(0.996264)"/>
     <use xlink:href="#CMR17-73" transform="translate(103.071885 0) scale(0.996264)"/>
     <use xlink:href="#CMR17-73" transform="translate(138.873223 0) scale(0.996264)"/>
     <use xlink:href="#CMR17-6f" transform="translate(204.750527 0) scale(0.996264)"/>
     <use xlink:href="#CMR17-66" transform="translate(250.441004 0) scale(0.996264)"/>
     <use xlink:href="#CMR17-4c" transform="translate(307.990482 0) scale(0.996264)"/>
     <use xlink:href="#CMR17-53" transform="translate(365.37189 0) scale(0.996264)"/>
     <use xlink:href="#CMR17-54" transform="translate(416.26726 0) scale(0.996264)"/>
     <use xlink:href="#CMR17-4d" transform="translate(482.777141 0) scale(0.996264)"/>
    </g>
   </g>
   <g id="legend_1">
    <g id="patch_5">
     <path d="M 582.483549 716.999722 
L 891.867177 716.999722 
Q 895.867177 716.999722 895.867177 712.999722 
L 895.867177 687.124089 
Q 895.867177 683.124089 891.867177 683.124089 
L 582.483549 683.124089 
Q 578.483549 683.124089 578.483549 687.124089 
L 578.483549 712.999722 
Q 578.483549 716.999722 582.483549 716.999722 
z
" style="fill: #ffffff; opacity: 0.8"/>
    </g>
    <g id="line2d_14">
     <path d="M 586.483549 698.124089 
L 606.483549 698.124089 
L 626.483549 698.124089 
" style="fill: none; stroke: #006e64; stroke-width: 1.5; stroke-linecap: round"/>
    </g>
    <g id="text_15">
     <!-- Training -->
     <g style="fill: #262626" transform="translate(642.483549 705.124089) scale(0.2 -0.2)">
      <defs>
       <path id="CMR17-72" d="M 960 1497 
C 960 2112 1222 2688 1702 2688 
C 1747 2688 1792 2682 1837 2662 
C 1837 2662 1696 2617 1696 2452 
C 1696 2298 1818 2234 1914 2234 
C 1990 2234 2131 2279 2131 2458 
C 2131 2663 1926 2790 1709 2790 
C 1222 2790 1011 2317 947 2093 
L 941 2093 
L 941 2790 
L 198 2720 
L 198 2554 
C 576 2554 634 2515 634 2208 
L 634 428 
C 634 184 608 153 198 153 
L 198 -13 
C 352 0 646 0 813 0 
C 998 0 1325 0 1498 -13 
L 1498 153 
C 1037 153 960 153 960 440 
L 960 1497 
z
" transform="scale(0.015625)"/>
       <path id="CMR17-61" d="M 2304 1653 
C 2304 2072 2304 2294 2035 2543 
C 1798 2752 1523 2816 1306 2816 
C 800 2816 435 2407 435 1971 
C 435 1728 627 1728 666 1728 
C 749 1728 896 1778 896 1954 
C 896 2112 774 2181 666 2181 
C 640 2181 608 2174 589 2168 
C 723 2592 1069 2714 1293 2714 
C 1613 2714 1965 2429 1965 1885 
L 1965 1600 
C 1587 1600 1133 1549 774 1357 
C 371 1133 256 813 256 570 
C 256 77 832 -64 1171 -64 
C 1523 -64 1850 139 1990 511 
C 2003 233 2182 -18 2464 -18 
C 2598 -18 2938 70 2938 567 
L 2938 920 
L 2822 920 
L 2822 562 
C 2822 178 2650 128 2566 128 
C 2304 128 2304 458 2304 738 
L 2304 1653 
z
M 1965 870 
C 1965 317 1568 38 1216 38 
C 896 38 646 275 646 570 
C 646 761 730 1100 1101 1305 
C 1408 1478 1760 1504 1965 1504 
L 1965 870 
z
" transform="scale(0.015625)"/>
       <path id="CMR17-69" d="M 992 3909 
C 992 4049 877 4170 730 4170 
C 589 4170 467 4056 467 3909 
C 467 3769 582 3648 730 3648 
C 870 3648 992 3763 992 3909 
z
M 243 2706 
L 243 2541 
C 602 2541 653 2502 653 2197 
L 653 427 
C 653 184 627 153 218 153 
L 218 -13 
C 371 0 646 0 806 0 
C 960 0 1222 0 1370 -13 
L 1370 153 
C 992 153 979 191 979 420 
L 979 2776 
L 243 2706 
z
" transform="scale(0.015625)"/>
       <path id="CMR17-6e" d="M 2656 1933 
C 2656 2259 2592 2790 1837 2790 
C 1331 2790 1069 2400 973 2144 
L 966 2144 
L 966 2790 
L 211 2720 
L 211 2554 
C 589 2554 646 2515 646 2208 
L 646 428 
C 646 184 621 153 211 153 
L 211 -13 
C 365 0 646 0 813 0 
C 979 0 1267 0 1421 -13 
L 1421 153 
C 1011 153 986 178 986 428 
L 986 1658 
C 986 2247 1344 2688 1792 2688 
C 2266 2688 2317 2266 2317 1958 
L 2317 428 
C 2317 184 2291 153 1882 153 
L 1882 -13 
C 2035 0 2317 0 2483 0 
C 2650 0 2938 0 3091 -13 
L 3091 153 
C 2682 153 2656 178 2656 428 
L 2656 1933 
z
" transform="scale(0.015625)"/>
       <path id="CMR17-67" d="M 710 1164 
C 832 1068 1043 960 1299 960 
C 1805 960 2240 1357 2240 1888 
C 2240 2054 2189 2310 1997 2509 
C 2176 2692 2438 2752 2586 2752 
C 2611 2752 2650 2752 2682 2734 
C 2656 2728 2598 2703 2598 2605 
C 2598 2527 2656 2471 2739 2471 
C 2835 2471 2886 2533 2886 2614 
C 2886 2731 2790 2854 2586 2854 
C 2330 2854 2106 2738 1926 2580 
C 1734 2753 1504 2816 1299 2816 
C 794 2816 358 2419 358 1888 
C 358 1522 570 1292 634 1228 
C 442 1004 442 743 442 711 
C 442 545 506 302 723 168 
C 390 85 128 -169 128 -486 
C 128 -943 736 -1280 1466 -1280 
C 2170 -1280 2803 -956 2803 -479 
C 2803 384 1856 384 1363 384 
C 1216 384 954 384 922 391 
C 723 423 589 602 589 826 
C 589 883 589 1024 710 1164 
z
M 1299 1068 
C 736 1068 736 1760 736 1889 
C 736 2016 736 2708 1299 2708 
C 1862 2708 1862 2016 1862 1889 
C 1862 1760 1862 1068 1299 1068 
z
M 1466 -1171 
C 826 -1171 384 -835 384 -486 
C 384 -289 493 -105 634 -4 
C 794 104 858 104 1293 104 
C 1818 104 2547 104 2547 -486 
C 2547 -835 2106 -1171 1466 -1171 
z
" transform="scale(0.015625)"/>
      </defs>
      <use xlink:href="#CMR17-54" transform="scale(0.996264)"/>
      <use xlink:href="#CMR17-72" transform="translate(58.702625 0) scale(0.996264)"/>
      <use xlink:href="#CMR17-61" transform="translate(93.983393 0) scale(0.996264)"/>
      <use xlink:href="#CMR17-69" transform="translate(139.67387 0) scale(0.996264)"/>
      <use xlink:href="#CMR17-6e" transform="translate(164.544929 0) scale(0.996264)"/>
      <use xlink:href="#CMR17-69" transform="translate(215.440298 0) scale(0.996264)"/>
      <use xlink:href="#CMR17-6e" transform="translate(240.311357 0) scale(0.996264)"/>
      <use xlink:href="#CMR17-67" transform="translate(291.206727 0) scale(0.996264)"/>
     </g>
    </g>
    <g id="line2d_15">
     <path d="M 749.862956 698.124089 
L 769.862956 698.124089 
L 789.862956 698.124089 
" style="fill: none; stroke: #734848; stroke-width: 1.5; stroke-linecap: round"/>
    </g>
    <g id="text_16">
     <!-- Validation -->
     <g style="fill: #262626" transform="translate(805.862956 705.124089) scale(0.2 -0.2)">
      <defs>
       <path id="CMR17-56" d="M 3776 3745 
C 3834 3886 3936 4160 4365 4160 
L 4365 4332 
C 4218 4319 4051 4319 3891 4319 
C 3738 4319 3475 4319 3328 4332 
L 3328 4160 
C 3648 4160 3661 3936 3661 3898 
C 3661 3827 3642 3783 3622 3732 
L 2362 446 
L 1043 3886 
C 1024 3931 1011 3963 1011 3994 
C 1011 4160 1267 4160 1402 4160 
L 1402 4319 
C 1197 4319 896 4319 685 4319 
C 518 4319 218 4319 64 4332 
L 64 4160 
C 435 4160 506 4135 582 3931 
L 2106 -26 
C 2138 -115 2144 -128 2214 -128 
C 2285 -128 2291 -115 2323 -26 
L 3776 3745 
z
" transform="scale(0.015625)"/>
       <path id="CMR17-6c" d="M 979 4396 
L 218 4326 
L 218 4160 
C 595 4160 653 4122 653 3817 
L 653 426 
C 653 184 627 153 218 153 
L 218 -13 
C 371 0 653 0 813 0 
C 979 0 1261 0 1414 -13 
L 1414 153 
C 1005 153 979 178 979 426 
L 979 4396 
z
" transform="scale(0.015625)"/>
       <path id="CMR17-64" d="M 1869 4326 
L 1869 4160 
C 2246 4160 2304 4122 2304 3820 
L 2304 2345 
C 2278 2377 2016 2790 1498 2790 
C 845 2790 211 2208 211 1364 
C 211 525 806 -64 1434 -64 
C 1978 -64 2259 337 2291 380 
L 2291 -63 
L 3066 -63 
L 3066 128 
C 2688 128 2630 166 2630 473 
L 2630 4396 
L 1869 4326 
z
M 2291 755 
C 2291 563 2176 390 2029 262 
C 1811 70 1594 38 1472 38 
C 1286 38 621 134 621 1356 
C 621 2612 1363 2688 1530 2688 
C 1824 2688 2061 2522 2208 2291 
C 2291 2157 2291 2138 2291 2023 
L 2291 755 
z
" transform="scale(0.015625)"/>
       <path id="CMR17-74" d="M 966 2560 
L 1862 2560 
L 1862 2725 
L 966 2725 
L 966 3904 
L 851 3904 
C 838 3245 614 2668 70 2668 
L 70 2560 
L 627 2560 
L 627 771 
C 627 650 627 -64 1370 -64 
C 1747 -64 1965 306 1965 777 
L 1965 1140 
L 1850 1140 
L 1850 783 
C 1850 344 1677 51 1408 51 
C 1222 51 966 178 966 758 
L 966 2560 
z
" transform="scale(0.015625)"/>
      </defs>
      <use xlink:href="#CMR17-56" transform="scale(0.996264)"/>
      <use xlink:href="#CMR17-61" transform="translate(61.265174 0) scale(0.996264)"/>
      <use xlink:href="#CMR17-6c" transform="translate(106.955652 0) scale(0.996264)"/>
      <use xlink:href="#CMR17-69" transform="translate(131.82671 0) scale(0.996264)"/>
      <use xlink:href="#CMR17-64" transform="translate(156.697768 0) scale(0.996264)"/>
      <use xlink:href="#CMR17-61" transform="translate(207.593138 0) scale(0.996264)"/>
      <use xlink:href="#CMR17-74" transform="translate(253.283615 0) scale(0.996264)"/>
      <use xlink:href="#CMR17-69" transform="translate(288.564383 0) scale(0.996264)"/>
      <use xlink:href="#CMR17-6f" transform="translate(313.435442 0) scale(0.996264)"/>
      <use xlink:href="#CMR17-6e" transform="translate(359.125919 0) scale(0.996264)"/>
     </g>
    </g>
   </g>
  </g>
 </g>
 <defs>
  <clipPath id="p27aa06f14e">
   <rect x="37.350966" y="25.604645" width="1399.648794" height="588.65404"/>
  </clipPath>
 </defs>
</svg>
