<?xml version="1.0" encoding="utf-8" standalone="no"?>
<!DOCTYPE svg PUBLIC "-//W3C//DTD SVG 1.1//EN"
  "http://www.w3.org/Graphics/SVG/1.1/DTD/svg11.dtd">
<svg xmlns:xlink="http://www.w3.org/1999/xlink" width="1440pt" height="720pt" viewBox="0 0 1440 720" xmlns="http://www.w3.org/2000/svg" version="1.1">
 <metadata>
  <rdf:RDF xmlns:dc="http://purl.org/dc/elements/1.1/" xmlns:cc="http://creativecommons.org/ns#" xmlns:rdf="http://www.w3.org/1999/02/22-rdf-syntax-ns#">
   <cc:Work>
    <dc:type rdf:resource="http://purl.org/dc/dcmitype/StillImage"/>
    <dc:date>2023-11-26T22:45:00.598195</dc:date>
    <dc:format>image/svg+xml</dc:format>
    <dc:creator>
     <cc:Agent>
      <dc:title>Matplotlib v3.8.0, https://matplotlib.org/</dc:title>
     </cc:Agent>
    </dc:creator>
   </cc:Work>
  </rdf:RDF>
 </metadata>
 <defs>
  <style type="text/css">*{stroke-linejoin: round; stroke-linecap: butt}</style>
 </defs>
 <g id="figure_1">
  <g id="patch_1">
   <path d="M 0 720 
L 1440 720 
L 1440 0 
L 0 0 
z
" style="fill: #ffffff"/>
  </g>
  <g id="axes_1">
   <g id="patch_2">
    <path d="M 55.627157 614.258685 
L 1423.292617 614.258685 
L 1423.292617 25.604645 
L 55.627157 25.604645 
z
" style="fill: #ffffff"/>
   </g>
   <g id="matplotlib.axis_1">
    <g id="xtick_1">
     <g id="line2d_1">
      <path d="M 55.627157 614.258685 
L 55.627157 25.604645 
" clip-path="url(#p316f07e587)" style="fill: none; stroke: #cccccc; stroke-opacity: 0.35; stroke-width: 0.8; stroke-linecap: round"/>
     </g>
     <g id="text_1">
      <!-- $\mathdefault{0}$ -->
      <g transform="translate(51.058109 631.595682) scale(0.2 -0.2)">
       <defs>
        <path id="CMR17-30" d="M 2688 2025 
C 2688 2416 2682 3080 2413 3591 
C 2176 4039 1798 4198 1466 4198 
C 1158 4198 768 4058 525 3597 
C 269 3118 243 2524 243 2025 
C 243 1661 250 1106 448 619 
C 723 -39 1216 -128 1466 -128 
C 1760 -128 2208 -7 2470 600 
C 2662 1042 2688 1559 2688 2025 
z
M 1466 -26 
C 1056 -26 813 325 723 812 
C 653 1188 653 1738 653 2096 
C 653 2588 653 2997 736 3387 
C 858 3929 1216 4096 1466 4096 
C 1728 4096 2067 3923 2189 3400 
C 2272 3036 2278 2607 2278 2096 
C 2278 1680 2278 1169 2202 792 
C 2067 95 1690 -26 1466 -26 
z
" transform="scale(0.015625)"/>
       </defs>
       <use xlink:href="#CMR17-30" transform="scale(0.996264)"/>
      </g>
     </g>
    </g>
    <g id="xtick_2">
     <g id="line2d_2">
      <path d="M 329.160249 614.258685 
L 329.160249 25.604645 
" clip-path="url(#p316f07e587)" style="fill: none; stroke: #cccccc; stroke-opacity: 0.35; stroke-width: 0.8; stroke-linecap: round"/>
     </g>
     <g id="text_2">
      <!-- $\mathdefault{20}$ -->
      <g transform="translate(320.022153 631.595682) scale(0.2 -0.2)">
       <defs>
        <path id="CMR17-32" d="M 2669 989 
L 2554 989 
C 2490 536 2438 459 2413 420 
C 2381 369 1920 369 1830 369 
L 602 369 
C 832 619 1280 1072 1824 1597 
C 2214 1967 2669 2402 2669 3035 
C 2669 3790 2067 4224 1395 4224 
C 691 4224 262 3604 262 3030 
C 262 2780 448 2748 525 2748 
C 589 2748 781 2787 781 3010 
C 781 3207 614 3264 525 3264 
C 486 3264 448 3258 422 3245 
C 544 3790 915 4058 1306 4058 
C 1862 4058 2227 3617 2227 3035 
C 2227 2479 1901 2000 1536 1584 
L 262 146 
L 262 0 
L 2515 0 
L 2669 989 
z
" transform="scale(0.015625)"/>
       </defs>
       <use xlink:href="#CMR17-32" transform="scale(0.996264)"/>
       <use xlink:href="#CMR17-30" transform="translate(45.690477 0) scale(0.996264)"/>
      </g>
     </g>
    </g>
    <g id="xtick_3">
     <g id="line2d_3">
      <path d="M 602.693341 614.258685 
L 602.693341 25.604645 
" clip-path="url(#p316f07e587)" style="fill: none; stroke: #cccccc; stroke-opacity: 0.35; stroke-width: 0.8; stroke-linecap: round"/>
     </g>
     <g id="text_3">
      <!-- $\mathdefault{40}$ -->
      <g transform="translate(593.555245 631.595682) scale(0.2 -0.2)">
       <defs>
        <path id="CMR17-34" d="M 2150 4122 
C 2150 4256 2144 4256 2029 4256 
L 128 1254 
L 128 1088 
L 1779 1088 
L 1779 457 
C 1779 224 1766 160 1318 160 
L 1197 160 
L 1197 0 
C 1402 0 1747 0 1965 0 
C 2182 0 2528 0 2733 0 
L 2733 160 
L 2611 160 
C 2163 160 2150 224 2150 457 
L 2150 1088 
L 2803 1088 
L 2803 1254 
L 2150 1254 
L 2150 4122 
z
M 1798 3703 
L 1798 1254 
L 256 1254 
L 1798 3703 
z
" transform="scale(0.015625)"/>
       </defs>
       <use xlink:href="#CMR17-34" transform="scale(0.996264)"/>
       <use xlink:href="#CMR17-30" transform="translate(45.690477 0) scale(0.996264)"/>
      </g>
     </g>
    </g>
    <g id="xtick_4">
     <g id="line2d_4">
      <path d="M 876.226433 614.258685 
L 876.226433 25.604645 
" clip-path="url(#p316f07e587)" style="fill: none; stroke: #cccccc; stroke-opacity: 0.35; stroke-width: 0.8; stroke-linecap: round"/>
     </g>
     <g id="text_4">
      <!-- $\mathdefault{60}$ -->
      <g transform="translate(867.088337 631.595682) scale(0.2 -0.2)">
       <defs>
        <path id="CMR17-36" d="M 678 2176 
C 678 3690 1395 4032 1811 4032 
C 1946 4032 2272 4009 2400 3776 
C 2298 3776 2106 3776 2106 3553 
C 2106 3381 2246 3323 2336 3323 
C 2394 3323 2566 3348 2566 3560 
C 2566 3954 2246 4179 1805 4179 
C 1043 4179 243 3390 243 1984 
C 243 253 966 -128 1478 -128 
C 2099 -128 2688 427 2688 1283 
C 2688 2081 2170 2662 1517 2662 
C 1126 2662 838 2407 678 1960 
L 678 2176 
z
M 1478 25 
C 691 25 691 1200 691 1436 
C 691 1896 909 2560 1504 2560 
C 1613 2560 1926 2560 2138 2120 
C 2253 1870 2253 1609 2253 1289 
C 2253 944 2253 690 2118 434 
C 1978 171 1773 25 1478 25 
z
" transform="scale(0.015625)"/>
       </defs>
       <use xlink:href="#CMR17-36" transform="scale(0.996264)"/>
       <use xlink:href="#CMR17-30" transform="translate(45.690477 0) scale(0.996264)"/>
      </g>
     </g>
    </g>
    <g id="xtick_5">
     <g id="line2d_5">
      <path d="M 1149.759525 614.258685 
L 1149.759525 25.604645 
" clip-path="url(#p316f07e587)" style="fill: none; stroke: #cccccc; stroke-opacity: 0.35; stroke-width: 0.8; stroke-linecap: round"/>
     </g>
     <g id="text_5">
      <!-- $\mathdefault{80}$ -->
      <g transform="translate(1140.621429 631.595682) scale(0.2 -0.2)">
       <defs>
        <path id="CMR17-38" d="M 1741 2264 
C 2144 2467 2554 2773 2554 3263 
C 2554 3841 1990 4179 1472 4179 
C 890 4179 378 3759 378 3180 
C 378 3021 416 2747 666 2505 
C 730 2442 998 2251 1171 2130 
C 883 1983 211 1634 211 934 
C 211 279 838 -128 1459 -128 
C 2144 -128 2720 362 2720 1010 
C 2720 1590 2330 1857 2074 2029 
L 1741 2264 
z
M 902 2822 
C 851 2854 595 3051 595 3351 
C 595 3739 998 4032 1459 4032 
C 1965 4032 2336 3676 2336 3262 
C 2336 2669 1670 2331 1638 2331 
C 1632 2331 1626 2331 1574 2370 
L 902 2822 
z
M 2080 1519 
C 2176 1449 2483 1240 2483 851 
C 2483 381 2010 25 1472 25 
C 890 25 448 438 448 940 
C 448 1443 838 1862 1280 2060 
L 2080 1519 
z
" transform="scale(0.015625)"/>
       </defs>
       <use xlink:href="#CMR17-38" transform="scale(0.996264)"/>
       <use xlink:href="#CMR17-30" transform="translate(45.690477 0) scale(0.996264)"/>
      </g>
     </g>
    </g>
    <g id="xtick_6">
     <g id="line2d_6">
      <path d="M 1423.292617 614.258685 
L 1423.292617 25.604645 
" clip-path="url(#p316f07e587)" style="fill: none; stroke: #cccccc; stroke-opacity: 0.35; stroke-width: 0.8; stroke-linecap: round"/>
     </g>
     <g id="text_6">
      <!-- $\mathdefault{100}$ -->
      <g transform="translate(1409.585474 631.595682) scale(0.2 -0.2)">
       <defs>
        <path id="CMR17-31" d="M 1702 4058 
C 1702 4192 1696 4192 1606 4192 
C 1357 3916 979 3827 621 3827 
C 602 3827 570 3827 563 3808 
C 557 3795 557 3782 557 3648 
C 755 3648 1088 3686 1344 3839 
L 1344 461 
C 1344 236 1331 160 781 160 
L 589 160 
L 589 0 
C 896 0 1216 0 1523 0 
C 1830 0 2150 0 2458 0 
L 2458 160 
L 2266 160 
C 1715 160 1702 230 1702 458 
L 1702 4058 
z
" transform="scale(0.015625)"/>
       </defs>
       <use xlink:href="#CMR17-31" transform="scale(0.996264)"/>
       <use xlink:href="#CMR17-30" transform="translate(45.690477 0) scale(0.996264)"/>
       <use xlink:href="#CMR17-30" transform="translate(91.380954 0) scale(0.996264)"/>
      </g>
     </g>
    </g>
    <g id="text_7">
     <!-- Epoch -->
     <g style="fill: #696969" transform="translate(714.144351 653.308312) scale(0.2 -0.2)">
      <defs>
       <path id="CMR17-45" d="M 3885 1615 
L 3770 1615 
C 3629 676 3546 166 2419 166 
L 1530 166 
C 1274 166 1261 197 1261 414 
L 1261 2176 
L 1862 2176 
C 2464 2176 2522 1960 2522 1430 
L 2637 1430 
L 2637 3081 
L 2522 3081 
C 2522 2557 2464 2342 1862 2342 
L 1261 2342 
L 1261 3913 
C 1261 4128 1274 4160 1530 4160 
L 2406 4160 
C 3398 4160 3514 3769 3603 2929 
L 3718 2929 
L 3565 4325 
L 326 4325 
L 326 4160 
C 768 4160 838 4160 838 3874 
L 838 451 
C 838 166 768 166 326 166 
L 326 0 
L 3654 0 
L 3885 1615 
z
" transform="scale(0.015625)"/>
       <path id="CMR17-70" d="M 1408 -1063 
C 998 -1063 973 -1037 973 -789 
L 973 402 
C 1158 134 1427 -38 1766 -38 
C 2406 -38 3053 523 3053 1388 
C 3053 2191 2496 2802 1837 2802 
C 1453 2802 1139 2592 960 2338 
L 960 2802 
L 198 2732 
L 198 2567 
C 576 2567 634 2528 634 2223 
L 634 -789 
C 634 -1031 608 -1063 198 -1063 
L 198 -1228 
C 352 -1216 634 -1216 800 -1216 
C 966 -1216 1254 -1216 1408 -1228 
L 1408 -1063 
z
M 973 2012 
C 973 2102 973 2235 1222 2471 
C 1254 2497 1472 2688 1792 2688 
C 2259 2688 2643 2108 2643 1382 
C 2643 656 2234 64 1728 64 
C 1498 64 1248 172 1056 472 
C 973 612 973 650 973 752 
L 973 2012 
z
" transform="scale(0.015625)"/>
       <path id="CMR17-6f" d="M 2758 1356 
C 2758 2176 2163 2816 1466 2816 
C 768 2816 173 2176 173 1356 
C 173 551 768 -64 1466 -64 
C 2163 -64 2758 551 2758 1356 
z
M 1466 51 
C 1165 51 909 230 762 480 
C 602 767 582 1126 582 1408 
C 582 1677 595 2010 762 2298 
C 890 2509 1139 2714 1466 2714 
C 1754 2714 1997 2554 2150 2330 
C 2349 2029 2349 1607 2349 1408 
C 2349 1158 2336 775 2163 467 
C 1984 173 1709 51 1466 51 
z
" transform="scale(0.015625)"/>
       <path id="CMR17-63" d="M 2234 2240 
C 2112 2240 1933 2240 1933 2017 
C 1933 1838 2080 1787 2163 1787 
C 2208 1787 2394 1807 2394 2024 
C 2394 2467 1958 2803 1466 2803 
C 787 2803 211 2178 211 1363 
C 211 516 813 -64 1466 -64 
C 2259 -64 2458 677 2458 748 
C 2458 774 2451 793 2406 793 
C 2362 793 2355 787 2330 703 
C 2163 180 1798 51 1523 51 
C 1114 51 621 427 621 1369 
C 621 2338 1094 2688 1472 2688 
C 1722 2688 2093 2573 2234 2240 
z
" transform="scale(0.015625)"/>
       <path id="CMR17-68" d="M 2656 1933 
C 2656 2259 2592 2790 1837 2790 
C 1312 2790 1056 2368 979 2157 
L 973 2157 
L 973 4396 
L 211 4326 
L 211 4160 
C 589 4160 646 4122 646 3817 
L 646 426 
C 646 184 621 153 211 153 
L 211 -13 
C 365 0 646 0 813 0 
C 979 0 1267 0 1421 -13 
L 1421 153 
C 1011 153 986 178 986 428 
L 986 1658 
C 986 2247 1344 2688 1792 2688 
C 2266 2688 2317 2266 2317 1958 
L 2317 428 
C 2317 184 2291 153 1882 153 
L 1882 -13 
C 2035 0 2317 0 2483 0 
C 2650 0 2938 0 3091 -13 
L 3091 153 
C 2682 153 2656 178 2656 428 
L 2656 1933 
z
" transform="scale(0.015625)"/>
      </defs>
      <use xlink:href="#CMR17-45" transform="scale(0.996264)"/>
      <use xlink:href="#CMR17-70" transform="translate(62.586301 0) scale(0.996264)"/>
      <use xlink:href="#CMR17-6f" transform="translate(116.084109 0) scale(0.996264)"/>
      <use xlink:href="#CMR17-63" transform="translate(164.377025 0) scale(0.996264)"/>
      <use xlink:href="#CMR17-68" transform="translate(202.260231 0) scale(0.996264)"/>
     </g>
    </g>
   </g>
   <g id="matplotlib.axis_2">
    <g id="ytick_1">
     <g id="line2d_7">
      <path d="M 55.627157 520.368285 
L 1423.292617 520.368285 
" clip-path="url(#p316f07e587)" style="fill: none; stroke: #cccccc; stroke-opacity: 0.35; stroke-width: 0.8; stroke-linecap: round"/>
     </g>
     <g id="text_8">
      <!-- $\mathdefault{20}$ -->
      <g transform="translate(33.850966 527.286784) scale(0.2 -0.2)">
       <use xlink:href="#CMR17-32" transform="scale(0.996264)"/>
       <use xlink:href="#CMR17-30" transform="translate(45.690477 0) scale(0.996264)"/>
      </g>
     </g>
    </g>
    <g id="ytick_2">
     <g id="line2d_8">
      <path d="M 55.627157 403.366626 
L 1423.292617 403.366626 
" clip-path="url(#p316f07e587)" style="fill: none; stroke: #cccccc; stroke-opacity: 0.35; stroke-width: 0.8; stroke-linecap: round"/>
     </g>
     <g id="text_9">
      <!-- $\mathdefault{40}$ -->
      <g transform="translate(33.850966 410.285124) scale(0.2 -0.2)">
       <use xlink:href="#CMR17-34" transform="scale(0.996264)"/>
       <use xlink:href="#CMR17-30" transform="translate(45.690477 0) scale(0.996264)"/>
      </g>
     </g>
    </g>
    <g id="ytick_3">
     <g id="line2d_9">
      <path d="M 55.627157 286.364966 
L 1423.292617 286.364966 
" clip-path="url(#p316f07e587)" style="fill: none; stroke: #cccccc; stroke-opacity: 0.35; stroke-width: 0.8; stroke-linecap: round"/>
     </g>
     <g id="text_10">
      <!-- $\mathdefault{60}$ -->
      <g transform="translate(33.850966 293.283465) scale(0.2 -0.2)">
       <use xlink:href="#CMR17-36" transform="scale(0.996264)"/>
       <use xlink:href="#CMR17-30" transform="translate(45.690477 0) scale(0.996264)"/>
      </g>
     </g>
    </g>
    <g id="ytick_4">
     <g id="line2d_10">
      <path d="M 55.627157 169.363307 
L 1423.292617 169.363307 
" clip-path="url(#p316f07e587)" style="fill: none; stroke: #cccccc; stroke-opacity: 0.35; stroke-width: 0.8; stroke-linecap: round"/>
     </g>
     <g id="text_11">
      <!-- $\mathdefault{80}$ -->
      <g transform="translate(33.850966 176.281805) scale(0.2 -0.2)">
       <use xlink:href="#CMR17-38" transform="scale(0.996264)"/>
       <use xlink:href="#CMR17-30" transform="translate(45.690477 0) scale(0.996264)"/>
      </g>
     </g>
    </g>
    <g id="ytick_5">
     <g id="line2d_11">
      <path d="M 55.627157 52.361647 
L 1423.292617 52.361647 
" clip-path="url(#p316f07e587)" style="fill: none; stroke: #cccccc; stroke-opacity: 0.35; stroke-width: 0.8; stroke-linecap: round"/>
     </g>
     <g id="text_12">
      <!-- $\mathdefault{100}$ -->
      <g transform="translate(24.71287 59.280145) scale(0.2 -0.2)">
       <use xlink:href="#CMR17-31" transform="scale(0.996264)"/>
       <use xlink:href="#CMR17-30" transform="translate(45.690477 0) scale(0.996264)"/>
       <use xlink:href="#CMR17-30" transform="translate(91.380954 0) scale(0.996264)"/>
      </g>
     </g>
    </g>
    <g id="text_13">
     <!-- Loss -->
     <g style="fill: #696969" transform="translate(16.837237 337.399121) rotate(-90) scale(0.2 -0.2)">
      <defs>
       <path id="CMR17-4c" d="M 3469 1615 
L 3354 1615 
C 3302 983 3219 166 2125 166 
L 1530 166 
C 1274 166 1261 197 1261 414 
L 1261 3898 
C 1261 4129 1274 4192 1760 4192 
L 1901 4192 
L 1901 4352 
C 1638 4352 1331 4352 1069 4352 
C 870 4352 512 4352 326 4352 
L 326 4192 
C 768 4192 838 4192 838 3905 
L 838 452 
C 838 166 768 166 326 166 
L 326 0 
L 3315 0 
L 3469 1615 
z
" transform="scale(0.015625)"/>
       <path id="CMR17-73" d="M 1978 2697 
C 1978 2813 1971 2819 1933 2819 
C 1907 2819 1901 2813 1824 2717 
C 1805 2691 1747 2626 1728 2601 
C 1523 2819 1235 2819 1126 2819 
C 416 2819 160 2447 160 2076 
C 160 1498 813 1365 998 1325 
C 1402 1243 1542 1217 1677 1101 
C 1760 1025 1901 884 1901 654 
C 1901 384 1747 38 1158 38 
C 602 38 403 460 288 1021 
C 269 1110 269 1117 218 1117 
C 166 1117 160 1110 160 983 
L 160 63 
C 160 -51 166 -58 205 -58 
C 237 -58 243 -51 275 0 
C 314 57 410 211 448 276 
C 576 103 800 -64 1158 -64 
C 1792 -64 2131 283 2131 784 
C 2131 1112 1958 1285 1875 1362 
C 1683 1561 1459 1606 1190 1657 
C 838 1735 390 1825 390 2217 
C 390 2383 480 2737 1126 2737 
C 1811 2737 1850 2094 1862 1888 
C 1869 1856 1901 1849 1920 1849 
C 1978 1849 1978 1869 1978 1978 
L 1978 2697 
z
" transform="scale(0.015625)"/>
      </defs>
      <use xlink:href="#CMR17-4c" transform="scale(0.996264)"/>
      <use xlink:href="#CMR17-6f" transform="translate(57.381408 0) scale(0.996264)"/>
      <use xlink:href="#CMR17-73" transform="translate(103.071885 0) scale(0.996264)"/>
      <use xlink:href="#CMR17-73" transform="translate(138.873223 0) scale(0.996264)"/>
     </g>
    </g>
   </g>
   <g id="line2d_12">
    <path d="M 55.627157 576.442123 
L 69.303811 582.546634 
L 82.980466 586.782507 
L 96.65712 586.887204 
L 110.333775 584.203217 
L 124.01043 576.412705 
L 137.687084 569.816627 
L 151.363739 578.723652 
L 165.040393 568.552515 
L 178.717048 579.745403 
L 192.393703 579.980606 
L 206.070357 571.805678 
L 219.747012 565.825876 
L 233.423666 575.333795 
L 247.100321 572.428057 
L 260.776976 578.097189 
L 274.45363 575.625118 
L 288.130285 579.771123 
L 301.806939 578.761032 
L 315.483594 576.691932 
L 329.160249 578.913218 
L 342.836903 579.829497 
L 356.513558 584.146752 
L 370.190212 581.583697 
L 383.866867 579.724365 
L 397.543522 577.825014 
L 411.220176 575.081286 
L 424.896831 582.478837 
L 438.573486 581.150197 
L 452.25014 575.883585 
L 465.926795 580.055059 
L 479.603449 581.25211 
L 493.280104 580.588731 
L 506.956759 578.408389 
L 520.633413 580.37248 
L 534.310068 579.963657 
L 547.986722 579.615009 
L 561.663377 578.813123 
L 575.340032 577.505461 
L 589.016686 582.291068 
L 602.693341 569.028337 
L 616.369995 581.293418 
L 630.04665 579.051166 
L 643.723305 579.562315 
L 657.399959 580.545119 
L 671.076614 579.104234 
L 684.753268 577.55738 
L 698.429923 579.474484 
L 712.106578 579.900323 
L 725.783232 572.479056 
L 739.459887 581.44504 
L 753.136541 578.99465 
L 766.813196 580.531322 
L 780.489851 581.939558 
L 794.166505 578.404802 
L 807.84316 578.657233 
L 821.519814 578.493342 
L 835.196469 579.633655 
L 848.873124 578.633522 
L 862.549778 579.346901 
L 876.226433 579.653315 
L 889.903087 580.5643 
L 903.579742 580.181916 
L 917.256397 581.42326 
L 930.933051 580.953245 
L 944.609706 581.824295 
L 958.28636 578.43614 
L 971.963015 580.421961 
L 985.63967 579.040867 
L 999.316324 572.691674 
L 1012.992979 582.303727 
L 1026.669633 579.910036 
L 1040.346288 579.196065 
L 1054.022943 579.507952 
L 1067.699597 579.955578 
L 1081.376252 581.247212 
L 1095.052906 581.391197 
L 1108.729561 580.827839 
L 1122.406216 580.440344 
L 1136.08287 580.459525 
L 1149.759525 581.106 
L 1163.436179 580.31193 
L 1177.112834 581.186551 
L 1190.789489 580.300281 
L 1204.466143 580.426547 
L 1218.142798 579.924581 
L 1231.819452 580.181202 
L 1245.496107 581.995907 
L 1259.172762 580.122504 
L 1272.849416 583.649539 
L 1286.526071 579.236653 
L 1300.202725 582.357554 
L 1313.87938 579.407172 
L 1327.556035 581.298919 
L 1341.232689 579.975217 
L 1354.909344 580.346236 
L 1368.585998 581.23679 
L 1382.262653 576.946717 
L 1395.939308 583.071631 
L 1409.615962 580.99867 
" clip-path="url(#p316f07e587)" style="fill: none; stroke-dasharray: 5.55,2.4; stroke-dashoffset: 0; stroke: #006e64; stroke-width: 1.5"/>
   </g>
   <g id="line2d_13">
    <path d="M 55.627157 580.588117 
L 69.303811 586.215009 
L 82.980466 586.39918 
L 96.65712 586.170443 
L 110.333775 586.489209 
L 124.01043 586.417485 
L 137.687084 586.266537 
L 151.363739 586.707491 
L 165.040393 586.74482 
L 178.717048 586.784699 
L 192.393703 586.386499 
L 206.070357 586.670328 
L 219.747012 587.126524 
L 233.423666 587.223884 
L 247.100321 585.382751 
L 260.776976 585.040988 
L 274.45363 583.587639 
L 288.130285 580.380581 
L 301.806939 575.548796 
L 315.483594 564.71636 
L 329.160249 572.94507 
L 342.836903 568.698385 
L 356.513558 581.429737 
L 370.190212 578.409187 
L 383.866867 579.513883 
L 397.543522 580.205225 
L 411.220176 569.955607 
L 424.896831 574.375774 
L 438.573486 566.833463 
L 452.25014 578.69203 
L 465.926795 571.888416 
L 479.603449 570.72355 
L 493.280104 578.93882 
L 506.956759 580.204701 
L 520.633413 578.829219 
L 534.310068 575.317075 
L 547.986722 574.656602 
L 561.663377 569.308496 
L 575.340032 573.677502 
L 589.016686 569.92196 
L 602.693341 579.269436 
L 616.369995 578.950106 
L 630.04665 579.374239 
L 643.723305 575.192701 
L 657.399959 575.744705 
L 671.076614 576.381808 
L 684.753268 578.724835 
L 698.429923 580.780734 
L 712.106578 576.650368 
L 725.783232 571.225672 
L 739.459887 578.886014 
L 753.136541 576.055571 
L 766.813196 578.068345 
L 780.489851 580.893437 
L 794.166505 570.235967 
L 807.84316 580.290546 
L 821.519814 581.828697 
L 835.196469 580.366979 
L 848.873124 572.409122 
L 862.549778 574.161805 
L 876.226433 579.300428 
L 889.903087 578.462618 
L 903.579742 583.461697 
L 917.256397 580.111128 
L 930.933051 581.773235 
L 944.609706 581.049255 
L 958.28636 582.315711 
L 971.963015 580.920267 
L 985.63967 581.943447 
L 999.316324 579.645041 
L 1012.992979 581.181044 
L 1026.669633 579.985376 
L 1040.346288 578.953627 
L 1054.022943 581.356785 
L 1067.699597 580.803787 
L 1081.376252 578.779437 
L 1095.052906 580.957011 
L 1108.729561 576.903049 
L 1122.406216 579.520846 
L 1136.08287 579.82755 
L 1149.759525 580.738735 
L 1163.436179 581.240127 
L 1177.112834 578.731792 
L 1190.789489 575.748354 
L 1204.466143 579.137178 
L 1218.142798 581.231529 
L 1231.819452 580.449711 
L 1245.496107 580.266762 
L 1259.172762 583.134847 
L 1272.849416 581.454447 
L 1286.526071 582.886004 
L 1300.202725 578.836327 
L 1313.87938 580.773286 
L 1327.556035 580.74061 
L 1341.232689 578.81584 
L 1354.909344 579.637337 
L 1368.585998 580.835019 
L 1382.262653 581.783238 
L 1395.939308 577.221129 
L 1409.615962 581.721299 
" clip-path="url(#p316f07e587)" style="fill: none; stroke-dasharray: 5.55,2.4; stroke-dashoffset: 0; stroke: #734848; stroke-width: 1.5"/>
   </g>
   <g id="line2d_14">
    <path d="M 55.627157 586.944696 
L 69.303811 585.832089 
L 82.980466 585.01895 
L 96.65712 587.030374 
L 110.333775 586.493126 
L 124.01043 586.922748 
L 137.687084 587.112007 
L 151.363739 587.036249 
L 165.040393 587.084006 
L 178.717048 585.206285 
L 192.393703 586.599524 
L 206.070357 586.089301 
L 219.747012 582.683946 
L 233.423666 583.448731 
L 247.100321 583.925374 
L 260.776976 584.059093 
L 274.45363 582.270051 
L 288.130285 580.255766 
L 301.806939 579.809379 
L 315.483594 577.868709 
L 329.160249 579.427056 
L 342.836903 574.568921 
L 356.513558 574.074174 
L 370.190212 574.246372 
L 383.866867 571.315914 
L 397.543522 576.095545 
L 411.220176 572.101012 
L 424.896831 576.774697 
L 438.573486 577.063861 
L 452.25014 578.107393 
L 465.926795 573.861941 
L 479.603449 574.891609 
L 493.280104 574.327916 
L 506.956759 575.043667 
L 520.633413 575.053207 
L 534.310068 574.474891 
L 547.986722 576.480105 
L 561.663377 576.876063 
L 575.340032 571.315395 
L 589.016686 579.652512 
L 602.693341 577.788566 
L 616.369995 577.960434 
L 630.04665 575.15083 
L 643.723305 580.031543 
L 657.399959 577.070092 
L 671.076614 576.827754 
L 684.753268 573.251557 
L 698.429923 581.409022 
L 712.106578 574.302799 
L 725.783232 580.527573 
L 739.459887 574.031065 
L 753.136541 579.374646 
L 766.813196 573.980569 
L 780.489851 578.657244 
L 794.166505 579.599025 
L 807.84316 579.391807 
L 821.519814 574.752406 
L 835.196469 580.054032 
L 848.873124 579.528762 
L 862.549778 578.821749 
L 876.226433 580.318703 
L 889.903087 576.021383 
L 903.579742 578.316686 
L 917.256397 578.829626 
L 930.933051 578.800922 
L 944.609706 576.623337 
L 958.28636 579.196361 
L 971.963015 575.56632 
L 985.63967 580.123687 
L 999.316324 574.796564 
L 1012.992979 576.900544 
L 1026.669633 578.97967 
L 1040.346288 578.625923 
L 1054.022943 580.430659 
L 1067.699597 577.024305 
L 1081.376252 578.203699 
L 1095.052906 577.24696 
L 1108.729561 579.126511 
L 1122.406216 578.800057 
L 1136.08287 576.245165 
L 1149.759525 580.976125 
L 1163.436179 578.58591 
L 1177.112834 578.905848 
L 1190.789489 574.564458 
L 1204.466143 581.71124 
L 1218.142798 578.376823 
L 1231.819452 575.733542 
L 1245.496107 570.576 
L 1259.172762 579.778727 
L 1272.849416 580.249423 
L 1286.526071 579.292963 
L 1300.202725 582.273271 
L 1313.87938 577.932985 
L 1327.556035 580.235006 
L 1341.232689 580.488536 
L 1354.909344 580.819392 
L 1368.585998 579.685953 
L 1382.262653 581.052357 
L 1395.939308 581.082919 
L 1409.615962 575.897728 
" clip-path="url(#p316f07e587)" style="fill: none; stroke-dasharray: 5.55,2.4; stroke-dashoffset: 0; stroke: #004e4a; stroke-width: 1.5"/>
   </g>
   <g id="line2d_15">
    <path d="M 55.627157 586.232773 
L 69.303811 584.704575 
L 82.980466 584.576692 
L 96.65712 583.360013 
L 110.333775 586.216839 
L 124.01043 583.809898 
L 137.687084 586.610867 
L 151.363739 584.608788 
L 165.040393 584.930756 
L 178.717048 584.001506 
L 192.393703 585.054539 
L 206.070357 586.020177 
L 219.747012 585.300705 
L 233.423666 585.329906 
L 247.100321 586.338122 
L 260.776976 583.006127 
L 274.45363 586.47207 
L 288.130285 584.732593 
L 301.806939 584.852649 
L 315.483594 585.730511 
L 329.160249 585.937495 
L 342.836903 585.036368 
L 356.513558 586.717215 
L 370.190212 585.277301 
L 383.866867 585.112841 
L 397.543522 586.41532 
L 411.220176 584.863328 
L 424.896831 585.399996 
L 438.573486 585.872158 
L 452.25014 586.229029 
L 465.926795 585.20605 
L 479.603449 585.677917 
L 493.280104 585.770441 
L 506.956759 586.368768 
L 520.633413 585.257216 
L 534.310068 586.642126 
L 547.986722 586.183471 
L 561.663377 585.973558 
L 575.340032 585.192158 
L 589.016686 585.303031 
L 602.693341 585.416956 
L 616.369995 585.915441 
L 630.04665 583.9539 
L 643.723305 585.960759 
L 657.399959 584.309432 
L 671.076614 585.704992 
L 684.753268 585.539339 
L 698.429923 585.324209 
L 712.106578 585.24097 
L 725.783232 584.55986 
L 739.459887 585.505992 
L 753.136541 584.76036 
L 766.813196 586.01125 
L 780.489851 586.164725 
L 794.166505 585.399711 
L 807.84316 585.972409 
L 821.519814 585.080449 
L 835.196469 585.246164 
L 848.873124 584.649147 
L 862.549778 585.397982 
L 876.226433 585.494204 
L 889.903087 585.924077 
L 903.579742 584.737151 
L 917.256397 585.704741 
L 930.933051 585.147654 
L 944.609706 585.327741 
L 958.28636 586.142821 
L 971.963015 585.048324 
L 985.63967 584.318749 
L 999.316324 586.054427 
L 1012.992979 585.266929 
L 1026.669633 586.216872 
L 1040.346288 585.376742 
L 1054.022943 585.492324 
L 1067.699597 585.630132 
L 1081.376252 585.636632 
L 1095.052906 584.410073 
L 1108.729561 585.506316 
L 1122.406216 585.21038 
L 1136.08287 586.549369 
L 1149.759525 585.640169 
L 1163.436179 584.746 
L 1177.112834 585.617992 
L 1190.789489 585.579575 
L 1204.466143 585.201001 
L 1218.142798 585.211579 
L 1231.819452 584.902108 
L 1245.496107 585.520699 
L 1259.172762 584.635813 
L 1272.849416 585.698872 
L 1286.526071 583.895442 
L 1300.202725 585.484173 
L 1313.87938 586.537016 
L 1327.556035 585.671903 
L 1341.232689 585.408649 
L 1354.909344 585.436918 
L 1368.585998 585.699123 
L 1382.262653 584.590148 
L 1395.939308 585.932384 
L 1409.615962 585.715994 
" clip-path="url(#p316f07e587)" style="fill: none; stroke-dasharray: 5.55,2.4; stroke-dashoffset: 0; stroke: #c17150; stroke-width: 1.5"/>
   </g>
   <g id="line2d_16">
    <path d="M 55.627157 52.361647 
L 69.303811 52.361647 
L 82.980466 52.361647 
L 96.65712 52.361647 
L 110.333775 52.361647 
L 124.01043 52.361647 
L 137.687084 52.361647 
L 151.363739 52.361647 
L 165.040393 52.361647 
L 178.717048 52.361647 
L 192.393703 52.361647 
L 206.070357 52.361647 
L 219.747012 52.361647 
L 233.423666 52.361647 
L 247.100321 52.361647 
L 260.776976 52.361647 
L 274.45363 52.361647 
L 288.130285 52.361647 
L 301.806939 52.361647 
L 315.483594 52.361647 
L 329.160249 52.361647 
L 342.836903 52.361647 
L 356.513558 52.361647 
L 370.190212 52.361647 
L 383.866867 52.361647 
L 397.543522 52.361647 
L 411.220176 52.361647 
L 424.896831 52.361647 
L 438.573486 52.361647 
L 452.25014 52.361647 
L 465.926795 52.361647 
L 479.603449 52.361647 
L 493.280104 52.361647 
L 506.956759 52.361647 
L 520.633413 52.361647 
L 534.310068 52.361647 
L 547.986722 52.361647 
L 561.663377 52.361647 
L 575.340032 52.361647 
L 589.016686 52.361647 
L 602.693341 52.361647 
L 616.369995 52.361647 
L 630.04665 52.361647 
L 643.723305 52.361647 
L 657.399959 52.361647 
L 671.076614 52.361647 
L 684.753268 52.361647 
L 698.429923 52.361647 
L 712.106578 52.361647 
L 725.783232 52.361647 
L 739.459887 52.361647 
L 753.136541 52.361647 
L 766.813196 52.361647 
L 780.489851 52.361647 
L 794.166505 52.361647 
L 807.84316 52.361647 
L 821.519814 52.361647 
L 835.196469 52.361647 
L 848.873124 52.361647 
L 862.549778 52.361647 
L 876.226433 52.361647 
L 889.903087 52.361647 
L 903.579742 52.361647 
L 917.256397 52.361647 
L 930.933051 52.361647 
L 944.609706 52.361647 
L 958.28636 52.361647 
L 971.963015 52.361647 
L 985.63967 52.361647 
L 999.316324 255.582448 
L 1012.992979 584.766163 
L 1026.669633 584.256693 
L 1040.346288 584.920162 
L 1054.022943 585.097431 
L 1067.699597 585.905025 
L 1081.376252 585.997129 
L 1095.052906 585.944151 
L 1108.729561 586.216839 
L 1122.406216 586.379502 
L 1136.08287 584.909433 
L 1149.759525 585.701015 
L 1163.436179 585.648722 
L 1177.112834 586.564605 
L 1190.789489 584.820648 
L 1204.466143 586.110468 
L 1218.142798 586.217185 
L 1231.819452 585.575268 
L 1245.496107 585.690325 
L 1259.172762 585.726712 
L 1272.849416 585.428706 
L 1286.526071 586.318412 
L 1300.202725 585.570353 
L 1313.87938 586.285869 
L 1327.556035 586.494125 
L 1341.232689 586.312241 
L 1354.909344 585.021444 
L 1368.585998 586.423784 
L 1382.262653 584.446878 
L 1395.939308 585.659808 
L 1409.615962 586.106474 
" clip-path="url(#p316f07e587)" style="fill: none; stroke-dasharray: 5.55,2.4; stroke-dashoffset: 0; stroke: #ffbb00; stroke-width: 1.5"/>
   </g>
   <g id="line2d_17">
    <path d="M 55.627157 580.604787 
L 69.303811 568.766623 
L 82.980466 583.412596 
L 96.65712 583.497933 
L 110.333775 565.027092 
L 124.01043 585.987483 
L 137.687084 568.433703 
L 151.363739 582.58783 
L 165.040393 583.582121 
L 178.717048 581.200069 
L 192.393703 584.093031 
L 206.070357 587.501683 
L 219.747012 573.86015 
L 233.423666 578.647832 
L 247.100321 587.286911 
L 260.776976 578.650605 
L 274.45363 586.038465 
L 288.130285 587.425796 
L 301.806939 586.92961 
L 315.483594 587.165337 
L 329.160249 587.019606 
L 342.836903 587.164378 
L 356.513558 580.329694 
L 370.190212 580.476792 
L 383.866867 575.277636 
L 397.543522 586.230502 
L 411.220176 587.158782 
L 424.896831 576.349672 
L 438.573486 587.229698 
L 452.25014 586.724021 
L 465.926795 574.681451 
L 479.603449 582.699729 
L 493.280104 578.447543 
L 506.956759 583.421645 
L 520.633413 586.891316 
L 534.310068 575.019063 
L 547.986722 566.087267 
L 561.663377 575.62239 
L 575.340032 567.563853 
L 589.016686 587.391586 
L 602.693341 575.563519 
L 616.369995 587.462401 
L 630.04665 586.898111 
L 643.723305 581.485176 
L 657.399959 577.402466 
L 671.076614 587.449608 
L 684.753268 582.012298 
L 698.429923 586.939039 
L 712.106578 579.514011 
L 725.783232 570.991067 
L 739.459887 587.437797 
L 753.136541 584.124424 
L 766.813196 577.665056 
L 780.489851 586.101146 
L 794.166505 581.700216 
L 807.84316 580.482857 
L 821.519814 577.272992 
L 835.196469 574.55672 
L 848.873124 587.401979 
L 862.549778 585.483972 
L 876.226433 582.5029 
L 889.903087 586.591965 
L 903.579742 586.446457 
L 917.256397 577.228382 
L 930.933051 572.178662 
L 944.609706 586.66981 
L 958.28636 584.756511 
L 971.963015 587.234975 
L 985.63967 586.698776 
L 999.316324 576.584295 
L 1012.992979 586.616396 
L 1026.669633 583.273225 
L 1040.346288 573.749762 
L 1054.022943 577.933956 
L 1067.699597 587.071832 
L 1081.376252 578.238395 
L 1095.052906 581.273992 
L 1108.729561 578.132711 
L 1122.406216 577.894267 
L 1136.08287 583.088613 
L 1149.759525 584.868438 
L 1163.436179 576.552338 
L 1177.112834 585.903568 
L 1190.789489 576.806961 
L 1204.466143 573.551917 
L 1218.142798 584.621274 
L 1231.819452 581.891405 
L 1245.496107 581.719966 
L 1259.172762 580.327942 
L 1272.849416 577.813699 
L 1286.526071 584.332635 
L 1300.202725 585.391281 
L 1313.87938 583.172506 
L 1327.556035 581.192777 
L 1341.232689 580.961876 
L 1354.909344 585.292598 
L 1368.585998 577.283648 
L 1382.262653 577.764793 
L 1395.939308 586.242843 
L 1409.615962 583.703812 
" clip-path="url(#p316f07e587)" style="fill: none; stroke: #a1d9cc; stroke-width: 1.5; stroke-linecap: round"/>
   </g>
   <g id="patch_3">
    <path d="M 55.627157 614.258685 
L 55.627157 25.604645 
" style="fill: none; stroke: #808080; stroke-width: 0.8; stroke-linejoin: miter; stroke-linecap: square"/>
   </g>
   <g id="patch_4">
    <path d="M 55.627157 614.258685 
L 1423.292617 614.258685 
" style="fill: none; stroke: #808080; stroke-width: 0.8; stroke-linejoin: miter; stroke-linecap: square"/>
   </g>
   <g id="text_14">
    <!-- Validation Loss of LSTM -->
    <g style="fill: #262626" transform="translate(618.552533 19.604645) scale(0.24 -0.24)">
     <defs>
      <path id="CMR17-56" d="M 3776 3745 
C 3834 3886 3936 4160 4365 4160 
L 4365 4332 
C 4218 4319 4051 4319 3891 4319 
C 3738 4319 3475 4319 3328 4332 
L 3328 4160 
C 3648 4160 3661 3936 3661 3898 
C 3661 3827 3642 3783 3622 3732 
L 2362 446 
L 1043 3886 
C 1024 3931 1011 3963 1011 3994 
C 1011 4160 1267 4160 1402 4160 
L 1402 4319 
C 1197 4319 896 4319 685 4319 
C 518 4319 218 4319 64 4332 
L 64 4160 
C 435 4160 506 4135 582 3931 
L 2106 -26 
C 2138 -115 2144 -128 2214 -128 
C 2285 -128 2291 -115 2323 -26 
L 3776 3745 
z
" transform="scale(0.015625)"/>
      <path id="CMR17-61" d="M 2304 1653 
C 2304 2072 2304 2294 2035 2543 
C 1798 2752 1523 2816 1306 2816 
C 800 2816 435 2407 435 1971 
C 435 1728 627 1728 666 1728 
C 749 1728 896 1778 896 1954 
C 896 2112 774 2181 666 2181 
C 640 2181 608 2174 589 2168 
C 723 2592 1069 2714 1293 2714 
C 1613 2714 1965 2429 1965 1885 
L 1965 1600 
C 1587 1600 1133 1549 774 1357 
C 371 1133 256 813 256 570 
C 256 77 832 -64 1171 -64 
C 1523 -64 1850 139 1990 511 
C 2003 233 2182 -18 2464 -18 
C 2598 -18 2938 70 2938 567 
L 2938 920 
L 2822 920 
L 2822 562 
C 2822 178 2650 128 2566 128 
C 2304 128 2304 458 2304 738 
L 2304 1653 
z
M 1965 870 
C 1965 317 1568 38 1216 38 
C 896 38 646 275 646 570 
C 646 761 730 1100 1101 1305 
C 1408 1478 1760 1504 1965 1504 
L 1965 870 
z
" transform="scale(0.015625)"/>
      <path id="CMR17-6c" d="M 979 4396 
L 218 4326 
L 218 4160 
C 595 4160 653 4122 653 3817 
L 653 426 
C 653 184 627 153 218 153 
L 218 -13 
C 371 0 653 0 813 0 
C 979 0 1261 0 1414 -13 
L 1414 153 
C 1005 153 979 178 979 426 
L 979 4396 
z
" transform="scale(0.015625)"/>
      <path id="CMR17-69" d="M 992 3909 
C 992 4049 877 4170 730 4170 
C 589 4170 467 4056 467 3909 
C 467 3769 582 3648 730 3648 
C 870 3648 992 3763 992 3909 
z
M 243 2706 
L 243 2541 
C 602 2541 653 2502 653 2197 
L 653 427 
C 653 184 627 153 218 153 
L 218 -13 
C 371 0 646 0 806 0 
C 960 0 1222 0 1370 -13 
L 1370 153 
C 992 153 979 191 979 420 
L 979 2776 
L 243 2706 
z
" transform="scale(0.015625)"/>
      <path id="CMR17-64" d="M 1869 4326 
L 1869 4160 
C 2246 4160 2304 4122 2304 3820 
L 2304 2345 
C 2278 2377 2016 2790 1498 2790 
C 845 2790 211 2208 211 1364 
C 211 525 806 -64 1434 -64 
C 1978 -64 2259 337 2291 380 
L 2291 -63 
L 3066 -63 
L 3066 128 
C 2688 128 2630 166 2630 473 
L 2630 4396 
L 1869 4326 
z
M 2291 755 
C 2291 563 2176 390 2029 262 
C 1811 70 1594 38 1472 38 
C 1286 38 621 134 621 1356 
C 621 2612 1363 2688 1530 2688 
C 1824 2688 2061 2522 2208 2291 
C 2291 2157 2291 2138 2291 2023 
L 2291 755 
z
" transform="scale(0.015625)"/>
      <path id="CMR17-74" d="M 966 2560 
L 1862 2560 
L 1862 2725 
L 966 2725 
L 966 3904 
L 851 3904 
C 838 3245 614 2668 70 2668 
L 70 2560 
L 627 2560 
L 627 771 
C 627 650 627 -64 1370 -64 
C 1747 -64 1965 306 1965 777 
L 1965 1140 
L 1850 1140 
L 1850 783 
C 1850 344 1677 51 1408 51 
C 1222 51 966 178 966 758 
L 966 2560 
z
" transform="scale(0.015625)"/>
      <path id="CMR17-6e" d="M 2656 1933 
C 2656 2259 2592 2790 1837 2790 
C 1331 2790 1069 2400 973 2144 
L 966 2144 
L 966 2790 
L 211 2720 
L 211 2554 
C 589 2554 646 2515 646 2208 
L 646 428 
C 646 184 621 153 211 153 
L 211 -13 
C 365 0 646 0 813 0 
C 979 0 1267 0 1421 -13 
L 1421 153 
C 1011 153 986 178 986 428 
L 986 1658 
C 986 2247 1344 2688 1792 2688 
C 2266 2688 2317 2266 2317 1958 
L 2317 428 
C 2317 184 2291 153 1882 153 
L 1882 -13 
C 2035 0 2317 0 2483 0 
C 2650 0 2938 0 3091 -13 
L 3091 153 
C 2682 153 2656 178 2656 428 
L 2656 1933 
z
" transform="scale(0.015625)"/>
      <path id="CMR17-66" d="M 979 2560 
L 1709 2560 
L 1709 2725 
L 966 2725 
L 966 3494 
C 966 4022 1235 4352 1510 4352 
C 1594 4352 1690 4327 1754 4282 
C 1702 4269 1568 4225 1568 4067 
C 1568 3901 1696 3850 1786 3850 
C 1875 3850 2003 3901 2003 4067 
C 2003 4308 1773 4454 1517 4454 
C 1152 4454 653 4156 653 3481 
L 653 2725 
L 141 2725 
L 141 2560 
L 653 2560 
L 653 427 
C 653 184 627 153 218 153 
L 218 -13 
C 371 0 666 0 832 0 
C 1018 0 1344 0 1517 -13 
L 1517 153 
C 1056 153 979 153 979 439 
L 979 2560 
z
" transform="scale(0.015625)"/>
      <path id="CMR17-53" d="M 2803 4290 
C 2803 4404 2797 4411 2758 4411 
C 2720 4411 2707 4385 2682 4328 
L 2490 3907 
C 2246 4257 1875 4416 1472 4416 
C 819 4416 294 3901 294 3253 
C 294 3056 339 2776 557 2510 
C 794 2218 1018 2167 1530 2033 
C 1722 1982 2042 1899 2106 1874 
C 2470 1722 2662 1341 2662 985 
C 2662 527 2336 38 1779 38 
C 1094 38 454 419 410 1311 
C 403 1413 397 1419 352 1419 
C 301 1419 294 1413 294 1285 
L 294 -1 
C 294 -115 301 -122 339 -122 
C 384 -122 397 -90 486 108 
C 493 127 493 140 614 381 
C 934 -39 1472 -128 1779 -128 
C 2477 -128 2970 451 2970 1124 
C 2970 1454 2848 1708 2778 1823 
C 2509 2230 2221 2306 1914 2382 
C 1869 2402 1856 2402 1498 2490 
C 1152 2579 1005 2624 845 2796 
C 666 2992 602 3196 602 3399 
C 602 3812 934 4263 1478 4263 
C 2157 4263 2579 3786 2675 2993 
C 2694 2878 2701 2872 2746 2872 
C 2803 2872 2803 2891 2803 2999 
L 2803 4290 
z
" transform="scale(0.015625)"/>
      <path id="CMR17-54" d="M 3981 4326 
L 288 4326 
L 179 2918 
L 294 2918 
C 378 3976 467 4160 1453 4160 
C 1568 4160 1754 4160 1805 4154 
C 1926 4135 1926 4058 1926 3912 
L 1926 459 
C 1926 230 1907 160 1376 160 
L 1197 160 
L 1197 0 
C 1504 0 1824 0 2138 0 
C 2451 0 2771 0 3078 0 
L 3078 160 
L 2899 160 
C 2368 160 2349 230 2349 459 
L 2349 3912 
C 2349 4052 2349 4129 2464 4154 
C 2515 4160 2701 4160 2816 4160 
C 3795 4160 3891 3976 3974 2918 
L 4090 2918 
L 3981 4326 
z
" transform="scale(0.015625)"/>
      <path id="CMR17-4d" d="M 1338 4224 
C 1299 4320 1293 4320 1158 4320 
L 339 4320 
L 339 4160 
C 781 4160 851 4160 851 3875 
L 851 610 
C 851 451 851 153 339 153 
L 339 -13 
C 486 0 755 0 915 0 
C 1075 0 1344 0 1491 -13 
L 1491 153 
C 979 153 979 451 979 610 
L 979 4135 
L 986 4135 
L 2490 89 
C 2515 25 2528 -13 2579 -13 
C 2630 -13 2643 25 2669 89 
L 4186 4166 
L 4192 4166 
L 4192 438 
C 4192 153 4122 153 3680 153 
L 3680 -13 
C 3853 0 4198 0 4384 0 
C 4570 0 4922 0 5094 -13 
L 5094 153 
C 4653 153 4582 153 4582 438 
L 4582 3875 
C 4582 4160 4653 4160 5094 4160 
L 5094 4320 
L 4282 4320 
C 4147 4320 4141 4314 4102 4218 
L 2720 502 
L 1338 4224 
z
" transform="scale(0.015625)"/>
     </defs>
     <use xlink:href="#CMR17-56" transform="scale(0.996264)"/>
     <use xlink:href="#CMR17-61" transform="translate(61.265174 0) scale(0.996264)"/>
     <use xlink:href="#CMR17-6c" transform="translate(106.955652 0) scale(0.996264)"/>
     <use xlink:href="#CMR17-69" transform="translate(131.82671 0) scale(0.996264)"/>
     <use xlink:href="#CMR17-64" transform="translate(156.697768 0) scale(0.996264)"/>
     <use xlink:href="#CMR17-61" transform="translate(207.593138 0) scale(0.996264)"/>
     <use xlink:href="#CMR17-74" transform="translate(253.283615 0) scale(0.996264)"/>
     <use xlink:href="#CMR17-69" transform="translate(288.564383 0) scale(0.996264)"/>
     <use xlink:href="#CMR17-6f" transform="translate(313.435442 0) scale(0.996264)"/>
     <use xlink:href="#CMR17-6e" transform="translate(359.125919 0) scale(0.996264)"/>
     <use xlink:href="#CMR17-4c" transform="translate(440.097255 0) scale(0.996264)"/>
     <use xlink:href="#CMR17-6f" transform="translate(497.478663 0) scale(0.996264)"/>
     <use xlink:href="#CMR17-73" transform="translate(543.16914 0) scale(0.996264)"/>
     <use xlink:href="#CMR17-73" transform="translate(578.970478 0) scale(0.996264)"/>
     <use xlink:href="#CMR17-6f" transform="translate(644.847782 0) scale(0.996264)"/>
     <use xlink:href="#CMR17-66" transform="translate(690.538259 0) scale(0.996264)"/>
     <use xlink:href="#CMR17-4c" transform="translate(748.087737 0) scale(0.996264)"/>
     <use xlink:href="#CMR17-53" transform="translate(805.469145 0) scale(0.996264)"/>
     <use xlink:href="#CMR17-54" transform="translate(856.364515 0) scale(0.996264)"/>
     <use xlink:href="#CMR17-4d" transform="translate(922.874396 0) scale(0.996264)"/>
    </g>
   </g>
   <g id="legend_1">
    <g id="patch_5">
     <path d="M 163.736013 716.999722 
L 1315.183761 716.999722 
Q 1319.183761 716.999722 1319.183761 712.999722 
L 1319.183761 687.124089 
Q 1319.183761 683.124089 1315.183761 683.124089 
L 163.736013 683.124089 
Q 159.736013 683.124089 159.736013 687.124089 
L 159.736013 712.999722 
Q 159.736013 716.999722 163.736013 716.999722 
z
" style="fill: #ffffff; opacity: 0.8"/>
    </g>
    <g id="line2d_18">
     <path d="M 167.736013 698.124089 
L 187.736013 698.124089 
L 207.736013 698.124089 
" style="fill: none; stroke-dasharray: 5.55,2.4; stroke-dashoffset: 0; stroke: #006e64; stroke-width: 1.5"/>
    </g>
    <g id="text_15">
     <!-- 4 batch size -->
     <g style="fill: #262626" transform="translate(223.736013 705.124089) scale(0.2 -0.2)">
      <defs>
       <path id="CMR17-62" d="M 960 4396 
L 198 4326 
L 198 4160 
C 576 4160 634 4122 634 3817 
L 634 -13 
L 749 -13 
L 934 441 
C 1120 141 1395 -64 1766 -64 
C 2406 -64 3053 500 3053 1370 
C 3053 2188 2477 2790 1830 2790 
C 1434 2790 1152 2579 960 2330 
L 960 4396 
z
M 973 2004 
C 973 2118 973 2138 1062 2272 
C 1312 2657 1670 2688 1792 2688 
C 1984 2688 2643 2585 2643 1376 
C 2643 108 1888 38 1734 38 
C 1536 38 1248 114 1043 486 
C 973 608 973 621 973 735 
L 973 2004 
z
" transform="scale(0.015625)"/>
       <path id="CMR17-7a" d="M 2310 2605 
C 2362 2670 2362 2682 2362 2695 
C 2362 2752 2336 2752 2221 2752 
L 275 2752 
L 211 1760 
L 326 1760 
C 371 2381 442 2650 1178 2650 
L 1958 2650 
L 128 96 
C 128 0 134 0 269 0 
L 2291 0 
L 2381 1152 
L 2266 1152 
C 2214 442 2131 115 1350 115 
L 531 115 
L 2310 2605 
z
" transform="scale(0.015625)"/>
       <path id="CMR17-65" d="M 2438 1472 
C 2464 1498 2464 1511 2464 1576 
C 2464 2238 2118 2816 1389 2816 
C 710 2816 173 2169 173 1383 
C 173 551 781 -64 1459 -64 
C 2176 -64 2458 607 2458 740 
C 2458 784 2419 784 2406 784 
C 2362 784 2355 771 2330 696 
C 2189 265 1837 51 1504 51 
C 1229 51 954 203 781 480 
C 582 803 582 1176 582 1472 
L 2438 1472 
z
M 589 1568 
C 634 2505 1126 2714 1382 2714 
C 1818 2714 2112 2297 2118 1568 
L 589 1568 
z
" transform="scale(0.015625)"/>
      </defs>
      <use xlink:href="#CMR17-34" transform="scale(0.996264)"/>
      <use xlink:href="#CMR17-62" transform="translate(75.766443 0) scale(0.996264)"/>
      <use xlink:href="#CMR17-61" transform="translate(126.661813 0) scale(0.996264)"/>
      <use xlink:href="#CMR17-74" transform="translate(172.35229 0) scale(0.996264)"/>
      <use xlink:href="#CMR17-63" transform="translate(207.633058 0) scale(0.996264)"/>
      <use xlink:href="#CMR17-68" transform="translate(245.516265 0) scale(0.996264)"/>
      <use xlink:href="#CMR17-73" transform="translate(326.487601 0) scale(0.996264)"/>
      <use xlink:href="#CMR17-69" transform="translate(362.288938 0) scale(0.996264)"/>
      <use xlink:href="#CMR17-7a" transform="translate(387.159997 0) scale(0.996264)"/>
      <use xlink:href="#CMR17-65" transform="translate(427.645657 0) scale(0.996264)"/>
     </g>
    </g>
    <g id="line2d_19">
     <path d="M 357.362224 698.124089 
L 377.362224 698.124089 
L 397.362224 698.124089 
" style="fill: none; stroke-dasharray: 5.55,2.4; stroke-dashoffset: 0; stroke: #734848; stroke-width: 1.5"/>
    </g>
    <g id="text_16">
     <!-- 8 batch size -->
     <g style="fill: #262626" transform="translate(413.362224 705.124089) scale(0.2 -0.2)">
      <use xlink:href="#CMR17-38" transform="scale(0.996264)"/>
      <use xlink:href="#CMR17-62" transform="translate(75.766443 0) scale(0.996264)"/>
      <use xlink:href="#CMR17-61" transform="translate(126.661813 0) scale(0.996264)"/>
      <use xlink:href="#CMR17-74" transform="translate(172.35229 0) scale(0.996264)"/>
      <use xlink:href="#CMR17-63" transform="translate(207.633058 0) scale(0.996264)"/>
      <use xlink:href="#CMR17-68" transform="translate(245.516265 0) scale(0.996264)"/>
      <use xlink:href="#CMR17-73" transform="translate(326.487601 0) scale(0.996264)"/>
      <use xlink:href="#CMR17-69" transform="translate(362.288938 0) scale(0.996264)"/>
      <use xlink:href="#CMR17-7a" transform="translate(387.159997 0) scale(0.996264)"/>
      <use xlink:href="#CMR17-65" transform="translate(427.645657 0) scale(0.996264)"/>
     </g>
    </g>
    <g id="line2d_20">
     <path d="M 546.988436 698.124089 
L 566.988436 698.124089 
L 586.988436 698.124089 
" style="fill: none; stroke-dasharray: 5.55,2.4; stroke-dashoffset: 0; stroke: #004e4a; stroke-width: 1.5"/>
    </g>
    <g id="text_17">
     <!-- 16 batch size -->
     <g style="fill: #262626" transform="translate(602.988436 705.124089) scale(0.2 -0.2)">
      <use xlink:href="#CMR17-31" transform="scale(0.996264)"/>
      <use xlink:href="#CMR17-36" transform="translate(45.690477 0) scale(0.996264)"/>
      <use xlink:href="#CMR17-62" transform="translate(121.456921 0) scale(0.996264)"/>
      <use xlink:href="#CMR17-61" transform="translate(172.35229 0) scale(0.996264)"/>
      <use xlink:href="#CMR17-74" transform="translate(218.042767 0) scale(0.996264)"/>
      <use xlink:href="#CMR17-63" transform="translate(253.323535 0) scale(0.996264)"/>
      <use xlink:href="#CMR17-68" transform="translate(291.206742 0) scale(0.996264)"/>
      <use xlink:href="#CMR17-73" transform="translate(372.178078 0) scale(0.996264)"/>
      <use xlink:href="#CMR17-69" transform="translate(407.979416 0) scale(0.996264)"/>
      <use xlink:href="#CMR17-7a" transform="translate(432.850474 0) scale(0.996264)"/>
      <use xlink:href="#CMR17-65" transform="translate(473.336135 0) scale(0.996264)"/>
     </g>
    </g>
    <g id="line2d_21">
     <path d="M 745.752744 698.124089 
L 765.752744 698.124089 
L 785.752744 698.124089 
" style="fill: none; stroke-dasharray: 5.55,2.4; stroke-dashoffset: 0; stroke: #c17150; stroke-width: 1.5"/>
    </g>
    <g id="text_18">
     <!-- 32 batch size -->
     <g style="fill: #262626" transform="translate(801.752744 705.124089) scale(0.2 -0.2)">
      <defs>
       <path id="CMR17-33" d="M 1414 2157 
C 1984 2157 2234 1662 2234 1090 
C 2234 320 1824 25 1453 25 
C 1114 25 563 194 390 693 
C 422 680 454 680 486 680 
C 640 680 755 782 755 948 
C 755 1133 614 1216 486 1216 
C 378 1216 211 1165 211 926 
C 211 335 787 -128 1466 -128 
C 2176 -128 2720 430 2720 1085 
C 2720 1707 2208 2157 1600 2227 
C 2086 2328 2554 2756 2554 3329 
C 2554 3820 2048 4179 1472 4179 
C 890 4179 378 3829 378 3329 
C 378 3110 544 3072 627 3072 
C 762 3072 877 3155 877 3321 
C 877 3486 762 3569 627 3569 
C 602 3569 570 3569 544 3557 
C 730 3959 1235 4032 1459 4032 
C 1683 4032 2106 3925 2106 3320 
C 2106 3143 2080 2828 1862 2550 
C 1670 2304 1453 2304 1242 2284 
C 1210 2284 1062 2269 1037 2269 
C 992 2263 966 2257 966 2208 
C 966 2163 973 2157 1101 2157 
L 1414 2157 
z
" transform="scale(0.015625)"/>
      </defs>
      <use xlink:href="#CMR17-33" transform="scale(0.996264)"/>
      <use xlink:href="#CMR17-32" transform="translate(45.690477 0) scale(0.996264)"/>
      <use xlink:href="#CMR17-62" transform="translate(121.456921 0) scale(0.996264)"/>
      <use xlink:href="#CMR17-61" transform="translate(172.35229 0) scale(0.996264)"/>
      <use xlink:href="#CMR17-74" transform="translate(218.042767 0) scale(0.996264)"/>
      <use xlink:href="#CMR17-63" transform="translate(253.323535 0) scale(0.996264)"/>
      <use xlink:href="#CMR17-68" transform="translate(291.206742 0) scale(0.996264)"/>
      <use xlink:href="#CMR17-73" transform="translate(372.178078 0) scale(0.996264)"/>
      <use xlink:href="#CMR17-69" transform="translate(407.979416 0) scale(0.996264)"/>
      <use xlink:href="#CMR17-7a" transform="translate(432.850474 0) scale(0.996264)"/>
      <use xlink:href="#CMR17-65" transform="translate(473.336135 0) scale(0.996264)"/>
     </g>
    </g>
    <g id="line2d_22">
     <path d="M 944.517051 698.124089 
L 964.517051 698.124089 
L 984.517051 698.124089 
" style="fill: none; stroke-dasharray: 5.55,2.4; stroke-dashoffset: 0; stroke: #ffbb00; stroke-width: 1.5"/>
    </g>
    <g id="text_19">
     <!-- 64 batch size -->
     <g style="fill: #262626" transform="translate(1000.517051 705.124089) scale(0.2 -0.2)">
      <use xlink:href="#CMR17-36" transform="scale(0.996264)"/>
      <use xlink:href="#CMR17-34" transform="translate(45.690477 0) scale(0.996264)"/>
      <use xlink:href="#CMR17-62" transform="translate(121.456921 0) scale(0.996264)"/>
      <use xlink:href="#CMR17-61" transform="translate(172.35229 0) scale(0.996264)"/>
      <use xlink:href="#CMR17-74" transform="translate(218.042767 0) scale(0.996264)"/>
      <use xlink:href="#CMR17-63" transform="translate(253.323535 0) scale(0.996264)"/>
      <use xlink:href="#CMR17-68" transform="translate(291.206742 0) scale(0.996264)"/>
      <use xlink:href="#CMR17-73" transform="translate(372.178078 0) scale(0.996264)"/>
      <use xlink:href="#CMR17-69" transform="translate(407.979416 0) scale(0.996264)"/>
      <use xlink:href="#CMR17-7a" transform="translate(432.850474 0) scale(0.996264)"/>
      <use xlink:href="#CMR17-65" transform="translate(473.336135 0) scale(0.996264)"/>
     </g>
    </g>
    <g id="line2d_23">
     <path d="M 1143.281358 698.124089 
L 1163.281358 698.124089 
L 1183.281358 698.124089 
" style="fill: none; stroke: #a1d9cc; stroke-width: 1.5; stroke-linecap: round"/>
    </g>
    <g id="text_20">
     <!-- 128 batch size -->
     <g style="fill: #262626" transform="translate(1199.281358 705.124089) scale(0.2 -0.2)">
      <use xlink:href="#CMR17-31" transform="scale(0.996264)"/>
      <use xlink:href="#CMR17-32" transform="translate(45.690477 0) scale(0.996264)"/>
      <use xlink:href="#CMR17-38" transform="translate(91.380954 0) scale(0.996264)"/>
      <use xlink:href="#CMR17-62" transform="translate(167.147398 0) scale(0.996264)"/>
      <use xlink:href="#CMR17-61" transform="translate(218.042767 0) scale(0.996264)"/>
      <use xlink:href="#CMR17-74" transform="translate(263.733245 0) scale(0.996264)"/>
      <use xlink:href="#CMR17-63" transform="translate(299.014012 0) scale(0.996264)"/>
      <use xlink:href="#CMR17-68" transform="translate(336.897219 0) scale(0.996264)"/>
      <use xlink:href="#CMR17-73" transform="translate(417.868555 0) scale(0.996264)"/>
      <use xlink:href="#CMR17-69" transform="translate(453.669893 0) scale(0.996264)"/>
      <use xlink:href="#CMR17-7a" transform="translate(478.540951 0) scale(0.996264)"/>
      <use xlink:href="#CMR17-65" transform="translate(519.026612 0) scale(0.996264)"/>
     </g>
    </g>
   </g>
  </g>
 </g>
 <defs>
  <clipPath id="p316f07e587">
   <rect x="55.627157" y="25.604645" width="1367.66546" height="588.65404"/>
  </clipPath>
 </defs>
</svg>
