<?xml version="1.0" encoding="utf-8" standalone="no"?>
<!DOCTYPE svg PUBLIC "-//W3C//DTD SVG 1.1//EN"
  "http://www.w3.org/Graphics/SVG/1.1/DTD/svg11.dtd">
<svg xmlns:xlink="http://www.w3.org/1999/xlink" width="1440pt" height="720pt" viewBox="0 0 1440 720" xmlns="http://www.w3.org/2000/svg" version="1.1">
 <metadata>
  <rdf:RDF xmlns:dc="http://purl.org/dc/elements/1.1/" xmlns:cc="http://creativecommons.org/ns#" xmlns:rdf="http://www.w3.org/1999/02/22-rdf-syntax-ns#">
   <cc:Work>
    <dc:type rdf:resource="http://purl.org/dc/dcmitype/StillImage"/>
    <dc:date>2023-11-27T12:21:00.347208</dc:date>
    <dc:format>image/svg+xml</dc:format>
    <dc:creator>
     <cc:Agent>
      <dc:title>Matplotlib v3.8.0, https://matplotlib.org/</dc:title>
     </cc:Agent>
    </dc:creator>
   </cc:Work>
  </rdf:RDF>
 </metadata>
 <defs>
  <style type="text/css">*{stroke-linejoin: round; stroke-linecap: butt}</style>
 </defs>
 <g id="figure_1">
  <g id="patch_1">
   <path d="M 0 720 
L 1440 720 
L 1440 0 
L 0 0 
z
" style="fill: #ffffff"/>
  </g>
  <g id="axes_1">
   <g id="patch_2">
    <path d="M 46.489061 586.242924 
L 1436.99976 586.242924 
L 1436.99976 25.604645 
L 46.489061 25.604645 
z
" style="fill: #ffffff"/>
   </g>
   <g id="matplotlib.axis_1">
    <g id="xtick_1">
     <g id="line2d_1">
      <path d="M 109.694093 586.242924 
L 109.694093 25.604645 
" clip-path="url(#p7987e4a056)" style="fill: none; stroke: #cccccc; stroke-opacity: 0.35; stroke-width: 0.8; stroke-linecap: round"/>
     </g>
     <g id="text_1">
      <!-- $\mathdefault{2015}$ -->
      <g transform="translate(91.417902 603.579921) scale(0.2 -0.2)">
       <defs>
        <path id="CMR17-32" d="M 2669 989 
L 2554 989 
C 2490 536 2438 459 2413 420 
C 2381 369 1920 369 1830 369 
L 602 369 
C 832 619 1280 1072 1824 1597 
C 2214 1967 2669 2402 2669 3035 
C 2669 3790 2067 4224 1395 4224 
C 691 4224 262 3604 262 3030 
C 262 2780 448 2748 525 2748 
C 589 2748 781 2787 781 3010 
C 781 3207 614 3264 525 3264 
C 486 3264 448 3258 422 3245 
C 544 3790 915 4058 1306 4058 
C 1862 4058 2227 3617 2227 3035 
C 2227 2479 1901 2000 1536 1584 
L 262 146 
L 262 0 
L 2515 0 
L 2669 989 
z
" transform="scale(0.015625)"/>
        <path id="CMR17-30" d="M 2688 2025 
C 2688 2416 2682 3080 2413 3591 
C 2176 4039 1798 4198 1466 4198 
C 1158 4198 768 4058 525 3597 
C 269 3118 243 2524 243 2025 
C 243 1661 250 1106 448 619 
C 723 -39 1216 -128 1466 -128 
C 1760 -128 2208 -7 2470 600 
C 2662 1042 2688 1559 2688 2025 
z
M 1466 -26 
C 1056 -26 813 325 723 812 
C 653 1188 653 1738 653 2096 
C 653 2588 653 2997 736 3387 
C 858 3929 1216 4096 1466 4096 
C 1728 4096 2067 3923 2189 3400 
C 2272 3036 2278 2607 2278 2096 
C 2278 1680 2278 1169 2202 792 
C 2067 95 1690 -26 1466 -26 
z
" transform="scale(0.015625)"/>
        <path id="CMR17-31" d="M 1702 4058 
C 1702 4192 1696 4192 1606 4192 
C 1357 3916 979 3827 621 3827 
C 602 3827 570 3827 563 3808 
C 557 3795 557 3782 557 3648 
C 755 3648 1088 3686 1344 3839 
L 1344 461 
C 1344 236 1331 160 781 160 
L 589 160 
L 589 0 
C 896 0 1216 0 1523 0 
C 1830 0 2150 0 2458 0 
L 2458 160 
L 2266 160 
C 1715 160 1702 230 1702 458 
L 1702 4058 
z
" transform="scale(0.015625)"/>
        <path id="CMR17-35" d="M 730 3692 
C 794 3666 1056 3584 1325 3584 
C 1920 3584 2246 3911 2432 4100 
C 2432 4157 2432 4192 2394 4192 
C 2387 4192 2374 4192 2323 4163 
C 2099 4058 1837 3973 1517 3973 
C 1325 3973 1037 3999 723 4139 
C 653 4171 640 4171 634 4171 
C 602 4171 595 4164 595 4037 
L 595 2203 
C 595 2089 595 2057 659 2057 
C 691 2057 704 2070 736 2114 
C 941 2401 1222 2522 1542 2522 
C 1766 2522 2246 2382 2246 1289 
C 2246 1085 2246 715 2054 421 
C 1894 159 1645 25 1370 25 
C 947 25 518 320 403 814 
C 429 807 480 795 506 795 
C 589 795 749 840 749 1038 
C 749 1210 627 1280 506 1280 
C 358 1280 262 1190 262 1011 
C 262 454 704 -128 1382 -128 
C 2042 -128 2669 440 2669 1264 
C 2669 2030 2170 2624 1549 2624 
C 1222 2624 947 2503 730 2274 
L 730 3692 
z
" transform="scale(0.015625)"/>
       </defs>
       <use xlink:href="#CMR17-32" transform="scale(0.996264)"/>
       <use xlink:href="#CMR17-30" transform="translate(45.690477 0) scale(0.996264)"/>
       <use xlink:href="#CMR17-31" transform="translate(91.380954 0) scale(0.996264)"/>
       <use xlink:href="#CMR17-35" transform="translate(137.071431 0) scale(0.996264)"/>
      </g>
     </g>
    </g>
    <g id="xtick_2">
     <g id="line2d_2">
      <path d="M 252.718498 586.242924 
L 252.718498 25.604645 
" clip-path="url(#p7987e4a056)" style="fill: none; stroke: #cccccc; stroke-opacity: 0.35; stroke-width: 0.8; stroke-linecap: round"/>
     </g>
     <g id="text_2">
      <!-- $\mathdefault{2016}$ -->
      <g transform="translate(234.442308 603.579921) scale(0.2 -0.2)">
       <defs>
        <path id="CMR17-36" d="M 678 2176 
C 678 3690 1395 4032 1811 4032 
C 1946 4032 2272 4009 2400 3776 
C 2298 3776 2106 3776 2106 3553 
C 2106 3381 2246 3323 2336 3323 
C 2394 3323 2566 3348 2566 3560 
C 2566 3954 2246 4179 1805 4179 
C 1043 4179 243 3390 243 1984 
C 243 253 966 -128 1478 -128 
C 2099 -128 2688 427 2688 1283 
C 2688 2081 2170 2662 1517 2662 
C 1126 2662 838 2407 678 1960 
L 678 2176 
z
M 1478 25 
C 691 25 691 1200 691 1436 
C 691 1896 909 2560 1504 2560 
C 1613 2560 1926 2560 2138 2120 
C 2253 1870 2253 1609 2253 1289 
C 2253 944 2253 690 2118 434 
C 1978 171 1773 25 1478 25 
z
" transform="scale(0.015625)"/>
       </defs>
       <use xlink:href="#CMR17-32" transform="scale(0.996264)"/>
       <use xlink:href="#CMR17-30" transform="translate(45.690477 0) scale(0.996264)"/>
       <use xlink:href="#CMR17-31" transform="translate(91.380954 0) scale(0.996264)"/>
       <use xlink:href="#CMR17-36" transform="translate(137.071431 0) scale(0.996264)"/>
      </g>
     </g>
    </g>
    <g id="xtick_3">
     <g id="line2d_3">
      <path d="M 396.134751 586.242924 
L 396.134751 25.604645 
" clip-path="url(#p7987e4a056)" style="fill: none; stroke: #cccccc; stroke-opacity: 0.35; stroke-width: 0.8; stroke-linecap: round"/>
     </g>
     <g id="text_3">
      <!-- $\mathdefault{2017}$ -->
      <g transform="translate(377.858561 603.579921) scale(0.2 -0.2)">
       <defs>
        <path id="CMR17-37" d="M 2886 3941 
L 2886 4081 
L 1382 4081 
C 634 4081 621 4165 595 4288 
L 480 4288 
L 294 3094 
L 410 3094 
C 429 3215 474 3540 550 3661 
C 589 3712 1062 3712 1171 3712 
L 2579 3712 
L 1869 2661 
C 1395 1954 1069 999 1069 165 
C 1069 89 1069 -128 1299 -128 
C 1530 -128 1530 89 1530 171 
L 1530 465 
C 1530 1508 1709 2196 2003 2636 
L 2886 3941 
z
" transform="scale(0.015625)"/>
       </defs>
       <use xlink:href="#CMR17-32" transform="scale(0.996264)"/>
       <use xlink:href="#CMR17-30" transform="translate(45.690477 0) scale(0.996264)"/>
       <use xlink:href="#CMR17-31" transform="translate(91.380954 0) scale(0.996264)"/>
       <use xlink:href="#CMR17-37" transform="translate(137.071431 0) scale(0.996264)"/>
      </g>
     </g>
    </g>
    <g id="xtick_4">
     <g id="line2d_4">
      <path d="M 539.159157 586.242924 
L 539.159157 25.604645 
" clip-path="url(#p7987e4a056)" style="fill: none; stroke: #cccccc; stroke-opacity: 0.35; stroke-width: 0.8; stroke-linecap: round"/>
     </g>
     <g id="text_4">
      <!-- $\mathdefault{2018}$ -->
      <g transform="translate(520.882966 603.579921) scale(0.2 -0.2)">
       <defs>
        <path id="CMR17-38" d="M 1741 2264 
C 2144 2467 2554 2773 2554 3263 
C 2554 3841 1990 4179 1472 4179 
C 890 4179 378 3759 378 3180 
C 378 3021 416 2747 666 2505 
C 730 2442 998 2251 1171 2130 
C 883 1983 211 1634 211 934 
C 211 279 838 -128 1459 -128 
C 2144 -128 2720 362 2720 1010 
C 2720 1590 2330 1857 2074 2029 
L 1741 2264 
z
M 902 2822 
C 851 2854 595 3051 595 3351 
C 595 3739 998 4032 1459 4032 
C 1965 4032 2336 3676 2336 3262 
C 2336 2669 1670 2331 1638 2331 
C 1632 2331 1626 2331 1574 2370 
L 902 2822 
z
M 2080 1519 
C 2176 1449 2483 1240 2483 851 
C 2483 381 2010 25 1472 25 
C 890 25 448 438 448 940 
C 448 1443 838 1862 1280 2060 
L 2080 1519 
z
" transform="scale(0.015625)"/>
       </defs>
       <use xlink:href="#CMR17-32" transform="scale(0.996264)"/>
       <use xlink:href="#CMR17-30" transform="translate(45.690477 0) scale(0.996264)"/>
       <use xlink:href="#CMR17-31" transform="translate(91.380954 0) scale(0.996264)"/>
       <use xlink:href="#CMR17-38" transform="translate(137.071431 0) scale(0.996264)"/>
      </g>
     </g>
    </g>
    <g id="xtick_5">
     <g id="line2d_5">
      <path d="M 682.183562 586.242924 
L 682.183562 25.604645 
" clip-path="url(#p7987e4a056)" style="fill: none; stroke: #cccccc; stroke-opacity: 0.35; stroke-width: 0.8; stroke-linecap: round"/>
     </g>
     <g id="text_5">
      <!-- $\mathdefault{2019}$ -->
      <g transform="translate(663.907371 603.579921) scale(0.2 -0.2)">
       <defs>
        <path id="CMR17-39" d="M 2253 1864 
C 2253 464 1670 31 1190 31 
C 1043 31 685 31 538 294 
C 704 268 826 357 826 518 
C 826 692 685 749 595 749 
C 538 749 365 723 365 506 
C 365 71 742 -128 1203 -128 
C 1939 -128 2688 674 2688 2073 
C 2688 3817 1971 4179 1485 4179 
C 851 4179 243 3628 243 2778 
C 243 1991 762 1408 1414 1408 
C 1952 1408 2189 1903 2253 2112 
L 2253 1864 
z
M 1427 1510 
C 1254 1510 1011 1542 813 1922 
C 678 2169 678 2461 678 2771 
C 678 3146 678 3405 858 3684 
C 947 3817 1114 4032 1485 4032 
C 2240 4032 2240 2885 2240 2632 
C 2240 2182 2035 1510 1427 1510 
z
" transform="scale(0.015625)"/>
       </defs>
       <use xlink:href="#CMR17-32" transform="scale(0.996264)"/>
       <use xlink:href="#CMR17-30" transform="translate(45.690477 0) scale(0.996264)"/>
       <use xlink:href="#CMR17-31" transform="translate(91.380954 0) scale(0.996264)"/>
       <use xlink:href="#CMR17-39" transform="translate(137.071431 0) scale(0.996264)"/>
      </g>
     </g>
    </g>
    <g id="xtick_6">
     <g id="line2d_6">
      <path d="M 825.207968 586.242924 
L 825.207968 25.604645 
" clip-path="url(#p7987e4a056)" style="fill: none; stroke: #cccccc; stroke-opacity: 0.35; stroke-width: 0.8; stroke-linecap: round"/>
     </g>
     <g id="text_6">
      <!-- $\mathdefault{2020}$ -->
      <g transform="translate(806.931777 603.579921) scale(0.2 -0.2)">
       <use xlink:href="#CMR17-32" transform="scale(0.996264)"/>
       <use xlink:href="#CMR17-30" transform="translate(45.690477 0) scale(0.996264)"/>
       <use xlink:href="#CMR17-32" transform="translate(91.380954 0) scale(0.996264)"/>
       <use xlink:href="#CMR17-30" transform="translate(137.071431 0) scale(0.996264)"/>
      </g>
     </g>
    </g>
    <g id="xtick_7">
     <g id="line2d_7">
      <path d="M 968.624221 586.242924 
L 968.624221 25.604645 
" clip-path="url(#p7987e4a056)" style="fill: none; stroke: #cccccc; stroke-opacity: 0.35; stroke-width: 0.8; stroke-linecap: round"/>
     </g>
     <g id="text_7">
      <!-- $\mathdefault{2021}$ -->
      <g transform="translate(950.34803 603.579921) scale(0.2 -0.2)">
       <use xlink:href="#CMR17-32" transform="scale(0.996264)"/>
       <use xlink:href="#CMR17-30" transform="translate(45.690477 0) scale(0.996264)"/>
       <use xlink:href="#CMR17-32" transform="translate(91.380954 0) scale(0.996264)"/>
       <use xlink:href="#CMR17-31" transform="translate(137.071431 0) scale(0.996264)"/>
      </g>
     </g>
    </g>
    <g id="xtick_8">
     <g id="line2d_8">
      <path d="M 1111.648626 586.242924 
L 1111.648626 25.604645 
" clip-path="url(#p7987e4a056)" style="fill: none; stroke: #cccccc; stroke-opacity: 0.35; stroke-width: 0.8; stroke-linecap: round"/>
     </g>
     <g id="text_8">
      <!-- $\mathdefault{2022}$ -->
      <g transform="translate(1093.372435 603.579921) scale(0.2 -0.2)">
       <use xlink:href="#CMR17-32" transform="scale(0.996264)"/>
       <use xlink:href="#CMR17-30" transform="translate(45.690477 0) scale(0.996264)"/>
       <use xlink:href="#CMR17-32" transform="translate(91.380954 0) scale(0.996264)"/>
       <use xlink:href="#CMR17-32" transform="translate(137.071431 0) scale(0.996264)"/>
      </g>
     </g>
    </g>
    <g id="xtick_9">
     <g id="line2d_9">
      <path d="M 1254.673032 586.242924 
L 1254.673032 25.604645 
" clip-path="url(#p7987e4a056)" style="fill: none; stroke: #cccccc; stroke-opacity: 0.35; stroke-width: 0.8; stroke-linecap: round"/>
     </g>
     <g id="text_9">
      <!-- $\mathdefault{2023}$ -->
      <g transform="translate(1236.396841 603.579921) scale(0.2 -0.2)">
       <defs>
        <path id="CMR17-33" d="M 1414 2157 
C 1984 2157 2234 1662 2234 1090 
C 2234 320 1824 25 1453 25 
C 1114 25 563 194 390 693 
C 422 680 454 680 486 680 
C 640 680 755 782 755 948 
C 755 1133 614 1216 486 1216 
C 378 1216 211 1165 211 926 
C 211 335 787 -128 1466 -128 
C 2176 -128 2720 430 2720 1085 
C 2720 1707 2208 2157 1600 2227 
C 2086 2328 2554 2756 2554 3329 
C 2554 3820 2048 4179 1472 4179 
C 890 4179 378 3829 378 3329 
C 378 3110 544 3072 627 3072 
C 762 3072 877 3155 877 3321 
C 877 3486 762 3569 627 3569 
C 602 3569 570 3569 544 3557 
C 730 3959 1235 4032 1459 4032 
C 1683 4032 2106 3925 2106 3320 
C 2106 3143 2080 2828 1862 2550 
C 1670 2304 1453 2304 1242 2284 
C 1210 2284 1062 2269 1037 2269 
C 992 2263 966 2257 966 2208 
C 966 2163 973 2157 1101 2157 
L 1414 2157 
z
" transform="scale(0.015625)"/>
       </defs>
       <use xlink:href="#CMR17-32" transform="scale(0.996264)"/>
       <use xlink:href="#CMR17-30" transform="translate(45.690477 0) scale(0.996264)"/>
       <use xlink:href="#CMR17-32" transform="translate(91.380954 0) scale(0.996264)"/>
       <use xlink:href="#CMR17-33" transform="translate(137.071431 0) scale(0.996264)"/>
      </g>
     </g>
    </g>
    <g id="xtick_10">
     <g id="line2d_10">
      <path d="M 1397.697437 586.242924 
L 1397.697437 25.604645 
" clip-path="url(#p7987e4a056)" style="fill: none; stroke: #cccccc; stroke-opacity: 0.35; stroke-width: 0.8; stroke-linecap: round"/>
     </g>
     <g id="text_10">
      <!-- $\mathdefault{2024}$ -->
      <g transform="translate(1379.421246 603.579921) scale(0.2 -0.2)">
       <defs>
        <path id="CMR17-34" d="M 2150 4122 
C 2150 4256 2144 4256 2029 4256 
L 128 1254 
L 128 1088 
L 1779 1088 
L 1779 457 
C 1779 224 1766 160 1318 160 
L 1197 160 
L 1197 0 
C 1402 0 1747 0 1965 0 
C 2182 0 2528 0 2733 0 
L 2733 160 
L 2611 160 
C 2163 160 2150 224 2150 457 
L 2150 1088 
L 2803 1088 
L 2803 1254 
L 2150 1254 
L 2150 4122 
z
M 1798 3703 
L 1798 1254 
L 256 1254 
L 1798 3703 
z
" transform="scale(0.015625)"/>
       </defs>
       <use xlink:href="#CMR17-32" transform="scale(0.996264)"/>
       <use xlink:href="#CMR17-30" transform="translate(45.690477 0) scale(0.996264)"/>
       <use xlink:href="#CMR17-32" transform="translate(91.380954 0) scale(0.996264)"/>
       <use xlink:href="#CMR17-34" transform="translate(137.071431 0) scale(0.996264)"/>
      </g>
     </g>
    </g>
    <g id="text_11">
     <!-- Date -->
     <g style="fill: #696969" transform="translate(722.559374 625.292552) scale(0.2 -0.2)">
      <defs>
       <path id="CMR17-44" d="M 333 4352 
L 333 4186 
C 774 4186 845 4186 845 3900 
L 845 452 
C 845 166 774 166 333 166 
L 333 0 
L 2368 0 
C 3398 0 4224 943 4224 2141 
C 4224 3346 3411 4352 2368 4352 
L 333 4352 
z
M 1523 166 
C 1267 166 1254 197 1254 414 
L 1254 3938 
C 1254 4155 1267 4186 1523 4186 
L 2240 4186 
C 2771 4186 3750 3874 3750 2141 
C 3750 1242 3488 879 3366 707 
C 3213 510 2848 166 2240 166 
L 1523 166 
z
" transform="scale(0.015625)"/>
       <path id="CMR17-61" d="M 2304 1653 
C 2304 2072 2304 2294 2035 2543 
C 1798 2752 1523 2816 1306 2816 
C 800 2816 435 2407 435 1971 
C 435 1728 627 1728 666 1728 
C 749 1728 896 1778 896 1954 
C 896 2112 774 2181 666 2181 
C 640 2181 608 2174 589 2168 
C 723 2592 1069 2714 1293 2714 
C 1613 2714 1965 2429 1965 1885 
L 1965 1600 
C 1587 1600 1133 1549 774 1357 
C 371 1133 256 813 256 570 
C 256 77 832 -64 1171 -64 
C 1523 -64 1850 139 1990 511 
C 2003 233 2182 -18 2464 -18 
C 2598 -18 2938 70 2938 567 
L 2938 920 
L 2822 920 
L 2822 562 
C 2822 178 2650 128 2566 128 
C 2304 128 2304 458 2304 738 
L 2304 1653 
z
M 1965 870 
C 1965 317 1568 38 1216 38 
C 896 38 646 275 646 570 
C 646 761 730 1100 1101 1305 
C 1408 1478 1760 1504 1965 1504 
L 1965 870 
z
" transform="scale(0.015625)"/>
       <path id="CMR17-74" d="M 966 2560 
L 1862 2560 
L 1862 2725 
L 966 2725 
L 966 3904 
L 851 3904 
C 838 3245 614 2668 70 2668 
L 70 2560 
L 627 2560 
L 627 771 
C 627 650 627 -64 1370 -64 
C 1747 -64 1965 306 1965 777 
L 1965 1140 
L 1850 1140 
L 1850 783 
C 1850 344 1677 51 1408 51 
C 1222 51 966 178 966 758 
L 966 2560 
z
" transform="scale(0.015625)"/>
       <path id="CMR17-65" d="M 2438 1472 
C 2464 1498 2464 1511 2464 1576 
C 2464 2238 2118 2816 1389 2816 
C 710 2816 173 2169 173 1383 
C 173 551 781 -64 1459 -64 
C 2176 -64 2458 607 2458 740 
C 2458 784 2419 784 2406 784 
C 2362 784 2355 771 2330 696 
C 2189 265 1837 51 1504 51 
C 1229 51 954 203 781 480 
C 582 803 582 1176 582 1472 
L 2438 1472 
z
M 589 1568 
C 634 2505 1126 2714 1382 2714 
C 1818 2714 2112 2297 2118 1568 
L 589 1568 
z
" transform="scale(0.015625)"/>
      </defs>
      <use xlink:href="#CMR17-44" transform="scale(0.996264)"/>
      <use xlink:href="#CMR17-61" transform="translate(70.393556 0) scale(0.996264)"/>
      <use xlink:href="#CMR17-74" transform="translate(116.084033 0) scale(0.996264)"/>
      <use xlink:href="#CMR17-65" transform="translate(151.364801 0) scale(0.996264)"/>
     </g>
    </g>
   </g>
   <g id="matplotlib.axis_2">
    <g id="ytick_1">
     <g id="line2d_11">
      <path d="M 46.489061 519.041255 
L 1436.99976 519.041255 
" clip-path="url(#p7987e4a056)" style="fill: none; stroke: #cccccc; stroke-opacity: 0.35; stroke-width: 0.8; stroke-linecap: round"/>
     </g>
     <g id="text_12">
      <!-- $\mathdefault{0}$ -->
      <g transform="translate(33.850966 525.959753) scale(0.2 -0.2)">
       <use xlink:href="#CMR17-30" transform="scale(0.996264)"/>
      </g>
     </g>
    </g>
    <g id="ytick_2">
     <g id="line2d_12">
      <path d="M 46.489061 442.754648 
L 1436.99976 442.754648 
" clip-path="url(#p7987e4a056)" style="fill: none; stroke: #cccccc; stroke-opacity: 0.35; stroke-width: 0.8; stroke-linecap: round"/>
     </g>
     <g id="text_13">
      <!-- $\mathdefault{10}$ -->
      <g transform="translate(24.71287 449.673146) scale(0.2 -0.2)">
       <use xlink:href="#CMR17-31" transform="scale(0.996264)"/>
       <use xlink:href="#CMR17-30" transform="translate(45.690477 0) scale(0.996264)"/>
      </g>
     </g>
    </g>
    <g id="ytick_3">
     <g id="line2d_13">
      <path d="M 46.489061 366.46804 
L 1436.99976 366.46804 
" clip-path="url(#p7987e4a056)" style="fill: none; stroke: #cccccc; stroke-opacity: 0.35; stroke-width: 0.8; stroke-linecap: round"/>
     </g>
     <g id="text_14">
      <!-- $\mathdefault{20}$ -->
      <g transform="translate(24.71287 373.386538) scale(0.2 -0.2)">
       <use xlink:href="#CMR17-32" transform="scale(0.996264)"/>
       <use xlink:href="#CMR17-30" transform="translate(45.690477 0) scale(0.996264)"/>
      </g>
     </g>
    </g>
    <g id="ytick_4">
     <g id="line2d_14">
      <path d="M 46.489061 290.181433 
L 1436.99976 290.181433 
" clip-path="url(#p7987e4a056)" style="fill: none; stroke: #cccccc; stroke-opacity: 0.35; stroke-width: 0.8; stroke-linecap: round"/>
     </g>
     <g id="text_15">
      <!-- $\mathdefault{30}$ -->
      <g transform="translate(24.71287 297.099931) scale(0.2 -0.2)">
       <use xlink:href="#CMR17-33" transform="scale(0.996264)"/>
       <use xlink:href="#CMR17-30" transform="translate(45.690477 0) scale(0.996264)"/>
      </g>
     </g>
    </g>
    <g id="ytick_5">
     <g id="line2d_15">
      <path d="M 46.489061 213.894825 
L 1436.99976 213.894825 
" clip-path="url(#p7987e4a056)" style="fill: none; stroke: #cccccc; stroke-opacity: 0.35; stroke-width: 0.8; stroke-linecap: round"/>
     </g>
     <g id="text_16">
      <!-- $\mathdefault{40}$ -->
      <g transform="translate(24.71287 220.813323) scale(0.2 -0.2)">
       <use xlink:href="#CMR17-34" transform="scale(0.996264)"/>
       <use xlink:href="#CMR17-30" transform="translate(45.690477 0) scale(0.996264)"/>
      </g>
     </g>
    </g>
    <g id="ytick_6">
     <g id="line2d_16">
      <path d="M 46.489061 137.608218 
L 1436.99976 137.608218 
" clip-path="url(#p7987e4a056)" style="fill: none; stroke: #cccccc; stroke-opacity: 0.35; stroke-width: 0.8; stroke-linecap: round"/>
     </g>
     <g id="text_17">
      <!-- $\mathdefault{50}$ -->
      <g transform="translate(24.71287 144.526716) scale(0.2 -0.2)">
       <use xlink:href="#CMR17-35" transform="scale(0.996264)"/>
       <use xlink:href="#CMR17-30" transform="translate(45.690477 0) scale(0.996264)"/>
      </g>
     </g>
    </g>
    <g id="ytick_7">
     <g id="line2d_17">
      <path d="M 46.489061 61.32161 
L 1436.99976 61.32161 
" clip-path="url(#p7987e4a056)" style="fill: none; stroke: #cccccc; stroke-opacity: 0.35; stroke-width: 0.8; stroke-linecap: round"/>
     </g>
     <g id="text_18">
      <!-- $\mathdefault{60}$ -->
      <g transform="translate(24.71287 68.240109) scale(0.2 -0.2)">
       <use xlink:href="#CMR17-36" transform="scale(0.996264)"/>
       <use xlink:href="#CMR17-30" transform="translate(45.690477 0) scale(0.996264)"/>
      </g>
     </g>
    </g>
    <g id="text_19">
     <!-- Predicted -->
     <g style="fill: #696969" transform="translate(16.837237 344.050417) rotate(-90) scale(0.2 -0.2)">
      <defs>
       <path id="CMR17-50" d="M 1267 2042 
L 2291 2042 
C 3117 2042 3718 2578 3718 3184 
C 3718 3791 3130 4352 2291 4352 
L 333 4352 
L 333 4186 
C 774 4186 845 4186 845 3899 
L 845 446 
C 845 160 774 160 333 160 
L 333 0 
C 518 0 858 0 1056 0 
C 1254 0 1594 0 1779 0 
L 1779 160 
C 1338 160 1267 160 1267 446 
L 1267 2042 
z
M 1254 2176 
L 1254 3938 
C 1254 4155 1267 4186 1523 4186 
L 2170 4186 
C 2995 4186 3232 3714 3232 3184 
C 3232 2604 2950 2176 2170 2176 
L 1254 2176 
z
" transform="scale(0.015625)"/>
       <path id="CMR17-72" d="M 960 1497 
C 960 2112 1222 2688 1702 2688 
C 1747 2688 1792 2682 1837 2662 
C 1837 2662 1696 2617 1696 2452 
C 1696 2298 1818 2234 1914 2234 
C 1990 2234 2131 2279 2131 2458 
C 2131 2663 1926 2790 1709 2790 
C 1222 2790 1011 2317 947 2093 
L 941 2093 
L 941 2790 
L 198 2720 
L 198 2554 
C 576 2554 634 2515 634 2208 
L 634 428 
C 634 184 608 153 198 153 
L 198 -13 
C 352 0 646 0 813 0 
C 998 0 1325 0 1498 -13 
L 1498 153 
C 1037 153 960 153 960 440 
L 960 1497 
z
" transform="scale(0.015625)"/>
       <path id="CMR17-64" d="M 1869 4326 
L 1869 4160 
C 2246 4160 2304 4122 2304 3820 
L 2304 2345 
C 2278 2377 2016 2790 1498 2790 
C 845 2790 211 2208 211 1364 
C 211 525 806 -64 1434 -64 
C 1978 -64 2259 337 2291 380 
L 2291 -63 
L 3066 -63 
L 3066 128 
C 2688 128 2630 166 2630 473 
L 2630 4396 
L 1869 4326 
z
M 2291 755 
C 2291 563 2176 390 2029 262 
C 1811 70 1594 38 1472 38 
C 1286 38 621 134 621 1356 
C 621 2612 1363 2688 1530 2688 
C 1824 2688 2061 2522 2208 2291 
C 2291 2157 2291 2138 2291 2023 
L 2291 755 
z
" transform="scale(0.015625)"/>
       <path id="CMR17-69" d="M 992 3909 
C 992 4049 877 4170 730 4170 
C 589 4170 467 4056 467 3909 
C 467 3769 582 3648 730 3648 
C 870 3648 992 3763 992 3909 
z
M 243 2706 
L 243 2541 
C 602 2541 653 2502 653 2197 
L 653 427 
C 653 184 627 153 218 153 
L 218 -13 
C 371 0 646 0 806 0 
C 960 0 1222 0 1370 -13 
L 1370 153 
C 992 153 979 191 979 420 
L 979 2776 
L 243 2706 
z
" transform="scale(0.015625)"/>
       <path id="CMR17-63" d="M 2234 2240 
C 2112 2240 1933 2240 1933 2017 
C 1933 1838 2080 1787 2163 1787 
C 2208 1787 2394 1807 2394 2024 
C 2394 2467 1958 2803 1466 2803 
C 787 2803 211 2178 211 1363 
C 211 516 813 -64 1466 -64 
C 2259 -64 2458 677 2458 748 
C 2458 774 2451 793 2406 793 
C 2362 793 2355 787 2330 703 
C 2163 180 1798 51 1523 51 
C 1114 51 621 427 621 1369 
C 621 2338 1094 2688 1472 2688 
C 1722 2688 2093 2573 2234 2240 
z
" transform="scale(0.015625)"/>
      </defs>
      <use xlink:href="#CMR17-50" transform="scale(0.996264)"/>
      <use xlink:href="#CMR17-72" transform="translate(62.586301 0) scale(0.996264)"/>
      <use xlink:href="#CMR17-65" transform="translate(97.867068 0) scale(0.996264)"/>
      <use xlink:href="#CMR17-64" transform="translate(138.352729 0) scale(0.996264)"/>
      <use xlink:href="#CMR17-69" transform="translate(189.248099 0) scale(0.996264)"/>
      <use xlink:href="#CMR17-63" transform="translate(214.119157 0) scale(0.996264)"/>
      <use xlink:href="#CMR17-74" transform="translate(254.604818 0) scale(0.996264)"/>
      <use xlink:href="#CMR17-65" transform="translate(289.885585 0) scale(0.996264)"/>
      <use xlink:href="#CMR17-64" transform="translate(330.371246 0) scale(0.996264)"/>
     </g>
    </g>
   </g>
   <g id="line2d_18">
    <path d="M 109.694093 333.009158 
L 121.841371 283.32564 
L 121.841371 283.32564 
L 132.813106 279.917548 
L 132.813106 279.917548 
L 144.960385 260.638514 
L 144.960385 260.638514 
L 156.715815 260.197609 
L 156.715815 260.197609 
L 168.863094 254.076884 
L 168.863094 254.076884 
L 180.618524 253.920176 
L 180.618524 253.920176 
L 192.765802 243.627544 
L 192.765802 243.627544 
L 204.913081 242.05965 
L 204.913081 242.05965 
L 216.668511 238.748863 
L 216.668511 238.748863 
L 228.81579 243.341641 
L 228.81579 243.341641 
L 240.57122 215.331287 
L 240.57122 215.331287 
L 252.718498 202.730248 
L 252.718498 202.730248 
L 264.865777 204.808467 
L 264.865777 204.808467 
L 276.22936 199.719813 
L 276.22936 199.719813 
L 288.376638 172.071583 
L 288.376638 172.071583 
L 300.132068 113.684464 
L 300.132068 113.684464 
L 312.279347 108.533714 
L 312.279347 108.533714 
L 324.034777 97.901831 
L 324.034777 97.901831 
L 336.182056 105.46935 
L 336.182056 105.46935 
L 348.329334 103.021128 
L 348.329334 103.021128 
L 360.084764 90.87669 
L 360.084764 90.87669 
L 372.232043 56.723207 
L 372.232043 56.723207 
L 383.987473 56.06064 
L 383.987473 56.06064 
L 396.134751 95.93024 
L 396.134751 95.93024 
L 408.28203 95.186619 
L 408.28203 95.186619 
L 419.253765 90.336572 
L 419.253765 90.336572 
L 431.401043 92.112565 
L 431.401043 92.112565 
L 443.156474 95.42628 
L 443.156474 95.42628 
L 455.303752 75.530695 
L 455.303752 75.530695 
L 467.059183 79.708423 
L 467.059183 79.708423 
L 479.206461 69.15433 
L 479.206461 69.15433 
L 491.353739 72.291022 
L 491.353739 72.291022 
L 503.10917 124.316967 
L 503.10917 124.316967 
L 515.256448 109.457401 
L 515.256448 109.457401 
L 527.011879 109.609942 
L 527.011879 109.609942 
L 539.159157 167.542261 
L 539.159157 167.542261 
L 551.306435 149.947584 
L 551.306435 149.947584 
L 562.27817 153.459799 
L 562.27817 153.459799 
L 574.425449 265.332865 
L 574.425449 265.332865 
L 586.180879 219.124283 
L 586.180879 219.124283 
L 598.328158 232.910005 
L 598.328158 232.910005 
L 610.083588 230.85531 
L 610.083588 230.85531 
L 622.230866 288.121709 
L 622.230866 288.121709 
L 634.378145 281.037833 
L 634.378145 281.037833 
L 646.133575 249.190896 
L 646.133575 249.190896 
L 658.280853 233.747365 
L 658.280853 233.747365 
L 670.036284 241.18982 
L 670.036284 241.18982 
L 682.183562 257.848501 
L 682.183562 257.848501 
L 694.330841 224.560728 
L 694.330841 224.560728 
L 705.302576 238.336399 
L 705.302576 238.336399 
L 717.449854 257.220983 
L 717.449854 257.220983 
L 729.205285 232.91416 
L 729.205285 232.91416 
L 741.352563 254.076095 
L 741.352563 254.076095 
L 753.107994 325.971472 
L 753.107994 325.971472 
L 765.255272 363.937293 
L 765.255272 363.937293 
L 777.40255 327.047733 
L 777.40255 327.047733 
L 789.157981 345.528169 
L 789.157981 345.528169 
L 801.305259 375.735623 
L 801.305259 375.735623 
L 813.060689 399.905573 
L 813.060689 399.905573 
L 825.207968 397.789966 
L 825.207968 397.789966 
L 837.355246 398.608346 
L 837.355246 398.608346 
L 848.718829 386.167005 
L 848.718829 386.167005 
L 860.866107 398.703324 
L 860.866107 398.703324 
L 872.621538 403.962979 
L 872.621538 403.962979 
L 884.768816 423.13088 
L 884.768816 423.13088 
L 896.524247 391.292389 
L 896.524247 391.292389 
L 908.671525 429.728893 
L 908.671525 429.728893 
L 920.818803 406.875917 
L 920.818803 406.875917 
L 932.574234 401.496269 
L 932.574234 401.496269 
L 944.721512 379.551734 
L 944.721512 379.551734 
L 956.476943 395.364501 
L 956.476943 395.364501 
L 968.624221 366.935514 
L 968.624221 366.935514 
L 980.771499 374.793625 
L 980.771499 374.793625 
L 991.743234 474.163486 
L 991.743234 474.163486 
L 1003.890513 442.216299 
L 1003.890513 442.216299 
L 1015.645943 440.614955 
L 1015.645943 440.614955 
L 1027.793221 443.290976 
L 1027.793221 443.290976 
L 1039.548652 448.114338 
L 1039.548652 448.114338 
L 1051.69593 435.133207 
L 1051.69593 435.133207 
L 1063.843209 437.642338 
L 1063.843209 437.642338 
L 1075.598639 444.634606 
L 1075.598639 444.634606 
L 1087.745917 452.411898 
L 1087.745917 452.411898 
L 1099.501348 439.098876 
L 1099.501348 439.098876 
L 1111.648626 448.857495 
L 1111.648626 448.857495 
L 1123.795905 448.208786 
L 1123.795905 448.208786 
L 1134.76764 443.350665 
L 1134.76764 443.350665 
L 1146.914918 443.046279 
L 1146.914918 443.046279 
L 1158.670349 452.321281 
L 1158.670349 452.321281 
L 1170.817627 474.890623 
L 1170.817627 474.890623 
L 1182.573057 509.045929 
L 1182.573057 509.045929 
L 1194.720336 466.537713 
L 1194.720336 466.537713 
L 1206.867614 465.393612 
L 1206.867614 465.393612 
L 1218.623045 494.885268 
L 1218.623045 494.885268 
L 1230.770323 471.96372 
L 1230.770323 471.96372 
L 1242.525753 473.940391 
L 1242.525753 473.940391 
L 1254.673032 530.560696 
L 1254.673032 530.560696 
L 1266.82031 515.010185 
L 1266.82031 515.010185 
L 1277.792045 522.215684 
L 1277.792045 522.215684 
L 1289.939323 510.754992 
L 1289.939323 510.754992 
L 1301.694754 516.051611 
L 1301.694754 516.051611 
L 1313.842032 548.095704 
L 1313.842032 548.095704 
L 1325.597463 509.113842 
L 1325.597463 509.113842 
L 1337.744741 506.210921 
L 1337.744741 506.210921 
L 1349.892019 560.759366 
L 1349.892019 560.759366 
L 1361.64745 521.914448 
L 1361.64745 521.914448 
L 1373.794728 533.476933 
L 1373.794728 533.476933 
" clip-path="url(#p7987e4a056)" style="fill: none; stroke-dasharray: 5.55,2.4; stroke-dashoffset: 0; stroke: #006e64; stroke-width: 1.5"/>
   </g>
   <g id="line2d_19">
    <path d="M 109.694093 481.448645 
L 121.841371 469.308466 
L 121.841371 469.308466 
L 132.813106 461.018608 
L 132.813106 461.018608 
L 144.960385 455.961714 
L 144.960385 455.961714 
L 156.715815 450.756369 
L 156.715815 450.756369 
L 168.863094 447.466905 
L 168.863094 447.466905 
L 180.618524 446.780608 
L 180.618524 446.780608 
L 192.765802 436.70399 
L 192.765802 436.70399 
L 216.668511 414.206514 
L 216.668511 414.206514 
L 228.81579 417.719321 
L 228.81579 417.719321 
L 240.57122 386.7435 
L 240.57122 386.7435 
L 252.718498 364.028719 
L 252.718498 364.028719 
L 264.865777 347.229174 
L 264.865777 347.229174 
L 276.22936 333.447769 
L 276.22936 333.447769 
L 288.376638 334.867056 
L 288.376638 334.867056 
L 300.132068 306.848117 
L 300.132068 306.848117 
L 312.279347 343.371003 
L 312.279347 343.371003 
L 324.034777 340.688761 
L 324.034777 340.688761 
L 336.182056 315.298984 
L 336.182056 315.298984 
L 348.329334 317.997566 
L 348.329334 317.997566 
L 360.084764 297.986809 
L 360.084764 297.986809 
L 372.232043 293.25939 
L 372.232043 293.25939 
L 383.987473 292.109158 
L 383.987473 292.109158 
L 396.134751 312.305972 
L 396.134751 312.305972 
L 408.28203 298.334523 
L 408.28203 298.334523 
L 419.253765 305.050008 
L 419.253765 305.050008 
L 431.401043 309.125244 
L 431.401043 309.125244 
L 443.156474 279.644226 
L 443.156474 279.644226 
L 455.303752 247.246964 
L 455.303752 247.246964 
L 467.059183 283.657389 
L 467.059183 283.657389 
L 479.206461 269.540333 
L 479.206461 269.540333 
L 491.353739 287.664615 
L 491.353739 287.664615 
L 503.10917 273.592331 
L 503.10917 273.592331 
L 515.256448 275.935998 
L 515.256448 275.935998 
L 527.011879 282.470416 
L 527.011879 282.470416 
L 539.159157 316.421498 
L 539.159157 316.421498 
L 551.306435 310.175311 
L 551.306435 310.175311 
L 562.27817 288.702547 
L 562.27817 288.702547 
L 574.425449 344.911116 
L 574.425449 344.911116 
L 586.180879 331.038946 
L 586.180879 331.038946 
L 598.328158 322.83893 
L 598.328158 322.83893 
L 610.083588 345.607097 
L 610.083588 345.607097 
L 622.230866 347.672106 
L 622.230866 347.672106 
L 634.378145 340.487265 
L 634.378145 340.487265 
L 646.133575 338.48267 
L 646.133575 338.48267 
L 658.280853 317.041714 
L 658.280853 317.041714 
L 670.036284 330.711545 
L 670.036284 330.711545 
L 682.183562 348.312081 
L 682.183562 348.312081 
L 694.330841 329.655963 
L 694.330841 329.655963 
L 705.302576 347.292425 
L 705.302576 347.292425 
L 717.449854 342.4265 
L 717.449854 342.4265 
L 729.205285 320.036355 
L 729.205285 320.036355 
L 741.352563 335.627218 
L 741.352563 335.627218 
L 753.107994 356.735258 
L 753.107994 356.735258 
L 765.255272 353.641266 
L 765.255272 353.641266 
L 777.40255 348.10123 
L 777.40255 348.10123 
L 789.157981 342.973293 
L 789.157981 342.973293 
L 801.305259 349.420627 
L 801.305259 349.420627 
L 813.060689 358.218014 
L 813.060689 358.218014 
L 825.207968 366.562691 
L 825.207968 366.562691 
L 837.355246 365.230519 
L 837.355246 365.230519 
L 848.718829 355.114287 
L 848.718829 355.114287 
L 860.866107 372.402599 
L 860.866107 372.402599 
L 872.621538 368.133157 
L 872.621538 368.133157 
L 884.768816 384.705074 
L 884.768816 384.705074 
L 896.524247 359.675627 
L 896.524247 359.675627 
L 908.671525 363.01951 
L 908.671525 363.01951 
L 920.818803 350.840553 
L 920.818803 350.840553 
L 932.574234 347.205311 
L 932.574234 347.205311 
L 944.721512 341.022113 
L 944.721512 341.022113 
L 956.476943 342.721322 
L 956.476943 342.721322 
L 968.624221 373.744316 
L 968.624221 373.744316 
L 980.771499 375.994001 
L 980.771499 375.994001 
L 991.743234 392.572509 
L 991.743234 392.572509 
L 1003.890513 376.248053 
L 1003.890513 376.248053 
L 1015.645943 370.297285 
L 1015.645943 370.297285 
L 1027.793221 368.301376 
L 1027.793221 368.301376 
L 1039.548652 362.482479 
L 1039.548652 362.482479 
L 1051.69593 374.399672 
L 1051.69593 374.399672 
L 1063.843209 349.414559 
L 1063.843209 349.414559 
L 1075.598639 358.475893 
L 1075.598639 358.475893 
L 1087.745917 346.128544 
L 1087.745917 346.128544 
L 1099.501348 326.273085 
L 1099.501348 326.273085 
L 1111.648626 351.267175 
L 1111.648626 351.267175 
L 1123.795905 372.730946 
L 1123.795905 372.730946 
L 1134.76764 332.241124 
L 1134.76764 332.241124 
L 1146.914918 324.848967 
L 1146.914918 324.848967 
L 1158.670349 322.659493 
L 1158.670349 322.659493 
L 1170.817627 324.613525 
L 1170.817627 324.613525 
L 1182.573057 344.36537 
L 1182.573057 344.36537 
L 1194.720336 356.720621 
L 1194.720336 356.720621 
L 1206.867614 346.85153 
L 1206.867614 346.85153 
L 1218.623045 344.349321 
L 1218.623045 344.349321 
L 1230.770323 371.398148 
L 1230.770323 371.398148 
L 1242.525753 339.77202 
L 1242.525753 339.77202 
L 1254.673032 383.598609 
L 1254.673032 383.598609 
L 1266.82031 399.858301 
L 1266.82031 399.858301 
L 1277.792045 411.717074 
L 1277.792045 411.717074 
L 1289.939323 397.857213 
L 1289.939323 397.857213 
L 1301.694754 404.613657 
L 1301.694754 404.613657 
L 1313.842032 420.323813 
L 1313.842032 420.323813 
L 1325.597463 448.571827 
L 1325.597463 448.571827 
L 1337.744741 466.065534 
L 1337.744741 466.065534 
L 1349.892019 476.323673 
L 1349.892019 476.323673 
L 1361.64745 482.884315 
L 1361.64745 482.884315 
L 1373.794728 502.948676 
L 1373.794728 502.948676 
" clip-path="url(#p7987e4a056)" style="fill: none; stroke: #734848; stroke-width: 1.5; stroke-linecap: round"/>
   </g>
   <g id="line2d_20">
    <path d="M 109.694093 320.343182 
L 121.841371 330.614231 
L 121.841371 330.614231 
L 132.813106 274.407335 
L 132.813106 274.407335 
L 144.960385 263.222732 
L 144.960385 263.222732 
L 156.715815 255.76245 
L 156.715815 255.76245 
L 168.863094 286.579976 
L 168.863094 286.579976 
L 180.618524 275.308594 
L 180.618524 275.308594 
L 192.765802 245.577205 
L 192.765802 245.577205 
L 204.913081 265.106151 
L 204.913081 265.106151 
L 216.668511 203.367556 
L 216.668511 203.367556 
L 228.81579 290.628657 
L 228.81579 290.628657 
L 240.57122 242.555209 
L 240.57122 242.555209 
L 252.718498 285.689034 
L 252.718498 285.689034 
L 264.865777 280.171449 
L 264.865777 280.171449 
L 276.22936 274.472958 
L 276.22936 274.472958 
L 288.376638 269.966081 
L 288.376638 269.966081 
L 300.132068 237.921917 
L 300.132068 237.921917 
L 312.279347 242.20652 
L 312.279347 242.20652 
L 324.034777 232.552864 
L 324.034777 232.552864 
L 336.182056 215.962977 
L 336.182056 215.962977 
L 348.329334 203.563813 
L 348.329334 203.563813 
L 360.084764 163.856067 
L 360.084764 163.856067 
L 372.232043 110.658364 
L 372.232043 110.658364 
L 383.987473 109.917364 
L 383.987473 109.917364 
L 396.134751 99.067074 
L 396.134751 99.067074 
L 408.28203 130.067937 
L 408.28203 130.067937 
L 419.253765 121.141952 
L 419.253765 121.141952 
L 431.401043 80.253373 
L 431.401043 80.253373 
L 443.156474 51.088203 
L 443.156474 51.088203 
L 455.303752 67.744761 
L 455.303752 67.744761 
L 467.059183 102.065062 
L 467.059183 102.065062 
L 479.206461 100.623688 
L 479.206461 100.623688 
L 491.353739 133.527991 
L 491.353739 133.527991 
L 503.10917 167.063001 
L 503.10917 167.063001 
L 515.256448 70.143442 
L 515.256448 70.143442 
L 527.011879 80.995333 
L 527.011879 80.995333 
L 539.159157 109.423665 
L 539.159157 109.423665 
L 551.306435 89.126743 
L 551.306435 89.126743 
L 562.27817 155.38886 
L 562.27817 155.38886 
L 574.425449 189.138723 
L 574.425449 189.138723 
L 586.180879 200.434259 
L 586.180879 200.434259 
L 598.328158 206.312755 
L 598.328158 206.312755 
L 610.083588 234.671565 
L 610.083588 234.671565 
L 622.230866 262.321036 
L 622.230866 262.321036 
L 634.378145 259.982594 
L 634.378145 259.982594 
L 646.133575 219.416746 
L 646.133575 219.416746 
L 658.280853 184.096009 
L 658.280853 184.096009 
L 670.036284 153.106117 
L 670.036284 153.106117 
L 682.183562 209.674273 
L 682.183562 209.674273 
L 694.330841 137.45698 
L 694.330841 137.45698 
L 705.302576 161.669096 
L 705.302576 161.669096 
L 717.449854 174.889287 
L 717.449854 174.889287 
L 729.205285 168.217934 
L 729.205285 168.217934 
L 741.352563 174.50332 
L 741.352563 174.50332 
L 753.107994 285.622771 
L 753.107994 285.622771 
L 765.255272 248.86955 
L 765.255272 248.86955 
L 777.40255 207.227779 
L 777.40255 207.227779 
L 789.157981 244.138916 
L 789.157981 244.138916 
L 801.305259 261.565079 
L 801.305259 261.565079 
L 813.060689 325.088265 
L 813.060689 325.088265 
L 825.207968 356.405122 
L 825.207968 356.405122 
L 837.355246 352.758617 
L 837.355246 352.758617 
L 848.718829 276.944101 
L 848.718829 276.944101 
L 860.866107 219.247494 
L 860.866107 219.247494 
L 872.621538 242.976679 
L 872.621538 242.976679 
L 884.768816 287.903971 
L 884.768816 287.903971 
L 896.524247 246.378415 
L 896.524247 246.378415 
L 908.671525 275.335483 
L 908.671525 275.335483 
L 920.818803 294.700081 
L 920.818803 294.700081 
L 932.574234 315.407269 
L 932.574234 315.407269 
L 944.721512 340.838398 
L 944.721512 340.838398 
L 956.476943 283.394927 
L 956.476943 283.394927 
L 968.624221 323.399329 
L 968.624221 323.399329 
L 980.771499 282.56757 
L 980.771499 282.56757 
L 991.743234 408.070125 
L 991.743234 408.070125 
L 1003.890513 382.264633 
L 1003.890513 382.264633 
L 1015.645943 367.824876 
L 1015.645943 367.824876 
L 1027.793221 394.968019 
L 1027.793221 394.968019 
L 1039.548652 382.90503 
L 1039.548652 382.90503 
L 1051.69593 366.064554 
L 1051.69593 366.064554 
L 1063.843209 337.161803 
L 1063.843209 337.161803 
L 1075.598639 342.137614 
L 1075.598639 342.137614 
L 1087.745917 375.813443 
L 1087.745917 375.813443 
L 1099.501348 342.602895 
L 1099.501348 342.602895 
L 1111.648626 360.289396 
L 1111.648626 360.289396 
L 1123.795905 397.975239 
L 1123.795905 397.975239 
L 1134.76764 296.224596 
L 1134.76764 296.224596 
L 1146.914918 326.643482 
L 1146.914918 326.643482 
L 1158.670349 298.411655 
L 1158.670349 298.411655 
L 1170.817627 265.221245 
L 1170.817627 265.221245 
L 1182.573057 336.074923 
L 1182.573057 336.074923 
L 1194.720336 377.202596 
L 1194.720336 377.202596 
L 1206.867614 379.914506 
L 1206.867614 379.914506 
L 1218.623045 376.691392 
L 1218.623045 376.691392 
L 1230.770323 436.314778 
L 1230.770323 436.314778 
L 1242.525753 397.950278 
L 1242.525753 397.950278 
L 1254.673032 410.935958 
L 1254.673032 410.935958 
L 1266.82031 375.467607 
L 1266.82031 375.467607 
L 1277.792045 440.26365 
L 1277.792045 440.26365 
L 1289.939323 418.197517 
L 1289.939323 418.197517 
L 1301.694754 444.939844 
L 1301.694754 444.939844 
L 1313.842032 452.535708 
L 1313.842032 452.535708 
L 1325.597463 453.121657 
L 1325.597463 453.121657 
L 1337.744741 475.088567 
L 1337.744741 475.088567 
L 1349.892019 460.83645 
L 1349.892019 460.83645 
L 1361.64745 500.85233 
L 1361.64745 500.85233 
L 1373.794728 487.145477 
L 1373.794728 487.145477 
" clip-path="url(#p7987e4a056)" style="fill: none; stroke: #004e4a; stroke-width: 1.5; stroke-linecap: round"/>
   </g>
   <g id="line2d_21">
    <path d="M 109.694093 476.69629 
L 121.841371 462.303185 
L 121.841371 462.303185 
L 132.813106 450.136481 
L 132.813106 450.136481 
L 144.960385 446.195081 
L 144.960385 446.195081 
L 156.715815 442.506183 
L 156.715815 442.506183 
L 168.863094 434.626053 
L 168.863094 434.626053 
L 180.618524 434.272053 
L 180.618524 434.272053 
L 192.765802 417.619061 
L 192.765802 417.619061 
L 204.913081 401.531902 
L 204.913081 401.531902 
L 216.668511 379.823915 
L 216.668511 379.823915 
L 228.81579 389.662842 
L 228.81579 389.662842 
L 240.57122 351.499794 
L 240.57122 351.499794 
L 252.718498 335.11584 
L 252.718498 335.11584 
L 264.865777 324.437537 
L 264.865777 324.437537 
L 276.22936 308.179591 
L 276.22936 308.179591 
L 288.376638 314.684617 
L 288.376638 314.684617 
L 300.132068 263.262193 
L 300.132068 263.262193 
L 312.279347 301.205238 
L 312.279347 301.205238 
L 324.034777 296.982213 
L 324.034777 296.982213 
L 336.182056 291.744973 
L 336.182056 291.744973 
L 348.329334 287.280918 
L 348.329334 287.280918 
L 360.084764 263.70869 
L 360.084764 263.70869 
L 372.232043 258.090358 
L 372.232043 258.090358 
L 383.987473 274.443595 
L 383.987473 274.443595 
L 396.134751 291.64034 
L 396.134751 291.64034 
L 408.28203 281.19502 
L 408.28203 281.19502 
L 419.253765 286.209389 
L 419.253765 286.209389 
L 431.401043 293.970736 
L 431.401043 293.970736 
L 443.156474 271.210965 
L 443.156474 271.210965 
L 455.303752 243.226773 
L 455.303752 243.226773 
L 467.059183 290.895194 
L 467.059183 290.895194 
L 479.206461 255.53974 
L 479.206461 255.53974 
L 491.353739 281.806854 
L 491.353739 281.806854 
L 503.10917 268.722769 
L 503.10917 268.722769 
L 515.256448 277.85572 
L 515.256448 277.85572 
L 527.011879 283.227741 
L 527.011879 283.227741 
L 539.159157 316.09657 
L 539.159157 316.09657 
L 551.306435 317.610493 
L 551.306435 317.610493 
L 562.27817 310.409036 
L 562.27817 310.409036 
L 574.425449 346.058468 
L 574.425449 346.058468 
L 598.328158 328.109447 
L 598.328158 328.109447 
L 610.083588 343.335397 
L 610.083588 343.335397 
L 622.230866 353.085349 
L 622.230866 353.085349 
L 634.378145 343.235945 
L 634.378145 343.235945 
L 646.133575 343.791454 
L 646.133575 343.791454 
L 658.280853 321.184958 
L 658.280853 321.184958 
L 670.036284 343.283045 
L 670.036284 343.283045 
L 682.183562 344.047398 
L 682.183562 344.047398 
L 694.330841 334.50984 
L 694.330841 334.50984 
L 705.302576 350.925659 
L 705.302576 350.925659 
L 717.449854 338.024808 
L 717.449854 338.024808 
L 729.205285 328.598213 
L 729.205285 328.598213 
L 741.352563 341.682939 
L 741.352563 341.682939 
L 753.107994 357.262642 
L 753.107994 357.262642 
L 765.255272 362.824693 
L 765.255272 362.824693 
L 777.40255 357.903185 
L 777.40255 357.903185 
L 789.157981 347.378695 
L 789.157981 347.378695 
L 801.305259 355.274998 
L 801.305259 355.274998 
L 813.060689 363.242918 
L 813.060689 363.242918 
L 825.207968 374.13753 
L 825.207968 374.13753 
L 837.355246 377.0678 
L 837.355246 377.0678 
L 848.718829 371.339524 
L 848.718829 371.339524 
L 860.866107 383.004672 
L 860.866107 383.004672 
L 872.621538 380.020725 
L 872.621538 380.020725 
L 884.768816 391.755847 
L 884.768816 391.755847 
L 896.524247 376.410145 
L 896.524247 376.410145 
L 908.671525 375.326496 
L 908.671525 375.326496 
L 920.818803 369.565015 
L 920.818803 369.565015 
L 932.574234 365.667776 
L 932.574234 365.667776 
L 944.721512 368.052155 
L 944.721512 368.052155 
L 956.476943 366.705766 
L 956.476943 366.705766 
L 968.624221 394.784886 
L 968.624221 394.784886 
L 980.771499 393.08364 
L 980.771499 393.08364 
L 991.743234 412.239837 
L 991.743234 412.239837 
L 1003.890513 351.471115 
L 1003.890513 351.471115 
L 1015.645943 351.977225 
L 1015.645943 351.977225 
L 1027.793221 343.646866 
L 1027.793221 343.646866 
L 1039.548652 343.823858 
L 1039.548652 343.823858 
L 1051.69593 360.752161 
L 1051.69593 360.752161 
L 1063.843209 359.626548 
L 1063.843209 359.626548 
L 1075.598639 370.153424 
L 1075.598639 370.153424 
L 1087.745917 367.560609 
L 1087.745917 367.560609 
L 1099.501348 360.951445 
L 1099.501348 360.951445 
L 1111.648626 378.04558 
L 1111.648626 378.04558 
L 1123.795905 392.239913 
L 1123.795905 392.239913 
L 1134.76764 370.676267 
L 1134.76764 370.676267 
L 1146.914918 370.387731 
L 1146.914918 370.387731 
L 1158.670349 374.68652 
L 1158.670349 374.68652 
L 1170.817627 387.842515 
L 1170.817627 387.842515 
L 1182.573057 400.114158 
L 1182.573057 400.114158 
L 1194.720336 406.04972 
L 1194.720336 406.04972 
L 1206.867614 408.417366 
L 1206.867614 408.417366 
L 1218.623045 411.949416 
L 1218.623045 411.949416 
L 1230.770323 429.592346 
L 1230.770323 429.592346 
L 1242.525753 419.687613 
L 1242.525753 419.687613 
L 1254.673032 433.548158 
L 1254.673032 433.548158 
L 1266.82031 446.92628 
L 1266.82031 446.92628 
L 1277.792045 455.901846 
L 1277.792045 455.901846 
L 1289.939323 452.067989 
L 1289.939323 452.067989 
L 1301.694754 455.997763 
L 1301.694754 455.997763 
L 1313.842032 466.856722 
L 1313.842032 466.856722 
L 1325.597463 484.987574 
L 1325.597463 484.987574 
L 1337.744741 496.321953 
L 1337.744741 496.321953 
L 1349.892019 499.216743 
L 1349.892019 499.216743 
L 1361.64745 504.046614 
L 1361.64745 504.046614 
L 1373.794728 510.554035 
L 1373.794728 510.554035 
" clip-path="url(#p7987e4a056)" style="fill: none; stroke: #c17150; stroke-width: 1.5; stroke-linecap: round"/>
   </g>
   <g id="line2d_22">
    <path d="M 109.694093 435.140428 
L 121.841371 419.513298 
L 121.841371 419.513298 
L 132.813106 387.479247 
L 132.813106 387.479247 
L 144.960385 378.491684 
L 144.960385 378.491684 
L 156.715815 373.243022 
L 156.715815 373.243022 
L 168.863094 355.307634 
L 168.863094 355.307634 
L 180.618524 350.065811 
L 180.618524 350.065811 
L 192.765802 350.349735 
L 192.765802 350.349735 
L 204.913081 359.01221 
L 204.913081 359.01221 
L 216.668511 333.819389 
L 216.668511 333.819389 
L 228.81579 380.759222 
L 228.81579 380.759222 
L 240.57122 358.781279 
L 240.57122 358.781279 
L 252.718498 363.048931 
L 252.718498 363.048931 
L 264.865777 353.054007 
L 264.865777 353.054007 
L 276.22936 359.187369 
L 276.22936 359.187369 
L 288.376638 307.387606 
L 288.376638 307.387606 
L 300.132068 286.569965 
L 300.132068 286.569965 
L 312.279347 305.290193 
L 312.279347 305.290193 
L 324.034777 292.132569 
L 324.034777 292.132569 
L 336.182056 263.957329 
L 336.182056 263.957329 
L 348.329334 296.604423 
L 348.329334 296.604423 
L 360.084764 293.181312 
L 360.084764 293.181312 
L 372.232043 259.363004 
L 372.232043 259.363004 
L 383.987473 254.640576 
L 383.987473 254.640576 
L 396.134751 262.407932 
L 396.134751 262.407932 
L 408.28203 255.862761 
L 408.28203 255.862761 
L 419.253765 280.738032 
L 419.253765 280.738032 
L 431.401043 247.540914 
L 431.401043 247.540914 
L 443.156474 256.147893 
L 443.156474 256.147893 
L 455.303752 236.769458 
L 455.303752 236.769458 
L 467.059183 300.748119 
L 467.059183 300.748119 
L 479.206461 270.969077 
L 479.206461 270.969077 
L 491.353739 264.922552 
L 491.353739 264.922552 
L 503.10917 318.052305 
L 503.10917 318.052305 
L 515.256448 206.416849 
L 515.256448 206.416849 
L 527.011879 236.587955 
L 527.011879 236.587955 
L 539.159157 278.920919 
L 539.159157 278.920919 
L 551.306435 251.964096 
L 551.306435 251.964096 
L 562.27817 293.451821 
L 562.27817 293.451821 
L 574.425449 327.583795 
L 574.425449 327.583795 
L 586.180879 344.170117 
L 586.180879 344.170117 
L 598.328158 308.67716 
L 598.328158 308.67716 
L 610.083588 287.262701 
L 610.083588 287.262701 
L 622.230866 283.511287 
L 622.230866 283.511287 
L 634.378145 285.790029 
L 634.378145 285.790029 
L 646.133575 343.389394 
L 646.133575 343.389394 
L 658.280853 255.518379 
L 658.280853 255.518379 
L 670.036284 286.487464 
L 670.036284 286.487464 
L 682.183562 347.179265 
L 682.183562 347.179265 
L 694.330841 304.701785 
L 694.330841 304.701785 
L 705.302576 300.906036 
L 705.302576 300.906036 
L 717.449854 258.001279 
L 717.449854 258.001279 
L 729.205285 217.166887 
L 729.205285 217.166887 
L 741.352563 213.420391 
L 741.352563 213.420391 
L 753.107994 295.991628 
L 753.107994 295.991628 
L 765.255272 279.602728 
L 765.255272 279.602728 
L 777.40255 256.102524 
L 777.40255 256.102524 
L 789.157981 297.758905 
L 789.157981 297.758905 
L 801.305259 315.933968 
L 801.305259 315.933968 
L 813.060689 335.169386 
L 813.060689 335.169386 
L 825.207968 348.367228 
L 825.207968 348.367228 
L 837.355246 342.382601 
L 837.355246 342.382601 
L 848.718829 356.310325 
L 848.718829 356.310325 
L 860.866107 282.170035 
L 860.866107 282.170035 
L 872.621538 237.985881 
L 872.621538 237.985881 
L 884.768816 313.003247 
L 884.768816 313.003247 
L 896.524247 283.270752 
L 896.524247 283.270752 
L 908.671525 316.598781 
L 908.671525 316.598781 
L 920.818803 330.034713 
L 920.818803 330.034713 
L 932.574234 321.701007 
L 932.574234 321.701007 
L 944.721512 357.007135 
L 944.721512 357.007135 
L 956.476943 337.070731 
L 956.476943 337.070731 
L 968.624221 357.85511 
L 968.624221 357.85511 
L 980.771499 332.664238 
L 980.771499 332.664238 
L 991.743234 418.81974 
L 991.743234 418.81974 
L 1003.890513 358.356622 
L 1003.890513 358.356622 
L 1015.645943 365.850705 
L 1015.645943 365.850705 
L 1027.793221 390.622376 
L 1027.793221 390.622376 
L 1039.548652 393.243128 
L 1039.548652 393.243128 
L 1051.69593 397.03572 
L 1051.69593 397.03572 
L 1063.843209 380.368424 
L 1063.843209 380.368424 
L 1075.598639 388.121303 
L 1075.598639 388.121303 
L 1087.745917 399.102642 
L 1087.745917 399.102642 
L 1099.501348 350.612692 
L 1099.501348 350.612692 
L 1111.648626 406.234716 
L 1111.648626 406.234716 
L 1123.795905 418.918575 
L 1123.795905 418.918575 
L 1134.76764 395.863195 
L 1134.76764 395.863195 
L 1146.914918 391.590626 
L 1146.914918 391.590626 
L 1158.670349 356.496339 
L 1158.670349 356.496339 
L 1170.817627 403.178955 
L 1170.817627 403.178955 
L 1182.573057 387.393108 
L 1182.573057 387.393108 
L 1194.720336 376.534887 
L 1194.720336 376.534887 
L 1206.867614 362.219406 
L 1206.867614 362.219406 
L 1218.623045 414.519357 
L 1218.623045 414.519357 
L 1230.770323 428.893674 
L 1230.770323 428.893674 
L 1242.525753 380.979429 
L 1242.525753 380.979429 
L 1254.673032 388.720769 
L 1254.673032 388.720769 
L 1266.82031 389.318752 
L 1266.82031 389.318752 
L 1277.792045 423.474712 
L 1277.792045 423.474712 
L 1289.939323 416.079587 
L 1289.939323 416.079587 
L 1301.694754 424.894974 
L 1301.694754 424.894974 
L 1313.842032 437.564893 
L 1313.842032 437.564893 
L 1325.597463 459.163966 
L 1325.597463 459.163966 
L 1337.744741 478.873585 
L 1337.744741 478.873585 
L 1349.892019 472.363674 
L 1349.892019 472.363674 
L 1361.64745 494.507021 
L 1361.64745 494.507021 
L 1373.794728 492.116424 
L 1373.794728 492.116424 
" clip-path="url(#p7987e4a056)" style="fill: none; stroke: #ffbb00; stroke-width: 1.5; stroke-linecap: round"/>
   </g>
   <g id="line2d_23">
    <path d="M 109.694093 479.463561 
L 121.841371 465.611783 
L 121.841371 465.611783 
L 132.813106 457.392408 
L 132.813106 457.392408 
L 144.960385 452.065726 
L 144.960385 452.065726 
L 156.715815 446.771456 
L 156.715815 446.771456 
L 168.863094 443.094649 
L 168.863094 443.094649 
L 180.618524 442.505477 
L 180.618524 442.505477 
L 192.765802 430.459345 
L 192.765802 430.459345 
L 204.913081 416.07109 
L 204.913081 416.07109 
L 216.668511 403.349858 
L 216.668511 403.349858 
L 228.81579 404.311567 
L 228.81579 404.311567 
L 240.57122 370.182292 
L 240.57122 370.182292 
L 252.718498 342.122496 
L 252.718498 342.122496 
L 276.22936 307.325185 
L 276.22936 307.325185 
L 288.376638 309.499803 
L 288.376638 309.499803 
L 300.132068 274.521265 
L 300.132068 274.521265 
L 312.279347 317.065125 
L 312.279347 317.065125 
L 324.034777 316.488765 
L 324.034777 316.488765 
L 336.182056 288.797882 
L 336.182056 288.797882 
L 348.329334 290.356708 
L 348.329334 290.356708 
L 360.084764 265.834666 
L 360.084764 265.834666 
L 372.232043 263.939228 
L 372.232043 263.939228 
L 383.987473 266.387993 
L 383.987473 266.387993 
L 396.134751 291.787649 
L 396.134751 291.787649 
L 408.28203 273.257902 
L 408.28203 273.257902 
L 419.253765 276.927033 
L 419.253765 276.927033 
L 431.401043 285.893832 
L 431.401043 285.893832 
L 443.156474 252.224754 
L 443.156474 252.224754 
L 455.303752 216.67118 
L 455.303752 216.67118 
L 467.059183 255.758899 
L 467.059183 255.758899 
L 479.206461 239.155451 
L 479.206461 239.155451 
L 491.353739 260.120125 
L 491.353739 260.120125 
L 503.10917 240.398473 
L 503.10917 240.398473 
L 515.256448 253.983329 
L 515.256448 253.983329 
L 527.011879 260.484529 
L 527.011879 260.484529 
L 539.159157 296.415499 
L 539.159157 296.415499 
L 551.306435 291.436604 
L 551.306435 291.436604 
L 562.27817 265.00453 
L 562.27817 265.00453 
L 574.425449 325.062758 
L 574.425449 325.062758 
L 586.180879 310.756444 
L 586.180879 310.756444 
L 598.328158 299.745137 
L 598.328158 299.745137 
L 610.083588 328.710922 
L 610.083588 328.710922 
L 622.230866 332.966904 
L 622.230866 332.966904 
L 634.378145 324.665573 
L 634.378145 324.665573 
L 646.133575 314.60312 
L 646.133575 314.60312 
L 658.280853 299.172895 
L 658.280853 299.172895 
L 670.036284 314.445552 
L 670.036284 314.445552 
L 682.183562 327.400444 
L 682.183562 327.400444 
L 694.330841 307.080794 
L 694.330841 307.080794 
L 705.302576 330.579644 
L 705.302576 330.579644 
L 717.449854 327.118731 
L 717.449854 327.118731 
L 729.205285 305.527861 
L 729.205285 305.527861 
L 741.352563 323.594815 
L 741.352563 323.594815 
L 753.107994 343.476101 
L 753.107994 343.476101 
L 765.255272 339.357126 
L 765.255272 339.357126 
L 777.40255 334.855226 
L 777.40255 334.855226 
L 789.157981 324.081369 
L 789.157981 324.081369 
L 801.305259 331.161869 
L 801.305259 331.161869 
L 813.060689 342.351244 
L 813.060689 342.351244 
L 825.207968 349.530294 
L 825.207968 349.530294 
L 837.355246 349.459098 
L 837.355246 349.459098 
L 848.718829 339.258372 
L 848.718829 339.258372 
L 860.866107 366.325387 
L 860.866107 366.325387 
L 872.621538 362.601066 
L 872.621538 362.601066 
L 884.768816 376.304931 
L 884.768816 376.304931 
L 896.524247 349.149027 
L 896.524247 349.149027 
L 908.671525 351.184804 
L 908.671525 351.184804 
L 920.818803 338.031531 
L 920.818803 338.031531 
L 932.574234 334.586463 
L 932.574234 334.586463 
L 944.721512 325.147384 
L 944.721512 325.147384 
L 956.476943 329.583269 
L 956.476943 329.583269 
L 968.624221 362.671869 
L 968.624221 362.671869 
L 980.771499 367.385843 
L 980.771499 367.385843 
L 991.743234 381.917356 
L 991.743234 381.917356 
L 1003.890513 355.602603 
L 1003.890513 355.602603 
L 1015.645943 351.516134 
L 1015.645943 351.516134 
L 1027.793221 346.779635 
L 1027.793221 346.779635 
L 1039.548652 339.163692 
L 1039.548652 339.163692 
L 1051.69593 354.76362 
L 1051.69593 354.76362 
L 1063.843209 330.239366 
L 1063.843209 330.239366 
L 1075.598639 341.258384 
L 1075.598639 341.258384 
L 1087.745917 329.320923 
L 1087.745917 329.320923 
L 1099.501348 309.269468 
L 1099.501348 309.269468 
L 1111.648626 334.849901 
L 1111.648626 334.849901 
L 1123.795905 356.342525 
L 1123.795905 356.342525 
L 1134.76764 319.938285 
L 1134.76764 319.938285 
L 1146.914918 311.746752 
L 1146.914918 311.746752 
L 1158.670349 312.115447 
L 1158.670349 312.115447 
L 1170.817627 315.561388 
L 1170.817627 315.561388 
L 1182.573057 339.314814 
L 1182.573057 339.314814 
L 1194.720336 352.414104 
L 1194.720336 352.414104 
L 1206.867614 344.79544 
L 1206.867614 344.79544 
L 1218.623045 340.629133 
L 1218.623045 340.629133 
L 1230.770323 368.157369 
L 1230.770323 368.157369 
L 1242.525753 337.022802 
L 1242.525753 337.022802 
L 1254.673032 381.215759 
L 1254.673032 381.215759 
L 1266.82031 400.36503 
L 1266.82031 400.36503 
L 1277.792045 411.536647 
L 1277.792045 411.536647 
L 1289.939323 397.950307 
L 1289.939323 397.950307 
L 1301.694754 405.787316 
L 1301.694754 405.787316 
L 1313.842032 420.782794 
L 1313.842032 420.782794 
L 1325.597463 448.790507 
L 1325.597463 448.790507 
L 1337.744741 467.02753 
L 1337.744741 467.02753 
L 1349.892019 477.43343 
L 1349.892019 477.43343 
L 1361.64745 483.45427 
L 1361.64745 483.45427 
L 1373.794728 503.609526 
L 1373.794728 503.609526 
" clip-path="url(#p7987e4a056)" style="fill: none; stroke: #a1d9cc; stroke-width: 1.5; stroke-linecap: round"/>
   </g>
   <g id="patch_3">
    <path d="M 46.489061 586.242924 
L 46.489061 25.604645 
" style="fill: none; stroke: #808080; stroke-width: 0.8; stroke-linejoin: miter; stroke-linecap: square"/>
   </g>
   <g id="patch_4">
    <path d="M 46.489061 586.242924 
L 1436.99976 586.242924 
" style="fill: none; stroke: #808080; stroke-width: 0.8; stroke-linejoin: miter; stroke-linecap: square"/>
   </g>
   <g id="text_20">
    <!-- Predicted WIP -->
    <g style="fill: #262626" transform="translate(669.544746 19.604645) scale(0.24 -0.24)">
     <defs>
      <path id="CMR17-57" d="M 5523 3764 
C 5581 3936 5677 4160 6048 4160 
L 6048 4326 
C 5939 4326 5715 4326 5600 4326 
C 5440 4326 5158 4326 5005 4332 
L 5005 4160 
C 5293 4160 5414 4000 5414 3847 
C 5414 3802 5408 3777 5382 3707 
L 4390 555 
L 3347 3873 
C 3328 3937 3322 3963 3322 3988 
C 3322 4160 3603 4160 3725 4160 
L 3725 4326 
C 3539 4326 3219 4326 3021 4326 
C 2861 4326 2573 4326 2426 4332 
L 2426 4160 
C 2720 4160 2797 4141 2861 4027 
C 2886 3969 2989 3638 2989 3619 
C 2989 3593 2976 3555 2970 3536 
L 2029 561 
L 986 3867 
C 954 3957 954 3969 954 3982 
C 954 4160 1235 4160 1363 4160 
L 1363 4326 
C 1178 4326 858 4326 659 4326 
C 493 4326 211 4326 58 4332 
L 58 4160 
C 442 4160 467 4122 531 3918 
L 1779 -20 
C 1811 -115 1811 -128 1869 -128 
C 1920 -128 1939 -115 1965 -26 
L 3053 3433 
L 4141 -26 
C 4166 -115 4186 -128 4237 -128 
C 4294 -128 4294 -115 4326 -20 
L 5523 3764 
z
" transform="scale(0.015625)"/>
      <path id="CMR17-49" d="M 1261 3905 
C 1261 4192 1338 4192 1798 4192 
L 1798 4352 
C 1594 4352 1267 4352 1050 4352 
C 832 4352 506 4352 301 4352 
L 301 4192 
C 762 4192 838 4192 838 3905 
L 838 447 
C 838 160 762 160 301 160 
L 301 0 
C 506 0 832 0 1050 0 
C 1267 0 1594 0 1798 0 
L 1798 160 
C 1338 160 1261 160 1261 447 
L 1261 3905 
z
" transform="scale(0.015625)"/>
     </defs>
     <use xlink:href="#CMR17-50" transform="scale(0.996264)"/>
     <use xlink:href="#CMR17-72" transform="translate(62.586301 0) scale(0.996264)"/>
     <use xlink:href="#CMR17-65" transform="translate(97.867068 0) scale(0.996264)"/>
     <use xlink:href="#CMR17-64" transform="translate(138.352729 0) scale(0.996264)"/>
     <use xlink:href="#CMR17-69" transform="translate(189.248099 0) scale(0.996264)"/>
     <use xlink:href="#CMR17-63" transform="translate(214.119157 0) scale(0.996264)"/>
     <use xlink:href="#CMR17-74" transform="translate(254.604818 0) scale(0.996264)"/>
     <use xlink:href="#CMR17-65" transform="translate(289.885585 0) scale(0.996264)"/>
     <use xlink:href="#CMR17-64" transform="translate(330.371246 0) scale(0.996264)"/>
     <use xlink:href="#CMR17-57" transform="translate(411.342582 0) scale(0.996264)"/>
     <use xlink:href="#CMR17-49" transform="translate(506.439232 0) scale(0.996264)"/>
     <use xlink:href="#CMR17-50" transform="translate(539.077641 0) scale(0.996264)"/>
    </g>
   </g>
   <g id="legend_1">
    <g id="patch_5">
     <path d="M 74.937453 716.999074 
L 1408.551368 716.999074 
Q 1412.551368 716.999074 1412.551368 712.999074 
L 1412.551368 656.306752 
Q 1412.551368 652.306752 1408.551368 652.306752 
L 74.937453 652.306752 
Q 70.937453 652.306752 70.937453 656.306752 
L 70.937453 712.999074 
Q 70.937453 716.999074 74.937453 716.999074 
z
" style="fill: #ffffff; opacity: 0.8"/>
    </g>
    <g id="line2d_24">
     <path d="M 78.937453 668.232774 
L 98.937453 668.232774 
L 118.937453 668.232774 
" style="fill: none; stroke-dasharray: 5.55,2.4; stroke-dashoffset: 0; stroke: #006e64; stroke-width: 1.5"/>
    </g>
    <g id="text_21">
     <!-- Actual -->
     <g style="fill: #262626" transform="translate(134.937453 675.232774) scale(0.2 -0.2)">
      <defs>
       <path id="CMR17-41" d="M 2323 4378 
C 2291 4461 2278 4480 2214 4480 
C 2150 4480 2138 4461 2106 4378 
L 749 566 
C 627 223 371 153 147 153 
L 147 -13 
C 262 0 518 0 640 0 
C 800 0 1056 0 1210 -13 
L 1210 153 
C 909 153 864 361 864 439 
C 864 497 877 530 890 569 
L 1229 1536 
L 2906 1536 
L 3290 442 
C 3322 365 3322 352 3322 327 
C 3322 153 3046 153 2925 153 
L 2925 0 
C 3110 0 3443 0 3642 0 
C 3808 0 4128 0 4282 -13 
L 4282 153 
C 3942 153 3827 153 3744 387 
L 2323 4378 
z
M 2067 3893 
L 2848 1702 
L 1286 1702 
L 2067 3893 
z
" transform="scale(0.015625)"/>
       <path id="CMR17-75" d="M 1882 2693 
L 1882 2528 
C 2259 2528 2317 2489 2317 2186 
L 2317 1032 
C 2317 500 2029 38 1555 38 
C 1030 38 986 348 986 678 
L 986 2763 
L 211 2693 
L 211 2528 
C 467 2528 640 2528 646 2274 
L 646 1058 
C 646 633 646 361 813 183 
C 896 101 1056 -64 1517 -64 
C 2061 -64 2272 377 2323 506 
L 2330 506 
L 2330 -63 
L 3091 -63 
L 3091 128 
C 2714 128 2656 166 2656 473 
L 2656 2763 
L 1882 2693 
z
" transform="scale(0.015625)"/>
       <path id="CMR17-6c" d="M 979 4396 
L 218 4326 
L 218 4160 
C 595 4160 653 4122 653 3817 
L 653 426 
C 653 184 627 153 218 153 
L 218 -13 
C 371 0 653 0 813 0 
C 979 0 1261 0 1414 -13 
L 1414 153 
C 1005 153 979 178 979 426 
L 979 4396 
z
" transform="scale(0.015625)"/>
      </defs>
      <use xlink:href="#CMR17-41" transform="scale(0.996264)"/>
      <use xlink:href="#CMR17-63" transform="translate(69.07243 0) scale(0.996264)"/>
      <use xlink:href="#CMR17-74" transform="translate(109.55809 0) scale(0.996264)"/>
      <use xlink:href="#CMR17-75" transform="translate(144.838858 0) scale(0.996264)"/>
      <use xlink:href="#CMR17-61" transform="translate(195.734228 0) scale(0.996264)"/>
      <use xlink:href="#CMR17-6c" transform="translate(241.424705 0) scale(0.996264)"/>
     </g>
    </g>
    <g id="line2d_25">
     <path d="M 78.937453 697.03443 
L 98.937453 697.03443 
L 118.937453 697.03443 
" style="fill: none; stroke: #734848; stroke-width: 1.5; stroke-linecap: round"/>
    </g>
    <g id="text_22">
     <!-- LSTM (best) -->
     <g style="fill: #262626" transform="translate(134.937453 704.03443) scale(0.2 -0.2)">
      <defs>
       <path id="CMR17-4c" d="M 3469 1615 
L 3354 1615 
C 3302 983 3219 166 2125 166 
L 1530 166 
C 1274 166 1261 197 1261 414 
L 1261 3898 
C 1261 4129 1274 4192 1760 4192 
L 1901 4192 
L 1901 4352 
C 1638 4352 1331 4352 1069 4352 
C 870 4352 512 4352 326 4352 
L 326 4192 
C 768 4192 838 4192 838 3905 
L 838 452 
C 838 166 768 166 326 166 
L 326 0 
L 3315 0 
L 3469 1615 
z
" transform="scale(0.015625)"/>
       <path id="CMR17-53" d="M 2803 4290 
C 2803 4404 2797 4411 2758 4411 
C 2720 4411 2707 4385 2682 4328 
L 2490 3907 
C 2246 4257 1875 4416 1472 4416 
C 819 4416 294 3901 294 3253 
C 294 3056 339 2776 557 2510 
C 794 2218 1018 2167 1530 2033 
C 1722 1982 2042 1899 2106 1874 
C 2470 1722 2662 1341 2662 985 
C 2662 527 2336 38 1779 38 
C 1094 38 454 419 410 1311 
C 403 1413 397 1419 352 1419 
C 301 1419 294 1413 294 1285 
L 294 -1 
C 294 -115 301 -122 339 -122 
C 384 -122 397 -90 486 108 
C 493 127 493 140 614 381 
C 934 -39 1472 -128 1779 -128 
C 2477 -128 2970 451 2970 1124 
C 2970 1454 2848 1708 2778 1823 
C 2509 2230 2221 2306 1914 2382 
C 1869 2402 1856 2402 1498 2490 
C 1152 2579 1005 2624 845 2796 
C 666 2992 602 3196 602 3399 
C 602 3812 934 4263 1478 4263 
C 2157 4263 2579 3786 2675 2993 
C 2694 2878 2701 2872 2746 2872 
C 2803 2872 2803 2891 2803 2999 
L 2803 4290 
z
" transform="scale(0.015625)"/>
       <path id="CMR17-54" d="M 3981 4326 
L 288 4326 
L 179 2918 
L 294 2918 
C 378 3976 467 4160 1453 4160 
C 1568 4160 1754 4160 1805 4154 
C 1926 4135 1926 4058 1926 3912 
L 1926 459 
C 1926 230 1907 160 1376 160 
L 1197 160 
L 1197 0 
C 1504 0 1824 0 2138 0 
C 2451 0 2771 0 3078 0 
L 3078 160 
L 2899 160 
C 2368 160 2349 230 2349 459 
L 2349 3912 
C 2349 4052 2349 4129 2464 4154 
C 2515 4160 2701 4160 2816 4160 
C 3795 4160 3891 3976 3974 2918 
L 4090 2918 
L 3981 4326 
z
" transform="scale(0.015625)"/>
       <path id="CMR17-4d" d="M 1338 4224 
C 1299 4320 1293 4320 1158 4320 
L 339 4320 
L 339 4160 
C 781 4160 851 4160 851 3875 
L 851 610 
C 851 451 851 153 339 153 
L 339 -13 
C 486 0 755 0 915 0 
C 1075 0 1344 0 1491 -13 
L 1491 153 
C 979 153 979 451 979 610 
L 979 4135 
L 986 4135 
L 2490 89 
C 2515 25 2528 -13 2579 -13 
C 2630 -13 2643 25 2669 89 
L 4186 4166 
L 4192 4166 
L 4192 438 
C 4192 153 4122 153 3680 153 
L 3680 -13 
C 3853 0 4198 0 4384 0 
C 4570 0 4922 0 5094 -13 
L 5094 153 
C 4653 153 4582 153 4582 438 
L 4582 3875 
C 4582 4160 4653 4160 5094 4160 
L 5094 4320 
L 4282 4320 
C 4147 4320 4141 4314 4102 4218 
L 2720 502 
L 1338 4224 
z
" transform="scale(0.015625)"/>
       <path id="CMR17-28" d="M 1958 -1561 
C 1958 -1555 1958 -1542 1939 -1523 
C 1645 -1224 858 -407 858 1581 
C 858 3569 1632 4379 1946 4697 
C 1946 4704 1958 4717 1958 4736 
C 1958 4755 1939 4768 1914 4768 
C 1843 4768 1299 4296 986 3594 
C 666 2887 576 2199 576 1588 
C 576 1128 621 351 1005 -471 
C 1312 -1135 1837 -1600 1914 -1600 
C 1946 -1600 1958 -1587 1958 -1561 
z
" transform="scale(0.015625)"/>
       <path id="CMR17-62" d="M 960 4396 
L 198 4326 
L 198 4160 
C 576 4160 634 4122 634 3817 
L 634 -13 
L 749 -13 
L 934 441 
C 1120 141 1395 -64 1766 -64 
C 2406 -64 3053 500 3053 1370 
C 3053 2188 2477 2790 1830 2790 
C 1434 2790 1152 2579 960 2330 
L 960 4396 
z
M 973 2004 
C 973 2118 973 2138 1062 2272 
C 1312 2657 1670 2688 1792 2688 
C 1984 2688 2643 2585 2643 1376 
C 2643 108 1888 38 1734 38 
C 1536 38 1248 114 1043 486 
C 973 608 973 621 973 735 
L 973 2004 
z
" transform="scale(0.015625)"/>
       <path id="CMR17-73" d="M 1978 2697 
C 1978 2813 1971 2819 1933 2819 
C 1907 2819 1901 2813 1824 2717 
C 1805 2691 1747 2626 1728 2601 
C 1523 2819 1235 2819 1126 2819 
C 416 2819 160 2447 160 2076 
C 160 1498 813 1365 998 1325 
C 1402 1243 1542 1217 1677 1101 
C 1760 1025 1901 884 1901 654 
C 1901 384 1747 38 1158 38 
C 602 38 403 460 288 1021 
C 269 1110 269 1117 218 1117 
C 166 1117 160 1110 160 983 
L 160 63 
C 160 -51 166 -58 205 -58 
C 237 -58 243 -51 275 0 
C 314 57 410 211 448 276 
C 576 103 800 -64 1158 -64 
C 1792 -64 2131 283 2131 784 
C 2131 1112 1958 1285 1875 1362 
C 1683 1561 1459 1606 1190 1657 
C 838 1735 390 1825 390 2217 
C 390 2383 480 2737 1126 2737 
C 1811 2737 1850 2094 1862 1888 
C 1869 1856 1901 1849 1920 1849 
C 1978 1849 1978 1869 1978 1978 
L 1978 2697 
z
" transform="scale(0.015625)"/>
       <path id="CMR17-29" d="M 1683 1581 
C 1683 2040 1638 2817 1254 3639 
C 947 4303 422 4768 346 4768 
C 326 4768 301 4761 301 4729 
C 301 4717 307 4710 314 4697 
C 621 4378 1402 3568 1402 1584 
C 1402 -407 627 -1217 314 -1537 
C 307 -1549 301 -1556 301 -1568 
C 301 -1600 326 -1600 346 -1600 
C 416 -1600 960 -1128 1274 -426 
C 1594 281 1683 969 1683 1581 
z
" transform="scale(0.015625)"/>
      </defs>
      <use xlink:href="#CMR17-4c" transform="scale(0.996264)"/>
      <use xlink:href="#CMR17-53" transform="translate(57.381408 0) scale(0.996264)"/>
      <use xlink:href="#CMR17-54" transform="translate(108.276778 0) scale(0.996264)"/>
      <use xlink:href="#CMR17-4d" transform="translate(174.786658 0) scale(0.996264)"/>
      <use xlink:href="#CMR17-28" transform="translate(289.549565 0) scale(0.996264)"/>
      <use xlink:href="#CMR17-62" transform="translate(324.830333 0) scale(0.996264)"/>
      <use xlink:href="#CMR17-65" transform="translate(378.328141 0) scale(0.996264)"/>
      <use xlink:href="#CMR17-73" transform="translate(418.813802 0) scale(0.996264)"/>
      <use xlink:href="#CMR17-74" transform="translate(454.61514 0) scale(0.996264)"/>
      <use xlink:href="#CMR17-29" transform="translate(489.895907 0) scale(0.996264)"/>
     </g>
    </g>
    <g id="line2d_26">
     <path d="M 279.97274 668.232774 
L 299.97274 668.232774 
L 319.97274 668.232774 
" style="fill: none; stroke: #004e4a; stroke-width: 1.5; stroke-linecap: round"/>
    </g>
    <g id="text_23">
     <!-- LSTM (batch size = 2) -->
     <g style="fill: #262626" transform="translate(335.97274 675.232774) scale(0.2 -0.2)">
      <defs>
       <path id="CMR17-68" d="M 2656 1933 
C 2656 2259 2592 2790 1837 2790 
C 1312 2790 1056 2368 979 2157 
L 973 2157 
L 973 4396 
L 211 4326 
L 211 4160 
C 589 4160 646 4122 646 3817 
L 646 426 
C 646 184 621 153 211 153 
L 211 -13 
C 365 0 646 0 813 0 
C 979 0 1267 0 1421 -13 
L 1421 153 
C 1011 153 986 178 986 428 
L 986 1658 
C 986 2247 1344 2688 1792 2688 
C 2266 2688 2317 2266 2317 1958 
L 2317 428 
C 2317 184 2291 153 1882 153 
L 1882 -13 
C 2035 0 2317 0 2483 0 
C 2650 0 2938 0 3091 -13 
L 3091 153 
C 2682 153 2656 178 2656 428 
L 2656 1933 
z
" transform="scale(0.015625)"/>
       <path id="CMR17-7a" d="M 2310 2605 
C 2362 2670 2362 2682 2362 2695 
C 2362 2752 2336 2752 2221 2752 
L 275 2752 
L 211 1760 
L 326 1760 
C 371 2381 442 2650 1178 2650 
L 1958 2650 
L 128 96 
C 128 0 134 0 269 0 
L 2291 0 
L 2381 1152 
L 2266 1152 
C 2214 442 2131 115 1350 115 
L 531 115 
L 2310 2605 
z
" transform="scale(0.015625)"/>
       <path id="CMR17-3d" d="M 4115 2017 
C 4211 2017 4307 2017 4307 2125 
C 4307 2240 4198 2240 4090 2240 
L 512 2240 
C 403 2240 294 2240 294 2125 
C 294 2017 390 2017 486 2017 
L 4115 2017 
z
M 4090 896 
C 4198 896 4307 896 4307 1011 
C 4307 1119 4211 1119 4115 1119 
L 486 1119 
C 390 1119 294 1119 294 1011 
C 294 896 403 896 512 896 
L 4090 896 
z
" transform="scale(0.015625)"/>
      </defs>
      <use xlink:href="#CMR17-4c" transform="scale(0.996264)"/>
      <use xlink:href="#CMR17-53" transform="translate(57.381408 0) scale(0.996264)"/>
      <use xlink:href="#CMR17-54" transform="translate(108.276778 0) scale(0.996264)"/>
      <use xlink:href="#CMR17-4d" transform="translate(174.786658 0) scale(0.996264)"/>
      <use xlink:href="#CMR17-28" transform="translate(289.549565 0) scale(0.996264)"/>
      <use xlink:href="#CMR17-62" transform="translate(324.830333 0) scale(0.996264)"/>
      <use xlink:href="#CMR17-61" transform="translate(375.725703 0) scale(0.996264)"/>
      <use xlink:href="#CMR17-74" transform="translate(421.41618 0) scale(0.996264)"/>
      <use xlink:href="#CMR17-63" transform="translate(456.696948 0) scale(0.996264)"/>
      <use xlink:href="#CMR17-68" transform="translate(494.580154 0) scale(0.996264)"/>
      <use xlink:href="#CMR17-73" transform="translate(575.55149 0) scale(0.996264)"/>
      <use xlink:href="#CMR17-69" transform="translate(611.352828 0) scale(0.996264)"/>
      <use xlink:href="#CMR17-7a" transform="translate(636.223886 0) scale(0.996264)"/>
      <use xlink:href="#CMR17-65" transform="translate(676.709547 0) scale(0.996264)"/>
      <use xlink:href="#CMR17-3d" transform="translate(747.271174 0) scale(0.996264)"/>
      <use xlink:href="#CMR17-32" transform="translate(849.061928 0) scale(0.996264)"/>
      <use xlink:href="#CMR17-29" transform="translate(894.752406 0) scale(0.996264)"/>
     </g>
    </g>
    <g id="line2d_27">
     <path d="M 561.979301 668.232774 
L 581.979301 668.232774 
L 601.979301 668.232774 
" style="fill: none; stroke: #c17150; stroke-width: 1.5; stroke-linecap: round"/>
    </g>
    <g id="text_24">
     <!-- LSTM (batch size = 16) -->
     <g style="fill: #262626" transform="translate(617.979301 675.232774) scale(0.2 -0.2)">
      <use xlink:href="#CMR17-4c" transform="scale(0.996264)"/>
      <use xlink:href="#CMR17-53" transform="translate(57.381408 0) scale(0.996264)"/>
      <use xlink:href="#CMR17-54" transform="translate(108.276778 0) scale(0.996264)"/>
      <use xlink:href="#CMR17-4d" transform="translate(174.786658 0) scale(0.996264)"/>
      <use xlink:href="#CMR17-28" transform="translate(289.549565 0) scale(0.996264)"/>
      <use xlink:href="#CMR17-62" transform="translate(324.830333 0) scale(0.996264)"/>
      <use xlink:href="#CMR17-61" transform="translate(375.725703 0) scale(0.996264)"/>
      <use xlink:href="#CMR17-74" transform="translate(421.41618 0) scale(0.996264)"/>
      <use xlink:href="#CMR17-63" transform="translate(456.696948 0) scale(0.996264)"/>
      <use xlink:href="#CMR17-68" transform="translate(494.580154 0) scale(0.996264)"/>
      <use xlink:href="#CMR17-73" transform="translate(575.55149 0) scale(0.996264)"/>
      <use xlink:href="#CMR17-69" transform="translate(611.352828 0) scale(0.996264)"/>
      <use xlink:href="#CMR17-7a" transform="translate(636.223886 0) scale(0.996264)"/>
      <use xlink:href="#CMR17-65" transform="translate(676.709547 0) scale(0.996264)"/>
      <use xlink:href="#CMR17-3d" transform="translate(747.271174 0) scale(0.996264)"/>
      <use xlink:href="#CMR17-31" transform="translate(849.061928 0) scale(0.996264)"/>
      <use xlink:href="#CMR17-36" transform="translate(894.752406 0) scale(0.996264)"/>
      <use xlink:href="#CMR17-29" transform="translate(940.442883 0) scale(0.996264)"/>
     </g>
    </g>
    <g id="line2d_28">
     <path d="M 853.123958 668.232774 
L 873.123958 668.232774 
L 893.123958 668.232774 
" style="fill: none; stroke: #ffbb00; stroke-width: 1.5; stroke-linecap: round"/>
    </g>
    <g id="text_25">
     <!-- LSTM (batch size = 32) -->
     <g style="fill: #262626" transform="translate(909.123958 675.232774) scale(0.2 -0.2)">
      <use xlink:href="#CMR17-4c" transform="scale(0.996264)"/>
      <use xlink:href="#CMR17-53" transform="translate(57.381408 0) scale(0.996264)"/>
      <use xlink:href="#CMR17-54" transform="translate(108.276778 0) scale(0.996264)"/>
      <use xlink:href="#CMR17-4d" transform="translate(174.786658 0) scale(0.996264)"/>
      <use xlink:href="#CMR17-28" transform="translate(289.549565 0) scale(0.996264)"/>
      <use xlink:href="#CMR17-62" transform="translate(324.830333 0) scale(0.996264)"/>
      <use xlink:href="#CMR17-61" transform="translate(375.725703 0) scale(0.996264)"/>
      <use xlink:href="#CMR17-74" transform="translate(421.41618 0) scale(0.996264)"/>
      <use xlink:href="#CMR17-63" transform="translate(456.696948 0) scale(0.996264)"/>
      <use xlink:href="#CMR17-68" transform="translate(494.580154 0) scale(0.996264)"/>
      <use xlink:href="#CMR17-73" transform="translate(575.55149 0) scale(0.996264)"/>
      <use xlink:href="#CMR17-69" transform="translate(611.352828 0) scale(0.996264)"/>
      <use xlink:href="#CMR17-7a" transform="translate(636.223886 0) scale(0.996264)"/>
      <use xlink:href="#CMR17-65" transform="translate(676.709547 0) scale(0.996264)"/>
      <use xlink:href="#CMR17-3d" transform="translate(747.271174 0) scale(0.996264)"/>
      <use xlink:href="#CMR17-33" transform="translate(849.061928 0) scale(0.996264)"/>
      <use xlink:href="#CMR17-32" transform="translate(894.752406 0) scale(0.996264)"/>
      <use xlink:href="#CMR17-29" transform="translate(940.442883 0) scale(0.996264)"/>
     </g>
    </g>
    <g id="line2d_29">
     <path d="M 1144.268615 668.232774 
L 1164.268615 668.232774 
L 1184.268615 668.232774 
" style="fill: none; stroke: #a1d9cc; stroke-width: 1.5; stroke-linecap: round"/>
    </g>
    <g id="text_26">
     <!-- LSTM (batch size = 128) -->
     <g style="fill: #262626" transform="translate(1200.268615 675.232774) scale(0.2 -0.2)">
      <use xlink:href="#CMR17-4c" transform="scale(0.996264)"/>
      <use xlink:href="#CMR17-53" transform="translate(57.381408 0) scale(0.996264)"/>
      <use xlink:href="#CMR17-54" transform="translate(108.276778 0) scale(0.996264)"/>
      <use xlink:href="#CMR17-4d" transform="translate(174.786658 0) scale(0.996264)"/>
      <use xlink:href="#CMR17-28" transform="translate(289.549565 0) scale(0.996264)"/>
      <use xlink:href="#CMR17-62" transform="translate(324.830333 0) scale(0.996264)"/>
      <use xlink:href="#CMR17-61" transform="translate(375.725703 0) scale(0.996264)"/>
      <use xlink:href="#CMR17-74" transform="translate(421.41618 0) scale(0.996264)"/>
      <use xlink:href="#CMR17-63" transform="translate(456.696948 0) scale(0.996264)"/>
      <use xlink:href="#CMR17-68" transform="translate(494.580154 0) scale(0.996264)"/>
      <use xlink:href="#CMR17-73" transform="translate(575.55149 0) scale(0.996264)"/>
      <use xlink:href="#CMR17-69" transform="translate(611.352828 0) scale(0.996264)"/>
      <use xlink:href="#CMR17-7a" transform="translate(636.223886 0) scale(0.996264)"/>
      <use xlink:href="#CMR17-65" transform="translate(676.709547 0) scale(0.996264)"/>
      <use xlink:href="#CMR17-3d" transform="translate(747.271174 0) scale(0.996264)"/>
      <use xlink:href="#CMR17-31" transform="translate(849.061928 0) scale(0.996264)"/>
      <use xlink:href="#CMR17-32" transform="translate(894.752406 0) scale(0.996264)"/>
      <use xlink:href="#CMR17-38" transform="translate(940.442883 0) scale(0.996264)"/>
      <use xlink:href="#CMR17-29" transform="translate(986.13336 0) scale(0.996264)"/>
     </g>
    </g>
   </g>
  </g>
 </g>
 <defs>
  <clipPath id="p7987e4a056">
   <rect x="46.489061" y="25.604645" width="1390.510699" height="560.638279"/>
  </clipPath>
 </defs>
</svg>
