<?xml version="1.0" encoding="utf-8" standalone="no"?>
<!DOCTYPE svg PUBLIC "-//W3C//DTD SVG 1.1//EN"
  "http://www.w3.org/Graphics/SVG/1.1/DTD/svg11.dtd">
<svg xmlns:xlink="http://www.w3.org/1999/xlink" width="1440pt" height="720pt" viewBox="0 0 1440 720" xmlns="http://www.w3.org/2000/svg" version="1.1">
 <metadata>
  <rdf:RDF xmlns:dc="http://purl.org/dc/elements/1.1/" xmlns:cc="http://creativecommons.org/ns#" xmlns:rdf="http://www.w3.org/1999/02/22-rdf-syntax-ns#">
   <cc:Work>
    <dc:type rdf:resource="http://purl.org/dc/dcmitype/StillImage"/>
    <dc:date>2023-11-27T08:07:59.622268</dc:date>
    <dc:format>image/svg+xml</dc:format>
    <dc:creator>
     <cc:Agent>
      <dc:title>Matplotlib v3.8.0, https://matplotlib.org/</dc:title>
     </cc:Agent>
    </dc:creator>
   </cc:Work>
  </rdf:RDF>
 </metadata>
 <defs>
  <style type="text/css">*{stroke-linejoin: round; stroke-linecap: butt}</style>
 </defs>
 <g id="figure_1">
  <g id="patch_1">
   <path d="M 0 720 
L 1440 720 
L 1440 0 
L 0 0 
z
" style="fill: #ffffff"/>
  </g>
  <g id="axes_1">
   <g id="patch_2">
    <path d="M 46.489061 586.243542 
L 1436.99976 586.243542 
L 1436.99976 25.604645 
L 46.489061 25.604645 
z
" style="fill: #ffffff"/>
   </g>
   <g id="matplotlib.axis_1">
    <g id="xtick_1">
     <g id="line2d_1">
      <path d="M 109.694093 586.243542 
L 109.694093 25.604645 
" clip-path="url(#pa37f882700)" style="fill: none; stroke: #cccccc; stroke-opacity: 0.35; stroke-width: 0.8; stroke-linecap: round"/>
     </g>
     <g id="text_1">
      <!-- $\mathdefault{2015}$ -->
      <g transform="translate(91.417902 603.580539) scale(0.2 -0.2)">
       <defs>
        <path id="CMR17-32" d="M 2669 989 
L 2554 989 
C 2490 536 2438 459 2413 420 
C 2381 369 1920 369 1830 369 
L 602 369 
C 832 619 1280 1072 1824 1597 
C 2214 1967 2669 2402 2669 3035 
C 2669 3790 2067 4224 1395 4224 
C 691 4224 262 3604 262 3030 
C 262 2780 448 2748 525 2748 
C 589 2748 781 2787 781 3010 
C 781 3207 614 3264 525 3264 
C 486 3264 448 3258 422 3245 
C 544 3790 915 4058 1306 4058 
C 1862 4058 2227 3617 2227 3035 
C 2227 2479 1901 2000 1536 1584 
L 262 146 
L 262 0 
L 2515 0 
L 2669 989 
z
" transform="scale(0.015625)"/>
        <path id="CMR17-30" d="M 2688 2025 
C 2688 2416 2682 3080 2413 3591 
C 2176 4039 1798 4198 1466 4198 
C 1158 4198 768 4058 525 3597 
C 269 3118 243 2524 243 2025 
C 243 1661 250 1106 448 619 
C 723 -39 1216 -128 1466 -128 
C 1760 -128 2208 -7 2470 600 
C 2662 1042 2688 1559 2688 2025 
z
M 1466 -26 
C 1056 -26 813 325 723 812 
C 653 1188 653 1738 653 2096 
C 653 2588 653 2997 736 3387 
C 858 3929 1216 4096 1466 4096 
C 1728 4096 2067 3923 2189 3400 
C 2272 3036 2278 2607 2278 2096 
C 2278 1680 2278 1169 2202 792 
C 2067 95 1690 -26 1466 -26 
z
" transform="scale(0.015625)"/>
        <path id="CMR17-31" d="M 1702 4058 
C 1702 4192 1696 4192 1606 4192 
C 1357 3916 979 3827 621 3827 
C 602 3827 570 3827 563 3808 
C 557 3795 557 3782 557 3648 
C 755 3648 1088 3686 1344 3839 
L 1344 461 
C 1344 236 1331 160 781 160 
L 589 160 
L 589 0 
C 896 0 1216 0 1523 0 
C 1830 0 2150 0 2458 0 
L 2458 160 
L 2266 160 
C 1715 160 1702 230 1702 458 
L 1702 4058 
z
" transform="scale(0.015625)"/>
        <path id="CMR17-35" d="M 730 3692 
C 794 3666 1056 3584 1325 3584 
C 1920 3584 2246 3911 2432 4100 
C 2432 4157 2432 4192 2394 4192 
C 2387 4192 2374 4192 2323 4163 
C 2099 4058 1837 3973 1517 3973 
C 1325 3973 1037 3999 723 4139 
C 653 4171 640 4171 634 4171 
C 602 4171 595 4164 595 4037 
L 595 2203 
C 595 2089 595 2057 659 2057 
C 691 2057 704 2070 736 2114 
C 941 2401 1222 2522 1542 2522 
C 1766 2522 2246 2382 2246 1289 
C 2246 1085 2246 715 2054 421 
C 1894 159 1645 25 1370 25 
C 947 25 518 320 403 814 
C 429 807 480 795 506 795 
C 589 795 749 840 749 1038 
C 749 1210 627 1280 506 1280 
C 358 1280 262 1190 262 1011 
C 262 454 704 -128 1382 -128 
C 2042 -128 2669 440 2669 1264 
C 2669 2030 2170 2624 1549 2624 
C 1222 2624 947 2503 730 2274 
L 730 3692 
z
" transform="scale(0.015625)"/>
       </defs>
       <use xlink:href="#CMR17-32" transform="scale(0.996264)"/>
       <use xlink:href="#CMR17-30" transform="translate(45.690477 0) scale(0.996264)"/>
       <use xlink:href="#CMR17-31" transform="translate(91.380954 0) scale(0.996264)"/>
       <use xlink:href="#CMR17-35" transform="translate(137.071431 0) scale(0.996264)"/>
      </g>
     </g>
    </g>
    <g id="xtick_2">
     <g id="line2d_2">
      <path d="M 252.718498 586.243542 
L 252.718498 25.604645 
" clip-path="url(#pa37f882700)" style="fill: none; stroke: #cccccc; stroke-opacity: 0.35; stroke-width: 0.8; stroke-linecap: round"/>
     </g>
     <g id="text_2">
      <!-- $\mathdefault{2016}$ -->
      <g transform="translate(234.442308 603.580539) scale(0.2 -0.2)">
       <defs>
        <path id="CMR17-36" d="M 678 2176 
C 678 3690 1395 4032 1811 4032 
C 1946 4032 2272 4009 2400 3776 
C 2298 3776 2106 3776 2106 3553 
C 2106 3381 2246 3323 2336 3323 
C 2394 3323 2566 3348 2566 3560 
C 2566 3954 2246 4179 1805 4179 
C 1043 4179 243 3390 243 1984 
C 243 253 966 -128 1478 -128 
C 2099 -128 2688 427 2688 1283 
C 2688 2081 2170 2662 1517 2662 
C 1126 2662 838 2407 678 1960 
L 678 2176 
z
M 1478 25 
C 691 25 691 1200 691 1436 
C 691 1896 909 2560 1504 2560 
C 1613 2560 1926 2560 2138 2120 
C 2253 1870 2253 1609 2253 1289 
C 2253 944 2253 690 2118 434 
C 1978 171 1773 25 1478 25 
z
" transform="scale(0.015625)"/>
       </defs>
       <use xlink:href="#CMR17-32" transform="scale(0.996264)"/>
       <use xlink:href="#CMR17-30" transform="translate(45.690477 0) scale(0.996264)"/>
       <use xlink:href="#CMR17-31" transform="translate(91.380954 0) scale(0.996264)"/>
       <use xlink:href="#CMR17-36" transform="translate(137.071431 0) scale(0.996264)"/>
      </g>
     </g>
    </g>
    <g id="xtick_3">
     <g id="line2d_3">
      <path d="M 396.134751 586.243542 
L 396.134751 25.604645 
" clip-path="url(#pa37f882700)" style="fill: none; stroke: #cccccc; stroke-opacity: 0.35; stroke-width: 0.8; stroke-linecap: round"/>
     </g>
     <g id="text_3">
      <!-- $\mathdefault{2017}$ -->
      <g transform="translate(377.858561 603.580539) scale(0.2 -0.2)">
       <defs>
        <path id="CMR17-37" d="M 2886 3941 
L 2886 4081 
L 1382 4081 
C 634 4081 621 4165 595 4288 
L 480 4288 
L 294 3094 
L 410 3094 
C 429 3215 474 3540 550 3661 
C 589 3712 1062 3712 1171 3712 
L 2579 3712 
L 1869 2661 
C 1395 1954 1069 999 1069 165 
C 1069 89 1069 -128 1299 -128 
C 1530 -128 1530 89 1530 171 
L 1530 465 
C 1530 1508 1709 2196 2003 2636 
L 2886 3941 
z
" transform="scale(0.015625)"/>
       </defs>
       <use xlink:href="#CMR17-32" transform="scale(0.996264)"/>
       <use xlink:href="#CMR17-30" transform="translate(45.690477 0) scale(0.996264)"/>
       <use xlink:href="#CMR17-31" transform="translate(91.380954 0) scale(0.996264)"/>
       <use xlink:href="#CMR17-37" transform="translate(137.071431 0) scale(0.996264)"/>
      </g>
     </g>
    </g>
    <g id="xtick_4">
     <g id="line2d_4">
      <path d="M 539.159157 586.243542 
L 539.159157 25.604645 
" clip-path="url(#pa37f882700)" style="fill: none; stroke: #cccccc; stroke-opacity: 0.35; stroke-width: 0.8; stroke-linecap: round"/>
     </g>
     <g id="text_4">
      <!-- $\mathdefault{2018}$ -->
      <g transform="translate(520.882966 603.580539) scale(0.2 -0.2)">
       <defs>
        <path id="CMR17-38" d="M 1741 2264 
C 2144 2467 2554 2773 2554 3263 
C 2554 3841 1990 4179 1472 4179 
C 890 4179 378 3759 378 3180 
C 378 3021 416 2747 666 2505 
C 730 2442 998 2251 1171 2130 
C 883 1983 211 1634 211 934 
C 211 279 838 -128 1459 -128 
C 2144 -128 2720 362 2720 1010 
C 2720 1590 2330 1857 2074 2029 
L 1741 2264 
z
M 902 2822 
C 851 2854 595 3051 595 3351 
C 595 3739 998 4032 1459 4032 
C 1965 4032 2336 3676 2336 3262 
C 2336 2669 1670 2331 1638 2331 
C 1632 2331 1626 2331 1574 2370 
L 902 2822 
z
M 2080 1519 
C 2176 1449 2483 1240 2483 851 
C 2483 381 2010 25 1472 25 
C 890 25 448 438 448 940 
C 448 1443 838 1862 1280 2060 
L 2080 1519 
z
" transform="scale(0.015625)"/>
       </defs>
       <use xlink:href="#CMR17-32" transform="scale(0.996264)"/>
       <use xlink:href="#CMR17-30" transform="translate(45.690477 0) scale(0.996264)"/>
       <use xlink:href="#CMR17-31" transform="translate(91.380954 0) scale(0.996264)"/>
       <use xlink:href="#CMR17-38" transform="translate(137.071431 0) scale(0.996264)"/>
      </g>
     </g>
    </g>
    <g id="xtick_5">
     <g id="line2d_5">
      <path d="M 682.183562 586.243542 
L 682.183562 25.604645 
" clip-path="url(#pa37f882700)" style="fill: none; stroke: #cccccc; stroke-opacity: 0.35; stroke-width: 0.8; stroke-linecap: round"/>
     </g>
     <g id="text_5">
      <!-- $\mathdefault{2019}$ -->
      <g transform="translate(663.907371 603.580539) scale(0.2 -0.2)">
       <defs>
        <path id="CMR17-39" d="M 2253 1864 
C 2253 464 1670 31 1190 31 
C 1043 31 685 31 538 294 
C 704 268 826 357 826 518 
C 826 692 685 749 595 749 
C 538 749 365 723 365 506 
C 365 71 742 -128 1203 -128 
C 1939 -128 2688 674 2688 2073 
C 2688 3817 1971 4179 1485 4179 
C 851 4179 243 3628 243 2778 
C 243 1991 762 1408 1414 1408 
C 1952 1408 2189 1903 2253 2112 
L 2253 1864 
z
M 1427 1510 
C 1254 1510 1011 1542 813 1922 
C 678 2169 678 2461 678 2771 
C 678 3146 678 3405 858 3684 
C 947 3817 1114 4032 1485 4032 
C 2240 4032 2240 2885 2240 2632 
C 2240 2182 2035 1510 1427 1510 
z
" transform="scale(0.015625)"/>
       </defs>
       <use xlink:href="#CMR17-32" transform="scale(0.996264)"/>
       <use xlink:href="#CMR17-30" transform="translate(45.690477 0) scale(0.996264)"/>
       <use xlink:href="#CMR17-31" transform="translate(91.380954 0) scale(0.996264)"/>
       <use xlink:href="#CMR17-39" transform="translate(137.071431 0) scale(0.996264)"/>
      </g>
     </g>
    </g>
    <g id="xtick_6">
     <g id="line2d_6">
      <path d="M 825.207968 586.243542 
L 825.207968 25.604645 
" clip-path="url(#pa37f882700)" style="fill: none; stroke: #cccccc; stroke-opacity: 0.35; stroke-width: 0.8; stroke-linecap: round"/>
     </g>
     <g id="text_6">
      <!-- $\mathdefault{2020}$ -->
      <g transform="translate(806.931777 603.580539) scale(0.2 -0.2)">
       <use xlink:href="#CMR17-32" transform="scale(0.996264)"/>
       <use xlink:href="#CMR17-30" transform="translate(45.690477 0) scale(0.996264)"/>
       <use xlink:href="#CMR17-32" transform="translate(91.380954 0) scale(0.996264)"/>
       <use xlink:href="#CMR17-30" transform="translate(137.071431 0) scale(0.996264)"/>
      </g>
     </g>
    </g>
    <g id="xtick_7">
     <g id="line2d_7">
      <path d="M 968.624221 586.243542 
L 968.624221 25.604645 
" clip-path="url(#pa37f882700)" style="fill: none; stroke: #cccccc; stroke-opacity: 0.35; stroke-width: 0.8; stroke-linecap: round"/>
     </g>
     <g id="text_7">
      <!-- $\mathdefault{2021}$ -->
      <g transform="translate(950.34803 603.580539) scale(0.2 -0.2)">
       <use xlink:href="#CMR17-32" transform="scale(0.996264)"/>
       <use xlink:href="#CMR17-30" transform="translate(45.690477 0) scale(0.996264)"/>
       <use xlink:href="#CMR17-32" transform="translate(91.380954 0) scale(0.996264)"/>
       <use xlink:href="#CMR17-31" transform="translate(137.071431 0) scale(0.996264)"/>
      </g>
     </g>
    </g>
    <g id="xtick_8">
     <g id="line2d_8">
      <path d="M 1111.648626 586.243542 
L 1111.648626 25.604645 
" clip-path="url(#pa37f882700)" style="fill: none; stroke: #cccccc; stroke-opacity: 0.35; stroke-width: 0.8; stroke-linecap: round"/>
     </g>
     <g id="text_8">
      <!-- $\mathdefault{2022}$ -->
      <g transform="translate(1093.372435 603.580539) scale(0.2 -0.2)">
       <use xlink:href="#CMR17-32" transform="scale(0.996264)"/>
       <use xlink:href="#CMR17-30" transform="translate(45.690477 0) scale(0.996264)"/>
       <use xlink:href="#CMR17-32" transform="translate(91.380954 0) scale(0.996264)"/>
       <use xlink:href="#CMR17-32" transform="translate(137.071431 0) scale(0.996264)"/>
      </g>
     </g>
    </g>
    <g id="xtick_9">
     <g id="line2d_9">
      <path d="M 1254.673032 586.243542 
L 1254.673032 25.604645 
" clip-path="url(#pa37f882700)" style="fill: none; stroke: #cccccc; stroke-opacity: 0.35; stroke-width: 0.8; stroke-linecap: round"/>
     </g>
     <g id="text_9">
      <!-- $\mathdefault{2023}$ -->
      <g transform="translate(1236.396841 603.580539) scale(0.2 -0.2)">
       <defs>
        <path id="CMR17-33" d="M 1414 2157 
C 1984 2157 2234 1662 2234 1090 
C 2234 320 1824 25 1453 25 
C 1114 25 563 194 390 693 
C 422 680 454 680 486 680 
C 640 680 755 782 755 948 
C 755 1133 614 1216 486 1216 
C 378 1216 211 1165 211 926 
C 211 335 787 -128 1466 -128 
C 2176 -128 2720 430 2720 1085 
C 2720 1707 2208 2157 1600 2227 
C 2086 2328 2554 2756 2554 3329 
C 2554 3820 2048 4179 1472 4179 
C 890 4179 378 3829 378 3329 
C 378 3110 544 3072 627 3072 
C 762 3072 877 3155 877 3321 
C 877 3486 762 3569 627 3569 
C 602 3569 570 3569 544 3557 
C 730 3959 1235 4032 1459 4032 
C 1683 4032 2106 3925 2106 3320 
C 2106 3143 2080 2828 1862 2550 
C 1670 2304 1453 2304 1242 2284 
C 1210 2284 1062 2269 1037 2269 
C 992 2263 966 2257 966 2208 
C 966 2163 973 2157 1101 2157 
L 1414 2157 
z
" transform="scale(0.015625)"/>
       </defs>
       <use xlink:href="#CMR17-32" transform="scale(0.996264)"/>
       <use xlink:href="#CMR17-30" transform="translate(45.690477 0) scale(0.996264)"/>
       <use xlink:href="#CMR17-32" transform="translate(91.380954 0) scale(0.996264)"/>
       <use xlink:href="#CMR17-33" transform="translate(137.071431 0) scale(0.996264)"/>
      </g>
     </g>
    </g>
    <g id="xtick_10">
     <g id="line2d_10">
      <path d="M 1397.697437 586.243542 
L 1397.697437 25.604645 
" clip-path="url(#pa37f882700)" style="fill: none; stroke: #cccccc; stroke-opacity: 0.35; stroke-width: 0.8; stroke-linecap: round"/>
     </g>
     <g id="text_10">
      <!-- $\mathdefault{2024}$ -->
      <g transform="translate(1379.421246 603.580539) scale(0.2 -0.2)">
       <defs>
        <path id="CMR17-34" d="M 2150 4122 
C 2150 4256 2144 4256 2029 4256 
L 128 1254 
L 128 1088 
L 1779 1088 
L 1779 457 
C 1779 224 1766 160 1318 160 
L 1197 160 
L 1197 0 
C 1402 0 1747 0 1965 0 
C 2182 0 2528 0 2733 0 
L 2733 160 
L 2611 160 
C 2163 160 2150 224 2150 457 
L 2150 1088 
L 2803 1088 
L 2803 1254 
L 2150 1254 
L 2150 4122 
z
M 1798 3703 
L 1798 1254 
L 256 1254 
L 1798 3703 
z
" transform="scale(0.015625)"/>
       </defs>
       <use xlink:href="#CMR17-32" transform="scale(0.996264)"/>
       <use xlink:href="#CMR17-30" transform="translate(45.690477 0) scale(0.996264)"/>
       <use xlink:href="#CMR17-32" transform="translate(91.380954 0) scale(0.996264)"/>
       <use xlink:href="#CMR17-34" transform="translate(137.071431 0) scale(0.996264)"/>
      </g>
     </g>
    </g>
    <g id="text_11">
     <!-- Date -->
     <g style="fill: #696969" transform="translate(722.559374 625.293169) scale(0.2 -0.2)">
      <defs>
       <path id="CMR17-44" d="M 333 4352 
L 333 4186 
C 774 4186 845 4186 845 3900 
L 845 452 
C 845 166 774 166 333 166 
L 333 0 
L 2368 0 
C 3398 0 4224 943 4224 2141 
C 4224 3346 3411 4352 2368 4352 
L 333 4352 
z
M 1523 166 
C 1267 166 1254 197 1254 414 
L 1254 3938 
C 1254 4155 1267 4186 1523 4186 
L 2240 4186 
C 2771 4186 3750 3874 3750 2141 
C 3750 1242 3488 879 3366 707 
C 3213 510 2848 166 2240 166 
L 1523 166 
z
" transform="scale(0.015625)"/>
       <path id="CMR17-61" d="M 2304 1653 
C 2304 2072 2304 2294 2035 2543 
C 1798 2752 1523 2816 1306 2816 
C 800 2816 435 2407 435 1971 
C 435 1728 627 1728 666 1728 
C 749 1728 896 1778 896 1954 
C 896 2112 774 2181 666 2181 
C 640 2181 608 2174 589 2168 
C 723 2592 1069 2714 1293 2714 
C 1613 2714 1965 2429 1965 1885 
L 1965 1600 
C 1587 1600 1133 1549 774 1357 
C 371 1133 256 813 256 570 
C 256 77 832 -64 1171 -64 
C 1523 -64 1850 139 1990 511 
C 2003 233 2182 -18 2464 -18 
C 2598 -18 2938 70 2938 567 
L 2938 920 
L 2822 920 
L 2822 562 
C 2822 178 2650 128 2566 128 
C 2304 128 2304 458 2304 738 
L 2304 1653 
z
M 1965 870 
C 1965 317 1568 38 1216 38 
C 896 38 646 275 646 570 
C 646 761 730 1100 1101 1305 
C 1408 1478 1760 1504 1965 1504 
L 1965 870 
z
" transform="scale(0.015625)"/>
       <path id="CMR17-74" d="M 966 2560 
L 1862 2560 
L 1862 2725 
L 966 2725 
L 966 3904 
L 851 3904 
C 838 3245 614 2668 70 2668 
L 70 2560 
L 627 2560 
L 627 771 
C 627 650 627 -64 1370 -64 
C 1747 -64 1965 306 1965 777 
L 1965 1140 
L 1850 1140 
L 1850 783 
C 1850 344 1677 51 1408 51 
C 1222 51 966 178 966 758 
L 966 2560 
z
" transform="scale(0.015625)"/>
       <path id="CMR17-65" d="M 2438 1472 
C 2464 1498 2464 1511 2464 1576 
C 2464 2238 2118 2816 1389 2816 
C 710 2816 173 2169 173 1383 
C 173 551 781 -64 1459 -64 
C 2176 -64 2458 607 2458 740 
C 2458 784 2419 784 2406 784 
C 2362 784 2355 771 2330 696 
C 2189 265 1837 51 1504 51 
C 1229 51 954 203 781 480 
C 582 803 582 1176 582 1472 
L 2438 1472 
z
M 589 1568 
C 634 2505 1126 2714 1382 2714 
C 1818 2714 2112 2297 2118 1568 
L 589 1568 
z
" transform="scale(0.015625)"/>
      </defs>
      <use xlink:href="#CMR17-44" transform="scale(0.996264)"/>
      <use xlink:href="#CMR17-61" transform="translate(70.393556 0) scale(0.996264)"/>
      <use xlink:href="#CMR17-74" transform="translate(116.084033 0) scale(0.996264)"/>
      <use xlink:href="#CMR17-65" transform="translate(151.364801 0) scale(0.996264)"/>
     </g>
    </g>
   </g>
   <g id="matplotlib.axis_2">
    <g id="ytick_1">
     <g id="line2d_11">
      <path d="M 46.489061 518.630779 
L 1436.99976 518.630779 
" clip-path="url(#pa37f882700)" style="fill: none; stroke: #cccccc; stroke-opacity: 0.35; stroke-width: 0.8; stroke-linecap: round"/>
     </g>
     <g id="text_12">
      <!-- $\mathdefault{0}$ -->
      <g transform="translate(33.850966 525.549278) scale(0.2 -0.2)">
       <use xlink:href="#CMR17-30" transform="scale(0.996264)"/>
      </g>
     </g>
    </g>
    <g id="ytick_2">
     <g id="line2d_12">
      <path d="M 46.489061 441.592489 
L 1436.99976 441.592489 
" clip-path="url(#pa37f882700)" style="fill: none; stroke: #cccccc; stroke-opacity: 0.35; stroke-width: 0.8; stroke-linecap: round"/>
     </g>
     <g id="text_13">
      <!-- $\mathdefault{10}$ -->
      <g transform="translate(24.71287 448.510988) scale(0.2 -0.2)">
       <use xlink:href="#CMR17-31" transform="scale(0.996264)"/>
       <use xlink:href="#CMR17-30" transform="translate(45.690477 0) scale(0.996264)"/>
      </g>
     </g>
    </g>
    <g id="ytick_3">
     <g id="line2d_13">
      <path d="M 46.489061 364.5542 
L 1436.99976 364.5542 
" clip-path="url(#pa37f882700)" style="fill: none; stroke: #cccccc; stroke-opacity: 0.35; stroke-width: 0.8; stroke-linecap: round"/>
     </g>
     <g id="text_14">
      <!-- $\mathdefault{20}$ -->
      <g transform="translate(24.71287 371.472698) scale(0.2 -0.2)">
       <use xlink:href="#CMR17-32" transform="scale(0.996264)"/>
       <use xlink:href="#CMR17-30" transform="translate(45.690477 0) scale(0.996264)"/>
      </g>
     </g>
    </g>
    <g id="ytick_4">
     <g id="line2d_14">
      <path d="M 46.489061 287.51591 
L 1436.99976 287.51591 
" clip-path="url(#pa37f882700)" style="fill: none; stroke: #cccccc; stroke-opacity: 0.35; stroke-width: 0.8; stroke-linecap: round"/>
     </g>
     <g id="text_15">
      <!-- $\mathdefault{30}$ -->
      <g transform="translate(24.71287 294.434408) scale(0.2 -0.2)">
       <use xlink:href="#CMR17-33" transform="scale(0.996264)"/>
       <use xlink:href="#CMR17-30" transform="translate(45.690477 0) scale(0.996264)"/>
      </g>
     </g>
    </g>
    <g id="ytick_5">
     <g id="line2d_15">
      <path d="M 46.489061 210.47762 
L 1436.99976 210.47762 
" clip-path="url(#pa37f882700)" style="fill: none; stroke: #cccccc; stroke-opacity: 0.35; stroke-width: 0.8; stroke-linecap: round"/>
     </g>
     <g id="text_16">
      <!-- $\mathdefault{40}$ -->
      <g transform="translate(24.71287 217.396118) scale(0.2 -0.2)">
       <use xlink:href="#CMR17-34" transform="scale(0.996264)"/>
       <use xlink:href="#CMR17-30" transform="translate(45.690477 0) scale(0.996264)"/>
      </g>
     </g>
    </g>
    <g id="ytick_6">
     <g id="line2d_16">
      <path d="M 46.489061 133.43933 
L 1436.99976 133.43933 
" clip-path="url(#pa37f882700)" style="fill: none; stroke: #cccccc; stroke-opacity: 0.35; stroke-width: 0.8; stroke-linecap: round"/>
     </g>
     <g id="text_17">
      <!-- $\mathdefault{50}$ -->
      <g transform="translate(24.71287 140.357828) scale(0.2 -0.2)">
       <use xlink:href="#CMR17-35" transform="scale(0.996264)"/>
       <use xlink:href="#CMR17-30" transform="translate(45.690477 0) scale(0.996264)"/>
      </g>
     </g>
    </g>
    <g id="ytick_7">
     <g id="line2d_17">
      <path d="M 46.489061 56.40104 
L 1436.99976 56.40104 
" clip-path="url(#pa37f882700)" style="fill: none; stroke: #cccccc; stroke-opacity: 0.35; stroke-width: 0.8; stroke-linecap: round"/>
     </g>
     <g id="text_18">
      <!-- $\mathdefault{60}$ -->
      <g transform="translate(24.71287 63.319538) scale(0.2 -0.2)">
       <use xlink:href="#CMR17-36" transform="scale(0.996264)"/>
       <use xlink:href="#CMR17-30" transform="translate(45.690477 0) scale(0.996264)"/>
      </g>
     </g>
    </g>
    <g id="text_19">
     <!-- Predicted -->
     <g style="fill: #696969" transform="translate(16.837237 344.050726) rotate(-90) scale(0.2 -0.2)">
      <defs>
       <path id="CMR17-50" d="M 1267 2042 
L 2291 2042 
C 3117 2042 3718 2578 3718 3184 
C 3718 3791 3130 4352 2291 4352 
L 333 4352 
L 333 4186 
C 774 4186 845 4186 845 3899 
L 845 446 
C 845 160 774 160 333 160 
L 333 0 
C 518 0 858 0 1056 0 
C 1254 0 1594 0 1779 0 
L 1779 160 
C 1338 160 1267 160 1267 446 
L 1267 2042 
z
M 1254 2176 
L 1254 3938 
C 1254 4155 1267 4186 1523 4186 
L 2170 4186 
C 2995 4186 3232 3714 3232 3184 
C 3232 2604 2950 2176 2170 2176 
L 1254 2176 
z
" transform="scale(0.015625)"/>
       <path id="CMR17-72" d="M 960 1497 
C 960 2112 1222 2688 1702 2688 
C 1747 2688 1792 2682 1837 2662 
C 1837 2662 1696 2617 1696 2452 
C 1696 2298 1818 2234 1914 2234 
C 1990 2234 2131 2279 2131 2458 
C 2131 2663 1926 2790 1709 2790 
C 1222 2790 1011 2317 947 2093 
L 941 2093 
L 941 2790 
L 198 2720 
L 198 2554 
C 576 2554 634 2515 634 2208 
L 634 428 
C 634 184 608 153 198 153 
L 198 -13 
C 352 0 646 0 813 0 
C 998 0 1325 0 1498 -13 
L 1498 153 
C 1037 153 960 153 960 440 
L 960 1497 
z
" transform="scale(0.015625)"/>
       <path id="CMR17-64" d="M 1869 4326 
L 1869 4160 
C 2246 4160 2304 4122 2304 3820 
L 2304 2345 
C 2278 2377 2016 2790 1498 2790 
C 845 2790 211 2208 211 1364 
C 211 525 806 -64 1434 -64 
C 1978 -64 2259 337 2291 380 
L 2291 -63 
L 3066 -63 
L 3066 128 
C 2688 128 2630 166 2630 473 
L 2630 4396 
L 1869 4326 
z
M 2291 755 
C 2291 563 2176 390 2029 262 
C 1811 70 1594 38 1472 38 
C 1286 38 621 134 621 1356 
C 621 2612 1363 2688 1530 2688 
C 1824 2688 2061 2522 2208 2291 
C 2291 2157 2291 2138 2291 2023 
L 2291 755 
z
" transform="scale(0.015625)"/>
       <path id="CMR17-69" d="M 992 3909 
C 992 4049 877 4170 730 4170 
C 589 4170 467 4056 467 3909 
C 467 3769 582 3648 730 3648 
C 870 3648 992 3763 992 3909 
z
M 243 2706 
L 243 2541 
C 602 2541 653 2502 653 2197 
L 653 427 
C 653 184 627 153 218 153 
L 218 -13 
C 371 0 646 0 806 0 
C 960 0 1222 0 1370 -13 
L 1370 153 
C 992 153 979 191 979 420 
L 979 2776 
L 243 2706 
z
" transform="scale(0.015625)"/>
       <path id="CMR17-63" d="M 2234 2240 
C 2112 2240 1933 2240 1933 2017 
C 1933 1838 2080 1787 2163 1787 
C 2208 1787 2394 1807 2394 2024 
C 2394 2467 1958 2803 1466 2803 
C 787 2803 211 2178 211 1363 
C 211 516 813 -64 1466 -64 
C 2259 -64 2458 677 2458 748 
C 2458 774 2451 793 2406 793 
C 2362 793 2355 787 2330 703 
C 2163 180 1798 51 1523 51 
C 1114 51 621 427 621 1369 
C 621 2338 1094 2688 1472 2688 
C 1722 2688 2093 2573 2234 2240 
z
" transform="scale(0.015625)"/>
      </defs>
      <use xlink:href="#CMR17-50" transform="scale(0.996264)"/>
      <use xlink:href="#CMR17-72" transform="translate(62.586301 0) scale(0.996264)"/>
      <use xlink:href="#CMR17-65" transform="translate(97.867068 0) scale(0.996264)"/>
      <use xlink:href="#CMR17-64" transform="translate(138.352729 0) scale(0.996264)"/>
      <use xlink:href="#CMR17-69" transform="translate(189.248099 0) scale(0.996264)"/>
      <use xlink:href="#CMR17-63" transform="translate(214.119157 0) scale(0.996264)"/>
      <use xlink:href="#CMR17-74" transform="translate(254.604818 0) scale(0.996264)"/>
      <use xlink:href="#CMR17-65" transform="translate(289.885585 0) scale(0.996264)"/>
      <use xlink:href="#CMR17-64" transform="translate(330.371246 0) scale(0.996264)"/>
     </g>
    </g>
   </g>
   <g id="line2d_18">
    <path d="M 109.694093 330.765633 
L 121.841371 280.592564 
L 121.841371 280.592564 
L 132.813106 277.150891 
L 132.813106 277.150891 
L 144.960385 257.681893 
L 144.960385 257.681893 
L 156.715815 257.236643 
L 156.715815 257.236643 
L 168.863094 251.055609 
L 168.863094 251.055609 
L 180.618524 250.897357 
L 180.618524 250.897357 
L 192.765802 240.503307 
L 192.765802 240.503307 
L 204.913081 238.919964 
L 204.913081 238.919964 
L 216.668511 235.576554 
L 216.668511 235.576554 
L 228.81579 240.214587 
L 228.81579 240.214587 
L 240.57122 211.928236 
L 240.57122 211.928236 
L 252.718498 199.203033 
L 252.718498 199.203033 
L 264.865777 201.30173 
L 264.865777 201.30173 
L 276.22936 196.162936 
L 276.22936 196.162936 
L 288.376638 168.242276 
L 288.376638 168.242276 
L 300.132068 109.279846 
L 300.132068 109.279846 
L 312.279347 104.078344 
L 312.279347 104.078344 
L 324.034777 93.3417 
L 324.034777 93.3417 
L 336.182056 100.983785 
L 336.182056 100.983785 
L 348.329334 98.51144 
L 348.329334 98.51144 
L 360.084764 86.247338 
L 360.084764 86.247338 
L 372.232043 51.757327 
L 372.232043 51.757327 
L 383.987473 51.088231 
L 383.987473 51.088231 
L 396.134751 91.350683 
L 396.134751 91.350683 
L 408.28203 90.599734 
L 408.28203 90.599734 
L 419.253765 85.701897 
L 419.253765 85.701897 
L 431.401043 87.495391 
L 431.401043 87.495391 
L 443.156474 90.841757 
L 443.156474 90.841757 
L 455.303752 70.750133 
L 455.303752 70.750133 
L 467.059183 74.969025 
L 467.059183 74.969025 
L 479.206461 64.310938 
L 479.206461 64.310938 
L 491.353739 67.478538 
L 491.353739 67.478538 
L 503.10917 120.017115 
L 503.10917 120.017115 
L 515.256448 105.011132 
L 515.256448 105.011132 
L 527.011879 105.165176 
L 527.011879 105.165176 
L 539.159157 163.668325 
L 539.159157 163.668325 
L 551.306435 145.900281 
L 551.306435 145.900281 
L 562.27817 149.447103 
L 562.27817 149.447103 
L 574.425449 262.422499 
L 574.425449 262.422499 
L 586.180879 215.758605 
L 586.180879 215.758605 
L 598.328158 229.680164 
L 598.328158 229.680164 
L 610.083588 227.605223 
L 610.083588 227.605223 
L 622.230866 285.435891 
L 622.230866 285.435891 
L 634.378145 278.282214 
L 634.378145 278.282214 
L 646.133575 246.121477 
L 646.133575 246.121477 
L 658.280853 230.525774 
L 658.280853 230.525774 
L 670.036284 238.041563 
L 670.036284 238.041563 
L 682.183562 254.864389 
L 682.183562 254.864389 
L 694.330841 221.248619 
L 694.330841 221.248619 
L 705.302576 235.160026 
L 705.302576 235.160026 
L 717.449854 254.230687 
L 717.449854 254.230687 
L 729.205285 229.68436 
L 729.205285 229.68436 
L 741.352563 251.054812 
L 741.352563 251.054812 
L 753.107994 323.658602 
L 753.107994 323.658602 
L 765.255272 361.998516 
L 765.255272 361.998516 
L 777.40255 324.745468 
L 777.40255 324.745468 
L 789.157981 343.408 
L 789.157981 343.408 
L 801.305259 373.9131 
L 801.305259 373.9131 
L 813.060689 398.321206 
L 813.060689 398.321206 
L 825.207968 396.184753 
L 825.207968 396.184753 
L 837.355246 397.011197 
L 837.355246 397.011197 
L 848.718829 384.447267 
L 848.718829 384.447267 
L 860.866107 397.107111 
L 860.866107 397.107111 
L 872.621538 402.418591 
L 872.621538 402.418591 
L 884.768816 421.775362 
L 884.768816 421.775362 
L 896.524247 389.623153 
L 896.524247 389.623153 
L 908.671525 428.438387 
L 908.671525 428.438387 
L 920.818803 405.360232 
L 920.818803 405.360232 
L 932.574234 399.927576 
L 932.574234 399.927576 
L 944.721512 377.766812 
L 944.721512 377.766812 
L 956.476943 393.735389 
L 956.476943 393.735389 
L 968.624221 365.02628 
L 968.624221 365.02628 
L 980.771499 372.96182 
L 980.771499 372.96182 
L 991.743234 473.310812 
L 991.743234 473.310812 
L 1003.890513 441.048836 
L 1003.890513 441.048836 
L 1015.645943 439.431714 
L 1015.645943 439.431714 
L 1027.793221 442.134103 
L 1027.793221 442.134103 
L 1039.548652 447.004991 
L 1039.548652 447.004991 
L 1051.69593 433.895952 
L 1051.69593 433.895952 
L 1063.843209 436.429806 
L 1063.843209 436.429806 
L 1075.598639 443.490972 
L 1075.598639 443.490972 
L 1087.745917 451.344896 
L 1087.745917 451.344896 
L 1099.501348 437.900697 
L 1099.501348 437.900697 
L 1111.648626 447.75547 
L 1111.648626 447.75547 
L 1123.795905 447.100369 
L 1123.795905 447.100369 
L 1134.76764 442.19438 
L 1134.76764 442.19438 
L 1146.914918 441.886994 
L 1146.914918 441.886994 
L 1158.670349 451.253387 
L 1158.670349 451.253387 
L 1170.817627 474.045114 
L 1170.817627 474.045114 
L 1182.573057 508.536965 
L 1182.573057 508.536965 
L 1194.720336 465.609899 
L 1194.720336 465.609899 
L 1206.867614 464.454525 
L 1206.867614 464.454525 
L 1218.623045 494.236774 
L 1218.623045 494.236774 
L 1230.770323 471.08937 
L 1230.770323 471.08937 
L 1242.525753 473.085518 
L 1242.525753 473.085518 
L 1254.673032 530.263726 
L 1254.673032 530.263726 
L 1266.82031 514.55999 
L 1266.82031 514.55999 
L 1277.792045 521.836488 
L 1277.792045 521.836488 
L 1289.939323 510.262869 
L 1289.939323 510.262869 
L 1301.694754 515.611678 
L 1301.694754 515.611678 
L 1313.842032 547.971513 
L 1313.842032 547.971513 
L 1325.597463 508.605548 
L 1325.597463 508.605548 
L 1337.744741 505.674023 
L 1337.744741 505.674023 
L 1349.892019 560.759956 
L 1349.892019 560.759956 
L 1361.64745 521.532283 
L 1361.64745 521.532283 
L 1373.794728 533.208698 
L 1373.794728 533.208698 
" clip-path="url(#pa37f882700)" style="fill: none; stroke-dasharray: 5.55,2.4; stroke-dashoffset: 0; stroke: #006e64; stroke-width: 1.5"/>
   </g>
   <g id="line2d_19">
    <path d="M 109.694093 453.230137 
L 121.841371 435.985611 
L 121.841371 435.985611 
L 132.813106 416.360043 
L 132.813106 416.360043 
L 144.960385 410.983079 
L 144.960385 410.983079 
L 156.715815 403.592443 
L 156.715815 403.592443 
L 168.863094 395.818568 
L 168.863094 395.818568 
L 180.618524 395.535556 
L 180.618524 395.535556 
L 192.765802 374.424995 
L 192.765802 374.424995 
L 204.913081 359.220348 
L 204.913081 359.220348 
L 216.668511 333.462844 
L 216.668511 333.462844 
L 228.81579 356.684961 
L 228.81579 356.684961 
L 240.57122 302.478901 
L 240.57122 302.478901 
L 252.718498 287.594257 
L 252.718498 287.594257 
L 264.865777 267.641633 
L 264.865777 267.641633 
L 276.22936 256.686488 
L 276.22936 256.686488 
L 288.376638 265.245471 
L 288.376638 265.245471 
L 300.132068 218.120675 
L 300.132068 218.120675 
L 312.279347 258.32897 
L 312.279347 258.32897 
L 324.034777 244.20453 
L 324.034777 244.20453 
L 336.182056 227.658977 
L 336.182056 227.658977 
L 348.329334 235.838418 
L 348.329334 235.838418 
L 360.084764 216.514692 
L 360.084764 216.514692 
L 372.232043 193.341667 
L 372.232043 193.341667 
L 383.987473 203.858258 
L 383.987473 203.858258 
L 396.134751 208.345713 
L 396.134751 208.345713 
L 408.28203 213.321181 
L 408.28203 213.321181 
L 419.253765 237.251499 
L 419.253765 237.251499 
L 431.401043 220.245852 
L 431.401043 220.245852 
L 443.156474 193.620851 
L 443.156474 193.620851 
L 455.303752 152.891216 
L 455.303752 152.891216 
L 467.059183 230.912527 
L 467.059183 230.912527 
L 479.206461 186.452437 
L 479.206461 186.452437 
L 491.353739 220.540082 
L 491.353739 220.540082 
L 503.10917 212.258725 
L 503.10917 212.258725 
L 515.256448 183.790052 
L 515.256448 183.790052 
L 527.011879 190.756689 
L 527.011879 190.756689 
L 539.159157 248.186661 
L 539.159157 248.186661 
L 551.306435 244.697686 
L 551.306435 244.697686 
L 562.27817 246.697994 
L 562.27817 246.697994 
L 574.425449 294.754442 
L 574.425449 294.754442 
L 586.180879 277.990773 
L 586.180879 277.990773 
L 598.328158 268.163207 
L 598.328158 268.163207 
L 610.083588 282.905482 
L 610.083588 282.905482 
L 622.230866 283.235757 
L 622.230866 283.235757 
L 634.378145 270.379957 
L 634.378145 270.379957 
L 646.133575 309.901328 
L 646.133575 309.901328 
L 658.280853 236.095678 
L 658.280853 236.095678 
L 670.036284 269.685259 
L 670.036284 269.685259 
L 682.183562 303.936873 
L 682.183562 303.936873 
L 694.330841 284.97851 
L 694.330841 284.97851 
L 705.302576 290.850144 
L 705.302576 290.850144 
L 717.449854 270.280391 
L 717.449854 270.280391 
L 729.205285 239.901777 
L 729.205285 239.901777 
L 741.352563 257.117547 
L 741.352563 257.117547 
L 753.107994 289.830755 
L 753.107994 289.830755 
L 765.255272 299.944926 
L 765.255272 299.944926 
L 777.40255 290.918573 
L 777.40255 290.918573 
L 789.157981 299.523211 
L 789.157981 299.523211 
L 801.305259 311.395387 
L 801.305259 311.395387 
L 813.060689 313.389304 
L 813.060689 313.389304 
L 825.207968 343.487059 
L 825.207968 343.487059 
L 837.355246 338.484833 
L 837.355246 338.484833 
L 848.718829 321.633295 
L 848.718829 321.633295 
L 860.866107 288.503177 
L 860.866107 288.503177 
L 872.621538 284.573371 
L 872.621538 284.573371 
L 884.768816 325.786008 
L 884.768816 325.786008 
L 896.524247 296.666087 
L 896.524247 296.666087 
L 908.671525 306.627338 
L 908.671525 306.627338 
L 920.818803 298.830365 
L 920.818803 298.830365 
L 932.574234 287.416682 
L 932.574234 287.416682 
L 944.721512 303.816368 
L 944.721512 303.816368 
L 956.476943 291.711294 
L 956.476943 291.711294 
L 968.624221 331.069504 
L 968.624221 331.069504 
L 980.771499 318.767076 
L 980.771499 318.767076 
L 991.743234 359.43479 
L 991.743234 359.43479 
L 1003.890513 329.204174 
L 1003.890513 329.204174 
L 1015.645943 320.510623 
L 1015.645943 320.510623 
L 1039.548652 327.698388 
L 1039.548652 327.698388 
L 1051.69593 339.575296 
L 1051.69593 339.575296 
L 1063.843209 319.544867 
L 1063.843209 319.544867 
L 1075.598639 329.182897 
L 1075.598639 329.182897 
L 1087.745917 319.222101 
L 1087.745917 319.222101 
L 1099.501348 302.325732 
L 1099.501348 302.325732 
L 1123.795905 366.991651 
L 1123.795905 366.991651 
L 1134.76764 285.769306 
L 1134.76764 285.769306 
L 1146.914918 282.591944 
L 1146.914918 282.591944 
L 1158.670349 272.548466 
L 1158.670349 272.548466 
L 1170.817627 281.895116 
L 1170.817627 281.895116 
L 1182.573057 288.531713 
L 1182.573057 288.531713 
L 1194.720336 302.595218 
L 1194.720336 302.595218 
L 1206.867614 285.878629 
L 1206.867614 285.878629 
L 1218.623045 296.085899 
L 1218.623045 296.085899 
L 1230.770323 332.687345 
L 1230.770323 332.687345 
L 1242.525753 299.763192 
L 1242.525753 299.763192 
L 1254.673032 343.28994 
L 1254.673032 343.28994 
L 1266.82031 358.012128 
L 1266.82031 358.012128 
L 1277.792045 377.366652 
L 1277.792045 377.366652 
L 1289.939323 361.799742 
L 1289.939323 361.799742 
L 1301.694754 364.902445 
L 1301.694754 364.902445 
L 1313.842032 392.859785 
L 1313.842032 392.859785 
L 1325.597463 433.042866 
L 1325.597463 433.042866 
L 1337.744741 453.752394 
L 1337.744741 453.752394 
L 1349.892019 464.210144 
L 1349.892019 464.210144 
L 1361.64745 473.777577 
L 1361.64745 473.777577 
L 1373.794728 495.748789 
L 1373.794728 495.748789 
" clip-path="url(#pa37f882700)" style="fill: none; stroke: #734848; stroke-width: 1.5; stroke-linecap: round"/>
   </g>
   <g id="line2d_20">
    <path d="M 109.694093 422.153277 
L 121.841371 404.873412 
L 121.841371 404.873412 
L 132.813106 376.157581 
L 132.813106 376.157581 
L 144.960385 376.840009 
L 144.960385 376.840009 
L 156.715815 363.144233 
L 156.715815 363.144233 
L 168.863094 351.214074 
L 168.863094 351.214074 
L 180.618524 351.563818 
L 180.618524 351.563818 
L 192.765802 350.791464 
L 192.765802 350.791464 
L 204.913081 338.235801 
L 204.913081 338.235801 
L 216.668511 334.205679 
L 216.668511 334.205679 
L 228.81579 346.694617 
L 228.81579 346.694617 
L 240.57122 306.880294 
L 240.57122 306.880294 
L 252.718498 320.596773 
L 252.718498 320.596773 
L 264.865777 333.628988 
L 264.865777 333.628988 
L 276.22936 357.74708 
L 276.22936 357.74708 
L 288.376638 328.824263 
L 288.376638 328.824263 
L 300.132068 302.259757 
L 300.132068 302.259757 
L 312.279347 291.685771 
L 312.279347 291.685771 
L 324.034777 288.784889 
L 324.034777 288.784889 
L 336.182056 273.309977 
L 336.182056 273.309977 
L 348.329334 296.627207 
L 348.329334 296.627207 
L 360.084764 283.89682 
L 360.084764 283.89682 
L 372.232043 254.528161 
L 372.232043 254.528161 
L 383.987473 310.290921 
L 383.987473 310.290921 
L 396.134751 244.97828 
L 396.134751 244.97828 
L 408.28203 299.252285 
L 408.28203 299.252285 
L 419.253765 301.000138 
L 419.253765 301.000138 
L 431.401043 262.726616 
L 431.401043 262.726616 
L 443.156474 272.304871 
L 443.156474 272.304871 
L 455.303752 275.381638 
L 455.303752 275.381638 
L 467.059183 318.876148 
L 467.059183 318.876148 
L 479.206461 317.744513 
L 479.206461 317.744513 
L 491.353739 320.580331 
L 491.353739 320.580331 
L 503.10917 345.026214 
L 503.10917 345.026214 
L 515.256448 254.48023 
L 515.256448 254.48023 
L 527.011879 273.962371 
L 527.011879 273.962371 
L 539.159157 301.05211 
L 539.159157 301.05211 
L 551.306435 282.153331 
L 551.306435 282.153331 
L 562.27817 305.808345 
L 562.27817 305.808345 
L 574.425449 346.974697 
L 574.425449 346.974697 
L 586.180879 368.777899 
L 586.180879 368.777899 
L 598.328158 332.063766 
L 598.328158 332.063766 
L 610.083588 361.574029 
L 610.083588 361.574029 
L 622.230866 329.691085 
L 622.230866 329.691085 
L 634.378145 339.045552 
L 634.378145 339.045552 
L 646.133575 368.770787 
L 646.133575 368.770787 
L 658.280853 307.992474 
L 658.280853 307.992474 
L 670.036284 349.689069 
L 670.036284 349.689069 
L 682.183562 391.756333 
L 682.183562 391.756333 
L 694.330841 341.180794 
L 694.330841 341.180794 
L 705.302576 333.11551 
L 705.302576 333.11551 
L 717.449854 306.449366 
L 717.449854 306.449366 
L 729.205285 290.579909 
L 729.205285 290.579909 
L 741.352563 308.024992 
L 741.352563 308.024992 
L 753.107994 373.785664 
L 753.107994 373.785664 
L 765.255272 382.364617 
L 765.255272 382.364617 
L 777.40255 364.591742 
L 777.40255 364.591742 
L 789.157981 378.514554 
L 789.157981 378.514554 
L 801.305259 366.578518 
L 801.305259 366.578518 
L 813.060689 375.742802 
L 813.060689 375.742802 
L 825.207968 370.046848 
L 825.207968 370.046848 
L 837.355246 359.194619 
L 837.355246 359.194619 
L 848.718829 368.920312 
L 848.718829 368.920312 
L 860.866107 309.621218 
L 860.866107 309.621218 
L 872.621538 321.823052 
L 872.621538 321.823052 
L 884.768816 378.901561 
L 884.768816 378.901561 
L 896.524247 371.33152 
L 896.524247 371.33152 
L 908.671525 376.946011 
L 908.671525 376.946011 
L 920.818803 385.405958 
L 920.818803 385.405958 
L 932.574234 383.273287 
L 932.574234 383.273287 
L 944.721512 406.474458 
L 944.721512 406.474458 
L 956.476943 410.234837 
L 956.476943 410.234837 
L 968.624221 405.964756 
L 968.624221 405.964756 
L 980.771499 405.264482 
L 980.771499 405.264482 
L 991.743234 433.885332 
L 991.743234 433.885332 
L 1003.890513 416.357868 
L 1003.890513 416.357868 
L 1015.645943 429.937254 
L 1015.645943 429.937254 
L 1027.793221 424.163856 
L 1027.793221 424.163856 
L 1039.548652 430.842316 
L 1039.548652 430.842316 
L 1051.69593 440.863702 
L 1051.69593 440.863702 
L 1063.843209 435.483028 
L 1063.843209 435.483028 
L 1075.598639 452.230276 
L 1075.598639 452.230276 
L 1087.745917 449.243582 
L 1087.745917 449.243582 
L 1099.501348 406.239018 
L 1099.501348 406.239018 
L 1111.648626 447.875037 
L 1111.648626 447.875037 
L 1123.795905 450.307295 
L 1123.795905 450.307295 
L 1134.76764 425.025462 
L 1134.76764 425.025462 
L 1146.914918 433.563404 
L 1146.914918 433.563404 
L 1158.670349 422.874769 
L 1158.670349 422.874769 
L 1170.817627 427.836505 
L 1170.817627 427.836505 
L 1182.573057 425.939745 
L 1182.573057 425.939745 
L 1194.720336 442.471066 
L 1194.720336 442.471066 
L 1206.867614 432.509066 
L 1206.867614 432.509066 
L 1218.623045 442.340408 
L 1218.623045 442.340408 
L 1230.770323 455.610341 
L 1230.770323 455.610341 
L 1242.525753 440.245207 
L 1242.525753 440.245207 
L 1254.673032 468.502886 
L 1254.673032 468.502886 
L 1266.82031 462.11837 
L 1266.82031 462.11837 
L 1277.792045 466.900841 
L 1277.792045 466.900841 
L 1289.939323 462.257025 
L 1289.939323 462.257025 
L 1301.694754 462.386758 
L 1301.694754 462.386758 
L 1313.842032 452.439811 
L 1313.842032 452.439811 
L 1325.597463 485.128521 
L 1325.597463 485.128521 
L 1337.744741 493.483032 
L 1337.744741 493.483032 
L 1349.892019 496.401846 
L 1349.892019 496.401846 
L 1361.64745 498.617717 
L 1361.64745 498.617717 
L 1373.794728 509.643813 
L 1373.794728 509.643813 
" clip-path="url(#pa37f882700)" style="fill: none; stroke: #004e4a; stroke-width: 1.5; stroke-linecap: round"/>
   </g>
   <g id="line2d_21">
    <path d="M 109.694093 472.204405 
L 121.841371 456.853929 
L 121.841371 456.853929 
L 132.813106 443.678404 
L 132.813106 443.678404 
L 144.960385 439.149374 
L 144.960385 439.149374 
L 156.715815 435.503776 
L 156.715815 435.503776 
L 168.863094 428.54021 
L 168.863094 428.54021 
L 180.618524 428.13438 
L 180.618524 428.13438 
L 204.913081 393.94318 
L 204.913081 393.94318 
L 216.668511 371.916381 
L 216.668511 371.916381 
L 228.81579 381.84626 
L 228.81579 381.84626 
L 240.57122 342.723167 
L 240.57122 342.723167 
L 252.718498 328.939684 
L 252.718498 328.939684 
L 264.865777 317.834631 
L 264.865777 317.834631 
L 276.22936 300.183863 
L 276.22936 300.183863 
L 288.376638 309.801306 
L 288.376638 309.801306 
L 300.132068 255.649422 
L 300.132068 255.649422 
L 312.279347 293.932157 
L 312.279347 293.932157 
L 324.034777 288.27479 
L 324.034777 288.27479 
L 336.182056 285.358406 
L 336.182056 285.358406 
L 348.329334 278.964332 
L 348.329334 278.964332 
L 360.084764 255.384785 
L 360.084764 255.384785 
L 372.232043 249.41604 
L 372.232043 249.41604 
L 383.987473 266.731112 
L 383.987473 266.731112 
L 396.134751 282.272249 
L 396.134751 282.272249 
L 408.28203 274.351391 
L 408.28203 274.351391 
L 419.253765 278.831646 
L 419.253765 278.831646 
L 431.401043 286.400482 
L 431.401043 286.400482 
L 443.156474 263.162025 
L 443.156474 263.162025 
L 455.303752 234.478351 
L 455.303752 234.478351 
L 467.059183 282.425183 
L 467.059183 282.425183 
L 479.206461 245.751061 
L 479.206461 245.751061 
L 491.353739 273.154912 
L 491.353739 273.154912 
L 503.10917 257.660134 
L 503.10917 257.660134 
L 515.256448 266.492483 
L 515.256448 266.492483 
L 527.011879 273.190412 
L 527.011879 273.190412 
L 539.159157 306.391516 
L 539.159157 306.391516 
L 551.306435 308.909858 
L 551.306435 308.909858 
L 562.27817 301.326974 
L 562.27817 301.326974 
L 574.425449 337.945817 
L 574.425449 337.945817 
L 586.180879 329.015107 
L 586.180879 329.015107 
L 598.328158 320.242621 
L 598.328158 320.242621 
L 610.083588 335.643138 
L 610.083588 335.643138 
L 622.230866 346.252184 
L 622.230866 346.252184 
L 634.378145 336.367885 
L 634.378145 336.367885 
L 646.133575 335.909597 
L 646.133575 335.909597 
L 658.280853 313.634075 
L 658.280853 313.634075 
L 670.036284 336.719054 
L 670.036284 336.719054 
L 682.183562 337.794 
L 682.183562 337.794 
L 694.330841 328.369208 
L 694.330841 328.369208 
L 705.302576 344.805688 
L 705.302576 344.805688 
L 717.449854 332.096651 
L 717.449854 332.096651 
L 729.205285 322.712355 
L 729.205285 322.712355 
L 741.352563 335.90632 
L 741.352563 335.90632 
L 753.107994 351.701691 
L 753.107994 351.701691 
L 765.255272 359.534415 
L 765.255272 359.534415 
L 777.40255 354.200519 
L 777.40255 354.200519 
L 789.157981 343.789253 
L 789.157981 343.789253 
L 801.305259 350.263306 
L 801.305259 350.263306 
L 813.060689 359.258655 
L 813.060689 359.258655 
L 825.207968 370.689956 
L 825.207968 370.689956 
L 837.355246 373.917644 
L 837.355246 373.917644 
L 848.718829 366.73536 
L 848.718829 366.73536 
L 860.866107 380.79553 
L 860.866107 380.79553 
L 872.621538 381.501571 
L 872.621538 381.501571 
L 884.768816 389.521848 
L 884.768816 389.521848 
L 896.524247 375.692798 
L 896.524247 375.692798 
L 908.671525 371.862763 
L 908.671525 371.862763 
L 920.818803 365.791601 
L 920.818803 365.791601 
L 932.574234 361.942626 
L 932.574234 361.942626 
L 944.721512 362.443937 
L 944.721512 362.443937 
L 956.476943 362.325989 
L 956.476943 362.325989 
L 968.624221 389.597036 
L 968.624221 389.597036 
L 980.771499 388.219205 
L 980.771499 388.219205 
L 991.743234 406.318872 
L 991.743234 406.318872 
L 1003.890513 345.044375 
L 1003.890513 345.044375 
L 1015.645943 345.657022 
L 1015.645943 345.657022 
L 1027.793221 335.714447 
L 1027.793221 335.714447 
L 1039.548652 336.438827 
L 1039.548652 336.438827 
L 1051.69593 354.047644 
L 1051.69593 354.047644 
L 1063.843209 352.903769 
L 1063.843209 352.903769 
L 1075.598639 363.282106 
L 1075.598639 363.282106 
L 1087.745917 359.68369 
L 1087.745917 359.68369 
L 1099.501348 355.925934 
L 1099.501348 355.925934 
L 1111.648626 372.512439 
L 1111.648626 372.512439 
L 1123.795905 386.574092 
L 1123.795905 386.574092 
L 1134.76764 361.4979 
L 1134.76764 361.4979 
L 1146.914918 361.425033 
L 1146.914918 361.425033 
L 1158.670349 367.423122 
L 1158.670349 367.423122 
L 1170.817627 377.736248 
L 1170.817627 377.736248 
L 1182.573057 393.002786 
L 1182.573057 393.002786 
L 1194.720336 401.756126 
L 1194.720336 401.756126 
L 1206.867614 403.160457 
L 1206.867614 403.160457 
L 1218.623045 403.133707 
L 1218.623045 403.133707 
L 1230.770323 421.332763 
L 1230.770323 421.332763 
L 1242.525753 412.42463 
L 1242.525753 412.42463 
L 1254.673032 428.933132 
L 1254.673032 428.933132 
L 1266.82031 443.269363 
L 1266.82031 443.269363 
L 1277.792045 450.125862 
L 1277.792045 450.125862 
L 1289.939323 445.891796 
L 1289.939323 445.891796 
L 1301.694754 451.199162 
L 1301.694754 451.199162 
L 1313.842032 463.269317 
L 1313.842032 463.269317 
L 1325.597463 482.725416 
L 1325.597463 482.725416 
L 1337.744741 493.613673 
L 1337.744741 493.613673 
L 1349.892019 497.616228 
L 1349.892019 497.616228 
L 1361.64745 502.199644 
L 1361.64745 502.199644 
L 1373.794728 510.139904 
L 1373.794728 510.139904 
" clip-path="url(#pa37f882700)" style="fill: none; stroke: #c17150; stroke-width: 1.5; stroke-linecap: round"/>
   </g>
   <g id="line2d_22">
    <path d="M 109.694093 379.646938 
L 121.841371 351.789796 
L 121.841371 351.789796 
L 132.813106 306.277345 
L 132.813106 306.277345 
L 144.960385 289.075107 
L 144.960385 289.075107 
L 156.715815 284.954074 
L 156.715815 284.954074 
L 168.863094 281.563445 
L 168.863094 281.563445 
L 180.618524 275.554189 
L 180.618524 275.554189 
L 192.765802 271.164904 
L 192.765802 271.164904 
L 204.913081 267.879527 
L 204.913081 267.879527 
L 216.668511 240.884886 
L 216.668511 240.884886 
L 228.81579 288.198632 
L 228.81579 288.198632 
L 240.57122 257.356323 
L 240.57122 257.356323 
L 252.718498 302.562363 
L 252.718498 302.562363 
L 264.865777 287.707988 
L 264.865777 287.707988 
L 276.22936 275.650184 
L 276.22936 275.650184 
L 288.376638 268.477069 
L 288.376638 268.477069 
L 300.132068 214.541156 
L 300.132068 214.541156 
L 312.279347 232.939784 
L 312.279347 232.939784 
L 324.034777 199.030082 
L 324.034777 199.030082 
L 336.182056 205.70675 
L 336.182056 205.70675 
L 348.329334 210.748604 
L 348.329334 210.748604 
L 360.084764 210.622531 
L 360.084764 210.622531 
L 372.232043 172.101887 
L 372.232043 172.101887 
L 383.987473 179.189131 
L 383.987473 179.189131 
L 396.134751 160.009111 
L 396.134751 160.009111 
L 408.28203 192.303867 
L 408.28203 192.303867 
L 419.253765 208.783914 
L 419.253765 208.783914 
L 431.401043 171.27659 
L 431.401043 171.27659 
L 443.156474 176.201041 
L 443.156474 176.201041 
L 455.303752 150.357226 
L 455.303752 150.357226 
L 467.059183 212.134062 
L 467.059183 212.134062 
L 479.206461 167.693985 
L 479.206461 167.693985 
L 491.353739 174.587446 
L 491.353739 174.587446 
L 503.10917 194.45373 
L 503.10917 194.45373 
L 515.256448 75.934889 
L 515.256448 75.934889 
L 527.011879 125.252777 
L 527.011879 125.252777 
L 539.159157 168.127161 
L 539.159157 168.127161 
L 551.306435 155.556452 
L 551.306435 155.556452 
L 562.27817 192.85571 
L 562.27817 192.85571 
L 574.425449 236.477279 
L 574.425449 236.477279 
L 586.180879 253.818946 
L 586.180879 253.818946 
L 598.328158 223.643137 
L 598.328158 223.643137 
L 610.083588 202.380964 
L 610.083588 202.380964 
L 622.230866 209.890746 
L 622.230866 209.890746 
L 634.378145 213.11241 
L 634.378145 213.11241 
L 646.133575 256.186837 
L 646.133575 256.186837 
L 658.280853 175.648992 
L 658.280853 175.648992 
L 670.036284 218.312342 
L 670.036284 218.312342 
L 682.183562 284.089662 
L 682.183562 284.089662 
L 694.330841 244.254988 
L 694.330841 244.254988 
L 705.302576 238.332558 
L 705.302576 238.332558 
L 717.449854 199.727454 
L 717.449854 199.727454 
L 729.205285 160.492305 
L 729.205285 160.492305 
L 741.352563 156.417455 
L 741.352563 156.417455 
L 753.107994 240.722813 
L 753.107994 240.722813 
L 765.255272 256.983187 
L 765.255272 256.983187 
L 777.40255 227.863104 
L 777.40255 227.863104 
L 789.157981 273.142231 
L 789.157981 273.142231 
L 801.305259 269.284557 
L 801.305259 269.284557 
L 813.060689 302.760319 
L 813.060689 302.760319 
L 825.207968 322.445558 
L 825.207968 322.445558 
L 837.355246 320.378437 
L 837.355246 320.378437 
L 848.718829 313.749187 
L 848.718829 313.749187 
L 860.866107 272.640185 
L 860.866107 272.640185 
L 872.621538 283.094798 
L 872.621538 283.094798 
L 884.768816 302.132331 
L 884.768816 302.132331 
L 896.524247 296.803387 
L 896.524247 296.803387 
L 908.671525 289.951319 
L 908.671525 289.951319 
L 920.818803 299.774653 
L 920.818803 299.774653 
L 932.574234 292.642299 
L 932.574234 292.642299 
L 944.721512 300.065239 
L 944.721512 300.065239 
L 956.476943 298.318915 
L 956.476943 298.318915 
L 968.624221 303.245746 
L 968.624221 303.245746 
L 980.771499 282.843885 
L 980.771499 282.843885 
L 991.743234 351.408959 
L 991.743234 351.408959 
L 1003.890513 291.727207 
L 1003.890513 291.727207 
L 1015.645943 300.798846 
L 1015.645943 300.798846 
L 1027.793221 303.157583 
L 1027.793221 303.157583 
L 1039.548652 313.88365 
L 1039.548652 313.88365 
L 1051.69593 325.320344 
L 1051.69593 325.320344 
L 1063.843209 308.382656 
L 1063.843209 308.382656 
L 1075.598639 312.476226 
L 1075.598639 312.476226 
L 1087.745917 309.054063 
L 1087.745917 309.054063 
L 1099.501348 303.272151 
L 1099.501348 303.272151 
L 1111.648626 349.431676 
L 1111.648626 349.431676 
L 1123.795905 358.204868 
L 1123.795905 358.204868 
L 1134.76764 286.057189 
L 1134.76764 286.057189 
L 1146.914918 284.978216 
L 1146.914918 284.978216 
L 1158.670349 274.072648 
L 1158.670349 274.072648 
L 1170.817627 277.200903 
L 1170.817627 277.200903 
L 1182.573057 303.815149 
L 1182.573057 303.815149 
L 1194.720336 333.707542 
L 1194.720336 333.707542 
L 1206.867614 304.64143 
L 1206.867614 304.64143 
L 1218.623045 304.245371 
L 1218.623045 304.245371 
L 1230.770323 324.421945 
L 1230.770323 324.421945 
L 1242.525753 292.237511 
L 1242.525753 292.237511 
L 1254.673032 337.241862 
L 1254.673032 337.241862 
L 1266.82031 350.080897 
L 1266.82031 350.080897 
L 1277.792045 351.886188 
L 1277.792045 351.886188 
L 1289.939323 339.051606 
L 1289.939323 339.051606 
L 1301.694754 367.778759 
L 1301.694754 367.778759 
L 1313.842032 396.923776 
L 1313.842032 396.923776 
L 1325.597463 435.713656 
L 1325.597463 435.713656 
L 1337.744741 447.35793 
L 1337.744741 447.35793 
L 1349.892019 456.764472 
L 1349.892019 456.764472 
L 1361.64745 474.771993 
L 1361.64745 474.771993 
L 1373.794728 492.624813 
L 1373.794728 492.624813 
" clip-path="url(#pa37f882700)" style="fill: none; stroke: #ffbb00; stroke-width: 1.5; stroke-linecap: round"/>
   </g>
   <g id="line2d_23">
    <path d="M 109.694093 489.008563 
L 121.841371 477.279318 
L 121.841371 477.279318 
L 132.813106 473.446931 
L 132.813106 473.446931 
L 144.960385 468.404889 
L 144.960385 468.404889 
L 156.715815 463.849075 
L 156.715815 463.849075 
L 168.863094 462.65401 
L 168.863094 462.65401 
L 180.618524 461.925928 
L 180.618524 461.925928 
L 192.765802 454.314928 
L 192.765802 454.314928 
L 204.913081 442.290758 
L 204.913081 442.290758 
L 216.668511 436.151666 
L 216.668511 436.151666 
L 228.81579 429.587657 
L 228.81579 429.587657 
L 240.57122 404.896819 
L 240.57122 404.896819 
L 252.718498 371.742685 
L 252.718498 371.742685 
L 264.865777 354.337613 
L 264.865777 354.337613 
L 276.22936 338.374085 
L 276.22936 338.374085 
L 288.376638 336.825217 
L 288.376638 336.825217 
L 300.132068 312.276433 
L 300.132068 312.276433 
L 312.279347 351.727758 
L 312.279347 351.727758 
L 324.034777 356.428186 
L 324.034777 356.428186 
L 336.182056 320.847054 
L 336.182056 320.847054 
L 348.329334 324.068292 
L 348.329334 324.068292 
L 360.084764 300.324131 
L 360.084764 300.324131 
L 372.232043 304.15781 
L 372.232043 304.15781 
L 383.987473 302.270013 
L 383.987473 302.270013 
L 396.134751 332.638385 
L 396.134751 332.638385 
L 408.28203 307.96651 
L 408.28203 307.96651 
L 419.253765 305.72218 
L 419.253765 305.72218 
L 431.401043 319.453545 
L 431.401043 319.453545 
L 443.156474 285.181668 
L 443.156474 285.181668 
L 455.303752 252.612666 
L 455.303752 252.612666 
L 467.059183 278.649265 
L 467.059183 278.649265 
L 479.206461 273.711722 
L 479.206461 273.711722 
L 491.353739 288.054176 
L 491.353739 288.054176 
L 503.10917 265.058154 
L 503.10917 265.058154 
L 515.256448 290.343161 
L 515.256448 290.343161 
L 527.011879 295.801014 
L 527.011879 295.801014 
L 539.159157 324.76537 
L 539.159157 324.76537 
L 551.306435 319.010568 
L 551.306435 319.010568 
L 562.27817 284.24937 
L 562.27817 284.24937 
L 574.425449 343.911536 
L 574.425449 343.911536 
L 586.180879 331.773194 
L 586.180879 331.773194 
L 598.328158 318.941815 
L 598.328158 318.941815 
L 610.083588 353.739586 
L 610.083588 353.739586 
L 622.230866 356.771347 
L 622.230866 356.771347 
L 634.378145 350.754024 
L 634.378145 350.754024 
L 646.133575 327.136126 
L 646.133575 327.136126 
L 658.280853 328.597198 
L 658.280853 328.597198 
L 670.036284 336.997136 
L 670.036284 336.997136 
L 682.183562 346.574773 
L 682.183562 346.574773 
L 694.330841 323.628034 
L 694.330841 323.628034 
L 705.302576 351.385846 
L 705.302576 351.385846 
L 717.449854 355.32901 
L 717.449854 355.32901 
L 729.205285 334.620649 
L 729.205285 334.620649 
L 741.352563 352.389497 
L 741.352563 352.389497 
L 753.107994 369.03275 
L 753.107994 369.03275 
L 765.255272 358.358742 
L 765.255272 358.358742 
L 777.40255 356.089198 
L 777.40255 356.089198 
L 789.157981 341.989061 
L 789.157981 341.989061 
L 801.305259 347.655964 
L 801.305259 347.655964 
L 813.060689 360.761325 
L 813.060689 360.761325 
L 825.207968 361.766005 
L 825.207968 361.766005 
L 837.355246 362.026043 
L 837.355246 362.026043 
L 848.718829 352.65002 
L 848.718829 352.65002 
L 860.866107 393.374659 
L 860.866107 393.374659 
L 872.621538 389.383696 
L 872.621538 389.383696 
L 884.768816 396.90751 
L 884.768816 396.90751 
L 896.524247 368.958075 
L 896.524247 368.958075 
L 908.671525 370.380664 
L 908.671525 370.380664 
L 920.818803 356.56985 
L 920.818803 356.56985 
L 932.574234 354.743576 
L 932.574234 354.743576 
L 944.721512 337.908245 
L 944.721512 337.908245 
L 956.476943 347.251442 
L 956.476943 347.251442 
L 968.624221 375.594702 
L 968.624221 375.594702 
L 980.771499 385.078299 
L 980.771499 385.078299 
L 991.743234 392.11263 
L 991.743234 392.11263 
L 1003.890513 377.073216 
L 1003.890513 377.073216 
L 1015.645943 374.115571 
L 1015.645943 374.115571 
L 1027.793221 369.494887 
L 1027.793221 369.494887 
L 1039.548652 357.84065 
L 1039.548652 357.84065 
L 1051.69593 372.587377 
L 1051.69593 372.587377 
L 1063.843209 343.61372 
L 1063.843209 343.61372 
L 1075.598639 354.490385 
L 1075.598639 354.490385 
L 1087.745917 342.431464 
L 1087.745917 342.431464 
L 1099.501348 319.572154 
L 1099.501348 319.572154 
L 1111.648626 342.815563 
L 1111.648626 342.815563 
L 1123.795905 361.604593 
L 1123.795905 361.604593 
L 1134.76764 335.093734 
L 1134.76764 335.093734 
L 1146.914918 323.479229 
L 1146.914918 323.479229 
L 1158.670349 324.703406 
L 1158.670349 324.703406 
L 1170.817627 325.190773 
L 1170.817627 325.190773 
L 1182.573057 352.357538 
L 1182.573057 352.357538 
L 1194.720336 365.475036 
L 1194.720336 365.475036 
L 1206.867614 358.7563 
L 1206.867614 358.7563 
L 1218.623045 350.631961 
L 1218.623045 350.631961 
L 1230.770323 375.672535 
L 1230.770323 375.672535 
L 1242.525753 343.321635 
L 1242.525753 343.321635 
L 1254.673032 389.579903 
L 1254.673032 389.579903 
L 1266.82031 409.60012 
L 1266.82031 409.60012 
L 1277.792045 418.48303 
L 1277.792045 418.48303 
L 1289.939323 404.097472 
L 1289.939323 404.097472 
L 1301.694754 413.777313 
L 1301.694754 413.777313 
L 1313.842032 425.300164 
L 1313.842032 425.300164 
L 1325.597463 449.798445 
L 1325.597463 449.798445 
L 1337.744741 467.612235 
L 1337.744741 467.612235 
L 1349.892019 479.027005 
L 1349.892019 479.027005 
L 1361.64745 483.926586 
L 1361.64745 483.926586 
L 1373.794728 504.734836 
L 1373.794728 504.734836 
" clip-path="url(#pa37f882700)" style="fill: none; stroke: #a1d9cc; stroke-width: 1.5; stroke-linecap: round"/>
   </g>
   <g id="patch_3">
    <path d="M 46.489061 586.243542 
L 46.489061 25.604645 
" style="fill: none; stroke: #808080; stroke-width: 0.8; stroke-linejoin: miter; stroke-linecap: square"/>
   </g>
   <g id="patch_4">
    <path d="M 46.489061 586.243542 
L 1436.99976 586.243542 
" style="fill: none; stroke: #808080; stroke-width: 0.8; stroke-linejoin: miter; stroke-linecap: square"/>
   </g>
   <g id="text_20">
    <!-- Predicted WIP -->
    <g style="fill: #262626" transform="translate(669.544746 19.604645) scale(0.24 -0.24)">
     <defs>
      <path id="CMR17-57" d="M 5523 3764 
C 5581 3936 5677 4160 6048 4160 
L 6048 4326 
C 5939 4326 5715 4326 5600 4326 
C 5440 4326 5158 4326 5005 4332 
L 5005 4160 
C 5293 4160 5414 4000 5414 3847 
C 5414 3802 5408 3777 5382 3707 
L 4390 555 
L 3347 3873 
C 3328 3937 3322 3963 3322 3988 
C 3322 4160 3603 4160 3725 4160 
L 3725 4326 
C 3539 4326 3219 4326 3021 4326 
C 2861 4326 2573 4326 2426 4332 
L 2426 4160 
C 2720 4160 2797 4141 2861 4027 
C 2886 3969 2989 3638 2989 3619 
C 2989 3593 2976 3555 2970 3536 
L 2029 561 
L 986 3867 
C 954 3957 954 3969 954 3982 
C 954 4160 1235 4160 1363 4160 
L 1363 4326 
C 1178 4326 858 4326 659 4326 
C 493 4326 211 4326 58 4332 
L 58 4160 
C 442 4160 467 4122 531 3918 
L 1779 -20 
C 1811 -115 1811 -128 1869 -128 
C 1920 -128 1939 -115 1965 -26 
L 3053 3433 
L 4141 -26 
C 4166 -115 4186 -128 4237 -128 
C 4294 -128 4294 -115 4326 -20 
L 5523 3764 
z
" transform="scale(0.015625)"/>
      <path id="CMR17-49" d="M 1261 3905 
C 1261 4192 1338 4192 1798 4192 
L 1798 4352 
C 1594 4352 1267 4352 1050 4352 
C 832 4352 506 4352 301 4352 
L 301 4192 
C 762 4192 838 4192 838 3905 
L 838 447 
C 838 160 762 160 301 160 
L 301 0 
C 506 0 832 0 1050 0 
C 1267 0 1594 0 1798 0 
L 1798 160 
C 1338 160 1261 160 1261 447 
L 1261 3905 
z
" transform="scale(0.015625)"/>
     </defs>
     <use xlink:href="#CMR17-50" transform="scale(0.996264)"/>
     <use xlink:href="#CMR17-72" transform="translate(62.586301 0) scale(0.996264)"/>
     <use xlink:href="#CMR17-65" transform="translate(97.867068 0) scale(0.996264)"/>
     <use xlink:href="#CMR17-64" transform="translate(138.352729 0) scale(0.996264)"/>
     <use xlink:href="#CMR17-69" transform="translate(189.248099 0) scale(0.996264)"/>
     <use xlink:href="#CMR17-63" transform="translate(214.119157 0) scale(0.996264)"/>
     <use xlink:href="#CMR17-74" transform="translate(254.604818 0) scale(0.996264)"/>
     <use xlink:href="#CMR17-65" transform="translate(289.885585 0) scale(0.996264)"/>
     <use xlink:href="#CMR17-64" transform="translate(330.371246 0) scale(0.996264)"/>
     <use xlink:href="#CMR17-57" transform="translate(411.342582 0) scale(0.996264)"/>
     <use xlink:href="#CMR17-49" transform="translate(506.439232 0) scale(0.996264)"/>
     <use xlink:href="#CMR17-50" transform="translate(539.077641 0) scale(0.996264)"/>
    </g>
   </g>
   <g id="legend_1">
    <g id="patch_5">
     <path d="M 74.937453 716.999753 
L 1408.551368 716.999753 
Q 1412.551368 716.999753 1412.551368 712.999753 
L 1412.551368 656.307432 
Q 1412.551368 652.307432 1408.551368 652.307432 
L 74.937453 652.307432 
Q 70.937453 652.307432 70.937453 656.307432 
L 70.937453 712.999753 
Q 70.937453 716.999753 74.937453 716.999753 
z
" style="fill: #ffffff; opacity: 0.8"/>
    </g>
    <g id="line2d_24">
     <path d="M 78.937453 668.233454 
L 98.937453 668.233454 
L 118.937453 668.233454 
" style="fill: none; stroke-dasharray: 5.55,2.4; stroke-dashoffset: 0; stroke: #006e64; stroke-width: 1.5"/>
    </g>
    <g id="text_21">
     <!-- Actual -->
     <g style="fill: #262626" transform="translate(134.937453 675.233454) scale(0.2 -0.2)">
      <defs>
       <path id="CMR17-41" d="M 2323 4378 
C 2291 4461 2278 4480 2214 4480 
C 2150 4480 2138 4461 2106 4378 
L 749 566 
C 627 223 371 153 147 153 
L 147 -13 
C 262 0 518 0 640 0 
C 800 0 1056 0 1210 -13 
L 1210 153 
C 909 153 864 361 864 439 
C 864 497 877 530 890 569 
L 1229 1536 
L 2906 1536 
L 3290 442 
C 3322 365 3322 352 3322 327 
C 3322 153 3046 153 2925 153 
L 2925 0 
C 3110 0 3443 0 3642 0 
C 3808 0 4128 0 4282 -13 
L 4282 153 
C 3942 153 3827 153 3744 387 
L 2323 4378 
z
M 2067 3893 
L 2848 1702 
L 1286 1702 
L 2067 3893 
z
" transform="scale(0.015625)"/>
       <path id="CMR17-75" d="M 1882 2693 
L 1882 2528 
C 2259 2528 2317 2489 2317 2186 
L 2317 1032 
C 2317 500 2029 38 1555 38 
C 1030 38 986 348 986 678 
L 986 2763 
L 211 2693 
L 211 2528 
C 467 2528 640 2528 646 2274 
L 646 1058 
C 646 633 646 361 813 183 
C 896 101 1056 -64 1517 -64 
C 2061 -64 2272 377 2323 506 
L 2330 506 
L 2330 -63 
L 3091 -63 
L 3091 128 
C 2714 128 2656 166 2656 473 
L 2656 2763 
L 1882 2693 
z
" transform="scale(0.015625)"/>
       <path id="CMR17-6c" d="M 979 4396 
L 218 4326 
L 218 4160 
C 595 4160 653 4122 653 3817 
L 653 426 
C 653 184 627 153 218 153 
L 218 -13 
C 371 0 653 0 813 0 
C 979 0 1261 0 1414 -13 
L 1414 153 
C 1005 153 979 178 979 426 
L 979 4396 
z
" transform="scale(0.015625)"/>
      </defs>
      <use xlink:href="#CMR17-41" transform="scale(0.996264)"/>
      <use xlink:href="#CMR17-63" transform="translate(69.07243 0) scale(0.996264)"/>
      <use xlink:href="#CMR17-74" transform="translate(109.55809 0) scale(0.996264)"/>
      <use xlink:href="#CMR17-75" transform="translate(144.838858 0) scale(0.996264)"/>
      <use xlink:href="#CMR17-61" transform="translate(195.734228 0) scale(0.996264)"/>
      <use xlink:href="#CMR17-6c" transform="translate(241.424705 0) scale(0.996264)"/>
     </g>
    </g>
    <g id="line2d_25">
     <path d="M 78.937453 697.035109 
L 98.937453 697.035109 
L 118.937453 697.035109 
" style="fill: none; stroke: #734848; stroke-width: 1.5; stroke-linecap: round"/>
    </g>
    <g id="text_22">
     <!-- LSTM (best) -->
     <g style="fill: #262626" transform="translate(134.937453 704.035109) scale(0.2 -0.2)">
      <defs>
       <path id="CMR17-4c" d="M 3469 1615 
L 3354 1615 
C 3302 983 3219 166 2125 166 
L 1530 166 
C 1274 166 1261 197 1261 414 
L 1261 3898 
C 1261 4129 1274 4192 1760 4192 
L 1901 4192 
L 1901 4352 
C 1638 4352 1331 4352 1069 4352 
C 870 4352 512 4352 326 4352 
L 326 4192 
C 768 4192 838 4192 838 3905 
L 838 452 
C 838 166 768 166 326 166 
L 326 0 
L 3315 0 
L 3469 1615 
z
" transform="scale(0.015625)"/>
       <path id="CMR17-53" d="M 2803 4290 
C 2803 4404 2797 4411 2758 4411 
C 2720 4411 2707 4385 2682 4328 
L 2490 3907 
C 2246 4257 1875 4416 1472 4416 
C 819 4416 294 3901 294 3253 
C 294 3056 339 2776 557 2510 
C 794 2218 1018 2167 1530 2033 
C 1722 1982 2042 1899 2106 1874 
C 2470 1722 2662 1341 2662 985 
C 2662 527 2336 38 1779 38 
C 1094 38 454 419 410 1311 
C 403 1413 397 1419 352 1419 
C 301 1419 294 1413 294 1285 
L 294 -1 
C 294 -115 301 -122 339 -122 
C 384 -122 397 -90 486 108 
C 493 127 493 140 614 381 
C 934 -39 1472 -128 1779 -128 
C 2477 -128 2970 451 2970 1124 
C 2970 1454 2848 1708 2778 1823 
C 2509 2230 2221 2306 1914 2382 
C 1869 2402 1856 2402 1498 2490 
C 1152 2579 1005 2624 845 2796 
C 666 2992 602 3196 602 3399 
C 602 3812 934 4263 1478 4263 
C 2157 4263 2579 3786 2675 2993 
C 2694 2878 2701 2872 2746 2872 
C 2803 2872 2803 2891 2803 2999 
L 2803 4290 
z
" transform="scale(0.015625)"/>
       <path id="CMR17-54" d="M 3981 4326 
L 288 4326 
L 179 2918 
L 294 2918 
C 378 3976 467 4160 1453 4160 
C 1568 4160 1754 4160 1805 4154 
C 1926 4135 1926 4058 1926 3912 
L 1926 459 
C 1926 230 1907 160 1376 160 
L 1197 160 
L 1197 0 
C 1504 0 1824 0 2138 0 
C 2451 0 2771 0 3078 0 
L 3078 160 
L 2899 160 
C 2368 160 2349 230 2349 459 
L 2349 3912 
C 2349 4052 2349 4129 2464 4154 
C 2515 4160 2701 4160 2816 4160 
C 3795 4160 3891 3976 3974 2918 
L 4090 2918 
L 3981 4326 
z
" transform="scale(0.015625)"/>
       <path id="CMR17-4d" d="M 1338 4224 
C 1299 4320 1293 4320 1158 4320 
L 339 4320 
L 339 4160 
C 781 4160 851 4160 851 3875 
L 851 610 
C 851 451 851 153 339 153 
L 339 -13 
C 486 0 755 0 915 0 
C 1075 0 1344 0 1491 -13 
L 1491 153 
C 979 153 979 451 979 610 
L 979 4135 
L 986 4135 
L 2490 89 
C 2515 25 2528 -13 2579 -13 
C 2630 -13 2643 25 2669 89 
L 4186 4166 
L 4192 4166 
L 4192 438 
C 4192 153 4122 153 3680 153 
L 3680 -13 
C 3853 0 4198 0 4384 0 
C 4570 0 4922 0 5094 -13 
L 5094 153 
C 4653 153 4582 153 4582 438 
L 4582 3875 
C 4582 4160 4653 4160 5094 4160 
L 5094 4320 
L 4282 4320 
C 4147 4320 4141 4314 4102 4218 
L 2720 502 
L 1338 4224 
z
" transform="scale(0.015625)"/>
       <path id="CMR17-28" d="M 1958 -1561 
C 1958 -1555 1958 -1542 1939 -1523 
C 1645 -1224 858 -407 858 1581 
C 858 3569 1632 4379 1946 4697 
C 1946 4704 1958 4717 1958 4736 
C 1958 4755 1939 4768 1914 4768 
C 1843 4768 1299 4296 986 3594 
C 666 2887 576 2199 576 1588 
C 576 1128 621 351 1005 -471 
C 1312 -1135 1837 -1600 1914 -1600 
C 1946 -1600 1958 -1587 1958 -1561 
z
" transform="scale(0.015625)"/>
       <path id="CMR17-62" d="M 960 4396 
L 198 4326 
L 198 4160 
C 576 4160 634 4122 634 3817 
L 634 -13 
L 749 -13 
L 934 441 
C 1120 141 1395 -64 1766 -64 
C 2406 -64 3053 500 3053 1370 
C 3053 2188 2477 2790 1830 2790 
C 1434 2790 1152 2579 960 2330 
L 960 4396 
z
M 973 2004 
C 973 2118 973 2138 1062 2272 
C 1312 2657 1670 2688 1792 2688 
C 1984 2688 2643 2585 2643 1376 
C 2643 108 1888 38 1734 38 
C 1536 38 1248 114 1043 486 
C 973 608 973 621 973 735 
L 973 2004 
z
" transform="scale(0.015625)"/>
       <path id="CMR17-73" d="M 1978 2697 
C 1978 2813 1971 2819 1933 2819 
C 1907 2819 1901 2813 1824 2717 
C 1805 2691 1747 2626 1728 2601 
C 1523 2819 1235 2819 1126 2819 
C 416 2819 160 2447 160 2076 
C 160 1498 813 1365 998 1325 
C 1402 1243 1542 1217 1677 1101 
C 1760 1025 1901 884 1901 654 
C 1901 384 1747 38 1158 38 
C 602 38 403 460 288 1021 
C 269 1110 269 1117 218 1117 
C 166 1117 160 1110 160 983 
L 160 63 
C 160 -51 166 -58 205 -58 
C 237 -58 243 -51 275 0 
C 314 57 410 211 448 276 
C 576 103 800 -64 1158 -64 
C 1792 -64 2131 283 2131 784 
C 2131 1112 1958 1285 1875 1362 
C 1683 1561 1459 1606 1190 1657 
C 838 1735 390 1825 390 2217 
C 390 2383 480 2737 1126 2737 
C 1811 2737 1850 2094 1862 1888 
C 1869 1856 1901 1849 1920 1849 
C 1978 1849 1978 1869 1978 1978 
L 1978 2697 
z
" transform="scale(0.015625)"/>
       <path id="CMR17-29" d="M 1683 1581 
C 1683 2040 1638 2817 1254 3639 
C 947 4303 422 4768 346 4768 
C 326 4768 301 4761 301 4729 
C 301 4717 307 4710 314 4697 
C 621 4378 1402 3568 1402 1584 
C 1402 -407 627 -1217 314 -1537 
C 307 -1549 301 -1556 301 -1568 
C 301 -1600 326 -1600 346 -1600 
C 416 -1600 960 -1128 1274 -426 
C 1594 281 1683 969 1683 1581 
z
" transform="scale(0.015625)"/>
      </defs>
      <use xlink:href="#CMR17-4c" transform="scale(0.996264)"/>
      <use xlink:href="#CMR17-53" transform="translate(57.381408 0) scale(0.996264)"/>
      <use xlink:href="#CMR17-54" transform="translate(108.276778 0) scale(0.996264)"/>
      <use xlink:href="#CMR17-4d" transform="translate(174.786658 0) scale(0.996264)"/>
      <use xlink:href="#CMR17-28" transform="translate(289.549565 0) scale(0.996264)"/>
      <use xlink:href="#CMR17-62" transform="translate(324.830333 0) scale(0.996264)"/>
      <use xlink:href="#CMR17-65" transform="translate(378.328141 0) scale(0.996264)"/>
      <use xlink:href="#CMR17-73" transform="translate(418.813802 0) scale(0.996264)"/>
      <use xlink:href="#CMR17-74" transform="translate(454.61514 0) scale(0.996264)"/>
      <use xlink:href="#CMR17-29" transform="translate(489.895907 0) scale(0.996264)"/>
     </g>
    </g>
    <g id="line2d_26">
     <path d="M 279.97274 668.233454 
L 299.97274 668.233454 
L 319.97274 668.233454 
" style="fill: none; stroke: #004e4a; stroke-width: 1.5; stroke-linecap: round"/>
    </g>
    <g id="text_23">
     <!-- LSTM (batch size = 2) -->
     <g style="fill: #262626" transform="translate(335.97274 675.233454) scale(0.2 -0.2)">
      <defs>
       <path id="CMR17-68" d="M 2656 1933 
C 2656 2259 2592 2790 1837 2790 
C 1312 2790 1056 2368 979 2157 
L 973 2157 
L 973 4396 
L 211 4326 
L 211 4160 
C 589 4160 646 4122 646 3817 
L 646 426 
C 646 184 621 153 211 153 
L 211 -13 
C 365 0 646 0 813 0 
C 979 0 1267 0 1421 -13 
L 1421 153 
C 1011 153 986 178 986 428 
L 986 1658 
C 986 2247 1344 2688 1792 2688 
C 2266 2688 2317 2266 2317 1958 
L 2317 428 
C 2317 184 2291 153 1882 153 
L 1882 -13 
C 2035 0 2317 0 2483 0 
C 2650 0 2938 0 3091 -13 
L 3091 153 
C 2682 153 2656 178 2656 428 
L 2656 1933 
z
" transform="scale(0.015625)"/>
       <path id="CMR17-7a" d="M 2310 2605 
C 2362 2670 2362 2682 2362 2695 
C 2362 2752 2336 2752 2221 2752 
L 275 2752 
L 211 1760 
L 326 1760 
C 371 2381 442 2650 1178 2650 
L 1958 2650 
L 128 96 
C 128 0 134 0 269 0 
L 2291 0 
L 2381 1152 
L 2266 1152 
C 2214 442 2131 115 1350 115 
L 531 115 
L 2310 2605 
z
" transform="scale(0.015625)"/>
       <path id="CMR17-3d" d="M 4115 2017 
C 4211 2017 4307 2017 4307 2125 
C 4307 2240 4198 2240 4090 2240 
L 512 2240 
C 403 2240 294 2240 294 2125 
C 294 2017 390 2017 486 2017 
L 4115 2017 
z
M 4090 896 
C 4198 896 4307 896 4307 1011 
C 4307 1119 4211 1119 4115 1119 
L 486 1119 
C 390 1119 294 1119 294 1011 
C 294 896 403 896 512 896 
L 4090 896 
z
" transform="scale(0.015625)"/>
      </defs>
      <use xlink:href="#CMR17-4c" transform="scale(0.996264)"/>
      <use xlink:href="#CMR17-53" transform="translate(57.381408 0) scale(0.996264)"/>
      <use xlink:href="#CMR17-54" transform="translate(108.276778 0) scale(0.996264)"/>
      <use xlink:href="#CMR17-4d" transform="translate(174.786658 0) scale(0.996264)"/>
      <use xlink:href="#CMR17-28" transform="translate(289.549565 0) scale(0.996264)"/>
      <use xlink:href="#CMR17-62" transform="translate(324.830333 0) scale(0.996264)"/>
      <use xlink:href="#CMR17-61" transform="translate(375.725703 0) scale(0.996264)"/>
      <use xlink:href="#CMR17-74" transform="translate(421.41618 0) scale(0.996264)"/>
      <use xlink:href="#CMR17-63" transform="translate(456.696948 0) scale(0.996264)"/>
      <use xlink:href="#CMR17-68" transform="translate(494.580154 0) scale(0.996264)"/>
      <use xlink:href="#CMR17-73" transform="translate(575.55149 0) scale(0.996264)"/>
      <use xlink:href="#CMR17-69" transform="translate(611.352828 0) scale(0.996264)"/>
      <use xlink:href="#CMR17-7a" transform="translate(636.223886 0) scale(0.996264)"/>
      <use xlink:href="#CMR17-65" transform="translate(676.709547 0) scale(0.996264)"/>
      <use xlink:href="#CMR17-3d" transform="translate(747.271174 0) scale(0.996264)"/>
      <use xlink:href="#CMR17-32" transform="translate(849.061928 0) scale(0.996264)"/>
      <use xlink:href="#CMR17-29" transform="translate(894.752406 0) scale(0.996264)"/>
     </g>
    </g>
    <g id="line2d_27">
     <path d="M 561.979301 668.233454 
L 581.979301 668.233454 
L 601.979301 668.233454 
" style="fill: none; stroke: #c17150; stroke-width: 1.5; stroke-linecap: round"/>
    </g>
    <g id="text_24">
     <!-- LSTM (batch size = 16) -->
     <g style="fill: #262626" transform="translate(617.979301 675.233454) scale(0.2 -0.2)">
      <use xlink:href="#CMR17-4c" transform="scale(0.996264)"/>
      <use xlink:href="#CMR17-53" transform="translate(57.381408 0) scale(0.996264)"/>
      <use xlink:href="#CMR17-54" transform="translate(108.276778 0) scale(0.996264)"/>
      <use xlink:href="#CMR17-4d" transform="translate(174.786658 0) scale(0.996264)"/>
      <use xlink:href="#CMR17-28" transform="translate(289.549565 0) scale(0.996264)"/>
      <use xlink:href="#CMR17-62" transform="translate(324.830333 0) scale(0.996264)"/>
      <use xlink:href="#CMR17-61" transform="translate(375.725703 0) scale(0.996264)"/>
      <use xlink:href="#CMR17-74" transform="translate(421.41618 0) scale(0.996264)"/>
      <use xlink:href="#CMR17-63" transform="translate(456.696948 0) scale(0.996264)"/>
      <use xlink:href="#CMR17-68" transform="translate(494.580154 0) scale(0.996264)"/>
      <use xlink:href="#CMR17-73" transform="translate(575.55149 0) scale(0.996264)"/>
      <use xlink:href="#CMR17-69" transform="translate(611.352828 0) scale(0.996264)"/>
      <use xlink:href="#CMR17-7a" transform="translate(636.223886 0) scale(0.996264)"/>
      <use xlink:href="#CMR17-65" transform="translate(676.709547 0) scale(0.996264)"/>
      <use xlink:href="#CMR17-3d" transform="translate(747.271174 0) scale(0.996264)"/>
      <use xlink:href="#CMR17-31" transform="translate(849.061928 0) scale(0.996264)"/>
      <use xlink:href="#CMR17-36" transform="translate(894.752406 0) scale(0.996264)"/>
      <use xlink:href="#CMR17-29" transform="translate(940.442883 0) scale(0.996264)"/>
     </g>
    </g>
    <g id="line2d_28">
     <path d="M 853.123958 668.233454 
L 873.123958 668.233454 
L 893.123958 668.233454 
" style="fill: none; stroke: #ffbb00; stroke-width: 1.5; stroke-linecap: round"/>
    </g>
    <g id="text_25">
     <!-- LSTM (batch size = 32) -->
     <g style="fill: #262626" transform="translate(909.123958 675.233454) scale(0.2 -0.2)">
      <use xlink:href="#CMR17-4c" transform="scale(0.996264)"/>
      <use xlink:href="#CMR17-53" transform="translate(57.381408 0) scale(0.996264)"/>
      <use xlink:href="#CMR17-54" transform="translate(108.276778 0) scale(0.996264)"/>
      <use xlink:href="#CMR17-4d" transform="translate(174.786658 0) scale(0.996264)"/>
      <use xlink:href="#CMR17-28" transform="translate(289.549565 0) scale(0.996264)"/>
      <use xlink:href="#CMR17-62" transform="translate(324.830333 0) scale(0.996264)"/>
      <use xlink:href="#CMR17-61" transform="translate(375.725703 0) scale(0.996264)"/>
      <use xlink:href="#CMR17-74" transform="translate(421.41618 0) scale(0.996264)"/>
      <use xlink:href="#CMR17-63" transform="translate(456.696948 0) scale(0.996264)"/>
      <use xlink:href="#CMR17-68" transform="translate(494.580154 0) scale(0.996264)"/>
      <use xlink:href="#CMR17-73" transform="translate(575.55149 0) scale(0.996264)"/>
      <use xlink:href="#CMR17-69" transform="translate(611.352828 0) scale(0.996264)"/>
      <use xlink:href="#CMR17-7a" transform="translate(636.223886 0) scale(0.996264)"/>
      <use xlink:href="#CMR17-65" transform="translate(676.709547 0) scale(0.996264)"/>
      <use xlink:href="#CMR17-3d" transform="translate(747.271174 0) scale(0.996264)"/>
      <use xlink:href="#CMR17-33" transform="translate(849.061928 0) scale(0.996264)"/>
      <use xlink:href="#CMR17-32" transform="translate(894.752406 0) scale(0.996264)"/>
      <use xlink:href="#CMR17-29" transform="translate(940.442883 0) scale(0.996264)"/>
     </g>
    </g>
    <g id="line2d_29">
     <path d="M 1144.268615 668.233454 
L 1164.268615 668.233454 
L 1184.268615 668.233454 
" style="fill: none; stroke: #a1d9cc; stroke-width: 1.5; stroke-linecap: round"/>
    </g>
    <g id="text_26">
     <!-- LSTM (batch size = 128) -->
     <g style="fill: #262626" transform="translate(1200.268615 675.233454) scale(0.2 -0.2)">
      <use xlink:href="#CMR17-4c" transform="scale(0.996264)"/>
      <use xlink:href="#CMR17-53" transform="translate(57.381408 0) scale(0.996264)"/>
      <use xlink:href="#CMR17-54" transform="translate(108.276778 0) scale(0.996264)"/>
      <use xlink:href="#CMR17-4d" transform="translate(174.786658 0) scale(0.996264)"/>
      <use xlink:href="#CMR17-28" transform="translate(289.549565 0) scale(0.996264)"/>
      <use xlink:href="#CMR17-62" transform="translate(324.830333 0) scale(0.996264)"/>
      <use xlink:href="#CMR17-61" transform="translate(375.725703 0) scale(0.996264)"/>
      <use xlink:href="#CMR17-74" transform="translate(421.41618 0) scale(0.996264)"/>
      <use xlink:href="#CMR17-63" transform="translate(456.696948 0) scale(0.996264)"/>
      <use xlink:href="#CMR17-68" transform="translate(494.580154 0) scale(0.996264)"/>
      <use xlink:href="#CMR17-73" transform="translate(575.55149 0) scale(0.996264)"/>
      <use xlink:href="#CMR17-69" transform="translate(611.352828 0) scale(0.996264)"/>
      <use xlink:href="#CMR17-7a" transform="translate(636.223886 0) scale(0.996264)"/>
      <use xlink:href="#CMR17-65" transform="translate(676.709547 0) scale(0.996264)"/>
      <use xlink:href="#CMR17-3d" transform="translate(747.271174 0) scale(0.996264)"/>
      <use xlink:href="#CMR17-31" transform="translate(849.061928 0) scale(0.996264)"/>
      <use xlink:href="#CMR17-32" transform="translate(894.752406 0) scale(0.996264)"/>
      <use xlink:href="#CMR17-38" transform="translate(940.442883 0) scale(0.996264)"/>
      <use xlink:href="#CMR17-29" transform="translate(986.13336 0) scale(0.996264)"/>
     </g>
    </g>
   </g>
  </g>
 </g>
 <defs>
  <clipPath id="pa37f882700">
   <rect x="46.489061" y="25.604645" width="1390.510699" height="560.638897"/>
  </clipPath>
 </defs>
</svg>
