<?xml version="1.0" encoding="utf-8" standalone="no"?>
<!DOCTYPE svg PUBLIC "-//W3C//DTD SVG 1.1//EN"
  "http://www.w3.org/Graphics/SVG/1.1/DTD/svg11.dtd">
<svg xmlns:xlink="http://www.w3.org/1999/xlink" width="1440pt" height="720pt" viewBox="0 0 1440 720" xmlns="http://www.w3.org/2000/svg" version="1.1">
 <metadata>
  <rdf:RDF xmlns:dc="http://purl.org/dc/elements/1.1/" xmlns:cc="http://creativecommons.org/ns#" xmlns:rdf="http://www.w3.org/1999/02/22-rdf-syntax-ns#">
   <cc:Work>
    <dc:type rdf:resource="http://purl.org/dc/dcmitype/StillImage"/>
    <dc:date>2023-11-08T15:04:51.173647</dc:date>
    <dc:format>image/svg+xml</dc:format>
    <dc:creator>
     <cc:Agent>
      <dc:title>Matplotlib v3.8.0, https://matplotlib.org/</dc:title>
     </cc:Agent>
    </dc:creator>
   </cc:Work>
  </rdf:RDF>
 </metadata>
 <defs>
  <style type="text/css">*{stroke-linejoin: round; stroke-linecap: butt}</style>
 </defs>
 <g id="figure_1">
  <g id="patch_1">
   <path d="M 0 720 
L 1440 720 
L 1440 0 
L 0 0 
z
" style="fill: #ffffff"/>
  </g>
  <g id="axes_1">
   <g id="patch_2">
    <path d="M 61.046592 612.426839 
L 1436.99976 612.426839 
L 1436.99976 25.604645 
L 61.046592 25.604645 
z
" style="fill: #ffffff"/>
   </g>
   <g id="matplotlib.axis_1">
    <g id="xtick_1">
     <g id="line2d_1">
      <path d="M 123.589918 612.426839 
L 123.589918 25.604645 
" clip-path="url(#p4d2b1b7253)" style="fill: none; stroke: #cccccc; stroke-opacity: 0.5; stroke-width: 0.8; stroke-linecap: round"/>
     </g>
     <g id="text_1">
      <!-- $\mathdefault{2015}$ -->
      <g transform="translate(105.313727 629.763836) scale(0.2 -0.2)">
       <defs>
        <path id="CMR17-32" d="M 2669 989 
L 2554 989 
C 2490 536 2438 459 2413 420 
C 2381 369 1920 369 1830 369 
L 602 369 
C 832 619 1280 1072 1824 1597 
C 2214 1967 2669 2402 2669 3035 
C 2669 3790 2067 4224 1395 4224 
C 691 4224 262 3604 262 3030 
C 262 2780 448 2748 525 2748 
C 589 2748 781 2787 781 3010 
C 781 3207 614 3264 525 3264 
C 486 3264 448 3258 422 3245 
C 544 3790 915 4058 1306 4058 
C 1862 4058 2227 3617 2227 3035 
C 2227 2479 1901 2000 1536 1584 
L 262 146 
L 262 0 
L 2515 0 
L 2669 989 
z
" transform="scale(0.015625)"/>
        <path id="CMR17-30" d="M 2688 2025 
C 2688 2416 2682 3080 2413 3591 
C 2176 4039 1798 4198 1466 4198 
C 1158 4198 768 4058 525 3597 
C 269 3118 243 2524 243 2025 
C 243 1661 250 1106 448 619 
C 723 -39 1216 -128 1466 -128 
C 1760 -128 2208 -7 2470 600 
C 2662 1042 2688 1559 2688 2025 
z
M 1466 -26 
C 1056 -26 813 325 723 812 
C 653 1188 653 1738 653 2096 
C 653 2588 653 2997 736 3387 
C 858 3929 1216 4096 1466 4096 
C 1728 4096 2067 3923 2189 3400 
C 2272 3036 2278 2607 2278 2096 
C 2278 1680 2278 1169 2202 792 
C 2067 95 1690 -26 1466 -26 
z
" transform="scale(0.015625)"/>
        <path id="CMR17-31" d="M 1702 4058 
C 1702 4192 1696 4192 1606 4192 
C 1357 3916 979 3827 621 3827 
C 602 3827 570 3827 563 3808 
C 557 3795 557 3782 557 3648 
C 755 3648 1088 3686 1344 3839 
L 1344 461 
C 1344 236 1331 160 781 160 
L 589 160 
L 589 0 
C 896 0 1216 0 1523 0 
C 1830 0 2150 0 2458 0 
L 2458 160 
L 2266 160 
C 1715 160 1702 230 1702 458 
L 1702 4058 
z
" transform="scale(0.015625)"/>
        <path id="CMR17-35" d="M 730 3692 
C 794 3666 1056 3584 1325 3584 
C 1920 3584 2246 3911 2432 4100 
C 2432 4157 2432 4192 2394 4192 
C 2387 4192 2374 4192 2323 4163 
C 2099 4058 1837 3973 1517 3973 
C 1325 3973 1037 3999 723 4139 
C 653 4171 640 4171 634 4171 
C 602 4171 595 4164 595 4037 
L 595 2203 
C 595 2089 595 2057 659 2057 
C 691 2057 704 2070 736 2114 
C 941 2401 1222 2522 1542 2522 
C 1766 2522 2246 2382 2246 1289 
C 2246 1085 2246 715 2054 421 
C 1894 159 1645 25 1370 25 
C 947 25 518 320 403 814 
C 429 807 480 795 506 795 
C 589 795 749 840 749 1038 
C 749 1210 627 1280 506 1280 
C 358 1280 262 1190 262 1011 
C 262 454 704 -128 1382 -128 
C 2042 -128 2669 440 2669 1264 
C 2669 2030 2170 2624 1549 2624 
C 1222 2624 947 2503 730 2274 
L 730 3692 
z
" transform="scale(0.015625)"/>
       </defs>
       <use xlink:href="#CMR17-32" transform="scale(0.996264)"/>
       <use xlink:href="#CMR17-30" transform="translate(45.690477 0) scale(0.996264)"/>
       <use xlink:href="#CMR17-31" transform="translate(91.380954 0) scale(0.996264)"/>
       <use xlink:href="#CMR17-35" transform="translate(137.071431 0) scale(0.996264)"/>
      </g>
     </g>
    </g>
    <g id="xtick_2">
     <g id="line2d_2">
      <path d="M 266.490162 612.426839 
L 266.490162 25.604645 
" clip-path="url(#p4d2b1b7253)" style="fill: none; stroke: #cccccc; stroke-opacity: 0.5; stroke-width: 0.8; stroke-linecap: round"/>
     </g>
     <g id="text_2">
      <!-- $\mathdefault{2016}$ -->
      <g transform="translate(248.213971 629.763836) scale(0.2 -0.2)">
       <defs>
        <path id="CMR17-36" d="M 678 2176 
C 678 3690 1395 4032 1811 4032 
C 1946 4032 2272 4009 2400 3776 
C 2298 3776 2106 3776 2106 3553 
C 2106 3381 2246 3323 2336 3323 
C 2394 3323 2566 3348 2566 3560 
C 2566 3954 2246 4179 1805 4179 
C 1043 4179 243 3390 243 1984 
C 243 253 966 -128 1478 -128 
C 2099 -128 2688 427 2688 1283 
C 2688 2081 2170 2662 1517 2662 
C 1126 2662 838 2407 678 1960 
L 678 2176 
z
M 1478 25 
C 691 25 691 1200 691 1436 
C 691 1896 909 2560 1504 2560 
C 1613 2560 1926 2560 2138 2120 
C 2253 1870 2253 1609 2253 1289 
C 2253 944 2253 690 2118 434 
C 1978 171 1773 25 1478 25 
z
" transform="scale(0.015625)"/>
       </defs>
       <use xlink:href="#CMR17-32" transform="scale(0.996264)"/>
       <use xlink:href="#CMR17-30" transform="translate(45.690477 0) scale(0.996264)"/>
       <use xlink:href="#CMR17-31" transform="translate(91.380954 0) scale(0.996264)"/>
       <use xlink:href="#CMR17-36" transform="translate(137.071431 0) scale(0.996264)"/>
      </g>
     </g>
    </g>
    <g id="xtick_3">
     <g id="line2d_3">
      <path d="M 409.781913 612.426839 
L 409.781913 25.604645 
" clip-path="url(#p4d2b1b7253)" style="fill: none; stroke: #cccccc; stroke-opacity: 0.5; stroke-width: 0.8; stroke-linecap: round"/>
     </g>
     <g id="text_3">
      <!-- $\mathdefault{2017}$ -->
      <g transform="translate(391.505722 629.763836) scale(0.2 -0.2)">
       <defs>
        <path id="CMR17-37" d="M 2886 3941 
L 2886 4081 
L 1382 4081 
C 634 4081 621 4165 595 4288 
L 480 4288 
L 294 3094 
L 410 3094 
C 429 3215 474 3540 550 3661 
C 589 3712 1062 3712 1171 3712 
L 2579 3712 
L 1869 2661 
C 1395 1954 1069 999 1069 165 
C 1069 89 1069 -128 1299 -128 
C 1530 -128 1530 89 1530 171 
L 1530 465 
C 1530 1508 1709 2196 2003 2636 
L 2886 3941 
z
" transform="scale(0.015625)"/>
       </defs>
       <use xlink:href="#CMR17-32" transform="scale(0.996264)"/>
       <use xlink:href="#CMR17-30" transform="translate(45.690477 0) scale(0.996264)"/>
       <use xlink:href="#CMR17-31" transform="translate(91.380954 0) scale(0.996264)"/>
       <use xlink:href="#CMR17-37" transform="translate(137.071431 0) scale(0.996264)"/>
      </g>
     </g>
    </g>
    <g id="xtick_4">
     <g id="line2d_4">
      <path d="M 552.682156 612.426839 
L 552.682156 25.604645 
" clip-path="url(#p4d2b1b7253)" style="fill: none; stroke: #cccccc; stroke-opacity: 0.5; stroke-width: 0.8; stroke-linecap: round"/>
     </g>
     <g id="text_4">
      <!-- $\mathdefault{2018}$ -->
      <g transform="translate(534.405965 629.763836) scale(0.2 -0.2)">
       <defs>
        <path id="CMR17-38" d="M 1741 2264 
C 2144 2467 2554 2773 2554 3263 
C 2554 3841 1990 4179 1472 4179 
C 890 4179 378 3759 378 3180 
C 378 3021 416 2747 666 2505 
C 730 2442 998 2251 1171 2130 
C 883 1983 211 1634 211 934 
C 211 279 838 -128 1459 -128 
C 2144 -128 2720 362 2720 1010 
C 2720 1590 2330 1857 2074 2029 
L 1741 2264 
z
M 902 2822 
C 851 2854 595 3051 595 3351 
C 595 3739 998 4032 1459 4032 
C 1965 4032 2336 3676 2336 3262 
C 2336 2669 1670 2331 1638 2331 
C 1632 2331 1626 2331 1574 2370 
L 902 2822 
z
M 2080 1519 
C 2176 1449 2483 1240 2483 851 
C 2483 381 2010 25 1472 25 
C 890 25 448 438 448 940 
C 448 1443 838 1862 1280 2060 
L 2080 1519 
z
" transform="scale(0.015625)"/>
       </defs>
       <use xlink:href="#CMR17-32" transform="scale(0.996264)"/>
       <use xlink:href="#CMR17-30" transform="translate(45.690477 0) scale(0.996264)"/>
       <use xlink:href="#CMR17-31" transform="translate(91.380954 0) scale(0.996264)"/>
       <use xlink:href="#CMR17-38" transform="translate(137.071431 0) scale(0.996264)"/>
      </g>
     </g>
    </g>
    <g id="xtick_5">
     <g id="line2d_5">
      <path d="M 695.5824 612.426839 
L 695.5824 25.604645 
" clip-path="url(#p4d2b1b7253)" style="fill: none; stroke: #cccccc; stroke-opacity: 0.5; stroke-width: 0.8; stroke-linecap: round"/>
     </g>
     <g id="text_5">
      <!-- $\mathdefault{2019}$ -->
      <g transform="translate(677.306209 629.763836) scale(0.2 -0.2)">
       <defs>
        <path id="CMR17-39" d="M 2253 1864 
C 2253 464 1670 31 1190 31 
C 1043 31 685 31 538 294 
C 704 268 826 357 826 518 
C 826 692 685 749 595 749 
C 538 749 365 723 365 506 
C 365 71 742 -128 1203 -128 
C 1939 -128 2688 674 2688 2073 
C 2688 3817 1971 4179 1485 4179 
C 851 4179 243 3628 243 2778 
C 243 1991 762 1408 1414 1408 
C 1952 1408 2189 1903 2253 2112 
L 2253 1864 
z
M 1427 1510 
C 1254 1510 1011 1542 813 1922 
C 678 2169 678 2461 678 2771 
C 678 3146 678 3405 858 3684 
C 947 3817 1114 4032 1485 4032 
C 2240 4032 2240 2885 2240 2632 
C 2240 2182 2035 1510 1427 1510 
z
" transform="scale(0.015625)"/>
       </defs>
       <use xlink:href="#CMR17-32" transform="scale(0.996264)"/>
       <use xlink:href="#CMR17-30" transform="translate(45.690477 0) scale(0.996264)"/>
       <use xlink:href="#CMR17-31" transform="translate(91.380954 0) scale(0.996264)"/>
       <use xlink:href="#CMR17-39" transform="translate(137.071431 0) scale(0.996264)"/>
      </g>
     </g>
    </g>
    <g id="xtick_6">
     <g id="line2d_6">
      <path d="M 838.482644 612.426839 
L 838.482644 25.604645 
" clip-path="url(#p4d2b1b7253)" style="fill: none; stroke: #cccccc; stroke-opacity: 0.5; stroke-width: 0.8; stroke-linecap: round"/>
     </g>
     <g id="text_6">
      <!-- $\mathdefault{2020}$ -->
      <g transform="translate(820.206453 629.763836) scale(0.2 -0.2)">
       <use xlink:href="#CMR17-32" transform="scale(0.996264)"/>
       <use xlink:href="#CMR17-30" transform="translate(45.690477 0) scale(0.996264)"/>
       <use xlink:href="#CMR17-32" transform="translate(91.380954 0) scale(0.996264)"/>
       <use xlink:href="#CMR17-30" transform="translate(137.071431 0) scale(0.996264)"/>
      </g>
     </g>
    </g>
    <g id="xtick_7">
     <g id="line2d_7">
      <path d="M 981.774395 612.426839 
L 981.774395 25.604645 
" clip-path="url(#p4d2b1b7253)" style="fill: none; stroke: #cccccc; stroke-opacity: 0.5; stroke-width: 0.8; stroke-linecap: round"/>
     </g>
     <g id="text_7">
      <!-- $\mathdefault{2021}$ -->
      <g transform="translate(963.498204 629.763836) scale(0.2 -0.2)">
       <use xlink:href="#CMR17-32" transform="scale(0.996264)"/>
       <use xlink:href="#CMR17-30" transform="translate(45.690477 0) scale(0.996264)"/>
       <use xlink:href="#CMR17-32" transform="translate(91.380954 0) scale(0.996264)"/>
       <use xlink:href="#CMR17-31" transform="translate(137.071431 0) scale(0.996264)"/>
      </g>
     </g>
    </g>
    <g id="xtick_8">
     <g id="line2d_8">
      <path d="M 1124.674638 612.426839 
L 1124.674638 25.604645 
" clip-path="url(#p4d2b1b7253)" style="fill: none; stroke: #cccccc; stroke-opacity: 0.5; stroke-width: 0.8; stroke-linecap: round"/>
     </g>
     <g id="text_8">
      <!-- $\mathdefault{2022}$ -->
      <g transform="translate(1106.398448 629.763836) scale(0.2 -0.2)">
       <use xlink:href="#CMR17-32" transform="scale(0.996264)"/>
       <use xlink:href="#CMR17-30" transform="translate(45.690477 0) scale(0.996264)"/>
       <use xlink:href="#CMR17-32" transform="translate(91.380954 0) scale(0.996264)"/>
       <use xlink:href="#CMR17-32" transform="translate(137.071431 0) scale(0.996264)"/>
      </g>
     </g>
    </g>
    <g id="xtick_9">
     <g id="line2d_9">
      <path d="M 1267.574882 612.426839 
L 1267.574882 25.604645 
" clip-path="url(#p4d2b1b7253)" style="fill: none; stroke: #cccccc; stroke-opacity: 0.5; stroke-width: 0.8; stroke-linecap: round"/>
     </g>
     <g id="text_9">
      <!-- $\mathdefault{2023}$ -->
      <g transform="translate(1249.298691 629.763836) scale(0.2 -0.2)">
       <defs>
        <path id="CMR17-33" d="M 1414 2157 
C 1984 2157 2234 1662 2234 1090 
C 2234 320 1824 25 1453 25 
C 1114 25 563 194 390 693 
C 422 680 454 680 486 680 
C 640 680 755 782 755 948 
C 755 1133 614 1216 486 1216 
C 378 1216 211 1165 211 926 
C 211 335 787 -128 1466 -128 
C 2176 -128 2720 430 2720 1085 
C 2720 1707 2208 2157 1600 2227 
C 2086 2328 2554 2756 2554 3329 
C 2554 3820 2048 4179 1472 4179 
C 890 4179 378 3829 378 3329 
C 378 3110 544 3072 627 3072 
C 762 3072 877 3155 877 3321 
C 877 3486 762 3569 627 3569 
C 602 3569 570 3569 544 3557 
C 730 3959 1235 4032 1459 4032 
C 1683 4032 2106 3925 2106 3320 
C 2106 3143 2080 2828 1862 2550 
C 1670 2304 1453 2304 1242 2284 
C 1210 2284 1062 2269 1037 2269 
C 992 2263 966 2257 966 2208 
C 966 2163 973 2157 1101 2157 
L 1414 2157 
z
" transform="scale(0.015625)"/>
       </defs>
       <use xlink:href="#CMR17-32" transform="scale(0.996264)"/>
       <use xlink:href="#CMR17-30" transform="translate(45.690477 0) scale(0.996264)"/>
       <use xlink:href="#CMR17-32" transform="translate(91.380954 0) scale(0.996264)"/>
       <use xlink:href="#CMR17-33" transform="translate(137.071431 0) scale(0.996264)"/>
      </g>
     </g>
    </g>
    <g id="xtick_10">
     <g id="line2d_10">
      <path d="M 1410.475126 612.426839 
L 1410.475126 25.604645 
" clip-path="url(#p4d2b1b7253)" style="fill: none; stroke: #cccccc; stroke-opacity: 0.5; stroke-width: 0.8; stroke-linecap: round"/>
     </g>
     <g id="text_10">
      <!-- $\mathdefault{2024}$ -->
      <g transform="translate(1392.198935 629.763836) scale(0.2 -0.2)">
       <defs>
        <path id="CMR17-34" d="M 2150 4122 
C 2150 4256 2144 4256 2029 4256 
L 128 1254 
L 128 1088 
L 1779 1088 
L 1779 457 
C 1779 224 1766 160 1318 160 
L 1197 160 
L 1197 0 
C 1402 0 1747 0 1965 0 
C 2182 0 2528 0 2733 0 
L 2733 160 
L 2611 160 
C 2163 160 2150 224 2150 457 
L 2150 1088 
L 2803 1088 
L 2803 1254 
L 2150 1254 
L 2150 4122 
z
M 1798 3703 
L 1798 1254 
L 256 1254 
L 1798 3703 
z
" transform="scale(0.015625)"/>
       </defs>
       <use xlink:href="#CMR17-32" transform="scale(0.996264)"/>
       <use xlink:href="#CMR17-30" transform="translate(45.690477 0) scale(0.996264)"/>
       <use xlink:href="#CMR17-32" transform="translate(91.380954 0) scale(0.996264)"/>
       <use xlink:href="#CMR17-34" transform="translate(137.071431 0) scale(0.996264)"/>
      </g>
     </g>
    </g>
    <g id="text_11">
     <!-- Date -->
     <g style="fill: #696969" transform="translate(729.838139 651.476466) scale(0.2 -0.2)">
      <defs>
       <path id="CMR17-44" d="M 333 4352 
L 333 4186 
C 774 4186 845 4186 845 3900 
L 845 452 
C 845 166 774 166 333 166 
L 333 0 
L 2368 0 
C 3398 0 4224 943 4224 2141 
C 4224 3346 3411 4352 2368 4352 
L 333 4352 
z
M 1523 166 
C 1267 166 1254 197 1254 414 
L 1254 3938 
C 1254 4155 1267 4186 1523 4186 
L 2240 4186 
C 2771 4186 3750 3874 3750 2141 
C 3750 1242 3488 879 3366 707 
C 3213 510 2848 166 2240 166 
L 1523 166 
z
" transform="scale(0.015625)"/>
       <path id="CMR17-61" d="M 2304 1653 
C 2304 2072 2304 2294 2035 2543 
C 1798 2752 1523 2816 1306 2816 
C 800 2816 435 2407 435 1971 
C 435 1728 627 1728 666 1728 
C 749 1728 896 1778 896 1954 
C 896 2112 774 2181 666 2181 
C 640 2181 608 2174 589 2168 
C 723 2592 1069 2714 1293 2714 
C 1613 2714 1965 2429 1965 1885 
L 1965 1600 
C 1587 1600 1133 1549 774 1357 
C 371 1133 256 813 256 570 
C 256 77 832 -64 1171 -64 
C 1523 -64 1850 139 1990 511 
C 2003 233 2182 -18 2464 -18 
C 2598 -18 2938 70 2938 567 
L 2938 920 
L 2822 920 
L 2822 562 
C 2822 178 2650 128 2566 128 
C 2304 128 2304 458 2304 738 
L 2304 1653 
z
M 1965 870 
C 1965 317 1568 38 1216 38 
C 896 38 646 275 646 570 
C 646 761 730 1100 1101 1305 
C 1408 1478 1760 1504 1965 1504 
L 1965 870 
z
" transform="scale(0.015625)"/>
       <path id="CMR17-74" d="M 966 2560 
L 1862 2560 
L 1862 2725 
L 966 2725 
L 966 3904 
L 851 3904 
C 838 3245 614 2668 70 2668 
L 70 2560 
L 627 2560 
L 627 771 
C 627 650 627 -64 1370 -64 
C 1747 -64 1965 306 1965 777 
L 1965 1140 
L 1850 1140 
L 1850 783 
C 1850 344 1677 51 1408 51 
C 1222 51 966 178 966 758 
L 966 2560 
z
" transform="scale(0.015625)"/>
       <path id="CMR17-65" d="M 2438 1472 
C 2464 1498 2464 1511 2464 1576 
C 2464 2238 2118 2816 1389 2816 
C 710 2816 173 2169 173 1383 
C 173 551 781 -64 1459 -64 
C 2176 -64 2458 607 2458 740 
C 2458 784 2419 784 2406 784 
C 2362 784 2355 771 2330 696 
C 2189 265 1837 51 1504 51 
C 1229 51 954 203 781 480 
C 582 803 582 1176 582 1472 
L 2438 1472 
z
M 589 1568 
C 634 2505 1126 2714 1382 2714 
C 1818 2714 2112 2297 2118 1568 
L 589 1568 
z
" transform="scale(0.015625)"/>
      </defs>
      <use xlink:href="#CMR17-44" transform="scale(0.996264)"/>
      <use xlink:href="#CMR17-61" transform="translate(70.393556 0) scale(0.996264)"/>
      <use xlink:href="#CMR17-74" transform="translate(116.084033 0) scale(0.996264)"/>
      <use xlink:href="#CMR17-65" transform="translate(151.364801 0) scale(0.996264)"/>
     </g>
    </g>
   </g>
   <g id="matplotlib.axis_2">
    <g id="ytick_1">
     <g id="line2d_11">
      <path d="M 61.046592 540.525828 
L 1436.99976 540.525828 
" clip-path="url(#p4d2b1b7253)" style="fill: none; stroke: #cccccc; stroke-opacity: 0.5; stroke-width: 0.8; stroke-linecap: round"/>
     </g>
     <g id="text_12">
      <!-- $\mathdefault{0.0}$ -->
      <g transform="translate(33.850966 547.444327) scale(0.2 -0.2)">
       <defs>
        <path id="CMMI12-3a" d="M 1178 307 
C 1178 492 1024 619 870 619 
C 685 619 557 466 557 313 
C 557 128 710 0 864 0 
C 1050 0 1178 153 1178 307 
z
" transform="scale(0.015625)"/>
       </defs>
       <use xlink:href="#CMR17-30" transform="scale(0.996264)"/>
       <use xlink:href="#CMMI12-3a" transform="translate(45.690477 0) scale(0.996264)"/>
       <use xlink:href="#CMR17-30" transform="translate(72.787654 0) scale(0.996264)"/>
      </g>
     </g>
    </g>
    <g id="ytick_2">
     <g id="line2d_12">
      <path d="M 61.046592 459.173837 
L 1436.99976 459.173837 
" clip-path="url(#p4d2b1b7253)" style="fill: none; stroke: #cccccc; stroke-opacity: 0.5; stroke-width: 0.8; stroke-linecap: round"/>
     </g>
     <g id="text_13">
      <!-- $\mathdefault{2.5}$ -->
      <g transform="translate(33.850966 466.092335) scale(0.2 -0.2)">
       <use xlink:href="#CMR17-32" transform="scale(0.996264)"/>
       <use xlink:href="#CMMI12-3a" transform="translate(45.690477 0) scale(0.996264)"/>
       <use xlink:href="#CMR17-35" transform="translate(72.787654 0) scale(0.996264)"/>
      </g>
     </g>
    </g>
    <g id="ytick_3">
     <g id="line2d_13">
      <path d="M 61.046592 377.821846 
L 1436.99976 377.821846 
" clip-path="url(#p4d2b1b7253)" style="fill: none; stroke: #cccccc; stroke-opacity: 0.5; stroke-width: 0.8; stroke-linecap: round"/>
     </g>
     <g id="text_14">
      <!-- $\mathdefault{5.0}$ -->
      <g transform="translate(33.850966 384.740344) scale(0.2 -0.2)">
       <use xlink:href="#CMR17-35" transform="scale(0.996264)"/>
       <use xlink:href="#CMMI12-3a" transform="translate(45.690477 0) scale(0.996264)"/>
       <use xlink:href="#CMR17-30" transform="translate(72.787654 0) scale(0.996264)"/>
      </g>
     </g>
    </g>
    <g id="ytick_4">
     <g id="line2d_14">
      <path d="M 61.046592 296.469855 
L 1436.99976 296.469855 
" clip-path="url(#p4d2b1b7253)" style="fill: none; stroke: #cccccc; stroke-opacity: 0.5; stroke-width: 0.8; stroke-linecap: round"/>
     </g>
     <g id="text_15">
      <!-- $\mathdefault{7.5}$ -->
      <g transform="translate(33.850966 303.388353) scale(0.2 -0.2)">
       <use xlink:href="#CMR17-37" transform="scale(0.996264)"/>
       <use xlink:href="#CMMI12-3a" transform="translate(45.690477 0) scale(0.996264)"/>
       <use xlink:href="#CMR17-35" transform="translate(72.787654 0) scale(0.996264)"/>
      </g>
     </g>
    </g>
    <g id="ytick_5">
     <g id="line2d_15">
      <path d="M 61.046592 215.117863 
L 1436.99976 215.117863 
" clip-path="url(#p4d2b1b7253)" style="fill: none; stroke: #cccccc; stroke-opacity: 0.5; stroke-width: 0.8; stroke-linecap: round"/>
     </g>
     <g id="text_16">
      <!-- $\mathdefault{10.0}$ -->
      <g transform="translate(24.71287 222.036362) scale(0.2 -0.2)">
       <use xlink:href="#CMR17-31" transform="scale(0.996264)"/>
       <use xlink:href="#CMR17-30" transform="translate(45.690477 0) scale(0.996264)"/>
       <use xlink:href="#CMMI12-3a" transform="translate(91.380954 0) scale(0.996264)"/>
       <use xlink:href="#CMR17-30" transform="translate(118.478131 0) scale(0.996264)"/>
      </g>
     </g>
    </g>
    <g id="ytick_6">
     <g id="line2d_16">
      <path d="M 61.046592 133.765872 
L 1436.99976 133.765872 
" clip-path="url(#p4d2b1b7253)" style="fill: none; stroke: #cccccc; stroke-opacity: 0.5; stroke-width: 0.8; stroke-linecap: round"/>
     </g>
     <g id="text_17">
      <!-- $\mathdefault{12.5}$ -->
      <g transform="translate(24.71287 140.68437) scale(0.2 -0.2)">
       <use xlink:href="#CMR17-31" transform="scale(0.996264)"/>
       <use xlink:href="#CMR17-32" transform="translate(45.690477 0) scale(0.996264)"/>
       <use xlink:href="#CMMI12-3a" transform="translate(91.380954 0) scale(0.996264)"/>
       <use xlink:href="#CMR17-35" transform="translate(118.478131 0) scale(0.996264)"/>
      </g>
     </g>
    </g>
    <g id="ytick_7">
     <g id="line2d_17">
      <path d="M 61.046592 52.413881 
L 1436.99976 52.413881 
" clip-path="url(#p4d2b1b7253)" style="fill: none; stroke: #cccccc; stroke-opacity: 0.5; stroke-width: 0.8; stroke-linecap: round"/>
     </g>
     <g id="text_18">
      <!-- $\mathdefault{15.0}$ -->
      <g transform="translate(24.71287 59.332379) scale(0.2 -0.2)">
       <use xlink:href="#CMR17-31" transform="scale(0.996264)"/>
       <use xlink:href="#CMR17-35" transform="translate(45.690477 0) scale(0.996264)"/>
       <use xlink:href="#CMMI12-3a" transform="translate(91.380954 0) scale(0.996264)"/>
       <use xlink:href="#CMR17-30" transform="translate(118.478131 0) scale(0.996264)"/>
      </g>
     </g>
    </g>
    <g id="text_19">
     <!-- Total Contribution -->
     <g style="fill: #696969" transform="translate(16.837237 394.492272) rotate(-90) scale(0.2 -0.2)">
      <defs>
       <path id="CMR17-54" d="M 3981 4326 
L 288 4326 
L 179 2918 
L 294 2918 
C 378 3976 467 4160 1453 4160 
C 1568 4160 1754 4160 1805 4154 
C 1926 4135 1926 4058 1926 3912 
L 1926 459 
C 1926 230 1907 160 1376 160 
L 1197 160 
L 1197 0 
C 1504 0 1824 0 2138 0 
C 2451 0 2771 0 3078 0 
L 3078 160 
L 2899 160 
C 2368 160 2349 230 2349 459 
L 2349 3912 
C 2349 4052 2349 4129 2464 4154 
C 2515 4160 2701 4160 2816 4160 
C 3795 4160 3891 3976 3974 2918 
L 4090 2918 
L 3981 4326 
z
" transform="scale(0.015625)"/>
       <path id="CMR17-6f" d="M 2758 1356 
C 2758 2176 2163 2816 1466 2816 
C 768 2816 173 2176 173 1356 
C 173 551 768 -64 1466 -64 
C 2163 -64 2758 551 2758 1356 
z
M 1466 51 
C 1165 51 909 230 762 480 
C 602 767 582 1126 582 1408 
C 582 1677 595 2010 762 2298 
C 890 2509 1139 2714 1466 2714 
C 1754 2714 1997 2554 2150 2330 
C 2349 2029 2349 1607 2349 1408 
C 2349 1158 2336 775 2163 467 
C 1984 173 1709 51 1466 51 
z
" transform="scale(0.015625)"/>
       <path id="CMR17-6c" d="M 979 4396 
L 218 4326 
L 218 4160 
C 595 4160 653 4122 653 3817 
L 653 426 
C 653 184 627 153 218 153 
L 218 -13 
C 371 0 653 0 813 0 
C 979 0 1261 0 1414 -13 
L 1414 153 
C 1005 153 979 178 979 426 
L 979 4396 
z
" transform="scale(0.015625)"/>
       <path id="CMR17-43" d="M 3974 4289 
C 3974 4403 3968 4410 3930 4410 
C 3904 4410 3898 4403 3853 4327 
L 3571 3792 
C 3258 4187 2874 4416 2381 4416 
C 1286 4416 294 3456 294 2148 
C 294 826 1286 -128 2387 -128 
C 3366 -128 3974 730 3974 1461 
C 3974 1524 3974 1550 3917 1550 
C 3866 1550 3866 1531 3859 1474 
C 3808 585 3168 38 2477 38 
C 1824 38 781 495 781 2147 
C 781 3805 1843 4250 2464 4250 
C 3187 4250 3712 3628 3834 2745 
C 3846 2668 3846 2655 3904 2655 
C 3974 2655 3974 2668 3974 2783 
L 3974 4289 
z
" transform="scale(0.015625)"/>
       <path id="CMR17-6e" d="M 2656 1933 
C 2656 2259 2592 2790 1837 2790 
C 1331 2790 1069 2400 973 2144 
L 966 2144 
L 966 2790 
L 211 2720 
L 211 2554 
C 589 2554 646 2515 646 2208 
L 646 428 
C 646 184 621 153 211 153 
L 211 -13 
C 365 0 646 0 813 0 
C 979 0 1267 0 1421 -13 
L 1421 153 
C 1011 153 986 178 986 428 
L 986 1658 
C 986 2247 1344 2688 1792 2688 
C 2266 2688 2317 2266 2317 1958 
L 2317 428 
C 2317 184 2291 153 1882 153 
L 1882 -13 
C 2035 0 2317 0 2483 0 
C 2650 0 2938 0 3091 -13 
L 3091 153 
C 2682 153 2656 178 2656 428 
L 2656 1933 
z
" transform="scale(0.015625)"/>
       <path id="CMR17-72" d="M 960 1497 
C 960 2112 1222 2688 1702 2688 
C 1747 2688 1792 2682 1837 2662 
C 1837 2662 1696 2617 1696 2452 
C 1696 2298 1818 2234 1914 2234 
C 1990 2234 2131 2279 2131 2458 
C 2131 2663 1926 2790 1709 2790 
C 1222 2790 1011 2317 947 2093 
L 941 2093 
L 941 2790 
L 198 2720 
L 198 2554 
C 576 2554 634 2515 634 2208 
L 634 428 
C 634 184 608 153 198 153 
L 198 -13 
C 352 0 646 0 813 0 
C 998 0 1325 0 1498 -13 
L 1498 153 
C 1037 153 960 153 960 440 
L 960 1497 
z
" transform="scale(0.015625)"/>
       <path id="CMR17-69" d="M 992 3909 
C 992 4049 877 4170 730 4170 
C 589 4170 467 4056 467 3909 
C 467 3769 582 3648 730 3648 
C 870 3648 992 3763 992 3909 
z
M 243 2706 
L 243 2541 
C 602 2541 653 2502 653 2197 
L 653 427 
C 653 184 627 153 218 153 
L 218 -13 
C 371 0 646 0 806 0 
C 960 0 1222 0 1370 -13 
L 1370 153 
C 992 153 979 191 979 420 
L 979 2776 
L 243 2706 
z
" transform="scale(0.015625)"/>
       <path id="CMR17-62" d="M 960 4396 
L 198 4326 
L 198 4160 
C 576 4160 634 4122 634 3817 
L 634 -13 
L 749 -13 
L 934 441 
C 1120 141 1395 -64 1766 -64 
C 2406 -64 3053 500 3053 1370 
C 3053 2188 2477 2790 1830 2790 
C 1434 2790 1152 2579 960 2330 
L 960 4396 
z
M 973 2004 
C 973 2118 973 2138 1062 2272 
C 1312 2657 1670 2688 1792 2688 
C 1984 2688 2643 2585 2643 1376 
C 2643 108 1888 38 1734 38 
C 1536 38 1248 114 1043 486 
C 973 608 973 621 973 735 
L 973 2004 
z
" transform="scale(0.015625)"/>
       <path id="CMR17-75" d="M 1882 2693 
L 1882 2528 
C 2259 2528 2317 2489 2317 2186 
L 2317 1032 
C 2317 500 2029 38 1555 38 
C 1030 38 986 348 986 678 
L 986 2763 
L 211 2693 
L 211 2528 
C 467 2528 640 2528 646 2274 
L 646 1058 
C 646 633 646 361 813 183 
C 896 101 1056 -64 1517 -64 
C 2061 -64 2272 377 2323 506 
L 2330 506 
L 2330 -63 
L 3091 -63 
L 3091 128 
C 2714 128 2656 166 2656 473 
L 2656 2763 
L 1882 2693 
z
" transform="scale(0.015625)"/>
      </defs>
      <use xlink:href="#CMR17-54" transform="scale(0.996264)"/>
      <use xlink:href="#CMR17-6f" transform="translate(58.702625 0) scale(0.996264)"/>
      <use xlink:href="#CMR17-74" transform="translate(104.393102 0) scale(0.996264)"/>
      <use xlink:href="#CMR17-61" transform="translate(139.67387 0) scale(0.996264)"/>
      <use xlink:href="#CMR17-6c" transform="translate(185.364347 0) scale(0.996264)"/>
      <use xlink:href="#CMR17-43" transform="translate(240.311372 0) scale(0.996264)"/>
      <use xlink:href="#CMR17-6f" transform="translate(306.821253 0) scale(0.996264)"/>
      <use xlink:href="#CMR17-6e" transform="translate(352.51173 0) scale(0.996264)"/>
      <use xlink:href="#CMR17-74" transform="translate(400.804646 0) scale(0.996264)"/>
      <use xlink:href="#CMR17-72" transform="translate(436.085413 0) scale(0.996264)"/>
      <use xlink:href="#CMR17-69" transform="translate(471.366181 0) scale(0.996264)"/>
      <use xlink:href="#CMR17-62" transform="translate(496.23724 0) scale(0.996264)"/>
      <use xlink:href="#CMR17-75" transform="translate(547.132609 0) scale(0.996264)"/>
      <use xlink:href="#CMR17-74" transform="translate(598.027979 0) scale(0.996264)"/>
      <use xlink:href="#CMR17-69" transform="translate(633.308747 0) scale(0.996264)"/>
      <use xlink:href="#CMR17-6f" transform="translate(658.179805 0) scale(0.996264)"/>
      <use xlink:href="#CMR17-6e" transform="translate(703.870283 0) scale(0.996264)"/>
     </g>
    </g>
   </g>
   <g id="line2d_18">
    <path d="M 123.589918 501.454542 
L 135.726651 483.939748 
L 135.726651 483.939748 
L 170.57082 483.939748 
L 170.57082 483.939748 
L 182.707553 454.188273 
L 182.707553 454.188273 
L 194.452778 468.499642 
L 194.452778 468.499642 
L 206.589511 453.895678 
L 206.589511 453.895678 
L 218.726244 454.683306 
L 218.726244 454.683306 
L 230.47147 425.119831 
L 230.47147 425.119831 
L 242.608203 410.808462 
L 242.608203 410.808462 
L 254.353428 378.844901 
L 254.353428 378.844901 
L 266.490162 378.733155 
L 266.490162 378.733155 
L 278.626895 350.245899 
L 278.626895 350.245899 
L 289.980613 350.451862 
L 289.980613 350.451862 
L 302.117346 350.898494 
L 302.117346 350.898494 
L 313.862571 292.896358 
L 313.862571 292.896358 
L 325.999304 307.207727 
L 325.999304 307.207727 
L 337.74453 320.695987 
L 337.74453 320.695987 
L 349.881263 335.348465 
L 349.881263 335.348465 
L 362.017996 351.012113 
L 362.017996 351.012113 
L 373.763221 336.80305 
L 373.763221 336.80305 
L 385.899954 331.435007 
L 385.899954 331.435007 
L 397.64518 331.435007 
L 397.64518 331.435007 
L 409.781913 375.838359 
L 409.781913 375.838359 
L 421.918646 375.780063 
L 421.918646 375.780063 
L 432.880856 361.453116 
L 432.880856 361.453116 
L 445.017589 378.577241 
L 445.017589 378.577241 
L 456.762815 378.832741 
L 456.762815 378.832741 
L 468.899548 347.059347 
L 468.899548 347.059347 
L 480.644773 378.832741 
L 480.644773 378.832741 
L 492.781506 332.271257 
L 492.781506 332.271257 
L 504.918239 350.096312 
L 504.918239 350.096312 
L 516.663465 332.708162 
L 516.663465 332.708162 
L 528.800198 361.040594 
L 528.800198 361.040594 
L 540.545423 361.040594 
L 540.545423 361.040594 
L 552.682156 392.813988 
L 552.682156 392.813988 
L 564.818889 392.514895 
L 564.818889 392.514895 
L 575.7811 406.805511 
L 575.7811 406.805511 
L 587.917833 422.231983 
L 587.917833 422.231983 
L 599.663058 439.288337 
L 599.663058 439.288337 
L 611.799791 414.905903 
L 611.799791 414.905903 
L 623.545017 428.909003 
L 623.545017 428.909003 
L 635.68175 434.857291 
L 635.68175 434.857291 
L 647.818483 433.341514 
L 647.818483 433.341514 
L 659.563708 432.729945 
L 659.563708 432.729945 
L 671.700441 417.966058 
L 671.700441 417.966058 
L 683.445667 432.729945 
L 683.445667 432.729945 
L 695.5824 396.969108 
L 695.5824 396.969108 
L 707.719133 381.760433 
L 707.719133 381.760433 
L 718.681343 396.969108 
L 718.681343 396.969108 
L 730.818076 381.760433 
L 730.818076 381.760433 
L 742.563302 381.760433 
L 742.563302 381.760433 
L 754.700035 367.141323 
L 754.700035 367.141323 
L 766.445261 387.463227 
L 766.445261 387.463227 
L 778.581994 371.912882 
L 778.581994 371.912882 
L 790.718727 355.841894 
L 790.718727 355.841894 
L 802.463952 355.779251 
L 802.463952 355.779251 
L 814.600685 370.543138 
L 814.600685 370.543138 
L 826.345911 370.543138 
L 826.345911 370.543138 
L 838.482644 399.446939 
L 838.482644 399.446939 
L 850.619377 383.896594 
L 850.619377 383.896594 
L 861.973095 366.57452 
L 861.973095 366.57452 
L 874.109828 427.011189 
L 874.109828 427.011189 
L 885.855053 413.970778 
L 885.855053 413.970778 
L 897.991786 399.071314 
L 897.991786 399.071314 
L 909.737012 413.970778 
L 909.737012 413.970778 
L 921.873745 399.599919 
L 921.873745 399.599919 
L 934.010478 399.315124 
L 934.010478 399.315124 
L 945.755703 368.11885 
L 945.755703 368.11885 
L 957.892436 393.913653 
L 957.892436 393.913653 
L 969.637662 377.842665 
L 969.637662 377.842665 
L 981.774395 393.913653 
L 981.774395 393.913653 
L 993.911128 423.125949 
L 993.911128 423.125949 
L 1004.873338 449.162971 
L 1004.873338 449.162971 
L 1017.010071 398.402007 
L 1017.010071 398.402007 
L 1028.755297 366.818036 
L 1028.755297 366.818036 
L 1040.89203 382.630782 
L 1040.89203 382.630782 
L 1052.637255 366.818036 
L 1052.637255 366.818036 
L 1064.773988 395.671193 
L 1064.773988 395.671193 
L 1076.910721 366.818036 
L 1076.910721 366.818036 
L 1088.655947 382.630782 
L 1088.655947 382.630782 
L 1100.79268 410.298163 
L 1100.79268 410.298163 
L 1112.537905 394.485417 
L 1112.537905 394.485417 
L 1124.674638 396.760489 
L 1124.674638 396.760489 
L 1136.811371 428.013631 
L 1136.811371 428.013631 
L 1147.773582 427.505591 
L 1147.773582 427.505591 
L 1159.910315 427.505591 
L 1159.910315 427.505591 
L 1171.65554 442.405054 
L 1171.65554 442.405054 
L 1183.792273 442.405054 
L 1183.792273 442.405054 
L 1195.537499 468.590721 
L 1195.537499 468.590721 
L 1207.674232 494.127283 
L 1207.674232 494.127283 
L 1219.810965 477.52989 
L 1219.810965 477.52989 
L 1231.556191 508.433817 
L 1231.556191 508.433817 
L 1243.692924 493.342636 
L 1243.692924 493.342636 
L 1255.438149 492.621071 
L 1255.438149 492.621071 
L 1267.574882 508.433817 
L 1267.574882 508.433817 
L 1279.711615 508.433817 
L 1279.711615 508.433817 
L 1290.673826 524.506273 
L 1302.810559 508.433817 
L 1302.810559 508.433817 
L 1314.555784 508.433817 
L 1314.555784 508.433817 
L 1326.692517 524.506273 
L 1374.456434 524.506273 
L 1374.456434 524.506273 
" clip-path="url(#p4d2b1b7253)" style="fill: none; stroke-dasharray: 5.55,2.4; stroke-dashoffset: 0; stroke: #006e64; stroke-width: 1.5"/>
   </g>
   <g id="line2d_19">
    <path d="M 123.589918 428.638166 
L 135.726651 449.042501 
L 135.726651 449.042501 
L 146.688861 464.749942 
L 146.688861 464.749942 
L 158.825594 439.57496 
L 158.825594 439.57496 
L 170.57082 369.112571 
L 170.57082 369.112571 
L 182.707553 368.127725 
L 182.707553 368.127725 
L 194.452778 253.806422 
L 194.452778 253.806422 
L 206.589511 405.133092 
L 206.589511 405.133092 
L 218.726244 335.550151 
L 218.726244 335.550151 
L 230.47147 357.280404 
L 230.47147 357.280404 
L 242.608203 316.602393 
L 242.608203 316.602393 
L 254.353428 250.581037 
L 254.353428 250.581037 
L 266.490162 310.629009 
L 266.490162 310.629009 
L 278.626895 365.817992 
L 278.626895 365.817992 
L 289.980613 247.669317 
L 289.980613 247.669317 
L 302.117346 339.882792 
L 302.117346 339.882792 
L 313.862571 183.463601 
L 313.862571 183.463601 
L 325.999304 104.008213 
L 325.999304 104.008213 
L 337.74453 197.12785 
L 337.74453 197.12785 
L 349.881263 286.88797 
L 349.881263 286.88797 
L 362.017996 241.282274 
L 362.017996 241.282274 
L 373.763221 211.18747 
L 373.763221 211.18747 
L 385.899954 267.418935 
L 385.899954 267.418935 
L 397.64518 288.191602 
L 397.64518 288.191602 
L 409.781913 354.763635 
L 409.781913 354.763635 
L 421.918646 323.273181 
L 421.918646 323.273181 
L 432.880856 359.07667 
L 432.880856 359.07667 
L 445.017589 309.272843 
L 445.017589 309.272843 
L 456.762815 381.832054 
L 456.762815 381.832054 
L 468.899548 347.532755 
L 468.899548 347.532755 
L 480.644773 362.438149 
L 480.644773 362.438149 
L 492.781506 172.564288 
L 492.781506 172.564288 
L 504.918239 212.189641 
L 504.918239 212.189641 
L 516.663465 403.183997 
L 516.663465 403.183997 
L 528.800198 252.296019 
L 528.800198 252.296019 
L 540.545423 340.456581 
L 540.545423 340.456581 
L 552.682156 220.563545 
L 552.682156 220.563545 
L 564.818889 311.539284 
L 564.818889 311.539284 
L 575.7811 378.889669 
L 575.7811 378.889669 
L 587.917833 317.291828 
L 587.917833 317.291828 
L 599.663058 322.689653 
L 599.663058 322.689653 
L 611.799791 426.587672 
L 611.799791 426.587672 
L 623.545017 309.481136 
L 623.545017 309.481136 
L 635.68175 312.404318 
L 635.68175 312.404318 
L 647.818483 337.193761 
L 647.818483 337.193761 
L 659.563708 347.301883 
L 659.563708 347.301883 
L 671.700441 336.421331 
L 671.700441 336.421331 
L 683.445667 450.0969 
L 683.445667 450.0969 
L 695.5824 336.038208 
L 695.5824 336.038208 
L 707.719133 320.002634 
L 707.719133 320.002634 
L 718.681343 211.895793 
L 718.681343 211.895793 
L 730.818076 282.106045 
L 730.818076 282.106045 
L 742.563302 335.618208 
L 742.563302 335.618208 
L 754.700035 172.244499 
L 754.700035 172.244499 
L 766.445261 230.083357 
L 766.445261 230.083357 
L 778.581994 335.472559 
L 778.581994 335.472559 
L 790.718727 232.664895 
L 790.718727 232.664895 
L 802.463952 367.950426 
L 802.463952 367.950426 
L 814.600685 240.24359 
L 814.600685 240.24359 
L 826.345911 254.442967 
L 826.345911 254.442967 
L 838.482644 301.750531 
L 838.482644 301.750531 
L 850.619377 337.582811 
L 850.619377 337.582811 
L 861.973095 390.673454 
L 861.973095 390.673454 
L 874.109828 518.938379 
L 874.109828 518.938379 
L 885.855053 414.292798 
L 885.855053 414.292798 
L 897.991786 340.058674 
L 897.991786 340.058674 
L 909.737012 310.039243 
L 909.737012 310.039243 
L 921.873745 414.233088 
L 921.873745 414.233088 
L 934.010478 399.794898 
L 934.010478 399.794898 
L 945.755703 217.507125 
L 945.755703 217.507125 
L 957.892436 413.665717 
L 957.892436 413.665717 
L 969.637662 372.12589 
L 969.637662 372.12589 
L 981.774395 264.205043 
L 981.774395 264.205043 
L 993.911128 326.645641 
L 993.911128 326.645641 
L 1004.873338 464.984807 
L 1004.873338 464.984807 
L 1017.010071 360.852082 
L 1017.010071 360.852082 
L 1028.755297 226.251467 
L 1028.755297 226.251467 
L 1040.89203 324.894806 
L 1040.89203 324.894806 
L 1052.637255 325.894862 
L 1052.637255 325.894862 
L 1064.773988 398.00396 
L 1064.773988 398.00396 
L 1076.910721 300.916387 
L 1076.910721 300.916387 
L 1088.655947 332.815043 
L 1088.655947 332.815043 
L 1100.79268 434.179211 
L 1100.79268 434.179211 
L 1112.537905 269.89172 
L 1112.537905 269.89172 
L 1124.674638 421.826869 
L 1124.674638 421.826869 
L 1136.811371 437.838545 
L 1136.811371 437.838545 
L 1147.773582 367.086335 
L 1147.773582 367.086335 
L 1159.910315 351.262742 
L 1159.910315 351.262742 
L 1171.65554 502.312898 
L 1171.65554 502.312898 
L 1183.792273 402.924033 
L 1183.792273 402.924033 
L 1195.537499 437.596305 
L 1195.537499 437.596305 
L 1207.674232 531.56795 
L 1207.674232 531.56795 
L 1219.810965 470.850441 
L 1219.810965 470.850441 
L 1231.556191 529.911213 
L 1231.556191 529.911213 
L 1243.692924 467.135426 
L 1243.692924 467.135426 
L 1255.438149 486.03275 
L 1255.438149 486.03275 
L 1267.574882 517.316565 
L 1267.574882 517.316565 
L 1279.711615 511.041019 
L 1279.711615 511.041019 
L 1290.673826 493.747459 
L 1302.810559 481.692845 
L 1302.810559 481.692845 
L 1314.555784 485.025246 
L 1314.555784 485.025246 
L 1326.692517 530.788109 
L 1338.437743 536.577703 
L 1350.574476 513.901362 
L 1362.711209 519.365824 
L 1374.456434 524.058543 
L 1374.456434 524.058543 
" clip-path="url(#p4d2b1b7253)" style="fill: none; stroke: #734848; stroke-width: 1.5; stroke-linecap: round"/>
   </g>
   <g id="line2d_20">
    <path d="M 123.589918 434.46979 
L 135.726651 449.670086 
L 135.726651 449.670086 
L 146.688861 463.151447 
L 146.688861 463.151447 
L 158.825594 439.558753 
L 158.825594 439.558753 
L 170.57082 376.007558 
L 170.57082 376.007558 
L 182.707553 370.274568 
L 182.707553 370.274568 
L 194.452778 270.850499 
L 194.452778 270.850499 
L 206.589511 406.208472 
L 206.589511 406.208472 
L 218.726244 343.091448 
L 218.726244 343.091448 
L 230.47147 355.290552 
L 230.47147 355.290552 
L 242.608203 316.159755 
L 242.608203 316.159755 
L 254.353428 252.483765 
L 254.353428 252.483765 
L 266.490162 313.133542 
L 266.490162 313.133542 
L 278.626895 362.513867 
L 278.626895 362.513867 
L 289.980613 257.905843 
L 289.980613 257.905843 
L 302.117346 341.275056 
L 302.117346 341.275056 
L 313.862571 194.408922 
L 313.862571 194.408922 
L 325.999304 127.53962 
L 325.999304 127.53962 
L 337.74453 211.464069 
L 337.74453 211.464069 
L 349.881263 297.25047 
L 349.881263 297.25047 
L 362.017996 256.617564 
L 362.017996 256.617564 
L 373.763221 226.908061 
L 373.763221 226.908061 
L 385.899954 277.482665 
L 385.899954 277.482665 
L 397.64518 294.234128 
L 397.64518 294.234128 
L 409.781913 354.357039 
L 409.781913 354.357039 
L 421.918646 325.624516 
L 421.918646 325.624516 
L 432.880856 355.201777 
L 432.880856 355.201777 
L 445.017589 316.576643 
L 445.017589 316.576643 
L 456.762815 377.606877 
L 456.762815 377.606877 
L 468.899548 344.856851 
L 468.899548 344.856851 
L 480.644773 361.540061 
L 480.644773 361.540061 
L 492.781506 185.544332 
L 492.781506 185.544332 
L 504.918239 223.232443 
L 504.918239 223.232443 
L 516.663465 394.925861 
L 516.663465 394.925861 
L 528.800198 255.352266 
L 528.800198 255.352266 
L 540.545423 338.181586 
L 540.545423 338.181586 
L 552.682156 228.405181 
L 552.682156 228.405181 
L 564.818889 304.128302 
L 564.818889 304.128302 
L 575.7811 371.743857 
L 575.7811 371.743857 
L 587.917833 317.568488 
L 587.917833 317.568488 
L 599.663058 328.630628 
L 599.663058 328.630628 
L 611.799791 431.187916 
L 611.799791 431.187916 
L 623.545017 323.64279 
L 623.545017 323.64279 
L 635.68175 324.820055 
L 635.68175 324.820055 
L 647.818483 346.949781 
L 647.818483 346.949781 
L 659.563708 358.007532 
L 659.563708 358.007532 
L 671.700441 342.177843 
L 671.700441 342.177843 
L 683.445667 449.133443 
L 683.445667 449.133443 
L 695.5824 341.41144 
L 695.5824 341.41144 
L 707.719133 315.169574 
L 707.719133 315.169574 
L 718.681343 216.166644 
L 718.681343 216.166644 
L 730.818076 273.810528 
L 730.818076 273.810528 
L 742.563302 331.264254 
L 742.563302 331.264254 
L 754.700035 181.454619 
L 754.700035 181.454619 
L 766.445261 236.460299 
L 766.445261 236.460299 
L 778.581994 330.534977 
L 778.581994 330.534977 
L 790.718727 242.331648 
L 790.718727 242.331648 
L 802.463952 360.8444 
L 802.463952 360.8444 
L 814.600685 245.447471 
L 814.600685 245.447471 
L 826.345911 255.911874 
L 826.345911 255.911874 
L 838.482644 306.164766 
L 838.482644 306.164766 
L 850.619377 343.865596 
L 850.619377 343.865596 
L 861.973095 390.014547 
L 861.973095 390.014547 
L 874.109828 515.402216 
L 874.109828 515.402216 
L 885.855053 416.187234 
L 885.855053 416.187234 
L 897.991786 347.082023 
L 897.991786 347.082023 
L 909.737012 317.13328 
L 909.737012 317.13328 
L 921.873745 407.09042 
L 921.873745 407.09042 
L 934.010478 393.05183 
L 934.010478 393.05183 
L 945.755703 225.338154 
L 945.755703 225.338154 
L 957.892436 402.955431 
L 957.892436 402.955431 
L 969.637662 361.587352 
L 969.637662 361.587352 
L 981.774395 263.676733 
L 981.774395 263.676733 
L 993.911128 323.512474 
L 993.911128 323.512474 
L 1004.873338 461.695183 
L 1004.873338 461.695183 
L 1017.010071 362.10644 
L 1017.010071 362.10644 
L 1028.755297 235.524593 
L 1028.755297 235.524593 
L 1040.89203 322.063368 
L 1040.89203 322.063368 
L 1052.637255 318.222192 
L 1052.637255 318.222192 
L 1064.773988 384.199745 
L 1064.773988 384.199745 
L 1076.910721 294.898838 
L 1076.910721 294.898838 
L 1088.655947 323.157891 
L 1088.655947 323.157891 
L 1100.79268 423.466118 
L 1100.79268 423.466118 
L 1112.537905 275.96346 
L 1112.537905 275.96346 
L 1124.674638 416.148836 
L 1124.674638 416.148836 
L 1136.811371 432.588014 
L 1136.811371 432.588014 
L 1147.773582 365.051849 
L 1147.773582 365.051849 
L 1159.910315 353.079485 
L 1159.910315 353.079485 
L 1171.65554 486.862673 
L 1171.65554 486.862673 
L 1183.792273 401.882869 
L 1183.792273 401.882869 
L 1195.537499 438.275921 
L 1195.537499 438.275921 
L 1207.674232 529.248126 
L 1207.674232 529.248126 
L 1219.810965 470.741969 
L 1219.810965 470.741969 
L 1231.556191 525.104431 
L 1231.556191 525.104431 
L 1243.692924 466.855141 
L 1243.692924 466.855141 
L 1255.438149 484.642007 
L 1255.438149 484.642007 
L 1267.574882 514.156266 
L 1267.574882 514.156266 
L 1279.711615 508.304055 
L 1290.673826 492.908057 
L 1302.810559 481.085404 
L 1302.810559 481.085404 
L 1314.555784 485.174062 
L 1314.555784 485.174062 
L 1326.692517 529.600069 
L 1338.437743 536.056648 
L 1350.574476 515.701822 
L 1362.711209 519.315586 
L 1374.456434 530.614528 
L 1374.456434 530.614528 
" clip-path="url(#p4d2b1b7253)" style="fill: none; stroke: #004e4a; stroke-width: 1.5; stroke-linecap: round"/>
   </g>
   <g id="line2d_21">
    <path d="M 123.589918 405.351222 
L 135.726651 448.446979 
L 135.726651 448.446979 
L 146.688861 477.041239 
L 146.688861 477.041239 
L 158.825594 433.917446 
L 158.825594 433.917446 
L 170.57082 335.48289 
L 170.57082 335.48289 
L 182.707553 347.808244 
L 182.707553 347.808244 
L 194.452778 158.906021 
L 194.452778 158.906021 
L 206.589511 405.565143 
L 206.589511 405.565143 
L 218.726244 299.144207 
L 218.726244 299.144207 
L 230.47147 362.668552 
L 230.47147 362.668552 
L 242.608203 317.561731 
L 242.608203 317.561731 
L 254.353428 239.741205 
L 254.353428 239.741205 
L 266.490162 318.800761 
L 266.490162 318.800761 
L 278.626895 422.396289 
L 278.626895 422.396289 
L 289.980613 219.303392 
L 289.980613 219.303392 
L 302.117346 359.036102 
L 302.117346 359.036102 
L 313.862571 174.717917 
L 313.862571 174.717917 
L 325.999304 52.278381 
L 325.999304 52.278381 
L 337.74453 200.202913 
L 337.74453 200.202913 
L 349.881263 308.533395 
L 349.881263 308.533395 
L 362.017996 220.052872 
L 362.017996 220.052872 
L 373.763221 182.822723 
L 373.763221 182.822723 
L 385.899954 268.764363 
L 385.899954 268.764363 
L 397.64518 299.861205 
L 397.64518 299.861205 
L 409.781913 396.518018 
L 409.781913 396.518018 
L 421.918646 333.083528 
L 421.918646 333.083528 
L 432.880856 402.655235 
L 432.880856 402.655235 
L 445.017589 318.336855 
L 445.017589 318.336855 
L 456.762815 425.324766 
L 456.762815 425.324766 
L 468.899548 391.156055 
L 468.899548 391.156055 
L 480.644773 397.969647 
L 480.644773 397.969647 
L 492.781506 129.744488 
L 492.781506 129.744488 
L 504.918239 183.977228 
L 504.918239 183.977228 
L 516.663465 475.24672 
L 516.663465 475.24672 
L 528.800198 236.447676 
L 528.800198 236.447676 
L 540.545423 368.028216 
L 540.545423 368.028216 
L 552.682156 170.393414 
L 552.682156 170.393414 
L 564.818889 327.106872 
L 564.818889 327.106872 
L 575.7811 409.474856 
L 575.7811 409.474856 
L 587.917833 293.83743 
L 587.917833 293.83743 
L 599.663058 269.386807 
L 599.663058 269.386807 
L 611.799791 455.250809 
L 611.799791 455.250809 
L 623.545017 268.091591 
L 623.545017 268.091591 
L 635.68175 279.16409 
L 635.68175 279.16409 
L 647.818483 306.007894 
L 647.818483 306.007894 
L 659.563708 308.143309 
L 659.563708 308.143309 
L 671.700441 329.426752 
L 671.700441 329.426752 
L 683.445667 472.194199 
L 683.445667 472.194199 
L 695.5824 325.28641 
L 695.5824 325.28641 
L 707.719133 318.288295 
L 707.719133 318.288295 
L 718.681343 156.500829 
L 718.681343 156.500829 
L 730.818076 280.229492 
L 730.818076 280.229492 
L 742.563302 366.397151 
L 742.563302 366.397151 
L 754.700035 127.265607 
L 754.700035 127.265607 
L 766.445261 196.149783 
L 766.445261 196.149783 
L 778.581994 362.525036 
L 778.581994 362.525036 
L 790.718727 193.859399 
L 790.718727 193.859399 
L 802.463952 422.183339 
L 802.463952 422.183339 
L 814.600685 201.710331 
L 814.600685 201.710331 
L 826.345911 218.897872 
L 826.345911 218.897872 
L 838.482644 253.910646 
L 838.482644 253.910646 
L 850.619377 326.324554 
L 850.619377 326.324554 
L 861.973095 410.674376 
L 861.973095 410.674376 
L 874.109828 585.753103 
L 874.109828 585.753103 
L 885.855053 435.601886 
L 885.855053 435.601886 
L 897.991786 315.233213 
L 897.991786 315.233213 
L 909.737012 264.089829 
L 909.737012 264.089829 
L 921.873745 454.017342 
L 921.873745 454.017342 
L 934.010478 431.485135 
L 934.010478 431.485135 
L 945.755703 164.791476 
L 945.755703 164.791476 
L 957.892436 445.806667 
L 957.892436 445.806667 
L 969.637662 394.270912 
L 969.637662 394.270912 
L 981.774395 228.358142 
L 981.774395 228.358142 
L 993.911128 298.712485 
L 993.911128 298.712485 
L 1004.873338 495.263505 
L 1004.873338 495.263505 
L 1017.010071 353.619418 
L 1017.010071 353.619418 
L 1028.755297 161.57354 
L 1028.755297 161.57354 
L 1040.89203 317.442097 
L 1040.89203 317.442097 
L 1052.637255 352.590834 
L 1052.637255 352.590834 
L 1064.773988 437.778885 
L 1064.773988 437.778885 
L 1076.910721 302.335849 
L 1076.910721 302.335849 
L 1088.655947 340.68168 
L 1088.655947 340.68168 
L 1100.79268 482.574065 
L 1100.79268 482.574065 
L 1112.537905 231.051981 
L 1112.537905 231.051981 
L 1124.674638 443.788431 
L 1124.674638 443.788431 
L 1136.811371 458.958618 
L 1136.811371 458.958618 
L 1147.773582 348.842912 
L 1147.773582 348.842912 
L 1159.910315 329.029091 
L 1159.910315 329.029091 
L 1171.65554 554.42579 
L 1171.65554 554.42579 
L 1183.792273 393.09468 
L 1183.792273 393.09468 
L 1195.537499 445.189568 
L 1195.537499 445.189568 
L 1207.674232 548.903897 
L 1207.674232 548.903897 
L 1219.810965 477.105141 
L 1219.810965 477.105141 
L 1231.556191 551.288515 
L 1231.556191 551.288515 
L 1243.692924 470.087792 
L 1243.692924 470.087792 
L 1255.438149 489.909285 
L 1255.438149 489.909285 
L 1267.574882 537.087769 
L 1267.574882 537.087769 
L 1279.711615 524.246254 
L 1279.711615 524.246254 
L 1290.673826 485.814141 
L 1302.810559 482.136535 
L 1302.810559 482.136535 
L 1314.555784 481.709234 
L 1314.555784 481.709234 
L 1326.692517 534.005748 
L 1338.437743 538.916736 
L 1350.574476 502.188233 
L 1362.711209 516.192428 
L 1374.456434 535.944685 
L 1374.456434 535.944685 
" clip-path="url(#p4d2b1b7253)" style="fill: none; stroke: #c17150; stroke-width: 1.5; stroke-linecap: round"/>
   </g>
   <g id="patch_3">
    <path d="M 61.046592 612.426839 
L 61.046592 25.604645 
" style="fill: none; stroke: #808080; stroke-width: 0.8; stroke-linejoin: miter; stroke-linecap: square"/>
   </g>
   <g id="patch_4">
    <path d="M 61.046592 612.426839 
L 1436.99976 612.426839 
" style="fill: none; stroke: #808080; stroke-width: 0.8; stroke-linejoin: miter; stroke-linecap: square"/>
   </g>
   <g id="text_20">
    <!-- Out of Sample -->
    <g style="fill: #262626" transform="translate(679.30746 19.604645) scale(0.24 -0.24)">
     <defs>
      <path id="CMR17-4f" d="M 4307 2135 
C 4307 3437 3366 4416 2304 4416 
C 1216 4416 294 3424 294 2135 
C 294 845 1229 -128 2298 -128 
C 3392 -128 4307 864 4307 2135 
z
M 2304 -13 
C 1574 -13 781 711 781 2217 
C 781 3716 1651 4301 2298 4301 
C 2976 4301 3821 3698 3821 2217 
C 3821 686 3008 -13 2304 -13 
z
" transform="scale(0.015625)"/>
      <path id="CMR17-66" d="M 979 2560 
L 1709 2560 
L 1709 2725 
L 966 2725 
L 966 3494 
C 966 4022 1235 4352 1510 4352 
C 1594 4352 1690 4327 1754 4282 
C 1702 4269 1568 4225 1568 4067 
C 1568 3901 1696 3850 1786 3850 
C 1875 3850 2003 3901 2003 4067 
C 2003 4308 1773 4454 1517 4454 
C 1152 4454 653 4156 653 3481 
L 653 2725 
L 141 2725 
L 141 2560 
L 653 2560 
L 653 427 
C 653 184 627 153 218 153 
L 218 -13 
C 371 0 666 0 832 0 
C 1018 0 1344 0 1517 -13 
L 1517 153 
C 1056 153 979 153 979 439 
L 979 2560 
z
" transform="scale(0.015625)"/>
      <path id="CMR17-53" d="M 2803 4290 
C 2803 4404 2797 4411 2758 4411 
C 2720 4411 2707 4385 2682 4328 
L 2490 3907 
C 2246 4257 1875 4416 1472 4416 
C 819 4416 294 3901 294 3253 
C 294 3056 339 2776 557 2510 
C 794 2218 1018 2167 1530 2033 
C 1722 1982 2042 1899 2106 1874 
C 2470 1722 2662 1341 2662 985 
C 2662 527 2336 38 1779 38 
C 1094 38 454 419 410 1311 
C 403 1413 397 1419 352 1419 
C 301 1419 294 1413 294 1285 
L 294 -1 
C 294 -115 301 -122 339 -122 
C 384 -122 397 -90 486 108 
C 493 127 493 140 614 381 
C 934 -39 1472 -128 1779 -128 
C 2477 -128 2970 451 2970 1124 
C 2970 1454 2848 1708 2778 1823 
C 2509 2230 2221 2306 1914 2382 
C 1869 2402 1856 2402 1498 2490 
C 1152 2579 1005 2624 845 2796 
C 666 2992 602 3196 602 3399 
C 602 3812 934 4263 1478 4263 
C 2157 4263 2579 3786 2675 2993 
C 2694 2878 2701 2872 2746 2872 
C 2803 2872 2803 2891 2803 2999 
L 2803 4290 
z
" transform="scale(0.015625)"/>
      <path id="CMR17-6d" d="M 4326 1933 
C 4326 2252 4269 2790 3507 2790 
C 3072 2790 2771 2496 2656 2151 
L 2650 2151 
C 2573 2676 2195 2790 1837 2790 
C 1331 2790 1069 2400 973 2144 
L 966 2144 
L 966 2790 
L 211 2720 
L 211 2554 
C 589 2554 646 2515 646 2208 
L 646 428 
C 646 184 621 153 211 153 
L 211 -13 
C 365 0 646 0 813 0 
C 979 0 1267 0 1421 -13 
L 1421 153 
C 1011 153 986 178 986 428 
L 986 1658 
C 986 2247 1344 2688 1792 2688 
C 2266 2688 2317 2266 2317 1958 
L 2317 428 
C 2317 184 2291 153 1882 153 
L 1882 -13 
C 2035 0 2317 0 2483 0 
C 2650 0 2938 0 3091 -13 
L 3091 153 
C 2682 153 2656 178 2656 428 
L 2656 1658 
C 2656 2247 3014 2688 3462 2688 
C 3936 2688 3987 2266 3987 1958 
L 3987 428 
C 3987 184 3962 153 3552 153 
L 3552 -13 
C 3706 0 3987 0 4154 0 
C 4320 0 4608 0 4762 -13 
L 4762 153 
C 4352 153 4326 178 4326 428 
L 4326 1933 
z
" transform="scale(0.015625)"/>
      <path id="CMR17-70" d="M 1408 -1063 
C 998 -1063 973 -1037 973 -789 
L 973 402 
C 1158 134 1427 -38 1766 -38 
C 2406 -38 3053 523 3053 1388 
C 3053 2191 2496 2802 1837 2802 
C 1453 2802 1139 2592 960 2338 
L 960 2802 
L 198 2732 
L 198 2567 
C 576 2567 634 2528 634 2223 
L 634 -789 
C 634 -1031 608 -1063 198 -1063 
L 198 -1228 
C 352 -1216 634 -1216 800 -1216 
C 966 -1216 1254 -1216 1408 -1228 
L 1408 -1063 
z
M 973 2012 
C 973 2102 973 2235 1222 2471 
C 1254 2497 1472 2688 1792 2688 
C 2259 2688 2643 2108 2643 1382 
C 2643 656 2234 64 1728 64 
C 1498 64 1248 172 1056 472 
C 973 612 973 650 973 752 
L 973 2012 
z
" transform="scale(0.015625)"/>
     </defs>
     <use xlink:href="#CMR17-4f" transform="scale(0.996264)"/>
     <use xlink:href="#CMR17-75" transform="translate(71.714788 0) scale(0.996264)"/>
     <use xlink:href="#CMR17-74" transform="translate(122.610158 0) scale(0.996264)"/>
     <use xlink:href="#CMR17-6f" transform="translate(187.966892 0) scale(0.996264)"/>
     <use xlink:href="#CMR17-66" transform="translate(233.657369 0) scale(0.996264)"/>
     <use xlink:href="#CMR17-53" transform="translate(291.206848 0) scale(0.996264)"/>
     <use xlink:href="#CMR17-61" transform="translate(342.102218 0) scale(0.996264)"/>
     <use xlink:href="#CMR17-6d" transform="translate(387.792695 0) scale(0.996264)"/>
     <use xlink:href="#CMR17-70" transform="translate(464.712285 0) scale(0.996264)"/>
     <use xlink:href="#CMR17-6c" transform="translate(515.607655 0) scale(0.996264)"/>
     <use xlink:href="#CMR17-65" transform="translate(540.478713 0) scale(0.996264)"/>
    </g>
   </g>
   <g id="legend_1">
    <g id="patch_5">
     <path d="M 274.190171 716.999724 
L 1223.856181 716.999724 
Q 1227.856181 716.999724 1227.856181 712.999724 
L 1227.856181 685.109059 
Q 1227.856181 681.109059 1223.856181 681.109059 
L 274.190171 681.109059 
Q 270.190171 681.109059 270.190171 685.109059 
L 270.190171 712.999724 
Q 270.190171 716.999724 274.190171 716.999724 
z
" style="fill: #ffffff; opacity: 0.8"/>
    </g>
    <g id="line2d_22">
     <path d="M 278.190171 697.035081 
L 298.190171 697.035081 
L 318.190171 697.035081 
" style="fill: none; stroke-dasharray: 5.55,2.4; stroke-dashoffset: 0; stroke: #006e64; stroke-width: 1.5"/>
    </g>
    <g id="text_21">
     <!-- Actual -->
     <g style="fill: #262626" transform="translate(334.190171 704.035081) scale(0.2 -0.2)">
      <defs>
       <path id="CMR17-41" d="M 2323 4378 
C 2291 4461 2278 4480 2214 4480 
C 2150 4480 2138 4461 2106 4378 
L 749 566 
C 627 223 371 153 147 153 
L 147 -13 
C 262 0 518 0 640 0 
C 800 0 1056 0 1210 -13 
L 1210 153 
C 909 153 864 361 864 439 
C 864 497 877 530 890 569 
L 1229 1536 
L 2906 1536 
L 3290 442 
C 3322 365 3322 352 3322 327 
C 3322 153 3046 153 2925 153 
L 2925 0 
C 3110 0 3443 0 3642 0 
C 3808 0 4128 0 4282 -13 
L 4282 153 
C 3942 153 3827 153 3744 387 
L 2323 4378 
z
M 2067 3893 
L 2848 1702 
L 1286 1702 
L 2067 3893 
z
" transform="scale(0.015625)"/>
       <path id="CMR17-63" d="M 2234 2240 
C 2112 2240 1933 2240 1933 2017 
C 1933 1838 2080 1787 2163 1787 
C 2208 1787 2394 1807 2394 2024 
C 2394 2467 1958 2803 1466 2803 
C 787 2803 211 2178 211 1363 
C 211 516 813 -64 1466 -64 
C 2259 -64 2458 677 2458 748 
C 2458 774 2451 793 2406 793 
C 2362 793 2355 787 2330 703 
C 2163 180 1798 51 1523 51 
C 1114 51 621 427 621 1369 
C 621 2338 1094 2688 1472 2688 
C 1722 2688 2093 2573 2234 2240 
z
" transform="scale(0.015625)"/>
      </defs>
      <use xlink:href="#CMR17-41" transform="scale(0.996264)"/>
      <use xlink:href="#CMR17-63" transform="translate(69.07243 0) scale(0.996264)"/>
      <use xlink:href="#CMR17-74" transform="translate(109.55809 0) scale(0.996264)"/>
      <use xlink:href="#CMR17-75" transform="translate(144.838858 0) scale(0.996264)"/>
      <use xlink:href="#CMR17-61" transform="translate(195.734228 0) scale(0.996264)"/>
      <use xlink:href="#CMR17-6c" transform="translate(241.424705 0) scale(0.996264)"/>
     </g>
    </g>
    <g id="line2d_23">
     <path d="M 427.449297 697.035081 
L 447.449297 697.035081 
L 467.449297 697.035081 
" style="fill: none; stroke: #734848; stroke-width: 1.5; stroke-linecap: round"/>
    </g>
    <g id="text_22">
     <!-- Predicted (Average) -->
     <g style="fill: #262626" transform="translate(483.449297 704.035081) scale(0.2 -0.2)">
      <defs>
       <path id="CMR17-50" d="M 1267 2042 
L 2291 2042 
C 3117 2042 3718 2578 3718 3184 
C 3718 3791 3130 4352 2291 4352 
L 333 4352 
L 333 4186 
C 774 4186 845 4186 845 3899 
L 845 446 
C 845 160 774 160 333 160 
L 333 0 
C 518 0 858 0 1056 0 
C 1254 0 1594 0 1779 0 
L 1779 160 
C 1338 160 1267 160 1267 446 
L 1267 2042 
z
M 1254 2176 
L 1254 3938 
C 1254 4155 1267 4186 1523 4186 
L 2170 4186 
C 2995 4186 3232 3714 3232 3184 
C 3232 2604 2950 2176 2170 2176 
L 1254 2176 
z
" transform="scale(0.015625)"/>
       <path id="CMR17-64" d="M 1869 4326 
L 1869 4160 
C 2246 4160 2304 4122 2304 3820 
L 2304 2345 
C 2278 2377 2016 2790 1498 2790 
C 845 2790 211 2208 211 1364 
C 211 525 806 -64 1434 -64 
C 1978 -64 2259 337 2291 380 
L 2291 -63 
L 3066 -63 
L 3066 128 
C 2688 128 2630 166 2630 473 
L 2630 4396 
L 1869 4326 
z
M 2291 755 
C 2291 563 2176 390 2029 262 
C 1811 70 1594 38 1472 38 
C 1286 38 621 134 621 1356 
C 621 2612 1363 2688 1530 2688 
C 1824 2688 2061 2522 2208 2291 
C 2291 2157 2291 2138 2291 2023 
L 2291 755 
z
" transform="scale(0.015625)"/>
       <path id="CMR17-28" d="M 1958 -1561 
C 1958 -1555 1958 -1542 1939 -1523 
C 1645 -1224 858 -407 858 1581 
C 858 3569 1632 4379 1946 4697 
C 1946 4704 1958 4717 1958 4736 
C 1958 4755 1939 4768 1914 4768 
C 1843 4768 1299 4296 986 3594 
C 666 2887 576 2199 576 1588 
C 576 1128 621 351 1005 -471 
C 1312 -1135 1837 -1600 1914 -1600 
C 1946 -1600 1958 -1587 1958 -1561 
z
" transform="scale(0.015625)"/>
       <path id="CMR17-76" d="M 2502 2163 
C 2560 2304 2662 2560 3034 2560 
L 3034 2726 
C 2912 2726 2752 2726 2630 2726 
C 2496 2726 2285 2726 2157 2732 
L 2157 2566 
C 2317 2553 2406 2477 2406 2311 
C 2406 2253 2406 2240 2368 2151 
L 1664 377 
L 902 2286 
C 864 2369 864 2381 864 2407 
C 864 2560 1075 2560 1171 2560 
L 1171 2732 
C 1018 2726 736 2726 576 2726 
C 403 2726 205 2726 64 2732 
L 64 2560 
C 307 2560 442 2560 518 2362 
L 1446 44 
C 1485 -51 1491 -64 1549 -64 
C 1606 -64 1613 -51 1651 44 
L 2502 2163 
z
" transform="scale(0.015625)"/>
       <path id="CMR17-67" d="M 710 1164 
C 832 1068 1043 960 1299 960 
C 1805 960 2240 1357 2240 1888 
C 2240 2054 2189 2310 1997 2509 
C 2176 2692 2438 2752 2586 2752 
C 2611 2752 2650 2752 2682 2734 
C 2656 2728 2598 2703 2598 2605 
C 2598 2527 2656 2471 2739 2471 
C 2835 2471 2886 2533 2886 2614 
C 2886 2731 2790 2854 2586 2854 
C 2330 2854 2106 2738 1926 2580 
C 1734 2753 1504 2816 1299 2816 
C 794 2816 358 2419 358 1888 
C 358 1522 570 1292 634 1228 
C 442 1004 442 743 442 711 
C 442 545 506 302 723 168 
C 390 85 128 -169 128 -486 
C 128 -943 736 -1280 1466 -1280 
C 2170 -1280 2803 -956 2803 -479 
C 2803 384 1856 384 1363 384 
C 1216 384 954 384 922 391 
C 723 423 589 602 589 826 
C 589 883 589 1024 710 1164 
z
M 1299 1068 
C 736 1068 736 1760 736 1889 
C 736 2016 736 2708 1299 2708 
C 1862 2708 1862 2016 1862 1889 
C 1862 1760 1862 1068 1299 1068 
z
M 1466 -1171 
C 826 -1171 384 -835 384 -486 
C 384 -289 493 -105 634 -4 
C 794 104 858 104 1293 104 
C 1818 104 2547 104 2547 -486 
C 2547 -835 2106 -1171 1466 -1171 
z
" transform="scale(0.015625)"/>
       <path id="CMR17-29" d="M 1683 1581 
C 1683 2040 1638 2817 1254 3639 
C 947 4303 422 4768 346 4768 
C 326 4768 301 4761 301 4729 
C 301 4717 307 4710 314 4697 
C 621 4378 1402 3568 1402 1584 
C 1402 -407 627 -1217 314 -1537 
C 307 -1549 301 -1556 301 -1568 
C 301 -1600 326 -1600 346 -1600 
C 416 -1600 960 -1128 1274 -426 
C 1594 281 1683 969 1683 1581 
z
" transform="scale(0.015625)"/>
      </defs>
      <use xlink:href="#CMR17-50" transform="scale(0.996264)"/>
      <use xlink:href="#CMR17-72" transform="translate(62.586301 0) scale(0.996264)"/>
      <use xlink:href="#CMR17-65" transform="translate(97.867068 0) scale(0.996264)"/>
      <use xlink:href="#CMR17-64" transform="translate(138.352729 0) scale(0.996264)"/>
      <use xlink:href="#CMR17-69" transform="translate(189.248099 0) scale(0.996264)"/>
      <use xlink:href="#CMR17-63" transform="translate(214.119157 0) scale(0.996264)"/>
      <use xlink:href="#CMR17-74" transform="translate(254.604818 0) scale(0.996264)"/>
      <use xlink:href="#CMR17-65" transform="translate(289.885585 0) scale(0.996264)"/>
      <use xlink:href="#CMR17-64" transform="translate(330.371246 0) scale(0.996264)"/>
      <use xlink:href="#CMR17-28" transform="translate(411.342582 0) scale(0.996264)"/>
      <use xlink:href="#CMR17-41" transform="translate(446.62335 0) scale(0.996264)"/>
      <use xlink:href="#CMR17-76" transform="translate(515.695779 0) scale(0.996264)"/>
      <use xlink:href="#CMR17-65" transform="translate(561.386241 0) scale(0.996264)"/>
      <use xlink:href="#CMR17-72" transform="translate(601.871902 0) scale(0.996264)"/>
      <use xlink:href="#CMR17-61" transform="translate(637.15267 0) scale(0.996264)"/>
      <use xlink:href="#CMR17-67" transform="translate(682.843147 0) scale(0.996264)"/>
      <use xlink:href="#CMR17-65" transform="translate(728.533624 0) scale(0.996264)"/>
      <use xlink:href="#CMR17-29" transform="translate(769.019284 0) scale(0.996264)"/>
     </g>
    </g>
    <g id="line2d_24">
     <path d="M 684.309207 697.035081 
L 704.309207 697.035081 
L 724.309207 697.035081 
" style="fill: none; stroke: #004e4a; stroke-width: 1.5; stroke-linecap: round"/>
    </g>
    <g id="text_23">
     <!-- Predicted (Bates and Granger) -->
     <g style="fill: #262626" transform="translate(740.309207 704.035081) scale(0.2 -0.2)">
      <defs>
       <path id="CMR17-42" d="M 333 4352 
L 333 4186 
C 774 4186 845 4186 845 3900 
L 845 452 
C 845 166 774 166 333 166 
L 333 0 
L 2534 0 
C 3354 0 3885 583 3885 1164 
C 3885 1741 3360 2233 2675 2233 
C 3290 2356 3718 2771 3718 3264 
C 3718 3802 3194 4352 2368 4352 
L 333 4352 
z
M 1248 2304 
L 1248 3937 
C 1248 4155 1261 4186 1517 4186 
L 2336 4186 
C 2970 4186 3251 3674 3251 3277 
C 3251 2791 2861 2304 2170 2304 
L 1248 2304 
z
M 1517 166 
C 1261 166 1248 197 1248 413 
L 1248 2202 
L 2432 2202 
C 3091 2202 3411 1625 3411 1162 
C 3411 699 3046 166 2349 166 
L 1517 166 
z
" transform="scale(0.015625)"/>
       <path id="CMR17-73" d="M 1978 2697 
C 1978 2813 1971 2819 1933 2819 
C 1907 2819 1901 2813 1824 2717 
C 1805 2691 1747 2626 1728 2601 
C 1523 2819 1235 2819 1126 2819 
C 416 2819 160 2447 160 2076 
C 160 1498 813 1365 998 1325 
C 1402 1243 1542 1217 1677 1101 
C 1760 1025 1901 884 1901 654 
C 1901 384 1747 38 1158 38 
C 602 38 403 460 288 1021 
C 269 1110 269 1117 218 1117 
C 166 1117 160 1110 160 983 
L 160 63 
C 160 -51 166 -58 205 -58 
C 237 -58 243 -51 275 0 
C 314 57 410 211 448 276 
C 576 103 800 -64 1158 -64 
C 1792 -64 2131 283 2131 784 
C 2131 1112 1958 1285 1875 1362 
C 1683 1561 1459 1606 1190 1657 
C 838 1735 390 1825 390 2217 
C 390 2383 480 2737 1126 2737 
C 1811 2737 1850 2094 1862 1888 
C 1869 1856 1901 1849 1920 1849 
C 1978 1849 1978 1869 1978 1978 
L 1978 2697 
z
" transform="scale(0.015625)"/>
       <path id="CMR17-47" d="M 3974 1233 
C 3974 1473 3994 1505 4390 1505 
L 4390 1670 
C 4237 1664 3891 1664 3718 1664 
C 3539 1664 3040 1664 2797 1664 
L 2797 1505 
L 2989 1505 
C 3539 1505 3552 1434 3552 1201 
L 3552 774 
C 3552 63 2720 63 2522 63 
C 1862 63 781 511 781 2160 
C 781 3808 1843 4250 2464 4250 
C 3187 4250 3712 3626 3834 2741 
C 3846 2664 3846 2651 3904 2651 
C 3974 2651 3974 2664 3974 2779 
L 3974 4288 
C 3974 4402 3968 4409 3930 4409 
C 3904 4409 3898 4402 3853 4326 
L 3571 3791 
C 3258 4187 2874 4416 2381 4416 
C 1286 4416 294 3456 294 2148 
C 294 845 1267 -128 2394 -128 
C 2912 -128 3418 56 3616 417 
C 3725 158 3904 -20 3936 -20 
C 3968 -20 3974 -13 3974 100 
L 3974 1233 
z
" transform="scale(0.015625)"/>
      </defs>
      <use xlink:href="#CMR17-50" transform="scale(0.996264)"/>
      <use xlink:href="#CMR17-72" transform="translate(62.586301 0) scale(0.996264)"/>
      <use xlink:href="#CMR17-65" transform="translate(97.867068 0) scale(0.996264)"/>
      <use xlink:href="#CMR17-64" transform="translate(138.352729 0) scale(0.996264)"/>
      <use xlink:href="#CMR17-69" transform="translate(189.248099 0) scale(0.996264)"/>
      <use xlink:href="#CMR17-63" transform="translate(214.119157 0) scale(0.996264)"/>
      <use xlink:href="#CMR17-74" transform="translate(254.604818 0) scale(0.996264)"/>
      <use xlink:href="#CMR17-65" transform="translate(289.885585 0) scale(0.996264)"/>
      <use xlink:href="#CMR17-64" transform="translate(330.371246 0) scale(0.996264)"/>
      <use xlink:href="#CMR17-28" transform="translate(411.342582 0) scale(0.996264)"/>
      <use xlink:href="#CMR17-42" transform="translate(446.62335 0) scale(0.996264)"/>
      <use xlink:href="#CMR17-61" transform="translate(511.812104 0) scale(0.996264)"/>
      <use xlink:href="#CMR17-74" transform="translate(557.502581 0) scale(0.996264)"/>
      <use xlink:href="#CMR17-65" transform="translate(592.783349 0) scale(0.996264)"/>
      <use xlink:href="#CMR17-73" transform="translate(633.26901 0) scale(0.996264)"/>
      <use xlink:href="#CMR17-61" transform="translate(699.146314 0) scale(0.996264)"/>
      <use xlink:href="#CMR17-6e" transform="translate(744.836791 0) scale(0.996264)"/>
      <use xlink:href="#CMR17-64" transform="translate(795.73216 0) scale(0.996264)"/>
      <use xlink:href="#CMR17-47" transform="translate(876.703497 0) scale(0.996264)"/>
      <use xlink:href="#CMR17-72" transform="translate(949.058842 0) scale(0.996264)"/>
      <use xlink:href="#CMR17-61" transform="translate(984.33961 0) scale(0.996264)"/>
      <use xlink:href="#CMR17-6e" transform="translate(1030.030087 0) scale(0.996264)"/>
      <use xlink:href="#CMR17-67" transform="translate(1080.925457 0) scale(0.996264)"/>
      <use xlink:href="#CMR17-65" transform="translate(1126.615934 0) scale(0.996264)"/>
      <use xlink:href="#CMR17-72" transform="translate(1167.101595 0) scale(0.996264)"/>
      <use xlink:href="#CMR17-29" transform="translate(1202.382363 0) scale(0.996264)"/>
     </g>
    </g>
    <g id="line2d_25">
     <path d="M 1027.841714 697.035081 
L 1047.841714 697.035081 
L 1067.841714 697.035081 
" style="fill: none; stroke: #c17150; stroke-width: 1.5; stroke-linecap: round"/>
    </g>
    <g id="text_24">
     <!-- Predicted (MSE) -->
     <g style="fill: #262626" transform="translate(1083.841714 704.035081) scale(0.2 -0.2)">
      <defs>
       <path id="CMR17-4d" d="M 1338 4224 
C 1299 4320 1293 4320 1158 4320 
L 339 4320 
L 339 4160 
C 781 4160 851 4160 851 3875 
L 851 610 
C 851 451 851 153 339 153 
L 339 -13 
C 486 0 755 0 915 0 
C 1075 0 1344 0 1491 -13 
L 1491 153 
C 979 153 979 451 979 610 
L 979 4135 
L 986 4135 
L 2490 89 
C 2515 25 2528 -13 2579 -13 
C 2630 -13 2643 25 2669 89 
L 4186 4166 
L 4192 4166 
L 4192 438 
C 4192 153 4122 153 3680 153 
L 3680 -13 
C 3853 0 4198 0 4384 0 
C 4570 0 4922 0 5094 -13 
L 5094 153 
C 4653 153 4582 153 4582 438 
L 4582 3875 
C 4582 4160 4653 4160 5094 4160 
L 5094 4320 
L 4282 4320 
C 4147 4320 4141 4314 4102 4218 
L 2720 502 
L 1338 4224 
z
" transform="scale(0.015625)"/>
       <path id="CMR17-45" d="M 3885 1615 
L 3770 1615 
C 3629 676 3546 166 2419 166 
L 1530 166 
C 1274 166 1261 197 1261 414 
L 1261 2176 
L 1862 2176 
C 2464 2176 2522 1960 2522 1430 
L 2637 1430 
L 2637 3081 
L 2522 3081 
C 2522 2557 2464 2342 1862 2342 
L 1261 2342 
L 1261 3913 
C 1261 4128 1274 4160 1530 4160 
L 2406 4160 
C 3398 4160 3514 3769 3603 2929 
L 3718 2929 
L 3565 4325 
L 326 4325 
L 326 4160 
C 768 4160 838 4160 838 3874 
L 838 451 
C 838 166 768 166 326 166 
L 326 0 
L 3654 0 
L 3885 1615 
z
" transform="scale(0.015625)"/>
      </defs>
      <use xlink:href="#CMR17-50" transform="scale(0.996264)"/>
      <use xlink:href="#CMR17-72" transform="translate(62.586301 0) scale(0.996264)"/>
      <use xlink:href="#CMR17-65" transform="translate(97.867068 0) scale(0.996264)"/>
      <use xlink:href="#CMR17-64" transform="translate(138.352729 0) scale(0.996264)"/>
      <use xlink:href="#CMR17-69" transform="translate(189.248099 0) scale(0.996264)"/>
      <use xlink:href="#CMR17-63" transform="translate(214.119157 0) scale(0.996264)"/>
      <use xlink:href="#CMR17-74" transform="translate(254.604818 0) scale(0.996264)"/>
      <use xlink:href="#CMR17-65" transform="translate(289.885585 0) scale(0.996264)"/>
      <use xlink:href="#CMR17-64" transform="translate(330.371246 0) scale(0.996264)"/>
      <use xlink:href="#CMR17-28" transform="translate(411.342582 0) scale(0.996264)"/>
      <use xlink:href="#CMR17-4d" transform="translate(446.62335 0) scale(0.996264)"/>
      <use xlink:href="#CMR17-53" transform="translate(531.31029 0) scale(0.996264)"/>
      <use xlink:href="#CMR17-45" transform="translate(582.20566 0) scale(0.996264)"/>
      <use xlink:href="#CMR17-29" transform="translate(644.791961 0) scale(0.996264)"/>
     </g>
    </g>
   </g>
  </g>
 </g>
 <defs>
  <clipPath id="p4d2b1b7253">
   <rect x="61.046592" y="25.604645" width="1375.953168" height="586.822194"/>
  </clipPath>
 </defs>
</svg>
