<?xml version="1.0" encoding="utf-8" standalone="no"?>
<!DOCTYPE svg PUBLIC "-//W3C//DTD SVG 1.1//EN"
  "http://www.w3.org/Graphics/SVG/1.1/DTD/svg11.dtd">
<svg xmlns:xlink="http://www.w3.org/1999/xlink" width="1440pt" height="720pt" viewBox="0 0 1440 720" xmlns="http://www.w3.org/2000/svg" version="1.1">
 <metadata>
  <rdf:RDF xmlns:dc="http://purl.org/dc/elements/1.1/" xmlns:cc="http://creativecommons.org/ns#" xmlns:rdf="http://www.w3.org/1999/02/22-rdf-syntax-ns#">
   <cc:Work>
    <dc:type rdf:resource="http://purl.org/dc/dcmitype/StillImage"/>
    <dc:date>2023-11-02T09:59:50.653569</dc:date>
    <dc:format>image/svg+xml</dc:format>
    <dc:creator>
     <cc:Agent>
      <dc:title>Matplotlib v3.8.0, https://matplotlib.org/</dc:title>
     </cc:Agent>
    </dc:creator>
   </cc:Work>
  </rdf:RDF>
 </metadata>
 <defs>
  <style type="text/css">*{stroke-linejoin: round; stroke-linecap: butt}</style>
 </defs>
 <g id="figure_1">
  <g id="patch_1">
   <path d="M 0 720 
L 1440 720 
L 1440 0 
L 0 0 
z
" style="fill: #ffffff"/>
  </g>
  <g id="axes_1">
   <g id="patch_2">
    <path d="M 37.067331 632.515723 
L 1436.99976 632.515723 
L 1436.99976 17.30242 
L 37.067331 17.30242 
z
" style="fill: #ffffff"/>
   </g>
   <g id="matplotlib.axis_1">
    <g id="xtick_1">
     <g id="line2d_1">
      <path d="M 100.700623 632.515723 
L 100.700623 17.30242 
" clip-path="url(#pa918af3565)" style="fill: none; stroke: #cccccc; stroke-opacity: 0.5; stroke-width: 0.8; stroke-linecap: round"/>
     </g>
     <g id="text_1">
      <!-- $\mathdefault{2015}$ -->
      <g transform="translate(90.737953 642.934221) scale(0.1 -0.1)">
       <defs>
        <path id="CMR17-32" d="M 2669 989 
L 2554 989 
C 2490 536 2438 459 2413 420 
C 2381 369 1920 369 1830 369 
L 602 369 
C 832 619 1280 1072 1824 1597 
C 2214 1967 2669 2402 2669 3035 
C 2669 3790 2067 4224 1395 4224 
C 691 4224 262 3604 262 3030 
C 262 2780 448 2748 525 2748 
C 589 2748 781 2787 781 3010 
C 781 3207 614 3264 525 3264 
C 486 3264 448 3258 422 3245 
C 544 3790 915 4058 1306 4058 
C 1862 4058 2227 3617 2227 3035 
C 2227 2479 1901 2000 1536 1584 
L 262 146 
L 262 0 
L 2515 0 
L 2669 989 
z
" transform="scale(0.015625)"/>
        <path id="CMR17-30" d="M 2688 2025 
C 2688 2416 2682 3080 2413 3591 
C 2176 4039 1798 4198 1466 4198 
C 1158 4198 768 4058 525 3597 
C 269 3118 243 2524 243 2025 
C 243 1661 250 1106 448 619 
C 723 -39 1216 -128 1466 -128 
C 1760 -128 2208 -7 2470 600 
C 2662 1042 2688 1559 2688 2025 
z
M 1466 -26 
C 1056 -26 813 325 723 812 
C 653 1188 653 1738 653 2096 
C 653 2588 653 2997 736 3387 
C 858 3929 1216 4096 1466 4096 
C 1728 4096 2067 3923 2189 3400 
C 2272 3036 2278 2607 2278 2096 
C 2278 1680 2278 1169 2202 792 
C 2067 95 1690 -26 1466 -26 
z
" transform="scale(0.015625)"/>
        <path id="CMR17-31" d="M 1702 4058 
C 1702 4192 1696 4192 1606 4192 
C 1357 3916 979 3827 621 3827 
C 602 3827 570 3827 563 3808 
C 557 3795 557 3782 557 3648 
C 755 3648 1088 3686 1344 3839 
L 1344 461 
C 1344 236 1331 160 781 160 
L 589 160 
L 589 0 
C 896 0 1216 0 1523 0 
C 1830 0 2150 0 2458 0 
L 2458 160 
L 2266 160 
C 1715 160 1702 230 1702 458 
L 1702 4058 
z
" transform="scale(0.015625)"/>
        <path id="CMR17-35" d="M 730 3692 
C 794 3666 1056 3584 1325 3584 
C 1920 3584 2246 3911 2432 4100 
C 2432 4157 2432 4192 2394 4192 
C 2387 4192 2374 4192 2323 4163 
C 2099 4058 1837 3973 1517 3973 
C 1325 3973 1037 3999 723 4139 
C 653 4171 640 4171 634 4171 
C 602 4171 595 4164 595 4037 
L 595 2203 
C 595 2089 595 2057 659 2057 
C 691 2057 704 2070 736 2114 
C 941 2401 1222 2522 1542 2522 
C 1766 2522 2246 2382 2246 1289 
C 2246 1085 2246 715 2054 421 
C 1894 159 1645 25 1370 25 
C 947 25 518 320 403 814 
C 429 807 480 795 506 795 
C 589 795 749 840 749 1038 
C 749 1210 627 1280 506 1280 
C 358 1280 262 1190 262 1011 
C 262 454 704 -128 1382 -128 
C 2042 -128 2669 440 2669 1264 
C 2669 2030 2170 2624 1549 2624 
C 1222 2624 947 2503 730 2274 
L 730 3692 
z
" transform="scale(0.015625)"/>
       </defs>
       <use xlink:href="#CMR17-32" transform="scale(0.996264)"/>
       <use xlink:href="#CMR17-30" transform="translate(45.690477 0) scale(0.996264)"/>
       <use xlink:href="#CMR17-31" transform="translate(91.380954 0) scale(0.996264)"/>
       <use xlink:href="#CMR17-35" transform="translate(137.071431 0) scale(0.996264)"/>
      </g>
     </g>
    </g>
    <g id="xtick_2">
     <g id="line2d_2">
      <path d="M 247.469354 632.515723 
L 247.469354 17.30242 
" clip-path="url(#pa918af3565)" style="fill: none; stroke: #cccccc; stroke-opacity: 0.5; stroke-width: 0.8; stroke-linecap: round"/>
     </g>
     <g id="text_2">
      <!-- $\mathdefault{2016}$ -->
      <g transform="translate(237.506684 642.934221) scale(0.1 -0.1)">
       <defs>
        <path id="CMR17-36" d="M 678 2176 
C 678 3690 1395 4032 1811 4032 
C 1946 4032 2272 4009 2400 3776 
C 2298 3776 2106 3776 2106 3553 
C 2106 3381 2246 3323 2336 3323 
C 2394 3323 2566 3348 2566 3560 
C 2566 3954 2246 4179 1805 4179 
C 1043 4179 243 3390 243 1984 
C 243 253 966 -128 1478 -128 
C 2099 -128 2688 427 2688 1283 
C 2688 2081 2170 2662 1517 2662 
C 1126 2662 838 2407 678 1960 
L 678 2176 
z
M 1478 25 
C 691 25 691 1200 691 1436 
C 691 1896 909 2560 1504 2560 
C 1613 2560 1926 2560 2138 2120 
C 2253 1870 2253 1609 2253 1289 
C 2253 944 2253 690 2118 434 
C 1978 171 1773 25 1478 25 
z
" transform="scale(0.015625)"/>
       </defs>
       <use xlink:href="#CMR17-32" transform="scale(0.996264)"/>
       <use xlink:href="#CMR17-30" transform="translate(45.690477 0) scale(0.996264)"/>
       <use xlink:href="#CMR17-31" transform="translate(91.380954 0) scale(0.996264)"/>
       <use xlink:href="#CMR17-36" transform="translate(137.071431 0) scale(0.996264)"/>
      </g>
     </g>
    </g>
    <g id="xtick_3">
     <g id="line2d_3">
      <path d="M 394.640191 632.515723 
L 394.640191 17.30242 
" clip-path="url(#pa918af3565)" style="fill: none; stroke: #cccccc; stroke-opacity: 0.5; stroke-width: 0.8; stroke-linecap: round"/>
     </g>
     <g id="text_3">
      <!-- $\mathdefault{2017}$ -->
      <g transform="translate(384.677521 642.934221) scale(0.1 -0.1)">
       <defs>
        <path id="CMR17-37" d="M 2886 3941 
L 2886 4081 
L 1382 4081 
C 634 4081 621 4165 595 4288 
L 480 4288 
L 294 3094 
L 410 3094 
C 429 3215 474 3540 550 3661 
C 589 3712 1062 3712 1171 3712 
L 2579 3712 
L 1869 2661 
C 1395 1954 1069 999 1069 165 
C 1069 89 1069 -128 1299 -128 
C 1530 -128 1530 89 1530 171 
L 1530 465 
C 1530 1508 1709 2196 2003 2636 
L 2886 3941 
z
" transform="scale(0.015625)"/>
       </defs>
       <use xlink:href="#CMR17-32" transform="scale(0.996264)"/>
       <use xlink:href="#CMR17-30" transform="translate(45.690477 0) scale(0.996264)"/>
       <use xlink:href="#CMR17-31" transform="translate(91.380954 0) scale(0.996264)"/>
       <use xlink:href="#CMR17-37" transform="translate(137.071431 0) scale(0.996264)"/>
      </g>
     </g>
    </g>
    <g id="xtick_4">
     <g id="line2d_4">
      <path d="M 541.408922 632.515723 
L 541.408922 17.30242 
" clip-path="url(#pa918af3565)" style="fill: none; stroke: #cccccc; stroke-opacity: 0.5; stroke-width: 0.8; stroke-linecap: round"/>
     </g>
     <g id="text_4">
      <!-- $\mathdefault{2018}$ -->
      <g transform="translate(531.446251 642.934221) scale(0.1 -0.1)">
       <defs>
        <path id="CMR17-38" d="M 1741 2264 
C 2144 2467 2554 2773 2554 3263 
C 2554 3841 1990 4179 1472 4179 
C 890 4179 378 3759 378 3180 
C 378 3021 416 2747 666 2505 
C 730 2442 998 2251 1171 2130 
C 883 1983 211 1634 211 934 
C 211 279 838 -128 1459 -128 
C 2144 -128 2720 362 2720 1010 
C 2720 1590 2330 1857 2074 2029 
L 1741 2264 
z
M 902 2822 
C 851 2854 595 3051 595 3351 
C 595 3739 998 4032 1459 4032 
C 1965 4032 2336 3676 2336 3262 
C 2336 2669 1670 2331 1638 2331 
C 1632 2331 1626 2331 1574 2370 
L 902 2822 
z
M 2080 1519 
C 2176 1449 2483 1240 2483 851 
C 2483 381 2010 25 1472 25 
C 890 25 448 438 448 940 
C 448 1443 838 1862 1280 2060 
L 2080 1519 
z
" transform="scale(0.015625)"/>
       </defs>
       <use xlink:href="#CMR17-32" transform="scale(0.996264)"/>
       <use xlink:href="#CMR17-30" transform="translate(45.690477 0) scale(0.996264)"/>
       <use xlink:href="#CMR17-31" transform="translate(91.380954 0) scale(0.996264)"/>
       <use xlink:href="#CMR17-38" transform="translate(137.071431 0) scale(0.996264)"/>
      </g>
     </g>
    </g>
    <g id="xtick_5">
     <g id="line2d_5">
      <path d="M 688.177653 632.515723 
L 688.177653 17.30242 
" clip-path="url(#pa918af3565)" style="fill: none; stroke: #cccccc; stroke-opacity: 0.5; stroke-width: 0.8; stroke-linecap: round"/>
     </g>
     <g id="text_5">
      <!-- $\mathdefault{2019}$ -->
      <g transform="translate(678.214982 642.934221) scale(0.1 -0.1)">
       <defs>
        <path id="CMR17-39" d="M 2253 1864 
C 2253 464 1670 31 1190 31 
C 1043 31 685 31 538 294 
C 704 268 826 357 826 518 
C 826 692 685 749 595 749 
C 538 749 365 723 365 506 
C 365 71 742 -128 1203 -128 
C 1939 -128 2688 674 2688 2073 
C 2688 3817 1971 4179 1485 4179 
C 851 4179 243 3628 243 2778 
C 243 1991 762 1408 1414 1408 
C 1952 1408 2189 1903 2253 2112 
L 2253 1864 
z
M 1427 1510 
C 1254 1510 1011 1542 813 1922 
C 678 2169 678 2461 678 2771 
C 678 3146 678 3405 858 3684 
C 947 3817 1114 4032 1485 4032 
C 2240 4032 2240 2885 2240 2632 
C 2240 2182 2035 1510 1427 1510 
z
" transform="scale(0.015625)"/>
       </defs>
       <use xlink:href="#CMR17-32" transform="scale(0.996264)"/>
       <use xlink:href="#CMR17-30" transform="translate(45.690477 0) scale(0.996264)"/>
       <use xlink:href="#CMR17-31" transform="translate(91.380954 0) scale(0.996264)"/>
       <use xlink:href="#CMR17-39" transform="translate(137.071431 0) scale(0.996264)"/>
      </g>
     </g>
    </g>
    <g id="xtick_6">
     <g id="line2d_6">
      <path d="M 834.946384 632.515723 
L 834.946384 17.30242 
" clip-path="url(#pa918af3565)" style="fill: none; stroke: #cccccc; stroke-opacity: 0.5; stroke-width: 0.8; stroke-linecap: round"/>
     </g>
     <g id="text_6">
      <!-- $\mathdefault{2020}$ -->
      <g transform="translate(824.983713 642.934221) scale(0.1 -0.1)">
       <use xlink:href="#CMR17-32" transform="scale(0.996264)"/>
       <use xlink:href="#CMR17-30" transform="translate(45.690477 0) scale(0.996264)"/>
       <use xlink:href="#CMR17-32" transform="translate(91.380954 0) scale(0.996264)"/>
       <use xlink:href="#CMR17-30" transform="translate(137.071431 0) scale(0.996264)"/>
      </g>
     </g>
    </g>
    <g id="xtick_7">
     <g id="line2d_7">
      <path d="M 982.117221 632.515723 
L 982.117221 17.30242 
" clip-path="url(#pa918af3565)" style="fill: none; stroke: #cccccc; stroke-opacity: 0.5; stroke-width: 0.8; stroke-linecap: round"/>
     </g>
     <g id="text_7">
      <!-- $\mathdefault{2021}$ -->
      <g transform="translate(972.15455 642.934221) scale(0.1 -0.1)">
       <use xlink:href="#CMR17-32" transform="scale(0.996264)"/>
       <use xlink:href="#CMR17-30" transform="translate(45.690477 0) scale(0.996264)"/>
       <use xlink:href="#CMR17-32" transform="translate(91.380954 0) scale(0.996264)"/>
       <use xlink:href="#CMR17-31" transform="translate(137.071431 0) scale(0.996264)"/>
      </g>
     </g>
    </g>
    <g id="xtick_8">
     <g id="line2d_8">
      <path d="M 1128.885952 632.515723 
L 1128.885952 17.30242 
" clip-path="url(#pa918af3565)" style="fill: none; stroke: #cccccc; stroke-opacity: 0.5; stroke-width: 0.8; stroke-linecap: round"/>
     </g>
     <g id="text_8">
      <!-- $\mathdefault{2022}$ -->
      <g transform="translate(1118.923281 642.934221) scale(0.1 -0.1)">
       <use xlink:href="#CMR17-32" transform="scale(0.996264)"/>
       <use xlink:href="#CMR17-30" transform="translate(45.690477 0) scale(0.996264)"/>
       <use xlink:href="#CMR17-32" transform="translate(91.380954 0) scale(0.996264)"/>
       <use xlink:href="#CMR17-32" transform="translate(137.071431 0) scale(0.996264)"/>
      </g>
     </g>
    </g>
    <g id="xtick_9">
     <g id="line2d_9">
      <path d="M 1275.654683 632.515723 
L 1275.654683 17.30242 
" clip-path="url(#pa918af3565)" style="fill: none; stroke: #cccccc; stroke-opacity: 0.5; stroke-width: 0.8; stroke-linecap: round"/>
     </g>
     <g id="text_9">
      <!-- $\mathdefault{2023}$ -->
      <g transform="translate(1265.692012 642.934221) scale(0.1 -0.1)">
       <defs>
        <path id="CMR17-33" d="M 1414 2157 
C 1984 2157 2234 1662 2234 1090 
C 2234 320 1824 25 1453 25 
C 1114 25 563 194 390 693 
C 422 680 454 680 486 680 
C 640 680 755 782 755 948 
C 755 1133 614 1216 486 1216 
C 378 1216 211 1165 211 926 
C 211 335 787 -128 1466 -128 
C 2176 -128 2720 430 2720 1085 
C 2720 1707 2208 2157 1600 2227 
C 2086 2328 2554 2756 2554 3329 
C 2554 3820 2048 4179 1472 4179 
C 890 4179 378 3829 378 3329 
C 378 3110 544 3072 627 3072 
C 762 3072 877 3155 877 3321 
C 877 3486 762 3569 627 3569 
C 602 3569 570 3569 544 3557 
C 730 3959 1235 4032 1459 4032 
C 1683 4032 2106 3925 2106 3320 
C 2106 3143 2080 2828 1862 2550 
C 1670 2304 1453 2304 1242 2284 
C 1210 2284 1062 2269 1037 2269 
C 992 2263 966 2257 966 2208 
C 966 2163 973 2157 1101 2157 
L 1414 2157 
z
" transform="scale(0.015625)"/>
       </defs>
       <use xlink:href="#CMR17-32" transform="scale(0.996264)"/>
       <use xlink:href="#CMR17-30" transform="translate(45.690477 0) scale(0.996264)"/>
       <use xlink:href="#CMR17-32" transform="translate(91.380954 0) scale(0.996264)"/>
       <use xlink:href="#CMR17-33" transform="translate(137.071431 0) scale(0.996264)"/>
      </g>
     </g>
    </g>
    <g id="xtick_10">
     <g id="line2d_10">
      <path d="M 1422.423413 632.515723 
L 1422.423413 17.30242 
" clip-path="url(#pa918af3565)" style="fill: none; stroke: #cccccc; stroke-opacity: 0.5; stroke-width: 0.8; stroke-linecap: round"/>
     </g>
     <g id="text_10">
      <!-- $\mathdefault{2024}$ -->
      <g transform="translate(1412.460743 642.934221) scale(0.1 -0.1)">
       <defs>
        <path id="CMR17-34" d="M 2150 4122 
C 2150 4256 2144 4256 2029 4256 
L 128 1254 
L 128 1088 
L 1779 1088 
L 1779 457 
C 1779 224 1766 160 1318 160 
L 1197 160 
L 1197 0 
C 1402 0 1747 0 1965 0 
C 2182 0 2528 0 2733 0 
L 2733 160 
L 2611 160 
C 2163 160 2150 224 2150 457 
L 2150 1088 
L 2803 1088 
L 2803 1254 
L 2150 1254 
L 2150 4122 
z
M 1798 3703 
L 1798 1254 
L 256 1254 
L 1798 3703 
z
" transform="scale(0.015625)"/>
       </defs>
       <use xlink:href="#CMR17-32" transform="scale(0.996264)"/>
       <use xlink:href="#CMR17-30" transform="translate(45.690477 0) scale(0.996264)"/>
       <use xlink:href="#CMR17-32" transform="translate(91.380954 0) scale(0.996264)"/>
       <use xlink:href="#CMR17-34" transform="translate(137.071431 0) scale(0.996264)"/>
      </g>
     </g>
    </g>
    <g id="text_11">
     <!-- Date -->
     <g style="fill: #696969" transform="translate(726.586592 655.789898) scale(0.1 -0.1)">
      <defs>
       <path id="CMR17-44" d="M 333 4352 
L 333 4186 
C 774 4186 845 4186 845 3900 
L 845 452 
C 845 166 774 166 333 166 
L 333 0 
L 2368 0 
C 3398 0 4224 943 4224 2141 
C 4224 3346 3411 4352 2368 4352 
L 333 4352 
z
M 1523 166 
C 1267 166 1254 197 1254 414 
L 1254 3938 
C 1254 4155 1267 4186 1523 4186 
L 2240 4186 
C 2771 4186 3750 3874 3750 2141 
C 3750 1242 3488 879 3366 707 
C 3213 510 2848 166 2240 166 
L 1523 166 
z
" transform="scale(0.015625)"/>
       <path id="CMR17-61" d="M 2304 1653 
C 2304 2072 2304 2294 2035 2543 
C 1798 2752 1523 2816 1306 2816 
C 800 2816 435 2407 435 1971 
C 435 1728 627 1728 666 1728 
C 749 1728 896 1778 896 1954 
C 896 2112 774 2181 666 2181 
C 640 2181 608 2174 589 2168 
C 723 2592 1069 2714 1293 2714 
C 1613 2714 1965 2429 1965 1885 
L 1965 1600 
C 1587 1600 1133 1549 774 1357 
C 371 1133 256 813 256 570 
C 256 77 832 -64 1171 -64 
C 1523 -64 1850 139 1990 511 
C 2003 233 2182 -18 2464 -18 
C 2598 -18 2938 70 2938 567 
L 2938 920 
L 2822 920 
L 2822 562 
C 2822 178 2650 128 2566 128 
C 2304 128 2304 458 2304 738 
L 2304 1653 
z
M 1965 870 
C 1965 317 1568 38 1216 38 
C 896 38 646 275 646 570 
C 646 761 730 1100 1101 1305 
C 1408 1478 1760 1504 1965 1504 
L 1965 870 
z
" transform="scale(0.015625)"/>
       <path id="CMR17-74" d="M 966 2560 
L 1862 2560 
L 1862 2725 
L 966 2725 
L 966 3904 
L 851 3904 
C 838 3245 614 2668 70 2668 
L 70 2560 
L 627 2560 
L 627 771 
C 627 650 627 -64 1370 -64 
C 1747 -64 1965 306 1965 777 
L 1965 1140 
L 1850 1140 
L 1850 783 
C 1850 344 1677 51 1408 51 
C 1222 51 966 178 966 758 
L 966 2560 
z
" transform="scale(0.015625)"/>
       <path id="CMR17-65" d="M 2438 1472 
C 2464 1498 2464 1511 2464 1576 
C 2464 2238 2118 2816 1389 2816 
C 710 2816 173 2169 173 1383 
C 173 551 781 -64 1459 -64 
C 2176 -64 2458 607 2458 740 
C 2458 784 2419 784 2406 784 
C 2362 784 2355 771 2330 696 
C 2189 265 1837 51 1504 51 
C 1229 51 954 203 781 480 
C 582 803 582 1176 582 1472 
L 2438 1472 
z
M 589 1568 
C 634 2505 1126 2714 1382 2714 
C 1818 2714 2112 2297 2118 1568 
L 589 1568 
z
" transform="scale(0.015625)"/>
      </defs>
      <use xlink:href="#CMR17-44" transform="scale(0.996264)"/>
      <use xlink:href="#CMR17-61" transform="translate(70.393556 0) scale(0.996264)"/>
      <use xlink:href="#CMR17-74" transform="translate(116.084033 0) scale(0.996264)"/>
      <use xlink:href="#CMR17-65" transform="translate(151.364801 0) scale(0.996264)"/>
     </g>
    </g>
   </g>
   <g id="matplotlib.axis_2">
    <g id="ytick_1">
     <g id="line2d_11">
      <path d="M 37.067331 574.374418 
L 1436.99976 574.374418 
" clip-path="url(#pa918af3565)" style="fill: none; stroke: #cccccc; stroke-opacity: 0.5; stroke-width: 0.8; stroke-linecap: round"/>
     </g>
     <g id="text_12">
      <!-- $\mathdefault{−15}$ -->
      <g transform="translate(15.855917 577.833667) scale(0.1 -0.1)">
       <defs>
        <path id="CMSY10-0" d="M 4218 1472 
C 4326 1472 4442 1472 4442 1600 
C 4442 1728 4326 1728 4218 1728 
L 755 1728 
C 646 1728 531 1728 531 1600 
C 531 1472 646 1472 755 1472 
L 4218 1472 
z
" transform="scale(0.015625)"/>
       </defs>
       <use xlink:href="#CMSY10-0" transform="scale(0.996264)"/>
       <use xlink:href="#CMR17-31" transform="translate(77.487468 0) scale(0.996264)"/>
       <use xlink:href="#CMR17-35" transform="translate(123.177945 0) scale(0.996264)"/>
      </g>
     </g>
    </g>
    <g id="ytick_2">
     <g id="line2d_12">
      <path d="M 37.067331 491.638319 
L 1436.99976 491.638319 
" clip-path="url(#pa918af3565)" style="fill: none; stroke: #cccccc; stroke-opacity: 0.5; stroke-width: 0.8; stroke-linecap: round"/>
     </g>
     <g id="text_13">
      <!-- $\mathdefault{−10}$ -->
      <g transform="translate(15.855917 495.097569) scale(0.1 -0.1)">
       <use xlink:href="#CMSY10-0" transform="scale(0.996264)"/>
       <use xlink:href="#CMR17-31" transform="translate(77.487468 0) scale(0.996264)"/>
       <use xlink:href="#CMR17-30" transform="translate(123.177945 0) scale(0.996264)"/>
      </g>
     </g>
    </g>
    <g id="ytick_3">
     <g id="line2d_13">
      <path d="M 37.067331 408.902221 
L 1436.99976 408.902221 
" clip-path="url(#pa918af3565)" style="fill: none; stroke: #cccccc; stroke-opacity: 0.5; stroke-width: 0.8; stroke-linecap: round"/>
     </g>
     <g id="text_14">
      <!-- $\mathdefault{−5}$ -->
      <g transform="translate(20.837252 412.36147) scale(0.1 -0.1)">
       <use xlink:href="#CMSY10-0" transform="scale(0.996264)"/>
       <use xlink:href="#CMR17-35" transform="translate(77.487468 0) scale(0.996264)"/>
      </g>
     </g>
    </g>
    <g id="ytick_4">
     <g id="line2d_14">
      <path d="M 37.067331 326.166123 
L 1436.99976 326.166123 
" clip-path="url(#pa918af3565)" style="fill: none; stroke: #cccccc; stroke-opacity: 0.5; stroke-width: 0.8; stroke-linecap: round"/>
     </g>
     <g id="text_15">
      <!-- $\mathdefault{0}$ -->
      <g transform="translate(28.585996 329.625372) scale(0.1 -0.1)">
       <use xlink:href="#CMR17-30" transform="scale(0.996264)"/>
      </g>
     </g>
    </g>
    <g id="ytick_5">
     <g id="line2d_15">
      <path d="M 37.067331 243.430024 
L 1436.99976 243.430024 
" clip-path="url(#pa918af3565)" style="fill: none; stroke: #cccccc; stroke-opacity: 0.5; stroke-width: 0.8; stroke-linecap: round"/>
     </g>
     <g id="text_16">
      <!-- $\mathdefault{5}$ -->
      <g transform="translate(28.585996 246.889274) scale(0.1 -0.1)">
       <use xlink:href="#CMR17-35" transform="scale(0.996264)"/>
      </g>
     </g>
    </g>
    <g id="ytick_6">
     <g id="line2d_16">
      <path d="M 37.067331 160.693926 
L 1436.99976 160.693926 
" clip-path="url(#pa918af3565)" style="fill: none; stroke: #cccccc; stroke-opacity: 0.5; stroke-width: 0.8; stroke-linecap: round"/>
     </g>
     <g id="text_17">
      <!-- $\mathdefault{10}$ -->
      <g transform="translate(23.60466 164.153175) scale(0.1 -0.1)">
       <use xlink:href="#CMR17-31" transform="scale(0.996264)"/>
       <use xlink:href="#CMR17-30" transform="translate(45.690477 0) scale(0.996264)"/>
      </g>
     </g>
    </g>
    <g id="ytick_7">
     <g id="line2d_17">
      <path d="M 37.067331 77.957828 
L 1436.99976 77.957828 
" clip-path="url(#pa918af3565)" style="fill: none; stroke: #cccccc; stroke-opacity: 0.5; stroke-width: 0.8; stroke-linecap: round"/>
     </g>
     <g id="text_18">
      <!-- $\mathdefault{15}$ -->
      <g transform="translate(23.60466 81.417077) scale(0.1 -0.1)">
       <use xlink:href="#CMR17-31" transform="scale(0.996264)"/>
       <use xlink:href="#CMR17-35" transform="translate(45.690477 0) scale(0.996264)"/>
      </g>
     </g>
    </g>
    <g id="text_19">
     <!-- Total Contribution -->
     <g style="fill: #696969" transform="translate(9.918738 366.157261) rotate(-90) scale(0.1 -0.1)">
      <defs>
       <path id="CMR17-54" d="M 3981 4326 
L 288 4326 
L 179 2918 
L 294 2918 
C 378 3976 467 4160 1453 4160 
C 1568 4160 1754 4160 1805 4154 
C 1926 4135 1926 4058 1926 3912 
L 1926 459 
C 1926 230 1907 160 1376 160 
L 1197 160 
L 1197 0 
C 1504 0 1824 0 2138 0 
C 2451 0 2771 0 3078 0 
L 3078 160 
L 2899 160 
C 2368 160 2349 230 2349 459 
L 2349 3912 
C 2349 4052 2349 4129 2464 4154 
C 2515 4160 2701 4160 2816 4160 
C 3795 4160 3891 3976 3974 2918 
L 4090 2918 
L 3981 4326 
z
" transform="scale(0.015625)"/>
       <path id="CMR17-6f" d="M 2758 1356 
C 2758 2176 2163 2816 1466 2816 
C 768 2816 173 2176 173 1356 
C 173 551 768 -64 1466 -64 
C 2163 -64 2758 551 2758 1356 
z
M 1466 51 
C 1165 51 909 230 762 480 
C 602 767 582 1126 582 1408 
C 582 1677 595 2010 762 2298 
C 890 2509 1139 2714 1466 2714 
C 1754 2714 1997 2554 2150 2330 
C 2349 2029 2349 1607 2349 1408 
C 2349 1158 2336 775 2163 467 
C 1984 173 1709 51 1466 51 
z
" transform="scale(0.015625)"/>
       <path id="CMR17-6c" d="M 979 4396 
L 218 4326 
L 218 4160 
C 595 4160 653 4122 653 3817 
L 653 426 
C 653 184 627 153 218 153 
L 218 -13 
C 371 0 653 0 813 0 
C 979 0 1261 0 1414 -13 
L 1414 153 
C 1005 153 979 178 979 426 
L 979 4396 
z
" transform="scale(0.015625)"/>
       <path id="CMR17-43" d="M 3974 4289 
C 3974 4403 3968 4410 3930 4410 
C 3904 4410 3898 4403 3853 4327 
L 3571 3792 
C 3258 4187 2874 4416 2381 4416 
C 1286 4416 294 3456 294 2148 
C 294 826 1286 -128 2387 -128 
C 3366 -128 3974 730 3974 1461 
C 3974 1524 3974 1550 3917 1550 
C 3866 1550 3866 1531 3859 1474 
C 3808 585 3168 38 2477 38 
C 1824 38 781 495 781 2147 
C 781 3805 1843 4250 2464 4250 
C 3187 4250 3712 3628 3834 2745 
C 3846 2668 3846 2655 3904 2655 
C 3974 2655 3974 2668 3974 2783 
L 3974 4289 
z
" transform="scale(0.015625)"/>
       <path id="CMR17-6e" d="M 2656 1933 
C 2656 2259 2592 2790 1837 2790 
C 1331 2790 1069 2400 973 2144 
L 966 2144 
L 966 2790 
L 211 2720 
L 211 2554 
C 589 2554 646 2515 646 2208 
L 646 428 
C 646 184 621 153 211 153 
L 211 -13 
C 365 0 646 0 813 0 
C 979 0 1267 0 1421 -13 
L 1421 153 
C 1011 153 986 178 986 428 
L 986 1658 
C 986 2247 1344 2688 1792 2688 
C 2266 2688 2317 2266 2317 1958 
L 2317 428 
C 2317 184 2291 153 1882 153 
L 1882 -13 
C 2035 0 2317 0 2483 0 
C 2650 0 2938 0 3091 -13 
L 3091 153 
C 2682 153 2656 178 2656 428 
L 2656 1933 
z
" transform="scale(0.015625)"/>
       <path id="CMR17-72" d="M 960 1497 
C 960 2112 1222 2688 1702 2688 
C 1747 2688 1792 2682 1837 2662 
C 1837 2662 1696 2617 1696 2452 
C 1696 2298 1818 2234 1914 2234 
C 1990 2234 2131 2279 2131 2458 
C 2131 2663 1926 2790 1709 2790 
C 1222 2790 1011 2317 947 2093 
L 941 2093 
L 941 2790 
L 198 2720 
L 198 2554 
C 576 2554 634 2515 634 2208 
L 634 428 
C 634 184 608 153 198 153 
L 198 -13 
C 352 0 646 0 813 0 
C 998 0 1325 0 1498 -13 
L 1498 153 
C 1037 153 960 153 960 440 
L 960 1497 
z
" transform="scale(0.015625)"/>
       <path id="CMR17-69" d="M 992 3909 
C 992 4049 877 4170 730 4170 
C 589 4170 467 4056 467 3909 
C 467 3769 582 3648 730 3648 
C 870 3648 992 3763 992 3909 
z
M 243 2706 
L 243 2541 
C 602 2541 653 2502 653 2197 
L 653 427 
C 653 184 627 153 218 153 
L 218 -13 
C 371 0 646 0 806 0 
C 960 0 1222 0 1370 -13 
L 1370 153 
C 992 153 979 191 979 420 
L 979 2776 
L 243 2706 
z
" transform="scale(0.015625)"/>
       <path id="CMR17-62" d="M 960 4396 
L 198 4326 
L 198 4160 
C 576 4160 634 4122 634 3817 
L 634 -13 
L 749 -13 
L 934 441 
C 1120 141 1395 -64 1766 -64 
C 2406 -64 3053 500 3053 1370 
C 3053 2188 2477 2790 1830 2790 
C 1434 2790 1152 2579 960 2330 
L 960 4396 
z
M 973 2004 
C 973 2118 973 2138 1062 2272 
C 1312 2657 1670 2688 1792 2688 
C 1984 2688 2643 2585 2643 1376 
C 2643 108 1888 38 1734 38 
C 1536 38 1248 114 1043 486 
C 973 608 973 621 973 735 
L 973 2004 
z
" transform="scale(0.015625)"/>
       <path id="CMR17-75" d="M 1882 2693 
L 1882 2528 
C 2259 2528 2317 2489 2317 2186 
L 2317 1032 
C 2317 500 2029 38 1555 38 
C 1030 38 986 348 986 678 
L 986 2763 
L 211 2693 
L 211 2528 
C 467 2528 640 2528 646 2274 
L 646 1058 
C 646 633 646 361 813 183 
C 896 101 1056 -64 1517 -64 
C 2061 -64 2272 377 2323 506 
L 2330 506 
L 2330 -63 
L 3091 -63 
L 3091 128 
C 2714 128 2656 166 2656 473 
L 2656 2763 
L 1882 2693 
z
" transform="scale(0.015625)"/>
      </defs>
      <use xlink:href="#CMR17-54" transform="scale(0.996264)"/>
      <use xlink:href="#CMR17-6f" transform="translate(58.702625 0) scale(0.996264)"/>
      <use xlink:href="#CMR17-74" transform="translate(104.393102 0) scale(0.996264)"/>
      <use xlink:href="#CMR17-61" transform="translate(139.67387 0) scale(0.996264)"/>
      <use xlink:href="#CMR17-6c" transform="translate(185.364347 0) scale(0.996264)"/>
      <use xlink:href="#CMR17-43" transform="translate(240.311372 0) scale(0.996264)"/>
      <use xlink:href="#CMR17-6f" transform="translate(306.821253 0) scale(0.996264)"/>
      <use xlink:href="#CMR17-6e" transform="translate(352.51173 0) scale(0.996264)"/>
      <use xlink:href="#CMR17-74" transform="translate(400.804646 0) scale(0.996264)"/>
      <use xlink:href="#CMR17-72" transform="translate(436.085413 0) scale(0.996264)"/>
      <use xlink:href="#CMR17-69" transform="translate(471.366181 0) scale(0.996264)"/>
      <use xlink:href="#CMR17-62" transform="translate(496.23724 0) scale(0.996264)"/>
      <use xlink:href="#CMR17-75" transform="translate(547.132609 0) scale(0.996264)"/>
      <use xlink:href="#CMR17-74" transform="translate(598.027979 0) scale(0.996264)"/>
      <use xlink:href="#CMR17-69" transform="translate(633.308747 0) scale(0.996264)"/>
      <use xlink:href="#CMR17-6f" transform="translate(658.179805 0) scale(0.996264)"/>
      <use xlink:href="#CMR17-6e" transform="translate(703.870283 0) scale(0.996264)"/>
     </g>
    </g>
   </g>
   <g id="line2d_18">
    <path d="M 100.700623 283.339563 
L 148.953357 283.339563 
L 148.953357 283.339563 
L 161.418646 278.268492 
L 161.418646 278.268492 
L 173.481829 277.928579 
L 173.481829 277.928579 
L 185.947119 259.658857 
L 185.947119 259.658857 
L 198.412408 258.409046 
L 198.412408 258.409046 
L 210.475592 258.409046 
L 210.475592 258.409046 
L 222.940881 263.42102 
L 222.940881 263.42102 
L 235.004065 257.79264 
L 235.004065 257.79264 
L 247.469354 242.552026 
L 247.469354 242.552026 
L 271.595721 242.552026 
L 271.595721 242.552026 
L 284.06101 157.217804 
L 284.06101 157.217804 
L 296.124194 75.581972 
L 296.124194 75.581972 
L 308.589483 79.435778 
L 308.589483 79.435778 
L 320.652666 79.953989 
L 320.652666 79.953989 
L 333.117956 76.336737 
L 333.117956 76.336737 
L 345.583245 71.3018 
L 345.583245 71.3018 
L 357.646429 70.550535 
L 357.646429 70.550535 
L 370.111718 72.256186 
L 370.111718 72.256186 
L 382.174902 72.487137 
L 382.174902 72.487137 
L 394.640191 75.10778 
L 394.640191 75.10778 
L 407.105481 72.514934 
L 407.105481 72.514934 
L 418.364452 85.503324 
L 418.364452 85.503324 
L 430.829741 70.066081 
L 430.829741 70.066081 
L 442.892925 68.734343 
L 442.892925 68.734343 
L 455.358214 79.294171 
L 455.358214 79.294171 
L 467.421397 87.515764 
L 467.421397 87.515764 
L 479.886687 75.008064 
L 479.886687 75.008064 
L 492.351976 81.910287 
L 492.351976 81.910287 
L 504.41516 45.266661 
L 504.41516 45.266661 
L 516.880449 182.581364 
L 516.880449 182.581364 
L 528.943632 181.375283 
L 528.943632 181.375283 
L 541.408922 236.181993 
L 541.408922 236.181993 
L 553.874211 236.181993 
L 553.874211 236.181993 
L 565.133183 224.185308 
L 565.133183 224.185308 
L 577.598472 239.515287 
L 577.598472 239.515287 
L 589.661655 233.067885 
L 589.661655 233.067885 
L 602.126945 236.032614 
L 602.126945 236.032614 
L 614.190128 236.032614 
L 614.190128 236.032614 
L 626.655418 240.730231 
L 626.655418 240.730231 
L 639.120707 237.830409 
L 639.120707 237.830409 
L 651.183891 196.40415 
L 651.183891 196.40415 
L 675.712363 196.40415 
L 675.712363 196.40415 
L 688.177653 315.308063 
L 688.177653 315.308063 
L 700.642942 225.809212 
L 700.642942 225.809212 
L 711.901913 225.809212 
L 711.901913 225.809212 
L 724.367203 213.559296 
L 724.367203 213.559296 
L 736.430386 213.559296 
L 736.430386 213.559296 
L 748.895676 210.579403 
L 748.895676 210.579403 
L 760.958859 299.929543 
L 760.958859 299.929543 
L 773.424149 299.929543 
L 773.424149 299.929543 
L 785.889438 196.667456 
L 785.889438 196.667456 
L 797.952621 254.125538 
L 797.952621 254.125538 
L 834.946384 254.125538 
L 834.946384 254.125538 
L 847.411673 257.779752 
L 847.411673 257.779752 
L 859.07275 254.125538 
L 859.07275 254.125538 
L 871.53804 260.726198 
L 871.53804 260.726198 
L 883.601223 256.431498 
L 883.601223 256.431498 
L 896.066513 272.125387 
L 896.066513 272.125387 
L 908.129696 211.523961 
L 908.129696 211.523961 
L 920.594986 252.630068 
L 920.594986 252.630068 
L 933.060275 255.576513 
L 933.060275 255.576513 
L 945.123458 255.858941 
L 945.123458 255.858941 
L 957.588748 265.704144 
L 957.588748 265.704144 
L 969.651931 238.897879 
L 969.651931 238.897879 
L 982.117221 177.464033 
L 982.117221 177.464033 
L 994.58251 177.464033 
L 994.58251 177.464033 
L 1005.841481 295.049514 
L 1005.841481 295.049514 
L 1018.306771 227.470265 
L 1018.306771 227.470265 
L 1030.369954 227.470265 
L 1030.369954 227.470265 
L 1042.835244 239.402198 
L 1042.835244 239.402198 
L 1054.898427 228.075194 
L 1054.898427 228.075194 
L 1067.363717 240.042683 
L 1067.363717 240.042683 
L 1079.829006 228.228827 
L 1079.829006 228.228827 
L 1091.892189 244.26306 
L 1091.892189 244.26306 
L 1104.357479 241.530291 
L 1104.357479 241.530291 
L 1116.420662 229.527246 
L 1116.420662 229.527246 
L 1128.885952 248.977067 
L 1128.885952 248.977067 
L 1141.351241 221.216018 
L 1141.351241 221.216018 
L 1152.610212 219.548385 
L 1152.610212 219.548385 
L 1165.075502 221.216018 
L 1165.075502 221.216018 
L 1177.138685 221.062384 
L 1177.138685 221.062384 
L 1189.603975 224.557633 
L 1189.603975 224.557633 
L 1201.667158 214.257776 
L 1201.667158 214.257776 
L 1214.132447 202.457315 
L 1214.132447 202.457315 
L 1226.597737 191.116147 
L 1226.597737 191.116147 
L 1238.66092 227.745304 
L 1238.66092 227.745304 
L 1251.12621 198.372491 
L 1251.12621 198.372491 
L 1263.189393 186.405002 
L 1263.189393 186.405002 
L 1275.654683 303.004833 
L 1275.654683 303.004833 
L 1288.119972 277.428509 
L 1288.119972 277.428509 
L 1323.907416 277.428509 
L 1323.907416 277.428509 
L 1336.372705 296.316789 
L 1373.366468 296.316789 
L 1373.366468 296.316789 
" clip-path="url(#pa918af3565)" style="fill: none; stroke-dasharray: 5.55,2.4; stroke-dashoffset: 0; stroke: #006e64; stroke-width: 1.5"/>
   </g>
   <g id="line2d_19">
    <path d="M 100.700623 280.519005 
L 113.165913 305.057152 
L 113.165913 305.057152 
L 124.424884 277.218586 
L 124.424884 277.218586 
L 136.890173 296.788694 
L 136.890173 296.788694 
L 148.953357 264.300956 
L 148.953357 264.300956 
L 161.418646 162.550053 
L 161.418646 162.550053 
L 173.481829 277.614845 
L 173.481829 277.614845 
L 185.947119 169.097224 
L 185.947119 169.097224 
L 198.412408 280.223625 
L 198.412408 280.223625 
L 210.475592 283.533748 
L 210.475592 283.533748 
L 222.940881 203.152278 
L 222.940881 203.152278 
L 235.004065 226.298822 
L 235.004065 226.298822 
L 247.469354 167.726968 
L 247.469354 167.726968 
L 259.934644 226.349209 
L 259.934644 226.349209 
L 271.595721 205.065463 
L 271.595721 205.065463 
L 284.06101 227.097291 
L 284.06101 227.097291 
L 296.124194 211.867106 
L 296.124194 211.867106 
L 308.589483 79.641494 
L 308.589483 79.641494 
L 320.652666 144.063834 
L 320.652666 144.063834 
L 333.117956 216.113573 
L 333.117956 216.113573 
L 345.583245 174.372028 
L 345.583245 174.372028 
L 357.646429 163.393587 
L 357.646429 163.393587 
L 370.111718 128.224974 
L 370.111718 128.224974 
L 382.174902 88.145994 
L 382.174902 88.145994 
L 394.640191 164.86001 
L 394.640191 164.86001 
L 407.105481 197.645253 
L 407.105481 197.645253 
L 418.364452 189.283903 
L 418.364452 189.283903 
L 430.829741 143.24904 
L 430.829741 143.24904 
L 442.892925 190.16509 
L 442.892925 190.16509 
L 455.358214 161.693364 
L 455.358214 161.693364 
L 467.421397 165.642925 
L 467.421397 165.642925 
L 479.886687 162.211957 
L 479.886687 162.211957 
L 492.351976 176.629613 
L 492.351976 176.629613 
L 504.41516 200.984707 
L 504.41516 200.984707 
L 516.880449 193.605333 
L 516.880449 193.605333 
L 528.943632 216.714528 
L 528.943632 216.714528 
L 541.408922 202.852063 
L 541.408922 202.852063 
L 553.874211 236.950042 
L 553.874211 236.950042 
L 565.133183 180.634564 
L 565.133183 180.634564 
L 577.598472 225.636746 
L 577.598472 225.636746 
L 589.661655 222.129526 
L 589.661655 222.129526 
L 602.126945 263.131973 
L 602.126945 263.131973 
L 614.190128 215.24696 
L 614.190128 215.24696 
L 626.655418 217.565378 
L 626.655418 217.565378 
L 639.120707 214.270606 
L 639.120707 214.270606 
L 651.183891 148.797221 
L 651.183891 148.797221 
L 663.64918 188.962746 
L 663.64918 188.962746 
L 675.712363 187.543381 
L 675.712363 187.543381 
L 688.177653 240.297131 
L 688.177653 240.297131 
L 700.642942 204.835102 
L 700.642942 204.835102 
L 711.901913 254.044236 
L 711.901913 254.044236 
L 724.367203 161.108824 
L 724.367203 161.108824 
L 736.430386 188.428624 
L 736.430386 188.428624 
L 748.895676 190.092942 
L 748.895676 190.092942 
L 760.958859 188.20259 
L 760.958859 188.20259 
L 773.424149 244.108808 
L 773.424149 244.108808 
L 785.889438 151.330739 
L 785.889438 151.330739 
L 797.952621 217.036762 
L 797.952621 217.036762 
L 810.417911 210.869503 
L 810.417911 210.869503 
L 822.481094 220.167324 
L 822.481094 220.167324 
L 834.946384 214.592387 
L 834.946384 214.592387 
L 847.411673 221.027507 
L 847.411673 221.027507 
L 859.07275 241.694123 
L 859.07275 241.694123 
L 871.53804 221.739525 
L 871.53804 221.739525 
L 883.601223 216.559335 
L 883.601223 216.559335 
L 896.066513 263.095686 
L 896.066513 263.095686 
L 908.129696 177.61205 
L 908.129696 177.61205 
L 920.594986 247.054087 
L 920.594986 247.054087 
L 933.060275 223.313259 
L 933.060275 223.313259 
L 945.123458 253.850924 
L 945.123458 253.850924 
L 957.588748 250.551318 
L 957.588748 250.551318 
L 969.651931 219.616536 
L 969.651931 219.616536 
L 982.117221 238.983995 
L 982.117221 238.983995 
L 994.58251 240.129452 
L 994.58251 240.129452 
L 1005.841481 294.677215 
L 1005.841481 294.677215 
L 1018.306771 242.486245 
L 1018.306771 242.486245 
L 1030.369954 228.654917 
L 1030.369954 228.654917 
L 1042.835244 260.315095 
L 1042.835244 260.315095 
L 1054.898427 215.433122 
L 1054.898427 215.433122 
L 1067.363717 256.054903 
L 1067.363717 256.054903 
L 1079.829006 215.873084 
L 1079.829006 215.873084 
L 1091.892189 243.075032 
L 1091.892189 243.075032 
L 1104.357479 250.642009 
L 1104.357479 250.642009 
L 1116.420662 209.285683 
L 1116.420662 209.285683 
L 1128.885952 295.11961 
L 1128.885952 295.11961 
L 1141.351241 258.068051 
L 1141.351241 258.068051 
L 1152.610212 229.772341 
L 1152.610212 229.772341 
L 1165.075502 294.238017 
L 1165.075502 294.238017 
L 1177.138685 257.719457 
L 1177.138685 257.719457 
L 1189.603975 247.053288 
L 1189.603975 247.053288 
L 1201.667158 277.901538 
L 1201.667158 277.901538 
L 1214.132447 243.54837 
L 1214.132447 243.54837 
L 1226.597737 261.860226 
L 1226.597737 261.860226 
L 1238.66092 285.649449 
L 1238.66092 285.649449 
L 1251.12621 259.155862 
L 1251.12621 259.155862 
L 1263.189393 263.110199 
L 1263.189393 263.110199 
L 1275.654683 308.744866 
L 1275.654683 308.744866 
L 1288.119972 309.922044 
L 1288.119972 309.922044 
L 1299.378943 308.577327 
L 1299.378943 308.577327 
L 1311.844233 298.44366 
L 1311.844233 298.44366 
L 1323.907416 304.26745 
L 1323.907416 304.26745 
L 1336.372705 310.778886 
L 1348.435889 320.092953 
L 1360.901178 312.527764 
L 1373.366468 304.171602 
L 1373.366468 304.171602 
" clip-path="url(#pa918af3565)" style="fill: none; stroke: #734848; stroke-width: 1.5; stroke-linecap: round"/>
   </g>
   <g id="line2d_20">
    <path d="M 100.700623 279.391841 
L 113.165913 364.404021 
L 113.165913 364.404021 
L 124.424884 274.664803 
L 124.424884 274.664803 
L 136.890173 293.036525 
L 136.890173 293.036525 
L 148.953357 216.088767 
L 148.953357 216.088767 
L 161.418646 64.375078 
L 161.418646 64.375078 
L 173.481829 298.075809 
L 173.481829 298.075809 
L 185.947119 198.370185 
L 185.947119 198.370185 
L 198.412408 483.588704 
L 198.412408 483.588704 
L 210.475592 457.265887 
L 210.475592 457.265887 
L 222.940881 227.064508 
L 222.940881 227.064508 
L 235.004065 525.634871 
L 235.004065 525.634871 
L 247.469354 402.13169 
L 247.469354 402.13169 
L 259.934644 491.278879 
L 259.934644 491.278879 
L 271.595721 455.883591 
L 271.595721 455.883591 
L 284.06101 476.815239 
L 284.06101 476.815239 
L 296.124194 450.227167 
L 296.124194 450.227167 
L 308.589483 129.921032 
L 308.589483 129.921032 
L 320.652666 322.448271 
L 320.652666 322.448271 
L 333.117956 604.551482 
L 333.117956 604.551482 
L 345.583245 496.599827 
L 345.583245 496.599827 
L 357.646429 525.764402 
L 357.646429 525.764402 
L 370.111718 179.87818 
L 370.111718 179.87818 
L 382.174902 176.802669 
L 382.174902 176.802669 
L 394.640191 385.720382 
L 394.640191 385.720382 
L 407.105481 376.434976 
L 407.105481 376.434976 
L 418.364452 376.229786 
L 418.364452 376.229786 
L 430.829741 427.278099 
L 430.829741 427.278099 
L 442.892925 381.077499 
L 442.892925 381.077499 
L 455.358214 413.317953 
L 455.358214 413.317953 
L 467.421397 426.484755 
L 467.421397 426.484755 
L 479.886687 333.470452 
L 479.886687 333.470452 
L 492.351976 401.909607 
L 492.351976 401.909607 
L 504.41516 391.888927 
L 504.41516 391.888927 
L 516.880449 368.488485 
L 516.880449 368.488485 
L 528.943632 371.429586 
L 528.943632 371.429586 
L 541.408922 347.908607 
L 541.408922 347.908607 
L 553.874211 445.467195 
L 553.874211 445.467195 
L 565.133183 334.677991 
L 565.133183 334.677991 
L 577.598472 376.063965 
L 577.598472 376.063965 
L 589.661655 369.083561 
L 589.661655 369.083561 
L 602.126945 419.356967 
L 602.126945 419.356967 
L 614.190128 300.961497 
L 614.190128 300.961497 
L 626.655418 347.532871 
L 626.655418 347.532871 
L 639.120707 389.176495 
L 639.120707 389.176495 
L 651.183891 188.300303 
L 651.183891 188.300303 
L 663.64918 426.910278 
L 663.64918 426.910278 
L 675.712363 367.130423 
L 675.712363 367.130423 
L 688.177653 394.610946 
L 688.177653 394.610946 
L 700.642942 193.103903 
L 700.642942 193.103903 
L 711.901913 247.24735 
L 711.901913 247.24735 
L 724.367203 238.538519 
L 724.367203 238.538519 
L 736.430386 275.798114 
L 736.430386 275.798114 
L 748.895676 219.787001 
L 748.895676 219.787001 
L 760.958859 307.18986 
L 760.958859 307.18986 
L 773.424149 405.591396 
L 773.424149 405.591396 
L 785.889438 205.140644 
L 785.889438 205.140644 
L 797.952621 363.254942 
L 797.952621 363.254942 
L 810.417911 332.623961 
L 810.417911 332.623961 
L 822.481094 442.020005 
L 822.481094 442.020005 
L 834.946384 318.119866 
L 834.946384 318.119866 
L 847.411673 392.445686 
L 847.411673 392.445686 
L 859.07275 431.49715 
L 859.07275 431.49715 
L 871.53804 380.629548 
L 871.53804 380.629548 
L 883.601223 313.664846 
L 883.601223 313.664846 
L 896.066513 289.892907 
L 896.066513 289.892907 
L 908.129696 300.438801 
L 908.129696 300.438801 
L 920.594986 484.452798 
L 920.594986 484.452798 
L 933.060275 377.550508 
L 933.060275 377.550508 
L 945.123458 468.680984 
L 945.123458 468.680984 
L 957.588748 339.155223 
L 957.588748 339.155223 
L 969.651931 327.421433 
L 969.651931 327.421433 
L 982.117221 321.576879 
L 982.117221 321.576879 
L 994.58251 347.34755 
L 994.58251 347.34755 
L 1005.841481 376.76772 
L 1005.841481 376.76772 
L 1018.306771 351.918592 
L 1018.306771 351.918592 
L 1030.369954 344.85056 
L 1030.369954 344.85056 
L 1042.835244 450.987562 
L 1042.835244 450.987562 
L 1054.898427 347.65562 
L 1054.898427 347.65562 
L 1067.363717 411.67888 
L 1067.363717 411.67888 
L 1079.829006 310.172094 
L 1079.829006 310.172094 
L 1091.892189 383.255106 
L 1091.892189 383.255106 
L 1104.357479 396.078896 
L 1104.357479 396.078896 
L 1116.420662 398.667591 
L 1116.420662 398.667591 
L 1128.885952 402.127734 
L 1128.885952 402.127734 
L 1141.351241 375.888449 
L 1141.351241 375.888449 
L 1152.610212 376.701677 
L 1152.610212 376.701677 
L 1165.075502 439.067848 
L 1165.075502 439.067848 
L 1177.138685 417.788231 
L 1177.138685 417.788231 
L 1189.603975 396.622901 
L 1189.603975 396.622901 
L 1201.667158 443.16003 
L 1201.667158 443.16003 
L 1214.132447 357.051463 
L 1214.132447 357.051463 
L 1226.597737 326.191403 
L 1226.597737 326.191403 
L 1238.66092 397.98133 
L 1238.66092 397.98133 
L 1251.12621 384.867926 
L 1251.12621 384.867926 
L 1263.189393 377.797173 
L 1263.189393 377.797173 
L 1275.654683 216.811071 
L 1275.654683 216.811071 
L 1288.119972 382.183122 
L 1299.378943 370.697545 
L 1299.378943 370.697545 
L 1311.844233 330.971623 
L 1323.907416 371.866989 
L 1323.907416 371.866989 
L 1336.372705 342.144788 
L 1348.435889 367.868303 
L 1360.901178 341.457455 
L 1373.366468 326.890546 
L 1373.366468 326.890546 
" clip-path="url(#pa918af3565)" style="fill: none; stroke: #004e4a; stroke-width: 1.5; stroke-linecap: round"/>
   </g>
   <g id="line2d_21">
    <path d="M 100.700623 280.847233 
L 113.165913 322.986918 
L 113.165913 322.986918 
L 124.424884 276.224327 
L 124.424884 276.224327 
L 136.890173 300.027827 
L 136.890173 300.027827 
L 148.953357 251.388599 
L 148.953357 251.388599 
L 161.418646 118.79189 
L 161.418646 118.79189 
L 173.481829 285.383167 
L 173.481829 285.383167 
L 185.947119 157.530713 
L 185.947119 157.530713 
L 198.412408 331.967561 
L 198.412408 331.967561 
L 210.475592 325.342183 
L 210.475592 325.342183 
L 222.940881 190.931475 
L 222.940881 190.931475 
L 235.004065 287.056632 
L 235.004065 287.056632 
L 247.469354 199.068246 
L 247.469354 199.068246 
L 259.934644 282.331315 
L 259.934644 282.331315 
L 271.595721 247.679407 
L 271.595721 247.679407 
L 284.06101 283.760268 
L 284.06101 283.760268 
L 296.124194 273.899643 
L 296.124194 273.899643 
L 308.589483 60.44311 
L 308.589483 60.44311 
L 320.652666 164.598053 
L 320.652666 164.598053 
L 333.117956 308.501515 
L 333.117956 308.501515 
L 345.583245 237.829752 
L 345.583245 237.829752 
L 357.646429 240.755694 
L 357.646429 240.755694 
L 370.111718 136.985843 
L 370.111718 136.985843 
L 382.174902 94.432982 
L 382.174902 94.432982 
L 394.640191 214.890456 
L 394.640191 214.890456 
L 407.105481 247.137437 
L 407.105481 247.137437 
L 418.364452 239.427157 
L 418.364452 239.427157 
L 430.829741 207.283577 
L 430.829741 207.283577 
L 442.892925 248.486591 
L 442.892925 248.486591 
L 455.358214 223.965558 
L 455.358214 223.965558 
L 467.421397 229.255743 
L 467.421397 229.255743 
L 479.886687 200.018368 
L 479.886687 200.018368 
L 492.351976 225.564935 
L 492.351976 225.564935 
L 504.41516 249.380335 
L 504.41516 249.380335 
L 516.880449 239.43729 
L 516.880449 239.43729 
L 528.943632 266.357814 
L 528.943632 266.357814 
L 541.408922 240.688774 
L 541.408922 240.688774 
L 553.874211 295.358004 
L 553.874211 295.358004 
L 565.133183 221.306184 
L 565.133183 221.306184 
L 577.598472 271.54631 
L 577.598472 271.54631 
L 589.661655 270.156565 
L 589.661655 270.156565 
L 602.126945 317.946387 
L 602.126945 317.946387 
L 614.190128 244.480642 
L 614.190128 244.480642 
L 639.120707 265.42042 
L 639.120707 265.42042 
L 651.183891 164.682375 
L 651.183891 164.682375 
L 663.64918 256.51496 
L 663.64918 256.51496 
L 675.712363 241.557024 
L 675.712363 241.557024 
L 688.177653 284.335522 
L 688.177653 284.335522 
L 700.642942 199.904841 
L 700.642942 199.904841 
L 711.901913 266.773658 
L 711.901913 266.773658 
L 724.367203 177.714062 
L 724.367203 177.714062 
L 736.430386 215.775063 
L 736.430386 215.775063 
L 748.895676 206.975907 
L 748.895676 206.975907 
L 760.958859 203.956869 
L 760.958859 203.956869 
L 773.424149 282.44876 
L 773.424149 282.44876 
L 785.889438 167.408255 
L 785.889438 167.408255 
L 797.952621 251.103243 
L 797.952621 251.103243 
L 810.417911 239.780577 
L 810.417911 239.780577 
L 822.481094 270.935942 
L 822.481094 270.935942 
L 834.946384 244.651102 
L 834.946384 244.651102 
L 847.411673 265.729666 
L 847.411673 265.729666 
L 859.07275 290.106032 
L 859.07275 290.106032 
L 871.53804 256.686513 
L 871.53804 256.686513 
L 883.601223 241.038029 
L 883.601223 241.038029 
L 896.066513 286.470151 
L 896.066513 286.470151 
L 908.129696 210.344552 
L 908.129696 210.344552 
L 920.594986 315.577323 
L 920.594986 315.577323 
L 933.060275 267.353787 
L 933.060275 267.353787 
L 945.123458 315.454366 
L 945.123458 315.454366 
L 957.588748 283.291615 
L 957.588748 283.291615 
L 969.651931 266.176917 
L 969.651931 266.176917 
L 982.117221 254.737031 
L 982.117221 254.737031 
L 994.58251 264.917766 
L 994.58251 264.917766 
L 1005.841481 315.022924 
L 1005.841481 315.022924 
L 1018.306771 268.075889 
L 1018.306771 268.075889 
L 1030.369954 253.803892 
L 1030.369954 253.803892 
L 1042.835244 311.626976 
L 1042.835244 311.626976 
L 1054.898427 243.866088 
L 1054.898427 243.866088 
L 1067.363717 297.911797 
L 1067.363717 297.911797 
L 1079.829006 234.582988 
L 1079.829006 234.582988 
L 1091.892189 278.838054 
L 1091.892189 278.838054 
L 1104.357479 290.532171 
L 1104.357479 290.532171 
L 1116.420662 251.625233 
L 1116.420662 251.625233 
L 1128.885952 328.740285 
L 1128.885952 328.740285 
L 1141.351241 285.419565 
L 1141.351241 285.419565 
L 1152.610212 257.349555 
L 1152.610212 257.349555 
L 1165.075502 337.150894 
L 1165.075502 337.150894 
L 1177.138685 298.44735 
L 1177.138685 298.44735 
L 1189.603975 281.737654 
L 1189.603975 281.737654 
L 1201.667158 324.212023 
L 1201.667158 324.212023 
L 1214.132447 271.73688 
L 1214.132447 271.73688 
L 1226.597737 288.023642 
L 1226.597737 288.023642 
L 1238.66092 324.406428 
L 1238.66092 324.406428 
L 1251.12621 301.190299 
L 1251.12621 301.190299 
L 1263.189393 300.241899 
L 1263.189393 300.241899 
L 1275.654683 292.600002 
L 1275.654683 292.600002 
L 1288.119972 327.562956 
L 1288.119972 327.562956 
L 1299.378943 324.509082 
L 1299.378943 324.509082 
L 1311.844233 306.440787 
L 1311.844233 306.440787 
L 1323.907416 321.356978 
L 1323.907416 321.356978 
L 1336.372705 318.87504 
L 1348.435889 332.816311 
L 1360.901178 319.558536 
L 1373.366468 322.72637 
L 1373.366468 322.72637 
" clip-path="url(#pa918af3565)" style="fill: none; stroke: #c17150; stroke-width: 1.5; stroke-linecap: round"/>
   </g>
   <g id="patch_3">
    <path d="M 37.067331 632.515723 
L 37.067331 17.30242 
" style="fill: none; stroke: #808080; stroke-width: 0.8; stroke-linejoin: miter; stroke-linecap: square"/>
   </g>
   <g id="patch_4">
    <path d="M 37.067331 632.515723 
L 1436.99976 632.515723 
" style="fill: none; stroke: #808080; stroke-width: 0.8; stroke-linejoin: miter; stroke-linecap: square"/>
   </g>
   <g id="text_20">
    <!-- Out of Sample -->
    <g style="fill: #262626" transform="translate(699.802024 11.30242) scale(0.12 -0.12)">
     <defs>
      <path id="CMR17-4f" d="M 4307 2135 
C 4307 3437 3366 4416 2304 4416 
C 1216 4416 294 3424 294 2135 
C 294 845 1229 -128 2298 -128 
C 3392 -128 4307 864 4307 2135 
z
M 2304 -13 
C 1574 -13 781 711 781 2217 
C 781 3716 1651 4301 2298 4301 
C 2976 4301 3821 3698 3821 2217 
C 3821 686 3008 -13 2304 -13 
z
" transform="scale(0.015625)"/>
      <path id="CMR17-66" d="M 979 2560 
L 1709 2560 
L 1709 2725 
L 966 2725 
L 966 3494 
C 966 4022 1235 4352 1510 4352 
C 1594 4352 1690 4327 1754 4282 
C 1702 4269 1568 4225 1568 4067 
C 1568 3901 1696 3850 1786 3850 
C 1875 3850 2003 3901 2003 4067 
C 2003 4308 1773 4454 1517 4454 
C 1152 4454 653 4156 653 3481 
L 653 2725 
L 141 2725 
L 141 2560 
L 653 2560 
L 653 427 
C 653 184 627 153 218 153 
L 218 -13 
C 371 0 666 0 832 0 
C 1018 0 1344 0 1517 -13 
L 1517 153 
C 1056 153 979 153 979 439 
L 979 2560 
z
" transform="scale(0.015625)"/>
      <path id="CMR17-53" d="M 2803 4290 
C 2803 4404 2797 4411 2758 4411 
C 2720 4411 2707 4385 2682 4328 
L 2490 3907 
C 2246 4257 1875 4416 1472 4416 
C 819 4416 294 3901 294 3253 
C 294 3056 339 2776 557 2510 
C 794 2218 1018 2167 1530 2033 
C 1722 1982 2042 1899 2106 1874 
C 2470 1722 2662 1341 2662 985 
C 2662 527 2336 38 1779 38 
C 1094 38 454 419 410 1311 
C 403 1413 397 1419 352 1419 
C 301 1419 294 1413 294 1285 
L 294 -1 
C 294 -115 301 -122 339 -122 
C 384 -122 397 -90 486 108 
C 493 127 493 140 614 381 
C 934 -39 1472 -128 1779 -128 
C 2477 -128 2970 451 2970 1124 
C 2970 1454 2848 1708 2778 1823 
C 2509 2230 2221 2306 1914 2382 
C 1869 2402 1856 2402 1498 2490 
C 1152 2579 1005 2624 845 2796 
C 666 2992 602 3196 602 3399 
C 602 3812 934 4263 1478 4263 
C 2157 4263 2579 3786 2675 2993 
C 2694 2878 2701 2872 2746 2872 
C 2803 2872 2803 2891 2803 2999 
L 2803 4290 
z
" transform="scale(0.015625)"/>
      <path id="CMR17-6d" d="M 4326 1933 
C 4326 2252 4269 2790 3507 2790 
C 3072 2790 2771 2496 2656 2151 
L 2650 2151 
C 2573 2676 2195 2790 1837 2790 
C 1331 2790 1069 2400 973 2144 
L 966 2144 
L 966 2790 
L 211 2720 
L 211 2554 
C 589 2554 646 2515 646 2208 
L 646 428 
C 646 184 621 153 211 153 
L 211 -13 
C 365 0 646 0 813 0 
C 979 0 1267 0 1421 -13 
L 1421 153 
C 1011 153 986 178 986 428 
L 986 1658 
C 986 2247 1344 2688 1792 2688 
C 2266 2688 2317 2266 2317 1958 
L 2317 428 
C 2317 184 2291 153 1882 153 
L 1882 -13 
C 2035 0 2317 0 2483 0 
C 2650 0 2938 0 3091 -13 
L 3091 153 
C 2682 153 2656 178 2656 428 
L 2656 1658 
C 2656 2247 3014 2688 3462 2688 
C 3936 2688 3987 2266 3987 1958 
L 3987 428 
C 3987 184 3962 153 3552 153 
L 3552 -13 
C 3706 0 3987 0 4154 0 
C 4320 0 4608 0 4762 -13 
L 4762 153 
C 4352 153 4326 178 4326 428 
L 4326 1933 
z
" transform="scale(0.015625)"/>
      <path id="CMR17-70" d="M 1408 -1063 
C 998 -1063 973 -1037 973 -789 
L 973 402 
C 1158 134 1427 -38 1766 -38 
C 2406 -38 3053 523 3053 1388 
C 3053 2191 2496 2802 1837 2802 
C 1453 2802 1139 2592 960 2338 
L 960 2802 
L 198 2732 
L 198 2567 
C 576 2567 634 2528 634 2223 
L 634 -789 
C 634 -1031 608 -1063 198 -1063 
L 198 -1228 
C 352 -1216 634 -1216 800 -1216 
C 966 -1216 1254 -1216 1408 -1228 
L 1408 -1063 
z
M 973 2012 
C 973 2102 973 2235 1222 2471 
C 1254 2497 1472 2688 1792 2688 
C 2259 2688 2643 2108 2643 1382 
C 2643 656 2234 64 1728 64 
C 1498 64 1248 172 1056 472 
C 973 612 973 650 973 752 
L 973 2012 
z
" transform="scale(0.015625)"/>
     </defs>
     <use xlink:href="#CMR17-4f" transform="scale(0.996264)"/>
     <use xlink:href="#CMR17-75" transform="translate(71.714788 0) scale(0.996264)"/>
     <use xlink:href="#CMR17-74" transform="translate(122.610158 0) scale(0.996264)"/>
     <use xlink:href="#CMR17-6f" transform="translate(187.966892 0) scale(0.996264)"/>
     <use xlink:href="#CMR17-66" transform="translate(233.657369 0) scale(0.996264)"/>
     <use xlink:href="#CMR17-53" transform="translate(291.206848 0) scale(0.996264)"/>
     <use xlink:href="#CMR17-61" transform="translate(342.102218 0) scale(0.996264)"/>
     <use xlink:href="#CMR17-6d" transform="translate(387.792695 0) scale(0.996264)"/>
     <use xlink:href="#CMR17-70" transform="translate(464.712285 0) scale(0.996264)"/>
     <use xlink:href="#CMR17-6c" transform="translate(515.607655 0) scale(0.996264)"/>
     <use xlink:href="#CMR17-65" transform="translate(540.478713 0) scale(0.996264)"/>
    </g>
   </g>
   <g id="legend_1">
    <g id="patch_5">
     <path d="M 485.81891 716.999693 
L 988.248181 716.999693 
Q 990.248181 716.999693 990.248181 714.999693 
L 990.248181 701.037053 
Q 990.248181 699.037053 988.248181 699.037053 
L 485.81891 699.037053 
Q 483.81891 699.037053 483.81891 701.037053 
L 483.81891 714.999693 
Q 483.81891 716.999693 485.81891 716.999693 
z
" style="fill: #ffffff; opacity: 0.8"/>
    </g>
    <g id="line2d_22">
     <path d="M 487.81891 707.009033 
L 497.81891 707.009033 
L 507.81891 707.009033 
" style="fill: none; stroke-dasharray: 5.55,2.4; stroke-dashoffset: 0; stroke: #006e64; stroke-width: 1.5"/>
    </g>
    <g id="text_21">
     <!-- Actual -->
     <g style="fill: #262626" transform="translate(515.81891 710.509033) scale(0.1 -0.1)">
      <defs>
       <path id="CMR17-41" d="M 2323 4378 
C 2291 4461 2278 4480 2214 4480 
C 2150 4480 2138 4461 2106 4378 
L 749 566 
C 627 223 371 153 147 153 
L 147 -13 
C 262 0 518 0 640 0 
C 800 0 1056 0 1210 -13 
L 1210 153 
C 909 153 864 361 864 439 
C 864 497 877 530 890 569 
L 1229 1536 
L 2906 1536 
L 3290 442 
C 3322 365 3322 352 3322 327 
C 3322 153 3046 153 2925 153 
L 2925 0 
C 3110 0 3443 0 3642 0 
C 3808 0 4128 0 4282 -13 
L 4282 153 
C 3942 153 3827 153 3744 387 
L 2323 4378 
z
M 2067 3893 
L 2848 1702 
L 1286 1702 
L 2067 3893 
z
" transform="scale(0.015625)"/>
       <path id="CMR17-63" d="M 2234 2240 
C 2112 2240 1933 2240 1933 2017 
C 1933 1838 2080 1787 2163 1787 
C 2208 1787 2394 1807 2394 2024 
C 2394 2467 1958 2803 1466 2803 
C 787 2803 211 2178 211 1363 
C 211 516 813 -64 1466 -64 
C 2259 -64 2458 677 2458 748 
C 2458 774 2451 793 2406 793 
C 2362 793 2355 787 2330 703 
C 2163 180 1798 51 1523 51 
C 1114 51 621 427 621 1369 
C 621 2338 1094 2688 1472 2688 
C 1722 2688 2093 2573 2234 2240 
z
" transform="scale(0.015625)"/>
      </defs>
      <use xlink:href="#CMR17-41" transform="scale(0.996264)"/>
      <use xlink:href="#CMR17-63" transform="translate(69.07243 0) scale(0.996264)"/>
      <use xlink:href="#CMR17-74" transform="translate(109.55809 0) scale(0.996264)"/>
      <use xlink:href="#CMR17-75" transform="translate(144.838858 0) scale(0.996264)"/>
      <use xlink:href="#CMR17-61" transform="translate(195.734228 0) scale(0.996264)"/>
      <use xlink:href="#CMR17-6c" transform="translate(241.424705 0) scale(0.996264)"/>
     </g>
    </g>
    <g id="line2d_23">
     <path d="M 564.876676 707.009033 
L 574.876676 707.009033 
L 584.876676 707.009033 
" style="fill: none; stroke: #734848; stroke-width: 1.5; stroke-linecap: round"/>
    </g>
    <g id="text_22">
     <!-- Predicted (Average) -->
     <g style="fill: #262626" transform="translate(592.876676 710.509033) scale(0.1 -0.1)">
      <defs>
       <path id="CMR17-50" d="M 1267 2042 
L 2291 2042 
C 3117 2042 3718 2578 3718 3184 
C 3718 3791 3130 4352 2291 4352 
L 333 4352 
L 333 4186 
C 774 4186 845 4186 845 3899 
L 845 446 
C 845 160 774 160 333 160 
L 333 0 
C 518 0 858 0 1056 0 
C 1254 0 1594 0 1779 0 
L 1779 160 
C 1338 160 1267 160 1267 446 
L 1267 2042 
z
M 1254 2176 
L 1254 3938 
C 1254 4155 1267 4186 1523 4186 
L 2170 4186 
C 2995 4186 3232 3714 3232 3184 
C 3232 2604 2950 2176 2170 2176 
L 1254 2176 
z
" transform="scale(0.015625)"/>
       <path id="CMR17-64" d="M 1869 4326 
L 1869 4160 
C 2246 4160 2304 4122 2304 3820 
L 2304 2345 
C 2278 2377 2016 2790 1498 2790 
C 845 2790 211 2208 211 1364 
C 211 525 806 -64 1434 -64 
C 1978 -64 2259 337 2291 380 
L 2291 -63 
L 3066 -63 
L 3066 128 
C 2688 128 2630 166 2630 473 
L 2630 4396 
L 1869 4326 
z
M 2291 755 
C 2291 563 2176 390 2029 262 
C 1811 70 1594 38 1472 38 
C 1286 38 621 134 621 1356 
C 621 2612 1363 2688 1530 2688 
C 1824 2688 2061 2522 2208 2291 
C 2291 2157 2291 2138 2291 2023 
L 2291 755 
z
" transform="scale(0.015625)"/>
       <path id="CMR17-28" d="M 1958 -1561 
C 1958 -1555 1958 -1542 1939 -1523 
C 1645 -1224 858 -407 858 1581 
C 858 3569 1632 4379 1946 4697 
C 1946 4704 1958 4717 1958 4736 
C 1958 4755 1939 4768 1914 4768 
C 1843 4768 1299 4296 986 3594 
C 666 2887 576 2199 576 1588 
C 576 1128 621 351 1005 -471 
C 1312 -1135 1837 -1600 1914 -1600 
C 1946 -1600 1958 -1587 1958 -1561 
z
" transform="scale(0.015625)"/>
       <path id="CMR17-76" d="M 2502 2163 
C 2560 2304 2662 2560 3034 2560 
L 3034 2726 
C 2912 2726 2752 2726 2630 2726 
C 2496 2726 2285 2726 2157 2732 
L 2157 2566 
C 2317 2553 2406 2477 2406 2311 
C 2406 2253 2406 2240 2368 2151 
L 1664 377 
L 902 2286 
C 864 2369 864 2381 864 2407 
C 864 2560 1075 2560 1171 2560 
L 1171 2732 
C 1018 2726 736 2726 576 2726 
C 403 2726 205 2726 64 2732 
L 64 2560 
C 307 2560 442 2560 518 2362 
L 1446 44 
C 1485 -51 1491 -64 1549 -64 
C 1606 -64 1613 -51 1651 44 
L 2502 2163 
z
" transform="scale(0.015625)"/>
       <path id="CMR17-67" d="M 710 1164 
C 832 1068 1043 960 1299 960 
C 1805 960 2240 1357 2240 1888 
C 2240 2054 2189 2310 1997 2509 
C 2176 2692 2438 2752 2586 2752 
C 2611 2752 2650 2752 2682 2734 
C 2656 2728 2598 2703 2598 2605 
C 2598 2527 2656 2471 2739 2471 
C 2835 2471 2886 2533 2886 2614 
C 2886 2731 2790 2854 2586 2854 
C 2330 2854 2106 2738 1926 2580 
C 1734 2753 1504 2816 1299 2816 
C 794 2816 358 2419 358 1888 
C 358 1522 570 1292 634 1228 
C 442 1004 442 743 442 711 
C 442 545 506 302 723 168 
C 390 85 128 -169 128 -486 
C 128 -943 736 -1280 1466 -1280 
C 2170 -1280 2803 -956 2803 -479 
C 2803 384 1856 384 1363 384 
C 1216 384 954 384 922 391 
C 723 423 589 602 589 826 
C 589 883 589 1024 710 1164 
z
M 1299 1068 
C 736 1068 736 1760 736 1889 
C 736 2016 736 2708 1299 2708 
C 1862 2708 1862 2016 1862 1889 
C 1862 1760 1862 1068 1299 1068 
z
M 1466 -1171 
C 826 -1171 384 -835 384 -486 
C 384 -289 493 -105 634 -4 
C 794 104 858 104 1293 104 
C 1818 104 2547 104 2547 -486 
C 2547 -835 2106 -1171 1466 -1171 
z
" transform="scale(0.015625)"/>
       <path id="CMR17-29" d="M 1683 1581 
C 1683 2040 1638 2817 1254 3639 
C 947 4303 422 4768 346 4768 
C 326 4768 301 4761 301 4729 
C 301 4717 307 4710 314 4697 
C 621 4378 1402 3568 1402 1584 
C 1402 -407 627 -1217 314 -1537 
C 307 -1549 301 -1556 301 -1568 
C 301 -1600 326 -1600 346 -1600 
C 416 -1600 960 -1128 1274 -426 
C 1594 281 1683 969 1683 1581 
z
" transform="scale(0.015625)"/>
      </defs>
      <use xlink:href="#CMR17-50" transform="scale(0.996264)"/>
      <use xlink:href="#CMR17-72" transform="translate(62.586301 0) scale(0.996264)"/>
      <use xlink:href="#CMR17-65" transform="translate(97.867068 0) scale(0.996264)"/>
      <use xlink:href="#CMR17-64" transform="translate(138.352729 0) scale(0.996264)"/>
      <use xlink:href="#CMR17-69" transform="translate(189.248099 0) scale(0.996264)"/>
      <use xlink:href="#CMR17-63" transform="translate(214.119157 0) scale(0.996264)"/>
      <use xlink:href="#CMR17-74" transform="translate(254.604818 0) scale(0.996264)"/>
      <use xlink:href="#CMR17-65" transform="translate(289.885585 0) scale(0.996264)"/>
      <use xlink:href="#CMR17-64" transform="translate(330.371246 0) scale(0.996264)"/>
      <use xlink:href="#CMR17-28" transform="translate(411.342582 0) scale(0.996264)"/>
      <use xlink:href="#CMR17-41" transform="translate(446.62335 0) scale(0.996264)"/>
      <use xlink:href="#CMR17-76" transform="translate(515.695779 0) scale(0.996264)"/>
      <use xlink:href="#CMR17-65" transform="translate(561.386241 0) scale(0.996264)"/>
      <use xlink:href="#CMR17-72" transform="translate(601.871902 0) scale(0.996264)"/>
      <use xlink:href="#CMR17-61" transform="translate(637.15267 0) scale(0.996264)"/>
      <use xlink:href="#CMR17-67" transform="translate(682.843147 0) scale(0.996264)"/>
      <use xlink:href="#CMR17-65" transform="translate(728.533624 0) scale(0.996264)"/>
      <use xlink:href="#CMR17-29" transform="translate(769.019284 0) scale(0.996264)"/>
     </g>
    </g>
    <g id="line2d_24">
     <path d="M 700.797127 707.009033 
L 710.797127 707.009033 
L 720.797127 707.009033 
" style="fill: none; stroke: #004e4a; stroke-width: 1.5; stroke-linecap: round"/>
    </g>
    <g id="text_23">
     <!-- Predicted (Bates and Granger) -->
     <g style="fill: #262626" transform="translate(728.797127 710.509033) scale(0.1 -0.1)">
      <defs>
       <path id="CMR17-42" d="M 333 4352 
L 333 4186 
C 774 4186 845 4186 845 3900 
L 845 452 
C 845 166 774 166 333 166 
L 333 0 
L 2534 0 
C 3354 0 3885 583 3885 1164 
C 3885 1741 3360 2233 2675 2233 
C 3290 2356 3718 2771 3718 3264 
C 3718 3802 3194 4352 2368 4352 
L 333 4352 
z
M 1248 2304 
L 1248 3937 
C 1248 4155 1261 4186 1517 4186 
L 2336 4186 
C 2970 4186 3251 3674 3251 3277 
C 3251 2791 2861 2304 2170 2304 
L 1248 2304 
z
M 1517 166 
C 1261 166 1248 197 1248 413 
L 1248 2202 
L 2432 2202 
C 3091 2202 3411 1625 3411 1162 
C 3411 699 3046 166 2349 166 
L 1517 166 
z
" transform="scale(0.015625)"/>
       <path id="CMR17-73" d="M 1978 2697 
C 1978 2813 1971 2819 1933 2819 
C 1907 2819 1901 2813 1824 2717 
C 1805 2691 1747 2626 1728 2601 
C 1523 2819 1235 2819 1126 2819 
C 416 2819 160 2447 160 2076 
C 160 1498 813 1365 998 1325 
C 1402 1243 1542 1217 1677 1101 
C 1760 1025 1901 884 1901 654 
C 1901 384 1747 38 1158 38 
C 602 38 403 460 288 1021 
C 269 1110 269 1117 218 1117 
C 166 1117 160 1110 160 983 
L 160 63 
C 160 -51 166 -58 205 -58 
C 237 -58 243 -51 275 0 
C 314 57 410 211 448 276 
C 576 103 800 -64 1158 -64 
C 1792 -64 2131 283 2131 784 
C 2131 1112 1958 1285 1875 1362 
C 1683 1561 1459 1606 1190 1657 
C 838 1735 390 1825 390 2217 
C 390 2383 480 2737 1126 2737 
C 1811 2737 1850 2094 1862 1888 
C 1869 1856 1901 1849 1920 1849 
C 1978 1849 1978 1869 1978 1978 
L 1978 2697 
z
" transform="scale(0.015625)"/>
       <path id="CMR17-47" d="M 3974 1233 
C 3974 1473 3994 1505 4390 1505 
L 4390 1670 
C 4237 1664 3891 1664 3718 1664 
C 3539 1664 3040 1664 2797 1664 
L 2797 1505 
L 2989 1505 
C 3539 1505 3552 1434 3552 1201 
L 3552 774 
C 3552 63 2720 63 2522 63 
C 1862 63 781 511 781 2160 
C 781 3808 1843 4250 2464 4250 
C 3187 4250 3712 3626 3834 2741 
C 3846 2664 3846 2651 3904 2651 
C 3974 2651 3974 2664 3974 2779 
L 3974 4288 
C 3974 4402 3968 4409 3930 4409 
C 3904 4409 3898 4402 3853 4326 
L 3571 3791 
C 3258 4187 2874 4416 2381 4416 
C 1286 4416 294 3456 294 2148 
C 294 845 1267 -128 2394 -128 
C 2912 -128 3418 56 3616 417 
C 3725 158 3904 -20 3936 -20 
C 3968 -20 3974 -13 3974 100 
L 3974 1233 
z
" transform="scale(0.015625)"/>
      </defs>
      <use xlink:href="#CMR17-50" transform="scale(0.996264)"/>
      <use xlink:href="#CMR17-72" transform="translate(62.586301 0) scale(0.996264)"/>
      <use xlink:href="#CMR17-65" transform="translate(97.867068 0) scale(0.996264)"/>
      <use xlink:href="#CMR17-64" transform="translate(138.352729 0) scale(0.996264)"/>
      <use xlink:href="#CMR17-69" transform="translate(189.248099 0) scale(0.996264)"/>
      <use xlink:href="#CMR17-63" transform="translate(214.119157 0) scale(0.996264)"/>
      <use xlink:href="#CMR17-74" transform="translate(254.604818 0) scale(0.996264)"/>
      <use xlink:href="#CMR17-65" transform="translate(289.885585 0) scale(0.996264)"/>
      <use xlink:href="#CMR17-64" transform="translate(330.371246 0) scale(0.996264)"/>
      <use xlink:href="#CMR17-28" transform="translate(411.342582 0) scale(0.996264)"/>
      <use xlink:href="#CMR17-42" transform="translate(446.62335 0) scale(0.996264)"/>
      <use xlink:href="#CMR17-61" transform="translate(511.812104 0) scale(0.996264)"/>
      <use xlink:href="#CMR17-74" transform="translate(557.502581 0) scale(0.996264)"/>
      <use xlink:href="#CMR17-65" transform="translate(592.783349 0) scale(0.996264)"/>
      <use xlink:href="#CMR17-73" transform="translate(633.26901 0) scale(0.996264)"/>
      <use xlink:href="#CMR17-61" transform="translate(699.146314 0) scale(0.996264)"/>
      <use xlink:href="#CMR17-6e" transform="translate(744.836791 0) scale(0.996264)"/>
      <use xlink:href="#CMR17-64" transform="translate(795.73216 0) scale(0.996264)"/>
      <use xlink:href="#CMR17-47" transform="translate(876.703497 0) scale(0.996264)"/>
      <use xlink:href="#CMR17-72" transform="translate(949.058842 0) scale(0.996264)"/>
      <use xlink:href="#CMR17-61" transform="translate(984.33961 0) scale(0.996264)"/>
      <use xlink:href="#CMR17-6e" transform="translate(1030.030087 0) scale(0.996264)"/>
      <use xlink:href="#CMR17-67" transform="translate(1080.925457 0) scale(0.996264)"/>
      <use xlink:href="#CMR17-65" transform="translate(1126.615934 0) scale(0.996264)"/>
      <use xlink:href="#CMR17-72" transform="translate(1167.101595 0) scale(0.996264)"/>
      <use xlink:href="#CMR17-29" transform="translate(1202.382363 0) scale(0.996264)"/>
     </g>
    </g>
    <g id="line2d_25">
     <path d="M 884.054043 707.009033 
L 894.054043 707.009033 
L 904.054043 707.009033 
" style="fill: none; stroke: #c17150; stroke-width: 1.5; stroke-linecap: round"/>
    </g>
    <g id="text_24">
     <!-- Predicted (MSE) -->
     <g style="fill: #262626" transform="translate(912.054043 710.509033) scale(0.1 -0.1)">
      <defs>
       <path id="CMR17-4d" d="M 1338 4224 
C 1299 4320 1293 4320 1158 4320 
L 339 4320 
L 339 4160 
C 781 4160 851 4160 851 3875 
L 851 610 
C 851 451 851 153 339 153 
L 339 -13 
C 486 0 755 0 915 0 
C 1075 0 1344 0 1491 -13 
L 1491 153 
C 979 153 979 451 979 610 
L 979 4135 
L 986 4135 
L 2490 89 
C 2515 25 2528 -13 2579 -13 
C 2630 -13 2643 25 2669 89 
L 4186 4166 
L 4192 4166 
L 4192 438 
C 4192 153 4122 153 3680 153 
L 3680 -13 
C 3853 0 4198 0 4384 0 
C 4570 0 4922 0 5094 -13 
L 5094 153 
C 4653 153 4582 153 4582 438 
L 4582 3875 
C 4582 4160 4653 4160 5094 4160 
L 5094 4320 
L 4282 4320 
C 4147 4320 4141 4314 4102 4218 
L 2720 502 
L 1338 4224 
z
" transform="scale(0.015625)"/>
       <path id="CMR17-45" d="M 3885 1615 
L 3770 1615 
C 3629 676 3546 166 2419 166 
L 1530 166 
C 1274 166 1261 197 1261 414 
L 1261 2176 
L 1862 2176 
C 2464 2176 2522 1960 2522 1430 
L 2637 1430 
L 2637 3081 
L 2522 3081 
C 2522 2557 2464 2342 1862 2342 
L 1261 2342 
L 1261 3913 
C 1261 4128 1274 4160 1530 4160 
L 2406 4160 
C 3398 4160 3514 3769 3603 2929 
L 3718 2929 
L 3565 4325 
L 326 4325 
L 326 4160 
C 768 4160 838 4160 838 3874 
L 838 451 
C 838 166 768 166 326 166 
L 326 0 
L 3654 0 
L 3885 1615 
z
" transform="scale(0.015625)"/>
      </defs>
      <use xlink:href="#CMR17-50" transform="scale(0.996264)"/>
      <use xlink:href="#CMR17-72" transform="translate(62.586301 0) scale(0.996264)"/>
      <use xlink:href="#CMR17-65" transform="translate(97.867068 0) scale(0.996264)"/>
      <use xlink:href="#CMR17-64" transform="translate(138.352729 0) scale(0.996264)"/>
      <use xlink:href="#CMR17-69" transform="translate(189.248099 0) scale(0.996264)"/>
      <use xlink:href="#CMR17-63" transform="translate(214.119157 0) scale(0.996264)"/>
      <use xlink:href="#CMR17-74" transform="translate(254.604818 0) scale(0.996264)"/>
      <use xlink:href="#CMR17-65" transform="translate(289.885585 0) scale(0.996264)"/>
      <use xlink:href="#CMR17-64" transform="translate(330.371246 0) scale(0.996264)"/>
      <use xlink:href="#CMR17-28" transform="translate(411.342582 0) scale(0.996264)"/>
      <use xlink:href="#CMR17-4d" transform="translate(446.62335 0) scale(0.996264)"/>
      <use xlink:href="#CMR17-53" transform="translate(531.31029 0) scale(0.996264)"/>
      <use xlink:href="#CMR17-45" transform="translate(582.20566 0) scale(0.996264)"/>
      <use xlink:href="#CMR17-29" transform="translate(644.791961 0) scale(0.996264)"/>
     </g>
    </g>
   </g>
  </g>
 </g>
 <defs>
  <clipPath id="pa918af3565">
   <rect x="37.067331" y="17.30242" width="1399.932429" height="615.213303"/>
  </clipPath>
 </defs>
</svg>
