<?xml version="1.0" encoding="utf-8" standalone="no"?>
<!DOCTYPE svg PUBLIC "-//W3C//DTD SVG 1.1//EN"
  "http://www.w3.org/Graphics/SVG/1.1/DTD/svg11.dtd">
<svg xmlns:xlink="http://www.w3.org/1999/xlink" width="1440pt" height="720pt" viewBox="0 0 1440 720" xmlns="http://www.w3.org/2000/svg" version="1.1">
 <metadata>
  <rdf:RDF xmlns:dc="http://purl.org/dc/elements/1.1/" xmlns:cc="http://creativecommons.org/ns#" xmlns:rdf="http://www.w3.org/1999/02/22-rdf-syntax-ns#">
   <cc:Work>
    <dc:type rdf:resource="http://purl.org/dc/dcmitype/StillImage"/>
    <dc:date>2023-11-01T07:59:02.167552</dc:date>
    <dc:format>image/svg+xml</dc:format>
    <dc:creator>
     <cc:Agent>
      <dc:title>Matplotlib v3.8.0, https://matplotlib.org/</dc:title>
     </cc:Agent>
    </dc:creator>
   </cc:Work>
  </rdf:RDF>
 </metadata>
 <defs>
  <style type="text/css">*{stroke-linejoin: round; stroke-linecap: butt}</style>
 </defs>
 <g id="figure_1">
  <g id="patch_1">
   <path d="M 0 720 
L 1440 720 
L 1440 0 
L 0 0 
z
" style="fill: #ffffff"/>
  </g>
  <g id="axes_1">
   <g id="patch_2">
    <path d="M 32.085996 632.515723 
L 1428.535861 632.515723 
L 1428.535861 17.30242 
L 32.085996 17.30242 
z
" style="fill: #ffffff"/>
   </g>
   <g id="matplotlib.axis_1">
    <g id="xtick_1">
     <g id="line2d_1">
      <path d="M 95.56099 632.515723 
L 95.56099 17.30242 
" clip-path="url(#p89bcc2b591)" style="fill: none; stroke: #cccccc; stroke-opacity: 0.5; stroke-width: 0.8; stroke-linecap: round"/>
     </g>
     <g id="text_1">
      <!-- $\mathdefault{2015}$ -->
      <g transform="translate(85.598319 642.934221) scale(0.1 -0.1)">
       <defs>
        <path id="CMR17-32" d="M 2669 989 
L 2554 989 
C 2490 536 2438 459 2413 420 
C 2381 369 1920 369 1830 369 
L 602 369 
C 832 619 1280 1072 1824 1597 
C 2214 1967 2669 2402 2669 3035 
C 2669 3790 2067 4224 1395 4224 
C 691 4224 262 3604 262 3030 
C 262 2780 448 2748 525 2748 
C 589 2748 781 2787 781 3010 
C 781 3207 614 3264 525 3264 
C 486 3264 448 3258 422 3245 
C 544 3790 915 4058 1306 4058 
C 1862 4058 2227 3617 2227 3035 
C 2227 2479 1901 2000 1536 1584 
L 262 146 
L 262 0 
L 2515 0 
L 2669 989 
z
" transform="scale(0.015625)"/>
        <path id="CMR17-30" d="M 2688 2025 
C 2688 2416 2682 3080 2413 3591 
C 2176 4039 1798 4198 1466 4198 
C 1158 4198 768 4058 525 3597 
C 269 3118 243 2524 243 2025 
C 243 1661 250 1106 448 619 
C 723 -39 1216 -128 1466 -128 
C 1760 -128 2208 -7 2470 600 
C 2662 1042 2688 1559 2688 2025 
z
M 1466 -26 
C 1056 -26 813 325 723 812 
C 653 1188 653 1738 653 2096 
C 653 2588 653 2997 736 3387 
C 858 3929 1216 4096 1466 4096 
C 1728 4096 2067 3923 2189 3400 
C 2272 3036 2278 2607 2278 2096 
C 2278 1680 2278 1169 2202 792 
C 2067 95 1690 -26 1466 -26 
z
" transform="scale(0.015625)"/>
        <path id="CMR17-31" d="M 1702 4058 
C 1702 4192 1696 4192 1606 4192 
C 1357 3916 979 3827 621 3827 
C 602 3827 570 3827 563 3808 
C 557 3795 557 3782 557 3648 
C 755 3648 1088 3686 1344 3839 
L 1344 461 
C 1344 236 1331 160 781 160 
L 589 160 
L 589 0 
C 896 0 1216 0 1523 0 
C 1830 0 2150 0 2458 0 
L 2458 160 
L 2266 160 
C 1715 160 1702 230 1702 458 
L 1702 4058 
z
" transform="scale(0.015625)"/>
        <path id="CMR17-35" d="M 730 3692 
C 794 3666 1056 3584 1325 3584 
C 1920 3584 2246 3911 2432 4100 
C 2432 4157 2432 4192 2394 4192 
C 2387 4192 2374 4192 2323 4163 
C 2099 4058 1837 3973 1517 3973 
C 1325 3973 1037 3999 723 4139 
C 653 4171 640 4171 634 4171 
C 602 4171 595 4164 595 4037 
L 595 2203 
C 595 2089 595 2057 659 2057 
C 691 2057 704 2070 736 2114 
C 941 2401 1222 2522 1542 2522 
C 1766 2522 2246 2382 2246 1289 
C 2246 1085 2246 715 2054 421 
C 1894 159 1645 25 1370 25 
C 947 25 518 320 403 814 
C 429 807 480 795 506 795 
C 589 795 749 840 749 1038 
C 749 1210 627 1280 506 1280 
C 358 1280 262 1190 262 1011 
C 262 454 704 -128 1382 -128 
C 2042 -128 2669 440 2669 1264 
C 2669 2030 2170 2624 1549 2624 
C 1222 2624 947 2503 730 2274 
L 730 3692 
z
" transform="scale(0.015625)"/>
       </defs>
       <use xlink:href="#CMR17-32" transform="scale(0.996264)"/>
       <use xlink:href="#CMR17-30" transform="translate(45.690477 0) scale(0.996264)"/>
       <use xlink:href="#CMR17-31" transform="translate(91.380954 0) scale(0.996264)"/>
       <use xlink:href="#CMR17-35" transform="translate(137.071431 0) scale(0.996264)"/>
      </g>
     </g>
    </g>
    <g id="xtick_2">
     <g id="line2d_2">
      <path d="M 243.412762 632.515723 
L 243.412762 17.30242 
" clip-path="url(#p89bcc2b591)" style="fill: none; stroke: #cccccc; stroke-opacity: 0.5; stroke-width: 0.8; stroke-linecap: round"/>
     </g>
     <g id="text_2">
      <!-- $\mathdefault{2016}$ -->
      <g transform="translate(233.450092 642.934221) scale(0.1 -0.1)">
       <defs>
        <path id="CMR17-36" d="M 678 2176 
C 678 3690 1395 4032 1811 4032 
C 1946 4032 2272 4009 2400 3776 
C 2298 3776 2106 3776 2106 3553 
C 2106 3381 2246 3323 2336 3323 
C 2394 3323 2566 3348 2566 3560 
C 2566 3954 2246 4179 1805 4179 
C 1043 4179 243 3390 243 1984 
C 243 253 966 -128 1478 -128 
C 2099 -128 2688 427 2688 1283 
C 2688 2081 2170 2662 1517 2662 
C 1126 2662 838 2407 678 1960 
L 678 2176 
z
M 1478 25 
C 691 25 691 1200 691 1436 
C 691 1896 909 2560 1504 2560 
C 1613 2560 1926 2560 2138 2120 
C 2253 1870 2253 1609 2253 1289 
C 2253 944 2253 690 2118 434 
C 1978 171 1773 25 1478 25 
z
" transform="scale(0.015625)"/>
       </defs>
       <use xlink:href="#CMR17-32" transform="scale(0.996264)"/>
       <use xlink:href="#CMR17-30" transform="translate(45.690477 0) scale(0.996264)"/>
       <use xlink:href="#CMR17-31" transform="translate(91.380954 0) scale(0.996264)"/>
       <use xlink:href="#CMR17-36" transform="translate(137.071431 0) scale(0.996264)"/>
      </g>
     </g>
    </g>
    <g id="xtick_3">
     <g id="line2d_3">
      <path d="M 391.669608 632.515723 
L 391.669608 17.30242 
" clip-path="url(#p89bcc2b591)" style="fill: none; stroke: #cccccc; stroke-opacity: 0.5; stroke-width: 0.8; stroke-linecap: round"/>
     </g>
     <g id="text_3">
      <!-- $\mathdefault{2017}$ -->
      <g transform="translate(381.706938 642.934221) scale(0.1 -0.1)">
       <defs>
        <path id="CMR17-37" d="M 2886 3941 
L 2886 4081 
L 1382 4081 
C 634 4081 621 4165 595 4288 
L 480 4288 
L 294 3094 
L 410 3094 
C 429 3215 474 3540 550 3661 
C 589 3712 1062 3712 1171 3712 
L 2579 3712 
L 1869 2661 
C 1395 1954 1069 999 1069 165 
C 1069 89 1069 -128 1299 -128 
C 1530 -128 1530 89 1530 171 
L 1530 465 
C 1530 1508 1709 2196 2003 2636 
L 2886 3941 
z
" transform="scale(0.015625)"/>
       </defs>
       <use xlink:href="#CMR17-32" transform="scale(0.996264)"/>
       <use xlink:href="#CMR17-30" transform="translate(45.690477 0) scale(0.996264)"/>
       <use xlink:href="#CMR17-31" transform="translate(91.380954 0) scale(0.996264)"/>
       <use xlink:href="#CMR17-37" transform="translate(137.071431 0) scale(0.996264)"/>
      </g>
     </g>
    </g>
    <g id="xtick_4">
     <g id="line2d_4">
      <path d="M 539.521381 632.515723 
L 539.521381 17.30242 
" clip-path="url(#p89bcc2b591)" style="fill: none; stroke: #cccccc; stroke-opacity: 0.5; stroke-width: 0.8; stroke-linecap: round"/>
     </g>
     <g id="text_4">
      <!-- $\mathdefault{2018}$ -->
      <g transform="translate(529.55871 642.934221) scale(0.1 -0.1)">
       <defs>
        <path id="CMR17-38" d="M 1741 2264 
C 2144 2467 2554 2773 2554 3263 
C 2554 3841 1990 4179 1472 4179 
C 890 4179 378 3759 378 3180 
C 378 3021 416 2747 666 2505 
C 730 2442 998 2251 1171 2130 
C 883 1983 211 1634 211 934 
C 211 279 838 -128 1459 -128 
C 2144 -128 2720 362 2720 1010 
C 2720 1590 2330 1857 2074 2029 
L 1741 2264 
z
M 902 2822 
C 851 2854 595 3051 595 3351 
C 595 3739 998 4032 1459 4032 
C 1965 4032 2336 3676 2336 3262 
C 2336 2669 1670 2331 1638 2331 
C 1632 2331 1626 2331 1574 2370 
L 902 2822 
z
M 2080 1519 
C 2176 1449 2483 1240 2483 851 
C 2483 381 2010 25 1472 25 
C 890 25 448 438 448 940 
C 448 1443 838 1862 1280 2060 
L 2080 1519 
z
" transform="scale(0.015625)"/>
       </defs>
       <use xlink:href="#CMR17-32" transform="scale(0.996264)"/>
       <use xlink:href="#CMR17-30" transform="translate(45.690477 0) scale(0.996264)"/>
       <use xlink:href="#CMR17-31" transform="translate(91.380954 0) scale(0.996264)"/>
       <use xlink:href="#CMR17-38" transform="translate(137.071431 0) scale(0.996264)"/>
      </g>
     </g>
    </g>
    <g id="xtick_5">
     <g id="line2d_5">
      <path d="M 687.373153 632.515723 
L 687.373153 17.30242 
" clip-path="url(#p89bcc2b591)" style="fill: none; stroke: #cccccc; stroke-opacity: 0.5; stroke-width: 0.8; stroke-linecap: round"/>
     </g>
     <g id="text_5">
      <!-- $\mathdefault{2019}$ -->
      <g transform="translate(677.410483 642.934221) scale(0.1 -0.1)">
       <defs>
        <path id="CMR17-39" d="M 2253 1864 
C 2253 464 1670 31 1190 31 
C 1043 31 685 31 538 294 
C 704 268 826 357 826 518 
C 826 692 685 749 595 749 
C 538 749 365 723 365 506 
C 365 71 742 -128 1203 -128 
C 1939 -128 2688 674 2688 2073 
C 2688 3817 1971 4179 1485 4179 
C 851 4179 243 3628 243 2778 
C 243 1991 762 1408 1414 1408 
C 1952 1408 2189 1903 2253 2112 
L 2253 1864 
z
M 1427 1510 
C 1254 1510 1011 1542 813 1922 
C 678 2169 678 2461 678 2771 
C 678 3146 678 3405 858 3684 
C 947 3817 1114 4032 1485 4032 
C 2240 4032 2240 2885 2240 2632 
C 2240 2182 2035 1510 1427 1510 
z
" transform="scale(0.015625)"/>
       </defs>
       <use xlink:href="#CMR17-32" transform="scale(0.996264)"/>
       <use xlink:href="#CMR17-30" transform="translate(45.690477 0) scale(0.996264)"/>
       <use xlink:href="#CMR17-31" transform="translate(91.380954 0) scale(0.996264)"/>
       <use xlink:href="#CMR17-39" transform="translate(137.071431 0) scale(0.996264)"/>
      </g>
     </g>
    </g>
    <g id="xtick_6">
     <g id="line2d_6">
      <path d="M 835.224926 632.515723 
L 835.224926 17.30242 
" clip-path="url(#p89bcc2b591)" style="fill: none; stroke: #cccccc; stroke-opacity: 0.5; stroke-width: 0.8; stroke-linecap: round"/>
     </g>
     <g id="text_6">
      <!-- $\mathdefault{2020}$ -->
      <g transform="translate(825.262255 642.934221) scale(0.1 -0.1)">
       <use xlink:href="#CMR17-32" transform="scale(0.996264)"/>
       <use xlink:href="#CMR17-30" transform="translate(45.690477 0) scale(0.996264)"/>
       <use xlink:href="#CMR17-32" transform="translate(91.380954 0) scale(0.996264)"/>
       <use xlink:href="#CMR17-30" transform="translate(137.071431 0) scale(0.996264)"/>
      </g>
     </g>
    </g>
    <g id="xtick_7">
     <g id="line2d_7">
      <path d="M 983.481772 632.515723 
L 983.481772 17.30242 
" clip-path="url(#p89bcc2b591)" style="fill: none; stroke: #cccccc; stroke-opacity: 0.5; stroke-width: 0.8; stroke-linecap: round"/>
     </g>
     <g id="text_7">
      <!-- $\mathdefault{2021}$ -->
      <g transform="translate(973.519101 642.934221) scale(0.1 -0.1)">
       <use xlink:href="#CMR17-32" transform="scale(0.996264)"/>
       <use xlink:href="#CMR17-30" transform="translate(45.690477 0) scale(0.996264)"/>
       <use xlink:href="#CMR17-32" transform="translate(91.380954 0) scale(0.996264)"/>
       <use xlink:href="#CMR17-31" transform="translate(137.071431 0) scale(0.996264)"/>
      </g>
     </g>
    </g>
    <g id="xtick_8">
     <g id="line2d_8">
      <path d="M 1131.333544 632.515723 
L 1131.333544 17.30242 
" clip-path="url(#p89bcc2b591)" style="fill: none; stroke: #cccccc; stroke-opacity: 0.5; stroke-width: 0.8; stroke-linecap: round"/>
     </g>
     <g id="text_8">
      <!-- $\mathdefault{2022}$ -->
      <g transform="translate(1121.370874 642.934221) scale(0.1 -0.1)">
       <use xlink:href="#CMR17-32" transform="scale(0.996264)"/>
       <use xlink:href="#CMR17-30" transform="translate(45.690477 0) scale(0.996264)"/>
       <use xlink:href="#CMR17-32" transform="translate(91.380954 0) scale(0.996264)"/>
       <use xlink:href="#CMR17-32" transform="translate(137.071431 0) scale(0.996264)"/>
      </g>
     </g>
    </g>
    <g id="xtick_9">
     <g id="line2d_9">
      <path d="M 1279.185317 632.515723 
L 1279.185317 17.30242 
" clip-path="url(#p89bcc2b591)" style="fill: none; stroke: #cccccc; stroke-opacity: 0.5; stroke-width: 0.8; stroke-linecap: round"/>
     </g>
     <g id="text_9">
      <!-- $\mathdefault{2023}$ -->
      <g transform="translate(1269.222646 642.934221) scale(0.1 -0.1)">
       <defs>
        <path id="CMR17-33" d="M 1414 2157 
C 1984 2157 2234 1662 2234 1090 
C 2234 320 1824 25 1453 25 
C 1114 25 563 194 390 693 
C 422 680 454 680 486 680 
C 640 680 755 782 755 948 
C 755 1133 614 1216 486 1216 
C 378 1216 211 1165 211 926 
C 211 335 787 -128 1466 -128 
C 2176 -128 2720 430 2720 1085 
C 2720 1707 2208 2157 1600 2227 
C 2086 2328 2554 2756 2554 3329 
C 2554 3820 2048 4179 1472 4179 
C 890 4179 378 3829 378 3329 
C 378 3110 544 3072 627 3072 
C 762 3072 877 3155 877 3321 
C 877 3486 762 3569 627 3569 
C 602 3569 570 3569 544 3557 
C 730 3959 1235 4032 1459 4032 
C 1683 4032 2106 3925 2106 3320 
C 2106 3143 2080 2828 1862 2550 
C 1670 2304 1453 2304 1242 2284 
C 1210 2284 1062 2269 1037 2269 
C 992 2263 966 2257 966 2208 
C 966 2163 973 2157 1101 2157 
L 1414 2157 
z
" transform="scale(0.015625)"/>
       </defs>
       <use xlink:href="#CMR17-32" transform="scale(0.996264)"/>
       <use xlink:href="#CMR17-30" transform="translate(45.690477 0) scale(0.996264)"/>
       <use xlink:href="#CMR17-32" transform="translate(91.380954 0) scale(0.996264)"/>
       <use xlink:href="#CMR17-33" transform="translate(137.071431 0) scale(0.996264)"/>
      </g>
     </g>
    </g>
    <g id="xtick_10">
     <g id="line2d_10">
      <path d="M 1427.037089 632.515723 
L 1427.037089 17.30242 
" clip-path="url(#p89bcc2b591)" style="fill: none; stroke: #cccccc; stroke-opacity: 0.5; stroke-width: 0.8; stroke-linecap: round"/>
     </g>
     <g id="text_10">
      <!-- $\mathdefault{2024}$ -->
      <g transform="translate(1417.074419 642.934221) scale(0.1 -0.1)">
       <defs>
        <path id="CMR17-34" d="M 2150 4122 
C 2150 4256 2144 4256 2029 4256 
L 128 1254 
L 128 1088 
L 1779 1088 
L 1779 457 
C 1779 224 1766 160 1318 160 
L 1197 160 
L 1197 0 
C 1402 0 1747 0 1965 0 
C 2182 0 2528 0 2733 0 
L 2733 160 
L 2611 160 
C 2163 160 2150 224 2150 457 
L 2150 1088 
L 2803 1088 
L 2803 1254 
L 2150 1254 
L 2150 4122 
z
M 1798 3703 
L 1798 1254 
L 256 1254 
L 1798 3703 
z
" transform="scale(0.015625)"/>
       </defs>
       <use xlink:href="#CMR17-32" transform="scale(0.996264)"/>
       <use xlink:href="#CMR17-30" transform="translate(45.690477 0) scale(0.996264)"/>
       <use xlink:href="#CMR17-32" transform="translate(91.380954 0) scale(0.996264)"/>
       <use xlink:href="#CMR17-34" transform="translate(137.071431 0) scale(0.996264)"/>
      </g>
     </g>
    </g>
    <g id="text_11">
     <!-- Date -->
     <g style="fill: #696969" transform="translate(719.863975 655.789898) scale(0.1 -0.1)">
      <defs>
       <path id="CMR17-44" d="M 333 4352 
L 333 4186 
C 774 4186 845 4186 845 3900 
L 845 452 
C 845 166 774 166 333 166 
L 333 0 
L 2368 0 
C 3398 0 4224 943 4224 2141 
C 4224 3346 3411 4352 2368 4352 
L 333 4352 
z
M 1523 166 
C 1267 166 1254 197 1254 414 
L 1254 3938 
C 1254 4155 1267 4186 1523 4186 
L 2240 4186 
C 2771 4186 3750 3874 3750 2141 
C 3750 1242 3488 879 3366 707 
C 3213 510 2848 166 2240 166 
L 1523 166 
z
" transform="scale(0.015625)"/>
       <path id="CMR17-61" d="M 2304 1653 
C 2304 2072 2304 2294 2035 2543 
C 1798 2752 1523 2816 1306 2816 
C 800 2816 435 2407 435 1971 
C 435 1728 627 1728 666 1728 
C 749 1728 896 1778 896 1954 
C 896 2112 774 2181 666 2181 
C 640 2181 608 2174 589 2168 
C 723 2592 1069 2714 1293 2714 
C 1613 2714 1965 2429 1965 1885 
L 1965 1600 
C 1587 1600 1133 1549 774 1357 
C 371 1133 256 813 256 570 
C 256 77 832 -64 1171 -64 
C 1523 -64 1850 139 1990 511 
C 2003 233 2182 -18 2464 -18 
C 2598 -18 2938 70 2938 567 
L 2938 920 
L 2822 920 
L 2822 562 
C 2822 178 2650 128 2566 128 
C 2304 128 2304 458 2304 738 
L 2304 1653 
z
M 1965 870 
C 1965 317 1568 38 1216 38 
C 896 38 646 275 646 570 
C 646 761 730 1100 1101 1305 
C 1408 1478 1760 1504 1965 1504 
L 1965 870 
z
" transform="scale(0.015625)"/>
       <path id="CMR17-74" d="M 966 2560 
L 1862 2560 
L 1862 2725 
L 966 2725 
L 966 3904 
L 851 3904 
C 838 3245 614 2668 70 2668 
L 70 2560 
L 627 2560 
L 627 771 
C 627 650 627 -64 1370 -64 
C 1747 -64 1965 306 1965 777 
L 1965 1140 
L 1850 1140 
L 1850 783 
C 1850 344 1677 51 1408 51 
C 1222 51 966 178 966 758 
L 966 2560 
z
" transform="scale(0.015625)"/>
       <path id="CMR17-65" d="M 2438 1472 
C 2464 1498 2464 1511 2464 1576 
C 2464 2238 2118 2816 1389 2816 
C 710 2816 173 2169 173 1383 
C 173 551 781 -64 1459 -64 
C 2176 -64 2458 607 2458 740 
C 2458 784 2419 784 2406 784 
C 2362 784 2355 771 2330 696 
C 2189 265 1837 51 1504 51 
C 1229 51 954 203 781 480 
C 582 803 582 1176 582 1472 
L 2438 1472 
z
M 589 1568 
C 634 2505 1126 2714 1382 2714 
C 1818 2714 2112 2297 2118 1568 
L 589 1568 
z
" transform="scale(0.015625)"/>
      </defs>
      <use xlink:href="#CMR17-44" transform="scale(0.996264)"/>
      <use xlink:href="#CMR17-61" transform="translate(70.393556 0) scale(0.996264)"/>
      <use xlink:href="#CMR17-74" transform="translate(116.084033 0) scale(0.996264)"/>
      <use xlink:href="#CMR17-65" transform="translate(151.364801 0) scale(0.996264)"/>
     </g>
    </g>
   </g>
   <g id="matplotlib.axis_2">
    <g id="ytick_1">
     <g id="line2d_11">
      <path d="M 32.085996 628.495946 
L 1428.535861 628.495946 
" clip-path="url(#p89bcc2b591)" style="fill: none; stroke: #cccccc; stroke-opacity: 0.5; stroke-width: 0.8; stroke-linecap: round"/>
     </g>
     <g id="text_12">
      <!-- $\mathdefault{−2}$ -->
      <g transform="translate(15.855917 631.955195) scale(0.1 -0.1)">
       <defs>
        <path id="CMSY10-0" d="M 4218 1472 
C 4326 1472 4442 1472 4442 1600 
C 4442 1728 4326 1728 4218 1728 
L 755 1728 
C 646 1728 531 1728 531 1600 
C 531 1472 646 1472 755 1472 
L 4218 1472 
z
" transform="scale(0.015625)"/>
       </defs>
       <use xlink:href="#CMSY10-0" transform="scale(0.996264)"/>
       <use xlink:href="#CMR17-32" transform="translate(77.487468 0) scale(0.996264)"/>
      </g>
     </g>
    </g>
    <g id="ytick_2">
     <g id="line2d_12">
      <path d="M 32.085996 547.698765 
L 1428.535861 547.698765 
" clip-path="url(#p89bcc2b591)" style="fill: none; stroke: #cccccc; stroke-opacity: 0.5; stroke-width: 0.8; stroke-linecap: round"/>
     </g>
     <g id="text_13">
      <!-- $\mathdefault{−1}$ -->
      <g transform="translate(15.855917 551.158014) scale(0.1 -0.1)">
       <use xlink:href="#CMSY10-0" transform="scale(0.996264)"/>
       <use xlink:href="#CMR17-31" transform="translate(77.487468 0) scale(0.996264)"/>
      </g>
     </g>
    </g>
    <g id="ytick_3">
     <g id="line2d_13">
      <path d="M 32.085996 466.901585 
L 1428.535861 466.901585 
" clip-path="url(#p89bcc2b591)" style="fill: none; stroke: #cccccc; stroke-opacity: 0.5; stroke-width: 0.8; stroke-linecap: round"/>
     </g>
     <g id="text_14">
      <!-- $\mathdefault{0}$ -->
      <g transform="translate(23.60466 470.360834) scale(0.1 -0.1)">
       <use xlink:href="#CMR17-30" transform="scale(0.996264)"/>
      </g>
     </g>
    </g>
    <g id="ytick_4">
     <g id="line2d_14">
      <path d="M 32.085996 386.104404 
L 1428.535861 386.104404 
" clip-path="url(#p89bcc2b591)" style="fill: none; stroke: #cccccc; stroke-opacity: 0.5; stroke-width: 0.8; stroke-linecap: round"/>
     </g>
     <g id="text_15">
      <!-- $\mathdefault{1}$ -->
      <g transform="translate(23.60466 389.563653) scale(0.1 -0.1)">
       <use xlink:href="#CMR17-31" transform="scale(0.996264)"/>
      </g>
     </g>
    </g>
    <g id="ytick_5">
     <g id="line2d_15">
      <path d="M 32.085996 305.307223 
L 1428.535861 305.307223 
" clip-path="url(#p89bcc2b591)" style="fill: none; stroke: #cccccc; stroke-opacity: 0.5; stroke-width: 0.8; stroke-linecap: round"/>
     </g>
     <g id="text_16">
      <!-- $\mathdefault{2}$ -->
      <g transform="translate(23.60466 308.766472) scale(0.1 -0.1)">
       <use xlink:href="#CMR17-32" transform="scale(0.996264)"/>
      </g>
     </g>
    </g>
    <g id="ytick_6">
     <g id="line2d_16">
      <path d="M 32.085996 224.510042 
L 1428.535861 224.510042 
" clip-path="url(#p89bcc2b591)" style="fill: none; stroke: #cccccc; stroke-opacity: 0.5; stroke-width: 0.8; stroke-linecap: round"/>
     </g>
     <g id="text_17">
      <!-- $\mathdefault{3}$ -->
      <g transform="translate(23.60466 227.969292) scale(0.1 -0.1)">
       <use xlink:href="#CMR17-33" transform="scale(0.996264)"/>
      </g>
     </g>
    </g>
    <g id="ytick_7">
     <g id="line2d_17">
      <path d="M 32.085996 143.712862 
L 1428.535861 143.712862 
" clip-path="url(#p89bcc2b591)" style="fill: none; stroke: #cccccc; stroke-opacity: 0.5; stroke-width: 0.8; stroke-linecap: round"/>
     </g>
     <g id="text_18">
      <!-- $\mathdefault{4}$ -->
      <g transform="translate(23.60466 147.172111) scale(0.1 -0.1)">
       <use xlink:href="#CMR17-34" transform="scale(0.996264)"/>
      </g>
     </g>
    </g>
    <g id="ytick_8">
     <g id="line2d_18">
      <path d="M 32.085996 62.915681 
L 1428.535861 62.915681 
" clip-path="url(#p89bcc2b591)" style="fill: none; stroke: #cccccc; stroke-opacity: 0.5; stroke-width: 0.8; stroke-linecap: round"/>
     </g>
     <g id="text_19">
      <!-- $\mathdefault{5}$ -->
      <g transform="translate(23.60466 66.37493) scale(0.1 -0.1)">
       <use xlink:href="#CMR17-35" transform="scale(0.996264)"/>
      </g>
     </g>
    </g>
    <g id="text_20">
     <!-- Total Contribution -->
     <g style="fill: #696969" transform="translate(9.918738 366.157261) rotate(-90) scale(0.1 -0.1)">
      <defs>
       <path id="CMR17-54" d="M 3981 4326 
L 288 4326 
L 179 2918 
L 294 2918 
C 378 3976 467 4160 1453 4160 
C 1568 4160 1754 4160 1805 4154 
C 1926 4135 1926 4058 1926 3912 
L 1926 459 
C 1926 230 1907 160 1376 160 
L 1197 160 
L 1197 0 
C 1504 0 1824 0 2138 0 
C 2451 0 2771 0 3078 0 
L 3078 160 
L 2899 160 
C 2368 160 2349 230 2349 459 
L 2349 3912 
C 2349 4052 2349 4129 2464 4154 
C 2515 4160 2701 4160 2816 4160 
C 3795 4160 3891 3976 3974 2918 
L 4090 2918 
L 3981 4326 
z
" transform="scale(0.015625)"/>
       <path id="CMR17-6f" d="M 2758 1356 
C 2758 2176 2163 2816 1466 2816 
C 768 2816 173 2176 173 1356 
C 173 551 768 -64 1466 -64 
C 2163 -64 2758 551 2758 1356 
z
M 1466 51 
C 1165 51 909 230 762 480 
C 602 767 582 1126 582 1408 
C 582 1677 595 2010 762 2298 
C 890 2509 1139 2714 1466 2714 
C 1754 2714 1997 2554 2150 2330 
C 2349 2029 2349 1607 2349 1408 
C 2349 1158 2336 775 2163 467 
C 1984 173 1709 51 1466 51 
z
" transform="scale(0.015625)"/>
       <path id="CMR17-6c" d="M 979 4396 
L 218 4326 
L 218 4160 
C 595 4160 653 4122 653 3817 
L 653 426 
C 653 184 627 153 218 153 
L 218 -13 
C 371 0 653 0 813 0 
C 979 0 1261 0 1414 -13 
L 1414 153 
C 1005 153 979 178 979 426 
L 979 4396 
z
" transform="scale(0.015625)"/>
       <path id="CMR17-43" d="M 3974 4289 
C 3974 4403 3968 4410 3930 4410 
C 3904 4410 3898 4403 3853 4327 
L 3571 3792 
C 3258 4187 2874 4416 2381 4416 
C 1286 4416 294 3456 294 2148 
C 294 826 1286 -128 2387 -128 
C 3366 -128 3974 730 3974 1461 
C 3974 1524 3974 1550 3917 1550 
C 3866 1550 3866 1531 3859 1474 
C 3808 585 3168 38 2477 38 
C 1824 38 781 495 781 2147 
C 781 3805 1843 4250 2464 4250 
C 3187 4250 3712 3628 3834 2745 
C 3846 2668 3846 2655 3904 2655 
C 3974 2655 3974 2668 3974 2783 
L 3974 4289 
z
" transform="scale(0.015625)"/>
       <path id="CMR17-6e" d="M 2656 1933 
C 2656 2259 2592 2790 1837 2790 
C 1331 2790 1069 2400 973 2144 
L 966 2144 
L 966 2790 
L 211 2720 
L 211 2554 
C 589 2554 646 2515 646 2208 
L 646 428 
C 646 184 621 153 211 153 
L 211 -13 
C 365 0 646 0 813 0 
C 979 0 1267 0 1421 -13 
L 1421 153 
C 1011 153 986 178 986 428 
L 986 1658 
C 986 2247 1344 2688 1792 2688 
C 2266 2688 2317 2266 2317 1958 
L 2317 428 
C 2317 184 2291 153 1882 153 
L 1882 -13 
C 2035 0 2317 0 2483 0 
C 2650 0 2938 0 3091 -13 
L 3091 153 
C 2682 153 2656 178 2656 428 
L 2656 1933 
z
" transform="scale(0.015625)"/>
       <path id="CMR17-72" d="M 960 1497 
C 960 2112 1222 2688 1702 2688 
C 1747 2688 1792 2682 1837 2662 
C 1837 2662 1696 2617 1696 2452 
C 1696 2298 1818 2234 1914 2234 
C 1990 2234 2131 2279 2131 2458 
C 2131 2663 1926 2790 1709 2790 
C 1222 2790 1011 2317 947 2093 
L 941 2093 
L 941 2790 
L 198 2720 
L 198 2554 
C 576 2554 634 2515 634 2208 
L 634 428 
C 634 184 608 153 198 153 
L 198 -13 
C 352 0 646 0 813 0 
C 998 0 1325 0 1498 -13 
L 1498 153 
C 1037 153 960 153 960 440 
L 960 1497 
z
" transform="scale(0.015625)"/>
       <path id="CMR17-69" d="M 992 3909 
C 992 4049 877 4170 730 4170 
C 589 4170 467 4056 467 3909 
C 467 3769 582 3648 730 3648 
C 870 3648 992 3763 992 3909 
z
M 243 2706 
L 243 2541 
C 602 2541 653 2502 653 2197 
L 653 427 
C 653 184 627 153 218 153 
L 218 -13 
C 371 0 646 0 806 0 
C 960 0 1222 0 1370 -13 
L 1370 153 
C 992 153 979 191 979 420 
L 979 2776 
L 243 2706 
z
" transform="scale(0.015625)"/>
       <path id="CMR17-62" d="M 960 4396 
L 198 4326 
L 198 4160 
C 576 4160 634 4122 634 3817 
L 634 -13 
L 749 -13 
L 934 441 
C 1120 141 1395 -64 1766 -64 
C 2406 -64 3053 500 3053 1370 
C 3053 2188 2477 2790 1830 2790 
C 1434 2790 1152 2579 960 2330 
L 960 4396 
z
M 973 2004 
C 973 2118 973 2138 1062 2272 
C 1312 2657 1670 2688 1792 2688 
C 1984 2688 2643 2585 2643 1376 
C 2643 108 1888 38 1734 38 
C 1536 38 1248 114 1043 486 
C 973 608 973 621 973 735 
L 973 2004 
z
" transform="scale(0.015625)"/>
       <path id="CMR17-75" d="M 1882 2693 
L 1882 2528 
C 2259 2528 2317 2489 2317 2186 
L 2317 1032 
C 2317 500 2029 38 1555 38 
C 1030 38 986 348 986 678 
L 986 2763 
L 211 2693 
L 211 2528 
C 467 2528 640 2528 646 2274 
L 646 1058 
C 646 633 646 361 813 183 
C 896 101 1056 -64 1517 -64 
C 2061 -64 2272 377 2323 506 
L 2330 506 
L 2330 -63 
L 3091 -63 
L 3091 128 
C 2714 128 2656 166 2656 473 
L 2656 2763 
L 1882 2693 
z
" transform="scale(0.015625)"/>
      </defs>
      <use xlink:href="#CMR17-54" transform="scale(0.996264)"/>
      <use xlink:href="#CMR17-6f" transform="translate(58.702625 0) scale(0.996264)"/>
      <use xlink:href="#CMR17-74" transform="translate(104.393102 0) scale(0.996264)"/>
      <use xlink:href="#CMR17-61" transform="translate(139.67387 0) scale(0.996264)"/>
      <use xlink:href="#CMR17-6c" transform="translate(185.364347 0) scale(0.996264)"/>
      <use xlink:href="#CMR17-43" transform="translate(240.311372 0) scale(0.996264)"/>
      <use xlink:href="#CMR17-6f" transform="translate(306.821253 0) scale(0.996264)"/>
      <use xlink:href="#CMR17-6e" transform="translate(352.51173 0) scale(0.996264)"/>
      <use xlink:href="#CMR17-74" transform="translate(400.804646 0) scale(0.996264)"/>
      <use xlink:href="#CMR17-72" transform="translate(436.085413 0) scale(0.996264)"/>
      <use xlink:href="#CMR17-69" transform="translate(471.366181 0) scale(0.996264)"/>
      <use xlink:href="#CMR17-62" transform="translate(496.23724 0) scale(0.996264)"/>
      <use xlink:href="#CMR17-75" transform="translate(547.132609 0) scale(0.996264)"/>
      <use xlink:href="#CMR17-74" transform="translate(598.027979 0) scale(0.996264)"/>
      <use xlink:href="#CMR17-69" transform="translate(633.308747 0) scale(0.996264)"/>
      <use xlink:href="#CMR17-6f" transform="translate(658.179805 0) scale(0.996264)"/>
      <use xlink:href="#CMR17-6e" transform="translate(703.870283 0) scale(0.996264)"/>
     </g>
    </g>
   </g>
   <g id="line2d_19">
    <path d="M 95.56099 242.810677 
L 108.118263 453.827038 
L 119.460317 436.422509 
L 119.460317 436.422509 
L 132.017591 479.396511 
L 132.017591 479.396511 
L 144.169792 352.300481 
L 156.727065 472.455486 
L 156.727065 472.455486 
L 168.879266 466.943898 
L 181.43654 438.433318 
L 181.43654 438.433318 
L 193.993813 478.231773 
L 206.146014 434.551786 
L 206.146014 434.551786 
L 218.703288 452.313928 
L 218.703288 452.313928 
L 230.855488 245.047767 
L 230.855488 245.047767 
L 243.412762 454.091949 
L 243.412762 454.091949 
L 255.970036 455.165115 
L 255.970036 455.165115 
L 267.717163 419.616586 
L 267.717163 419.616586 
L 280.274437 439.067728 
L 280.274437 439.067728 
L 292.426637 478.4881 
L 292.426637 478.4881 
L 304.983911 485.955929 
L 304.983911 485.955929 
L 317.136112 461.98487 
L 317.136112 461.98487 
L 329.693386 427.928844 
L 329.693386 427.928844 
L 342.250659 438.494239 
L 342.250659 438.494239 
L 354.40286 444.999272 
L 354.40286 444.999272 
L 366.960134 430.899462 
L 366.960134 430.899462 
L 379.112334 435.08661 
L 379.112334 435.08661 
L 391.669608 441.310053 
L 391.669608 441.310053 
L 404.226882 320.352048 
L 404.226882 320.352048 
L 415.568936 466.652658 
L 415.568936 466.652658 
L 428.12621 461.359091 
L 428.12621 461.359091 
L 440.27841 471.273754 
L 440.27841 471.273754 
L 452.835684 457.373307 
L 452.835684 457.373307 
L 464.987884 358.671651 
L 464.987884 358.671651 
L 477.545158 429.15788 
L 477.545158 429.15788 
L 490.102432 471.7198 
L 490.102432 471.7198 
L 502.254632 469.401873 
L 502.254632 469.401873 
L 514.811906 447.765961 
L 514.811906 447.765961 
L 526.964107 458.588405 
L 526.964107 458.588405 
L 539.521381 519.132021 
L 539.521381 519.132021 
L 552.078654 491.60185 
L 552.078654 491.60185 
L 563.420708 367.010046 
L 563.420708 367.010046 
L 575.977982 477.597334 
L 575.977982 477.597334 
L 588.130183 522.881163 
L 588.130183 522.881163 
L 600.687456 400.66935 
L 600.687456 400.66935 
L 612.839657 472.626159 
L 612.839657 472.626159 
L 625.396931 389.277621 
L 625.396931 389.277621 
L 637.954205 465.056043 
L 637.954205 465.056043 
L 650.106405 476.869172 
L 650.106405 476.869172 
L 662.663679 467.737887 
L 662.663679 467.737887 
L 674.815879 477.740889 
L 674.815879 477.740889 
L 687.373153 427.343653 
L 687.373153 427.343653 
L 699.930427 449.927929 
L 699.930427 449.927929 
L 711.272481 392.430413 
L 711.272481 392.430413 
L 723.829755 319.654501 
L 723.829755 319.654501 
L 735.981955 360.584988 
L 735.981955 360.584988 
L 748.539229 435.301823 
L 748.539229 435.301823 
L 760.69143 467.769696 
L 760.69143 467.769696 
L 773.248703 430.508986 
L 773.248703 430.508986 
L 785.805977 409.671267 
L 785.805977 409.671267 
L 797.958178 445.050993 
L 797.958178 445.050993 
L 810.515451 466.01412 
L 810.515451 466.01412 
L 822.667652 454.745759 
L 822.667652 454.745759 
L 835.224926 436.151238 
L 835.224926 436.151238 
L 847.7822 500.627248 
L 847.7822 500.627248 
L 859.529327 388.433585 
L 859.529327 388.433585 
L 872.086601 466.115974 
L 872.086601 466.115974 
L 884.238801 604.551482 
L 884.238801 604.551482 
L 896.796075 461.166338 
L 896.796075 461.166338 
L 908.948275 466.926365 
L 921.505549 443.203266 
L 921.505549 443.203266 
L 934.062823 481.308686 
L 934.062823 481.308686 
L 946.215024 425.553956 
L 946.215024 425.553956 
L 958.772297 408.349952 
L 958.772297 408.349952 
L 970.924498 549.006309 
L 970.924498 549.006309 
L 983.481772 469.78869 
L 996.039046 466.808884 
L 996.039046 466.808884 
L 1007.381099 521.532533 
L 1007.381099 521.532533 
L 1019.938373 412.288228 
L 1019.938373 412.288228 
L 1032.090574 459.83476 
L 1032.090574 459.83476 
L 1044.647848 449.239016 
L 1044.647848 449.239016 
L 1056.800048 467.482059 
L 1056.800048 467.482059 
L 1069.357322 483.960187 
L 1069.357322 483.960187 
L 1081.914596 477.35207 
L 1081.914596 477.35207 
L 1094.066796 452.770518 
L 1094.066796 452.770518 
L 1106.62407 453.002563 
L 1106.62407 453.002563 
L 1118.77627 517.893645 
L 1118.77627 517.893645 
L 1131.333544 463.864206 
L 1131.333544 463.864206 
L 1143.890818 426.673916 
L 1155.232872 590.205962 
L 1155.232872 590.205962 
L 1167.790146 419.885778 
L 1167.790146 419.885778 
L 1179.942346 449.147112 
L 1179.942346 449.147112 
L 1192.49962 456.650991 
L 1192.49962 456.650991 
L 1204.651821 466.806607 
L 1204.651821 466.806607 
L 1217.209094 511.481314 
L 1217.209094 511.481314 
L 1229.766368 460.578648 
L 1241.918569 419.327076 
L 1241.918569 419.327076 
L 1254.475843 470.806811 
L 1254.475843 470.806811 
L 1266.628043 466.93431 
L 1279.185317 479.748328 
L 1279.185317 479.748328 
L 1303.084645 467.686225 
L 1315.641918 457.463831 
L 1327.794119 455.890798 
L 1327.794119 455.890798 
L 1340.351393 467.216209 
L 1340.351393 467.216209 
L 1365.060867 467.196358 
L 1365.060867 467.196358 
" clip-path="url(#p89bcc2b591)" style="fill: none; stroke-dasharray: 5.55,2.4; stroke-dashoffset: 0; stroke: #006e64; stroke-width: 1.5"/>
   </g>
   <g id="line2d_20">
    <path d="M 95.56099 468.336344 
L 108.118263 465.91757 
L 119.460317 465.484173 
L 119.460317 465.484173 
L 132.017591 465.544148 
L 132.017591 465.544148 
L 144.169792 475.558992 
L 156.727065 463.397562 
L 156.727065 463.397562 
L 168.879266 465.105685 
L 181.43654 452.998138 
L 181.43654 452.998138 
L 193.993813 462.747711 
L 206.146014 456.880985 
L 206.146014 456.880985 
L 218.703288 448.135693 
L 218.703288 448.135693 
L 230.855488 441.416985 
L 230.855488 441.416985 
L 243.412762 456.481645 
L 243.412762 456.481645 
L 255.970036 447.097148 
L 255.970036 447.097148 
L 267.717163 429.912673 
L 267.717163 429.912673 
L 280.274437 456.962261 
L 280.274437 456.962261 
L 292.426637 412.542137 
L 292.426637 412.542137 
L 304.983911 429.677147 
L 304.983911 429.677147 
L 317.136112 295.397186 
L 317.136112 295.397186 
L 329.693386 454.815731 
L 329.693386 454.815731 
L 342.250659 444.741113 
L 342.250659 444.741113 
L 354.40286 438.503376 
L 354.40286 438.503376 
L 366.960134 310.203828 
L 366.960134 310.203828 
L 379.112334 447.979808 
L 379.112334 447.979808 
L 391.669608 317.799762 
L 391.669608 317.799762 
L 404.226882 451.752358 
L 404.226882 451.752358 
L 415.568936 441.659235 
L 415.568936 441.659235 
L 428.12621 450.240571 
L 428.12621 450.240571 
L 440.27841 451.058149 
L 440.27841 451.058149 
L 452.835684 454.293431 
L 452.835684 454.293431 
L 464.987884 448.164021 
L 464.987884 448.164021 
L 477.545158 406.920807 
L 477.545158 406.920807 
L 490.102432 454.1159 
L 490.102432 454.1159 
L 502.254632 409.984135 
L 502.254632 409.984135 
L 514.811906 317.185281 
L 514.811906 317.185281 
L 526.964107 449.528747 
L 526.964107 449.528747 
L 539.521381 396.566014 
L 539.521381 396.566014 
L 552.078654 417.708962 
L 552.078654 417.708962 
L 563.420708 461.035557 
L 563.420708 461.035557 
L 575.977982 452.466428 
L 575.977982 452.466428 
L 588.130183 428.031756 
L 588.130183 428.031756 
L 600.687456 411.321863 
L 600.687456 411.321863 
L 612.839657 445.728843 
L 612.839657 445.728843 
L 625.396931 432.086765 
L 625.396931 432.086765 
L 637.954205 215.54024 
L 637.954205 215.54024 
L 650.106405 437.177468 
L 650.106405 437.177468 
L 662.663679 415.08146 
L 662.663679 415.08146 
L 674.815879 451.119379 
L 674.815879 451.119379 
L 687.373153 482.62462 
L 687.373153 482.62462 
L 699.930427 452.369956 
L 699.930427 452.369956 
L 711.272481 445.646766 
L 711.272481 445.646766 
L 723.829755 415.520005 
L 723.829755 415.520005 
L 735.981955 437.36568 
L 735.981955 437.36568 
L 748.539229 428.462953 
L 748.539229 428.462953 
L 760.69143 452.253607 
L 760.69143 452.253607 
L 773.248703 463.230417 
L 773.248703 463.230417 
L 785.805977 464.494781 
L 785.805977 464.494781 
L 797.958178 445.055096 
L 797.958178 445.055096 
L 810.515451 447.352337 
L 810.515451 447.352337 
L 822.667652 453.347536 
L 822.667652 453.347536 
L 835.224926 432.744357 
L 835.224926 432.744357 
L 847.7822 426.660376 
L 847.7822 426.660376 
L 859.529327 432.287297 
L 859.529327 432.287297 
L 872.086601 480.634183 
L 872.086601 480.634183 
L 884.238801 468.618609 
L 884.238801 468.618609 
L 896.796075 455.26458 
L 896.796075 455.26458 
L 908.948275 440.342435 
L 921.505549 465.392079 
L 921.505549 465.392079 
L 934.062823 462.092529 
L 934.062823 462.092529 
L 946.215024 454.704499 
L 946.215024 454.704499 
L 958.772297 432.320438 
L 958.772297 432.320438 
L 970.924498 459.66271 
L 970.924498 459.66271 
L 983.481772 462.580702 
L 1007.381099 445.072764 
L 1007.381099 445.072764 
L 1019.938373 416.890758 
L 1019.938373 416.890758 
L 1032.090574 413.834094 
L 1032.090574 413.834094 
L 1044.647848 423.015744 
L 1044.647848 423.015744 
L 1056.800048 341.911318 
L 1056.800048 341.911318 
L 1069.357322 325.395611 
L 1069.357322 325.395611 
L 1081.914596 436.77609 
L 1081.914596 436.77609 
L 1094.066796 382.254523 
L 1094.066796 382.254523 
L 1106.62407 416.190261 
L 1106.62407 416.190261 
L 1118.77627 246.570255 
L 1118.77627 246.570255 
L 1131.333544 461.898427 
L 1131.333544 461.898427 
L 1143.890818 480.060242 
L 1155.232872 461.537119 
L 1155.232872 461.537119 
L 1167.790146 449.405206 
L 1167.790146 449.405206 
L 1179.942346 343.10875 
L 1179.942346 343.10875 
L 1192.49962 462.982897 
L 1192.49962 462.982897 
L 1204.651821 445.798704 
L 1204.651821 445.798704 
L 1217.209094 461.3696 
L 1217.209094 461.3696 
L 1229.766368 382.111248 
L 1241.918569 474.058464 
L 1241.918569 474.058464 
L 1254.475843 374.732096 
L 1254.475843 374.732096 
L 1266.628043 462.455644 
L 1279.185317 457.713752 
L 1279.185317 457.713752 
L 1303.084645 454.135693 
L 1315.641918 465.569254 
L 1327.794119 379.894976 
L 1327.794119 379.894976 
L 1340.351393 457.39587 
L 1340.351393 457.39587 
L 1365.060867 463.528373 
L 1365.060867 463.528373 
" clip-path="url(#p89bcc2b591)" style="fill: none; stroke: #734848; stroke-width: 1.5; stroke-linecap: round"/>
   </g>
   <g id="line2d_21">
    <path d="M 95.56099 456.133497 
L 108.118263 458.294472 
L 119.460317 454.271365 
L 119.460317 454.271365 
L 132.017591 455.949908 
L 132.017591 455.949908 
L 144.169792 466.812676 
L 156.727065 458.862336 
L 156.727065 458.862336 
L 168.879266 461.898007 
L 181.43654 458.938569 
L 181.43654 458.938569 
L 193.993813 465.312308 
L 206.146014 459.903697 
L 206.146014 459.903697 
L 218.703288 462.851749 
L 218.703288 462.851749 
L 230.855488 474.301559 
L 230.855488 474.301559 
L 243.412762 464.19621 
L 243.412762 464.19621 
L 255.970036 460.139322 
L 255.970036 460.139322 
L 267.717163 413.542894 
L 267.717163 413.542894 
L 280.274437 468.361747 
L 280.274437 468.361747 
L 292.426637 450.116312 
L 292.426637 450.116312 
L 304.983911 405.050586 
L 304.983911 405.050586 
L 317.136112 168.239712 
L 317.136112 168.239712 
L 329.693386 448.49011 
L 329.693386 448.49011 
L 342.250659 461.000331 
L 342.250659 461.000331 
L 354.40286 437.068589 
L 354.40286 437.068589 
L 366.960134 210.142556 
L 366.960134 210.142556 
L 379.112334 430.728671 
L 379.112334 430.728671 
L 391.669608 240.629945 
L 391.669608 240.629945 
L 404.226882 448.17159 
L 404.226882 448.17159 
L 415.568936 447.358849 
L 415.568936 447.358849 
L 428.12621 464.960307 
L 428.12621 464.960307 
L 440.27841 448.843411 
L 440.27841 448.843411 
L 452.835684 464.216705 
L 452.835684 464.216705 
L 464.987884 451.861191 
L 464.987884 451.861191 
L 477.545158 374.26566 
L 477.545158 374.26566 
L 490.102432 434.341241 
L 490.102432 434.341241 
L 502.254632 371.84549 
L 502.254632 371.84549 
L 514.811906 239.01567 
L 514.811906 239.01567 
L 526.964107 434.561418 
L 526.964107 434.561418 
L 539.521381 390.013556 
L 539.521381 390.013556 
L 552.078654 415.878042 
L 552.078654 415.878042 
L 563.420708 458.412248 
L 563.420708 458.412248 
L 575.977982 459.395068 
L 575.977982 459.395068 
L 588.130183 429.024522 
L 588.130183 429.024522 
L 600.687456 377.239818 
L 600.687456 377.239818 
L 612.839657 460.350107 
L 612.839657 460.350107 
L 625.396931 428.670407 
L 625.396931 428.670407 
L 637.954205 45.266661 
L 637.954205 45.266661 
L 650.106405 403.074324 
L 650.106405 403.074324 
L 662.663679 391.823747 
L 662.663679 391.823747 
L 674.815879 443.924525 
L 674.815879 443.924525 
L 687.373153 500.875197 
L 687.373153 500.875197 
L 699.930427 443.724422 
L 699.930427 443.724422 
L 711.272481 457.88221 
L 711.272481 457.88221 
L 723.829755 382.070736 
L 723.829755 382.070736 
L 735.981955 417.896631 
L 735.981955 417.896631 
L 748.539229 372.700461 
L 748.539229 372.700461 
L 760.69143 446.436742 
L 760.69143 446.436742 
L 773.248703 464.887818 
L 773.248703 464.887818 
L 785.805977 456.554333 
L 785.805977 456.554333 
L 797.958178 430.653842 
L 797.958178 430.653842 
L 810.515451 449.515328 
L 810.515451 449.515328 
L 822.667652 446.638504 
L 822.667652 446.638504 
L 835.224926 416.756116 
L 835.224926 416.756116 
L 847.7822 396.555537 
L 847.7822 396.555537 
L 859.529327 389.111867 
L 859.529327 389.111867 
L 872.086601 426.962279 
L 872.086601 426.962279 
L 884.238801 376.984604 
L 884.238801 376.984604 
L 896.796075 380.665088 
L 896.796075 380.665088 
L 908.948275 410.275535 
L 921.505549 455.694443 
L 921.505549 455.694443 
L 934.062823 457.203188 
L 934.062823 457.203188 
L 946.215024 447.893626 
L 946.215024 447.893626 
L 958.772297 389.265232 
L 958.772297 389.265232 
L 970.924498 464.827545 
L 970.924498 464.827545 
L 983.481772 467.045899 
L 996.039046 458.890881 
L 996.039046 458.890881 
L 1007.381099 437.003757 
L 1007.381099 437.003757 
L 1019.938373 413.641363 
L 1019.938373 413.641363 
L 1032.090574 405.531077 
L 1032.090574 405.531077 
L 1044.647848 428.547675 
L 1044.647848 428.547675 
L 1056.800048 276.538754 
L 1056.800048 276.538754 
L 1069.357322 261.899175 
L 1069.357322 261.899175 
L 1081.914596 425.389756 
L 1081.914596 425.389756 
L 1094.066796 348.307055 
L 1094.066796 348.307055 
L 1106.62407 393.500224 
L 1106.62407 393.500224 
L 1118.77627 94.511796 
L 1118.77627 94.511796 
L 1131.333544 460.400459 
L 1131.333544 460.400459 
L 1143.890818 492.021429 
L 1155.232872 444.777969 
L 1155.232872 444.777969 
L 1167.790146 423.034275 
L 1167.790146 423.034275 
L 1179.942346 184.317707 
L 1179.942346 184.317707 
L 1192.49962 437.172432 
L 1192.49962 437.172432 
L 1204.651821 395.080117 
L 1204.651821 395.080117 
L 1217.209094 436.806081 
L 1217.209094 436.806081 
L 1229.766368 302.767064 
L 1241.918569 444.585306 
L 1241.918569 444.585306 
L 1254.475843 282.793236 
L 1254.475843 282.793236 
L 1266.628043 447.580835 
L 1279.185317 430.666603 
L 1279.185317 430.666603 
L 1303.084645 437.280335 
L 1315.641918 455.412063 
L 1327.794119 303.08653 
L 1327.794119 303.08653 
L 1340.351393 433.848421 
L 1340.351393 433.848421 
L 1365.060867 450.883881 
L 1365.060867 450.883881 
" clip-path="url(#p89bcc2b591)" style="fill: none; stroke: #004e4a; stroke-width: 1.5; stroke-linecap: round"/>
   </g>
   <g id="line2d_22">
    <path d="M 95.56099 463.875727 
L 108.118263 462.890618 
L 119.460317 461.094737 
L 119.460317 461.094737 
L 132.017591 461.919423 
L 132.017591 461.919423 
L 144.169792 473.02909 
L 156.727065 461.493633 
L 156.727065 461.493633 
L 168.879266 463.821482 
L 181.43654 454.672801 
L 181.43654 454.672801 
L 193.993813 463.513702 
L 206.146014 457.524779 
L 206.146014 457.524779 
L 218.703288 452.809218 
L 218.703288 452.809218 
L 230.855488 452.985757 
L 230.855488 452.985757 
L 243.412762 459.184175 
L 243.412762 459.184175 
L 255.970036 451.233023 
L 255.970036 451.233023 
L 267.717163 434.965327 
L 267.717163 434.965327 
L 280.274437 461.493179 
L 280.274437 461.493179 
L 292.426637 432.336352 
L 292.426637 432.336352 
L 304.983911 431.408357 
L 304.983911 431.408357 
L 317.136112 312.914524 
L 317.136112 312.914524 
L 329.693386 455.830213 
L 329.693386 455.830213 
L 342.250659 450.665669 
L 342.250659 450.665669 
L 354.40286 439.174365 
L 354.40286 439.174365 
L 366.960134 328.600133 
L 366.960134 328.600133 
L 379.112334 446.957526 
L 379.112334 446.957526 
L 391.669608 340.87908 
L 391.669608 340.87908 
L 404.226882 452.010997 
L 404.226882 452.010997 
L 415.568936 445.327927 
L 415.568936 445.327927 
L 428.12621 455.594755 
L 428.12621 455.594755 
L 440.27841 453.151783 
L 440.27841 453.151783 
L 452.835684 457.634722 
L 452.835684 457.634722 
L 464.987884 452.54493 
L 464.987884 452.54493 
L 477.545158 412.874987 
L 477.545158 412.874987 
L 490.102432 453.395943 
L 490.102432 453.395943 
L 502.254632 410.930051 
L 502.254632 410.930051 
L 514.811906 337.845694 
L 514.811906 337.845694 
L 526.964107 445.238597 
L 526.964107 445.238597 
L 539.521381 412.175111 
L 539.521381 412.175111 
L 552.078654 425.041496 
L 552.078654 425.041496 
L 563.420708 461.127801 
L 563.420708 461.127801 
L 575.977982 455.991699 
L 575.977982 455.991699 
L 588.130183 434.11437 
L 588.130183 434.11437 
L 600.687456 414.94872 
L 600.687456 414.94872 
L 612.839657 450.908072 
L 612.839657 450.908072 
L 625.396931 438.656892 
L 625.396931 438.656892 
L 637.954205 249.49045 
L 637.954205 249.49045 
L 650.106405 435.782724 
L 650.106405 435.782724 
L 662.663679 421.318276 
L 662.663679 421.318276 
L 674.815879 452.419011 
L 674.815879 452.419011 
L 687.373153 479.326633 
L 687.373153 479.326633 
L 699.930427 452.203777 
L 699.930427 452.203777 
L 711.272481 452.797761 
L 711.272481 452.797761 
L 723.829755 419.890659 
L 723.829755 419.890659 
L 735.981955 437.561648 
L 735.981955 437.561648 
L 748.539229 422.800294 
L 748.539229 422.800294 
L 760.69143 452.79449 
L 760.69143 452.79449 
L 773.248703 463.727154 
L 773.248703 463.727154 
L 785.805977 462.104098 
L 785.805977 462.104098 
L 797.958178 445.686516 
L 797.958178 445.686516 
L 810.515451 450.6297 
L 810.515451 450.6297 
L 822.667652 454.32669 
L 822.667652 454.32669 
L 835.224926 438.159937 
L 847.7822 431.83485 
L 847.7822 431.83485 
L 859.529327 431.807002 
L 859.529327 431.807002 
L 872.086601 461.212514 
L 872.086601 461.212514 
L 884.238801 444.71842 
L 884.238801 444.71842 
L 896.796075 437.533581 
L 896.796075 437.533581 
L 908.948275 440.722621 
L 921.505549 461.682233 
L 921.505549 461.682233 
L 934.062823 459.568587 
L 934.062823 459.568587 
L 946.215024 452.60217 
L 946.215024 452.60217 
L 958.772297 434.08129 
L 958.772297 434.08129 
L 970.924498 463.13552 
L 970.924498 463.13552 
L 983.481772 464.398368 
L 996.039046 456.106028 
L 996.039046 456.106028 
L 1007.381099 447.04694 
L 1007.381099 447.04694 
L 1019.938373 427.583634 
L 1019.938373 427.583634 
L 1032.090574 422.998587 
L 1032.090574 422.998587 
L 1044.647848 431.846058 
L 1044.647848 431.846058 
L 1056.800048 362.00211 
L 1056.800048 362.00211 
L 1069.357322 353.00519 
L 1069.357322 353.00519 
L 1081.914596 442.103878 
L 1081.914596 442.103878 
L 1094.066796 396.676811 
L 1094.066796 396.676811 
L 1106.62407 423.578384 
L 1106.62407 423.578384 
L 1118.77627 277.233407 
L 1118.77627 277.233407 
L 1131.333544 462.615102 
L 1131.333544 462.615102 
L 1143.890818 477.981603 
L 1155.232872 458.072642 
L 1155.232872 458.072642 
L 1167.790146 444.987686 
L 1167.790146 444.987686 
L 1179.942346 337.232724 
L 1179.942346 337.232724 
L 1192.49962 455.668121 
L 1192.49962 455.668121 
L 1204.651821 437.533803 
L 1204.651821 437.533803 
L 1217.209094 457.096404 
L 1217.209094 457.096404 
L 1229.766368 389.249183 
L 1241.918569 462.735601 
L 1241.918569 462.735601 
L 1254.475843 380.539766 
L 1254.475843 380.539766 
L 1266.628043 460.192341 
L 1279.185317 453.900386 
L 1279.185317 453.900386 
L 1303.084645 453.651902 
L 1315.641918 463.142494 
L 1327.794119 387.930786 
L 1327.794119 387.930786 
L 1340.351393 454.984187 
L 1340.351393 454.984187 
L 1365.060867 461.853622 
L 1365.060867 461.853622 
" clip-path="url(#p89bcc2b591)" style="fill: none; stroke: #c17150; stroke-width: 1.5; stroke-linecap: round"/>
   </g>
   <g id="patch_3">
    <path d="M 32.085996 632.515723 
L 32.085996 17.30242 
" style="fill: none; stroke: #808080; stroke-width: 0.8; stroke-linejoin: miter; stroke-linecap: square"/>
   </g>
   <g id="patch_4">
    <path d="M 32.085996 632.515723 
L 1428.535861 632.515723 
" style="fill: none; stroke: #808080; stroke-width: 0.8; stroke-linejoin: miter; stroke-linecap: square"/>
   </g>
   <g id="text_21">
    <!-- Out of Sample -->
    <g style="fill: #262626" transform="translate(693.079407 11.30242) scale(0.12 -0.12)">
     <defs>
      <path id="CMR17-4f" d="M 4307 2135 
C 4307 3437 3366 4416 2304 4416 
C 1216 4416 294 3424 294 2135 
C 294 845 1229 -128 2298 -128 
C 3392 -128 4307 864 4307 2135 
z
M 2304 -13 
C 1574 -13 781 711 781 2217 
C 781 3716 1651 4301 2298 4301 
C 2976 4301 3821 3698 3821 2217 
C 3821 686 3008 -13 2304 -13 
z
" transform="scale(0.015625)"/>
      <path id="CMR17-66" d="M 979 2560 
L 1709 2560 
L 1709 2725 
L 966 2725 
L 966 3494 
C 966 4022 1235 4352 1510 4352 
C 1594 4352 1690 4327 1754 4282 
C 1702 4269 1568 4225 1568 4067 
C 1568 3901 1696 3850 1786 3850 
C 1875 3850 2003 3901 2003 4067 
C 2003 4308 1773 4454 1517 4454 
C 1152 4454 653 4156 653 3481 
L 653 2725 
L 141 2725 
L 141 2560 
L 653 2560 
L 653 427 
C 653 184 627 153 218 153 
L 218 -13 
C 371 0 666 0 832 0 
C 1018 0 1344 0 1517 -13 
L 1517 153 
C 1056 153 979 153 979 439 
L 979 2560 
z
" transform="scale(0.015625)"/>
      <path id="CMR17-53" d="M 2803 4290 
C 2803 4404 2797 4411 2758 4411 
C 2720 4411 2707 4385 2682 4328 
L 2490 3907 
C 2246 4257 1875 4416 1472 4416 
C 819 4416 294 3901 294 3253 
C 294 3056 339 2776 557 2510 
C 794 2218 1018 2167 1530 2033 
C 1722 1982 2042 1899 2106 1874 
C 2470 1722 2662 1341 2662 985 
C 2662 527 2336 38 1779 38 
C 1094 38 454 419 410 1311 
C 403 1413 397 1419 352 1419 
C 301 1419 294 1413 294 1285 
L 294 -1 
C 294 -115 301 -122 339 -122 
C 384 -122 397 -90 486 108 
C 493 127 493 140 614 381 
C 934 -39 1472 -128 1779 -128 
C 2477 -128 2970 451 2970 1124 
C 2970 1454 2848 1708 2778 1823 
C 2509 2230 2221 2306 1914 2382 
C 1869 2402 1856 2402 1498 2490 
C 1152 2579 1005 2624 845 2796 
C 666 2992 602 3196 602 3399 
C 602 3812 934 4263 1478 4263 
C 2157 4263 2579 3786 2675 2993 
C 2694 2878 2701 2872 2746 2872 
C 2803 2872 2803 2891 2803 2999 
L 2803 4290 
z
" transform="scale(0.015625)"/>
      <path id="CMR17-6d" d="M 4326 1933 
C 4326 2252 4269 2790 3507 2790 
C 3072 2790 2771 2496 2656 2151 
L 2650 2151 
C 2573 2676 2195 2790 1837 2790 
C 1331 2790 1069 2400 973 2144 
L 966 2144 
L 966 2790 
L 211 2720 
L 211 2554 
C 589 2554 646 2515 646 2208 
L 646 428 
C 646 184 621 153 211 153 
L 211 -13 
C 365 0 646 0 813 0 
C 979 0 1267 0 1421 -13 
L 1421 153 
C 1011 153 986 178 986 428 
L 986 1658 
C 986 2247 1344 2688 1792 2688 
C 2266 2688 2317 2266 2317 1958 
L 2317 428 
C 2317 184 2291 153 1882 153 
L 1882 -13 
C 2035 0 2317 0 2483 0 
C 2650 0 2938 0 3091 -13 
L 3091 153 
C 2682 153 2656 178 2656 428 
L 2656 1658 
C 2656 2247 3014 2688 3462 2688 
C 3936 2688 3987 2266 3987 1958 
L 3987 428 
C 3987 184 3962 153 3552 153 
L 3552 -13 
C 3706 0 3987 0 4154 0 
C 4320 0 4608 0 4762 -13 
L 4762 153 
C 4352 153 4326 178 4326 428 
L 4326 1933 
z
" transform="scale(0.015625)"/>
      <path id="CMR17-70" d="M 1408 -1063 
C 998 -1063 973 -1037 973 -789 
L 973 402 
C 1158 134 1427 -38 1766 -38 
C 2406 -38 3053 523 3053 1388 
C 3053 2191 2496 2802 1837 2802 
C 1453 2802 1139 2592 960 2338 
L 960 2802 
L 198 2732 
L 198 2567 
C 576 2567 634 2528 634 2223 
L 634 -789 
C 634 -1031 608 -1063 198 -1063 
L 198 -1228 
C 352 -1216 634 -1216 800 -1216 
C 966 -1216 1254 -1216 1408 -1228 
L 1408 -1063 
z
M 973 2012 
C 973 2102 973 2235 1222 2471 
C 1254 2497 1472 2688 1792 2688 
C 2259 2688 2643 2108 2643 1382 
C 2643 656 2234 64 1728 64 
C 1498 64 1248 172 1056 472 
C 973 612 973 650 973 752 
L 973 2012 
z
" transform="scale(0.015625)"/>
     </defs>
     <use xlink:href="#CMR17-4f" transform="scale(0.996264)"/>
     <use xlink:href="#CMR17-75" transform="translate(71.714788 0) scale(0.996264)"/>
     <use xlink:href="#CMR17-74" transform="translate(122.610158 0) scale(0.996264)"/>
     <use xlink:href="#CMR17-6f" transform="translate(187.966892 0) scale(0.996264)"/>
     <use xlink:href="#CMR17-66" transform="translate(233.657369 0) scale(0.996264)"/>
     <use xlink:href="#CMR17-53" transform="translate(291.206848 0) scale(0.996264)"/>
     <use xlink:href="#CMR17-61" transform="translate(342.102218 0) scale(0.996264)"/>
     <use xlink:href="#CMR17-6d" transform="translate(387.792695 0) scale(0.996264)"/>
     <use xlink:href="#CMR17-70" transform="translate(464.712285 0) scale(0.996264)"/>
     <use xlink:href="#CMR17-6c" transform="translate(515.607655 0) scale(0.996264)"/>
     <use xlink:href="#CMR17-65" transform="translate(540.478713 0) scale(0.996264)"/>
    </g>
   </g>
   <g id="legend_1">
    <g id="patch_5">
     <path d="M 479.096292 716.999693 
L 981.525564 716.999693 
Q 983.525564 716.999693 983.525564 714.999693 
L 983.525564 701.037053 
Q 983.525564 699.037053 981.525564 699.037053 
L 479.096292 699.037053 
Q 477.096292 699.037053 477.096292 701.037053 
L 477.096292 714.999693 
Q 477.096292 716.999693 479.096292 716.999693 
z
" style="fill: #ffffff; opacity: 0.8"/>
    </g>
    <g id="line2d_23">
     <path d="M 481.096292 707.009033 
L 491.096292 707.009033 
L 501.096292 707.009033 
" style="fill: none; stroke-dasharray: 5.55,2.4; stroke-dashoffset: 0; stroke: #006e64; stroke-width: 1.5"/>
    </g>
    <g id="text_22">
     <!-- Actual -->
     <g style="fill: #262626" transform="translate(509.096292 710.509033) scale(0.1 -0.1)">
      <defs>
       <path id="CMR17-41" d="M 2323 4378 
C 2291 4461 2278 4480 2214 4480 
C 2150 4480 2138 4461 2106 4378 
L 749 566 
C 627 223 371 153 147 153 
L 147 -13 
C 262 0 518 0 640 0 
C 800 0 1056 0 1210 -13 
L 1210 153 
C 909 153 864 361 864 439 
C 864 497 877 530 890 569 
L 1229 1536 
L 2906 1536 
L 3290 442 
C 3322 365 3322 352 3322 327 
C 3322 153 3046 153 2925 153 
L 2925 0 
C 3110 0 3443 0 3642 0 
C 3808 0 4128 0 4282 -13 
L 4282 153 
C 3942 153 3827 153 3744 387 
L 2323 4378 
z
M 2067 3893 
L 2848 1702 
L 1286 1702 
L 2067 3893 
z
" transform="scale(0.015625)"/>
       <path id="CMR17-63" d="M 2234 2240 
C 2112 2240 1933 2240 1933 2017 
C 1933 1838 2080 1787 2163 1787 
C 2208 1787 2394 1807 2394 2024 
C 2394 2467 1958 2803 1466 2803 
C 787 2803 211 2178 211 1363 
C 211 516 813 -64 1466 -64 
C 2259 -64 2458 677 2458 748 
C 2458 774 2451 793 2406 793 
C 2362 793 2355 787 2330 703 
C 2163 180 1798 51 1523 51 
C 1114 51 621 427 621 1369 
C 621 2338 1094 2688 1472 2688 
C 1722 2688 2093 2573 2234 2240 
z
" transform="scale(0.015625)"/>
      </defs>
      <use xlink:href="#CMR17-41" transform="scale(0.996264)"/>
      <use xlink:href="#CMR17-63" transform="translate(69.07243 0) scale(0.996264)"/>
      <use xlink:href="#CMR17-74" transform="translate(109.55809 0) scale(0.996264)"/>
      <use xlink:href="#CMR17-75" transform="translate(144.838858 0) scale(0.996264)"/>
      <use xlink:href="#CMR17-61" transform="translate(195.734228 0) scale(0.996264)"/>
      <use xlink:href="#CMR17-6c" transform="translate(241.424705 0) scale(0.996264)"/>
     </g>
    </g>
    <g id="line2d_24">
     <path d="M 558.154059 707.009033 
L 568.154059 707.009033 
L 578.154059 707.009033 
" style="fill: none; stroke: #734848; stroke-width: 1.5; stroke-linecap: round"/>
    </g>
    <g id="text_23">
     <!-- Predicted (Average) -->
     <g style="fill: #262626" transform="translate(586.154059 710.509033) scale(0.1 -0.1)">
      <defs>
       <path id="CMR17-50" d="M 1267 2042 
L 2291 2042 
C 3117 2042 3718 2578 3718 3184 
C 3718 3791 3130 4352 2291 4352 
L 333 4352 
L 333 4186 
C 774 4186 845 4186 845 3899 
L 845 446 
C 845 160 774 160 333 160 
L 333 0 
C 518 0 858 0 1056 0 
C 1254 0 1594 0 1779 0 
L 1779 160 
C 1338 160 1267 160 1267 446 
L 1267 2042 
z
M 1254 2176 
L 1254 3938 
C 1254 4155 1267 4186 1523 4186 
L 2170 4186 
C 2995 4186 3232 3714 3232 3184 
C 3232 2604 2950 2176 2170 2176 
L 1254 2176 
z
" transform="scale(0.015625)"/>
       <path id="CMR17-64" d="M 1869 4326 
L 1869 4160 
C 2246 4160 2304 4122 2304 3820 
L 2304 2345 
C 2278 2377 2016 2790 1498 2790 
C 845 2790 211 2208 211 1364 
C 211 525 806 -64 1434 -64 
C 1978 -64 2259 337 2291 380 
L 2291 -63 
L 3066 -63 
L 3066 128 
C 2688 128 2630 166 2630 473 
L 2630 4396 
L 1869 4326 
z
M 2291 755 
C 2291 563 2176 390 2029 262 
C 1811 70 1594 38 1472 38 
C 1286 38 621 134 621 1356 
C 621 2612 1363 2688 1530 2688 
C 1824 2688 2061 2522 2208 2291 
C 2291 2157 2291 2138 2291 2023 
L 2291 755 
z
" transform="scale(0.015625)"/>
       <path id="CMR17-28" d="M 1958 -1561 
C 1958 -1555 1958 -1542 1939 -1523 
C 1645 -1224 858 -407 858 1581 
C 858 3569 1632 4379 1946 4697 
C 1946 4704 1958 4717 1958 4736 
C 1958 4755 1939 4768 1914 4768 
C 1843 4768 1299 4296 986 3594 
C 666 2887 576 2199 576 1588 
C 576 1128 621 351 1005 -471 
C 1312 -1135 1837 -1600 1914 -1600 
C 1946 -1600 1958 -1587 1958 -1561 
z
" transform="scale(0.015625)"/>
       <path id="CMR17-76" d="M 2502 2163 
C 2560 2304 2662 2560 3034 2560 
L 3034 2726 
C 2912 2726 2752 2726 2630 2726 
C 2496 2726 2285 2726 2157 2732 
L 2157 2566 
C 2317 2553 2406 2477 2406 2311 
C 2406 2253 2406 2240 2368 2151 
L 1664 377 
L 902 2286 
C 864 2369 864 2381 864 2407 
C 864 2560 1075 2560 1171 2560 
L 1171 2732 
C 1018 2726 736 2726 576 2726 
C 403 2726 205 2726 64 2732 
L 64 2560 
C 307 2560 442 2560 518 2362 
L 1446 44 
C 1485 -51 1491 -64 1549 -64 
C 1606 -64 1613 -51 1651 44 
L 2502 2163 
z
" transform="scale(0.015625)"/>
       <path id="CMR17-67" d="M 710 1164 
C 832 1068 1043 960 1299 960 
C 1805 960 2240 1357 2240 1888 
C 2240 2054 2189 2310 1997 2509 
C 2176 2692 2438 2752 2586 2752 
C 2611 2752 2650 2752 2682 2734 
C 2656 2728 2598 2703 2598 2605 
C 2598 2527 2656 2471 2739 2471 
C 2835 2471 2886 2533 2886 2614 
C 2886 2731 2790 2854 2586 2854 
C 2330 2854 2106 2738 1926 2580 
C 1734 2753 1504 2816 1299 2816 
C 794 2816 358 2419 358 1888 
C 358 1522 570 1292 634 1228 
C 442 1004 442 743 442 711 
C 442 545 506 302 723 168 
C 390 85 128 -169 128 -486 
C 128 -943 736 -1280 1466 -1280 
C 2170 -1280 2803 -956 2803 -479 
C 2803 384 1856 384 1363 384 
C 1216 384 954 384 922 391 
C 723 423 589 602 589 826 
C 589 883 589 1024 710 1164 
z
M 1299 1068 
C 736 1068 736 1760 736 1889 
C 736 2016 736 2708 1299 2708 
C 1862 2708 1862 2016 1862 1889 
C 1862 1760 1862 1068 1299 1068 
z
M 1466 -1171 
C 826 -1171 384 -835 384 -486 
C 384 -289 493 -105 634 -4 
C 794 104 858 104 1293 104 
C 1818 104 2547 104 2547 -486 
C 2547 -835 2106 -1171 1466 -1171 
z
" transform="scale(0.015625)"/>
       <path id="CMR17-29" d="M 1683 1581 
C 1683 2040 1638 2817 1254 3639 
C 947 4303 422 4768 346 4768 
C 326 4768 301 4761 301 4729 
C 301 4717 307 4710 314 4697 
C 621 4378 1402 3568 1402 1584 
C 1402 -407 627 -1217 314 -1537 
C 307 -1549 301 -1556 301 -1568 
C 301 -1600 326 -1600 346 -1600 
C 416 -1600 960 -1128 1274 -426 
C 1594 281 1683 969 1683 1581 
z
" transform="scale(0.015625)"/>
      </defs>
      <use xlink:href="#CMR17-50" transform="scale(0.996264)"/>
      <use xlink:href="#CMR17-72" transform="translate(62.586301 0) scale(0.996264)"/>
      <use xlink:href="#CMR17-65" transform="translate(97.867068 0) scale(0.996264)"/>
      <use xlink:href="#CMR17-64" transform="translate(138.352729 0) scale(0.996264)"/>
      <use xlink:href="#CMR17-69" transform="translate(189.248099 0) scale(0.996264)"/>
      <use xlink:href="#CMR17-63" transform="translate(214.119157 0) scale(0.996264)"/>
      <use xlink:href="#CMR17-74" transform="translate(254.604818 0) scale(0.996264)"/>
      <use xlink:href="#CMR17-65" transform="translate(289.885585 0) scale(0.996264)"/>
      <use xlink:href="#CMR17-64" transform="translate(330.371246 0) scale(0.996264)"/>
      <use xlink:href="#CMR17-28" transform="translate(411.342582 0) scale(0.996264)"/>
      <use xlink:href="#CMR17-41" transform="translate(446.62335 0) scale(0.996264)"/>
      <use xlink:href="#CMR17-76" transform="translate(515.695779 0) scale(0.996264)"/>
      <use xlink:href="#CMR17-65" transform="translate(561.386241 0) scale(0.996264)"/>
      <use xlink:href="#CMR17-72" transform="translate(601.871902 0) scale(0.996264)"/>
      <use xlink:href="#CMR17-61" transform="translate(637.15267 0) scale(0.996264)"/>
      <use xlink:href="#CMR17-67" transform="translate(682.843147 0) scale(0.996264)"/>
      <use xlink:href="#CMR17-65" transform="translate(728.533624 0) scale(0.996264)"/>
      <use xlink:href="#CMR17-29" transform="translate(769.019284 0) scale(0.996264)"/>
     </g>
    </g>
    <g id="line2d_25">
     <path d="M 694.07451 707.009033 
L 704.07451 707.009033 
L 714.07451 707.009033 
" style="fill: none; stroke: #004e4a; stroke-width: 1.5; stroke-linecap: round"/>
    </g>
    <g id="text_24">
     <!-- Predicted (Bates and Granger) -->
     <g style="fill: #262626" transform="translate(722.07451 710.509033) scale(0.1 -0.1)">
      <defs>
       <path id="CMR17-42" d="M 333 4352 
L 333 4186 
C 774 4186 845 4186 845 3900 
L 845 452 
C 845 166 774 166 333 166 
L 333 0 
L 2534 0 
C 3354 0 3885 583 3885 1164 
C 3885 1741 3360 2233 2675 2233 
C 3290 2356 3718 2771 3718 3264 
C 3718 3802 3194 4352 2368 4352 
L 333 4352 
z
M 1248 2304 
L 1248 3937 
C 1248 4155 1261 4186 1517 4186 
L 2336 4186 
C 2970 4186 3251 3674 3251 3277 
C 3251 2791 2861 2304 2170 2304 
L 1248 2304 
z
M 1517 166 
C 1261 166 1248 197 1248 413 
L 1248 2202 
L 2432 2202 
C 3091 2202 3411 1625 3411 1162 
C 3411 699 3046 166 2349 166 
L 1517 166 
z
" transform="scale(0.015625)"/>
       <path id="CMR17-73" d="M 1978 2697 
C 1978 2813 1971 2819 1933 2819 
C 1907 2819 1901 2813 1824 2717 
C 1805 2691 1747 2626 1728 2601 
C 1523 2819 1235 2819 1126 2819 
C 416 2819 160 2447 160 2076 
C 160 1498 813 1365 998 1325 
C 1402 1243 1542 1217 1677 1101 
C 1760 1025 1901 884 1901 654 
C 1901 384 1747 38 1158 38 
C 602 38 403 460 288 1021 
C 269 1110 269 1117 218 1117 
C 166 1117 160 1110 160 983 
L 160 63 
C 160 -51 166 -58 205 -58 
C 237 -58 243 -51 275 0 
C 314 57 410 211 448 276 
C 576 103 800 -64 1158 -64 
C 1792 -64 2131 283 2131 784 
C 2131 1112 1958 1285 1875 1362 
C 1683 1561 1459 1606 1190 1657 
C 838 1735 390 1825 390 2217 
C 390 2383 480 2737 1126 2737 
C 1811 2737 1850 2094 1862 1888 
C 1869 1856 1901 1849 1920 1849 
C 1978 1849 1978 1869 1978 1978 
L 1978 2697 
z
" transform="scale(0.015625)"/>
       <path id="CMR17-47" d="M 3974 1233 
C 3974 1473 3994 1505 4390 1505 
L 4390 1670 
C 4237 1664 3891 1664 3718 1664 
C 3539 1664 3040 1664 2797 1664 
L 2797 1505 
L 2989 1505 
C 3539 1505 3552 1434 3552 1201 
L 3552 774 
C 3552 63 2720 63 2522 63 
C 1862 63 781 511 781 2160 
C 781 3808 1843 4250 2464 4250 
C 3187 4250 3712 3626 3834 2741 
C 3846 2664 3846 2651 3904 2651 
C 3974 2651 3974 2664 3974 2779 
L 3974 4288 
C 3974 4402 3968 4409 3930 4409 
C 3904 4409 3898 4402 3853 4326 
L 3571 3791 
C 3258 4187 2874 4416 2381 4416 
C 1286 4416 294 3456 294 2148 
C 294 845 1267 -128 2394 -128 
C 2912 -128 3418 56 3616 417 
C 3725 158 3904 -20 3936 -20 
C 3968 -20 3974 -13 3974 100 
L 3974 1233 
z
" transform="scale(0.015625)"/>
      </defs>
      <use xlink:href="#CMR17-50" transform="scale(0.996264)"/>
      <use xlink:href="#CMR17-72" transform="translate(62.586301 0) scale(0.996264)"/>
      <use xlink:href="#CMR17-65" transform="translate(97.867068 0) scale(0.996264)"/>
      <use xlink:href="#CMR17-64" transform="translate(138.352729 0) scale(0.996264)"/>
      <use xlink:href="#CMR17-69" transform="translate(189.248099 0) scale(0.996264)"/>
      <use xlink:href="#CMR17-63" transform="translate(214.119157 0) scale(0.996264)"/>
      <use xlink:href="#CMR17-74" transform="translate(254.604818 0) scale(0.996264)"/>
      <use xlink:href="#CMR17-65" transform="translate(289.885585 0) scale(0.996264)"/>
      <use xlink:href="#CMR17-64" transform="translate(330.371246 0) scale(0.996264)"/>
      <use xlink:href="#CMR17-28" transform="translate(411.342582 0) scale(0.996264)"/>
      <use xlink:href="#CMR17-42" transform="translate(446.62335 0) scale(0.996264)"/>
      <use xlink:href="#CMR17-61" transform="translate(511.812104 0) scale(0.996264)"/>
      <use xlink:href="#CMR17-74" transform="translate(557.502581 0) scale(0.996264)"/>
      <use xlink:href="#CMR17-65" transform="translate(592.783349 0) scale(0.996264)"/>
      <use xlink:href="#CMR17-73" transform="translate(633.26901 0) scale(0.996264)"/>
      <use xlink:href="#CMR17-61" transform="translate(699.146314 0) scale(0.996264)"/>
      <use xlink:href="#CMR17-6e" transform="translate(744.836791 0) scale(0.996264)"/>
      <use xlink:href="#CMR17-64" transform="translate(795.73216 0) scale(0.996264)"/>
      <use xlink:href="#CMR17-47" transform="translate(876.703497 0) scale(0.996264)"/>
      <use xlink:href="#CMR17-72" transform="translate(949.058842 0) scale(0.996264)"/>
      <use xlink:href="#CMR17-61" transform="translate(984.33961 0) scale(0.996264)"/>
      <use xlink:href="#CMR17-6e" transform="translate(1030.030087 0) scale(0.996264)"/>
      <use xlink:href="#CMR17-67" transform="translate(1080.925457 0) scale(0.996264)"/>
      <use xlink:href="#CMR17-65" transform="translate(1126.615934 0) scale(0.996264)"/>
      <use xlink:href="#CMR17-72" transform="translate(1167.101595 0) scale(0.996264)"/>
      <use xlink:href="#CMR17-29" transform="translate(1202.382363 0) scale(0.996264)"/>
     </g>
    </g>
    <g id="line2d_26">
     <path d="M 877.331426 707.009033 
L 887.331426 707.009033 
L 897.331426 707.009033 
" style="fill: none; stroke: #c17150; stroke-width: 1.5; stroke-linecap: round"/>
    </g>
    <g id="text_25">
     <!-- Predicted (MSE) -->
     <g style="fill: #262626" transform="translate(905.331426 710.509033) scale(0.1 -0.1)">
      <defs>
       <path id="CMR17-4d" d="M 1338 4224 
C 1299 4320 1293 4320 1158 4320 
L 339 4320 
L 339 4160 
C 781 4160 851 4160 851 3875 
L 851 610 
C 851 451 851 153 339 153 
L 339 -13 
C 486 0 755 0 915 0 
C 1075 0 1344 0 1491 -13 
L 1491 153 
C 979 153 979 451 979 610 
L 979 4135 
L 986 4135 
L 2490 89 
C 2515 25 2528 -13 2579 -13 
C 2630 -13 2643 25 2669 89 
L 4186 4166 
L 4192 4166 
L 4192 438 
C 4192 153 4122 153 3680 153 
L 3680 -13 
C 3853 0 4198 0 4384 0 
C 4570 0 4922 0 5094 -13 
L 5094 153 
C 4653 153 4582 153 4582 438 
L 4582 3875 
C 4582 4160 4653 4160 5094 4160 
L 5094 4320 
L 4282 4320 
C 4147 4320 4141 4314 4102 4218 
L 2720 502 
L 1338 4224 
z
" transform="scale(0.015625)"/>
       <path id="CMR17-45" d="M 3885 1615 
L 3770 1615 
C 3629 676 3546 166 2419 166 
L 1530 166 
C 1274 166 1261 197 1261 414 
L 1261 2176 
L 1862 2176 
C 2464 2176 2522 1960 2522 1430 
L 2637 1430 
L 2637 3081 
L 2522 3081 
C 2522 2557 2464 2342 1862 2342 
L 1261 2342 
L 1261 3913 
C 1261 4128 1274 4160 1530 4160 
L 2406 4160 
C 3398 4160 3514 3769 3603 2929 
L 3718 2929 
L 3565 4325 
L 326 4325 
L 326 4160 
C 768 4160 838 4160 838 3874 
L 838 451 
C 838 166 768 166 326 166 
L 326 0 
L 3654 0 
L 3885 1615 
z
" transform="scale(0.015625)"/>
      </defs>
      <use xlink:href="#CMR17-50" transform="scale(0.996264)"/>
      <use xlink:href="#CMR17-72" transform="translate(62.586301 0) scale(0.996264)"/>
      <use xlink:href="#CMR17-65" transform="translate(97.867068 0) scale(0.996264)"/>
      <use xlink:href="#CMR17-64" transform="translate(138.352729 0) scale(0.996264)"/>
      <use xlink:href="#CMR17-69" transform="translate(189.248099 0) scale(0.996264)"/>
      <use xlink:href="#CMR17-63" transform="translate(214.119157 0) scale(0.996264)"/>
      <use xlink:href="#CMR17-74" transform="translate(254.604818 0) scale(0.996264)"/>
      <use xlink:href="#CMR17-65" transform="translate(289.885585 0) scale(0.996264)"/>
      <use xlink:href="#CMR17-64" transform="translate(330.371246 0) scale(0.996264)"/>
      <use xlink:href="#CMR17-28" transform="translate(411.342582 0) scale(0.996264)"/>
      <use xlink:href="#CMR17-4d" transform="translate(446.62335 0) scale(0.996264)"/>
      <use xlink:href="#CMR17-53" transform="translate(531.31029 0) scale(0.996264)"/>
      <use xlink:href="#CMR17-45" transform="translate(582.20566 0) scale(0.996264)"/>
      <use xlink:href="#CMR17-29" transform="translate(644.791961 0) scale(0.996264)"/>
     </g>
    </g>
   </g>
  </g>
 </g>
 <defs>
  <clipPath id="p89bcc2b591">
   <rect x="32.085996" y="17.30242" width="1396.449865" height="615.213303"/>
  </clipPath>
 </defs>
</svg>
