<?xml version="1.0" encoding="utf-8" standalone="no"?>
<!DOCTYPE svg PUBLIC "-//W3C//DTD SVG 1.1//EN"
  "http://www.w3.org/Graphics/SVG/1.1/DTD/svg11.dtd">
<svg xmlns:xlink="http://www.w3.org/1999/xlink" width="1440pt" height="720pt" viewBox="0 0 1440 720" xmlns="http://www.w3.org/2000/svg" version="1.1">
 <metadata>
  <rdf:RDF xmlns:dc="http://purl.org/dc/elements/1.1/" xmlns:cc="http://creativecommons.org/ns#" xmlns:rdf="http://www.w3.org/1999/02/22-rdf-syntax-ns#">
   <cc:Work>
    <dc:type rdf:resource="http://purl.org/dc/dcmitype/StillImage"/>
    <dc:date>2023-11-12T13:20:43.018690</dc:date>
    <dc:format>image/svg+xml</dc:format>
    <dc:creator>
     <cc:Agent>
      <dc:title>Matplotlib v3.8.0, https://matplotlib.org/</dc:title>
     </cc:Agent>
    </dc:creator>
   </cc:Work>
  </rdf:RDF>
 </metadata>
 <defs>
  <style type="text/css">*{stroke-linejoin: round; stroke-linecap: butt}</style>
 </defs>
 <g id="figure_1">
  <g id="patch_1">
   <path d="M 0 720 
L 1440 720 
L 1440 0 
L 0 0 
z
" style="fill: #ffffff"/>
  </g>
  <g id="axes_1">
   <g id="patch_2">
    <path d="M 46.489061 612.426839 
L 1436.99976 612.426839 
L 1436.99976 25.604645 
L 46.489061 25.604645 
z
" style="fill: #ffffff"/>
   </g>
   <g id="matplotlib.axis_1">
    <g id="xtick_1">
     <g id="line2d_1">
      <path d="M 109.694093 612.426839 
L 109.694093 25.604645 
" clip-path="url(#pad08293767)" style="fill: none; stroke: #cccccc; stroke-opacity: 0.5; stroke-width: 0.8; stroke-linecap: round"/>
     </g>
     <g id="text_1">
      <!-- $\mathdefault{2015}$ -->
      <g transform="translate(91.417902 629.763836) scale(0.2 -0.2)">
       <defs>
        <path id="CMR17-32" d="M 2669 989 
L 2554 989 
C 2490 536 2438 459 2413 420 
C 2381 369 1920 369 1830 369 
L 602 369 
C 832 619 1280 1072 1824 1597 
C 2214 1967 2669 2402 2669 3035 
C 2669 3790 2067 4224 1395 4224 
C 691 4224 262 3604 262 3030 
C 262 2780 448 2748 525 2748 
C 589 2748 781 2787 781 3010 
C 781 3207 614 3264 525 3264 
C 486 3264 448 3258 422 3245 
C 544 3790 915 4058 1306 4058 
C 1862 4058 2227 3617 2227 3035 
C 2227 2479 1901 2000 1536 1584 
L 262 146 
L 262 0 
L 2515 0 
L 2669 989 
z
" transform="scale(0.015625)"/>
        <path id="CMR17-30" d="M 2688 2025 
C 2688 2416 2682 3080 2413 3591 
C 2176 4039 1798 4198 1466 4198 
C 1158 4198 768 4058 525 3597 
C 269 3118 243 2524 243 2025 
C 243 1661 250 1106 448 619 
C 723 -39 1216 -128 1466 -128 
C 1760 -128 2208 -7 2470 600 
C 2662 1042 2688 1559 2688 2025 
z
M 1466 -26 
C 1056 -26 813 325 723 812 
C 653 1188 653 1738 653 2096 
C 653 2588 653 2997 736 3387 
C 858 3929 1216 4096 1466 4096 
C 1728 4096 2067 3923 2189 3400 
C 2272 3036 2278 2607 2278 2096 
C 2278 1680 2278 1169 2202 792 
C 2067 95 1690 -26 1466 -26 
z
" transform="scale(0.015625)"/>
        <path id="CMR17-31" d="M 1702 4058 
C 1702 4192 1696 4192 1606 4192 
C 1357 3916 979 3827 621 3827 
C 602 3827 570 3827 563 3808 
C 557 3795 557 3782 557 3648 
C 755 3648 1088 3686 1344 3839 
L 1344 461 
C 1344 236 1331 160 781 160 
L 589 160 
L 589 0 
C 896 0 1216 0 1523 0 
C 1830 0 2150 0 2458 0 
L 2458 160 
L 2266 160 
C 1715 160 1702 230 1702 458 
L 1702 4058 
z
" transform="scale(0.015625)"/>
        <path id="CMR17-35" d="M 730 3692 
C 794 3666 1056 3584 1325 3584 
C 1920 3584 2246 3911 2432 4100 
C 2432 4157 2432 4192 2394 4192 
C 2387 4192 2374 4192 2323 4163 
C 2099 4058 1837 3973 1517 3973 
C 1325 3973 1037 3999 723 4139 
C 653 4171 640 4171 634 4171 
C 602 4171 595 4164 595 4037 
L 595 2203 
C 595 2089 595 2057 659 2057 
C 691 2057 704 2070 736 2114 
C 941 2401 1222 2522 1542 2522 
C 1766 2522 2246 2382 2246 1289 
C 2246 1085 2246 715 2054 421 
C 1894 159 1645 25 1370 25 
C 947 25 518 320 403 814 
C 429 807 480 795 506 795 
C 589 795 749 840 749 1038 
C 749 1210 627 1280 506 1280 
C 358 1280 262 1190 262 1011 
C 262 454 704 -128 1382 -128 
C 2042 -128 2669 440 2669 1264 
C 2669 2030 2170 2624 1549 2624 
C 1222 2624 947 2503 730 2274 
L 730 3692 
z
" transform="scale(0.015625)"/>
       </defs>
       <use xlink:href="#CMR17-32" transform="scale(0.996264)"/>
       <use xlink:href="#CMR17-30" transform="translate(45.690477 0) scale(0.996264)"/>
       <use xlink:href="#CMR17-31" transform="translate(91.380954 0) scale(0.996264)"/>
       <use xlink:href="#CMR17-35" transform="translate(137.071431 0) scale(0.996264)"/>
      </g>
     </g>
    </g>
    <g id="xtick_2">
     <g id="line2d_2">
      <path d="M 254.106216 612.426839 
L 254.106216 25.604645 
" clip-path="url(#pad08293767)" style="fill: none; stroke: #cccccc; stroke-opacity: 0.5; stroke-width: 0.8; stroke-linecap: round"/>
     </g>
     <g id="text_2">
      <!-- $\mathdefault{2016}$ -->
      <g transform="translate(235.830025 629.763836) scale(0.2 -0.2)">
       <defs>
        <path id="CMR17-36" d="M 678 2176 
C 678 3690 1395 4032 1811 4032 
C 1946 4032 2272 4009 2400 3776 
C 2298 3776 2106 3776 2106 3553 
C 2106 3381 2246 3323 2336 3323 
C 2394 3323 2566 3348 2566 3560 
C 2566 3954 2246 4179 1805 4179 
C 1043 4179 243 3390 243 1984 
C 243 253 966 -128 1478 -128 
C 2099 -128 2688 427 2688 1283 
C 2688 2081 2170 2662 1517 2662 
C 1126 2662 838 2407 678 1960 
L 678 2176 
z
M 1478 25 
C 691 25 691 1200 691 1436 
C 691 1896 909 2560 1504 2560 
C 1613 2560 1926 2560 2138 2120 
C 2253 1870 2253 1609 2253 1289 
C 2253 944 2253 690 2118 434 
C 1978 171 1773 25 1478 25 
z
" transform="scale(0.015625)"/>
       </defs>
       <use xlink:href="#CMR17-32" transform="scale(0.996264)"/>
       <use xlink:href="#CMR17-30" transform="translate(45.690477 0) scale(0.996264)"/>
       <use xlink:href="#CMR17-31" transform="translate(91.380954 0) scale(0.996264)"/>
       <use xlink:href="#CMR17-36" transform="translate(137.071431 0) scale(0.996264)"/>
      </g>
     </g>
    </g>
    <g id="xtick_3">
     <g id="line2d_3">
      <path d="M 398.913988 612.426839 
L 398.913988 25.604645 
" clip-path="url(#pad08293767)" style="fill: none; stroke: #cccccc; stroke-opacity: 0.5; stroke-width: 0.8; stroke-linecap: round"/>
     </g>
     <g id="text_3">
      <!-- $\mathdefault{2017}$ -->
      <g transform="translate(380.637797 629.763836) scale(0.2 -0.2)">
       <defs>
        <path id="CMR17-37" d="M 2886 3941 
L 2886 4081 
L 1382 4081 
C 634 4081 621 4165 595 4288 
L 480 4288 
L 294 3094 
L 410 3094 
C 429 3215 474 3540 550 3661 
C 589 3712 1062 3712 1171 3712 
L 2579 3712 
L 1869 2661 
C 1395 1954 1069 999 1069 165 
C 1069 89 1069 -128 1299 -128 
C 1530 -128 1530 89 1530 171 
L 1530 465 
C 1530 1508 1709 2196 2003 2636 
L 2886 3941 
z
" transform="scale(0.015625)"/>
       </defs>
       <use xlink:href="#CMR17-32" transform="scale(0.996264)"/>
       <use xlink:href="#CMR17-30" transform="translate(45.690477 0) scale(0.996264)"/>
       <use xlink:href="#CMR17-31" transform="translate(91.380954 0) scale(0.996264)"/>
       <use xlink:href="#CMR17-37" transform="translate(137.071431 0) scale(0.996264)"/>
      </g>
     </g>
    </g>
    <g id="xtick_4">
     <g id="line2d_4">
      <path d="M 543.326111 612.426839 
L 543.326111 25.604645 
" clip-path="url(#pad08293767)" style="fill: none; stroke: #cccccc; stroke-opacity: 0.5; stroke-width: 0.8; stroke-linecap: round"/>
     </g>
     <g id="text_4">
      <!-- $\mathdefault{2018}$ -->
      <g transform="translate(525.04992 629.763836) scale(0.2 -0.2)">
       <defs>
        <path id="CMR17-38" d="M 1741 2264 
C 2144 2467 2554 2773 2554 3263 
C 2554 3841 1990 4179 1472 4179 
C 890 4179 378 3759 378 3180 
C 378 3021 416 2747 666 2505 
C 730 2442 998 2251 1171 2130 
C 883 1983 211 1634 211 934 
C 211 279 838 -128 1459 -128 
C 2144 -128 2720 362 2720 1010 
C 2720 1590 2330 1857 2074 2029 
L 1741 2264 
z
M 902 2822 
C 851 2854 595 3051 595 3351 
C 595 3739 998 4032 1459 4032 
C 1965 4032 2336 3676 2336 3262 
C 2336 2669 1670 2331 1638 2331 
C 1632 2331 1626 2331 1574 2370 
L 902 2822 
z
M 2080 1519 
C 2176 1449 2483 1240 2483 851 
C 2483 381 2010 25 1472 25 
C 890 25 448 438 448 940 
C 448 1443 838 1862 1280 2060 
L 2080 1519 
z
" transform="scale(0.015625)"/>
       </defs>
       <use xlink:href="#CMR17-32" transform="scale(0.996264)"/>
       <use xlink:href="#CMR17-30" transform="translate(45.690477 0) scale(0.996264)"/>
       <use xlink:href="#CMR17-31" transform="translate(91.380954 0) scale(0.996264)"/>
       <use xlink:href="#CMR17-38" transform="translate(137.071431 0) scale(0.996264)"/>
      </g>
     </g>
    </g>
    <g id="xtick_5">
     <g id="line2d_5">
      <path d="M 687.738233 612.426839 
L 687.738233 25.604645 
" clip-path="url(#pad08293767)" style="fill: none; stroke: #cccccc; stroke-opacity: 0.5; stroke-width: 0.8; stroke-linecap: round"/>
     </g>
     <g id="text_5">
      <!-- $\mathdefault{2019}$ -->
      <g transform="translate(669.462042 629.763836) scale(0.2 -0.2)">
       <defs>
        <path id="CMR17-39" d="M 2253 1864 
C 2253 464 1670 31 1190 31 
C 1043 31 685 31 538 294 
C 704 268 826 357 826 518 
C 826 692 685 749 595 749 
C 538 749 365 723 365 506 
C 365 71 742 -128 1203 -128 
C 1939 -128 2688 674 2688 2073 
C 2688 3817 1971 4179 1485 4179 
C 851 4179 243 3628 243 2778 
C 243 1991 762 1408 1414 1408 
C 1952 1408 2189 1903 2253 2112 
L 2253 1864 
z
M 1427 1510 
C 1254 1510 1011 1542 813 1922 
C 678 2169 678 2461 678 2771 
C 678 3146 678 3405 858 3684 
C 947 3817 1114 4032 1485 4032 
C 2240 4032 2240 2885 2240 2632 
C 2240 2182 2035 1510 1427 1510 
z
" transform="scale(0.015625)"/>
       </defs>
       <use xlink:href="#CMR17-32" transform="scale(0.996264)"/>
       <use xlink:href="#CMR17-30" transform="translate(45.690477 0) scale(0.996264)"/>
       <use xlink:href="#CMR17-31" transform="translate(91.380954 0) scale(0.996264)"/>
       <use xlink:href="#CMR17-39" transform="translate(137.071431 0) scale(0.996264)"/>
      </g>
     </g>
    </g>
    <g id="xtick_6">
     <g id="line2d_6">
      <path d="M 832.150356 612.426839 
L 832.150356 25.604645 
" clip-path="url(#pad08293767)" style="fill: none; stroke: #cccccc; stroke-opacity: 0.5; stroke-width: 0.8; stroke-linecap: round"/>
     </g>
     <g id="text_6">
      <!-- $\mathdefault{2020}$ -->
      <g transform="translate(813.874165 629.763836) scale(0.2 -0.2)">
       <use xlink:href="#CMR17-32" transform="scale(0.996264)"/>
       <use xlink:href="#CMR17-30" transform="translate(45.690477 0) scale(0.996264)"/>
       <use xlink:href="#CMR17-32" transform="translate(91.380954 0) scale(0.996264)"/>
       <use xlink:href="#CMR17-30" transform="translate(137.071431 0) scale(0.996264)"/>
      </g>
     </g>
    </g>
    <g id="xtick_7">
     <g id="line2d_7">
      <path d="M 976.958128 612.426839 
L 976.958128 25.604645 
" clip-path="url(#pad08293767)" style="fill: none; stroke: #cccccc; stroke-opacity: 0.5; stroke-width: 0.8; stroke-linecap: round"/>
     </g>
     <g id="text_7">
      <!-- $\mathdefault{2021}$ -->
      <g transform="translate(958.681937 629.763836) scale(0.2 -0.2)">
       <use xlink:href="#CMR17-32" transform="scale(0.996264)"/>
       <use xlink:href="#CMR17-30" transform="translate(45.690477 0) scale(0.996264)"/>
       <use xlink:href="#CMR17-32" transform="translate(91.380954 0) scale(0.996264)"/>
       <use xlink:href="#CMR17-31" transform="translate(137.071431 0) scale(0.996264)"/>
      </g>
     </g>
    </g>
    <g id="xtick_8">
     <g id="line2d_8">
      <path d="M 1121.370251 612.426839 
L 1121.370251 25.604645 
" clip-path="url(#pad08293767)" style="fill: none; stroke: #cccccc; stroke-opacity: 0.5; stroke-width: 0.8; stroke-linecap: round"/>
     </g>
     <g id="text_8">
      <!-- $\mathdefault{2022}$ -->
      <g transform="translate(1103.09406 629.763836) scale(0.2 -0.2)">
       <use xlink:href="#CMR17-32" transform="scale(0.996264)"/>
       <use xlink:href="#CMR17-30" transform="translate(45.690477 0) scale(0.996264)"/>
       <use xlink:href="#CMR17-32" transform="translate(91.380954 0) scale(0.996264)"/>
       <use xlink:href="#CMR17-32" transform="translate(137.071431 0) scale(0.996264)"/>
      </g>
     </g>
    </g>
    <g id="xtick_9">
     <g id="line2d_9">
      <path d="M 1265.782373 612.426839 
L 1265.782373 25.604645 
" clip-path="url(#pad08293767)" style="fill: none; stroke: #cccccc; stroke-opacity: 0.5; stroke-width: 0.8; stroke-linecap: round"/>
     </g>
     <g id="text_9">
      <!-- $\mathdefault{2023}$ -->
      <g transform="translate(1247.506183 629.763836) scale(0.2 -0.2)">
       <defs>
        <path id="CMR17-33" d="M 1414 2157 
C 1984 2157 2234 1662 2234 1090 
C 2234 320 1824 25 1453 25 
C 1114 25 563 194 390 693 
C 422 680 454 680 486 680 
C 640 680 755 782 755 948 
C 755 1133 614 1216 486 1216 
C 378 1216 211 1165 211 926 
C 211 335 787 -128 1466 -128 
C 2176 -128 2720 430 2720 1085 
C 2720 1707 2208 2157 1600 2227 
C 2086 2328 2554 2756 2554 3329 
C 2554 3820 2048 4179 1472 4179 
C 890 4179 378 3829 378 3329 
C 378 3110 544 3072 627 3072 
C 762 3072 877 3155 877 3321 
C 877 3486 762 3569 627 3569 
C 602 3569 570 3569 544 3557 
C 730 3959 1235 4032 1459 4032 
C 1683 4032 2106 3925 2106 3320 
C 2106 3143 2080 2828 1862 2550 
C 1670 2304 1453 2304 1242 2284 
C 1210 2284 1062 2269 1037 2269 
C 992 2263 966 2257 966 2208 
C 966 2163 973 2157 1101 2157 
L 1414 2157 
z
" transform="scale(0.015625)"/>
       </defs>
       <use xlink:href="#CMR17-32" transform="scale(0.996264)"/>
       <use xlink:href="#CMR17-30" transform="translate(45.690477 0) scale(0.996264)"/>
       <use xlink:href="#CMR17-32" transform="translate(91.380954 0) scale(0.996264)"/>
       <use xlink:href="#CMR17-33" transform="translate(137.071431 0) scale(0.996264)"/>
      </g>
     </g>
    </g>
    <g id="xtick_10">
     <g id="line2d_10">
      <path d="M 1410.194496 612.426839 
L 1410.194496 25.604645 
" clip-path="url(#pad08293767)" style="fill: none; stroke: #cccccc; stroke-opacity: 0.5; stroke-width: 0.8; stroke-linecap: round"/>
     </g>
     <g id="text_10">
      <!-- $\mathdefault{2024}$ -->
      <g transform="translate(1391.918305 629.763836) scale(0.2 -0.2)">
       <defs>
        <path id="CMR17-34" d="M 2150 4122 
C 2150 4256 2144 4256 2029 4256 
L 128 1254 
L 128 1088 
L 1779 1088 
L 1779 457 
C 1779 224 1766 160 1318 160 
L 1197 160 
L 1197 0 
C 1402 0 1747 0 1965 0 
C 2182 0 2528 0 2733 0 
L 2733 160 
L 2611 160 
C 2163 160 2150 224 2150 457 
L 2150 1088 
L 2803 1088 
L 2803 1254 
L 2150 1254 
L 2150 4122 
z
M 1798 3703 
L 1798 1254 
L 256 1254 
L 1798 3703 
z
" transform="scale(0.015625)"/>
       </defs>
       <use xlink:href="#CMR17-32" transform="scale(0.996264)"/>
       <use xlink:href="#CMR17-30" transform="translate(45.690477 0) scale(0.996264)"/>
       <use xlink:href="#CMR17-32" transform="translate(91.380954 0) scale(0.996264)"/>
       <use xlink:href="#CMR17-34" transform="translate(137.071431 0) scale(0.996264)"/>
      </g>
     </g>
    </g>
    <g id="text_11">
     <!-- Date -->
     <g style="fill: #696969" transform="translate(722.559374 651.476466) scale(0.2 -0.2)">
      <defs>
       <path id="CMR17-44" d="M 333 4352 
L 333 4186 
C 774 4186 845 4186 845 3900 
L 845 452 
C 845 166 774 166 333 166 
L 333 0 
L 2368 0 
C 3398 0 4224 943 4224 2141 
C 4224 3346 3411 4352 2368 4352 
L 333 4352 
z
M 1523 166 
C 1267 166 1254 197 1254 414 
L 1254 3938 
C 1254 4155 1267 4186 1523 4186 
L 2240 4186 
C 2771 4186 3750 3874 3750 2141 
C 3750 1242 3488 879 3366 707 
C 3213 510 2848 166 2240 166 
L 1523 166 
z
" transform="scale(0.015625)"/>
       <path id="CMR17-61" d="M 2304 1653 
C 2304 2072 2304 2294 2035 2543 
C 1798 2752 1523 2816 1306 2816 
C 800 2816 435 2407 435 1971 
C 435 1728 627 1728 666 1728 
C 749 1728 896 1778 896 1954 
C 896 2112 774 2181 666 2181 
C 640 2181 608 2174 589 2168 
C 723 2592 1069 2714 1293 2714 
C 1613 2714 1965 2429 1965 1885 
L 1965 1600 
C 1587 1600 1133 1549 774 1357 
C 371 1133 256 813 256 570 
C 256 77 832 -64 1171 -64 
C 1523 -64 1850 139 1990 511 
C 2003 233 2182 -18 2464 -18 
C 2598 -18 2938 70 2938 567 
L 2938 920 
L 2822 920 
L 2822 562 
C 2822 178 2650 128 2566 128 
C 2304 128 2304 458 2304 738 
L 2304 1653 
z
M 1965 870 
C 1965 317 1568 38 1216 38 
C 896 38 646 275 646 570 
C 646 761 730 1100 1101 1305 
C 1408 1478 1760 1504 1965 1504 
L 1965 870 
z
" transform="scale(0.015625)"/>
       <path id="CMR17-74" d="M 966 2560 
L 1862 2560 
L 1862 2725 
L 966 2725 
L 966 3904 
L 851 3904 
C 838 3245 614 2668 70 2668 
L 70 2560 
L 627 2560 
L 627 771 
C 627 650 627 -64 1370 -64 
C 1747 -64 1965 306 1965 777 
L 1965 1140 
L 1850 1140 
L 1850 783 
C 1850 344 1677 51 1408 51 
C 1222 51 966 178 966 758 
L 966 2560 
z
" transform="scale(0.015625)"/>
       <path id="CMR17-65" d="M 2438 1472 
C 2464 1498 2464 1511 2464 1576 
C 2464 2238 2118 2816 1389 2816 
C 710 2816 173 2169 173 1383 
C 173 551 781 -64 1459 -64 
C 2176 -64 2458 607 2458 740 
C 2458 784 2419 784 2406 784 
C 2362 784 2355 771 2330 696 
C 2189 265 1837 51 1504 51 
C 1229 51 954 203 781 480 
C 582 803 582 1176 582 1472 
L 2438 1472 
z
M 589 1568 
C 634 2505 1126 2714 1382 2714 
C 1818 2714 2112 2297 2118 1568 
L 589 1568 
z
" transform="scale(0.015625)"/>
      </defs>
      <use xlink:href="#CMR17-44" transform="scale(0.996264)"/>
      <use xlink:href="#CMR17-61" transform="translate(70.393556 0) scale(0.996264)"/>
      <use xlink:href="#CMR17-74" transform="translate(116.084033 0) scale(0.996264)"/>
      <use xlink:href="#CMR17-65" transform="translate(151.364801 0) scale(0.996264)"/>
     </g>
    </g>
   </g>
   <g id="matplotlib.axis_2">
    <g id="ytick_1">
     <g id="line2d_11">
      <path d="M 46.489061 587.030424 
L 1436.99976 587.030424 
" clip-path="url(#pad08293767)" style="fill: none; stroke: #cccccc; stroke-opacity: 0.5; stroke-width: 0.8; stroke-linecap: round"/>
     </g>
     <g id="text_12">
      <!-- $\mathdefault{0}$ -->
      <g transform="translate(33.850966 593.948923) scale(0.2 -0.2)">
       <use xlink:href="#CMR17-30" transform="scale(0.996264)"/>
      </g>
     </g>
    </g>
    <g id="ytick_2">
     <g id="line2d_12">
      <path d="M 46.489061 491.668311 
L 1436.99976 491.668311 
" clip-path="url(#pad08293767)" style="fill: none; stroke: #cccccc; stroke-opacity: 0.5; stroke-width: 0.8; stroke-linecap: round"/>
     </g>
     <g id="text_13">
      <!-- $\mathdefault{10}$ -->
      <g transform="translate(24.71287 498.58681) scale(0.2 -0.2)">
       <use xlink:href="#CMR17-31" transform="scale(0.996264)"/>
       <use xlink:href="#CMR17-30" transform="translate(45.690477 0) scale(0.996264)"/>
      </g>
     </g>
    </g>
    <g id="ytick_3">
     <g id="line2d_13">
      <path d="M 46.489061 396.306198 
L 1436.99976 396.306198 
" clip-path="url(#pad08293767)" style="fill: none; stroke: #cccccc; stroke-opacity: 0.5; stroke-width: 0.8; stroke-linecap: round"/>
     </g>
     <g id="text_14">
      <!-- $\mathdefault{20}$ -->
      <g transform="translate(24.71287 403.224696) scale(0.2 -0.2)">
       <use xlink:href="#CMR17-32" transform="scale(0.996264)"/>
       <use xlink:href="#CMR17-30" transform="translate(45.690477 0) scale(0.996264)"/>
      </g>
     </g>
    </g>
    <g id="ytick_4">
     <g id="line2d_14">
      <path d="M 46.489061 300.944085 
L 1436.99976 300.944085 
" clip-path="url(#pad08293767)" style="fill: none; stroke: #cccccc; stroke-opacity: 0.5; stroke-width: 0.8; stroke-linecap: round"/>
     </g>
     <g id="text_15">
      <!-- $\mathdefault{30}$ -->
      <g transform="translate(24.71287 307.862583) scale(0.2 -0.2)">
       <use xlink:href="#CMR17-33" transform="scale(0.996264)"/>
       <use xlink:href="#CMR17-30" transform="translate(45.690477 0) scale(0.996264)"/>
      </g>
     </g>
    </g>
    <g id="ytick_5">
     <g id="line2d_15">
      <path d="M 46.489061 205.581972 
L 1436.99976 205.581972 
" clip-path="url(#pad08293767)" style="fill: none; stroke: #cccccc; stroke-opacity: 0.5; stroke-width: 0.8; stroke-linecap: round"/>
     </g>
     <g id="text_16">
      <!-- $\mathdefault{40}$ -->
      <g transform="translate(24.71287 212.50047) scale(0.2 -0.2)">
       <use xlink:href="#CMR17-34" transform="scale(0.996264)"/>
       <use xlink:href="#CMR17-30" transform="translate(45.690477 0) scale(0.996264)"/>
      </g>
     </g>
    </g>
    <g id="ytick_6">
     <g id="line2d_16">
      <path d="M 46.489061 110.219859 
L 1436.99976 110.219859 
" clip-path="url(#pad08293767)" style="fill: none; stroke: #cccccc; stroke-opacity: 0.5; stroke-width: 0.8; stroke-linecap: round"/>
     </g>
     <g id="text_17">
      <!-- $\mathdefault{50}$ -->
      <g transform="translate(24.71287 117.138357) scale(0.2 -0.2)">
       <use xlink:href="#CMR17-35" transform="scale(0.996264)"/>
       <use xlink:href="#CMR17-30" transform="translate(45.690477 0) scale(0.996264)"/>
      </g>
     </g>
    </g>
    <g id="text_18">
     <!-- Total Contribution -->
     <g style="fill: #696969" transform="translate(16.837237 394.492272) rotate(-90) scale(0.2 -0.2)">
      <defs>
       <path id="CMR17-54" d="M 3981 4326 
L 288 4326 
L 179 2918 
L 294 2918 
C 378 3976 467 4160 1453 4160 
C 1568 4160 1754 4160 1805 4154 
C 1926 4135 1926 4058 1926 3912 
L 1926 459 
C 1926 230 1907 160 1376 160 
L 1197 160 
L 1197 0 
C 1504 0 1824 0 2138 0 
C 2451 0 2771 0 3078 0 
L 3078 160 
L 2899 160 
C 2368 160 2349 230 2349 459 
L 2349 3912 
C 2349 4052 2349 4129 2464 4154 
C 2515 4160 2701 4160 2816 4160 
C 3795 4160 3891 3976 3974 2918 
L 4090 2918 
L 3981 4326 
z
" transform="scale(0.015625)"/>
       <path id="CMR17-6f" d="M 2758 1356 
C 2758 2176 2163 2816 1466 2816 
C 768 2816 173 2176 173 1356 
C 173 551 768 -64 1466 -64 
C 2163 -64 2758 551 2758 1356 
z
M 1466 51 
C 1165 51 909 230 762 480 
C 602 767 582 1126 582 1408 
C 582 1677 595 2010 762 2298 
C 890 2509 1139 2714 1466 2714 
C 1754 2714 1997 2554 2150 2330 
C 2349 2029 2349 1607 2349 1408 
C 2349 1158 2336 775 2163 467 
C 1984 173 1709 51 1466 51 
z
" transform="scale(0.015625)"/>
       <path id="CMR17-6c" d="M 979 4396 
L 218 4326 
L 218 4160 
C 595 4160 653 4122 653 3817 
L 653 426 
C 653 184 627 153 218 153 
L 218 -13 
C 371 0 653 0 813 0 
C 979 0 1261 0 1414 -13 
L 1414 153 
C 1005 153 979 178 979 426 
L 979 4396 
z
" transform="scale(0.015625)"/>
       <path id="CMR17-43" d="M 3974 4289 
C 3974 4403 3968 4410 3930 4410 
C 3904 4410 3898 4403 3853 4327 
L 3571 3792 
C 3258 4187 2874 4416 2381 4416 
C 1286 4416 294 3456 294 2148 
C 294 826 1286 -128 2387 -128 
C 3366 -128 3974 730 3974 1461 
C 3974 1524 3974 1550 3917 1550 
C 3866 1550 3866 1531 3859 1474 
C 3808 585 3168 38 2477 38 
C 1824 38 781 495 781 2147 
C 781 3805 1843 4250 2464 4250 
C 3187 4250 3712 3628 3834 2745 
C 3846 2668 3846 2655 3904 2655 
C 3974 2655 3974 2668 3974 2783 
L 3974 4289 
z
" transform="scale(0.015625)"/>
       <path id="CMR17-6e" d="M 2656 1933 
C 2656 2259 2592 2790 1837 2790 
C 1331 2790 1069 2400 973 2144 
L 966 2144 
L 966 2790 
L 211 2720 
L 211 2554 
C 589 2554 646 2515 646 2208 
L 646 428 
C 646 184 621 153 211 153 
L 211 -13 
C 365 0 646 0 813 0 
C 979 0 1267 0 1421 -13 
L 1421 153 
C 1011 153 986 178 986 428 
L 986 1658 
C 986 2247 1344 2688 1792 2688 
C 2266 2688 2317 2266 2317 1958 
L 2317 428 
C 2317 184 2291 153 1882 153 
L 1882 -13 
C 2035 0 2317 0 2483 0 
C 2650 0 2938 0 3091 -13 
L 3091 153 
C 2682 153 2656 178 2656 428 
L 2656 1933 
z
" transform="scale(0.015625)"/>
       <path id="CMR17-72" d="M 960 1497 
C 960 2112 1222 2688 1702 2688 
C 1747 2688 1792 2682 1837 2662 
C 1837 2662 1696 2617 1696 2452 
C 1696 2298 1818 2234 1914 2234 
C 1990 2234 2131 2279 2131 2458 
C 2131 2663 1926 2790 1709 2790 
C 1222 2790 1011 2317 947 2093 
L 941 2093 
L 941 2790 
L 198 2720 
L 198 2554 
C 576 2554 634 2515 634 2208 
L 634 428 
C 634 184 608 153 198 153 
L 198 -13 
C 352 0 646 0 813 0 
C 998 0 1325 0 1498 -13 
L 1498 153 
C 1037 153 960 153 960 440 
L 960 1497 
z
" transform="scale(0.015625)"/>
       <path id="CMR17-69" d="M 992 3909 
C 992 4049 877 4170 730 4170 
C 589 4170 467 4056 467 3909 
C 467 3769 582 3648 730 3648 
C 870 3648 992 3763 992 3909 
z
M 243 2706 
L 243 2541 
C 602 2541 653 2502 653 2197 
L 653 427 
C 653 184 627 153 218 153 
L 218 -13 
C 371 0 646 0 806 0 
C 960 0 1222 0 1370 -13 
L 1370 153 
C 992 153 979 191 979 420 
L 979 2776 
L 243 2706 
z
" transform="scale(0.015625)"/>
       <path id="CMR17-62" d="M 960 4396 
L 198 4326 
L 198 4160 
C 576 4160 634 4122 634 3817 
L 634 -13 
L 749 -13 
L 934 441 
C 1120 141 1395 -64 1766 -64 
C 2406 -64 3053 500 3053 1370 
C 3053 2188 2477 2790 1830 2790 
C 1434 2790 1152 2579 960 2330 
L 960 4396 
z
M 973 2004 
C 973 2118 973 2138 1062 2272 
C 1312 2657 1670 2688 1792 2688 
C 1984 2688 2643 2585 2643 1376 
C 2643 108 1888 38 1734 38 
C 1536 38 1248 114 1043 486 
C 973 608 973 621 973 735 
L 973 2004 
z
" transform="scale(0.015625)"/>
       <path id="CMR17-75" d="M 1882 2693 
L 1882 2528 
C 2259 2528 2317 2489 2317 2186 
L 2317 1032 
C 2317 500 2029 38 1555 38 
C 1030 38 986 348 986 678 
L 986 2763 
L 211 2693 
L 211 2528 
C 467 2528 640 2528 646 2274 
L 646 1058 
C 646 633 646 361 813 183 
C 896 101 1056 -64 1517 -64 
C 2061 -64 2272 377 2323 506 
L 2330 506 
L 2330 -63 
L 3091 -63 
L 3091 128 
C 2714 128 2656 166 2656 473 
L 2656 2763 
L 1882 2693 
z
" transform="scale(0.015625)"/>
      </defs>
      <use xlink:href="#CMR17-54" transform="scale(0.996264)"/>
      <use xlink:href="#CMR17-6f" transform="translate(58.702625 0) scale(0.996264)"/>
      <use xlink:href="#CMR17-74" transform="translate(104.393102 0) scale(0.996264)"/>
      <use xlink:href="#CMR17-61" transform="translate(139.67387 0) scale(0.996264)"/>
      <use xlink:href="#CMR17-6c" transform="translate(185.364347 0) scale(0.996264)"/>
      <use xlink:href="#CMR17-43" transform="translate(240.311372 0) scale(0.996264)"/>
      <use xlink:href="#CMR17-6f" transform="translate(306.821253 0) scale(0.996264)"/>
      <use xlink:href="#CMR17-6e" transform="translate(352.51173 0) scale(0.996264)"/>
      <use xlink:href="#CMR17-74" transform="translate(400.804646 0) scale(0.996264)"/>
      <use xlink:href="#CMR17-72" transform="translate(436.085413 0) scale(0.996264)"/>
      <use xlink:href="#CMR17-69" transform="translate(471.366181 0) scale(0.996264)"/>
      <use xlink:href="#CMR17-62" transform="translate(496.23724 0) scale(0.996264)"/>
      <use xlink:href="#CMR17-75" transform="translate(547.132609 0) scale(0.996264)"/>
      <use xlink:href="#CMR17-74" transform="translate(598.027979 0) scale(0.996264)"/>
      <use xlink:href="#CMR17-69" transform="translate(633.308747 0) scale(0.996264)"/>
      <use xlink:href="#CMR17-6f" transform="translate(658.179805 0) scale(0.996264)"/>
      <use xlink:href="#CMR17-6e" transform="translate(703.870283 0) scale(0.996264)"/>
     </g>
    </g>
   </g>
   <g id="line2d_17">
    <path d="M 109.694093 525.475011 
L 121.959232 504.607815 
L 121.959232 504.607815 
L 133.037422 491.815466 
L 133.037422 491.815466 
L 145.302562 486.019692 
L 145.302562 486.019692 
L 157.172051 481.81426 
L 157.172051 481.81426 
L 169.43719 472.961118 
L 169.43719 472.961118 
L 181.30668 472.947888 
L 181.30668 472.947888 
L 193.571819 451.237915 
L 193.571819 451.237915 
L 205.836958 430.264498 
L 205.836958 430.264498 
L 217.706448 404.975731 
L 217.706448 404.975731 
L 229.971587 413.699882 
L 229.971587 413.699882 
L 241.841076 365.484889 
L 241.841076 365.484889 
L 254.106216 343.580037 
L 254.106216 343.580037 
L 266.371355 331.250851 
L 266.371355 331.250851 
L 277.845195 309.980206 
L 277.845195 309.980206 
L 290.110334 320.150735 
L 290.110334 320.150735 
L 301.979823 252.69845 
L 301.979823 252.69845 
L 314.244963 298.113935 
L 314.244963 298.113935 
L 326.114452 293.048165 
L 326.114452 293.048165 
L 338.379591 289.518815 
L 338.379591 289.518815 
L 350.64473 280.975711 
L 350.64473 280.975711 
L 362.51422 250.772985 
L 362.51422 250.772985 
L 374.779359 243.721488 
L 374.779359 243.721488 
L 386.648849 264.506608 
L 386.648849 264.506608 
L 398.913988 288.71351 
L 398.913988 288.71351 
L 411.179127 276.1461 
L 411.179127 276.1461 
L 422.257317 279.904863 
L 422.257317 279.904863 
L 434.522457 292.559427 
L 434.522457 292.559427 
L 446.391946 263.6617 
L 446.391946 263.6617 
L 458.657085 228.6364 
L 458.657085 228.6364 
L 470.526575 283.17583 
L 470.526575 283.17583 
L 482.791714 240.602731 
L 482.791714 240.602731 
L 495.056853 274.213221 
L 495.056853 274.213221 
L 506.926343 257.764271 
L 506.926343 257.764271 
L 519.191482 277.35086 
L 519.191482 277.35086 
L 531.060971 281.531948 
L 531.060971 281.531948 
L 543.326111 323.936574 
L 543.326111 323.936574 
L 555.59125 326.619417 
L 555.59125 326.619417 
L 566.66944 314.411291 
L 566.66944 314.411291 
L 578.934579 365.537883 
L 578.934579 365.537883 
L 590.804069 349.132256 
L 590.804069 349.132256 
L 603.069208 341.959645 
L 603.069208 341.959645 
L 614.938697 362.627238 
L 614.938697 362.627238 
L 627.203837 379.966382 
L 627.203837 379.966382 
L 639.468976 366.863718 
L 639.468976 366.863718 
L 651.338465 360.006944 
L 651.338465 360.006944 
L 663.603605 337.862125 
L 663.603605 337.862125 
L 675.473094 363.499692 
L 675.473094 363.499692 
L 687.738233 360.737831 
L 687.738233 360.737831 
L 700.003372 349.591208 
L 700.003372 349.591208 
L 711.081563 371.595224 
L 711.081563 371.595224 
L 723.346702 360.684855 
L 723.346702 360.684855 
L 735.216191 350.296417 
L 735.216191 350.296417 
L 747.481331 368.755781 
L 747.481331 368.755781 
L 759.35082 387.329923 
L 759.35082 387.329923 
L 771.615959 398.871473 
L 771.615959 398.871473 
L 783.881098 391.588993 
L 783.881098 391.588993 
L 795.750588 376.476295 
L 795.750588 376.476295 
L 808.015727 387.362873 
L 808.015727 387.362873 
L 819.885217 397.739756 
L 819.885217 397.739756 
L 832.150356 410.065786 
L 832.150356 410.065786 
L 844.415495 414.303085 
L 844.415495 414.303085 
L 855.889335 404.916348 
L 855.889335 404.916348 
L 868.154474 426.815736 
L 868.154474 426.815736 
L 880.023964 427.259764 
L 880.023964 427.259764 
L 892.289103 437.214367 
L 892.289103 437.214367 
L 904.158592 417.853673 
L 904.158592 417.853673 
L 916.423732 416.930326 
L 916.423732 416.930326 
L 928.688871 406.664624 
L 928.688871 406.664624 
L 940.55836 402.042256 
L 940.55836 402.042256 
L 952.823499 400.189667 
L 952.823499 400.189667 
L 964.692989 401.524603 
L 964.692989 401.524603 
L 976.958128 432.470274 
L 976.958128 432.470274 
L 989.223267 433.133667 
L 989.223267 433.133667 
L 1000.301458 458.195455 
L 1000.301458 458.195455 
L 1012.566597 384.815705 
L 1012.566597 384.815705 
L 1024.436086 384.680517 
L 1024.436086 384.680517 
L 1036.701226 375.803096 
L 1036.701226 375.803096 
L 1048.570715 376.210291 
L 1048.570715 376.210291 
L 1060.835854 395.955459 
L 1060.835854 395.955459 
L 1073.100993 396.167284 
L 1073.100993 396.167284 
L 1084.970483 412.978657 
L 1084.970483 412.978657 
L 1097.235622 409.467016 
L 1097.235622 409.467016 
L 1109.105112 404.174901 
L 1109.105112 404.174901 
L 1121.370251 421.671581 
L 1121.370251 421.671581 
L 1133.63539 434.573216 
L 1133.63539 434.573216 
L 1144.71358 416.676431 
L 1144.71358 416.676431 
L 1156.978719 416.650735 
L 1156.978719 416.650735 
L 1168.848209 425.770165 
L 1168.848209 425.770165 
L 1181.113348 440.180134 
L 1181.113348 440.180134 
L 1192.982838 459.736416 
L 1192.982838 459.736416 
L 1205.247977 464.484234 
L 1205.247977 464.484234 
L 1217.513116 472.768937 
L 1217.513116 472.768937 
L 1229.382606 475.258664 
L 1229.382606 475.258664 
L 1241.647745 494.164649 
L 1241.647745 494.164649 
L 1253.517234 485.9951 
L 1253.517234 485.9951 
L 1265.782373 507.44791 
L 1265.782373 507.44791 
L 1278.047513 518.594879 
L 1278.047513 518.594879 
L 1289.125703 527.539599 
L 1289.125703 527.539599 
L 1301.390842 522.40386 
L 1301.390842 522.40386 
L 1313.260332 527.019219 
L 1313.260332 527.019219 
L 1325.525471 542.229059 
L 1325.525471 542.229059 
L 1337.39496 559.602349 
L 1337.39496 559.602349 
L 1349.6601 568.055746 
L 1349.6601 568.055746 
L 1361.925239 577.005874 
L 1361.925239 577.005874 
L 1373.794728 582.335829 
L 1373.794728 582.335829 
" clip-path="url(#pad08293767)" style="fill: none; stroke-dasharray: 5.55,2.4; stroke-dashoffset: 0; stroke: #006e64; stroke-width: 1.5"/>
   </g>
   <g id="line2d_18">
    <path d="M 109.694093 427.696435 
L 121.959232 376.22907 
L 121.959232 376.22907 
L 133.037422 354.929766 
L 133.037422 354.929766 
L 145.302562 353.441671 
L 145.302562 353.441671 
L 157.172051 334.843963 
L 157.172051 334.843963 
L 169.43719 355.291872 
L 169.43719 355.291872 
L 181.30668 338.10834 
L 181.30668 338.10834 
L 193.571819 321.860942 
L 193.571819 321.860942 
L 205.836958 297.454963 
L 205.836958 297.454963 
L 217.706448 264.698711 
L 217.706448 264.698711 
L 229.971587 280.951807 
L 229.971587 280.951807 
L 241.841076 234.560934 
L 241.841076 234.560934 
L 254.106216 245.903006 
L 254.106216 245.903006 
L 266.371355 230.842611 
L 266.371355 230.842611 
L 277.845195 244.506781 
L 277.845195 244.506781 
L 290.110334 224.284723 
L 290.110334 224.284723 
L 301.979823 139.104554 
L 301.979823 139.104554 
L 314.244963 146.516748 
L 314.244963 146.516748 
L 326.114452 148.13545 
L 326.114452 148.13545 
L 338.379591 163.670179 
L 338.379591 163.670179 
L 350.64473 139.834587 
L 350.64473 139.834587 
L 362.51422 127.356834 
L 362.51422 127.356834 
L 374.779359 100.00647 
L 374.779359 100.00647 
L 386.648849 129.509853 
L 386.648849 129.509853 
L 398.913988 142.55679 
L 398.913988 142.55679 
L 411.179127 168.509434 
L 411.179127 168.509434 
L 422.257317 150.996671 
L 422.257317 150.996671 
L 434.522457 148.153572 
L 434.522457 148.153572 
L 446.391946 151.91897 
L 446.391946 151.91897 
L 458.657085 107.280112 
L 458.657085 107.280112 
L 470.526575 142.422225 
L 470.526575 142.422225 
L 482.791714 122.012503 
L 482.791714 122.012503 
L 495.056853 135.514945 
L 495.056853 135.514945 
L 506.926343 205.180816 
L 506.926343 205.180816 
L 519.191482 113.474525 
L 519.191482 113.474525 
L 531.060971 142.776228 
L 531.060971 142.776228 
L 543.326111 194.270797 
L 543.326111 194.270797 
L 555.59125 190.302057 
L 555.59125 190.302057 
L 566.66944 208.034313 
L 566.66944 208.034313 
L 578.934579 301.364597 
L 578.934579 301.364597 
L 590.804069 291.77154 
L 590.804069 291.77154 
L 603.069208 266.213093 
L 603.069208 266.213093 
L 614.938697 284.85145 
L 614.938697 284.85145 
L 627.203837 292.995062 
L 627.203837 292.995062 
L 639.468976 299.167916 
L 639.468976 299.167916 
L 651.338465 290.411244 
L 651.338465 290.411244 
L 663.603605 203.893349 
L 663.603605 203.893349 
L 675.473094 291.26053 
L 675.473094 291.26053 
L 687.738233 286.64137 
L 687.738233 286.64137 
L 700.003372 284.853763 
L 700.003372 284.853763 
L 711.081563 221.360371 
L 711.081563 221.360371 
L 723.346702 244.619765 
L 723.346702 244.619765 
L 735.216191 211.08562 
L 735.216191 211.08562 
L 747.481331 248.069649 
L 747.481331 248.069649 
L 759.35082 320.844404 
L 759.35082 320.844404 
L 771.615959 354.604759 
L 771.615959 354.604759 
L 783.881098 332.926626 
L 783.881098 332.926626 
L 795.750588 384.287938 
L 795.750588 384.287938 
L 808.015727 333.221227 
L 808.015727 333.221227 
L 819.885217 368.110803 
L 819.885217 368.110803 
L 832.150356 411.658732 
L 832.150356 411.658732 
L 844.415495 437.027421 
L 844.415495 437.027421 
L 855.889335 424.355127 
L 855.889335 424.355127 
L 868.154474 408.849151 
L 868.154474 408.849151 
L 880.023964 414.479461 
L 880.023964 414.479461 
L 892.289103 436.441191 
L 892.289103 436.441191 
L 904.158592 412.535655 
L 904.158592 412.535655 
L 916.423732 434.064762 
L 916.423732 434.064762 
L 928.688871 406.454578 
L 928.688871 406.454578 
L 940.55836 403.799599 
L 940.55836 403.799599 
L 952.823499 384.589221 
L 952.823499 384.589221 
L 964.692989 403.001423 
L 964.692989 403.001423 
L 976.958128 380.198968 
L 976.958128 380.198968 
L 989.223267 387.341339 
L 989.223267 387.341339 
L 1000.301458 456.90623 
L 1000.301458 456.90623 
L 1012.566597 355.839751 
L 1012.566597 355.839751 
L 1024.436086 349.766812 
L 1024.436086 349.766812 
L 1036.701226 337.830545 
L 1036.701226 337.830545 
L 1048.570715 314.48754 
L 1048.570715 314.48754 
L 1060.835854 340.853969 
L 1060.835854 340.853969 
L 1073.100993 344.461201 
L 1073.100993 344.461201 
L 1084.970483 356.952476 
L 1084.970483 356.952476 
L 1097.235622 382.860351 
L 1097.235622 382.860351 
L 1109.105112 390.023581 
L 1109.105112 390.023581 
L 1121.370251 426.968203 
L 1121.370251 426.968203 
L 1133.63539 421.531828 
L 1133.63539 421.531828 
L 1144.71358 400.692223 
L 1144.71358 400.692223 
L 1156.978719 352.70872 
L 1156.978719 352.70872 
L 1168.848209 403.325181 
L 1168.848209 403.325181 
L 1181.113348 404.724765 
L 1181.113348 404.724765 
L 1192.982838 442.524181 
L 1192.982838 442.524181 
L 1205.247977 453.686133 
L 1205.247977 453.686133 
L 1217.513116 449.692254 
L 1217.513116 449.692254 
L 1229.382606 450.888703 
L 1229.382606 450.888703 
L 1241.647745 461.131749 
L 1241.647745 461.131749 
L 1253.517234 463.037557 
L 1253.517234 463.037557 
L 1265.782373 501.702256 
L 1265.782373 501.702256 
L 1278.047513 504.809287 
L 1278.047513 504.809287 
L 1289.125703 523.575434 
L 1289.125703 523.575434 
L 1301.390842 503.794993 
L 1301.390842 503.794993 
L 1313.260332 520.725815 
L 1313.260332 520.725815 
L 1325.525471 554.881802 
L 1325.525471 554.881802 
L 1337.39496 571.860654 
L 1337.39496 571.860654 
L 1349.6601 567.085746 
L 1349.6601 567.085746 
L 1361.925239 575.974154 
L 1361.925239 575.974154 
L 1373.794728 583.1651 
L 1373.794728 583.1651 
" clip-path="url(#pad08293767)" style="fill: none; stroke: #734848; stroke-width: 1.5; stroke-linecap: round"/>
   </g>
   <g id="line2d_19">
    <path d="M 109.694093 414.089841 
L 121.959232 355.746194 
L 121.959232 355.746194 
L 133.037422 332.673853 
L 133.037422 332.673853 
L 145.302562 331.670431 
L 145.302562 331.670431 
L 157.172051 311.392706 
L 157.172051 311.392706 
L 169.43719 331.981504 
L 169.43719 331.981504 
L 181.30668 314.05292 
L 181.30668 314.05292 
L 193.571819 295.918259 
L 193.571819 295.918259 
L 205.836958 266.853781 
L 205.836958 266.853781 
L 217.706448 229.38214 
L 217.706448 229.38214 
L 229.971587 251.621723 
L 229.971587 251.621723 
L 241.841076 196.919106 
L 241.841076 196.919106 
L 254.106216 216.915422 
L 254.106216 216.915422 
L 266.371355 197.14324 
L 266.371355 197.14324 
L 277.845195 216.08658 
L 277.845195 216.08658 
L 290.110334 196.97404 
L 290.110334 196.97404 
L 301.979823 100.163584 
L 301.979823 100.163584 
L 314.244963 109.112562 
L 314.244963 109.112562 
L 326.114452 107.555681 
L 326.114452 107.555681 
L 338.379591 129.012629 
L 338.379591 129.012629 
L 350.64473 104.881782 
L 350.64473 104.881782 
L 362.51422 80.793377 
L 362.51422 80.793377 
L 374.779359 54.703982 
L 374.779359 54.703982 
L 386.648849 89.931407 
L 386.648849 89.931407 
L 398.913988 100.386294 
L 398.913988 100.386294 
L 411.179127 134.146252 
L 411.179127 134.146252 
L 422.257317 112.69623 
L 422.257317 112.69623 
L 434.522457 107.505291 
L 434.522457 107.505291 
L 446.391946 111.277832 
L 446.391946 111.277832 
L 458.657085 62.850691 
L 458.657085 62.850691 
L 470.526575 100.62985 
L 470.526575 100.62985 
L 482.791714 80.795734 
L 482.791714 80.795734 
L 495.056853 93.603162 
L 495.056853 93.603162 
L 506.926343 175.339319 
L 506.926343 175.339319 
L 519.191482 67.131825 
L 519.191482 67.131825 
L 531.060971 99.691518 
L 531.060971 99.691518 
L 543.326111 153.814149 
L 543.326111 153.814149 
L 555.59125 151.66732 
L 555.59125 151.66732 
L 566.66944 174.073718 
L 566.66944 174.073718 
L 578.934579 274.55785 
L 578.934579 274.55785 
L 590.804069 264.790462 
L 590.804069 264.790462 
L 603.069208 238.097279 
L 603.069208 238.097279 
L 614.938697 258.753832 
L 614.938697 258.753832 
L 627.203837 264.738512 
L 627.203837 264.738512 
L 639.468976 270.288356 
L 639.468976 270.288356 
L 651.338465 263.617797 
L 651.338465 263.617797 
L 663.603605 169.403616 
L 663.603605 169.403616 
L 675.473094 265.230848 
L 675.473094 265.230848 
L 687.738233 260.954072 
L 687.738233 260.954072 
L 700.003372 255.050546 
L 700.003372 255.050546 
L 711.081563 189.287118 
L 711.081563 189.287118 
L 723.346702 210.464884 
L 723.346702 210.464884 
L 735.216191 175.787991 
L 735.216191 175.787991 
L 747.481331 213.606144 
L 747.481331 213.606144 
L 759.35082 290.98815 
L 759.35082 290.98815 
L 771.615959 330.096445 
L 771.615959 330.096445 
L 783.881098 306.821685 
L 783.881098 306.821685 
L 795.750588 360.261314 
L 795.750588 360.261314 
L 808.015727 309.841441 
L 808.015727 309.841441 
L 819.885217 346.946515 
L 819.885217 346.946515 
L 832.150356 392.77351 
L 832.150356 392.77351 
L 844.415495 419.968427 
L 844.415495 419.968427 
L 855.889335 408.869803 
L 855.889335 408.869803 
L 868.154474 393.442702 
L 868.154474 393.442702 
L 880.023964 397.76788 
L 880.023964 397.76788 
L 892.289103 421.672303 
L 892.289103 421.672303 
L 904.158592 397.27229 
L 904.158592 397.27229 
L 916.423732 418.563597 
L 916.423732 418.563597 
L 928.688871 388.954104 
L 928.688871 388.954104 
L 940.55836 384.858248 
L 940.55836 384.858248 
L 952.823499 363.099848 
L 952.823499 363.099848 
L 964.692989 380.791536 
L 964.692989 380.791536 
L 976.958128 360.346348 
L 976.958128 360.346348 
L 989.223267 366.772652 
L 989.223267 366.772652 
L 1000.301458 444.844828 
L 1000.301458 444.844828 
L 1012.566597 340.734624 
L 1012.566597 340.734624 
L 1024.436086 333.695882 
L 1024.436086 333.695882 
L 1036.701226 317.869341 
L 1036.701226 317.869341 
L 1048.570715 290.215126 
L 1048.570715 290.215126 
L 1060.835854 319.237039 
L 1060.835854 319.237039 
L 1073.100993 324.251187 
L 1073.100993 324.251187 
L 1084.970483 338.900089 
L 1084.970483 338.900089 
L 1097.235622 368.028114 
L 1097.235622 368.028114 
L 1109.105112 377.676501 
L 1109.105112 377.676501 
L 1121.370251 420.01415 
L 1121.370251 420.01415 
L 1133.63539 411.771816 
L 1133.63539 411.771816 
L 1144.71358 387.320835 
L 1144.71358 387.320835 
L 1156.978719 337.27032 
L 1156.978719 337.27032 
L 1168.848209 386.703883 
L 1168.848209 386.703883 
L 1181.113348 390.579492 
L 1181.113348 390.579492 
L 1192.982838 431.965145 
L 1192.982838 431.965145 
L 1205.247977 443.394211 
L 1205.247977 443.394211 
L 1217.513116 440.875469 
L 1217.513116 440.875469 
L 1229.382606 442.135361 
L 1229.382606 442.135361 
L 1241.647745 448.403114 
L 1241.647745 448.403114 
L 1253.517234 451.086158 
L 1253.517234 451.086158 
L 1265.782373 494.245967 
L 1265.782373 494.245967 
L 1278.047513 499.494134 
L 1278.047513 499.494134 
L 1289.125703 517.637315 
L 1289.125703 517.637315 
L 1301.390842 497.041727 
L 1301.390842 497.041727 
L 1313.260332 514.422251 
L 1313.260332 514.422251 
L 1325.525471 551.956155 
L 1325.525471 551.956155 
L 1337.39496 571.025968 
L 1337.39496 571.025968 
L 1349.6601 565.774251 
L 1349.6601 565.774251 
L 1361.925239 574.752674 
L 1361.925239 574.752674 
L 1373.794728 584.862209 
L 1373.794728 584.862209 
" clip-path="url(#pad08293767)" style="fill: none; stroke: #004e4a; stroke-width: 1.5; stroke-linecap: round"/>
   </g>
   <g id="line2d_20">
    <path d="M 109.694093 397.076406 
L 121.959232 336.334289 
L 121.959232 336.334289 
L 133.037422 314.616923 
L 133.037422 314.616923 
L 145.302562 312.632271 
L 145.302562 312.632271 
L 157.172051 286.092977 
L 157.172051 286.092977 
L 169.43719 322.539212 
L 169.43719 322.539212 
L 181.30668 292.438956 
L 181.30668 292.438956 
L 193.571819 287.848532 
L 193.571819 287.848532 
L 205.836958 268.104727 
L 205.836958 268.104727 
L 217.706448 243.094107 
L 217.706448 243.094107 
L 229.971587 251.327635 
L 229.971587 251.327635 
L 241.841076 219.038215 
L 241.841076 219.038215 
L 254.106216 215.794443 
L 254.106216 215.794443 
L 266.371355 209.924619 
L 266.371355 209.924619 
L 277.845195 218.339869 
L 277.845195 218.339869 
L 290.110334 186.073837 
L 290.110334 186.073837 
L 301.979823 107.068558 
L 301.979823 107.068558 
L 314.244963 101.82331 
L 314.244963 101.82331 
L 326.114452 114.193862 
L 326.114452 114.193862 
L 338.379591 119.826177 
L 338.379591 119.826177 
L 350.64473 83.496083 
L 350.64473 83.496083 
L 362.51422 104.220462 
L 362.51422 104.220462 
L 374.779359 52.278381 
L 374.779359 52.278381 
L 386.648849 67.69885 
L 386.648849 67.69885 
L 398.913988 99.117981 
L 398.913988 99.117981 
L 411.179127 114.940501 
L 411.179127 114.940501 
L 422.257317 100.414123 
L 422.257317 100.414123 
L 434.522457 103.9853 
L 434.522457 103.9853 
L 446.391946 108.653507 
L 446.391946 108.653507 
L 458.657085 64.404763 
L 458.657085 64.404763 
L 470.526575 88.717894 
L 470.526575 88.717894 
L 482.791714 73.924882 
L 482.791714 73.924882 
L 495.056853 81.315725 
L 495.056853 81.315725 
L 506.926343 168.237333 
L 506.926343 168.237333 
L 519.191482 75.060354 
L 519.191482 75.060354 
L 531.060971 105.675489 
L 531.060971 105.675489 
L 543.326111 159.11803 
L 543.326111 159.11803 
L 555.59125 151.702167 
L 555.59125 151.702167 
L 566.66944 163.369081 
L 566.66944 163.369081 
L 578.934579 282.925443 
L 578.934579 282.925443 
L 590.804069 253.523502 
L 590.804069 253.523502 
L 603.069208 243.561217 
L 603.069208 243.561217 
L 614.938697 254.915999 
L 614.938697 254.915999 
L 627.203837 288.920855 
L 627.203837 288.920855 
L 639.468976 292.996435 
L 639.468976 292.996435 
L 651.338465 269.861621 
L 651.338465 269.861621 
L 663.603605 186.238918 
L 663.603605 186.238918 
L 675.473094 284.210933 
L 675.473094 284.210933 
L 687.738233 265.60287 
L 687.738233 265.60287 
L 700.003372 289.141823 
L 700.003372 289.141823 
L 711.081563 189.829384 
L 711.081563 189.829384 
L 723.346702 245.43304 
L 723.346702 245.43304 
L 735.216191 196.188371 
L 735.216191 196.188371 
L 747.481331 239.558195 
L 747.481331 239.558195 
L 759.35082 330.138703 
L 759.35082 330.138703 
L 771.615959 365.54729 
L 771.615959 365.54729 
L 783.881098 327.0899 
L 783.881098 327.0899 
L 795.750588 402.940156 
L 795.750588 402.940156 
L 808.015727 330.800287 
L 808.015727 330.800287 
L 819.885217 363.687076 
L 819.885217 363.687076 
L 832.150356 415.704231 
L 832.150356 415.704231 
L 844.415495 456.051714 
L 844.415495 456.051714 
L 855.889335 426.564576 
L 855.889335 426.564576 
L 868.154474 412.121771 
L 868.154474 412.121771 
L 880.023964 433.495839 
L 880.023964 433.495839 
L 892.289103 444.724368 
L 892.289103 444.724368 
L 904.158592 411.125197 
L 904.158592 411.125197 
L 916.423732 456.28663 
L 916.423732 456.28663 
L 928.688871 413.875335 
L 928.688871 413.875335 
L 940.55836 419.787332 
L 940.55836 419.787332 
L 952.823499 389.660503 
L 952.823499 389.660503 
L 964.692989 414.740345 
L 964.692989 414.740345 
L 976.958128 373.06435 
L 976.958128 373.06435 
L 989.223267 392.481525 
L 989.223267 392.481525 
L 1000.301458 479.826002 
L 1000.301458 479.826002 
L 1012.566597 359.187316 
L 1012.566597 359.187316 
L 1024.436086 348.681265 
L 1024.436086 348.681265 
L 1036.701226 344.002303 
L 1036.701226 344.002303 
L 1048.570715 326.595308 
L 1048.570715 326.595308 
L 1060.835854 337.764208 
L 1060.835854 337.764208 
L 1073.100993 341.063495 
L 1073.100993 341.063495 
L 1084.970483 350.294198 
L 1084.970483 350.294198 
L 1097.235622 389.843733 
L 1097.235622 389.843733 
L 1109.105112 379.996829 
L 1109.105112 379.996829 
L 1121.370251 415.761782 
L 1121.370251 415.761782 
L 1133.63539 414.856925 
L 1133.63539 414.856925 
L 1144.71358 400.189518 
L 1144.71358 400.189518 
L 1156.978719 338.323852 
L 1156.978719 338.323852 
L 1168.848209 409.170857 
L 1168.848209 409.170857 
L 1181.113348 411.09385 
L 1181.113348 411.09385 
L 1192.982838 455.631694 
L 1192.982838 455.631694 
L 1205.247977 448.345562 
L 1205.247977 448.345562 
L 1217.513116 440.189938 
L 1217.513116 440.189938 
L 1229.382606 456.939376 
L 1229.382606 456.939376 
L 1241.647745 453.120332 
L 1241.647745 453.120332 
L 1253.517234 451.006227 
L 1253.517234 451.006227 
L 1265.782373 504.383065 
L 1265.782373 504.383065 
L 1278.047513 500.511401 
L 1278.047513 500.511401 
L 1289.125703 522.095139 
L 1289.125703 522.095139 
L 1301.390842 494.719314 
L 1301.390842 494.719314 
L 1313.260332 512.032301 
L 1313.260332 512.032301 
L 1325.525471 552.632825 
L 1325.525471 552.632825 
L 1337.39496 564.353792 
L 1337.39496 564.353792 
L 1349.6601 555.32486 
L 1349.6601 555.32486 
L 1361.925239 572.68454 
L 1373.794728 585.753103 
L 1373.794728 585.753103 
" clip-path="url(#pad08293767)" style="fill: none; stroke: #c17150; stroke-width: 1.5; stroke-linecap: round"/>
   </g>
   <g id="patch_3">
    <path d="M 46.489061 612.426839 
L 46.489061 25.604645 
" style="fill: none; stroke: #808080; stroke-width: 0.8; stroke-linejoin: miter; stroke-linecap: square"/>
   </g>
   <g id="patch_4">
    <path d="M 46.489061 612.426839 
L 1436.99976 612.426839 
" style="fill: none; stroke: #808080; stroke-width: 0.8; stroke-linejoin: miter; stroke-linecap: square"/>
   </g>
   <g id="text_19">
    <!-- Full Sample -->
    <g style="fill: #262626" transform="translate(685.026705 19.604645) scale(0.24 -0.24)">
     <defs>
      <path id="CMR17-46" d="M 3482 4325 
L 326 4325 
L 326 4160 
C 768 4160 838 4160 838 3874 
L 838 446 
C 838 160 768 160 326 160 
L 326 0 
C 512 0 870 0 1069 0 
C 1331 0 1638 0 1901 0 
L 1901 160 
L 1760 160 
C 1274 160 1261 223 1261 452 
L 1261 2075 
L 1837 2075 
C 2432 2075 2490 1865 2490 1332 
L 2605 1332 
L 2605 2987 
L 2490 2987 
C 2490 2450 2432 2240 1837 2240 
L 1261 2240 
L 1261 3911 
C 1261 4128 1274 4160 1530 4160 
L 2355 4160 
C 3322 4160 3430 3765 3520 2916 
L 3635 2916 
L 3482 4325 
z
" transform="scale(0.015625)"/>
      <path id="CMR17-53" d="M 2803 4290 
C 2803 4404 2797 4411 2758 4411 
C 2720 4411 2707 4385 2682 4328 
L 2490 3907 
C 2246 4257 1875 4416 1472 4416 
C 819 4416 294 3901 294 3253 
C 294 3056 339 2776 557 2510 
C 794 2218 1018 2167 1530 2033 
C 1722 1982 2042 1899 2106 1874 
C 2470 1722 2662 1341 2662 985 
C 2662 527 2336 38 1779 38 
C 1094 38 454 419 410 1311 
C 403 1413 397 1419 352 1419 
C 301 1419 294 1413 294 1285 
L 294 -1 
C 294 -115 301 -122 339 -122 
C 384 -122 397 -90 486 108 
C 493 127 493 140 614 381 
C 934 -39 1472 -128 1779 -128 
C 2477 -128 2970 451 2970 1124 
C 2970 1454 2848 1708 2778 1823 
C 2509 2230 2221 2306 1914 2382 
C 1869 2402 1856 2402 1498 2490 
C 1152 2579 1005 2624 845 2796 
C 666 2992 602 3196 602 3399 
C 602 3812 934 4263 1478 4263 
C 2157 4263 2579 3786 2675 2993 
C 2694 2878 2701 2872 2746 2872 
C 2803 2872 2803 2891 2803 2999 
L 2803 4290 
z
" transform="scale(0.015625)"/>
      <path id="CMR17-6d" d="M 4326 1933 
C 4326 2252 4269 2790 3507 2790 
C 3072 2790 2771 2496 2656 2151 
L 2650 2151 
C 2573 2676 2195 2790 1837 2790 
C 1331 2790 1069 2400 973 2144 
L 966 2144 
L 966 2790 
L 211 2720 
L 211 2554 
C 589 2554 646 2515 646 2208 
L 646 428 
C 646 184 621 153 211 153 
L 211 -13 
C 365 0 646 0 813 0 
C 979 0 1267 0 1421 -13 
L 1421 153 
C 1011 153 986 178 986 428 
L 986 1658 
C 986 2247 1344 2688 1792 2688 
C 2266 2688 2317 2266 2317 1958 
L 2317 428 
C 2317 184 2291 153 1882 153 
L 1882 -13 
C 2035 0 2317 0 2483 0 
C 2650 0 2938 0 3091 -13 
L 3091 153 
C 2682 153 2656 178 2656 428 
L 2656 1658 
C 2656 2247 3014 2688 3462 2688 
C 3936 2688 3987 2266 3987 1958 
L 3987 428 
C 3987 184 3962 153 3552 153 
L 3552 -13 
C 3706 0 3987 0 4154 0 
C 4320 0 4608 0 4762 -13 
L 4762 153 
C 4352 153 4326 178 4326 428 
L 4326 1933 
z
" transform="scale(0.015625)"/>
      <path id="CMR17-70" d="M 1408 -1063 
C 998 -1063 973 -1037 973 -789 
L 973 402 
C 1158 134 1427 -38 1766 -38 
C 2406 -38 3053 523 3053 1388 
C 3053 2191 2496 2802 1837 2802 
C 1453 2802 1139 2592 960 2338 
L 960 2802 
L 198 2732 
L 198 2567 
C 576 2567 634 2528 634 2223 
L 634 -789 
C 634 -1031 608 -1063 198 -1063 
L 198 -1228 
C 352 -1216 634 -1216 800 -1216 
C 966 -1216 1254 -1216 1408 -1228 
L 1408 -1063 
z
M 973 2012 
C 973 2102 973 2235 1222 2471 
C 1254 2497 1472 2688 1792 2688 
C 2259 2688 2643 2108 2643 1382 
C 2643 656 2234 64 1728 64 
C 1498 64 1248 172 1056 472 
C 973 612 973 650 973 752 
L 973 2012 
z
" transform="scale(0.015625)"/>
     </defs>
     <use xlink:href="#CMR17-46" transform="scale(0.996264)"/>
     <use xlink:href="#CMR17-75" transform="translate(52.176591 0) scale(0.996264)"/>
     <use xlink:href="#CMR17-6c" transform="translate(103.071961 0) scale(0.996264)"/>
     <use xlink:href="#CMR17-6c" transform="translate(127.943019 0) scale(0.996264)"/>
     <use xlink:href="#CMR17-53" transform="translate(182.890044 0) scale(0.996264)"/>
     <use xlink:href="#CMR17-61" transform="translate(233.785414 0) scale(0.996264)"/>
     <use xlink:href="#CMR17-6d" transform="translate(279.475891 0) scale(0.996264)"/>
     <use xlink:href="#CMR17-70" transform="translate(356.395481 0) scale(0.996264)"/>
     <use xlink:href="#CMR17-6c" transform="translate(407.290851 0) scale(0.996264)"/>
     <use xlink:href="#CMR17-65" transform="translate(432.161909 0) scale(0.996264)"/>
    </g>
   </g>
   <g id="legend_1">
    <g id="patch_5">
     <path d="M 266.911406 716.999724 
L 1216.577415 716.999724 
Q 1220.577415 716.999724 1220.577415 712.999724 
L 1220.577415 685.109059 
Q 1220.577415 681.109059 1216.577415 681.109059 
L 266.911406 681.109059 
Q 262.911406 681.109059 262.911406 685.109059 
L 262.911406 712.999724 
Q 262.911406 716.999724 266.911406 716.999724 
z
" style="fill: #ffffff; opacity: 0.8"/>
    </g>
    <g id="line2d_21">
     <path d="M 270.911406 697.035081 
L 290.911406 697.035081 
L 310.911406 697.035081 
" style="fill: none; stroke-dasharray: 5.55,2.4; stroke-dashoffset: 0; stroke: #006e64; stroke-width: 1.5"/>
    </g>
    <g id="text_20">
     <!-- Actual -->
     <g style="fill: #262626" transform="translate(326.911406 704.035081) scale(0.2 -0.2)">
      <defs>
       <path id="CMR17-41" d="M 2323 4378 
C 2291 4461 2278 4480 2214 4480 
C 2150 4480 2138 4461 2106 4378 
L 749 566 
C 627 223 371 153 147 153 
L 147 -13 
C 262 0 518 0 640 0 
C 800 0 1056 0 1210 -13 
L 1210 153 
C 909 153 864 361 864 439 
C 864 497 877 530 890 569 
L 1229 1536 
L 2906 1536 
L 3290 442 
C 3322 365 3322 352 3322 327 
C 3322 153 3046 153 2925 153 
L 2925 0 
C 3110 0 3443 0 3642 0 
C 3808 0 4128 0 4282 -13 
L 4282 153 
C 3942 153 3827 153 3744 387 
L 2323 4378 
z
M 2067 3893 
L 2848 1702 
L 1286 1702 
L 2067 3893 
z
" transform="scale(0.015625)"/>
       <path id="CMR17-63" d="M 2234 2240 
C 2112 2240 1933 2240 1933 2017 
C 1933 1838 2080 1787 2163 1787 
C 2208 1787 2394 1807 2394 2024 
C 2394 2467 1958 2803 1466 2803 
C 787 2803 211 2178 211 1363 
C 211 516 813 -64 1466 -64 
C 2259 -64 2458 677 2458 748 
C 2458 774 2451 793 2406 793 
C 2362 793 2355 787 2330 703 
C 2163 180 1798 51 1523 51 
C 1114 51 621 427 621 1369 
C 621 2338 1094 2688 1472 2688 
C 1722 2688 2093 2573 2234 2240 
z
" transform="scale(0.015625)"/>
      </defs>
      <use xlink:href="#CMR17-41" transform="scale(0.996264)"/>
      <use xlink:href="#CMR17-63" transform="translate(69.07243 0) scale(0.996264)"/>
      <use xlink:href="#CMR17-74" transform="translate(109.55809 0) scale(0.996264)"/>
      <use xlink:href="#CMR17-75" transform="translate(144.838858 0) scale(0.996264)"/>
      <use xlink:href="#CMR17-61" transform="translate(195.734228 0) scale(0.996264)"/>
      <use xlink:href="#CMR17-6c" transform="translate(241.424705 0) scale(0.996264)"/>
     </g>
    </g>
    <g id="line2d_22">
     <path d="M 420.170531 697.035081 
L 440.170531 697.035081 
L 460.170531 697.035081 
" style="fill: none; stroke: #734848; stroke-width: 1.5; stroke-linecap: round"/>
    </g>
    <g id="text_21">
     <!-- Predicted (Average) -->
     <g style="fill: #262626" transform="translate(476.170531 704.035081) scale(0.2 -0.2)">
      <defs>
       <path id="CMR17-50" d="M 1267 2042 
L 2291 2042 
C 3117 2042 3718 2578 3718 3184 
C 3718 3791 3130 4352 2291 4352 
L 333 4352 
L 333 4186 
C 774 4186 845 4186 845 3899 
L 845 446 
C 845 160 774 160 333 160 
L 333 0 
C 518 0 858 0 1056 0 
C 1254 0 1594 0 1779 0 
L 1779 160 
C 1338 160 1267 160 1267 446 
L 1267 2042 
z
M 1254 2176 
L 1254 3938 
C 1254 4155 1267 4186 1523 4186 
L 2170 4186 
C 2995 4186 3232 3714 3232 3184 
C 3232 2604 2950 2176 2170 2176 
L 1254 2176 
z
" transform="scale(0.015625)"/>
       <path id="CMR17-64" d="M 1869 4326 
L 1869 4160 
C 2246 4160 2304 4122 2304 3820 
L 2304 2345 
C 2278 2377 2016 2790 1498 2790 
C 845 2790 211 2208 211 1364 
C 211 525 806 -64 1434 -64 
C 1978 -64 2259 337 2291 380 
L 2291 -63 
L 3066 -63 
L 3066 128 
C 2688 128 2630 166 2630 473 
L 2630 4396 
L 1869 4326 
z
M 2291 755 
C 2291 563 2176 390 2029 262 
C 1811 70 1594 38 1472 38 
C 1286 38 621 134 621 1356 
C 621 2612 1363 2688 1530 2688 
C 1824 2688 2061 2522 2208 2291 
C 2291 2157 2291 2138 2291 2023 
L 2291 755 
z
" transform="scale(0.015625)"/>
       <path id="CMR17-28" d="M 1958 -1561 
C 1958 -1555 1958 -1542 1939 -1523 
C 1645 -1224 858 -407 858 1581 
C 858 3569 1632 4379 1946 4697 
C 1946 4704 1958 4717 1958 4736 
C 1958 4755 1939 4768 1914 4768 
C 1843 4768 1299 4296 986 3594 
C 666 2887 576 2199 576 1588 
C 576 1128 621 351 1005 -471 
C 1312 -1135 1837 -1600 1914 -1600 
C 1946 -1600 1958 -1587 1958 -1561 
z
" transform="scale(0.015625)"/>
       <path id="CMR17-76" d="M 2502 2163 
C 2560 2304 2662 2560 3034 2560 
L 3034 2726 
C 2912 2726 2752 2726 2630 2726 
C 2496 2726 2285 2726 2157 2732 
L 2157 2566 
C 2317 2553 2406 2477 2406 2311 
C 2406 2253 2406 2240 2368 2151 
L 1664 377 
L 902 2286 
C 864 2369 864 2381 864 2407 
C 864 2560 1075 2560 1171 2560 
L 1171 2732 
C 1018 2726 736 2726 576 2726 
C 403 2726 205 2726 64 2732 
L 64 2560 
C 307 2560 442 2560 518 2362 
L 1446 44 
C 1485 -51 1491 -64 1549 -64 
C 1606 -64 1613 -51 1651 44 
L 2502 2163 
z
" transform="scale(0.015625)"/>
       <path id="CMR17-67" d="M 710 1164 
C 832 1068 1043 960 1299 960 
C 1805 960 2240 1357 2240 1888 
C 2240 2054 2189 2310 1997 2509 
C 2176 2692 2438 2752 2586 2752 
C 2611 2752 2650 2752 2682 2734 
C 2656 2728 2598 2703 2598 2605 
C 2598 2527 2656 2471 2739 2471 
C 2835 2471 2886 2533 2886 2614 
C 2886 2731 2790 2854 2586 2854 
C 2330 2854 2106 2738 1926 2580 
C 1734 2753 1504 2816 1299 2816 
C 794 2816 358 2419 358 1888 
C 358 1522 570 1292 634 1228 
C 442 1004 442 743 442 711 
C 442 545 506 302 723 168 
C 390 85 128 -169 128 -486 
C 128 -943 736 -1280 1466 -1280 
C 2170 -1280 2803 -956 2803 -479 
C 2803 384 1856 384 1363 384 
C 1216 384 954 384 922 391 
C 723 423 589 602 589 826 
C 589 883 589 1024 710 1164 
z
M 1299 1068 
C 736 1068 736 1760 736 1889 
C 736 2016 736 2708 1299 2708 
C 1862 2708 1862 2016 1862 1889 
C 1862 1760 1862 1068 1299 1068 
z
M 1466 -1171 
C 826 -1171 384 -835 384 -486 
C 384 -289 493 -105 634 -4 
C 794 104 858 104 1293 104 
C 1818 104 2547 104 2547 -486 
C 2547 -835 2106 -1171 1466 -1171 
z
" transform="scale(0.015625)"/>
       <path id="CMR17-29" d="M 1683 1581 
C 1683 2040 1638 2817 1254 3639 
C 947 4303 422 4768 346 4768 
C 326 4768 301 4761 301 4729 
C 301 4717 307 4710 314 4697 
C 621 4378 1402 3568 1402 1584 
C 1402 -407 627 -1217 314 -1537 
C 307 -1549 301 -1556 301 -1568 
C 301 -1600 326 -1600 346 -1600 
C 416 -1600 960 -1128 1274 -426 
C 1594 281 1683 969 1683 1581 
z
" transform="scale(0.015625)"/>
      </defs>
      <use xlink:href="#CMR17-50" transform="scale(0.996264)"/>
      <use xlink:href="#CMR17-72" transform="translate(62.586301 0) scale(0.996264)"/>
      <use xlink:href="#CMR17-65" transform="translate(97.867068 0) scale(0.996264)"/>
      <use xlink:href="#CMR17-64" transform="translate(138.352729 0) scale(0.996264)"/>
      <use xlink:href="#CMR17-69" transform="translate(189.248099 0) scale(0.996264)"/>
      <use xlink:href="#CMR17-63" transform="translate(214.119157 0) scale(0.996264)"/>
      <use xlink:href="#CMR17-74" transform="translate(254.604818 0) scale(0.996264)"/>
      <use xlink:href="#CMR17-65" transform="translate(289.885585 0) scale(0.996264)"/>
      <use xlink:href="#CMR17-64" transform="translate(330.371246 0) scale(0.996264)"/>
      <use xlink:href="#CMR17-28" transform="translate(411.342582 0) scale(0.996264)"/>
      <use xlink:href="#CMR17-41" transform="translate(446.62335 0) scale(0.996264)"/>
      <use xlink:href="#CMR17-76" transform="translate(515.695779 0) scale(0.996264)"/>
      <use xlink:href="#CMR17-65" transform="translate(561.386241 0) scale(0.996264)"/>
      <use xlink:href="#CMR17-72" transform="translate(601.871902 0) scale(0.996264)"/>
      <use xlink:href="#CMR17-61" transform="translate(637.15267 0) scale(0.996264)"/>
      <use xlink:href="#CMR17-67" transform="translate(682.843147 0) scale(0.996264)"/>
      <use xlink:href="#CMR17-65" transform="translate(728.533624 0) scale(0.996264)"/>
      <use xlink:href="#CMR17-29" transform="translate(769.019284 0) scale(0.996264)"/>
     </g>
    </g>
    <g id="line2d_23">
     <path d="M 677.030441 697.035081 
L 697.030441 697.035081 
L 717.030441 697.035081 
" style="fill: none; stroke: #004e4a; stroke-width: 1.5; stroke-linecap: round"/>
    </g>
    <g id="text_22">
     <!-- Predicted (Bates and Granger) -->
     <g style="fill: #262626" transform="translate(733.030441 704.035081) scale(0.2 -0.2)">
      <defs>
       <path id="CMR17-42" d="M 333 4352 
L 333 4186 
C 774 4186 845 4186 845 3900 
L 845 452 
C 845 166 774 166 333 166 
L 333 0 
L 2534 0 
C 3354 0 3885 583 3885 1164 
C 3885 1741 3360 2233 2675 2233 
C 3290 2356 3718 2771 3718 3264 
C 3718 3802 3194 4352 2368 4352 
L 333 4352 
z
M 1248 2304 
L 1248 3937 
C 1248 4155 1261 4186 1517 4186 
L 2336 4186 
C 2970 4186 3251 3674 3251 3277 
C 3251 2791 2861 2304 2170 2304 
L 1248 2304 
z
M 1517 166 
C 1261 166 1248 197 1248 413 
L 1248 2202 
L 2432 2202 
C 3091 2202 3411 1625 3411 1162 
C 3411 699 3046 166 2349 166 
L 1517 166 
z
" transform="scale(0.015625)"/>
       <path id="CMR17-73" d="M 1978 2697 
C 1978 2813 1971 2819 1933 2819 
C 1907 2819 1901 2813 1824 2717 
C 1805 2691 1747 2626 1728 2601 
C 1523 2819 1235 2819 1126 2819 
C 416 2819 160 2447 160 2076 
C 160 1498 813 1365 998 1325 
C 1402 1243 1542 1217 1677 1101 
C 1760 1025 1901 884 1901 654 
C 1901 384 1747 38 1158 38 
C 602 38 403 460 288 1021 
C 269 1110 269 1117 218 1117 
C 166 1117 160 1110 160 983 
L 160 63 
C 160 -51 166 -58 205 -58 
C 237 -58 243 -51 275 0 
C 314 57 410 211 448 276 
C 576 103 800 -64 1158 -64 
C 1792 -64 2131 283 2131 784 
C 2131 1112 1958 1285 1875 1362 
C 1683 1561 1459 1606 1190 1657 
C 838 1735 390 1825 390 2217 
C 390 2383 480 2737 1126 2737 
C 1811 2737 1850 2094 1862 1888 
C 1869 1856 1901 1849 1920 1849 
C 1978 1849 1978 1869 1978 1978 
L 1978 2697 
z
" transform="scale(0.015625)"/>
       <path id="CMR17-47" d="M 3974 1233 
C 3974 1473 3994 1505 4390 1505 
L 4390 1670 
C 4237 1664 3891 1664 3718 1664 
C 3539 1664 3040 1664 2797 1664 
L 2797 1505 
L 2989 1505 
C 3539 1505 3552 1434 3552 1201 
L 3552 774 
C 3552 63 2720 63 2522 63 
C 1862 63 781 511 781 2160 
C 781 3808 1843 4250 2464 4250 
C 3187 4250 3712 3626 3834 2741 
C 3846 2664 3846 2651 3904 2651 
C 3974 2651 3974 2664 3974 2779 
L 3974 4288 
C 3974 4402 3968 4409 3930 4409 
C 3904 4409 3898 4402 3853 4326 
L 3571 3791 
C 3258 4187 2874 4416 2381 4416 
C 1286 4416 294 3456 294 2148 
C 294 845 1267 -128 2394 -128 
C 2912 -128 3418 56 3616 417 
C 3725 158 3904 -20 3936 -20 
C 3968 -20 3974 -13 3974 100 
L 3974 1233 
z
" transform="scale(0.015625)"/>
      </defs>
      <use xlink:href="#CMR17-50" transform="scale(0.996264)"/>
      <use xlink:href="#CMR17-72" transform="translate(62.586301 0) scale(0.996264)"/>
      <use xlink:href="#CMR17-65" transform="translate(97.867068 0) scale(0.996264)"/>
      <use xlink:href="#CMR17-64" transform="translate(138.352729 0) scale(0.996264)"/>
      <use xlink:href="#CMR17-69" transform="translate(189.248099 0) scale(0.996264)"/>
      <use xlink:href="#CMR17-63" transform="translate(214.119157 0) scale(0.996264)"/>
      <use xlink:href="#CMR17-74" transform="translate(254.604818 0) scale(0.996264)"/>
      <use xlink:href="#CMR17-65" transform="translate(289.885585 0) scale(0.996264)"/>
      <use xlink:href="#CMR17-64" transform="translate(330.371246 0) scale(0.996264)"/>
      <use xlink:href="#CMR17-28" transform="translate(411.342582 0) scale(0.996264)"/>
      <use xlink:href="#CMR17-42" transform="translate(446.62335 0) scale(0.996264)"/>
      <use xlink:href="#CMR17-61" transform="translate(511.812104 0) scale(0.996264)"/>
      <use xlink:href="#CMR17-74" transform="translate(557.502581 0) scale(0.996264)"/>
      <use xlink:href="#CMR17-65" transform="translate(592.783349 0) scale(0.996264)"/>
      <use xlink:href="#CMR17-73" transform="translate(633.26901 0) scale(0.996264)"/>
      <use xlink:href="#CMR17-61" transform="translate(699.146314 0) scale(0.996264)"/>
      <use xlink:href="#CMR17-6e" transform="translate(744.836791 0) scale(0.996264)"/>
      <use xlink:href="#CMR17-64" transform="translate(795.73216 0) scale(0.996264)"/>
      <use xlink:href="#CMR17-47" transform="translate(876.703497 0) scale(0.996264)"/>
      <use xlink:href="#CMR17-72" transform="translate(949.058842 0) scale(0.996264)"/>
      <use xlink:href="#CMR17-61" transform="translate(984.33961 0) scale(0.996264)"/>
      <use xlink:href="#CMR17-6e" transform="translate(1030.030087 0) scale(0.996264)"/>
      <use xlink:href="#CMR17-67" transform="translate(1080.925457 0) scale(0.996264)"/>
      <use xlink:href="#CMR17-65" transform="translate(1126.615934 0) scale(0.996264)"/>
      <use xlink:href="#CMR17-72" transform="translate(1167.101595 0) scale(0.996264)"/>
      <use xlink:href="#CMR17-29" transform="translate(1202.382363 0) scale(0.996264)"/>
     </g>
    </g>
    <g id="line2d_24">
     <path d="M 1020.562949 697.035081 
L 1040.562949 697.035081 
L 1060.562949 697.035081 
" style="fill: none; stroke: #c17150; stroke-width: 1.5; stroke-linecap: round"/>
    </g>
    <g id="text_23">
     <!-- Predicted (MSE) -->
     <g style="fill: #262626" transform="translate(1076.562949 704.035081) scale(0.2 -0.2)">
      <defs>
       <path id="CMR17-4d" d="M 1338 4224 
C 1299 4320 1293 4320 1158 4320 
L 339 4320 
L 339 4160 
C 781 4160 851 4160 851 3875 
L 851 610 
C 851 451 851 153 339 153 
L 339 -13 
C 486 0 755 0 915 0 
C 1075 0 1344 0 1491 -13 
L 1491 153 
C 979 153 979 451 979 610 
L 979 4135 
L 986 4135 
L 2490 89 
C 2515 25 2528 -13 2579 -13 
C 2630 -13 2643 25 2669 89 
L 4186 4166 
L 4192 4166 
L 4192 438 
C 4192 153 4122 153 3680 153 
L 3680 -13 
C 3853 0 4198 0 4384 0 
C 4570 0 4922 0 5094 -13 
L 5094 153 
C 4653 153 4582 153 4582 438 
L 4582 3875 
C 4582 4160 4653 4160 5094 4160 
L 5094 4320 
L 4282 4320 
C 4147 4320 4141 4314 4102 4218 
L 2720 502 
L 1338 4224 
z
" transform="scale(0.015625)"/>
       <path id="CMR17-45" d="M 3885 1615 
L 3770 1615 
C 3629 676 3546 166 2419 166 
L 1530 166 
C 1274 166 1261 197 1261 414 
L 1261 2176 
L 1862 2176 
C 2464 2176 2522 1960 2522 1430 
L 2637 1430 
L 2637 3081 
L 2522 3081 
C 2522 2557 2464 2342 1862 2342 
L 1261 2342 
L 1261 3913 
C 1261 4128 1274 4160 1530 4160 
L 2406 4160 
C 3398 4160 3514 3769 3603 2929 
L 3718 2929 
L 3565 4325 
L 326 4325 
L 326 4160 
C 768 4160 838 4160 838 3874 
L 838 451 
C 838 166 768 166 326 166 
L 326 0 
L 3654 0 
L 3885 1615 
z
" transform="scale(0.015625)"/>
      </defs>
      <use xlink:href="#CMR17-50" transform="scale(0.996264)"/>
      <use xlink:href="#CMR17-72" transform="translate(62.586301 0) scale(0.996264)"/>
      <use xlink:href="#CMR17-65" transform="translate(97.867068 0) scale(0.996264)"/>
      <use xlink:href="#CMR17-64" transform="translate(138.352729 0) scale(0.996264)"/>
      <use xlink:href="#CMR17-69" transform="translate(189.248099 0) scale(0.996264)"/>
      <use xlink:href="#CMR17-63" transform="translate(214.119157 0) scale(0.996264)"/>
      <use xlink:href="#CMR17-74" transform="translate(254.604818 0) scale(0.996264)"/>
      <use xlink:href="#CMR17-65" transform="translate(289.885585 0) scale(0.996264)"/>
      <use xlink:href="#CMR17-64" transform="translate(330.371246 0) scale(0.996264)"/>
      <use xlink:href="#CMR17-28" transform="translate(411.342582 0) scale(0.996264)"/>
      <use xlink:href="#CMR17-4d" transform="translate(446.62335 0) scale(0.996264)"/>
      <use xlink:href="#CMR17-53" transform="translate(531.31029 0) scale(0.996264)"/>
      <use xlink:href="#CMR17-45" transform="translate(582.20566 0) scale(0.996264)"/>
      <use xlink:href="#CMR17-29" transform="translate(644.791961 0) scale(0.996264)"/>
     </g>
    </g>
   </g>
  </g>
 </g>
 <defs>
  <clipPath id="pad08293767">
   <rect x="46.489061" y="25.604645" width="1390.510699" height="586.822194"/>
  </clipPath>
 </defs>
</svg>
